M48
; DRILL file {KiCad (5.1.6)-1} date 11/30/25 17:49:03
; FORMAT={-:-/ absolute / inch / decimal}
; #@! TF.CreationDate,2025-11-30T17:49:03+05:30
; #@! TF.GenerationSoftware,Kicad,Pcbnew,(5.1.6)-1
FMAT,2
INCH
T1C0.0118
T2C0.0669
%
G90
G05
T1
X2.167Y-3.836
X2.169Y-3.512
X2.226Y-3.584
X2.226Y-3.777
X2.255Y-3.88
X2.264Y-3.514
X2.289Y-3.841
X2.299Y-3.524
X2.3206Y-3.4798
X2.323Y-3.232
X2.332Y-4.114
X2.336Y-3.903
X2.3712Y-3.724
X2.3765Y-3.431
X2.387Y-3.359
X2.4143Y-3.798
X2.4143Y-3.839
X2.437Y-4.017
X2.448Y-3.5445
X2.456Y-3.319
X2.4605Y-3.713
X2.4625Y-3.275
X2.463Y-3.443
X2.4735Y-3.837
X2.4735Y-3.861
X2.475Y-3.812
X2.4753Y-3.6022
X2.4845Y-4.039
X2.4928Y-3.9247
X2.4946Y-3.9626
X2.502Y-4.094
X2.503Y-3.549
X2.5225Y-3.4855
X2.5334Y-3.3652
X2.537Y-3.269
X2.5456Y-3.5526
X2.5488Y-4.0342
X2.5511Y-3.9411
X2.5528Y-3.8084
X2.5586Y-4.1266
X2.562Y-3.7645
X2.5646Y-3.788
X2.5735Y-3.436
X2.5761Y-3.8122
X2.5785Y-3.308
X2.5815Y-3.922
X2.5899Y-3.57
X2.5899Y-3.5952
X2.5985Y-3.707
X2.601Y-3.083
X2.601Y-3.292
X2.601Y-4.27
X2.608Y-3.41
X2.616Y-4.039
X2.6225Y-3.478
X2.63Y-3.7725
X2.6345Y-3.5745
X2.6345Y-3.6615
X2.637Y-3.3573
X2.6445Y-4.1405
X2.6457Y-3.9973
X2.649Y-3.22
X2.662Y-3.9655
X2.663Y-3.4448
X2.67Y-3.813
X2.6726Y-3.478
X2.6735Y-3.377
X2.6775Y-3.9035
X2.6865Y-4.005
X2.7058Y-3.989
X2.7125Y-3.7725
X2.724Y-3.9185
X2.7285Y-3.9775
X2.7285Y-4.0115
X2.7308Y-3.3364
X2.731Y-3.243
X2.737Y-4.1665
X2.751Y-3.616
X2.752Y-3.8138
X2.774Y-3.728
X2.775Y-3.9
X2.7965Y-3.8121
X2.82Y-3.383
X2.8207Y-3.289
X2.827Y-3.5476
X2.8301Y-3.4979
X2.833Y-3.337
X2.846Y-4.013
X2.8495Y-3.8121
X2.8496Y-3.3916
X2.8504Y-3.4846
X2.857Y-3.242
X2.873Y-3.989
X2.8798Y-3.417
X2.881Y-3.963
X2.887Y-3.154
X2.895Y-3.514
X2.8988Y-3.546
X2.9038Y-3.4899
X2.907Y-3.337
X2.9115Y-3.405
X2.9127Y-4.0096
X2.9198Y-4.1492
X2.924Y-3.477
X2.924Y-4.277
X2.925Y-4.066
X2.933Y-3.319
X2.9348Y-3.9082
X2.937Y-3.083
X2.946Y-3.64
X2.946Y-3.681
X2.946Y-3.722
X2.9496Y-3.478
X2.971Y-3.302
X2.9806Y-3.5453
X2.986Y-3.64
X2.986Y-3.681
X2.986Y-3.722
X2.9888Y-3.9612
X2.999Y-3.406
X3.0Y-3.327
X3.0Y-4.13
X3.0016Y-3.8457
X3.013Y-3.268
X3.0136Y-4.0035
X3.0257Y-3.8532
X3.027Y-3.64
X3.027Y-3.681
X3.027Y-3.722
X3.0318Y-3.8218
X3.057Y-4.065
X3.059Y-3.26
X3.061Y-3.418
X3.0735Y-3.8085
X3.0809Y-3.5878
X3.0963Y-3.5686
X3.0967Y-3.9197
X3.0985Y-3.771
X3.101Y-3.796
X3.103Y-4.004
X3.1045Y-3.5911
X3.1057Y-4.0623
X3.108Y-3.671
X3.11Y-3.344
X3.1131Y-3.7105
X3.115Y-3.444
X3.148Y-3.483
X3.152Y-3.635
X3.1588Y-3.5348
X3.168Y-3.368
X3.1754Y-3.8404
X3.1768Y-3.6347
X3.1843Y-3.5369
X3.1845Y-3.4845
X3.1927Y-3.817
X3.201Y-3.3963
X3.205Y-3.962
X3.206Y-3.869
X3.208Y-3.233
X3.214Y-4.122
X3.2146Y-3.8124
X3.223Y-3.547
X3.232Y-3.464
X3.2424Y-3.8344
X3.2618Y-3.5216
X3.2642Y-3.8445
X3.325Y-3.59
X3.326Y-3.751
X3.362Y-3.498
X3.374Y-3.878
X3.3824Y-3.5772
T2
X3.456Y-3.9625
X2.4915Y-2.998
X2.4915Y-4.362
X3.0565Y-4.362
X2.092Y-3.9625
X2.092Y-3.3975
X3.0565Y-2.998
X3.456Y-3.3975
T0
M30
