%TF.GenerationSoftware,KiCad,Pcbnew,(5.1.6)-1*%
%TF.CreationDate,2025-12-14T22:53:02+05:30*%
%TF.ProjectId,Project_OAK_MAIN_BRD_V1.0,50726f6a-6563-4745-9f4f-414b5f4d4149,A*%
%TF.SameCoordinates,Original*%
%TF.FileFunction,Copper,L4,Bot*%
%TF.FilePolarity,Positive*%
%FSLAX46Y46*%
G04 Gerber Fmt 4.6, Leading zero omitted, Abs format (unit mm)*
G04 Created by KiCad (PCBNEW (5.1.6)-1) date 2025-12-14 22:53:02*
%MOMM*%
%LPD*%
G01*
G04 APERTURE LIST*
%TA.AperFunction,EtchedComponent*%
%ADD10C,0.100000*%
%TD*%
%TA.AperFunction,SMDPad,CuDef*%
%ADD11R,2.600000X5.560000*%
%TD*%
%TA.AperFunction,SMDPad,CuDef*%
%ADD12R,7.800000X5.960000*%
%TD*%
%TA.AperFunction,SMDPad,CuDef*%
%ADD13C,0.100000*%
%TD*%
%TA.AperFunction,SMDPad,CuDef*%
%ADD14R,1.050000X1.400000*%
%TD*%
%TA.AperFunction,SMDPad,CuDef*%
%ADD15C,1.000000*%
%TD*%
%TA.AperFunction,SMDPad,CuDef*%
%ADD16R,1.000000X0.500000*%
%TD*%
%TA.AperFunction,ViaPad*%
%ADD17C,0.450000*%
%TD*%
%TA.AperFunction,Conductor*%
%ADD18C,0.250000*%
%TD*%
%TA.AperFunction,Conductor*%
%ADD19C,0.142000*%
%TD*%
%TA.AperFunction,Conductor*%
%ADD20C,0.200000*%
%TD*%
%TA.AperFunction,Conductor*%
%ADD21C,0.156500*%
%TD*%
G04 APERTURE END LIST*
D10*
%TO.C,JP5*%
G36*
X59329600Y-86973600D02*
G01*
X59329600Y-87473600D01*
X58729600Y-87473600D01*
X58729600Y-86973600D01*
X59329600Y-86973600D01*
G37*
%TD*%
%TO.P,TP8,1*%
%TO.N,/HAP_DRV_POS*%
%TA.AperFunction,SMDPad,CuDef*%
G36*
G01*
X65728500Y-105432400D02*
X65728500Y-105057400D01*
G75*
G02*
X65916000Y-104869900I187500J0D01*
G01*
X66291000Y-104869900D01*
G75*
G02*
X66478500Y-105057400I0J-187500D01*
G01*
X66478500Y-105432400D01*
G75*
G02*
X66291000Y-105619900I-187500J0D01*
G01*
X65916000Y-105619900D01*
G75*
G02*
X65728500Y-105432400I0J187500D01*
G01*
G37*
%TD.AperFunction*%
%TD*%
%TO.P,TP2,1*%
%TO.N,/HAP_DRV_NEG*%
%TA.AperFunction,SMDPad,CuDef*%
G36*
G01*
X65715800Y-104149700D02*
X65715800Y-103774700D01*
G75*
G02*
X65903300Y-103587200I187500J0D01*
G01*
X66278300Y-103587200D01*
G75*
G02*
X66465800Y-103774700I0J-187500D01*
G01*
X66465800Y-104149700D01*
G75*
G02*
X66278300Y-104337200I-187500J0D01*
G01*
X65903300Y-104337200D01*
G75*
G02*
X65715800Y-104149700I0J187500D01*
G01*
G37*
%TD.AperFunction*%
%TD*%
D11*
%TO.P,BT1,S1+*%
%TO.N,+3V0*%
X58554600Y-93472000D03*
%TO.P,BT1,S2+*%
X82364600Y-93472000D03*
D12*
%TO.P,BT1,-*%
%TO.N,GND*%
X70459600Y-93472000D03*
%TD*%
%TA.AperFunction,SMDPad,CuDef*%
D13*
%TO.P,S3,2_2*%
%TO.N,GND*%
G36*
X87357008Y-106574716D02*
G01*
X88319921Y-106993402D01*
X87761672Y-108277286D01*
X86798759Y-107858600D01*
X87357008Y-106574716D01*
G37*
%TD.AperFunction*%
%TA.AperFunction,SMDPad,CuDef*%
%TO.P,S3,2_1*%
G36*
X88792505Y-103273300D02*
G01*
X89755418Y-103691986D01*
X89197169Y-104975870D01*
X88234256Y-104557184D01*
X88792505Y-103273300D01*
G37*
%TD.AperFunction*%
%TA.AperFunction,SMDPad,CuDef*%
%TO.P,S3,1_2*%
%TO.N,/DWN_BTN*%
G36*
X86027271Y-105996530D02*
G01*
X86990184Y-106415216D01*
X86431935Y-107699100D01*
X85469022Y-107280414D01*
X86027271Y-105996530D01*
G37*
%TD.AperFunction*%
%TA.AperFunction,SMDPad,CuDef*%
%TO.P,S3,1_1*%
G36*
X87462768Y-102695114D02*
G01*
X88425681Y-103113800D01*
X87867432Y-104397684D01*
X86904519Y-103978998D01*
X87462768Y-102695114D01*
G37*
%TD.AperFunction*%
%TD*%
D14*
%TO.P,S1,2_2*%
%TO.N,GND*%
X90582580Y-95269460D03*
%TO.P,S1,2_1*%
X90582580Y-91669460D03*
%TO.P,S1,1_2*%
%TO.N,/LGT_ON_BTN*%
X89132580Y-95269460D03*
%TO.P,S1,1_1*%
X89132580Y-91669460D03*
%TD*%
%TA.AperFunction,SMDPad,CuDef*%
D13*
%TO.P,S2,2_2*%
%TO.N,GND*%
G36*
X88213936Y-82374116D02*
G01*
X89176849Y-81955430D01*
X89735098Y-83239314D01*
X88772185Y-83658000D01*
X88213936Y-82374116D01*
G37*
%TD.AperFunction*%
%TA.AperFunction,SMDPad,CuDef*%
%TO.P,S2,2_1*%
G36*
X86778439Y-79072700D02*
G01*
X87741352Y-78654014D01*
X88299601Y-79937898D01*
X87336688Y-80356584D01*
X86778439Y-79072700D01*
G37*
%TD.AperFunction*%
%TA.AperFunction,SMDPad,CuDef*%
%TO.P,S2,1_2*%
%TO.N,/UP_BTN*%
G36*
X86884199Y-82952302D02*
G01*
X87847112Y-82533616D01*
X88405361Y-83817500D01*
X87442448Y-84236186D01*
X86884199Y-82952302D01*
G37*
%TD.AperFunction*%
%TA.AperFunction,SMDPad,CuDef*%
%TO.P,S2,1_1*%
G36*
X85448702Y-79650886D02*
G01*
X86411615Y-79232200D01*
X86969864Y-80516084D01*
X86006951Y-80934770D01*
X85448702Y-79650886D01*
G37*
%TD.AperFunction*%
%TD*%
%TO.P,C1,1*%
%TO.N,/LGT_ON_BTN*%
%TA.AperFunction,SMDPad,CuDef*%
G36*
G01*
X87802500Y-94252000D02*
X87457500Y-94252000D01*
G75*
G02*
X87310000Y-94104500I0J147500D01*
G01*
X87310000Y-93809500D01*
G75*
G02*
X87457500Y-93662000I147500J0D01*
G01*
X87802500Y-93662000D01*
G75*
G02*
X87950000Y-93809500I0J-147500D01*
G01*
X87950000Y-94104500D01*
G75*
G02*
X87802500Y-94252000I-147500J0D01*
G01*
G37*
%TD.AperFunction*%
%TO.P,C1,2*%
%TO.N,GND*%
%TA.AperFunction,SMDPad,CuDef*%
G36*
G01*
X87802500Y-93282000D02*
X87457500Y-93282000D01*
G75*
G02*
X87310000Y-93134500I0J147500D01*
G01*
X87310000Y-92839500D01*
G75*
G02*
X87457500Y-92692000I147500J0D01*
G01*
X87802500Y-92692000D01*
G75*
G02*
X87950000Y-92839500I0J-147500D01*
G01*
X87950000Y-93134500D01*
G75*
G02*
X87802500Y-93282000I-147500J0D01*
G01*
G37*
%TD.AperFunction*%
%TD*%
%TO.P,C2,2*%
%TO.N,GND*%
%TA.AperFunction,SMDPad,CuDef*%
G36*
G01*
X85680431Y-82179975D02*
X85364045Y-82317543D01*
G75*
G02*
X85169964Y-82241092I-58815J135266D01*
G01*
X85052333Y-81970559D01*
G75*
G02*
X85128784Y-81776478I135266J58815D01*
G01*
X85445169Y-81638909D01*
G75*
G02*
X85639250Y-81715360I58815J-135266D01*
G01*
X85756881Y-81985893D01*
G75*
G02*
X85680430Y-82179974I-135266J-58815D01*
G01*
G37*
%TD.AperFunction*%
%TO.P,C2,1*%
%TO.N,/UP_BTN*%
%TA.AperFunction,SMDPad,CuDef*%
G36*
G01*
X86067217Y-83069523D02*
X85750831Y-83207091D01*
G75*
G02*
X85556750Y-83130640I-58815J135266D01*
G01*
X85439119Y-82860107D01*
G75*
G02*
X85515570Y-82666026I135266J58815D01*
G01*
X85831955Y-82528457D01*
G75*
G02*
X86026036Y-82604908I58815J-135266D01*
G01*
X86143667Y-82875441D01*
G75*
G02*
X86067216Y-83069522I-135266J-58815D01*
G01*
G37*
%TD.AperFunction*%
%TD*%
%TO.P,C3,1*%
%TO.N,/DWN_BTN*%
%TA.AperFunction,SMDPad,CuDef*%
G36*
G01*
X85725431Y-103762309D02*
X86041816Y-103899878D01*
G75*
G02*
X86118267Y-104093959I-58815J-135266D01*
G01*
X86000636Y-104364492D01*
G75*
G02*
X85806555Y-104440943I-135266J58815D01*
G01*
X85490170Y-104303374D01*
G75*
G02*
X85413719Y-104109293I58815J135266D01*
G01*
X85531350Y-103838760D01*
G75*
G02*
X85725431Y-103762309I135266J-58815D01*
G01*
G37*
%TD.AperFunction*%
%TO.P,C3,2*%
%TO.N,GND*%
%TA.AperFunction,SMDPad,CuDef*%
G36*
G01*
X85338645Y-104651857D02*
X85655030Y-104789426D01*
G75*
G02*
X85731481Y-104983507I-58815J-135266D01*
G01*
X85613850Y-105254040D01*
G75*
G02*
X85419769Y-105330491I-135266J58815D01*
G01*
X85103384Y-105192922D01*
G75*
G02*
X85026933Y-104998841I58815J135266D01*
G01*
X85144564Y-104728308D01*
G75*
G02*
X85338645Y-104651857I135266J-58815D01*
G01*
G37*
%TD.AperFunction*%
%TD*%
%TO.P,C4,1*%
%TO.N,+3V0*%
%TA.AperFunction,SMDPad,CuDef*%
G36*
G01*
X82700080Y-98790980D02*
X82700080Y-99135980D01*
G75*
G02*
X82552580Y-99283480I-147500J0D01*
G01*
X82257580Y-99283480D01*
G75*
G02*
X82110080Y-99135980I0J147500D01*
G01*
X82110080Y-98790980D01*
G75*
G02*
X82257580Y-98643480I147500J0D01*
G01*
X82552580Y-98643480D01*
G75*
G02*
X82700080Y-98790980I0J-147500D01*
G01*
G37*
%TD.AperFunction*%
%TO.P,C4,2*%
%TO.N,GND*%
%TA.AperFunction,SMDPad,CuDef*%
G36*
G01*
X81730080Y-98790980D02*
X81730080Y-99135980D01*
G75*
G02*
X81582580Y-99283480I-147500J0D01*
G01*
X81287580Y-99283480D01*
G75*
G02*
X81140080Y-99135980I0J147500D01*
G01*
X81140080Y-98790980D01*
G75*
G02*
X81287580Y-98643480I147500J0D01*
G01*
X81582580Y-98643480D01*
G75*
G02*
X81730080Y-98790980I0J-147500D01*
G01*
G37*
%TD.AperFunction*%
%TD*%
D15*
%TO.P,TP1,1*%
%TO.N,/EXT_3V3_IN*%
X72999600Y-105968800D03*
%TD*%
%TO.P,TP3,1*%
%TO.N,/ICSP_MOSI*%
X70459600Y-105968800D03*
%TD*%
%TO.P,TP4,1*%
%TO.N,/ICSP_MISO*%
X72999600Y-103428800D03*
%TD*%
%TO.P,TP5,1*%
%TO.N,/ICSP_SCK*%
X70459600Y-103428800D03*
%TD*%
%TO.P,TP12,1*%
%TO.N,/MCU_RSTn*%
X67919600Y-103428800D03*
%TD*%
%TO.P,TP13,1*%
%TO.N,GND*%
X67919600Y-105968800D03*
%TD*%
D12*
%TO.P,BT1,-*%
%TO.N,GND*%
X70459600Y-93472000D03*
D11*
%TO.P,BT1,S2+*%
%TO.N,+3V0*%
X82364600Y-93472000D03*
%TO.P,BT1,S1+*%
X58554600Y-93472000D03*
%TD*%
D16*
%TO.P,JP9,2*%
%TO.N,+3V0*%
X84607400Y-97036000D03*
%TO.P,JP9,1*%
%TO.N,/EXT_3V3_IN*%
X84607400Y-98036000D03*
%TD*%
%TO.P,JP5,2*%
%TO.N,/ACC_INT1*%
X59029600Y-86723600D03*
%TO.P,JP5,1*%
%TO.N,/PE1*%
X59029600Y-87723600D03*
%TD*%
D17*
%TO.N,+3V0*%
X56540400Y-95935800D03*
X84455000Y-91186000D03*
X84480400Y-95275400D03*
X56540400Y-91033600D03*
X61323190Y-96469200D03*
X71031101Y-96827012D03*
X78765400Y-96418400D03*
X80655162Y-97546160D03*
X65156080Y-95412556D03*
X67868800Y-87400260D03*
X73121520Y-87233760D03*
X65145920Y-91343480D03*
X81913316Y-90107295D03*
X67845940Y-90116988D03*
X63223140Y-100754210D03*
%TO.N,GND*%
X74599800Y-78308200D03*
X69363460Y-84744612D03*
X81483200Y-82118200D03*
X85765640Y-89555320D03*
X85699600Y-98501200D03*
X81635600Y-104698800D03*
X74269600Y-108635800D03*
X66065400Y-108458000D03*
X59232800Y-104495600D03*
X55041800Y-97434400D03*
X55092600Y-89204800D03*
X59004200Y-82092800D03*
X66065400Y-78308200D03*
X77647800Y-103251000D03*
X71958200Y-84759800D03*
X66065400Y-83616800D03*
X75463400Y-83870800D03*
X77749400Y-86817200D03*
X69367400Y-82372200D03*
X72567800Y-82346800D03*
X72288400Y-101930200D03*
X57277000Y-98552000D03*
X80467200Y-85547200D03*
X69875394Y-91846400D03*
X74828400Y-92456000D03*
X76885800Y-92456000D03*
X75844400Y-92456000D03*
X74828400Y-94538800D03*
X76885800Y-94538800D03*
X75844400Y-94538800D03*
X74828400Y-93497400D03*
X76885800Y-93497400D03*
X75844400Y-93497400D03*
X66979332Y-85274276D03*
X62826900Y-97459800D03*
X66852800Y-96100900D03*
X66916300Y-90792300D03*
X66802000Y-93002100D03*
X67818000Y-96850200D03*
X74295000Y-103276400D03*
X63106300Y-102590600D03*
X73177400Y-100660200D03*
X73952100Y-86487000D03*
X73837800Y-84759800D03*
X65366900Y-87274400D03*
X64071500Y-88531700D03*
X62547500Y-83185000D03*
X80886300Y-88353900D03*
X60363100Y-87147400D03*
X76174600Y-86512400D03*
X87381080Y-90129360D03*
X72379840Y-86146638D03*
X67883010Y-88341200D03*
X75915520Y-100614480D03*
X81095811Y-96951617D03*
X81432400Y-98272600D03*
X64348360Y-85476080D03*
X73106280Y-96113600D03*
X66852800Y-94576900D03*
X69900800Y-96834960D03*
X60822840Y-85191600D03*
X62504320Y-91389200D03*
X69202300Y-101981001D03*
X81803240Y-96857820D03*
X79088632Y-93263038D03*
X77757020Y-82781140D03*
X80561180Y-87081360D03*
X69161660Y-99766120D03*
X67201384Y-101530818D03*
X80899000Y-89662000D03*
X71882000Y-88849200D03*
X64973200Y-104876600D03*
X62687200Y-99618808D03*
X58369200Y-98272600D03*
X70459600Y-94608462D03*
X71080406Y-94569871D03*
X65136111Y-96160190D03*
%TO.N,/LGT_ON_BTN*%
X73558400Y-90093800D03*
%TO.N,/UP_BTN*%
X73757660Y-88643528D03*
%TO.N,/MCU_RSTn*%
X80111600Y-89783594D03*
X75783440Y-89992200D03*
%TO.N,/R1*%
X69519800Y-105829579D03*
X65493902Y-84023200D03*
X67198240Y-105023920D03*
%TO.N,/R2*%
X63550800Y-103987600D03*
X62560200Y-87452200D03*
X76200000Y-84505800D03*
X74437240Y-105369360D03*
X67396362Y-81815940D03*
X76523247Y-83014153D03*
X74912610Y-88332638D03*
%TO.N,/R3*%
X61899800Y-102031800D03*
X78994000Y-84937600D03*
X64439800Y-83032600D03*
X74269600Y-88315800D03*
X76200000Y-104902000D03*
X60248800Y-94777560D03*
X79959200Y-88395940D03*
%TO.N,/R4*%
X62382400Y-84302600D03*
X81305400Y-86266545D03*
X78884750Y-103182450D03*
X80660240Y-92268040D03*
X59415680Y-99047300D03*
%TO.N,/R5*%
X58140600Y-97561400D03*
X81407000Y-100634800D03*
X64739499Y-102469879D03*
X58943240Y-88386920D03*
X82753200Y-89412811D03*
%TO.N,/R6*%
X82092800Y-87985600D03*
X58394600Y-89509600D03*
X64797084Y-100103419D03*
X82356960Y-97393760D03*
X73240913Y-101993713D03*
%TO.N,/C6*%
X78645990Y-90643050D03*
X67537460Y-100723700D03*
%TO.N,/C5*%
X78255452Y-91131356D03*
X69303900Y-101028500D03*
%TO.N,/C4*%
X78854327Y-91212761D03*
X74549004Y-99276029D03*
%TO.N,/C3*%
X67906900Y-85775800D03*
X77063593Y-97739207D03*
%TO.N,/C2*%
X62179198Y-90030300D03*
X76316908Y-97776025D03*
%TO.N,/PE1*%
X65659000Y-94145100D03*
%TO.N,/ICSP_MOSI*%
X68726369Y-101319837D03*
X77094400Y-96855606D03*
%TO.N,/ICSP_MISO*%
X68072000Y-101312980D03*
X78143100Y-96710500D03*
%TO.N,/ICSP_SCK*%
X78310740Y-95710489D03*
%TO.N,/DWN_BTN*%
X78816198Y-101701600D03*
%TO.N,/RTC_INTO*%
X62496700Y-94310200D03*
X73629149Y-89382044D03*
%TO.N,/SNS_SCL*%
X65542160Y-90063320D03*
X64846200Y-96710500D03*
%TO.N,/SNS_SDA*%
X63576200Y-90144600D03*
X72418311Y-88496648D03*
X65497840Y-96685100D03*
%TO.N,/ACC_INT1*%
X66243200Y-86614000D03*
%TO.N,/ACC_INT2*%
X65928240Y-91297760D03*
X72265231Y-96827012D03*
%TO.N,/MON_LED*%
X66045080Y-89712800D03*
X71983600Y-90116988D03*
%TO.N,/PE2*%
X79138780Y-94361000D03*
X68148200Y-99161600D03*
X73571100Y-98750774D03*
%TO.N,/LED MATRIX/C1_T*%
X74498200Y-84302600D03*
X79121000Y-87477600D03*
X71645810Y-83540600D03*
X76544726Y-101689518D03*
X78656782Y-99560984D03*
X80055720Y-92268038D03*
%TO.N,/LED MATRIX/C2_T*%
X61325760Y-97322640D03*
X64719200Y-103200200D03*
%TO.N,/LED MATRIX/C3_T*%
X71628000Y-85928200D03*
X73329800Y-80111600D03*
%TO.N,/LED MATRIX/C4_T*%
X82911385Y-97650316D03*
X73945086Y-101986680D03*
%TO.N,/LED MATRIX/C6_T*%
X57505600Y-89255600D03*
X65570100Y-99618800D03*
%TO.N,/HAP_DRV_NEG*%
X62865000Y-96824800D03*
%TO.N,/HAP_DRV_POS*%
X62826900Y-98069400D03*
%TD*%
D18*
%TO.N,+3V0*%
X84607400Y-95402400D02*
X84480400Y-95275400D01*
X84607400Y-97036000D02*
X84607400Y-95402400D01*
X64947800Y-107365800D02*
X71348600Y-107365800D01*
X60299600Y-102717600D02*
X64947800Y-107365800D01*
X60299600Y-99466400D02*
X60299600Y-102717600D01*
X72849740Y-104353360D02*
X74706480Y-104353360D01*
X72034400Y-106680000D02*
X72034400Y-105168700D01*
X71348600Y-107365800D02*
X72034400Y-106680000D01*
X72034400Y-105168700D02*
X72849740Y-104353360D01*
X80655162Y-98404678D02*
X80655162Y-97546160D01*
X60523120Y-96469200D02*
X61323190Y-96469200D01*
X60304680Y-96687640D02*
X60523120Y-96469200D01*
X58554600Y-93472000D02*
X58554600Y-94937560D01*
X58554600Y-94937560D02*
X60304680Y-96687640D01*
X58572400Y-93489800D02*
X58554600Y-93472000D01*
X60299600Y-99466400D02*
X60299600Y-96677480D01*
X58572400Y-94950280D02*
X58572400Y-93489800D01*
X60299600Y-96677480D02*
X58572400Y-94950280D01*
X82438240Y-93545640D02*
X82364600Y-93472000D01*
X83058000Y-98963480D02*
X83489800Y-98531680D01*
X82405080Y-98963480D02*
X83058000Y-98963480D01*
X83489800Y-98531680D02*
X83489800Y-97469960D01*
X83489800Y-97469960D02*
X82438240Y-96418400D01*
X82438240Y-96418400D02*
X82438240Y-93545640D01*
X82405080Y-98963480D02*
X82405080Y-98391840D01*
X82405080Y-98391840D02*
X81559400Y-97546160D01*
X81559400Y-97546160D02*
X80655162Y-97546160D01*
X74706480Y-104353360D02*
X80655162Y-98404678D01*
X58105040Y-86085680D02*
X56540400Y-87650320D01*
X67868800Y-87400260D02*
X66554220Y-86085680D01*
X56540400Y-87650320D02*
X56540400Y-91033600D01*
X66554220Y-86085680D02*
X58105040Y-86085680D01*
X72955020Y-87400260D02*
X73121520Y-87233760D01*
X67868800Y-87400260D02*
X72955020Y-87400260D01*
X82364600Y-93472000D02*
X81913316Y-93020716D01*
X81913316Y-93020716D02*
X81913316Y-90107295D01*
X66372412Y-90116988D02*
X67845940Y-90116988D01*
X65145920Y-91343480D02*
X66372412Y-90116988D01*
D19*
X60299600Y-99466400D02*
X61587410Y-100754210D01*
X62904942Y-100754210D02*
X63223140Y-100754210D01*
X61587410Y-100754210D02*
X62904942Y-100754210D01*
D18*
X65156080Y-95412556D02*
X65145920Y-95402396D01*
X65145920Y-93558360D02*
X65145920Y-91343480D01*
X65145920Y-95402396D02*
X65145920Y-93558360D01*
D20*
%TO.N,GND*%
X90582580Y-91669460D02*
X90582580Y-95269460D01*
X87559340Y-107426001D02*
X88994837Y-104124585D01*
D18*
X70459600Y-92430606D02*
X69875394Y-91846400D01*
X70459600Y-93472000D02*
X70459600Y-92430606D01*
X81435080Y-98275280D02*
X81432400Y-98272600D01*
X81435080Y-98963480D02*
X81435080Y-98275280D01*
D20*
X85455407Y-105054753D02*
X85455407Y-105041974D01*
X84505800Y-106004360D02*
X85455407Y-105054753D01*
X87559340Y-107426001D02*
X87045800Y-108712000D01*
X84505800Y-107746800D02*
X84505800Y-106004360D01*
X87045800Y-108712000D02*
X84505800Y-107746800D01*
X88351360Y-90185240D02*
X87655400Y-90881200D01*
X90582580Y-91669460D02*
X90474800Y-91561680D01*
X87655400Y-90881200D02*
X87655400Y-93014800D01*
X90474800Y-90185240D02*
X88351360Y-90185240D01*
X90474800Y-91561680D02*
X90474800Y-90185240D01*
D18*
X65443100Y-105968800D02*
X64973200Y-105498900D01*
X64973200Y-105498900D02*
X64973200Y-104876600D01*
X67919600Y-105968800D02*
X65443100Y-105968800D01*
X70459600Y-93472000D02*
X70459600Y-94608462D01*
X69900800Y-96870966D02*
X69900800Y-95167262D01*
X69900800Y-95167262D02*
X70459600Y-94608462D01*
D20*
X86776560Y-78399640D02*
X87559340Y-79182420D01*
X85404607Y-81978226D02*
X85404607Y-81777487D01*
X87559340Y-79515459D02*
X88994837Y-82816875D01*
X84749640Y-79095600D02*
X86776560Y-78399640D01*
X84749640Y-81122520D02*
X84749640Y-79095600D01*
X85404607Y-81777487D02*
X84749640Y-81122520D01*
X87559340Y-79182420D02*
X87559340Y-79515459D01*
D21*
%TO.N,/LGT_ON_BTN*%
X89132580Y-91669460D02*
X89132580Y-95269460D01*
X88132060Y-95269460D02*
X89132580Y-95269460D01*
X87630000Y-93957000D02*
X87630000Y-94767400D01*
X87630000Y-94767400D02*
X88132060Y-95269460D01*
X73609200Y-90093800D02*
X73558400Y-90093800D01*
X74447400Y-89255600D02*
X73609200Y-90093800D01*
X80060800Y-89255600D02*
X74447400Y-89255600D01*
X87655400Y-93980000D02*
X86812190Y-93136790D01*
X86812190Y-91434990D02*
X84264500Y-88887300D01*
X80429100Y-88887300D02*
X80060800Y-89255600D01*
X86812190Y-93136790D02*
X86812190Y-91434990D01*
X84264500Y-88887300D02*
X80429100Y-88887300D01*
%TO.N,/UP_BTN*%
X86229603Y-80093645D02*
X87665100Y-83395061D01*
X87665100Y-83395061D02*
X87611461Y-83395061D01*
X87611461Y-83395061D02*
X87604600Y-83388200D01*
X87604600Y-83388200D02*
X87274400Y-83388200D01*
X85791393Y-82867774D02*
X85791393Y-83048193D01*
X87665100Y-83395061D02*
X87377321Y-83682840D01*
X86606459Y-83682840D02*
X85791393Y-82867774D01*
X87377321Y-83682840D02*
X86606459Y-83682840D01*
X71094600Y-81864200D02*
X71932800Y-81026000D01*
X82600800Y-81026000D02*
X84442574Y-82867774D01*
X71094600Y-84709000D02*
X71094600Y-81864200D01*
X71831200Y-85445600D02*
X71094600Y-84709000D01*
X73757660Y-87092660D02*
X73050400Y-86385400D01*
X71932800Y-81026000D02*
X82600800Y-81026000D01*
X73757660Y-88643528D02*
X73757660Y-87092660D01*
X84442574Y-82867774D02*
X85791393Y-82867774D01*
X73050400Y-85813900D02*
X72682100Y-85445600D01*
X73050400Y-86385400D02*
X73050400Y-85813900D01*
X72682100Y-85445600D02*
X71831200Y-85445600D01*
%TO.N,/MCU_RSTn*%
X76113640Y-89662000D02*
X75783440Y-89992200D01*
X80111600Y-89783594D02*
X79990006Y-89662000D01*
X79990006Y-89662000D02*
X76113640Y-89662000D01*
X80111600Y-90723720D02*
X80111600Y-89783594D01*
X77922120Y-92913200D02*
X80111600Y-90723720D01*
X77922120Y-95153480D02*
X77922120Y-92913200D01*
X70281800Y-99695000D02*
X73101200Y-96875600D01*
X76200000Y-96875600D02*
X77922120Y-95153480D01*
X68681600Y-103428800D02*
X70281800Y-101828600D01*
X67919600Y-103428800D02*
X68681600Y-103428800D01*
X70281800Y-101828600D02*
X70281800Y-99695000D01*
X73101200Y-96875600D02*
X76200000Y-96875600D01*
D20*
%TO.N,/R2*%
X75259648Y-87985600D02*
X74912610Y-88332638D01*
X76200000Y-84505800D02*
X77520800Y-84505800D01*
X77520800Y-84505800D02*
X79705200Y-86690200D01*
X79705200Y-86690200D02*
X79705200Y-87716360D01*
X79705200Y-87716360D02*
X79435960Y-87985600D01*
X79435960Y-87985600D02*
X75259648Y-87985600D01*
%TO.N,/R3*%
X79531340Y-88823800D02*
X79959200Y-88395940D01*
X74459402Y-88823800D02*
X79531340Y-88823800D01*
X74269600Y-88315800D02*
X74269600Y-88633998D01*
X74269600Y-88633998D02*
X74459402Y-88823800D01*
%TO.N,/R6*%
X62407800Y-100203000D02*
X64697503Y-100203000D01*
X60467240Y-89509600D02*
X60797440Y-89839800D01*
X58394600Y-89509600D02*
X60467240Y-89509600D01*
X60797440Y-89839800D02*
X60797440Y-95158560D01*
X64697503Y-100203000D02*
X64797084Y-100103419D01*
X61869320Y-99664520D02*
X62407800Y-100203000D01*
X60797440Y-95158560D02*
X61869320Y-96230440D01*
X61869320Y-96230440D02*
X61869320Y-99664520D01*
%TO.N,/EXT_3V3_IN*%
X74879200Y-104825800D02*
X80091280Y-99613720D01*
X73345040Y-104825800D02*
X74879200Y-104825800D01*
X72999600Y-105968800D02*
X72999600Y-105171240D01*
X72999600Y-105171240D02*
X73345040Y-104825800D01*
X80091280Y-99613720D02*
X83510120Y-99613720D01*
X83510120Y-99613720D02*
X84607400Y-98516440D01*
X84607400Y-98516440D02*
X84607400Y-98036000D01*
D21*
%TO.N,/PE1*%
X65659000Y-96113600D02*
X65659000Y-94145100D01*
X65402714Y-97586800D02*
X66001900Y-96987614D01*
X59915680Y-87723600D02*
X61659330Y-89467250D01*
X59029600Y-87723600D02*
X59915680Y-87723600D01*
X66001900Y-96987614D02*
X66001900Y-96456500D01*
X61659330Y-89467250D02*
X61659330Y-94933330D01*
X66001900Y-96456500D02*
X65659000Y-96113600D01*
X64312800Y-97586800D02*
X65402714Y-97586800D01*
X61659330Y-94933330D02*
X64312800Y-97586800D01*
%TO.N,/ICSP_MOSI*%
X69540120Y-104180640D02*
X69540120Y-103896160D01*
X70459600Y-105968800D02*
X70459600Y-105100120D01*
X70459600Y-105100120D02*
X69540120Y-104180640D01*
X69540120Y-104145080D02*
X69540120Y-103896160D01*
X69281040Y-104404160D02*
X69540120Y-104145080D01*
X68726369Y-101326631D02*
X67191349Y-102861651D01*
X67792600Y-104404160D02*
X69281040Y-104404160D01*
X68726369Y-101319837D02*
X68726369Y-101326631D01*
X67191349Y-102861651D02*
X67191349Y-103802909D01*
X67191349Y-103802909D02*
X67792600Y-104404160D01*
X69540120Y-103896160D02*
X69540120Y-103281480D01*
X70751700Y-102069900D02*
X70751700Y-99771200D01*
X69540120Y-103281480D02*
X70751700Y-102069900D01*
X70751700Y-99771200D02*
X73228200Y-97294700D01*
X76655306Y-97294700D02*
X77094400Y-96855606D01*
X73228200Y-97294700D02*
X76655306Y-97294700D01*
%TO.N,/ICSP_MISO*%
X72999600Y-103428800D02*
X72199500Y-103428800D01*
X71485760Y-106410760D02*
X70952360Y-106944160D01*
X72034400Y-103428800D02*
X71485760Y-103977440D01*
X67680840Y-104815640D02*
X66802000Y-103936800D01*
X66802000Y-102743000D02*
X68072000Y-101473000D01*
X71485760Y-103977440D02*
X71485760Y-106410760D01*
X70952360Y-106944160D02*
X69484240Y-106944160D01*
X66802000Y-103936800D02*
X66802000Y-102743000D01*
X72199500Y-103428800D02*
X72034400Y-103428800D01*
X68884800Y-106344720D02*
X68884800Y-105328720D01*
X68884800Y-105328720D02*
X68371720Y-104815640D01*
X68072000Y-101473000D02*
X68072000Y-101312980D01*
X69484240Y-106944160D02*
X68884800Y-106344720D01*
X68371720Y-104815640D02*
X67680840Y-104815640D01*
X78115158Y-96738442D02*
X78143100Y-96710500D01*
X78069440Y-96738442D02*
X78115158Y-96738442D01*
X75882500Y-98920300D02*
X77355700Y-98920300D01*
X72199500Y-103428800D02*
X71640700Y-102870000D01*
X77355700Y-98920300D02*
X78143100Y-98132900D01*
X75082400Y-98120200D02*
X75882500Y-98920300D01*
X78143100Y-98132900D02*
X78143100Y-96710500D01*
X71640700Y-99987100D02*
X73507600Y-98120200D01*
X71640700Y-102870000D02*
X71640700Y-99987100D01*
X73507600Y-98120200D02*
X75082400Y-98120200D01*
%TO.N,/ICSP_SCK*%
X77622400Y-96398829D02*
X78310740Y-95710489D01*
X77622400Y-98069400D02*
X77622400Y-96398829D01*
X77190600Y-98501200D02*
X77622400Y-98069400D01*
X71170800Y-102717600D02*
X71170800Y-99885500D01*
X73304400Y-97751900D02*
X75374500Y-97751900D01*
X70459600Y-103428800D02*
X71170800Y-102717600D01*
X71170800Y-99885500D02*
X73304400Y-97751900D01*
X76123800Y-98501200D02*
X77190600Y-98501200D01*
X75374500Y-97751900D02*
X76123800Y-98501200D01*
%TO.N,/DWN_BTN*%
X87665100Y-103546399D02*
X86229603Y-106847815D01*
X87461141Y-103342440D02*
X87665100Y-103546399D01*
X85852000Y-103713280D02*
X86222840Y-103342440D01*
X85842193Y-104152426D02*
X85852000Y-104142619D01*
X86222840Y-103342440D02*
X87461141Y-103342440D01*
X85852000Y-104142619D02*
X85852000Y-103713280D01*
X78816198Y-101706678D02*
X78816198Y-101701600D01*
X80924400Y-103814880D02*
X78816198Y-101706678D01*
X85775800Y-104063800D02*
X85526880Y-103814880D01*
X85526880Y-103814880D02*
X80924400Y-103814880D01*
%TO.N,/RTC_INTO*%
X68760641Y-89608961D02*
X73402232Y-89608961D01*
X68397120Y-89245440D02*
X68760641Y-89608961D01*
X64190880Y-93085920D02*
X64190880Y-90241120D01*
X73402232Y-89608961D02*
X73629149Y-89382044D01*
X62966600Y-94310200D02*
X64190880Y-93085920D01*
X62496700Y-94310200D02*
X62966600Y-94310200D01*
X64190880Y-90241120D02*
X65186560Y-89245440D01*
X65186560Y-89245440D02*
X68397120Y-89245440D01*
%TO.N,/SNS_SCL*%
X64592200Y-96456500D02*
X64846200Y-96710500D01*
X65542160Y-90063320D02*
X64592200Y-91013280D01*
X64592200Y-91013280D02*
X64592200Y-96456500D01*
%TO.N,/SNS_SDA*%
X64879220Y-88841580D02*
X63576200Y-90144600D01*
X72316848Y-88496648D02*
X72212200Y-88392000D01*
X68409820Y-88841580D02*
X64879220Y-88841580D01*
X72418311Y-88496648D02*
X72316848Y-88496648D01*
X68859400Y-88392000D02*
X68409820Y-88841580D01*
X72212200Y-88392000D02*
X68859400Y-88392000D01*
X65497840Y-96808160D02*
X65497840Y-96685100D01*
X65074800Y-97231200D02*
X65497840Y-96808160D01*
X63576200Y-90144600D02*
X62890400Y-90144600D01*
X64490600Y-97231200D02*
X65074800Y-97231200D01*
X62039500Y-90995500D02*
X62039500Y-94780100D01*
X62890400Y-90144600D02*
X62039500Y-90995500D01*
X62039500Y-94780100D02*
X64490600Y-97231200D01*
%TO.N,/ACC_INT1*%
X59146440Y-86614000D02*
X66243200Y-86614000D01*
X59029600Y-86723600D02*
X59036840Y-86723600D01*
X59036840Y-86723600D02*
X59146440Y-86614000D01*
%TO.N,/ACC_INT2*%
X66331349Y-91700869D02*
X66331349Y-96557349D01*
X66331349Y-96557349D02*
X67111880Y-97337880D01*
X72265231Y-96873369D02*
X72265231Y-96827012D01*
X67111880Y-97337880D02*
X71800720Y-97337880D01*
X65928240Y-91297760D02*
X66331349Y-91700869D01*
X71800720Y-97337880D02*
X72265231Y-96873369D01*
%TO.N,/MON_LED*%
X66112252Y-89645628D02*
X68136908Y-89645628D01*
X68608268Y-90116988D02*
X71983600Y-90116988D01*
X66045080Y-89712800D02*
X66112252Y-89645628D01*
X68136908Y-89645628D02*
X68608268Y-90116988D01*
D20*
%TO.N,/LED MATRIX/C1_T*%
X73736200Y-83540600D02*
X71645810Y-83540600D01*
X74498200Y-84302600D02*
X73736200Y-83540600D01*
X78656782Y-99577462D02*
X78656782Y-99560984D01*
X76544726Y-101689518D02*
X78656782Y-99577462D01*
X75285600Y-85090000D02*
X74498200Y-84302600D01*
X77368400Y-85090000D02*
X75285600Y-85090000D01*
X79121000Y-87477600D02*
X79121000Y-86842600D01*
X79121000Y-86842600D02*
X77368400Y-85090000D01*
X80175100Y-92387418D02*
X80055720Y-92268038D01*
X78656782Y-99560984D02*
X80175100Y-98042666D01*
X80175100Y-98042666D02*
X80175100Y-92387418D01*
%TO.N,/LED MATRIX/C3_T*%
X72176640Y-80111600D02*
X73329800Y-80111600D01*
X71628000Y-85928200D02*
X70647560Y-84947760D01*
X70647560Y-81640680D02*
X72176640Y-80111600D01*
X70647560Y-84947760D02*
X70647560Y-81640680D01*
%TO.N,/LED MATRIX/C6_T*%
X61239400Y-94988690D02*
X62306200Y-96055490D01*
X57788750Y-88940640D02*
X60497720Y-88940640D01*
X57505600Y-89223790D02*
X57788750Y-88940640D01*
X62306200Y-96055490D02*
X62306200Y-98318320D01*
X61239400Y-89682320D02*
X61239400Y-94988690D01*
X65145899Y-99194599D02*
X65570100Y-99618800D01*
X62306200Y-98318320D02*
X63182479Y-99194599D01*
X63182479Y-99194599D02*
X65145899Y-99194599D01*
X60497720Y-88940640D02*
X61239400Y-89682320D01*
%TO.N,/HAP_DRV_NEG*%
X64185800Y-98044000D02*
X62966600Y-96824800D01*
X62966600Y-96824800D02*
X62865000Y-96824800D01*
X65872360Y-98044000D02*
X64185800Y-98044000D01*
X66781680Y-98953320D02*
X65872360Y-98044000D01*
X66781680Y-100192840D02*
X66781680Y-98953320D01*
X66090800Y-103962200D02*
X66090800Y-103835200D01*
X66090800Y-103835200D02*
X65760600Y-103505000D01*
X65760600Y-103505000D02*
X65760600Y-101213920D01*
X65760600Y-101213920D02*
X66781680Y-100192840D01*
%TO.N,/HAP_DRV_POS*%
X63360300Y-98602800D02*
X62826900Y-98069400D01*
X65608200Y-98602800D02*
X63360300Y-98602800D01*
X65252600Y-104394000D02*
X65252600Y-100914200D01*
X66103500Y-105244900D02*
X65252600Y-104394000D01*
X65252600Y-100914200D02*
X66192400Y-99974400D01*
X66192400Y-99974400D02*
X66192400Y-99187000D01*
X66192400Y-99187000D02*
X65608200Y-98602800D01*
%TD*%
%TO.N,+3V0*%
G36*
X85218600Y-90732262D02*
G01*
X85218600Y-96496200D01*
X84147800Y-96496200D01*
X84128291Y-96498121D01*
X84109532Y-96503812D01*
X84092243Y-96513053D01*
X84077089Y-96525489D01*
X83927089Y-96675489D01*
X83914653Y-96690643D01*
X83905412Y-96707932D01*
X83899721Y-96726691D01*
X83897800Y-96746200D01*
X83897800Y-97569922D01*
X83894242Y-97572842D01*
X83856753Y-97618523D01*
X83828896Y-97670640D01*
X83811741Y-97727190D01*
X83805949Y-97786000D01*
X83805949Y-98286000D01*
X83809484Y-98321894D01*
X83806378Y-98325000D01*
X82868422Y-98325000D01*
X82777000Y-98233578D01*
X82777000Y-98158870D01*
X82859677Y-98175316D01*
X82963093Y-98175316D01*
X83064522Y-98155140D01*
X83160066Y-98115565D01*
X83246053Y-98058110D01*
X83319179Y-97984984D01*
X83376634Y-97898997D01*
X83416209Y-97803453D01*
X83436385Y-97702024D01*
X83436385Y-97598608D01*
X83416209Y-97497179D01*
X83376634Y-97401635D01*
X83319179Y-97315648D01*
X83246053Y-97242522D01*
X83160066Y-97185067D01*
X83064522Y-97145492D01*
X82963093Y-97125316D01*
X82859677Y-97125316D01*
X82814949Y-97134213D01*
X82764754Y-97059092D01*
X82751371Y-97045709D01*
X82747711Y-97041249D01*
X82597711Y-96891249D01*
X82582557Y-96878813D01*
X82565268Y-96869572D01*
X82546509Y-96863881D01*
X82527000Y-96861960D01*
X82328240Y-96861960D01*
X82328240Y-96806112D01*
X82308064Y-96704683D01*
X82268489Y-96609139D01*
X82227889Y-96548377D01*
X82226439Y-96533651D01*
X82220748Y-96514892D01*
X82211507Y-96497603D01*
X82203614Y-96487986D01*
X82214600Y-96477000D01*
X82214600Y-93622000D01*
X82514600Y-93622000D01*
X82514600Y-96477000D01*
X82589600Y-96552000D01*
X83664600Y-96553452D01*
X83723410Y-96547660D01*
X83779961Y-96530505D01*
X83832078Y-96502648D01*
X83877759Y-96465159D01*
X83915248Y-96419478D01*
X83943105Y-96367361D01*
X83960260Y-96310810D01*
X83966052Y-96252000D01*
X83964600Y-93697000D01*
X83889600Y-93622000D01*
X82514600Y-93622000D01*
X82214600Y-93622000D01*
X82194600Y-93622000D01*
X82194600Y-93322000D01*
X82214600Y-93322000D01*
X82214600Y-93302000D01*
X82514600Y-93302000D01*
X82514600Y-93322000D01*
X83889600Y-93322000D01*
X83964600Y-93247000D01*
X83966052Y-90692000D01*
X83961013Y-90640840D01*
X85127178Y-90640840D01*
X85218600Y-90732262D01*
G37*
X85218600Y-90732262D02*
X85218600Y-96496200D01*
X84147800Y-96496200D01*
X84128291Y-96498121D01*
X84109532Y-96503812D01*
X84092243Y-96513053D01*
X84077089Y-96525489D01*
X83927089Y-96675489D01*
X83914653Y-96690643D01*
X83905412Y-96707932D01*
X83899721Y-96726691D01*
X83897800Y-96746200D01*
X83897800Y-97569922D01*
X83894242Y-97572842D01*
X83856753Y-97618523D01*
X83828896Y-97670640D01*
X83811741Y-97727190D01*
X83805949Y-97786000D01*
X83805949Y-98286000D01*
X83809484Y-98321894D01*
X83806378Y-98325000D01*
X82868422Y-98325000D01*
X82777000Y-98233578D01*
X82777000Y-98158870D01*
X82859677Y-98175316D01*
X82963093Y-98175316D01*
X83064522Y-98155140D01*
X83160066Y-98115565D01*
X83246053Y-98058110D01*
X83319179Y-97984984D01*
X83376634Y-97898997D01*
X83416209Y-97803453D01*
X83436385Y-97702024D01*
X83436385Y-97598608D01*
X83416209Y-97497179D01*
X83376634Y-97401635D01*
X83319179Y-97315648D01*
X83246053Y-97242522D01*
X83160066Y-97185067D01*
X83064522Y-97145492D01*
X82963093Y-97125316D01*
X82859677Y-97125316D01*
X82814949Y-97134213D01*
X82764754Y-97059092D01*
X82751371Y-97045709D01*
X82747711Y-97041249D01*
X82597711Y-96891249D01*
X82582557Y-96878813D01*
X82565268Y-96869572D01*
X82546509Y-96863881D01*
X82527000Y-96861960D01*
X82328240Y-96861960D01*
X82328240Y-96806112D01*
X82308064Y-96704683D01*
X82268489Y-96609139D01*
X82227889Y-96548377D01*
X82226439Y-96533651D01*
X82220748Y-96514892D01*
X82211507Y-96497603D01*
X82203614Y-96487986D01*
X82214600Y-96477000D01*
X82214600Y-93622000D01*
X82514600Y-93622000D01*
X82514600Y-96477000D01*
X82589600Y-96552000D01*
X83664600Y-96553452D01*
X83723410Y-96547660D01*
X83779961Y-96530505D01*
X83832078Y-96502648D01*
X83877759Y-96465159D01*
X83915248Y-96419478D01*
X83943105Y-96367361D01*
X83960260Y-96310810D01*
X83966052Y-96252000D01*
X83964600Y-93697000D01*
X83889600Y-93622000D01*
X82514600Y-93622000D01*
X82214600Y-93622000D01*
X82194600Y-93622000D01*
X82194600Y-93322000D01*
X82214600Y-93322000D01*
X82214600Y-93302000D01*
X82514600Y-93302000D01*
X82514600Y-93322000D01*
X83889600Y-93322000D01*
X83964600Y-93247000D01*
X83966052Y-90692000D01*
X83961013Y-90640840D01*
X85127178Y-90640840D01*
X85218600Y-90732262D01*
%TO.N,GND*%
G36*
X59693707Y-70797001D02*
G01*
X59743290Y-70801862D01*
X59775691Y-70811645D01*
X59805583Y-70827538D01*
X59831814Y-70848933D01*
X59853392Y-70875016D01*
X59869489Y-70904787D01*
X59879500Y-70937126D01*
X59884602Y-70985670D01*
X59884601Y-74087961D01*
X59885972Y-74101884D01*
X59885951Y-74104947D01*
X59886393Y-74109463D01*
X59896593Y-74206512D01*
X59902520Y-74235386D01*
X59908036Y-74264300D01*
X59909347Y-74268645D01*
X59938203Y-74361864D01*
X59949637Y-74389064D01*
X59960654Y-74416331D01*
X59962784Y-74420338D01*
X60009197Y-74506176D01*
X60025670Y-74530598D01*
X60041798Y-74555243D01*
X60044666Y-74558760D01*
X60106867Y-74633949D01*
X60127793Y-74654729D01*
X60148376Y-74675748D01*
X60151872Y-74678641D01*
X60227493Y-74740317D01*
X60252040Y-74756626D01*
X60276337Y-74773262D01*
X60280328Y-74775421D01*
X60366489Y-74821233D01*
X60393740Y-74832465D01*
X60420794Y-74844060D01*
X60425129Y-74845402D01*
X60518547Y-74873607D01*
X60547446Y-74879329D01*
X60576258Y-74885453D01*
X60580771Y-74885928D01*
X60677888Y-74895450D01*
X60677893Y-74895450D01*
X60693640Y-74897001D01*
X80225560Y-74897001D01*
X80239483Y-74895630D01*
X80242545Y-74895651D01*
X80247061Y-74895209D01*
X80344110Y-74885009D01*
X80372984Y-74879082D01*
X80401898Y-74873566D01*
X80406243Y-74872255D01*
X80499462Y-74843399D01*
X80526662Y-74831965D01*
X80553929Y-74820948D01*
X80557936Y-74818818D01*
X80643774Y-74772405D01*
X80668196Y-74755932D01*
X80692841Y-74739804D01*
X80696358Y-74736936D01*
X80771547Y-74674735D01*
X80792327Y-74653809D01*
X80813346Y-74633226D01*
X80816239Y-74629730D01*
X80877915Y-74554109D01*
X80894224Y-74529562D01*
X80910860Y-74505265D01*
X80913019Y-74501274D01*
X80958831Y-74415113D01*
X80970063Y-74387862D01*
X80981658Y-74360808D01*
X80983000Y-74356473D01*
X81011205Y-74263055D01*
X81016927Y-74234156D01*
X81023051Y-74205344D01*
X81023526Y-74200831D01*
X81033048Y-74103714D01*
X81033048Y-74103709D01*
X81034599Y-74087962D01*
X81034599Y-70987895D01*
X81039460Y-70938312D01*
X81049243Y-70905911D01*
X81065136Y-70876019D01*
X81086531Y-70849788D01*
X81112614Y-70828210D01*
X81142385Y-70812113D01*
X81174724Y-70802102D01*
X81223258Y-70797001D01*
X83787527Y-70797001D01*
X83934229Y-70811385D01*
X84060053Y-70849374D01*
X84176099Y-70911077D01*
X84277956Y-70994149D01*
X84362332Y-71096142D01*
X84428604Y-71217051D01*
X87393686Y-78050532D01*
X86573126Y-78391099D01*
X86555833Y-78400360D01*
X86540690Y-78412809D01*
X86528266Y-78427973D01*
X86519040Y-78445270D01*
X86513365Y-78464034D01*
X86511460Y-78483545D01*
X86513398Y-78503052D01*
X86519104Y-78521806D01*
X86637786Y-78807645D01*
X86606613Y-78825013D01*
X86561593Y-78863294D01*
X86524906Y-78909623D01*
X86505724Y-78947069D01*
X86465256Y-78935560D01*
X86406354Y-78930795D01*
X86347654Y-78937613D01*
X86291412Y-78955751D01*
X85328499Y-79374437D01*
X85276876Y-79403200D01*
X85231856Y-79441481D01*
X85195170Y-79487809D01*
X85168227Y-79540404D01*
X85152062Y-79597245D01*
X85147297Y-79656147D01*
X85154115Y-79714847D01*
X85172253Y-79771089D01*
X85671709Y-80919758D01*
X84504728Y-81416592D01*
X84488169Y-81425569D01*
X84473042Y-81438037D01*
X84460637Y-81453217D01*
X84451432Y-81470525D01*
X84445781Y-81489296D01*
X84443900Y-81508809D01*
X84445863Y-81528314D01*
X84451592Y-81547062D01*
X84547798Y-81777957D01*
X84543088Y-81786481D01*
X84537136Y-81805159D01*
X84534943Y-81824640D01*
X84536592Y-81844174D01*
X84542020Y-81863011D01*
X84791347Y-82489524D01*
X84599251Y-82489524D01*
X82881406Y-80771681D01*
X82869557Y-80757243D01*
X82811961Y-80709975D01*
X82746250Y-80674852D01*
X82674950Y-80653223D01*
X82619381Y-80647750D01*
X82619370Y-80647750D01*
X82600800Y-80645921D01*
X82582230Y-80647750D01*
X72206175Y-80647750D01*
X72342325Y-80511600D01*
X72987338Y-80511600D01*
X72995132Y-80519394D01*
X73081119Y-80576849D01*
X73176663Y-80616424D01*
X73278092Y-80636600D01*
X73381508Y-80636600D01*
X73482937Y-80616424D01*
X73578481Y-80576849D01*
X73664468Y-80519394D01*
X73737594Y-80446268D01*
X73795049Y-80360281D01*
X73834624Y-80264737D01*
X73854800Y-80163308D01*
X73854800Y-80059892D01*
X73834624Y-79958463D01*
X73795049Y-79862919D01*
X73737594Y-79776932D01*
X73664468Y-79703806D01*
X73578481Y-79646351D01*
X73482937Y-79606776D01*
X73381508Y-79586600D01*
X73278092Y-79586600D01*
X73176663Y-79606776D01*
X73081119Y-79646351D01*
X72995132Y-79703806D01*
X72987338Y-79711600D01*
X72196287Y-79711600D01*
X72176640Y-79709665D01*
X72156993Y-79711600D01*
X72098226Y-79717388D01*
X72022826Y-79740260D01*
X71953337Y-79777403D01*
X71892429Y-79827389D01*
X71879903Y-79842652D01*
X70378608Y-81343947D01*
X70363350Y-81356469D01*
X70350828Y-81371727D01*
X70350825Y-81371730D01*
X70313363Y-81417378D01*
X70276221Y-81486866D01*
X70253348Y-81562267D01*
X70245625Y-81640680D01*
X70247561Y-81660336D01*
X70247560Y-84928113D01*
X70245625Y-84947760D01*
X70247560Y-84967406D01*
X70253348Y-85026173D01*
X70276220Y-85101573D01*
X70313363Y-85171062D01*
X70363349Y-85231971D01*
X70378612Y-85244497D01*
X71103000Y-85968885D01*
X71103000Y-85979908D01*
X71123176Y-86081337D01*
X71162751Y-86176881D01*
X71220206Y-86262868D01*
X71293332Y-86335994D01*
X71379319Y-86393449D01*
X71474863Y-86433024D01*
X71576292Y-86453200D01*
X71679708Y-86453200D01*
X71781137Y-86433024D01*
X71876681Y-86393449D01*
X71962668Y-86335994D01*
X72035794Y-86262868D01*
X72093249Y-86176881D01*
X72132824Y-86081337D01*
X72153000Y-85979908D01*
X72153000Y-85876492D01*
X72142529Y-85823850D01*
X72525425Y-85823850D01*
X72672151Y-85970576D01*
X72672150Y-86366829D01*
X72670321Y-86385400D01*
X72672150Y-86403970D01*
X72672150Y-86403980D01*
X72677623Y-86459549D01*
X72699252Y-86530849D01*
X72699253Y-86530850D01*
X72734375Y-86596561D01*
X72746870Y-86611786D01*
X72781643Y-86654157D01*
X72796081Y-86666006D01*
X72891045Y-86760970D01*
X72872839Y-86768511D01*
X72786852Y-86825966D01*
X72713726Y-86899092D01*
X72662832Y-86975260D01*
X68177718Y-86975260D01*
X68117481Y-86935011D01*
X68021937Y-86895436D01*
X67950883Y-86881302D01*
X66869503Y-85799923D01*
X66856194Y-85783706D01*
X66791480Y-85730596D01*
X66779312Y-85724092D01*
X67381900Y-85724092D01*
X67381900Y-85827508D01*
X67402076Y-85928937D01*
X67441651Y-86024481D01*
X67499106Y-86110468D01*
X67572232Y-86183594D01*
X67658219Y-86241049D01*
X67753763Y-86280624D01*
X67855192Y-86300800D01*
X67958608Y-86300800D01*
X68060037Y-86280624D01*
X68155581Y-86241049D01*
X68241568Y-86183594D01*
X68314694Y-86110468D01*
X68372149Y-86024481D01*
X68411724Y-85928937D01*
X68431900Y-85827508D01*
X68431900Y-85724092D01*
X68411724Y-85622663D01*
X68372149Y-85527119D01*
X68314694Y-85441132D01*
X68241568Y-85368006D01*
X68155581Y-85310551D01*
X68060037Y-85270976D01*
X67958608Y-85250800D01*
X67855192Y-85250800D01*
X67753763Y-85270976D01*
X67658219Y-85310551D01*
X67572232Y-85368006D01*
X67499106Y-85441132D01*
X67441651Y-85527119D01*
X67402076Y-85622663D01*
X67381900Y-85724092D01*
X66779312Y-85724092D01*
X66717647Y-85691132D01*
X66637534Y-85666830D01*
X66575094Y-85660680D01*
X66575087Y-85660680D01*
X66554220Y-85658625D01*
X66533353Y-85660680D01*
X58125906Y-85660680D01*
X58105039Y-85658625D01*
X58084172Y-85660680D01*
X58084166Y-85660680D01*
X58030138Y-85666001D01*
X58021725Y-85666830D01*
X58012792Y-85669540D01*
X57941613Y-85691132D01*
X57867780Y-85730596D01*
X57803066Y-85783706D01*
X57789761Y-85799918D01*
X56254643Y-87335037D01*
X56238426Y-87348346D01*
X56185316Y-87413061D01*
X56145852Y-87486894D01*
X56132209Y-87531870D01*
X56125679Y-87553397D01*
X56121550Y-87567007D01*
X56115400Y-87629447D01*
X56115400Y-87629453D01*
X56113345Y-87650320D01*
X56115400Y-87671187D01*
X56115401Y-90452815D01*
X56089508Y-90478708D01*
X56052199Y-90524169D01*
X56024476Y-90576035D01*
X56007404Y-90632313D01*
X56001640Y-90690840D01*
X56001640Y-96248080D01*
X56007404Y-96306607D01*
X56024476Y-96362885D01*
X56052199Y-96414751D01*
X56089508Y-96460212D01*
X56239508Y-96610212D01*
X56284969Y-96647521D01*
X56336835Y-96675244D01*
X56393113Y-96692316D01*
X56451640Y-96698080D01*
X59714079Y-96698080D01*
X59874601Y-96858602D01*
X59874600Y-98789147D01*
X59823474Y-98712632D01*
X59750348Y-98639506D01*
X59664361Y-98582051D01*
X59568817Y-98542476D01*
X59467388Y-98522300D01*
X59363972Y-98522300D01*
X59262543Y-98542476D01*
X59166999Y-98582051D01*
X59081012Y-98639506D01*
X59007886Y-98712632D01*
X58950431Y-98798619D01*
X58910856Y-98894163D01*
X58890680Y-98995592D01*
X58890680Y-99099008D01*
X58910856Y-99200437D01*
X58950431Y-99295981D01*
X59007886Y-99381968D01*
X59081012Y-99455094D01*
X59166999Y-99512549D01*
X59262543Y-99552124D01*
X59363972Y-99572300D01*
X59467388Y-99572300D01*
X59568817Y-99552124D01*
X59664361Y-99512549D01*
X59750348Y-99455094D01*
X59823474Y-99381968D01*
X59874600Y-99305453D01*
X59874600Y-99445527D01*
X59874601Y-102696723D01*
X59872545Y-102717600D01*
X59880750Y-102800914D01*
X59900529Y-102866114D01*
X59905053Y-102881027D01*
X59944517Y-102954860D01*
X59958497Y-102971894D01*
X59978978Y-102996850D01*
X59997627Y-103019574D01*
X60013839Y-103032879D01*
X64632521Y-107651562D01*
X64645826Y-107667774D01*
X64710540Y-107720884D01*
X64784373Y-107760348D01*
X64840183Y-107777278D01*
X64864485Y-107784650D01*
X64872898Y-107785479D01*
X64926926Y-107790800D01*
X64926932Y-107790800D01*
X64947799Y-107792855D01*
X64968666Y-107790800D01*
X71327733Y-107790800D01*
X71348600Y-107792855D01*
X71369467Y-107790800D01*
X71369474Y-107790800D01*
X71431914Y-107784650D01*
X71512027Y-107760348D01*
X71585860Y-107720884D01*
X71650574Y-107667774D01*
X71663884Y-107651556D01*
X72320158Y-106995282D01*
X72336374Y-106981974D01*
X72389484Y-106917260D01*
X72428948Y-106843427D01*
X72453250Y-106763314D01*
X72459400Y-106700874D01*
X72459400Y-106700867D01*
X72461455Y-106680000D01*
X72459400Y-106659133D01*
X72459400Y-106559971D01*
X72489630Y-106590201D01*
X72620658Y-106677751D01*
X72766249Y-106738057D01*
X72920807Y-106768800D01*
X73078393Y-106768800D01*
X73232951Y-106738057D01*
X73378542Y-106677751D01*
X73509570Y-106590201D01*
X73621001Y-106478770D01*
X73708551Y-106347742D01*
X73768857Y-106202151D01*
X73799600Y-106047593D01*
X73799600Y-105890007D01*
X73768857Y-105735449D01*
X73708551Y-105589858D01*
X73621001Y-105458830D01*
X73509570Y-105347399D01*
X73437369Y-105299156D01*
X73510726Y-105225800D01*
X73930511Y-105225800D01*
X73912240Y-105317652D01*
X73912240Y-105421068D01*
X73932416Y-105522497D01*
X73971991Y-105618041D01*
X74029446Y-105704028D01*
X74102572Y-105777154D01*
X74188559Y-105834609D01*
X74284103Y-105874184D01*
X74385532Y-105894360D01*
X74488948Y-105894360D01*
X74590377Y-105874184D01*
X74685921Y-105834609D01*
X74771908Y-105777154D01*
X74845034Y-105704028D01*
X74902489Y-105618041D01*
X74942064Y-105522497D01*
X74962240Y-105421068D01*
X74962240Y-105317652D01*
X74943102Y-105221441D01*
X74957614Y-105220012D01*
X75033014Y-105197140D01*
X75102503Y-105159997D01*
X75163411Y-105110011D01*
X75175937Y-105094748D01*
X75420393Y-104850292D01*
X75675000Y-104850292D01*
X75675000Y-104953708D01*
X75695176Y-105055137D01*
X75734751Y-105150681D01*
X75792206Y-105236668D01*
X75865332Y-105309794D01*
X75951319Y-105367249D01*
X76046863Y-105406824D01*
X76148292Y-105427000D01*
X76251708Y-105427000D01*
X76353137Y-105406824D01*
X76448681Y-105367249D01*
X76534668Y-105309794D01*
X76607794Y-105236668D01*
X76665249Y-105150681D01*
X76704824Y-105055137D01*
X76725000Y-104953708D01*
X76725000Y-104850292D01*
X76704824Y-104748863D01*
X76665249Y-104653319D01*
X76607794Y-104567332D01*
X76534668Y-104494206D01*
X76448681Y-104436751D01*
X76353137Y-104397176D01*
X76251708Y-104377000D01*
X76148292Y-104377000D01*
X76046863Y-104397176D01*
X75951319Y-104436751D01*
X75865332Y-104494206D01*
X75792206Y-104567332D01*
X75734751Y-104653319D01*
X75695176Y-104748863D01*
X75675000Y-104850292D01*
X75420393Y-104850292D01*
X77139943Y-103130742D01*
X78359750Y-103130742D01*
X78359750Y-103234158D01*
X78379926Y-103335587D01*
X78419501Y-103431131D01*
X78476956Y-103517118D01*
X78550082Y-103590244D01*
X78636069Y-103647699D01*
X78731613Y-103687274D01*
X78833042Y-103707450D01*
X78936458Y-103707450D01*
X79037887Y-103687274D01*
X79133431Y-103647699D01*
X79219418Y-103590244D01*
X79292544Y-103517118D01*
X79349999Y-103431131D01*
X79389574Y-103335587D01*
X79409750Y-103234158D01*
X79409750Y-103130742D01*
X79389574Y-103029313D01*
X79349999Y-102933769D01*
X79292544Y-102847782D01*
X79219418Y-102774656D01*
X79133431Y-102717201D01*
X79037887Y-102677626D01*
X78936458Y-102657450D01*
X78833042Y-102657450D01*
X78731613Y-102677626D01*
X78636069Y-102717201D01*
X78550082Y-102774656D01*
X78476956Y-102847782D01*
X78419501Y-102933769D01*
X78379926Y-103029313D01*
X78359750Y-103130742D01*
X77139943Y-103130742D01*
X78342003Y-101928683D01*
X78350949Y-101950281D01*
X78408404Y-102036268D01*
X78481530Y-102109394D01*
X78567517Y-102166849D01*
X78663061Y-102206424D01*
X78764490Y-102226600D01*
X78801195Y-102226600D01*
X80643798Y-104069204D01*
X80655643Y-104083637D01*
X80670075Y-104095481D01*
X80713238Y-104130905D01*
X80745147Y-104147960D01*
X80778950Y-104166028D01*
X80850250Y-104187657D01*
X80905819Y-104193130D01*
X80905830Y-104193130D01*
X80924400Y-104194959D01*
X80942970Y-104193130D01*
X85102760Y-104193130D01*
X85107199Y-104247995D01*
X85123118Y-104303971D01*
X85092896Y-104312565D01*
X85040301Y-104339509D01*
X85024735Y-104351836D01*
X85008648Y-104346871D01*
X84989154Y-104344803D01*
X84969631Y-104346577D01*
X84950829Y-104352126D01*
X84933472Y-104361236D01*
X84918225Y-104373558D01*
X84905674Y-104388618D01*
X84896303Y-104405836D01*
X84477203Y-105396436D01*
X84469868Y-105424755D01*
X84469702Y-105444358D01*
X84473363Y-105463617D01*
X84480712Y-105481791D01*
X84491464Y-105498182D01*
X84505208Y-105512161D01*
X84521415Y-105523190D01*
X84761150Y-105653955D01*
X84761828Y-105654871D01*
X84776339Y-105668053D01*
X84793142Y-105678150D01*
X85658505Y-106088642D01*
X85192573Y-107160211D01*
X85174435Y-107216453D01*
X85167617Y-107275153D01*
X85172382Y-107334055D01*
X85188547Y-107390896D01*
X85215490Y-107443491D01*
X85252176Y-107489820D01*
X85297196Y-107528100D01*
X85348819Y-107556863D01*
X86311732Y-107975549D01*
X86367974Y-107993687D01*
X86426674Y-108000505D01*
X86485576Y-107995740D01*
X86526044Y-107984231D01*
X86545226Y-108021677D01*
X86581913Y-108068006D01*
X86626933Y-108106287D01*
X86678555Y-108135049D01*
X86694298Y-108141826D01*
X86622856Y-108319003D01*
X86617826Y-108335418D01*
X86615611Y-108354895D01*
X86617239Y-108374431D01*
X86622647Y-108393274D01*
X86631627Y-108410700D01*
X86643833Y-108426039D01*
X86658798Y-108438702D01*
X86675946Y-108448202D01*
X87443103Y-108779578D01*
X84428974Y-115726098D01*
X84357384Y-115854951D01*
X84272449Y-115955258D01*
X84169649Y-116037156D01*
X84052905Y-116097524D01*
X83925749Y-116134331D01*
X83788463Y-116146999D01*
X81225493Y-116146999D01*
X81175910Y-116142138D01*
X81143509Y-116132355D01*
X81113615Y-116116461D01*
X81087385Y-116095067D01*
X81065810Y-116068988D01*
X81049710Y-116039212D01*
X81039700Y-116006874D01*
X81034599Y-115958341D01*
X81034599Y-112856038D01*
X81033228Y-112842115D01*
X81033249Y-112839054D01*
X81032807Y-112834537D01*
X81022607Y-112737489D01*
X81016682Y-112708628D01*
X81011164Y-112679700D01*
X81009853Y-112675355D01*
X80980997Y-112582136D01*
X80969568Y-112554949D01*
X80958546Y-112527668D01*
X80956416Y-112523661D01*
X80910003Y-112437824D01*
X80893535Y-112413410D01*
X80877402Y-112388757D01*
X80874534Y-112385240D01*
X80812332Y-112310051D01*
X80791426Y-112289291D01*
X80770824Y-112268252D01*
X80767327Y-112265359D01*
X80691707Y-112203683D01*
X80667175Y-112187384D01*
X80642863Y-112170738D01*
X80638872Y-112168579D01*
X80552711Y-112122767D01*
X80525460Y-112111535D01*
X80498406Y-112099940D01*
X80494071Y-112098598D01*
X80400653Y-112070393D01*
X80371762Y-112064673D01*
X80342943Y-112058547D01*
X80338429Y-112058072D01*
X80241312Y-112048550D01*
X80241307Y-112048550D01*
X80225560Y-112046999D01*
X60693640Y-112046999D01*
X60679717Y-112048370D01*
X60676656Y-112048349D01*
X60672139Y-112048791D01*
X60575091Y-112058991D01*
X60546230Y-112064916D01*
X60517302Y-112070434D01*
X60512957Y-112071745D01*
X60419738Y-112100601D01*
X60392551Y-112112030D01*
X60365270Y-112123052D01*
X60361263Y-112125182D01*
X60275426Y-112171595D01*
X60251012Y-112188063D01*
X60226359Y-112204196D01*
X60222842Y-112207064D01*
X60147653Y-112269266D01*
X60126893Y-112290172D01*
X60105854Y-112310774D01*
X60102961Y-112314271D01*
X60102957Y-112314275D01*
X60041285Y-112389891D01*
X60024986Y-112414423D01*
X60008340Y-112438735D01*
X60006181Y-112442726D01*
X59960369Y-112528887D01*
X59949137Y-112556138D01*
X59937542Y-112583192D01*
X59936200Y-112587527D01*
X59907995Y-112680945D01*
X59902275Y-112709836D01*
X59896149Y-112738655D01*
X59895674Y-112743169D01*
X59886152Y-112840286D01*
X59886152Y-112840301D01*
X59884602Y-112856038D01*
X59884601Y-115956105D01*
X59879740Y-116005688D01*
X59869957Y-116038089D01*
X59854063Y-116067983D01*
X59832669Y-116094213D01*
X59806590Y-116115788D01*
X59776814Y-116131888D01*
X59744476Y-116141898D01*
X59695943Y-116146999D01*
X57131680Y-116146999D01*
X56984969Y-116132614D01*
X56859148Y-116094626D01*
X56743098Y-116032921D01*
X56641246Y-115949852D01*
X56556869Y-115847858D01*
X56490596Y-115726950D01*
X54299662Y-110677610D01*
X62095040Y-110677610D01*
X62095040Y-110911870D01*
X62140742Y-111141630D01*
X62230390Y-111358059D01*
X62360539Y-111552840D01*
X62526186Y-111718487D01*
X62720967Y-111848636D01*
X62937396Y-111938284D01*
X63167156Y-111983986D01*
X63401416Y-111983986D01*
X63631176Y-111938284D01*
X63847605Y-111848636D01*
X64042386Y-111718487D01*
X64208033Y-111552840D01*
X64338182Y-111358059D01*
X64427830Y-111141630D01*
X64473532Y-110911870D01*
X64473532Y-110677610D01*
X76445667Y-110677610D01*
X76445667Y-110911870D01*
X76491369Y-111141630D01*
X76581017Y-111358059D01*
X76711166Y-111552840D01*
X76876813Y-111718487D01*
X77071594Y-111848636D01*
X77288023Y-111938284D01*
X77517783Y-111983986D01*
X77752043Y-111983986D01*
X77981803Y-111938284D01*
X78198232Y-111848636D01*
X78393013Y-111718487D01*
X78558660Y-111552840D01*
X78688809Y-111358059D01*
X78778457Y-111141630D01*
X78824159Y-110911870D01*
X78824159Y-110677610D01*
X78778457Y-110447850D01*
X78688809Y-110231421D01*
X78558660Y-110036640D01*
X78393013Y-109870993D01*
X78198232Y-109740844D01*
X77981803Y-109651196D01*
X77752043Y-109605494D01*
X77517783Y-109605494D01*
X77288023Y-109651196D01*
X77071594Y-109740844D01*
X76876813Y-109870993D01*
X76711166Y-110036640D01*
X76581017Y-110231421D01*
X76491369Y-110447850D01*
X76445667Y-110677610D01*
X64473532Y-110677610D01*
X64427830Y-110447850D01*
X64338182Y-110231421D01*
X64208033Y-110036640D01*
X64042386Y-109870993D01*
X63847605Y-109740844D01*
X63631176Y-109651196D01*
X63401416Y-109605494D01*
X63167156Y-109605494D01*
X62937396Y-109651196D01*
X62720967Y-109740844D01*
X62526186Y-109870993D01*
X62360539Y-110036640D01*
X62230390Y-110231421D01*
X62140742Y-110447850D01*
X62095040Y-110677610D01*
X54299662Y-110677610D01*
X50745344Y-102486147D01*
X50477109Y-101677743D01*
X50392494Y-101214783D01*
X50320430Y-100530183D01*
X51947613Y-100530183D01*
X51947613Y-100764443D01*
X51993315Y-100994203D01*
X52082963Y-101210632D01*
X52213112Y-101405413D01*
X52378759Y-101571060D01*
X52573540Y-101701209D01*
X52789969Y-101790857D01*
X53019729Y-101836559D01*
X53253989Y-101836559D01*
X53483749Y-101790857D01*
X53700178Y-101701209D01*
X53894959Y-101571060D01*
X54060606Y-101405413D01*
X54190755Y-101210632D01*
X54280403Y-100994203D01*
X54326105Y-100764443D01*
X54326105Y-100530183D01*
X54280403Y-100300423D01*
X54190755Y-100083994D01*
X54060606Y-99889213D01*
X53894959Y-99723566D01*
X53700178Y-99593417D01*
X53483749Y-99503769D01*
X53253989Y-99458067D01*
X53019729Y-99458067D01*
X52789969Y-99503769D01*
X52573540Y-99593417D01*
X52378759Y-99723566D01*
X52213112Y-99889213D01*
X52082963Y-100083994D01*
X51993315Y-100300423D01*
X51947613Y-100530183D01*
X50320430Y-100530183D01*
X50076764Y-98215390D01*
X50038433Y-97509692D01*
X57615600Y-97509692D01*
X57615600Y-97613108D01*
X57635776Y-97714537D01*
X57675351Y-97810081D01*
X57732806Y-97896068D01*
X57805932Y-97969194D01*
X57891919Y-98026649D01*
X57987463Y-98066224D01*
X58088892Y-98086400D01*
X58192308Y-98086400D01*
X58293737Y-98066224D01*
X58389281Y-98026649D01*
X58475268Y-97969194D01*
X58548394Y-97896068D01*
X58605849Y-97810081D01*
X58645424Y-97714537D01*
X58665600Y-97613108D01*
X58665600Y-97509692D01*
X58645424Y-97408263D01*
X58605849Y-97312719D01*
X58548394Y-97226732D01*
X58475268Y-97153606D01*
X58389281Y-97096151D01*
X58293737Y-97056576D01*
X58192308Y-97036400D01*
X58088892Y-97036400D01*
X57987463Y-97056576D01*
X57891919Y-97096151D01*
X57805932Y-97153606D01*
X57732806Y-97226732D01*
X57675351Y-97312719D01*
X57635776Y-97408263D01*
X57615600Y-97509692D01*
X50038433Y-97509692D01*
X49912962Y-95199724D01*
X49901941Y-92179658D01*
X50043730Y-89162881D01*
X50335769Y-86179556D01*
X51947613Y-86179556D01*
X51947613Y-86413816D01*
X51993315Y-86643576D01*
X52082963Y-86860005D01*
X52213112Y-87054786D01*
X52378759Y-87220433D01*
X52573540Y-87350582D01*
X52789969Y-87440230D01*
X53019729Y-87485932D01*
X53253989Y-87485932D01*
X53483749Y-87440230D01*
X53700178Y-87350582D01*
X53894959Y-87220433D01*
X54060606Y-87054786D01*
X54190755Y-86860005D01*
X54280403Y-86643576D01*
X54326105Y-86413816D01*
X54326105Y-86179556D01*
X54280403Y-85949796D01*
X54190755Y-85733367D01*
X54060606Y-85538586D01*
X53894959Y-85372939D01*
X53700178Y-85242790D01*
X53483749Y-85153142D01*
X53253989Y-85107440D01*
X53019729Y-85107440D01*
X52789969Y-85153142D01*
X52573540Y-85242790D01*
X52378759Y-85372939D01*
X52213112Y-85538586D01*
X52082963Y-85733367D01*
X51993315Y-85949796D01*
X51947613Y-86179556D01*
X50335769Y-86179556D01*
X50338304Y-86153669D01*
X50391072Y-85738880D01*
X50576150Y-84908098D01*
X50742862Y-84463570D01*
X50835144Y-84250892D01*
X61857400Y-84250892D01*
X61857400Y-84354308D01*
X61877576Y-84455737D01*
X61917151Y-84551281D01*
X61974606Y-84637268D01*
X62047732Y-84710394D01*
X62133719Y-84767849D01*
X62229263Y-84807424D01*
X62330692Y-84827600D01*
X62434108Y-84827600D01*
X62535537Y-84807424D01*
X62631081Y-84767849D01*
X62717068Y-84710394D01*
X62790194Y-84637268D01*
X62847649Y-84551281D01*
X62887224Y-84455737D01*
X62907400Y-84354308D01*
X62907400Y-84250892D01*
X62887224Y-84149463D01*
X62847649Y-84053919D01*
X62792573Y-83971492D01*
X64968902Y-83971492D01*
X64968902Y-84074908D01*
X64989078Y-84176337D01*
X65028653Y-84271881D01*
X65086108Y-84357868D01*
X65159234Y-84430994D01*
X65245221Y-84488449D01*
X65340765Y-84528024D01*
X65442194Y-84548200D01*
X65545610Y-84548200D01*
X65647039Y-84528024D01*
X65742583Y-84488449D01*
X65828570Y-84430994D01*
X65901696Y-84357868D01*
X65959151Y-84271881D01*
X65998726Y-84176337D01*
X66018902Y-84074908D01*
X66018902Y-83971492D01*
X65998726Y-83870063D01*
X65959151Y-83774519D01*
X65901696Y-83688532D01*
X65828570Y-83615406D01*
X65742583Y-83557951D01*
X65647039Y-83518376D01*
X65545610Y-83498200D01*
X65442194Y-83498200D01*
X65340765Y-83518376D01*
X65245221Y-83557951D01*
X65159234Y-83615406D01*
X65086108Y-83688532D01*
X65028653Y-83774519D01*
X64989078Y-83870063D01*
X64968902Y-83971492D01*
X62792573Y-83971492D01*
X62790194Y-83967932D01*
X62717068Y-83894806D01*
X62631081Y-83837351D01*
X62535537Y-83797776D01*
X62434108Y-83777600D01*
X62330692Y-83777600D01*
X62229263Y-83797776D01*
X62133719Y-83837351D01*
X62047732Y-83894806D01*
X61974606Y-83967932D01*
X61917151Y-84053919D01*
X61877576Y-84149463D01*
X61857400Y-84250892D01*
X50835144Y-84250892D01*
X51386203Y-82980892D01*
X63914800Y-82980892D01*
X63914800Y-83084308D01*
X63934976Y-83185737D01*
X63974551Y-83281281D01*
X64032006Y-83367268D01*
X64105132Y-83440394D01*
X64191119Y-83497849D01*
X64286663Y-83537424D01*
X64388092Y-83557600D01*
X64491508Y-83557600D01*
X64592937Y-83537424D01*
X64688481Y-83497849D01*
X64774468Y-83440394D01*
X64847594Y-83367268D01*
X64905049Y-83281281D01*
X64944624Y-83185737D01*
X64964800Y-83084308D01*
X64964800Y-82980892D01*
X64944624Y-82879463D01*
X64905049Y-82783919D01*
X64847594Y-82697932D01*
X64774468Y-82624806D01*
X64688481Y-82567351D01*
X64592937Y-82527776D01*
X64491508Y-82507600D01*
X64388092Y-82507600D01*
X64286663Y-82527776D01*
X64191119Y-82567351D01*
X64105132Y-82624806D01*
X64032006Y-82697932D01*
X63974551Y-82783919D01*
X63934976Y-82879463D01*
X63914800Y-82980892D01*
X51386203Y-82980892D01*
X51914118Y-81764232D01*
X66871362Y-81764232D01*
X66871362Y-81867648D01*
X66891538Y-81969077D01*
X66931113Y-82064621D01*
X66988568Y-82150608D01*
X67061694Y-82223734D01*
X67147681Y-82281189D01*
X67243225Y-82320764D01*
X67344654Y-82340940D01*
X67448070Y-82340940D01*
X67549499Y-82320764D01*
X67645043Y-82281189D01*
X67731030Y-82223734D01*
X67804156Y-82150608D01*
X67861611Y-82064621D01*
X67901186Y-81969077D01*
X67921362Y-81867648D01*
X67921362Y-81764232D01*
X67901186Y-81662803D01*
X67861611Y-81567259D01*
X67804156Y-81481272D01*
X67731030Y-81408146D01*
X67645043Y-81350691D01*
X67549499Y-81311116D01*
X67448070Y-81290940D01*
X67344654Y-81290940D01*
X67243225Y-81311116D01*
X67147681Y-81350691D01*
X67061694Y-81408146D01*
X66988568Y-81481272D01*
X66931113Y-81567259D01*
X66891538Y-81662803D01*
X66871362Y-81764232D01*
X51914118Y-81764232D01*
X54401307Y-76032129D01*
X62095040Y-76032129D01*
X62095040Y-76266389D01*
X62140742Y-76496149D01*
X62230390Y-76712578D01*
X62360539Y-76907359D01*
X62526186Y-77073006D01*
X62720967Y-77203155D01*
X62937396Y-77292803D01*
X63167156Y-77338505D01*
X63401416Y-77338505D01*
X63631176Y-77292803D01*
X63847605Y-77203155D01*
X64042386Y-77073006D01*
X64208033Y-76907359D01*
X64338182Y-76712578D01*
X64427830Y-76496149D01*
X64473532Y-76266389D01*
X64473532Y-76032129D01*
X76445667Y-76032129D01*
X76445667Y-76266389D01*
X76491369Y-76496149D01*
X76581017Y-76712578D01*
X76711166Y-76907359D01*
X76876813Y-77073006D01*
X77071594Y-77203155D01*
X77288023Y-77292803D01*
X77517783Y-77338505D01*
X77752043Y-77338505D01*
X77981803Y-77292803D01*
X78198232Y-77203155D01*
X78393013Y-77073006D01*
X78558660Y-76907359D01*
X78688809Y-76712578D01*
X78778457Y-76496149D01*
X78824159Y-76266389D01*
X78824159Y-76032129D01*
X78778457Y-75802369D01*
X78688809Y-75585940D01*
X78558660Y-75391159D01*
X78393013Y-75225512D01*
X78198232Y-75095363D01*
X77981803Y-75005715D01*
X77752043Y-74960013D01*
X77517783Y-74960013D01*
X77288023Y-75005715D01*
X77071594Y-75095363D01*
X76876813Y-75225512D01*
X76711166Y-75391159D01*
X76581017Y-75585940D01*
X76491369Y-75802369D01*
X76445667Y-76032129D01*
X64473532Y-76032129D01*
X64427830Y-75802369D01*
X64338182Y-75585940D01*
X64208033Y-75391159D01*
X64042386Y-75225512D01*
X63847605Y-75095363D01*
X63631176Y-75005715D01*
X63401416Y-74960013D01*
X63167156Y-74960013D01*
X62937396Y-75005715D01*
X62720967Y-75095363D01*
X62526186Y-75225512D01*
X62360539Y-75391159D01*
X62230390Y-75585940D01*
X62140742Y-75802369D01*
X62095040Y-76032129D01*
X54401307Y-76032129D01*
X56490228Y-71217895D01*
X56561814Y-71089049D01*
X56646749Y-70988743D01*
X56749548Y-70906844D01*
X56866292Y-70846475D01*
X56993450Y-70809668D01*
X57130746Y-70796999D01*
X59693707Y-70797001D01*
G37*
X59693707Y-70797001D02*
X59743290Y-70801862D01*
X59775691Y-70811645D01*
X59805583Y-70827538D01*
X59831814Y-70848933D01*
X59853392Y-70875016D01*
X59869489Y-70904787D01*
X59879500Y-70937126D01*
X59884602Y-70985670D01*
X59884601Y-74087961D01*
X59885972Y-74101884D01*
X59885951Y-74104947D01*
X59886393Y-74109463D01*
X59896593Y-74206512D01*
X59902520Y-74235386D01*
X59908036Y-74264300D01*
X59909347Y-74268645D01*
X59938203Y-74361864D01*
X59949637Y-74389064D01*
X59960654Y-74416331D01*
X59962784Y-74420338D01*
X60009197Y-74506176D01*
X60025670Y-74530598D01*
X60041798Y-74555243D01*
X60044666Y-74558760D01*
X60106867Y-74633949D01*
X60127793Y-74654729D01*
X60148376Y-74675748D01*
X60151872Y-74678641D01*
X60227493Y-74740317D01*
X60252040Y-74756626D01*
X60276337Y-74773262D01*
X60280328Y-74775421D01*
X60366489Y-74821233D01*
X60393740Y-74832465D01*
X60420794Y-74844060D01*
X60425129Y-74845402D01*
X60518547Y-74873607D01*
X60547446Y-74879329D01*
X60576258Y-74885453D01*
X60580771Y-74885928D01*
X60677888Y-74895450D01*
X60677893Y-74895450D01*
X60693640Y-74897001D01*
X80225560Y-74897001D01*
X80239483Y-74895630D01*
X80242545Y-74895651D01*
X80247061Y-74895209D01*
X80344110Y-74885009D01*
X80372984Y-74879082D01*
X80401898Y-74873566D01*
X80406243Y-74872255D01*
X80499462Y-74843399D01*
X80526662Y-74831965D01*
X80553929Y-74820948D01*
X80557936Y-74818818D01*
X80643774Y-74772405D01*
X80668196Y-74755932D01*
X80692841Y-74739804D01*
X80696358Y-74736936D01*
X80771547Y-74674735D01*
X80792327Y-74653809D01*
X80813346Y-74633226D01*
X80816239Y-74629730D01*
X80877915Y-74554109D01*
X80894224Y-74529562D01*
X80910860Y-74505265D01*
X80913019Y-74501274D01*
X80958831Y-74415113D01*
X80970063Y-74387862D01*
X80981658Y-74360808D01*
X80983000Y-74356473D01*
X81011205Y-74263055D01*
X81016927Y-74234156D01*
X81023051Y-74205344D01*
X81023526Y-74200831D01*
X81033048Y-74103714D01*
X81033048Y-74103709D01*
X81034599Y-74087962D01*
X81034599Y-70987895D01*
X81039460Y-70938312D01*
X81049243Y-70905911D01*
X81065136Y-70876019D01*
X81086531Y-70849788D01*
X81112614Y-70828210D01*
X81142385Y-70812113D01*
X81174724Y-70802102D01*
X81223258Y-70797001D01*
X83787527Y-70797001D01*
X83934229Y-70811385D01*
X84060053Y-70849374D01*
X84176099Y-70911077D01*
X84277956Y-70994149D01*
X84362332Y-71096142D01*
X84428604Y-71217051D01*
X87393686Y-78050532D01*
X86573126Y-78391099D01*
X86555833Y-78400360D01*
X86540690Y-78412809D01*
X86528266Y-78427973D01*
X86519040Y-78445270D01*
X86513365Y-78464034D01*
X86511460Y-78483545D01*
X86513398Y-78503052D01*
X86519104Y-78521806D01*
X86637786Y-78807645D01*
X86606613Y-78825013D01*
X86561593Y-78863294D01*
X86524906Y-78909623D01*
X86505724Y-78947069D01*
X86465256Y-78935560D01*
X86406354Y-78930795D01*
X86347654Y-78937613D01*
X86291412Y-78955751D01*
X85328499Y-79374437D01*
X85276876Y-79403200D01*
X85231856Y-79441481D01*
X85195170Y-79487809D01*
X85168227Y-79540404D01*
X85152062Y-79597245D01*
X85147297Y-79656147D01*
X85154115Y-79714847D01*
X85172253Y-79771089D01*
X85671709Y-80919758D01*
X84504728Y-81416592D01*
X84488169Y-81425569D01*
X84473042Y-81438037D01*
X84460637Y-81453217D01*
X84451432Y-81470525D01*
X84445781Y-81489296D01*
X84443900Y-81508809D01*
X84445863Y-81528314D01*
X84451592Y-81547062D01*
X84547798Y-81777957D01*
X84543088Y-81786481D01*
X84537136Y-81805159D01*
X84534943Y-81824640D01*
X84536592Y-81844174D01*
X84542020Y-81863011D01*
X84791347Y-82489524D01*
X84599251Y-82489524D01*
X82881406Y-80771681D01*
X82869557Y-80757243D01*
X82811961Y-80709975D01*
X82746250Y-80674852D01*
X82674950Y-80653223D01*
X82619381Y-80647750D01*
X82619370Y-80647750D01*
X82600800Y-80645921D01*
X82582230Y-80647750D01*
X72206175Y-80647750D01*
X72342325Y-80511600D01*
X72987338Y-80511600D01*
X72995132Y-80519394D01*
X73081119Y-80576849D01*
X73176663Y-80616424D01*
X73278092Y-80636600D01*
X73381508Y-80636600D01*
X73482937Y-80616424D01*
X73578481Y-80576849D01*
X73664468Y-80519394D01*
X73737594Y-80446268D01*
X73795049Y-80360281D01*
X73834624Y-80264737D01*
X73854800Y-80163308D01*
X73854800Y-80059892D01*
X73834624Y-79958463D01*
X73795049Y-79862919D01*
X73737594Y-79776932D01*
X73664468Y-79703806D01*
X73578481Y-79646351D01*
X73482937Y-79606776D01*
X73381508Y-79586600D01*
X73278092Y-79586600D01*
X73176663Y-79606776D01*
X73081119Y-79646351D01*
X72995132Y-79703806D01*
X72987338Y-79711600D01*
X72196287Y-79711600D01*
X72176640Y-79709665D01*
X72156993Y-79711600D01*
X72098226Y-79717388D01*
X72022826Y-79740260D01*
X71953337Y-79777403D01*
X71892429Y-79827389D01*
X71879903Y-79842652D01*
X70378608Y-81343947D01*
X70363350Y-81356469D01*
X70350828Y-81371727D01*
X70350825Y-81371730D01*
X70313363Y-81417378D01*
X70276221Y-81486866D01*
X70253348Y-81562267D01*
X70245625Y-81640680D01*
X70247561Y-81660336D01*
X70247560Y-84928113D01*
X70245625Y-84947760D01*
X70247560Y-84967406D01*
X70253348Y-85026173D01*
X70276220Y-85101573D01*
X70313363Y-85171062D01*
X70363349Y-85231971D01*
X70378612Y-85244497D01*
X71103000Y-85968885D01*
X71103000Y-85979908D01*
X71123176Y-86081337D01*
X71162751Y-86176881D01*
X71220206Y-86262868D01*
X71293332Y-86335994D01*
X71379319Y-86393449D01*
X71474863Y-86433024D01*
X71576292Y-86453200D01*
X71679708Y-86453200D01*
X71781137Y-86433024D01*
X71876681Y-86393449D01*
X71962668Y-86335994D01*
X72035794Y-86262868D01*
X72093249Y-86176881D01*
X72132824Y-86081337D01*
X72153000Y-85979908D01*
X72153000Y-85876492D01*
X72142529Y-85823850D01*
X72525425Y-85823850D01*
X72672151Y-85970576D01*
X72672150Y-86366829D01*
X72670321Y-86385400D01*
X72672150Y-86403970D01*
X72672150Y-86403980D01*
X72677623Y-86459549D01*
X72699252Y-86530849D01*
X72699253Y-86530850D01*
X72734375Y-86596561D01*
X72746870Y-86611786D01*
X72781643Y-86654157D01*
X72796081Y-86666006D01*
X72891045Y-86760970D01*
X72872839Y-86768511D01*
X72786852Y-86825966D01*
X72713726Y-86899092D01*
X72662832Y-86975260D01*
X68177718Y-86975260D01*
X68117481Y-86935011D01*
X68021937Y-86895436D01*
X67950883Y-86881302D01*
X66869503Y-85799923D01*
X66856194Y-85783706D01*
X66791480Y-85730596D01*
X66779312Y-85724092D01*
X67381900Y-85724092D01*
X67381900Y-85827508D01*
X67402076Y-85928937D01*
X67441651Y-86024481D01*
X67499106Y-86110468D01*
X67572232Y-86183594D01*
X67658219Y-86241049D01*
X67753763Y-86280624D01*
X67855192Y-86300800D01*
X67958608Y-86300800D01*
X68060037Y-86280624D01*
X68155581Y-86241049D01*
X68241568Y-86183594D01*
X68314694Y-86110468D01*
X68372149Y-86024481D01*
X68411724Y-85928937D01*
X68431900Y-85827508D01*
X68431900Y-85724092D01*
X68411724Y-85622663D01*
X68372149Y-85527119D01*
X68314694Y-85441132D01*
X68241568Y-85368006D01*
X68155581Y-85310551D01*
X68060037Y-85270976D01*
X67958608Y-85250800D01*
X67855192Y-85250800D01*
X67753763Y-85270976D01*
X67658219Y-85310551D01*
X67572232Y-85368006D01*
X67499106Y-85441132D01*
X67441651Y-85527119D01*
X67402076Y-85622663D01*
X67381900Y-85724092D01*
X66779312Y-85724092D01*
X66717647Y-85691132D01*
X66637534Y-85666830D01*
X66575094Y-85660680D01*
X66575087Y-85660680D01*
X66554220Y-85658625D01*
X66533353Y-85660680D01*
X58125906Y-85660680D01*
X58105039Y-85658625D01*
X58084172Y-85660680D01*
X58084166Y-85660680D01*
X58030138Y-85666001D01*
X58021725Y-85666830D01*
X58012792Y-85669540D01*
X57941613Y-85691132D01*
X57867780Y-85730596D01*
X57803066Y-85783706D01*
X57789761Y-85799918D01*
X56254643Y-87335037D01*
X56238426Y-87348346D01*
X56185316Y-87413061D01*
X56145852Y-87486894D01*
X56132209Y-87531870D01*
X56125679Y-87553397D01*
X56121550Y-87567007D01*
X56115400Y-87629447D01*
X56115400Y-87629453D01*
X56113345Y-87650320D01*
X56115400Y-87671187D01*
X56115401Y-90452815D01*
X56089508Y-90478708D01*
X56052199Y-90524169D01*
X56024476Y-90576035D01*
X56007404Y-90632313D01*
X56001640Y-90690840D01*
X56001640Y-96248080D01*
X56007404Y-96306607D01*
X56024476Y-96362885D01*
X56052199Y-96414751D01*
X56089508Y-96460212D01*
X56239508Y-96610212D01*
X56284969Y-96647521D01*
X56336835Y-96675244D01*
X56393113Y-96692316D01*
X56451640Y-96698080D01*
X59714079Y-96698080D01*
X59874601Y-96858602D01*
X59874600Y-98789147D01*
X59823474Y-98712632D01*
X59750348Y-98639506D01*
X59664361Y-98582051D01*
X59568817Y-98542476D01*
X59467388Y-98522300D01*
X59363972Y-98522300D01*
X59262543Y-98542476D01*
X59166999Y-98582051D01*
X59081012Y-98639506D01*
X59007886Y-98712632D01*
X58950431Y-98798619D01*
X58910856Y-98894163D01*
X58890680Y-98995592D01*
X58890680Y-99099008D01*
X58910856Y-99200437D01*
X58950431Y-99295981D01*
X59007886Y-99381968D01*
X59081012Y-99455094D01*
X59166999Y-99512549D01*
X59262543Y-99552124D01*
X59363972Y-99572300D01*
X59467388Y-99572300D01*
X59568817Y-99552124D01*
X59664361Y-99512549D01*
X59750348Y-99455094D01*
X59823474Y-99381968D01*
X59874600Y-99305453D01*
X59874600Y-99445527D01*
X59874601Y-102696723D01*
X59872545Y-102717600D01*
X59880750Y-102800914D01*
X59900529Y-102866114D01*
X59905053Y-102881027D01*
X59944517Y-102954860D01*
X59958497Y-102971894D01*
X59978978Y-102996850D01*
X59997627Y-103019574D01*
X60013839Y-103032879D01*
X64632521Y-107651562D01*
X64645826Y-107667774D01*
X64710540Y-107720884D01*
X64784373Y-107760348D01*
X64840183Y-107777278D01*
X64864485Y-107784650D01*
X64872898Y-107785479D01*
X64926926Y-107790800D01*
X64926932Y-107790800D01*
X64947799Y-107792855D01*
X64968666Y-107790800D01*
X71327733Y-107790800D01*
X71348600Y-107792855D01*
X71369467Y-107790800D01*
X71369474Y-107790800D01*
X71431914Y-107784650D01*
X71512027Y-107760348D01*
X71585860Y-107720884D01*
X71650574Y-107667774D01*
X71663884Y-107651556D01*
X72320158Y-106995282D01*
X72336374Y-106981974D01*
X72389484Y-106917260D01*
X72428948Y-106843427D01*
X72453250Y-106763314D01*
X72459400Y-106700874D01*
X72459400Y-106700867D01*
X72461455Y-106680000D01*
X72459400Y-106659133D01*
X72459400Y-106559971D01*
X72489630Y-106590201D01*
X72620658Y-106677751D01*
X72766249Y-106738057D01*
X72920807Y-106768800D01*
X73078393Y-106768800D01*
X73232951Y-106738057D01*
X73378542Y-106677751D01*
X73509570Y-106590201D01*
X73621001Y-106478770D01*
X73708551Y-106347742D01*
X73768857Y-106202151D01*
X73799600Y-106047593D01*
X73799600Y-105890007D01*
X73768857Y-105735449D01*
X73708551Y-105589858D01*
X73621001Y-105458830D01*
X73509570Y-105347399D01*
X73437369Y-105299156D01*
X73510726Y-105225800D01*
X73930511Y-105225800D01*
X73912240Y-105317652D01*
X73912240Y-105421068D01*
X73932416Y-105522497D01*
X73971991Y-105618041D01*
X74029446Y-105704028D01*
X74102572Y-105777154D01*
X74188559Y-105834609D01*
X74284103Y-105874184D01*
X74385532Y-105894360D01*
X74488948Y-105894360D01*
X74590377Y-105874184D01*
X74685921Y-105834609D01*
X74771908Y-105777154D01*
X74845034Y-105704028D01*
X74902489Y-105618041D01*
X74942064Y-105522497D01*
X74962240Y-105421068D01*
X74962240Y-105317652D01*
X74943102Y-105221441D01*
X74957614Y-105220012D01*
X75033014Y-105197140D01*
X75102503Y-105159997D01*
X75163411Y-105110011D01*
X75175937Y-105094748D01*
X75420393Y-104850292D01*
X75675000Y-104850292D01*
X75675000Y-104953708D01*
X75695176Y-105055137D01*
X75734751Y-105150681D01*
X75792206Y-105236668D01*
X75865332Y-105309794D01*
X75951319Y-105367249D01*
X76046863Y-105406824D01*
X76148292Y-105427000D01*
X76251708Y-105427000D01*
X76353137Y-105406824D01*
X76448681Y-105367249D01*
X76534668Y-105309794D01*
X76607794Y-105236668D01*
X76665249Y-105150681D01*
X76704824Y-105055137D01*
X76725000Y-104953708D01*
X76725000Y-104850292D01*
X76704824Y-104748863D01*
X76665249Y-104653319D01*
X76607794Y-104567332D01*
X76534668Y-104494206D01*
X76448681Y-104436751D01*
X76353137Y-104397176D01*
X76251708Y-104377000D01*
X76148292Y-104377000D01*
X76046863Y-104397176D01*
X75951319Y-104436751D01*
X75865332Y-104494206D01*
X75792206Y-104567332D01*
X75734751Y-104653319D01*
X75695176Y-104748863D01*
X75675000Y-104850292D01*
X75420393Y-104850292D01*
X77139943Y-103130742D01*
X78359750Y-103130742D01*
X78359750Y-103234158D01*
X78379926Y-103335587D01*
X78419501Y-103431131D01*
X78476956Y-103517118D01*
X78550082Y-103590244D01*
X78636069Y-103647699D01*
X78731613Y-103687274D01*
X78833042Y-103707450D01*
X78936458Y-103707450D01*
X79037887Y-103687274D01*
X79133431Y-103647699D01*
X79219418Y-103590244D01*
X79292544Y-103517118D01*
X79349999Y-103431131D01*
X79389574Y-103335587D01*
X79409750Y-103234158D01*
X79409750Y-103130742D01*
X79389574Y-103029313D01*
X79349999Y-102933769D01*
X79292544Y-102847782D01*
X79219418Y-102774656D01*
X79133431Y-102717201D01*
X79037887Y-102677626D01*
X78936458Y-102657450D01*
X78833042Y-102657450D01*
X78731613Y-102677626D01*
X78636069Y-102717201D01*
X78550082Y-102774656D01*
X78476956Y-102847782D01*
X78419501Y-102933769D01*
X78379926Y-103029313D01*
X78359750Y-103130742D01*
X77139943Y-103130742D01*
X78342003Y-101928683D01*
X78350949Y-101950281D01*
X78408404Y-102036268D01*
X78481530Y-102109394D01*
X78567517Y-102166849D01*
X78663061Y-102206424D01*
X78764490Y-102226600D01*
X78801195Y-102226600D01*
X80643798Y-104069204D01*
X80655643Y-104083637D01*
X80670075Y-104095481D01*
X80713238Y-104130905D01*
X80745147Y-104147960D01*
X80778950Y-104166028D01*
X80850250Y-104187657D01*
X80905819Y-104193130D01*
X80905830Y-104193130D01*
X80924400Y-104194959D01*
X80942970Y-104193130D01*
X85102760Y-104193130D01*
X85107199Y-104247995D01*
X85123118Y-104303971D01*
X85092896Y-104312565D01*
X85040301Y-104339509D01*
X85024735Y-104351836D01*
X85008648Y-104346871D01*
X84989154Y-104344803D01*
X84969631Y-104346577D01*
X84950829Y-104352126D01*
X84933472Y-104361236D01*
X84918225Y-104373558D01*
X84905674Y-104388618D01*
X84896303Y-104405836D01*
X84477203Y-105396436D01*
X84469868Y-105424755D01*
X84469702Y-105444358D01*
X84473363Y-105463617D01*
X84480712Y-105481791D01*
X84491464Y-105498182D01*
X84505208Y-105512161D01*
X84521415Y-105523190D01*
X84761150Y-105653955D01*
X84761828Y-105654871D01*
X84776339Y-105668053D01*
X84793142Y-105678150D01*
X85658505Y-106088642D01*
X85192573Y-107160211D01*
X85174435Y-107216453D01*
X85167617Y-107275153D01*
X85172382Y-107334055D01*
X85188547Y-107390896D01*
X85215490Y-107443491D01*
X85252176Y-107489820D01*
X85297196Y-107528100D01*
X85348819Y-107556863D01*
X86311732Y-107975549D01*
X86367974Y-107993687D01*
X86426674Y-108000505D01*
X86485576Y-107995740D01*
X86526044Y-107984231D01*
X86545226Y-108021677D01*
X86581913Y-108068006D01*
X86626933Y-108106287D01*
X86678555Y-108135049D01*
X86694298Y-108141826D01*
X86622856Y-108319003D01*
X86617826Y-108335418D01*
X86615611Y-108354895D01*
X86617239Y-108374431D01*
X86622647Y-108393274D01*
X86631627Y-108410700D01*
X86643833Y-108426039D01*
X86658798Y-108438702D01*
X86675946Y-108448202D01*
X87443103Y-108779578D01*
X84428974Y-115726098D01*
X84357384Y-115854951D01*
X84272449Y-115955258D01*
X84169649Y-116037156D01*
X84052905Y-116097524D01*
X83925749Y-116134331D01*
X83788463Y-116146999D01*
X81225493Y-116146999D01*
X81175910Y-116142138D01*
X81143509Y-116132355D01*
X81113615Y-116116461D01*
X81087385Y-116095067D01*
X81065810Y-116068988D01*
X81049710Y-116039212D01*
X81039700Y-116006874D01*
X81034599Y-115958341D01*
X81034599Y-112856038D01*
X81033228Y-112842115D01*
X81033249Y-112839054D01*
X81032807Y-112834537D01*
X81022607Y-112737489D01*
X81016682Y-112708628D01*
X81011164Y-112679700D01*
X81009853Y-112675355D01*
X80980997Y-112582136D01*
X80969568Y-112554949D01*
X80958546Y-112527668D01*
X80956416Y-112523661D01*
X80910003Y-112437824D01*
X80893535Y-112413410D01*
X80877402Y-112388757D01*
X80874534Y-112385240D01*
X80812332Y-112310051D01*
X80791426Y-112289291D01*
X80770824Y-112268252D01*
X80767327Y-112265359D01*
X80691707Y-112203683D01*
X80667175Y-112187384D01*
X80642863Y-112170738D01*
X80638872Y-112168579D01*
X80552711Y-112122767D01*
X80525460Y-112111535D01*
X80498406Y-112099940D01*
X80494071Y-112098598D01*
X80400653Y-112070393D01*
X80371762Y-112064673D01*
X80342943Y-112058547D01*
X80338429Y-112058072D01*
X80241312Y-112048550D01*
X80241307Y-112048550D01*
X80225560Y-112046999D01*
X60693640Y-112046999D01*
X60679717Y-112048370D01*
X60676656Y-112048349D01*
X60672139Y-112048791D01*
X60575091Y-112058991D01*
X60546230Y-112064916D01*
X60517302Y-112070434D01*
X60512957Y-112071745D01*
X60419738Y-112100601D01*
X60392551Y-112112030D01*
X60365270Y-112123052D01*
X60361263Y-112125182D01*
X60275426Y-112171595D01*
X60251012Y-112188063D01*
X60226359Y-112204196D01*
X60222842Y-112207064D01*
X60147653Y-112269266D01*
X60126893Y-112290172D01*
X60105854Y-112310774D01*
X60102961Y-112314271D01*
X60102957Y-112314275D01*
X60041285Y-112389891D01*
X60024986Y-112414423D01*
X60008340Y-112438735D01*
X60006181Y-112442726D01*
X59960369Y-112528887D01*
X59949137Y-112556138D01*
X59937542Y-112583192D01*
X59936200Y-112587527D01*
X59907995Y-112680945D01*
X59902275Y-112709836D01*
X59896149Y-112738655D01*
X59895674Y-112743169D01*
X59886152Y-112840286D01*
X59886152Y-112840301D01*
X59884602Y-112856038D01*
X59884601Y-115956105D01*
X59879740Y-116005688D01*
X59869957Y-116038089D01*
X59854063Y-116067983D01*
X59832669Y-116094213D01*
X59806590Y-116115788D01*
X59776814Y-116131888D01*
X59744476Y-116141898D01*
X59695943Y-116146999D01*
X57131680Y-116146999D01*
X56984969Y-116132614D01*
X56859148Y-116094626D01*
X56743098Y-116032921D01*
X56641246Y-115949852D01*
X56556869Y-115847858D01*
X56490596Y-115726950D01*
X54299662Y-110677610D01*
X62095040Y-110677610D01*
X62095040Y-110911870D01*
X62140742Y-111141630D01*
X62230390Y-111358059D01*
X62360539Y-111552840D01*
X62526186Y-111718487D01*
X62720967Y-111848636D01*
X62937396Y-111938284D01*
X63167156Y-111983986D01*
X63401416Y-111983986D01*
X63631176Y-111938284D01*
X63847605Y-111848636D01*
X64042386Y-111718487D01*
X64208033Y-111552840D01*
X64338182Y-111358059D01*
X64427830Y-111141630D01*
X64473532Y-110911870D01*
X64473532Y-110677610D01*
X76445667Y-110677610D01*
X76445667Y-110911870D01*
X76491369Y-111141630D01*
X76581017Y-111358059D01*
X76711166Y-111552840D01*
X76876813Y-111718487D01*
X77071594Y-111848636D01*
X77288023Y-111938284D01*
X77517783Y-111983986D01*
X77752043Y-111983986D01*
X77981803Y-111938284D01*
X78198232Y-111848636D01*
X78393013Y-111718487D01*
X78558660Y-111552840D01*
X78688809Y-111358059D01*
X78778457Y-111141630D01*
X78824159Y-110911870D01*
X78824159Y-110677610D01*
X78778457Y-110447850D01*
X78688809Y-110231421D01*
X78558660Y-110036640D01*
X78393013Y-109870993D01*
X78198232Y-109740844D01*
X77981803Y-109651196D01*
X77752043Y-109605494D01*
X77517783Y-109605494D01*
X77288023Y-109651196D01*
X77071594Y-109740844D01*
X76876813Y-109870993D01*
X76711166Y-110036640D01*
X76581017Y-110231421D01*
X76491369Y-110447850D01*
X76445667Y-110677610D01*
X64473532Y-110677610D01*
X64427830Y-110447850D01*
X64338182Y-110231421D01*
X64208033Y-110036640D01*
X64042386Y-109870993D01*
X63847605Y-109740844D01*
X63631176Y-109651196D01*
X63401416Y-109605494D01*
X63167156Y-109605494D01*
X62937396Y-109651196D01*
X62720967Y-109740844D01*
X62526186Y-109870993D01*
X62360539Y-110036640D01*
X62230390Y-110231421D01*
X62140742Y-110447850D01*
X62095040Y-110677610D01*
X54299662Y-110677610D01*
X50745344Y-102486147D01*
X50477109Y-101677743D01*
X50392494Y-101214783D01*
X50320430Y-100530183D01*
X51947613Y-100530183D01*
X51947613Y-100764443D01*
X51993315Y-100994203D01*
X52082963Y-101210632D01*
X52213112Y-101405413D01*
X52378759Y-101571060D01*
X52573540Y-101701209D01*
X52789969Y-101790857D01*
X53019729Y-101836559D01*
X53253989Y-101836559D01*
X53483749Y-101790857D01*
X53700178Y-101701209D01*
X53894959Y-101571060D01*
X54060606Y-101405413D01*
X54190755Y-101210632D01*
X54280403Y-100994203D01*
X54326105Y-100764443D01*
X54326105Y-100530183D01*
X54280403Y-100300423D01*
X54190755Y-100083994D01*
X54060606Y-99889213D01*
X53894959Y-99723566D01*
X53700178Y-99593417D01*
X53483749Y-99503769D01*
X53253989Y-99458067D01*
X53019729Y-99458067D01*
X52789969Y-99503769D01*
X52573540Y-99593417D01*
X52378759Y-99723566D01*
X52213112Y-99889213D01*
X52082963Y-100083994D01*
X51993315Y-100300423D01*
X51947613Y-100530183D01*
X50320430Y-100530183D01*
X50076764Y-98215390D01*
X50038433Y-97509692D01*
X57615600Y-97509692D01*
X57615600Y-97613108D01*
X57635776Y-97714537D01*
X57675351Y-97810081D01*
X57732806Y-97896068D01*
X57805932Y-97969194D01*
X57891919Y-98026649D01*
X57987463Y-98066224D01*
X58088892Y-98086400D01*
X58192308Y-98086400D01*
X58293737Y-98066224D01*
X58389281Y-98026649D01*
X58475268Y-97969194D01*
X58548394Y-97896068D01*
X58605849Y-97810081D01*
X58645424Y-97714537D01*
X58665600Y-97613108D01*
X58665600Y-97509692D01*
X58645424Y-97408263D01*
X58605849Y-97312719D01*
X58548394Y-97226732D01*
X58475268Y-97153606D01*
X58389281Y-97096151D01*
X58293737Y-97056576D01*
X58192308Y-97036400D01*
X58088892Y-97036400D01*
X57987463Y-97056576D01*
X57891919Y-97096151D01*
X57805932Y-97153606D01*
X57732806Y-97226732D01*
X57675351Y-97312719D01*
X57635776Y-97408263D01*
X57615600Y-97509692D01*
X50038433Y-97509692D01*
X49912962Y-95199724D01*
X49901941Y-92179658D01*
X50043730Y-89162881D01*
X50335769Y-86179556D01*
X51947613Y-86179556D01*
X51947613Y-86413816D01*
X51993315Y-86643576D01*
X52082963Y-86860005D01*
X52213112Y-87054786D01*
X52378759Y-87220433D01*
X52573540Y-87350582D01*
X52789969Y-87440230D01*
X53019729Y-87485932D01*
X53253989Y-87485932D01*
X53483749Y-87440230D01*
X53700178Y-87350582D01*
X53894959Y-87220433D01*
X54060606Y-87054786D01*
X54190755Y-86860005D01*
X54280403Y-86643576D01*
X54326105Y-86413816D01*
X54326105Y-86179556D01*
X54280403Y-85949796D01*
X54190755Y-85733367D01*
X54060606Y-85538586D01*
X53894959Y-85372939D01*
X53700178Y-85242790D01*
X53483749Y-85153142D01*
X53253989Y-85107440D01*
X53019729Y-85107440D01*
X52789969Y-85153142D01*
X52573540Y-85242790D01*
X52378759Y-85372939D01*
X52213112Y-85538586D01*
X52082963Y-85733367D01*
X51993315Y-85949796D01*
X51947613Y-86179556D01*
X50335769Y-86179556D01*
X50338304Y-86153669D01*
X50391072Y-85738880D01*
X50576150Y-84908098D01*
X50742862Y-84463570D01*
X50835144Y-84250892D01*
X61857400Y-84250892D01*
X61857400Y-84354308D01*
X61877576Y-84455737D01*
X61917151Y-84551281D01*
X61974606Y-84637268D01*
X62047732Y-84710394D01*
X62133719Y-84767849D01*
X62229263Y-84807424D01*
X62330692Y-84827600D01*
X62434108Y-84827600D01*
X62535537Y-84807424D01*
X62631081Y-84767849D01*
X62717068Y-84710394D01*
X62790194Y-84637268D01*
X62847649Y-84551281D01*
X62887224Y-84455737D01*
X62907400Y-84354308D01*
X62907400Y-84250892D01*
X62887224Y-84149463D01*
X62847649Y-84053919D01*
X62792573Y-83971492D01*
X64968902Y-83971492D01*
X64968902Y-84074908D01*
X64989078Y-84176337D01*
X65028653Y-84271881D01*
X65086108Y-84357868D01*
X65159234Y-84430994D01*
X65245221Y-84488449D01*
X65340765Y-84528024D01*
X65442194Y-84548200D01*
X65545610Y-84548200D01*
X65647039Y-84528024D01*
X65742583Y-84488449D01*
X65828570Y-84430994D01*
X65901696Y-84357868D01*
X65959151Y-84271881D01*
X65998726Y-84176337D01*
X66018902Y-84074908D01*
X66018902Y-83971492D01*
X65998726Y-83870063D01*
X65959151Y-83774519D01*
X65901696Y-83688532D01*
X65828570Y-83615406D01*
X65742583Y-83557951D01*
X65647039Y-83518376D01*
X65545610Y-83498200D01*
X65442194Y-83498200D01*
X65340765Y-83518376D01*
X65245221Y-83557951D01*
X65159234Y-83615406D01*
X65086108Y-83688532D01*
X65028653Y-83774519D01*
X64989078Y-83870063D01*
X64968902Y-83971492D01*
X62792573Y-83971492D01*
X62790194Y-83967932D01*
X62717068Y-83894806D01*
X62631081Y-83837351D01*
X62535537Y-83797776D01*
X62434108Y-83777600D01*
X62330692Y-83777600D01*
X62229263Y-83797776D01*
X62133719Y-83837351D01*
X62047732Y-83894806D01*
X61974606Y-83967932D01*
X61917151Y-84053919D01*
X61877576Y-84149463D01*
X61857400Y-84250892D01*
X50835144Y-84250892D01*
X51386203Y-82980892D01*
X63914800Y-82980892D01*
X63914800Y-83084308D01*
X63934976Y-83185737D01*
X63974551Y-83281281D01*
X64032006Y-83367268D01*
X64105132Y-83440394D01*
X64191119Y-83497849D01*
X64286663Y-83537424D01*
X64388092Y-83557600D01*
X64491508Y-83557600D01*
X64592937Y-83537424D01*
X64688481Y-83497849D01*
X64774468Y-83440394D01*
X64847594Y-83367268D01*
X64905049Y-83281281D01*
X64944624Y-83185737D01*
X64964800Y-83084308D01*
X64964800Y-82980892D01*
X64944624Y-82879463D01*
X64905049Y-82783919D01*
X64847594Y-82697932D01*
X64774468Y-82624806D01*
X64688481Y-82567351D01*
X64592937Y-82527776D01*
X64491508Y-82507600D01*
X64388092Y-82507600D01*
X64286663Y-82527776D01*
X64191119Y-82567351D01*
X64105132Y-82624806D01*
X64032006Y-82697932D01*
X63974551Y-82783919D01*
X63934976Y-82879463D01*
X63914800Y-82980892D01*
X51386203Y-82980892D01*
X51914118Y-81764232D01*
X66871362Y-81764232D01*
X66871362Y-81867648D01*
X66891538Y-81969077D01*
X66931113Y-82064621D01*
X66988568Y-82150608D01*
X67061694Y-82223734D01*
X67147681Y-82281189D01*
X67243225Y-82320764D01*
X67344654Y-82340940D01*
X67448070Y-82340940D01*
X67549499Y-82320764D01*
X67645043Y-82281189D01*
X67731030Y-82223734D01*
X67804156Y-82150608D01*
X67861611Y-82064621D01*
X67901186Y-81969077D01*
X67921362Y-81867648D01*
X67921362Y-81764232D01*
X67901186Y-81662803D01*
X67861611Y-81567259D01*
X67804156Y-81481272D01*
X67731030Y-81408146D01*
X67645043Y-81350691D01*
X67549499Y-81311116D01*
X67448070Y-81290940D01*
X67344654Y-81290940D01*
X67243225Y-81311116D01*
X67147681Y-81350691D01*
X67061694Y-81408146D01*
X66988568Y-81481272D01*
X66931113Y-81567259D01*
X66891538Y-81662803D01*
X66871362Y-81764232D01*
X51914118Y-81764232D01*
X54401307Y-76032129D01*
X62095040Y-76032129D01*
X62095040Y-76266389D01*
X62140742Y-76496149D01*
X62230390Y-76712578D01*
X62360539Y-76907359D01*
X62526186Y-77073006D01*
X62720967Y-77203155D01*
X62937396Y-77292803D01*
X63167156Y-77338505D01*
X63401416Y-77338505D01*
X63631176Y-77292803D01*
X63847605Y-77203155D01*
X64042386Y-77073006D01*
X64208033Y-76907359D01*
X64338182Y-76712578D01*
X64427830Y-76496149D01*
X64473532Y-76266389D01*
X64473532Y-76032129D01*
X76445667Y-76032129D01*
X76445667Y-76266389D01*
X76491369Y-76496149D01*
X76581017Y-76712578D01*
X76711166Y-76907359D01*
X76876813Y-77073006D01*
X77071594Y-77203155D01*
X77288023Y-77292803D01*
X77517783Y-77338505D01*
X77752043Y-77338505D01*
X77981803Y-77292803D01*
X78198232Y-77203155D01*
X78393013Y-77073006D01*
X78558660Y-76907359D01*
X78688809Y-76712578D01*
X78778457Y-76496149D01*
X78824159Y-76266389D01*
X78824159Y-76032129D01*
X78778457Y-75802369D01*
X78688809Y-75585940D01*
X78558660Y-75391159D01*
X78393013Y-75225512D01*
X78198232Y-75095363D01*
X77981803Y-75005715D01*
X77752043Y-74960013D01*
X77517783Y-74960013D01*
X77288023Y-75005715D01*
X77071594Y-75095363D01*
X76876813Y-75225512D01*
X76711166Y-75391159D01*
X76581017Y-75585940D01*
X76491369Y-75802369D01*
X76445667Y-76032129D01*
X64473532Y-76032129D01*
X64427830Y-75802369D01*
X64338182Y-75585940D01*
X64208033Y-75391159D01*
X64042386Y-75225512D01*
X63847605Y-75095363D01*
X63631176Y-75005715D01*
X63401416Y-74960013D01*
X63167156Y-74960013D01*
X62937396Y-75005715D01*
X62720967Y-75095363D01*
X62526186Y-75225512D01*
X62360539Y-75391159D01*
X62230390Y-75585940D01*
X62140742Y-75802369D01*
X62095040Y-76032129D01*
X54401307Y-76032129D01*
X56490228Y-71217895D01*
X56561814Y-71089049D01*
X56646749Y-70988743D01*
X56749548Y-70906844D01*
X56866292Y-70846475D01*
X56993450Y-70809668D01*
X57130746Y-70796999D01*
X59693707Y-70797001D01*
G36*
X87633105Y-107381744D02*
G01*
X87625130Y-107400085D01*
X87643472Y-107408060D01*
X87603597Y-107499766D01*
X87585256Y-107491791D01*
X87577281Y-107510133D01*
X87485575Y-107470258D01*
X87493550Y-107451917D01*
X87475208Y-107443942D01*
X87515083Y-107352236D01*
X87533424Y-107360211D01*
X87541399Y-107341869D01*
X87633105Y-107381744D01*
G37*
X87633105Y-107381744D02*
X87625130Y-107400085D01*
X87643472Y-107408060D01*
X87603597Y-107499766D01*
X87585256Y-107491791D01*
X87577281Y-107510133D01*
X87485575Y-107470258D01*
X87493550Y-107451917D01*
X87475208Y-107443942D01*
X87515083Y-107352236D01*
X87533424Y-107360211D01*
X87541399Y-107341869D01*
X87633105Y-107381744D01*
G36*
X61312184Y-101003657D02*
G01*
X61323804Y-101017816D01*
X61380296Y-101064178D01*
X61444748Y-101098628D01*
X61514681Y-101119842D01*
X61569185Y-101125210D01*
X61569194Y-101125210D01*
X61587409Y-101127004D01*
X61605624Y-101125210D01*
X62851678Y-101125210D01*
X62888472Y-101162004D01*
X62974459Y-101219459D01*
X63070003Y-101259034D01*
X63171432Y-101279210D01*
X63274848Y-101279210D01*
X63376277Y-101259034D01*
X63471821Y-101219459D01*
X63557808Y-101162004D01*
X63630934Y-101088878D01*
X63688389Y-101002891D01*
X63727964Y-100907347D01*
X63748140Y-100805918D01*
X63748140Y-100702502D01*
X63728347Y-100603000D01*
X64631289Y-100603000D01*
X64643947Y-100608243D01*
X64745376Y-100628419D01*
X64848792Y-100628419D01*
X64950221Y-100608243D01*
X65023030Y-100578085D01*
X64983648Y-100617467D01*
X64968390Y-100629989D01*
X64955868Y-100645247D01*
X64955865Y-100645250D01*
X64918403Y-100690898D01*
X64881261Y-100760386D01*
X64858388Y-100835787D01*
X64850665Y-100914200D01*
X64852601Y-100933856D01*
X64852601Y-101957091D01*
X64791207Y-101944879D01*
X64687791Y-101944879D01*
X64586362Y-101965055D01*
X64490818Y-102004630D01*
X64404831Y-102062085D01*
X64331705Y-102135211D01*
X64274250Y-102221198D01*
X64234675Y-102316742D01*
X64214499Y-102418171D01*
X64214499Y-102521587D01*
X64234675Y-102623016D01*
X64274250Y-102718560D01*
X64331705Y-102804547D01*
X64352048Y-102824890D01*
X64311406Y-102865532D01*
X64253951Y-102951519D01*
X64214376Y-103047063D01*
X64194200Y-103148492D01*
X64194200Y-103251908D01*
X64214376Y-103353337D01*
X64253951Y-103448881D01*
X64311406Y-103534868D01*
X64384532Y-103607994D01*
X64470519Y-103665449D01*
X64566063Y-103705024D01*
X64667492Y-103725200D01*
X64770908Y-103725200D01*
X64852600Y-103708950D01*
X64852600Y-104374353D01*
X64850665Y-104394000D01*
X64852600Y-104413646D01*
X64858388Y-104472413D01*
X64881260Y-104547813D01*
X64918403Y-104617302D01*
X64968389Y-104678211D01*
X64983652Y-104690737D01*
X65427049Y-105134135D01*
X65427049Y-105432400D01*
X65436444Y-105527790D01*
X65464268Y-105619513D01*
X65509452Y-105704047D01*
X65570259Y-105778141D01*
X65644353Y-105838948D01*
X65728887Y-105884132D01*
X65820610Y-105911956D01*
X65916000Y-105921351D01*
X66291000Y-105921351D01*
X66386390Y-105911956D01*
X66478113Y-105884132D01*
X66562647Y-105838948D01*
X66636741Y-105778141D01*
X66697548Y-105704047D01*
X66742732Y-105619513D01*
X66760771Y-105560046D01*
X66766384Y-106940800D01*
X65123841Y-106940800D01*
X62118933Y-103935892D01*
X63025800Y-103935892D01*
X63025800Y-104039308D01*
X63045976Y-104140737D01*
X63085551Y-104236281D01*
X63143006Y-104322268D01*
X63216132Y-104395394D01*
X63302119Y-104452849D01*
X63397663Y-104492424D01*
X63499092Y-104512600D01*
X63602508Y-104512600D01*
X63703937Y-104492424D01*
X63799481Y-104452849D01*
X63885468Y-104395394D01*
X63958594Y-104322268D01*
X64016049Y-104236281D01*
X64055624Y-104140737D01*
X64075800Y-104039308D01*
X64075800Y-103935892D01*
X64055624Y-103834463D01*
X64016049Y-103738919D01*
X63958594Y-103652932D01*
X63885468Y-103579806D01*
X63799481Y-103522351D01*
X63703937Y-103482776D01*
X63602508Y-103462600D01*
X63499092Y-103462600D01*
X63397663Y-103482776D01*
X63302119Y-103522351D01*
X63216132Y-103579806D01*
X63143006Y-103652932D01*
X63085551Y-103738919D01*
X63045976Y-103834463D01*
X63025800Y-103935892D01*
X62118933Y-103935892D01*
X60724600Y-102541560D01*
X60724600Y-101980092D01*
X61374800Y-101980092D01*
X61374800Y-102083508D01*
X61394976Y-102184937D01*
X61434551Y-102280481D01*
X61492006Y-102366468D01*
X61565132Y-102439594D01*
X61651119Y-102497049D01*
X61746663Y-102536624D01*
X61848092Y-102556800D01*
X61951508Y-102556800D01*
X62052937Y-102536624D01*
X62148481Y-102497049D01*
X62234468Y-102439594D01*
X62307594Y-102366468D01*
X62365049Y-102280481D01*
X62404624Y-102184937D01*
X62424800Y-102083508D01*
X62424800Y-101980092D01*
X62404624Y-101878663D01*
X62365049Y-101783119D01*
X62307594Y-101697132D01*
X62234468Y-101624006D01*
X62148481Y-101566551D01*
X62052937Y-101526976D01*
X61951508Y-101506800D01*
X61848092Y-101506800D01*
X61746663Y-101526976D01*
X61651119Y-101566551D01*
X61565132Y-101624006D01*
X61492006Y-101697132D01*
X61434551Y-101783119D01*
X61394976Y-101878663D01*
X61374800Y-101980092D01*
X60724600Y-101980092D01*
X60724600Y-100416073D01*
X61312184Y-101003657D01*
G37*
X61312184Y-101003657D02*
X61323804Y-101017816D01*
X61380296Y-101064178D01*
X61444748Y-101098628D01*
X61514681Y-101119842D01*
X61569185Y-101125210D01*
X61569194Y-101125210D01*
X61587409Y-101127004D01*
X61605624Y-101125210D01*
X62851678Y-101125210D01*
X62888472Y-101162004D01*
X62974459Y-101219459D01*
X63070003Y-101259034D01*
X63171432Y-101279210D01*
X63274848Y-101279210D01*
X63376277Y-101259034D01*
X63471821Y-101219459D01*
X63557808Y-101162004D01*
X63630934Y-101088878D01*
X63688389Y-101002891D01*
X63727964Y-100907347D01*
X63748140Y-100805918D01*
X63748140Y-100702502D01*
X63728347Y-100603000D01*
X64631289Y-100603000D01*
X64643947Y-100608243D01*
X64745376Y-100628419D01*
X64848792Y-100628419D01*
X64950221Y-100608243D01*
X65023030Y-100578085D01*
X64983648Y-100617467D01*
X64968390Y-100629989D01*
X64955868Y-100645247D01*
X64955865Y-100645250D01*
X64918403Y-100690898D01*
X64881261Y-100760386D01*
X64858388Y-100835787D01*
X64850665Y-100914200D01*
X64852601Y-100933856D01*
X64852601Y-101957091D01*
X64791207Y-101944879D01*
X64687791Y-101944879D01*
X64586362Y-101965055D01*
X64490818Y-102004630D01*
X64404831Y-102062085D01*
X64331705Y-102135211D01*
X64274250Y-102221198D01*
X64234675Y-102316742D01*
X64214499Y-102418171D01*
X64214499Y-102521587D01*
X64234675Y-102623016D01*
X64274250Y-102718560D01*
X64331705Y-102804547D01*
X64352048Y-102824890D01*
X64311406Y-102865532D01*
X64253951Y-102951519D01*
X64214376Y-103047063D01*
X64194200Y-103148492D01*
X64194200Y-103251908D01*
X64214376Y-103353337D01*
X64253951Y-103448881D01*
X64311406Y-103534868D01*
X64384532Y-103607994D01*
X64470519Y-103665449D01*
X64566063Y-103705024D01*
X64667492Y-103725200D01*
X64770908Y-103725200D01*
X64852600Y-103708950D01*
X64852600Y-104374353D01*
X64850665Y-104394000D01*
X64852600Y-104413646D01*
X64858388Y-104472413D01*
X64881260Y-104547813D01*
X64918403Y-104617302D01*
X64968389Y-104678211D01*
X64983652Y-104690737D01*
X65427049Y-105134135D01*
X65427049Y-105432400D01*
X65436444Y-105527790D01*
X65464268Y-105619513D01*
X65509452Y-105704047D01*
X65570259Y-105778141D01*
X65644353Y-105838948D01*
X65728887Y-105884132D01*
X65820610Y-105911956D01*
X65916000Y-105921351D01*
X66291000Y-105921351D01*
X66386390Y-105911956D01*
X66478113Y-105884132D01*
X66562647Y-105838948D01*
X66636741Y-105778141D01*
X66697548Y-105704047D01*
X66742732Y-105619513D01*
X66760771Y-105560046D01*
X66766384Y-106940800D01*
X65123841Y-106940800D01*
X62118933Y-103935892D01*
X63025800Y-103935892D01*
X63025800Y-104039308D01*
X63045976Y-104140737D01*
X63085551Y-104236281D01*
X63143006Y-104322268D01*
X63216132Y-104395394D01*
X63302119Y-104452849D01*
X63397663Y-104492424D01*
X63499092Y-104512600D01*
X63602508Y-104512600D01*
X63703937Y-104492424D01*
X63799481Y-104452849D01*
X63885468Y-104395394D01*
X63958594Y-104322268D01*
X64016049Y-104236281D01*
X64055624Y-104140737D01*
X64075800Y-104039308D01*
X64075800Y-103935892D01*
X64055624Y-103834463D01*
X64016049Y-103738919D01*
X63958594Y-103652932D01*
X63885468Y-103579806D01*
X63799481Y-103522351D01*
X63703937Y-103482776D01*
X63602508Y-103462600D01*
X63499092Y-103462600D01*
X63397663Y-103482776D01*
X63302119Y-103522351D01*
X63216132Y-103579806D01*
X63143006Y-103652932D01*
X63085551Y-103738919D01*
X63045976Y-103834463D01*
X63025800Y-103935892D01*
X62118933Y-103935892D01*
X60724600Y-102541560D01*
X60724600Y-101980092D01*
X61374800Y-101980092D01*
X61374800Y-102083508D01*
X61394976Y-102184937D01*
X61434551Y-102280481D01*
X61492006Y-102366468D01*
X61565132Y-102439594D01*
X61651119Y-102497049D01*
X61746663Y-102536624D01*
X61848092Y-102556800D01*
X61951508Y-102556800D01*
X62052937Y-102536624D01*
X62148481Y-102497049D01*
X62234468Y-102439594D01*
X62307594Y-102366468D01*
X62365049Y-102280481D01*
X62404624Y-102184937D01*
X62424800Y-102083508D01*
X62424800Y-101980092D01*
X62404624Y-101878663D01*
X62365049Y-101783119D01*
X62307594Y-101697132D01*
X62234468Y-101624006D01*
X62148481Y-101566551D01*
X62052937Y-101526976D01*
X61951508Y-101506800D01*
X61848092Y-101506800D01*
X61746663Y-101526976D01*
X61651119Y-101566551D01*
X61565132Y-101624006D01*
X61492006Y-101697132D01*
X61434551Y-101783119D01*
X61394976Y-101878663D01*
X61374800Y-101980092D01*
X60724600Y-101980092D01*
X60724600Y-100416073D01*
X61312184Y-101003657D01*
G36*
X68004453Y-105954658D02*
G01*
X67990311Y-105968800D01*
X68004453Y-105982942D01*
X67933742Y-106053653D01*
X67919600Y-106039511D01*
X67905458Y-106053653D01*
X67834747Y-105982942D01*
X67848889Y-105968800D01*
X67834747Y-105954658D01*
X67905458Y-105883947D01*
X67919600Y-105898089D01*
X67933742Y-105883947D01*
X68004453Y-105954658D01*
G37*
X68004453Y-105954658D02*
X67990311Y-105968800D01*
X68004453Y-105982942D01*
X67933742Y-106053653D01*
X67919600Y-106039511D01*
X67905458Y-106053653D01*
X67834747Y-105982942D01*
X67848889Y-105968800D01*
X67834747Y-105954658D01*
X67905458Y-105883947D01*
X67919600Y-105898089D01*
X67933742Y-105883947D01*
X68004453Y-105954658D01*
G36*
X85452972Y-104946917D02*
G01*
X85444997Y-104965258D01*
X85463339Y-104973233D01*
X85423464Y-105064939D01*
X85405123Y-105056964D01*
X85397148Y-105075306D01*
X85305442Y-105035431D01*
X85313417Y-105017090D01*
X85295076Y-105009115D01*
X85334950Y-104917409D01*
X85353291Y-104925384D01*
X85361266Y-104907042D01*
X85452972Y-104946917D01*
G37*
X85452972Y-104946917D02*
X85444997Y-104965258D01*
X85463339Y-104973233D01*
X85423464Y-105064939D01*
X85405123Y-105056964D01*
X85397148Y-105075306D01*
X85305442Y-105035431D01*
X85313417Y-105017090D01*
X85295076Y-105009115D01*
X85334950Y-104917409D01*
X85353291Y-104925384D01*
X85361266Y-104907042D01*
X85452972Y-104946917D01*
G36*
X89068602Y-104080328D02*
G01*
X89060627Y-104098669D01*
X89078969Y-104106644D01*
X89039094Y-104198350D01*
X89020753Y-104190375D01*
X89012778Y-104208717D01*
X88921072Y-104168842D01*
X88929047Y-104150501D01*
X88910705Y-104142526D01*
X88950580Y-104050820D01*
X88968921Y-104058795D01*
X88976896Y-104040453D01*
X89068602Y-104080328D01*
G37*
X89068602Y-104080328D02*
X89060627Y-104098669D01*
X89078969Y-104106644D01*
X89039094Y-104198350D01*
X89020753Y-104190375D01*
X89012778Y-104208717D01*
X88921072Y-104168842D01*
X88929047Y-104150501D01*
X88910705Y-104142526D01*
X88950580Y-104050820D01*
X88968921Y-104058795D01*
X88976896Y-104040453D01*
X89068602Y-104080328D01*
G36*
X82228200Y-89361103D02*
G01*
X82228200Y-89464519D01*
X82248376Y-89565948D01*
X82287951Y-89661492D01*
X82345406Y-89747479D01*
X82418532Y-89820605D01*
X82504519Y-89878060D01*
X82600063Y-89917635D01*
X82701492Y-89937811D01*
X82804908Y-89937811D01*
X82906337Y-89917635D01*
X83001881Y-89878060D01*
X83087868Y-89820605D01*
X83160994Y-89747479D01*
X83218449Y-89661492D01*
X83258024Y-89565948D01*
X83278200Y-89464519D01*
X83278200Y-89361103D01*
X83259193Y-89265550D01*
X84107825Y-89265550D01*
X85083114Y-90240840D01*
X82422037Y-90240840D01*
X82438316Y-90159003D01*
X82438316Y-90055587D01*
X82418140Y-89954158D01*
X82378565Y-89858614D01*
X82321110Y-89772627D01*
X82247984Y-89699501D01*
X82161997Y-89642046D01*
X82066453Y-89602471D01*
X81965024Y-89582295D01*
X81861608Y-89582295D01*
X81760179Y-89602471D01*
X81664635Y-89642046D01*
X81578648Y-89699501D01*
X81505522Y-89772627D01*
X81448067Y-89858614D01*
X81408492Y-89954158D01*
X81388316Y-90055587D01*
X81388316Y-90159003D01*
X81404595Y-90240840D01*
X81216640Y-90240840D01*
X81158113Y-90246604D01*
X81101835Y-90263676D01*
X81049969Y-90291399D01*
X81004508Y-90328708D01*
X80867792Y-90465424D01*
X80851442Y-90478842D01*
X80813953Y-90524523D01*
X80786096Y-90576640D01*
X80768941Y-90633190D01*
X80763149Y-90692000D01*
X80763149Y-91753225D01*
X80711948Y-91743040D01*
X80608532Y-91743040D01*
X80507103Y-91763216D01*
X80411559Y-91802791D01*
X80357981Y-91838591D01*
X80304401Y-91802789D01*
X80208857Y-91763214D01*
X80107428Y-91743038D01*
X80004012Y-91743038D01*
X79902583Y-91763214D01*
X79807039Y-91802789D01*
X79721052Y-91860244D01*
X79647926Y-91933370D01*
X79590471Y-92019357D01*
X79550896Y-92114901D01*
X79530720Y-92216330D01*
X79530720Y-92319746D01*
X79550896Y-92421175D01*
X79590471Y-92516719D01*
X79647926Y-92602706D01*
X79721052Y-92675832D01*
X79775101Y-92711947D01*
X79775100Y-97876980D01*
X78616097Y-99035984D01*
X78605074Y-99035984D01*
X78503645Y-99056160D01*
X78408101Y-99095735D01*
X78322114Y-99153190D01*
X78248988Y-99226316D01*
X78191533Y-99312303D01*
X78151958Y-99407847D01*
X78131782Y-99509276D01*
X78131782Y-99536776D01*
X76504041Y-101164518D01*
X76493018Y-101164518D01*
X76391589Y-101184694D01*
X76296045Y-101224269D01*
X76210058Y-101281724D01*
X76136932Y-101354850D01*
X76079477Y-101440837D01*
X76039902Y-101536381D01*
X76019726Y-101637810D01*
X76019726Y-101741226D01*
X76039902Y-101842655D01*
X76079477Y-101938199D01*
X76136932Y-102024186D01*
X76210058Y-102097312D01*
X76296045Y-102154767D01*
X76301693Y-102157107D01*
X74530440Y-103928360D01*
X73627957Y-103928360D01*
X73708551Y-103807742D01*
X73768857Y-103662151D01*
X73799600Y-103507593D01*
X73799600Y-103350007D01*
X73768857Y-103195449D01*
X73708551Y-103049858D01*
X73621001Y-102918830D01*
X73509570Y-102807399D01*
X73378542Y-102719849D01*
X73232951Y-102659543D01*
X73078393Y-102628800D01*
X72920807Y-102628800D01*
X72766249Y-102659543D01*
X72620658Y-102719849D01*
X72489630Y-102807399D01*
X72378199Y-102918830D01*
X72316618Y-103010992D01*
X72018950Y-102713325D01*
X72018950Y-101942005D01*
X72715913Y-101942005D01*
X72715913Y-102045421D01*
X72736089Y-102146850D01*
X72775664Y-102242394D01*
X72833119Y-102328381D01*
X72906245Y-102401507D01*
X72992232Y-102458962D01*
X73087776Y-102498537D01*
X73189205Y-102518713D01*
X73292621Y-102518713D01*
X73394050Y-102498537D01*
X73489594Y-102458962D01*
X73575581Y-102401507D01*
X73596516Y-102380572D01*
X73610418Y-102394474D01*
X73696405Y-102451929D01*
X73791949Y-102491504D01*
X73893378Y-102511680D01*
X73996794Y-102511680D01*
X74098223Y-102491504D01*
X74193767Y-102451929D01*
X74279754Y-102394474D01*
X74352880Y-102321348D01*
X74410335Y-102235361D01*
X74449910Y-102139817D01*
X74470086Y-102038388D01*
X74470086Y-101934972D01*
X74449910Y-101833543D01*
X74410335Y-101737999D01*
X74352880Y-101652012D01*
X74279754Y-101578886D01*
X74193767Y-101521431D01*
X74098223Y-101481856D01*
X73996794Y-101461680D01*
X73893378Y-101461680D01*
X73791949Y-101481856D01*
X73696405Y-101521431D01*
X73610418Y-101578886D01*
X73589483Y-101599821D01*
X73575581Y-101585919D01*
X73489594Y-101528464D01*
X73394050Y-101488889D01*
X73292621Y-101468713D01*
X73189205Y-101468713D01*
X73087776Y-101488889D01*
X72992232Y-101528464D01*
X72906245Y-101585919D01*
X72833119Y-101659045D01*
X72775664Y-101745032D01*
X72736089Y-101840576D01*
X72715913Y-101942005D01*
X72018950Y-101942005D01*
X72018950Y-100143775D01*
X73128850Y-99033875D01*
X73163306Y-99085442D01*
X73236432Y-99158568D01*
X73322419Y-99216023D01*
X73417963Y-99255598D01*
X73519392Y-99275774D01*
X73622808Y-99275774D01*
X73724237Y-99255598D01*
X73799747Y-99224321D01*
X74024004Y-99224321D01*
X74024004Y-99327737D01*
X74044180Y-99429166D01*
X74083755Y-99524710D01*
X74141210Y-99610697D01*
X74214336Y-99683823D01*
X74300323Y-99741278D01*
X74395867Y-99780853D01*
X74497296Y-99801029D01*
X74600712Y-99801029D01*
X74702141Y-99780853D01*
X74797685Y-99741278D01*
X74883672Y-99683823D01*
X74956798Y-99610697D01*
X75014253Y-99524710D01*
X75053828Y-99429166D01*
X75074004Y-99327737D01*
X75074004Y-99224321D01*
X75053828Y-99122892D01*
X75014253Y-99027348D01*
X74956798Y-98941361D01*
X74883672Y-98868235D01*
X74797685Y-98810780D01*
X74702141Y-98771205D01*
X74600712Y-98751029D01*
X74497296Y-98751029D01*
X74395867Y-98771205D01*
X74300323Y-98810780D01*
X74214336Y-98868235D01*
X74141210Y-98941361D01*
X74083755Y-99027348D01*
X74044180Y-99122892D01*
X74024004Y-99224321D01*
X73799747Y-99224321D01*
X73819781Y-99216023D01*
X73905768Y-99158568D01*
X73978894Y-99085442D01*
X74036349Y-98999455D01*
X74075924Y-98903911D01*
X74096100Y-98802482D01*
X74096100Y-98699066D01*
X74075924Y-98597637D01*
X74036349Y-98502093D01*
X74033915Y-98498450D01*
X74925725Y-98498450D01*
X75601898Y-99174624D01*
X75613743Y-99189057D01*
X75671339Y-99236325D01*
X75737050Y-99271448D01*
X75808350Y-99293077D01*
X75863919Y-99298550D01*
X75863929Y-99298550D01*
X75882499Y-99300379D01*
X75901069Y-99298550D01*
X77337130Y-99298550D01*
X77355700Y-99300379D01*
X77374270Y-99298550D01*
X77374281Y-99298550D01*
X77429850Y-99293077D01*
X77501150Y-99271448D01*
X77566861Y-99236325D01*
X77624457Y-99189057D01*
X77636306Y-99174619D01*
X78397431Y-98413496D01*
X78411857Y-98401657D01*
X78423697Y-98387230D01*
X78423702Y-98387225D01*
X78459125Y-98344062D01*
X78485658Y-98294421D01*
X78494248Y-98278350D01*
X78515877Y-98207050D01*
X78521350Y-98151481D01*
X78521350Y-98151470D01*
X78523179Y-98132900D01*
X78521350Y-98114330D01*
X78521350Y-97074712D01*
X78550894Y-97045168D01*
X78608349Y-96959181D01*
X78622407Y-96925242D01*
X78713692Y-96943400D01*
X78817108Y-96943400D01*
X78918537Y-96923224D01*
X79014081Y-96883649D01*
X79100068Y-96826194D01*
X79173194Y-96753068D01*
X79230649Y-96667081D01*
X79270224Y-96571537D01*
X79290400Y-96470108D01*
X79290400Y-96366692D01*
X79270224Y-96265263D01*
X79230649Y-96169719D01*
X79173194Y-96083732D01*
X79100068Y-96010606D01*
X79014081Y-95953151D01*
X78918537Y-95913576D01*
X78817108Y-95893400D01*
X78803231Y-95893400D01*
X78815564Y-95863626D01*
X78835740Y-95762197D01*
X78835740Y-95658781D01*
X78815564Y-95557352D01*
X78775989Y-95461808D01*
X78718534Y-95375821D01*
X78645408Y-95302695D01*
X78559421Y-95245240D01*
X78463877Y-95205665D01*
X78362448Y-95185489D01*
X78299047Y-95185489D01*
X78300370Y-95172061D01*
X78300370Y-95172051D01*
X78302199Y-95153481D01*
X78300370Y-95134911D01*
X78300370Y-94309292D01*
X78613780Y-94309292D01*
X78613780Y-94412708D01*
X78633956Y-94514137D01*
X78673531Y-94609681D01*
X78730986Y-94695668D01*
X78804112Y-94768794D01*
X78890099Y-94826249D01*
X78985643Y-94865824D01*
X79087072Y-94886000D01*
X79190488Y-94886000D01*
X79291917Y-94865824D01*
X79387461Y-94826249D01*
X79473448Y-94768794D01*
X79546574Y-94695668D01*
X79604029Y-94609681D01*
X79643604Y-94514137D01*
X79663780Y-94412708D01*
X79663780Y-94309292D01*
X79643604Y-94207863D01*
X79604029Y-94112319D01*
X79546574Y-94026332D01*
X79473448Y-93953206D01*
X79387461Y-93895751D01*
X79291917Y-93856176D01*
X79190488Y-93836000D01*
X79087072Y-93836000D01*
X78985643Y-93856176D01*
X78890099Y-93895751D01*
X78804112Y-93953206D01*
X78730986Y-94026332D01*
X78673531Y-94112319D01*
X78633956Y-94207863D01*
X78613780Y-94309292D01*
X78300370Y-94309292D01*
X78300370Y-93069875D01*
X80365926Y-91004320D01*
X80380357Y-90992477D01*
X80427625Y-90934881D01*
X80462748Y-90869170D01*
X80484377Y-90797870D01*
X80489850Y-90742301D01*
X80489850Y-90742291D01*
X80491679Y-90723721D01*
X80489850Y-90705151D01*
X80489850Y-90147806D01*
X80519394Y-90118262D01*
X80576849Y-90032275D01*
X80616424Y-89936731D01*
X80636600Y-89835302D01*
X80636600Y-89731886D01*
X80616424Y-89630457D01*
X80576849Y-89534913D01*
X80519394Y-89448926D01*
X80460897Y-89390429D01*
X80585776Y-89265550D01*
X82247207Y-89265550D01*
X82228200Y-89361103D01*
G37*
X82228200Y-89361103D02*
X82228200Y-89464519D01*
X82248376Y-89565948D01*
X82287951Y-89661492D01*
X82345406Y-89747479D01*
X82418532Y-89820605D01*
X82504519Y-89878060D01*
X82600063Y-89917635D01*
X82701492Y-89937811D01*
X82804908Y-89937811D01*
X82906337Y-89917635D01*
X83001881Y-89878060D01*
X83087868Y-89820605D01*
X83160994Y-89747479D01*
X83218449Y-89661492D01*
X83258024Y-89565948D01*
X83278200Y-89464519D01*
X83278200Y-89361103D01*
X83259193Y-89265550D01*
X84107825Y-89265550D01*
X85083114Y-90240840D01*
X82422037Y-90240840D01*
X82438316Y-90159003D01*
X82438316Y-90055587D01*
X82418140Y-89954158D01*
X82378565Y-89858614D01*
X82321110Y-89772627D01*
X82247984Y-89699501D01*
X82161997Y-89642046D01*
X82066453Y-89602471D01*
X81965024Y-89582295D01*
X81861608Y-89582295D01*
X81760179Y-89602471D01*
X81664635Y-89642046D01*
X81578648Y-89699501D01*
X81505522Y-89772627D01*
X81448067Y-89858614D01*
X81408492Y-89954158D01*
X81388316Y-90055587D01*
X81388316Y-90159003D01*
X81404595Y-90240840D01*
X81216640Y-90240840D01*
X81158113Y-90246604D01*
X81101835Y-90263676D01*
X81049969Y-90291399D01*
X81004508Y-90328708D01*
X80867792Y-90465424D01*
X80851442Y-90478842D01*
X80813953Y-90524523D01*
X80786096Y-90576640D01*
X80768941Y-90633190D01*
X80763149Y-90692000D01*
X80763149Y-91753225D01*
X80711948Y-91743040D01*
X80608532Y-91743040D01*
X80507103Y-91763216D01*
X80411559Y-91802791D01*
X80357981Y-91838591D01*
X80304401Y-91802789D01*
X80208857Y-91763214D01*
X80107428Y-91743038D01*
X80004012Y-91743038D01*
X79902583Y-91763214D01*
X79807039Y-91802789D01*
X79721052Y-91860244D01*
X79647926Y-91933370D01*
X79590471Y-92019357D01*
X79550896Y-92114901D01*
X79530720Y-92216330D01*
X79530720Y-92319746D01*
X79550896Y-92421175D01*
X79590471Y-92516719D01*
X79647926Y-92602706D01*
X79721052Y-92675832D01*
X79775101Y-92711947D01*
X79775100Y-97876980D01*
X78616097Y-99035984D01*
X78605074Y-99035984D01*
X78503645Y-99056160D01*
X78408101Y-99095735D01*
X78322114Y-99153190D01*
X78248988Y-99226316D01*
X78191533Y-99312303D01*
X78151958Y-99407847D01*
X78131782Y-99509276D01*
X78131782Y-99536776D01*
X76504041Y-101164518D01*
X76493018Y-101164518D01*
X76391589Y-101184694D01*
X76296045Y-101224269D01*
X76210058Y-101281724D01*
X76136932Y-101354850D01*
X76079477Y-101440837D01*
X76039902Y-101536381D01*
X76019726Y-101637810D01*
X76019726Y-101741226D01*
X76039902Y-101842655D01*
X76079477Y-101938199D01*
X76136932Y-102024186D01*
X76210058Y-102097312D01*
X76296045Y-102154767D01*
X76301693Y-102157107D01*
X74530440Y-103928360D01*
X73627957Y-103928360D01*
X73708551Y-103807742D01*
X73768857Y-103662151D01*
X73799600Y-103507593D01*
X73799600Y-103350007D01*
X73768857Y-103195449D01*
X73708551Y-103049858D01*
X73621001Y-102918830D01*
X73509570Y-102807399D01*
X73378542Y-102719849D01*
X73232951Y-102659543D01*
X73078393Y-102628800D01*
X72920807Y-102628800D01*
X72766249Y-102659543D01*
X72620658Y-102719849D01*
X72489630Y-102807399D01*
X72378199Y-102918830D01*
X72316618Y-103010992D01*
X72018950Y-102713325D01*
X72018950Y-101942005D01*
X72715913Y-101942005D01*
X72715913Y-102045421D01*
X72736089Y-102146850D01*
X72775664Y-102242394D01*
X72833119Y-102328381D01*
X72906245Y-102401507D01*
X72992232Y-102458962D01*
X73087776Y-102498537D01*
X73189205Y-102518713D01*
X73292621Y-102518713D01*
X73394050Y-102498537D01*
X73489594Y-102458962D01*
X73575581Y-102401507D01*
X73596516Y-102380572D01*
X73610418Y-102394474D01*
X73696405Y-102451929D01*
X73791949Y-102491504D01*
X73893378Y-102511680D01*
X73996794Y-102511680D01*
X74098223Y-102491504D01*
X74193767Y-102451929D01*
X74279754Y-102394474D01*
X74352880Y-102321348D01*
X74410335Y-102235361D01*
X74449910Y-102139817D01*
X74470086Y-102038388D01*
X74470086Y-101934972D01*
X74449910Y-101833543D01*
X74410335Y-101737999D01*
X74352880Y-101652012D01*
X74279754Y-101578886D01*
X74193767Y-101521431D01*
X74098223Y-101481856D01*
X73996794Y-101461680D01*
X73893378Y-101461680D01*
X73791949Y-101481856D01*
X73696405Y-101521431D01*
X73610418Y-101578886D01*
X73589483Y-101599821D01*
X73575581Y-101585919D01*
X73489594Y-101528464D01*
X73394050Y-101488889D01*
X73292621Y-101468713D01*
X73189205Y-101468713D01*
X73087776Y-101488889D01*
X72992232Y-101528464D01*
X72906245Y-101585919D01*
X72833119Y-101659045D01*
X72775664Y-101745032D01*
X72736089Y-101840576D01*
X72715913Y-101942005D01*
X72018950Y-101942005D01*
X72018950Y-100143775D01*
X73128850Y-99033875D01*
X73163306Y-99085442D01*
X73236432Y-99158568D01*
X73322419Y-99216023D01*
X73417963Y-99255598D01*
X73519392Y-99275774D01*
X73622808Y-99275774D01*
X73724237Y-99255598D01*
X73799747Y-99224321D01*
X74024004Y-99224321D01*
X74024004Y-99327737D01*
X74044180Y-99429166D01*
X74083755Y-99524710D01*
X74141210Y-99610697D01*
X74214336Y-99683823D01*
X74300323Y-99741278D01*
X74395867Y-99780853D01*
X74497296Y-99801029D01*
X74600712Y-99801029D01*
X74702141Y-99780853D01*
X74797685Y-99741278D01*
X74883672Y-99683823D01*
X74956798Y-99610697D01*
X75014253Y-99524710D01*
X75053828Y-99429166D01*
X75074004Y-99327737D01*
X75074004Y-99224321D01*
X75053828Y-99122892D01*
X75014253Y-99027348D01*
X74956798Y-98941361D01*
X74883672Y-98868235D01*
X74797685Y-98810780D01*
X74702141Y-98771205D01*
X74600712Y-98751029D01*
X74497296Y-98751029D01*
X74395867Y-98771205D01*
X74300323Y-98810780D01*
X74214336Y-98868235D01*
X74141210Y-98941361D01*
X74083755Y-99027348D01*
X74044180Y-99122892D01*
X74024004Y-99224321D01*
X73799747Y-99224321D01*
X73819781Y-99216023D01*
X73905768Y-99158568D01*
X73978894Y-99085442D01*
X74036349Y-98999455D01*
X74075924Y-98903911D01*
X74096100Y-98802482D01*
X74096100Y-98699066D01*
X74075924Y-98597637D01*
X74036349Y-98502093D01*
X74033915Y-98498450D01*
X74925725Y-98498450D01*
X75601898Y-99174624D01*
X75613743Y-99189057D01*
X75671339Y-99236325D01*
X75737050Y-99271448D01*
X75808350Y-99293077D01*
X75863919Y-99298550D01*
X75863929Y-99298550D01*
X75882499Y-99300379D01*
X75901069Y-99298550D01*
X77337130Y-99298550D01*
X77355700Y-99300379D01*
X77374270Y-99298550D01*
X77374281Y-99298550D01*
X77429850Y-99293077D01*
X77501150Y-99271448D01*
X77566861Y-99236325D01*
X77624457Y-99189057D01*
X77636306Y-99174619D01*
X78397431Y-98413496D01*
X78411857Y-98401657D01*
X78423697Y-98387230D01*
X78423702Y-98387225D01*
X78459125Y-98344062D01*
X78485658Y-98294421D01*
X78494248Y-98278350D01*
X78515877Y-98207050D01*
X78521350Y-98151481D01*
X78521350Y-98151470D01*
X78523179Y-98132900D01*
X78521350Y-98114330D01*
X78521350Y-97074712D01*
X78550894Y-97045168D01*
X78608349Y-96959181D01*
X78622407Y-96925242D01*
X78713692Y-96943400D01*
X78817108Y-96943400D01*
X78918537Y-96923224D01*
X79014081Y-96883649D01*
X79100068Y-96826194D01*
X79173194Y-96753068D01*
X79230649Y-96667081D01*
X79270224Y-96571537D01*
X79290400Y-96470108D01*
X79290400Y-96366692D01*
X79270224Y-96265263D01*
X79230649Y-96169719D01*
X79173194Y-96083732D01*
X79100068Y-96010606D01*
X79014081Y-95953151D01*
X78918537Y-95913576D01*
X78817108Y-95893400D01*
X78803231Y-95893400D01*
X78815564Y-95863626D01*
X78835740Y-95762197D01*
X78835740Y-95658781D01*
X78815564Y-95557352D01*
X78775989Y-95461808D01*
X78718534Y-95375821D01*
X78645408Y-95302695D01*
X78559421Y-95245240D01*
X78463877Y-95205665D01*
X78362448Y-95185489D01*
X78299047Y-95185489D01*
X78300370Y-95172061D01*
X78300370Y-95172051D01*
X78302199Y-95153481D01*
X78300370Y-95134911D01*
X78300370Y-94309292D01*
X78613780Y-94309292D01*
X78613780Y-94412708D01*
X78633956Y-94514137D01*
X78673531Y-94609681D01*
X78730986Y-94695668D01*
X78804112Y-94768794D01*
X78890099Y-94826249D01*
X78985643Y-94865824D01*
X79087072Y-94886000D01*
X79190488Y-94886000D01*
X79291917Y-94865824D01*
X79387461Y-94826249D01*
X79473448Y-94768794D01*
X79546574Y-94695668D01*
X79604029Y-94609681D01*
X79643604Y-94514137D01*
X79663780Y-94412708D01*
X79663780Y-94309292D01*
X79643604Y-94207863D01*
X79604029Y-94112319D01*
X79546574Y-94026332D01*
X79473448Y-93953206D01*
X79387461Y-93895751D01*
X79291917Y-93856176D01*
X79190488Y-93836000D01*
X79087072Y-93836000D01*
X78985643Y-93856176D01*
X78890099Y-93895751D01*
X78804112Y-93953206D01*
X78730986Y-94026332D01*
X78673531Y-94112319D01*
X78633956Y-94207863D01*
X78613780Y-94309292D01*
X78300370Y-94309292D01*
X78300370Y-93069875D01*
X80365926Y-91004320D01*
X80380357Y-90992477D01*
X80427625Y-90934881D01*
X80462748Y-90869170D01*
X80484377Y-90797870D01*
X80489850Y-90742301D01*
X80489850Y-90742291D01*
X80491679Y-90723721D01*
X80489850Y-90705151D01*
X80489850Y-90147806D01*
X80519394Y-90118262D01*
X80576849Y-90032275D01*
X80616424Y-89936731D01*
X80636600Y-89835302D01*
X80636600Y-89731886D01*
X80616424Y-89630457D01*
X80576849Y-89534913D01*
X80519394Y-89448926D01*
X80460897Y-89390429D01*
X80585776Y-89265550D01*
X82247207Y-89265550D01*
X82228200Y-89361103D01*
G36*
X86433941Y-91591668D02*
G01*
X86433940Y-93118219D01*
X86432111Y-93136790D01*
X86433940Y-93155360D01*
X86433940Y-93155370D01*
X86439413Y-93210939D01*
X86461042Y-93282239D01*
X86466943Y-93293279D01*
X86496165Y-93347951D01*
X86507530Y-93361799D01*
X86543433Y-93405547D01*
X86557871Y-93417396D01*
X87008549Y-93868075D01*
X87008549Y-94104500D01*
X87017175Y-94192086D01*
X87042723Y-94276306D01*
X87084211Y-94353924D01*
X87140044Y-94421956D01*
X87208076Y-94477789D01*
X87251751Y-94501134D01*
X87251751Y-94748820D01*
X87249921Y-94767400D01*
X87257224Y-94841550D01*
X87278853Y-94912850D01*
X87313975Y-94978561D01*
X87349399Y-95021724D01*
X87361244Y-95036157D01*
X87375676Y-95048001D01*
X87851458Y-95523784D01*
X87863303Y-95538217D01*
X87877735Y-95550061D01*
X87920898Y-95585485D01*
X87950173Y-95601132D01*
X87986610Y-95620608D01*
X88057910Y-95642237D01*
X88113479Y-95647710D01*
X88113489Y-95647710D01*
X88132059Y-95649539D01*
X88150630Y-95647710D01*
X88306129Y-95647710D01*
X88306129Y-95969460D01*
X88311921Y-96028270D01*
X88329076Y-96084820D01*
X88356933Y-96136937D01*
X88394422Y-96182618D01*
X88440103Y-96220107D01*
X88492220Y-96247964D01*
X88548770Y-96265119D01*
X88607580Y-96270911D01*
X89657580Y-96270911D01*
X89716390Y-96265119D01*
X89772940Y-96247964D01*
X89825057Y-96220107D01*
X89857579Y-96193417D01*
X89870267Y-96203830D01*
X89870267Y-96520000D01*
X89872188Y-96539509D01*
X89877879Y-96558268D01*
X89887120Y-96575557D01*
X89899556Y-96590711D01*
X89914710Y-96603147D01*
X89931999Y-96612388D01*
X89950758Y-96618079D01*
X89970267Y-96620000D01*
X90930042Y-96620000D01*
X90875469Y-97781117D01*
X90580894Y-100790335D01*
X90528129Y-101205107D01*
X90343046Y-102035910D01*
X90176346Y-102480404D01*
X89903684Y-103108796D01*
X89143053Y-102778284D01*
X89124473Y-102772289D01*
X89105002Y-102770016D01*
X89085461Y-102771586D01*
X89066602Y-102776938D01*
X89049150Y-102785866D01*
X89033775Y-102798027D01*
X89021068Y-102812954D01*
X89011517Y-102830073D01*
X88934686Y-103006501D01*
X88912709Y-102996850D01*
X88856467Y-102978711D01*
X88797765Y-102971894D01*
X88738863Y-102976659D01*
X88698395Y-102988167D01*
X88679213Y-102950723D01*
X88642527Y-102904394D01*
X88597507Y-102866114D01*
X88545884Y-102837351D01*
X87582971Y-102418665D01*
X87526729Y-102400527D01*
X87468029Y-102393709D01*
X87409127Y-102398474D01*
X87352286Y-102414639D01*
X87299691Y-102441582D01*
X87253363Y-102478268D01*
X87215082Y-102523288D01*
X87186319Y-102574911D01*
X87017056Y-102964190D01*
X86241410Y-102964190D01*
X86222840Y-102962361D01*
X86204269Y-102964190D01*
X86204259Y-102964190D01*
X86148690Y-102969663D01*
X86077390Y-102991292D01*
X86066992Y-102996850D01*
X86011678Y-103026415D01*
X85975602Y-103056023D01*
X85954083Y-103073683D01*
X85942238Y-103088116D01*
X85597676Y-103432679D01*
X85587783Y-103440798D01*
X85545461Y-103436630D01*
X85545450Y-103436630D01*
X85526880Y-103434801D01*
X85508310Y-103436630D01*
X81081076Y-103436630D01*
X79341198Y-101696753D01*
X79341198Y-101649892D01*
X79321022Y-101548463D01*
X79281447Y-101452919D01*
X79223992Y-101366932D01*
X79150866Y-101293806D01*
X79064879Y-101236351D01*
X79043281Y-101227405D01*
X79687594Y-100583092D01*
X80882000Y-100583092D01*
X80882000Y-100686508D01*
X80902176Y-100787937D01*
X80941751Y-100883481D01*
X80999206Y-100969468D01*
X81072332Y-101042594D01*
X81158319Y-101100049D01*
X81253863Y-101139624D01*
X81355292Y-101159800D01*
X81458708Y-101159800D01*
X81560137Y-101139624D01*
X81655681Y-101100049D01*
X81741668Y-101042594D01*
X81814794Y-100969468D01*
X81872249Y-100883481D01*
X81911824Y-100787937D01*
X81932000Y-100686508D01*
X81932000Y-100583092D01*
X81921476Y-100530183D01*
X86593094Y-100530183D01*
X86593094Y-100764443D01*
X86638796Y-100994203D01*
X86728444Y-101210632D01*
X86858593Y-101405413D01*
X87024240Y-101571060D01*
X87219021Y-101701209D01*
X87435450Y-101790857D01*
X87665210Y-101836559D01*
X87899470Y-101836559D01*
X88129230Y-101790857D01*
X88345659Y-101701209D01*
X88540440Y-101571060D01*
X88706087Y-101405413D01*
X88836236Y-101210632D01*
X88925884Y-100994203D01*
X88971586Y-100764443D01*
X88971586Y-100530183D01*
X88925884Y-100300423D01*
X88836236Y-100083994D01*
X88706087Y-99889213D01*
X88540440Y-99723566D01*
X88345659Y-99593417D01*
X88129230Y-99503769D01*
X87899470Y-99458067D01*
X87665210Y-99458067D01*
X87435450Y-99503769D01*
X87219021Y-99593417D01*
X87024240Y-99723566D01*
X86858593Y-99889213D01*
X86728444Y-100083994D01*
X86638796Y-100300423D01*
X86593094Y-100530183D01*
X81921476Y-100530183D01*
X81911824Y-100481663D01*
X81872249Y-100386119D01*
X81814794Y-100300132D01*
X81741668Y-100227006D01*
X81655681Y-100169551D01*
X81560137Y-100129976D01*
X81458708Y-100109800D01*
X81355292Y-100109800D01*
X81253863Y-100129976D01*
X81158319Y-100169551D01*
X81072332Y-100227006D01*
X80999206Y-100300132D01*
X80941751Y-100386119D01*
X80902176Y-100481663D01*
X80882000Y-100583092D01*
X79687594Y-100583092D01*
X80256966Y-100013720D01*
X83490474Y-100013720D01*
X83510120Y-100015655D01*
X83529766Y-100013720D01*
X83529767Y-100013720D01*
X83588534Y-100007932D01*
X83663934Y-99985060D01*
X83733423Y-99947917D01*
X83794331Y-99897931D01*
X83806857Y-99882668D01*
X84876354Y-98813172D01*
X84891611Y-98800651D01*
X84904403Y-98785065D01*
X84932335Y-98751029D01*
X84941597Y-98739743D01*
X84978740Y-98670254D01*
X85001612Y-98594854D01*
X85002341Y-98587451D01*
X85107400Y-98587451D01*
X85166210Y-98581659D01*
X85222760Y-98564504D01*
X85274877Y-98536647D01*
X85320558Y-98499158D01*
X85358047Y-98453477D01*
X85385904Y-98401360D01*
X85403059Y-98344810D01*
X85408851Y-98286000D01*
X85408851Y-97786000D01*
X85403059Y-97727190D01*
X85385904Y-97670640D01*
X85358047Y-97618523D01*
X85320558Y-97572842D01*
X85275665Y-97536000D01*
X85320558Y-97499158D01*
X85358047Y-97453477D01*
X85385904Y-97401360D01*
X85403059Y-97344810D01*
X85408851Y-97286000D01*
X85408851Y-96866124D01*
X85447171Y-96845641D01*
X85492632Y-96808332D01*
X85530732Y-96770232D01*
X85568041Y-96724771D01*
X85595764Y-96672905D01*
X85612836Y-96616627D01*
X85618600Y-96558100D01*
X85618600Y-90776326D01*
X86433941Y-91591668D01*
G37*
X86433941Y-91591668D02*
X86433940Y-93118219D01*
X86432111Y-93136790D01*
X86433940Y-93155360D01*
X86433940Y-93155370D01*
X86439413Y-93210939D01*
X86461042Y-93282239D01*
X86466943Y-93293279D01*
X86496165Y-93347951D01*
X86507530Y-93361799D01*
X86543433Y-93405547D01*
X86557871Y-93417396D01*
X87008549Y-93868075D01*
X87008549Y-94104500D01*
X87017175Y-94192086D01*
X87042723Y-94276306D01*
X87084211Y-94353924D01*
X87140044Y-94421956D01*
X87208076Y-94477789D01*
X87251751Y-94501134D01*
X87251751Y-94748820D01*
X87249921Y-94767400D01*
X87257224Y-94841550D01*
X87278853Y-94912850D01*
X87313975Y-94978561D01*
X87349399Y-95021724D01*
X87361244Y-95036157D01*
X87375676Y-95048001D01*
X87851458Y-95523784D01*
X87863303Y-95538217D01*
X87877735Y-95550061D01*
X87920898Y-95585485D01*
X87950173Y-95601132D01*
X87986610Y-95620608D01*
X88057910Y-95642237D01*
X88113479Y-95647710D01*
X88113489Y-95647710D01*
X88132059Y-95649539D01*
X88150630Y-95647710D01*
X88306129Y-95647710D01*
X88306129Y-95969460D01*
X88311921Y-96028270D01*
X88329076Y-96084820D01*
X88356933Y-96136937D01*
X88394422Y-96182618D01*
X88440103Y-96220107D01*
X88492220Y-96247964D01*
X88548770Y-96265119D01*
X88607580Y-96270911D01*
X89657580Y-96270911D01*
X89716390Y-96265119D01*
X89772940Y-96247964D01*
X89825057Y-96220107D01*
X89857579Y-96193417D01*
X89870267Y-96203830D01*
X89870267Y-96520000D01*
X89872188Y-96539509D01*
X89877879Y-96558268D01*
X89887120Y-96575557D01*
X89899556Y-96590711D01*
X89914710Y-96603147D01*
X89931999Y-96612388D01*
X89950758Y-96618079D01*
X89970267Y-96620000D01*
X90930042Y-96620000D01*
X90875469Y-97781117D01*
X90580894Y-100790335D01*
X90528129Y-101205107D01*
X90343046Y-102035910D01*
X90176346Y-102480404D01*
X89903684Y-103108796D01*
X89143053Y-102778284D01*
X89124473Y-102772289D01*
X89105002Y-102770016D01*
X89085461Y-102771586D01*
X89066602Y-102776938D01*
X89049150Y-102785866D01*
X89033775Y-102798027D01*
X89021068Y-102812954D01*
X89011517Y-102830073D01*
X88934686Y-103006501D01*
X88912709Y-102996850D01*
X88856467Y-102978711D01*
X88797765Y-102971894D01*
X88738863Y-102976659D01*
X88698395Y-102988167D01*
X88679213Y-102950723D01*
X88642527Y-102904394D01*
X88597507Y-102866114D01*
X88545884Y-102837351D01*
X87582971Y-102418665D01*
X87526729Y-102400527D01*
X87468029Y-102393709D01*
X87409127Y-102398474D01*
X87352286Y-102414639D01*
X87299691Y-102441582D01*
X87253363Y-102478268D01*
X87215082Y-102523288D01*
X87186319Y-102574911D01*
X87017056Y-102964190D01*
X86241410Y-102964190D01*
X86222840Y-102962361D01*
X86204269Y-102964190D01*
X86204259Y-102964190D01*
X86148690Y-102969663D01*
X86077390Y-102991292D01*
X86066992Y-102996850D01*
X86011678Y-103026415D01*
X85975602Y-103056023D01*
X85954083Y-103073683D01*
X85942238Y-103088116D01*
X85597676Y-103432679D01*
X85587783Y-103440798D01*
X85545461Y-103436630D01*
X85545450Y-103436630D01*
X85526880Y-103434801D01*
X85508310Y-103436630D01*
X81081076Y-103436630D01*
X79341198Y-101696753D01*
X79341198Y-101649892D01*
X79321022Y-101548463D01*
X79281447Y-101452919D01*
X79223992Y-101366932D01*
X79150866Y-101293806D01*
X79064879Y-101236351D01*
X79043281Y-101227405D01*
X79687594Y-100583092D01*
X80882000Y-100583092D01*
X80882000Y-100686508D01*
X80902176Y-100787937D01*
X80941751Y-100883481D01*
X80999206Y-100969468D01*
X81072332Y-101042594D01*
X81158319Y-101100049D01*
X81253863Y-101139624D01*
X81355292Y-101159800D01*
X81458708Y-101159800D01*
X81560137Y-101139624D01*
X81655681Y-101100049D01*
X81741668Y-101042594D01*
X81814794Y-100969468D01*
X81872249Y-100883481D01*
X81911824Y-100787937D01*
X81932000Y-100686508D01*
X81932000Y-100583092D01*
X81921476Y-100530183D01*
X86593094Y-100530183D01*
X86593094Y-100764443D01*
X86638796Y-100994203D01*
X86728444Y-101210632D01*
X86858593Y-101405413D01*
X87024240Y-101571060D01*
X87219021Y-101701209D01*
X87435450Y-101790857D01*
X87665210Y-101836559D01*
X87899470Y-101836559D01*
X88129230Y-101790857D01*
X88345659Y-101701209D01*
X88540440Y-101571060D01*
X88706087Y-101405413D01*
X88836236Y-101210632D01*
X88925884Y-100994203D01*
X88971586Y-100764443D01*
X88971586Y-100530183D01*
X88925884Y-100300423D01*
X88836236Y-100083994D01*
X88706087Y-99889213D01*
X88540440Y-99723566D01*
X88345659Y-99593417D01*
X88129230Y-99503769D01*
X87899470Y-99458067D01*
X87665210Y-99458067D01*
X87435450Y-99503769D01*
X87219021Y-99593417D01*
X87024240Y-99723566D01*
X86858593Y-99889213D01*
X86728444Y-100083994D01*
X86638796Y-100300423D01*
X86593094Y-100530183D01*
X81921476Y-100530183D01*
X81911824Y-100481663D01*
X81872249Y-100386119D01*
X81814794Y-100300132D01*
X81741668Y-100227006D01*
X81655681Y-100169551D01*
X81560137Y-100129976D01*
X81458708Y-100109800D01*
X81355292Y-100109800D01*
X81253863Y-100129976D01*
X81158319Y-100169551D01*
X81072332Y-100227006D01*
X80999206Y-100300132D01*
X80941751Y-100386119D01*
X80902176Y-100481663D01*
X80882000Y-100583092D01*
X79687594Y-100583092D01*
X80256966Y-100013720D01*
X83490474Y-100013720D01*
X83510120Y-100015655D01*
X83529766Y-100013720D01*
X83529767Y-100013720D01*
X83588534Y-100007932D01*
X83663934Y-99985060D01*
X83733423Y-99947917D01*
X83794331Y-99897931D01*
X83806857Y-99882668D01*
X84876354Y-98813172D01*
X84891611Y-98800651D01*
X84904403Y-98785065D01*
X84932335Y-98751029D01*
X84941597Y-98739743D01*
X84978740Y-98670254D01*
X85001612Y-98594854D01*
X85002341Y-98587451D01*
X85107400Y-98587451D01*
X85166210Y-98581659D01*
X85222760Y-98564504D01*
X85274877Y-98536647D01*
X85320558Y-98499158D01*
X85358047Y-98453477D01*
X85385904Y-98401360D01*
X85403059Y-98344810D01*
X85408851Y-98286000D01*
X85408851Y-97786000D01*
X85403059Y-97727190D01*
X85385904Y-97670640D01*
X85358047Y-97618523D01*
X85320558Y-97572842D01*
X85275665Y-97536000D01*
X85320558Y-97499158D01*
X85358047Y-97453477D01*
X85385904Y-97401360D01*
X85403059Y-97344810D01*
X85408851Y-97286000D01*
X85408851Y-96866124D01*
X85447171Y-96845641D01*
X85492632Y-96808332D01*
X85530732Y-96770232D01*
X85568041Y-96724771D01*
X85595764Y-96672905D01*
X85612836Y-96616627D01*
X85618600Y-96558100D01*
X85618600Y-90776326D01*
X86433941Y-91591668D01*
G36*
X67072211Y-100475019D02*
G01*
X67032636Y-100570563D01*
X67012460Y-100671992D01*
X67012460Y-100775408D01*
X67032636Y-100876837D01*
X67072211Y-100972381D01*
X67129666Y-101058368D01*
X67202792Y-101131494D01*
X67288779Y-101188949D01*
X67384323Y-101228524D01*
X67485752Y-101248700D01*
X67549501Y-101248700D01*
X67547000Y-101261272D01*
X67547000Y-101364688D01*
X67563324Y-101446751D01*
X66547676Y-102462399D01*
X66533244Y-102474243D01*
X66521400Y-102488675D01*
X66521399Y-102488676D01*
X66485975Y-102531839D01*
X66450853Y-102597550D01*
X66429224Y-102668850D01*
X66421921Y-102743000D01*
X66423751Y-102761580D01*
X66423751Y-103310330D01*
X66373690Y-103295144D01*
X66278300Y-103285749D01*
X66160600Y-103285749D01*
X66160600Y-101379605D01*
X67050634Y-100489572D01*
X67065891Y-100477051D01*
X67092596Y-100444511D01*
X67072211Y-100475019D01*
G37*
X67072211Y-100475019D02*
X67032636Y-100570563D01*
X67012460Y-100671992D01*
X67012460Y-100775408D01*
X67032636Y-100876837D01*
X67072211Y-100972381D01*
X67129666Y-101058368D01*
X67202792Y-101131494D01*
X67288779Y-101188949D01*
X67384323Y-101228524D01*
X67485752Y-101248700D01*
X67549501Y-101248700D01*
X67547000Y-101261272D01*
X67547000Y-101364688D01*
X67563324Y-101446751D01*
X66547676Y-102462399D01*
X66533244Y-102474243D01*
X66521400Y-102488675D01*
X66521399Y-102488676D01*
X66485975Y-102531839D01*
X66450853Y-102597550D01*
X66429224Y-102668850D01*
X66421921Y-102743000D01*
X66423751Y-102761580D01*
X66423751Y-103310330D01*
X66373690Y-103295144D01*
X66278300Y-103285749D01*
X66160600Y-103285749D01*
X66160600Y-101379605D01*
X67050634Y-100489572D01*
X67065891Y-100477051D01*
X67092596Y-100444511D01*
X67072211Y-100475019D01*
G36*
X66900719Y-97653905D02*
G01*
X66966429Y-97689028D01*
X67037730Y-97710657D01*
X67111880Y-97717960D01*
X67130461Y-97716130D01*
X71725744Y-97716130D01*
X70027476Y-99414399D01*
X70013044Y-99426243D01*
X70001200Y-99440675D01*
X70001199Y-99440676D01*
X69965775Y-99483839D01*
X69930653Y-99549550D01*
X69909024Y-99620850D01*
X69901721Y-99695000D01*
X69903551Y-99713580D01*
X69903550Y-101671923D01*
X69258657Y-102316817D01*
X68814586Y-101855749D01*
X68803195Y-101845601D01*
X68796141Y-101841244D01*
X68879506Y-101824661D01*
X68975050Y-101785086D01*
X69061037Y-101727631D01*
X69134163Y-101654505D01*
X69191618Y-101568518D01*
X69201976Y-101543511D01*
X69252192Y-101553500D01*
X69355608Y-101553500D01*
X69457037Y-101533324D01*
X69552581Y-101493749D01*
X69638568Y-101436294D01*
X69711694Y-101363168D01*
X69769149Y-101277181D01*
X69808724Y-101181637D01*
X69828900Y-101080208D01*
X69828900Y-100976792D01*
X69808724Y-100875363D01*
X69769149Y-100779819D01*
X69711694Y-100693832D01*
X69638568Y-100620706D01*
X69552581Y-100563251D01*
X69457037Y-100523676D01*
X69355608Y-100503500D01*
X69252192Y-100503500D01*
X69150763Y-100523676D01*
X69055219Y-100563251D01*
X68969232Y-100620706D01*
X68896106Y-100693832D01*
X68838651Y-100779819D01*
X68828293Y-100804826D01*
X68778077Y-100794837D01*
X68674661Y-100794837D01*
X68573232Y-100815013D01*
X68477688Y-100854588D01*
X68404316Y-100903614D01*
X68320681Y-100847731D01*
X68225137Y-100808156D01*
X68123708Y-100787980D01*
X68059959Y-100787980D01*
X68062460Y-100775408D01*
X68062460Y-100671992D01*
X68042284Y-100570563D01*
X68002709Y-100475019D01*
X67945254Y-100389032D01*
X67872128Y-100315906D01*
X67786141Y-100258451D01*
X67690597Y-100218876D01*
X67589168Y-100198700D01*
X67485752Y-100198700D01*
X67384323Y-100218876D01*
X67288779Y-100258451D01*
X67202792Y-100315906D01*
X67131175Y-100387523D01*
X67153020Y-100346654D01*
X67175892Y-100271254D01*
X67181680Y-100212487D01*
X67181680Y-100212477D01*
X67183614Y-100192841D01*
X67181680Y-100173205D01*
X67181680Y-99109892D01*
X67623200Y-99109892D01*
X67623200Y-99213308D01*
X67643376Y-99314737D01*
X67682951Y-99410281D01*
X67740406Y-99496268D01*
X67813532Y-99569394D01*
X67899519Y-99626849D01*
X67995063Y-99666424D01*
X68096492Y-99686600D01*
X68199908Y-99686600D01*
X68301337Y-99666424D01*
X68396881Y-99626849D01*
X68482868Y-99569394D01*
X68555994Y-99496268D01*
X68613449Y-99410281D01*
X68653024Y-99314737D01*
X68673200Y-99213308D01*
X68673200Y-99109892D01*
X68653024Y-99008463D01*
X68613449Y-98912919D01*
X68555994Y-98826932D01*
X68482868Y-98753806D01*
X68396881Y-98696351D01*
X68301337Y-98656776D01*
X68199908Y-98636600D01*
X68096492Y-98636600D01*
X67995063Y-98656776D01*
X67899519Y-98696351D01*
X67813532Y-98753806D01*
X67740406Y-98826932D01*
X67682951Y-98912919D01*
X67643376Y-99008463D01*
X67623200Y-99109892D01*
X67181680Y-99109892D01*
X67181680Y-98972967D01*
X67183615Y-98953320D01*
X67175892Y-98874906D01*
X67153020Y-98799506D01*
X67115877Y-98730017D01*
X67111392Y-98724552D01*
X67065891Y-98669109D01*
X67050628Y-98656583D01*
X66443681Y-98049636D01*
X66851011Y-97684084D01*
X66867367Y-97665217D01*
X66876608Y-97647928D01*
X66879962Y-97636871D01*
X66900719Y-97653905D01*
G37*
X66900719Y-97653905D02*
X66966429Y-97689028D01*
X67037730Y-97710657D01*
X67111880Y-97717960D01*
X67130461Y-97716130D01*
X71725744Y-97716130D01*
X70027476Y-99414399D01*
X70013044Y-99426243D01*
X70001200Y-99440675D01*
X70001199Y-99440676D01*
X69965775Y-99483839D01*
X69930653Y-99549550D01*
X69909024Y-99620850D01*
X69901721Y-99695000D01*
X69903551Y-99713580D01*
X69903550Y-101671923D01*
X69258657Y-102316817D01*
X68814586Y-101855749D01*
X68803195Y-101845601D01*
X68796141Y-101841244D01*
X68879506Y-101824661D01*
X68975050Y-101785086D01*
X69061037Y-101727631D01*
X69134163Y-101654505D01*
X69191618Y-101568518D01*
X69201976Y-101543511D01*
X69252192Y-101553500D01*
X69355608Y-101553500D01*
X69457037Y-101533324D01*
X69552581Y-101493749D01*
X69638568Y-101436294D01*
X69711694Y-101363168D01*
X69769149Y-101277181D01*
X69808724Y-101181637D01*
X69828900Y-101080208D01*
X69828900Y-100976792D01*
X69808724Y-100875363D01*
X69769149Y-100779819D01*
X69711694Y-100693832D01*
X69638568Y-100620706D01*
X69552581Y-100563251D01*
X69457037Y-100523676D01*
X69355608Y-100503500D01*
X69252192Y-100503500D01*
X69150763Y-100523676D01*
X69055219Y-100563251D01*
X68969232Y-100620706D01*
X68896106Y-100693832D01*
X68838651Y-100779819D01*
X68828293Y-100804826D01*
X68778077Y-100794837D01*
X68674661Y-100794837D01*
X68573232Y-100815013D01*
X68477688Y-100854588D01*
X68404316Y-100903614D01*
X68320681Y-100847731D01*
X68225137Y-100808156D01*
X68123708Y-100787980D01*
X68059959Y-100787980D01*
X68062460Y-100775408D01*
X68062460Y-100671992D01*
X68042284Y-100570563D01*
X68002709Y-100475019D01*
X67945254Y-100389032D01*
X67872128Y-100315906D01*
X67786141Y-100258451D01*
X67690597Y-100218876D01*
X67589168Y-100198700D01*
X67485752Y-100198700D01*
X67384323Y-100218876D01*
X67288779Y-100258451D01*
X67202792Y-100315906D01*
X67131175Y-100387523D01*
X67153020Y-100346654D01*
X67175892Y-100271254D01*
X67181680Y-100212487D01*
X67181680Y-100212477D01*
X67183614Y-100192841D01*
X67181680Y-100173205D01*
X67181680Y-99109892D01*
X67623200Y-99109892D01*
X67623200Y-99213308D01*
X67643376Y-99314737D01*
X67682951Y-99410281D01*
X67740406Y-99496268D01*
X67813532Y-99569394D01*
X67899519Y-99626849D01*
X67995063Y-99666424D01*
X68096492Y-99686600D01*
X68199908Y-99686600D01*
X68301337Y-99666424D01*
X68396881Y-99626849D01*
X68482868Y-99569394D01*
X68555994Y-99496268D01*
X68613449Y-99410281D01*
X68653024Y-99314737D01*
X68673200Y-99213308D01*
X68673200Y-99109892D01*
X68653024Y-99008463D01*
X68613449Y-98912919D01*
X68555994Y-98826932D01*
X68482868Y-98753806D01*
X68396881Y-98696351D01*
X68301337Y-98656776D01*
X68199908Y-98636600D01*
X68096492Y-98636600D01*
X67995063Y-98656776D01*
X67899519Y-98696351D01*
X67813532Y-98753806D01*
X67740406Y-98826932D01*
X67682951Y-98912919D01*
X67643376Y-99008463D01*
X67623200Y-99109892D01*
X67181680Y-99109892D01*
X67181680Y-98972967D01*
X67183615Y-98953320D01*
X67175892Y-98874906D01*
X67153020Y-98799506D01*
X67115877Y-98730017D01*
X67111392Y-98724552D01*
X67065891Y-98669109D01*
X67050628Y-98656583D01*
X66443681Y-98049636D01*
X66851011Y-97684084D01*
X66867367Y-97665217D01*
X66876608Y-97647928D01*
X66879962Y-97636871D01*
X66900719Y-97653905D01*
G36*
X62885742Y-99463547D02*
G01*
X62898268Y-99478810D01*
X62949917Y-99521197D01*
X62959176Y-99528796D01*
X63028665Y-99565939D01*
X63104065Y-99588811D01*
X63182479Y-99596534D01*
X63202126Y-99594599D01*
X64664036Y-99594599D01*
X64643947Y-99598595D01*
X64548403Y-99638170D01*
X64462416Y-99695625D01*
X64389290Y-99768751D01*
X64366405Y-99803000D01*
X62573485Y-99803000D01*
X62269320Y-99498835D01*
X62269320Y-98847125D01*
X62885742Y-99463547D01*
G37*
X62885742Y-99463547D02*
X62898268Y-99478810D01*
X62949917Y-99521197D01*
X62959176Y-99528796D01*
X63028665Y-99565939D01*
X63104065Y-99588811D01*
X63182479Y-99596534D01*
X63202126Y-99594599D01*
X64664036Y-99594599D01*
X64643947Y-99598595D01*
X64548403Y-99638170D01*
X64462416Y-99695625D01*
X64389290Y-99768751D01*
X64366405Y-99803000D01*
X62573485Y-99803000D01*
X62269320Y-99498835D01*
X62269320Y-98847125D01*
X62885742Y-99463547D01*
G36*
X81485080Y-98913480D02*
G01*
X81505080Y-98913480D01*
X81505080Y-99013480D01*
X81485080Y-99013480D01*
X81485080Y-99033480D01*
X81385080Y-99033480D01*
X81385080Y-99013480D01*
X81365080Y-99013480D01*
X81365080Y-98913480D01*
X81385080Y-98913480D01*
X81385080Y-98893480D01*
X81485080Y-98893480D01*
X81485080Y-98913480D01*
G37*
X81485080Y-98913480D02*
X81505080Y-98913480D01*
X81505080Y-99013480D01*
X81485080Y-99013480D01*
X81485080Y-99033480D01*
X81385080Y-99033480D01*
X81385080Y-99013480D01*
X81365080Y-99013480D01*
X81365080Y-98913480D01*
X81385080Y-98913480D01*
X81385080Y-98893480D01*
X81485080Y-98893480D01*
X81485080Y-98913480D01*
G36*
X77738132Y-91221673D02*
G01*
X77750628Y-91284493D01*
X77790203Y-91380037D01*
X77847658Y-91466024D01*
X77920784Y-91539150D01*
X78006771Y-91596605D01*
X78102315Y-91636180D01*
X78203744Y-91656356D01*
X78307160Y-91656356D01*
X78408589Y-91636180D01*
X78498176Y-91599072D01*
X78519659Y-91620555D01*
X78605646Y-91678010D01*
X78617482Y-91682913D01*
X77667796Y-92632599D01*
X77653364Y-92644443D01*
X77641520Y-92658875D01*
X77641519Y-92658876D01*
X77606095Y-92702039D01*
X77570973Y-92767750D01*
X77549344Y-92839050D01*
X77542041Y-92913200D01*
X77543871Y-92931780D01*
X77543870Y-94996804D01*
X76043325Y-96497350D01*
X74656586Y-96497350D01*
X74661052Y-96452000D01*
X74659600Y-93597000D01*
X74584600Y-93522000D01*
X70509600Y-93522000D01*
X70509600Y-93542000D01*
X70409600Y-93542000D01*
X70409600Y-93522000D01*
X70389600Y-93522000D01*
X70389600Y-93422000D01*
X70409600Y-93422000D01*
X70409600Y-93402000D01*
X70509600Y-93402000D01*
X70509600Y-93422000D01*
X74584600Y-93422000D01*
X74659600Y-93347000D01*
X74660687Y-91209800D01*
X77738132Y-91221673D01*
G37*
X77738132Y-91221673D02*
X77750628Y-91284493D01*
X77790203Y-91380037D01*
X77847658Y-91466024D01*
X77920784Y-91539150D01*
X78006771Y-91596605D01*
X78102315Y-91636180D01*
X78203744Y-91656356D01*
X78307160Y-91656356D01*
X78408589Y-91636180D01*
X78498176Y-91599072D01*
X78519659Y-91620555D01*
X78605646Y-91678010D01*
X78617482Y-91682913D01*
X77667796Y-92632599D01*
X77653364Y-92644443D01*
X77641520Y-92658875D01*
X77641519Y-92658876D01*
X77606095Y-92702039D01*
X77570973Y-92767750D01*
X77549344Y-92839050D01*
X77542041Y-92913200D01*
X77543871Y-92931780D01*
X77543870Y-94996804D01*
X76043325Y-96497350D01*
X74656586Y-96497350D01*
X74661052Y-96452000D01*
X74659600Y-93597000D01*
X74584600Y-93522000D01*
X70509600Y-93522000D01*
X70509600Y-93542000D01*
X70409600Y-93542000D01*
X70409600Y-93522000D01*
X70389600Y-93522000D01*
X70389600Y-93422000D01*
X70409600Y-93422000D01*
X70409600Y-93402000D01*
X70509600Y-93402000D01*
X70509600Y-93422000D01*
X74584600Y-93422000D01*
X74659600Y-93347000D01*
X74660687Y-91209800D01*
X77738132Y-91221673D01*
G36*
X90632580Y-95219460D02*
G01*
X90652580Y-95219460D01*
X90652580Y-95319460D01*
X90632580Y-95319460D01*
X90632580Y-95339460D01*
X90532580Y-95339460D01*
X90532580Y-95319460D01*
X90512580Y-95319460D01*
X90512580Y-95219460D01*
X90532580Y-95219460D01*
X90532580Y-95199460D01*
X90632580Y-95199460D01*
X90632580Y-95219460D01*
G37*
X90632580Y-95219460D02*
X90652580Y-95219460D01*
X90652580Y-95319460D01*
X90632580Y-95319460D01*
X90632580Y-95339460D01*
X90532580Y-95339460D01*
X90532580Y-95319460D01*
X90512580Y-95319460D01*
X90512580Y-95219460D01*
X90532580Y-95219460D01*
X90532580Y-95199460D01*
X90632580Y-95199460D01*
X90632580Y-95219460D01*
G36*
X87680000Y-92937000D02*
G01*
X87700000Y-92937000D01*
X87700000Y-93037000D01*
X87680000Y-93037000D01*
X87680000Y-93057000D01*
X87580000Y-93057000D01*
X87580000Y-93037000D01*
X87560000Y-93037000D01*
X87560000Y-92937000D01*
X87580000Y-92937000D01*
X87580000Y-92917000D01*
X87680000Y-92917000D01*
X87680000Y-92937000D01*
G37*
X87680000Y-92937000D02*
X87700000Y-92937000D01*
X87700000Y-93037000D01*
X87680000Y-93037000D01*
X87680000Y-93057000D01*
X87580000Y-93057000D01*
X87580000Y-93037000D01*
X87560000Y-93037000D01*
X87560000Y-92937000D01*
X87580000Y-92937000D01*
X87580000Y-92917000D01*
X87680000Y-92917000D01*
X87680000Y-92937000D01*
G36*
X84161977Y-83122104D02*
G01*
X84173817Y-83136531D01*
X84188244Y-83148371D01*
X84188249Y-83148376D01*
X84231412Y-83183799D01*
X84266535Y-83202572D01*
X84297124Y-83218922D01*
X84368424Y-83240551D01*
X84423993Y-83246024D01*
X84424004Y-83246024D01*
X84442574Y-83247853D01*
X84461144Y-83246024D01*
X85278205Y-83246024D01*
X85280301Y-83250844D01*
X85323137Y-83327726D01*
X85380149Y-83394774D01*
X85449146Y-83449411D01*
X85527476Y-83489537D01*
X85612129Y-83513611D01*
X85699852Y-83520708D01*
X85787274Y-83510554D01*
X85871036Y-83483540D01*
X85871871Y-83483177D01*
X86325857Y-83937164D01*
X86337702Y-83951597D01*
X86395298Y-83998865D01*
X86461009Y-84033988D01*
X86532309Y-84055617D01*
X86587878Y-84061090D01*
X86587888Y-84061090D01*
X86606458Y-84062919D01*
X86625028Y-84061090D01*
X87037599Y-84061090D01*
X87165999Y-84356389D01*
X87194762Y-84408012D01*
X87233042Y-84453032D01*
X87279371Y-84489718D01*
X87331966Y-84516661D01*
X87388807Y-84532826D01*
X87447709Y-84537591D01*
X87506409Y-84530773D01*
X87562651Y-84512635D01*
X88525564Y-84093949D01*
X88577187Y-84065186D01*
X88622207Y-84026905D01*
X88658893Y-83980577D01*
X88678075Y-83943133D01*
X88718543Y-83954641D01*
X88777445Y-83959406D01*
X88836147Y-83952589D01*
X88892389Y-83934450D01*
X88951335Y-83908565D01*
X89036292Y-84112462D01*
X89044782Y-84128539D01*
X89057032Y-84143843D01*
X89072033Y-84156463D01*
X89089208Y-84165915D01*
X89107897Y-84171833D01*
X89127381Y-84173993D01*
X89146912Y-84172309D01*
X89165739Y-84166848D01*
X89917166Y-83866277D01*
X90173859Y-84457864D01*
X90442090Y-85266256D01*
X90526705Y-85729214D01*
X90842435Y-88728609D01*
X90927712Y-90298600D01*
X89941400Y-90298600D01*
X89921891Y-90300521D01*
X89903132Y-90306212D01*
X89885843Y-90315453D01*
X89870689Y-90327889D01*
X89858253Y-90343043D01*
X89849012Y-90360332D01*
X89843321Y-90379091D01*
X89841400Y-90398600D01*
X89841400Y-90732225D01*
X89825057Y-90718813D01*
X89772940Y-90690956D01*
X89716390Y-90673801D01*
X89657580Y-90668009D01*
X88607580Y-90668009D01*
X88548770Y-90673801D01*
X88492220Y-90690956D01*
X88440103Y-90718813D01*
X88394422Y-90756302D01*
X88356933Y-90801983D01*
X88329076Y-90854100D01*
X88311921Y-90910650D01*
X88306129Y-90969460D01*
X88306129Y-91949600D01*
X87190440Y-91949600D01*
X87190440Y-91453560D01*
X87192269Y-91434990D01*
X87190440Y-91416420D01*
X87190440Y-91416409D01*
X87184967Y-91360840D01*
X87163338Y-91289540D01*
X87146988Y-91258951D01*
X87128215Y-91223828D01*
X87092792Y-91180665D01*
X87092787Y-91180660D01*
X87080947Y-91166233D01*
X87066520Y-91154393D01*
X84545106Y-88632981D01*
X84533257Y-88618543D01*
X84475661Y-88571275D01*
X84409950Y-88536152D01*
X84338650Y-88514523D01*
X84283081Y-88509050D01*
X84283070Y-88509050D01*
X84264500Y-88507221D01*
X84245930Y-88509050D01*
X82152300Y-88509050D01*
X82245937Y-88490424D01*
X82341481Y-88450849D01*
X82427468Y-88393394D01*
X82500594Y-88320268D01*
X82558049Y-88234281D01*
X82597624Y-88138737D01*
X82617800Y-88037308D01*
X82617800Y-87933892D01*
X82597624Y-87832463D01*
X82558049Y-87736919D01*
X82500594Y-87650932D01*
X82427468Y-87577806D01*
X82341481Y-87520351D01*
X82245937Y-87480776D01*
X82144508Y-87460600D01*
X82041092Y-87460600D01*
X81939663Y-87480776D01*
X81844119Y-87520351D01*
X81758132Y-87577806D01*
X81685006Y-87650932D01*
X81627551Y-87736919D01*
X81587976Y-87832463D01*
X81567800Y-87933892D01*
X81567800Y-88037308D01*
X81587976Y-88138737D01*
X81627551Y-88234281D01*
X81685006Y-88320268D01*
X81758132Y-88393394D01*
X81844119Y-88450849D01*
X81939663Y-88490424D01*
X82033300Y-88509050D01*
X80471986Y-88509050D01*
X80484200Y-88447648D01*
X80484200Y-88344232D01*
X80464024Y-88242803D01*
X80424449Y-88147259D01*
X80366994Y-88061272D01*
X80293868Y-87988146D01*
X80207881Y-87930691D01*
X80112337Y-87891116D01*
X80069863Y-87882667D01*
X80076540Y-87870175D01*
X80099412Y-87794774D01*
X80107135Y-87716360D01*
X80105200Y-87696714D01*
X80105200Y-86709835D01*
X80107134Y-86690199D01*
X80105200Y-86670563D01*
X80105200Y-86670553D01*
X80099412Y-86611786D01*
X80076540Y-86536386D01*
X80039397Y-86466897D01*
X79989411Y-86405989D01*
X79974154Y-86393468D01*
X79795523Y-86214837D01*
X80780400Y-86214837D01*
X80780400Y-86318253D01*
X80800576Y-86419682D01*
X80840151Y-86515226D01*
X80897606Y-86601213D01*
X80970732Y-86674339D01*
X81056719Y-86731794D01*
X81152263Y-86771369D01*
X81253692Y-86791545D01*
X81357108Y-86791545D01*
X81458537Y-86771369D01*
X81554081Y-86731794D01*
X81640068Y-86674339D01*
X81713194Y-86601213D01*
X81770649Y-86515226D01*
X81810224Y-86419682D01*
X81830400Y-86318253D01*
X81830400Y-86214837D01*
X81823382Y-86179556D01*
X86593094Y-86179556D01*
X86593094Y-86413816D01*
X86638796Y-86643576D01*
X86728444Y-86860005D01*
X86858593Y-87054786D01*
X87024240Y-87220433D01*
X87219021Y-87350582D01*
X87435450Y-87440230D01*
X87665210Y-87485932D01*
X87899470Y-87485932D01*
X88129230Y-87440230D01*
X88345659Y-87350582D01*
X88540440Y-87220433D01*
X88706087Y-87054786D01*
X88836236Y-86860005D01*
X88925884Y-86643576D01*
X88971586Y-86413816D01*
X88971586Y-86179556D01*
X88925884Y-85949796D01*
X88836236Y-85733367D01*
X88706087Y-85538586D01*
X88540440Y-85372939D01*
X88345659Y-85242790D01*
X88129230Y-85153142D01*
X87899470Y-85107440D01*
X87665210Y-85107440D01*
X87435450Y-85153142D01*
X87219021Y-85242790D01*
X87024240Y-85372939D01*
X86858593Y-85538586D01*
X86728444Y-85733367D01*
X86638796Y-85949796D01*
X86593094Y-86179556D01*
X81823382Y-86179556D01*
X81810224Y-86113408D01*
X81770649Y-86017864D01*
X81713194Y-85931877D01*
X81640068Y-85858751D01*
X81554081Y-85801296D01*
X81458537Y-85761721D01*
X81357108Y-85741545D01*
X81253692Y-85741545D01*
X81152263Y-85761721D01*
X81056719Y-85801296D01*
X80970732Y-85858751D01*
X80897606Y-85931877D01*
X80840151Y-86017864D01*
X80800576Y-86113408D01*
X80780400Y-86214837D01*
X79795523Y-86214837D01*
X79043286Y-85462600D01*
X79045708Y-85462600D01*
X79147137Y-85442424D01*
X79242681Y-85402849D01*
X79328668Y-85345394D01*
X79401794Y-85272268D01*
X79459249Y-85186281D01*
X79498824Y-85090737D01*
X79519000Y-84989308D01*
X79519000Y-84885892D01*
X79498824Y-84784463D01*
X79459249Y-84688919D01*
X79401794Y-84602932D01*
X79328668Y-84529806D01*
X79242681Y-84472351D01*
X79147137Y-84432776D01*
X79045708Y-84412600D01*
X78942292Y-84412600D01*
X78840863Y-84432776D01*
X78745319Y-84472351D01*
X78659332Y-84529806D01*
X78586206Y-84602932D01*
X78528751Y-84688919D01*
X78489176Y-84784463D01*
X78469000Y-84885892D01*
X78469000Y-84888315D01*
X77817537Y-84236852D01*
X77805011Y-84221589D01*
X77744103Y-84171603D01*
X77674614Y-84134460D01*
X77599214Y-84111588D01*
X77540447Y-84105800D01*
X77540446Y-84105800D01*
X77520800Y-84103865D01*
X77501154Y-84105800D01*
X76542462Y-84105800D01*
X76534668Y-84098006D01*
X76448681Y-84040551D01*
X76353137Y-84000976D01*
X76251708Y-83980800D01*
X76148292Y-83980800D01*
X76046863Y-84000976D01*
X75951319Y-84040551D01*
X75865332Y-84098006D01*
X75792206Y-84171132D01*
X75734751Y-84257119D01*
X75695176Y-84352663D01*
X75675000Y-84454092D01*
X75675000Y-84557508D01*
X75695176Y-84658937D01*
X75708043Y-84690000D01*
X75451286Y-84690000D01*
X75023200Y-84261915D01*
X75023200Y-84250892D01*
X75003024Y-84149463D01*
X74963449Y-84053919D01*
X74905994Y-83967932D01*
X74832868Y-83894806D01*
X74746881Y-83837351D01*
X74651337Y-83797776D01*
X74549908Y-83777600D01*
X74538885Y-83777600D01*
X74032937Y-83271652D01*
X74020411Y-83256389D01*
X73959503Y-83206403D01*
X73890014Y-83169260D01*
X73814614Y-83146388D01*
X73755847Y-83140600D01*
X73755846Y-83140600D01*
X73736200Y-83138665D01*
X73716554Y-83140600D01*
X71988272Y-83140600D01*
X71980478Y-83132806D01*
X71894491Y-83075351D01*
X71798947Y-83035776D01*
X71697518Y-83015600D01*
X71594102Y-83015600D01*
X71492673Y-83035776D01*
X71472850Y-83043987D01*
X71472850Y-82962445D01*
X75998247Y-82962445D01*
X75998247Y-83065861D01*
X76018423Y-83167290D01*
X76057998Y-83262834D01*
X76115453Y-83348821D01*
X76188579Y-83421947D01*
X76274566Y-83479402D01*
X76370110Y-83518977D01*
X76471539Y-83539153D01*
X76574955Y-83539153D01*
X76676384Y-83518977D01*
X76771928Y-83479402D01*
X76857915Y-83421947D01*
X76931041Y-83348821D01*
X76988496Y-83262834D01*
X77028071Y-83167290D01*
X77048247Y-83065861D01*
X77048247Y-82962445D01*
X77028071Y-82861016D01*
X76988496Y-82765472D01*
X76931041Y-82679485D01*
X76857915Y-82606359D01*
X76771928Y-82548904D01*
X76676384Y-82509329D01*
X76574955Y-82489153D01*
X76471539Y-82489153D01*
X76370110Y-82509329D01*
X76274566Y-82548904D01*
X76188579Y-82606359D01*
X76115453Y-82679485D01*
X76057998Y-82765472D01*
X76018423Y-82861016D01*
X75998247Y-82962445D01*
X71472850Y-82962445D01*
X71472850Y-82020875D01*
X72089477Y-81404250D01*
X82444125Y-81404250D01*
X84161977Y-83122104D01*
G37*
X84161977Y-83122104D02*
X84173817Y-83136531D01*
X84188244Y-83148371D01*
X84188249Y-83148376D01*
X84231412Y-83183799D01*
X84266535Y-83202572D01*
X84297124Y-83218922D01*
X84368424Y-83240551D01*
X84423993Y-83246024D01*
X84424004Y-83246024D01*
X84442574Y-83247853D01*
X84461144Y-83246024D01*
X85278205Y-83246024D01*
X85280301Y-83250844D01*
X85323137Y-83327726D01*
X85380149Y-83394774D01*
X85449146Y-83449411D01*
X85527476Y-83489537D01*
X85612129Y-83513611D01*
X85699852Y-83520708D01*
X85787274Y-83510554D01*
X85871036Y-83483540D01*
X85871871Y-83483177D01*
X86325857Y-83937164D01*
X86337702Y-83951597D01*
X86395298Y-83998865D01*
X86461009Y-84033988D01*
X86532309Y-84055617D01*
X86587878Y-84061090D01*
X86587888Y-84061090D01*
X86606458Y-84062919D01*
X86625028Y-84061090D01*
X87037599Y-84061090D01*
X87165999Y-84356389D01*
X87194762Y-84408012D01*
X87233042Y-84453032D01*
X87279371Y-84489718D01*
X87331966Y-84516661D01*
X87388807Y-84532826D01*
X87447709Y-84537591D01*
X87506409Y-84530773D01*
X87562651Y-84512635D01*
X88525564Y-84093949D01*
X88577187Y-84065186D01*
X88622207Y-84026905D01*
X88658893Y-83980577D01*
X88678075Y-83943133D01*
X88718543Y-83954641D01*
X88777445Y-83959406D01*
X88836147Y-83952589D01*
X88892389Y-83934450D01*
X88951335Y-83908565D01*
X89036292Y-84112462D01*
X89044782Y-84128539D01*
X89057032Y-84143843D01*
X89072033Y-84156463D01*
X89089208Y-84165915D01*
X89107897Y-84171833D01*
X89127381Y-84173993D01*
X89146912Y-84172309D01*
X89165739Y-84166848D01*
X89917166Y-83866277D01*
X90173859Y-84457864D01*
X90442090Y-85266256D01*
X90526705Y-85729214D01*
X90842435Y-88728609D01*
X90927712Y-90298600D01*
X89941400Y-90298600D01*
X89921891Y-90300521D01*
X89903132Y-90306212D01*
X89885843Y-90315453D01*
X89870689Y-90327889D01*
X89858253Y-90343043D01*
X89849012Y-90360332D01*
X89843321Y-90379091D01*
X89841400Y-90398600D01*
X89841400Y-90732225D01*
X89825057Y-90718813D01*
X89772940Y-90690956D01*
X89716390Y-90673801D01*
X89657580Y-90668009D01*
X88607580Y-90668009D01*
X88548770Y-90673801D01*
X88492220Y-90690956D01*
X88440103Y-90718813D01*
X88394422Y-90756302D01*
X88356933Y-90801983D01*
X88329076Y-90854100D01*
X88311921Y-90910650D01*
X88306129Y-90969460D01*
X88306129Y-91949600D01*
X87190440Y-91949600D01*
X87190440Y-91453560D01*
X87192269Y-91434990D01*
X87190440Y-91416420D01*
X87190440Y-91416409D01*
X87184967Y-91360840D01*
X87163338Y-91289540D01*
X87146988Y-91258951D01*
X87128215Y-91223828D01*
X87092792Y-91180665D01*
X87092787Y-91180660D01*
X87080947Y-91166233D01*
X87066520Y-91154393D01*
X84545106Y-88632981D01*
X84533257Y-88618543D01*
X84475661Y-88571275D01*
X84409950Y-88536152D01*
X84338650Y-88514523D01*
X84283081Y-88509050D01*
X84283070Y-88509050D01*
X84264500Y-88507221D01*
X84245930Y-88509050D01*
X82152300Y-88509050D01*
X82245937Y-88490424D01*
X82341481Y-88450849D01*
X82427468Y-88393394D01*
X82500594Y-88320268D01*
X82558049Y-88234281D01*
X82597624Y-88138737D01*
X82617800Y-88037308D01*
X82617800Y-87933892D01*
X82597624Y-87832463D01*
X82558049Y-87736919D01*
X82500594Y-87650932D01*
X82427468Y-87577806D01*
X82341481Y-87520351D01*
X82245937Y-87480776D01*
X82144508Y-87460600D01*
X82041092Y-87460600D01*
X81939663Y-87480776D01*
X81844119Y-87520351D01*
X81758132Y-87577806D01*
X81685006Y-87650932D01*
X81627551Y-87736919D01*
X81587976Y-87832463D01*
X81567800Y-87933892D01*
X81567800Y-88037308D01*
X81587976Y-88138737D01*
X81627551Y-88234281D01*
X81685006Y-88320268D01*
X81758132Y-88393394D01*
X81844119Y-88450849D01*
X81939663Y-88490424D01*
X82033300Y-88509050D01*
X80471986Y-88509050D01*
X80484200Y-88447648D01*
X80484200Y-88344232D01*
X80464024Y-88242803D01*
X80424449Y-88147259D01*
X80366994Y-88061272D01*
X80293868Y-87988146D01*
X80207881Y-87930691D01*
X80112337Y-87891116D01*
X80069863Y-87882667D01*
X80076540Y-87870175D01*
X80099412Y-87794774D01*
X80107135Y-87716360D01*
X80105200Y-87696714D01*
X80105200Y-86709835D01*
X80107134Y-86690199D01*
X80105200Y-86670563D01*
X80105200Y-86670553D01*
X80099412Y-86611786D01*
X80076540Y-86536386D01*
X80039397Y-86466897D01*
X79989411Y-86405989D01*
X79974154Y-86393468D01*
X79795523Y-86214837D01*
X80780400Y-86214837D01*
X80780400Y-86318253D01*
X80800576Y-86419682D01*
X80840151Y-86515226D01*
X80897606Y-86601213D01*
X80970732Y-86674339D01*
X81056719Y-86731794D01*
X81152263Y-86771369D01*
X81253692Y-86791545D01*
X81357108Y-86791545D01*
X81458537Y-86771369D01*
X81554081Y-86731794D01*
X81640068Y-86674339D01*
X81713194Y-86601213D01*
X81770649Y-86515226D01*
X81810224Y-86419682D01*
X81830400Y-86318253D01*
X81830400Y-86214837D01*
X81823382Y-86179556D01*
X86593094Y-86179556D01*
X86593094Y-86413816D01*
X86638796Y-86643576D01*
X86728444Y-86860005D01*
X86858593Y-87054786D01*
X87024240Y-87220433D01*
X87219021Y-87350582D01*
X87435450Y-87440230D01*
X87665210Y-87485932D01*
X87899470Y-87485932D01*
X88129230Y-87440230D01*
X88345659Y-87350582D01*
X88540440Y-87220433D01*
X88706087Y-87054786D01*
X88836236Y-86860005D01*
X88925884Y-86643576D01*
X88971586Y-86413816D01*
X88971586Y-86179556D01*
X88925884Y-85949796D01*
X88836236Y-85733367D01*
X88706087Y-85538586D01*
X88540440Y-85372939D01*
X88345659Y-85242790D01*
X88129230Y-85153142D01*
X87899470Y-85107440D01*
X87665210Y-85107440D01*
X87435450Y-85153142D01*
X87219021Y-85242790D01*
X87024240Y-85372939D01*
X86858593Y-85538586D01*
X86728444Y-85733367D01*
X86638796Y-85949796D01*
X86593094Y-86179556D01*
X81823382Y-86179556D01*
X81810224Y-86113408D01*
X81770649Y-86017864D01*
X81713194Y-85931877D01*
X81640068Y-85858751D01*
X81554081Y-85801296D01*
X81458537Y-85761721D01*
X81357108Y-85741545D01*
X81253692Y-85741545D01*
X81152263Y-85761721D01*
X81056719Y-85801296D01*
X80970732Y-85858751D01*
X80897606Y-85931877D01*
X80840151Y-86017864D01*
X80800576Y-86113408D01*
X80780400Y-86214837D01*
X79795523Y-86214837D01*
X79043286Y-85462600D01*
X79045708Y-85462600D01*
X79147137Y-85442424D01*
X79242681Y-85402849D01*
X79328668Y-85345394D01*
X79401794Y-85272268D01*
X79459249Y-85186281D01*
X79498824Y-85090737D01*
X79519000Y-84989308D01*
X79519000Y-84885892D01*
X79498824Y-84784463D01*
X79459249Y-84688919D01*
X79401794Y-84602932D01*
X79328668Y-84529806D01*
X79242681Y-84472351D01*
X79147137Y-84432776D01*
X79045708Y-84412600D01*
X78942292Y-84412600D01*
X78840863Y-84432776D01*
X78745319Y-84472351D01*
X78659332Y-84529806D01*
X78586206Y-84602932D01*
X78528751Y-84688919D01*
X78489176Y-84784463D01*
X78469000Y-84885892D01*
X78469000Y-84888315D01*
X77817537Y-84236852D01*
X77805011Y-84221589D01*
X77744103Y-84171603D01*
X77674614Y-84134460D01*
X77599214Y-84111588D01*
X77540447Y-84105800D01*
X77540446Y-84105800D01*
X77520800Y-84103865D01*
X77501154Y-84105800D01*
X76542462Y-84105800D01*
X76534668Y-84098006D01*
X76448681Y-84040551D01*
X76353137Y-84000976D01*
X76251708Y-83980800D01*
X76148292Y-83980800D01*
X76046863Y-84000976D01*
X75951319Y-84040551D01*
X75865332Y-84098006D01*
X75792206Y-84171132D01*
X75734751Y-84257119D01*
X75695176Y-84352663D01*
X75675000Y-84454092D01*
X75675000Y-84557508D01*
X75695176Y-84658937D01*
X75708043Y-84690000D01*
X75451286Y-84690000D01*
X75023200Y-84261915D01*
X75023200Y-84250892D01*
X75003024Y-84149463D01*
X74963449Y-84053919D01*
X74905994Y-83967932D01*
X74832868Y-83894806D01*
X74746881Y-83837351D01*
X74651337Y-83797776D01*
X74549908Y-83777600D01*
X74538885Y-83777600D01*
X74032937Y-83271652D01*
X74020411Y-83256389D01*
X73959503Y-83206403D01*
X73890014Y-83169260D01*
X73814614Y-83146388D01*
X73755847Y-83140600D01*
X73755846Y-83140600D01*
X73736200Y-83138665D01*
X73716554Y-83140600D01*
X71988272Y-83140600D01*
X71980478Y-83132806D01*
X71894491Y-83075351D01*
X71798947Y-83035776D01*
X71697518Y-83015600D01*
X71594102Y-83015600D01*
X71492673Y-83035776D01*
X71472850Y-83043987D01*
X71472850Y-82962445D01*
X75998247Y-82962445D01*
X75998247Y-83065861D01*
X76018423Y-83167290D01*
X76057998Y-83262834D01*
X76115453Y-83348821D01*
X76188579Y-83421947D01*
X76274566Y-83479402D01*
X76370110Y-83518977D01*
X76471539Y-83539153D01*
X76574955Y-83539153D01*
X76676384Y-83518977D01*
X76771928Y-83479402D01*
X76857915Y-83421947D01*
X76931041Y-83348821D01*
X76988496Y-83262834D01*
X77028071Y-83167290D01*
X77048247Y-83065861D01*
X77048247Y-82962445D01*
X77028071Y-82861016D01*
X76988496Y-82765472D01*
X76931041Y-82679485D01*
X76857915Y-82606359D01*
X76771928Y-82548904D01*
X76676384Y-82509329D01*
X76574955Y-82489153D01*
X76471539Y-82489153D01*
X76370110Y-82509329D01*
X76274566Y-82548904D01*
X76188579Y-82606359D01*
X76115453Y-82679485D01*
X76057998Y-82765472D01*
X76018423Y-82861016D01*
X75998247Y-82962445D01*
X71472850Y-82962445D01*
X71472850Y-82020875D01*
X72089477Y-81404250D01*
X82444125Y-81404250D01*
X84161977Y-83122104D01*
G36*
X90632580Y-91619460D02*
G01*
X90652580Y-91619460D01*
X90652580Y-91719460D01*
X90632580Y-91719460D01*
X90632580Y-91739460D01*
X90532580Y-91739460D01*
X90532580Y-91719460D01*
X90512580Y-91719460D01*
X90512580Y-91619460D01*
X90532580Y-91619460D01*
X90532580Y-91599460D01*
X90632580Y-91599460D01*
X90632580Y-91619460D01*
G37*
X90632580Y-91619460D02*
X90652580Y-91619460D01*
X90652580Y-91719460D01*
X90632580Y-91719460D01*
X90632580Y-91739460D01*
X90532580Y-91739460D01*
X90532580Y-91719460D01*
X90512580Y-91719460D01*
X90512580Y-91619460D01*
X90532580Y-91619460D01*
X90532580Y-91599460D01*
X90632580Y-91599460D01*
X90632580Y-91619460D01*
G36*
X67349842Y-87482343D02*
G01*
X67363976Y-87553397D01*
X67403551Y-87648941D01*
X67461006Y-87734928D01*
X67534132Y-87808054D01*
X67620119Y-87865509D01*
X67715663Y-87905084D01*
X67817092Y-87925260D01*
X67920508Y-87925260D01*
X68021937Y-87905084D01*
X68117481Y-87865509D01*
X68177718Y-87825260D01*
X72934153Y-87825260D01*
X72955020Y-87827315D01*
X72975887Y-87825260D01*
X72975894Y-87825260D01*
X73038334Y-87819110D01*
X73118447Y-87794808D01*
X73192280Y-87755344D01*
X73192881Y-87754851D01*
X73274657Y-87738584D01*
X73370201Y-87699009D01*
X73379411Y-87692855D01*
X73379410Y-88279316D01*
X73349866Y-88308860D01*
X73292411Y-88394847D01*
X73252836Y-88490391D01*
X73232660Y-88591820D01*
X73232660Y-88695236D01*
X73252836Y-88796665D01*
X73292411Y-88892209D01*
X73330948Y-88949883D01*
X73294481Y-88974250D01*
X73221355Y-89047376D01*
X73163900Y-89133363D01*
X73124325Y-89228907D01*
X73123966Y-89230711D01*
X68917317Y-89230711D01*
X68736465Y-89049860D01*
X69016076Y-88770250D01*
X71969714Y-88770250D01*
X72010517Y-88831316D01*
X72083643Y-88904442D01*
X72169630Y-88961897D01*
X72265174Y-89001472D01*
X72366603Y-89021648D01*
X72470019Y-89021648D01*
X72571448Y-89001472D01*
X72666992Y-88961897D01*
X72752979Y-88904442D01*
X72826105Y-88831316D01*
X72883560Y-88745329D01*
X72923135Y-88649785D01*
X72943311Y-88548356D01*
X72943311Y-88444940D01*
X72923135Y-88343511D01*
X72883560Y-88247967D01*
X72826105Y-88161980D01*
X72752979Y-88088854D01*
X72666992Y-88031399D01*
X72571448Y-87991824D01*
X72470019Y-87971648D01*
X72366603Y-87971648D01*
X72265174Y-87991824D01*
X72215799Y-88012275D01*
X72212200Y-88011921D01*
X72193630Y-88013750D01*
X68877969Y-88013750D01*
X68859399Y-88011921D01*
X68840829Y-88013750D01*
X68840819Y-88013750D01*
X68785250Y-88019223D01*
X68713950Y-88040852D01*
X68695793Y-88050557D01*
X68648238Y-88075975D01*
X68623379Y-88096377D01*
X68590643Y-88123243D01*
X68578798Y-88137676D01*
X68253145Y-88463330D01*
X64897801Y-88463330D01*
X64879220Y-88461500D01*
X64805070Y-88468803D01*
X64733769Y-88490432D01*
X64668059Y-88525555D01*
X64624895Y-88560978D01*
X64624890Y-88560983D01*
X64610463Y-88572823D01*
X64598623Y-88587250D01*
X63566275Y-89619600D01*
X63524492Y-89619600D01*
X63423063Y-89639776D01*
X63327519Y-89679351D01*
X63241532Y-89736806D01*
X63211988Y-89766350D01*
X62908969Y-89766350D01*
X62890399Y-89764521D01*
X62871829Y-89766350D01*
X62871819Y-89766350D01*
X62816250Y-89771823D01*
X62744950Y-89793452D01*
X62679239Y-89828575D01*
X62667789Y-89837972D01*
X62644447Y-89781619D01*
X62586992Y-89695632D01*
X62513866Y-89622506D01*
X62427879Y-89565051D01*
X62332335Y-89525476D01*
X62230906Y-89505300D01*
X62127490Y-89505300D01*
X62037580Y-89523185D01*
X62037580Y-89485819D01*
X62039409Y-89467249D01*
X62037580Y-89448679D01*
X62037580Y-89448669D01*
X62032107Y-89393100D01*
X62010478Y-89321800D01*
X61975355Y-89256089D01*
X61928087Y-89198493D01*
X61913656Y-89186650D01*
X60196286Y-87469281D01*
X60184437Y-87454843D01*
X60126841Y-87407575D01*
X60061130Y-87372452D01*
X59989830Y-87350823D01*
X59934261Y-87345350D01*
X59934250Y-87345350D01*
X59915680Y-87343521D01*
X59897110Y-87345350D01*
X59801214Y-87345350D01*
X59780247Y-87306123D01*
X59742758Y-87260442D01*
X59697865Y-87223600D01*
X59742758Y-87186758D01*
X59780247Y-87141077D01*
X59808104Y-87088960D01*
X59825259Y-87032410D01*
X59829214Y-86992250D01*
X62303589Y-86992250D01*
X62225532Y-87044406D01*
X62152406Y-87117532D01*
X62094951Y-87203519D01*
X62055376Y-87299063D01*
X62035200Y-87400492D01*
X62035200Y-87503908D01*
X62055376Y-87605337D01*
X62094951Y-87700881D01*
X62152406Y-87786868D01*
X62225532Y-87859994D01*
X62311519Y-87917449D01*
X62407063Y-87957024D01*
X62508492Y-87977200D01*
X62611908Y-87977200D01*
X62713337Y-87957024D01*
X62808881Y-87917449D01*
X62894868Y-87859994D01*
X62967994Y-87786868D01*
X63025449Y-87700881D01*
X63065024Y-87605337D01*
X63085200Y-87503908D01*
X63085200Y-87400492D01*
X63065024Y-87299063D01*
X63025449Y-87203519D01*
X62967994Y-87117532D01*
X62894868Y-87044406D01*
X62816811Y-86992250D01*
X65878988Y-86992250D01*
X65908532Y-87021794D01*
X65994519Y-87079249D01*
X66090063Y-87118824D01*
X66191492Y-87139000D01*
X66294908Y-87139000D01*
X66396337Y-87118824D01*
X66491881Y-87079249D01*
X66577868Y-87021794D01*
X66650994Y-86948668D01*
X66708449Y-86862681D01*
X66714814Y-86847314D01*
X67349842Y-87482343D01*
G37*
X67349842Y-87482343D02*
X67363976Y-87553397D01*
X67403551Y-87648941D01*
X67461006Y-87734928D01*
X67534132Y-87808054D01*
X67620119Y-87865509D01*
X67715663Y-87905084D01*
X67817092Y-87925260D01*
X67920508Y-87925260D01*
X68021937Y-87905084D01*
X68117481Y-87865509D01*
X68177718Y-87825260D01*
X72934153Y-87825260D01*
X72955020Y-87827315D01*
X72975887Y-87825260D01*
X72975894Y-87825260D01*
X73038334Y-87819110D01*
X73118447Y-87794808D01*
X73192280Y-87755344D01*
X73192881Y-87754851D01*
X73274657Y-87738584D01*
X73370201Y-87699009D01*
X73379411Y-87692855D01*
X73379410Y-88279316D01*
X73349866Y-88308860D01*
X73292411Y-88394847D01*
X73252836Y-88490391D01*
X73232660Y-88591820D01*
X73232660Y-88695236D01*
X73252836Y-88796665D01*
X73292411Y-88892209D01*
X73330948Y-88949883D01*
X73294481Y-88974250D01*
X73221355Y-89047376D01*
X73163900Y-89133363D01*
X73124325Y-89228907D01*
X73123966Y-89230711D01*
X68917317Y-89230711D01*
X68736465Y-89049860D01*
X69016076Y-88770250D01*
X71969714Y-88770250D01*
X72010517Y-88831316D01*
X72083643Y-88904442D01*
X72169630Y-88961897D01*
X72265174Y-89001472D01*
X72366603Y-89021648D01*
X72470019Y-89021648D01*
X72571448Y-89001472D01*
X72666992Y-88961897D01*
X72752979Y-88904442D01*
X72826105Y-88831316D01*
X72883560Y-88745329D01*
X72923135Y-88649785D01*
X72943311Y-88548356D01*
X72943311Y-88444940D01*
X72923135Y-88343511D01*
X72883560Y-88247967D01*
X72826105Y-88161980D01*
X72752979Y-88088854D01*
X72666992Y-88031399D01*
X72571448Y-87991824D01*
X72470019Y-87971648D01*
X72366603Y-87971648D01*
X72265174Y-87991824D01*
X72215799Y-88012275D01*
X72212200Y-88011921D01*
X72193630Y-88013750D01*
X68877969Y-88013750D01*
X68859399Y-88011921D01*
X68840829Y-88013750D01*
X68840819Y-88013750D01*
X68785250Y-88019223D01*
X68713950Y-88040852D01*
X68695793Y-88050557D01*
X68648238Y-88075975D01*
X68623379Y-88096377D01*
X68590643Y-88123243D01*
X68578798Y-88137676D01*
X68253145Y-88463330D01*
X64897801Y-88463330D01*
X64879220Y-88461500D01*
X64805070Y-88468803D01*
X64733769Y-88490432D01*
X64668059Y-88525555D01*
X64624895Y-88560978D01*
X64624890Y-88560983D01*
X64610463Y-88572823D01*
X64598623Y-88587250D01*
X63566275Y-89619600D01*
X63524492Y-89619600D01*
X63423063Y-89639776D01*
X63327519Y-89679351D01*
X63241532Y-89736806D01*
X63211988Y-89766350D01*
X62908969Y-89766350D01*
X62890399Y-89764521D01*
X62871829Y-89766350D01*
X62871819Y-89766350D01*
X62816250Y-89771823D01*
X62744950Y-89793452D01*
X62679239Y-89828575D01*
X62667789Y-89837972D01*
X62644447Y-89781619D01*
X62586992Y-89695632D01*
X62513866Y-89622506D01*
X62427879Y-89565051D01*
X62332335Y-89525476D01*
X62230906Y-89505300D01*
X62127490Y-89505300D01*
X62037580Y-89523185D01*
X62037580Y-89485819D01*
X62039409Y-89467249D01*
X62037580Y-89448679D01*
X62037580Y-89448669D01*
X62032107Y-89393100D01*
X62010478Y-89321800D01*
X61975355Y-89256089D01*
X61928087Y-89198493D01*
X61913656Y-89186650D01*
X60196286Y-87469281D01*
X60184437Y-87454843D01*
X60126841Y-87407575D01*
X60061130Y-87372452D01*
X59989830Y-87350823D01*
X59934261Y-87345350D01*
X59934250Y-87345350D01*
X59915680Y-87343521D01*
X59897110Y-87345350D01*
X59801214Y-87345350D01*
X59780247Y-87306123D01*
X59742758Y-87260442D01*
X59697865Y-87223600D01*
X59742758Y-87186758D01*
X59780247Y-87141077D01*
X59808104Y-87088960D01*
X59825259Y-87032410D01*
X59829214Y-86992250D01*
X62303589Y-86992250D01*
X62225532Y-87044406D01*
X62152406Y-87117532D01*
X62094951Y-87203519D01*
X62055376Y-87299063D01*
X62035200Y-87400492D01*
X62035200Y-87503908D01*
X62055376Y-87605337D01*
X62094951Y-87700881D01*
X62152406Y-87786868D01*
X62225532Y-87859994D01*
X62311519Y-87917449D01*
X62407063Y-87957024D01*
X62508492Y-87977200D01*
X62611908Y-87977200D01*
X62713337Y-87957024D01*
X62808881Y-87917449D01*
X62894868Y-87859994D01*
X62967994Y-87786868D01*
X63025449Y-87700881D01*
X63065024Y-87605337D01*
X63085200Y-87503908D01*
X63085200Y-87400492D01*
X63065024Y-87299063D01*
X63025449Y-87203519D01*
X62967994Y-87117532D01*
X62894868Y-87044406D01*
X62816811Y-86992250D01*
X65878988Y-86992250D01*
X65908532Y-87021794D01*
X65994519Y-87079249D01*
X66090063Y-87118824D01*
X66191492Y-87139000D01*
X66294908Y-87139000D01*
X66396337Y-87118824D01*
X66491881Y-87079249D01*
X66577868Y-87021794D01*
X66650994Y-86948668D01*
X66708449Y-86862681D01*
X66714814Y-86847314D01*
X67349842Y-87482343D01*
G36*
X73973200Y-84343285D02*
G01*
X73973200Y-84354308D01*
X73993376Y-84455737D01*
X74032951Y-84551281D01*
X74090406Y-84637268D01*
X74163532Y-84710394D01*
X74249519Y-84767849D01*
X74345063Y-84807424D01*
X74446492Y-84827600D01*
X74457515Y-84827600D01*
X74988867Y-85358953D01*
X75001389Y-85374211D01*
X75016647Y-85386733D01*
X75016649Y-85386735D01*
X75047128Y-85411748D01*
X75062297Y-85424197D01*
X75131786Y-85461340D01*
X75207186Y-85484212D01*
X75261933Y-85489604D01*
X75285600Y-85491935D01*
X75305247Y-85490000D01*
X77202715Y-85490000D01*
X78721001Y-87008286D01*
X78721001Y-87135137D01*
X78713206Y-87142932D01*
X78655751Y-87228919D01*
X78616176Y-87324463D01*
X78596000Y-87425892D01*
X78596000Y-87529308D01*
X78607197Y-87585600D01*
X75279295Y-87585600D01*
X75259648Y-87583665D01*
X75240001Y-87585600D01*
X75196799Y-87589855D01*
X75181234Y-87591388D01*
X75105833Y-87614260D01*
X75036345Y-87651403D01*
X74990697Y-87688865D01*
X74990695Y-87688867D01*
X74975437Y-87701389D01*
X74962915Y-87716647D01*
X74871924Y-87807638D01*
X74860902Y-87807638D01*
X74759473Y-87827814D01*
X74663929Y-87867389D01*
X74603705Y-87907630D01*
X74518281Y-87850551D01*
X74422737Y-87810976D01*
X74321308Y-87790800D01*
X74217892Y-87790800D01*
X74135910Y-87807108D01*
X74135910Y-87111241D01*
X74137740Y-87092660D01*
X74132988Y-87044406D01*
X74130437Y-87018510D01*
X74123734Y-86996414D01*
X74108808Y-86947209D01*
X74073685Y-86881499D01*
X74038262Y-86838335D01*
X74038257Y-86838330D01*
X74026417Y-86823903D01*
X74011990Y-86812063D01*
X73428650Y-86228725D01*
X73428650Y-85832470D01*
X73430479Y-85813900D01*
X73428650Y-85795330D01*
X73428650Y-85795319D01*
X73423177Y-85739750D01*
X73401548Y-85668450D01*
X73378071Y-85624527D01*
X73366425Y-85602738D01*
X73331001Y-85559575D01*
X73319157Y-85545143D01*
X73304724Y-85533298D01*
X72962706Y-85191281D01*
X72950857Y-85176843D01*
X72893261Y-85129575D01*
X72827550Y-85094452D01*
X72756250Y-85072823D01*
X72700681Y-85067350D01*
X72700670Y-85067350D01*
X72682100Y-85065521D01*
X72663530Y-85067350D01*
X71987877Y-85067350D01*
X71472850Y-84552325D01*
X71472850Y-84037213D01*
X71492673Y-84045424D01*
X71594102Y-84065600D01*
X71697518Y-84065600D01*
X71798947Y-84045424D01*
X71894491Y-84005849D01*
X71980478Y-83948394D01*
X71988272Y-83940600D01*
X73570515Y-83940600D01*
X73973200Y-84343285D01*
G37*
X73973200Y-84343285D02*
X73973200Y-84354308D01*
X73993376Y-84455737D01*
X74032951Y-84551281D01*
X74090406Y-84637268D01*
X74163532Y-84710394D01*
X74249519Y-84767849D01*
X74345063Y-84807424D01*
X74446492Y-84827600D01*
X74457515Y-84827600D01*
X74988867Y-85358953D01*
X75001389Y-85374211D01*
X75016647Y-85386733D01*
X75016649Y-85386735D01*
X75047128Y-85411748D01*
X75062297Y-85424197D01*
X75131786Y-85461340D01*
X75207186Y-85484212D01*
X75261933Y-85489604D01*
X75285600Y-85491935D01*
X75305247Y-85490000D01*
X77202715Y-85490000D01*
X78721001Y-87008286D01*
X78721001Y-87135137D01*
X78713206Y-87142932D01*
X78655751Y-87228919D01*
X78616176Y-87324463D01*
X78596000Y-87425892D01*
X78596000Y-87529308D01*
X78607197Y-87585600D01*
X75279295Y-87585600D01*
X75259648Y-87583665D01*
X75240001Y-87585600D01*
X75196799Y-87589855D01*
X75181234Y-87591388D01*
X75105833Y-87614260D01*
X75036345Y-87651403D01*
X74990697Y-87688865D01*
X74990695Y-87688867D01*
X74975437Y-87701389D01*
X74962915Y-87716647D01*
X74871924Y-87807638D01*
X74860902Y-87807638D01*
X74759473Y-87827814D01*
X74663929Y-87867389D01*
X74603705Y-87907630D01*
X74518281Y-87850551D01*
X74422737Y-87810976D01*
X74321308Y-87790800D01*
X74217892Y-87790800D01*
X74135910Y-87807108D01*
X74135910Y-87111241D01*
X74137740Y-87092660D01*
X74132988Y-87044406D01*
X74130437Y-87018510D01*
X74123734Y-86996414D01*
X74108808Y-86947209D01*
X74073685Y-86881499D01*
X74038262Y-86838335D01*
X74038257Y-86838330D01*
X74026417Y-86823903D01*
X74011990Y-86812063D01*
X73428650Y-86228725D01*
X73428650Y-85832470D01*
X73430479Y-85813900D01*
X73428650Y-85795330D01*
X73428650Y-85795319D01*
X73423177Y-85739750D01*
X73401548Y-85668450D01*
X73378071Y-85624527D01*
X73366425Y-85602738D01*
X73331001Y-85559575D01*
X73319157Y-85545143D01*
X73304724Y-85533298D01*
X72962706Y-85191281D01*
X72950857Y-85176843D01*
X72893261Y-85129575D01*
X72827550Y-85094452D01*
X72756250Y-85072823D01*
X72700681Y-85067350D01*
X72700670Y-85067350D01*
X72682100Y-85065521D01*
X72663530Y-85067350D01*
X71987877Y-85067350D01*
X71472850Y-84552325D01*
X71472850Y-84037213D01*
X71492673Y-84045424D01*
X71594102Y-84065600D01*
X71697518Y-84065600D01*
X71798947Y-84045424D01*
X71894491Y-84005849D01*
X71980478Y-83948394D01*
X71988272Y-83940600D01*
X73570515Y-83940600D01*
X73973200Y-84343285D01*
G36*
X89000433Y-82740925D02*
G01*
X89018774Y-82732950D01*
X89058649Y-82824656D01*
X89040307Y-82832631D01*
X89048282Y-82850972D01*
X88956576Y-82890847D01*
X88948601Y-82872505D01*
X88930260Y-82880480D01*
X88890385Y-82788774D01*
X88908727Y-82780799D01*
X88900752Y-82762458D01*
X88992458Y-82722583D01*
X89000433Y-82740925D01*
G37*
X89000433Y-82740925D02*
X89018774Y-82732950D01*
X89058649Y-82824656D01*
X89040307Y-82832631D01*
X89048282Y-82850972D01*
X88956576Y-82890847D01*
X88948601Y-82872505D01*
X88930260Y-82880480D01*
X88890385Y-82788774D01*
X88908727Y-82780799D01*
X88900752Y-82762458D01*
X88992458Y-82722583D01*
X89000433Y-82740925D01*
G36*
X85430523Y-81912436D02*
G01*
X85448864Y-81904461D01*
X85488739Y-81996167D01*
X85470397Y-82004142D01*
X85478372Y-82022483D01*
X85386666Y-82062358D01*
X85378691Y-82044016D01*
X85360350Y-82051991D01*
X85320475Y-81960285D01*
X85338817Y-81952310D01*
X85330842Y-81933969D01*
X85422548Y-81894094D01*
X85430523Y-81912436D01*
G37*
X85430523Y-81912436D02*
X85448864Y-81904461D01*
X85488739Y-81996167D01*
X85470397Y-82004142D01*
X85478372Y-82022483D01*
X85386666Y-82062358D01*
X85378691Y-82044016D01*
X85360350Y-82051991D01*
X85320475Y-81960285D01*
X85338817Y-81952310D01*
X85330842Y-81933969D01*
X85422548Y-81894094D01*
X85430523Y-81912436D01*
G36*
X87564936Y-79439509D02*
G01*
X87583277Y-79431534D01*
X87623152Y-79523240D01*
X87604810Y-79531215D01*
X87612785Y-79549556D01*
X87521079Y-79589431D01*
X87513104Y-79571089D01*
X87494763Y-79579064D01*
X87454888Y-79487358D01*
X87473230Y-79479383D01*
X87465255Y-79461042D01*
X87556961Y-79421167D01*
X87564936Y-79439509D01*
G37*
X87564936Y-79439509D02*
X87583277Y-79431534D01*
X87623152Y-79523240D01*
X87604810Y-79531215D01*
X87612785Y-79549556D01*
X87521079Y-79589431D01*
X87513104Y-79571089D01*
X87494763Y-79579064D01*
X87454888Y-79487358D01*
X87473230Y-79479383D01*
X87465255Y-79461042D01*
X87556961Y-79421167D01*
X87564936Y-79439509D01*
%TO.N,+3V0*%
G36*
X56953148Y-90692000D02*
G01*
X56954600Y-93247000D01*
X57029600Y-93322000D01*
X58404600Y-93322000D01*
X58404600Y-93302000D01*
X58704600Y-93302000D01*
X58704600Y-93322000D01*
X58724600Y-93322000D01*
X58724600Y-93622000D01*
X58704600Y-93622000D01*
X58704600Y-93642000D01*
X58404600Y-93642000D01*
X58404600Y-93622000D01*
X57029600Y-93622000D01*
X56954600Y-93697000D01*
X56953148Y-96252000D01*
X56957686Y-96298080D01*
X56493062Y-96298080D01*
X56401640Y-96206658D01*
X56401640Y-90732262D01*
X56493062Y-90640840D01*
X56958187Y-90640840D01*
X56953148Y-90692000D01*
G37*
X56953148Y-90692000D02*
X56954600Y-93247000D01*
X57029600Y-93322000D01*
X58404600Y-93322000D01*
X58404600Y-93302000D01*
X58704600Y-93302000D01*
X58704600Y-93322000D01*
X58724600Y-93322000D01*
X58724600Y-93622000D01*
X58704600Y-93622000D01*
X58704600Y-93642000D01*
X58404600Y-93642000D01*
X58404600Y-93622000D01*
X57029600Y-93622000D01*
X56954600Y-93697000D01*
X56953148Y-96252000D01*
X56957686Y-96298080D01*
X56493062Y-96298080D01*
X56401640Y-96206658D01*
X56401640Y-90732262D01*
X56493062Y-90640840D01*
X56958187Y-90640840D01*
X56953148Y-90692000D01*
%TD*%
M02*
