%TF.GenerationSoftware,KiCad,Pcbnew,(5.1.6)-1*%
%TF.CreationDate,2025-12-14T22:53:01+05:30*%
%TF.ProjectId,Project_OAK_MAIN_BRD_V1.0,50726f6a-6563-4745-9f4f-414b5f4d4149,A*%
%TF.SameCoordinates,Original*%
%TF.FileFunction,Copper,L2,Inr*%
%TF.FilePolarity,Positive*%
%FSLAX46Y46*%
G04 Gerber Fmt 4.6, Leading zero omitted, Abs format (unit mm)*
G04 Created by KiCad (PCBNEW (5.1.6)-1) date 2025-12-14 22:53:01*
%MOMM*%
%LPD*%
G01*
G04 APERTURE LIST*
%TA.AperFunction,ViaPad*%
%ADD10C,0.450000*%
%TD*%
%TA.AperFunction,Conductor*%
%ADD11C,0.250000*%
%TD*%
%TA.AperFunction,Conductor*%
%ADD12C,0.200000*%
%TD*%
%TA.AperFunction,Conductor*%
%ADD13C,0.156500*%
%TD*%
G04 APERTURE END LIST*
D10*
%TO.N,+3V0*%
X56540400Y-95935800D03*
X84455000Y-91186000D03*
X84480400Y-95275400D03*
X56540400Y-91033600D03*
X61323190Y-96469200D03*
X71031101Y-96827012D03*
X78765400Y-96418400D03*
X80655162Y-97546160D03*
X65156080Y-95412556D03*
X67868800Y-87400260D03*
X73121520Y-87233760D03*
X65145920Y-91343480D03*
X81913316Y-90107295D03*
X67845940Y-90116988D03*
X63223140Y-100754210D03*
%TO.N,GND*%
X74599800Y-78308200D03*
X69363460Y-84744612D03*
X81483200Y-82118200D03*
X85765640Y-89555320D03*
X85699600Y-98501200D03*
X81635600Y-104698800D03*
X74269600Y-108635800D03*
X66065400Y-108458000D03*
X59232800Y-104495600D03*
X55041800Y-97434400D03*
X55092600Y-89204800D03*
X59004200Y-82092800D03*
X66065400Y-78308200D03*
X77647800Y-103251000D03*
X71958200Y-84759800D03*
X66065400Y-83616800D03*
X75463400Y-83870800D03*
X77749400Y-86817200D03*
X69367400Y-82372200D03*
X72567800Y-82346800D03*
X72288400Y-101930200D03*
X57277000Y-98552000D03*
X80467200Y-85547200D03*
X69875394Y-91846400D03*
X74828400Y-92456000D03*
X76885800Y-92456000D03*
X75844400Y-92456000D03*
X74828400Y-94538800D03*
X76885800Y-94538800D03*
X75844400Y-94538800D03*
X74828400Y-93497400D03*
X76885800Y-93497400D03*
X75844400Y-93497400D03*
X66979332Y-85274276D03*
X62826900Y-97459800D03*
X66852800Y-96100900D03*
X66916300Y-90792300D03*
X66802000Y-93002100D03*
X67818000Y-96850200D03*
X74295000Y-103276400D03*
X63106300Y-102590600D03*
X73177400Y-100660200D03*
X73952100Y-86487000D03*
X73837800Y-84759800D03*
X65366900Y-87274400D03*
X64071500Y-88531700D03*
X62547500Y-83185000D03*
X80886300Y-88353900D03*
X60363100Y-87147400D03*
X76174600Y-86512400D03*
X87381080Y-90129360D03*
X72379840Y-86146638D03*
X67883010Y-88341200D03*
X75915520Y-100614480D03*
X81095811Y-96951617D03*
X81432400Y-98272600D03*
X64348360Y-85476080D03*
X73106280Y-96113600D03*
X66852800Y-94576900D03*
X69900800Y-96834960D03*
X60822840Y-85191600D03*
X62504320Y-91389200D03*
X69202300Y-101981001D03*
X81803240Y-96857820D03*
X79088632Y-93263038D03*
X77757020Y-82781140D03*
X80561180Y-87081360D03*
X69161660Y-99766120D03*
X67201384Y-101530818D03*
X80899000Y-89662000D03*
X71882000Y-88849200D03*
X64973200Y-104876600D03*
X62687200Y-99618808D03*
X58369200Y-98272600D03*
X70459600Y-94608462D03*
X71080406Y-94569871D03*
X65136111Y-96160190D03*
%TO.N,/LGT_ON_BTN*%
X73558400Y-90093800D03*
%TO.N,/UP_BTN*%
X73757660Y-88643528D03*
%TO.N,/MCU_RSTn*%
X80111600Y-89783594D03*
X75783440Y-89992200D03*
%TO.N,/R1*%
X69519800Y-105829579D03*
X65493902Y-84023200D03*
X67198240Y-105023920D03*
%TO.N,/R2*%
X63550800Y-103987600D03*
X62560200Y-87452200D03*
X76200000Y-84505800D03*
X74437240Y-105369360D03*
X67396362Y-81815940D03*
X76523247Y-83014153D03*
X74912610Y-88332638D03*
%TO.N,/R3*%
X61899800Y-102031800D03*
X78994000Y-84937600D03*
X64439800Y-83032600D03*
X74269600Y-88315800D03*
X76200000Y-104902000D03*
X60248800Y-94777560D03*
X79959200Y-88395940D03*
%TO.N,/R4*%
X62382400Y-84302600D03*
X81305400Y-86266545D03*
X78884750Y-103182450D03*
X80660240Y-92268040D03*
X59415680Y-99047300D03*
%TO.N,/R5*%
X58140600Y-97561400D03*
X81407000Y-100634800D03*
X64739499Y-102469879D03*
X58943240Y-88386920D03*
X82753200Y-89412811D03*
%TO.N,/R6*%
X82092800Y-87985600D03*
X58394600Y-89509600D03*
X64797084Y-100103419D03*
X82356960Y-97393760D03*
X73240913Y-101993713D03*
%TO.N,/C6*%
X78645990Y-90643050D03*
X67537460Y-100723700D03*
%TO.N,/C5*%
X78255452Y-91131356D03*
X69303900Y-101028500D03*
%TO.N,/C4*%
X78854327Y-91212761D03*
X74549004Y-99276029D03*
%TO.N,/C3*%
X67906900Y-85775800D03*
X77063593Y-97739207D03*
%TO.N,/C2*%
X62179198Y-90030300D03*
X76316908Y-97776025D03*
%TO.N,/PE1*%
X65659000Y-94145100D03*
%TO.N,/ICSP_MOSI*%
X68726369Y-101319837D03*
X77094400Y-96855606D03*
%TO.N,/ICSP_MISO*%
X68072000Y-101312980D03*
X78143100Y-96710500D03*
%TO.N,/ICSP_SCK*%
X78310740Y-95710489D03*
%TO.N,/DWN_BTN*%
X78816198Y-101701600D03*
%TO.N,/RTC_INTO*%
X62496700Y-94310200D03*
X73629149Y-89382044D03*
%TO.N,/SNS_SCL*%
X65542160Y-90063320D03*
X64846200Y-96710500D03*
%TO.N,/SNS_SDA*%
X63576200Y-90144600D03*
X72418311Y-88496648D03*
X65497840Y-96685100D03*
%TO.N,/ACC_INT1*%
X66243200Y-86614000D03*
%TO.N,/ACC_INT2*%
X65928240Y-91297760D03*
X72265231Y-96827012D03*
%TO.N,/MON_LED*%
X66045080Y-89712800D03*
X71983600Y-90116988D03*
%TO.N,/PE2*%
X79138780Y-94361000D03*
X68148200Y-99161600D03*
X73571100Y-98750774D03*
%TO.N,/LED MATRIX/C1_T*%
X74498200Y-84302600D03*
X79121000Y-87477600D03*
X71645810Y-83540600D03*
X76544726Y-101689518D03*
X78656782Y-99560984D03*
X80055720Y-92268038D03*
%TO.N,/LED MATRIX/C2_T*%
X61325760Y-97322640D03*
X64719200Y-103200200D03*
%TO.N,/LED MATRIX/C3_T*%
X71628000Y-85928200D03*
X73329800Y-80111600D03*
%TO.N,/LED MATRIX/C4_T*%
X82911385Y-97650316D03*
X73945086Y-101986680D03*
%TO.N,/LED MATRIX/C6_T*%
X57505600Y-89255600D03*
X65570100Y-99618800D03*
%TO.N,/HAP_DRV_NEG*%
X62865000Y-96824800D03*
%TO.N,/HAP_DRV_POS*%
X62826900Y-98069400D03*
%TD*%
D11*
%TO.N,+3V0*%
X75685198Y-97479302D02*
X76954001Y-96210499D01*
X78557499Y-96210499D02*
X78765400Y-96418400D01*
X71031101Y-96827012D02*
X71683391Y-97479302D01*
X76954001Y-96210499D02*
X78557499Y-96210499D01*
X71683391Y-97479302D02*
X75685198Y-97479302D01*
D12*
%TO.N,/R1*%
X69519800Y-105829579D02*
X69519800Y-105717340D01*
X68826380Y-105023920D02*
X67198240Y-105023920D01*
X69519800Y-105717340D02*
X68826380Y-105023920D01*
X67198240Y-105018840D02*
X67198240Y-105023920D01*
X65849500Y-105029000D02*
X67188080Y-105029000D01*
X63581301Y-102760801D02*
X65849500Y-105029000D01*
X61203840Y-89606120D02*
X61203840Y-95681800D01*
X63581301Y-102362599D02*
X63581301Y-102760801D01*
X63157100Y-87652860D02*
X61203840Y-89606120D01*
X67188080Y-105029000D02*
X67198240Y-105018840D01*
X63157100Y-85760560D02*
X63157100Y-87652860D01*
X65493902Y-84023200D02*
X64894460Y-84023200D01*
X64894460Y-84023200D02*
X63157100Y-85760560D01*
X60782200Y-96103440D02*
X60782200Y-99562920D01*
X63550800Y-102331520D02*
X63550800Y-102332098D01*
X60782200Y-99562920D02*
X63550800Y-102331520D01*
X61203840Y-95681800D02*
X60782200Y-96103440D01*
X63550800Y-102332098D02*
X63581301Y-102362599D01*
%TO.N,/R2*%
X74437240Y-105811320D02*
X74437240Y-105369360D01*
X73822560Y-106426000D02*
X74437240Y-105811320D01*
X63550800Y-103987600D02*
X63550800Y-104305798D01*
X65671002Y-106426000D02*
X73822560Y-106426000D01*
X63550800Y-104305798D02*
X65671002Y-106426000D01*
X62484000Y-102920800D02*
X63550800Y-103987600D01*
X60375800Y-99733100D02*
X62484000Y-101841300D01*
X60375800Y-95867220D02*
X60375800Y-99733100D01*
X62560200Y-87452200D02*
X60815220Y-89197180D01*
X62484000Y-101841300D02*
X62484000Y-102920800D01*
X60815220Y-89197180D02*
X60815220Y-95427800D01*
X60815220Y-95427800D02*
X60375800Y-95867220D01*
X66484500Y-81815940D02*
X67396362Y-81815940D01*
X62785199Y-85515241D02*
X66484500Y-81815940D01*
X62560200Y-87452200D02*
X62785199Y-87227201D01*
X62785199Y-87227201D02*
X62785199Y-85515241D01*
X75325034Y-81815940D02*
X76523247Y-83014153D01*
X76523247Y-84182553D02*
X76523247Y-83014153D01*
X76200000Y-84505800D02*
X76523247Y-84182553D01*
X67396362Y-81815940D02*
X75325034Y-81815940D01*
%TO.N,/R3*%
X65595500Y-106946700D02*
X61899800Y-103251000D01*
X61899800Y-103251000D02*
X61899800Y-102031800D01*
X74206100Y-106946700D02*
X65595500Y-106946700D01*
X76200000Y-104902000D02*
X76200000Y-104952800D01*
X76200000Y-104952800D02*
X74206100Y-106946700D01*
X59969400Y-95056960D02*
X60248800Y-94777560D01*
X62433200Y-86664800D02*
X60248800Y-88849200D01*
X64439800Y-83032600D02*
X62433200Y-85039200D01*
X59969400Y-100101400D02*
X59969400Y-95056960D01*
X60248800Y-88849200D02*
X60248800Y-94777560D01*
X61899800Y-102031800D02*
X59969400Y-100101400D01*
X62433200Y-85039200D02*
X62433200Y-86664800D01*
X75605640Y-81335880D02*
X78994000Y-84724240D01*
X66161920Y-81335880D02*
X75605640Y-81335880D01*
X64439800Y-83032600D02*
X64465200Y-83032600D01*
X78994000Y-84724240D02*
X78994000Y-84937600D01*
X64465200Y-83032600D02*
X66161920Y-81335880D01*
X79959200Y-85902800D02*
X79959200Y-88395940D01*
X78994000Y-84937600D02*
X79959200Y-85902800D01*
%TO.N,/R4*%
X61899800Y-86487000D02*
X59415680Y-88971120D01*
X65354200Y-107492800D02*
X61214000Y-103352600D01*
X61214000Y-102133400D02*
X59415680Y-100335080D01*
X78884750Y-103182450D02*
X74574400Y-107492800D01*
X61214000Y-103352600D02*
X61214000Y-102133400D01*
X61899800Y-84785200D02*
X61899800Y-86487000D01*
X59415680Y-100335080D02*
X59415680Y-99047300D01*
X74574400Y-107492800D02*
X65354200Y-107492800D01*
X62382400Y-84302600D02*
X61899800Y-84785200D01*
X59415680Y-88971120D02*
X59415680Y-99047300D01*
X65798700Y-80886300D02*
X62382400Y-84302600D01*
X76578460Y-80886300D02*
X65798700Y-80886300D01*
X81305400Y-86266545D02*
X81305400Y-85613240D01*
X81305400Y-85613240D02*
X76578460Y-80886300D01*
X81450201Y-86411346D02*
X81450201Y-89915401D01*
X81450201Y-89915401D02*
X80660240Y-90705362D01*
X81305400Y-86266545D02*
X81450201Y-86411346D01*
X80660240Y-90705362D02*
X80660240Y-92268040D01*
%TO.N,/R5*%
X80060800Y-101981000D02*
X79476600Y-102565200D01*
X79476600Y-102565200D02*
X81407000Y-100634800D01*
X58943240Y-97304860D02*
X58943240Y-88386920D01*
X58140600Y-97561400D02*
X58686700Y-97561400D01*
X58686700Y-97561400D02*
X58943240Y-97304860D01*
X81407000Y-100634800D02*
X83454240Y-98587560D01*
X83454240Y-98587560D02*
X83454240Y-90113851D01*
X83454240Y-90113851D02*
X82753200Y-89412811D01*
X65868622Y-103599002D02*
X64739499Y-102469879D01*
X73787000Y-102692200D02*
X72880198Y-103599002D01*
X81407000Y-100634800D02*
X79349600Y-102692200D01*
X72880198Y-103599002D02*
X65868622Y-103599002D01*
X79349600Y-102692200D02*
X73787000Y-102692200D01*
X79420720Y-102621080D02*
X79476600Y-102565200D01*
X79420720Y-103484680D02*
X79420720Y-102621080D01*
X64973200Y-107975400D02*
X74930000Y-107975400D01*
X58625740Y-97561400D02*
X58877200Y-97812860D01*
X74930000Y-107975400D02*
X79420720Y-103484680D01*
X58140600Y-97561400D02*
X58625740Y-97561400D01*
X58877200Y-97812860D02*
X58877200Y-100482400D01*
X58877200Y-100482400D02*
X60604400Y-102209600D01*
X60604400Y-103606600D02*
X64973200Y-107975400D01*
X60604400Y-102209600D02*
X60604400Y-103606600D01*
%TO.N,/R6*%
X82092800Y-89583777D02*
X82581959Y-90072936D01*
X82581959Y-90072936D02*
X82581959Y-97168761D01*
X82581959Y-97168761D02*
X82356960Y-97393760D01*
X82092800Y-87985600D02*
X82092800Y-89583777D01*
X82356960Y-98140520D02*
X79380080Y-101117400D01*
X79380080Y-101117400D02*
X74117226Y-101117400D01*
X67477305Y-102783640D02*
X72450986Y-102783640D01*
X74117226Y-101117400D02*
X73240913Y-101993713D01*
X82356960Y-97393760D02*
X82356960Y-98140520D01*
X72450986Y-102783640D02*
X73240913Y-101993713D01*
X64797084Y-100103419D02*
X67477305Y-102783640D01*
%TO.N,/C6*%
X69875379Y-99761061D02*
X68912740Y-100723700D01*
X70225321Y-99761061D02*
X69875379Y-99761061D01*
X70225342Y-99761040D02*
X70225321Y-99761061D01*
X70810698Y-99761040D02*
X70225342Y-99761040D01*
X78432660Y-92641420D02*
X79138780Y-92641420D01*
X80050640Y-93553280D02*
X80050640Y-96890840D01*
X68912740Y-100723700D02*
X67537460Y-100723700D01*
X77716380Y-90919300D02*
X77716380Y-91925140D01*
X79138780Y-92641420D02*
X80050640Y-93553280D01*
X78645990Y-90643050D02*
X77992630Y-90643050D01*
X77992630Y-90643050D02*
X77716380Y-90919300D01*
X77716380Y-91925140D02*
X78432660Y-92641420D01*
X80050640Y-96890840D02*
X77180440Y-99761040D01*
X77180440Y-99761040D02*
X71266742Y-99761040D01*
X70810719Y-99761061D02*
X70810698Y-99761040D01*
X71266742Y-99761040D02*
X71266721Y-99761061D01*
X71266721Y-99761061D02*
X70810719Y-99761061D01*
%TO.N,/C5*%
X70162420Y-100136960D02*
X69303900Y-100995480D01*
X77373480Y-100136960D02*
X70162420Y-100136960D01*
X80416400Y-97094040D02*
X77373480Y-100136960D01*
X78255452Y-91864772D02*
X78615540Y-92224860D01*
X78255452Y-91131356D02*
X78255452Y-91864772D01*
X79255620Y-92224860D02*
X80416400Y-93385640D01*
X78615540Y-92224860D02*
X79255620Y-92224860D01*
X69303900Y-100995480D02*
X69303900Y-101028500D01*
X80416400Y-93385640D02*
X80416400Y-97094040D01*
%TO.N,/C4*%
X77366369Y-92243777D02*
X78860631Y-93738039D01*
X79187040Y-90413840D02*
X78861920Y-90088720D01*
X79387039Y-93738039D02*
X79644240Y-93995240D01*
X77101571Y-99276029D02*
X74549004Y-99276029D01*
X78854327Y-91212761D02*
X79187040Y-90880048D01*
X79644240Y-96733360D02*
X77101571Y-99276029D01*
X78861920Y-90088720D02*
X77998320Y-90088720D01*
X79644240Y-93995240D02*
X79644240Y-96733360D01*
X78860631Y-93738039D02*
X79387039Y-93738039D01*
X77366369Y-90720671D02*
X77366369Y-92243777D01*
X79187040Y-90880048D02*
X79187040Y-90413840D01*
X77998320Y-90088720D02*
X77366369Y-90720671D01*
%TO.N,/C3*%
X67462400Y-99123500D02*
X68310136Y-98275764D01*
X62515100Y-99123500D02*
X67462400Y-99123500D01*
X76527036Y-98275764D02*
X77063593Y-97739207D01*
X61879480Y-98487880D02*
X62515100Y-99123500D01*
X65633600Y-85775800D02*
X61582300Y-89827100D01*
X61582300Y-89827100D02*
X61582300Y-95796100D01*
X67906900Y-85775800D02*
X65633600Y-85775800D01*
X61879480Y-96093280D02*
X61879480Y-98487880D01*
X68310136Y-98275764D02*
X76527036Y-98275764D01*
X61582300Y-95796100D02*
X61879480Y-96093280D01*
%TO.N,/C2*%
X76238620Y-97854313D02*
X76316908Y-97776025D01*
X67994987Y-97854313D02*
X76238620Y-97854313D01*
X67094100Y-98755200D02*
X67994987Y-97854313D01*
X62699900Y-98755200D02*
X67094100Y-98755200D01*
X61954199Y-90255299D02*
X61954199Y-95558399D01*
X62179198Y-90030300D02*
X61954199Y-90255299D01*
X62280800Y-95885000D02*
X62280800Y-98336100D01*
X61954199Y-95558399D02*
X62280800Y-95885000D01*
X62280800Y-98336100D02*
X62699900Y-98755200D01*
D13*
%TO.N,/PE2*%
X68609826Y-98750774D02*
X73571100Y-98750774D01*
X68148200Y-99161600D02*
X68199000Y-99161600D01*
X68199000Y-99161600D02*
X68609826Y-98750774D01*
X77131526Y-98750774D02*
X73571100Y-98750774D01*
X79138780Y-94361000D02*
X79222600Y-94444820D01*
X79222600Y-96659700D02*
X77131526Y-98750774D01*
X79222600Y-94444820D02*
X79222600Y-96659700D01*
D12*
%TO.N,/LED MATRIX/C1_T*%
X79121000Y-87477600D02*
X79121000Y-89565480D01*
X80055720Y-90500200D02*
X80055720Y-92268038D01*
X79121000Y-89565480D02*
X80055720Y-90500200D01*
%TO.N,/LED MATRIX/C2_T*%
X61325760Y-99559832D02*
X61325760Y-97322640D01*
X64033400Y-102267472D02*
X61325760Y-99559832D01*
X64719200Y-103200200D02*
X64033400Y-102514400D01*
X64033400Y-102514400D02*
X64033400Y-102267472D01*
%TO.N,/LED MATRIX/C4_T*%
X74170085Y-102211679D02*
X73945086Y-101986680D01*
X82911385Y-98373495D02*
X79073201Y-102211679D01*
X82911385Y-97650316D02*
X82911385Y-98373495D01*
X79073201Y-102211679D02*
X74170085Y-102211679D01*
%TD*%
%TO.N,GND*%
G36*
X59693707Y-70797001D02*
G01*
X59743290Y-70801862D01*
X59775691Y-70811645D01*
X59805583Y-70827538D01*
X59831814Y-70848933D01*
X59853392Y-70875016D01*
X59869489Y-70904787D01*
X59879500Y-70937126D01*
X59884602Y-70985670D01*
X59884601Y-74087961D01*
X59885972Y-74101884D01*
X59885951Y-74104947D01*
X59886393Y-74109463D01*
X59896593Y-74206512D01*
X59902520Y-74235386D01*
X59908036Y-74264300D01*
X59909347Y-74268645D01*
X59938203Y-74361864D01*
X59949637Y-74389064D01*
X59960654Y-74416331D01*
X59962784Y-74420338D01*
X60009197Y-74506176D01*
X60025670Y-74530598D01*
X60041798Y-74555243D01*
X60044666Y-74558760D01*
X60106867Y-74633949D01*
X60127793Y-74654729D01*
X60148376Y-74675748D01*
X60151872Y-74678641D01*
X60227493Y-74740317D01*
X60252040Y-74756626D01*
X60276337Y-74773262D01*
X60280328Y-74775421D01*
X60366489Y-74821233D01*
X60393740Y-74832465D01*
X60420794Y-74844060D01*
X60425129Y-74845402D01*
X60518547Y-74873607D01*
X60547446Y-74879329D01*
X60576258Y-74885453D01*
X60580771Y-74885928D01*
X60677888Y-74895450D01*
X60677893Y-74895450D01*
X60693640Y-74897001D01*
X80225560Y-74897001D01*
X80239483Y-74895630D01*
X80242545Y-74895651D01*
X80247061Y-74895209D01*
X80344110Y-74885009D01*
X80372984Y-74879082D01*
X80401898Y-74873566D01*
X80406243Y-74872255D01*
X80499462Y-74843399D01*
X80526662Y-74831965D01*
X80553929Y-74820948D01*
X80557936Y-74818818D01*
X80643774Y-74772405D01*
X80668196Y-74755932D01*
X80692841Y-74739804D01*
X80696358Y-74736936D01*
X80771547Y-74674735D01*
X80792327Y-74653809D01*
X80813346Y-74633226D01*
X80816239Y-74629730D01*
X80877915Y-74554109D01*
X80894224Y-74529562D01*
X80910860Y-74505265D01*
X80913019Y-74501274D01*
X80958831Y-74415113D01*
X80970063Y-74387862D01*
X80981658Y-74360808D01*
X80983000Y-74356473D01*
X81011205Y-74263055D01*
X81016927Y-74234156D01*
X81023051Y-74205344D01*
X81023526Y-74200831D01*
X81033048Y-74103714D01*
X81033048Y-74103709D01*
X81034599Y-74087962D01*
X81034599Y-70987895D01*
X81039460Y-70938312D01*
X81049243Y-70905911D01*
X81065136Y-70876019D01*
X81086531Y-70849788D01*
X81112614Y-70828210D01*
X81142385Y-70812113D01*
X81174724Y-70802102D01*
X81223258Y-70797001D01*
X83787527Y-70797001D01*
X83934229Y-70811385D01*
X84060053Y-70849374D01*
X84176099Y-70911077D01*
X84277956Y-70994149D01*
X84362332Y-71096142D01*
X84428604Y-71217051D01*
X90173859Y-84457864D01*
X90442090Y-85266256D01*
X90526705Y-85729214D01*
X90842435Y-88728609D01*
X91006237Y-91744276D01*
X91017258Y-94764341D01*
X90875469Y-97781117D01*
X90580894Y-100790335D01*
X90528129Y-101205107D01*
X90343046Y-102035910D01*
X90176346Y-102480404D01*
X84428974Y-115726098D01*
X84357384Y-115854951D01*
X84272449Y-115955258D01*
X84169649Y-116037156D01*
X84052905Y-116097524D01*
X83925749Y-116134331D01*
X83788463Y-116146999D01*
X81225493Y-116146999D01*
X81175910Y-116142138D01*
X81143509Y-116132355D01*
X81113615Y-116116461D01*
X81087385Y-116095067D01*
X81065810Y-116068988D01*
X81049710Y-116039212D01*
X81039700Y-116006874D01*
X81034599Y-115958341D01*
X81034599Y-112856038D01*
X81033228Y-112842115D01*
X81033249Y-112839054D01*
X81032807Y-112834537D01*
X81022607Y-112737489D01*
X81016682Y-112708628D01*
X81011164Y-112679700D01*
X81009853Y-112675355D01*
X80980997Y-112582136D01*
X80969568Y-112554949D01*
X80958546Y-112527668D01*
X80956416Y-112523661D01*
X80910003Y-112437824D01*
X80893535Y-112413410D01*
X80877402Y-112388757D01*
X80874534Y-112385240D01*
X80812332Y-112310051D01*
X80791426Y-112289291D01*
X80770824Y-112268252D01*
X80767327Y-112265359D01*
X80691707Y-112203683D01*
X80667175Y-112187384D01*
X80642863Y-112170738D01*
X80638872Y-112168579D01*
X80552711Y-112122767D01*
X80525460Y-112111535D01*
X80498406Y-112099940D01*
X80494071Y-112098598D01*
X80400653Y-112070393D01*
X80371762Y-112064673D01*
X80342943Y-112058547D01*
X80338429Y-112058072D01*
X80241312Y-112048550D01*
X80241307Y-112048550D01*
X80225560Y-112046999D01*
X60693640Y-112046999D01*
X60679717Y-112048370D01*
X60676656Y-112048349D01*
X60672139Y-112048791D01*
X60575091Y-112058991D01*
X60546230Y-112064916D01*
X60517302Y-112070434D01*
X60512957Y-112071745D01*
X60419738Y-112100601D01*
X60392551Y-112112030D01*
X60365270Y-112123052D01*
X60361263Y-112125182D01*
X60275426Y-112171595D01*
X60251012Y-112188063D01*
X60226359Y-112204196D01*
X60222842Y-112207064D01*
X60147653Y-112269266D01*
X60126893Y-112290172D01*
X60105854Y-112310774D01*
X60102961Y-112314271D01*
X60102957Y-112314275D01*
X60041285Y-112389891D01*
X60024986Y-112414423D01*
X60008340Y-112438735D01*
X60006181Y-112442726D01*
X59960369Y-112528887D01*
X59949137Y-112556138D01*
X59937542Y-112583192D01*
X59936200Y-112587527D01*
X59907995Y-112680945D01*
X59902275Y-112709836D01*
X59896149Y-112738655D01*
X59895674Y-112743169D01*
X59886152Y-112840286D01*
X59886152Y-112840301D01*
X59884602Y-112856038D01*
X59884601Y-115956105D01*
X59879740Y-116005688D01*
X59869957Y-116038089D01*
X59854063Y-116067983D01*
X59832669Y-116094213D01*
X59806590Y-116115788D01*
X59776814Y-116131888D01*
X59744476Y-116141898D01*
X59695943Y-116146999D01*
X57131680Y-116146999D01*
X56984969Y-116132614D01*
X56859148Y-116094626D01*
X56743098Y-116032921D01*
X56641246Y-115949852D01*
X56556869Y-115847858D01*
X56490596Y-115726950D01*
X54299662Y-110677610D01*
X62095040Y-110677610D01*
X62095040Y-110911870D01*
X62140742Y-111141630D01*
X62230390Y-111358059D01*
X62360539Y-111552840D01*
X62526186Y-111718487D01*
X62720967Y-111848636D01*
X62937396Y-111938284D01*
X63167156Y-111983986D01*
X63401416Y-111983986D01*
X63631176Y-111938284D01*
X63847605Y-111848636D01*
X64042386Y-111718487D01*
X64208033Y-111552840D01*
X64338182Y-111358059D01*
X64427830Y-111141630D01*
X64473532Y-110911870D01*
X64473532Y-110677610D01*
X76445667Y-110677610D01*
X76445667Y-110911870D01*
X76491369Y-111141630D01*
X76581017Y-111358059D01*
X76711166Y-111552840D01*
X76876813Y-111718487D01*
X77071594Y-111848636D01*
X77288023Y-111938284D01*
X77517783Y-111983986D01*
X77752043Y-111983986D01*
X77981803Y-111938284D01*
X78198232Y-111848636D01*
X78393013Y-111718487D01*
X78558660Y-111552840D01*
X78688809Y-111358059D01*
X78778457Y-111141630D01*
X78824159Y-110911870D01*
X78824159Y-110677610D01*
X78778457Y-110447850D01*
X78688809Y-110231421D01*
X78558660Y-110036640D01*
X78393013Y-109870993D01*
X78198232Y-109740844D01*
X77981803Y-109651196D01*
X77752043Y-109605494D01*
X77517783Y-109605494D01*
X77288023Y-109651196D01*
X77071594Y-109740844D01*
X76876813Y-109870993D01*
X76711166Y-110036640D01*
X76581017Y-110231421D01*
X76491369Y-110447850D01*
X76445667Y-110677610D01*
X64473532Y-110677610D01*
X64427830Y-110447850D01*
X64338182Y-110231421D01*
X64208033Y-110036640D01*
X64042386Y-109870993D01*
X63847605Y-109740844D01*
X63631176Y-109651196D01*
X63401416Y-109605494D01*
X63167156Y-109605494D01*
X62937396Y-109651196D01*
X62720967Y-109740844D01*
X62526186Y-109870993D01*
X62360539Y-110036640D01*
X62230390Y-110231421D01*
X62140742Y-110447850D01*
X62095040Y-110677610D01*
X54299662Y-110677610D01*
X50745344Y-102486147D01*
X50477109Y-101677743D01*
X50392494Y-101214783D01*
X50320430Y-100530183D01*
X51947613Y-100530183D01*
X51947613Y-100764443D01*
X51993315Y-100994203D01*
X52082963Y-101210632D01*
X52213112Y-101405413D01*
X52378759Y-101571060D01*
X52573540Y-101701209D01*
X52789969Y-101790857D01*
X53019729Y-101836559D01*
X53253989Y-101836559D01*
X53483749Y-101790857D01*
X53700178Y-101701209D01*
X53894959Y-101571060D01*
X54060606Y-101405413D01*
X54190755Y-101210632D01*
X54280403Y-100994203D01*
X54326105Y-100764443D01*
X54326105Y-100530183D01*
X54280403Y-100300423D01*
X54190755Y-100083994D01*
X54060606Y-99889213D01*
X53894959Y-99723566D01*
X53700178Y-99593417D01*
X53483749Y-99503769D01*
X53253989Y-99458067D01*
X53019729Y-99458067D01*
X52789969Y-99503769D01*
X52573540Y-99593417D01*
X52378759Y-99723566D01*
X52213112Y-99889213D01*
X52082963Y-100083994D01*
X51993315Y-100300423D01*
X51947613Y-100530183D01*
X50320430Y-100530183D01*
X50076764Y-98215390D01*
X49950135Y-95884092D01*
X56015400Y-95884092D01*
X56015400Y-95987508D01*
X56035576Y-96088937D01*
X56075151Y-96184481D01*
X56132606Y-96270468D01*
X56205732Y-96343594D01*
X56291719Y-96401049D01*
X56387263Y-96440624D01*
X56488692Y-96460800D01*
X56592108Y-96460800D01*
X56693537Y-96440624D01*
X56789081Y-96401049D01*
X56875068Y-96343594D01*
X56948194Y-96270468D01*
X57005649Y-96184481D01*
X57045224Y-96088937D01*
X57065400Y-95987508D01*
X57065400Y-95884092D01*
X57045224Y-95782663D01*
X57005649Y-95687119D01*
X56948194Y-95601132D01*
X56875068Y-95528006D01*
X56789081Y-95470551D01*
X56693537Y-95430976D01*
X56592108Y-95410800D01*
X56488692Y-95410800D01*
X56387263Y-95430976D01*
X56291719Y-95470551D01*
X56205732Y-95528006D01*
X56132606Y-95601132D01*
X56075151Y-95687119D01*
X56035576Y-95782663D01*
X56015400Y-95884092D01*
X49950135Y-95884092D01*
X49912962Y-95199724D01*
X49901941Y-92179658D01*
X49958236Y-90981892D01*
X56015400Y-90981892D01*
X56015400Y-91085308D01*
X56035576Y-91186737D01*
X56075151Y-91282281D01*
X56132606Y-91368268D01*
X56205732Y-91441394D01*
X56291719Y-91498849D01*
X56387263Y-91538424D01*
X56488692Y-91558600D01*
X56592108Y-91558600D01*
X56693537Y-91538424D01*
X56789081Y-91498849D01*
X56875068Y-91441394D01*
X56948194Y-91368268D01*
X57005649Y-91282281D01*
X57045224Y-91186737D01*
X57065400Y-91085308D01*
X57065400Y-90981892D01*
X57045224Y-90880463D01*
X57005649Y-90784919D01*
X56948194Y-90698932D01*
X56875068Y-90625806D01*
X56789081Y-90568351D01*
X56693537Y-90528776D01*
X56592108Y-90508600D01*
X56488692Y-90508600D01*
X56387263Y-90528776D01*
X56291719Y-90568351D01*
X56205732Y-90625806D01*
X56132606Y-90698932D01*
X56075151Y-90784919D01*
X56035576Y-90880463D01*
X56015400Y-90981892D01*
X49958236Y-90981892D01*
X50041802Y-89203892D01*
X56980600Y-89203892D01*
X56980600Y-89307308D01*
X57000776Y-89408737D01*
X57040351Y-89504281D01*
X57097806Y-89590268D01*
X57170932Y-89663394D01*
X57256919Y-89720849D01*
X57352463Y-89760424D01*
X57453892Y-89780600D01*
X57557308Y-89780600D01*
X57658737Y-89760424D01*
X57754281Y-89720849D01*
X57840268Y-89663394D01*
X57881671Y-89621991D01*
X57889776Y-89662737D01*
X57929351Y-89758281D01*
X57986806Y-89844268D01*
X58059932Y-89917394D01*
X58145919Y-89974849D01*
X58241463Y-90014424D01*
X58342892Y-90034600D01*
X58446308Y-90034600D01*
X58543241Y-90015318D01*
X58543240Y-97139176D01*
X58521015Y-97161400D01*
X58483062Y-97161400D01*
X58475268Y-97153606D01*
X58389281Y-97096151D01*
X58293737Y-97056576D01*
X58192308Y-97036400D01*
X58088892Y-97036400D01*
X57987463Y-97056576D01*
X57891919Y-97096151D01*
X57805932Y-97153606D01*
X57732806Y-97226732D01*
X57675351Y-97312719D01*
X57635776Y-97408263D01*
X57615600Y-97509692D01*
X57615600Y-97613108D01*
X57635776Y-97714537D01*
X57675351Y-97810081D01*
X57732806Y-97896068D01*
X57805932Y-97969194D01*
X57891919Y-98026649D01*
X57987463Y-98066224D01*
X58088892Y-98086400D01*
X58192308Y-98086400D01*
X58293737Y-98066224D01*
X58389281Y-98026649D01*
X58470821Y-97972166D01*
X58477200Y-97978545D01*
X58477201Y-100462744D01*
X58475265Y-100482400D01*
X58482988Y-100560813D01*
X58505861Y-100636214D01*
X58543003Y-100705702D01*
X58580465Y-100751350D01*
X58580468Y-100751353D01*
X58592990Y-100766611D01*
X58608248Y-100779133D01*
X60204400Y-102375285D01*
X60204401Y-103586944D01*
X60202465Y-103606600D01*
X60210188Y-103685013D01*
X60233061Y-103760414D01*
X60270203Y-103829902D01*
X60307665Y-103875550D01*
X60307668Y-103875553D01*
X60320190Y-103890811D01*
X60335448Y-103903333D01*
X64676467Y-108244353D01*
X64688989Y-108259611D01*
X64704247Y-108272133D01*
X64704249Y-108272135D01*
X64736182Y-108298341D01*
X64749897Y-108309597D01*
X64819386Y-108346740D01*
X64894786Y-108369612D01*
X64953553Y-108375400D01*
X64953563Y-108375400D01*
X64973199Y-108377334D01*
X64992835Y-108375400D01*
X74910354Y-108375400D01*
X74930000Y-108377335D01*
X74949646Y-108375400D01*
X74949647Y-108375400D01*
X75008414Y-108369612D01*
X75083814Y-108346740D01*
X75153303Y-108309597D01*
X75214211Y-108259611D01*
X75226737Y-108244348D01*
X79689674Y-103781412D01*
X79704931Y-103768891D01*
X79718124Y-103752816D01*
X79741821Y-103723940D01*
X79754917Y-103707983D01*
X79792060Y-103638494D01*
X79814932Y-103563094D01*
X79820720Y-103504327D01*
X79820720Y-103504317D01*
X79822654Y-103484681D01*
X79820720Y-103465045D01*
X79820720Y-102786765D01*
X81447686Y-101159800D01*
X81458708Y-101159800D01*
X81560137Y-101139624D01*
X81655681Y-101100049D01*
X81741668Y-101042594D01*
X81814794Y-100969468D01*
X81872249Y-100883481D01*
X81911824Y-100787937D01*
X81932000Y-100686508D01*
X81932000Y-100675485D01*
X82077302Y-100530183D01*
X86593094Y-100530183D01*
X86593094Y-100764443D01*
X86638796Y-100994203D01*
X86728444Y-101210632D01*
X86858593Y-101405413D01*
X87024240Y-101571060D01*
X87219021Y-101701209D01*
X87435450Y-101790857D01*
X87665210Y-101836559D01*
X87899470Y-101836559D01*
X88129230Y-101790857D01*
X88345659Y-101701209D01*
X88540440Y-101571060D01*
X88706087Y-101405413D01*
X88836236Y-101210632D01*
X88925884Y-100994203D01*
X88971586Y-100764443D01*
X88971586Y-100530183D01*
X88925884Y-100300423D01*
X88836236Y-100083994D01*
X88706087Y-99889213D01*
X88540440Y-99723566D01*
X88345659Y-99593417D01*
X88129230Y-99503769D01*
X87899470Y-99458067D01*
X87665210Y-99458067D01*
X87435450Y-99503769D01*
X87219021Y-99593417D01*
X87024240Y-99723566D01*
X86858593Y-99889213D01*
X86728444Y-100083994D01*
X86638796Y-100300423D01*
X86593094Y-100530183D01*
X82077302Y-100530183D01*
X83723189Y-98884296D01*
X83738451Y-98871771D01*
X83788437Y-98810863D01*
X83825580Y-98741374D01*
X83848452Y-98665974D01*
X83854240Y-98607207D01*
X83854240Y-98607206D01*
X83856175Y-98587560D01*
X83854240Y-98567913D01*
X83854240Y-95223692D01*
X83955400Y-95223692D01*
X83955400Y-95327108D01*
X83975576Y-95428537D01*
X84015151Y-95524081D01*
X84072606Y-95610068D01*
X84145732Y-95683194D01*
X84231719Y-95740649D01*
X84327263Y-95780224D01*
X84428692Y-95800400D01*
X84532108Y-95800400D01*
X84633537Y-95780224D01*
X84729081Y-95740649D01*
X84815068Y-95683194D01*
X84888194Y-95610068D01*
X84945649Y-95524081D01*
X84985224Y-95428537D01*
X85005400Y-95327108D01*
X85005400Y-95223692D01*
X84985224Y-95122263D01*
X84945649Y-95026719D01*
X84888194Y-94940732D01*
X84815068Y-94867606D01*
X84729081Y-94810151D01*
X84633537Y-94770576D01*
X84532108Y-94750400D01*
X84428692Y-94750400D01*
X84327263Y-94770576D01*
X84231719Y-94810151D01*
X84145732Y-94867606D01*
X84072606Y-94940732D01*
X84015151Y-95026719D01*
X83975576Y-95122263D01*
X83955400Y-95223692D01*
X83854240Y-95223692D01*
X83854240Y-91134292D01*
X83930000Y-91134292D01*
X83930000Y-91237708D01*
X83950176Y-91339137D01*
X83989751Y-91434681D01*
X84047206Y-91520668D01*
X84120332Y-91593794D01*
X84206319Y-91651249D01*
X84301863Y-91690824D01*
X84403292Y-91711000D01*
X84506708Y-91711000D01*
X84608137Y-91690824D01*
X84703681Y-91651249D01*
X84789668Y-91593794D01*
X84862794Y-91520668D01*
X84920249Y-91434681D01*
X84959824Y-91339137D01*
X84980000Y-91237708D01*
X84980000Y-91134292D01*
X84959824Y-91032863D01*
X84920249Y-90937319D01*
X84862794Y-90851332D01*
X84789668Y-90778206D01*
X84703681Y-90720751D01*
X84608137Y-90681176D01*
X84506708Y-90661000D01*
X84403292Y-90661000D01*
X84301863Y-90681176D01*
X84206319Y-90720751D01*
X84120332Y-90778206D01*
X84047206Y-90851332D01*
X83989751Y-90937319D01*
X83950176Y-91032863D01*
X83930000Y-91134292D01*
X83854240Y-91134292D01*
X83854240Y-90133486D01*
X83856174Y-90113850D01*
X83854240Y-90094214D01*
X83854240Y-90094204D01*
X83848452Y-90035437D01*
X83825580Y-89960037D01*
X83788437Y-89890548D01*
X83770184Y-89868307D01*
X83750975Y-89844900D01*
X83750973Y-89844898D01*
X83738451Y-89829640D01*
X83723193Y-89817118D01*
X83278200Y-89372126D01*
X83278200Y-89361103D01*
X83258024Y-89259674D01*
X83218449Y-89164130D01*
X83160994Y-89078143D01*
X83087868Y-89005017D01*
X83001881Y-88947562D01*
X82906337Y-88907987D01*
X82804908Y-88887811D01*
X82701492Y-88887811D01*
X82600063Y-88907987D01*
X82504519Y-88947562D01*
X82492800Y-88955392D01*
X82492800Y-88328062D01*
X82500594Y-88320268D01*
X82558049Y-88234281D01*
X82597624Y-88138737D01*
X82617800Y-88037308D01*
X82617800Y-87933892D01*
X82597624Y-87832463D01*
X82558049Y-87736919D01*
X82500594Y-87650932D01*
X82427468Y-87577806D01*
X82341481Y-87520351D01*
X82245937Y-87480776D01*
X82144508Y-87460600D01*
X82041092Y-87460600D01*
X81939663Y-87480776D01*
X81850201Y-87517832D01*
X81850201Y-86430993D01*
X81852136Y-86411346D01*
X81844413Y-86332932D01*
X81833517Y-86297012D01*
X81830400Y-86286737D01*
X81830400Y-86214837D01*
X81823382Y-86179556D01*
X86593094Y-86179556D01*
X86593094Y-86413816D01*
X86638796Y-86643576D01*
X86728444Y-86860005D01*
X86858593Y-87054786D01*
X87024240Y-87220433D01*
X87219021Y-87350582D01*
X87435450Y-87440230D01*
X87665210Y-87485932D01*
X87899470Y-87485932D01*
X88129230Y-87440230D01*
X88345659Y-87350582D01*
X88540440Y-87220433D01*
X88706087Y-87054786D01*
X88836236Y-86860005D01*
X88925884Y-86643576D01*
X88971586Y-86413816D01*
X88971586Y-86179556D01*
X88925884Y-85949796D01*
X88836236Y-85733367D01*
X88706087Y-85538586D01*
X88540440Y-85372939D01*
X88345659Y-85242790D01*
X88129230Y-85153142D01*
X87899470Y-85107440D01*
X87665210Y-85107440D01*
X87435450Y-85153142D01*
X87219021Y-85242790D01*
X87024240Y-85372939D01*
X86858593Y-85538586D01*
X86728444Y-85733367D01*
X86638796Y-85949796D01*
X86593094Y-86179556D01*
X81823382Y-86179556D01*
X81810224Y-86113408D01*
X81770649Y-86017864D01*
X81713194Y-85931877D01*
X81705400Y-85924083D01*
X81705400Y-85632887D01*
X81707335Y-85613240D01*
X81699612Y-85534826D01*
X81676740Y-85459426D01*
X81639597Y-85389937D01*
X81637430Y-85387297D01*
X81589611Y-85329029D01*
X81574348Y-85316503D01*
X76875197Y-80617352D01*
X76862671Y-80602089D01*
X76801763Y-80552103D01*
X76732274Y-80514960D01*
X76656874Y-80492088D01*
X76598107Y-80486300D01*
X76598106Y-80486300D01*
X76578460Y-80484365D01*
X76558814Y-80486300D01*
X73697562Y-80486300D01*
X73737594Y-80446268D01*
X73795049Y-80360281D01*
X73834624Y-80264737D01*
X73854800Y-80163308D01*
X73854800Y-80059892D01*
X73834624Y-79958463D01*
X73795049Y-79862919D01*
X73737594Y-79776932D01*
X73664468Y-79703806D01*
X73578481Y-79646351D01*
X73482937Y-79606776D01*
X73381508Y-79586600D01*
X73278092Y-79586600D01*
X73176663Y-79606776D01*
X73081119Y-79646351D01*
X72995132Y-79703806D01*
X72922006Y-79776932D01*
X72864551Y-79862919D01*
X72824976Y-79958463D01*
X72804800Y-80059892D01*
X72804800Y-80163308D01*
X72824976Y-80264737D01*
X72864551Y-80360281D01*
X72922006Y-80446268D01*
X72962038Y-80486300D01*
X65818347Y-80486300D01*
X65798700Y-80484365D01*
X65720286Y-80492088D01*
X65644886Y-80514960D01*
X65575397Y-80552103D01*
X65529749Y-80589565D01*
X65529747Y-80589567D01*
X65514489Y-80602089D01*
X65501967Y-80617347D01*
X62341715Y-83777600D01*
X62330692Y-83777600D01*
X62229263Y-83797776D01*
X62133719Y-83837351D01*
X62047732Y-83894806D01*
X61974606Y-83967932D01*
X61917151Y-84053919D01*
X61877576Y-84149463D01*
X61857400Y-84250892D01*
X61857400Y-84261915D01*
X61630852Y-84488463D01*
X61615589Y-84500989D01*
X61565603Y-84561898D01*
X61528460Y-84631387D01*
X61517266Y-84668289D01*
X61505588Y-84706787D01*
X61497865Y-84785200D01*
X61499800Y-84804847D01*
X61499801Y-86321313D01*
X59468240Y-88352875D01*
X59468240Y-88335212D01*
X59448064Y-88233783D01*
X59408489Y-88138239D01*
X59351034Y-88052252D01*
X59277908Y-87979126D01*
X59191921Y-87921671D01*
X59096377Y-87882096D01*
X58994948Y-87861920D01*
X58891532Y-87861920D01*
X58790103Y-87882096D01*
X58694559Y-87921671D01*
X58608572Y-87979126D01*
X58535446Y-88052252D01*
X58477991Y-88138239D01*
X58438416Y-88233783D01*
X58418240Y-88335212D01*
X58418240Y-88438628D01*
X58438416Y-88540057D01*
X58477991Y-88635601D01*
X58535446Y-88721588D01*
X58543241Y-88729383D01*
X58543241Y-89003882D01*
X58446308Y-88984600D01*
X58342892Y-88984600D01*
X58241463Y-89004776D01*
X58145919Y-89044351D01*
X58059932Y-89101806D01*
X58018529Y-89143209D01*
X58010424Y-89102463D01*
X57970849Y-89006919D01*
X57913394Y-88920932D01*
X57840268Y-88847806D01*
X57754281Y-88790351D01*
X57658737Y-88750776D01*
X57557308Y-88730600D01*
X57453892Y-88730600D01*
X57352463Y-88750776D01*
X57256919Y-88790351D01*
X57170932Y-88847806D01*
X57097806Y-88920932D01*
X57040351Y-89006919D01*
X57000776Y-89102463D01*
X56980600Y-89203892D01*
X50041802Y-89203892D01*
X50043730Y-89162881D01*
X50335769Y-86179556D01*
X51947613Y-86179556D01*
X51947613Y-86413816D01*
X51993315Y-86643576D01*
X52082963Y-86860005D01*
X52213112Y-87054786D01*
X52378759Y-87220433D01*
X52573540Y-87350582D01*
X52789969Y-87440230D01*
X53019729Y-87485932D01*
X53253989Y-87485932D01*
X53483749Y-87440230D01*
X53700178Y-87350582D01*
X53894959Y-87220433D01*
X54060606Y-87054786D01*
X54190755Y-86860005D01*
X54280403Y-86643576D01*
X54326105Y-86413816D01*
X54326105Y-86179556D01*
X54280403Y-85949796D01*
X54190755Y-85733367D01*
X54060606Y-85538586D01*
X53894959Y-85372939D01*
X53700178Y-85242790D01*
X53483749Y-85153142D01*
X53253989Y-85107440D01*
X53019729Y-85107440D01*
X52789969Y-85153142D01*
X52573540Y-85242790D01*
X52378759Y-85372939D01*
X52213112Y-85538586D01*
X52082963Y-85733367D01*
X51993315Y-85949796D01*
X51947613Y-86179556D01*
X50335769Y-86179556D01*
X50338304Y-86153669D01*
X50391072Y-85738880D01*
X50576150Y-84908098D01*
X50742862Y-84463570D01*
X54401307Y-76032129D01*
X62095040Y-76032129D01*
X62095040Y-76266389D01*
X62140742Y-76496149D01*
X62230390Y-76712578D01*
X62360539Y-76907359D01*
X62526186Y-77073006D01*
X62720967Y-77203155D01*
X62937396Y-77292803D01*
X63167156Y-77338505D01*
X63401416Y-77338505D01*
X63631176Y-77292803D01*
X63847605Y-77203155D01*
X64042386Y-77073006D01*
X64208033Y-76907359D01*
X64338182Y-76712578D01*
X64427830Y-76496149D01*
X64473532Y-76266389D01*
X64473532Y-76032129D01*
X76445667Y-76032129D01*
X76445667Y-76266389D01*
X76491369Y-76496149D01*
X76581017Y-76712578D01*
X76711166Y-76907359D01*
X76876813Y-77073006D01*
X77071594Y-77203155D01*
X77288023Y-77292803D01*
X77517783Y-77338505D01*
X77752043Y-77338505D01*
X77981803Y-77292803D01*
X78198232Y-77203155D01*
X78393013Y-77073006D01*
X78558660Y-76907359D01*
X78688809Y-76712578D01*
X78778457Y-76496149D01*
X78824159Y-76266389D01*
X78824159Y-76032129D01*
X78778457Y-75802369D01*
X78688809Y-75585940D01*
X78558660Y-75391159D01*
X78393013Y-75225512D01*
X78198232Y-75095363D01*
X77981803Y-75005715D01*
X77752043Y-74960013D01*
X77517783Y-74960013D01*
X77288023Y-75005715D01*
X77071594Y-75095363D01*
X76876813Y-75225512D01*
X76711166Y-75391159D01*
X76581017Y-75585940D01*
X76491369Y-75802369D01*
X76445667Y-76032129D01*
X64473532Y-76032129D01*
X64427830Y-75802369D01*
X64338182Y-75585940D01*
X64208033Y-75391159D01*
X64042386Y-75225512D01*
X63847605Y-75095363D01*
X63631176Y-75005715D01*
X63401416Y-74960013D01*
X63167156Y-74960013D01*
X62937396Y-75005715D01*
X62720967Y-75095363D01*
X62526186Y-75225512D01*
X62360539Y-75391159D01*
X62230390Y-75585940D01*
X62140742Y-75802369D01*
X62095040Y-76032129D01*
X54401307Y-76032129D01*
X56490228Y-71217895D01*
X56561814Y-71089049D01*
X56646749Y-70988743D01*
X56749548Y-70906844D01*
X56866292Y-70846475D01*
X56993450Y-70809668D01*
X57130746Y-70796999D01*
X59693707Y-70797001D01*
G37*
X59693707Y-70797001D02*
X59743290Y-70801862D01*
X59775691Y-70811645D01*
X59805583Y-70827538D01*
X59831814Y-70848933D01*
X59853392Y-70875016D01*
X59869489Y-70904787D01*
X59879500Y-70937126D01*
X59884602Y-70985670D01*
X59884601Y-74087961D01*
X59885972Y-74101884D01*
X59885951Y-74104947D01*
X59886393Y-74109463D01*
X59896593Y-74206512D01*
X59902520Y-74235386D01*
X59908036Y-74264300D01*
X59909347Y-74268645D01*
X59938203Y-74361864D01*
X59949637Y-74389064D01*
X59960654Y-74416331D01*
X59962784Y-74420338D01*
X60009197Y-74506176D01*
X60025670Y-74530598D01*
X60041798Y-74555243D01*
X60044666Y-74558760D01*
X60106867Y-74633949D01*
X60127793Y-74654729D01*
X60148376Y-74675748D01*
X60151872Y-74678641D01*
X60227493Y-74740317D01*
X60252040Y-74756626D01*
X60276337Y-74773262D01*
X60280328Y-74775421D01*
X60366489Y-74821233D01*
X60393740Y-74832465D01*
X60420794Y-74844060D01*
X60425129Y-74845402D01*
X60518547Y-74873607D01*
X60547446Y-74879329D01*
X60576258Y-74885453D01*
X60580771Y-74885928D01*
X60677888Y-74895450D01*
X60677893Y-74895450D01*
X60693640Y-74897001D01*
X80225560Y-74897001D01*
X80239483Y-74895630D01*
X80242545Y-74895651D01*
X80247061Y-74895209D01*
X80344110Y-74885009D01*
X80372984Y-74879082D01*
X80401898Y-74873566D01*
X80406243Y-74872255D01*
X80499462Y-74843399D01*
X80526662Y-74831965D01*
X80553929Y-74820948D01*
X80557936Y-74818818D01*
X80643774Y-74772405D01*
X80668196Y-74755932D01*
X80692841Y-74739804D01*
X80696358Y-74736936D01*
X80771547Y-74674735D01*
X80792327Y-74653809D01*
X80813346Y-74633226D01*
X80816239Y-74629730D01*
X80877915Y-74554109D01*
X80894224Y-74529562D01*
X80910860Y-74505265D01*
X80913019Y-74501274D01*
X80958831Y-74415113D01*
X80970063Y-74387862D01*
X80981658Y-74360808D01*
X80983000Y-74356473D01*
X81011205Y-74263055D01*
X81016927Y-74234156D01*
X81023051Y-74205344D01*
X81023526Y-74200831D01*
X81033048Y-74103714D01*
X81033048Y-74103709D01*
X81034599Y-74087962D01*
X81034599Y-70987895D01*
X81039460Y-70938312D01*
X81049243Y-70905911D01*
X81065136Y-70876019D01*
X81086531Y-70849788D01*
X81112614Y-70828210D01*
X81142385Y-70812113D01*
X81174724Y-70802102D01*
X81223258Y-70797001D01*
X83787527Y-70797001D01*
X83934229Y-70811385D01*
X84060053Y-70849374D01*
X84176099Y-70911077D01*
X84277956Y-70994149D01*
X84362332Y-71096142D01*
X84428604Y-71217051D01*
X90173859Y-84457864D01*
X90442090Y-85266256D01*
X90526705Y-85729214D01*
X90842435Y-88728609D01*
X91006237Y-91744276D01*
X91017258Y-94764341D01*
X90875469Y-97781117D01*
X90580894Y-100790335D01*
X90528129Y-101205107D01*
X90343046Y-102035910D01*
X90176346Y-102480404D01*
X84428974Y-115726098D01*
X84357384Y-115854951D01*
X84272449Y-115955258D01*
X84169649Y-116037156D01*
X84052905Y-116097524D01*
X83925749Y-116134331D01*
X83788463Y-116146999D01*
X81225493Y-116146999D01*
X81175910Y-116142138D01*
X81143509Y-116132355D01*
X81113615Y-116116461D01*
X81087385Y-116095067D01*
X81065810Y-116068988D01*
X81049710Y-116039212D01*
X81039700Y-116006874D01*
X81034599Y-115958341D01*
X81034599Y-112856038D01*
X81033228Y-112842115D01*
X81033249Y-112839054D01*
X81032807Y-112834537D01*
X81022607Y-112737489D01*
X81016682Y-112708628D01*
X81011164Y-112679700D01*
X81009853Y-112675355D01*
X80980997Y-112582136D01*
X80969568Y-112554949D01*
X80958546Y-112527668D01*
X80956416Y-112523661D01*
X80910003Y-112437824D01*
X80893535Y-112413410D01*
X80877402Y-112388757D01*
X80874534Y-112385240D01*
X80812332Y-112310051D01*
X80791426Y-112289291D01*
X80770824Y-112268252D01*
X80767327Y-112265359D01*
X80691707Y-112203683D01*
X80667175Y-112187384D01*
X80642863Y-112170738D01*
X80638872Y-112168579D01*
X80552711Y-112122767D01*
X80525460Y-112111535D01*
X80498406Y-112099940D01*
X80494071Y-112098598D01*
X80400653Y-112070393D01*
X80371762Y-112064673D01*
X80342943Y-112058547D01*
X80338429Y-112058072D01*
X80241312Y-112048550D01*
X80241307Y-112048550D01*
X80225560Y-112046999D01*
X60693640Y-112046999D01*
X60679717Y-112048370D01*
X60676656Y-112048349D01*
X60672139Y-112048791D01*
X60575091Y-112058991D01*
X60546230Y-112064916D01*
X60517302Y-112070434D01*
X60512957Y-112071745D01*
X60419738Y-112100601D01*
X60392551Y-112112030D01*
X60365270Y-112123052D01*
X60361263Y-112125182D01*
X60275426Y-112171595D01*
X60251012Y-112188063D01*
X60226359Y-112204196D01*
X60222842Y-112207064D01*
X60147653Y-112269266D01*
X60126893Y-112290172D01*
X60105854Y-112310774D01*
X60102961Y-112314271D01*
X60102957Y-112314275D01*
X60041285Y-112389891D01*
X60024986Y-112414423D01*
X60008340Y-112438735D01*
X60006181Y-112442726D01*
X59960369Y-112528887D01*
X59949137Y-112556138D01*
X59937542Y-112583192D01*
X59936200Y-112587527D01*
X59907995Y-112680945D01*
X59902275Y-112709836D01*
X59896149Y-112738655D01*
X59895674Y-112743169D01*
X59886152Y-112840286D01*
X59886152Y-112840301D01*
X59884602Y-112856038D01*
X59884601Y-115956105D01*
X59879740Y-116005688D01*
X59869957Y-116038089D01*
X59854063Y-116067983D01*
X59832669Y-116094213D01*
X59806590Y-116115788D01*
X59776814Y-116131888D01*
X59744476Y-116141898D01*
X59695943Y-116146999D01*
X57131680Y-116146999D01*
X56984969Y-116132614D01*
X56859148Y-116094626D01*
X56743098Y-116032921D01*
X56641246Y-115949852D01*
X56556869Y-115847858D01*
X56490596Y-115726950D01*
X54299662Y-110677610D01*
X62095040Y-110677610D01*
X62095040Y-110911870D01*
X62140742Y-111141630D01*
X62230390Y-111358059D01*
X62360539Y-111552840D01*
X62526186Y-111718487D01*
X62720967Y-111848636D01*
X62937396Y-111938284D01*
X63167156Y-111983986D01*
X63401416Y-111983986D01*
X63631176Y-111938284D01*
X63847605Y-111848636D01*
X64042386Y-111718487D01*
X64208033Y-111552840D01*
X64338182Y-111358059D01*
X64427830Y-111141630D01*
X64473532Y-110911870D01*
X64473532Y-110677610D01*
X76445667Y-110677610D01*
X76445667Y-110911870D01*
X76491369Y-111141630D01*
X76581017Y-111358059D01*
X76711166Y-111552840D01*
X76876813Y-111718487D01*
X77071594Y-111848636D01*
X77288023Y-111938284D01*
X77517783Y-111983986D01*
X77752043Y-111983986D01*
X77981803Y-111938284D01*
X78198232Y-111848636D01*
X78393013Y-111718487D01*
X78558660Y-111552840D01*
X78688809Y-111358059D01*
X78778457Y-111141630D01*
X78824159Y-110911870D01*
X78824159Y-110677610D01*
X78778457Y-110447850D01*
X78688809Y-110231421D01*
X78558660Y-110036640D01*
X78393013Y-109870993D01*
X78198232Y-109740844D01*
X77981803Y-109651196D01*
X77752043Y-109605494D01*
X77517783Y-109605494D01*
X77288023Y-109651196D01*
X77071594Y-109740844D01*
X76876813Y-109870993D01*
X76711166Y-110036640D01*
X76581017Y-110231421D01*
X76491369Y-110447850D01*
X76445667Y-110677610D01*
X64473532Y-110677610D01*
X64427830Y-110447850D01*
X64338182Y-110231421D01*
X64208033Y-110036640D01*
X64042386Y-109870993D01*
X63847605Y-109740844D01*
X63631176Y-109651196D01*
X63401416Y-109605494D01*
X63167156Y-109605494D01*
X62937396Y-109651196D01*
X62720967Y-109740844D01*
X62526186Y-109870993D01*
X62360539Y-110036640D01*
X62230390Y-110231421D01*
X62140742Y-110447850D01*
X62095040Y-110677610D01*
X54299662Y-110677610D01*
X50745344Y-102486147D01*
X50477109Y-101677743D01*
X50392494Y-101214783D01*
X50320430Y-100530183D01*
X51947613Y-100530183D01*
X51947613Y-100764443D01*
X51993315Y-100994203D01*
X52082963Y-101210632D01*
X52213112Y-101405413D01*
X52378759Y-101571060D01*
X52573540Y-101701209D01*
X52789969Y-101790857D01*
X53019729Y-101836559D01*
X53253989Y-101836559D01*
X53483749Y-101790857D01*
X53700178Y-101701209D01*
X53894959Y-101571060D01*
X54060606Y-101405413D01*
X54190755Y-101210632D01*
X54280403Y-100994203D01*
X54326105Y-100764443D01*
X54326105Y-100530183D01*
X54280403Y-100300423D01*
X54190755Y-100083994D01*
X54060606Y-99889213D01*
X53894959Y-99723566D01*
X53700178Y-99593417D01*
X53483749Y-99503769D01*
X53253989Y-99458067D01*
X53019729Y-99458067D01*
X52789969Y-99503769D01*
X52573540Y-99593417D01*
X52378759Y-99723566D01*
X52213112Y-99889213D01*
X52082963Y-100083994D01*
X51993315Y-100300423D01*
X51947613Y-100530183D01*
X50320430Y-100530183D01*
X50076764Y-98215390D01*
X49950135Y-95884092D01*
X56015400Y-95884092D01*
X56015400Y-95987508D01*
X56035576Y-96088937D01*
X56075151Y-96184481D01*
X56132606Y-96270468D01*
X56205732Y-96343594D01*
X56291719Y-96401049D01*
X56387263Y-96440624D01*
X56488692Y-96460800D01*
X56592108Y-96460800D01*
X56693537Y-96440624D01*
X56789081Y-96401049D01*
X56875068Y-96343594D01*
X56948194Y-96270468D01*
X57005649Y-96184481D01*
X57045224Y-96088937D01*
X57065400Y-95987508D01*
X57065400Y-95884092D01*
X57045224Y-95782663D01*
X57005649Y-95687119D01*
X56948194Y-95601132D01*
X56875068Y-95528006D01*
X56789081Y-95470551D01*
X56693537Y-95430976D01*
X56592108Y-95410800D01*
X56488692Y-95410800D01*
X56387263Y-95430976D01*
X56291719Y-95470551D01*
X56205732Y-95528006D01*
X56132606Y-95601132D01*
X56075151Y-95687119D01*
X56035576Y-95782663D01*
X56015400Y-95884092D01*
X49950135Y-95884092D01*
X49912962Y-95199724D01*
X49901941Y-92179658D01*
X49958236Y-90981892D01*
X56015400Y-90981892D01*
X56015400Y-91085308D01*
X56035576Y-91186737D01*
X56075151Y-91282281D01*
X56132606Y-91368268D01*
X56205732Y-91441394D01*
X56291719Y-91498849D01*
X56387263Y-91538424D01*
X56488692Y-91558600D01*
X56592108Y-91558600D01*
X56693537Y-91538424D01*
X56789081Y-91498849D01*
X56875068Y-91441394D01*
X56948194Y-91368268D01*
X57005649Y-91282281D01*
X57045224Y-91186737D01*
X57065400Y-91085308D01*
X57065400Y-90981892D01*
X57045224Y-90880463D01*
X57005649Y-90784919D01*
X56948194Y-90698932D01*
X56875068Y-90625806D01*
X56789081Y-90568351D01*
X56693537Y-90528776D01*
X56592108Y-90508600D01*
X56488692Y-90508600D01*
X56387263Y-90528776D01*
X56291719Y-90568351D01*
X56205732Y-90625806D01*
X56132606Y-90698932D01*
X56075151Y-90784919D01*
X56035576Y-90880463D01*
X56015400Y-90981892D01*
X49958236Y-90981892D01*
X50041802Y-89203892D01*
X56980600Y-89203892D01*
X56980600Y-89307308D01*
X57000776Y-89408737D01*
X57040351Y-89504281D01*
X57097806Y-89590268D01*
X57170932Y-89663394D01*
X57256919Y-89720849D01*
X57352463Y-89760424D01*
X57453892Y-89780600D01*
X57557308Y-89780600D01*
X57658737Y-89760424D01*
X57754281Y-89720849D01*
X57840268Y-89663394D01*
X57881671Y-89621991D01*
X57889776Y-89662737D01*
X57929351Y-89758281D01*
X57986806Y-89844268D01*
X58059932Y-89917394D01*
X58145919Y-89974849D01*
X58241463Y-90014424D01*
X58342892Y-90034600D01*
X58446308Y-90034600D01*
X58543241Y-90015318D01*
X58543240Y-97139176D01*
X58521015Y-97161400D01*
X58483062Y-97161400D01*
X58475268Y-97153606D01*
X58389281Y-97096151D01*
X58293737Y-97056576D01*
X58192308Y-97036400D01*
X58088892Y-97036400D01*
X57987463Y-97056576D01*
X57891919Y-97096151D01*
X57805932Y-97153606D01*
X57732806Y-97226732D01*
X57675351Y-97312719D01*
X57635776Y-97408263D01*
X57615600Y-97509692D01*
X57615600Y-97613108D01*
X57635776Y-97714537D01*
X57675351Y-97810081D01*
X57732806Y-97896068D01*
X57805932Y-97969194D01*
X57891919Y-98026649D01*
X57987463Y-98066224D01*
X58088892Y-98086400D01*
X58192308Y-98086400D01*
X58293737Y-98066224D01*
X58389281Y-98026649D01*
X58470821Y-97972166D01*
X58477200Y-97978545D01*
X58477201Y-100462744D01*
X58475265Y-100482400D01*
X58482988Y-100560813D01*
X58505861Y-100636214D01*
X58543003Y-100705702D01*
X58580465Y-100751350D01*
X58580468Y-100751353D01*
X58592990Y-100766611D01*
X58608248Y-100779133D01*
X60204400Y-102375285D01*
X60204401Y-103586944D01*
X60202465Y-103606600D01*
X60210188Y-103685013D01*
X60233061Y-103760414D01*
X60270203Y-103829902D01*
X60307665Y-103875550D01*
X60307668Y-103875553D01*
X60320190Y-103890811D01*
X60335448Y-103903333D01*
X64676467Y-108244353D01*
X64688989Y-108259611D01*
X64704247Y-108272133D01*
X64704249Y-108272135D01*
X64736182Y-108298341D01*
X64749897Y-108309597D01*
X64819386Y-108346740D01*
X64894786Y-108369612D01*
X64953553Y-108375400D01*
X64953563Y-108375400D01*
X64973199Y-108377334D01*
X64992835Y-108375400D01*
X74910354Y-108375400D01*
X74930000Y-108377335D01*
X74949646Y-108375400D01*
X74949647Y-108375400D01*
X75008414Y-108369612D01*
X75083814Y-108346740D01*
X75153303Y-108309597D01*
X75214211Y-108259611D01*
X75226737Y-108244348D01*
X79689674Y-103781412D01*
X79704931Y-103768891D01*
X79718124Y-103752816D01*
X79741821Y-103723940D01*
X79754917Y-103707983D01*
X79792060Y-103638494D01*
X79814932Y-103563094D01*
X79820720Y-103504327D01*
X79820720Y-103504317D01*
X79822654Y-103484681D01*
X79820720Y-103465045D01*
X79820720Y-102786765D01*
X81447686Y-101159800D01*
X81458708Y-101159800D01*
X81560137Y-101139624D01*
X81655681Y-101100049D01*
X81741668Y-101042594D01*
X81814794Y-100969468D01*
X81872249Y-100883481D01*
X81911824Y-100787937D01*
X81932000Y-100686508D01*
X81932000Y-100675485D01*
X82077302Y-100530183D01*
X86593094Y-100530183D01*
X86593094Y-100764443D01*
X86638796Y-100994203D01*
X86728444Y-101210632D01*
X86858593Y-101405413D01*
X87024240Y-101571060D01*
X87219021Y-101701209D01*
X87435450Y-101790857D01*
X87665210Y-101836559D01*
X87899470Y-101836559D01*
X88129230Y-101790857D01*
X88345659Y-101701209D01*
X88540440Y-101571060D01*
X88706087Y-101405413D01*
X88836236Y-101210632D01*
X88925884Y-100994203D01*
X88971586Y-100764443D01*
X88971586Y-100530183D01*
X88925884Y-100300423D01*
X88836236Y-100083994D01*
X88706087Y-99889213D01*
X88540440Y-99723566D01*
X88345659Y-99593417D01*
X88129230Y-99503769D01*
X87899470Y-99458067D01*
X87665210Y-99458067D01*
X87435450Y-99503769D01*
X87219021Y-99593417D01*
X87024240Y-99723566D01*
X86858593Y-99889213D01*
X86728444Y-100083994D01*
X86638796Y-100300423D01*
X86593094Y-100530183D01*
X82077302Y-100530183D01*
X83723189Y-98884296D01*
X83738451Y-98871771D01*
X83788437Y-98810863D01*
X83825580Y-98741374D01*
X83848452Y-98665974D01*
X83854240Y-98607207D01*
X83854240Y-98607206D01*
X83856175Y-98587560D01*
X83854240Y-98567913D01*
X83854240Y-95223692D01*
X83955400Y-95223692D01*
X83955400Y-95327108D01*
X83975576Y-95428537D01*
X84015151Y-95524081D01*
X84072606Y-95610068D01*
X84145732Y-95683194D01*
X84231719Y-95740649D01*
X84327263Y-95780224D01*
X84428692Y-95800400D01*
X84532108Y-95800400D01*
X84633537Y-95780224D01*
X84729081Y-95740649D01*
X84815068Y-95683194D01*
X84888194Y-95610068D01*
X84945649Y-95524081D01*
X84985224Y-95428537D01*
X85005400Y-95327108D01*
X85005400Y-95223692D01*
X84985224Y-95122263D01*
X84945649Y-95026719D01*
X84888194Y-94940732D01*
X84815068Y-94867606D01*
X84729081Y-94810151D01*
X84633537Y-94770576D01*
X84532108Y-94750400D01*
X84428692Y-94750400D01*
X84327263Y-94770576D01*
X84231719Y-94810151D01*
X84145732Y-94867606D01*
X84072606Y-94940732D01*
X84015151Y-95026719D01*
X83975576Y-95122263D01*
X83955400Y-95223692D01*
X83854240Y-95223692D01*
X83854240Y-91134292D01*
X83930000Y-91134292D01*
X83930000Y-91237708D01*
X83950176Y-91339137D01*
X83989751Y-91434681D01*
X84047206Y-91520668D01*
X84120332Y-91593794D01*
X84206319Y-91651249D01*
X84301863Y-91690824D01*
X84403292Y-91711000D01*
X84506708Y-91711000D01*
X84608137Y-91690824D01*
X84703681Y-91651249D01*
X84789668Y-91593794D01*
X84862794Y-91520668D01*
X84920249Y-91434681D01*
X84959824Y-91339137D01*
X84980000Y-91237708D01*
X84980000Y-91134292D01*
X84959824Y-91032863D01*
X84920249Y-90937319D01*
X84862794Y-90851332D01*
X84789668Y-90778206D01*
X84703681Y-90720751D01*
X84608137Y-90681176D01*
X84506708Y-90661000D01*
X84403292Y-90661000D01*
X84301863Y-90681176D01*
X84206319Y-90720751D01*
X84120332Y-90778206D01*
X84047206Y-90851332D01*
X83989751Y-90937319D01*
X83950176Y-91032863D01*
X83930000Y-91134292D01*
X83854240Y-91134292D01*
X83854240Y-90133486D01*
X83856174Y-90113850D01*
X83854240Y-90094214D01*
X83854240Y-90094204D01*
X83848452Y-90035437D01*
X83825580Y-89960037D01*
X83788437Y-89890548D01*
X83770184Y-89868307D01*
X83750975Y-89844900D01*
X83750973Y-89844898D01*
X83738451Y-89829640D01*
X83723193Y-89817118D01*
X83278200Y-89372126D01*
X83278200Y-89361103D01*
X83258024Y-89259674D01*
X83218449Y-89164130D01*
X83160994Y-89078143D01*
X83087868Y-89005017D01*
X83001881Y-88947562D01*
X82906337Y-88907987D01*
X82804908Y-88887811D01*
X82701492Y-88887811D01*
X82600063Y-88907987D01*
X82504519Y-88947562D01*
X82492800Y-88955392D01*
X82492800Y-88328062D01*
X82500594Y-88320268D01*
X82558049Y-88234281D01*
X82597624Y-88138737D01*
X82617800Y-88037308D01*
X82617800Y-87933892D01*
X82597624Y-87832463D01*
X82558049Y-87736919D01*
X82500594Y-87650932D01*
X82427468Y-87577806D01*
X82341481Y-87520351D01*
X82245937Y-87480776D01*
X82144508Y-87460600D01*
X82041092Y-87460600D01*
X81939663Y-87480776D01*
X81850201Y-87517832D01*
X81850201Y-86430993D01*
X81852136Y-86411346D01*
X81844413Y-86332932D01*
X81833517Y-86297012D01*
X81830400Y-86286737D01*
X81830400Y-86214837D01*
X81823382Y-86179556D01*
X86593094Y-86179556D01*
X86593094Y-86413816D01*
X86638796Y-86643576D01*
X86728444Y-86860005D01*
X86858593Y-87054786D01*
X87024240Y-87220433D01*
X87219021Y-87350582D01*
X87435450Y-87440230D01*
X87665210Y-87485932D01*
X87899470Y-87485932D01*
X88129230Y-87440230D01*
X88345659Y-87350582D01*
X88540440Y-87220433D01*
X88706087Y-87054786D01*
X88836236Y-86860005D01*
X88925884Y-86643576D01*
X88971586Y-86413816D01*
X88971586Y-86179556D01*
X88925884Y-85949796D01*
X88836236Y-85733367D01*
X88706087Y-85538586D01*
X88540440Y-85372939D01*
X88345659Y-85242790D01*
X88129230Y-85153142D01*
X87899470Y-85107440D01*
X87665210Y-85107440D01*
X87435450Y-85153142D01*
X87219021Y-85242790D01*
X87024240Y-85372939D01*
X86858593Y-85538586D01*
X86728444Y-85733367D01*
X86638796Y-85949796D01*
X86593094Y-86179556D01*
X81823382Y-86179556D01*
X81810224Y-86113408D01*
X81770649Y-86017864D01*
X81713194Y-85931877D01*
X81705400Y-85924083D01*
X81705400Y-85632887D01*
X81707335Y-85613240D01*
X81699612Y-85534826D01*
X81676740Y-85459426D01*
X81639597Y-85389937D01*
X81637430Y-85387297D01*
X81589611Y-85329029D01*
X81574348Y-85316503D01*
X76875197Y-80617352D01*
X76862671Y-80602089D01*
X76801763Y-80552103D01*
X76732274Y-80514960D01*
X76656874Y-80492088D01*
X76598107Y-80486300D01*
X76598106Y-80486300D01*
X76578460Y-80484365D01*
X76558814Y-80486300D01*
X73697562Y-80486300D01*
X73737594Y-80446268D01*
X73795049Y-80360281D01*
X73834624Y-80264737D01*
X73854800Y-80163308D01*
X73854800Y-80059892D01*
X73834624Y-79958463D01*
X73795049Y-79862919D01*
X73737594Y-79776932D01*
X73664468Y-79703806D01*
X73578481Y-79646351D01*
X73482937Y-79606776D01*
X73381508Y-79586600D01*
X73278092Y-79586600D01*
X73176663Y-79606776D01*
X73081119Y-79646351D01*
X72995132Y-79703806D01*
X72922006Y-79776932D01*
X72864551Y-79862919D01*
X72824976Y-79958463D01*
X72804800Y-80059892D01*
X72804800Y-80163308D01*
X72824976Y-80264737D01*
X72864551Y-80360281D01*
X72922006Y-80446268D01*
X72962038Y-80486300D01*
X65818347Y-80486300D01*
X65798700Y-80484365D01*
X65720286Y-80492088D01*
X65644886Y-80514960D01*
X65575397Y-80552103D01*
X65529749Y-80589565D01*
X65529747Y-80589567D01*
X65514489Y-80602089D01*
X65501967Y-80617347D01*
X62341715Y-83777600D01*
X62330692Y-83777600D01*
X62229263Y-83797776D01*
X62133719Y-83837351D01*
X62047732Y-83894806D01*
X61974606Y-83967932D01*
X61917151Y-84053919D01*
X61877576Y-84149463D01*
X61857400Y-84250892D01*
X61857400Y-84261915D01*
X61630852Y-84488463D01*
X61615589Y-84500989D01*
X61565603Y-84561898D01*
X61528460Y-84631387D01*
X61517266Y-84668289D01*
X61505588Y-84706787D01*
X61497865Y-84785200D01*
X61499800Y-84804847D01*
X61499801Y-86321313D01*
X59468240Y-88352875D01*
X59468240Y-88335212D01*
X59448064Y-88233783D01*
X59408489Y-88138239D01*
X59351034Y-88052252D01*
X59277908Y-87979126D01*
X59191921Y-87921671D01*
X59096377Y-87882096D01*
X58994948Y-87861920D01*
X58891532Y-87861920D01*
X58790103Y-87882096D01*
X58694559Y-87921671D01*
X58608572Y-87979126D01*
X58535446Y-88052252D01*
X58477991Y-88138239D01*
X58438416Y-88233783D01*
X58418240Y-88335212D01*
X58418240Y-88438628D01*
X58438416Y-88540057D01*
X58477991Y-88635601D01*
X58535446Y-88721588D01*
X58543241Y-88729383D01*
X58543241Y-89003882D01*
X58446308Y-88984600D01*
X58342892Y-88984600D01*
X58241463Y-89004776D01*
X58145919Y-89044351D01*
X58059932Y-89101806D01*
X58018529Y-89143209D01*
X58010424Y-89102463D01*
X57970849Y-89006919D01*
X57913394Y-88920932D01*
X57840268Y-88847806D01*
X57754281Y-88790351D01*
X57658737Y-88750776D01*
X57557308Y-88730600D01*
X57453892Y-88730600D01*
X57352463Y-88750776D01*
X57256919Y-88790351D01*
X57170932Y-88847806D01*
X57097806Y-88920932D01*
X57040351Y-89006919D01*
X57000776Y-89102463D01*
X56980600Y-89203892D01*
X50041802Y-89203892D01*
X50043730Y-89162881D01*
X50335769Y-86179556D01*
X51947613Y-86179556D01*
X51947613Y-86413816D01*
X51993315Y-86643576D01*
X52082963Y-86860005D01*
X52213112Y-87054786D01*
X52378759Y-87220433D01*
X52573540Y-87350582D01*
X52789969Y-87440230D01*
X53019729Y-87485932D01*
X53253989Y-87485932D01*
X53483749Y-87440230D01*
X53700178Y-87350582D01*
X53894959Y-87220433D01*
X54060606Y-87054786D01*
X54190755Y-86860005D01*
X54280403Y-86643576D01*
X54326105Y-86413816D01*
X54326105Y-86179556D01*
X54280403Y-85949796D01*
X54190755Y-85733367D01*
X54060606Y-85538586D01*
X53894959Y-85372939D01*
X53700178Y-85242790D01*
X53483749Y-85153142D01*
X53253989Y-85107440D01*
X53019729Y-85107440D01*
X52789969Y-85153142D01*
X52573540Y-85242790D01*
X52378759Y-85372939D01*
X52213112Y-85538586D01*
X52082963Y-85733367D01*
X51993315Y-85949796D01*
X51947613Y-86179556D01*
X50335769Y-86179556D01*
X50338304Y-86153669D01*
X50391072Y-85738880D01*
X50576150Y-84908098D01*
X50742862Y-84463570D01*
X54401307Y-76032129D01*
X62095040Y-76032129D01*
X62095040Y-76266389D01*
X62140742Y-76496149D01*
X62230390Y-76712578D01*
X62360539Y-76907359D01*
X62526186Y-77073006D01*
X62720967Y-77203155D01*
X62937396Y-77292803D01*
X63167156Y-77338505D01*
X63401416Y-77338505D01*
X63631176Y-77292803D01*
X63847605Y-77203155D01*
X64042386Y-77073006D01*
X64208033Y-76907359D01*
X64338182Y-76712578D01*
X64427830Y-76496149D01*
X64473532Y-76266389D01*
X64473532Y-76032129D01*
X76445667Y-76032129D01*
X76445667Y-76266389D01*
X76491369Y-76496149D01*
X76581017Y-76712578D01*
X76711166Y-76907359D01*
X76876813Y-77073006D01*
X77071594Y-77203155D01*
X77288023Y-77292803D01*
X77517783Y-77338505D01*
X77752043Y-77338505D01*
X77981803Y-77292803D01*
X78198232Y-77203155D01*
X78393013Y-77073006D01*
X78558660Y-76907359D01*
X78688809Y-76712578D01*
X78778457Y-76496149D01*
X78824159Y-76266389D01*
X78824159Y-76032129D01*
X78778457Y-75802369D01*
X78688809Y-75585940D01*
X78558660Y-75391159D01*
X78393013Y-75225512D01*
X78198232Y-75095363D01*
X77981803Y-75005715D01*
X77752043Y-74960013D01*
X77517783Y-74960013D01*
X77288023Y-75005715D01*
X77071594Y-75095363D01*
X76876813Y-75225512D01*
X76711166Y-75391159D01*
X76581017Y-75585940D01*
X76491369Y-75802369D01*
X76445667Y-76032129D01*
X64473532Y-76032129D01*
X64427830Y-75802369D01*
X64338182Y-75585940D01*
X64208033Y-75391159D01*
X64042386Y-75225512D01*
X63847605Y-75095363D01*
X63631176Y-75005715D01*
X63401416Y-74960013D01*
X63167156Y-74960013D01*
X62937396Y-75005715D01*
X62720967Y-75095363D01*
X62526186Y-75225512D01*
X62360539Y-75391159D01*
X62230390Y-75585940D01*
X62140742Y-75802369D01*
X62095040Y-76032129D01*
X54401307Y-76032129D01*
X56490228Y-71217895D01*
X56561814Y-71089049D01*
X56646749Y-70988743D01*
X56749548Y-70906844D01*
X56866292Y-70846475D01*
X56993450Y-70809668D01*
X57130746Y-70796999D01*
X59693707Y-70797001D01*
G36*
X65552767Y-105297953D02*
G01*
X65565289Y-105313211D01*
X65580547Y-105325733D01*
X65580549Y-105325735D01*
X65609767Y-105349713D01*
X65626197Y-105363197D01*
X65695686Y-105400340D01*
X65771086Y-105423212D01*
X65778275Y-105423920D01*
X65849500Y-105430935D01*
X65869147Y-105429000D01*
X66860858Y-105429000D01*
X66863572Y-105431714D01*
X66949559Y-105489169D01*
X67045103Y-105528744D01*
X67146532Y-105548920D01*
X67249948Y-105548920D01*
X67351377Y-105528744D01*
X67446921Y-105489169D01*
X67532908Y-105431714D01*
X67540702Y-105423920D01*
X68660695Y-105423920D01*
X68998093Y-105761318D01*
X68994800Y-105777871D01*
X68994800Y-105881287D01*
X69014976Y-105982716D01*
X69032905Y-106026000D01*
X65836687Y-106026000D01*
X64025105Y-104214418D01*
X64055624Y-104140737D01*
X64075800Y-104039308D01*
X64075800Y-103935892D01*
X64055624Y-103834463D01*
X64031828Y-103777013D01*
X65552767Y-105297953D01*
G37*
X65552767Y-105297953D02*
X65565289Y-105313211D01*
X65580547Y-105325733D01*
X65580549Y-105325735D01*
X65609767Y-105349713D01*
X65626197Y-105363197D01*
X65695686Y-105400340D01*
X65771086Y-105423212D01*
X65778275Y-105423920D01*
X65849500Y-105430935D01*
X65869147Y-105429000D01*
X66860858Y-105429000D01*
X66863572Y-105431714D01*
X66949559Y-105489169D01*
X67045103Y-105528744D01*
X67146532Y-105548920D01*
X67249948Y-105548920D01*
X67351377Y-105528744D01*
X67446921Y-105489169D01*
X67532908Y-105431714D01*
X67540702Y-105423920D01*
X68660695Y-105423920D01*
X68998093Y-105761318D01*
X68994800Y-105777871D01*
X68994800Y-105881287D01*
X69014976Y-105982716D01*
X69032905Y-106026000D01*
X65836687Y-106026000D01*
X64025105Y-104214418D01*
X64055624Y-104140737D01*
X64075800Y-104039308D01*
X64075800Y-103935892D01*
X64055624Y-103834463D01*
X64031828Y-103777013D01*
X65552767Y-105297953D01*
G36*
X62218363Y-99392448D02*
G01*
X62230889Y-99407711D01*
X62291797Y-99457697D01*
X62361286Y-99494840D01*
X62436686Y-99517712D01*
X62495453Y-99523500D01*
X62495463Y-99523500D01*
X62515099Y-99525434D01*
X62534735Y-99523500D01*
X65053771Y-99523500D01*
X65045100Y-99567092D01*
X65045100Y-99637895D01*
X64950221Y-99598595D01*
X64848792Y-99578419D01*
X64745376Y-99578419D01*
X64643947Y-99598595D01*
X64548403Y-99638170D01*
X64462416Y-99695625D01*
X64389290Y-99768751D01*
X64331835Y-99854738D01*
X64292260Y-99950282D01*
X64272084Y-100051711D01*
X64272084Y-100155127D01*
X64292260Y-100256556D01*
X64331835Y-100352100D01*
X64389290Y-100438087D01*
X64462416Y-100511213D01*
X64548403Y-100568668D01*
X64643947Y-100608243D01*
X64745376Y-100628419D01*
X64756399Y-100628419D01*
X67180572Y-103052593D01*
X67193094Y-103067851D01*
X67208352Y-103080373D01*
X67208354Y-103080375D01*
X67254002Y-103117837D01*
X67323490Y-103154980D01*
X67398891Y-103177852D01*
X67477305Y-103185575D01*
X67496951Y-103183640D01*
X72431340Y-103183640D01*
X72450986Y-103185575D01*
X72470632Y-103183640D01*
X72470633Y-103183640D01*
X72529400Y-103177852D01*
X72604800Y-103154980D01*
X72674289Y-103117837D01*
X72735197Y-103067851D01*
X72747723Y-103052588D01*
X73281598Y-102518713D01*
X73292621Y-102518713D01*
X73394050Y-102498537D01*
X73429776Y-102483739D01*
X72714513Y-103199002D01*
X66034308Y-103199002D01*
X65264499Y-102429194D01*
X65264499Y-102418171D01*
X65244323Y-102316742D01*
X65204748Y-102221198D01*
X65147293Y-102135211D01*
X65074167Y-102062085D01*
X64988180Y-102004630D01*
X64892636Y-101965055D01*
X64791207Y-101944879D01*
X64687791Y-101944879D01*
X64586362Y-101965055D01*
X64490818Y-102004630D01*
X64404831Y-102062085D01*
X64386807Y-102080109D01*
X64367597Y-102044169D01*
X64317611Y-101983261D01*
X64302353Y-101970739D01*
X63519329Y-101187715D01*
X63557808Y-101162004D01*
X63630934Y-101088878D01*
X63688389Y-101002891D01*
X63727964Y-100907347D01*
X63748140Y-100805918D01*
X63748140Y-100702502D01*
X63727964Y-100601073D01*
X63688389Y-100505529D01*
X63630934Y-100419542D01*
X63557808Y-100346416D01*
X63471821Y-100288961D01*
X63376277Y-100249386D01*
X63274848Y-100229210D01*
X63171432Y-100229210D01*
X63070003Y-100249386D01*
X62974459Y-100288961D01*
X62888472Y-100346416D01*
X62815346Y-100419542D01*
X62789635Y-100458021D01*
X61725760Y-99394147D01*
X61725760Y-98899845D01*
X62218363Y-99392448D01*
G37*
X62218363Y-99392448D02*
X62230889Y-99407711D01*
X62291797Y-99457697D01*
X62361286Y-99494840D01*
X62436686Y-99517712D01*
X62495453Y-99523500D01*
X62495463Y-99523500D01*
X62515099Y-99525434D01*
X62534735Y-99523500D01*
X65053771Y-99523500D01*
X65045100Y-99567092D01*
X65045100Y-99637895D01*
X64950221Y-99598595D01*
X64848792Y-99578419D01*
X64745376Y-99578419D01*
X64643947Y-99598595D01*
X64548403Y-99638170D01*
X64462416Y-99695625D01*
X64389290Y-99768751D01*
X64331835Y-99854738D01*
X64292260Y-99950282D01*
X64272084Y-100051711D01*
X64272084Y-100155127D01*
X64292260Y-100256556D01*
X64331835Y-100352100D01*
X64389290Y-100438087D01*
X64462416Y-100511213D01*
X64548403Y-100568668D01*
X64643947Y-100608243D01*
X64745376Y-100628419D01*
X64756399Y-100628419D01*
X67180572Y-103052593D01*
X67193094Y-103067851D01*
X67208352Y-103080373D01*
X67208354Y-103080375D01*
X67254002Y-103117837D01*
X67323490Y-103154980D01*
X67398891Y-103177852D01*
X67477305Y-103185575D01*
X67496951Y-103183640D01*
X72431340Y-103183640D01*
X72450986Y-103185575D01*
X72470632Y-103183640D01*
X72470633Y-103183640D01*
X72529400Y-103177852D01*
X72604800Y-103154980D01*
X72674289Y-103117837D01*
X72735197Y-103067851D01*
X72747723Y-103052588D01*
X73281598Y-102518713D01*
X73292621Y-102518713D01*
X73394050Y-102498537D01*
X73429776Y-102483739D01*
X72714513Y-103199002D01*
X66034308Y-103199002D01*
X65264499Y-102429194D01*
X65264499Y-102418171D01*
X65244323Y-102316742D01*
X65204748Y-102221198D01*
X65147293Y-102135211D01*
X65074167Y-102062085D01*
X64988180Y-102004630D01*
X64892636Y-101965055D01*
X64791207Y-101944879D01*
X64687791Y-101944879D01*
X64586362Y-101965055D01*
X64490818Y-102004630D01*
X64404831Y-102062085D01*
X64386807Y-102080109D01*
X64367597Y-102044169D01*
X64317611Y-101983261D01*
X64302353Y-101970739D01*
X63519329Y-101187715D01*
X63557808Y-101162004D01*
X63630934Y-101088878D01*
X63688389Y-101002891D01*
X63727964Y-100907347D01*
X63748140Y-100805918D01*
X63748140Y-100702502D01*
X63727964Y-100601073D01*
X63688389Y-100505529D01*
X63630934Y-100419542D01*
X63557808Y-100346416D01*
X63471821Y-100288961D01*
X63376277Y-100249386D01*
X63274848Y-100229210D01*
X63171432Y-100229210D01*
X63070003Y-100249386D01*
X62974459Y-100288961D01*
X62888472Y-100346416D01*
X62815346Y-100419542D01*
X62789635Y-100458021D01*
X61725760Y-99394147D01*
X61725760Y-98899845D01*
X62218363Y-99392448D01*
G36*
X82181960Y-96897992D02*
G01*
X82108279Y-96928511D01*
X82022292Y-96985966D01*
X81949166Y-97059092D01*
X81891711Y-97145079D01*
X81852136Y-97240623D01*
X81831960Y-97342052D01*
X81831960Y-97445468D01*
X81852136Y-97546897D01*
X81891711Y-97642441D01*
X81949166Y-97728428D01*
X81956960Y-97736222D01*
X81956961Y-97974833D01*
X79214395Y-100717400D01*
X74136873Y-100717400D01*
X74117226Y-100715465D01*
X74097579Y-100717400D01*
X74038812Y-100723188D01*
X73963412Y-100746060D01*
X73893923Y-100783203D01*
X73833015Y-100833189D01*
X73820491Y-100848450D01*
X73200228Y-101468713D01*
X73189205Y-101468713D01*
X73087776Y-101488889D01*
X72992232Y-101528464D01*
X72906245Y-101585919D01*
X72833119Y-101659045D01*
X72775664Y-101745032D01*
X72736089Y-101840576D01*
X72715913Y-101942005D01*
X72715913Y-101953028D01*
X72627160Y-102041781D01*
X72627160Y-101701600D01*
X72625239Y-101682091D01*
X72619548Y-101663332D01*
X72610307Y-101646043D01*
X72597871Y-101630889D01*
X72582717Y-101618453D01*
X72565428Y-101609212D01*
X72546669Y-101603521D01*
X72527160Y-101601600D01*
X72044560Y-101601600D01*
X72025051Y-101603521D01*
X72006292Y-101609212D01*
X71989003Y-101618453D01*
X71973849Y-101630889D01*
X71961413Y-101646043D01*
X71952172Y-101663332D01*
X71946481Y-101682091D01*
X71944560Y-101701600D01*
X71944560Y-102184200D01*
X71946481Y-102203709D01*
X71952172Y-102222468D01*
X71961413Y-102239757D01*
X71973849Y-102254911D01*
X71989003Y-102267347D01*
X72006292Y-102276588D01*
X72025051Y-102282279D01*
X72044560Y-102284200D01*
X72384741Y-102284200D01*
X72285301Y-102383640D01*
X67642991Y-102383640D01*
X65358941Y-100099591D01*
X65416963Y-100123624D01*
X65518392Y-100143800D01*
X65621808Y-100143800D01*
X65723237Y-100123624D01*
X65818781Y-100084049D01*
X65904768Y-100026594D01*
X65977894Y-99953468D01*
X66035349Y-99867481D01*
X66074924Y-99771937D01*
X66095100Y-99670508D01*
X66095100Y-99567092D01*
X66086429Y-99523500D01*
X67442754Y-99523500D01*
X67462400Y-99525435D01*
X67482046Y-99523500D01*
X67482047Y-99523500D01*
X67540814Y-99517712D01*
X67616214Y-99494840D01*
X67685703Y-99457697D01*
X67704388Y-99442363D01*
X67740406Y-99496268D01*
X67813532Y-99569394D01*
X67899519Y-99626849D01*
X67995063Y-99666424D01*
X68096492Y-99686600D01*
X68199908Y-99686600D01*
X68301337Y-99666424D01*
X68396881Y-99626849D01*
X68482868Y-99569394D01*
X68555994Y-99496268D01*
X68613449Y-99410281D01*
X68653024Y-99314737D01*
X68670961Y-99224565D01*
X68766502Y-99129024D01*
X73206888Y-99129024D01*
X73236432Y-99158568D01*
X73322419Y-99216023D01*
X73417963Y-99255598D01*
X73519392Y-99275774D01*
X73622808Y-99275774D01*
X73724237Y-99255598D01*
X73819781Y-99216023D01*
X73905768Y-99158568D01*
X73935312Y-99129024D01*
X74042960Y-99129024D01*
X74024004Y-99224321D01*
X74024004Y-99327737D01*
X74030629Y-99361040D01*
X71286389Y-99361040D01*
X71266742Y-99359105D01*
X71247096Y-99361040D01*
X71247095Y-99361040D01*
X71246882Y-99361061D01*
X70830558Y-99361061D01*
X70830345Y-99361040D01*
X70830344Y-99361040D01*
X70810698Y-99359105D01*
X70791052Y-99361040D01*
X70244989Y-99361040D01*
X70225342Y-99359105D01*
X70205696Y-99361040D01*
X70205695Y-99361040D01*
X70205482Y-99361061D01*
X69895014Y-99361061D01*
X69875378Y-99359127D01*
X69855742Y-99361061D01*
X69855732Y-99361061D01*
X69796965Y-99366849D01*
X69721565Y-99389721D01*
X69652076Y-99426864D01*
X69633388Y-99442201D01*
X69606428Y-99464326D01*
X69606426Y-99464328D01*
X69591168Y-99476850D01*
X69578646Y-99492108D01*
X68747055Y-100323700D01*
X67879922Y-100323700D01*
X67872128Y-100315906D01*
X67786141Y-100258451D01*
X67690597Y-100218876D01*
X67589168Y-100198700D01*
X67485752Y-100198700D01*
X67384323Y-100218876D01*
X67288779Y-100258451D01*
X67202792Y-100315906D01*
X67129666Y-100389032D01*
X67072211Y-100475019D01*
X67032636Y-100570563D01*
X67012460Y-100671992D01*
X67012460Y-100775408D01*
X67032636Y-100876837D01*
X67072211Y-100972381D01*
X67129666Y-101058368D01*
X67202792Y-101131494D01*
X67288779Y-101188949D01*
X67384323Y-101228524D01*
X67485752Y-101248700D01*
X67549501Y-101248700D01*
X67547000Y-101261272D01*
X67547000Y-101364688D01*
X67567176Y-101466117D01*
X67606751Y-101561661D01*
X67664206Y-101647648D01*
X67737332Y-101720774D01*
X67823319Y-101778229D01*
X67918863Y-101817804D01*
X68020292Y-101837980D01*
X68123708Y-101837980D01*
X68225137Y-101817804D01*
X68320681Y-101778229D01*
X68394053Y-101729203D01*
X68477688Y-101785086D01*
X68573232Y-101824661D01*
X68674661Y-101844837D01*
X68778077Y-101844837D01*
X68879506Y-101824661D01*
X68975050Y-101785086D01*
X69061037Y-101727631D01*
X69134163Y-101654505D01*
X69191618Y-101568518D01*
X69201976Y-101543511D01*
X69252192Y-101553500D01*
X69355608Y-101553500D01*
X69457037Y-101533324D01*
X69552581Y-101493749D01*
X69638568Y-101436294D01*
X69711694Y-101363168D01*
X69769149Y-101277181D01*
X69808724Y-101181637D01*
X69828900Y-101080208D01*
X69828900Y-101036165D01*
X70328105Y-100536960D01*
X77353834Y-100536960D01*
X77373480Y-100538895D01*
X77393126Y-100536960D01*
X77393127Y-100536960D01*
X77451894Y-100531172D01*
X77527294Y-100508300D01*
X77596783Y-100471157D01*
X77657691Y-100421171D01*
X77670217Y-100405908D01*
X78221545Y-99854580D01*
X78248988Y-99895652D01*
X78322114Y-99968778D01*
X78408101Y-100026233D01*
X78503645Y-100065808D01*
X78605074Y-100085984D01*
X78708490Y-100085984D01*
X78809919Y-100065808D01*
X78905463Y-100026233D01*
X78991450Y-99968778D01*
X79064576Y-99895652D01*
X79122031Y-99809665D01*
X79161606Y-99714121D01*
X79181782Y-99612692D01*
X79181782Y-99509276D01*
X79161606Y-99407847D01*
X79122031Y-99312303D01*
X79064576Y-99226316D01*
X78991450Y-99153190D01*
X78950378Y-99125747D01*
X80226511Y-97849614D01*
X80247368Y-97880828D01*
X80320494Y-97953954D01*
X80406481Y-98011409D01*
X80502025Y-98050984D01*
X80603454Y-98071160D01*
X80706870Y-98071160D01*
X80808299Y-98050984D01*
X80903843Y-98011409D01*
X80989830Y-97953954D01*
X81062956Y-97880828D01*
X81120411Y-97794841D01*
X81159986Y-97699297D01*
X81180162Y-97597868D01*
X81180162Y-97494452D01*
X81159986Y-97393023D01*
X81120411Y-97297479D01*
X81062956Y-97211492D01*
X80989830Y-97138366D01*
X80903843Y-97080911D01*
X80816400Y-97044691D01*
X80816400Y-94715000D01*
X82181960Y-94715000D01*
X82181960Y-96897992D01*
G37*
X82181960Y-96897992D02*
X82108279Y-96928511D01*
X82022292Y-96985966D01*
X81949166Y-97059092D01*
X81891711Y-97145079D01*
X81852136Y-97240623D01*
X81831960Y-97342052D01*
X81831960Y-97445468D01*
X81852136Y-97546897D01*
X81891711Y-97642441D01*
X81949166Y-97728428D01*
X81956960Y-97736222D01*
X81956961Y-97974833D01*
X79214395Y-100717400D01*
X74136873Y-100717400D01*
X74117226Y-100715465D01*
X74097579Y-100717400D01*
X74038812Y-100723188D01*
X73963412Y-100746060D01*
X73893923Y-100783203D01*
X73833015Y-100833189D01*
X73820491Y-100848450D01*
X73200228Y-101468713D01*
X73189205Y-101468713D01*
X73087776Y-101488889D01*
X72992232Y-101528464D01*
X72906245Y-101585919D01*
X72833119Y-101659045D01*
X72775664Y-101745032D01*
X72736089Y-101840576D01*
X72715913Y-101942005D01*
X72715913Y-101953028D01*
X72627160Y-102041781D01*
X72627160Y-101701600D01*
X72625239Y-101682091D01*
X72619548Y-101663332D01*
X72610307Y-101646043D01*
X72597871Y-101630889D01*
X72582717Y-101618453D01*
X72565428Y-101609212D01*
X72546669Y-101603521D01*
X72527160Y-101601600D01*
X72044560Y-101601600D01*
X72025051Y-101603521D01*
X72006292Y-101609212D01*
X71989003Y-101618453D01*
X71973849Y-101630889D01*
X71961413Y-101646043D01*
X71952172Y-101663332D01*
X71946481Y-101682091D01*
X71944560Y-101701600D01*
X71944560Y-102184200D01*
X71946481Y-102203709D01*
X71952172Y-102222468D01*
X71961413Y-102239757D01*
X71973849Y-102254911D01*
X71989003Y-102267347D01*
X72006292Y-102276588D01*
X72025051Y-102282279D01*
X72044560Y-102284200D01*
X72384741Y-102284200D01*
X72285301Y-102383640D01*
X67642991Y-102383640D01*
X65358941Y-100099591D01*
X65416963Y-100123624D01*
X65518392Y-100143800D01*
X65621808Y-100143800D01*
X65723237Y-100123624D01*
X65818781Y-100084049D01*
X65904768Y-100026594D01*
X65977894Y-99953468D01*
X66035349Y-99867481D01*
X66074924Y-99771937D01*
X66095100Y-99670508D01*
X66095100Y-99567092D01*
X66086429Y-99523500D01*
X67442754Y-99523500D01*
X67462400Y-99525435D01*
X67482046Y-99523500D01*
X67482047Y-99523500D01*
X67540814Y-99517712D01*
X67616214Y-99494840D01*
X67685703Y-99457697D01*
X67704388Y-99442363D01*
X67740406Y-99496268D01*
X67813532Y-99569394D01*
X67899519Y-99626849D01*
X67995063Y-99666424D01*
X68096492Y-99686600D01*
X68199908Y-99686600D01*
X68301337Y-99666424D01*
X68396881Y-99626849D01*
X68482868Y-99569394D01*
X68555994Y-99496268D01*
X68613449Y-99410281D01*
X68653024Y-99314737D01*
X68670961Y-99224565D01*
X68766502Y-99129024D01*
X73206888Y-99129024D01*
X73236432Y-99158568D01*
X73322419Y-99216023D01*
X73417963Y-99255598D01*
X73519392Y-99275774D01*
X73622808Y-99275774D01*
X73724237Y-99255598D01*
X73819781Y-99216023D01*
X73905768Y-99158568D01*
X73935312Y-99129024D01*
X74042960Y-99129024D01*
X74024004Y-99224321D01*
X74024004Y-99327737D01*
X74030629Y-99361040D01*
X71286389Y-99361040D01*
X71266742Y-99359105D01*
X71247096Y-99361040D01*
X71247095Y-99361040D01*
X71246882Y-99361061D01*
X70830558Y-99361061D01*
X70830345Y-99361040D01*
X70830344Y-99361040D01*
X70810698Y-99359105D01*
X70791052Y-99361040D01*
X70244989Y-99361040D01*
X70225342Y-99359105D01*
X70205696Y-99361040D01*
X70205695Y-99361040D01*
X70205482Y-99361061D01*
X69895014Y-99361061D01*
X69875378Y-99359127D01*
X69855742Y-99361061D01*
X69855732Y-99361061D01*
X69796965Y-99366849D01*
X69721565Y-99389721D01*
X69652076Y-99426864D01*
X69633388Y-99442201D01*
X69606428Y-99464326D01*
X69606426Y-99464328D01*
X69591168Y-99476850D01*
X69578646Y-99492108D01*
X68747055Y-100323700D01*
X67879922Y-100323700D01*
X67872128Y-100315906D01*
X67786141Y-100258451D01*
X67690597Y-100218876D01*
X67589168Y-100198700D01*
X67485752Y-100198700D01*
X67384323Y-100218876D01*
X67288779Y-100258451D01*
X67202792Y-100315906D01*
X67129666Y-100389032D01*
X67072211Y-100475019D01*
X67032636Y-100570563D01*
X67012460Y-100671992D01*
X67012460Y-100775408D01*
X67032636Y-100876837D01*
X67072211Y-100972381D01*
X67129666Y-101058368D01*
X67202792Y-101131494D01*
X67288779Y-101188949D01*
X67384323Y-101228524D01*
X67485752Y-101248700D01*
X67549501Y-101248700D01*
X67547000Y-101261272D01*
X67547000Y-101364688D01*
X67567176Y-101466117D01*
X67606751Y-101561661D01*
X67664206Y-101647648D01*
X67737332Y-101720774D01*
X67823319Y-101778229D01*
X67918863Y-101817804D01*
X68020292Y-101837980D01*
X68123708Y-101837980D01*
X68225137Y-101817804D01*
X68320681Y-101778229D01*
X68394053Y-101729203D01*
X68477688Y-101785086D01*
X68573232Y-101824661D01*
X68674661Y-101844837D01*
X68778077Y-101844837D01*
X68879506Y-101824661D01*
X68975050Y-101785086D01*
X69061037Y-101727631D01*
X69134163Y-101654505D01*
X69191618Y-101568518D01*
X69201976Y-101543511D01*
X69252192Y-101553500D01*
X69355608Y-101553500D01*
X69457037Y-101533324D01*
X69552581Y-101493749D01*
X69638568Y-101436294D01*
X69711694Y-101363168D01*
X69769149Y-101277181D01*
X69808724Y-101181637D01*
X69828900Y-101080208D01*
X69828900Y-101036165D01*
X70328105Y-100536960D01*
X77353834Y-100536960D01*
X77373480Y-100538895D01*
X77393126Y-100536960D01*
X77393127Y-100536960D01*
X77451894Y-100531172D01*
X77527294Y-100508300D01*
X77596783Y-100471157D01*
X77657691Y-100421171D01*
X77670217Y-100405908D01*
X78221545Y-99854580D01*
X78248988Y-99895652D01*
X78322114Y-99968778D01*
X78408101Y-100026233D01*
X78503645Y-100065808D01*
X78605074Y-100085984D01*
X78708490Y-100085984D01*
X78809919Y-100065808D01*
X78905463Y-100026233D01*
X78991450Y-99968778D01*
X79064576Y-99895652D01*
X79122031Y-99809665D01*
X79161606Y-99714121D01*
X79181782Y-99612692D01*
X79181782Y-99509276D01*
X79161606Y-99407847D01*
X79122031Y-99312303D01*
X79064576Y-99226316D01*
X78991450Y-99153190D01*
X78950378Y-99125747D01*
X80226511Y-97849614D01*
X80247368Y-97880828D01*
X80320494Y-97953954D01*
X80406481Y-98011409D01*
X80502025Y-98050984D01*
X80603454Y-98071160D01*
X80706870Y-98071160D01*
X80808299Y-98050984D01*
X80903843Y-98011409D01*
X80989830Y-97953954D01*
X81062956Y-97880828D01*
X81120411Y-97794841D01*
X81159986Y-97699297D01*
X81180162Y-97597868D01*
X81180162Y-97494452D01*
X81159986Y-97393023D01*
X81120411Y-97297479D01*
X81062956Y-97211492D01*
X80989830Y-97138366D01*
X80903843Y-97080911D01*
X80816400Y-97044691D01*
X80816400Y-94715000D01*
X82181960Y-94715000D01*
X82181960Y-96897992D01*
G36*
X67061694Y-82223734D02*
G01*
X67147681Y-82281189D01*
X67243225Y-82320764D01*
X67344654Y-82340940D01*
X67448070Y-82340940D01*
X67549499Y-82320764D01*
X67645043Y-82281189D01*
X67731030Y-82223734D01*
X67738824Y-82215940D01*
X75159349Y-82215940D01*
X75998247Y-83054839D01*
X75998247Y-83065861D01*
X76018423Y-83167290D01*
X76057998Y-83262834D01*
X76115453Y-83348821D01*
X76123248Y-83356616D01*
X76123247Y-83985782D01*
X76046863Y-84000976D01*
X75951319Y-84040551D01*
X75865332Y-84098006D01*
X75792206Y-84171132D01*
X75734751Y-84257119D01*
X75695176Y-84352663D01*
X75675000Y-84454092D01*
X75675000Y-84557508D01*
X75695176Y-84658937D01*
X75734751Y-84754481D01*
X75792206Y-84840468D01*
X75865332Y-84913594D01*
X75951319Y-84971049D01*
X76046863Y-85010624D01*
X76148292Y-85030800D01*
X76251708Y-85030800D01*
X76353137Y-85010624D01*
X76448681Y-84971049D01*
X76534668Y-84913594D01*
X76607794Y-84840468D01*
X76665249Y-84754481D01*
X76704824Y-84658937D01*
X76725000Y-84557508D01*
X76725000Y-84546486D01*
X76792201Y-84479285D01*
X76807458Y-84466764D01*
X76857444Y-84405856D01*
X76894587Y-84336367D01*
X76917459Y-84260967D01*
X76923247Y-84202200D01*
X76923247Y-84202190D01*
X76925181Y-84182554D01*
X76923247Y-84162918D01*
X76923247Y-83356615D01*
X76931041Y-83348821D01*
X76979849Y-83275774D01*
X78489070Y-84784995D01*
X78469000Y-84885892D01*
X78469000Y-84989308D01*
X78489176Y-85090737D01*
X78528751Y-85186281D01*
X78586206Y-85272268D01*
X78659332Y-85345394D01*
X78745319Y-85402849D01*
X78840863Y-85442424D01*
X78942292Y-85462600D01*
X78953315Y-85462600D01*
X79559200Y-86068486D01*
X79559201Y-87188438D01*
X79528794Y-87142932D01*
X79455668Y-87069806D01*
X79369681Y-87012351D01*
X79274137Y-86972776D01*
X79172708Y-86952600D01*
X79069292Y-86952600D01*
X78967863Y-86972776D01*
X78872319Y-87012351D01*
X78786332Y-87069806D01*
X78713206Y-87142932D01*
X78655751Y-87228919D01*
X78616176Y-87324463D01*
X78596000Y-87425892D01*
X78596000Y-87529308D01*
X78616176Y-87630737D01*
X78655751Y-87726281D01*
X78713206Y-87812268D01*
X78721000Y-87820062D01*
X78721001Y-89545824D01*
X78719065Y-89565480D01*
X78726788Y-89643893D01*
X78740386Y-89688720D01*
X78017967Y-89688720D01*
X77998320Y-89686785D01*
X77978673Y-89688720D01*
X77919906Y-89694508D01*
X77844506Y-89717380D01*
X77775017Y-89754523D01*
X77714109Y-89804509D01*
X77701583Y-89819772D01*
X77097421Y-90423934D01*
X77082158Y-90436460D01*
X77032172Y-90497369D01*
X76995029Y-90566858D01*
X76976895Y-90626638D01*
X76972157Y-90642258D01*
X76964434Y-90720671D01*
X76966369Y-90740318D01*
X76966370Y-92224121D01*
X76964434Y-92243777D01*
X76972157Y-92322190D01*
X76995030Y-92397591D01*
X77032172Y-92467079D01*
X77069634Y-92512727D01*
X77069637Y-92512730D01*
X77082159Y-92527988D01*
X77097417Y-92540510D01*
X78563894Y-94006987D01*
X78576420Y-94022250D01*
X78624269Y-94061519D01*
X78637328Y-94072236D01*
X78683738Y-94097043D01*
X78673531Y-94112319D01*
X78633956Y-94207863D01*
X78613780Y-94309292D01*
X78613780Y-94412708D01*
X78633956Y-94514137D01*
X78673531Y-94609681D01*
X78730986Y-94695668D01*
X78804112Y-94768794D01*
X78844350Y-94795680D01*
X78844351Y-95896114D01*
X78812824Y-95870241D01*
X78815564Y-95863626D01*
X78835740Y-95762197D01*
X78835740Y-95658781D01*
X78815564Y-95557352D01*
X78775989Y-95461808D01*
X78718534Y-95375821D01*
X78645408Y-95302695D01*
X78559421Y-95245240D01*
X78463877Y-95205665D01*
X78362448Y-95185489D01*
X78259032Y-95185489D01*
X78157603Y-95205665D01*
X78062059Y-95245240D01*
X77976072Y-95302695D01*
X77902946Y-95375821D01*
X77845491Y-95461808D01*
X77805916Y-95557352D01*
X77785740Y-95658781D01*
X77785740Y-95762197D01*
X77790375Y-95785499D01*
X76974867Y-95785499D01*
X76954000Y-95783444D01*
X76933133Y-95785499D01*
X76933127Y-95785499D01*
X76879099Y-95790820D01*
X76870686Y-95791649D01*
X76856014Y-95796100D01*
X76790574Y-95815951D01*
X76716741Y-95855415D01*
X76702357Y-95867220D01*
X76670457Y-95893400D01*
X76652027Y-95908525D01*
X76638722Y-95924737D01*
X75509158Y-97054302D01*
X72739340Y-97054302D01*
X72770055Y-96980149D01*
X72790231Y-96878720D01*
X72790231Y-96775304D01*
X72770055Y-96673875D01*
X72730480Y-96578331D01*
X72673025Y-96492344D01*
X72599899Y-96419218D01*
X72513912Y-96361763D01*
X72418368Y-96322188D01*
X72316939Y-96302012D01*
X72213523Y-96302012D01*
X72112094Y-96322188D01*
X72016550Y-96361763D01*
X71930563Y-96419218D01*
X71857437Y-96492344D01*
X71799982Y-96578331D01*
X71760407Y-96673875D01*
X71740231Y-96775304D01*
X71740231Y-96878720D01*
X71754231Y-96949101D01*
X71550059Y-96744930D01*
X71535925Y-96673875D01*
X71496350Y-96578331D01*
X71438895Y-96492344D01*
X71365769Y-96419218D01*
X71279782Y-96361763D01*
X71184238Y-96322188D01*
X71082809Y-96302012D01*
X70979393Y-96302012D01*
X70877964Y-96322188D01*
X70782420Y-96361763D01*
X70696433Y-96419218D01*
X70623307Y-96492344D01*
X70565852Y-96578331D01*
X70526277Y-96673875D01*
X70506101Y-96775304D01*
X70506101Y-96878720D01*
X70526277Y-96980149D01*
X70565852Y-97075693D01*
X70623307Y-97161680D01*
X70696433Y-97234806D01*
X70782420Y-97292261D01*
X70877964Y-97331836D01*
X70949019Y-97345970D01*
X71057361Y-97454313D01*
X68014634Y-97454313D01*
X67994987Y-97452378D01*
X67975340Y-97454313D01*
X67916573Y-97460101D01*
X67841173Y-97482973D01*
X67771684Y-97520116D01*
X67710776Y-97570102D01*
X67698252Y-97585363D01*
X66928415Y-98355200D01*
X63267347Y-98355200D01*
X63292149Y-98318081D01*
X63331724Y-98222537D01*
X63351900Y-98121108D01*
X63351900Y-98017692D01*
X63331724Y-97916263D01*
X63292149Y-97820719D01*
X63234694Y-97734732D01*
X63161568Y-97661606D01*
X63075581Y-97604151D01*
X62980037Y-97564576D01*
X62878608Y-97544400D01*
X62775192Y-97544400D01*
X62680800Y-97563176D01*
X62680800Y-97316757D01*
X62711863Y-97329624D01*
X62813292Y-97349800D01*
X62916708Y-97349800D01*
X63018137Y-97329624D01*
X63113681Y-97290049D01*
X63199668Y-97232594D01*
X63272794Y-97159468D01*
X63330249Y-97073481D01*
X63369824Y-96977937D01*
X63390000Y-96876508D01*
X63390000Y-96773092D01*
X63369824Y-96671663D01*
X63364493Y-96658792D01*
X64321200Y-96658792D01*
X64321200Y-96762208D01*
X64341376Y-96863637D01*
X64380951Y-96959181D01*
X64438406Y-97045168D01*
X64511532Y-97118294D01*
X64597519Y-97175749D01*
X64693063Y-97215324D01*
X64794492Y-97235500D01*
X64897908Y-97235500D01*
X64999337Y-97215324D01*
X65094881Y-97175749D01*
X65180868Y-97118294D01*
X65189006Y-97110156D01*
X65249159Y-97150349D01*
X65344703Y-97189924D01*
X65446132Y-97210100D01*
X65549548Y-97210100D01*
X65650977Y-97189924D01*
X65746521Y-97150349D01*
X65832508Y-97092894D01*
X65905634Y-97019768D01*
X65963089Y-96933781D01*
X66002664Y-96838237D01*
X66022840Y-96736808D01*
X66022840Y-96633392D01*
X66002664Y-96531963D01*
X65963089Y-96436419D01*
X65905634Y-96350432D01*
X65832508Y-96277306D01*
X65746521Y-96219851D01*
X65650977Y-96180276D01*
X65549548Y-96160100D01*
X65446132Y-96160100D01*
X65344703Y-96180276D01*
X65249159Y-96219851D01*
X65163172Y-96277306D01*
X65155034Y-96285444D01*
X65094881Y-96245251D01*
X64999337Y-96205676D01*
X64897908Y-96185500D01*
X64794492Y-96185500D01*
X64693063Y-96205676D01*
X64597519Y-96245251D01*
X64511532Y-96302706D01*
X64438406Y-96375832D01*
X64380951Y-96461819D01*
X64341376Y-96557363D01*
X64321200Y-96658792D01*
X63364493Y-96658792D01*
X63330249Y-96576119D01*
X63272794Y-96490132D01*
X63199668Y-96417006D01*
X63113681Y-96359551D01*
X63018137Y-96319976D01*
X62916708Y-96299800D01*
X62813292Y-96299800D01*
X62711863Y-96319976D01*
X62680800Y-96332843D01*
X62680800Y-95904647D01*
X62682735Y-95885000D01*
X62675012Y-95806586D01*
X62652140Y-95731186D01*
X62614997Y-95661697D01*
X62577535Y-95616050D01*
X62565011Y-95600789D01*
X62549749Y-95588264D01*
X62354199Y-95392714D01*
X62354199Y-95360848D01*
X64631080Y-95360848D01*
X64631080Y-95464264D01*
X64651256Y-95565693D01*
X64690831Y-95661237D01*
X64748286Y-95747224D01*
X64821412Y-95820350D01*
X64907399Y-95877805D01*
X65002943Y-95917380D01*
X65104372Y-95937556D01*
X65207788Y-95937556D01*
X65309217Y-95917380D01*
X65404761Y-95877805D01*
X65490748Y-95820350D01*
X65563874Y-95747224D01*
X65621329Y-95661237D01*
X65660904Y-95565693D01*
X65681080Y-95464264D01*
X65681080Y-95360848D01*
X65660904Y-95259419D01*
X65621329Y-95163875D01*
X65563874Y-95077888D01*
X65490748Y-95004762D01*
X65404761Y-94947307D01*
X65309217Y-94907732D01*
X65207788Y-94887556D01*
X65104372Y-94887556D01*
X65002943Y-94907732D01*
X64907399Y-94947307D01*
X64821412Y-95004762D01*
X64748286Y-95077888D01*
X64690831Y-95163875D01*
X64651256Y-95259419D01*
X64631080Y-95360848D01*
X62354199Y-95360848D01*
X62354199Y-94817140D01*
X62444992Y-94835200D01*
X62548408Y-94835200D01*
X62649837Y-94815024D01*
X62745381Y-94775449D01*
X62831368Y-94717994D01*
X62904494Y-94644868D01*
X62961949Y-94558881D01*
X63001524Y-94463337D01*
X63021700Y-94361908D01*
X63021700Y-94258492D01*
X63001524Y-94157063D01*
X62975152Y-94093392D01*
X65134000Y-94093392D01*
X65134000Y-94196808D01*
X65154176Y-94298237D01*
X65193751Y-94393781D01*
X65251206Y-94479768D01*
X65324332Y-94552894D01*
X65410319Y-94610349D01*
X65505863Y-94649924D01*
X65607292Y-94670100D01*
X65710708Y-94670100D01*
X65812137Y-94649924D01*
X65907681Y-94610349D01*
X65993668Y-94552894D01*
X66066794Y-94479768D01*
X66124249Y-94393781D01*
X66163824Y-94298237D01*
X66184000Y-94196808D01*
X66184000Y-94093392D01*
X66163824Y-93991963D01*
X66124249Y-93896419D01*
X66066794Y-93810432D01*
X65993668Y-93737306D01*
X65907681Y-93679851D01*
X65812137Y-93640276D01*
X65710708Y-93620100D01*
X65607292Y-93620100D01*
X65505863Y-93640276D01*
X65410319Y-93679851D01*
X65324332Y-93737306D01*
X65251206Y-93810432D01*
X65193751Y-93896419D01*
X65154176Y-93991963D01*
X65134000Y-94093392D01*
X62975152Y-94093392D01*
X62961949Y-94061519D01*
X62904494Y-93975532D01*
X62831368Y-93902406D01*
X62745381Y-93844951D01*
X62649837Y-93805376D01*
X62548408Y-93785200D01*
X62444992Y-93785200D01*
X62354199Y-93803260D01*
X62354199Y-91291772D01*
X64620920Y-91291772D01*
X64620920Y-91395188D01*
X64641096Y-91496617D01*
X64680671Y-91592161D01*
X64738126Y-91678148D01*
X64811252Y-91751274D01*
X64897239Y-91808729D01*
X64992783Y-91848304D01*
X65094212Y-91868480D01*
X65197628Y-91868480D01*
X65299057Y-91848304D01*
X65394601Y-91808729D01*
X65480588Y-91751274D01*
X65553714Y-91678148D01*
X65558702Y-91670684D01*
X65593572Y-91705554D01*
X65679559Y-91763009D01*
X65775103Y-91802584D01*
X65876532Y-91822760D01*
X65979948Y-91822760D01*
X66081377Y-91802584D01*
X66176921Y-91763009D01*
X66262908Y-91705554D01*
X66336034Y-91632428D01*
X66393489Y-91546441D01*
X66433064Y-91450897D01*
X66453240Y-91349468D01*
X66453240Y-91246052D01*
X66433064Y-91144623D01*
X66393489Y-91049079D01*
X66336034Y-90963092D01*
X66262908Y-90889966D01*
X66176921Y-90832511D01*
X66081377Y-90792936D01*
X65979948Y-90772760D01*
X65876532Y-90772760D01*
X65775103Y-90792936D01*
X65679559Y-90832511D01*
X65593572Y-90889966D01*
X65520446Y-90963092D01*
X65515458Y-90970556D01*
X65480588Y-90935686D01*
X65394601Y-90878231D01*
X65299057Y-90838656D01*
X65197628Y-90818480D01*
X65094212Y-90818480D01*
X64992783Y-90838656D01*
X64897239Y-90878231D01*
X64811252Y-90935686D01*
X64738126Y-91008812D01*
X64680671Y-91094799D01*
X64641096Y-91190343D01*
X64620920Y-91291772D01*
X62354199Y-91291772D01*
X62354199Y-90526068D01*
X62427879Y-90495549D01*
X62513866Y-90438094D01*
X62586992Y-90364968D01*
X62644447Y-90278981D01*
X62684022Y-90183437D01*
X62702032Y-90092892D01*
X63051200Y-90092892D01*
X63051200Y-90196308D01*
X63071376Y-90297737D01*
X63110951Y-90393281D01*
X63168406Y-90479268D01*
X63241532Y-90552394D01*
X63327519Y-90609849D01*
X63423063Y-90649424D01*
X63524492Y-90669600D01*
X63627908Y-90669600D01*
X63729337Y-90649424D01*
X63824881Y-90609849D01*
X63910868Y-90552394D01*
X63983994Y-90479268D01*
X64041449Y-90393281D01*
X64081024Y-90297737D01*
X64101200Y-90196308D01*
X64101200Y-90092892D01*
X64085032Y-90011612D01*
X65017160Y-90011612D01*
X65017160Y-90115028D01*
X65037336Y-90216457D01*
X65076911Y-90312001D01*
X65134366Y-90397988D01*
X65207492Y-90471114D01*
X65293479Y-90528569D01*
X65389023Y-90568144D01*
X65490452Y-90588320D01*
X65593868Y-90588320D01*
X65695297Y-90568144D01*
X65790841Y-90528569D01*
X65876828Y-90471114D01*
X65949954Y-90397988D01*
X66007409Y-90312001D01*
X66038144Y-90237800D01*
X66096788Y-90237800D01*
X66198217Y-90217624D01*
X66293761Y-90178049D01*
X66379748Y-90120594D01*
X66435062Y-90065280D01*
X67320940Y-90065280D01*
X67320940Y-90168696D01*
X67341116Y-90270125D01*
X67380691Y-90365669D01*
X67438146Y-90451656D01*
X67511272Y-90524782D01*
X67597259Y-90582237D01*
X67692803Y-90621812D01*
X67794232Y-90641988D01*
X67897648Y-90641988D01*
X67999077Y-90621812D01*
X68094621Y-90582237D01*
X68180608Y-90524782D01*
X68253734Y-90451656D01*
X68311189Y-90365669D01*
X68350764Y-90270125D01*
X68370940Y-90168696D01*
X68370940Y-90065280D01*
X71458600Y-90065280D01*
X71458600Y-90168696D01*
X71478776Y-90270125D01*
X71518351Y-90365669D01*
X71575806Y-90451656D01*
X71648932Y-90524782D01*
X71734919Y-90582237D01*
X71830463Y-90621812D01*
X71931892Y-90641988D01*
X72035308Y-90641988D01*
X72136737Y-90621812D01*
X72232281Y-90582237D01*
X72318268Y-90524782D01*
X72391394Y-90451656D01*
X72448849Y-90365669D01*
X72488424Y-90270125D01*
X72508600Y-90168696D01*
X72508600Y-90065280D01*
X72503988Y-90042092D01*
X73033400Y-90042092D01*
X73033400Y-90145508D01*
X73053576Y-90246937D01*
X73093151Y-90342481D01*
X73150606Y-90428468D01*
X73223732Y-90501594D01*
X73309719Y-90559049D01*
X73405263Y-90598624D01*
X73506692Y-90618800D01*
X73610108Y-90618800D01*
X73711537Y-90598624D01*
X73807081Y-90559049D01*
X73893068Y-90501594D01*
X73966194Y-90428468D01*
X74023649Y-90342481D01*
X74063224Y-90246937D01*
X74083400Y-90145508D01*
X74083400Y-90042092D01*
X74063224Y-89940663D01*
X74063154Y-89940492D01*
X75258440Y-89940492D01*
X75258440Y-90043908D01*
X75278616Y-90145337D01*
X75318191Y-90240881D01*
X75375646Y-90326868D01*
X75448772Y-90399994D01*
X75534759Y-90457449D01*
X75630303Y-90497024D01*
X75731732Y-90517200D01*
X75835148Y-90517200D01*
X75936577Y-90497024D01*
X76032121Y-90457449D01*
X76118108Y-90399994D01*
X76191234Y-90326868D01*
X76248689Y-90240881D01*
X76288264Y-90145337D01*
X76308440Y-90043908D01*
X76308440Y-89940492D01*
X76288264Y-89839063D01*
X76248689Y-89743519D01*
X76191234Y-89657532D01*
X76118108Y-89584406D01*
X76032121Y-89526951D01*
X75936577Y-89487376D01*
X75835148Y-89467200D01*
X75731732Y-89467200D01*
X75630303Y-89487376D01*
X75534759Y-89526951D01*
X75448772Y-89584406D01*
X75375646Y-89657532D01*
X75318191Y-89743519D01*
X75278616Y-89839063D01*
X75258440Y-89940492D01*
X74063154Y-89940492D01*
X74023649Y-89845119D01*
X73977541Y-89776114D01*
X74036943Y-89716712D01*
X74094398Y-89630725D01*
X74133973Y-89535181D01*
X74154149Y-89433752D01*
X74154149Y-89330336D01*
X74133973Y-89228907D01*
X74094398Y-89133363D01*
X74055861Y-89075689D01*
X74092328Y-89051322D01*
X74165454Y-88978196D01*
X74222909Y-88892209D01*
X74244203Y-88840800D01*
X74321308Y-88840800D01*
X74422737Y-88820624D01*
X74518281Y-88781049D01*
X74578505Y-88740808D01*
X74663929Y-88797887D01*
X74759473Y-88837462D01*
X74860902Y-88857638D01*
X74964318Y-88857638D01*
X75065747Y-88837462D01*
X75161291Y-88797887D01*
X75247278Y-88740432D01*
X75320404Y-88667306D01*
X75377859Y-88581319D01*
X75417434Y-88485775D01*
X75437610Y-88384346D01*
X75437610Y-88280930D01*
X75417434Y-88179501D01*
X75377859Y-88083957D01*
X75320404Y-87997970D01*
X75247278Y-87924844D01*
X75161291Y-87867389D01*
X75065747Y-87827814D01*
X74964318Y-87807638D01*
X74860902Y-87807638D01*
X74759473Y-87827814D01*
X74663929Y-87867389D01*
X74603705Y-87907630D01*
X74518281Y-87850551D01*
X74422737Y-87810976D01*
X74321308Y-87790800D01*
X74217892Y-87790800D01*
X74116463Y-87810976D01*
X74020919Y-87850551D01*
X73934932Y-87908006D01*
X73861806Y-87981132D01*
X73804351Y-88067119D01*
X73783057Y-88118528D01*
X73705952Y-88118528D01*
X73604523Y-88138704D01*
X73508979Y-88178279D01*
X73422992Y-88235734D01*
X73349866Y-88308860D01*
X73292411Y-88394847D01*
X73252836Y-88490391D01*
X73232660Y-88591820D01*
X73232660Y-88695236D01*
X73252836Y-88796665D01*
X73292411Y-88892209D01*
X73330948Y-88949883D01*
X73294481Y-88974250D01*
X73221355Y-89047376D01*
X73163900Y-89133363D01*
X73124325Y-89228907D01*
X73104149Y-89330336D01*
X73104149Y-89433752D01*
X73124325Y-89535181D01*
X73163900Y-89630725D01*
X73210008Y-89699730D01*
X73150606Y-89759132D01*
X73093151Y-89845119D01*
X73053576Y-89940663D01*
X73033400Y-90042092D01*
X72503988Y-90042092D01*
X72488424Y-89963851D01*
X72448849Y-89868307D01*
X72391394Y-89782320D01*
X72318268Y-89709194D01*
X72232281Y-89651739D01*
X72136737Y-89612164D01*
X72035308Y-89591988D01*
X71931892Y-89591988D01*
X71830463Y-89612164D01*
X71734919Y-89651739D01*
X71648932Y-89709194D01*
X71575806Y-89782320D01*
X71518351Y-89868307D01*
X71478776Y-89963851D01*
X71458600Y-90065280D01*
X68370940Y-90065280D01*
X68350764Y-89963851D01*
X68311189Y-89868307D01*
X68253734Y-89782320D01*
X68180608Y-89709194D01*
X68094621Y-89651739D01*
X67999077Y-89612164D01*
X67897648Y-89591988D01*
X67794232Y-89591988D01*
X67692803Y-89612164D01*
X67597259Y-89651739D01*
X67511272Y-89709194D01*
X67438146Y-89782320D01*
X67380691Y-89868307D01*
X67341116Y-89963851D01*
X67320940Y-90065280D01*
X66435062Y-90065280D01*
X66452874Y-90047468D01*
X66510329Y-89961481D01*
X66549904Y-89865937D01*
X66570080Y-89764508D01*
X66570080Y-89661092D01*
X66549904Y-89559663D01*
X66510329Y-89464119D01*
X66452874Y-89378132D01*
X66379748Y-89305006D01*
X66293761Y-89247551D01*
X66198217Y-89207976D01*
X66096788Y-89187800D01*
X65993372Y-89187800D01*
X65891943Y-89207976D01*
X65796399Y-89247551D01*
X65710412Y-89305006D01*
X65637286Y-89378132D01*
X65579831Y-89464119D01*
X65549096Y-89538320D01*
X65490452Y-89538320D01*
X65389023Y-89558496D01*
X65293479Y-89598071D01*
X65207492Y-89655526D01*
X65134366Y-89728652D01*
X65076911Y-89814639D01*
X65037336Y-89910183D01*
X65017160Y-90011612D01*
X64085032Y-90011612D01*
X64081024Y-89991463D01*
X64041449Y-89895919D01*
X63983994Y-89809932D01*
X63910868Y-89736806D01*
X63824881Y-89679351D01*
X63729337Y-89639776D01*
X63627908Y-89619600D01*
X63524492Y-89619600D01*
X63423063Y-89639776D01*
X63327519Y-89679351D01*
X63241532Y-89736806D01*
X63168406Y-89809932D01*
X63110951Y-89895919D01*
X63071376Y-89991463D01*
X63051200Y-90092892D01*
X62702032Y-90092892D01*
X62704198Y-90082008D01*
X62704198Y-89978592D01*
X62684022Y-89877163D01*
X62644447Y-89781619D01*
X62586992Y-89695632D01*
X62513866Y-89622506D01*
X62427879Y-89565051D01*
X62415261Y-89559824D01*
X63530145Y-88444940D01*
X71893311Y-88444940D01*
X71893311Y-88548356D01*
X71913487Y-88649785D01*
X71953062Y-88745329D01*
X72010517Y-88831316D01*
X72083643Y-88904442D01*
X72169630Y-88961897D01*
X72265174Y-89001472D01*
X72366603Y-89021648D01*
X72470019Y-89021648D01*
X72571448Y-89001472D01*
X72666992Y-88961897D01*
X72752979Y-88904442D01*
X72826105Y-88831316D01*
X72883560Y-88745329D01*
X72923135Y-88649785D01*
X72943311Y-88548356D01*
X72943311Y-88444940D01*
X72923135Y-88343511D01*
X72883560Y-88247967D01*
X72826105Y-88161980D01*
X72752979Y-88088854D01*
X72666992Y-88031399D01*
X72571448Y-87991824D01*
X72470019Y-87971648D01*
X72366603Y-87971648D01*
X72265174Y-87991824D01*
X72169630Y-88031399D01*
X72083643Y-88088854D01*
X72010517Y-88161980D01*
X71953062Y-88247967D01*
X71913487Y-88343511D01*
X71893311Y-88444940D01*
X63530145Y-88444940D01*
X64626533Y-87348552D01*
X67343800Y-87348552D01*
X67343800Y-87451968D01*
X67363976Y-87553397D01*
X67403551Y-87648941D01*
X67461006Y-87734928D01*
X67534132Y-87808054D01*
X67620119Y-87865509D01*
X67715663Y-87905084D01*
X67817092Y-87925260D01*
X67920508Y-87925260D01*
X68021937Y-87905084D01*
X68117481Y-87865509D01*
X68203468Y-87808054D01*
X68276594Y-87734928D01*
X68334049Y-87648941D01*
X68373624Y-87553397D01*
X68393800Y-87451968D01*
X68393800Y-87348552D01*
X68373624Y-87247123D01*
X68346672Y-87182052D01*
X72596520Y-87182052D01*
X72596520Y-87285468D01*
X72616696Y-87386897D01*
X72656271Y-87482441D01*
X72713726Y-87568428D01*
X72786852Y-87641554D01*
X72872839Y-87699009D01*
X72968383Y-87738584D01*
X73069812Y-87758760D01*
X73173228Y-87758760D01*
X73274657Y-87738584D01*
X73370201Y-87699009D01*
X73456188Y-87641554D01*
X73529314Y-87568428D01*
X73586769Y-87482441D01*
X73626344Y-87386897D01*
X73646520Y-87285468D01*
X73646520Y-87182052D01*
X73626344Y-87080623D01*
X73586769Y-86985079D01*
X73529314Y-86899092D01*
X73456188Y-86825966D01*
X73370201Y-86768511D01*
X73274657Y-86728936D01*
X73173228Y-86708760D01*
X73069812Y-86708760D01*
X72968383Y-86728936D01*
X72872839Y-86768511D01*
X72786852Y-86825966D01*
X72713726Y-86899092D01*
X72656271Y-86985079D01*
X72616696Y-87080623D01*
X72596520Y-87182052D01*
X68346672Y-87182052D01*
X68334049Y-87151579D01*
X68276594Y-87065592D01*
X68203468Y-86992466D01*
X68117481Y-86935011D01*
X68021937Y-86895436D01*
X67920508Y-86875260D01*
X67817092Y-86875260D01*
X67715663Y-86895436D01*
X67620119Y-86935011D01*
X67534132Y-86992466D01*
X67461006Y-87065592D01*
X67403551Y-87151579D01*
X67363976Y-87247123D01*
X67343800Y-87348552D01*
X64626533Y-87348552D01*
X65799285Y-86175800D01*
X65954038Y-86175800D01*
X65908532Y-86206206D01*
X65835406Y-86279332D01*
X65777951Y-86365319D01*
X65738376Y-86460863D01*
X65718200Y-86562292D01*
X65718200Y-86665708D01*
X65738376Y-86767137D01*
X65777951Y-86862681D01*
X65835406Y-86948668D01*
X65908532Y-87021794D01*
X65994519Y-87079249D01*
X66090063Y-87118824D01*
X66191492Y-87139000D01*
X66294908Y-87139000D01*
X66396337Y-87118824D01*
X66491881Y-87079249D01*
X66577868Y-87021794D01*
X66650994Y-86948668D01*
X66708449Y-86862681D01*
X66748024Y-86767137D01*
X66768200Y-86665708D01*
X66768200Y-86562292D01*
X66748024Y-86460863D01*
X66708449Y-86365319D01*
X66650994Y-86279332D01*
X66577868Y-86206206D01*
X66532362Y-86175800D01*
X67564438Y-86175800D01*
X67572232Y-86183594D01*
X67658219Y-86241049D01*
X67753763Y-86280624D01*
X67855192Y-86300800D01*
X67958608Y-86300800D01*
X68060037Y-86280624D01*
X68155581Y-86241049D01*
X68241568Y-86183594D01*
X68314694Y-86110468D01*
X68372149Y-86024481D01*
X68411724Y-85928937D01*
X68422156Y-85876492D01*
X71103000Y-85876492D01*
X71103000Y-85979908D01*
X71123176Y-86081337D01*
X71162751Y-86176881D01*
X71220206Y-86262868D01*
X71293332Y-86335994D01*
X71379319Y-86393449D01*
X71474863Y-86433024D01*
X71576292Y-86453200D01*
X71679708Y-86453200D01*
X71781137Y-86433024D01*
X71876681Y-86393449D01*
X71962668Y-86335994D01*
X72035794Y-86262868D01*
X72093249Y-86176881D01*
X72132824Y-86081337D01*
X72153000Y-85979908D01*
X72153000Y-85876492D01*
X72132824Y-85775063D01*
X72093249Y-85679519D01*
X72035794Y-85593532D01*
X71962668Y-85520406D01*
X71876681Y-85462951D01*
X71781137Y-85423376D01*
X71679708Y-85403200D01*
X71576292Y-85403200D01*
X71474863Y-85423376D01*
X71379319Y-85462951D01*
X71293332Y-85520406D01*
X71220206Y-85593532D01*
X71162751Y-85679519D01*
X71123176Y-85775063D01*
X71103000Y-85876492D01*
X68422156Y-85876492D01*
X68431900Y-85827508D01*
X68431900Y-85724092D01*
X68411724Y-85622663D01*
X68372149Y-85527119D01*
X68314694Y-85441132D01*
X68241568Y-85368006D01*
X68155581Y-85310551D01*
X68060037Y-85270976D01*
X67958608Y-85250800D01*
X67855192Y-85250800D01*
X67753763Y-85270976D01*
X67658219Y-85310551D01*
X67572232Y-85368006D01*
X67564438Y-85375800D01*
X65653235Y-85375800D01*
X65633599Y-85373866D01*
X65613963Y-85375800D01*
X65613953Y-85375800D01*
X65555186Y-85381588D01*
X65479786Y-85404460D01*
X65410297Y-85441603D01*
X65349389Y-85491589D01*
X65336863Y-85506852D01*
X63557100Y-87286615D01*
X63557100Y-85926245D01*
X65060146Y-84423200D01*
X65151440Y-84423200D01*
X65159234Y-84430994D01*
X65245221Y-84488449D01*
X65340765Y-84528024D01*
X65442194Y-84548200D01*
X65545610Y-84548200D01*
X65647039Y-84528024D01*
X65742583Y-84488449D01*
X65828570Y-84430994D01*
X65901696Y-84357868D01*
X65959151Y-84271881D01*
X65967844Y-84250892D01*
X73973200Y-84250892D01*
X73973200Y-84354308D01*
X73993376Y-84455737D01*
X74032951Y-84551281D01*
X74090406Y-84637268D01*
X74163532Y-84710394D01*
X74249519Y-84767849D01*
X74345063Y-84807424D01*
X74446492Y-84827600D01*
X74549908Y-84827600D01*
X74651337Y-84807424D01*
X74746881Y-84767849D01*
X74832868Y-84710394D01*
X74905994Y-84637268D01*
X74963449Y-84551281D01*
X75003024Y-84455737D01*
X75023200Y-84354308D01*
X75023200Y-84250892D01*
X75003024Y-84149463D01*
X74963449Y-84053919D01*
X74905994Y-83967932D01*
X74832868Y-83894806D01*
X74746881Y-83837351D01*
X74651337Y-83797776D01*
X74549908Y-83777600D01*
X74446492Y-83777600D01*
X74345063Y-83797776D01*
X74249519Y-83837351D01*
X74163532Y-83894806D01*
X74090406Y-83967932D01*
X74032951Y-84053919D01*
X73993376Y-84149463D01*
X73973200Y-84250892D01*
X65967844Y-84250892D01*
X65998726Y-84176337D01*
X66018902Y-84074908D01*
X66018902Y-83971492D01*
X65998726Y-83870063D01*
X65959151Y-83774519D01*
X65901696Y-83688532D01*
X65828570Y-83615406D01*
X65742583Y-83557951D01*
X65647039Y-83518376D01*
X65545610Y-83498200D01*
X65442194Y-83498200D01*
X65349483Y-83516642D01*
X65377233Y-83488892D01*
X71120810Y-83488892D01*
X71120810Y-83592308D01*
X71140986Y-83693737D01*
X71180561Y-83789281D01*
X71238016Y-83875268D01*
X71311142Y-83948394D01*
X71397129Y-84005849D01*
X71492673Y-84045424D01*
X71594102Y-84065600D01*
X71697518Y-84065600D01*
X71798947Y-84045424D01*
X71894491Y-84005849D01*
X71980478Y-83948394D01*
X72053604Y-83875268D01*
X72111059Y-83789281D01*
X72150634Y-83693737D01*
X72170810Y-83592308D01*
X72170810Y-83488892D01*
X72150634Y-83387463D01*
X72111059Y-83291919D01*
X72053604Y-83205932D01*
X71980478Y-83132806D01*
X71894491Y-83075351D01*
X71798947Y-83035776D01*
X71697518Y-83015600D01*
X71594102Y-83015600D01*
X71492673Y-83035776D01*
X71397129Y-83075351D01*
X71311142Y-83132806D01*
X71238016Y-83205932D01*
X71180561Y-83291919D01*
X71140986Y-83387463D01*
X71120810Y-83488892D01*
X65377233Y-83488892D01*
X66650185Y-82215940D01*
X67053900Y-82215940D01*
X67061694Y-82223734D01*
G37*
X67061694Y-82223734D02*
X67147681Y-82281189D01*
X67243225Y-82320764D01*
X67344654Y-82340940D01*
X67448070Y-82340940D01*
X67549499Y-82320764D01*
X67645043Y-82281189D01*
X67731030Y-82223734D01*
X67738824Y-82215940D01*
X75159349Y-82215940D01*
X75998247Y-83054839D01*
X75998247Y-83065861D01*
X76018423Y-83167290D01*
X76057998Y-83262834D01*
X76115453Y-83348821D01*
X76123248Y-83356616D01*
X76123247Y-83985782D01*
X76046863Y-84000976D01*
X75951319Y-84040551D01*
X75865332Y-84098006D01*
X75792206Y-84171132D01*
X75734751Y-84257119D01*
X75695176Y-84352663D01*
X75675000Y-84454092D01*
X75675000Y-84557508D01*
X75695176Y-84658937D01*
X75734751Y-84754481D01*
X75792206Y-84840468D01*
X75865332Y-84913594D01*
X75951319Y-84971049D01*
X76046863Y-85010624D01*
X76148292Y-85030800D01*
X76251708Y-85030800D01*
X76353137Y-85010624D01*
X76448681Y-84971049D01*
X76534668Y-84913594D01*
X76607794Y-84840468D01*
X76665249Y-84754481D01*
X76704824Y-84658937D01*
X76725000Y-84557508D01*
X76725000Y-84546486D01*
X76792201Y-84479285D01*
X76807458Y-84466764D01*
X76857444Y-84405856D01*
X76894587Y-84336367D01*
X76917459Y-84260967D01*
X76923247Y-84202200D01*
X76923247Y-84202190D01*
X76925181Y-84182554D01*
X76923247Y-84162918D01*
X76923247Y-83356615D01*
X76931041Y-83348821D01*
X76979849Y-83275774D01*
X78489070Y-84784995D01*
X78469000Y-84885892D01*
X78469000Y-84989308D01*
X78489176Y-85090737D01*
X78528751Y-85186281D01*
X78586206Y-85272268D01*
X78659332Y-85345394D01*
X78745319Y-85402849D01*
X78840863Y-85442424D01*
X78942292Y-85462600D01*
X78953315Y-85462600D01*
X79559200Y-86068486D01*
X79559201Y-87188438D01*
X79528794Y-87142932D01*
X79455668Y-87069806D01*
X79369681Y-87012351D01*
X79274137Y-86972776D01*
X79172708Y-86952600D01*
X79069292Y-86952600D01*
X78967863Y-86972776D01*
X78872319Y-87012351D01*
X78786332Y-87069806D01*
X78713206Y-87142932D01*
X78655751Y-87228919D01*
X78616176Y-87324463D01*
X78596000Y-87425892D01*
X78596000Y-87529308D01*
X78616176Y-87630737D01*
X78655751Y-87726281D01*
X78713206Y-87812268D01*
X78721000Y-87820062D01*
X78721001Y-89545824D01*
X78719065Y-89565480D01*
X78726788Y-89643893D01*
X78740386Y-89688720D01*
X78017967Y-89688720D01*
X77998320Y-89686785D01*
X77978673Y-89688720D01*
X77919906Y-89694508D01*
X77844506Y-89717380D01*
X77775017Y-89754523D01*
X77714109Y-89804509D01*
X77701583Y-89819772D01*
X77097421Y-90423934D01*
X77082158Y-90436460D01*
X77032172Y-90497369D01*
X76995029Y-90566858D01*
X76976895Y-90626638D01*
X76972157Y-90642258D01*
X76964434Y-90720671D01*
X76966369Y-90740318D01*
X76966370Y-92224121D01*
X76964434Y-92243777D01*
X76972157Y-92322190D01*
X76995030Y-92397591D01*
X77032172Y-92467079D01*
X77069634Y-92512727D01*
X77069637Y-92512730D01*
X77082159Y-92527988D01*
X77097417Y-92540510D01*
X78563894Y-94006987D01*
X78576420Y-94022250D01*
X78624269Y-94061519D01*
X78637328Y-94072236D01*
X78683738Y-94097043D01*
X78673531Y-94112319D01*
X78633956Y-94207863D01*
X78613780Y-94309292D01*
X78613780Y-94412708D01*
X78633956Y-94514137D01*
X78673531Y-94609681D01*
X78730986Y-94695668D01*
X78804112Y-94768794D01*
X78844350Y-94795680D01*
X78844351Y-95896114D01*
X78812824Y-95870241D01*
X78815564Y-95863626D01*
X78835740Y-95762197D01*
X78835740Y-95658781D01*
X78815564Y-95557352D01*
X78775989Y-95461808D01*
X78718534Y-95375821D01*
X78645408Y-95302695D01*
X78559421Y-95245240D01*
X78463877Y-95205665D01*
X78362448Y-95185489D01*
X78259032Y-95185489D01*
X78157603Y-95205665D01*
X78062059Y-95245240D01*
X77976072Y-95302695D01*
X77902946Y-95375821D01*
X77845491Y-95461808D01*
X77805916Y-95557352D01*
X77785740Y-95658781D01*
X77785740Y-95762197D01*
X77790375Y-95785499D01*
X76974867Y-95785499D01*
X76954000Y-95783444D01*
X76933133Y-95785499D01*
X76933127Y-95785499D01*
X76879099Y-95790820D01*
X76870686Y-95791649D01*
X76856014Y-95796100D01*
X76790574Y-95815951D01*
X76716741Y-95855415D01*
X76702357Y-95867220D01*
X76670457Y-95893400D01*
X76652027Y-95908525D01*
X76638722Y-95924737D01*
X75509158Y-97054302D01*
X72739340Y-97054302D01*
X72770055Y-96980149D01*
X72790231Y-96878720D01*
X72790231Y-96775304D01*
X72770055Y-96673875D01*
X72730480Y-96578331D01*
X72673025Y-96492344D01*
X72599899Y-96419218D01*
X72513912Y-96361763D01*
X72418368Y-96322188D01*
X72316939Y-96302012D01*
X72213523Y-96302012D01*
X72112094Y-96322188D01*
X72016550Y-96361763D01*
X71930563Y-96419218D01*
X71857437Y-96492344D01*
X71799982Y-96578331D01*
X71760407Y-96673875D01*
X71740231Y-96775304D01*
X71740231Y-96878720D01*
X71754231Y-96949101D01*
X71550059Y-96744930D01*
X71535925Y-96673875D01*
X71496350Y-96578331D01*
X71438895Y-96492344D01*
X71365769Y-96419218D01*
X71279782Y-96361763D01*
X71184238Y-96322188D01*
X71082809Y-96302012D01*
X70979393Y-96302012D01*
X70877964Y-96322188D01*
X70782420Y-96361763D01*
X70696433Y-96419218D01*
X70623307Y-96492344D01*
X70565852Y-96578331D01*
X70526277Y-96673875D01*
X70506101Y-96775304D01*
X70506101Y-96878720D01*
X70526277Y-96980149D01*
X70565852Y-97075693D01*
X70623307Y-97161680D01*
X70696433Y-97234806D01*
X70782420Y-97292261D01*
X70877964Y-97331836D01*
X70949019Y-97345970D01*
X71057361Y-97454313D01*
X68014634Y-97454313D01*
X67994987Y-97452378D01*
X67975340Y-97454313D01*
X67916573Y-97460101D01*
X67841173Y-97482973D01*
X67771684Y-97520116D01*
X67710776Y-97570102D01*
X67698252Y-97585363D01*
X66928415Y-98355200D01*
X63267347Y-98355200D01*
X63292149Y-98318081D01*
X63331724Y-98222537D01*
X63351900Y-98121108D01*
X63351900Y-98017692D01*
X63331724Y-97916263D01*
X63292149Y-97820719D01*
X63234694Y-97734732D01*
X63161568Y-97661606D01*
X63075581Y-97604151D01*
X62980037Y-97564576D01*
X62878608Y-97544400D01*
X62775192Y-97544400D01*
X62680800Y-97563176D01*
X62680800Y-97316757D01*
X62711863Y-97329624D01*
X62813292Y-97349800D01*
X62916708Y-97349800D01*
X63018137Y-97329624D01*
X63113681Y-97290049D01*
X63199668Y-97232594D01*
X63272794Y-97159468D01*
X63330249Y-97073481D01*
X63369824Y-96977937D01*
X63390000Y-96876508D01*
X63390000Y-96773092D01*
X63369824Y-96671663D01*
X63364493Y-96658792D01*
X64321200Y-96658792D01*
X64321200Y-96762208D01*
X64341376Y-96863637D01*
X64380951Y-96959181D01*
X64438406Y-97045168D01*
X64511532Y-97118294D01*
X64597519Y-97175749D01*
X64693063Y-97215324D01*
X64794492Y-97235500D01*
X64897908Y-97235500D01*
X64999337Y-97215324D01*
X65094881Y-97175749D01*
X65180868Y-97118294D01*
X65189006Y-97110156D01*
X65249159Y-97150349D01*
X65344703Y-97189924D01*
X65446132Y-97210100D01*
X65549548Y-97210100D01*
X65650977Y-97189924D01*
X65746521Y-97150349D01*
X65832508Y-97092894D01*
X65905634Y-97019768D01*
X65963089Y-96933781D01*
X66002664Y-96838237D01*
X66022840Y-96736808D01*
X66022840Y-96633392D01*
X66002664Y-96531963D01*
X65963089Y-96436419D01*
X65905634Y-96350432D01*
X65832508Y-96277306D01*
X65746521Y-96219851D01*
X65650977Y-96180276D01*
X65549548Y-96160100D01*
X65446132Y-96160100D01*
X65344703Y-96180276D01*
X65249159Y-96219851D01*
X65163172Y-96277306D01*
X65155034Y-96285444D01*
X65094881Y-96245251D01*
X64999337Y-96205676D01*
X64897908Y-96185500D01*
X64794492Y-96185500D01*
X64693063Y-96205676D01*
X64597519Y-96245251D01*
X64511532Y-96302706D01*
X64438406Y-96375832D01*
X64380951Y-96461819D01*
X64341376Y-96557363D01*
X64321200Y-96658792D01*
X63364493Y-96658792D01*
X63330249Y-96576119D01*
X63272794Y-96490132D01*
X63199668Y-96417006D01*
X63113681Y-96359551D01*
X63018137Y-96319976D01*
X62916708Y-96299800D01*
X62813292Y-96299800D01*
X62711863Y-96319976D01*
X62680800Y-96332843D01*
X62680800Y-95904647D01*
X62682735Y-95885000D01*
X62675012Y-95806586D01*
X62652140Y-95731186D01*
X62614997Y-95661697D01*
X62577535Y-95616050D01*
X62565011Y-95600789D01*
X62549749Y-95588264D01*
X62354199Y-95392714D01*
X62354199Y-95360848D01*
X64631080Y-95360848D01*
X64631080Y-95464264D01*
X64651256Y-95565693D01*
X64690831Y-95661237D01*
X64748286Y-95747224D01*
X64821412Y-95820350D01*
X64907399Y-95877805D01*
X65002943Y-95917380D01*
X65104372Y-95937556D01*
X65207788Y-95937556D01*
X65309217Y-95917380D01*
X65404761Y-95877805D01*
X65490748Y-95820350D01*
X65563874Y-95747224D01*
X65621329Y-95661237D01*
X65660904Y-95565693D01*
X65681080Y-95464264D01*
X65681080Y-95360848D01*
X65660904Y-95259419D01*
X65621329Y-95163875D01*
X65563874Y-95077888D01*
X65490748Y-95004762D01*
X65404761Y-94947307D01*
X65309217Y-94907732D01*
X65207788Y-94887556D01*
X65104372Y-94887556D01*
X65002943Y-94907732D01*
X64907399Y-94947307D01*
X64821412Y-95004762D01*
X64748286Y-95077888D01*
X64690831Y-95163875D01*
X64651256Y-95259419D01*
X64631080Y-95360848D01*
X62354199Y-95360848D01*
X62354199Y-94817140D01*
X62444992Y-94835200D01*
X62548408Y-94835200D01*
X62649837Y-94815024D01*
X62745381Y-94775449D01*
X62831368Y-94717994D01*
X62904494Y-94644868D01*
X62961949Y-94558881D01*
X63001524Y-94463337D01*
X63021700Y-94361908D01*
X63021700Y-94258492D01*
X63001524Y-94157063D01*
X62975152Y-94093392D01*
X65134000Y-94093392D01*
X65134000Y-94196808D01*
X65154176Y-94298237D01*
X65193751Y-94393781D01*
X65251206Y-94479768D01*
X65324332Y-94552894D01*
X65410319Y-94610349D01*
X65505863Y-94649924D01*
X65607292Y-94670100D01*
X65710708Y-94670100D01*
X65812137Y-94649924D01*
X65907681Y-94610349D01*
X65993668Y-94552894D01*
X66066794Y-94479768D01*
X66124249Y-94393781D01*
X66163824Y-94298237D01*
X66184000Y-94196808D01*
X66184000Y-94093392D01*
X66163824Y-93991963D01*
X66124249Y-93896419D01*
X66066794Y-93810432D01*
X65993668Y-93737306D01*
X65907681Y-93679851D01*
X65812137Y-93640276D01*
X65710708Y-93620100D01*
X65607292Y-93620100D01*
X65505863Y-93640276D01*
X65410319Y-93679851D01*
X65324332Y-93737306D01*
X65251206Y-93810432D01*
X65193751Y-93896419D01*
X65154176Y-93991963D01*
X65134000Y-94093392D01*
X62975152Y-94093392D01*
X62961949Y-94061519D01*
X62904494Y-93975532D01*
X62831368Y-93902406D01*
X62745381Y-93844951D01*
X62649837Y-93805376D01*
X62548408Y-93785200D01*
X62444992Y-93785200D01*
X62354199Y-93803260D01*
X62354199Y-91291772D01*
X64620920Y-91291772D01*
X64620920Y-91395188D01*
X64641096Y-91496617D01*
X64680671Y-91592161D01*
X64738126Y-91678148D01*
X64811252Y-91751274D01*
X64897239Y-91808729D01*
X64992783Y-91848304D01*
X65094212Y-91868480D01*
X65197628Y-91868480D01*
X65299057Y-91848304D01*
X65394601Y-91808729D01*
X65480588Y-91751274D01*
X65553714Y-91678148D01*
X65558702Y-91670684D01*
X65593572Y-91705554D01*
X65679559Y-91763009D01*
X65775103Y-91802584D01*
X65876532Y-91822760D01*
X65979948Y-91822760D01*
X66081377Y-91802584D01*
X66176921Y-91763009D01*
X66262908Y-91705554D01*
X66336034Y-91632428D01*
X66393489Y-91546441D01*
X66433064Y-91450897D01*
X66453240Y-91349468D01*
X66453240Y-91246052D01*
X66433064Y-91144623D01*
X66393489Y-91049079D01*
X66336034Y-90963092D01*
X66262908Y-90889966D01*
X66176921Y-90832511D01*
X66081377Y-90792936D01*
X65979948Y-90772760D01*
X65876532Y-90772760D01*
X65775103Y-90792936D01*
X65679559Y-90832511D01*
X65593572Y-90889966D01*
X65520446Y-90963092D01*
X65515458Y-90970556D01*
X65480588Y-90935686D01*
X65394601Y-90878231D01*
X65299057Y-90838656D01*
X65197628Y-90818480D01*
X65094212Y-90818480D01*
X64992783Y-90838656D01*
X64897239Y-90878231D01*
X64811252Y-90935686D01*
X64738126Y-91008812D01*
X64680671Y-91094799D01*
X64641096Y-91190343D01*
X64620920Y-91291772D01*
X62354199Y-91291772D01*
X62354199Y-90526068D01*
X62427879Y-90495549D01*
X62513866Y-90438094D01*
X62586992Y-90364968D01*
X62644447Y-90278981D01*
X62684022Y-90183437D01*
X62702032Y-90092892D01*
X63051200Y-90092892D01*
X63051200Y-90196308D01*
X63071376Y-90297737D01*
X63110951Y-90393281D01*
X63168406Y-90479268D01*
X63241532Y-90552394D01*
X63327519Y-90609849D01*
X63423063Y-90649424D01*
X63524492Y-90669600D01*
X63627908Y-90669600D01*
X63729337Y-90649424D01*
X63824881Y-90609849D01*
X63910868Y-90552394D01*
X63983994Y-90479268D01*
X64041449Y-90393281D01*
X64081024Y-90297737D01*
X64101200Y-90196308D01*
X64101200Y-90092892D01*
X64085032Y-90011612D01*
X65017160Y-90011612D01*
X65017160Y-90115028D01*
X65037336Y-90216457D01*
X65076911Y-90312001D01*
X65134366Y-90397988D01*
X65207492Y-90471114D01*
X65293479Y-90528569D01*
X65389023Y-90568144D01*
X65490452Y-90588320D01*
X65593868Y-90588320D01*
X65695297Y-90568144D01*
X65790841Y-90528569D01*
X65876828Y-90471114D01*
X65949954Y-90397988D01*
X66007409Y-90312001D01*
X66038144Y-90237800D01*
X66096788Y-90237800D01*
X66198217Y-90217624D01*
X66293761Y-90178049D01*
X66379748Y-90120594D01*
X66435062Y-90065280D01*
X67320940Y-90065280D01*
X67320940Y-90168696D01*
X67341116Y-90270125D01*
X67380691Y-90365669D01*
X67438146Y-90451656D01*
X67511272Y-90524782D01*
X67597259Y-90582237D01*
X67692803Y-90621812D01*
X67794232Y-90641988D01*
X67897648Y-90641988D01*
X67999077Y-90621812D01*
X68094621Y-90582237D01*
X68180608Y-90524782D01*
X68253734Y-90451656D01*
X68311189Y-90365669D01*
X68350764Y-90270125D01*
X68370940Y-90168696D01*
X68370940Y-90065280D01*
X71458600Y-90065280D01*
X71458600Y-90168696D01*
X71478776Y-90270125D01*
X71518351Y-90365669D01*
X71575806Y-90451656D01*
X71648932Y-90524782D01*
X71734919Y-90582237D01*
X71830463Y-90621812D01*
X71931892Y-90641988D01*
X72035308Y-90641988D01*
X72136737Y-90621812D01*
X72232281Y-90582237D01*
X72318268Y-90524782D01*
X72391394Y-90451656D01*
X72448849Y-90365669D01*
X72488424Y-90270125D01*
X72508600Y-90168696D01*
X72508600Y-90065280D01*
X72503988Y-90042092D01*
X73033400Y-90042092D01*
X73033400Y-90145508D01*
X73053576Y-90246937D01*
X73093151Y-90342481D01*
X73150606Y-90428468D01*
X73223732Y-90501594D01*
X73309719Y-90559049D01*
X73405263Y-90598624D01*
X73506692Y-90618800D01*
X73610108Y-90618800D01*
X73711537Y-90598624D01*
X73807081Y-90559049D01*
X73893068Y-90501594D01*
X73966194Y-90428468D01*
X74023649Y-90342481D01*
X74063224Y-90246937D01*
X74083400Y-90145508D01*
X74083400Y-90042092D01*
X74063224Y-89940663D01*
X74063154Y-89940492D01*
X75258440Y-89940492D01*
X75258440Y-90043908D01*
X75278616Y-90145337D01*
X75318191Y-90240881D01*
X75375646Y-90326868D01*
X75448772Y-90399994D01*
X75534759Y-90457449D01*
X75630303Y-90497024D01*
X75731732Y-90517200D01*
X75835148Y-90517200D01*
X75936577Y-90497024D01*
X76032121Y-90457449D01*
X76118108Y-90399994D01*
X76191234Y-90326868D01*
X76248689Y-90240881D01*
X76288264Y-90145337D01*
X76308440Y-90043908D01*
X76308440Y-89940492D01*
X76288264Y-89839063D01*
X76248689Y-89743519D01*
X76191234Y-89657532D01*
X76118108Y-89584406D01*
X76032121Y-89526951D01*
X75936577Y-89487376D01*
X75835148Y-89467200D01*
X75731732Y-89467200D01*
X75630303Y-89487376D01*
X75534759Y-89526951D01*
X75448772Y-89584406D01*
X75375646Y-89657532D01*
X75318191Y-89743519D01*
X75278616Y-89839063D01*
X75258440Y-89940492D01*
X74063154Y-89940492D01*
X74023649Y-89845119D01*
X73977541Y-89776114D01*
X74036943Y-89716712D01*
X74094398Y-89630725D01*
X74133973Y-89535181D01*
X74154149Y-89433752D01*
X74154149Y-89330336D01*
X74133973Y-89228907D01*
X74094398Y-89133363D01*
X74055861Y-89075689D01*
X74092328Y-89051322D01*
X74165454Y-88978196D01*
X74222909Y-88892209D01*
X74244203Y-88840800D01*
X74321308Y-88840800D01*
X74422737Y-88820624D01*
X74518281Y-88781049D01*
X74578505Y-88740808D01*
X74663929Y-88797887D01*
X74759473Y-88837462D01*
X74860902Y-88857638D01*
X74964318Y-88857638D01*
X75065747Y-88837462D01*
X75161291Y-88797887D01*
X75247278Y-88740432D01*
X75320404Y-88667306D01*
X75377859Y-88581319D01*
X75417434Y-88485775D01*
X75437610Y-88384346D01*
X75437610Y-88280930D01*
X75417434Y-88179501D01*
X75377859Y-88083957D01*
X75320404Y-87997970D01*
X75247278Y-87924844D01*
X75161291Y-87867389D01*
X75065747Y-87827814D01*
X74964318Y-87807638D01*
X74860902Y-87807638D01*
X74759473Y-87827814D01*
X74663929Y-87867389D01*
X74603705Y-87907630D01*
X74518281Y-87850551D01*
X74422737Y-87810976D01*
X74321308Y-87790800D01*
X74217892Y-87790800D01*
X74116463Y-87810976D01*
X74020919Y-87850551D01*
X73934932Y-87908006D01*
X73861806Y-87981132D01*
X73804351Y-88067119D01*
X73783057Y-88118528D01*
X73705952Y-88118528D01*
X73604523Y-88138704D01*
X73508979Y-88178279D01*
X73422992Y-88235734D01*
X73349866Y-88308860D01*
X73292411Y-88394847D01*
X73252836Y-88490391D01*
X73232660Y-88591820D01*
X73232660Y-88695236D01*
X73252836Y-88796665D01*
X73292411Y-88892209D01*
X73330948Y-88949883D01*
X73294481Y-88974250D01*
X73221355Y-89047376D01*
X73163900Y-89133363D01*
X73124325Y-89228907D01*
X73104149Y-89330336D01*
X73104149Y-89433752D01*
X73124325Y-89535181D01*
X73163900Y-89630725D01*
X73210008Y-89699730D01*
X73150606Y-89759132D01*
X73093151Y-89845119D01*
X73053576Y-89940663D01*
X73033400Y-90042092D01*
X72503988Y-90042092D01*
X72488424Y-89963851D01*
X72448849Y-89868307D01*
X72391394Y-89782320D01*
X72318268Y-89709194D01*
X72232281Y-89651739D01*
X72136737Y-89612164D01*
X72035308Y-89591988D01*
X71931892Y-89591988D01*
X71830463Y-89612164D01*
X71734919Y-89651739D01*
X71648932Y-89709194D01*
X71575806Y-89782320D01*
X71518351Y-89868307D01*
X71478776Y-89963851D01*
X71458600Y-90065280D01*
X68370940Y-90065280D01*
X68350764Y-89963851D01*
X68311189Y-89868307D01*
X68253734Y-89782320D01*
X68180608Y-89709194D01*
X68094621Y-89651739D01*
X67999077Y-89612164D01*
X67897648Y-89591988D01*
X67794232Y-89591988D01*
X67692803Y-89612164D01*
X67597259Y-89651739D01*
X67511272Y-89709194D01*
X67438146Y-89782320D01*
X67380691Y-89868307D01*
X67341116Y-89963851D01*
X67320940Y-90065280D01*
X66435062Y-90065280D01*
X66452874Y-90047468D01*
X66510329Y-89961481D01*
X66549904Y-89865937D01*
X66570080Y-89764508D01*
X66570080Y-89661092D01*
X66549904Y-89559663D01*
X66510329Y-89464119D01*
X66452874Y-89378132D01*
X66379748Y-89305006D01*
X66293761Y-89247551D01*
X66198217Y-89207976D01*
X66096788Y-89187800D01*
X65993372Y-89187800D01*
X65891943Y-89207976D01*
X65796399Y-89247551D01*
X65710412Y-89305006D01*
X65637286Y-89378132D01*
X65579831Y-89464119D01*
X65549096Y-89538320D01*
X65490452Y-89538320D01*
X65389023Y-89558496D01*
X65293479Y-89598071D01*
X65207492Y-89655526D01*
X65134366Y-89728652D01*
X65076911Y-89814639D01*
X65037336Y-89910183D01*
X65017160Y-90011612D01*
X64085032Y-90011612D01*
X64081024Y-89991463D01*
X64041449Y-89895919D01*
X63983994Y-89809932D01*
X63910868Y-89736806D01*
X63824881Y-89679351D01*
X63729337Y-89639776D01*
X63627908Y-89619600D01*
X63524492Y-89619600D01*
X63423063Y-89639776D01*
X63327519Y-89679351D01*
X63241532Y-89736806D01*
X63168406Y-89809932D01*
X63110951Y-89895919D01*
X63071376Y-89991463D01*
X63051200Y-90092892D01*
X62702032Y-90092892D01*
X62704198Y-90082008D01*
X62704198Y-89978592D01*
X62684022Y-89877163D01*
X62644447Y-89781619D01*
X62586992Y-89695632D01*
X62513866Y-89622506D01*
X62427879Y-89565051D01*
X62415261Y-89559824D01*
X63530145Y-88444940D01*
X71893311Y-88444940D01*
X71893311Y-88548356D01*
X71913487Y-88649785D01*
X71953062Y-88745329D01*
X72010517Y-88831316D01*
X72083643Y-88904442D01*
X72169630Y-88961897D01*
X72265174Y-89001472D01*
X72366603Y-89021648D01*
X72470019Y-89021648D01*
X72571448Y-89001472D01*
X72666992Y-88961897D01*
X72752979Y-88904442D01*
X72826105Y-88831316D01*
X72883560Y-88745329D01*
X72923135Y-88649785D01*
X72943311Y-88548356D01*
X72943311Y-88444940D01*
X72923135Y-88343511D01*
X72883560Y-88247967D01*
X72826105Y-88161980D01*
X72752979Y-88088854D01*
X72666992Y-88031399D01*
X72571448Y-87991824D01*
X72470019Y-87971648D01*
X72366603Y-87971648D01*
X72265174Y-87991824D01*
X72169630Y-88031399D01*
X72083643Y-88088854D01*
X72010517Y-88161980D01*
X71953062Y-88247967D01*
X71913487Y-88343511D01*
X71893311Y-88444940D01*
X63530145Y-88444940D01*
X64626533Y-87348552D01*
X67343800Y-87348552D01*
X67343800Y-87451968D01*
X67363976Y-87553397D01*
X67403551Y-87648941D01*
X67461006Y-87734928D01*
X67534132Y-87808054D01*
X67620119Y-87865509D01*
X67715663Y-87905084D01*
X67817092Y-87925260D01*
X67920508Y-87925260D01*
X68021937Y-87905084D01*
X68117481Y-87865509D01*
X68203468Y-87808054D01*
X68276594Y-87734928D01*
X68334049Y-87648941D01*
X68373624Y-87553397D01*
X68393800Y-87451968D01*
X68393800Y-87348552D01*
X68373624Y-87247123D01*
X68346672Y-87182052D01*
X72596520Y-87182052D01*
X72596520Y-87285468D01*
X72616696Y-87386897D01*
X72656271Y-87482441D01*
X72713726Y-87568428D01*
X72786852Y-87641554D01*
X72872839Y-87699009D01*
X72968383Y-87738584D01*
X73069812Y-87758760D01*
X73173228Y-87758760D01*
X73274657Y-87738584D01*
X73370201Y-87699009D01*
X73456188Y-87641554D01*
X73529314Y-87568428D01*
X73586769Y-87482441D01*
X73626344Y-87386897D01*
X73646520Y-87285468D01*
X73646520Y-87182052D01*
X73626344Y-87080623D01*
X73586769Y-86985079D01*
X73529314Y-86899092D01*
X73456188Y-86825966D01*
X73370201Y-86768511D01*
X73274657Y-86728936D01*
X73173228Y-86708760D01*
X73069812Y-86708760D01*
X72968383Y-86728936D01*
X72872839Y-86768511D01*
X72786852Y-86825966D01*
X72713726Y-86899092D01*
X72656271Y-86985079D01*
X72616696Y-87080623D01*
X72596520Y-87182052D01*
X68346672Y-87182052D01*
X68334049Y-87151579D01*
X68276594Y-87065592D01*
X68203468Y-86992466D01*
X68117481Y-86935011D01*
X68021937Y-86895436D01*
X67920508Y-86875260D01*
X67817092Y-86875260D01*
X67715663Y-86895436D01*
X67620119Y-86935011D01*
X67534132Y-86992466D01*
X67461006Y-87065592D01*
X67403551Y-87151579D01*
X67363976Y-87247123D01*
X67343800Y-87348552D01*
X64626533Y-87348552D01*
X65799285Y-86175800D01*
X65954038Y-86175800D01*
X65908532Y-86206206D01*
X65835406Y-86279332D01*
X65777951Y-86365319D01*
X65738376Y-86460863D01*
X65718200Y-86562292D01*
X65718200Y-86665708D01*
X65738376Y-86767137D01*
X65777951Y-86862681D01*
X65835406Y-86948668D01*
X65908532Y-87021794D01*
X65994519Y-87079249D01*
X66090063Y-87118824D01*
X66191492Y-87139000D01*
X66294908Y-87139000D01*
X66396337Y-87118824D01*
X66491881Y-87079249D01*
X66577868Y-87021794D01*
X66650994Y-86948668D01*
X66708449Y-86862681D01*
X66748024Y-86767137D01*
X66768200Y-86665708D01*
X66768200Y-86562292D01*
X66748024Y-86460863D01*
X66708449Y-86365319D01*
X66650994Y-86279332D01*
X66577868Y-86206206D01*
X66532362Y-86175800D01*
X67564438Y-86175800D01*
X67572232Y-86183594D01*
X67658219Y-86241049D01*
X67753763Y-86280624D01*
X67855192Y-86300800D01*
X67958608Y-86300800D01*
X68060037Y-86280624D01*
X68155581Y-86241049D01*
X68241568Y-86183594D01*
X68314694Y-86110468D01*
X68372149Y-86024481D01*
X68411724Y-85928937D01*
X68422156Y-85876492D01*
X71103000Y-85876492D01*
X71103000Y-85979908D01*
X71123176Y-86081337D01*
X71162751Y-86176881D01*
X71220206Y-86262868D01*
X71293332Y-86335994D01*
X71379319Y-86393449D01*
X71474863Y-86433024D01*
X71576292Y-86453200D01*
X71679708Y-86453200D01*
X71781137Y-86433024D01*
X71876681Y-86393449D01*
X71962668Y-86335994D01*
X72035794Y-86262868D01*
X72093249Y-86176881D01*
X72132824Y-86081337D01*
X72153000Y-85979908D01*
X72153000Y-85876492D01*
X72132824Y-85775063D01*
X72093249Y-85679519D01*
X72035794Y-85593532D01*
X71962668Y-85520406D01*
X71876681Y-85462951D01*
X71781137Y-85423376D01*
X71679708Y-85403200D01*
X71576292Y-85403200D01*
X71474863Y-85423376D01*
X71379319Y-85462951D01*
X71293332Y-85520406D01*
X71220206Y-85593532D01*
X71162751Y-85679519D01*
X71123176Y-85775063D01*
X71103000Y-85876492D01*
X68422156Y-85876492D01*
X68431900Y-85827508D01*
X68431900Y-85724092D01*
X68411724Y-85622663D01*
X68372149Y-85527119D01*
X68314694Y-85441132D01*
X68241568Y-85368006D01*
X68155581Y-85310551D01*
X68060037Y-85270976D01*
X67958608Y-85250800D01*
X67855192Y-85250800D01*
X67753763Y-85270976D01*
X67658219Y-85310551D01*
X67572232Y-85368006D01*
X67564438Y-85375800D01*
X65653235Y-85375800D01*
X65633599Y-85373866D01*
X65613963Y-85375800D01*
X65613953Y-85375800D01*
X65555186Y-85381588D01*
X65479786Y-85404460D01*
X65410297Y-85441603D01*
X65349389Y-85491589D01*
X65336863Y-85506852D01*
X63557100Y-87286615D01*
X63557100Y-85926245D01*
X65060146Y-84423200D01*
X65151440Y-84423200D01*
X65159234Y-84430994D01*
X65245221Y-84488449D01*
X65340765Y-84528024D01*
X65442194Y-84548200D01*
X65545610Y-84548200D01*
X65647039Y-84528024D01*
X65742583Y-84488449D01*
X65828570Y-84430994D01*
X65901696Y-84357868D01*
X65959151Y-84271881D01*
X65967844Y-84250892D01*
X73973200Y-84250892D01*
X73973200Y-84354308D01*
X73993376Y-84455737D01*
X74032951Y-84551281D01*
X74090406Y-84637268D01*
X74163532Y-84710394D01*
X74249519Y-84767849D01*
X74345063Y-84807424D01*
X74446492Y-84827600D01*
X74549908Y-84827600D01*
X74651337Y-84807424D01*
X74746881Y-84767849D01*
X74832868Y-84710394D01*
X74905994Y-84637268D01*
X74963449Y-84551281D01*
X75003024Y-84455737D01*
X75023200Y-84354308D01*
X75023200Y-84250892D01*
X75003024Y-84149463D01*
X74963449Y-84053919D01*
X74905994Y-83967932D01*
X74832868Y-83894806D01*
X74746881Y-83837351D01*
X74651337Y-83797776D01*
X74549908Y-83777600D01*
X74446492Y-83777600D01*
X74345063Y-83797776D01*
X74249519Y-83837351D01*
X74163532Y-83894806D01*
X74090406Y-83967932D01*
X74032951Y-84053919D01*
X73993376Y-84149463D01*
X73973200Y-84250892D01*
X65967844Y-84250892D01*
X65998726Y-84176337D01*
X66018902Y-84074908D01*
X66018902Y-83971492D01*
X65998726Y-83870063D01*
X65959151Y-83774519D01*
X65901696Y-83688532D01*
X65828570Y-83615406D01*
X65742583Y-83557951D01*
X65647039Y-83518376D01*
X65545610Y-83498200D01*
X65442194Y-83498200D01*
X65349483Y-83516642D01*
X65377233Y-83488892D01*
X71120810Y-83488892D01*
X71120810Y-83592308D01*
X71140986Y-83693737D01*
X71180561Y-83789281D01*
X71238016Y-83875268D01*
X71311142Y-83948394D01*
X71397129Y-84005849D01*
X71492673Y-84045424D01*
X71594102Y-84065600D01*
X71697518Y-84065600D01*
X71798947Y-84045424D01*
X71894491Y-84005849D01*
X71980478Y-83948394D01*
X72053604Y-83875268D01*
X72111059Y-83789281D01*
X72150634Y-83693737D01*
X72170810Y-83592308D01*
X72170810Y-83488892D01*
X72150634Y-83387463D01*
X72111059Y-83291919D01*
X72053604Y-83205932D01*
X71980478Y-83132806D01*
X71894491Y-83075351D01*
X71798947Y-83035776D01*
X71697518Y-83015600D01*
X71594102Y-83015600D01*
X71492673Y-83035776D01*
X71397129Y-83075351D01*
X71311142Y-83132806D01*
X71238016Y-83205932D01*
X71180561Y-83291919D01*
X71140986Y-83387463D01*
X71120810Y-83488892D01*
X65377233Y-83488892D01*
X66650185Y-82215940D01*
X67053900Y-82215940D01*
X67061694Y-82223734D01*
G36*
X80905401Y-85778926D02*
G01*
X80905401Y-85924082D01*
X80897606Y-85931877D01*
X80840151Y-86017864D01*
X80800576Y-86113408D01*
X80780400Y-86214837D01*
X80780400Y-86318253D01*
X80800576Y-86419682D01*
X80840151Y-86515226D01*
X80897606Y-86601213D01*
X80970732Y-86674339D01*
X81050201Y-86727439D01*
X81050202Y-89749715D01*
X80433221Y-90366696D01*
X80427060Y-90346386D01*
X80389917Y-90276897D01*
X80367513Y-90249598D01*
X80364552Y-90245989D01*
X80446268Y-90191388D01*
X80519394Y-90118262D01*
X80576849Y-90032275D01*
X80616424Y-89936731D01*
X80636600Y-89835302D01*
X80636600Y-89731886D01*
X80616424Y-89630457D01*
X80576849Y-89534913D01*
X80519394Y-89448926D01*
X80446268Y-89375800D01*
X80360281Y-89318345D01*
X80264737Y-89278770D01*
X80163308Y-89258594D01*
X80059892Y-89258594D01*
X79958463Y-89278770D01*
X79862919Y-89318345D01*
X79776932Y-89375800D01*
X79703806Y-89448926D01*
X79650263Y-89529058D01*
X79521000Y-89399795D01*
X79521000Y-88685102D01*
X79551406Y-88730608D01*
X79624532Y-88803734D01*
X79710519Y-88861189D01*
X79806063Y-88900764D01*
X79907492Y-88920940D01*
X80010908Y-88920940D01*
X80112337Y-88900764D01*
X80207881Y-88861189D01*
X80293868Y-88803734D01*
X80366994Y-88730608D01*
X80424449Y-88644621D01*
X80464024Y-88549077D01*
X80484200Y-88447648D01*
X80484200Y-88344232D01*
X80464024Y-88242803D01*
X80424449Y-88147259D01*
X80366994Y-88061272D01*
X80359200Y-88053478D01*
X80359200Y-85922446D01*
X80361135Y-85902800D01*
X80353412Y-85824386D01*
X80330540Y-85748985D01*
X80293397Y-85679497D01*
X80255935Y-85633849D01*
X80255933Y-85633847D01*
X80243411Y-85618589D01*
X80228154Y-85606068D01*
X79519000Y-84896915D01*
X79519000Y-84885892D01*
X79498824Y-84784463D01*
X79459249Y-84688919D01*
X79401794Y-84602932D01*
X79360807Y-84561945D01*
X79328197Y-84500937D01*
X79317948Y-84488449D01*
X79278211Y-84440029D01*
X79262949Y-84427504D01*
X77563121Y-82727676D01*
X77705348Y-82578873D01*
X80905401Y-85778926D01*
G37*
X80905401Y-85778926D02*
X80905401Y-85924082D01*
X80897606Y-85931877D01*
X80840151Y-86017864D01*
X80800576Y-86113408D01*
X80780400Y-86214837D01*
X80780400Y-86318253D01*
X80800576Y-86419682D01*
X80840151Y-86515226D01*
X80897606Y-86601213D01*
X80970732Y-86674339D01*
X81050201Y-86727439D01*
X81050202Y-89749715D01*
X80433221Y-90366696D01*
X80427060Y-90346386D01*
X80389917Y-90276897D01*
X80367513Y-90249598D01*
X80364552Y-90245989D01*
X80446268Y-90191388D01*
X80519394Y-90118262D01*
X80576849Y-90032275D01*
X80616424Y-89936731D01*
X80636600Y-89835302D01*
X80636600Y-89731886D01*
X80616424Y-89630457D01*
X80576849Y-89534913D01*
X80519394Y-89448926D01*
X80446268Y-89375800D01*
X80360281Y-89318345D01*
X80264737Y-89278770D01*
X80163308Y-89258594D01*
X80059892Y-89258594D01*
X79958463Y-89278770D01*
X79862919Y-89318345D01*
X79776932Y-89375800D01*
X79703806Y-89448926D01*
X79650263Y-89529058D01*
X79521000Y-89399795D01*
X79521000Y-88685102D01*
X79551406Y-88730608D01*
X79624532Y-88803734D01*
X79710519Y-88861189D01*
X79806063Y-88900764D01*
X79907492Y-88920940D01*
X80010908Y-88920940D01*
X80112337Y-88900764D01*
X80207881Y-88861189D01*
X80293868Y-88803734D01*
X80366994Y-88730608D01*
X80424449Y-88644621D01*
X80464024Y-88549077D01*
X80484200Y-88447648D01*
X80484200Y-88344232D01*
X80464024Y-88242803D01*
X80424449Y-88147259D01*
X80366994Y-88061272D01*
X80359200Y-88053478D01*
X80359200Y-85922446D01*
X80361135Y-85902800D01*
X80353412Y-85824386D01*
X80330540Y-85748985D01*
X80293397Y-85679497D01*
X80255935Y-85633849D01*
X80255933Y-85633847D01*
X80243411Y-85618589D01*
X80228154Y-85606068D01*
X79519000Y-84896915D01*
X79519000Y-84885892D01*
X79498824Y-84784463D01*
X79459249Y-84688919D01*
X79401794Y-84602932D01*
X79360807Y-84561945D01*
X79328197Y-84500937D01*
X79317948Y-84488449D01*
X79278211Y-84440029D01*
X79262949Y-84427504D01*
X77563121Y-82727676D01*
X77705348Y-82578873D01*
X80905401Y-85778926D01*
%TD*%
M02*
