%TF.GenerationSoftware,KiCad,Pcbnew,(5.1.6)-1*%
%TF.CreationDate,2025-11-30T17:49:07+05:30*%
%TF.ProjectId,Project_OAK_MAIN_BRD_V1.0,50726f6a-6563-4745-9f4f-414b5f4d4149,A*%
%TF.SameCoordinates,Original*%
%TF.FileFunction,Legend,Bot*%
%TF.FilePolarity,Positive*%
%FSLAX46Y46*%
G04 Gerber Fmt 4.6, Leading zero omitted, Abs format (unit mm)*
G04 Created by KiCad (PCBNEW (5.1.6)-1) date 2025-11-30 17:49:07*
%MOMM*%
%LPD*%
G01*
G04 APERTURE LIST*
%ADD10C,0.050000*%
%ADD11C,0.150000*%
%ADD12C,0.160000*%
%ADD13C,0.127000*%
%ADD14C,0.200000*%
%ADD15C,0.120000*%
G04 APERTURE END LIST*
D10*
X63090607Y-105946269D02*
G75*
G02*
X63045688Y-103372833I-3060721J1233685D01*
G01*
X59364579Y-108697426D02*
G75*
G02*
X59347670Y-108694566I665307J3984842D01*
G01*
X59299553Y-108686024D02*
G75*
G02*
X59275748Y-108681574I730333J3973440D01*
G01*
X59202956Y-108667048D02*
G75*
G02*
X59190941Y-108664517I826930J3954464D01*
G01*
X59171753Y-108660395D02*
G75*
G02*
X59083892Y-108640268I858133J3947811D01*
G01*
X57200320Y-107596187D02*
G75*
G02*
X57100741Y-107494978I2829566J2883603D01*
G01*
X57081435Y-107474510D02*
G75*
G02*
X57015645Y-107402557I2948451J2761926D01*
G01*
X57005845Y-107391536D02*
G75*
G02*
X57003106Y-107388441I3024041J2678952D01*
G01*
X56911562Y-102143990D02*
G75*
G02*
X56922494Y-102130777I3118324J-2568594D01*
G01*
X56953952Y-102093378D02*
G75*
G02*
X56969708Y-102074987I3075934J-2619206D01*
G01*
X57018683Y-102019211D02*
G75*
G02*
X57026883Y-102010072I3011203J-2693373D01*
G01*
X57040047Y-101995515D02*
G75*
G02*
X57101408Y-101929489I2989839J-2717069D01*
G01*
X58947394Y-100820308D02*
G75*
G02*
X59084833Y-100784674I1082492J-3892276D01*
G01*
X59112211Y-100778188D02*
G75*
G02*
X59207420Y-100757189I917675J-3934396D01*
G01*
X59221866Y-100754213D02*
G75*
G02*
X59225916Y-100753388I808020J-3958371D01*
G01*
X62967070Y-103461132D02*
X65788061Y-103411891D01*
X65829947Y-105811526D02*
X63008956Y-105860767D01*
X57010215Y-102308174D02*
G75*
G02*
X59324566Y-100917571I3019671J-2404410D01*
G01*
X59457441Y-108529902D02*
G75*
G02*
X57095967Y-107220915I572445J3817318D01*
G01*
X63468651Y-105980991D02*
G75*
G02*
X63608163Y-106133295I-10463J-149634D01*
G01*
X63556403Y-103167860D02*
G75*
G02*
X63422289Y-103324939I-149792J-7901D01*
G01*
X63296614Y-105968962D02*
X63171203Y-105960192D01*
X63296614Y-105968962D02*
X63468651Y-105980991D01*
X63422289Y-103324939D02*
X63250777Y-103342965D01*
X63125748Y-103356106D02*
X63250777Y-103342965D01*
X63117297Y-105954813D02*
X63094872Y-105948012D01*
X63090607Y-105946270D02*
X63139020Y-105957942D01*
X63139020Y-105957942D02*
X63296614Y-105968962D01*
X63296613Y-105968962D02*
G75*
G02*
X63250777Y-103342965I-3266727J1256378D01*
G01*
X63250777Y-103342965D02*
X63093663Y-103359478D01*
X63049887Y-103370943D02*
X63072057Y-103363365D01*
X63093663Y-103359478D02*
X63045688Y-103372833D01*
X63111961Y-103658632D02*
G75*
G02*
X63045688Y-103372833I-2618J149976D01*
G01*
X63090608Y-105946270D02*
G75*
G02*
X63146866Y-105658331I58876J137962D01*
G01*
X63146866Y-105658331D02*
X65646484Y-105614700D01*
X65611579Y-103615002D02*
X63111961Y-103658633D01*
X59364579Y-108697426D02*
G75*
G02*
X59347670Y-108694566I665307J3984842D01*
G01*
X59299553Y-108686024D02*
G75*
G02*
X59275748Y-108681574I730333J3973440D01*
G01*
X59202956Y-108667048D02*
G75*
G02*
X59190941Y-108664517I826930J3954464D01*
G01*
X59171753Y-108660395D02*
G75*
G02*
X59083892Y-108640268I858133J3947811D01*
G01*
X57200320Y-107596187D02*
G75*
G02*
X57100741Y-107494978I2829566J2883603D01*
G01*
X57081435Y-107474510D02*
G75*
G02*
X57015645Y-107402557I2948451J2761926D01*
G01*
X57005845Y-107391536D02*
G75*
G02*
X57003106Y-107388441I3024041J2678952D01*
G01*
X56911562Y-102143990D02*
G75*
G02*
X56922494Y-102130777I3118324J-2568594D01*
G01*
X56953952Y-102093378D02*
G75*
G02*
X56969708Y-102074987I3075934J-2619206D01*
G01*
X57018683Y-102019211D02*
G75*
G02*
X57026883Y-102010072I3011203J-2693373D01*
G01*
X57040047Y-101995515D02*
G75*
G02*
X57101408Y-101929489I2989839J-2717069D01*
G01*
X58947394Y-100820308D02*
G75*
G02*
X59084833Y-100784674I1082492J-3892276D01*
G01*
X59112211Y-100778188D02*
G75*
G02*
X59207420Y-100757189I917675J-3934396D01*
G01*
X59221866Y-100754213D02*
G75*
G02*
X59225916Y-100753388I808020J-3958371D01*
G01*
X63708480Y-105848556D02*
X63658448Y-105999452D01*
X63611327Y-103299864D02*
X63666595Y-103448922D01*
X63664746Y-105981553D02*
G75*
G02*
X63658448Y-105999452I-3634860J1268969D01*
G01*
X63687923Y-105913110D02*
G75*
G02*
X63671705Y-105961444I-3658037J1200526D01*
G01*
X63702246Y-105868554D02*
G75*
G02*
X63695859Y-105888651I-3672360J1155970D01*
G01*
X63643607Y-103384610D02*
G75*
G02*
X63666595Y-103448923I-3613721J-1327974D01*
G01*
X63611326Y-103299863D02*
G75*
G02*
X63635140Y-103361793I-3581440J-1412721D01*
G01*
X59034499Y-100797127D02*
X59225916Y-100753388D01*
X58947394Y-100820308D02*
X59034499Y-100797127D01*
X57101408Y-101929490D02*
G75*
G02*
X58947394Y-100820308I2928478J-2783094D01*
G01*
X57040047Y-101995515D02*
X57101408Y-101929489D01*
X56911563Y-102143991D02*
X57040047Y-101995515D01*
X57136692Y-107532342D02*
X57003106Y-107388441D01*
X57200320Y-107596186D02*
X57136692Y-107532342D01*
X59083892Y-108640268D02*
G75*
G02*
X57200320Y-107596186I945994J3927684D01*
G01*
X59171753Y-108660394D02*
X59083892Y-108640268D01*
X59364579Y-108697427D02*
X59171753Y-108660394D01*
X57003107Y-107388442D02*
G75*
G02*
X56911563Y-102143991I3026779J2675858D01*
G01*
X57101143Y-107211578D02*
G75*
G02*
X57015713Y-102317325I2928743J2498994D01*
G01*
X59330065Y-100926722D02*
G75*
G02*
X59962694Y-100863170I699821J-3785862D01*
G01*
X59962695Y-100863171D02*
G75*
G02*
X63611327Y-103299865I67191J-3849413D01*
G01*
X59225916Y-100753388D02*
G75*
G02*
X59959378Y-100673199I803970J-3959196D01*
G01*
X60100393Y-108751970D02*
G75*
G02*
X59364579Y-108697427I-70507J4039386D01*
G01*
X63658449Y-105999454D02*
G75*
G02*
X60097077Y-108561998I-3628563J1286870D01*
G01*
X60097077Y-108561998D02*
G75*
G02*
X59462616Y-108520563I-67191J3849414D01*
G01*
X63860634Y-105995923D02*
X63907908Y-105845075D01*
X63866022Y-103445441D02*
X63813513Y-103296334D01*
X59959378Y-100673200D02*
G75*
G02*
X63813513Y-103296335I70508J-4039384D01*
G01*
X63860634Y-105995924D02*
G75*
G02*
X60100393Y-108751968I-3830748J1283340D01*
G01*
X63813513Y-103296336D02*
G75*
G02*
X63819490Y-103312409I-3783627J-1416248D01*
G01*
X63836150Y-103358351D02*
G75*
G02*
X63844199Y-103381191I-3806264J-1354233D01*
G01*
X63907909Y-105845076D02*
G75*
G02*
X63904081Y-105858101I-3878023J1132492D01*
G01*
X63896010Y-105885055D02*
G75*
G02*
X63866591Y-105978007I-3866124J1172471D01*
G01*
X63861945Y-105992005D02*
G75*
G02*
X63860634Y-105995924I-3832059J1279421D01*
G01*
D11*
X81459600Y-93472000D02*
G75*
G03*
X81459600Y-93472000I-11000000J0D01*
G01*
X70600866Y-102309561D02*
X70696104Y-102357180D01*
X70886580Y-102357180D01*
X70981819Y-102309561D01*
X71029438Y-102261942D01*
X71077057Y-102166704D01*
X71077057Y-101880990D01*
X71029438Y-101785752D01*
X70981819Y-101738133D01*
X70886580Y-101690514D01*
X70696104Y-101690514D01*
X70600866Y-101738133D01*
X70172295Y-102357180D02*
X70172295Y-101357180D01*
X70077057Y-101976228D02*
X69791342Y-102357180D01*
X69791342Y-101690514D02*
X70172295Y-102071466D01*
X73237695Y-102428300D02*
X73237695Y-101428300D01*
X73237695Y-102380681D02*
X73332933Y-102428300D01*
X73523409Y-102428300D01*
X73618647Y-102380681D01*
X73666266Y-102333062D01*
X73713885Y-102237824D01*
X73713885Y-101952110D01*
X73666266Y-101856872D01*
X73618647Y-101809253D01*
X73523409Y-101761634D01*
X73332933Y-101761634D01*
X73237695Y-101809253D01*
X72618647Y-102428300D02*
X72713885Y-102380681D01*
X72761504Y-102333062D01*
X72809123Y-102237824D01*
X72809123Y-101952110D01*
X72761504Y-101856872D01*
X72713885Y-101809253D01*
X72618647Y-101761634D01*
X72475790Y-101761634D01*
X72380552Y-101809253D01*
X72332933Y-101856872D01*
X72285314Y-101952110D01*
X72285314Y-102237824D01*
X72332933Y-102333062D01*
X72380552Y-102380681D01*
X72475790Y-102428300D01*
X72618647Y-102428300D01*
X70498649Y-108001060D02*
X70498649Y-107001060D01*
X70498649Y-107953441D02*
X70593887Y-108001060D01*
X70784363Y-108001060D01*
X70879601Y-107953441D01*
X70927220Y-107905822D01*
X70974840Y-107810584D01*
X70974840Y-107524870D01*
X70927220Y-107429632D01*
X70879601Y-107382013D01*
X70784363Y-107334394D01*
X70593887Y-107334394D01*
X70498649Y-107382013D01*
X70022459Y-108001060D02*
X70022459Y-107334394D01*
X70022459Y-107001060D02*
X70070078Y-107048680D01*
X70022459Y-107096299D01*
X69974840Y-107048680D01*
X70022459Y-107001060D01*
X70022459Y-107096299D01*
X68706904Y-102331780D02*
X68706904Y-101665114D01*
X68706904Y-101855590D02*
X68659285Y-101760352D01*
X68611666Y-101712733D01*
X68516428Y-101665114D01*
X68421190Y-101665114D01*
X68135476Y-102284161D02*
X68040238Y-102331780D01*
X67849761Y-102331780D01*
X67754523Y-102284161D01*
X67706904Y-102188923D01*
X67706904Y-102141304D01*
X67754523Y-102046066D01*
X67849761Y-101998447D01*
X67992619Y-101998447D01*
X68087857Y-101950828D01*
X68135476Y-101855590D01*
X68135476Y-101807971D01*
X68087857Y-101712733D01*
X67992619Y-101665114D01*
X67849761Y-101665114D01*
X67754523Y-101712733D01*
X67421190Y-101665114D02*
X67040238Y-101665114D01*
X67278333Y-101331780D02*
X67278333Y-102188923D01*
X67230714Y-102284161D01*
X67135476Y-102331780D01*
X67040238Y-102331780D01*
X75142147Y-110132880D02*
X75142147Y-110847166D01*
X75189766Y-110990023D01*
X75285004Y-111085261D01*
X75427861Y-111132880D01*
X75523100Y-111132880D01*
X74189766Y-111132880D02*
X74665957Y-111132880D01*
X74665957Y-110132880D01*
X73285004Y-111037642D02*
X73332623Y-111085261D01*
X73475480Y-111132880D01*
X73570719Y-111132880D01*
X73713576Y-111085261D01*
X73808814Y-110990023D01*
X73856433Y-110894785D01*
X73904052Y-110704309D01*
X73904052Y-110561452D01*
X73856433Y-110370976D01*
X73808814Y-110275738D01*
X73713576Y-110180500D01*
X73570719Y-110132880D01*
X73475480Y-110132880D01*
X73332623Y-110180500D01*
X73285004Y-110228119D01*
X72570719Y-110132880D02*
X72570719Y-110847166D01*
X72618338Y-110990023D01*
X72713576Y-111085261D01*
X72856433Y-111132880D01*
X72951671Y-111132880D01*
X71618338Y-111132880D02*
X72094528Y-111132880D01*
X72094528Y-110132880D01*
X70713576Y-111037642D02*
X70761195Y-111085261D01*
X70904052Y-111132880D01*
X70999290Y-111132880D01*
X71142147Y-111085261D01*
X71237385Y-110990023D01*
X71285004Y-110894785D01*
X71332623Y-110704309D01*
X71332623Y-110561452D01*
X71285004Y-110370976D01*
X71237385Y-110275738D01*
X71142147Y-110180500D01*
X70999290Y-110132880D01*
X70904052Y-110132880D01*
X70761195Y-110180500D01*
X70713576Y-110228119D01*
X69999290Y-110132880D02*
X69999290Y-110847166D01*
X70046909Y-110990023D01*
X70142147Y-111085261D01*
X70285004Y-111132880D01*
X70380242Y-111132880D01*
X69046909Y-111132880D02*
X69523100Y-111132880D01*
X69523100Y-110132880D01*
X68142147Y-111037642D02*
X68189766Y-111085261D01*
X68332623Y-111132880D01*
X68427861Y-111132880D01*
X68570719Y-111085261D01*
X68665957Y-110990023D01*
X68713576Y-110894785D01*
X68761195Y-110704309D01*
X68761195Y-110561452D01*
X68713576Y-110370976D01*
X68665957Y-110275738D01*
X68570719Y-110180500D01*
X68427861Y-110132880D01*
X68332623Y-110132880D01*
X68189766Y-110180500D01*
X68142147Y-110228119D01*
X67427861Y-110132880D02*
X67427861Y-110847166D01*
X67475480Y-110990023D01*
X67570719Y-111085261D01*
X67713576Y-111132880D01*
X67808814Y-111132880D01*
X66475480Y-111132880D02*
X66951671Y-111132880D01*
X66951671Y-110132880D01*
X65570719Y-111037642D02*
X65618338Y-111085261D01*
X65761195Y-111132880D01*
X65856433Y-111132880D01*
X65999290Y-111085261D01*
X66094528Y-110990023D01*
X66142147Y-110894785D01*
X66189766Y-110704309D01*
X66189766Y-110561452D01*
X66142147Y-110370976D01*
X66094528Y-110275738D01*
X65999290Y-110180500D01*
X65856433Y-110132880D01*
X65761195Y-110132880D01*
X65618338Y-110180500D01*
X65570719Y-110228119D01*
D12*
X80340504Y-78557380D02*
X80340504Y-77557380D01*
X79959552Y-77557380D01*
X79864314Y-77605000D01*
X79816695Y-77652619D01*
X79769076Y-77747857D01*
X79769076Y-77890714D01*
X79816695Y-77985952D01*
X79864314Y-78033571D01*
X79959552Y-78081190D01*
X80340504Y-78081190D01*
X79340504Y-78557380D02*
X79340504Y-77890714D01*
X79340504Y-78081190D02*
X79292885Y-77985952D01*
X79245266Y-77938333D01*
X79150028Y-77890714D01*
X79054790Y-77890714D01*
X78578600Y-78557380D02*
X78673838Y-78509761D01*
X78721457Y-78462142D01*
X78769076Y-78366904D01*
X78769076Y-78081190D01*
X78721457Y-77985952D01*
X78673838Y-77938333D01*
X78578600Y-77890714D01*
X78435742Y-77890714D01*
X78340504Y-77938333D01*
X78292885Y-77985952D01*
X78245266Y-78081190D01*
X78245266Y-78366904D01*
X78292885Y-78462142D01*
X78340504Y-78509761D01*
X78435742Y-78557380D01*
X78578600Y-78557380D01*
X77816695Y-77890714D02*
X77816695Y-78747857D01*
X77864314Y-78843095D01*
X77959552Y-78890714D01*
X78007171Y-78890714D01*
X77816695Y-77557380D02*
X77864314Y-77605000D01*
X77816695Y-77652619D01*
X77769076Y-77605000D01*
X77816695Y-77557380D01*
X77816695Y-77652619D01*
X76959552Y-78509761D02*
X77054790Y-78557380D01*
X77245266Y-78557380D01*
X77340504Y-78509761D01*
X77388123Y-78414523D01*
X77388123Y-78033571D01*
X77340504Y-77938333D01*
X77245266Y-77890714D01*
X77054790Y-77890714D01*
X76959552Y-77938333D01*
X76911933Y-78033571D01*
X76911933Y-78128809D01*
X77388123Y-78224047D01*
X76054790Y-78509761D02*
X76150028Y-78557380D01*
X76340504Y-78557380D01*
X76435742Y-78509761D01*
X76483361Y-78462142D01*
X76530980Y-78366904D01*
X76530980Y-78081190D01*
X76483361Y-77985952D01*
X76435742Y-77938333D01*
X76340504Y-77890714D01*
X76150028Y-77890714D01*
X76054790Y-77938333D01*
X75769076Y-77890714D02*
X75388123Y-77890714D01*
X75626219Y-77557380D02*
X75626219Y-78414523D01*
X75578600Y-78509761D01*
X75483361Y-78557380D01*
X75388123Y-78557380D01*
X74102409Y-77557380D02*
X73911933Y-77557380D01*
X73816695Y-77605000D01*
X73721457Y-77700238D01*
X73673838Y-77890714D01*
X73673838Y-78224047D01*
X73721457Y-78414523D01*
X73816695Y-78509761D01*
X73911933Y-78557380D01*
X74102409Y-78557380D01*
X74197647Y-78509761D01*
X74292885Y-78414523D01*
X74340504Y-78224047D01*
X74340504Y-77890714D01*
X74292885Y-77700238D01*
X74197647Y-77605000D01*
X74102409Y-77557380D01*
X73292885Y-78271666D02*
X72816695Y-78271666D01*
X73388123Y-78557380D02*
X73054790Y-77557380D01*
X72721457Y-78557380D01*
X72388123Y-78557380D02*
X72388123Y-77557380D01*
X71816695Y-78557380D02*
X72245266Y-77985952D01*
X71816695Y-77557380D02*
X72388123Y-78128809D01*
X70626219Y-78557380D02*
X70626219Y-77557380D01*
X70292885Y-78271666D01*
X69959552Y-77557380D01*
X69959552Y-78557380D01*
X69530980Y-78271666D02*
X69054790Y-78271666D01*
X69626219Y-78557380D02*
X69292885Y-77557380D01*
X68959552Y-78557380D01*
X68626219Y-78557380D02*
X68626219Y-77557380D01*
X68150028Y-78557380D02*
X68150028Y-77557380D01*
X67578600Y-78557380D01*
X67578600Y-77557380D01*
X66007171Y-78033571D02*
X65864314Y-78081190D01*
X65816695Y-78128809D01*
X65769076Y-78224047D01*
X65769076Y-78366904D01*
X65816695Y-78462142D01*
X65864314Y-78509761D01*
X65959552Y-78557380D01*
X66340504Y-78557380D01*
X66340504Y-77557380D01*
X66007171Y-77557380D01*
X65911933Y-77605000D01*
X65864314Y-77652619D01*
X65816695Y-77747857D01*
X65816695Y-77843095D01*
X65864314Y-77938333D01*
X65911933Y-77985952D01*
X66007171Y-78033571D01*
X66340504Y-78033571D01*
X64769076Y-78557380D02*
X65102409Y-78081190D01*
X65340504Y-78557380D02*
X65340504Y-77557380D01*
X64959552Y-77557380D01*
X64864314Y-77605000D01*
X64816695Y-77652619D01*
X64769076Y-77747857D01*
X64769076Y-77890714D01*
X64816695Y-77985952D01*
X64864314Y-78033571D01*
X64959552Y-78081190D01*
X65340504Y-78081190D01*
X64340504Y-78557380D02*
X64340504Y-77557380D01*
X64102409Y-77557380D01*
X63959552Y-77605000D01*
X63864314Y-77700238D01*
X63816695Y-77795476D01*
X63769076Y-77985952D01*
X63769076Y-78128809D01*
X63816695Y-78319285D01*
X63864314Y-78414523D01*
X63959552Y-78509761D01*
X64102409Y-78557380D01*
X64340504Y-78557380D01*
X62721457Y-77557380D02*
X62388123Y-78557380D01*
X62054790Y-77557380D01*
X61197647Y-78557380D02*
X61769076Y-78557380D01*
X61483361Y-78557380D02*
X61483361Y-77557380D01*
X61578600Y-77700238D01*
X61673838Y-77795476D01*
X61769076Y-77843095D01*
X60769076Y-78462142D02*
X60721457Y-78509761D01*
X60769076Y-78557380D01*
X60816695Y-78509761D01*
X60769076Y-78462142D01*
X60769076Y-78557380D01*
X60102409Y-77557380D02*
X60007171Y-77557380D01*
X59911933Y-77605000D01*
X59864314Y-77652619D01*
X59816695Y-77747857D01*
X59769076Y-77938333D01*
X59769076Y-78176428D01*
X59816695Y-78366904D01*
X59864314Y-78462142D01*
X59911933Y-78509761D01*
X60007171Y-78557380D01*
X60102409Y-78557380D01*
X60197647Y-78509761D01*
X60245266Y-78462142D01*
X60292885Y-78366904D01*
X60340504Y-78176428D01*
X60340504Y-77938333D01*
X60292885Y-77747857D01*
X60245266Y-77652619D01*
X60197647Y-77605000D01*
X60102409Y-77557380D01*
D11*
X73380552Y-107391508D02*
X72618647Y-107391508D01*
X72999600Y-107772460D02*
X72999600Y-107010556D01*
X68290392Y-107427068D02*
X67528487Y-107427068D01*
D13*
%TO.C,BT1*%
X85009600Y-92722000D02*
X85009600Y-94222000D01*
X84259600Y-93472000D02*
X85759600Y-93472000D01*
X69759600Y-98772000D02*
X71259600Y-98772000D01*
X55709600Y-92722000D02*
X55709600Y-94222000D01*
X60109600Y-88712000D02*
X60109600Y-90372000D01*
X80809600Y-88712000D02*
X60109600Y-88712000D01*
X80809600Y-90372000D02*
X80809600Y-88712000D01*
X80809600Y-98232000D02*
X80809600Y-96572000D01*
X60109600Y-98232000D02*
X80809600Y-98232000D01*
X60109600Y-96572000D02*
X60109600Y-98232000D01*
X54959600Y-93472000D02*
X56459600Y-93472000D01*
D14*
%TO.C,S3*%
X88243599Y-102445927D02*
G75*
G03*
X88243599Y-102445927I-100000J0D01*
G01*
%TO.C,S1*%
X89232580Y-90469460D02*
G75*
G03*
X89232580Y-90469460I-100000J0D01*
G01*
%TO.C,S2*%
X85851104Y-78993173D02*
G75*
G03*
X85851104Y-78993173I-100000J0D01*
G01*
D15*
%TO.C,TP1*%
X73699600Y-105968800D02*
G75*
G03*
X73699600Y-105968800I-700000J0D01*
G01*
%TO.C,TP3*%
X71159600Y-105968800D02*
G75*
G03*
X71159600Y-105968800I-700000J0D01*
G01*
%TO.C,TP4*%
X73699600Y-103428800D02*
G75*
G03*
X73699600Y-103428800I-700000J0D01*
G01*
%TO.C,TP5*%
X71159600Y-103428800D02*
G75*
G03*
X71159600Y-103428800I-700000J0D01*
G01*
%TO.C,TP12*%
X68619600Y-103428800D02*
G75*
G03*
X68619600Y-103428800I-700000J0D01*
G01*
%TO.C,TP13*%
X68619600Y-105968800D02*
G75*
G03*
X68619600Y-105968800I-700000J0D01*
G01*
D13*
%TO.C,BT1*%
X54959600Y-93472000D02*
X56459600Y-93472000D01*
X60109600Y-96572000D02*
X60109600Y-98232000D01*
X60109600Y-98232000D02*
X80809600Y-98232000D01*
X80809600Y-98232000D02*
X80809600Y-96572000D01*
X80809600Y-90372000D02*
X80809600Y-88712000D01*
X80809600Y-88712000D02*
X60109600Y-88712000D01*
X60109600Y-88712000D02*
X60109600Y-90372000D01*
X55709600Y-92722000D02*
X55709600Y-94222000D01*
X69759600Y-98772000D02*
X71259600Y-98772000D01*
X84259600Y-93472000D02*
X85759600Y-93472000D01*
X85009600Y-92722000D02*
X85009600Y-94222000D01*
D11*
X58927712Y-89641244D02*
X58784601Y-89688948D01*
X58736897Y-89736651D01*
X58689193Y-89832059D01*
X58689193Y-89975170D01*
X58736897Y-90070578D01*
X58784601Y-90118282D01*
X58880009Y-90165986D01*
X59261639Y-90165986D01*
X59261639Y-89164206D01*
X58927712Y-89164206D01*
X58832305Y-89211910D01*
X58784601Y-89259613D01*
X58736897Y-89355021D01*
X58736897Y-89450429D01*
X58784601Y-89545836D01*
X58832305Y-89593540D01*
X58927712Y-89641244D01*
X59261639Y-89641244D01*
X58402970Y-89164206D02*
X57830525Y-89164206D01*
X58116748Y-90165986D02*
X58116748Y-89164206D01*
X56971856Y-90165986D02*
X57544302Y-90165986D01*
X57258079Y-90165986D02*
X57258079Y-89164206D01*
X57353487Y-89307317D01*
X57448894Y-89402725D01*
X57544302Y-89450429D01*
%TD*%
M02*
