%TF.GenerationSoftware,KiCad,Pcbnew,(5.1.6)-1*%
%TF.CreationDate,2025-12-08T08:50:58+05:30*%
%TF.ProjectId,Project_OAK_MAIN_BRD_V1.0,50726f6a-6563-4745-9f4f-414b5f4d4149,A*%
%TF.SameCoordinates,Original*%
%TF.FileFunction,Copper,L2,Inr*%
%TF.FilePolarity,Positive*%
%FSLAX46Y46*%
G04 Gerber Fmt 4.6, Leading zero omitted, Abs format (unit mm)*
G04 Created by KiCad (PCBNEW (5.1.6)-1) date 2025-12-08 08:50:58*
%MOMM*%
%LPD*%
G01*
G04 APERTURE LIST*
%TA.AperFunction,ViaPad*%
%ADD10C,0.450000*%
%TD*%
%TA.AperFunction,Conductor*%
%ADD11C,0.250000*%
%TD*%
%TA.AperFunction,Conductor*%
%ADD12C,0.200000*%
%TD*%
%TA.AperFunction,Conductor*%
%ADD13C,0.156500*%
%TD*%
G04 APERTURE END LIST*
D10*
%TO.N,+3V0*%
X56540400Y-95935800D03*
X84455000Y-91186000D03*
X84480400Y-95275400D03*
X56540400Y-91033600D03*
X61323190Y-96469200D03*
X67640200Y-87499060D03*
X71031101Y-96827012D03*
X78765400Y-96418400D03*
X81864200Y-90093800D03*
X65130680Y-91373960D03*
X73146920Y-86791800D03*
X80655162Y-97546160D03*
X63362840Y-100650040D03*
X65156080Y-95412556D03*
X71912480Y-90116974D03*
%TO.N,GND*%
X74599800Y-78308200D03*
X69363460Y-84744612D03*
X81483200Y-82118200D03*
X85765640Y-89555320D03*
X85699600Y-98501200D03*
X81635600Y-104698800D03*
X74269600Y-108635800D03*
X66065400Y-108458000D03*
X59232800Y-104495600D03*
X55041800Y-97434400D03*
X55092600Y-89204800D03*
X59004200Y-82092800D03*
X66065400Y-78308200D03*
X77647800Y-103251000D03*
X71958200Y-84759800D03*
X66065400Y-83616800D03*
X75463400Y-83870800D03*
X77749400Y-86817200D03*
X69367400Y-82372200D03*
X72567800Y-82346800D03*
X77698600Y-82804000D03*
X72288400Y-101930200D03*
X78943200Y-93243400D03*
X57277000Y-98552000D03*
X80467200Y-85547200D03*
X69875394Y-91846400D03*
X74828400Y-92456000D03*
X76885800Y-92456000D03*
X75844400Y-92456000D03*
X74828400Y-94538800D03*
X76885800Y-94538800D03*
X75844400Y-94538800D03*
X74828400Y-93497400D03*
X76885800Y-93497400D03*
X75844400Y-93497400D03*
X66979332Y-85274276D03*
X69303900Y-101892100D03*
X62826900Y-97459800D03*
X66771520Y-96113600D03*
X66916300Y-90792300D03*
X66916300Y-93002100D03*
X67818000Y-96850200D03*
X74295000Y-103276400D03*
X63106300Y-102590600D03*
X73177400Y-100660200D03*
X73952100Y-86487000D03*
X73837800Y-84759800D03*
X65366900Y-87274400D03*
X64071500Y-88531700D03*
X60629800Y-85318600D03*
X62547500Y-83185000D03*
X80881190Y-89836200D03*
X80886300Y-88506300D03*
X60363100Y-87147400D03*
X66611500Y-88341200D03*
X76174600Y-86512400D03*
X62872131Y-91497093D03*
X87381080Y-90129360D03*
X72379840Y-86146638D03*
X67883010Y-88341200D03*
X81650840Y-96834960D03*
X75915520Y-100614480D03*
X81095811Y-96951617D03*
X81432400Y-98272600D03*
X64989043Y-104815037D03*
X63317120Y-99687350D03*
X64348360Y-85476080D03*
X67201384Y-101530818D03*
X70459600Y-94608478D03*
X73106280Y-96113600D03*
X66807080Y-94493080D03*
X65094336Y-96009389D03*
X69900800Y-96834960D03*
X71885277Y-88841269D03*
%TO.N,/LGT_ON_BTN*%
X73628423Y-90067552D03*
%TO.N,/UP_BTN*%
X73757660Y-88643528D03*
%TO.N,/MCU_RSTn*%
X75706069Y-90050605D03*
X80233520Y-89783920D03*
%TO.N,/R1*%
X69519800Y-105829579D03*
X65493902Y-84023200D03*
X67170300Y-105168700D03*
%TO.N,/R2*%
X63550800Y-103987600D03*
X67284600Y-81788000D03*
X62560200Y-87452200D03*
X74162317Y-105390283D03*
X76530200Y-83007200D03*
X76200000Y-84505800D03*
X74919840Y-88341200D03*
%TO.N,/R3*%
X61899800Y-102031800D03*
X78994000Y-84937600D03*
X64439800Y-83032600D03*
X74269600Y-88315800D03*
X76200000Y-104902000D03*
X79959200Y-88468200D03*
X60229618Y-94589600D03*
%TO.N,/R4*%
X59334400Y-99136200D03*
X80689588Y-92322569D03*
X62382400Y-84302600D03*
X81305400Y-86266545D03*
X78884750Y-103182450D03*
%TO.N,/R5*%
X58140600Y-97561400D03*
X81407000Y-100634800D03*
X64739499Y-102469879D03*
X58943240Y-88386920D03*
X82849720Y-89448640D03*
%TO.N,/R6*%
X82092800Y-87985600D03*
X72974202Y-101320600D03*
X58394600Y-89509600D03*
X64797084Y-100103419D03*
X82356960Y-97393760D03*
%TO.N,/C6*%
X78645990Y-90643050D03*
X67614800Y-100723700D03*
%TO.N,/C5*%
X78255452Y-91131356D03*
X69303900Y-101028500D03*
%TO.N,/C4*%
X78854327Y-91212761D03*
X74543920Y-99274500D03*
%TO.N,/C3*%
X76853351Y-97870246D03*
X67906900Y-85775800D03*
%TO.N,/C2*%
X62179198Y-90030300D03*
X76240729Y-97681500D03*
%TO.N,/PE1*%
X65242569Y-94271505D03*
%TO.N,/ICSP_MOSI*%
X68726369Y-101319837D03*
X77007720Y-97073720D03*
%TO.N,/ICSP_MISO*%
X68237100Y-101727000D03*
X78066900Y-96735902D03*
%TO.N,/ICSP_SCK*%
X78701900Y-95783400D03*
%TO.N,/DWN_BTN*%
X78816198Y-101701600D03*
%TO.N,/RTC_INTO*%
X62496700Y-94310200D03*
X73588880Y-89341960D03*
%TO.N,/SNS_SCL*%
X64840607Y-96734525D03*
X65784589Y-90222951D03*
%TO.N,/SNS_SDA*%
X63576200Y-90144600D03*
X65432465Y-96829719D03*
X72400160Y-88508840D03*
%TO.N,/ACC_INT1*%
X66243200Y-86614000D03*
%TO.N,/ACC_INT2*%
X65784589Y-91319008D03*
X72377300Y-96827016D03*
%TO.N,/PE2*%
X79072882Y-94247399D03*
X67894200Y-99090480D03*
X73177400Y-98836480D03*
%TO.N,/LED MATRIX/C1_T*%
X74498200Y-84302600D03*
X79121000Y-87477600D03*
X71645810Y-83540600D03*
X80060800Y-92329000D03*
X76544726Y-101689518D03*
X78656782Y-99560984D03*
%TO.N,/LED MATRIX/C2_T*%
X61323190Y-97510600D03*
X66446400Y-102590604D03*
%TO.N,/LED MATRIX/C3_T*%
X71628000Y-85928200D03*
X73329800Y-80111600D03*
%TO.N,/LED MATRIX/C4_T*%
X73981751Y-101843057D03*
X82911385Y-97650316D03*
%TO.N,/LED MATRIX/C6_T*%
X57505600Y-89255600D03*
X65570100Y-99618800D03*
%TO.N,/HAP_DRV_NEG*%
X62865000Y-96824800D03*
%TO.N,/HAP_DRV_POS*%
X62826900Y-98069400D03*
%TD*%
D11*
%TO.N,+3V0*%
X78511400Y-96418400D02*
X78765400Y-96418400D01*
X78316199Y-96223199D02*
X78511400Y-96418400D01*
X71031101Y-97243901D02*
X71252080Y-97464880D01*
X71252080Y-97464880D02*
X75699620Y-97464880D01*
X71031101Y-96827012D02*
X71031101Y-97243901D01*
X75699620Y-97464880D02*
X76941301Y-96223199D01*
X76941301Y-96223199D02*
X78316199Y-96223199D01*
D12*
%TO.N,/R1*%
X68872100Y-105168700D02*
X67170300Y-105168700D01*
X69519800Y-105829579D02*
X69519800Y-105816400D01*
X69519800Y-105816400D02*
X68872100Y-105168700D01*
X65105280Y-84023200D02*
X65493902Y-84023200D01*
X63433960Y-85694520D02*
X65105280Y-84023200D01*
X61137800Y-89672160D02*
X63433960Y-87376000D01*
X66387980Y-105168700D02*
X60782200Y-99562920D01*
X63433960Y-87376000D02*
X63433960Y-85694520D01*
X60782200Y-96088200D02*
X61137800Y-95732600D01*
X67170300Y-105168700D02*
X66387980Y-105168700D01*
X60782200Y-99562920D02*
X60782200Y-96088200D01*
X61137800Y-95732600D02*
X61137800Y-89672160D01*
%TO.N,/R2*%
X76530200Y-84175600D02*
X76530200Y-83007200D01*
X76200000Y-84505800D02*
X76530200Y-84175600D01*
X75311000Y-81788000D02*
X76530200Y-83007200D01*
X67284600Y-81788000D02*
X75311000Y-81788000D01*
X65928240Y-106426000D02*
X73126600Y-106426000D01*
X63550800Y-104048560D02*
X65928240Y-106426000D01*
X63550800Y-103987600D02*
X63550800Y-104048560D01*
X73126600Y-106426000D02*
X74162317Y-105390283D01*
X62484000Y-102920800D02*
X63550800Y-103987600D01*
X62484000Y-101917500D02*
X62484000Y-102920800D01*
X60375800Y-99809300D02*
X62484000Y-101917500D01*
X60375800Y-95254504D02*
X60375800Y-99809300D01*
X60553600Y-89458800D02*
X60553600Y-94112080D01*
X60553600Y-94112080D02*
X60761902Y-94320382D01*
X62560200Y-87452200D02*
X60553600Y-89458800D01*
X60761902Y-94320382D02*
X60761902Y-94868402D01*
X60761902Y-94868402D02*
X60375800Y-95254504D01*
X62928500Y-85361780D02*
X66502280Y-81788000D01*
X62560200Y-87452200D02*
X62585600Y-87452200D01*
X66502280Y-81788000D02*
X67284600Y-81788000D01*
X62928500Y-87109300D02*
X62928500Y-85361780D01*
X62585600Y-87452200D02*
X62928500Y-87109300D01*
%TO.N,/R3*%
X66294000Y-81203800D02*
X75412600Y-81203800D01*
X75412600Y-81203800D02*
X78994000Y-84785200D01*
X64439800Y-83032600D02*
X64465200Y-83032600D01*
X78994000Y-84785200D02*
X78994000Y-84937600D01*
X64465200Y-83032600D02*
X66294000Y-81203800D01*
X65595500Y-106946700D02*
X61899800Y-103251000D01*
X61899800Y-103251000D02*
X61899800Y-102031800D01*
X74206100Y-106946700D02*
X65595500Y-106946700D01*
X76200000Y-104902000D02*
X76200000Y-104952800D01*
X76200000Y-104952800D02*
X74206100Y-106946700D01*
X59908440Y-94910778D02*
X60229618Y-94589600D01*
X61899800Y-102031800D02*
X59908440Y-100040440D01*
X59908440Y-100040440D02*
X59908440Y-94910778D01*
X79959200Y-85902800D02*
X79959200Y-88468200D01*
X78994000Y-84937600D02*
X79959200Y-85902800D01*
X59984640Y-94344622D02*
X60229618Y-94589600D01*
X59984640Y-89113360D02*
X59984640Y-94344622D01*
X64439800Y-83032600D02*
X62433200Y-85039200D01*
X62433200Y-86664800D02*
X59984640Y-89113360D01*
X62433200Y-85039200D02*
X62433200Y-86664800D01*
%TO.N,/R4*%
X81381600Y-86342745D02*
X81381600Y-91630557D01*
X81381600Y-91630557D02*
X80689588Y-92322569D01*
X81305400Y-86266545D02*
X81381600Y-86342745D01*
X81305400Y-86266545D02*
X81305400Y-85592920D01*
X65989200Y-80695800D02*
X62382400Y-84302600D01*
X76408280Y-80695800D02*
X65989200Y-80695800D01*
X81305400Y-85592920D02*
X76408280Y-80695800D01*
X61899800Y-84925598D02*
X62382400Y-84442998D01*
X62382400Y-84442998D02*
X62382400Y-84302600D01*
X59334400Y-99136200D02*
X59395360Y-99075240D01*
X59395360Y-99075240D02*
X59395360Y-88991440D01*
X59395360Y-88991440D02*
X61899800Y-86487000D01*
X61899800Y-86487000D02*
X61899800Y-84925598D01*
X59334400Y-100253800D02*
X61214000Y-102133400D01*
X74574400Y-107492800D02*
X78884750Y-103182450D01*
X65354200Y-107492800D02*
X74574400Y-107492800D01*
X61214000Y-103352600D02*
X65354200Y-107492800D01*
X61214000Y-102133400D02*
X61214000Y-103352600D01*
X59334400Y-99136200D02*
X59334400Y-100253800D01*
%TO.N,/R5*%
X58140600Y-97561400D02*
X58343800Y-97561400D01*
X80060800Y-101981000D02*
X79476600Y-102565200D01*
X79476600Y-102565200D02*
X81407000Y-100634800D01*
X58943240Y-96961960D02*
X58943240Y-88386920D01*
X58343800Y-97561400D02*
X58943240Y-96961960D01*
X79420720Y-103484680D02*
X79420720Y-102621080D01*
X64973200Y-107975400D02*
X74930000Y-107975400D01*
X58750200Y-97967800D02*
X58750200Y-100355400D01*
X60604400Y-103606600D02*
X64973200Y-107975400D01*
X79420720Y-102621080D02*
X79476600Y-102565200D01*
X58343800Y-97561400D02*
X58750200Y-97967800D01*
X74930000Y-107975400D02*
X79420720Y-103484680D01*
X58750200Y-100355400D02*
X60604400Y-102209600D01*
X60604400Y-102209600D02*
X60604400Y-103606600D01*
X65520620Y-103251000D02*
X64739499Y-102469879D01*
X81407000Y-100639880D02*
X79395320Y-102651560D01*
X81407000Y-100634800D02*
X81407000Y-100639880D01*
X79395320Y-102651560D02*
X71577200Y-102651560D01*
X71577200Y-102651560D02*
X70977760Y-103251000D01*
X70977760Y-103251000D02*
X65520620Y-103251000D01*
X83454240Y-98587560D02*
X81407000Y-100634800D01*
X83454240Y-97261680D02*
X83454240Y-98587560D01*
X83004690Y-96812130D02*
X83454240Y-97261680D01*
X82849720Y-89448640D02*
X83004690Y-89603610D01*
X83004690Y-89603610D02*
X83004690Y-96812130D01*
%TO.N,/R6*%
X82356960Y-88249760D02*
X82356960Y-97393760D01*
X82356960Y-98140520D02*
X82356960Y-97393760D01*
X79362279Y-101135201D02*
X82356960Y-98140520D01*
X72974202Y-101320600D02*
X73159601Y-101135201D01*
X73159601Y-101135201D02*
X79362279Y-101135201D01*
X82092800Y-87985600D02*
X82356960Y-88249760D01*
X64797084Y-100895564D02*
X65943480Y-102041960D01*
X70609460Y-102783640D02*
X72072500Y-101320600D01*
X65943480Y-102041960D02*
X66735625Y-102041960D01*
X64797084Y-100103419D02*
X64797084Y-100895564D01*
X66735625Y-102041960D02*
X67477305Y-102783640D01*
X67477305Y-102783640D02*
X70609460Y-102783640D01*
X72072500Y-101320600D02*
X72974202Y-101320600D01*
%TO.N,/C6*%
X77180440Y-99761040D02*
X69895720Y-99761040D01*
X80050640Y-96890840D02*
X77180440Y-99761040D01*
X77992630Y-90643050D02*
X77718920Y-90916760D01*
X68933060Y-100723700D02*
X67614800Y-100723700D01*
X78645990Y-90643050D02*
X77992630Y-90643050D01*
X77718920Y-90916760D02*
X77718920Y-91343480D01*
X77718920Y-91343480D02*
X80050640Y-93675200D01*
X69895720Y-99761040D02*
X68933060Y-100723700D01*
X80050640Y-93675200D02*
X80050640Y-96890840D01*
%TO.N,/C5*%
X78255452Y-91311052D02*
X80416400Y-93472000D01*
X77373480Y-100136960D02*
X70195440Y-100136960D01*
X70195440Y-100136960D02*
X69303900Y-101028500D01*
X80416400Y-93472000D02*
X80416400Y-97094040D01*
X78255452Y-91131356D02*
X78255452Y-91311052D01*
X80416400Y-97094040D02*
X77373480Y-100136960D01*
%TO.N,/C4*%
X79644240Y-96733360D02*
X77103100Y-99274500D01*
X78008480Y-90088720D02*
X77368400Y-90728800D01*
X77103100Y-99274500D02*
X74543920Y-99274500D01*
X78963520Y-90088720D02*
X78008480Y-90088720D01*
X79375000Y-93726000D02*
X79644240Y-93995240D01*
X79187040Y-90880048D02*
X79187040Y-90312240D01*
X77368400Y-92494100D02*
X78600300Y-93726000D01*
X77368400Y-90728800D02*
X77368400Y-92494100D01*
X79644240Y-93995240D02*
X79644240Y-96733360D01*
X78600300Y-93726000D02*
X79375000Y-93726000D01*
X79187040Y-90312240D02*
X78963520Y-90088720D01*
X78854327Y-91212761D02*
X79187040Y-90880048D01*
%TO.N,/C3*%
X61879480Y-96093280D02*
X61582300Y-95796100D01*
X61582300Y-95796100D02*
X61582300Y-89827100D01*
X61879480Y-98620580D02*
X61879480Y-96093280D01*
X65633600Y-85775800D02*
X67906900Y-85775800D01*
X61582300Y-89827100D02*
X65633600Y-85775800D01*
X76420517Y-98303080D02*
X65946020Y-98303080D01*
X65946020Y-98303080D02*
X65214500Y-99034600D01*
X76853351Y-97870246D02*
X76420517Y-98303080D01*
X62293500Y-99034600D02*
X61879480Y-98620580D01*
X65214500Y-99034600D02*
X62293500Y-99034600D01*
%TO.N,/C2*%
X65689480Y-97917000D02*
X76005229Y-97917000D01*
X62588140Y-98643440D02*
X64963040Y-98643440D01*
X64963040Y-98643440D02*
X65689480Y-97917000D01*
X61954199Y-90255299D02*
X61954199Y-95558399D01*
X76005229Y-97917000D02*
X76240729Y-97681500D01*
X62179198Y-90030300D02*
X61954199Y-90255299D01*
X61954199Y-95558399D02*
X62280800Y-95885000D01*
X62280800Y-95885000D02*
X62280800Y-98336100D01*
X62280800Y-98336100D02*
X62588140Y-98643440D01*
D13*
%TO.N,/PE2*%
X79072882Y-94247399D02*
X79297881Y-94472398D01*
X79297881Y-96586959D02*
X77063600Y-98821240D01*
X73192640Y-98821240D02*
X73177400Y-98836480D01*
X79297881Y-94472398D02*
X79297881Y-96586959D01*
X77063600Y-98821240D02*
X73192640Y-98821240D01*
X67894200Y-99090480D02*
X67894200Y-98973640D01*
X68031360Y-98836480D02*
X73177400Y-98836480D01*
X67894200Y-98973640D02*
X68031360Y-98836480D01*
D12*
%TO.N,/LED MATRIX/C1_T*%
X80060800Y-90505280D02*
X80060800Y-92329000D01*
X79121000Y-87477600D02*
X79121000Y-89565480D01*
X79121000Y-89565480D02*
X80060800Y-90505280D01*
%TO.N,/LED MATRIX/C2_T*%
X61323190Y-99423190D02*
X63789560Y-101889560D01*
X63789560Y-101889560D02*
X64957960Y-101889560D01*
X64957960Y-101889560D02*
X65659004Y-102590604D01*
X65659004Y-102590604D02*
X66446400Y-102590604D01*
X61323190Y-97510600D02*
X61323190Y-99423190D01*
%TO.N,/LED MATRIX/C4_T*%
X82911385Y-98373495D02*
X82911385Y-97650316D01*
X79060040Y-102224840D02*
X82911385Y-98373495D01*
X73981751Y-101843057D02*
X74363534Y-102224840D01*
X74363534Y-102224840D02*
X79060040Y-102224840D01*
%TD*%
%TO.N,GND*%
G36*
X59693707Y-70797001D02*
G01*
X59743290Y-70801862D01*
X59775691Y-70811645D01*
X59805583Y-70827538D01*
X59831814Y-70848933D01*
X59853392Y-70875016D01*
X59869489Y-70904787D01*
X59879500Y-70937126D01*
X59884602Y-70985670D01*
X59884601Y-74087961D01*
X59885972Y-74101884D01*
X59885951Y-74104947D01*
X59886393Y-74109463D01*
X59896593Y-74206512D01*
X59902520Y-74235386D01*
X59908036Y-74264300D01*
X59909347Y-74268645D01*
X59938203Y-74361864D01*
X59949637Y-74389064D01*
X59960654Y-74416331D01*
X59962784Y-74420338D01*
X60009197Y-74506176D01*
X60025670Y-74530598D01*
X60041798Y-74555243D01*
X60044666Y-74558760D01*
X60106867Y-74633949D01*
X60127793Y-74654729D01*
X60148376Y-74675748D01*
X60151872Y-74678641D01*
X60227493Y-74740317D01*
X60252040Y-74756626D01*
X60276337Y-74773262D01*
X60280328Y-74775421D01*
X60366489Y-74821233D01*
X60393740Y-74832465D01*
X60420794Y-74844060D01*
X60425129Y-74845402D01*
X60518547Y-74873607D01*
X60547446Y-74879329D01*
X60576258Y-74885453D01*
X60580771Y-74885928D01*
X60677888Y-74895450D01*
X60677893Y-74895450D01*
X60693640Y-74897001D01*
X80225560Y-74897001D01*
X80239483Y-74895630D01*
X80242545Y-74895651D01*
X80247061Y-74895209D01*
X80344110Y-74885009D01*
X80372984Y-74879082D01*
X80401898Y-74873566D01*
X80406243Y-74872255D01*
X80499462Y-74843399D01*
X80526662Y-74831965D01*
X80553929Y-74820948D01*
X80557936Y-74818818D01*
X80643774Y-74772405D01*
X80668196Y-74755932D01*
X80692841Y-74739804D01*
X80696358Y-74736936D01*
X80771547Y-74674735D01*
X80792327Y-74653809D01*
X80813346Y-74633226D01*
X80816239Y-74629730D01*
X80877915Y-74554109D01*
X80894224Y-74529562D01*
X80910860Y-74505265D01*
X80913019Y-74501274D01*
X80958831Y-74415113D01*
X80970063Y-74387862D01*
X80981658Y-74360808D01*
X80983000Y-74356473D01*
X81011205Y-74263055D01*
X81016927Y-74234156D01*
X81023051Y-74205344D01*
X81023526Y-74200831D01*
X81033048Y-74103714D01*
X81033048Y-74103709D01*
X81034599Y-74087962D01*
X81034599Y-70987895D01*
X81039460Y-70938312D01*
X81049243Y-70905911D01*
X81065136Y-70876019D01*
X81086531Y-70849788D01*
X81112614Y-70828210D01*
X81142385Y-70812113D01*
X81174724Y-70802102D01*
X81223258Y-70797001D01*
X83787527Y-70797001D01*
X83934229Y-70811385D01*
X84060053Y-70849374D01*
X84176099Y-70911077D01*
X84277956Y-70994149D01*
X84362332Y-71096142D01*
X84428604Y-71217051D01*
X90173859Y-84457864D01*
X90442090Y-85266256D01*
X90526705Y-85729214D01*
X90842435Y-88728609D01*
X91006237Y-91744276D01*
X91017258Y-94764341D01*
X90875469Y-97781117D01*
X90580894Y-100790335D01*
X90528129Y-101205107D01*
X90343046Y-102035910D01*
X90176346Y-102480404D01*
X84428974Y-115726098D01*
X84357384Y-115854951D01*
X84272449Y-115955258D01*
X84169649Y-116037156D01*
X84052905Y-116097524D01*
X83925749Y-116134331D01*
X83788463Y-116146999D01*
X81225493Y-116146999D01*
X81175910Y-116142138D01*
X81143509Y-116132355D01*
X81113615Y-116116461D01*
X81087385Y-116095067D01*
X81065810Y-116068988D01*
X81049710Y-116039212D01*
X81039700Y-116006874D01*
X81034599Y-115958341D01*
X81034599Y-112856038D01*
X81033228Y-112842115D01*
X81033249Y-112839054D01*
X81032807Y-112834537D01*
X81022607Y-112737489D01*
X81016682Y-112708628D01*
X81011164Y-112679700D01*
X81009853Y-112675355D01*
X80980997Y-112582136D01*
X80969568Y-112554949D01*
X80958546Y-112527668D01*
X80956416Y-112523661D01*
X80910003Y-112437824D01*
X80893535Y-112413410D01*
X80877402Y-112388757D01*
X80874534Y-112385240D01*
X80812332Y-112310051D01*
X80791426Y-112289291D01*
X80770824Y-112268252D01*
X80767327Y-112265359D01*
X80691707Y-112203683D01*
X80667175Y-112187384D01*
X80642863Y-112170738D01*
X80638872Y-112168579D01*
X80552711Y-112122767D01*
X80525460Y-112111535D01*
X80498406Y-112099940D01*
X80494071Y-112098598D01*
X80400653Y-112070393D01*
X80371762Y-112064673D01*
X80342943Y-112058547D01*
X80338429Y-112058072D01*
X80241312Y-112048550D01*
X80241307Y-112048550D01*
X80225560Y-112046999D01*
X60693640Y-112046999D01*
X60679717Y-112048370D01*
X60676656Y-112048349D01*
X60672139Y-112048791D01*
X60575091Y-112058991D01*
X60546230Y-112064916D01*
X60517302Y-112070434D01*
X60512957Y-112071745D01*
X60419738Y-112100601D01*
X60392551Y-112112030D01*
X60365270Y-112123052D01*
X60361263Y-112125182D01*
X60275426Y-112171595D01*
X60251012Y-112188063D01*
X60226359Y-112204196D01*
X60222842Y-112207064D01*
X60147653Y-112269266D01*
X60126893Y-112290172D01*
X60105854Y-112310774D01*
X60102961Y-112314271D01*
X60102957Y-112314275D01*
X60041285Y-112389891D01*
X60024986Y-112414423D01*
X60008340Y-112438735D01*
X60006181Y-112442726D01*
X59960369Y-112528887D01*
X59949137Y-112556138D01*
X59937542Y-112583192D01*
X59936200Y-112587527D01*
X59907995Y-112680945D01*
X59902275Y-112709836D01*
X59896149Y-112738655D01*
X59895674Y-112743169D01*
X59886152Y-112840286D01*
X59886152Y-112840301D01*
X59884602Y-112856038D01*
X59884601Y-115956105D01*
X59879740Y-116005688D01*
X59869957Y-116038089D01*
X59854063Y-116067983D01*
X59832669Y-116094213D01*
X59806590Y-116115788D01*
X59776814Y-116131888D01*
X59744476Y-116141898D01*
X59695943Y-116146999D01*
X57131680Y-116146999D01*
X56984969Y-116132614D01*
X56859148Y-116094626D01*
X56743098Y-116032921D01*
X56641246Y-115949852D01*
X56556869Y-115847858D01*
X56490596Y-115726950D01*
X54299662Y-110677610D01*
X62095040Y-110677610D01*
X62095040Y-110911870D01*
X62140742Y-111141630D01*
X62230390Y-111358059D01*
X62360539Y-111552840D01*
X62526186Y-111718487D01*
X62720967Y-111848636D01*
X62937396Y-111938284D01*
X63167156Y-111983986D01*
X63401416Y-111983986D01*
X63631176Y-111938284D01*
X63847605Y-111848636D01*
X64042386Y-111718487D01*
X64208033Y-111552840D01*
X64338182Y-111358059D01*
X64427830Y-111141630D01*
X64473532Y-110911870D01*
X64473532Y-110677610D01*
X76445667Y-110677610D01*
X76445667Y-110911870D01*
X76491369Y-111141630D01*
X76581017Y-111358059D01*
X76711166Y-111552840D01*
X76876813Y-111718487D01*
X77071594Y-111848636D01*
X77288023Y-111938284D01*
X77517783Y-111983986D01*
X77752043Y-111983986D01*
X77981803Y-111938284D01*
X78198232Y-111848636D01*
X78393013Y-111718487D01*
X78558660Y-111552840D01*
X78688809Y-111358059D01*
X78778457Y-111141630D01*
X78824159Y-110911870D01*
X78824159Y-110677610D01*
X78778457Y-110447850D01*
X78688809Y-110231421D01*
X78558660Y-110036640D01*
X78393013Y-109870993D01*
X78198232Y-109740844D01*
X77981803Y-109651196D01*
X77752043Y-109605494D01*
X77517783Y-109605494D01*
X77288023Y-109651196D01*
X77071594Y-109740844D01*
X76876813Y-109870993D01*
X76711166Y-110036640D01*
X76581017Y-110231421D01*
X76491369Y-110447850D01*
X76445667Y-110677610D01*
X64473532Y-110677610D01*
X64427830Y-110447850D01*
X64338182Y-110231421D01*
X64208033Y-110036640D01*
X64042386Y-109870993D01*
X63847605Y-109740844D01*
X63631176Y-109651196D01*
X63401416Y-109605494D01*
X63167156Y-109605494D01*
X62937396Y-109651196D01*
X62720967Y-109740844D01*
X62526186Y-109870993D01*
X62360539Y-110036640D01*
X62230390Y-110231421D01*
X62140742Y-110447850D01*
X62095040Y-110677610D01*
X54299662Y-110677610D01*
X50745344Y-102486147D01*
X50477109Y-101677743D01*
X50392494Y-101214783D01*
X50320430Y-100530183D01*
X51947613Y-100530183D01*
X51947613Y-100764443D01*
X51993315Y-100994203D01*
X52082963Y-101210632D01*
X52213112Y-101405413D01*
X52378759Y-101571060D01*
X52573540Y-101701209D01*
X52789969Y-101790857D01*
X53019729Y-101836559D01*
X53253989Y-101836559D01*
X53483749Y-101790857D01*
X53700178Y-101701209D01*
X53894959Y-101571060D01*
X54060606Y-101405413D01*
X54190755Y-101210632D01*
X54280403Y-100994203D01*
X54326105Y-100764443D01*
X54326105Y-100530183D01*
X54280403Y-100300423D01*
X54190755Y-100083994D01*
X54060606Y-99889213D01*
X53894959Y-99723566D01*
X53700178Y-99593417D01*
X53483749Y-99503769D01*
X53253989Y-99458067D01*
X53019729Y-99458067D01*
X52789969Y-99503769D01*
X52573540Y-99593417D01*
X52378759Y-99723566D01*
X52213112Y-99889213D01*
X52082963Y-100083994D01*
X51993315Y-100300423D01*
X51947613Y-100530183D01*
X50320430Y-100530183D01*
X50076764Y-98215390D01*
X49950135Y-95884092D01*
X56015400Y-95884092D01*
X56015400Y-95987508D01*
X56035576Y-96088937D01*
X56075151Y-96184481D01*
X56132606Y-96270468D01*
X56205732Y-96343594D01*
X56291719Y-96401049D01*
X56387263Y-96440624D01*
X56488692Y-96460800D01*
X56592108Y-96460800D01*
X56693537Y-96440624D01*
X56789081Y-96401049D01*
X56875068Y-96343594D01*
X56948194Y-96270468D01*
X57005649Y-96184481D01*
X57045224Y-96088937D01*
X57065400Y-95987508D01*
X57065400Y-95884092D01*
X57045224Y-95782663D01*
X57005649Y-95687119D01*
X56948194Y-95601132D01*
X56875068Y-95528006D01*
X56789081Y-95470551D01*
X56693537Y-95430976D01*
X56592108Y-95410800D01*
X56488692Y-95410800D01*
X56387263Y-95430976D01*
X56291719Y-95470551D01*
X56205732Y-95528006D01*
X56132606Y-95601132D01*
X56075151Y-95687119D01*
X56035576Y-95782663D01*
X56015400Y-95884092D01*
X49950135Y-95884092D01*
X49912962Y-95199724D01*
X49901941Y-92179658D01*
X49958236Y-90981892D01*
X56015400Y-90981892D01*
X56015400Y-91085308D01*
X56035576Y-91186737D01*
X56075151Y-91282281D01*
X56132606Y-91368268D01*
X56205732Y-91441394D01*
X56291719Y-91498849D01*
X56387263Y-91538424D01*
X56488692Y-91558600D01*
X56592108Y-91558600D01*
X56693537Y-91538424D01*
X56789081Y-91498849D01*
X56875068Y-91441394D01*
X56948194Y-91368268D01*
X57005649Y-91282281D01*
X57045224Y-91186737D01*
X57065400Y-91085308D01*
X57065400Y-90981892D01*
X57045224Y-90880463D01*
X57005649Y-90784919D01*
X56948194Y-90698932D01*
X56875068Y-90625806D01*
X56789081Y-90568351D01*
X56693537Y-90528776D01*
X56592108Y-90508600D01*
X56488692Y-90508600D01*
X56387263Y-90528776D01*
X56291719Y-90568351D01*
X56205732Y-90625806D01*
X56132606Y-90698932D01*
X56075151Y-90784919D01*
X56035576Y-90880463D01*
X56015400Y-90981892D01*
X49958236Y-90981892D01*
X50041802Y-89203892D01*
X56980600Y-89203892D01*
X56980600Y-89307308D01*
X57000776Y-89408737D01*
X57040351Y-89504281D01*
X57097806Y-89590268D01*
X57170932Y-89663394D01*
X57256919Y-89720849D01*
X57352463Y-89760424D01*
X57453892Y-89780600D01*
X57557308Y-89780600D01*
X57658737Y-89760424D01*
X57754281Y-89720849D01*
X57840268Y-89663394D01*
X57881671Y-89621991D01*
X57889776Y-89662737D01*
X57929351Y-89758281D01*
X57986806Y-89844268D01*
X58059932Y-89917394D01*
X58145919Y-89974849D01*
X58241463Y-90014424D01*
X58342892Y-90034600D01*
X58446308Y-90034600D01*
X58543241Y-90015318D01*
X58543240Y-96796274D01*
X58284730Y-97054784D01*
X58192308Y-97036400D01*
X58088892Y-97036400D01*
X57987463Y-97056576D01*
X57891919Y-97096151D01*
X57805932Y-97153606D01*
X57732806Y-97226732D01*
X57675351Y-97312719D01*
X57635776Y-97408263D01*
X57615600Y-97509692D01*
X57615600Y-97613108D01*
X57635776Y-97714537D01*
X57675351Y-97810081D01*
X57732806Y-97896068D01*
X57805932Y-97969194D01*
X57891919Y-98026649D01*
X57987463Y-98066224D01*
X58088892Y-98086400D01*
X58192308Y-98086400D01*
X58284731Y-98068016D01*
X58350200Y-98133485D01*
X58350201Y-100335744D01*
X58348265Y-100355400D01*
X58355988Y-100433813D01*
X58378861Y-100509214D01*
X58416003Y-100578702D01*
X58453465Y-100624350D01*
X58453468Y-100624353D01*
X58465990Y-100639611D01*
X58481248Y-100652133D01*
X60204400Y-102375286D01*
X60204401Y-103586944D01*
X60202465Y-103606600D01*
X60210188Y-103685013D01*
X60233061Y-103760414D01*
X60270203Y-103829902D01*
X60307665Y-103875550D01*
X60307668Y-103875553D01*
X60320190Y-103890811D01*
X60335448Y-103903333D01*
X64676467Y-108244353D01*
X64688989Y-108259611D01*
X64704247Y-108272133D01*
X64704249Y-108272135D01*
X64736182Y-108298341D01*
X64749897Y-108309597D01*
X64819386Y-108346740D01*
X64894786Y-108369612D01*
X64953553Y-108375400D01*
X64953563Y-108375400D01*
X64973199Y-108377334D01*
X64992835Y-108375400D01*
X74910354Y-108375400D01*
X74930000Y-108377335D01*
X74949646Y-108375400D01*
X74949647Y-108375400D01*
X75008414Y-108369612D01*
X75083814Y-108346740D01*
X75153303Y-108309597D01*
X75214211Y-108259611D01*
X75226737Y-108244348D01*
X79689674Y-103781412D01*
X79704931Y-103768891D01*
X79754917Y-103707983D01*
X79792060Y-103638494D01*
X79814932Y-103563094D01*
X79820720Y-103504327D01*
X79820720Y-103504317D01*
X79822654Y-103484681D01*
X79820720Y-103465045D01*
X79820720Y-102791845D01*
X81452766Y-101159800D01*
X81458708Y-101159800D01*
X81560137Y-101139624D01*
X81655681Y-101100049D01*
X81741668Y-101042594D01*
X81814794Y-100969468D01*
X81872249Y-100883481D01*
X81911824Y-100787937D01*
X81932000Y-100686508D01*
X81932000Y-100675485D01*
X82077302Y-100530183D01*
X86593094Y-100530183D01*
X86593094Y-100764443D01*
X86638796Y-100994203D01*
X86728444Y-101210632D01*
X86858593Y-101405413D01*
X87024240Y-101571060D01*
X87219021Y-101701209D01*
X87435450Y-101790857D01*
X87665210Y-101836559D01*
X87899470Y-101836559D01*
X88129230Y-101790857D01*
X88345659Y-101701209D01*
X88540440Y-101571060D01*
X88706087Y-101405413D01*
X88836236Y-101210632D01*
X88925884Y-100994203D01*
X88971586Y-100764443D01*
X88971586Y-100530183D01*
X88925884Y-100300423D01*
X88836236Y-100083994D01*
X88706087Y-99889213D01*
X88540440Y-99723566D01*
X88345659Y-99593417D01*
X88129230Y-99503769D01*
X87899470Y-99458067D01*
X87665210Y-99458067D01*
X87435450Y-99503769D01*
X87219021Y-99593417D01*
X87024240Y-99723566D01*
X86858593Y-99889213D01*
X86728444Y-100083994D01*
X86638796Y-100300423D01*
X86593094Y-100530183D01*
X82077302Y-100530183D01*
X83723188Y-98884297D01*
X83738451Y-98871771D01*
X83788437Y-98810863D01*
X83825580Y-98741374D01*
X83848452Y-98665974D01*
X83854240Y-98607207D01*
X83856175Y-98587560D01*
X83854240Y-98567913D01*
X83854240Y-97281327D01*
X83856175Y-97261680D01*
X83850214Y-97201151D01*
X83848452Y-97183266D01*
X83825580Y-97107866D01*
X83788437Y-97038377D01*
X83738451Y-96977469D01*
X83723189Y-96964944D01*
X83404690Y-96646445D01*
X83404690Y-95223692D01*
X83955400Y-95223692D01*
X83955400Y-95327108D01*
X83975576Y-95428537D01*
X84015151Y-95524081D01*
X84072606Y-95610068D01*
X84145732Y-95683194D01*
X84231719Y-95740649D01*
X84327263Y-95780224D01*
X84428692Y-95800400D01*
X84532108Y-95800400D01*
X84633537Y-95780224D01*
X84729081Y-95740649D01*
X84815068Y-95683194D01*
X84888194Y-95610068D01*
X84945649Y-95524081D01*
X84985224Y-95428537D01*
X85005400Y-95327108D01*
X85005400Y-95223692D01*
X84985224Y-95122263D01*
X84945649Y-95026719D01*
X84888194Y-94940732D01*
X84815068Y-94867606D01*
X84729081Y-94810151D01*
X84633537Y-94770576D01*
X84532108Y-94750400D01*
X84428692Y-94750400D01*
X84327263Y-94770576D01*
X84231719Y-94810151D01*
X84145732Y-94867606D01*
X84072606Y-94940732D01*
X84015151Y-95026719D01*
X83975576Y-95122263D01*
X83955400Y-95223692D01*
X83404690Y-95223692D01*
X83404690Y-91134292D01*
X83930000Y-91134292D01*
X83930000Y-91237708D01*
X83950176Y-91339137D01*
X83989751Y-91434681D01*
X84047206Y-91520668D01*
X84120332Y-91593794D01*
X84206319Y-91651249D01*
X84301863Y-91690824D01*
X84403292Y-91711000D01*
X84506708Y-91711000D01*
X84608137Y-91690824D01*
X84703681Y-91651249D01*
X84789668Y-91593794D01*
X84862794Y-91520668D01*
X84920249Y-91434681D01*
X84959824Y-91339137D01*
X84980000Y-91237708D01*
X84980000Y-91134292D01*
X84959824Y-91032863D01*
X84920249Y-90937319D01*
X84862794Y-90851332D01*
X84789668Y-90778206D01*
X84703681Y-90720751D01*
X84608137Y-90681176D01*
X84506708Y-90661000D01*
X84403292Y-90661000D01*
X84301863Y-90681176D01*
X84206319Y-90720751D01*
X84120332Y-90778206D01*
X84047206Y-90851332D01*
X83989751Y-90937319D01*
X83950176Y-91032863D01*
X83930000Y-91134292D01*
X83404690Y-91134292D01*
X83404690Y-89623257D01*
X83406625Y-89603610D01*
X83403940Y-89576343D01*
X83398902Y-89525196D01*
X83376030Y-89449796D01*
X83374720Y-89447345D01*
X83374720Y-89396932D01*
X83354544Y-89295503D01*
X83314969Y-89199959D01*
X83257514Y-89113972D01*
X83184388Y-89040846D01*
X83098401Y-88983391D01*
X83002857Y-88943816D01*
X82901428Y-88923640D01*
X82798012Y-88923640D01*
X82756960Y-88931806D01*
X82756960Y-88269407D01*
X82758895Y-88249760D01*
X82754683Y-88206989D01*
X82751172Y-88171346D01*
X82728300Y-88095946D01*
X82691157Y-88026457D01*
X82641171Y-87965549D01*
X82625904Y-87953020D01*
X82617800Y-87944916D01*
X82617800Y-87933892D01*
X82597624Y-87832463D01*
X82558049Y-87736919D01*
X82500594Y-87650932D01*
X82427468Y-87577806D01*
X82341481Y-87520351D01*
X82245937Y-87480776D01*
X82144508Y-87460600D01*
X82041092Y-87460600D01*
X81939663Y-87480776D01*
X81844119Y-87520351D01*
X81781600Y-87562125D01*
X81781600Y-86488788D01*
X81810224Y-86419682D01*
X81830400Y-86318253D01*
X81830400Y-86214837D01*
X81823382Y-86179556D01*
X86593094Y-86179556D01*
X86593094Y-86413816D01*
X86638796Y-86643576D01*
X86728444Y-86860005D01*
X86858593Y-87054786D01*
X87024240Y-87220433D01*
X87219021Y-87350582D01*
X87435450Y-87440230D01*
X87665210Y-87485932D01*
X87899470Y-87485932D01*
X88129230Y-87440230D01*
X88345659Y-87350582D01*
X88540440Y-87220433D01*
X88706087Y-87054786D01*
X88836236Y-86860005D01*
X88925884Y-86643576D01*
X88971586Y-86413816D01*
X88971586Y-86179556D01*
X88925884Y-85949796D01*
X88836236Y-85733367D01*
X88706087Y-85538586D01*
X88540440Y-85372939D01*
X88345659Y-85242790D01*
X88129230Y-85153142D01*
X87899470Y-85107440D01*
X87665210Y-85107440D01*
X87435450Y-85153142D01*
X87219021Y-85242790D01*
X87024240Y-85372939D01*
X86858593Y-85538586D01*
X86728444Y-85733367D01*
X86638796Y-85949796D01*
X86593094Y-86179556D01*
X81823382Y-86179556D01*
X81810224Y-86113408D01*
X81770649Y-86017864D01*
X81713194Y-85931877D01*
X81705400Y-85924083D01*
X81705400Y-85612567D01*
X81707335Y-85592920D01*
X81699612Y-85514506D01*
X81676740Y-85439106D01*
X81639597Y-85369617D01*
X81629994Y-85357916D01*
X81589611Y-85308709D01*
X81574348Y-85296183D01*
X76705017Y-80426852D01*
X76692491Y-80411589D01*
X76631583Y-80361603D01*
X76562094Y-80324460D01*
X76486694Y-80301588D01*
X76427927Y-80295800D01*
X76427926Y-80295800D01*
X76408280Y-80293865D01*
X76388634Y-80295800D01*
X73821757Y-80295800D01*
X73834624Y-80264737D01*
X73854800Y-80163308D01*
X73854800Y-80059892D01*
X73834624Y-79958463D01*
X73795049Y-79862919D01*
X73737594Y-79776932D01*
X73664468Y-79703806D01*
X73578481Y-79646351D01*
X73482937Y-79606776D01*
X73381508Y-79586600D01*
X73278092Y-79586600D01*
X73176663Y-79606776D01*
X73081119Y-79646351D01*
X72995132Y-79703806D01*
X72922006Y-79776932D01*
X72864551Y-79862919D01*
X72824976Y-79958463D01*
X72804800Y-80059892D01*
X72804800Y-80163308D01*
X72824976Y-80264737D01*
X72837843Y-80295800D01*
X66008835Y-80295800D01*
X65989199Y-80293866D01*
X65969563Y-80295800D01*
X65969553Y-80295800D01*
X65910786Y-80301588D01*
X65835386Y-80324460D01*
X65765897Y-80361603D01*
X65704989Y-80411589D01*
X65692463Y-80426852D01*
X62341715Y-83777600D01*
X62330692Y-83777600D01*
X62229263Y-83797776D01*
X62133719Y-83837351D01*
X62047732Y-83894806D01*
X61974606Y-83967932D01*
X61917151Y-84053919D01*
X61877576Y-84149463D01*
X61857400Y-84250892D01*
X61857400Y-84354308D01*
X61865365Y-84394348D01*
X61630848Y-84628865D01*
X61615590Y-84641387D01*
X61603068Y-84656645D01*
X61603065Y-84656648D01*
X61565603Y-84702296D01*
X61528461Y-84771784D01*
X61505588Y-84847185D01*
X61497865Y-84925598D01*
X61499801Y-84945254D01*
X61499800Y-86321314D01*
X59468240Y-88352875D01*
X59468240Y-88335212D01*
X59448064Y-88233783D01*
X59408489Y-88138239D01*
X59351034Y-88052252D01*
X59277908Y-87979126D01*
X59191921Y-87921671D01*
X59096377Y-87882096D01*
X58994948Y-87861920D01*
X58891532Y-87861920D01*
X58790103Y-87882096D01*
X58694559Y-87921671D01*
X58608572Y-87979126D01*
X58535446Y-88052252D01*
X58477991Y-88138239D01*
X58438416Y-88233783D01*
X58418240Y-88335212D01*
X58418240Y-88438628D01*
X58438416Y-88540057D01*
X58477991Y-88635601D01*
X58535446Y-88721588D01*
X58543241Y-88729383D01*
X58543241Y-89003882D01*
X58446308Y-88984600D01*
X58342892Y-88984600D01*
X58241463Y-89004776D01*
X58145919Y-89044351D01*
X58059932Y-89101806D01*
X58018529Y-89143209D01*
X58010424Y-89102463D01*
X57970849Y-89006919D01*
X57913394Y-88920932D01*
X57840268Y-88847806D01*
X57754281Y-88790351D01*
X57658737Y-88750776D01*
X57557308Y-88730600D01*
X57453892Y-88730600D01*
X57352463Y-88750776D01*
X57256919Y-88790351D01*
X57170932Y-88847806D01*
X57097806Y-88920932D01*
X57040351Y-89006919D01*
X57000776Y-89102463D01*
X56980600Y-89203892D01*
X50041802Y-89203892D01*
X50043730Y-89162881D01*
X50335769Y-86179556D01*
X51947613Y-86179556D01*
X51947613Y-86413816D01*
X51993315Y-86643576D01*
X52082963Y-86860005D01*
X52213112Y-87054786D01*
X52378759Y-87220433D01*
X52573540Y-87350582D01*
X52789969Y-87440230D01*
X53019729Y-87485932D01*
X53253989Y-87485932D01*
X53483749Y-87440230D01*
X53700178Y-87350582D01*
X53894959Y-87220433D01*
X54060606Y-87054786D01*
X54190755Y-86860005D01*
X54280403Y-86643576D01*
X54326105Y-86413816D01*
X54326105Y-86179556D01*
X54280403Y-85949796D01*
X54190755Y-85733367D01*
X54060606Y-85538586D01*
X53894959Y-85372939D01*
X53700178Y-85242790D01*
X53483749Y-85153142D01*
X53253989Y-85107440D01*
X53019729Y-85107440D01*
X52789969Y-85153142D01*
X52573540Y-85242790D01*
X52378759Y-85372939D01*
X52213112Y-85538586D01*
X52082963Y-85733367D01*
X51993315Y-85949796D01*
X51947613Y-86179556D01*
X50335769Y-86179556D01*
X50338304Y-86153669D01*
X50391072Y-85738880D01*
X50576150Y-84908098D01*
X50742862Y-84463570D01*
X54401307Y-76032129D01*
X62095040Y-76032129D01*
X62095040Y-76266389D01*
X62140742Y-76496149D01*
X62230390Y-76712578D01*
X62360539Y-76907359D01*
X62526186Y-77073006D01*
X62720967Y-77203155D01*
X62937396Y-77292803D01*
X63167156Y-77338505D01*
X63401416Y-77338505D01*
X63631176Y-77292803D01*
X63847605Y-77203155D01*
X64042386Y-77073006D01*
X64208033Y-76907359D01*
X64338182Y-76712578D01*
X64427830Y-76496149D01*
X64473532Y-76266389D01*
X64473532Y-76032129D01*
X76445667Y-76032129D01*
X76445667Y-76266389D01*
X76491369Y-76496149D01*
X76581017Y-76712578D01*
X76711166Y-76907359D01*
X76876813Y-77073006D01*
X77071594Y-77203155D01*
X77288023Y-77292803D01*
X77517783Y-77338505D01*
X77752043Y-77338505D01*
X77981803Y-77292803D01*
X78198232Y-77203155D01*
X78393013Y-77073006D01*
X78558660Y-76907359D01*
X78688809Y-76712578D01*
X78778457Y-76496149D01*
X78824159Y-76266389D01*
X78824159Y-76032129D01*
X78778457Y-75802369D01*
X78688809Y-75585940D01*
X78558660Y-75391159D01*
X78393013Y-75225512D01*
X78198232Y-75095363D01*
X77981803Y-75005715D01*
X77752043Y-74960013D01*
X77517783Y-74960013D01*
X77288023Y-75005715D01*
X77071594Y-75095363D01*
X76876813Y-75225512D01*
X76711166Y-75391159D01*
X76581017Y-75585940D01*
X76491369Y-75802369D01*
X76445667Y-76032129D01*
X64473532Y-76032129D01*
X64427830Y-75802369D01*
X64338182Y-75585940D01*
X64208033Y-75391159D01*
X64042386Y-75225512D01*
X63847605Y-75095363D01*
X63631176Y-75005715D01*
X63401416Y-74960013D01*
X63167156Y-74960013D01*
X62937396Y-75005715D01*
X62720967Y-75095363D01*
X62526186Y-75225512D01*
X62360539Y-75391159D01*
X62230390Y-75585940D01*
X62140742Y-75802369D01*
X62095040Y-76032129D01*
X54401307Y-76032129D01*
X56490228Y-71217895D01*
X56561814Y-71089049D01*
X56646749Y-70988743D01*
X56749548Y-70906844D01*
X56866292Y-70846475D01*
X56993450Y-70809668D01*
X57130746Y-70796999D01*
X59693707Y-70797001D01*
G37*
X59693707Y-70797001D02*
X59743290Y-70801862D01*
X59775691Y-70811645D01*
X59805583Y-70827538D01*
X59831814Y-70848933D01*
X59853392Y-70875016D01*
X59869489Y-70904787D01*
X59879500Y-70937126D01*
X59884602Y-70985670D01*
X59884601Y-74087961D01*
X59885972Y-74101884D01*
X59885951Y-74104947D01*
X59886393Y-74109463D01*
X59896593Y-74206512D01*
X59902520Y-74235386D01*
X59908036Y-74264300D01*
X59909347Y-74268645D01*
X59938203Y-74361864D01*
X59949637Y-74389064D01*
X59960654Y-74416331D01*
X59962784Y-74420338D01*
X60009197Y-74506176D01*
X60025670Y-74530598D01*
X60041798Y-74555243D01*
X60044666Y-74558760D01*
X60106867Y-74633949D01*
X60127793Y-74654729D01*
X60148376Y-74675748D01*
X60151872Y-74678641D01*
X60227493Y-74740317D01*
X60252040Y-74756626D01*
X60276337Y-74773262D01*
X60280328Y-74775421D01*
X60366489Y-74821233D01*
X60393740Y-74832465D01*
X60420794Y-74844060D01*
X60425129Y-74845402D01*
X60518547Y-74873607D01*
X60547446Y-74879329D01*
X60576258Y-74885453D01*
X60580771Y-74885928D01*
X60677888Y-74895450D01*
X60677893Y-74895450D01*
X60693640Y-74897001D01*
X80225560Y-74897001D01*
X80239483Y-74895630D01*
X80242545Y-74895651D01*
X80247061Y-74895209D01*
X80344110Y-74885009D01*
X80372984Y-74879082D01*
X80401898Y-74873566D01*
X80406243Y-74872255D01*
X80499462Y-74843399D01*
X80526662Y-74831965D01*
X80553929Y-74820948D01*
X80557936Y-74818818D01*
X80643774Y-74772405D01*
X80668196Y-74755932D01*
X80692841Y-74739804D01*
X80696358Y-74736936D01*
X80771547Y-74674735D01*
X80792327Y-74653809D01*
X80813346Y-74633226D01*
X80816239Y-74629730D01*
X80877915Y-74554109D01*
X80894224Y-74529562D01*
X80910860Y-74505265D01*
X80913019Y-74501274D01*
X80958831Y-74415113D01*
X80970063Y-74387862D01*
X80981658Y-74360808D01*
X80983000Y-74356473D01*
X81011205Y-74263055D01*
X81016927Y-74234156D01*
X81023051Y-74205344D01*
X81023526Y-74200831D01*
X81033048Y-74103714D01*
X81033048Y-74103709D01*
X81034599Y-74087962D01*
X81034599Y-70987895D01*
X81039460Y-70938312D01*
X81049243Y-70905911D01*
X81065136Y-70876019D01*
X81086531Y-70849788D01*
X81112614Y-70828210D01*
X81142385Y-70812113D01*
X81174724Y-70802102D01*
X81223258Y-70797001D01*
X83787527Y-70797001D01*
X83934229Y-70811385D01*
X84060053Y-70849374D01*
X84176099Y-70911077D01*
X84277956Y-70994149D01*
X84362332Y-71096142D01*
X84428604Y-71217051D01*
X90173859Y-84457864D01*
X90442090Y-85266256D01*
X90526705Y-85729214D01*
X90842435Y-88728609D01*
X91006237Y-91744276D01*
X91017258Y-94764341D01*
X90875469Y-97781117D01*
X90580894Y-100790335D01*
X90528129Y-101205107D01*
X90343046Y-102035910D01*
X90176346Y-102480404D01*
X84428974Y-115726098D01*
X84357384Y-115854951D01*
X84272449Y-115955258D01*
X84169649Y-116037156D01*
X84052905Y-116097524D01*
X83925749Y-116134331D01*
X83788463Y-116146999D01*
X81225493Y-116146999D01*
X81175910Y-116142138D01*
X81143509Y-116132355D01*
X81113615Y-116116461D01*
X81087385Y-116095067D01*
X81065810Y-116068988D01*
X81049710Y-116039212D01*
X81039700Y-116006874D01*
X81034599Y-115958341D01*
X81034599Y-112856038D01*
X81033228Y-112842115D01*
X81033249Y-112839054D01*
X81032807Y-112834537D01*
X81022607Y-112737489D01*
X81016682Y-112708628D01*
X81011164Y-112679700D01*
X81009853Y-112675355D01*
X80980997Y-112582136D01*
X80969568Y-112554949D01*
X80958546Y-112527668D01*
X80956416Y-112523661D01*
X80910003Y-112437824D01*
X80893535Y-112413410D01*
X80877402Y-112388757D01*
X80874534Y-112385240D01*
X80812332Y-112310051D01*
X80791426Y-112289291D01*
X80770824Y-112268252D01*
X80767327Y-112265359D01*
X80691707Y-112203683D01*
X80667175Y-112187384D01*
X80642863Y-112170738D01*
X80638872Y-112168579D01*
X80552711Y-112122767D01*
X80525460Y-112111535D01*
X80498406Y-112099940D01*
X80494071Y-112098598D01*
X80400653Y-112070393D01*
X80371762Y-112064673D01*
X80342943Y-112058547D01*
X80338429Y-112058072D01*
X80241312Y-112048550D01*
X80241307Y-112048550D01*
X80225560Y-112046999D01*
X60693640Y-112046999D01*
X60679717Y-112048370D01*
X60676656Y-112048349D01*
X60672139Y-112048791D01*
X60575091Y-112058991D01*
X60546230Y-112064916D01*
X60517302Y-112070434D01*
X60512957Y-112071745D01*
X60419738Y-112100601D01*
X60392551Y-112112030D01*
X60365270Y-112123052D01*
X60361263Y-112125182D01*
X60275426Y-112171595D01*
X60251012Y-112188063D01*
X60226359Y-112204196D01*
X60222842Y-112207064D01*
X60147653Y-112269266D01*
X60126893Y-112290172D01*
X60105854Y-112310774D01*
X60102961Y-112314271D01*
X60102957Y-112314275D01*
X60041285Y-112389891D01*
X60024986Y-112414423D01*
X60008340Y-112438735D01*
X60006181Y-112442726D01*
X59960369Y-112528887D01*
X59949137Y-112556138D01*
X59937542Y-112583192D01*
X59936200Y-112587527D01*
X59907995Y-112680945D01*
X59902275Y-112709836D01*
X59896149Y-112738655D01*
X59895674Y-112743169D01*
X59886152Y-112840286D01*
X59886152Y-112840301D01*
X59884602Y-112856038D01*
X59884601Y-115956105D01*
X59879740Y-116005688D01*
X59869957Y-116038089D01*
X59854063Y-116067983D01*
X59832669Y-116094213D01*
X59806590Y-116115788D01*
X59776814Y-116131888D01*
X59744476Y-116141898D01*
X59695943Y-116146999D01*
X57131680Y-116146999D01*
X56984969Y-116132614D01*
X56859148Y-116094626D01*
X56743098Y-116032921D01*
X56641246Y-115949852D01*
X56556869Y-115847858D01*
X56490596Y-115726950D01*
X54299662Y-110677610D01*
X62095040Y-110677610D01*
X62095040Y-110911870D01*
X62140742Y-111141630D01*
X62230390Y-111358059D01*
X62360539Y-111552840D01*
X62526186Y-111718487D01*
X62720967Y-111848636D01*
X62937396Y-111938284D01*
X63167156Y-111983986D01*
X63401416Y-111983986D01*
X63631176Y-111938284D01*
X63847605Y-111848636D01*
X64042386Y-111718487D01*
X64208033Y-111552840D01*
X64338182Y-111358059D01*
X64427830Y-111141630D01*
X64473532Y-110911870D01*
X64473532Y-110677610D01*
X76445667Y-110677610D01*
X76445667Y-110911870D01*
X76491369Y-111141630D01*
X76581017Y-111358059D01*
X76711166Y-111552840D01*
X76876813Y-111718487D01*
X77071594Y-111848636D01*
X77288023Y-111938284D01*
X77517783Y-111983986D01*
X77752043Y-111983986D01*
X77981803Y-111938284D01*
X78198232Y-111848636D01*
X78393013Y-111718487D01*
X78558660Y-111552840D01*
X78688809Y-111358059D01*
X78778457Y-111141630D01*
X78824159Y-110911870D01*
X78824159Y-110677610D01*
X78778457Y-110447850D01*
X78688809Y-110231421D01*
X78558660Y-110036640D01*
X78393013Y-109870993D01*
X78198232Y-109740844D01*
X77981803Y-109651196D01*
X77752043Y-109605494D01*
X77517783Y-109605494D01*
X77288023Y-109651196D01*
X77071594Y-109740844D01*
X76876813Y-109870993D01*
X76711166Y-110036640D01*
X76581017Y-110231421D01*
X76491369Y-110447850D01*
X76445667Y-110677610D01*
X64473532Y-110677610D01*
X64427830Y-110447850D01*
X64338182Y-110231421D01*
X64208033Y-110036640D01*
X64042386Y-109870993D01*
X63847605Y-109740844D01*
X63631176Y-109651196D01*
X63401416Y-109605494D01*
X63167156Y-109605494D01*
X62937396Y-109651196D01*
X62720967Y-109740844D01*
X62526186Y-109870993D01*
X62360539Y-110036640D01*
X62230390Y-110231421D01*
X62140742Y-110447850D01*
X62095040Y-110677610D01*
X54299662Y-110677610D01*
X50745344Y-102486147D01*
X50477109Y-101677743D01*
X50392494Y-101214783D01*
X50320430Y-100530183D01*
X51947613Y-100530183D01*
X51947613Y-100764443D01*
X51993315Y-100994203D01*
X52082963Y-101210632D01*
X52213112Y-101405413D01*
X52378759Y-101571060D01*
X52573540Y-101701209D01*
X52789969Y-101790857D01*
X53019729Y-101836559D01*
X53253989Y-101836559D01*
X53483749Y-101790857D01*
X53700178Y-101701209D01*
X53894959Y-101571060D01*
X54060606Y-101405413D01*
X54190755Y-101210632D01*
X54280403Y-100994203D01*
X54326105Y-100764443D01*
X54326105Y-100530183D01*
X54280403Y-100300423D01*
X54190755Y-100083994D01*
X54060606Y-99889213D01*
X53894959Y-99723566D01*
X53700178Y-99593417D01*
X53483749Y-99503769D01*
X53253989Y-99458067D01*
X53019729Y-99458067D01*
X52789969Y-99503769D01*
X52573540Y-99593417D01*
X52378759Y-99723566D01*
X52213112Y-99889213D01*
X52082963Y-100083994D01*
X51993315Y-100300423D01*
X51947613Y-100530183D01*
X50320430Y-100530183D01*
X50076764Y-98215390D01*
X49950135Y-95884092D01*
X56015400Y-95884092D01*
X56015400Y-95987508D01*
X56035576Y-96088937D01*
X56075151Y-96184481D01*
X56132606Y-96270468D01*
X56205732Y-96343594D01*
X56291719Y-96401049D01*
X56387263Y-96440624D01*
X56488692Y-96460800D01*
X56592108Y-96460800D01*
X56693537Y-96440624D01*
X56789081Y-96401049D01*
X56875068Y-96343594D01*
X56948194Y-96270468D01*
X57005649Y-96184481D01*
X57045224Y-96088937D01*
X57065400Y-95987508D01*
X57065400Y-95884092D01*
X57045224Y-95782663D01*
X57005649Y-95687119D01*
X56948194Y-95601132D01*
X56875068Y-95528006D01*
X56789081Y-95470551D01*
X56693537Y-95430976D01*
X56592108Y-95410800D01*
X56488692Y-95410800D01*
X56387263Y-95430976D01*
X56291719Y-95470551D01*
X56205732Y-95528006D01*
X56132606Y-95601132D01*
X56075151Y-95687119D01*
X56035576Y-95782663D01*
X56015400Y-95884092D01*
X49950135Y-95884092D01*
X49912962Y-95199724D01*
X49901941Y-92179658D01*
X49958236Y-90981892D01*
X56015400Y-90981892D01*
X56015400Y-91085308D01*
X56035576Y-91186737D01*
X56075151Y-91282281D01*
X56132606Y-91368268D01*
X56205732Y-91441394D01*
X56291719Y-91498849D01*
X56387263Y-91538424D01*
X56488692Y-91558600D01*
X56592108Y-91558600D01*
X56693537Y-91538424D01*
X56789081Y-91498849D01*
X56875068Y-91441394D01*
X56948194Y-91368268D01*
X57005649Y-91282281D01*
X57045224Y-91186737D01*
X57065400Y-91085308D01*
X57065400Y-90981892D01*
X57045224Y-90880463D01*
X57005649Y-90784919D01*
X56948194Y-90698932D01*
X56875068Y-90625806D01*
X56789081Y-90568351D01*
X56693537Y-90528776D01*
X56592108Y-90508600D01*
X56488692Y-90508600D01*
X56387263Y-90528776D01*
X56291719Y-90568351D01*
X56205732Y-90625806D01*
X56132606Y-90698932D01*
X56075151Y-90784919D01*
X56035576Y-90880463D01*
X56015400Y-90981892D01*
X49958236Y-90981892D01*
X50041802Y-89203892D01*
X56980600Y-89203892D01*
X56980600Y-89307308D01*
X57000776Y-89408737D01*
X57040351Y-89504281D01*
X57097806Y-89590268D01*
X57170932Y-89663394D01*
X57256919Y-89720849D01*
X57352463Y-89760424D01*
X57453892Y-89780600D01*
X57557308Y-89780600D01*
X57658737Y-89760424D01*
X57754281Y-89720849D01*
X57840268Y-89663394D01*
X57881671Y-89621991D01*
X57889776Y-89662737D01*
X57929351Y-89758281D01*
X57986806Y-89844268D01*
X58059932Y-89917394D01*
X58145919Y-89974849D01*
X58241463Y-90014424D01*
X58342892Y-90034600D01*
X58446308Y-90034600D01*
X58543241Y-90015318D01*
X58543240Y-96796274D01*
X58284730Y-97054784D01*
X58192308Y-97036400D01*
X58088892Y-97036400D01*
X57987463Y-97056576D01*
X57891919Y-97096151D01*
X57805932Y-97153606D01*
X57732806Y-97226732D01*
X57675351Y-97312719D01*
X57635776Y-97408263D01*
X57615600Y-97509692D01*
X57615600Y-97613108D01*
X57635776Y-97714537D01*
X57675351Y-97810081D01*
X57732806Y-97896068D01*
X57805932Y-97969194D01*
X57891919Y-98026649D01*
X57987463Y-98066224D01*
X58088892Y-98086400D01*
X58192308Y-98086400D01*
X58284731Y-98068016D01*
X58350200Y-98133485D01*
X58350201Y-100335744D01*
X58348265Y-100355400D01*
X58355988Y-100433813D01*
X58378861Y-100509214D01*
X58416003Y-100578702D01*
X58453465Y-100624350D01*
X58453468Y-100624353D01*
X58465990Y-100639611D01*
X58481248Y-100652133D01*
X60204400Y-102375286D01*
X60204401Y-103586944D01*
X60202465Y-103606600D01*
X60210188Y-103685013D01*
X60233061Y-103760414D01*
X60270203Y-103829902D01*
X60307665Y-103875550D01*
X60307668Y-103875553D01*
X60320190Y-103890811D01*
X60335448Y-103903333D01*
X64676467Y-108244353D01*
X64688989Y-108259611D01*
X64704247Y-108272133D01*
X64704249Y-108272135D01*
X64736182Y-108298341D01*
X64749897Y-108309597D01*
X64819386Y-108346740D01*
X64894786Y-108369612D01*
X64953553Y-108375400D01*
X64953563Y-108375400D01*
X64973199Y-108377334D01*
X64992835Y-108375400D01*
X74910354Y-108375400D01*
X74930000Y-108377335D01*
X74949646Y-108375400D01*
X74949647Y-108375400D01*
X75008414Y-108369612D01*
X75083814Y-108346740D01*
X75153303Y-108309597D01*
X75214211Y-108259611D01*
X75226737Y-108244348D01*
X79689674Y-103781412D01*
X79704931Y-103768891D01*
X79754917Y-103707983D01*
X79792060Y-103638494D01*
X79814932Y-103563094D01*
X79820720Y-103504327D01*
X79820720Y-103504317D01*
X79822654Y-103484681D01*
X79820720Y-103465045D01*
X79820720Y-102791845D01*
X81452766Y-101159800D01*
X81458708Y-101159800D01*
X81560137Y-101139624D01*
X81655681Y-101100049D01*
X81741668Y-101042594D01*
X81814794Y-100969468D01*
X81872249Y-100883481D01*
X81911824Y-100787937D01*
X81932000Y-100686508D01*
X81932000Y-100675485D01*
X82077302Y-100530183D01*
X86593094Y-100530183D01*
X86593094Y-100764443D01*
X86638796Y-100994203D01*
X86728444Y-101210632D01*
X86858593Y-101405413D01*
X87024240Y-101571060D01*
X87219021Y-101701209D01*
X87435450Y-101790857D01*
X87665210Y-101836559D01*
X87899470Y-101836559D01*
X88129230Y-101790857D01*
X88345659Y-101701209D01*
X88540440Y-101571060D01*
X88706087Y-101405413D01*
X88836236Y-101210632D01*
X88925884Y-100994203D01*
X88971586Y-100764443D01*
X88971586Y-100530183D01*
X88925884Y-100300423D01*
X88836236Y-100083994D01*
X88706087Y-99889213D01*
X88540440Y-99723566D01*
X88345659Y-99593417D01*
X88129230Y-99503769D01*
X87899470Y-99458067D01*
X87665210Y-99458067D01*
X87435450Y-99503769D01*
X87219021Y-99593417D01*
X87024240Y-99723566D01*
X86858593Y-99889213D01*
X86728444Y-100083994D01*
X86638796Y-100300423D01*
X86593094Y-100530183D01*
X82077302Y-100530183D01*
X83723188Y-98884297D01*
X83738451Y-98871771D01*
X83788437Y-98810863D01*
X83825580Y-98741374D01*
X83848452Y-98665974D01*
X83854240Y-98607207D01*
X83856175Y-98587560D01*
X83854240Y-98567913D01*
X83854240Y-97281327D01*
X83856175Y-97261680D01*
X83850214Y-97201151D01*
X83848452Y-97183266D01*
X83825580Y-97107866D01*
X83788437Y-97038377D01*
X83738451Y-96977469D01*
X83723189Y-96964944D01*
X83404690Y-96646445D01*
X83404690Y-95223692D01*
X83955400Y-95223692D01*
X83955400Y-95327108D01*
X83975576Y-95428537D01*
X84015151Y-95524081D01*
X84072606Y-95610068D01*
X84145732Y-95683194D01*
X84231719Y-95740649D01*
X84327263Y-95780224D01*
X84428692Y-95800400D01*
X84532108Y-95800400D01*
X84633537Y-95780224D01*
X84729081Y-95740649D01*
X84815068Y-95683194D01*
X84888194Y-95610068D01*
X84945649Y-95524081D01*
X84985224Y-95428537D01*
X85005400Y-95327108D01*
X85005400Y-95223692D01*
X84985224Y-95122263D01*
X84945649Y-95026719D01*
X84888194Y-94940732D01*
X84815068Y-94867606D01*
X84729081Y-94810151D01*
X84633537Y-94770576D01*
X84532108Y-94750400D01*
X84428692Y-94750400D01*
X84327263Y-94770576D01*
X84231719Y-94810151D01*
X84145732Y-94867606D01*
X84072606Y-94940732D01*
X84015151Y-95026719D01*
X83975576Y-95122263D01*
X83955400Y-95223692D01*
X83404690Y-95223692D01*
X83404690Y-91134292D01*
X83930000Y-91134292D01*
X83930000Y-91237708D01*
X83950176Y-91339137D01*
X83989751Y-91434681D01*
X84047206Y-91520668D01*
X84120332Y-91593794D01*
X84206319Y-91651249D01*
X84301863Y-91690824D01*
X84403292Y-91711000D01*
X84506708Y-91711000D01*
X84608137Y-91690824D01*
X84703681Y-91651249D01*
X84789668Y-91593794D01*
X84862794Y-91520668D01*
X84920249Y-91434681D01*
X84959824Y-91339137D01*
X84980000Y-91237708D01*
X84980000Y-91134292D01*
X84959824Y-91032863D01*
X84920249Y-90937319D01*
X84862794Y-90851332D01*
X84789668Y-90778206D01*
X84703681Y-90720751D01*
X84608137Y-90681176D01*
X84506708Y-90661000D01*
X84403292Y-90661000D01*
X84301863Y-90681176D01*
X84206319Y-90720751D01*
X84120332Y-90778206D01*
X84047206Y-90851332D01*
X83989751Y-90937319D01*
X83950176Y-91032863D01*
X83930000Y-91134292D01*
X83404690Y-91134292D01*
X83404690Y-89623257D01*
X83406625Y-89603610D01*
X83403940Y-89576343D01*
X83398902Y-89525196D01*
X83376030Y-89449796D01*
X83374720Y-89447345D01*
X83374720Y-89396932D01*
X83354544Y-89295503D01*
X83314969Y-89199959D01*
X83257514Y-89113972D01*
X83184388Y-89040846D01*
X83098401Y-88983391D01*
X83002857Y-88943816D01*
X82901428Y-88923640D01*
X82798012Y-88923640D01*
X82756960Y-88931806D01*
X82756960Y-88269407D01*
X82758895Y-88249760D01*
X82754683Y-88206989D01*
X82751172Y-88171346D01*
X82728300Y-88095946D01*
X82691157Y-88026457D01*
X82641171Y-87965549D01*
X82625904Y-87953020D01*
X82617800Y-87944916D01*
X82617800Y-87933892D01*
X82597624Y-87832463D01*
X82558049Y-87736919D01*
X82500594Y-87650932D01*
X82427468Y-87577806D01*
X82341481Y-87520351D01*
X82245937Y-87480776D01*
X82144508Y-87460600D01*
X82041092Y-87460600D01*
X81939663Y-87480776D01*
X81844119Y-87520351D01*
X81781600Y-87562125D01*
X81781600Y-86488788D01*
X81810224Y-86419682D01*
X81830400Y-86318253D01*
X81830400Y-86214837D01*
X81823382Y-86179556D01*
X86593094Y-86179556D01*
X86593094Y-86413816D01*
X86638796Y-86643576D01*
X86728444Y-86860005D01*
X86858593Y-87054786D01*
X87024240Y-87220433D01*
X87219021Y-87350582D01*
X87435450Y-87440230D01*
X87665210Y-87485932D01*
X87899470Y-87485932D01*
X88129230Y-87440230D01*
X88345659Y-87350582D01*
X88540440Y-87220433D01*
X88706087Y-87054786D01*
X88836236Y-86860005D01*
X88925884Y-86643576D01*
X88971586Y-86413816D01*
X88971586Y-86179556D01*
X88925884Y-85949796D01*
X88836236Y-85733367D01*
X88706087Y-85538586D01*
X88540440Y-85372939D01*
X88345659Y-85242790D01*
X88129230Y-85153142D01*
X87899470Y-85107440D01*
X87665210Y-85107440D01*
X87435450Y-85153142D01*
X87219021Y-85242790D01*
X87024240Y-85372939D01*
X86858593Y-85538586D01*
X86728444Y-85733367D01*
X86638796Y-85949796D01*
X86593094Y-86179556D01*
X81823382Y-86179556D01*
X81810224Y-86113408D01*
X81770649Y-86017864D01*
X81713194Y-85931877D01*
X81705400Y-85924083D01*
X81705400Y-85612567D01*
X81707335Y-85592920D01*
X81699612Y-85514506D01*
X81676740Y-85439106D01*
X81639597Y-85369617D01*
X81629994Y-85357916D01*
X81589611Y-85308709D01*
X81574348Y-85296183D01*
X76705017Y-80426852D01*
X76692491Y-80411589D01*
X76631583Y-80361603D01*
X76562094Y-80324460D01*
X76486694Y-80301588D01*
X76427927Y-80295800D01*
X76427926Y-80295800D01*
X76408280Y-80293865D01*
X76388634Y-80295800D01*
X73821757Y-80295800D01*
X73834624Y-80264737D01*
X73854800Y-80163308D01*
X73854800Y-80059892D01*
X73834624Y-79958463D01*
X73795049Y-79862919D01*
X73737594Y-79776932D01*
X73664468Y-79703806D01*
X73578481Y-79646351D01*
X73482937Y-79606776D01*
X73381508Y-79586600D01*
X73278092Y-79586600D01*
X73176663Y-79606776D01*
X73081119Y-79646351D01*
X72995132Y-79703806D01*
X72922006Y-79776932D01*
X72864551Y-79862919D01*
X72824976Y-79958463D01*
X72804800Y-80059892D01*
X72804800Y-80163308D01*
X72824976Y-80264737D01*
X72837843Y-80295800D01*
X66008835Y-80295800D01*
X65989199Y-80293866D01*
X65969563Y-80295800D01*
X65969553Y-80295800D01*
X65910786Y-80301588D01*
X65835386Y-80324460D01*
X65765897Y-80361603D01*
X65704989Y-80411589D01*
X65692463Y-80426852D01*
X62341715Y-83777600D01*
X62330692Y-83777600D01*
X62229263Y-83797776D01*
X62133719Y-83837351D01*
X62047732Y-83894806D01*
X61974606Y-83967932D01*
X61917151Y-84053919D01*
X61877576Y-84149463D01*
X61857400Y-84250892D01*
X61857400Y-84354308D01*
X61865365Y-84394348D01*
X61630848Y-84628865D01*
X61615590Y-84641387D01*
X61603068Y-84656645D01*
X61603065Y-84656648D01*
X61565603Y-84702296D01*
X61528461Y-84771784D01*
X61505588Y-84847185D01*
X61497865Y-84925598D01*
X61499801Y-84945254D01*
X61499800Y-86321314D01*
X59468240Y-88352875D01*
X59468240Y-88335212D01*
X59448064Y-88233783D01*
X59408489Y-88138239D01*
X59351034Y-88052252D01*
X59277908Y-87979126D01*
X59191921Y-87921671D01*
X59096377Y-87882096D01*
X58994948Y-87861920D01*
X58891532Y-87861920D01*
X58790103Y-87882096D01*
X58694559Y-87921671D01*
X58608572Y-87979126D01*
X58535446Y-88052252D01*
X58477991Y-88138239D01*
X58438416Y-88233783D01*
X58418240Y-88335212D01*
X58418240Y-88438628D01*
X58438416Y-88540057D01*
X58477991Y-88635601D01*
X58535446Y-88721588D01*
X58543241Y-88729383D01*
X58543241Y-89003882D01*
X58446308Y-88984600D01*
X58342892Y-88984600D01*
X58241463Y-89004776D01*
X58145919Y-89044351D01*
X58059932Y-89101806D01*
X58018529Y-89143209D01*
X58010424Y-89102463D01*
X57970849Y-89006919D01*
X57913394Y-88920932D01*
X57840268Y-88847806D01*
X57754281Y-88790351D01*
X57658737Y-88750776D01*
X57557308Y-88730600D01*
X57453892Y-88730600D01*
X57352463Y-88750776D01*
X57256919Y-88790351D01*
X57170932Y-88847806D01*
X57097806Y-88920932D01*
X57040351Y-89006919D01*
X57000776Y-89102463D01*
X56980600Y-89203892D01*
X50041802Y-89203892D01*
X50043730Y-89162881D01*
X50335769Y-86179556D01*
X51947613Y-86179556D01*
X51947613Y-86413816D01*
X51993315Y-86643576D01*
X52082963Y-86860005D01*
X52213112Y-87054786D01*
X52378759Y-87220433D01*
X52573540Y-87350582D01*
X52789969Y-87440230D01*
X53019729Y-87485932D01*
X53253989Y-87485932D01*
X53483749Y-87440230D01*
X53700178Y-87350582D01*
X53894959Y-87220433D01*
X54060606Y-87054786D01*
X54190755Y-86860005D01*
X54280403Y-86643576D01*
X54326105Y-86413816D01*
X54326105Y-86179556D01*
X54280403Y-85949796D01*
X54190755Y-85733367D01*
X54060606Y-85538586D01*
X53894959Y-85372939D01*
X53700178Y-85242790D01*
X53483749Y-85153142D01*
X53253989Y-85107440D01*
X53019729Y-85107440D01*
X52789969Y-85153142D01*
X52573540Y-85242790D01*
X52378759Y-85372939D01*
X52213112Y-85538586D01*
X52082963Y-85733367D01*
X51993315Y-85949796D01*
X51947613Y-86179556D01*
X50335769Y-86179556D01*
X50338304Y-86153669D01*
X50391072Y-85738880D01*
X50576150Y-84908098D01*
X50742862Y-84463570D01*
X54401307Y-76032129D01*
X62095040Y-76032129D01*
X62095040Y-76266389D01*
X62140742Y-76496149D01*
X62230390Y-76712578D01*
X62360539Y-76907359D01*
X62526186Y-77073006D01*
X62720967Y-77203155D01*
X62937396Y-77292803D01*
X63167156Y-77338505D01*
X63401416Y-77338505D01*
X63631176Y-77292803D01*
X63847605Y-77203155D01*
X64042386Y-77073006D01*
X64208033Y-76907359D01*
X64338182Y-76712578D01*
X64427830Y-76496149D01*
X64473532Y-76266389D01*
X64473532Y-76032129D01*
X76445667Y-76032129D01*
X76445667Y-76266389D01*
X76491369Y-76496149D01*
X76581017Y-76712578D01*
X76711166Y-76907359D01*
X76876813Y-77073006D01*
X77071594Y-77203155D01*
X77288023Y-77292803D01*
X77517783Y-77338505D01*
X77752043Y-77338505D01*
X77981803Y-77292803D01*
X78198232Y-77203155D01*
X78393013Y-77073006D01*
X78558660Y-76907359D01*
X78688809Y-76712578D01*
X78778457Y-76496149D01*
X78824159Y-76266389D01*
X78824159Y-76032129D01*
X78778457Y-75802369D01*
X78688809Y-75585940D01*
X78558660Y-75391159D01*
X78393013Y-75225512D01*
X78198232Y-75095363D01*
X77981803Y-75005715D01*
X77752043Y-74960013D01*
X77517783Y-74960013D01*
X77288023Y-75005715D01*
X77071594Y-75095363D01*
X76876813Y-75225512D01*
X76711166Y-75391159D01*
X76581017Y-75585940D01*
X76491369Y-75802369D01*
X76445667Y-76032129D01*
X64473532Y-76032129D01*
X64427830Y-75802369D01*
X64338182Y-75585940D01*
X64208033Y-75391159D01*
X64042386Y-75225512D01*
X63847605Y-75095363D01*
X63631176Y-75005715D01*
X63401416Y-74960013D01*
X63167156Y-74960013D01*
X62937396Y-75005715D01*
X62720967Y-75095363D01*
X62526186Y-75225512D01*
X62360539Y-75391159D01*
X62230390Y-75585940D01*
X62140742Y-75802369D01*
X62095040Y-76032129D01*
X54401307Y-76032129D01*
X56490228Y-71217895D01*
X56561814Y-71089049D01*
X56646749Y-70988743D01*
X56749548Y-70906844D01*
X56866292Y-70846475D01*
X56993450Y-70809668D01*
X57130746Y-70796999D01*
X59693707Y-70797001D01*
G36*
X81956961Y-97051297D02*
G01*
X81949166Y-97059092D01*
X81891711Y-97145079D01*
X81852136Y-97240623D01*
X81831960Y-97342052D01*
X81831960Y-97445468D01*
X81852136Y-97546897D01*
X81891711Y-97642441D01*
X81949166Y-97728428D01*
X81956961Y-97736223D01*
X81956960Y-97974835D01*
X79196594Y-100735201D01*
X73179248Y-100735201D01*
X73159601Y-100733266D01*
X73139954Y-100735201D01*
X73081187Y-100740989D01*
X73005787Y-100763861D01*
X72946408Y-100795600D01*
X72922494Y-100795600D01*
X72821065Y-100815776D01*
X72725521Y-100855351D01*
X72639534Y-100912806D01*
X72631740Y-100920600D01*
X72092146Y-100920600D01*
X72072499Y-100918665D01*
X72052853Y-100920600D01*
X71994086Y-100926388D01*
X71918686Y-100949260D01*
X71860486Y-100980369D01*
X71849197Y-100986403D01*
X71803549Y-101023865D01*
X71803547Y-101023867D01*
X71788289Y-101036389D01*
X71775767Y-101051647D01*
X70443775Y-102383640D01*
X67642991Y-102383640D01*
X67032362Y-101773012D01*
X67019836Y-101757749D01*
X66958928Y-101707763D01*
X66889439Y-101670620D01*
X66814039Y-101647748D01*
X66755272Y-101641960D01*
X66755271Y-101641960D01*
X66735625Y-101640025D01*
X66715979Y-101641960D01*
X66109166Y-101641960D01*
X65197084Y-100729879D01*
X65197084Y-100445881D01*
X65204878Y-100438087D01*
X65262333Y-100352100D01*
X65301908Y-100256556D01*
X65322084Y-100155127D01*
X65322084Y-100084324D01*
X65416963Y-100123624D01*
X65518392Y-100143800D01*
X65621808Y-100143800D01*
X65723237Y-100123624D01*
X65818781Y-100084049D01*
X65904768Y-100026594D01*
X65977894Y-99953468D01*
X66035349Y-99867481D01*
X66074924Y-99771937D01*
X66095100Y-99670508D01*
X66095100Y-99567092D01*
X66074924Y-99465663D01*
X66035349Y-99370119D01*
X65977894Y-99284132D01*
X65904768Y-99211006D01*
X65818781Y-99153551D01*
X65723237Y-99113976D01*
X65704530Y-99110255D01*
X66111705Y-98703080D01*
X67539138Y-98703080D01*
X67486406Y-98755812D01*
X67428951Y-98841799D01*
X67389376Y-98937343D01*
X67369200Y-99038772D01*
X67369200Y-99142188D01*
X67389376Y-99243617D01*
X67428951Y-99339161D01*
X67486406Y-99425148D01*
X67559532Y-99498274D01*
X67645519Y-99555729D01*
X67741063Y-99595304D01*
X67842492Y-99615480D01*
X67945908Y-99615480D01*
X68047337Y-99595304D01*
X68142881Y-99555729D01*
X68228868Y-99498274D01*
X68301994Y-99425148D01*
X68359449Y-99339161D01*
X68399024Y-99243617D01*
X68404770Y-99214730D01*
X69541720Y-99214730D01*
X69541720Y-99522280D01*
X69543641Y-99541789D01*
X69544955Y-99546119D01*
X68767375Y-100323700D01*
X67957262Y-100323700D01*
X67949468Y-100315906D01*
X67863481Y-100258451D01*
X67767937Y-100218876D01*
X67666508Y-100198700D01*
X67563092Y-100198700D01*
X67461663Y-100218876D01*
X67366119Y-100258451D01*
X67280132Y-100315906D01*
X67207006Y-100389032D01*
X67149551Y-100475019D01*
X67109976Y-100570563D01*
X67089800Y-100671992D01*
X67089800Y-100775408D01*
X67109976Y-100876837D01*
X67149551Y-100972381D01*
X67207006Y-101058368D01*
X67280132Y-101131494D01*
X67366119Y-101188949D01*
X67461663Y-101228524D01*
X67563092Y-101248700D01*
X67666508Y-101248700D01*
X67767937Y-101228524D01*
X67863481Y-101188949D01*
X67949468Y-101131494D01*
X67957262Y-101123700D01*
X68239356Y-101123700D01*
X68221545Y-101166700D01*
X68214523Y-101202000D01*
X68185392Y-101202000D01*
X68083963Y-101222176D01*
X67988419Y-101261751D01*
X67902432Y-101319206D01*
X67829306Y-101392332D01*
X67771851Y-101478319D01*
X67732276Y-101573863D01*
X67712100Y-101675292D01*
X67712100Y-101778708D01*
X67732276Y-101880137D01*
X67771851Y-101975681D01*
X67829306Y-102061668D01*
X67902432Y-102134794D01*
X67988419Y-102192249D01*
X68083963Y-102231824D01*
X68185392Y-102252000D01*
X68288808Y-102252000D01*
X68390237Y-102231824D01*
X68485781Y-102192249D01*
X68571768Y-102134794D01*
X68644894Y-102061668D01*
X68702349Y-101975681D01*
X68741924Y-101880137D01*
X68748946Y-101844837D01*
X68778077Y-101844837D01*
X68879506Y-101824661D01*
X68975050Y-101785086D01*
X69061037Y-101727631D01*
X69134163Y-101654505D01*
X69191618Y-101568518D01*
X69201976Y-101543511D01*
X69252192Y-101553500D01*
X69355608Y-101553500D01*
X69457037Y-101533324D01*
X69552581Y-101493749D01*
X69638568Y-101436294D01*
X69711694Y-101363168D01*
X69769149Y-101277181D01*
X69808724Y-101181637D01*
X69828900Y-101080208D01*
X69828900Y-101069185D01*
X70361126Y-100536960D01*
X77353834Y-100536960D01*
X77373480Y-100538895D01*
X77393126Y-100536960D01*
X77393127Y-100536960D01*
X77451894Y-100531172D01*
X77527294Y-100508300D01*
X77596783Y-100471157D01*
X77657691Y-100421171D01*
X77670217Y-100405908D01*
X78221545Y-99854580D01*
X78248988Y-99895652D01*
X78322114Y-99968778D01*
X78408101Y-100026233D01*
X78503645Y-100065808D01*
X78605074Y-100085984D01*
X78708490Y-100085984D01*
X78809919Y-100065808D01*
X78905463Y-100026233D01*
X78991450Y-99968778D01*
X79064576Y-99895652D01*
X79122031Y-99809665D01*
X79161606Y-99714121D01*
X79181782Y-99612692D01*
X79181782Y-99509276D01*
X79161606Y-99407847D01*
X79122031Y-99312303D01*
X79064576Y-99226316D01*
X78991450Y-99153190D01*
X78950378Y-99125747D01*
X80226511Y-97849614D01*
X80247368Y-97880828D01*
X80320494Y-97953954D01*
X80406481Y-98011409D01*
X80502025Y-98050984D01*
X80603454Y-98071160D01*
X80706870Y-98071160D01*
X80808299Y-98050984D01*
X80903843Y-98011409D01*
X80989830Y-97953954D01*
X81062956Y-97880828D01*
X81120411Y-97794841D01*
X81159986Y-97699297D01*
X81180162Y-97597868D01*
X81180162Y-97494452D01*
X81159986Y-97393023D01*
X81120411Y-97297479D01*
X81062956Y-97211492D01*
X80989830Y-97138366D01*
X80903843Y-97080911D01*
X80816400Y-97044691D01*
X80816400Y-94715000D01*
X81956961Y-94715000D01*
X81956961Y-97051297D01*
G37*
X81956961Y-97051297D02*
X81949166Y-97059092D01*
X81891711Y-97145079D01*
X81852136Y-97240623D01*
X81831960Y-97342052D01*
X81831960Y-97445468D01*
X81852136Y-97546897D01*
X81891711Y-97642441D01*
X81949166Y-97728428D01*
X81956961Y-97736223D01*
X81956960Y-97974835D01*
X79196594Y-100735201D01*
X73179248Y-100735201D01*
X73159601Y-100733266D01*
X73139954Y-100735201D01*
X73081187Y-100740989D01*
X73005787Y-100763861D01*
X72946408Y-100795600D01*
X72922494Y-100795600D01*
X72821065Y-100815776D01*
X72725521Y-100855351D01*
X72639534Y-100912806D01*
X72631740Y-100920600D01*
X72092146Y-100920600D01*
X72072499Y-100918665D01*
X72052853Y-100920600D01*
X71994086Y-100926388D01*
X71918686Y-100949260D01*
X71860486Y-100980369D01*
X71849197Y-100986403D01*
X71803549Y-101023865D01*
X71803547Y-101023867D01*
X71788289Y-101036389D01*
X71775767Y-101051647D01*
X70443775Y-102383640D01*
X67642991Y-102383640D01*
X67032362Y-101773012D01*
X67019836Y-101757749D01*
X66958928Y-101707763D01*
X66889439Y-101670620D01*
X66814039Y-101647748D01*
X66755272Y-101641960D01*
X66755271Y-101641960D01*
X66735625Y-101640025D01*
X66715979Y-101641960D01*
X66109166Y-101641960D01*
X65197084Y-100729879D01*
X65197084Y-100445881D01*
X65204878Y-100438087D01*
X65262333Y-100352100D01*
X65301908Y-100256556D01*
X65322084Y-100155127D01*
X65322084Y-100084324D01*
X65416963Y-100123624D01*
X65518392Y-100143800D01*
X65621808Y-100143800D01*
X65723237Y-100123624D01*
X65818781Y-100084049D01*
X65904768Y-100026594D01*
X65977894Y-99953468D01*
X66035349Y-99867481D01*
X66074924Y-99771937D01*
X66095100Y-99670508D01*
X66095100Y-99567092D01*
X66074924Y-99465663D01*
X66035349Y-99370119D01*
X65977894Y-99284132D01*
X65904768Y-99211006D01*
X65818781Y-99153551D01*
X65723237Y-99113976D01*
X65704530Y-99110255D01*
X66111705Y-98703080D01*
X67539138Y-98703080D01*
X67486406Y-98755812D01*
X67428951Y-98841799D01*
X67389376Y-98937343D01*
X67369200Y-99038772D01*
X67369200Y-99142188D01*
X67389376Y-99243617D01*
X67428951Y-99339161D01*
X67486406Y-99425148D01*
X67559532Y-99498274D01*
X67645519Y-99555729D01*
X67741063Y-99595304D01*
X67842492Y-99615480D01*
X67945908Y-99615480D01*
X68047337Y-99595304D01*
X68142881Y-99555729D01*
X68228868Y-99498274D01*
X68301994Y-99425148D01*
X68359449Y-99339161D01*
X68399024Y-99243617D01*
X68404770Y-99214730D01*
X69541720Y-99214730D01*
X69541720Y-99522280D01*
X69543641Y-99541789D01*
X69544955Y-99546119D01*
X68767375Y-100323700D01*
X67957262Y-100323700D01*
X67949468Y-100315906D01*
X67863481Y-100258451D01*
X67767937Y-100218876D01*
X67666508Y-100198700D01*
X67563092Y-100198700D01*
X67461663Y-100218876D01*
X67366119Y-100258451D01*
X67280132Y-100315906D01*
X67207006Y-100389032D01*
X67149551Y-100475019D01*
X67109976Y-100570563D01*
X67089800Y-100671992D01*
X67089800Y-100775408D01*
X67109976Y-100876837D01*
X67149551Y-100972381D01*
X67207006Y-101058368D01*
X67280132Y-101131494D01*
X67366119Y-101188949D01*
X67461663Y-101228524D01*
X67563092Y-101248700D01*
X67666508Y-101248700D01*
X67767937Y-101228524D01*
X67863481Y-101188949D01*
X67949468Y-101131494D01*
X67957262Y-101123700D01*
X68239356Y-101123700D01*
X68221545Y-101166700D01*
X68214523Y-101202000D01*
X68185392Y-101202000D01*
X68083963Y-101222176D01*
X67988419Y-101261751D01*
X67902432Y-101319206D01*
X67829306Y-101392332D01*
X67771851Y-101478319D01*
X67732276Y-101573863D01*
X67712100Y-101675292D01*
X67712100Y-101778708D01*
X67732276Y-101880137D01*
X67771851Y-101975681D01*
X67829306Y-102061668D01*
X67902432Y-102134794D01*
X67988419Y-102192249D01*
X68083963Y-102231824D01*
X68185392Y-102252000D01*
X68288808Y-102252000D01*
X68390237Y-102231824D01*
X68485781Y-102192249D01*
X68571768Y-102134794D01*
X68644894Y-102061668D01*
X68702349Y-101975681D01*
X68741924Y-101880137D01*
X68748946Y-101844837D01*
X68778077Y-101844837D01*
X68879506Y-101824661D01*
X68975050Y-101785086D01*
X69061037Y-101727631D01*
X69134163Y-101654505D01*
X69191618Y-101568518D01*
X69201976Y-101543511D01*
X69252192Y-101553500D01*
X69355608Y-101553500D01*
X69457037Y-101533324D01*
X69552581Y-101493749D01*
X69638568Y-101436294D01*
X69711694Y-101363168D01*
X69769149Y-101277181D01*
X69808724Y-101181637D01*
X69828900Y-101080208D01*
X69828900Y-101069185D01*
X70361126Y-100536960D01*
X77353834Y-100536960D01*
X77373480Y-100538895D01*
X77393126Y-100536960D01*
X77393127Y-100536960D01*
X77451894Y-100531172D01*
X77527294Y-100508300D01*
X77596783Y-100471157D01*
X77657691Y-100421171D01*
X77670217Y-100405908D01*
X78221545Y-99854580D01*
X78248988Y-99895652D01*
X78322114Y-99968778D01*
X78408101Y-100026233D01*
X78503645Y-100065808D01*
X78605074Y-100085984D01*
X78708490Y-100085984D01*
X78809919Y-100065808D01*
X78905463Y-100026233D01*
X78991450Y-99968778D01*
X79064576Y-99895652D01*
X79122031Y-99809665D01*
X79161606Y-99714121D01*
X79181782Y-99612692D01*
X79181782Y-99509276D01*
X79161606Y-99407847D01*
X79122031Y-99312303D01*
X79064576Y-99226316D01*
X78991450Y-99153190D01*
X78950378Y-99125747D01*
X80226511Y-97849614D01*
X80247368Y-97880828D01*
X80320494Y-97953954D01*
X80406481Y-98011409D01*
X80502025Y-98050984D01*
X80603454Y-98071160D01*
X80706870Y-98071160D01*
X80808299Y-98050984D01*
X80903843Y-98011409D01*
X80989830Y-97953954D01*
X81062956Y-97880828D01*
X81120411Y-97794841D01*
X81159986Y-97699297D01*
X81180162Y-97597868D01*
X81180162Y-97494452D01*
X81159986Y-97393023D01*
X81120411Y-97297479D01*
X81062956Y-97211492D01*
X80989830Y-97138366D01*
X80903843Y-97080911D01*
X80816400Y-97044691D01*
X80816400Y-94715000D01*
X81956961Y-94715000D01*
X81956961Y-97051297D01*
G36*
X66949932Y-82195794D02*
G01*
X67035919Y-82253249D01*
X67131463Y-82292824D01*
X67232892Y-82313000D01*
X67336308Y-82313000D01*
X67437737Y-82292824D01*
X67533281Y-82253249D01*
X67619268Y-82195794D01*
X67627062Y-82188000D01*
X75145315Y-82188000D01*
X76005200Y-83047886D01*
X76005200Y-83058908D01*
X76025376Y-83160337D01*
X76064951Y-83255881D01*
X76122406Y-83341868D01*
X76130201Y-83349663D01*
X76130200Y-83984399D01*
X76046863Y-84000976D01*
X75951319Y-84040551D01*
X75865332Y-84098006D01*
X75792206Y-84171132D01*
X75734751Y-84257119D01*
X75695176Y-84352663D01*
X75675000Y-84454092D01*
X75675000Y-84557508D01*
X75695176Y-84658937D01*
X75734751Y-84754481D01*
X75792206Y-84840468D01*
X75865332Y-84913594D01*
X75951319Y-84971049D01*
X76046863Y-85010624D01*
X76148292Y-85030800D01*
X76251708Y-85030800D01*
X76353137Y-85010624D01*
X76448681Y-84971049D01*
X76534668Y-84913594D01*
X76607794Y-84840468D01*
X76665249Y-84754481D01*
X76704824Y-84658937D01*
X76725000Y-84557508D01*
X76725000Y-84546486D01*
X76799154Y-84472332D01*
X76814411Y-84459811D01*
X76828209Y-84442999D01*
X76864396Y-84398904D01*
X76864397Y-84398903D01*
X76901540Y-84329414D01*
X76924412Y-84254014D01*
X76930200Y-84195247D01*
X76930200Y-84195237D01*
X76932134Y-84175601D01*
X76930200Y-84155965D01*
X76930200Y-83349662D01*
X76937994Y-83341868D01*
X76956815Y-83313700D01*
X78478956Y-84835841D01*
X78469000Y-84885892D01*
X78469000Y-84989308D01*
X78489176Y-85090737D01*
X78528751Y-85186281D01*
X78586206Y-85272268D01*
X78659332Y-85345394D01*
X78745319Y-85402849D01*
X78840863Y-85442424D01*
X78942292Y-85462600D01*
X78953315Y-85462600D01*
X79559200Y-86068486D01*
X79559201Y-87188438D01*
X79528794Y-87142932D01*
X79455668Y-87069806D01*
X79369681Y-87012351D01*
X79274137Y-86972776D01*
X79172708Y-86952600D01*
X79069292Y-86952600D01*
X78967863Y-86972776D01*
X78872319Y-87012351D01*
X78786332Y-87069806D01*
X78713206Y-87142932D01*
X78655751Y-87228919D01*
X78616176Y-87324463D01*
X78596000Y-87425892D01*
X78596000Y-87529308D01*
X78616176Y-87630737D01*
X78655751Y-87726281D01*
X78713206Y-87812268D01*
X78721000Y-87820062D01*
X78721001Y-89545824D01*
X78719065Y-89565480D01*
X78726788Y-89643893D01*
X78740386Y-89688720D01*
X78028127Y-89688720D01*
X78008480Y-89686785D01*
X77930066Y-89694508D01*
X77854666Y-89717380D01*
X77785177Y-89754523D01*
X77739529Y-89791985D01*
X77739527Y-89791987D01*
X77724269Y-89804509D01*
X77711747Y-89819767D01*
X77099452Y-90432063D01*
X77084189Y-90444589D01*
X77034203Y-90505498D01*
X76997060Y-90574987D01*
X76981424Y-90626532D01*
X76974188Y-90650387D01*
X76966465Y-90728800D01*
X76968400Y-90748447D01*
X76968401Y-92474444D01*
X76966465Y-92494100D01*
X76974188Y-92572513D01*
X76997061Y-92647914D01*
X77034203Y-92717402D01*
X77071665Y-92763050D01*
X77071668Y-92763053D01*
X77084190Y-92778311D01*
X77099448Y-92790833D01*
X77720520Y-93411905D01*
X77720520Y-93477080D01*
X77722441Y-93496589D01*
X77728132Y-93515348D01*
X77737373Y-93532637D01*
X77749809Y-93547791D01*
X77764963Y-93560227D01*
X77782252Y-93569468D01*
X77801011Y-93575159D01*
X77820520Y-93577080D01*
X77885695Y-93577080D01*
X78303563Y-93994948D01*
X78316089Y-94010211D01*
X78376997Y-94060197D01*
X78446486Y-94097340D01*
X78521886Y-94120212D01*
X78562108Y-94124173D01*
X78547882Y-94195691D01*
X78547882Y-94299107D01*
X78568058Y-94400536D01*
X78607633Y-94496080D01*
X78665088Y-94582067D01*
X78738214Y-94655193D01*
X78824201Y-94712648D01*
X78919631Y-94752176D01*
X78919631Y-95305331D01*
X78855037Y-95278576D01*
X78753608Y-95258400D01*
X78650192Y-95258400D01*
X78548763Y-95278576D01*
X78453219Y-95318151D01*
X78367232Y-95375606D01*
X78294106Y-95448732D01*
X78236651Y-95534719D01*
X78197076Y-95630263D01*
X78176900Y-95731692D01*
X78176900Y-95798199D01*
X76962167Y-95798199D01*
X76941300Y-95796144D01*
X76920433Y-95798199D01*
X76920427Y-95798199D01*
X76866399Y-95803520D01*
X76857986Y-95804349D01*
X76850609Y-95806587D01*
X76777874Y-95828651D01*
X76704041Y-95868115D01*
X76639327Y-95921225D01*
X76626022Y-95937437D01*
X75523580Y-97039880D01*
X72857385Y-97039880D01*
X72882124Y-96980153D01*
X72902300Y-96878724D01*
X72902300Y-96775308D01*
X72882124Y-96673879D01*
X72842549Y-96578335D01*
X72785094Y-96492348D01*
X72711968Y-96419222D01*
X72625981Y-96361767D01*
X72530437Y-96322192D01*
X72429008Y-96302016D01*
X72325592Y-96302016D01*
X72224163Y-96322192D01*
X72128619Y-96361767D01*
X72042632Y-96419222D01*
X71969506Y-96492348D01*
X71912051Y-96578335D01*
X71872476Y-96673879D01*
X71852300Y-96775308D01*
X71852300Y-96878724D01*
X71872476Y-96980153D01*
X71897215Y-97039880D01*
X71511184Y-97039880D01*
X71535925Y-96980149D01*
X71556101Y-96878720D01*
X71556101Y-96775304D01*
X71535925Y-96673875D01*
X71496350Y-96578331D01*
X71438895Y-96492344D01*
X71365769Y-96419218D01*
X71279782Y-96361763D01*
X71184238Y-96322188D01*
X71082809Y-96302012D01*
X70979393Y-96302012D01*
X70877964Y-96322188D01*
X70782420Y-96361763D01*
X70696433Y-96419218D01*
X70623307Y-96492344D01*
X70565852Y-96578331D01*
X70526277Y-96673875D01*
X70506101Y-96775304D01*
X70506101Y-96878720D01*
X70526277Y-96980149D01*
X70565852Y-97075693D01*
X70606101Y-97135930D01*
X70606101Y-97223034D01*
X70604046Y-97243901D01*
X70606101Y-97264768D01*
X70606101Y-97264775D01*
X70608319Y-97287289D01*
X70612251Y-97327215D01*
X70633509Y-97397290D01*
X70636554Y-97407328D01*
X70676018Y-97481161D01*
X70696496Y-97506113D01*
X70705431Y-97517000D01*
X65709115Y-97517000D01*
X65689479Y-97515066D01*
X65669843Y-97517000D01*
X65669833Y-97517000D01*
X65611066Y-97522788D01*
X65535666Y-97545660D01*
X65466177Y-97582803D01*
X65466175Y-97582804D01*
X65466176Y-97582804D01*
X65420529Y-97620265D01*
X65420527Y-97620267D01*
X65405269Y-97632789D01*
X65392747Y-97648047D01*
X64797355Y-98243440D01*
X63323066Y-98243440D01*
X63331724Y-98222537D01*
X63351900Y-98121108D01*
X63351900Y-98017692D01*
X63331724Y-97916263D01*
X63292149Y-97820719D01*
X63234694Y-97734732D01*
X63161568Y-97661606D01*
X63075581Y-97604151D01*
X62980037Y-97564576D01*
X62878608Y-97544400D01*
X62775192Y-97544400D01*
X62680800Y-97563176D01*
X62680800Y-97316757D01*
X62711863Y-97329624D01*
X62813292Y-97349800D01*
X62916708Y-97349800D01*
X63018137Y-97329624D01*
X63113681Y-97290049D01*
X63199668Y-97232594D01*
X63272794Y-97159468D01*
X63330249Y-97073481D01*
X63369824Y-96977937D01*
X63390000Y-96876508D01*
X63390000Y-96773092D01*
X63372043Y-96682817D01*
X64315607Y-96682817D01*
X64315607Y-96786233D01*
X64335783Y-96887662D01*
X64375358Y-96983206D01*
X64432813Y-97069193D01*
X64505939Y-97142319D01*
X64591926Y-97199774D01*
X64687470Y-97239349D01*
X64788899Y-97259525D01*
X64892315Y-97259525D01*
X64993744Y-97239349D01*
X65068619Y-97208335D01*
X65097797Y-97237513D01*
X65183784Y-97294968D01*
X65279328Y-97334543D01*
X65380757Y-97354719D01*
X65484173Y-97354719D01*
X65585602Y-97334543D01*
X65681146Y-97294968D01*
X65767133Y-97237513D01*
X65840259Y-97164387D01*
X65897714Y-97078400D01*
X65937289Y-96982856D01*
X65957465Y-96881427D01*
X65957465Y-96778011D01*
X65937289Y-96676582D01*
X65897714Y-96581038D01*
X65840259Y-96495051D01*
X65767133Y-96421925D01*
X65681146Y-96364470D01*
X65585602Y-96324895D01*
X65484173Y-96304719D01*
X65380757Y-96304719D01*
X65279328Y-96324895D01*
X65204453Y-96355909D01*
X65175275Y-96326731D01*
X65089288Y-96269276D01*
X64993744Y-96229701D01*
X64892315Y-96209525D01*
X64788899Y-96209525D01*
X64687470Y-96229701D01*
X64591926Y-96269276D01*
X64505939Y-96326731D01*
X64432813Y-96399857D01*
X64375358Y-96485844D01*
X64335783Y-96581388D01*
X64315607Y-96682817D01*
X63372043Y-96682817D01*
X63369824Y-96671663D01*
X63330249Y-96576119D01*
X63272794Y-96490132D01*
X63199668Y-96417006D01*
X63113681Y-96359551D01*
X63018137Y-96319976D01*
X62916708Y-96299800D01*
X62813292Y-96299800D01*
X62711863Y-96319976D01*
X62680800Y-96332843D01*
X62680800Y-95904647D01*
X62682735Y-95885000D01*
X62675012Y-95806586D01*
X62652140Y-95731186D01*
X62614997Y-95661697D01*
X62594574Y-95636812D01*
X62565011Y-95600789D01*
X62549749Y-95588264D01*
X62354199Y-95392714D01*
X62354199Y-95360848D01*
X64631080Y-95360848D01*
X64631080Y-95464264D01*
X64651256Y-95565693D01*
X64690831Y-95661237D01*
X64748286Y-95747224D01*
X64821412Y-95820350D01*
X64907399Y-95877805D01*
X65002943Y-95917380D01*
X65104372Y-95937556D01*
X65207788Y-95937556D01*
X65309217Y-95917380D01*
X65404761Y-95877805D01*
X65490748Y-95820350D01*
X65563874Y-95747224D01*
X65621329Y-95661237D01*
X65660904Y-95565693D01*
X65681080Y-95464264D01*
X65681080Y-95360848D01*
X65660904Y-95259419D01*
X65621329Y-95163875D01*
X65563874Y-95077888D01*
X65490748Y-95004762D01*
X65404761Y-94947307D01*
X65309217Y-94907732D01*
X65207788Y-94887556D01*
X65104372Y-94887556D01*
X65002943Y-94907732D01*
X64907399Y-94947307D01*
X64821412Y-95004762D01*
X64748286Y-95077888D01*
X64690831Y-95163875D01*
X64651256Y-95259419D01*
X64631080Y-95360848D01*
X62354199Y-95360848D01*
X62354199Y-94817140D01*
X62444992Y-94835200D01*
X62548408Y-94835200D01*
X62649837Y-94815024D01*
X62745381Y-94775449D01*
X62831368Y-94717994D01*
X62904494Y-94644868D01*
X62961949Y-94558881D01*
X63001524Y-94463337D01*
X63021700Y-94361908D01*
X63021700Y-94258492D01*
X63014003Y-94219797D01*
X64717569Y-94219797D01*
X64717569Y-94323213D01*
X64737745Y-94424642D01*
X64777320Y-94520186D01*
X64834775Y-94606173D01*
X64907901Y-94679299D01*
X64993888Y-94736754D01*
X65089432Y-94776329D01*
X65190861Y-94796505D01*
X65294277Y-94796505D01*
X65395706Y-94776329D01*
X65491250Y-94736754D01*
X65577237Y-94679299D01*
X65650363Y-94606173D01*
X65707818Y-94520186D01*
X65747393Y-94424642D01*
X65767569Y-94323213D01*
X65767569Y-94219797D01*
X65747393Y-94118368D01*
X65707818Y-94022824D01*
X65650363Y-93936837D01*
X65577237Y-93863711D01*
X65491250Y-93806256D01*
X65395706Y-93766681D01*
X65294277Y-93746505D01*
X65190861Y-93746505D01*
X65089432Y-93766681D01*
X64993888Y-93806256D01*
X64907901Y-93863711D01*
X64834775Y-93936837D01*
X64777320Y-94022824D01*
X64737745Y-94118368D01*
X64717569Y-94219797D01*
X63014003Y-94219797D01*
X63001524Y-94157063D01*
X62961949Y-94061519D01*
X62904494Y-93975532D01*
X62831368Y-93902406D01*
X62745381Y-93844951D01*
X62649837Y-93805376D01*
X62548408Y-93785200D01*
X62444992Y-93785200D01*
X62354199Y-93803260D01*
X62354199Y-91322252D01*
X64605680Y-91322252D01*
X64605680Y-91425668D01*
X64625856Y-91527097D01*
X64665431Y-91622641D01*
X64722886Y-91708628D01*
X64796012Y-91781754D01*
X64881999Y-91839209D01*
X64977543Y-91878784D01*
X65078972Y-91898960D01*
X65182388Y-91898960D01*
X65283817Y-91878784D01*
X65379361Y-91839209D01*
X65465348Y-91781754D01*
X65492110Y-91754992D01*
X65535908Y-91784257D01*
X65631452Y-91823832D01*
X65732881Y-91844008D01*
X65836297Y-91844008D01*
X65937726Y-91823832D01*
X66033270Y-91784257D01*
X66119257Y-91726802D01*
X66192383Y-91653676D01*
X66249838Y-91567689D01*
X66289413Y-91472145D01*
X66309589Y-91370716D01*
X66309589Y-91267300D01*
X66289413Y-91165871D01*
X66249838Y-91070327D01*
X66192383Y-90984340D01*
X66119257Y-90911214D01*
X66033270Y-90853759D01*
X65937726Y-90814184D01*
X65836297Y-90794008D01*
X65732881Y-90794008D01*
X65631452Y-90814184D01*
X65535908Y-90853759D01*
X65449921Y-90911214D01*
X65423159Y-90937976D01*
X65379361Y-90908711D01*
X65283817Y-90869136D01*
X65182388Y-90848960D01*
X65078972Y-90848960D01*
X64977543Y-90869136D01*
X64881999Y-90908711D01*
X64796012Y-90966166D01*
X64722886Y-91039292D01*
X64665431Y-91125279D01*
X64625856Y-91220823D01*
X64605680Y-91322252D01*
X62354199Y-91322252D01*
X62354199Y-90526068D01*
X62427879Y-90495549D01*
X62513866Y-90438094D01*
X62586992Y-90364968D01*
X62644447Y-90278981D01*
X62684022Y-90183437D01*
X62702032Y-90092892D01*
X63051200Y-90092892D01*
X63051200Y-90196308D01*
X63071376Y-90297737D01*
X63110951Y-90393281D01*
X63168406Y-90479268D01*
X63241532Y-90552394D01*
X63327519Y-90609849D01*
X63423063Y-90649424D01*
X63524492Y-90669600D01*
X63627908Y-90669600D01*
X63729337Y-90649424D01*
X63824881Y-90609849D01*
X63910868Y-90552394D01*
X63983994Y-90479268D01*
X64041449Y-90393281D01*
X64081024Y-90297737D01*
X64101200Y-90196308D01*
X64101200Y-90171243D01*
X65259589Y-90171243D01*
X65259589Y-90274659D01*
X65279765Y-90376088D01*
X65319340Y-90471632D01*
X65376795Y-90557619D01*
X65449921Y-90630745D01*
X65535908Y-90688200D01*
X65631452Y-90727775D01*
X65732881Y-90747951D01*
X65836297Y-90747951D01*
X65937726Y-90727775D01*
X66033270Y-90688200D01*
X66119257Y-90630745D01*
X66192383Y-90557619D01*
X66249838Y-90471632D01*
X66289413Y-90376088D01*
X66309589Y-90274659D01*
X66309589Y-90171243D01*
X66289413Y-90069814D01*
X66287530Y-90065266D01*
X71387480Y-90065266D01*
X71387480Y-90168682D01*
X71407656Y-90270111D01*
X71447231Y-90365655D01*
X71504686Y-90451642D01*
X71577812Y-90524768D01*
X71663799Y-90582223D01*
X71759343Y-90621798D01*
X71860772Y-90641974D01*
X71964188Y-90641974D01*
X72065617Y-90621798D01*
X72161161Y-90582223D01*
X72247148Y-90524768D01*
X72320274Y-90451642D01*
X72377729Y-90365655D01*
X72417304Y-90270111D01*
X72437480Y-90168682D01*
X72437480Y-90065266D01*
X72417304Y-89963837D01*
X72377729Y-89868293D01*
X72320274Y-89782306D01*
X72247148Y-89709180D01*
X72161161Y-89651725D01*
X72065617Y-89612150D01*
X71964188Y-89591974D01*
X71860772Y-89591974D01*
X71759343Y-89612150D01*
X71663799Y-89651725D01*
X71577812Y-89709180D01*
X71504686Y-89782306D01*
X71447231Y-89868293D01*
X71407656Y-89963837D01*
X71387480Y-90065266D01*
X66287530Y-90065266D01*
X66249838Y-89974270D01*
X66192383Y-89888283D01*
X66119257Y-89815157D01*
X66033270Y-89757702D01*
X65937726Y-89718127D01*
X65836297Y-89697951D01*
X65732881Y-89697951D01*
X65631452Y-89718127D01*
X65535908Y-89757702D01*
X65449921Y-89815157D01*
X65376795Y-89888283D01*
X65319340Y-89974270D01*
X65279765Y-90069814D01*
X65259589Y-90171243D01*
X64101200Y-90171243D01*
X64101200Y-90092892D01*
X64081024Y-89991463D01*
X64041449Y-89895919D01*
X63983994Y-89809932D01*
X63910868Y-89736806D01*
X63824881Y-89679351D01*
X63729337Y-89639776D01*
X63627908Y-89619600D01*
X63524492Y-89619600D01*
X63423063Y-89639776D01*
X63327519Y-89679351D01*
X63241532Y-89736806D01*
X63168406Y-89809932D01*
X63110951Y-89895919D01*
X63071376Y-89991463D01*
X63051200Y-90092892D01*
X62702032Y-90092892D01*
X62704198Y-90082008D01*
X62704198Y-89978592D01*
X62684022Y-89877163D01*
X62644447Y-89781619D01*
X62586992Y-89695632D01*
X62513866Y-89622506D01*
X62427879Y-89565051D01*
X62415261Y-89559824D01*
X62684833Y-89290252D01*
X73063880Y-89290252D01*
X73063880Y-89393668D01*
X73084056Y-89495097D01*
X73123631Y-89590641D01*
X73181086Y-89676628D01*
X73228986Y-89724528D01*
X73220629Y-89732884D01*
X73163174Y-89818871D01*
X73123599Y-89914415D01*
X73103423Y-90015844D01*
X73103423Y-90119260D01*
X73123599Y-90220689D01*
X73163174Y-90316233D01*
X73220629Y-90402220D01*
X73293755Y-90475346D01*
X73379742Y-90532801D01*
X73475286Y-90572376D01*
X73576715Y-90592552D01*
X73680131Y-90592552D01*
X73781560Y-90572376D01*
X73877104Y-90532801D01*
X73963091Y-90475346D01*
X74036217Y-90402220D01*
X74093672Y-90316233D01*
X74133247Y-90220689D01*
X74153423Y-90119260D01*
X74153423Y-90015844D01*
X74150052Y-89998897D01*
X75181069Y-89998897D01*
X75181069Y-90102313D01*
X75201245Y-90203742D01*
X75240820Y-90299286D01*
X75298275Y-90385273D01*
X75371401Y-90458399D01*
X75457388Y-90515854D01*
X75552932Y-90555429D01*
X75654361Y-90575605D01*
X75757777Y-90575605D01*
X75859206Y-90555429D01*
X75954750Y-90515854D01*
X76040737Y-90458399D01*
X76113863Y-90385273D01*
X76171318Y-90299286D01*
X76210893Y-90203742D01*
X76231069Y-90102313D01*
X76231069Y-89998897D01*
X76210893Y-89897468D01*
X76171318Y-89801924D01*
X76113863Y-89715937D01*
X76040737Y-89642811D01*
X75954750Y-89585356D01*
X75859206Y-89545781D01*
X75757777Y-89525605D01*
X75654361Y-89525605D01*
X75552932Y-89545781D01*
X75457388Y-89585356D01*
X75371401Y-89642811D01*
X75298275Y-89715937D01*
X75240820Y-89801924D01*
X75201245Y-89897468D01*
X75181069Y-89998897D01*
X74150052Y-89998897D01*
X74133247Y-89914415D01*
X74093672Y-89818871D01*
X74036217Y-89732884D01*
X73988318Y-89684985D01*
X73996674Y-89676628D01*
X74054129Y-89590641D01*
X74093704Y-89495097D01*
X74113880Y-89393668D01*
X74113880Y-89290252D01*
X74093704Y-89188823D01*
X74054129Y-89093279D01*
X74046538Y-89081918D01*
X74092328Y-89051322D01*
X74165454Y-88978196D01*
X74222909Y-88892209D01*
X74244203Y-88840800D01*
X74321308Y-88840800D01*
X74422737Y-88820624D01*
X74518281Y-88781049D01*
X74577595Y-88741417D01*
X74585172Y-88748994D01*
X74671159Y-88806449D01*
X74766703Y-88846024D01*
X74868132Y-88866200D01*
X74971548Y-88866200D01*
X75072977Y-88846024D01*
X75168521Y-88806449D01*
X75254508Y-88748994D01*
X75327634Y-88675868D01*
X75385089Y-88589881D01*
X75424664Y-88494337D01*
X75444840Y-88392908D01*
X75444840Y-88289492D01*
X75424664Y-88188063D01*
X75385089Y-88092519D01*
X75327634Y-88006532D01*
X75254508Y-87933406D01*
X75168521Y-87875951D01*
X75072977Y-87836376D01*
X74971548Y-87816200D01*
X74868132Y-87816200D01*
X74766703Y-87836376D01*
X74671159Y-87875951D01*
X74611845Y-87915583D01*
X74604268Y-87908006D01*
X74518281Y-87850551D01*
X74422737Y-87810976D01*
X74321308Y-87790800D01*
X74217892Y-87790800D01*
X74116463Y-87810976D01*
X74020919Y-87850551D01*
X73934932Y-87908006D01*
X73861806Y-87981132D01*
X73804351Y-88067119D01*
X73783057Y-88118528D01*
X73705952Y-88118528D01*
X73604523Y-88138704D01*
X73508979Y-88178279D01*
X73422992Y-88235734D01*
X73349866Y-88308860D01*
X73292411Y-88394847D01*
X73252836Y-88490391D01*
X73232660Y-88591820D01*
X73232660Y-88695236D01*
X73252836Y-88796665D01*
X73292411Y-88892209D01*
X73300002Y-88903570D01*
X73254212Y-88934166D01*
X73181086Y-89007292D01*
X73123631Y-89093279D01*
X73084056Y-89188823D01*
X73063880Y-89290252D01*
X62684833Y-89290252D01*
X63517953Y-88457132D01*
X71875160Y-88457132D01*
X71875160Y-88560548D01*
X71895336Y-88661977D01*
X71934911Y-88757521D01*
X71992366Y-88843508D01*
X72065492Y-88916634D01*
X72151479Y-88974089D01*
X72247023Y-89013664D01*
X72348452Y-89033840D01*
X72451868Y-89033840D01*
X72553297Y-89013664D01*
X72648841Y-88974089D01*
X72734828Y-88916634D01*
X72807954Y-88843508D01*
X72865409Y-88757521D01*
X72904984Y-88661977D01*
X72925160Y-88560548D01*
X72925160Y-88457132D01*
X72904984Y-88355703D01*
X72865409Y-88260159D01*
X72807954Y-88174172D01*
X72734828Y-88101046D01*
X72648841Y-88043591D01*
X72553297Y-88004016D01*
X72451868Y-87983840D01*
X72348452Y-87983840D01*
X72247023Y-88004016D01*
X72151479Y-88043591D01*
X72065492Y-88101046D01*
X71992366Y-88174172D01*
X71934911Y-88260159D01*
X71895336Y-88355703D01*
X71875160Y-88457132D01*
X63517953Y-88457132D01*
X64527733Y-87447352D01*
X67115200Y-87447352D01*
X67115200Y-87550768D01*
X67135376Y-87652197D01*
X67174951Y-87747741D01*
X67232406Y-87833728D01*
X67305532Y-87906854D01*
X67391519Y-87964309D01*
X67487063Y-88003884D01*
X67588492Y-88024060D01*
X67691908Y-88024060D01*
X67793337Y-88003884D01*
X67888881Y-87964309D01*
X67974868Y-87906854D01*
X68047994Y-87833728D01*
X68105449Y-87747741D01*
X68145024Y-87652197D01*
X68165200Y-87550768D01*
X68165200Y-87447352D01*
X68145024Y-87345923D01*
X68105449Y-87250379D01*
X68047994Y-87164392D01*
X67974868Y-87091266D01*
X67888881Y-87033811D01*
X67793337Y-86994236D01*
X67691908Y-86974060D01*
X67588492Y-86974060D01*
X67487063Y-86994236D01*
X67391519Y-87033811D01*
X67305532Y-87091266D01*
X67232406Y-87164392D01*
X67174951Y-87250379D01*
X67135376Y-87345923D01*
X67115200Y-87447352D01*
X64527733Y-87447352D01*
X65799285Y-86175800D01*
X65954038Y-86175800D01*
X65908532Y-86206206D01*
X65835406Y-86279332D01*
X65777951Y-86365319D01*
X65738376Y-86460863D01*
X65718200Y-86562292D01*
X65718200Y-86665708D01*
X65738376Y-86767137D01*
X65777951Y-86862681D01*
X65835406Y-86948668D01*
X65908532Y-87021794D01*
X65994519Y-87079249D01*
X66090063Y-87118824D01*
X66191492Y-87139000D01*
X66294908Y-87139000D01*
X66396337Y-87118824D01*
X66491881Y-87079249D01*
X66577868Y-87021794D01*
X66650994Y-86948668D01*
X66708449Y-86862681D01*
X66748024Y-86767137D01*
X66753403Y-86740092D01*
X72621920Y-86740092D01*
X72621920Y-86843508D01*
X72642096Y-86944937D01*
X72681671Y-87040481D01*
X72739126Y-87126468D01*
X72812252Y-87199594D01*
X72898239Y-87257049D01*
X72993783Y-87296624D01*
X73095212Y-87316800D01*
X73198628Y-87316800D01*
X73300057Y-87296624D01*
X73395601Y-87257049D01*
X73481588Y-87199594D01*
X73554714Y-87126468D01*
X73612169Y-87040481D01*
X73651744Y-86944937D01*
X73671920Y-86843508D01*
X73671920Y-86740092D01*
X73651744Y-86638663D01*
X73612169Y-86543119D01*
X73554714Y-86457132D01*
X73481588Y-86384006D01*
X73395601Y-86326551D01*
X73300057Y-86286976D01*
X73198628Y-86266800D01*
X73095212Y-86266800D01*
X72993783Y-86286976D01*
X72898239Y-86326551D01*
X72812252Y-86384006D01*
X72739126Y-86457132D01*
X72681671Y-86543119D01*
X72642096Y-86638663D01*
X72621920Y-86740092D01*
X66753403Y-86740092D01*
X66768200Y-86665708D01*
X66768200Y-86562292D01*
X66748024Y-86460863D01*
X66708449Y-86365319D01*
X66650994Y-86279332D01*
X66577868Y-86206206D01*
X66532362Y-86175800D01*
X67564438Y-86175800D01*
X67572232Y-86183594D01*
X67658219Y-86241049D01*
X67753763Y-86280624D01*
X67855192Y-86300800D01*
X67958608Y-86300800D01*
X68060037Y-86280624D01*
X68155581Y-86241049D01*
X68241568Y-86183594D01*
X68314694Y-86110468D01*
X68372149Y-86024481D01*
X68411724Y-85928937D01*
X68422156Y-85876492D01*
X71103000Y-85876492D01*
X71103000Y-85979908D01*
X71123176Y-86081337D01*
X71162751Y-86176881D01*
X71220206Y-86262868D01*
X71293332Y-86335994D01*
X71379319Y-86393449D01*
X71474863Y-86433024D01*
X71576292Y-86453200D01*
X71679708Y-86453200D01*
X71781137Y-86433024D01*
X71876681Y-86393449D01*
X71962668Y-86335994D01*
X72035794Y-86262868D01*
X72093249Y-86176881D01*
X72132824Y-86081337D01*
X72153000Y-85979908D01*
X72153000Y-85876492D01*
X72132824Y-85775063D01*
X72093249Y-85679519D01*
X72035794Y-85593532D01*
X71962668Y-85520406D01*
X71876681Y-85462951D01*
X71781137Y-85423376D01*
X71679708Y-85403200D01*
X71576292Y-85403200D01*
X71474863Y-85423376D01*
X71379319Y-85462951D01*
X71293332Y-85520406D01*
X71220206Y-85593532D01*
X71162751Y-85679519D01*
X71123176Y-85775063D01*
X71103000Y-85876492D01*
X68422156Y-85876492D01*
X68431900Y-85827508D01*
X68431900Y-85724092D01*
X68411724Y-85622663D01*
X68372149Y-85527119D01*
X68314694Y-85441132D01*
X68241568Y-85368006D01*
X68155581Y-85310551D01*
X68060037Y-85270976D01*
X67958608Y-85250800D01*
X67855192Y-85250800D01*
X67753763Y-85270976D01*
X67658219Y-85310551D01*
X67572232Y-85368006D01*
X67564438Y-85375800D01*
X65653235Y-85375800D01*
X65633599Y-85373866D01*
X65613963Y-85375800D01*
X65613953Y-85375800D01*
X65555186Y-85381588D01*
X65479786Y-85404460D01*
X65410297Y-85441603D01*
X65349389Y-85491589D01*
X65336863Y-85506852D01*
X63833960Y-87009755D01*
X63833960Y-85860205D01*
X63999440Y-85694725D01*
X63999440Y-85702140D01*
X64001361Y-85721649D01*
X64007052Y-85740408D01*
X64016293Y-85757697D01*
X64028729Y-85772851D01*
X64043883Y-85785287D01*
X64061172Y-85794528D01*
X64079931Y-85800219D01*
X64099440Y-85802140D01*
X64594740Y-85802140D01*
X64614249Y-85800219D01*
X64633008Y-85794528D01*
X64650297Y-85785287D01*
X64665451Y-85772851D01*
X64677887Y-85757697D01*
X64687128Y-85740408D01*
X64692819Y-85721649D01*
X64694740Y-85702140D01*
X64694740Y-85257640D01*
X64692819Y-85238131D01*
X64687128Y-85219372D01*
X64677887Y-85202083D01*
X64665451Y-85186929D01*
X64650297Y-85174493D01*
X64633008Y-85165252D01*
X64614249Y-85159561D01*
X64594740Y-85157640D01*
X64536525Y-85157640D01*
X65221540Y-84472625D01*
X65245221Y-84488449D01*
X65340765Y-84528024D01*
X65442194Y-84548200D01*
X65545610Y-84548200D01*
X65647039Y-84528024D01*
X65742583Y-84488449D01*
X65828570Y-84430994D01*
X65901696Y-84357868D01*
X65959151Y-84271881D01*
X65967844Y-84250892D01*
X73973200Y-84250892D01*
X73973200Y-84354308D01*
X73993376Y-84455737D01*
X74032951Y-84551281D01*
X74090406Y-84637268D01*
X74163532Y-84710394D01*
X74249519Y-84767849D01*
X74345063Y-84807424D01*
X74446492Y-84827600D01*
X74549908Y-84827600D01*
X74651337Y-84807424D01*
X74746881Y-84767849D01*
X74832868Y-84710394D01*
X74905994Y-84637268D01*
X74963449Y-84551281D01*
X75003024Y-84455737D01*
X75023200Y-84354308D01*
X75023200Y-84250892D01*
X75003024Y-84149463D01*
X74963449Y-84053919D01*
X74905994Y-83967932D01*
X74832868Y-83894806D01*
X74746881Y-83837351D01*
X74651337Y-83797776D01*
X74549908Y-83777600D01*
X74446492Y-83777600D01*
X74345063Y-83797776D01*
X74249519Y-83837351D01*
X74163532Y-83894806D01*
X74090406Y-83967932D01*
X74032951Y-84053919D01*
X73993376Y-84149463D01*
X73973200Y-84250892D01*
X65967844Y-84250892D01*
X65998726Y-84176337D01*
X66018902Y-84074908D01*
X66018902Y-83971492D01*
X65998726Y-83870063D01*
X65959151Y-83774519D01*
X65901696Y-83688532D01*
X65828570Y-83615406D01*
X65742583Y-83557951D01*
X65647039Y-83518376D01*
X65545610Y-83498200D01*
X65442194Y-83498200D01*
X65340765Y-83518376D01*
X65335344Y-83520621D01*
X65367073Y-83488892D01*
X71120810Y-83488892D01*
X71120810Y-83592308D01*
X71140986Y-83693737D01*
X71180561Y-83789281D01*
X71238016Y-83875268D01*
X71311142Y-83948394D01*
X71397129Y-84005849D01*
X71492673Y-84045424D01*
X71594102Y-84065600D01*
X71697518Y-84065600D01*
X71798947Y-84045424D01*
X71894491Y-84005849D01*
X71980478Y-83948394D01*
X72053604Y-83875268D01*
X72111059Y-83789281D01*
X72150634Y-83693737D01*
X72170810Y-83592308D01*
X72170810Y-83488892D01*
X72150634Y-83387463D01*
X72111059Y-83291919D01*
X72053604Y-83205932D01*
X71980478Y-83132806D01*
X71894491Y-83075351D01*
X71798947Y-83035776D01*
X71697518Y-83015600D01*
X71594102Y-83015600D01*
X71492673Y-83035776D01*
X71397129Y-83075351D01*
X71311142Y-83132806D01*
X71238016Y-83205932D01*
X71180561Y-83291919D01*
X71140986Y-83387463D01*
X71120810Y-83488892D01*
X65367073Y-83488892D01*
X66667966Y-82188000D01*
X66942138Y-82188000D01*
X66949932Y-82195794D01*
G37*
X66949932Y-82195794D02*
X67035919Y-82253249D01*
X67131463Y-82292824D01*
X67232892Y-82313000D01*
X67336308Y-82313000D01*
X67437737Y-82292824D01*
X67533281Y-82253249D01*
X67619268Y-82195794D01*
X67627062Y-82188000D01*
X75145315Y-82188000D01*
X76005200Y-83047886D01*
X76005200Y-83058908D01*
X76025376Y-83160337D01*
X76064951Y-83255881D01*
X76122406Y-83341868D01*
X76130201Y-83349663D01*
X76130200Y-83984399D01*
X76046863Y-84000976D01*
X75951319Y-84040551D01*
X75865332Y-84098006D01*
X75792206Y-84171132D01*
X75734751Y-84257119D01*
X75695176Y-84352663D01*
X75675000Y-84454092D01*
X75675000Y-84557508D01*
X75695176Y-84658937D01*
X75734751Y-84754481D01*
X75792206Y-84840468D01*
X75865332Y-84913594D01*
X75951319Y-84971049D01*
X76046863Y-85010624D01*
X76148292Y-85030800D01*
X76251708Y-85030800D01*
X76353137Y-85010624D01*
X76448681Y-84971049D01*
X76534668Y-84913594D01*
X76607794Y-84840468D01*
X76665249Y-84754481D01*
X76704824Y-84658937D01*
X76725000Y-84557508D01*
X76725000Y-84546486D01*
X76799154Y-84472332D01*
X76814411Y-84459811D01*
X76828209Y-84442999D01*
X76864396Y-84398904D01*
X76864397Y-84398903D01*
X76901540Y-84329414D01*
X76924412Y-84254014D01*
X76930200Y-84195247D01*
X76930200Y-84195237D01*
X76932134Y-84175601D01*
X76930200Y-84155965D01*
X76930200Y-83349662D01*
X76937994Y-83341868D01*
X76956815Y-83313700D01*
X78478956Y-84835841D01*
X78469000Y-84885892D01*
X78469000Y-84989308D01*
X78489176Y-85090737D01*
X78528751Y-85186281D01*
X78586206Y-85272268D01*
X78659332Y-85345394D01*
X78745319Y-85402849D01*
X78840863Y-85442424D01*
X78942292Y-85462600D01*
X78953315Y-85462600D01*
X79559200Y-86068486D01*
X79559201Y-87188438D01*
X79528794Y-87142932D01*
X79455668Y-87069806D01*
X79369681Y-87012351D01*
X79274137Y-86972776D01*
X79172708Y-86952600D01*
X79069292Y-86952600D01*
X78967863Y-86972776D01*
X78872319Y-87012351D01*
X78786332Y-87069806D01*
X78713206Y-87142932D01*
X78655751Y-87228919D01*
X78616176Y-87324463D01*
X78596000Y-87425892D01*
X78596000Y-87529308D01*
X78616176Y-87630737D01*
X78655751Y-87726281D01*
X78713206Y-87812268D01*
X78721000Y-87820062D01*
X78721001Y-89545824D01*
X78719065Y-89565480D01*
X78726788Y-89643893D01*
X78740386Y-89688720D01*
X78028127Y-89688720D01*
X78008480Y-89686785D01*
X77930066Y-89694508D01*
X77854666Y-89717380D01*
X77785177Y-89754523D01*
X77739529Y-89791985D01*
X77739527Y-89791987D01*
X77724269Y-89804509D01*
X77711747Y-89819767D01*
X77099452Y-90432063D01*
X77084189Y-90444589D01*
X77034203Y-90505498D01*
X76997060Y-90574987D01*
X76981424Y-90626532D01*
X76974188Y-90650387D01*
X76966465Y-90728800D01*
X76968400Y-90748447D01*
X76968401Y-92474444D01*
X76966465Y-92494100D01*
X76974188Y-92572513D01*
X76997061Y-92647914D01*
X77034203Y-92717402D01*
X77071665Y-92763050D01*
X77071668Y-92763053D01*
X77084190Y-92778311D01*
X77099448Y-92790833D01*
X77720520Y-93411905D01*
X77720520Y-93477080D01*
X77722441Y-93496589D01*
X77728132Y-93515348D01*
X77737373Y-93532637D01*
X77749809Y-93547791D01*
X77764963Y-93560227D01*
X77782252Y-93569468D01*
X77801011Y-93575159D01*
X77820520Y-93577080D01*
X77885695Y-93577080D01*
X78303563Y-93994948D01*
X78316089Y-94010211D01*
X78376997Y-94060197D01*
X78446486Y-94097340D01*
X78521886Y-94120212D01*
X78562108Y-94124173D01*
X78547882Y-94195691D01*
X78547882Y-94299107D01*
X78568058Y-94400536D01*
X78607633Y-94496080D01*
X78665088Y-94582067D01*
X78738214Y-94655193D01*
X78824201Y-94712648D01*
X78919631Y-94752176D01*
X78919631Y-95305331D01*
X78855037Y-95278576D01*
X78753608Y-95258400D01*
X78650192Y-95258400D01*
X78548763Y-95278576D01*
X78453219Y-95318151D01*
X78367232Y-95375606D01*
X78294106Y-95448732D01*
X78236651Y-95534719D01*
X78197076Y-95630263D01*
X78176900Y-95731692D01*
X78176900Y-95798199D01*
X76962167Y-95798199D01*
X76941300Y-95796144D01*
X76920433Y-95798199D01*
X76920427Y-95798199D01*
X76866399Y-95803520D01*
X76857986Y-95804349D01*
X76850609Y-95806587D01*
X76777874Y-95828651D01*
X76704041Y-95868115D01*
X76639327Y-95921225D01*
X76626022Y-95937437D01*
X75523580Y-97039880D01*
X72857385Y-97039880D01*
X72882124Y-96980153D01*
X72902300Y-96878724D01*
X72902300Y-96775308D01*
X72882124Y-96673879D01*
X72842549Y-96578335D01*
X72785094Y-96492348D01*
X72711968Y-96419222D01*
X72625981Y-96361767D01*
X72530437Y-96322192D01*
X72429008Y-96302016D01*
X72325592Y-96302016D01*
X72224163Y-96322192D01*
X72128619Y-96361767D01*
X72042632Y-96419222D01*
X71969506Y-96492348D01*
X71912051Y-96578335D01*
X71872476Y-96673879D01*
X71852300Y-96775308D01*
X71852300Y-96878724D01*
X71872476Y-96980153D01*
X71897215Y-97039880D01*
X71511184Y-97039880D01*
X71535925Y-96980149D01*
X71556101Y-96878720D01*
X71556101Y-96775304D01*
X71535925Y-96673875D01*
X71496350Y-96578331D01*
X71438895Y-96492344D01*
X71365769Y-96419218D01*
X71279782Y-96361763D01*
X71184238Y-96322188D01*
X71082809Y-96302012D01*
X70979393Y-96302012D01*
X70877964Y-96322188D01*
X70782420Y-96361763D01*
X70696433Y-96419218D01*
X70623307Y-96492344D01*
X70565852Y-96578331D01*
X70526277Y-96673875D01*
X70506101Y-96775304D01*
X70506101Y-96878720D01*
X70526277Y-96980149D01*
X70565852Y-97075693D01*
X70606101Y-97135930D01*
X70606101Y-97223034D01*
X70604046Y-97243901D01*
X70606101Y-97264768D01*
X70606101Y-97264775D01*
X70608319Y-97287289D01*
X70612251Y-97327215D01*
X70633509Y-97397290D01*
X70636554Y-97407328D01*
X70676018Y-97481161D01*
X70696496Y-97506113D01*
X70705431Y-97517000D01*
X65709115Y-97517000D01*
X65689479Y-97515066D01*
X65669843Y-97517000D01*
X65669833Y-97517000D01*
X65611066Y-97522788D01*
X65535666Y-97545660D01*
X65466177Y-97582803D01*
X65466175Y-97582804D01*
X65466176Y-97582804D01*
X65420529Y-97620265D01*
X65420527Y-97620267D01*
X65405269Y-97632789D01*
X65392747Y-97648047D01*
X64797355Y-98243440D01*
X63323066Y-98243440D01*
X63331724Y-98222537D01*
X63351900Y-98121108D01*
X63351900Y-98017692D01*
X63331724Y-97916263D01*
X63292149Y-97820719D01*
X63234694Y-97734732D01*
X63161568Y-97661606D01*
X63075581Y-97604151D01*
X62980037Y-97564576D01*
X62878608Y-97544400D01*
X62775192Y-97544400D01*
X62680800Y-97563176D01*
X62680800Y-97316757D01*
X62711863Y-97329624D01*
X62813292Y-97349800D01*
X62916708Y-97349800D01*
X63018137Y-97329624D01*
X63113681Y-97290049D01*
X63199668Y-97232594D01*
X63272794Y-97159468D01*
X63330249Y-97073481D01*
X63369824Y-96977937D01*
X63390000Y-96876508D01*
X63390000Y-96773092D01*
X63372043Y-96682817D01*
X64315607Y-96682817D01*
X64315607Y-96786233D01*
X64335783Y-96887662D01*
X64375358Y-96983206D01*
X64432813Y-97069193D01*
X64505939Y-97142319D01*
X64591926Y-97199774D01*
X64687470Y-97239349D01*
X64788899Y-97259525D01*
X64892315Y-97259525D01*
X64993744Y-97239349D01*
X65068619Y-97208335D01*
X65097797Y-97237513D01*
X65183784Y-97294968D01*
X65279328Y-97334543D01*
X65380757Y-97354719D01*
X65484173Y-97354719D01*
X65585602Y-97334543D01*
X65681146Y-97294968D01*
X65767133Y-97237513D01*
X65840259Y-97164387D01*
X65897714Y-97078400D01*
X65937289Y-96982856D01*
X65957465Y-96881427D01*
X65957465Y-96778011D01*
X65937289Y-96676582D01*
X65897714Y-96581038D01*
X65840259Y-96495051D01*
X65767133Y-96421925D01*
X65681146Y-96364470D01*
X65585602Y-96324895D01*
X65484173Y-96304719D01*
X65380757Y-96304719D01*
X65279328Y-96324895D01*
X65204453Y-96355909D01*
X65175275Y-96326731D01*
X65089288Y-96269276D01*
X64993744Y-96229701D01*
X64892315Y-96209525D01*
X64788899Y-96209525D01*
X64687470Y-96229701D01*
X64591926Y-96269276D01*
X64505939Y-96326731D01*
X64432813Y-96399857D01*
X64375358Y-96485844D01*
X64335783Y-96581388D01*
X64315607Y-96682817D01*
X63372043Y-96682817D01*
X63369824Y-96671663D01*
X63330249Y-96576119D01*
X63272794Y-96490132D01*
X63199668Y-96417006D01*
X63113681Y-96359551D01*
X63018137Y-96319976D01*
X62916708Y-96299800D01*
X62813292Y-96299800D01*
X62711863Y-96319976D01*
X62680800Y-96332843D01*
X62680800Y-95904647D01*
X62682735Y-95885000D01*
X62675012Y-95806586D01*
X62652140Y-95731186D01*
X62614997Y-95661697D01*
X62594574Y-95636812D01*
X62565011Y-95600789D01*
X62549749Y-95588264D01*
X62354199Y-95392714D01*
X62354199Y-95360848D01*
X64631080Y-95360848D01*
X64631080Y-95464264D01*
X64651256Y-95565693D01*
X64690831Y-95661237D01*
X64748286Y-95747224D01*
X64821412Y-95820350D01*
X64907399Y-95877805D01*
X65002943Y-95917380D01*
X65104372Y-95937556D01*
X65207788Y-95937556D01*
X65309217Y-95917380D01*
X65404761Y-95877805D01*
X65490748Y-95820350D01*
X65563874Y-95747224D01*
X65621329Y-95661237D01*
X65660904Y-95565693D01*
X65681080Y-95464264D01*
X65681080Y-95360848D01*
X65660904Y-95259419D01*
X65621329Y-95163875D01*
X65563874Y-95077888D01*
X65490748Y-95004762D01*
X65404761Y-94947307D01*
X65309217Y-94907732D01*
X65207788Y-94887556D01*
X65104372Y-94887556D01*
X65002943Y-94907732D01*
X64907399Y-94947307D01*
X64821412Y-95004762D01*
X64748286Y-95077888D01*
X64690831Y-95163875D01*
X64651256Y-95259419D01*
X64631080Y-95360848D01*
X62354199Y-95360848D01*
X62354199Y-94817140D01*
X62444992Y-94835200D01*
X62548408Y-94835200D01*
X62649837Y-94815024D01*
X62745381Y-94775449D01*
X62831368Y-94717994D01*
X62904494Y-94644868D01*
X62961949Y-94558881D01*
X63001524Y-94463337D01*
X63021700Y-94361908D01*
X63021700Y-94258492D01*
X63014003Y-94219797D01*
X64717569Y-94219797D01*
X64717569Y-94323213D01*
X64737745Y-94424642D01*
X64777320Y-94520186D01*
X64834775Y-94606173D01*
X64907901Y-94679299D01*
X64993888Y-94736754D01*
X65089432Y-94776329D01*
X65190861Y-94796505D01*
X65294277Y-94796505D01*
X65395706Y-94776329D01*
X65491250Y-94736754D01*
X65577237Y-94679299D01*
X65650363Y-94606173D01*
X65707818Y-94520186D01*
X65747393Y-94424642D01*
X65767569Y-94323213D01*
X65767569Y-94219797D01*
X65747393Y-94118368D01*
X65707818Y-94022824D01*
X65650363Y-93936837D01*
X65577237Y-93863711D01*
X65491250Y-93806256D01*
X65395706Y-93766681D01*
X65294277Y-93746505D01*
X65190861Y-93746505D01*
X65089432Y-93766681D01*
X64993888Y-93806256D01*
X64907901Y-93863711D01*
X64834775Y-93936837D01*
X64777320Y-94022824D01*
X64737745Y-94118368D01*
X64717569Y-94219797D01*
X63014003Y-94219797D01*
X63001524Y-94157063D01*
X62961949Y-94061519D01*
X62904494Y-93975532D01*
X62831368Y-93902406D01*
X62745381Y-93844951D01*
X62649837Y-93805376D01*
X62548408Y-93785200D01*
X62444992Y-93785200D01*
X62354199Y-93803260D01*
X62354199Y-91322252D01*
X64605680Y-91322252D01*
X64605680Y-91425668D01*
X64625856Y-91527097D01*
X64665431Y-91622641D01*
X64722886Y-91708628D01*
X64796012Y-91781754D01*
X64881999Y-91839209D01*
X64977543Y-91878784D01*
X65078972Y-91898960D01*
X65182388Y-91898960D01*
X65283817Y-91878784D01*
X65379361Y-91839209D01*
X65465348Y-91781754D01*
X65492110Y-91754992D01*
X65535908Y-91784257D01*
X65631452Y-91823832D01*
X65732881Y-91844008D01*
X65836297Y-91844008D01*
X65937726Y-91823832D01*
X66033270Y-91784257D01*
X66119257Y-91726802D01*
X66192383Y-91653676D01*
X66249838Y-91567689D01*
X66289413Y-91472145D01*
X66309589Y-91370716D01*
X66309589Y-91267300D01*
X66289413Y-91165871D01*
X66249838Y-91070327D01*
X66192383Y-90984340D01*
X66119257Y-90911214D01*
X66033270Y-90853759D01*
X65937726Y-90814184D01*
X65836297Y-90794008D01*
X65732881Y-90794008D01*
X65631452Y-90814184D01*
X65535908Y-90853759D01*
X65449921Y-90911214D01*
X65423159Y-90937976D01*
X65379361Y-90908711D01*
X65283817Y-90869136D01*
X65182388Y-90848960D01*
X65078972Y-90848960D01*
X64977543Y-90869136D01*
X64881999Y-90908711D01*
X64796012Y-90966166D01*
X64722886Y-91039292D01*
X64665431Y-91125279D01*
X64625856Y-91220823D01*
X64605680Y-91322252D01*
X62354199Y-91322252D01*
X62354199Y-90526068D01*
X62427879Y-90495549D01*
X62513866Y-90438094D01*
X62586992Y-90364968D01*
X62644447Y-90278981D01*
X62684022Y-90183437D01*
X62702032Y-90092892D01*
X63051200Y-90092892D01*
X63051200Y-90196308D01*
X63071376Y-90297737D01*
X63110951Y-90393281D01*
X63168406Y-90479268D01*
X63241532Y-90552394D01*
X63327519Y-90609849D01*
X63423063Y-90649424D01*
X63524492Y-90669600D01*
X63627908Y-90669600D01*
X63729337Y-90649424D01*
X63824881Y-90609849D01*
X63910868Y-90552394D01*
X63983994Y-90479268D01*
X64041449Y-90393281D01*
X64081024Y-90297737D01*
X64101200Y-90196308D01*
X64101200Y-90171243D01*
X65259589Y-90171243D01*
X65259589Y-90274659D01*
X65279765Y-90376088D01*
X65319340Y-90471632D01*
X65376795Y-90557619D01*
X65449921Y-90630745D01*
X65535908Y-90688200D01*
X65631452Y-90727775D01*
X65732881Y-90747951D01*
X65836297Y-90747951D01*
X65937726Y-90727775D01*
X66033270Y-90688200D01*
X66119257Y-90630745D01*
X66192383Y-90557619D01*
X66249838Y-90471632D01*
X66289413Y-90376088D01*
X66309589Y-90274659D01*
X66309589Y-90171243D01*
X66289413Y-90069814D01*
X66287530Y-90065266D01*
X71387480Y-90065266D01*
X71387480Y-90168682D01*
X71407656Y-90270111D01*
X71447231Y-90365655D01*
X71504686Y-90451642D01*
X71577812Y-90524768D01*
X71663799Y-90582223D01*
X71759343Y-90621798D01*
X71860772Y-90641974D01*
X71964188Y-90641974D01*
X72065617Y-90621798D01*
X72161161Y-90582223D01*
X72247148Y-90524768D01*
X72320274Y-90451642D01*
X72377729Y-90365655D01*
X72417304Y-90270111D01*
X72437480Y-90168682D01*
X72437480Y-90065266D01*
X72417304Y-89963837D01*
X72377729Y-89868293D01*
X72320274Y-89782306D01*
X72247148Y-89709180D01*
X72161161Y-89651725D01*
X72065617Y-89612150D01*
X71964188Y-89591974D01*
X71860772Y-89591974D01*
X71759343Y-89612150D01*
X71663799Y-89651725D01*
X71577812Y-89709180D01*
X71504686Y-89782306D01*
X71447231Y-89868293D01*
X71407656Y-89963837D01*
X71387480Y-90065266D01*
X66287530Y-90065266D01*
X66249838Y-89974270D01*
X66192383Y-89888283D01*
X66119257Y-89815157D01*
X66033270Y-89757702D01*
X65937726Y-89718127D01*
X65836297Y-89697951D01*
X65732881Y-89697951D01*
X65631452Y-89718127D01*
X65535908Y-89757702D01*
X65449921Y-89815157D01*
X65376795Y-89888283D01*
X65319340Y-89974270D01*
X65279765Y-90069814D01*
X65259589Y-90171243D01*
X64101200Y-90171243D01*
X64101200Y-90092892D01*
X64081024Y-89991463D01*
X64041449Y-89895919D01*
X63983994Y-89809932D01*
X63910868Y-89736806D01*
X63824881Y-89679351D01*
X63729337Y-89639776D01*
X63627908Y-89619600D01*
X63524492Y-89619600D01*
X63423063Y-89639776D01*
X63327519Y-89679351D01*
X63241532Y-89736806D01*
X63168406Y-89809932D01*
X63110951Y-89895919D01*
X63071376Y-89991463D01*
X63051200Y-90092892D01*
X62702032Y-90092892D01*
X62704198Y-90082008D01*
X62704198Y-89978592D01*
X62684022Y-89877163D01*
X62644447Y-89781619D01*
X62586992Y-89695632D01*
X62513866Y-89622506D01*
X62427879Y-89565051D01*
X62415261Y-89559824D01*
X62684833Y-89290252D01*
X73063880Y-89290252D01*
X73063880Y-89393668D01*
X73084056Y-89495097D01*
X73123631Y-89590641D01*
X73181086Y-89676628D01*
X73228986Y-89724528D01*
X73220629Y-89732884D01*
X73163174Y-89818871D01*
X73123599Y-89914415D01*
X73103423Y-90015844D01*
X73103423Y-90119260D01*
X73123599Y-90220689D01*
X73163174Y-90316233D01*
X73220629Y-90402220D01*
X73293755Y-90475346D01*
X73379742Y-90532801D01*
X73475286Y-90572376D01*
X73576715Y-90592552D01*
X73680131Y-90592552D01*
X73781560Y-90572376D01*
X73877104Y-90532801D01*
X73963091Y-90475346D01*
X74036217Y-90402220D01*
X74093672Y-90316233D01*
X74133247Y-90220689D01*
X74153423Y-90119260D01*
X74153423Y-90015844D01*
X74150052Y-89998897D01*
X75181069Y-89998897D01*
X75181069Y-90102313D01*
X75201245Y-90203742D01*
X75240820Y-90299286D01*
X75298275Y-90385273D01*
X75371401Y-90458399D01*
X75457388Y-90515854D01*
X75552932Y-90555429D01*
X75654361Y-90575605D01*
X75757777Y-90575605D01*
X75859206Y-90555429D01*
X75954750Y-90515854D01*
X76040737Y-90458399D01*
X76113863Y-90385273D01*
X76171318Y-90299286D01*
X76210893Y-90203742D01*
X76231069Y-90102313D01*
X76231069Y-89998897D01*
X76210893Y-89897468D01*
X76171318Y-89801924D01*
X76113863Y-89715937D01*
X76040737Y-89642811D01*
X75954750Y-89585356D01*
X75859206Y-89545781D01*
X75757777Y-89525605D01*
X75654361Y-89525605D01*
X75552932Y-89545781D01*
X75457388Y-89585356D01*
X75371401Y-89642811D01*
X75298275Y-89715937D01*
X75240820Y-89801924D01*
X75201245Y-89897468D01*
X75181069Y-89998897D01*
X74150052Y-89998897D01*
X74133247Y-89914415D01*
X74093672Y-89818871D01*
X74036217Y-89732884D01*
X73988318Y-89684985D01*
X73996674Y-89676628D01*
X74054129Y-89590641D01*
X74093704Y-89495097D01*
X74113880Y-89393668D01*
X74113880Y-89290252D01*
X74093704Y-89188823D01*
X74054129Y-89093279D01*
X74046538Y-89081918D01*
X74092328Y-89051322D01*
X74165454Y-88978196D01*
X74222909Y-88892209D01*
X74244203Y-88840800D01*
X74321308Y-88840800D01*
X74422737Y-88820624D01*
X74518281Y-88781049D01*
X74577595Y-88741417D01*
X74585172Y-88748994D01*
X74671159Y-88806449D01*
X74766703Y-88846024D01*
X74868132Y-88866200D01*
X74971548Y-88866200D01*
X75072977Y-88846024D01*
X75168521Y-88806449D01*
X75254508Y-88748994D01*
X75327634Y-88675868D01*
X75385089Y-88589881D01*
X75424664Y-88494337D01*
X75444840Y-88392908D01*
X75444840Y-88289492D01*
X75424664Y-88188063D01*
X75385089Y-88092519D01*
X75327634Y-88006532D01*
X75254508Y-87933406D01*
X75168521Y-87875951D01*
X75072977Y-87836376D01*
X74971548Y-87816200D01*
X74868132Y-87816200D01*
X74766703Y-87836376D01*
X74671159Y-87875951D01*
X74611845Y-87915583D01*
X74604268Y-87908006D01*
X74518281Y-87850551D01*
X74422737Y-87810976D01*
X74321308Y-87790800D01*
X74217892Y-87790800D01*
X74116463Y-87810976D01*
X74020919Y-87850551D01*
X73934932Y-87908006D01*
X73861806Y-87981132D01*
X73804351Y-88067119D01*
X73783057Y-88118528D01*
X73705952Y-88118528D01*
X73604523Y-88138704D01*
X73508979Y-88178279D01*
X73422992Y-88235734D01*
X73349866Y-88308860D01*
X73292411Y-88394847D01*
X73252836Y-88490391D01*
X73232660Y-88591820D01*
X73232660Y-88695236D01*
X73252836Y-88796665D01*
X73292411Y-88892209D01*
X73300002Y-88903570D01*
X73254212Y-88934166D01*
X73181086Y-89007292D01*
X73123631Y-89093279D01*
X73084056Y-89188823D01*
X73063880Y-89290252D01*
X62684833Y-89290252D01*
X63517953Y-88457132D01*
X71875160Y-88457132D01*
X71875160Y-88560548D01*
X71895336Y-88661977D01*
X71934911Y-88757521D01*
X71992366Y-88843508D01*
X72065492Y-88916634D01*
X72151479Y-88974089D01*
X72247023Y-89013664D01*
X72348452Y-89033840D01*
X72451868Y-89033840D01*
X72553297Y-89013664D01*
X72648841Y-88974089D01*
X72734828Y-88916634D01*
X72807954Y-88843508D01*
X72865409Y-88757521D01*
X72904984Y-88661977D01*
X72925160Y-88560548D01*
X72925160Y-88457132D01*
X72904984Y-88355703D01*
X72865409Y-88260159D01*
X72807954Y-88174172D01*
X72734828Y-88101046D01*
X72648841Y-88043591D01*
X72553297Y-88004016D01*
X72451868Y-87983840D01*
X72348452Y-87983840D01*
X72247023Y-88004016D01*
X72151479Y-88043591D01*
X72065492Y-88101046D01*
X71992366Y-88174172D01*
X71934911Y-88260159D01*
X71895336Y-88355703D01*
X71875160Y-88457132D01*
X63517953Y-88457132D01*
X64527733Y-87447352D01*
X67115200Y-87447352D01*
X67115200Y-87550768D01*
X67135376Y-87652197D01*
X67174951Y-87747741D01*
X67232406Y-87833728D01*
X67305532Y-87906854D01*
X67391519Y-87964309D01*
X67487063Y-88003884D01*
X67588492Y-88024060D01*
X67691908Y-88024060D01*
X67793337Y-88003884D01*
X67888881Y-87964309D01*
X67974868Y-87906854D01*
X68047994Y-87833728D01*
X68105449Y-87747741D01*
X68145024Y-87652197D01*
X68165200Y-87550768D01*
X68165200Y-87447352D01*
X68145024Y-87345923D01*
X68105449Y-87250379D01*
X68047994Y-87164392D01*
X67974868Y-87091266D01*
X67888881Y-87033811D01*
X67793337Y-86994236D01*
X67691908Y-86974060D01*
X67588492Y-86974060D01*
X67487063Y-86994236D01*
X67391519Y-87033811D01*
X67305532Y-87091266D01*
X67232406Y-87164392D01*
X67174951Y-87250379D01*
X67135376Y-87345923D01*
X67115200Y-87447352D01*
X64527733Y-87447352D01*
X65799285Y-86175800D01*
X65954038Y-86175800D01*
X65908532Y-86206206D01*
X65835406Y-86279332D01*
X65777951Y-86365319D01*
X65738376Y-86460863D01*
X65718200Y-86562292D01*
X65718200Y-86665708D01*
X65738376Y-86767137D01*
X65777951Y-86862681D01*
X65835406Y-86948668D01*
X65908532Y-87021794D01*
X65994519Y-87079249D01*
X66090063Y-87118824D01*
X66191492Y-87139000D01*
X66294908Y-87139000D01*
X66396337Y-87118824D01*
X66491881Y-87079249D01*
X66577868Y-87021794D01*
X66650994Y-86948668D01*
X66708449Y-86862681D01*
X66748024Y-86767137D01*
X66753403Y-86740092D01*
X72621920Y-86740092D01*
X72621920Y-86843508D01*
X72642096Y-86944937D01*
X72681671Y-87040481D01*
X72739126Y-87126468D01*
X72812252Y-87199594D01*
X72898239Y-87257049D01*
X72993783Y-87296624D01*
X73095212Y-87316800D01*
X73198628Y-87316800D01*
X73300057Y-87296624D01*
X73395601Y-87257049D01*
X73481588Y-87199594D01*
X73554714Y-87126468D01*
X73612169Y-87040481D01*
X73651744Y-86944937D01*
X73671920Y-86843508D01*
X73671920Y-86740092D01*
X73651744Y-86638663D01*
X73612169Y-86543119D01*
X73554714Y-86457132D01*
X73481588Y-86384006D01*
X73395601Y-86326551D01*
X73300057Y-86286976D01*
X73198628Y-86266800D01*
X73095212Y-86266800D01*
X72993783Y-86286976D01*
X72898239Y-86326551D01*
X72812252Y-86384006D01*
X72739126Y-86457132D01*
X72681671Y-86543119D01*
X72642096Y-86638663D01*
X72621920Y-86740092D01*
X66753403Y-86740092D01*
X66768200Y-86665708D01*
X66768200Y-86562292D01*
X66748024Y-86460863D01*
X66708449Y-86365319D01*
X66650994Y-86279332D01*
X66577868Y-86206206D01*
X66532362Y-86175800D01*
X67564438Y-86175800D01*
X67572232Y-86183594D01*
X67658219Y-86241049D01*
X67753763Y-86280624D01*
X67855192Y-86300800D01*
X67958608Y-86300800D01*
X68060037Y-86280624D01*
X68155581Y-86241049D01*
X68241568Y-86183594D01*
X68314694Y-86110468D01*
X68372149Y-86024481D01*
X68411724Y-85928937D01*
X68422156Y-85876492D01*
X71103000Y-85876492D01*
X71103000Y-85979908D01*
X71123176Y-86081337D01*
X71162751Y-86176881D01*
X71220206Y-86262868D01*
X71293332Y-86335994D01*
X71379319Y-86393449D01*
X71474863Y-86433024D01*
X71576292Y-86453200D01*
X71679708Y-86453200D01*
X71781137Y-86433024D01*
X71876681Y-86393449D01*
X71962668Y-86335994D01*
X72035794Y-86262868D01*
X72093249Y-86176881D01*
X72132824Y-86081337D01*
X72153000Y-85979908D01*
X72153000Y-85876492D01*
X72132824Y-85775063D01*
X72093249Y-85679519D01*
X72035794Y-85593532D01*
X71962668Y-85520406D01*
X71876681Y-85462951D01*
X71781137Y-85423376D01*
X71679708Y-85403200D01*
X71576292Y-85403200D01*
X71474863Y-85423376D01*
X71379319Y-85462951D01*
X71293332Y-85520406D01*
X71220206Y-85593532D01*
X71162751Y-85679519D01*
X71123176Y-85775063D01*
X71103000Y-85876492D01*
X68422156Y-85876492D01*
X68431900Y-85827508D01*
X68431900Y-85724092D01*
X68411724Y-85622663D01*
X68372149Y-85527119D01*
X68314694Y-85441132D01*
X68241568Y-85368006D01*
X68155581Y-85310551D01*
X68060037Y-85270976D01*
X67958608Y-85250800D01*
X67855192Y-85250800D01*
X67753763Y-85270976D01*
X67658219Y-85310551D01*
X67572232Y-85368006D01*
X67564438Y-85375800D01*
X65653235Y-85375800D01*
X65633599Y-85373866D01*
X65613963Y-85375800D01*
X65613953Y-85375800D01*
X65555186Y-85381588D01*
X65479786Y-85404460D01*
X65410297Y-85441603D01*
X65349389Y-85491589D01*
X65336863Y-85506852D01*
X63833960Y-87009755D01*
X63833960Y-85860205D01*
X63999440Y-85694725D01*
X63999440Y-85702140D01*
X64001361Y-85721649D01*
X64007052Y-85740408D01*
X64016293Y-85757697D01*
X64028729Y-85772851D01*
X64043883Y-85785287D01*
X64061172Y-85794528D01*
X64079931Y-85800219D01*
X64099440Y-85802140D01*
X64594740Y-85802140D01*
X64614249Y-85800219D01*
X64633008Y-85794528D01*
X64650297Y-85785287D01*
X64665451Y-85772851D01*
X64677887Y-85757697D01*
X64687128Y-85740408D01*
X64692819Y-85721649D01*
X64694740Y-85702140D01*
X64694740Y-85257640D01*
X64692819Y-85238131D01*
X64687128Y-85219372D01*
X64677887Y-85202083D01*
X64665451Y-85186929D01*
X64650297Y-85174493D01*
X64633008Y-85165252D01*
X64614249Y-85159561D01*
X64594740Y-85157640D01*
X64536525Y-85157640D01*
X65221540Y-84472625D01*
X65245221Y-84488449D01*
X65340765Y-84528024D01*
X65442194Y-84548200D01*
X65545610Y-84548200D01*
X65647039Y-84528024D01*
X65742583Y-84488449D01*
X65828570Y-84430994D01*
X65901696Y-84357868D01*
X65959151Y-84271881D01*
X65967844Y-84250892D01*
X73973200Y-84250892D01*
X73973200Y-84354308D01*
X73993376Y-84455737D01*
X74032951Y-84551281D01*
X74090406Y-84637268D01*
X74163532Y-84710394D01*
X74249519Y-84767849D01*
X74345063Y-84807424D01*
X74446492Y-84827600D01*
X74549908Y-84827600D01*
X74651337Y-84807424D01*
X74746881Y-84767849D01*
X74832868Y-84710394D01*
X74905994Y-84637268D01*
X74963449Y-84551281D01*
X75003024Y-84455737D01*
X75023200Y-84354308D01*
X75023200Y-84250892D01*
X75003024Y-84149463D01*
X74963449Y-84053919D01*
X74905994Y-83967932D01*
X74832868Y-83894806D01*
X74746881Y-83837351D01*
X74651337Y-83797776D01*
X74549908Y-83777600D01*
X74446492Y-83777600D01*
X74345063Y-83797776D01*
X74249519Y-83837351D01*
X74163532Y-83894806D01*
X74090406Y-83967932D01*
X74032951Y-84053919D01*
X73993376Y-84149463D01*
X73973200Y-84250892D01*
X65967844Y-84250892D01*
X65998726Y-84176337D01*
X66018902Y-84074908D01*
X66018902Y-83971492D01*
X65998726Y-83870063D01*
X65959151Y-83774519D01*
X65901696Y-83688532D01*
X65828570Y-83615406D01*
X65742583Y-83557951D01*
X65647039Y-83518376D01*
X65545610Y-83498200D01*
X65442194Y-83498200D01*
X65340765Y-83518376D01*
X65335344Y-83520621D01*
X65367073Y-83488892D01*
X71120810Y-83488892D01*
X71120810Y-83592308D01*
X71140986Y-83693737D01*
X71180561Y-83789281D01*
X71238016Y-83875268D01*
X71311142Y-83948394D01*
X71397129Y-84005849D01*
X71492673Y-84045424D01*
X71594102Y-84065600D01*
X71697518Y-84065600D01*
X71798947Y-84045424D01*
X71894491Y-84005849D01*
X71980478Y-83948394D01*
X72053604Y-83875268D01*
X72111059Y-83789281D01*
X72150634Y-83693737D01*
X72170810Y-83592308D01*
X72170810Y-83488892D01*
X72150634Y-83387463D01*
X72111059Y-83291919D01*
X72053604Y-83205932D01*
X71980478Y-83132806D01*
X71894491Y-83075351D01*
X71798947Y-83035776D01*
X71697518Y-83015600D01*
X71594102Y-83015600D01*
X71492673Y-83035776D01*
X71397129Y-83075351D01*
X71311142Y-83132806D01*
X71238016Y-83205932D01*
X71180561Y-83291919D01*
X71140986Y-83387463D01*
X71120810Y-83488892D01*
X65367073Y-83488892D01*
X66667966Y-82188000D01*
X66942138Y-82188000D01*
X66949932Y-82195794D01*
%TD*%
M02*
