%TF.GenerationSoftware,KiCad,Pcbnew,(5.1.6)-1*%
%TF.CreationDate,2025-11-30T17:49:07+05:30*%
%TF.ProjectId,Project_OAK_MAIN_BRD_V1.0,50726f6a-6563-4745-9f4f-414b5f4d4149,A*%
%TF.SameCoordinates,Original*%
%TF.FileFunction,Profile,NP*%
%FSLAX46Y46*%
G04 Gerber Fmt 4.6, Leading zero omitted, Abs format (unit mm)*
G04 Created by KiCad (PCBNEW (5.1.6)-1) date 2025-11-30 17:49:07*
%MOMM*%
%LPD*%
G01*
G04 APERTURE LIST*
%TA.AperFunction,Profile*%
%ADD10C,0.050000*%
%TD*%
%TA.AperFunction,Profile*%
%ADD11C,0.150000*%
%TD*%
G04 APERTURE END LIST*
D10*
X53986859Y-100647313D02*
G75*
G03*
X53986859Y-100647313I-850000J0D01*
G01*
X53986859Y-86296686D02*
G75*
G03*
X53986859Y-86296686I-850000J0D01*
G01*
X78484913Y-110794740D02*
G75*
G03*
X78484913Y-110794740I-850000J0D01*
G01*
X64134286Y-110794740D02*
G75*
G03*
X64134286Y-110794740I-850000J0D01*
G01*
X78484913Y-76149259D02*
G75*
G03*
X78484913Y-76149259I-850000J0D01*
G01*
X64134286Y-76149259D02*
G75*
G03*
X64134286Y-76149259I-850000J0D01*
G01*
X88632340Y-86296686D02*
G75*
G03*
X88632340Y-86296686I-850000J0D01*
G01*
X88632340Y-100647313D02*
G75*
G03*
X88632340Y-100647313I-850000J0D01*
G01*
X56198410Y-71073952D02*
X50441440Y-84341762D01*
X56198410Y-71073952D02*
G75*
G02*
X57115775Y-70472000I917365J-398049D01*
G01*
X59709601Y-70472001D02*
X57115775Y-70472000D01*
X59709601Y-70472001D02*
G75*
G02*
X60209601Y-70972001I0J-500000D01*
G01*
X60209601Y-74072001D02*
X60209601Y-70972001D01*
X60709601Y-74572001D02*
G75*
G02*
X60209601Y-74072001I0J500000D01*
G01*
X80209599Y-74572001D02*
X60709601Y-74572001D01*
X80709599Y-74072001D02*
G75*
G02*
X80209599Y-74572001I-500000J0D01*
G01*
X80709599Y-70972001D02*
X80709599Y-74072001D01*
X80709599Y-70972001D02*
G75*
G02*
X81209599Y-70472001I500000J0D01*
G01*
X83803424Y-70472001D02*
X81209599Y-70472001D01*
X83803424Y-70472001D02*
G75*
G02*
X84720788Y-71073952I0J-1000000D01*
G01*
X90477759Y-84341763D02*
X84720788Y-71073952D01*
X90477759Y-84341762D02*
G75*
G02*
X90848627Y-85682916I-4586821J-1990245D01*
G01*
X90848628Y-85682915D02*
G75*
G02*
X90848628Y-101261082I-59492269J-7789086D01*
G01*
X90848627Y-101261082D02*
G75*
G02*
X90477759Y-102602237I-4957689J649090D01*
G01*
X84720788Y-115870048D02*
X90477759Y-102602237D01*
X84720788Y-115870048D02*
G75*
G02*
X83803424Y-116471999I-917364J398049D01*
G01*
X81209599Y-116471999D02*
X83803424Y-116471999D01*
X81209599Y-116471999D02*
G75*
G02*
X80709599Y-115971999I0J500000D01*
G01*
X80709599Y-112871999D02*
X80709599Y-115971999D01*
X80209599Y-112371999D02*
G75*
G02*
X80709599Y-112871999I0J-500000D01*
G01*
X60709601Y-112371999D02*
X80209599Y-112371999D01*
X60209601Y-112871999D02*
G75*
G02*
X60709601Y-112371999I500000J0D01*
G01*
X60209601Y-115971999D02*
X60209601Y-112871999D01*
X60209601Y-115971999D02*
G75*
G02*
X59709601Y-116471999I-500000J0D01*
G01*
X57115774Y-116471999D02*
X59709601Y-116471999D01*
X57115774Y-116471998D02*
G75*
G02*
X56198411Y-115870047I1J999999D01*
G01*
X50441441Y-102602237D02*
X56198411Y-115870047D01*
X50441440Y-102602237D02*
G75*
G02*
X50070572Y-101261083I4586821J1990245D01*
G01*
X50070572Y-101261084D02*
G75*
G02*
X50070572Y-85682917I59492268J7789085D01*
G01*
X50070572Y-85682917D02*
G75*
G02*
X50441440Y-84341762I4957689J-649090D01*
G01*
D11*
X71959600Y-93472000D02*
G75*
G03*
X71959600Y-93472000I-1500000J0D01*
G01*
X68959600Y-91972000D02*
X71959600Y-94972000D01*
X68959600Y-94972000D02*
X71959600Y-91972000D01*
M02*
