%TF.GenerationSoftware,KiCad,Pcbnew,(5.1.6)-1*%
%TF.CreationDate,2025-11-30T17:49:07+05:30*%
%TF.ProjectId,Project_OAK_MAIN_BRD_V1.0,50726f6a-6563-4745-9f4f-414b5f4d4149,A*%
%TF.SameCoordinates,Original*%
%TF.FileFunction,Copper,L4,Bot*%
%TF.FilePolarity,Positive*%
%FSLAX46Y46*%
G04 Gerber Fmt 4.6, Leading zero omitted, Abs format (unit mm)*
G04 Created by KiCad (PCBNEW (5.1.6)-1) date 2025-11-30 17:49:07*
%MOMM*%
%LPD*%
G01*
G04 APERTURE LIST*
%TA.AperFunction,EtchedComponent*%
%ADD10C,0.100000*%
%TD*%
%TA.AperFunction,SMDPad,CuDef*%
%ADD11R,2.600000X5.560000*%
%TD*%
%TA.AperFunction,SMDPad,CuDef*%
%ADD12R,7.800000X5.960000*%
%TD*%
%TA.AperFunction,SMDPad,CuDef*%
%ADD13C,0.100000*%
%TD*%
%TA.AperFunction,SMDPad,CuDef*%
%ADD14R,1.050000X1.400000*%
%TD*%
%TA.AperFunction,SMDPad,CuDef*%
%ADD15C,1.000000*%
%TD*%
%TA.AperFunction,SMDPad,CuDef*%
%ADD16R,1.000000X0.500000*%
%TD*%
%TA.AperFunction,ViaPad*%
%ADD17C,0.450000*%
%TD*%
%TA.AperFunction,Conductor*%
%ADD18C,0.250000*%
%TD*%
%TA.AperFunction,Conductor*%
%ADD19C,0.142000*%
%TD*%
%TA.AperFunction,Conductor*%
%ADD20C,0.200000*%
%TD*%
%TA.AperFunction,Conductor*%
%ADD21C,0.156500*%
%TD*%
G04 APERTURE END LIST*
D10*
%TO.C,JP5*%
G36*
X59329600Y-86973600D02*
G01*
X59329600Y-87473600D01*
X58729600Y-87473600D01*
X58729600Y-86973600D01*
X59329600Y-86973600D01*
G37*
%TD*%
%TO.P,TP8,1*%
%TO.N,/HAP_DRV_POS*%
%TA.AperFunction,SMDPad,CuDef*%
G36*
G01*
X65728500Y-105432400D02*
X65728500Y-105057400D01*
G75*
G02*
X65916000Y-104869900I187500J0D01*
G01*
X66291000Y-104869900D01*
G75*
G02*
X66478500Y-105057400I0J-187500D01*
G01*
X66478500Y-105432400D01*
G75*
G02*
X66291000Y-105619900I-187500J0D01*
G01*
X65916000Y-105619900D01*
G75*
G02*
X65728500Y-105432400I0J187500D01*
G01*
G37*
%TD.AperFunction*%
%TD*%
%TO.P,TP2,1*%
%TO.N,/HAP_DRV_NEG*%
%TA.AperFunction,SMDPad,CuDef*%
G36*
G01*
X65715800Y-104149700D02*
X65715800Y-103774700D01*
G75*
G02*
X65903300Y-103587200I187500J0D01*
G01*
X66278300Y-103587200D01*
G75*
G02*
X66465800Y-103774700I0J-187500D01*
G01*
X66465800Y-104149700D01*
G75*
G02*
X66278300Y-104337200I-187500J0D01*
G01*
X65903300Y-104337200D01*
G75*
G02*
X65715800Y-104149700I0J187500D01*
G01*
G37*
%TD.AperFunction*%
%TD*%
D11*
%TO.P,BT1,S1+*%
%TO.N,+3V0*%
X58554600Y-93472000D03*
%TO.P,BT1,S2+*%
X82364600Y-93472000D03*
D12*
%TO.P,BT1,-*%
%TO.N,GND*%
X70459600Y-93472000D03*
%TD*%
%TA.AperFunction,SMDPad,CuDef*%
D13*
%TO.P,S3,2_2*%
%TO.N,GND*%
G36*
X87357008Y-106574716D02*
G01*
X88319921Y-106993402D01*
X87761672Y-108277286D01*
X86798759Y-107858600D01*
X87357008Y-106574716D01*
G37*
%TD.AperFunction*%
%TA.AperFunction,SMDPad,CuDef*%
%TO.P,S3,2_1*%
G36*
X88792505Y-103273300D02*
G01*
X89755418Y-103691986D01*
X89197169Y-104975870D01*
X88234256Y-104557184D01*
X88792505Y-103273300D01*
G37*
%TD.AperFunction*%
%TA.AperFunction,SMDPad,CuDef*%
%TO.P,S3,1_2*%
%TO.N,/DWN_BTN*%
G36*
X86027271Y-105996530D02*
G01*
X86990184Y-106415216D01*
X86431935Y-107699100D01*
X85469022Y-107280414D01*
X86027271Y-105996530D01*
G37*
%TD.AperFunction*%
%TA.AperFunction,SMDPad,CuDef*%
%TO.P,S3,1_1*%
G36*
X87462768Y-102695114D02*
G01*
X88425681Y-103113800D01*
X87867432Y-104397684D01*
X86904519Y-103978998D01*
X87462768Y-102695114D01*
G37*
%TD.AperFunction*%
%TD*%
D14*
%TO.P,S1,2_2*%
%TO.N,GND*%
X90582580Y-95269460D03*
%TO.P,S1,2_1*%
X90582580Y-91669460D03*
%TO.P,S1,1_2*%
%TO.N,/LGT_ON_BTN*%
X89132580Y-95269460D03*
%TO.P,S1,1_1*%
X89132580Y-91669460D03*
%TD*%
%TA.AperFunction,SMDPad,CuDef*%
D13*
%TO.P,S2,2_2*%
%TO.N,GND*%
G36*
X88234256Y-82384276D02*
G01*
X89197169Y-81965590D01*
X89755418Y-83249474D01*
X88792505Y-83668160D01*
X88234256Y-82384276D01*
G37*
%TD.AperFunction*%
%TA.AperFunction,SMDPad,CuDef*%
%TO.P,S2,2_1*%
G36*
X86798759Y-79082860D02*
G01*
X87761672Y-78664174D01*
X88319921Y-79948058D01*
X87357008Y-80366744D01*
X86798759Y-79082860D01*
G37*
%TD.AperFunction*%
%TA.AperFunction,SMDPad,CuDef*%
%TO.P,S2,1_2*%
%TO.N,/UP_BTN*%
G36*
X86904519Y-82962462D02*
G01*
X87867432Y-82543776D01*
X88425681Y-83827660D01*
X87462768Y-84246346D01*
X86904519Y-82962462D01*
G37*
%TD.AperFunction*%
%TA.AperFunction,SMDPad,CuDef*%
%TO.P,S2,1_1*%
G36*
X85469022Y-79661046D02*
G01*
X86431935Y-79242360D01*
X86990184Y-80526244D01*
X86027271Y-80944930D01*
X85469022Y-79661046D01*
G37*
%TD.AperFunction*%
%TD*%
%TO.P,C1,1*%
%TO.N,/LGT_ON_BTN*%
%TA.AperFunction,SMDPad,CuDef*%
G36*
G01*
X87802500Y-94252000D02*
X87457500Y-94252000D01*
G75*
G02*
X87310000Y-94104500I0J147500D01*
G01*
X87310000Y-93809500D01*
G75*
G02*
X87457500Y-93662000I147500J0D01*
G01*
X87802500Y-93662000D01*
G75*
G02*
X87950000Y-93809500I0J-147500D01*
G01*
X87950000Y-94104500D01*
G75*
G02*
X87802500Y-94252000I-147500J0D01*
G01*
G37*
%TD.AperFunction*%
%TO.P,C1,2*%
%TO.N,GND*%
%TA.AperFunction,SMDPad,CuDef*%
G36*
G01*
X87802500Y-93282000D02*
X87457500Y-93282000D01*
G75*
G02*
X87310000Y-93134500I0J147500D01*
G01*
X87310000Y-92839500D01*
G75*
G02*
X87457500Y-92692000I147500J0D01*
G01*
X87802500Y-92692000D01*
G75*
G02*
X87950000Y-92839500I0J-147500D01*
G01*
X87950000Y-93134500D01*
G75*
G02*
X87802500Y-93282000I-147500J0D01*
G01*
G37*
%TD.AperFunction*%
%TD*%
%TO.P,C2,2*%
%TO.N,GND*%
%TA.AperFunction,SMDPad,CuDef*%
G36*
G01*
X85680431Y-82179975D02*
X85364045Y-82317543D01*
G75*
G02*
X85169964Y-82241092I-58815J135266D01*
G01*
X85052333Y-81970559D01*
G75*
G02*
X85128784Y-81776478I135266J58815D01*
G01*
X85445169Y-81638909D01*
G75*
G02*
X85639250Y-81715360I58815J-135266D01*
G01*
X85756881Y-81985893D01*
G75*
G02*
X85680430Y-82179974I-135266J-58815D01*
G01*
G37*
%TD.AperFunction*%
%TO.P,C2,1*%
%TO.N,/UP_BTN*%
%TA.AperFunction,SMDPad,CuDef*%
G36*
G01*
X86067217Y-83069523D02*
X85750831Y-83207091D01*
G75*
G02*
X85556750Y-83130640I-58815J135266D01*
G01*
X85439119Y-82860107D01*
G75*
G02*
X85515570Y-82666026I135266J58815D01*
G01*
X85831955Y-82528457D01*
G75*
G02*
X86026036Y-82604908I58815J-135266D01*
G01*
X86143667Y-82875441D01*
G75*
G02*
X86067216Y-83069522I-135266J-58815D01*
G01*
G37*
%TD.AperFunction*%
%TD*%
%TO.P,C3,1*%
%TO.N,/DWN_BTN*%
%TA.AperFunction,SMDPad,CuDef*%
G36*
G01*
X85725431Y-103762309D02*
X86041816Y-103899878D01*
G75*
G02*
X86118267Y-104093959I-58815J-135266D01*
G01*
X86000636Y-104364492D01*
G75*
G02*
X85806555Y-104440943I-135266J58815D01*
G01*
X85490170Y-104303374D01*
G75*
G02*
X85413719Y-104109293I58815J135266D01*
G01*
X85531350Y-103838760D01*
G75*
G02*
X85725431Y-103762309I135266J-58815D01*
G01*
G37*
%TD.AperFunction*%
%TO.P,C3,2*%
%TO.N,GND*%
%TA.AperFunction,SMDPad,CuDef*%
G36*
G01*
X85338645Y-104651857D02*
X85655030Y-104789426D01*
G75*
G02*
X85731481Y-104983507I-58815J-135266D01*
G01*
X85613850Y-105254040D01*
G75*
G02*
X85419769Y-105330491I-135266J58815D01*
G01*
X85103384Y-105192922D01*
G75*
G02*
X85026933Y-104998841I58815J135266D01*
G01*
X85144564Y-104728308D01*
G75*
G02*
X85338645Y-104651857I135266J-58815D01*
G01*
G37*
%TD.AperFunction*%
%TD*%
%TO.P,C4,1*%
%TO.N,+3V0*%
%TA.AperFunction,SMDPad,CuDef*%
G36*
G01*
X82700080Y-98790980D02*
X82700080Y-99135980D01*
G75*
G02*
X82552580Y-99283480I-147500J0D01*
G01*
X82257580Y-99283480D01*
G75*
G02*
X82110080Y-99135980I0J147500D01*
G01*
X82110080Y-98790980D01*
G75*
G02*
X82257580Y-98643480I147500J0D01*
G01*
X82552580Y-98643480D01*
G75*
G02*
X82700080Y-98790980I0J-147500D01*
G01*
G37*
%TD.AperFunction*%
%TO.P,C4,2*%
%TO.N,GND*%
%TA.AperFunction,SMDPad,CuDef*%
G36*
G01*
X81730080Y-98790980D02*
X81730080Y-99135980D01*
G75*
G02*
X81582580Y-99283480I-147500J0D01*
G01*
X81287580Y-99283480D01*
G75*
G02*
X81140080Y-99135980I0J147500D01*
G01*
X81140080Y-98790980D01*
G75*
G02*
X81287580Y-98643480I147500J0D01*
G01*
X81582580Y-98643480D01*
G75*
G02*
X81730080Y-98790980I0J-147500D01*
G01*
G37*
%TD.AperFunction*%
%TD*%
D15*
%TO.P,TP1,1*%
%TO.N,/EXT_3V3_IN*%
X72999600Y-105968800D03*
%TD*%
%TO.P,TP3,1*%
%TO.N,/ICSP_MOSI*%
X70459600Y-105968800D03*
%TD*%
%TO.P,TP4,1*%
%TO.N,/ICSP_MISO*%
X72999600Y-103428800D03*
%TD*%
%TO.P,TP5,1*%
%TO.N,/ICSP_SCK*%
X70459600Y-103428800D03*
%TD*%
%TO.P,TP12,1*%
%TO.N,/MCU_RSTn*%
X67919600Y-103428800D03*
%TD*%
%TO.P,TP13,1*%
%TO.N,GND*%
X67919600Y-105968800D03*
%TD*%
D12*
%TO.P,BT1,-*%
%TO.N,GND*%
X70459600Y-93472000D03*
D11*
%TO.P,BT1,S2+*%
%TO.N,+3V0*%
X82364600Y-93472000D03*
%TO.P,BT1,S1+*%
X58554600Y-93472000D03*
%TD*%
D16*
%TO.P,JP9,2*%
%TO.N,+3V0*%
X84607400Y-97036000D03*
%TO.P,JP9,1*%
%TO.N,/EXT_3V3_IN*%
X84607400Y-98036000D03*
%TD*%
%TO.P,JP5,2*%
%TO.N,/ACC_INT1*%
X59029600Y-86723600D03*
%TO.P,JP5,1*%
%TO.N,/PE1*%
X59029600Y-87723600D03*
%TD*%
D17*
%TO.N,+3V0*%
X56540400Y-95935800D03*
X84455000Y-91186000D03*
X84480400Y-95275400D03*
X56540400Y-91033600D03*
X61323190Y-96469200D03*
X67640200Y-87499060D03*
X66001900Y-94157800D03*
X71031101Y-96827012D03*
X78765400Y-96418400D03*
X81864200Y-90093800D03*
X64658240Y-90236040D03*
X71805800Y-90109040D03*
X73146920Y-86791800D03*
X80655162Y-97546160D03*
X63362840Y-100650040D03*
%TO.N,GND*%
X74599800Y-78308200D03*
X69363460Y-84744612D03*
X81483200Y-82118200D03*
X85394800Y-88849200D03*
X85699600Y-98501200D03*
X81635600Y-104698800D03*
X74269600Y-108635800D03*
X66065400Y-108458000D03*
X59232800Y-104495600D03*
X55041800Y-97434400D03*
X55092600Y-89204800D03*
X59004200Y-82092800D03*
X66065400Y-78308200D03*
X77647800Y-103251000D03*
X71958200Y-84759800D03*
X66065400Y-83616800D03*
X75463400Y-83870800D03*
X77749400Y-86817200D03*
X69367400Y-82372200D03*
X72567800Y-82346800D03*
X77698600Y-82804000D03*
X72288400Y-101930200D03*
X78943200Y-93243400D03*
X57277000Y-98552000D03*
X80467200Y-85547200D03*
X69875394Y-91846400D03*
X74828400Y-92456000D03*
X76885800Y-92456000D03*
X75844400Y-92456000D03*
X74828400Y-94538800D03*
X76885800Y-94538800D03*
X75844400Y-94538800D03*
X74828400Y-93497400D03*
X76885800Y-93497400D03*
X75844400Y-93497400D03*
X66979332Y-85274276D03*
X65074800Y-95618300D03*
X69900790Y-96870890D03*
X69303900Y-101892100D03*
X62826900Y-97459800D03*
X70459600Y-94691234D03*
X66802000Y-95821500D03*
X68897500Y-95821500D03*
X66916300Y-90792300D03*
X66916300Y-93002100D03*
X67818000Y-96850200D03*
X74295000Y-103276400D03*
X63106300Y-102590600D03*
X69189600Y-99529900D03*
X68008500Y-99148900D03*
X73177400Y-100660200D03*
X73952100Y-86487000D03*
X73837800Y-84759800D03*
X65366900Y-87274400D03*
X64071500Y-88531700D03*
X60629800Y-85318600D03*
X62547500Y-83185000D03*
X80881190Y-89836200D03*
X80886300Y-88506300D03*
X60363100Y-87147400D03*
X66611500Y-88341200D03*
X76174600Y-86512400D03*
X62872131Y-91497093D03*
X85912960Y-90860880D03*
X72379840Y-86146638D03*
X67883010Y-88341200D03*
X71885277Y-88846349D03*
X81650840Y-96834960D03*
X75915520Y-100614480D03*
X81095811Y-96951617D03*
X81432400Y-98272600D03*
X64989043Y-104815037D03*
X63317120Y-99687350D03*
X64348360Y-85476080D03*
X67201384Y-101530818D03*
%TO.N,/LGT_ON_BTN*%
X73628423Y-90067552D03*
%TO.N,/UP_BTN*%
X73757660Y-88643528D03*
%TO.N,/MCU_RSTn*%
X75706069Y-90050605D03*
X80233520Y-89783920D03*
%TO.N,/R1*%
X69519800Y-105829579D03*
X65493902Y-84023200D03*
X67170300Y-105168700D03*
%TO.N,/R2*%
X63550800Y-103987600D03*
X67284600Y-81788000D03*
X62560200Y-87452200D03*
X74162317Y-105390283D03*
X76530200Y-83007200D03*
X76200000Y-84505800D03*
X74919840Y-88341200D03*
%TO.N,/R3*%
X61899800Y-102031800D03*
X78994000Y-84937600D03*
X64439800Y-83032600D03*
X74269600Y-88315800D03*
X76200000Y-104902000D03*
X79959200Y-88468200D03*
X60229618Y-94589600D03*
%TO.N,/R4*%
X59334400Y-99136200D03*
X80689588Y-92322569D03*
X62382400Y-84302600D03*
X81305400Y-86266545D03*
X78884750Y-103182450D03*
%TO.N,/R5*%
X58140600Y-97561400D03*
X81407000Y-100634800D03*
X64739499Y-102469879D03*
X58943240Y-88386920D03*
X82849720Y-89448640D03*
%TO.N,/R6*%
X82092800Y-87985600D03*
X72974202Y-101320600D03*
X58394600Y-89509600D03*
X64797084Y-100103419D03*
X82356960Y-97393760D03*
%TO.N,/C6*%
X78645990Y-90643050D03*
X67614800Y-100723700D03*
%TO.N,/C5*%
X78255452Y-91131356D03*
X69303900Y-101028500D03*
%TO.N,/C4*%
X78854327Y-91212761D03*
X74543920Y-99268280D03*
%TO.N,/C3*%
X76853351Y-97870246D03*
X67906900Y-85775800D03*
%TO.N,/C2*%
X62179198Y-90030300D03*
X76240729Y-97681500D03*
%TO.N,/PE1*%
X65140311Y-96214725D03*
%TO.N,/ICSP_MOSI*%
X68726369Y-101319837D03*
X77007720Y-97073720D03*
%TO.N,/ICSP_MISO*%
X68237100Y-101727000D03*
X78066900Y-96735902D03*
%TO.N,/ICSP_SCK*%
X78701900Y-95783400D03*
%TO.N,/DWN_BTN*%
X78816198Y-101701600D03*
%TO.N,/RTC_INTO*%
X62496700Y-94310200D03*
X73533523Y-89256005D03*
%TO.N,/SNS_SCL*%
X65784589Y-90678001D03*
X64840607Y-96734525D03*
%TO.N,/SNS_SDA*%
X63576200Y-90144600D03*
X65432465Y-96829719D03*
X72400160Y-88508840D03*
%TO.N,/ACC_INT1*%
X66243200Y-86614000D03*
%TO.N,/ACC_INT2*%
X65784589Y-91319008D03*
X72377300Y-96827016D03*
%TO.N,/PE2*%
X70485000Y-99060000D03*
X79072882Y-94247399D03*
%TO.N,/LED MATRIX/C1_T*%
X74498200Y-84302600D03*
X79121000Y-87477600D03*
X71645810Y-83540600D03*
X80060800Y-92329000D03*
X76544726Y-101689518D03*
X78656782Y-99560984D03*
%TO.N,/LED MATRIX/C2_T*%
X61323190Y-97510600D03*
X66446400Y-102590604D03*
%TO.N,/LED MATRIX/C3_T*%
X71628000Y-85928200D03*
X73329800Y-80111600D03*
%TO.N,/LED MATRIX/C4_T*%
X73981751Y-101843057D03*
X82911385Y-97650316D03*
%TO.N,/LED MATRIX/C6_T*%
X57505600Y-89255600D03*
X65570100Y-99618800D03*
%TO.N,/HAP_DRV_NEG*%
X62865000Y-96824800D03*
%TO.N,/HAP_DRV_POS*%
X62826900Y-98069400D03*
%TD*%
D18*
%TO.N,+3V0*%
X84607400Y-95402400D02*
X84480400Y-95275400D01*
X84607400Y-97036000D02*
X84607400Y-95402400D01*
X81864200Y-92971600D02*
X82364600Y-93472000D01*
X81864200Y-90093800D02*
X81864200Y-92971600D01*
X67640200Y-87499060D02*
X72439660Y-87499060D01*
X72439660Y-87499060D02*
X73146920Y-86791800D01*
X71689462Y-89992702D02*
X71805800Y-90109040D01*
X64658240Y-90236040D02*
X64901578Y-89992702D01*
X66284599Y-90049843D02*
X66227458Y-89992702D01*
X66001900Y-94157800D02*
X66284599Y-93875101D01*
X66284599Y-93875101D02*
X66284599Y-90049843D01*
X64901578Y-89992702D02*
X66227458Y-89992702D01*
X66227458Y-89992702D02*
X71689462Y-89992702D01*
X64947800Y-107365800D02*
X71348600Y-107365800D01*
X60299600Y-102717600D02*
X64947800Y-107365800D01*
X60299600Y-99466400D02*
X60299600Y-102717600D01*
X72849740Y-104353360D02*
X74706480Y-104353360D01*
X72034400Y-106680000D02*
X72034400Y-105168700D01*
X71348600Y-107365800D02*
X72034400Y-106680000D01*
X74706480Y-104353360D02*
X80655162Y-98404678D01*
X72034400Y-105168700D02*
X72849740Y-104353360D01*
X80655162Y-98404678D02*
X80655162Y-97546160D01*
X60523120Y-96469200D02*
X61323190Y-96469200D01*
X60304680Y-96687640D02*
X60523120Y-96469200D01*
X58554600Y-93472000D02*
X58554600Y-94937560D01*
X58554600Y-94937560D02*
X60304680Y-96687640D01*
X58572400Y-93489800D02*
X58554600Y-93472000D01*
X60299600Y-99466400D02*
X60299600Y-96677480D01*
X58572400Y-94950280D02*
X58572400Y-93489800D01*
X60299600Y-96677480D02*
X58572400Y-94950280D01*
X81559400Y-97546160D02*
X80655162Y-97546160D01*
X82405080Y-98963480D02*
X82405080Y-98391840D01*
X82405080Y-98391840D02*
X81559400Y-97546160D01*
X82438240Y-93545640D02*
X82364600Y-93472000D01*
X83058000Y-98963480D02*
X83489800Y-98531680D01*
X82405080Y-98963480D02*
X83058000Y-98963480D01*
X83489800Y-98531680D02*
X83489800Y-97469960D01*
X83489800Y-97469960D02*
X82438240Y-96418400D01*
X82438240Y-96418400D02*
X82438240Y-93545640D01*
D19*
X62580520Y-100650040D02*
X63362840Y-100650040D01*
X60299600Y-99466400D02*
X61396880Y-99466400D01*
X61396880Y-99466400D02*
X62580520Y-100650040D01*
D18*
X67640200Y-86868000D02*
X66771520Y-85999320D01*
X58191400Y-85999320D02*
X56829960Y-87360760D01*
X67640200Y-87499060D02*
X67640200Y-86868000D01*
X66771520Y-85999320D02*
X58191400Y-85999320D01*
X56829960Y-90744040D02*
X56540400Y-91033600D01*
X56829960Y-87360760D02*
X56829960Y-90744040D01*
D20*
%TO.N,GND*%
X84429600Y-107086400D02*
X85455407Y-105041974D01*
X84505800Y-107746800D02*
X84429600Y-107086400D01*
X87559340Y-107426001D02*
X87045800Y-108712000D01*
X87559340Y-79515459D02*
X88994837Y-82816875D01*
X90582580Y-91669460D02*
X90582580Y-95269460D01*
X87045800Y-108712000D02*
X84505800Y-107746800D01*
X87559340Y-107426001D02*
X88994837Y-104124585D01*
X87655400Y-90881200D02*
X87655400Y-93014800D01*
X88423580Y-90113020D02*
X87655400Y-90881200D01*
X90582580Y-91669460D02*
X90582580Y-90113020D01*
X90582580Y-90113020D02*
X88423580Y-90113020D01*
X87559340Y-79515459D02*
X86995000Y-78181200D01*
X86995000Y-78181200D02*
X84505800Y-79095600D01*
X85404607Y-81978226D02*
X84505800Y-79095600D01*
D18*
X70459600Y-92430606D02*
X69875394Y-91846400D01*
X70459600Y-93472000D02*
X70459600Y-92430606D01*
X70459600Y-93472000D02*
X70459600Y-94691234D01*
X69900790Y-95250044D02*
X70459600Y-94691234D01*
X69900790Y-96870890D02*
X69900790Y-95250044D01*
X81435080Y-98275280D02*
X81432400Y-98272600D01*
X81435080Y-98963480D02*
X81435080Y-98275280D01*
X65943099Y-106468799D02*
X64989043Y-105514743D01*
X67919600Y-105968800D02*
X67419601Y-106468799D01*
X67419601Y-106468799D02*
X65943099Y-106468799D01*
X64989043Y-105514743D02*
X64989043Y-104815037D01*
D21*
%TO.N,/LGT_ON_BTN*%
X89132580Y-91669460D02*
X89132580Y-95269460D01*
X88132060Y-95269460D02*
X89132580Y-95269460D01*
X87630000Y-93957000D02*
X87630000Y-94767400D01*
X87630000Y-94767400D02*
X88132060Y-95269460D01*
X86812190Y-93136790D02*
X87655400Y-93980000D01*
X86136480Y-90175080D02*
X86812190Y-90850790D01*
X74089855Y-89606120D02*
X75422760Y-89606120D01*
X82753200Y-90175080D02*
X86136480Y-90175080D01*
X73628423Y-90067552D02*
X74089855Y-89606120D01*
X75422760Y-89606120D02*
X75747880Y-89281000D01*
X75747880Y-89281000D02*
X81859120Y-89281000D01*
X86812190Y-90850790D02*
X86812190Y-93136790D01*
X81859120Y-89281000D02*
X82753200Y-90175080D01*
%TO.N,/UP_BTN*%
X86229603Y-80093645D02*
X87665100Y-83395061D01*
X87665100Y-83395061D02*
X87611461Y-83395061D01*
X87611461Y-83395061D02*
X87604600Y-83388200D01*
X87604600Y-83388200D02*
X87274400Y-83388200D01*
X85791393Y-82867774D02*
X86172040Y-83248421D01*
X86172040Y-83799680D02*
X86720680Y-84348320D01*
X86172040Y-83248421D02*
X86172040Y-83799680D01*
X73757660Y-88743660D02*
X73757660Y-88643528D01*
X82085671Y-88974490D02*
X75571790Y-88974490D01*
X87665100Y-83395061D02*
X82085671Y-88974490D01*
X75285600Y-89260680D02*
X74274680Y-89260680D01*
X75571790Y-88974490D02*
X75285600Y-89260680D01*
X74274680Y-89260680D02*
X73757660Y-88743660D01*
%TO.N,/MCU_RSTn*%
X80091280Y-89641680D02*
X80233520Y-89783920D01*
X75706069Y-90050605D02*
X76114994Y-89641680D01*
X76114994Y-89641680D02*
X80091280Y-89641680D01*
X79390240Y-90627200D02*
X80233520Y-89783920D01*
X79390240Y-91445080D02*
X79390240Y-90627200D01*
X68498720Y-103428800D02*
X75458320Y-96469200D01*
X76880720Y-96469200D02*
X77922120Y-95427800D01*
X67919600Y-103428800D02*
X68498720Y-103428800D01*
X77922120Y-92913200D02*
X79390240Y-91445080D01*
X75458320Y-96469200D02*
X76880720Y-96469200D01*
X77922120Y-95427800D02*
X77922120Y-92913200D01*
D20*
%TO.N,/R2*%
X79705200Y-87716360D02*
X79305359Y-88116201D01*
X79305359Y-88116201D02*
X75144839Y-88116201D01*
X75144839Y-88116201D02*
X74919840Y-88341200D01*
X77520800Y-84505800D02*
X79705200Y-86690200D01*
X79705200Y-86690200D02*
X79705200Y-87716360D01*
X76200000Y-84505800D02*
X77520800Y-84505800D01*
%TO.N,/R3*%
X74269600Y-88315800D02*
X74269600Y-88633998D01*
X74269600Y-88633998D02*
X74545990Y-88910388D01*
X75168532Y-88910388D02*
X75610720Y-88468200D01*
X75610720Y-88468200D02*
X79959200Y-88468200D01*
X74545990Y-88910388D02*
X75168532Y-88910388D01*
%TO.N,/R6*%
X61869320Y-99019360D02*
X63012320Y-100162360D01*
X60467240Y-89509600D02*
X60797440Y-89839800D01*
X60797440Y-95158560D02*
X61869320Y-96230440D01*
X64738143Y-100162360D02*
X64797084Y-100103419D01*
X58394600Y-89509600D02*
X60467240Y-89509600D01*
X63012320Y-100162360D02*
X64738143Y-100162360D01*
X60797440Y-89839800D02*
X60797440Y-95158560D01*
X61869320Y-96230440D02*
X61869320Y-99019360D01*
%TO.N,/EXT_3V3_IN*%
X84607400Y-98516440D02*
X84607400Y-98036000D01*
X80091280Y-99613720D02*
X83510120Y-99613720D01*
X72999600Y-105968800D02*
X72999600Y-105171240D01*
X83510120Y-99613720D02*
X84607400Y-98516440D01*
X74879200Y-104825800D02*
X80091280Y-99613720D01*
X72999600Y-105171240D02*
X73345040Y-104825800D01*
X73345040Y-104825800D02*
X74879200Y-104825800D01*
D21*
%TO.N,/PE1*%
X65709325Y-96214725D02*
X65140311Y-96214725D01*
X65979040Y-96484440D02*
X65709325Y-96214725D01*
X65979040Y-97043240D02*
X65979040Y-96484440D01*
X65359280Y-97663000D02*
X65979040Y-97043240D01*
X59915680Y-87723600D02*
X61620400Y-89428320D01*
X59029600Y-87723600D02*
X59915680Y-87723600D01*
X64444880Y-97663000D02*
X65359280Y-97663000D01*
X61620400Y-89428320D02*
X61620400Y-94838520D01*
X61620400Y-94838520D02*
X64444880Y-97663000D01*
%TO.N,/ICSP_MOSI*%
X69540120Y-104180640D02*
X69540120Y-103896160D01*
X70459600Y-105968800D02*
X70459600Y-105100120D01*
X70459600Y-105100120D02*
X69540120Y-104180640D01*
X69540120Y-104190800D02*
X69540120Y-103896160D01*
X67188080Y-103113840D02*
X67188080Y-103799640D01*
X68244720Y-102692200D02*
X67609720Y-102692200D01*
X68726369Y-102210551D02*
X68244720Y-102692200D01*
X68726369Y-101319837D02*
X68726369Y-102210551D01*
X67188080Y-103799640D02*
X67792600Y-104404160D01*
X67792600Y-104404160D02*
X69326760Y-104404160D01*
X69326760Y-104404160D02*
X69540120Y-104190800D01*
X67609720Y-102692200D02*
X67188080Y-103113840D01*
X76865480Y-96931480D02*
X77007720Y-97073720D01*
X75742800Y-96931480D02*
X76865480Y-96931480D01*
X69540120Y-103896160D02*
X69540120Y-103134160D01*
X69540120Y-103134160D02*
X75742800Y-96931480D01*
%TO.N,/ICSP_MISO*%
X78069440Y-96738442D02*
X78066900Y-96735902D01*
X77952600Y-98287840D02*
X77952600Y-96850202D01*
X73207880Y-103423720D02*
X74554080Y-102077520D01*
X74554080Y-101117400D02*
X75885040Y-99786440D01*
X74554080Y-102077520D02*
X74554080Y-101117400D01*
X72999600Y-103428800D02*
X73004680Y-103423720D01*
X73004680Y-103423720D02*
X73207880Y-103423720D01*
X75885040Y-99786440D02*
X76454000Y-99786440D01*
X76454000Y-99786440D02*
X77952600Y-98287840D01*
X77952600Y-96850202D02*
X78066900Y-96735902D01*
X71485760Y-104434640D02*
X72491600Y-103428800D01*
X71485760Y-106410760D02*
X71485760Y-104434640D01*
X70952360Y-106944160D02*
X71485760Y-106410760D01*
X69484240Y-106944160D02*
X70952360Y-106944160D01*
X66827400Y-102930960D02*
X66827400Y-104065472D01*
X68884800Y-105041700D02*
X68884800Y-106344720D01*
X67577568Y-104815640D02*
X68658740Y-104815640D01*
X66827400Y-104065472D02*
X67577568Y-104815640D01*
X68658740Y-104815640D02*
X68884800Y-105041700D01*
X67452240Y-102306120D02*
X66827400Y-102930960D01*
X72491600Y-103428800D02*
X72999600Y-103428800D01*
X68884800Y-106344720D02*
X69484240Y-106944160D01*
X68237100Y-102135940D02*
X68066920Y-102306120D01*
X68237100Y-101727000D02*
X68237100Y-102135940D01*
X68066920Y-102306120D02*
X67452240Y-102306120D01*
%TO.N,/ICSP_SCK*%
X77541120Y-96489520D02*
X78247240Y-95783400D01*
X78247240Y-95783400D02*
X78701900Y-95783400D01*
X71622920Y-103428800D02*
X75712320Y-99339400D01*
X70459600Y-103428800D02*
X71622920Y-103428800D01*
X75712320Y-99339400D02*
X76271120Y-99339400D01*
X76271120Y-99339400D02*
X77541120Y-98069400D01*
X77541120Y-98069400D02*
X77541120Y-96489520D01*
%TO.N,/DWN_BTN*%
X87665100Y-103546399D02*
X86229603Y-106847815D01*
X87395101Y-103276400D02*
X87665100Y-103546399D01*
X86385400Y-103276400D02*
X87395101Y-103276400D01*
X85852000Y-103809800D02*
X86385400Y-103276400D01*
X85842193Y-104152426D02*
X85852000Y-104142619D01*
X85852000Y-104142619D02*
X85852000Y-103809800D01*
X83413600Y-101701600D02*
X78816198Y-101701600D01*
X85775800Y-104063800D02*
X83413600Y-101701600D01*
%TO.N,/RTC_INTO*%
X73308524Y-89481004D02*
X73533523Y-89256005D01*
X63550800Y-94310200D02*
X64114680Y-93746320D01*
X62496700Y-94310200D02*
X63550800Y-94310200D01*
X64610636Y-89481004D02*
X73308524Y-89481004D01*
X64114680Y-93746320D02*
X64114680Y-89976960D01*
X64114680Y-89976960D02*
X64610636Y-89481004D01*
%TO.N,/SNS_SCL*%
X65784589Y-90678001D02*
X65145919Y-90678001D01*
X64587120Y-96481038D02*
X64840607Y-96734525D01*
X64587120Y-91236800D02*
X64587120Y-96481038D01*
X65145919Y-90678001D02*
X64587120Y-91236800D01*
%TO.N,/SNS_SDA*%
X63576200Y-90144600D02*
X63576200Y-89826402D01*
X71033640Y-89021920D02*
X71678800Y-88376760D01*
X63576200Y-89826402D02*
X64380682Y-89021920D01*
X64380682Y-89021920D02*
X71033640Y-89021920D01*
X72268080Y-88376760D02*
X72400160Y-88508840D01*
X71678800Y-88376760D02*
X72268080Y-88376760D01*
X64970024Y-97292160D02*
X65432465Y-96829719D01*
X62890400Y-90144600D02*
X61965840Y-91069160D01*
X63576200Y-90144600D02*
X62890400Y-90144600D01*
X61965840Y-91069160D02*
X61965840Y-94660720D01*
X64597280Y-97292160D02*
X64970024Y-97292160D01*
X61965840Y-94660720D02*
X64597280Y-97292160D01*
%TO.N,/ACC_INT1*%
X65989200Y-86360000D02*
X66243200Y-86614000D01*
X59166760Y-86360000D02*
X65989200Y-86360000D01*
X59029600Y-86723600D02*
X59029600Y-86497160D01*
X59029600Y-86497160D02*
X59166760Y-86360000D01*
%TO.N,/ACC_INT2*%
X71879784Y-96827016D02*
X72377300Y-96827016D01*
X66614040Y-97337880D02*
X71368920Y-97337880D01*
X66314320Y-97038160D02*
X66614040Y-97337880D01*
X71368920Y-97337880D02*
X71879784Y-96827016D01*
X65409152Y-91319008D02*
X65084960Y-91643200D01*
X65784589Y-91319008D02*
X65409152Y-91319008D01*
X65084960Y-91643200D02*
X65084960Y-94917260D01*
X65084960Y-94917260D02*
X66314320Y-96146620D01*
X66314320Y-96146620D02*
X66314320Y-97038160D01*
D20*
%TO.N,/LED MATRIX/C1_T*%
X73736200Y-83540600D02*
X71645810Y-83540600D01*
X74498200Y-84302600D02*
X73736200Y-83540600D01*
X78656782Y-99577462D02*
X78656782Y-99560984D01*
X76544726Y-101689518D02*
X78656782Y-99577462D01*
X75285600Y-85090000D02*
X74498200Y-84302600D01*
X77368400Y-85090000D02*
X75285600Y-85090000D01*
X79121000Y-87477600D02*
X79121000Y-86842600D01*
X79121000Y-86842600D02*
X77368400Y-85090000D01*
X80106520Y-92374720D02*
X80106520Y-98111246D01*
X80106520Y-98111246D02*
X78656782Y-99560984D01*
X80060800Y-92329000D02*
X80106520Y-92374720D01*
%TO.N,/LED MATRIX/C3_T*%
X72176640Y-80111600D02*
X73329800Y-80111600D01*
X71628000Y-85928200D02*
X70647560Y-84947760D01*
X70647560Y-81640680D02*
X72176640Y-80111600D01*
X70647560Y-84947760D02*
X70647560Y-81640680D01*
%TO.N,/LED MATRIX/C6_T*%
X65163649Y-99212349D02*
X65570100Y-99618800D01*
X62306200Y-98386900D02*
X63131649Y-99212349D01*
X62306200Y-96055490D02*
X62306200Y-98386900D01*
X57788750Y-88940640D02*
X60497720Y-88940640D01*
X57505600Y-89223790D02*
X57788750Y-88940640D01*
X63131649Y-99212349D02*
X65163649Y-99212349D01*
X61239400Y-94988690D02*
X62306200Y-96055490D01*
X60497720Y-88940640D02*
X61239400Y-89682320D01*
X61239400Y-89682320D02*
X61239400Y-94988690D01*
%TO.N,/HAP_DRV_NEG*%
X65928240Y-98099880D02*
X64140080Y-98099880D01*
X66781680Y-98953320D02*
X65928240Y-98099880D01*
X66090800Y-103962200D02*
X66065400Y-103962200D01*
X66065400Y-103962200D02*
X65963800Y-103860600D01*
X65963800Y-103860600D02*
X65963800Y-101010720D01*
X65963800Y-101010720D02*
X66781680Y-100192840D01*
X66781680Y-100192840D02*
X66781680Y-98953320D01*
X64140080Y-98099880D02*
X62865000Y-96824800D01*
%TO.N,/HAP_DRV_POS*%
X63423800Y-98666300D02*
X62826900Y-98069400D01*
X65318640Y-104460040D02*
X65318640Y-100695760D01*
X65318640Y-100695760D02*
X66192400Y-99822000D01*
X66103500Y-105244900D02*
X65318640Y-104460040D01*
X66192400Y-99822000D02*
X66192400Y-99247960D01*
X66192400Y-99247960D02*
X65610740Y-98666300D01*
X65610740Y-98666300D02*
X63423800Y-98666300D01*
%TD*%
%TO.N,+3V0*%
G36*
X85218600Y-90732262D02*
G01*
X85218600Y-96496200D01*
X84147800Y-96496200D01*
X84128291Y-96498121D01*
X84109532Y-96503812D01*
X84092243Y-96513053D01*
X84077089Y-96525489D01*
X83927089Y-96675489D01*
X83914653Y-96690643D01*
X83905412Y-96707932D01*
X83899721Y-96726691D01*
X83897800Y-96746200D01*
X83897800Y-97569922D01*
X83894242Y-97572842D01*
X83856753Y-97618523D01*
X83828896Y-97670640D01*
X83811741Y-97727190D01*
X83805949Y-97786000D01*
X83805949Y-98286000D01*
X83809484Y-98321894D01*
X83806378Y-98325000D01*
X82868422Y-98325000D01*
X82777000Y-98233578D01*
X82777000Y-98158870D01*
X82859677Y-98175316D01*
X82963093Y-98175316D01*
X83064522Y-98155140D01*
X83160066Y-98115565D01*
X83246053Y-98058110D01*
X83319179Y-97984984D01*
X83376634Y-97898997D01*
X83416209Y-97803453D01*
X83436385Y-97702024D01*
X83436385Y-97598608D01*
X83416209Y-97497179D01*
X83376634Y-97401635D01*
X83319179Y-97315648D01*
X83246053Y-97242522D01*
X83160066Y-97185067D01*
X83064522Y-97145492D01*
X82963093Y-97125316D01*
X82859677Y-97125316D01*
X82814949Y-97134213D01*
X82764754Y-97059092D01*
X82751371Y-97045709D01*
X82747711Y-97041249D01*
X82597711Y-96891249D01*
X82582557Y-96878813D01*
X82565268Y-96869572D01*
X82546509Y-96863881D01*
X82527000Y-96861960D01*
X82319782Y-96861960D01*
X82228360Y-96770538D01*
X82228360Y-96553160D01*
X82226439Y-96533651D01*
X82220748Y-96514892D01*
X82211507Y-96497603D01*
X82203614Y-96487986D01*
X82214600Y-96477000D01*
X82214600Y-93622000D01*
X82514600Y-93622000D01*
X82514600Y-96477000D01*
X82589600Y-96552000D01*
X83664600Y-96553452D01*
X83723410Y-96547660D01*
X83779961Y-96530505D01*
X83832078Y-96502648D01*
X83877759Y-96465159D01*
X83915248Y-96419478D01*
X83943105Y-96367361D01*
X83960260Y-96310810D01*
X83966052Y-96252000D01*
X83964600Y-93697000D01*
X83889600Y-93622000D01*
X82514600Y-93622000D01*
X82214600Y-93622000D01*
X82194600Y-93622000D01*
X82194600Y-93322000D01*
X82214600Y-93322000D01*
X82214600Y-93302000D01*
X82514600Y-93302000D01*
X82514600Y-93322000D01*
X83889600Y-93322000D01*
X83964600Y-93247000D01*
X83966052Y-90692000D01*
X83961013Y-90640840D01*
X85127178Y-90640840D01*
X85218600Y-90732262D01*
G37*
X85218600Y-90732262D02*
X85218600Y-96496200D01*
X84147800Y-96496200D01*
X84128291Y-96498121D01*
X84109532Y-96503812D01*
X84092243Y-96513053D01*
X84077089Y-96525489D01*
X83927089Y-96675489D01*
X83914653Y-96690643D01*
X83905412Y-96707932D01*
X83899721Y-96726691D01*
X83897800Y-96746200D01*
X83897800Y-97569922D01*
X83894242Y-97572842D01*
X83856753Y-97618523D01*
X83828896Y-97670640D01*
X83811741Y-97727190D01*
X83805949Y-97786000D01*
X83805949Y-98286000D01*
X83809484Y-98321894D01*
X83806378Y-98325000D01*
X82868422Y-98325000D01*
X82777000Y-98233578D01*
X82777000Y-98158870D01*
X82859677Y-98175316D01*
X82963093Y-98175316D01*
X83064522Y-98155140D01*
X83160066Y-98115565D01*
X83246053Y-98058110D01*
X83319179Y-97984984D01*
X83376634Y-97898997D01*
X83416209Y-97803453D01*
X83436385Y-97702024D01*
X83436385Y-97598608D01*
X83416209Y-97497179D01*
X83376634Y-97401635D01*
X83319179Y-97315648D01*
X83246053Y-97242522D01*
X83160066Y-97185067D01*
X83064522Y-97145492D01*
X82963093Y-97125316D01*
X82859677Y-97125316D01*
X82814949Y-97134213D01*
X82764754Y-97059092D01*
X82751371Y-97045709D01*
X82747711Y-97041249D01*
X82597711Y-96891249D01*
X82582557Y-96878813D01*
X82565268Y-96869572D01*
X82546509Y-96863881D01*
X82527000Y-96861960D01*
X82319782Y-96861960D01*
X82228360Y-96770538D01*
X82228360Y-96553160D01*
X82226439Y-96533651D01*
X82220748Y-96514892D01*
X82211507Y-96497603D01*
X82203614Y-96487986D01*
X82214600Y-96477000D01*
X82214600Y-93622000D01*
X82514600Y-93622000D01*
X82514600Y-96477000D01*
X82589600Y-96552000D01*
X83664600Y-96553452D01*
X83723410Y-96547660D01*
X83779961Y-96530505D01*
X83832078Y-96502648D01*
X83877759Y-96465159D01*
X83915248Y-96419478D01*
X83943105Y-96367361D01*
X83960260Y-96310810D01*
X83966052Y-96252000D01*
X83964600Y-93697000D01*
X83889600Y-93622000D01*
X82514600Y-93622000D01*
X82214600Y-93622000D01*
X82194600Y-93622000D01*
X82194600Y-93322000D01*
X82214600Y-93322000D01*
X82214600Y-93302000D01*
X82514600Y-93302000D01*
X82514600Y-93322000D01*
X83889600Y-93322000D01*
X83964600Y-93247000D01*
X83966052Y-90692000D01*
X83961013Y-90640840D01*
X85127178Y-90640840D01*
X85218600Y-90732262D01*
%TO.N,GND*%
G36*
X59693707Y-70797001D02*
G01*
X59743290Y-70801862D01*
X59775691Y-70811645D01*
X59805583Y-70827538D01*
X59831814Y-70848933D01*
X59853392Y-70875016D01*
X59869489Y-70904787D01*
X59879500Y-70937126D01*
X59884602Y-70985670D01*
X59884601Y-74087961D01*
X59885972Y-74101884D01*
X59885951Y-74104947D01*
X59886393Y-74109463D01*
X59896593Y-74206512D01*
X59902520Y-74235386D01*
X59908036Y-74264300D01*
X59909347Y-74268645D01*
X59938203Y-74361864D01*
X59949637Y-74389064D01*
X59960654Y-74416331D01*
X59962784Y-74420338D01*
X60009197Y-74506176D01*
X60025670Y-74530598D01*
X60041798Y-74555243D01*
X60044666Y-74558760D01*
X60106867Y-74633949D01*
X60127793Y-74654729D01*
X60148376Y-74675748D01*
X60151872Y-74678641D01*
X60227493Y-74740317D01*
X60252040Y-74756626D01*
X60276337Y-74773262D01*
X60280328Y-74775421D01*
X60366489Y-74821233D01*
X60393740Y-74832465D01*
X60420794Y-74844060D01*
X60425129Y-74845402D01*
X60518547Y-74873607D01*
X60547446Y-74879329D01*
X60576258Y-74885453D01*
X60580771Y-74885928D01*
X60677888Y-74895450D01*
X60677893Y-74895450D01*
X60693640Y-74897001D01*
X80225560Y-74897001D01*
X80239483Y-74895630D01*
X80242545Y-74895651D01*
X80247061Y-74895209D01*
X80344110Y-74885009D01*
X80372984Y-74879082D01*
X80401898Y-74873566D01*
X80406243Y-74872255D01*
X80499462Y-74843399D01*
X80526662Y-74831965D01*
X80553929Y-74820948D01*
X80557936Y-74818818D01*
X80643774Y-74772405D01*
X80668196Y-74755932D01*
X80692841Y-74739804D01*
X80696358Y-74736936D01*
X80771547Y-74674735D01*
X80792327Y-74653809D01*
X80813346Y-74633226D01*
X80816239Y-74629730D01*
X80877915Y-74554109D01*
X80894224Y-74529562D01*
X80910860Y-74505265D01*
X80913019Y-74501274D01*
X80958831Y-74415113D01*
X80970063Y-74387862D01*
X80981658Y-74360808D01*
X80983000Y-74356473D01*
X81011205Y-74263055D01*
X81016927Y-74234156D01*
X81023051Y-74205344D01*
X81023526Y-74200831D01*
X81033048Y-74103714D01*
X81033048Y-74103709D01*
X81034599Y-74087962D01*
X81034599Y-70987895D01*
X81039460Y-70938312D01*
X81049243Y-70905911D01*
X81065136Y-70876019D01*
X81086531Y-70849788D01*
X81112614Y-70828210D01*
X81142385Y-70812113D01*
X81174724Y-70802102D01*
X81223258Y-70797001D01*
X83787527Y-70797001D01*
X83934229Y-70811385D01*
X84060053Y-70849374D01*
X84176099Y-70911077D01*
X84277956Y-70994149D01*
X84362332Y-71096142D01*
X84428604Y-71217051D01*
X87451107Y-78182868D01*
X87432262Y-78184808D01*
X87413527Y-78190581D01*
X86626127Y-78520781D01*
X86609069Y-78529969D01*
X86593942Y-78542437D01*
X86581537Y-78557617D01*
X86572332Y-78574925D01*
X86566681Y-78593696D01*
X86564800Y-78613209D01*
X86566763Y-78632714D01*
X86572492Y-78651462D01*
X86644873Y-78825177D01*
X86626933Y-78835173D01*
X86581913Y-78873454D01*
X86545226Y-78919783D01*
X86526044Y-78957229D01*
X86485576Y-78945720D01*
X86426674Y-78940955D01*
X86367974Y-78947773D01*
X86311732Y-78965911D01*
X85348819Y-79384597D01*
X85297196Y-79413360D01*
X85252176Y-79451641D01*
X85215490Y-79497969D01*
X85188547Y-79550564D01*
X85172382Y-79607405D01*
X85167617Y-79666307D01*
X85174435Y-79725007D01*
X85192573Y-79781249D01*
X85685127Y-80914046D01*
X84504728Y-81416592D01*
X84488169Y-81425569D01*
X84473042Y-81438037D01*
X84460637Y-81453217D01*
X84451432Y-81470525D01*
X84445781Y-81489296D01*
X84443900Y-81508809D01*
X84445863Y-81528314D01*
X84451592Y-81547062D01*
X84547798Y-81777957D01*
X84543088Y-81786481D01*
X84537136Y-81805159D01*
X84534943Y-81824640D01*
X84536592Y-81844174D01*
X84542020Y-81863011D01*
X85037320Y-83107611D01*
X85042229Y-83118125D01*
X85053185Y-83134381D01*
X85067101Y-83148188D01*
X85083444Y-83159014D01*
X85101585Y-83166444D01*
X85120827Y-83170192D01*
X85140430Y-83170114D01*
X85159642Y-83166213D01*
X85233607Y-83143455D01*
X85280301Y-83250844D01*
X85323137Y-83327726D01*
X85380149Y-83394774D01*
X85449146Y-83449411D01*
X85527476Y-83489537D01*
X85612129Y-83513611D01*
X85699852Y-83520708D01*
X85787274Y-83510554D01*
X85793790Y-83508452D01*
X85793791Y-83781100D01*
X85791961Y-83799680D01*
X85799264Y-83873830D01*
X85820893Y-83945130D01*
X85856015Y-84010841D01*
X85891369Y-84053919D01*
X85903284Y-84068437D01*
X85917716Y-84080281D01*
X86181335Y-84343900D01*
X82613411Y-87911825D01*
X82597624Y-87832463D01*
X82558049Y-87736919D01*
X82500594Y-87650932D01*
X82427468Y-87577806D01*
X82341481Y-87520351D01*
X82245937Y-87480776D01*
X82144508Y-87460600D01*
X82041092Y-87460600D01*
X81939663Y-87480776D01*
X81844119Y-87520351D01*
X81758132Y-87577806D01*
X81685006Y-87650932D01*
X81627551Y-87736919D01*
X81587976Y-87832463D01*
X81567800Y-87933892D01*
X81567800Y-88037308D01*
X81587976Y-88138737D01*
X81627551Y-88234281D01*
X81685006Y-88320268D01*
X81758132Y-88393394D01*
X81844119Y-88450849D01*
X81939663Y-88490424D01*
X82019025Y-88506211D01*
X81928996Y-88596240D01*
X80469016Y-88596240D01*
X80484200Y-88519908D01*
X80484200Y-88416492D01*
X80464024Y-88315063D01*
X80424449Y-88219519D01*
X80366994Y-88133532D01*
X80293868Y-88060406D01*
X80207881Y-88002951D01*
X80112337Y-87963376D01*
X80032904Y-87947575D01*
X80039397Y-87939663D01*
X80076540Y-87870174D01*
X80099412Y-87794774D01*
X80105200Y-87736007D01*
X80107135Y-87716360D01*
X80105200Y-87696713D01*
X80105200Y-86709835D01*
X80107134Y-86690199D01*
X80105200Y-86670563D01*
X80105200Y-86670553D01*
X80099412Y-86611786D01*
X80076540Y-86536386D01*
X80039397Y-86466897D01*
X79989411Y-86405989D01*
X79974154Y-86393468D01*
X79795523Y-86214837D01*
X80780400Y-86214837D01*
X80780400Y-86318253D01*
X80800576Y-86419682D01*
X80840151Y-86515226D01*
X80897606Y-86601213D01*
X80970732Y-86674339D01*
X81056719Y-86731794D01*
X81152263Y-86771369D01*
X81253692Y-86791545D01*
X81357108Y-86791545D01*
X81458537Y-86771369D01*
X81554081Y-86731794D01*
X81640068Y-86674339D01*
X81713194Y-86601213D01*
X81770649Y-86515226D01*
X81810224Y-86419682D01*
X81830400Y-86318253D01*
X81830400Y-86214837D01*
X81810224Y-86113408D01*
X81770649Y-86017864D01*
X81713194Y-85931877D01*
X81640068Y-85858751D01*
X81554081Y-85801296D01*
X81458537Y-85761721D01*
X81357108Y-85741545D01*
X81253692Y-85741545D01*
X81152263Y-85761721D01*
X81056719Y-85801296D01*
X80970732Y-85858751D01*
X80897606Y-85931877D01*
X80840151Y-86017864D01*
X80800576Y-86113408D01*
X80780400Y-86214837D01*
X79795523Y-86214837D01*
X79043286Y-85462600D01*
X79045708Y-85462600D01*
X79147137Y-85442424D01*
X79242681Y-85402849D01*
X79328668Y-85345394D01*
X79401794Y-85272268D01*
X79459249Y-85186281D01*
X79498824Y-85090737D01*
X79519000Y-84989308D01*
X79519000Y-84885892D01*
X79498824Y-84784463D01*
X79459249Y-84688919D01*
X79401794Y-84602932D01*
X79328668Y-84529806D01*
X79242681Y-84472351D01*
X79147137Y-84432776D01*
X79045708Y-84412600D01*
X78942292Y-84412600D01*
X78840863Y-84432776D01*
X78745319Y-84472351D01*
X78659332Y-84529806D01*
X78586206Y-84602932D01*
X78528751Y-84688919D01*
X78489176Y-84784463D01*
X78469000Y-84885892D01*
X78469000Y-84888315D01*
X77817537Y-84236852D01*
X77805011Y-84221589D01*
X77744103Y-84171603D01*
X77674614Y-84134460D01*
X77599214Y-84111588D01*
X77540447Y-84105800D01*
X77540446Y-84105800D01*
X77520800Y-84103865D01*
X77501154Y-84105800D01*
X76542462Y-84105800D01*
X76534668Y-84098006D01*
X76448681Y-84040551D01*
X76353137Y-84000976D01*
X76251708Y-83980800D01*
X76148292Y-83980800D01*
X76046863Y-84000976D01*
X75951319Y-84040551D01*
X75865332Y-84098006D01*
X75792206Y-84171132D01*
X75734751Y-84257119D01*
X75695176Y-84352663D01*
X75675000Y-84454092D01*
X75675000Y-84557508D01*
X75695176Y-84658937D01*
X75708043Y-84690000D01*
X75451286Y-84690000D01*
X75023200Y-84261915D01*
X75023200Y-84250892D01*
X75003024Y-84149463D01*
X74963449Y-84053919D01*
X74905994Y-83967932D01*
X74832868Y-83894806D01*
X74746881Y-83837351D01*
X74651337Y-83797776D01*
X74549908Y-83777600D01*
X74538885Y-83777600D01*
X74032937Y-83271652D01*
X74020411Y-83256389D01*
X73959503Y-83206403D01*
X73890014Y-83169260D01*
X73814614Y-83146388D01*
X73755847Y-83140600D01*
X73755846Y-83140600D01*
X73736200Y-83138665D01*
X73716554Y-83140600D01*
X71988272Y-83140600D01*
X71980478Y-83132806D01*
X71894491Y-83075351D01*
X71798947Y-83035776D01*
X71697518Y-83015600D01*
X71594102Y-83015600D01*
X71492673Y-83035776D01*
X71397129Y-83075351D01*
X71311142Y-83132806D01*
X71238016Y-83205932D01*
X71180561Y-83291919D01*
X71140986Y-83387463D01*
X71120810Y-83488892D01*
X71120810Y-83592308D01*
X71140986Y-83693737D01*
X71180561Y-83789281D01*
X71238016Y-83875268D01*
X71311142Y-83948394D01*
X71397129Y-84005849D01*
X71492673Y-84045424D01*
X71594102Y-84065600D01*
X71697518Y-84065600D01*
X71798947Y-84045424D01*
X71894491Y-84005849D01*
X71980478Y-83948394D01*
X71988272Y-83940600D01*
X73570515Y-83940600D01*
X73973200Y-84343285D01*
X73973200Y-84354308D01*
X73993376Y-84455737D01*
X74032951Y-84551281D01*
X74090406Y-84637268D01*
X74163532Y-84710394D01*
X74249519Y-84767849D01*
X74345063Y-84807424D01*
X74446492Y-84827600D01*
X74457515Y-84827600D01*
X74988867Y-85358953D01*
X75001389Y-85374211D01*
X75016647Y-85386733D01*
X75016649Y-85386735D01*
X75047128Y-85411748D01*
X75062297Y-85424197D01*
X75131786Y-85461340D01*
X75207186Y-85484212D01*
X75261933Y-85489604D01*
X75285600Y-85491935D01*
X75305247Y-85490000D01*
X77202715Y-85490000D01*
X78721001Y-87008286D01*
X78721001Y-87135137D01*
X78713206Y-87142932D01*
X78655751Y-87228919D01*
X78616176Y-87324463D01*
X78596000Y-87425892D01*
X78596000Y-87529308D01*
X78616176Y-87630737D01*
X78651576Y-87716201D01*
X75164486Y-87716201D01*
X75144839Y-87714266D01*
X75125192Y-87716201D01*
X75066425Y-87721989D01*
X74991025Y-87744861D01*
X74921536Y-87782004D01*
X74879868Y-87816200D01*
X74868132Y-87816200D01*
X74766703Y-87836376D01*
X74671159Y-87875951D01*
X74611845Y-87915583D01*
X74604268Y-87908006D01*
X74518281Y-87850551D01*
X74422737Y-87810976D01*
X74321308Y-87790800D01*
X74217892Y-87790800D01*
X74116463Y-87810976D01*
X74020919Y-87850551D01*
X73934932Y-87908006D01*
X73861806Y-87981132D01*
X73804351Y-88067119D01*
X73783057Y-88118528D01*
X73705952Y-88118528D01*
X73604523Y-88138704D01*
X73508979Y-88178279D01*
X73422992Y-88235734D01*
X73349866Y-88308860D01*
X73292411Y-88394847D01*
X73252836Y-88490391D01*
X73232660Y-88591820D01*
X73232660Y-88695236D01*
X73252836Y-88796665D01*
X73257857Y-88808787D01*
X73198855Y-88848211D01*
X73125729Y-88921337D01*
X73068274Y-89007324D01*
X73028746Y-89102754D01*
X71487731Y-89102754D01*
X71835476Y-88755010D01*
X71933871Y-88755010D01*
X71934911Y-88757521D01*
X71992366Y-88843508D01*
X72065492Y-88916634D01*
X72151479Y-88974089D01*
X72247023Y-89013664D01*
X72348452Y-89033840D01*
X72451868Y-89033840D01*
X72553297Y-89013664D01*
X72648841Y-88974089D01*
X72734828Y-88916634D01*
X72807954Y-88843508D01*
X72865409Y-88757521D01*
X72904984Y-88661977D01*
X72925160Y-88560548D01*
X72925160Y-88457132D01*
X72904984Y-88355703D01*
X72865409Y-88260159D01*
X72807954Y-88174172D01*
X72734828Y-88101046D01*
X72648841Y-88043591D01*
X72553297Y-88004016D01*
X72451868Y-87983840D01*
X72348452Y-87983840D01*
X72278659Y-87997723D01*
X72268080Y-87996681D01*
X72249510Y-87998510D01*
X71697370Y-87998510D01*
X71678799Y-87996681D01*
X71660229Y-87998510D01*
X71660219Y-87998510D01*
X71604650Y-88003983D01*
X71533350Y-88025612D01*
X71522168Y-88031589D01*
X71467638Y-88060735D01*
X71450564Y-88074748D01*
X71410043Y-88108003D01*
X71398198Y-88122436D01*
X70876965Y-88643670D01*
X64399251Y-88643670D01*
X64380681Y-88641841D01*
X64362111Y-88643670D01*
X64362101Y-88643670D01*
X64306532Y-88649143D01*
X64235232Y-88670772D01*
X64169521Y-88705895D01*
X64111925Y-88753163D01*
X64100080Y-88767596D01*
X63321876Y-89545801D01*
X63307444Y-89557645D01*
X63295600Y-89572077D01*
X63295599Y-89572078D01*
X63260175Y-89615241D01*
X63246044Y-89641680D01*
X63225052Y-89680952D01*
X63203423Y-89752252D01*
X63202034Y-89766350D01*
X62908969Y-89766350D01*
X62890399Y-89764521D01*
X62871829Y-89766350D01*
X62871819Y-89766350D01*
X62816250Y-89771823D01*
X62744950Y-89793452D01*
X62679239Y-89828575D01*
X62667789Y-89837972D01*
X62644447Y-89781619D01*
X62586992Y-89695632D01*
X62513866Y-89622506D01*
X62427879Y-89565051D01*
X62332335Y-89525476D01*
X62230906Y-89505300D01*
X62127490Y-89505300D01*
X62026061Y-89525476D01*
X61998650Y-89536830D01*
X61998650Y-89446889D01*
X62000479Y-89428319D01*
X61998650Y-89409749D01*
X61998650Y-89409739D01*
X61993177Y-89354170D01*
X61971548Y-89282870D01*
X61955110Y-89252117D01*
X61936425Y-89217158D01*
X61901001Y-89173995D01*
X61889157Y-89159563D01*
X61874726Y-89147720D01*
X60196286Y-87469281D01*
X60184437Y-87454843D01*
X60126841Y-87407575D01*
X60113590Y-87400492D01*
X62035200Y-87400492D01*
X62035200Y-87503908D01*
X62055376Y-87605337D01*
X62094951Y-87700881D01*
X62152406Y-87786868D01*
X62225532Y-87859994D01*
X62311519Y-87917449D01*
X62407063Y-87957024D01*
X62508492Y-87977200D01*
X62611908Y-87977200D01*
X62713337Y-87957024D01*
X62808881Y-87917449D01*
X62894868Y-87859994D01*
X62967994Y-87786868D01*
X63025449Y-87700881D01*
X63065024Y-87605337D01*
X63085200Y-87503908D01*
X63085200Y-87400492D01*
X63065024Y-87299063D01*
X63025449Y-87203519D01*
X62967994Y-87117532D01*
X62894868Y-87044406D01*
X62808881Y-86986951D01*
X62713337Y-86947376D01*
X62611908Y-86927200D01*
X62508492Y-86927200D01*
X62407063Y-86947376D01*
X62311519Y-86986951D01*
X62225532Y-87044406D01*
X62152406Y-87117532D01*
X62094951Y-87203519D01*
X62055376Y-87299063D01*
X62035200Y-87400492D01*
X60113590Y-87400492D01*
X60061130Y-87372452D01*
X59989830Y-87350823D01*
X59934261Y-87345350D01*
X59934250Y-87345350D01*
X59915680Y-87343521D01*
X59897110Y-87345350D01*
X59801214Y-87345350D01*
X59780247Y-87306123D01*
X59742758Y-87260442D01*
X59697865Y-87223600D01*
X59742758Y-87186758D01*
X59780247Y-87141077D01*
X59808104Y-87088960D01*
X59825259Y-87032410D01*
X59831051Y-86973600D01*
X59831051Y-86738250D01*
X65732630Y-86738250D01*
X65738376Y-86767137D01*
X65777951Y-86862681D01*
X65835406Y-86948668D01*
X65908532Y-87021794D01*
X65994519Y-87079249D01*
X66090063Y-87118824D01*
X66191492Y-87139000D01*
X66294908Y-87139000D01*
X66396337Y-87118824D01*
X66491881Y-87079249D01*
X66577868Y-87021794D01*
X66650994Y-86948668D01*
X66708449Y-86862681D01*
X66748024Y-86767137D01*
X66768200Y-86665708D01*
X66768200Y-86597040D01*
X67215201Y-87044042D01*
X67215200Y-87190142D01*
X67174951Y-87250379D01*
X67135376Y-87345923D01*
X67115200Y-87447352D01*
X67115200Y-87550768D01*
X67135376Y-87652197D01*
X67174951Y-87747741D01*
X67232406Y-87833728D01*
X67305532Y-87906854D01*
X67391519Y-87964309D01*
X67487063Y-88003884D01*
X67588492Y-88024060D01*
X67691908Y-88024060D01*
X67793337Y-88003884D01*
X67888881Y-87964309D01*
X67949118Y-87924060D01*
X72418793Y-87924060D01*
X72439660Y-87926115D01*
X72460527Y-87924060D01*
X72460534Y-87924060D01*
X72522974Y-87917910D01*
X72603087Y-87893608D01*
X72676920Y-87854144D01*
X72741634Y-87801034D01*
X72754943Y-87784817D01*
X73229003Y-87310758D01*
X73300057Y-87296624D01*
X73395601Y-87257049D01*
X73481588Y-87199594D01*
X73554714Y-87126468D01*
X73612169Y-87040481D01*
X73651744Y-86944937D01*
X73671920Y-86843508D01*
X73671920Y-86740092D01*
X73651744Y-86638663D01*
X73612169Y-86543119D01*
X73554714Y-86457132D01*
X73481588Y-86384006D01*
X73395601Y-86326551D01*
X73300057Y-86286976D01*
X73198628Y-86266800D01*
X73095212Y-86266800D01*
X72993783Y-86286976D01*
X72898239Y-86326551D01*
X72812252Y-86384006D01*
X72739126Y-86457132D01*
X72681671Y-86543119D01*
X72642096Y-86638663D01*
X72627962Y-86709717D01*
X72263620Y-87074060D01*
X68065200Y-87074060D01*
X68065200Y-86888866D01*
X68067255Y-86867999D01*
X68065200Y-86847132D01*
X68065200Y-86847126D01*
X68059050Y-86784686D01*
X68056950Y-86777761D01*
X68051395Y-86759450D01*
X68034748Y-86704573D01*
X67995284Y-86630740D01*
X67942174Y-86566026D01*
X67925962Y-86552721D01*
X67097333Y-85724092D01*
X67381900Y-85724092D01*
X67381900Y-85827508D01*
X67402076Y-85928937D01*
X67441651Y-86024481D01*
X67499106Y-86110468D01*
X67572232Y-86183594D01*
X67658219Y-86241049D01*
X67753763Y-86280624D01*
X67855192Y-86300800D01*
X67958608Y-86300800D01*
X68060037Y-86280624D01*
X68155581Y-86241049D01*
X68241568Y-86183594D01*
X68314694Y-86110468D01*
X68372149Y-86024481D01*
X68411724Y-85928937D01*
X68431900Y-85827508D01*
X68431900Y-85724092D01*
X68411724Y-85622663D01*
X68372149Y-85527119D01*
X68314694Y-85441132D01*
X68241568Y-85368006D01*
X68155581Y-85310551D01*
X68060037Y-85270976D01*
X67958608Y-85250800D01*
X67855192Y-85250800D01*
X67753763Y-85270976D01*
X67658219Y-85310551D01*
X67572232Y-85368006D01*
X67499106Y-85441132D01*
X67441651Y-85527119D01*
X67402076Y-85622663D01*
X67381900Y-85724092D01*
X67097333Y-85724092D01*
X67086803Y-85713563D01*
X67073494Y-85697346D01*
X67008780Y-85644236D01*
X66934947Y-85604772D01*
X66854834Y-85580470D01*
X66792394Y-85574320D01*
X66792387Y-85574320D01*
X66771520Y-85572265D01*
X66750653Y-85574320D01*
X58212267Y-85574320D01*
X58191400Y-85572265D01*
X58170533Y-85574320D01*
X58170526Y-85574320D01*
X58115727Y-85579717D01*
X58108085Y-85580470D01*
X58094484Y-85584596D01*
X58027973Y-85604772D01*
X57954140Y-85644236D01*
X57889426Y-85697346D01*
X57876121Y-85713558D01*
X56544203Y-87045477D01*
X56527986Y-87058786D01*
X56474876Y-87123501D01*
X56435412Y-87197334D01*
X56411110Y-87277447D01*
X56404960Y-87339887D01*
X56404960Y-87339893D01*
X56402905Y-87360760D01*
X56404960Y-87381627D01*
X56404961Y-90245437D01*
X56393113Y-90246604D01*
X56336835Y-90263676D01*
X56284969Y-90291399D01*
X56239508Y-90328708D01*
X56089508Y-90478708D01*
X56052199Y-90524169D01*
X56024476Y-90576035D01*
X56007404Y-90632313D01*
X56001640Y-90690840D01*
X56001640Y-96248080D01*
X56007404Y-96306607D01*
X56024476Y-96362885D01*
X56052199Y-96414751D01*
X56089508Y-96460212D01*
X56239508Y-96610212D01*
X56284969Y-96647521D01*
X56336835Y-96675244D01*
X56393113Y-96692316D01*
X56451640Y-96698080D01*
X59714079Y-96698080D01*
X59874601Y-96858602D01*
X59874600Y-99445526D01*
X59874600Y-99445527D01*
X59874601Y-102696723D01*
X59872545Y-102717600D01*
X59880750Y-102800914D01*
X59900529Y-102866114D01*
X59905053Y-102881027D01*
X59944517Y-102954860D01*
X59949521Y-102960957D01*
X59978978Y-102996850D01*
X59997627Y-103019574D01*
X60013839Y-103032879D01*
X64632521Y-107651562D01*
X64645826Y-107667774D01*
X64710540Y-107720884D01*
X64784373Y-107760348D01*
X64840183Y-107777278D01*
X64864485Y-107784650D01*
X64872898Y-107785479D01*
X64926926Y-107790800D01*
X64926932Y-107790800D01*
X64947799Y-107792855D01*
X64968666Y-107790800D01*
X71327733Y-107790800D01*
X71348600Y-107792855D01*
X71369467Y-107790800D01*
X71369474Y-107790800D01*
X71431914Y-107784650D01*
X71512027Y-107760348D01*
X71585860Y-107720884D01*
X71650574Y-107667774D01*
X71663884Y-107651556D01*
X72320158Y-106995282D01*
X72336374Y-106981974D01*
X72389484Y-106917260D01*
X72428948Y-106843427D01*
X72453250Y-106763314D01*
X72459400Y-106700874D01*
X72459400Y-106700867D01*
X72461455Y-106680000D01*
X72459400Y-106659133D01*
X72459400Y-106559971D01*
X72489630Y-106590201D01*
X72620658Y-106677751D01*
X72766249Y-106738057D01*
X72920807Y-106768800D01*
X73078393Y-106768800D01*
X73232951Y-106738057D01*
X73378542Y-106677751D01*
X73509570Y-106590201D01*
X73621001Y-106478770D01*
X73708551Y-106347742D01*
X73768857Y-106202151D01*
X73799600Y-106047593D01*
X73799600Y-105890007D01*
X73769809Y-105740237D01*
X73827649Y-105798077D01*
X73913636Y-105855532D01*
X74009180Y-105895107D01*
X74110609Y-105915283D01*
X74214025Y-105915283D01*
X74315454Y-105895107D01*
X74410998Y-105855532D01*
X74496985Y-105798077D01*
X74570111Y-105724951D01*
X74627566Y-105638964D01*
X74667141Y-105543420D01*
X74687317Y-105441991D01*
X74687317Y-105338575D01*
X74667141Y-105237146D01*
X74662441Y-105225800D01*
X74859554Y-105225800D01*
X74879200Y-105227735D01*
X74898846Y-105225800D01*
X74898847Y-105225800D01*
X74957614Y-105220012D01*
X75033014Y-105197140D01*
X75102503Y-105159997D01*
X75163411Y-105110011D01*
X75175937Y-105094748D01*
X75420393Y-104850292D01*
X75675000Y-104850292D01*
X75675000Y-104953708D01*
X75695176Y-105055137D01*
X75734751Y-105150681D01*
X75792206Y-105236668D01*
X75865332Y-105309794D01*
X75951319Y-105367249D01*
X76046863Y-105406824D01*
X76148292Y-105427000D01*
X76251708Y-105427000D01*
X76353137Y-105406824D01*
X76448681Y-105367249D01*
X76534668Y-105309794D01*
X76607794Y-105236668D01*
X76665249Y-105150681D01*
X76704824Y-105055137D01*
X76725000Y-104953708D01*
X76725000Y-104850292D01*
X76704824Y-104748863D01*
X76665249Y-104653319D01*
X76607794Y-104567332D01*
X76534668Y-104494206D01*
X76448681Y-104436751D01*
X76353137Y-104397176D01*
X76251708Y-104377000D01*
X76148292Y-104377000D01*
X76046863Y-104397176D01*
X75951319Y-104436751D01*
X75865332Y-104494206D01*
X75792206Y-104567332D01*
X75734751Y-104653319D01*
X75695176Y-104748863D01*
X75675000Y-104850292D01*
X75420393Y-104850292D01*
X77139943Y-103130742D01*
X78359750Y-103130742D01*
X78359750Y-103234158D01*
X78379926Y-103335587D01*
X78419501Y-103431131D01*
X78476956Y-103517118D01*
X78550082Y-103590244D01*
X78636069Y-103647699D01*
X78731613Y-103687274D01*
X78833042Y-103707450D01*
X78936458Y-103707450D01*
X79037887Y-103687274D01*
X79133431Y-103647699D01*
X79219418Y-103590244D01*
X79292544Y-103517118D01*
X79349999Y-103431131D01*
X79389574Y-103335587D01*
X79409750Y-103234158D01*
X79409750Y-103130742D01*
X79389574Y-103029313D01*
X79349999Y-102933769D01*
X79292544Y-102847782D01*
X79219418Y-102774656D01*
X79133431Y-102717201D01*
X79037887Y-102677626D01*
X78936458Y-102657450D01*
X78833042Y-102657450D01*
X78731613Y-102677626D01*
X78636069Y-102717201D01*
X78550082Y-102774656D01*
X78476956Y-102847782D01*
X78419501Y-102933769D01*
X78379926Y-103029313D01*
X78359750Y-103130742D01*
X77139943Y-103130742D01*
X78342003Y-101928683D01*
X78350949Y-101950281D01*
X78408404Y-102036268D01*
X78481530Y-102109394D01*
X78567517Y-102166849D01*
X78663061Y-102206424D01*
X78764490Y-102226600D01*
X78867906Y-102226600D01*
X78969335Y-102206424D01*
X79064879Y-102166849D01*
X79150866Y-102109394D01*
X79180410Y-102079850D01*
X83256925Y-102079850D01*
X85146026Y-103968952D01*
X85137270Y-103989089D01*
X85110256Y-104072850D01*
X85100102Y-104160272D01*
X85107199Y-104247995D01*
X85123118Y-104303971D01*
X85092896Y-104312565D01*
X85040301Y-104339509D01*
X85024735Y-104351836D01*
X85008648Y-104346871D01*
X84989154Y-104344803D01*
X84969631Y-104346577D01*
X84950829Y-104352126D01*
X84933472Y-104361236D01*
X84918225Y-104373558D01*
X84905674Y-104388618D01*
X84896303Y-104405836D01*
X84477203Y-105396436D01*
X84469868Y-105424755D01*
X84469702Y-105444358D01*
X84473363Y-105463617D01*
X84480712Y-105481791D01*
X84491464Y-105498182D01*
X84505208Y-105512161D01*
X84521415Y-105523190D01*
X84761150Y-105653955D01*
X84761828Y-105654871D01*
X84776339Y-105668053D01*
X84793142Y-105678150D01*
X85658505Y-106088642D01*
X85192573Y-107160211D01*
X85174435Y-107216453D01*
X85167617Y-107275153D01*
X85172382Y-107334055D01*
X85188547Y-107390896D01*
X85215490Y-107443491D01*
X85252176Y-107489820D01*
X85297196Y-107528100D01*
X85348819Y-107556863D01*
X86311732Y-107975549D01*
X86367974Y-107993687D01*
X86426674Y-108000505D01*
X86485576Y-107995740D01*
X86526044Y-107984231D01*
X86545226Y-108021677D01*
X86581913Y-108068006D01*
X86626933Y-108106287D01*
X86678555Y-108135049D01*
X86696311Y-108142693D01*
X86623292Y-108317938D01*
X86617767Y-108335697D01*
X86615607Y-108355181D01*
X86617291Y-108374712D01*
X86622752Y-108393539D01*
X86631782Y-108410939D01*
X86644032Y-108426243D01*
X86659033Y-108438863D01*
X86676208Y-108448315D01*
X87387408Y-108753115D01*
X87396962Y-108756645D01*
X87416155Y-108760632D01*
X87435758Y-108760798D01*
X87452645Y-108757588D01*
X84428974Y-115726098D01*
X84357384Y-115854951D01*
X84272449Y-115955258D01*
X84169649Y-116037156D01*
X84052905Y-116097524D01*
X83925749Y-116134331D01*
X83788463Y-116146999D01*
X81225493Y-116146999D01*
X81175910Y-116142138D01*
X81143509Y-116132355D01*
X81113615Y-116116461D01*
X81087385Y-116095067D01*
X81065810Y-116068988D01*
X81049710Y-116039212D01*
X81039700Y-116006874D01*
X81034599Y-115958341D01*
X81034599Y-112856038D01*
X81033228Y-112842115D01*
X81033249Y-112839054D01*
X81032807Y-112834537D01*
X81022607Y-112737489D01*
X81016682Y-112708628D01*
X81011164Y-112679700D01*
X81009853Y-112675355D01*
X80980997Y-112582136D01*
X80969568Y-112554949D01*
X80958546Y-112527668D01*
X80956416Y-112523661D01*
X80910003Y-112437824D01*
X80893535Y-112413410D01*
X80877402Y-112388757D01*
X80874534Y-112385240D01*
X80812332Y-112310051D01*
X80791426Y-112289291D01*
X80770824Y-112268252D01*
X80767327Y-112265359D01*
X80691707Y-112203683D01*
X80667175Y-112187384D01*
X80642863Y-112170738D01*
X80638872Y-112168579D01*
X80552711Y-112122767D01*
X80525460Y-112111535D01*
X80498406Y-112099940D01*
X80494071Y-112098598D01*
X80400653Y-112070393D01*
X80371762Y-112064673D01*
X80342943Y-112058547D01*
X80338429Y-112058072D01*
X80241312Y-112048550D01*
X80241307Y-112048550D01*
X80225560Y-112046999D01*
X60693640Y-112046999D01*
X60679717Y-112048370D01*
X60676656Y-112048349D01*
X60672139Y-112048791D01*
X60575091Y-112058991D01*
X60546230Y-112064916D01*
X60517302Y-112070434D01*
X60512957Y-112071745D01*
X60419738Y-112100601D01*
X60392551Y-112112030D01*
X60365270Y-112123052D01*
X60361263Y-112125182D01*
X60275426Y-112171595D01*
X60251012Y-112188063D01*
X60226359Y-112204196D01*
X60222842Y-112207064D01*
X60147653Y-112269266D01*
X60126893Y-112290172D01*
X60105854Y-112310774D01*
X60102961Y-112314271D01*
X60102957Y-112314275D01*
X60041285Y-112389891D01*
X60024986Y-112414423D01*
X60008340Y-112438735D01*
X60006181Y-112442726D01*
X59960369Y-112528887D01*
X59949137Y-112556138D01*
X59937542Y-112583192D01*
X59936200Y-112587527D01*
X59907995Y-112680945D01*
X59902275Y-112709836D01*
X59896149Y-112738655D01*
X59895674Y-112743169D01*
X59886152Y-112840286D01*
X59886152Y-112840301D01*
X59884602Y-112856038D01*
X59884601Y-115956105D01*
X59879740Y-116005688D01*
X59869957Y-116038089D01*
X59854063Y-116067983D01*
X59832669Y-116094213D01*
X59806590Y-116115788D01*
X59776814Y-116131888D01*
X59744476Y-116141898D01*
X59695943Y-116146999D01*
X57131680Y-116146999D01*
X56984969Y-116132614D01*
X56859148Y-116094626D01*
X56743098Y-116032921D01*
X56641246Y-115949852D01*
X56556869Y-115847858D01*
X56490596Y-115726950D01*
X54299662Y-110677610D01*
X62095040Y-110677610D01*
X62095040Y-110911870D01*
X62140742Y-111141630D01*
X62230390Y-111358059D01*
X62360539Y-111552840D01*
X62526186Y-111718487D01*
X62720967Y-111848636D01*
X62937396Y-111938284D01*
X63167156Y-111983986D01*
X63401416Y-111983986D01*
X63631176Y-111938284D01*
X63847605Y-111848636D01*
X64042386Y-111718487D01*
X64208033Y-111552840D01*
X64338182Y-111358059D01*
X64427830Y-111141630D01*
X64473532Y-110911870D01*
X64473532Y-110677610D01*
X76445667Y-110677610D01*
X76445667Y-110911870D01*
X76491369Y-111141630D01*
X76581017Y-111358059D01*
X76711166Y-111552840D01*
X76876813Y-111718487D01*
X77071594Y-111848636D01*
X77288023Y-111938284D01*
X77517783Y-111983986D01*
X77752043Y-111983986D01*
X77981803Y-111938284D01*
X78198232Y-111848636D01*
X78393013Y-111718487D01*
X78558660Y-111552840D01*
X78688809Y-111358059D01*
X78778457Y-111141630D01*
X78824159Y-110911870D01*
X78824159Y-110677610D01*
X78778457Y-110447850D01*
X78688809Y-110231421D01*
X78558660Y-110036640D01*
X78393013Y-109870993D01*
X78198232Y-109740844D01*
X77981803Y-109651196D01*
X77752043Y-109605494D01*
X77517783Y-109605494D01*
X77288023Y-109651196D01*
X77071594Y-109740844D01*
X76876813Y-109870993D01*
X76711166Y-110036640D01*
X76581017Y-110231421D01*
X76491369Y-110447850D01*
X76445667Y-110677610D01*
X64473532Y-110677610D01*
X64427830Y-110447850D01*
X64338182Y-110231421D01*
X64208033Y-110036640D01*
X64042386Y-109870993D01*
X63847605Y-109740844D01*
X63631176Y-109651196D01*
X63401416Y-109605494D01*
X63167156Y-109605494D01*
X62937396Y-109651196D01*
X62720967Y-109740844D01*
X62526186Y-109870993D01*
X62360539Y-110036640D01*
X62230390Y-110231421D01*
X62140742Y-110447850D01*
X62095040Y-110677610D01*
X54299662Y-110677610D01*
X50745344Y-102486147D01*
X50477109Y-101677743D01*
X50392494Y-101214783D01*
X50320430Y-100530183D01*
X51947613Y-100530183D01*
X51947613Y-100764443D01*
X51993315Y-100994203D01*
X52082963Y-101210632D01*
X52213112Y-101405413D01*
X52378759Y-101571060D01*
X52573540Y-101701209D01*
X52789969Y-101790857D01*
X53019729Y-101836559D01*
X53253989Y-101836559D01*
X53483749Y-101790857D01*
X53700178Y-101701209D01*
X53894959Y-101571060D01*
X54060606Y-101405413D01*
X54190755Y-101210632D01*
X54280403Y-100994203D01*
X54326105Y-100764443D01*
X54326105Y-100530183D01*
X54280403Y-100300423D01*
X54190755Y-100083994D01*
X54060606Y-99889213D01*
X53894959Y-99723566D01*
X53700178Y-99593417D01*
X53483749Y-99503769D01*
X53253989Y-99458067D01*
X53019729Y-99458067D01*
X52789969Y-99503769D01*
X52573540Y-99593417D01*
X52378759Y-99723566D01*
X52213112Y-99889213D01*
X52082963Y-100083994D01*
X51993315Y-100300423D01*
X51947613Y-100530183D01*
X50320430Y-100530183D01*
X50168250Y-99084492D01*
X58809400Y-99084492D01*
X58809400Y-99187908D01*
X58829576Y-99289337D01*
X58869151Y-99384881D01*
X58926606Y-99470868D01*
X58999732Y-99543994D01*
X59085719Y-99601449D01*
X59181263Y-99641024D01*
X59282692Y-99661200D01*
X59386108Y-99661200D01*
X59487537Y-99641024D01*
X59583081Y-99601449D01*
X59669068Y-99543994D01*
X59742194Y-99470868D01*
X59799649Y-99384881D01*
X59839224Y-99289337D01*
X59859400Y-99187908D01*
X59859400Y-99084492D01*
X59839224Y-98983063D01*
X59799649Y-98887519D01*
X59742194Y-98801532D01*
X59669068Y-98728406D01*
X59583081Y-98670951D01*
X59487537Y-98631376D01*
X59386108Y-98611200D01*
X59282692Y-98611200D01*
X59181263Y-98631376D01*
X59085719Y-98670951D01*
X58999732Y-98728406D01*
X58926606Y-98801532D01*
X58869151Y-98887519D01*
X58829576Y-98983063D01*
X58809400Y-99084492D01*
X50168250Y-99084492D01*
X50076764Y-98215390D01*
X50038433Y-97509692D01*
X57615600Y-97509692D01*
X57615600Y-97613108D01*
X57635776Y-97714537D01*
X57675351Y-97810081D01*
X57732806Y-97896068D01*
X57805932Y-97969194D01*
X57891919Y-98026649D01*
X57987463Y-98066224D01*
X58088892Y-98086400D01*
X58192308Y-98086400D01*
X58293737Y-98066224D01*
X58389281Y-98026649D01*
X58475268Y-97969194D01*
X58548394Y-97896068D01*
X58605849Y-97810081D01*
X58645424Y-97714537D01*
X58665600Y-97613108D01*
X58665600Y-97509692D01*
X58645424Y-97408263D01*
X58605849Y-97312719D01*
X58548394Y-97226732D01*
X58475268Y-97153606D01*
X58389281Y-97096151D01*
X58293737Y-97056576D01*
X58192308Y-97036400D01*
X58088892Y-97036400D01*
X57987463Y-97056576D01*
X57891919Y-97096151D01*
X57805932Y-97153606D01*
X57732806Y-97226732D01*
X57675351Y-97312719D01*
X57635776Y-97408263D01*
X57615600Y-97509692D01*
X50038433Y-97509692D01*
X49912962Y-95199724D01*
X49901941Y-92179658D01*
X50043730Y-89162881D01*
X50335769Y-86179556D01*
X51947613Y-86179556D01*
X51947613Y-86413816D01*
X51993315Y-86643576D01*
X52082963Y-86860005D01*
X52213112Y-87054786D01*
X52378759Y-87220433D01*
X52573540Y-87350582D01*
X52789969Y-87440230D01*
X53019729Y-87485932D01*
X53253989Y-87485932D01*
X53483749Y-87440230D01*
X53700178Y-87350582D01*
X53894959Y-87220433D01*
X54060606Y-87054786D01*
X54190755Y-86860005D01*
X54280403Y-86643576D01*
X54326105Y-86413816D01*
X54326105Y-86179556D01*
X54280403Y-85949796D01*
X54190755Y-85733367D01*
X54060606Y-85538586D01*
X53894959Y-85372939D01*
X53700178Y-85242790D01*
X53483749Y-85153142D01*
X53253989Y-85107440D01*
X53019729Y-85107440D01*
X52789969Y-85153142D01*
X52573540Y-85242790D01*
X52378759Y-85372939D01*
X52213112Y-85538586D01*
X52082963Y-85733367D01*
X51993315Y-85949796D01*
X51947613Y-86179556D01*
X50335769Y-86179556D01*
X50338304Y-86153669D01*
X50391072Y-85738880D01*
X50576150Y-84908098D01*
X50742862Y-84463570D01*
X50835144Y-84250892D01*
X61857400Y-84250892D01*
X61857400Y-84354308D01*
X61877576Y-84455737D01*
X61917151Y-84551281D01*
X61974606Y-84637268D01*
X62047732Y-84710394D01*
X62133719Y-84767849D01*
X62229263Y-84807424D01*
X62330692Y-84827600D01*
X62434108Y-84827600D01*
X62535537Y-84807424D01*
X62631081Y-84767849D01*
X62717068Y-84710394D01*
X62790194Y-84637268D01*
X62847649Y-84551281D01*
X62887224Y-84455737D01*
X62907400Y-84354308D01*
X62907400Y-84250892D01*
X62887224Y-84149463D01*
X62847649Y-84053919D01*
X62792573Y-83971492D01*
X64968902Y-83971492D01*
X64968902Y-84074908D01*
X64989078Y-84176337D01*
X65028653Y-84271881D01*
X65086108Y-84357868D01*
X65159234Y-84430994D01*
X65245221Y-84488449D01*
X65340765Y-84528024D01*
X65442194Y-84548200D01*
X65545610Y-84548200D01*
X65647039Y-84528024D01*
X65742583Y-84488449D01*
X65828570Y-84430994D01*
X65901696Y-84357868D01*
X65959151Y-84271881D01*
X65998726Y-84176337D01*
X66018902Y-84074908D01*
X66018902Y-83971492D01*
X65998726Y-83870063D01*
X65959151Y-83774519D01*
X65901696Y-83688532D01*
X65828570Y-83615406D01*
X65742583Y-83557951D01*
X65647039Y-83518376D01*
X65545610Y-83498200D01*
X65442194Y-83498200D01*
X65340765Y-83518376D01*
X65245221Y-83557951D01*
X65159234Y-83615406D01*
X65086108Y-83688532D01*
X65028653Y-83774519D01*
X64989078Y-83870063D01*
X64968902Y-83971492D01*
X62792573Y-83971492D01*
X62790194Y-83967932D01*
X62717068Y-83894806D01*
X62631081Y-83837351D01*
X62535537Y-83797776D01*
X62434108Y-83777600D01*
X62330692Y-83777600D01*
X62229263Y-83797776D01*
X62133719Y-83837351D01*
X62047732Y-83894806D01*
X61974606Y-83967932D01*
X61917151Y-84053919D01*
X61877576Y-84149463D01*
X61857400Y-84250892D01*
X50835144Y-84250892D01*
X51386203Y-82980892D01*
X63914800Y-82980892D01*
X63914800Y-83084308D01*
X63934976Y-83185737D01*
X63974551Y-83281281D01*
X64032006Y-83367268D01*
X64105132Y-83440394D01*
X64191119Y-83497849D01*
X64286663Y-83537424D01*
X64388092Y-83557600D01*
X64491508Y-83557600D01*
X64592937Y-83537424D01*
X64688481Y-83497849D01*
X64774468Y-83440394D01*
X64847594Y-83367268D01*
X64905049Y-83281281D01*
X64944624Y-83185737D01*
X64964800Y-83084308D01*
X64964800Y-82980892D01*
X64944624Y-82879463D01*
X64905049Y-82783919D01*
X64847594Y-82697932D01*
X64774468Y-82624806D01*
X64688481Y-82567351D01*
X64592937Y-82527776D01*
X64491508Y-82507600D01*
X64388092Y-82507600D01*
X64286663Y-82527776D01*
X64191119Y-82567351D01*
X64105132Y-82624806D01*
X64032006Y-82697932D01*
X63974551Y-82783919D01*
X63934976Y-82879463D01*
X63914800Y-82980892D01*
X51386203Y-82980892D01*
X51926241Y-81736292D01*
X66759600Y-81736292D01*
X66759600Y-81839708D01*
X66779776Y-81941137D01*
X66819351Y-82036681D01*
X66876806Y-82122668D01*
X66949932Y-82195794D01*
X67035919Y-82253249D01*
X67131463Y-82292824D01*
X67232892Y-82313000D01*
X67336308Y-82313000D01*
X67437737Y-82292824D01*
X67533281Y-82253249D01*
X67619268Y-82195794D01*
X67692394Y-82122668D01*
X67749849Y-82036681D01*
X67789424Y-81941137D01*
X67809600Y-81839708D01*
X67809600Y-81736292D01*
X67790582Y-81640680D01*
X70245625Y-81640680D01*
X70247561Y-81660336D01*
X70247560Y-84928113D01*
X70245625Y-84947760D01*
X70247560Y-84967406D01*
X70253348Y-85026173D01*
X70276220Y-85101573D01*
X70313363Y-85171062D01*
X70363349Y-85231971D01*
X70378612Y-85244497D01*
X71103000Y-85968885D01*
X71103000Y-85979908D01*
X71123176Y-86081337D01*
X71162751Y-86176881D01*
X71220206Y-86262868D01*
X71293332Y-86335994D01*
X71379319Y-86393449D01*
X71474863Y-86433024D01*
X71576292Y-86453200D01*
X71679708Y-86453200D01*
X71781137Y-86433024D01*
X71876681Y-86393449D01*
X71962668Y-86335994D01*
X72035794Y-86262868D01*
X72093249Y-86176881D01*
X72132824Y-86081337D01*
X72153000Y-85979908D01*
X72153000Y-85876492D01*
X72132824Y-85775063D01*
X72093249Y-85679519D01*
X72035794Y-85593532D01*
X71962668Y-85520406D01*
X71876681Y-85462951D01*
X71781137Y-85423376D01*
X71679708Y-85403200D01*
X71668685Y-85403200D01*
X71047560Y-84782075D01*
X71047560Y-82955492D01*
X76005200Y-82955492D01*
X76005200Y-83058908D01*
X76025376Y-83160337D01*
X76064951Y-83255881D01*
X76122406Y-83341868D01*
X76195532Y-83414994D01*
X76281519Y-83472449D01*
X76377063Y-83512024D01*
X76478492Y-83532200D01*
X76581908Y-83532200D01*
X76683337Y-83512024D01*
X76778881Y-83472449D01*
X76864868Y-83414994D01*
X76937994Y-83341868D01*
X76995449Y-83255881D01*
X77035024Y-83160337D01*
X77055200Y-83058908D01*
X77055200Y-82955492D01*
X77035024Y-82854063D01*
X76995449Y-82758519D01*
X76937994Y-82672532D01*
X76864868Y-82599406D01*
X76778881Y-82541951D01*
X76683337Y-82502376D01*
X76581908Y-82482200D01*
X76478492Y-82482200D01*
X76377063Y-82502376D01*
X76281519Y-82541951D01*
X76195532Y-82599406D01*
X76122406Y-82672532D01*
X76064951Y-82758519D01*
X76025376Y-82854063D01*
X76005200Y-82955492D01*
X71047560Y-82955492D01*
X71047560Y-81806365D01*
X72342325Y-80511600D01*
X72987338Y-80511600D01*
X72995132Y-80519394D01*
X73081119Y-80576849D01*
X73176663Y-80616424D01*
X73278092Y-80636600D01*
X73381508Y-80636600D01*
X73482937Y-80616424D01*
X73578481Y-80576849D01*
X73664468Y-80519394D01*
X73737594Y-80446268D01*
X73795049Y-80360281D01*
X73834624Y-80264737D01*
X73854800Y-80163308D01*
X73854800Y-80059892D01*
X73834624Y-79958463D01*
X73795049Y-79862919D01*
X73737594Y-79776932D01*
X73664468Y-79703806D01*
X73578481Y-79646351D01*
X73482937Y-79606776D01*
X73381508Y-79586600D01*
X73278092Y-79586600D01*
X73176663Y-79606776D01*
X73081119Y-79646351D01*
X72995132Y-79703806D01*
X72987338Y-79711600D01*
X72196287Y-79711600D01*
X72176640Y-79709665D01*
X72156993Y-79711600D01*
X72098226Y-79717388D01*
X72022826Y-79740260D01*
X71953337Y-79777403D01*
X71892429Y-79827389D01*
X71879903Y-79842652D01*
X70378608Y-81343947D01*
X70363350Y-81356469D01*
X70350828Y-81371727D01*
X70350825Y-81371730D01*
X70313363Y-81417378D01*
X70276221Y-81486866D01*
X70253348Y-81562267D01*
X70245625Y-81640680D01*
X67790582Y-81640680D01*
X67789424Y-81634863D01*
X67749849Y-81539319D01*
X67692394Y-81453332D01*
X67619268Y-81380206D01*
X67533281Y-81322751D01*
X67437737Y-81283176D01*
X67336308Y-81263000D01*
X67232892Y-81263000D01*
X67131463Y-81283176D01*
X67035919Y-81322751D01*
X66949932Y-81380206D01*
X66876806Y-81453332D01*
X66819351Y-81539319D01*
X66779776Y-81634863D01*
X66759600Y-81736292D01*
X51926241Y-81736292D01*
X54401307Y-76032129D01*
X62095040Y-76032129D01*
X62095040Y-76266389D01*
X62140742Y-76496149D01*
X62230390Y-76712578D01*
X62360539Y-76907359D01*
X62526186Y-77073006D01*
X62720967Y-77203155D01*
X62937396Y-77292803D01*
X63167156Y-77338505D01*
X63401416Y-77338505D01*
X63631176Y-77292803D01*
X63847605Y-77203155D01*
X64042386Y-77073006D01*
X64208033Y-76907359D01*
X64338182Y-76712578D01*
X64427830Y-76496149D01*
X64473532Y-76266389D01*
X64473532Y-76032129D01*
X76445667Y-76032129D01*
X76445667Y-76266389D01*
X76491369Y-76496149D01*
X76581017Y-76712578D01*
X76711166Y-76907359D01*
X76876813Y-77073006D01*
X77071594Y-77203155D01*
X77288023Y-77292803D01*
X77517783Y-77338505D01*
X77752043Y-77338505D01*
X77981803Y-77292803D01*
X78198232Y-77203155D01*
X78393013Y-77073006D01*
X78558660Y-76907359D01*
X78688809Y-76712578D01*
X78778457Y-76496149D01*
X78824159Y-76266389D01*
X78824159Y-76032129D01*
X78778457Y-75802369D01*
X78688809Y-75585940D01*
X78558660Y-75391159D01*
X78393013Y-75225512D01*
X78198232Y-75095363D01*
X77981803Y-75005715D01*
X77752043Y-74960013D01*
X77517783Y-74960013D01*
X77288023Y-75005715D01*
X77071594Y-75095363D01*
X76876813Y-75225512D01*
X76711166Y-75391159D01*
X76581017Y-75585940D01*
X76491369Y-75802369D01*
X76445667Y-76032129D01*
X64473532Y-76032129D01*
X64427830Y-75802369D01*
X64338182Y-75585940D01*
X64208033Y-75391159D01*
X64042386Y-75225512D01*
X63847605Y-75095363D01*
X63631176Y-75005715D01*
X63401416Y-74960013D01*
X63167156Y-74960013D01*
X62937396Y-75005715D01*
X62720967Y-75095363D01*
X62526186Y-75225512D01*
X62360539Y-75391159D01*
X62230390Y-75585940D01*
X62140742Y-75802369D01*
X62095040Y-76032129D01*
X54401307Y-76032129D01*
X56490228Y-71217895D01*
X56561814Y-71089049D01*
X56646749Y-70988743D01*
X56749548Y-70906844D01*
X56866292Y-70846475D01*
X56993450Y-70809668D01*
X57130746Y-70796999D01*
X59693707Y-70797001D01*
G37*
X59693707Y-70797001D02*
X59743290Y-70801862D01*
X59775691Y-70811645D01*
X59805583Y-70827538D01*
X59831814Y-70848933D01*
X59853392Y-70875016D01*
X59869489Y-70904787D01*
X59879500Y-70937126D01*
X59884602Y-70985670D01*
X59884601Y-74087961D01*
X59885972Y-74101884D01*
X59885951Y-74104947D01*
X59886393Y-74109463D01*
X59896593Y-74206512D01*
X59902520Y-74235386D01*
X59908036Y-74264300D01*
X59909347Y-74268645D01*
X59938203Y-74361864D01*
X59949637Y-74389064D01*
X59960654Y-74416331D01*
X59962784Y-74420338D01*
X60009197Y-74506176D01*
X60025670Y-74530598D01*
X60041798Y-74555243D01*
X60044666Y-74558760D01*
X60106867Y-74633949D01*
X60127793Y-74654729D01*
X60148376Y-74675748D01*
X60151872Y-74678641D01*
X60227493Y-74740317D01*
X60252040Y-74756626D01*
X60276337Y-74773262D01*
X60280328Y-74775421D01*
X60366489Y-74821233D01*
X60393740Y-74832465D01*
X60420794Y-74844060D01*
X60425129Y-74845402D01*
X60518547Y-74873607D01*
X60547446Y-74879329D01*
X60576258Y-74885453D01*
X60580771Y-74885928D01*
X60677888Y-74895450D01*
X60677893Y-74895450D01*
X60693640Y-74897001D01*
X80225560Y-74897001D01*
X80239483Y-74895630D01*
X80242545Y-74895651D01*
X80247061Y-74895209D01*
X80344110Y-74885009D01*
X80372984Y-74879082D01*
X80401898Y-74873566D01*
X80406243Y-74872255D01*
X80499462Y-74843399D01*
X80526662Y-74831965D01*
X80553929Y-74820948D01*
X80557936Y-74818818D01*
X80643774Y-74772405D01*
X80668196Y-74755932D01*
X80692841Y-74739804D01*
X80696358Y-74736936D01*
X80771547Y-74674735D01*
X80792327Y-74653809D01*
X80813346Y-74633226D01*
X80816239Y-74629730D01*
X80877915Y-74554109D01*
X80894224Y-74529562D01*
X80910860Y-74505265D01*
X80913019Y-74501274D01*
X80958831Y-74415113D01*
X80970063Y-74387862D01*
X80981658Y-74360808D01*
X80983000Y-74356473D01*
X81011205Y-74263055D01*
X81016927Y-74234156D01*
X81023051Y-74205344D01*
X81023526Y-74200831D01*
X81033048Y-74103714D01*
X81033048Y-74103709D01*
X81034599Y-74087962D01*
X81034599Y-70987895D01*
X81039460Y-70938312D01*
X81049243Y-70905911D01*
X81065136Y-70876019D01*
X81086531Y-70849788D01*
X81112614Y-70828210D01*
X81142385Y-70812113D01*
X81174724Y-70802102D01*
X81223258Y-70797001D01*
X83787527Y-70797001D01*
X83934229Y-70811385D01*
X84060053Y-70849374D01*
X84176099Y-70911077D01*
X84277956Y-70994149D01*
X84362332Y-71096142D01*
X84428604Y-71217051D01*
X87451107Y-78182868D01*
X87432262Y-78184808D01*
X87413527Y-78190581D01*
X86626127Y-78520781D01*
X86609069Y-78529969D01*
X86593942Y-78542437D01*
X86581537Y-78557617D01*
X86572332Y-78574925D01*
X86566681Y-78593696D01*
X86564800Y-78613209D01*
X86566763Y-78632714D01*
X86572492Y-78651462D01*
X86644873Y-78825177D01*
X86626933Y-78835173D01*
X86581913Y-78873454D01*
X86545226Y-78919783D01*
X86526044Y-78957229D01*
X86485576Y-78945720D01*
X86426674Y-78940955D01*
X86367974Y-78947773D01*
X86311732Y-78965911D01*
X85348819Y-79384597D01*
X85297196Y-79413360D01*
X85252176Y-79451641D01*
X85215490Y-79497969D01*
X85188547Y-79550564D01*
X85172382Y-79607405D01*
X85167617Y-79666307D01*
X85174435Y-79725007D01*
X85192573Y-79781249D01*
X85685127Y-80914046D01*
X84504728Y-81416592D01*
X84488169Y-81425569D01*
X84473042Y-81438037D01*
X84460637Y-81453217D01*
X84451432Y-81470525D01*
X84445781Y-81489296D01*
X84443900Y-81508809D01*
X84445863Y-81528314D01*
X84451592Y-81547062D01*
X84547798Y-81777957D01*
X84543088Y-81786481D01*
X84537136Y-81805159D01*
X84534943Y-81824640D01*
X84536592Y-81844174D01*
X84542020Y-81863011D01*
X85037320Y-83107611D01*
X85042229Y-83118125D01*
X85053185Y-83134381D01*
X85067101Y-83148188D01*
X85083444Y-83159014D01*
X85101585Y-83166444D01*
X85120827Y-83170192D01*
X85140430Y-83170114D01*
X85159642Y-83166213D01*
X85233607Y-83143455D01*
X85280301Y-83250844D01*
X85323137Y-83327726D01*
X85380149Y-83394774D01*
X85449146Y-83449411D01*
X85527476Y-83489537D01*
X85612129Y-83513611D01*
X85699852Y-83520708D01*
X85787274Y-83510554D01*
X85793790Y-83508452D01*
X85793791Y-83781100D01*
X85791961Y-83799680D01*
X85799264Y-83873830D01*
X85820893Y-83945130D01*
X85856015Y-84010841D01*
X85891369Y-84053919D01*
X85903284Y-84068437D01*
X85917716Y-84080281D01*
X86181335Y-84343900D01*
X82613411Y-87911825D01*
X82597624Y-87832463D01*
X82558049Y-87736919D01*
X82500594Y-87650932D01*
X82427468Y-87577806D01*
X82341481Y-87520351D01*
X82245937Y-87480776D01*
X82144508Y-87460600D01*
X82041092Y-87460600D01*
X81939663Y-87480776D01*
X81844119Y-87520351D01*
X81758132Y-87577806D01*
X81685006Y-87650932D01*
X81627551Y-87736919D01*
X81587976Y-87832463D01*
X81567800Y-87933892D01*
X81567800Y-88037308D01*
X81587976Y-88138737D01*
X81627551Y-88234281D01*
X81685006Y-88320268D01*
X81758132Y-88393394D01*
X81844119Y-88450849D01*
X81939663Y-88490424D01*
X82019025Y-88506211D01*
X81928996Y-88596240D01*
X80469016Y-88596240D01*
X80484200Y-88519908D01*
X80484200Y-88416492D01*
X80464024Y-88315063D01*
X80424449Y-88219519D01*
X80366994Y-88133532D01*
X80293868Y-88060406D01*
X80207881Y-88002951D01*
X80112337Y-87963376D01*
X80032904Y-87947575D01*
X80039397Y-87939663D01*
X80076540Y-87870174D01*
X80099412Y-87794774D01*
X80105200Y-87736007D01*
X80107135Y-87716360D01*
X80105200Y-87696713D01*
X80105200Y-86709835D01*
X80107134Y-86690199D01*
X80105200Y-86670563D01*
X80105200Y-86670553D01*
X80099412Y-86611786D01*
X80076540Y-86536386D01*
X80039397Y-86466897D01*
X79989411Y-86405989D01*
X79974154Y-86393468D01*
X79795523Y-86214837D01*
X80780400Y-86214837D01*
X80780400Y-86318253D01*
X80800576Y-86419682D01*
X80840151Y-86515226D01*
X80897606Y-86601213D01*
X80970732Y-86674339D01*
X81056719Y-86731794D01*
X81152263Y-86771369D01*
X81253692Y-86791545D01*
X81357108Y-86791545D01*
X81458537Y-86771369D01*
X81554081Y-86731794D01*
X81640068Y-86674339D01*
X81713194Y-86601213D01*
X81770649Y-86515226D01*
X81810224Y-86419682D01*
X81830400Y-86318253D01*
X81830400Y-86214837D01*
X81810224Y-86113408D01*
X81770649Y-86017864D01*
X81713194Y-85931877D01*
X81640068Y-85858751D01*
X81554081Y-85801296D01*
X81458537Y-85761721D01*
X81357108Y-85741545D01*
X81253692Y-85741545D01*
X81152263Y-85761721D01*
X81056719Y-85801296D01*
X80970732Y-85858751D01*
X80897606Y-85931877D01*
X80840151Y-86017864D01*
X80800576Y-86113408D01*
X80780400Y-86214837D01*
X79795523Y-86214837D01*
X79043286Y-85462600D01*
X79045708Y-85462600D01*
X79147137Y-85442424D01*
X79242681Y-85402849D01*
X79328668Y-85345394D01*
X79401794Y-85272268D01*
X79459249Y-85186281D01*
X79498824Y-85090737D01*
X79519000Y-84989308D01*
X79519000Y-84885892D01*
X79498824Y-84784463D01*
X79459249Y-84688919D01*
X79401794Y-84602932D01*
X79328668Y-84529806D01*
X79242681Y-84472351D01*
X79147137Y-84432776D01*
X79045708Y-84412600D01*
X78942292Y-84412600D01*
X78840863Y-84432776D01*
X78745319Y-84472351D01*
X78659332Y-84529806D01*
X78586206Y-84602932D01*
X78528751Y-84688919D01*
X78489176Y-84784463D01*
X78469000Y-84885892D01*
X78469000Y-84888315D01*
X77817537Y-84236852D01*
X77805011Y-84221589D01*
X77744103Y-84171603D01*
X77674614Y-84134460D01*
X77599214Y-84111588D01*
X77540447Y-84105800D01*
X77540446Y-84105800D01*
X77520800Y-84103865D01*
X77501154Y-84105800D01*
X76542462Y-84105800D01*
X76534668Y-84098006D01*
X76448681Y-84040551D01*
X76353137Y-84000976D01*
X76251708Y-83980800D01*
X76148292Y-83980800D01*
X76046863Y-84000976D01*
X75951319Y-84040551D01*
X75865332Y-84098006D01*
X75792206Y-84171132D01*
X75734751Y-84257119D01*
X75695176Y-84352663D01*
X75675000Y-84454092D01*
X75675000Y-84557508D01*
X75695176Y-84658937D01*
X75708043Y-84690000D01*
X75451286Y-84690000D01*
X75023200Y-84261915D01*
X75023200Y-84250892D01*
X75003024Y-84149463D01*
X74963449Y-84053919D01*
X74905994Y-83967932D01*
X74832868Y-83894806D01*
X74746881Y-83837351D01*
X74651337Y-83797776D01*
X74549908Y-83777600D01*
X74538885Y-83777600D01*
X74032937Y-83271652D01*
X74020411Y-83256389D01*
X73959503Y-83206403D01*
X73890014Y-83169260D01*
X73814614Y-83146388D01*
X73755847Y-83140600D01*
X73755846Y-83140600D01*
X73736200Y-83138665D01*
X73716554Y-83140600D01*
X71988272Y-83140600D01*
X71980478Y-83132806D01*
X71894491Y-83075351D01*
X71798947Y-83035776D01*
X71697518Y-83015600D01*
X71594102Y-83015600D01*
X71492673Y-83035776D01*
X71397129Y-83075351D01*
X71311142Y-83132806D01*
X71238016Y-83205932D01*
X71180561Y-83291919D01*
X71140986Y-83387463D01*
X71120810Y-83488892D01*
X71120810Y-83592308D01*
X71140986Y-83693737D01*
X71180561Y-83789281D01*
X71238016Y-83875268D01*
X71311142Y-83948394D01*
X71397129Y-84005849D01*
X71492673Y-84045424D01*
X71594102Y-84065600D01*
X71697518Y-84065600D01*
X71798947Y-84045424D01*
X71894491Y-84005849D01*
X71980478Y-83948394D01*
X71988272Y-83940600D01*
X73570515Y-83940600D01*
X73973200Y-84343285D01*
X73973200Y-84354308D01*
X73993376Y-84455737D01*
X74032951Y-84551281D01*
X74090406Y-84637268D01*
X74163532Y-84710394D01*
X74249519Y-84767849D01*
X74345063Y-84807424D01*
X74446492Y-84827600D01*
X74457515Y-84827600D01*
X74988867Y-85358953D01*
X75001389Y-85374211D01*
X75016647Y-85386733D01*
X75016649Y-85386735D01*
X75047128Y-85411748D01*
X75062297Y-85424197D01*
X75131786Y-85461340D01*
X75207186Y-85484212D01*
X75261933Y-85489604D01*
X75285600Y-85491935D01*
X75305247Y-85490000D01*
X77202715Y-85490000D01*
X78721001Y-87008286D01*
X78721001Y-87135137D01*
X78713206Y-87142932D01*
X78655751Y-87228919D01*
X78616176Y-87324463D01*
X78596000Y-87425892D01*
X78596000Y-87529308D01*
X78616176Y-87630737D01*
X78651576Y-87716201D01*
X75164486Y-87716201D01*
X75144839Y-87714266D01*
X75125192Y-87716201D01*
X75066425Y-87721989D01*
X74991025Y-87744861D01*
X74921536Y-87782004D01*
X74879868Y-87816200D01*
X74868132Y-87816200D01*
X74766703Y-87836376D01*
X74671159Y-87875951D01*
X74611845Y-87915583D01*
X74604268Y-87908006D01*
X74518281Y-87850551D01*
X74422737Y-87810976D01*
X74321308Y-87790800D01*
X74217892Y-87790800D01*
X74116463Y-87810976D01*
X74020919Y-87850551D01*
X73934932Y-87908006D01*
X73861806Y-87981132D01*
X73804351Y-88067119D01*
X73783057Y-88118528D01*
X73705952Y-88118528D01*
X73604523Y-88138704D01*
X73508979Y-88178279D01*
X73422992Y-88235734D01*
X73349866Y-88308860D01*
X73292411Y-88394847D01*
X73252836Y-88490391D01*
X73232660Y-88591820D01*
X73232660Y-88695236D01*
X73252836Y-88796665D01*
X73257857Y-88808787D01*
X73198855Y-88848211D01*
X73125729Y-88921337D01*
X73068274Y-89007324D01*
X73028746Y-89102754D01*
X71487731Y-89102754D01*
X71835476Y-88755010D01*
X71933871Y-88755010D01*
X71934911Y-88757521D01*
X71992366Y-88843508D01*
X72065492Y-88916634D01*
X72151479Y-88974089D01*
X72247023Y-89013664D01*
X72348452Y-89033840D01*
X72451868Y-89033840D01*
X72553297Y-89013664D01*
X72648841Y-88974089D01*
X72734828Y-88916634D01*
X72807954Y-88843508D01*
X72865409Y-88757521D01*
X72904984Y-88661977D01*
X72925160Y-88560548D01*
X72925160Y-88457132D01*
X72904984Y-88355703D01*
X72865409Y-88260159D01*
X72807954Y-88174172D01*
X72734828Y-88101046D01*
X72648841Y-88043591D01*
X72553297Y-88004016D01*
X72451868Y-87983840D01*
X72348452Y-87983840D01*
X72278659Y-87997723D01*
X72268080Y-87996681D01*
X72249510Y-87998510D01*
X71697370Y-87998510D01*
X71678799Y-87996681D01*
X71660229Y-87998510D01*
X71660219Y-87998510D01*
X71604650Y-88003983D01*
X71533350Y-88025612D01*
X71522168Y-88031589D01*
X71467638Y-88060735D01*
X71450564Y-88074748D01*
X71410043Y-88108003D01*
X71398198Y-88122436D01*
X70876965Y-88643670D01*
X64399251Y-88643670D01*
X64380681Y-88641841D01*
X64362111Y-88643670D01*
X64362101Y-88643670D01*
X64306532Y-88649143D01*
X64235232Y-88670772D01*
X64169521Y-88705895D01*
X64111925Y-88753163D01*
X64100080Y-88767596D01*
X63321876Y-89545801D01*
X63307444Y-89557645D01*
X63295600Y-89572077D01*
X63295599Y-89572078D01*
X63260175Y-89615241D01*
X63246044Y-89641680D01*
X63225052Y-89680952D01*
X63203423Y-89752252D01*
X63202034Y-89766350D01*
X62908969Y-89766350D01*
X62890399Y-89764521D01*
X62871829Y-89766350D01*
X62871819Y-89766350D01*
X62816250Y-89771823D01*
X62744950Y-89793452D01*
X62679239Y-89828575D01*
X62667789Y-89837972D01*
X62644447Y-89781619D01*
X62586992Y-89695632D01*
X62513866Y-89622506D01*
X62427879Y-89565051D01*
X62332335Y-89525476D01*
X62230906Y-89505300D01*
X62127490Y-89505300D01*
X62026061Y-89525476D01*
X61998650Y-89536830D01*
X61998650Y-89446889D01*
X62000479Y-89428319D01*
X61998650Y-89409749D01*
X61998650Y-89409739D01*
X61993177Y-89354170D01*
X61971548Y-89282870D01*
X61955110Y-89252117D01*
X61936425Y-89217158D01*
X61901001Y-89173995D01*
X61889157Y-89159563D01*
X61874726Y-89147720D01*
X60196286Y-87469281D01*
X60184437Y-87454843D01*
X60126841Y-87407575D01*
X60113590Y-87400492D01*
X62035200Y-87400492D01*
X62035200Y-87503908D01*
X62055376Y-87605337D01*
X62094951Y-87700881D01*
X62152406Y-87786868D01*
X62225532Y-87859994D01*
X62311519Y-87917449D01*
X62407063Y-87957024D01*
X62508492Y-87977200D01*
X62611908Y-87977200D01*
X62713337Y-87957024D01*
X62808881Y-87917449D01*
X62894868Y-87859994D01*
X62967994Y-87786868D01*
X63025449Y-87700881D01*
X63065024Y-87605337D01*
X63085200Y-87503908D01*
X63085200Y-87400492D01*
X63065024Y-87299063D01*
X63025449Y-87203519D01*
X62967994Y-87117532D01*
X62894868Y-87044406D01*
X62808881Y-86986951D01*
X62713337Y-86947376D01*
X62611908Y-86927200D01*
X62508492Y-86927200D01*
X62407063Y-86947376D01*
X62311519Y-86986951D01*
X62225532Y-87044406D01*
X62152406Y-87117532D01*
X62094951Y-87203519D01*
X62055376Y-87299063D01*
X62035200Y-87400492D01*
X60113590Y-87400492D01*
X60061130Y-87372452D01*
X59989830Y-87350823D01*
X59934261Y-87345350D01*
X59934250Y-87345350D01*
X59915680Y-87343521D01*
X59897110Y-87345350D01*
X59801214Y-87345350D01*
X59780247Y-87306123D01*
X59742758Y-87260442D01*
X59697865Y-87223600D01*
X59742758Y-87186758D01*
X59780247Y-87141077D01*
X59808104Y-87088960D01*
X59825259Y-87032410D01*
X59831051Y-86973600D01*
X59831051Y-86738250D01*
X65732630Y-86738250D01*
X65738376Y-86767137D01*
X65777951Y-86862681D01*
X65835406Y-86948668D01*
X65908532Y-87021794D01*
X65994519Y-87079249D01*
X66090063Y-87118824D01*
X66191492Y-87139000D01*
X66294908Y-87139000D01*
X66396337Y-87118824D01*
X66491881Y-87079249D01*
X66577868Y-87021794D01*
X66650994Y-86948668D01*
X66708449Y-86862681D01*
X66748024Y-86767137D01*
X66768200Y-86665708D01*
X66768200Y-86597040D01*
X67215201Y-87044042D01*
X67215200Y-87190142D01*
X67174951Y-87250379D01*
X67135376Y-87345923D01*
X67115200Y-87447352D01*
X67115200Y-87550768D01*
X67135376Y-87652197D01*
X67174951Y-87747741D01*
X67232406Y-87833728D01*
X67305532Y-87906854D01*
X67391519Y-87964309D01*
X67487063Y-88003884D01*
X67588492Y-88024060D01*
X67691908Y-88024060D01*
X67793337Y-88003884D01*
X67888881Y-87964309D01*
X67949118Y-87924060D01*
X72418793Y-87924060D01*
X72439660Y-87926115D01*
X72460527Y-87924060D01*
X72460534Y-87924060D01*
X72522974Y-87917910D01*
X72603087Y-87893608D01*
X72676920Y-87854144D01*
X72741634Y-87801034D01*
X72754943Y-87784817D01*
X73229003Y-87310758D01*
X73300057Y-87296624D01*
X73395601Y-87257049D01*
X73481588Y-87199594D01*
X73554714Y-87126468D01*
X73612169Y-87040481D01*
X73651744Y-86944937D01*
X73671920Y-86843508D01*
X73671920Y-86740092D01*
X73651744Y-86638663D01*
X73612169Y-86543119D01*
X73554714Y-86457132D01*
X73481588Y-86384006D01*
X73395601Y-86326551D01*
X73300057Y-86286976D01*
X73198628Y-86266800D01*
X73095212Y-86266800D01*
X72993783Y-86286976D01*
X72898239Y-86326551D01*
X72812252Y-86384006D01*
X72739126Y-86457132D01*
X72681671Y-86543119D01*
X72642096Y-86638663D01*
X72627962Y-86709717D01*
X72263620Y-87074060D01*
X68065200Y-87074060D01*
X68065200Y-86888866D01*
X68067255Y-86867999D01*
X68065200Y-86847132D01*
X68065200Y-86847126D01*
X68059050Y-86784686D01*
X68056950Y-86777761D01*
X68051395Y-86759450D01*
X68034748Y-86704573D01*
X67995284Y-86630740D01*
X67942174Y-86566026D01*
X67925962Y-86552721D01*
X67097333Y-85724092D01*
X67381900Y-85724092D01*
X67381900Y-85827508D01*
X67402076Y-85928937D01*
X67441651Y-86024481D01*
X67499106Y-86110468D01*
X67572232Y-86183594D01*
X67658219Y-86241049D01*
X67753763Y-86280624D01*
X67855192Y-86300800D01*
X67958608Y-86300800D01*
X68060037Y-86280624D01*
X68155581Y-86241049D01*
X68241568Y-86183594D01*
X68314694Y-86110468D01*
X68372149Y-86024481D01*
X68411724Y-85928937D01*
X68431900Y-85827508D01*
X68431900Y-85724092D01*
X68411724Y-85622663D01*
X68372149Y-85527119D01*
X68314694Y-85441132D01*
X68241568Y-85368006D01*
X68155581Y-85310551D01*
X68060037Y-85270976D01*
X67958608Y-85250800D01*
X67855192Y-85250800D01*
X67753763Y-85270976D01*
X67658219Y-85310551D01*
X67572232Y-85368006D01*
X67499106Y-85441132D01*
X67441651Y-85527119D01*
X67402076Y-85622663D01*
X67381900Y-85724092D01*
X67097333Y-85724092D01*
X67086803Y-85713563D01*
X67073494Y-85697346D01*
X67008780Y-85644236D01*
X66934947Y-85604772D01*
X66854834Y-85580470D01*
X66792394Y-85574320D01*
X66792387Y-85574320D01*
X66771520Y-85572265D01*
X66750653Y-85574320D01*
X58212267Y-85574320D01*
X58191400Y-85572265D01*
X58170533Y-85574320D01*
X58170526Y-85574320D01*
X58115727Y-85579717D01*
X58108085Y-85580470D01*
X58094484Y-85584596D01*
X58027973Y-85604772D01*
X57954140Y-85644236D01*
X57889426Y-85697346D01*
X57876121Y-85713558D01*
X56544203Y-87045477D01*
X56527986Y-87058786D01*
X56474876Y-87123501D01*
X56435412Y-87197334D01*
X56411110Y-87277447D01*
X56404960Y-87339887D01*
X56404960Y-87339893D01*
X56402905Y-87360760D01*
X56404960Y-87381627D01*
X56404961Y-90245437D01*
X56393113Y-90246604D01*
X56336835Y-90263676D01*
X56284969Y-90291399D01*
X56239508Y-90328708D01*
X56089508Y-90478708D01*
X56052199Y-90524169D01*
X56024476Y-90576035D01*
X56007404Y-90632313D01*
X56001640Y-90690840D01*
X56001640Y-96248080D01*
X56007404Y-96306607D01*
X56024476Y-96362885D01*
X56052199Y-96414751D01*
X56089508Y-96460212D01*
X56239508Y-96610212D01*
X56284969Y-96647521D01*
X56336835Y-96675244D01*
X56393113Y-96692316D01*
X56451640Y-96698080D01*
X59714079Y-96698080D01*
X59874601Y-96858602D01*
X59874600Y-99445526D01*
X59874600Y-99445527D01*
X59874601Y-102696723D01*
X59872545Y-102717600D01*
X59880750Y-102800914D01*
X59900529Y-102866114D01*
X59905053Y-102881027D01*
X59944517Y-102954860D01*
X59949521Y-102960957D01*
X59978978Y-102996850D01*
X59997627Y-103019574D01*
X60013839Y-103032879D01*
X64632521Y-107651562D01*
X64645826Y-107667774D01*
X64710540Y-107720884D01*
X64784373Y-107760348D01*
X64840183Y-107777278D01*
X64864485Y-107784650D01*
X64872898Y-107785479D01*
X64926926Y-107790800D01*
X64926932Y-107790800D01*
X64947799Y-107792855D01*
X64968666Y-107790800D01*
X71327733Y-107790800D01*
X71348600Y-107792855D01*
X71369467Y-107790800D01*
X71369474Y-107790800D01*
X71431914Y-107784650D01*
X71512027Y-107760348D01*
X71585860Y-107720884D01*
X71650574Y-107667774D01*
X71663884Y-107651556D01*
X72320158Y-106995282D01*
X72336374Y-106981974D01*
X72389484Y-106917260D01*
X72428948Y-106843427D01*
X72453250Y-106763314D01*
X72459400Y-106700874D01*
X72459400Y-106700867D01*
X72461455Y-106680000D01*
X72459400Y-106659133D01*
X72459400Y-106559971D01*
X72489630Y-106590201D01*
X72620658Y-106677751D01*
X72766249Y-106738057D01*
X72920807Y-106768800D01*
X73078393Y-106768800D01*
X73232951Y-106738057D01*
X73378542Y-106677751D01*
X73509570Y-106590201D01*
X73621001Y-106478770D01*
X73708551Y-106347742D01*
X73768857Y-106202151D01*
X73799600Y-106047593D01*
X73799600Y-105890007D01*
X73769809Y-105740237D01*
X73827649Y-105798077D01*
X73913636Y-105855532D01*
X74009180Y-105895107D01*
X74110609Y-105915283D01*
X74214025Y-105915283D01*
X74315454Y-105895107D01*
X74410998Y-105855532D01*
X74496985Y-105798077D01*
X74570111Y-105724951D01*
X74627566Y-105638964D01*
X74667141Y-105543420D01*
X74687317Y-105441991D01*
X74687317Y-105338575D01*
X74667141Y-105237146D01*
X74662441Y-105225800D01*
X74859554Y-105225800D01*
X74879200Y-105227735D01*
X74898846Y-105225800D01*
X74898847Y-105225800D01*
X74957614Y-105220012D01*
X75033014Y-105197140D01*
X75102503Y-105159997D01*
X75163411Y-105110011D01*
X75175937Y-105094748D01*
X75420393Y-104850292D01*
X75675000Y-104850292D01*
X75675000Y-104953708D01*
X75695176Y-105055137D01*
X75734751Y-105150681D01*
X75792206Y-105236668D01*
X75865332Y-105309794D01*
X75951319Y-105367249D01*
X76046863Y-105406824D01*
X76148292Y-105427000D01*
X76251708Y-105427000D01*
X76353137Y-105406824D01*
X76448681Y-105367249D01*
X76534668Y-105309794D01*
X76607794Y-105236668D01*
X76665249Y-105150681D01*
X76704824Y-105055137D01*
X76725000Y-104953708D01*
X76725000Y-104850292D01*
X76704824Y-104748863D01*
X76665249Y-104653319D01*
X76607794Y-104567332D01*
X76534668Y-104494206D01*
X76448681Y-104436751D01*
X76353137Y-104397176D01*
X76251708Y-104377000D01*
X76148292Y-104377000D01*
X76046863Y-104397176D01*
X75951319Y-104436751D01*
X75865332Y-104494206D01*
X75792206Y-104567332D01*
X75734751Y-104653319D01*
X75695176Y-104748863D01*
X75675000Y-104850292D01*
X75420393Y-104850292D01*
X77139943Y-103130742D01*
X78359750Y-103130742D01*
X78359750Y-103234158D01*
X78379926Y-103335587D01*
X78419501Y-103431131D01*
X78476956Y-103517118D01*
X78550082Y-103590244D01*
X78636069Y-103647699D01*
X78731613Y-103687274D01*
X78833042Y-103707450D01*
X78936458Y-103707450D01*
X79037887Y-103687274D01*
X79133431Y-103647699D01*
X79219418Y-103590244D01*
X79292544Y-103517118D01*
X79349999Y-103431131D01*
X79389574Y-103335587D01*
X79409750Y-103234158D01*
X79409750Y-103130742D01*
X79389574Y-103029313D01*
X79349999Y-102933769D01*
X79292544Y-102847782D01*
X79219418Y-102774656D01*
X79133431Y-102717201D01*
X79037887Y-102677626D01*
X78936458Y-102657450D01*
X78833042Y-102657450D01*
X78731613Y-102677626D01*
X78636069Y-102717201D01*
X78550082Y-102774656D01*
X78476956Y-102847782D01*
X78419501Y-102933769D01*
X78379926Y-103029313D01*
X78359750Y-103130742D01*
X77139943Y-103130742D01*
X78342003Y-101928683D01*
X78350949Y-101950281D01*
X78408404Y-102036268D01*
X78481530Y-102109394D01*
X78567517Y-102166849D01*
X78663061Y-102206424D01*
X78764490Y-102226600D01*
X78867906Y-102226600D01*
X78969335Y-102206424D01*
X79064879Y-102166849D01*
X79150866Y-102109394D01*
X79180410Y-102079850D01*
X83256925Y-102079850D01*
X85146026Y-103968952D01*
X85137270Y-103989089D01*
X85110256Y-104072850D01*
X85100102Y-104160272D01*
X85107199Y-104247995D01*
X85123118Y-104303971D01*
X85092896Y-104312565D01*
X85040301Y-104339509D01*
X85024735Y-104351836D01*
X85008648Y-104346871D01*
X84989154Y-104344803D01*
X84969631Y-104346577D01*
X84950829Y-104352126D01*
X84933472Y-104361236D01*
X84918225Y-104373558D01*
X84905674Y-104388618D01*
X84896303Y-104405836D01*
X84477203Y-105396436D01*
X84469868Y-105424755D01*
X84469702Y-105444358D01*
X84473363Y-105463617D01*
X84480712Y-105481791D01*
X84491464Y-105498182D01*
X84505208Y-105512161D01*
X84521415Y-105523190D01*
X84761150Y-105653955D01*
X84761828Y-105654871D01*
X84776339Y-105668053D01*
X84793142Y-105678150D01*
X85658505Y-106088642D01*
X85192573Y-107160211D01*
X85174435Y-107216453D01*
X85167617Y-107275153D01*
X85172382Y-107334055D01*
X85188547Y-107390896D01*
X85215490Y-107443491D01*
X85252176Y-107489820D01*
X85297196Y-107528100D01*
X85348819Y-107556863D01*
X86311732Y-107975549D01*
X86367974Y-107993687D01*
X86426674Y-108000505D01*
X86485576Y-107995740D01*
X86526044Y-107984231D01*
X86545226Y-108021677D01*
X86581913Y-108068006D01*
X86626933Y-108106287D01*
X86678555Y-108135049D01*
X86696311Y-108142693D01*
X86623292Y-108317938D01*
X86617767Y-108335697D01*
X86615607Y-108355181D01*
X86617291Y-108374712D01*
X86622752Y-108393539D01*
X86631782Y-108410939D01*
X86644032Y-108426243D01*
X86659033Y-108438863D01*
X86676208Y-108448315D01*
X87387408Y-108753115D01*
X87396962Y-108756645D01*
X87416155Y-108760632D01*
X87435758Y-108760798D01*
X87452645Y-108757588D01*
X84428974Y-115726098D01*
X84357384Y-115854951D01*
X84272449Y-115955258D01*
X84169649Y-116037156D01*
X84052905Y-116097524D01*
X83925749Y-116134331D01*
X83788463Y-116146999D01*
X81225493Y-116146999D01*
X81175910Y-116142138D01*
X81143509Y-116132355D01*
X81113615Y-116116461D01*
X81087385Y-116095067D01*
X81065810Y-116068988D01*
X81049710Y-116039212D01*
X81039700Y-116006874D01*
X81034599Y-115958341D01*
X81034599Y-112856038D01*
X81033228Y-112842115D01*
X81033249Y-112839054D01*
X81032807Y-112834537D01*
X81022607Y-112737489D01*
X81016682Y-112708628D01*
X81011164Y-112679700D01*
X81009853Y-112675355D01*
X80980997Y-112582136D01*
X80969568Y-112554949D01*
X80958546Y-112527668D01*
X80956416Y-112523661D01*
X80910003Y-112437824D01*
X80893535Y-112413410D01*
X80877402Y-112388757D01*
X80874534Y-112385240D01*
X80812332Y-112310051D01*
X80791426Y-112289291D01*
X80770824Y-112268252D01*
X80767327Y-112265359D01*
X80691707Y-112203683D01*
X80667175Y-112187384D01*
X80642863Y-112170738D01*
X80638872Y-112168579D01*
X80552711Y-112122767D01*
X80525460Y-112111535D01*
X80498406Y-112099940D01*
X80494071Y-112098598D01*
X80400653Y-112070393D01*
X80371762Y-112064673D01*
X80342943Y-112058547D01*
X80338429Y-112058072D01*
X80241312Y-112048550D01*
X80241307Y-112048550D01*
X80225560Y-112046999D01*
X60693640Y-112046999D01*
X60679717Y-112048370D01*
X60676656Y-112048349D01*
X60672139Y-112048791D01*
X60575091Y-112058991D01*
X60546230Y-112064916D01*
X60517302Y-112070434D01*
X60512957Y-112071745D01*
X60419738Y-112100601D01*
X60392551Y-112112030D01*
X60365270Y-112123052D01*
X60361263Y-112125182D01*
X60275426Y-112171595D01*
X60251012Y-112188063D01*
X60226359Y-112204196D01*
X60222842Y-112207064D01*
X60147653Y-112269266D01*
X60126893Y-112290172D01*
X60105854Y-112310774D01*
X60102961Y-112314271D01*
X60102957Y-112314275D01*
X60041285Y-112389891D01*
X60024986Y-112414423D01*
X60008340Y-112438735D01*
X60006181Y-112442726D01*
X59960369Y-112528887D01*
X59949137Y-112556138D01*
X59937542Y-112583192D01*
X59936200Y-112587527D01*
X59907995Y-112680945D01*
X59902275Y-112709836D01*
X59896149Y-112738655D01*
X59895674Y-112743169D01*
X59886152Y-112840286D01*
X59886152Y-112840301D01*
X59884602Y-112856038D01*
X59884601Y-115956105D01*
X59879740Y-116005688D01*
X59869957Y-116038089D01*
X59854063Y-116067983D01*
X59832669Y-116094213D01*
X59806590Y-116115788D01*
X59776814Y-116131888D01*
X59744476Y-116141898D01*
X59695943Y-116146999D01*
X57131680Y-116146999D01*
X56984969Y-116132614D01*
X56859148Y-116094626D01*
X56743098Y-116032921D01*
X56641246Y-115949852D01*
X56556869Y-115847858D01*
X56490596Y-115726950D01*
X54299662Y-110677610D01*
X62095040Y-110677610D01*
X62095040Y-110911870D01*
X62140742Y-111141630D01*
X62230390Y-111358059D01*
X62360539Y-111552840D01*
X62526186Y-111718487D01*
X62720967Y-111848636D01*
X62937396Y-111938284D01*
X63167156Y-111983986D01*
X63401416Y-111983986D01*
X63631176Y-111938284D01*
X63847605Y-111848636D01*
X64042386Y-111718487D01*
X64208033Y-111552840D01*
X64338182Y-111358059D01*
X64427830Y-111141630D01*
X64473532Y-110911870D01*
X64473532Y-110677610D01*
X76445667Y-110677610D01*
X76445667Y-110911870D01*
X76491369Y-111141630D01*
X76581017Y-111358059D01*
X76711166Y-111552840D01*
X76876813Y-111718487D01*
X77071594Y-111848636D01*
X77288023Y-111938284D01*
X77517783Y-111983986D01*
X77752043Y-111983986D01*
X77981803Y-111938284D01*
X78198232Y-111848636D01*
X78393013Y-111718487D01*
X78558660Y-111552840D01*
X78688809Y-111358059D01*
X78778457Y-111141630D01*
X78824159Y-110911870D01*
X78824159Y-110677610D01*
X78778457Y-110447850D01*
X78688809Y-110231421D01*
X78558660Y-110036640D01*
X78393013Y-109870993D01*
X78198232Y-109740844D01*
X77981803Y-109651196D01*
X77752043Y-109605494D01*
X77517783Y-109605494D01*
X77288023Y-109651196D01*
X77071594Y-109740844D01*
X76876813Y-109870993D01*
X76711166Y-110036640D01*
X76581017Y-110231421D01*
X76491369Y-110447850D01*
X76445667Y-110677610D01*
X64473532Y-110677610D01*
X64427830Y-110447850D01*
X64338182Y-110231421D01*
X64208033Y-110036640D01*
X64042386Y-109870993D01*
X63847605Y-109740844D01*
X63631176Y-109651196D01*
X63401416Y-109605494D01*
X63167156Y-109605494D01*
X62937396Y-109651196D01*
X62720967Y-109740844D01*
X62526186Y-109870993D01*
X62360539Y-110036640D01*
X62230390Y-110231421D01*
X62140742Y-110447850D01*
X62095040Y-110677610D01*
X54299662Y-110677610D01*
X50745344Y-102486147D01*
X50477109Y-101677743D01*
X50392494Y-101214783D01*
X50320430Y-100530183D01*
X51947613Y-100530183D01*
X51947613Y-100764443D01*
X51993315Y-100994203D01*
X52082963Y-101210632D01*
X52213112Y-101405413D01*
X52378759Y-101571060D01*
X52573540Y-101701209D01*
X52789969Y-101790857D01*
X53019729Y-101836559D01*
X53253989Y-101836559D01*
X53483749Y-101790857D01*
X53700178Y-101701209D01*
X53894959Y-101571060D01*
X54060606Y-101405413D01*
X54190755Y-101210632D01*
X54280403Y-100994203D01*
X54326105Y-100764443D01*
X54326105Y-100530183D01*
X54280403Y-100300423D01*
X54190755Y-100083994D01*
X54060606Y-99889213D01*
X53894959Y-99723566D01*
X53700178Y-99593417D01*
X53483749Y-99503769D01*
X53253989Y-99458067D01*
X53019729Y-99458067D01*
X52789969Y-99503769D01*
X52573540Y-99593417D01*
X52378759Y-99723566D01*
X52213112Y-99889213D01*
X52082963Y-100083994D01*
X51993315Y-100300423D01*
X51947613Y-100530183D01*
X50320430Y-100530183D01*
X50168250Y-99084492D01*
X58809400Y-99084492D01*
X58809400Y-99187908D01*
X58829576Y-99289337D01*
X58869151Y-99384881D01*
X58926606Y-99470868D01*
X58999732Y-99543994D01*
X59085719Y-99601449D01*
X59181263Y-99641024D01*
X59282692Y-99661200D01*
X59386108Y-99661200D01*
X59487537Y-99641024D01*
X59583081Y-99601449D01*
X59669068Y-99543994D01*
X59742194Y-99470868D01*
X59799649Y-99384881D01*
X59839224Y-99289337D01*
X59859400Y-99187908D01*
X59859400Y-99084492D01*
X59839224Y-98983063D01*
X59799649Y-98887519D01*
X59742194Y-98801532D01*
X59669068Y-98728406D01*
X59583081Y-98670951D01*
X59487537Y-98631376D01*
X59386108Y-98611200D01*
X59282692Y-98611200D01*
X59181263Y-98631376D01*
X59085719Y-98670951D01*
X58999732Y-98728406D01*
X58926606Y-98801532D01*
X58869151Y-98887519D01*
X58829576Y-98983063D01*
X58809400Y-99084492D01*
X50168250Y-99084492D01*
X50076764Y-98215390D01*
X50038433Y-97509692D01*
X57615600Y-97509692D01*
X57615600Y-97613108D01*
X57635776Y-97714537D01*
X57675351Y-97810081D01*
X57732806Y-97896068D01*
X57805932Y-97969194D01*
X57891919Y-98026649D01*
X57987463Y-98066224D01*
X58088892Y-98086400D01*
X58192308Y-98086400D01*
X58293737Y-98066224D01*
X58389281Y-98026649D01*
X58475268Y-97969194D01*
X58548394Y-97896068D01*
X58605849Y-97810081D01*
X58645424Y-97714537D01*
X58665600Y-97613108D01*
X58665600Y-97509692D01*
X58645424Y-97408263D01*
X58605849Y-97312719D01*
X58548394Y-97226732D01*
X58475268Y-97153606D01*
X58389281Y-97096151D01*
X58293737Y-97056576D01*
X58192308Y-97036400D01*
X58088892Y-97036400D01*
X57987463Y-97056576D01*
X57891919Y-97096151D01*
X57805932Y-97153606D01*
X57732806Y-97226732D01*
X57675351Y-97312719D01*
X57635776Y-97408263D01*
X57615600Y-97509692D01*
X50038433Y-97509692D01*
X49912962Y-95199724D01*
X49901941Y-92179658D01*
X50043730Y-89162881D01*
X50335769Y-86179556D01*
X51947613Y-86179556D01*
X51947613Y-86413816D01*
X51993315Y-86643576D01*
X52082963Y-86860005D01*
X52213112Y-87054786D01*
X52378759Y-87220433D01*
X52573540Y-87350582D01*
X52789969Y-87440230D01*
X53019729Y-87485932D01*
X53253989Y-87485932D01*
X53483749Y-87440230D01*
X53700178Y-87350582D01*
X53894959Y-87220433D01*
X54060606Y-87054786D01*
X54190755Y-86860005D01*
X54280403Y-86643576D01*
X54326105Y-86413816D01*
X54326105Y-86179556D01*
X54280403Y-85949796D01*
X54190755Y-85733367D01*
X54060606Y-85538586D01*
X53894959Y-85372939D01*
X53700178Y-85242790D01*
X53483749Y-85153142D01*
X53253989Y-85107440D01*
X53019729Y-85107440D01*
X52789969Y-85153142D01*
X52573540Y-85242790D01*
X52378759Y-85372939D01*
X52213112Y-85538586D01*
X52082963Y-85733367D01*
X51993315Y-85949796D01*
X51947613Y-86179556D01*
X50335769Y-86179556D01*
X50338304Y-86153669D01*
X50391072Y-85738880D01*
X50576150Y-84908098D01*
X50742862Y-84463570D01*
X50835144Y-84250892D01*
X61857400Y-84250892D01*
X61857400Y-84354308D01*
X61877576Y-84455737D01*
X61917151Y-84551281D01*
X61974606Y-84637268D01*
X62047732Y-84710394D01*
X62133719Y-84767849D01*
X62229263Y-84807424D01*
X62330692Y-84827600D01*
X62434108Y-84827600D01*
X62535537Y-84807424D01*
X62631081Y-84767849D01*
X62717068Y-84710394D01*
X62790194Y-84637268D01*
X62847649Y-84551281D01*
X62887224Y-84455737D01*
X62907400Y-84354308D01*
X62907400Y-84250892D01*
X62887224Y-84149463D01*
X62847649Y-84053919D01*
X62792573Y-83971492D01*
X64968902Y-83971492D01*
X64968902Y-84074908D01*
X64989078Y-84176337D01*
X65028653Y-84271881D01*
X65086108Y-84357868D01*
X65159234Y-84430994D01*
X65245221Y-84488449D01*
X65340765Y-84528024D01*
X65442194Y-84548200D01*
X65545610Y-84548200D01*
X65647039Y-84528024D01*
X65742583Y-84488449D01*
X65828570Y-84430994D01*
X65901696Y-84357868D01*
X65959151Y-84271881D01*
X65998726Y-84176337D01*
X66018902Y-84074908D01*
X66018902Y-83971492D01*
X65998726Y-83870063D01*
X65959151Y-83774519D01*
X65901696Y-83688532D01*
X65828570Y-83615406D01*
X65742583Y-83557951D01*
X65647039Y-83518376D01*
X65545610Y-83498200D01*
X65442194Y-83498200D01*
X65340765Y-83518376D01*
X65245221Y-83557951D01*
X65159234Y-83615406D01*
X65086108Y-83688532D01*
X65028653Y-83774519D01*
X64989078Y-83870063D01*
X64968902Y-83971492D01*
X62792573Y-83971492D01*
X62790194Y-83967932D01*
X62717068Y-83894806D01*
X62631081Y-83837351D01*
X62535537Y-83797776D01*
X62434108Y-83777600D01*
X62330692Y-83777600D01*
X62229263Y-83797776D01*
X62133719Y-83837351D01*
X62047732Y-83894806D01*
X61974606Y-83967932D01*
X61917151Y-84053919D01*
X61877576Y-84149463D01*
X61857400Y-84250892D01*
X50835144Y-84250892D01*
X51386203Y-82980892D01*
X63914800Y-82980892D01*
X63914800Y-83084308D01*
X63934976Y-83185737D01*
X63974551Y-83281281D01*
X64032006Y-83367268D01*
X64105132Y-83440394D01*
X64191119Y-83497849D01*
X64286663Y-83537424D01*
X64388092Y-83557600D01*
X64491508Y-83557600D01*
X64592937Y-83537424D01*
X64688481Y-83497849D01*
X64774468Y-83440394D01*
X64847594Y-83367268D01*
X64905049Y-83281281D01*
X64944624Y-83185737D01*
X64964800Y-83084308D01*
X64964800Y-82980892D01*
X64944624Y-82879463D01*
X64905049Y-82783919D01*
X64847594Y-82697932D01*
X64774468Y-82624806D01*
X64688481Y-82567351D01*
X64592937Y-82527776D01*
X64491508Y-82507600D01*
X64388092Y-82507600D01*
X64286663Y-82527776D01*
X64191119Y-82567351D01*
X64105132Y-82624806D01*
X64032006Y-82697932D01*
X63974551Y-82783919D01*
X63934976Y-82879463D01*
X63914800Y-82980892D01*
X51386203Y-82980892D01*
X51926241Y-81736292D01*
X66759600Y-81736292D01*
X66759600Y-81839708D01*
X66779776Y-81941137D01*
X66819351Y-82036681D01*
X66876806Y-82122668D01*
X66949932Y-82195794D01*
X67035919Y-82253249D01*
X67131463Y-82292824D01*
X67232892Y-82313000D01*
X67336308Y-82313000D01*
X67437737Y-82292824D01*
X67533281Y-82253249D01*
X67619268Y-82195794D01*
X67692394Y-82122668D01*
X67749849Y-82036681D01*
X67789424Y-81941137D01*
X67809600Y-81839708D01*
X67809600Y-81736292D01*
X67790582Y-81640680D01*
X70245625Y-81640680D01*
X70247561Y-81660336D01*
X70247560Y-84928113D01*
X70245625Y-84947760D01*
X70247560Y-84967406D01*
X70253348Y-85026173D01*
X70276220Y-85101573D01*
X70313363Y-85171062D01*
X70363349Y-85231971D01*
X70378612Y-85244497D01*
X71103000Y-85968885D01*
X71103000Y-85979908D01*
X71123176Y-86081337D01*
X71162751Y-86176881D01*
X71220206Y-86262868D01*
X71293332Y-86335994D01*
X71379319Y-86393449D01*
X71474863Y-86433024D01*
X71576292Y-86453200D01*
X71679708Y-86453200D01*
X71781137Y-86433024D01*
X71876681Y-86393449D01*
X71962668Y-86335994D01*
X72035794Y-86262868D01*
X72093249Y-86176881D01*
X72132824Y-86081337D01*
X72153000Y-85979908D01*
X72153000Y-85876492D01*
X72132824Y-85775063D01*
X72093249Y-85679519D01*
X72035794Y-85593532D01*
X71962668Y-85520406D01*
X71876681Y-85462951D01*
X71781137Y-85423376D01*
X71679708Y-85403200D01*
X71668685Y-85403200D01*
X71047560Y-84782075D01*
X71047560Y-82955492D01*
X76005200Y-82955492D01*
X76005200Y-83058908D01*
X76025376Y-83160337D01*
X76064951Y-83255881D01*
X76122406Y-83341868D01*
X76195532Y-83414994D01*
X76281519Y-83472449D01*
X76377063Y-83512024D01*
X76478492Y-83532200D01*
X76581908Y-83532200D01*
X76683337Y-83512024D01*
X76778881Y-83472449D01*
X76864868Y-83414994D01*
X76937994Y-83341868D01*
X76995449Y-83255881D01*
X77035024Y-83160337D01*
X77055200Y-83058908D01*
X77055200Y-82955492D01*
X77035024Y-82854063D01*
X76995449Y-82758519D01*
X76937994Y-82672532D01*
X76864868Y-82599406D01*
X76778881Y-82541951D01*
X76683337Y-82502376D01*
X76581908Y-82482200D01*
X76478492Y-82482200D01*
X76377063Y-82502376D01*
X76281519Y-82541951D01*
X76195532Y-82599406D01*
X76122406Y-82672532D01*
X76064951Y-82758519D01*
X76025376Y-82854063D01*
X76005200Y-82955492D01*
X71047560Y-82955492D01*
X71047560Y-81806365D01*
X72342325Y-80511600D01*
X72987338Y-80511600D01*
X72995132Y-80519394D01*
X73081119Y-80576849D01*
X73176663Y-80616424D01*
X73278092Y-80636600D01*
X73381508Y-80636600D01*
X73482937Y-80616424D01*
X73578481Y-80576849D01*
X73664468Y-80519394D01*
X73737594Y-80446268D01*
X73795049Y-80360281D01*
X73834624Y-80264737D01*
X73854800Y-80163308D01*
X73854800Y-80059892D01*
X73834624Y-79958463D01*
X73795049Y-79862919D01*
X73737594Y-79776932D01*
X73664468Y-79703806D01*
X73578481Y-79646351D01*
X73482937Y-79606776D01*
X73381508Y-79586600D01*
X73278092Y-79586600D01*
X73176663Y-79606776D01*
X73081119Y-79646351D01*
X72995132Y-79703806D01*
X72987338Y-79711600D01*
X72196287Y-79711600D01*
X72176640Y-79709665D01*
X72156993Y-79711600D01*
X72098226Y-79717388D01*
X72022826Y-79740260D01*
X71953337Y-79777403D01*
X71892429Y-79827389D01*
X71879903Y-79842652D01*
X70378608Y-81343947D01*
X70363350Y-81356469D01*
X70350828Y-81371727D01*
X70350825Y-81371730D01*
X70313363Y-81417378D01*
X70276221Y-81486866D01*
X70253348Y-81562267D01*
X70245625Y-81640680D01*
X67790582Y-81640680D01*
X67789424Y-81634863D01*
X67749849Y-81539319D01*
X67692394Y-81453332D01*
X67619268Y-81380206D01*
X67533281Y-81322751D01*
X67437737Y-81283176D01*
X67336308Y-81263000D01*
X67232892Y-81263000D01*
X67131463Y-81283176D01*
X67035919Y-81322751D01*
X66949932Y-81380206D01*
X66876806Y-81453332D01*
X66819351Y-81539319D01*
X66779776Y-81634863D01*
X66759600Y-81736292D01*
X51926241Y-81736292D01*
X54401307Y-76032129D01*
X62095040Y-76032129D01*
X62095040Y-76266389D01*
X62140742Y-76496149D01*
X62230390Y-76712578D01*
X62360539Y-76907359D01*
X62526186Y-77073006D01*
X62720967Y-77203155D01*
X62937396Y-77292803D01*
X63167156Y-77338505D01*
X63401416Y-77338505D01*
X63631176Y-77292803D01*
X63847605Y-77203155D01*
X64042386Y-77073006D01*
X64208033Y-76907359D01*
X64338182Y-76712578D01*
X64427830Y-76496149D01*
X64473532Y-76266389D01*
X64473532Y-76032129D01*
X76445667Y-76032129D01*
X76445667Y-76266389D01*
X76491369Y-76496149D01*
X76581017Y-76712578D01*
X76711166Y-76907359D01*
X76876813Y-77073006D01*
X77071594Y-77203155D01*
X77288023Y-77292803D01*
X77517783Y-77338505D01*
X77752043Y-77338505D01*
X77981803Y-77292803D01*
X78198232Y-77203155D01*
X78393013Y-77073006D01*
X78558660Y-76907359D01*
X78688809Y-76712578D01*
X78778457Y-76496149D01*
X78824159Y-76266389D01*
X78824159Y-76032129D01*
X78778457Y-75802369D01*
X78688809Y-75585940D01*
X78558660Y-75391159D01*
X78393013Y-75225512D01*
X78198232Y-75095363D01*
X77981803Y-75005715D01*
X77752043Y-74960013D01*
X77517783Y-74960013D01*
X77288023Y-75005715D01*
X77071594Y-75095363D01*
X76876813Y-75225512D01*
X76711166Y-75391159D01*
X76581017Y-75585940D01*
X76491369Y-75802369D01*
X76445667Y-76032129D01*
X64473532Y-76032129D01*
X64427830Y-75802369D01*
X64338182Y-75585940D01*
X64208033Y-75391159D01*
X64042386Y-75225512D01*
X63847605Y-75095363D01*
X63631176Y-75005715D01*
X63401416Y-74960013D01*
X63167156Y-74960013D01*
X62937396Y-75005715D01*
X62720967Y-75095363D01*
X62526186Y-75225512D01*
X62360539Y-75391159D01*
X62230390Y-75585940D01*
X62140742Y-75802369D01*
X62095040Y-76032129D01*
X54401307Y-76032129D01*
X56490228Y-71217895D01*
X56561814Y-71089049D01*
X56646749Y-70988743D01*
X56749548Y-70906844D01*
X56866292Y-70846475D01*
X56993450Y-70809668D01*
X57130746Y-70796999D01*
X59693707Y-70797001D01*
G36*
X87633105Y-107381744D02*
G01*
X87625130Y-107400085D01*
X87643472Y-107408060D01*
X87603597Y-107499766D01*
X87585256Y-107491791D01*
X87577281Y-107510133D01*
X87485575Y-107470258D01*
X87493550Y-107451917D01*
X87475208Y-107443942D01*
X87515083Y-107352236D01*
X87533424Y-107360211D01*
X87541399Y-107341869D01*
X87633105Y-107381744D01*
G37*
X87633105Y-107381744D02*
X87625130Y-107400085D01*
X87643472Y-107408060D01*
X87603597Y-107499766D01*
X87585256Y-107491791D01*
X87577281Y-107510133D01*
X87485575Y-107470258D01*
X87493550Y-107451917D01*
X87475208Y-107443942D01*
X87515083Y-107352236D01*
X87533424Y-107360211D01*
X87541399Y-107341869D01*
X87633105Y-107381744D01*
G36*
X62305294Y-100899487D02*
G01*
X62316914Y-100913646D01*
X62373406Y-100960008D01*
X62437858Y-100994458D01*
X62498976Y-101012998D01*
X62507791Y-101015672D01*
X62580520Y-101022835D01*
X62598745Y-101021040D01*
X62991378Y-101021040D01*
X63028172Y-101057834D01*
X63114159Y-101115289D01*
X63209703Y-101154864D01*
X63311132Y-101175040D01*
X63414548Y-101175040D01*
X63515977Y-101154864D01*
X63611521Y-101115289D01*
X63697508Y-101057834D01*
X63770634Y-100984708D01*
X63828089Y-100898721D01*
X63867664Y-100803177D01*
X63887840Y-100701748D01*
X63887840Y-100598332D01*
X63880685Y-100562360D01*
X64538962Y-100562360D01*
X64548403Y-100568668D01*
X64643947Y-100608243D01*
X64745376Y-100628419D01*
X64848792Y-100628419D01*
X64925711Y-100613119D01*
X64924428Y-100617347D01*
X64916705Y-100695760D01*
X64918641Y-100715416D01*
X64918641Y-101975826D01*
X64892636Y-101965055D01*
X64791207Y-101944879D01*
X64687791Y-101944879D01*
X64586362Y-101965055D01*
X64490818Y-102004630D01*
X64404831Y-102062085D01*
X64331705Y-102135211D01*
X64274250Y-102221198D01*
X64234675Y-102316742D01*
X64214499Y-102418171D01*
X64214499Y-102521587D01*
X64234675Y-102623016D01*
X64274250Y-102718560D01*
X64331705Y-102804547D01*
X64404831Y-102877673D01*
X64490818Y-102935128D01*
X64586362Y-102974703D01*
X64687791Y-102994879D01*
X64791207Y-102994879D01*
X64892636Y-102974703D01*
X64918640Y-102963932D01*
X64918640Y-104440393D01*
X64916705Y-104460040D01*
X64918640Y-104479686D01*
X64924428Y-104538453D01*
X64947300Y-104613853D01*
X64984443Y-104683342D01*
X65034429Y-104744251D01*
X65049692Y-104756777D01*
X65427049Y-105134134D01*
X65427049Y-105432400D01*
X65436444Y-105527790D01*
X65464268Y-105619513D01*
X65509452Y-105704047D01*
X65570259Y-105778141D01*
X65644353Y-105838948D01*
X65728887Y-105884132D01*
X65820610Y-105911956D01*
X65916000Y-105921351D01*
X66291000Y-105921351D01*
X66386390Y-105911956D01*
X66478113Y-105884132D01*
X66562647Y-105838948D01*
X66636741Y-105778141D01*
X66697548Y-105704047D01*
X66742732Y-105619513D01*
X66770556Y-105527790D01*
X66772024Y-105512886D01*
X66835632Y-105576494D01*
X66921619Y-105633949D01*
X67017163Y-105673524D01*
X67118592Y-105693700D01*
X67165766Y-105693700D01*
X67127781Y-105830122D01*
X67115941Y-105987263D01*
X67134984Y-106143694D01*
X67184181Y-106293404D01*
X67241125Y-106399938D01*
X67370069Y-106447620D01*
X67848889Y-105968800D01*
X67834747Y-105954658D01*
X67905458Y-105883947D01*
X67919600Y-105898089D01*
X67933742Y-105883947D01*
X68004453Y-105954658D01*
X67990311Y-105968800D01*
X68004453Y-105982942D01*
X67933742Y-106053653D01*
X67919600Y-106039511D01*
X67440780Y-106518331D01*
X67458888Y-106567300D01*
X67404504Y-106567300D01*
X67384995Y-106569221D01*
X67366236Y-106574912D01*
X67348947Y-106584153D01*
X67333793Y-106596589D01*
X67321357Y-106611743D01*
X67312116Y-106629032D01*
X67306425Y-106647791D01*
X67304504Y-106667300D01*
X67304504Y-106940800D01*
X65123841Y-106940800D01*
X62118933Y-103935892D01*
X63025800Y-103935892D01*
X63025800Y-104039308D01*
X63045976Y-104140737D01*
X63085551Y-104236281D01*
X63143006Y-104322268D01*
X63216132Y-104395394D01*
X63302119Y-104452849D01*
X63397663Y-104492424D01*
X63499092Y-104512600D01*
X63602508Y-104512600D01*
X63703937Y-104492424D01*
X63799481Y-104452849D01*
X63885468Y-104395394D01*
X63958594Y-104322268D01*
X64016049Y-104236281D01*
X64055624Y-104140737D01*
X64075800Y-104039308D01*
X64075800Y-103935892D01*
X64055624Y-103834463D01*
X64016049Y-103738919D01*
X63958594Y-103652932D01*
X63885468Y-103579806D01*
X63799481Y-103522351D01*
X63703937Y-103482776D01*
X63602508Y-103462600D01*
X63499092Y-103462600D01*
X63397663Y-103482776D01*
X63302119Y-103522351D01*
X63216132Y-103579806D01*
X63143006Y-103652932D01*
X63085551Y-103738919D01*
X63045976Y-103834463D01*
X63025800Y-103935892D01*
X62118933Y-103935892D01*
X60724600Y-102541560D01*
X60724600Y-101980092D01*
X61374800Y-101980092D01*
X61374800Y-102083508D01*
X61394976Y-102184937D01*
X61434551Y-102280481D01*
X61492006Y-102366468D01*
X61565132Y-102439594D01*
X61651119Y-102497049D01*
X61746663Y-102536624D01*
X61848092Y-102556800D01*
X61951508Y-102556800D01*
X62052937Y-102536624D01*
X62148481Y-102497049D01*
X62234468Y-102439594D01*
X62307594Y-102366468D01*
X62365049Y-102280481D01*
X62404624Y-102184937D01*
X62424800Y-102083508D01*
X62424800Y-101980092D01*
X62404624Y-101878663D01*
X62365049Y-101783119D01*
X62307594Y-101697132D01*
X62234468Y-101624006D01*
X62148481Y-101566551D01*
X62052937Y-101526976D01*
X61951508Y-101506800D01*
X61848092Y-101506800D01*
X61746663Y-101526976D01*
X61651119Y-101566551D01*
X61565132Y-101624006D01*
X61492006Y-101697132D01*
X61434551Y-101783119D01*
X61394976Y-101878663D01*
X61374800Y-101980092D01*
X60724600Y-101980092D01*
X60724600Y-99837400D01*
X61243208Y-99837400D01*
X62305294Y-100899487D01*
G37*
X62305294Y-100899487D02*
X62316914Y-100913646D01*
X62373406Y-100960008D01*
X62437858Y-100994458D01*
X62498976Y-101012998D01*
X62507791Y-101015672D01*
X62580520Y-101022835D01*
X62598745Y-101021040D01*
X62991378Y-101021040D01*
X63028172Y-101057834D01*
X63114159Y-101115289D01*
X63209703Y-101154864D01*
X63311132Y-101175040D01*
X63414548Y-101175040D01*
X63515977Y-101154864D01*
X63611521Y-101115289D01*
X63697508Y-101057834D01*
X63770634Y-100984708D01*
X63828089Y-100898721D01*
X63867664Y-100803177D01*
X63887840Y-100701748D01*
X63887840Y-100598332D01*
X63880685Y-100562360D01*
X64538962Y-100562360D01*
X64548403Y-100568668D01*
X64643947Y-100608243D01*
X64745376Y-100628419D01*
X64848792Y-100628419D01*
X64925711Y-100613119D01*
X64924428Y-100617347D01*
X64916705Y-100695760D01*
X64918641Y-100715416D01*
X64918641Y-101975826D01*
X64892636Y-101965055D01*
X64791207Y-101944879D01*
X64687791Y-101944879D01*
X64586362Y-101965055D01*
X64490818Y-102004630D01*
X64404831Y-102062085D01*
X64331705Y-102135211D01*
X64274250Y-102221198D01*
X64234675Y-102316742D01*
X64214499Y-102418171D01*
X64214499Y-102521587D01*
X64234675Y-102623016D01*
X64274250Y-102718560D01*
X64331705Y-102804547D01*
X64404831Y-102877673D01*
X64490818Y-102935128D01*
X64586362Y-102974703D01*
X64687791Y-102994879D01*
X64791207Y-102994879D01*
X64892636Y-102974703D01*
X64918640Y-102963932D01*
X64918640Y-104440393D01*
X64916705Y-104460040D01*
X64918640Y-104479686D01*
X64924428Y-104538453D01*
X64947300Y-104613853D01*
X64984443Y-104683342D01*
X65034429Y-104744251D01*
X65049692Y-104756777D01*
X65427049Y-105134134D01*
X65427049Y-105432400D01*
X65436444Y-105527790D01*
X65464268Y-105619513D01*
X65509452Y-105704047D01*
X65570259Y-105778141D01*
X65644353Y-105838948D01*
X65728887Y-105884132D01*
X65820610Y-105911956D01*
X65916000Y-105921351D01*
X66291000Y-105921351D01*
X66386390Y-105911956D01*
X66478113Y-105884132D01*
X66562647Y-105838948D01*
X66636741Y-105778141D01*
X66697548Y-105704047D01*
X66742732Y-105619513D01*
X66770556Y-105527790D01*
X66772024Y-105512886D01*
X66835632Y-105576494D01*
X66921619Y-105633949D01*
X67017163Y-105673524D01*
X67118592Y-105693700D01*
X67165766Y-105693700D01*
X67127781Y-105830122D01*
X67115941Y-105987263D01*
X67134984Y-106143694D01*
X67184181Y-106293404D01*
X67241125Y-106399938D01*
X67370069Y-106447620D01*
X67848889Y-105968800D01*
X67834747Y-105954658D01*
X67905458Y-105883947D01*
X67919600Y-105898089D01*
X67933742Y-105883947D01*
X68004453Y-105954658D01*
X67990311Y-105968800D01*
X68004453Y-105982942D01*
X67933742Y-106053653D01*
X67919600Y-106039511D01*
X67440780Y-106518331D01*
X67458888Y-106567300D01*
X67404504Y-106567300D01*
X67384995Y-106569221D01*
X67366236Y-106574912D01*
X67348947Y-106584153D01*
X67333793Y-106596589D01*
X67321357Y-106611743D01*
X67312116Y-106629032D01*
X67306425Y-106647791D01*
X67304504Y-106667300D01*
X67304504Y-106940800D01*
X65123841Y-106940800D01*
X62118933Y-103935892D01*
X63025800Y-103935892D01*
X63025800Y-104039308D01*
X63045976Y-104140737D01*
X63085551Y-104236281D01*
X63143006Y-104322268D01*
X63216132Y-104395394D01*
X63302119Y-104452849D01*
X63397663Y-104492424D01*
X63499092Y-104512600D01*
X63602508Y-104512600D01*
X63703937Y-104492424D01*
X63799481Y-104452849D01*
X63885468Y-104395394D01*
X63958594Y-104322268D01*
X64016049Y-104236281D01*
X64055624Y-104140737D01*
X64075800Y-104039308D01*
X64075800Y-103935892D01*
X64055624Y-103834463D01*
X64016049Y-103738919D01*
X63958594Y-103652932D01*
X63885468Y-103579806D01*
X63799481Y-103522351D01*
X63703937Y-103482776D01*
X63602508Y-103462600D01*
X63499092Y-103462600D01*
X63397663Y-103482776D01*
X63302119Y-103522351D01*
X63216132Y-103579806D01*
X63143006Y-103652932D01*
X63085551Y-103738919D01*
X63045976Y-103834463D01*
X63025800Y-103935892D01*
X62118933Y-103935892D01*
X60724600Y-102541560D01*
X60724600Y-101980092D01*
X61374800Y-101980092D01*
X61374800Y-102083508D01*
X61394976Y-102184937D01*
X61434551Y-102280481D01*
X61492006Y-102366468D01*
X61565132Y-102439594D01*
X61651119Y-102497049D01*
X61746663Y-102536624D01*
X61848092Y-102556800D01*
X61951508Y-102556800D01*
X62052937Y-102536624D01*
X62148481Y-102497049D01*
X62234468Y-102439594D01*
X62307594Y-102366468D01*
X62365049Y-102280481D01*
X62404624Y-102184937D01*
X62424800Y-102083508D01*
X62424800Y-101980092D01*
X62404624Y-101878663D01*
X62365049Y-101783119D01*
X62307594Y-101697132D01*
X62234468Y-101624006D01*
X62148481Y-101566551D01*
X62052937Y-101526976D01*
X61951508Y-101506800D01*
X61848092Y-101506800D01*
X61746663Y-101526976D01*
X61651119Y-101566551D01*
X61565132Y-101624006D01*
X61492006Y-101697132D01*
X61434551Y-101783119D01*
X61394976Y-101878663D01*
X61374800Y-101980092D01*
X60724600Y-101980092D01*
X60724600Y-99837400D01*
X61243208Y-99837400D01*
X62305294Y-100899487D01*
G36*
X85452972Y-104946917D02*
G01*
X85444997Y-104965258D01*
X85463339Y-104973233D01*
X85423464Y-105064939D01*
X85405123Y-105056964D01*
X85397148Y-105075306D01*
X85305442Y-105035431D01*
X85313417Y-105017090D01*
X85295076Y-105009115D01*
X85334950Y-104917409D01*
X85353291Y-104925384D01*
X85361266Y-104907042D01*
X85452972Y-104946917D01*
G37*
X85452972Y-104946917D02*
X85444997Y-104965258D01*
X85463339Y-104973233D01*
X85423464Y-105064939D01*
X85405123Y-105056964D01*
X85397148Y-105075306D01*
X85305442Y-105035431D01*
X85313417Y-105017090D01*
X85295076Y-105009115D01*
X85334950Y-104917409D01*
X85353291Y-104925384D01*
X85361266Y-104907042D01*
X85452972Y-104946917D01*
G36*
X89068602Y-104080328D02*
G01*
X89060627Y-104098669D01*
X89078969Y-104106644D01*
X89039094Y-104198350D01*
X89020753Y-104190375D01*
X89012778Y-104208717D01*
X88921072Y-104168842D01*
X88929047Y-104150501D01*
X88910705Y-104142526D01*
X88950580Y-104050820D01*
X88968921Y-104058795D01*
X88976896Y-104040453D01*
X89068602Y-104080328D01*
G37*
X89068602Y-104080328D02*
X89060627Y-104098669D01*
X89078969Y-104106644D01*
X89039094Y-104198350D01*
X89020753Y-104190375D01*
X89012778Y-104208717D01*
X88921072Y-104168842D01*
X88929047Y-104150501D01*
X88910705Y-104142526D01*
X88950580Y-104050820D01*
X88968921Y-104058795D01*
X88976896Y-104040453D01*
X89068602Y-104080328D01*
G36*
X81529532Y-89686006D02*
G01*
X81456406Y-89759132D01*
X81398951Y-89845119D01*
X81359376Y-89940663D01*
X81339200Y-90042092D01*
X81339200Y-90145508D01*
X81358163Y-90240840D01*
X81216640Y-90240840D01*
X81158113Y-90246604D01*
X81101835Y-90263676D01*
X81049969Y-90291399D01*
X81004508Y-90328708D01*
X80867792Y-90465424D01*
X80851442Y-90478842D01*
X80813953Y-90524523D01*
X80786096Y-90576640D01*
X80768941Y-90633190D01*
X80763149Y-90692000D01*
X80763149Y-91801916D01*
X80741296Y-91797569D01*
X80637880Y-91797569D01*
X80536451Y-91817745D01*
X80440907Y-91857320D01*
X80370382Y-91904444D01*
X80309481Y-91863751D01*
X80213937Y-91824176D01*
X80112508Y-91804000D01*
X80009092Y-91804000D01*
X79907663Y-91824176D01*
X79812119Y-91863751D01*
X79726132Y-91921206D01*
X79653006Y-91994332D01*
X79595551Y-92080319D01*
X79555976Y-92175863D01*
X79535800Y-92277292D01*
X79535800Y-92380708D01*
X79555976Y-92482137D01*
X79595551Y-92577681D01*
X79653006Y-92663668D01*
X79706520Y-92717182D01*
X79706521Y-97945559D01*
X78616097Y-99035984D01*
X78605074Y-99035984D01*
X78503645Y-99056160D01*
X78408101Y-99095735D01*
X78322114Y-99153190D01*
X78248988Y-99226316D01*
X78191533Y-99312303D01*
X78151958Y-99407847D01*
X78131782Y-99509276D01*
X78131782Y-99536776D01*
X76504041Y-101164518D01*
X76493018Y-101164518D01*
X76391589Y-101184694D01*
X76296045Y-101224269D01*
X76210058Y-101281724D01*
X76136932Y-101354850D01*
X76079477Y-101440837D01*
X76039902Y-101536381D01*
X76019726Y-101637810D01*
X76019726Y-101741226D01*
X76039902Y-101842655D01*
X76079477Y-101938199D01*
X76136932Y-102024186D01*
X76210058Y-102097312D01*
X76296045Y-102154767D01*
X76301693Y-102157107D01*
X74530440Y-103928360D01*
X73627957Y-103928360D01*
X73708551Y-103807742D01*
X73768857Y-103662151D01*
X73799600Y-103507593D01*
X73799600Y-103366925D01*
X74808406Y-102358120D01*
X74822837Y-102346277D01*
X74870105Y-102288681D01*
X74905228Y-102222970D01*
X74926857Y-102151670D01*
X74932330Y-102096101D01*
X74932330Y-102096091D01*
X74934159Y-102077521D01*
X74932330Y-102058951D01*
X74932330Y-101274075D01*
X76041717Y-100164690D01*
X76435430Y-100164690D01*
X76454000Y-100166519D01*
X76472570Y-100164690D01*
X76472581Y-100164690D01*
X76528150Y-100159217D01*
X76599450Y-100137588D01*
X76665161Y-100102465D01*
X76722757Y-100055197D01*
X76734606Y-100040759D01*
X78206926Y-98568440D01*
X78221357Y-98556597D01*
X78268625Y-98499001D01*
X78303748Y-98433290D01*
X78325377Y-98361990D01*
X78330850Y-98306421D01*
X78330850Y-98306411D01*
X78332679Y-98287841D01*
X78330850Y-98269271D01*
X78330850Y-97190949D01*
X78401568Y-97143696D01*
X78474694Y-97070570D01*
X78532149Y-96984583D01*
X78565575Y-96903885D01*
X78612263Y-96923224D01*
X78713692Y-96943400D01*
X78817108Y-96943400D01*
X78918537Y-96923224D01*
X79014081Y-96883649D01*
X79100068Y-96826194D01*
X79173194Y-96753068D01*
X79230649Y-96667081D01*
X79270224Y-96571537D01*
X79290400Y-96470108D01*
X79290400Y-96366692D01*
X79270224Y-96265263D01*
X79230649Y-96169719D01*
X79173194Y-96083732D01*
X79148882Y-96059420D01*
X79167149Y-96032081D01*
X79206724Y-95936537D01*
X79226900Y-95835108D01*
X79226900Y-95731692D01*
X79206724Y-95630263D01*
X79167149Y-95534719D01*
X79109694Y-95448732D01*
X79036568Y-95375606D01*
X78950581Y-95318151D01*
X78855037Y-95278576D01*
X78753608Y-95258400D01*
X78650192Y-95258400D01*
X78548763Y-95278576D01*
X78453219Y-95318151D01*
X78367232Y-95375606D01*
X78337688Y-95405150D01*
X78300370Y-95405150D01*
X78300370Y-94195691D01*
X78547882Y-94195691D01*
X78547882Y-94299107D01*
X78568058Y-94400536D01*
X78607633Y-94496080D01*
X78665088Y-94582067D01*
X78738214Y-94655193D01*
X78824201Y-94712648D01*
X78919745Y-94752223D01*
X79021174Y-94772399D01*
X79124590Y-94772399D01*
X79226019Y-94752223D01*
X79321563Y-94712648D01*
X79407550Y-94655193D01*
X79480676Y-94582067D01*
X79538131Y-94496080D01*
X79577706Y-94400536D01*
X79597882Y-94299107D01*
X79597882Y-94195691D01*
X79577706Y-94094262D01*
X79538131Y-93998718D01*
X79480676Y-93912731D01*
X79407550Y-93839605D01*
X79321563Y-93782150D01*
X79226019Y-93742575D01*
X79124590Y-93722399D01*
X79021174Y-93722399D01*
X78919745Y-93742575D01*
X78824201Y-93782150D01*
X78738214Y-93839605D01*
X78665088Y-93912731D01*
X78607633Y-93998718D01*
X78568058Y-94094262D01*
X78547882Y-94195691D01*
X78300370Y-94195691D01*
X78300370Y-93069875D01*
X79644566Y-91725680D01*
X79658997Y-91713837D01*
X79706265Y-91656241D01*
X79741388Y-91590530D01*
X79763017Y-91519230D01*
X79768490Y-91463661D01*
X79768490Y-91463651D01*
X79770319Y-91445081D01*
X79768490Y-91426511D01*
X79768490Y-90783875D01*
X80243446Y-90308920D01*
X80285228Y-90308920D01*
X80386657Y-90288744D01*
X80482201Y-90249169D01*
X80568188Y-90191714D01*
X80641314Y-90118588D01*
X80698769Y-90032601D01*
X80738344Y-89937057D01*
X80758520Y-89835628D01*
X80758520Y-89732212D01*
X80744007Y-89659250D01*
X81569575Y-89659250D01*
X81529532Y-89686006D01*
G37*
X81529532Y-89686006D02*
X81456406Y-89759132D01*
X81398951Y-89845119D01*
X81359376Y-89940663D01*
X81339200Y-90042092D01*
X81339200Y-90145508D01*
X81358163Y-90240840D01*
X81216640Y-90240840D01*
X81158113Y-90246604D01*
X81101835Y-90263676D01*
X81049969Y-90291399D01*
X81004508Y-90328708D01*
X80867792Y-90465424D01*
X80851442Y-90478842D01*
X80813953Y-90524523D01*
X80786096Y-90576640D01*
X80768941Y-90633190D01*
X80763149Y-90692000D01*
X80763149Y-91801916D01*
X80741296Y-91797569D01*
X80637880Y-91797569D01*
X80536451Y-91817745D01*
X80440907Y-91857320D01*
X80370382Y-91904444D01*
X80309481Y-91863751D01*
X80213937Y-91824176D01*
X80112508Y-91804000D01*
X80009092Y-91804000D01*
X79907663Y-91824176D01*
X79812119Y-91863751D01*
X79726132Y-91921206D01*
X79653006Y-91994332D01*
X79595551Y-92080319D01*
X79555976Y-92175863D01*
X79535800Y-92277292D01*
X79535800Y-92380708D01*
X79555976Y-92482137D01*
X79595551Y-92577681D01*
X79653006Y-92663668D01*
X79706520Y-92717182D01*
X79706521Y-97945559D01*
X78616097Y-99035984D01*
X78605074Y-99035984D01*
X78503645Y-99056160D01*
X78408101Y-99095735D01*
X78322114Y-99153190D01*
X78248988Y-99226316D01*
X78191533Y-99312303D01*
X78151958Y-99407847D01*
X78131782Y-99509276D01*
X78131782Y-99536776D01*
X76504041Y-101164518D01*
X76493018Y-101164518D01*
X76391589Y-101184694D01*
X76296045Y-101224269D01*
X76210058Y-101281724D01*
X76136932Y-101354850D01*
X76079477Y-101440837D01*
X76039902Y-101536381D01*
X76019726Y-101637810D01*
X76019726Y-101741226D01*
X76039902Y-101842655D01*
X76079477Y-101938199D01*
X76136932Y-102024186D01*
X76210058Y-102097312D01*
X76296045Y-102154767D01*
X76301693Y-102157107D01*
X74530440Y-103928360D01*
X73627957Y-103928360D01*
X73708551Y-103807742D01*
X73768857Y-103662151D01*
X73799600Y-103507593D01*
X73799600Y-103366925D01*
X74808406Y-102358120D01*
X74822837Y-102346277D01*
X74870105Y-102288681D01*
X74905228Y-102222970D01*
X74926857Y-102151670D01*
X74932330Y-102096101D01*
X74932330Y-102096091D01*
X74934159Y-102077521D01*
X74932330Y-102058951D01*
X74932330Y-101274075D01*
X76041717Y-100164690D01*
X76435430Y-100164690D01*
X76454000Y-100166519D01*
X76472570Y-100164690D01*
X76472581Y-100164690D01*
X76528150Y-100159217D01*
X76599450Y-100137588D01*
X76665161Y-100102465D01*
X76722757Y-100055197D01*
X76734606Y-100040759D01*
X78206926Y-98568440D01*
X78221357Y-98556597D01*
X78268625Y-98499001D01*
X78303748Y-98433290D01*
X78325377Y-98361990D01*
X78330850Y-98306421D01*
X78330850Y-98306411D01*
X78332679Y-98287841D01*
X78330850Y-98269271D01*
X78330850Y-97190949D01*
X78401568Y-97143696D01*
X78474694Y-97070570D01*
X78532149Y-96984583D01*
X78565575Y-96903885D01*
X78612263Y-96923224D01*
X78713692Y-96943400D01*
X78817108Y-96943400D01*
X78918537Y-96923224D01*
X79014081Y-96883649D01*
X79100068Y-96826194D01*
X79173194Y-96753068D01*
X79230649Y-96667081D01*
X79270224Y-96571537D01*
X79290400Y-96470108D01*
X79290400Y-96366692D01*
X79270224Y-96265263D01*
X79230649Y-96169719D01*
X79173194Y-96083732D01*
X79148882Y-96059420D01*
X79167149Y-96032081D01*
X79206724Y-95936537D01*
X79226900Y-95835108D01*
X79226900Y-95731692D01*
X79206724Y-95630263D01*
X79167149Y-95534719D01*
X79109694Y-95448732D01*
X79036568Y-95375606D01*
X78950581Y-95318151D01*
X78855037Y-95278576D01*
X78753608Y-95258400D01*
X78650192Y-95258400D01*
X78548763Y-95278576D01*
X78453219Y-95318151D01*
X78367232Y-95375606D01*
X78337688Y-95405150D01*
X78300370Y-95405150D01*
X78300370Y-94195691D01*
X78547882Y-94195691D01*
X78547882Y-94299107D01*
X78568058Y-94400536D01*
X78607633Y-94496080D01*
X78665088Y-94582067D01*
X78738214Y-94655193D01*
X78824201Y-94712648D01*
X78919745Y-94752223D01*
X79021174Y-94772399D01*
X79124590Y-94772399D01*
X79226019Y-94752223D01*
X79321563Y-94712648D01*
X79407550Y-94655193D01*
X79480676Y-94582067D01*
X79538131Y-94496080D01*
X79577706Y-94400536D01*
X79597882Y-94299107D01*
X79597882Y-94195691D01*
X79577706Y-94094262D01*
X79538131Y-93998718D01*
X79480676Y-93912731D01*
X79407550Y-93839605D01*
X79321563Y-93782150D01*
X79226019Y-93742575D01*
X79124590Y-93722399D01*
X79021174Y-93722399D01*
X78919745Y-93742575D01*
X78824201Y-93782150D01*
X78738214Y-93839605D01*
X78665088Y-93912731D01*
X78607633Y-93998718D01*
X78568058Y-94094262D01*
X78547882Y-94195691D01*
X78300370Y-94195691D01*
X78300370Y-93069875D01*
X79644566Y-91725680D01*
X79658997Y-91713837D01*
X79706265Y-91656241D01*
X79741388Y-91590530D01*
X79763017Y-91519230D01*
X79768490Y-91463661D01*
X79768490Y-91463651D01*
X79770319Y-91445081D01*
X79768490Y-91426511D01*
X79768490Y-90783875D01*
X80243446Y-90308920D01*
X80285228Y-90308920D01*
X80386657Y-90288744D01*
X80482201Y-90249169D01*
X80568188Y-90191714D01*
X80641314Y-90118588D01*
X80698769Y-90032601D01*
X80738344Y-89937057D01*
X80758520Y-89835628D01*
X80758520Y-89732212D01*
X80744007Y-89659250D01*
X81569575Y-89659250D01*
X81529532Y-89686006D01*
G36*
X86433940Y-91007466D02*
G01*
X86433941Y-93118210D01*
X86432111Y-93136790D01*
X86433941Y-93155371D01*
X86437406Y-93190556D01*
X86439414Y-93210940D01*
X86461043Y-93282240D01*
X86496165Y-93347951D01*
X86524284Y-93382213D01*
X86543434Y-93405547D01*
X86557866Y-93417391D01*
X87008549Y-93868075D01*
X87008549Y-94104500D01*
X87017175Y-94192086D01*
X87042723Y-94276306D01*
X87084211Y-94353924D01*
X87140044Y-94421956D01*
X87208076Y-94477789D01*
X87251751Y-94501134D01*
X87251751Y-94748820D01*
X87249921Y-94767400D01*
X87257224Y-94841550D01*
X87278853Y-94912850D01*
X87313975Y-94978561D01*
X87349399Y-95021724D01*
X87361244Y-95036157D01*
X87375676Y-95048001D01*
X87851458Y-95523784D01*
X87863303Y-95538217D01*
X87877735Y-95550061D01*
X87920898Y-95585485D01*
X87950173Y-95601132D01*
X87986610Y-95620608D01*
X88057910Y-95642237D01*
X88113479Y-95647710D01*
X88113489Y-95647710D01*
X88132059Y-95649539D01*
X88150630Y-95647710D01*
X88306129Y-95647710D01*
X88306129Y-95969460D01*
X88311921Y-96028270D01*
X88329076Y-96084820D01*
X88356933Y-96136937D01*
X88394422Y-96182618D01*
X88440103Y-96220107D01*
X88492220Y-96247964D01*
X88548770Y-96265119D01*
X88607580Y-96270911D01*
X89657580Y-96270911D01*
X89716390Y-96265119D01*
X89772940Y-96247964D01*
X89825057Y-96220107D01*
X89857579Y-96193417D01*
X89870267Y-96203830D01*
X89870267Y-96520000D01*
X89872188Y-96539509D01*
X89877879Y-96558268D01*
X89887120Y-96575557D01*
X89899556Y-96590711D01*
X89914710Y-96603147D01*
X89931999Y-96612388D01*
X89950758Y-96618079D01*
X89970267Y-96620000D01*
X90930042Y-96620000D01*
X90875469Y-97781117D01*
X90580894Y-100790335D01*
X90528129Y-101205107D01*
X90343046Y-102035910D01*
X90176346Y-102480404D01*
X89898936Y-103119739D01*
X89897722Y-103118683D01*
X89880706Y-103108949D01*
X89144106Y-102778749D01*
X89122914Y-102771963D01*
X89103409Y-102770000D01*
X89083896Y-102771881D01*
X89065125Y-102777532D01*
X89047817Y-102786737D01*
X89032637Y-102799142D01*
X89020169Y-102814269D01*
X89010892Y-102831538D01*
X88937480Y-103007728D01*
X88912709Y-102996850D01*
X88856467Y-102978711D01*
X88797765Y-102971894D01*
X88738863Y-102976659D01*
X88698395Y-102988167D01*
X88679213Y-102950723D01*
X88642527Y-102904394D01*
X88597507Y-102866114D01*
X88545884Y-102837351D01*
X87582971Y-102418665D01*
X87526729Y-102400527D01*
X87468029Y-102393709D01*
X87409127Y-102398474D01*
X87352286Y-102414639D01*
X87299691Y-102441582D01*
X87253363Y-102478268D01*
X87215082Y-102523288D01*
X87186319Y-102574911D01*
X87045771Y-102898150D01*
X86403981Y-102898150D01*
X86385400Y-102896320D01*
X86311250Y-102903623D01*
X86239949Y-102925252D01*
X86174239Y-102960375D01*
X86131075Y-102995798D01*
X86131070Y-102995803D01*
X86116643Y-103007643D01*
X86104803Y-103022070D01*
X85686900Y-103439974D01*
X83694206Y-101447281D01*
X83682357Y-101432843D01*
X83624761Y-101385575D01*
X83559050Y-101350452D01*
X83487750Y-101328823D01*
X83432181Y-101323350D01*
X83432170Y-101323350D01*
X83413600Y-101321521D01*
X83395030Y-101323350D01*
X79180410Y-101323350D01*
X79150866Y-101293806D01*
X79064879Y-101236351D01*
X79043281Y-101227405D01*
X79687594Y-100583092D01*
X80882000Y-100583092D01*
X80882000Y-100686508D01*
X80902176Y-100787937D01*
X80941751Y-100883481D01*
X80999206Y-100969468D01*
X81072332Y-101042594D01*
X81158319Y-101100049D01*
X81253863Y-101139624D01*
X81355292Y-101159800D01*
X81458708Y-101159800D01*
X81560137Y-101139624D01*
X81655681Y-101100049D01*
X81741668Y-101042594D01*
X81814794Y-100969468D01*
X81872249Y-100883481D01*
X81911824Y-100787937D01*
X81932000Y-100686508D01*
X81932000Y-100583092D01*
X81921476Y-100530183D01*
X86593094Y-100530183D01*
X86593094Y-100764443D01*
X86638796Y-100994203D01*
X86728444Y-101210632D01*
X86858593Y-101405413D01*
X87024240Y-101571060D01*
X87219021Y-101701209D01*
X87435450Y-101790857D01*
X87665210Y-101836559D01*
X87899470Y-101836559D01*
X88129230Y-101790857D01*
X88345659Y-101701209D01*
X88540440Y-101571060D01*
X88706087Y-101405413D01*
X88836236Y-101210632D01*
X88925884Y-100994203D01*
X88971586Y-100764443D01*
X88971586Y-100530183D01*
X88925884Y-100300423D01*
X88836236Y-100083994D01*
X88706087Y-99889213D01*
X88540440Y-99723566D01*
X88345659Y-99593417D01*
X88129230Y-99503769D01*
X87899470Y-99458067D01*
X87665210Y-99458067D01*
X87435450Y-99503769D01*
X87219021Y-99593417D01*
X87024240Y-99723566D01*
X86858593Y-99889213D01*
X86728444Y-100083994D01*
X86638796Y-100300423D01*
X86593094Y-100530183D01*
X81921476Y-100530183D01*
X81911824Y-100481663D01*
X81872249Y-100386119D01*
X81814794Y-100300132D01*
X81741668Y-100227006D01*
X81655681Y-100169551D01*
X81560137Y-100129976D01*
X81458708Y-100109800D01*
X81355292Y-100109800D01*
X81253863Y-100129976D01*
X81158319Y-100169551D01*
X81072332Y-100227006D01*
X80999206Y-100300132D01*
X80941751Y-100386119D01*
X80902176Y-100481663D01*
X80882000Y-100583092D01*
X79687594Y-100583092D01*
X80256966Y-100013720D01*
X83490474Y-100013720D01*
X83510120Y-100015655D01*
X83529766Y-100013720D01*
X83529767Y-100013720D01*
X83588534Y-100007932D01*
X83663934Y-99985060D01*
X83733423Y-99947917D01*
X83794331Y-99897931D01*
X83806857Y-99882668D01*
X84876354Y-98813172D01*
X84891611Y-98800651D01*
X84907647Y-98781112D01*
X84930341Y-98753458D01*
X84941597Y-98739743D01*
X84978740Y-98670254D01*
X85001612Y-98594854D01*
X85002341Y-98587451D01*
X85107400Y-98587451D01*
X85166210Y-98581659D01*
X85222760Y-98564504D01*
X85274877Y-98536647D01*
X85320558Y-98499158D01*
X85358047Y-98453477D01*
X85385904Y-98401360D01*
X85403059Y-98344810D01*
X85408851Y-98286000D01*
X85408851Y-97786000D01*
X85403059Y-97727190D01*
X85385904Y-97670640D01*
X85358047Y-97618523D01*
X85320558Y-97572842D01*
X85275665Y-97536000D01*
X85320558Y-97499158D01*
X85358047Y-97453477D01*
X85385904Y-97401360D01*
X85403059Y-97344810D01*
X85408851Y-97286000D01*
X85408851Y-96866124D01*
X85447171Y-96845641D01*
X85492632Y-96808332D01*
X85530732Y-96770232D01*
X85568041Y-96724771D01*
X85595764Y-96672905D01*
X85612836Y-96616627D01*
X85618600Y-96558100D01*
X85618600Y-90690840D01*
X85612836Y-90632313D01*
X85595764Y-90576035D01*
X85583628Y-90553330D01*
X85979805Y-90553330D01*
X86433940Y-91007466D01*
G37*
X86433940Y-91007466D02*
X86433941Y-93118210D01*
X86432111Y-93136790D01*
X86433941Y-93155371D01*
X86437406Y-93190556D01*
X86439414Y-93210940D01*
X86461043Y-93282240D01*
X86496165Y-93347951D01*
X86524284Y-93382213D01*
X86543434Y-93405547D01*
X86557866Y-93417391D01*
X87008549Y-93868075D01*
X87008549Y-94104500D01*
X87017175Y-94192086D01*
X87042723Y-94276306D01*
X87084211Y-94353924D01*
X87140044Y-94421956D01*
X87208076Y-94477789D01*
X87251751Y-94501134D01*
X87251751Y-94748820D01*
X87249921Y-94767400D01*
X87257224Y-94841550D01*
X87278853Y-94912850D01*
X87313975Y-94978561D01*
X87349399Y-95021724D01*
X87361244Y-95036157D01*
X87375676Y-95048001D01*
X87851458Y-95523784D01*
X87863303Y-95538217D01*
X87877735Y-95550061D01*
X87920898Y-95585485D01*
X87950173Y-95601132D01*
X87986610Y-95620608D01*
X88057910Y-95642237D01*
X88113479Y-95647710D01*
X88113489Y-95647710D01*
X88132059Y-95649539D01*
X88150630Y-95647710D01*
X88306129Y-95647710D01*
X88306129Y-95969460D01*
X88311921Y-96028270D01*
X88329076Y-96084820D01*
X88356933Y-96136937D01*
X88394422Y-96182618D01*
X88440103Y-96220107D01*
X88492220Y-96247964D01*
X88548770Y-96265119D01*
X88607580Y-96270911D01*
X89657580Y-96270911D01*
X89716390Y-96265119D01*
X89772940Y-96247964D01*
X89825057Y-96220107D01*
X89857579Y-96193417D01*
X89870267Y-96203830D01*
X89870267Y-96520000D01*
X89872188Y-96539509D01*
X89877879Y-96558268D01*
X89887120Y-96575557D01*
X89899556Y-96590711D01*
X89914710Y-96603147D01*
X89931999Y-96612388D01*
X89950758Y-96618079D01*
X89970267Y-96620000D01*
X90930042Y-96620000D01*
X90875469Y-97781117D01*
X90580894Y-100790335D01*
X90528129Y-101205107D01*
X90343046Y-102035910D01*
X90176346Y-102480404D01*
X89898936Y-103119739D01*
X89897722Y-103118683D01*
X89880706Y-103108949D01*
X89144106Y-102778749D01*
X89122914Y-102771963D01*
X89103409Y-102770000D01*
X89083896Y-102771881D01*
X89065125Y-102777532D01*
X89047817Y-102786737D01*
X89032637Y-102799142D01*
X89020169Y-102814269D01*
X89010892Y-102831538D01*
X88937480Y-103007728D01*
X88912709Y-102996850D01*
X88856467Y-102978711D01*
X88797765Y-102971894D01*
X88738863Y-102976659D01*
X88698395Y-102988167D01*
X88679213Y-102950723D01*
X88642527Y-102904394D01*
X88597507Y-102866114D01*
X88545884Y-102837351D01*
X87582971Y-102418665D01*
X87526729Y-102400527D01*
X87468029Y-102393709D01*
X87409127Y-102398474D01*
X87352286Y-102414639D01*
X87299691Y-102441582D01*
X87253363Y-102478268D01*
X87215082Y-102523288D01*
X87186319Y-102574911D01*
X87045771Y-102898150D01*
X86403981Y-102898150D01*
X86385400Y-102896320D01*
X86311250Y-102903623D01*
X86239949Y-102925252D01*
X86174239Y-102960375D01*
X86131075Y-102995798D01*
X86131070Y-102995803D01*
X86116643Y-103007643D01*
X86104803Y-103022070D01*
X85686900Y-103439974D01*
X83694206Y-101447281D01*
X83682357Y-101432843D01*
X83624761Y-101385575D01*
X83559050Y-101350452D01*
X83487750Y-101328823D01*
X83432181Y-101323350D01*
X83432170Y-101323350D01*
X83413600Y-101321521D01*
X83395030Y-101323350D01*
X79180410Y-101323350D01*
X79150866Y-101293806D01*
X79064879Y-101236351D01*
X79043281Y-101227405D01*
X79687594Y-100583092D01*
X80882000Y-100583092D01*
X80882000Y-100686508D01*
X80902176Y-100787937D01*
X80941751Y-100883481D01*
X80999206Y-100969468D01*
X81072332Y-101042594D01*
X81158319Y-101100049D01*
X81253863Y-101139624D01*
X81355292Y-101159800D01*
X81458708Y-101159800D01*
X81560137Y-101139624D01*
X81655681Y-101100049D01*
X81741668Y-101042594D01*
X81814794Y-100969468D01*
X81872249Y-100883481D01*
X81911824Y-100787937D01*
X81932000Y-100686508D01*
X81932000Y-100583092D01*
X81921476Y-100530183D01*
X86593094Y-100530183D01*
X86593094Y-100764443D01*
X86638796Y-100994203D01*
X86728444Y-101210632D01*
X86858593Y-101405413D01*
X87024240Y-101571060D01*
X87219021Y-101701209D01*
X87435450Y-101790857D01*
X87665210Y-101836559D01*
X87899470Y-101836559D01*
X88129230Y-101790857D01*
X88345659Y-101701209D01*
X88540440Y-101571060D01*
X88706087Y-101405413D01*
X88836236Y-101210632D01*
X88925884Y-100994203D01*
X88971586Y-100764443D01*
X88971586Y-100530183D01*
X88925884Y-100300423D01*
X88836236Y-100083994D01*
X88706087Y-99889213D01*
X88540440Y-99723566D01*
X88345659Y-99593417D01*
X88129230Y-99503769D01*
X87899470Y-99458067D01*
X87665210Y-99458067D01*
X87435450Y-99503769D01*
X87219021Y-99593417D01*
X87024240Y-99723566D01*
X86858593Y-99889213D01*
X86728444Y-100083994D01*
X86638796Y-100300423D01*
X86593094Y-100530183D01*
X81921476Y-100530183D01*
X81911824Y-100481663D01*
X81872249Y-100386119D01*
X81814794Y-100300132D01*
X81741668Y-100227006D01*
X81655681Y-100169551D01*
X81560137Y-100129976D01*
X81458708Y-100109800D01*
X81355292Y-100109800D01*
X81253863Y-100129976D01*
X81158319Y-100169551D01*
X81072332Y-100227006D01*
X80999206Y-100300132D01*
X80941751Y-100386119D01*
X80902176Y-100481663D01*
X80882000Y-100583092D01*
X79687594Y-100583092D01*
X80256966Y-100013720D01*
X83490474Y-100013720D01*
X83510120Y-100015655D01*
X83529766Y-100013720D01*
X83529767Y-100013720D01*
X83588534Y-100007932D01*
X83663934Y-99985060D01*
X83733423Y-99947917D01*
X83794331Y-99897931D01*
X83806857Y-99882668D01*
X84876354Y-98813172D01*
X84891611Y-98800651D01*
X84907647Y-98781112D01*
X84930341Y-98753458D01*
X84941597Y-98739743D01*
X84978740Y-98670254D01*
X85001612Y-98594854D01*
X85002341Y-98587451D01*
X85107400Y-98587451D01*
X85166210Y-98581659D01*
X85222760Y-98564504D01*
X85274877Y-98536647D01*
X85320558Y-98499158D01*
X85358047Y-98453477D01*
X85385904Y-98401360D01*
X85403059Y-98344810D01*
X85408851Y-98286000D01*
X85408851Y-97786000D01*
X85403059Y-97727190D01*
X85385904Y-97670640D01*
X85358047Y-97618523D01*
X85320558Y-97572842D01*
X85275665Y-97536000D01*
X85320558Y-97499158D01*
X85358047Y-97453477D01*
X85385904Y-97401360D01*
X85403059Y-97344810D01*
X85408851Y-97286000D01*
X85408851Y-96866124D01*
X85447171Y-96845641D01*
X85492632Y-96808332D01*
X85530732Y-96770232D01*
X85568041Y-96724771D01*
X85595764Y-96672905D01*
X85612836Y-96616627D01*
X85618600Y-96558100D01*
X85618600Y-90690840D01*
X85612836Y-90632313D01*
X85595764Y-90576035D01*
X85583628Y-90553330D01*
X85979805Y-90553330D01*
X86433940Y-91007466D01*
G36*
X77738132Y-91221673D02*
G01*
X77750628Y-91284493D01*
X77790203Y-91380037D01*
X77847658Y-91466024D01*
X77920784Y-91539150D01*
X78006771Y-91596605D01*
X78102315Y-91636180D01*
X78203744Y-91656356D01*
X78307160Y-91656356D01*
X78408589Y-91636180D01*
X78498176Y-91599072D01*
X78519659Y-91620555D01*
X78605646Y-91678010D01*
X78617482Y-91682912D01*
X77667796Y-92632599D01*
X77653364Y-92644443D01*
X77641520Y-92658875D01*
X77641519Y-92658876D01*
X77606095Y-92702039D01*
X77570973Y-92767750D01*
X77549344Y-92839050D01*
X77542041Y-92913200D01*
X77543871Y-92931781D01*
X77543870Y-95271124D01*
X76724045Y-96090950D01*
X75476901Y-96090950D01*
X75458320Y-96089120D01*
X75439739Y-96090950D01*
X75384170Y-96096423D01*
X75312869Y-96118052D01*
X75247159Y-96153175D01*
X75203995Y-96188598D01*
X75203990Y-96188603D01*
X75189563Y-96200443D01*
X75177723Y-96214870D01*
X69095337Y-102297258D01*
X69099146Y-102284701D01*
X69106449Y-102210551D01*
X69104619Y-102191970D01*
X69104619Y-101684049D01*
X69134163Y-101654505D01*
X69191618Y-101568518D01*
X69201976Y-101543511D01*
X69252192Y-101553500D01*
X69355608Y-101553500D01*
X69457037Y-101533324D01*
X69552581Y-101493749D01*
X69638568Y-101436294D01*
X69711694Y-101363168D01*
X69769149Y-101277181D01*
X69808724Y-101181637D01*
X69828900Y-101080208D01*
X69828900Y-100976792D01*
X69808724Y-100875363D01*
X69769149Y-100779819D01*
X69711694Y-100693832D01*
X69638568Y-100620706D01*
X69552581Y-100563251D01*
X69457037Y-100523676D01*
X69355608Y-100503500D01*
X69252192Y-100503500D01*
X69150763Y-100523676D01*
X69055219Y-100563251D01*
X68969232Y-100620706D01*
X68896106Y-100693832D01*
X68838651Y-100779819D01*
X68828293Y-100804826D01*
X68778077Y-100794837D01*
X68674661Y-100794837D01*
X68573232Y-100815013D01*
X68477688Y-100854588D01*
X68391701Y-100912043D01*
X68318575Y-100985169D01*
X68261120Y-101071156D01*
X68221545Y-101166700D01*
X68214523Y-101202000D01*
X68185392Y-101202000D01*
X68083963Y-101222176D01*
X67988419Y-101261751D01*
X67902432Y-101319206D01*
X67829306Y-101392332D01*
X67771851Y-101478319D01*
X67732276Y-101573863D01*
X67712100Y-101675292D01*
X67712100Y-101778708D01*
X67732276Y-101880137D01*
X67752047Y-101927870D01*
X67470809Y-101927870D01*
X67452239Y-101926041D01*
X67433669Y-101927870D01*
X67433659Y-101927870D01*
X67378090Y-101933343D01*
X67306790Y-101954972D01*
X67241079Y-101990095D01*
X67183483Y-102037363D01*
X67171638Y-102051796D01*
X66899578Y-102323857D01*
X66854194Y-102255936D01*
X66781068Y-102182810D01*
X66695081Y-102125355D01*
X66599537Y-102085780D01*
X66498108Y-102065604D01*
X66394692Y-102065604D01*
X66363800Y-102071749D01*
X66363800Y-101176405D01*
X66868213Y-100671992D01*
X67089800Y-100671992D01*
X67089800Y-100775408D01*
X67109976Y-100876837D01*
X67149551Y-100972381D01*
X67207006Y-101058368D01*
X67280132Y-101131494D01*
X67366119Y-101188949D01*
X67461663Y-101228524D01*
X67563092Y-101248700D01*
X67666508Y-101248700D01*
X67767937Y-101228524D01*
X67863481Y-101188949D01*
X67949468Y-101131494D01*
X68022594Y-101058368D01*
X68080049Y-100972381D01*
X68119624Y-100876837D01*
X68139800Y-100775408D01*
X68139800Y-100671992D01*
X68119624Y-100570563D01*
X68080049Y-100475019D01*
X68022594Y-100389032D01*
X67949468Y-100315906D01*
X67863481Y-100258451D01*
X67767937Y-100218876D01*
X67666508Y-100198700D01*
X67563092Y-100198700D01*
X67461663Y-100218876D01*
X67366119Y-100258451D01*
X67280132Y-100315906D01*
X67207006Y-100389032D01*
X67149551Y-100475019D01*
X67109976Y-100570563D01*
X67089800Y-100671992D01*
X66868213Y-100671992D01*
X67050634Y-100489572D01*
X67065891Y-100477051D01*
X67080628Y-100459095D01*
X67115877Y-100416143D01*
X67124190Y-100400590D01*
X67153020Y-100346654D01*
X67175892Y-100271254D01*
X67181680Y-100212487D01*
X67181680Y-100212486D01*
X67183615Y-100192840D01*
X67181680Y-100173194D01*
X67181680Y-99008292D01*
X69960000Y-99008292D01*
X69960000Y-99111708D01*
X69980176Y-99213137D01*
X70019751Y-99308681D01*
X70077206Y-99394668D01*
X70150332Y-99467794D01*
X70236319Y-99525249D01*
X70331863Y-99564824D01*
X70433292Y-99585000D01*
X70536708Y-99585000D01*
X70638137Y-99564824D01*
X70733681Y-99525249D01*
X70819668Y-99467794D01*
X70892794Y-99394668D01*
X70950249Y-99308681D01*
X70989824Y-99213137D01*
X71010000Y-99111708D01*
X71010000Y-99008292D01*
X70989824Y-98906863D01*
X70950249Y-98811319D01*
X70892794Y-98725332D01*
X70819668Y-98652206D01*
X70733681Y-98594751D01*
X70638137Y-98555176D01*
X70536708Y-98535000D01*
X70433292Y-98535000D01*
X70331863Y-98555176D01*
X70236319Y-98594751D01*
X70150332Y-98652206D01*
X70077206Y-98725332D01*
X70019751Y-98811319D01*
X69980176Y-98906863D01*
X69960000Y-99008292D01*
X67181680Y-99008292D01*
X67181680Y-98972955D01*
X67183614Y-98953319D01*
X67181680Y-98933683D01*
X67181680Y-98933673D01*
X67175892Y-98874906D01*
X67153020Y-98799506D01*
X67115877Y-98730017D01*
X67065891Y-98669109D01*
X67050628Y-98656583D01*
X66443681Y-98049636D01*
X66815303Y-97716130D01*
X71350350Y-97716130D01*
X71368920Y-97717959D01*
X71387490Y-97716130D01*
X71387501Y-97716130D01*
X71443070Y-97710657D01*
X71514370Y-97689028D01*
X71580081Y-97653905D01*
X71637677Y-97606637D01*
X71649526Y-97592200D01*
X72024774Y-97216952D01*
X72042632Y-97234810D01*
X72128619Y-97292265D01*
X72224163Y-97331840D01*
X72325592Y-97352016D01*
X72429008Y-97352016D01*
X72530437Y-97331840D01*
X72625981Y-97292265D01*
X72711968Y-97234810D01*
X72785094Y-97161684D01*
X72842549Y-97075697D01*
X72882124Y-96980153D01*
X72902300Y-96878724D01*
X72902300Y-96775308D01*
X72897841Y-96752890D01*
X74359600Y-96753452D01*
X74418410Y-96747660D01*
X74474961Y-96730505D01*
X74527078Y-96702648D01*
X74572759Y-96665159D01*
X74610248Y-96619478D01*
X74638105Y-96567361D01*
X74655260Y-96510810D01*
X74661052Y-96452000D01*
X74659600Y-93597000D01*
X74584600Y-93522000D01*
X70509600Y-93522000D01*
X70509600Y-93542000D01*
X70409600Y-93542000D01*
X70409600Y-93522000D01*
X70389600Y-93522000D01*
X70389600Y-93422000D01*
X70409600Y-93422000D01*
X70409600Y-93402000D01*
X70509600Y-93402000D01*
X70509600Y-93422000D01*
X74584600Y-93422000D01*
X74659600Y-93347000D01*
X74660687Y-91209800D01*
X77738132Y-91221673D01*
G37*
X77738132Y-91221673D02*
X77750628Y-91284493D01*
X77790203Y-91380037D01*
X77847658Y-91466024D01*
X77920784Y-91539150D01*
X78006771Y-91596605D01*
X78102315Y-91636180D01*
X78203744Y-91656356D01*
X78307160Y-91656356D01*
X78408589Y-91636180D01*
X78498176Y-91599072D01*
X78519659Y-91620555D01*
X78605646Y-91678010D01*
X78617482Y-91682912D01*
X77667796Y-92632599D01*
X77653364Y-92644443D01*
X77641520Y-92658875D01*
X77641519Y-92658876D01*
X77606095Y-92702039D01*
X77570973Y-92767750D01*
X77549344Y-92839050D01*
X77542041Y-92913200D01*
X77543871Y-92931781D01*
X77543870Y-95271124D01*
X76724045Y-96090950D01*
X75476901Y-96090950D01*
X75458320Y-96089120D01*
X75439739Y-96090950D01*
X75384170Y-96096423D01*
X75312869Y-96118052D01*
X75247159Y-96153175D01*
X75203995Y-96188598D01*
X75203990Y-96188603D01*
X75189563Y-96200443D01*
X75177723Y-96214870D01*
X69095337Y-102297258D01*
X69099146Y-102284701D01*
X69106449Y-102210551D01*
X69104619Y-102191970D01*
X69104619Y-101684049D01*
X69134163Y-101654505D01*
X69191618Y-101568518D01*
X69201976Y-101543511D01*
X69252192Y-101553500D01*
X69355608Y-101553500D01*
X69457037Y-101533324D01*
X69552581Y-101493749D01*
X69638568Y-101436294D01*
X69711694Y-101363168D01*
X69769149Y-101277181D01*
X69808724Y-101181637D01*
X69828900Y-101080208D01*
X69828900Y-100976792D01*
X69808724Y-100875363D01*
X69769149Y-100779819D01*
X69711694Y-100693832D01*
X69638568Y-100620706D01*
X69552581Y-100563251D01*
X69457037Y-100523676D01*
X69355608Y-100503500D01*
X69252192Y-100503500D01*
X69150763Y-100523676D01*
X69055219Y-100563251D01*
X68969232Y-100620706D01*
X68896106Y-100693832D01*
X68838651Y-100779819D01*
X68828293Y-100804826D01*
X68778077Y-100794837D01*
X68674661Y-100794837D01*
X68573232Y-100815013D01*
X68477688Y-100854588D01*
X68391701Y-100912043D01*
X68318575Y-100985169D01*
X68261120Y-101071156D01*
X68221545Y-101166700D01*
X68214523Y-101202000D01*
X68185392Y-101202000D01*
X68083963Y-101222176D01*
X67988419Y-101261751D01*
X67902432Y-101319206D01*
X67829306Y-101392332D01*
X67771851Y-101478319D01*
X67732276Y-101573863D01*
X67712100Y-101675292D01*
X67712100Y-101778708D01*
X67732276Y-101880137D01*
X67752047Y-101927870D01*
X67470809Y-101927870D01*
X67452239Y-101926041D01*
X67433669Y-101927870D01*
X67433659Y-101927870D01*
X67378090Y-101933343D01*
X67306790Y-101954972D01*
X67241079Y-101990095D01*
X67183483Y-102037363D01*
X67171638Y-102051796D01*
X66899578Y-102323857D01*
X66854194Y-102255936D01*
X66781068Y-102182810D01*
X66695081Y-102125355D01*
X66599537Y-102085780D01*
X66498108Y-102065604D01*
X66394692Y-102065604D01*
X66363800Y-102071749D01*
X66363800Y-101176405D01*
X66868213Y-100671992D01*
X67089800Y-100671992D01*
X67089800Y-100775408D01*
X67109976Y-100876837D01*
X67149551Y-100972381D01*
X67207006Y-101058368D01*
X67280132Y-101131494D01*
X67366119Y-101188949D01*
X67461663Y-101228524D01*
X67563092Y-101248700D01*
X67666508Y-101248700D01*
X67767937Y-101228524D01*
X67863481Y-101188949D01*
X67949468Y-101131494D01*
X68022594Y-101058368D01*
X68080049Y-100972381D01*
X68119624Y-100876837D01*
X68139800Y-100775408D01*
X68139800Y-100671992D01*
X68119624Y-100570563D01*
X68080049Y-100475019D01*
X68022594Y-100389032D01*
X67949468Y-100315906D01*
X67863481Y-100258451D01*
X67767937Y-100218876D01*
X67666508Y-100198700D01*
X67563092Y-100198700D01*
X67461663Y-100218876D01*
X67366119Y-100258451D01*
X67280132Y-100315906D01*
X67207006Y-100389032D01*
X67149551Y-100475019D01*
X67109976Y-100570563D01*
X67089800Y-100671992D01*
X66868213Y-100671992D01*
X67050634Y-100489572D01*
X67065891Y-100477051D01*
X67080628Y-100459095D01*
X67115877Y-100416143D01*
X67124190Y-100400590D01*
X67153020Y-100346654D01*
X67175892Y-100271254D01*
X67181680Y-100212487D01*
X67181680Y-100212486D01*
X67183615Y-100192840D01*
X67181680Y-100173194D01*
X67181680Y-99008292D01*
X69960000Y-99008292D01*
X69960000Y-99111708D01*
X69980176Y-99213137D01*
X70019751Y-99308681D01*
X70077206Y-99394668D01*
X70150332Y-99467794D01*
X70236319Y-99525249D01*
X70331863Y-99564824D01*
X70433292Y-99585000D01*
X70536708Y-99585000D01*
X70638137Y-99564824D01*
X70733681Y-99525249D01*
X70819668Y-99467794D01*
X70892794Y-99394668D01*
X70950249Y-99308681D01*
X70989824Y-99213137D01*
X71010000Y-99111708D01*
X71010000Y-99008292D01*
X70989824Y-98906863D01*
X70950249Y-98811319D01*
X70892794Y-98725332D01*
X70819668Y-98652206D01*
X70733681Y-98594751D01*
X70638137Y-98555176D01*
X70536708Y-98535000D01*
X70433292Y-98535000D01*
X70331863Y-98555176D01*
X70236319Y-98594751D01*
X70150332Y-98652206D01*
X70077206Y-98725332D01*
X70019751Y-98811319D01*
X69980176Y-98906863D01*
X69960000Y-99008292D01*
X67181680Y-99008292D01*
X67181680Y-98972955D01*
X67183614Y-98953319D01*
X67181680Y-98933683D01*
X67181680Y-98933673D01*
X67175892Y-98874906D01*
X67153020Y-98799506D01*
X67115877Y-98730017D01*
X67065891Y-98669109D01*
X67050628Y-98656583D01*
X66443681Y-98049636D01*
X66815303Y-97716130D01*
X71350350Y-97716130D01*
X71368920Y-97717959D01*
X71387490Y-97716130D01*
X71387501Y-97716130D01*
X71443070Y-97710657D01*
X71514370Y-97689028D01*
X71580081Y-97653905D01*
X71637677Y-97606637D01*
X71649526Y-97592200D01*
X72024774Y-97216952D01*
X72042632Y-97234810D01*
X72128619Y-97292265D01*
X72224163Y-97331840D01*
X72325592Y-97352016D01*
X72429008Y-97352016D01*
X72530437Y-97331840D01*
X72625981Y-97292265D01*
X72711968Y-97234810D01*
X72785094Y-97161684D01*
X72842549Y-97075697D01*
X72882124Y-96980153D01*
X72902300Y-96878724D01*
X72902300Y-96775308D01*
X72897841Y-96752890D01*
X74359600Y-96753452D01*
X74418410Y-96747660D01*
X74474961Y-96730505D01*
X74527078Y-96702648D01*
X74572759Y-96665159D01*
X74610248Y-96619478D01*
X74638105Y-96567361D01*
X74655260Y-96510810D01*
X74661052Y-96452000D01*
X74659600Y-93597000D01*
X74584600Y-93522000D01*
X70509600Y-93522000D01*
X70509600Y-93542000D01*
X70409600Y-93542000D01*
X70409600Y-93522000D01*
X70389600Y-93522000D01*
X70389600Y-93422000D01*
X70409600Y-93422000D01*
X70409600Y-93402000D01*
X70509600Y-93402000D01*
X70509600Y-93422000D01*
X74584600Y-93422000D01*
X74659600Y-93347000D01*
X74660687Y-91209800D01*
X77738132Y-91221673D01*
G36*
X81485080Y-98913480D02*
G01*
X81505080Y-98913480D01*
X81505080Y-99013480D01*
X81485080Y-99013480D01*
X81485080Y-99033480D01*
X81385080Y-99033480D01*
X81385080Y-99013480D01*
X81365080Y-99013480D01*
X81365080Y-98913480D01*
X81385080Y-98913480D01*
X81385080Y-98893480D01*
X81485080Y-98893480D01*
X81485080Y-98913480D01*
G37*
X81485080Y-98913480D02*
X81505080Y-98913480D01*
X81505080Y-99013480D01*
X81485080Y-99013480D01*
X81485080Y-99033480D01*
X81385080Y-99033480D01*
X81385080Y-99013480D01*
X81365080Y-99013480D01*
X81365080Y-98913480D01*
X81385080Y-98913480D01*
X81385080Y-98893480D01*
X81485080Y-98893480D01*
X81485080Y-98913480D01*
G36*
X90632580Y-95219460D02*
G01*
X90652580Y-95219460D01*
X90652580Y-95319460D01*
X90632580Y-95319460D01*
X90632580Y-95339460D01*
X90532580Y-95339460D01*
X90532580Y-95319460D01*
X90512580Y-95319460D01*
X90512580Y-95219460D01*
X90532580Y-95219460D01*
X90532580Y-95199460D01*
X90632580Y-95199460D01*
X90632580Y-95219460D01*
G37*
X90632580Y-95219460D02*
X90652580Y-95219460D01*
X90652580Y-95319460D01*
X90632580Y-95319460D01*
X90632580Y-95339460D01*
X90532580Y-95339460D01*
X90532580Y-95319460D01*
X90512580Y-95319460D01*
X90512580Y-95219460D01*
X90532580Y-95219460D01*
X90532580Y-95199460D01*
X90632580Y-95199460D01*
X90632580Y-95219460D01*
G36*
X87680000Y-92937000D02*
G01*
X87700000Y-92937000D01*
X87700000Y-93037000D01*
X87680000Y-93037000D01*
X87680000Y-93057000D01*
X87580000Y-93057000D01*
X87580000Y-93037000D01*
X87560000Y-93037000D01*
X87560000Y-92937000D01*
X87580000Y-92937000D01*
X87580000Y-92917000D01*
X87680000Y-92917000D01*
X87680000Y-92937000D01*
G37*
X87680000Y-92937000D02*
X87700000Y-92937000D01*
X87700000Y-93037000D01*
X87680000Y-93037000D01*
X87680000Y-93057000D01*
X87580000Y-93057000D01*
X87580000Y-93037000D01*
X87560000Y-93037000D01*
X87560000Y-92937000D01*
X87580000Y-92937000D01*
X87580000Y-92917000D01*
X87680000Y-92917000D01*
X87680000Y-92937000D01*
G36*
X90173859Y-84457864D02*
G01*
X90442090Y-85266256D01*
X90526705Y-85729214D01*
X90842435Y-88728609D01*
X90927712Y-90298600D01*
X89941400Y-90298600D01*
X89921891Y-90300521D01*
X89903132Y-90306212D01*
X89885843Y-90315453D01*
X89870689Y-90327889D01*
X89858253Y-90343043D01*
X89849012Y-90360332D01*
X89843321Y-90379091D01*
X89841400Y-90398600D01*
X89841400Y-90732225D01*
X89825057Y-90718813D01*
X89772940Y-90690956D01*
X89716390Y-90673801D01*
X89657580Y-90668009D01*
X88607580Y-90668009D01*
X88548770Y-90673801D01*
X88492220Y-90690956D01*
X88440103Y-90718813D01*
X88394422Y-90756302D01*
X88356933Y-90801983D01*
X88329076Y-90854100D01*
X88311921Y-90910650D01*
X88306129Y-90969460D01*
X88306129Y-91949600D01*
X87190440Y-91949600D01*
X87190440Y-90869359D01*
X87192269Y-90850789D01*
X87190440Y-90832219D01*
X87190440Y-90832209D01*
X87184967Y-90776640D01*
X87163338Y-90705340D01*
X87128215Y-90639629D01*
X87080947Y-90582033D01*
X87066515Y-90570190D01*
X86417086Y-89920761D01*
X86405237Y-89906323D01*
X86347641Y-89859055D01*
X86281930Y-89823932D01*
X86210630Y-89802303D01*
X86155061Y-89796830D01*
X86155050Y-89796830D01*
X86136480Y-89795001D01*
X86117910Y-89796830D01*
X83243992Y-89796830D01*
X83257514Y-89783308D01*
X83314969Y-89697321D01*
X83354544Y-89601777D01*
X83374720Y-89500348D01*
X83374720Y-89396932D01*
X83354544Y-89295503D01*
X83314969Y-89199959D01*
X83257514Y-89113972D01*
X83184388Y-89040846D01*
X83098401Y-88983391D01*
X83002857Y-88943816D01*
X82901428Y-88923640D01*
X82798012Y-88923640D01*
X82696583Y-88943816D01*
X82619230Y-88975856D01*
X85415530Y-86179556D01*
X86593094Y-86179556D01*
X86593094Y-86413816D01*
X86638796Y-86643576D01*
X86728444Y-86860005D01*
X86858593Y-87054786D01*
X87024240Y-87220433D01*
X87219021Y-87350582D01*
X87435450Y-87440230D01*
X87665210Y-87485932D01*
X87899470Y-87485932D01*
X88129230Y-87440230D01*
X88345659Y-87350582D01*
X88540440Y-87220433D01*
X88706087Y-87054786D01*
X88836236Y-86860005D01*
X88925884Y-86643576D01*
X88971586Y-86413816D01*
X88971586Y-86179556D01*
X88925884Y-85949796D01*
X88836236Y-85733367D01*
X88706087Y-85538586D01*
X88540440Y-85372939D01*
X88345659Y-85242790D01*
X88129230Y-85153142D01*
X87899470Y-85107440D01*
X87665210Y-85107440D01*
X87435450Y-85153142D01*
X87219021Y-85242790D01*
X87024240Y-85372939D01*
X86858593Y-85538586D01*
X86728444Y-85733367D01*
X86638796Y-85949796D01*
X86593094Y-86179556D01*
X85415530Y-86179556D01*
X86929480Y-84665607D01*
X86931841Y-84664345D01*
X86989437Y-84617077D01*
X87036705Y-84559481D01*
X87037967Y-84557120D01*
X87201425Y-84393661D01*
X87215082Y-84418172D01*
X87253362Y-84463192D01*
X87299691Y-84499878D01*
X87352286Y-84526821D01*
X87409127Y-84542986D01*
X87468029Y-84547751D01*
X87526729Y-84540933D01*
X87582971Y-84522795D01*
X88545884Y-84104109D01*
X88597507Y-84075346D01*
X88642527Y-84037065D01*
X88679213Y-83990737D01*
X88698395Y-83953293D01*
X88738863Y-83964801D01*
X88797765Y-83969566D01*
X88856467Y-83962749D01*
X88912709Y-83944610D01*
X88958056Y-83924696D01*
X89036292Y-84112462D01*
X89044782Y-84128539D01*
X89057032Y-84143843D01*
X89072033Y-84156463D01*
X89089208Y-84165915D01*
X89107897Y-84171833D01*
X89127381Y-84173993D01*
X89146912Y-84172309D01*
X89165739Y-84166848D01*
X89917166Y-83866277D01*
X90173859Y-84457864D01*
G37*
X90173859Y-84457864D02*
X90442090Y-85266256D01*
X90526705Y-85729214D01*
X90842435Y-88728609D01*
X90927712Y-90298600D01*
X89941400Y-90298600D01*
X89921891Y-90300521D01*
X89903132Y-90306212D01*
X89885843Y-90315453D01*
X89870689Y-90327889D01*
X89858253Y-90343043D01*
X89849012Y-90360332D01*
X89843321Y-90379091D01*
X89841400Y-90398600D01*
X89841400Y-90732225D01*
X89825057Y-90718813D01*
X89772940Y-90690956D01*
X89716390Y-90673801D01*
X89657580Y-90668009D01*
X88607580Y-90668009D01*
X88548770Y-90673801D01*
X88492220Y-90690956D01*
X88440103Y-90718813D01*
X88394422Y-90756302D01*
X88356933Y-90801983D01*
X88329076Y-90854100D01*
X88311921Y-90910650D01*
X88306129Y-90969460D01*
X88306129Y-91949600D01*
X87190440Y-91949600D01*
X87190440Y-90869359D01*
X87192269Y-90850789D01*
X87190440Y-90832219D01*
X87190440Y-90832209D01*
X87184967Y-90776640D01*
X87163338Y-90705340D01*
X87128215Y-90639629D01*
X87080947Y-90582033D01*
X87066515Y-90570190D01*
X86417086Y-89920761D01*
X86405237Y-89906323D01*
X86347641Y-89859055D01*
X86281930Y-89823932D01*
X86210630Y-89802303D01*
X86155061Y-89796830D01*
X86155050Y-89796830D01*
X86136480Y-89795001D01*
X86117910Y-89796830D01*
X83243992Y-89796830D01*
X83257514Y-89783308D01*
X83314969Y-89697321D01*
X83354544Y-89601777D01*
X83374720Y-89500348D01*
X83374720Y-89396932D01*
X83354544Y-89295503D01*
X83314969Y-89199959D01*
X83257514Y-89113972D01*
X83184388Y-89040846D01*
X83098401Y-88983391D01*
X83002857Y-88943816D01*
X82901428Y-88923640D01*
X82798012Y-88923640D01*
X82696583Y-88943816D01*
X82619230Y-88975856D01*
X85415530Y-86179556D01*
X86593094Y-86179556D01*
X86593094Y-86413816D01*
X86638796Y-86643576D01*
X86728444Y-86860005D01*
X86858593Y-87054786D01*
X87024240Y-87220433D01*
X87219021Y-87350582D01*
X87435450Y-87440230D01*
X87665210Y-87485932D01*
X87899470Y-87485932D01*
X88129230Y-87440230D01*
X88345659Y-87350582D01*
X88540440Y-87220433D01*
X88706087Y-87054786D01*
X88836236Y-86860005D01*
X88925884Y-86643576D01*
X88971586Y-86413816D01*
X88971586Y-86179556D01*
X88925884Y-85949796D01*
X88836236Y-85733367D01*
X88706087Y-85538586D01*
X88540440Y-85372939D01*
X88345659Y-85242790D01*
X88129230Y-85153142D01*
X87899470Y-85107440D01*
X87665210Y-85107440D01*
X87435450Y-85153142D01*
X87219021Y-85242790D01*
X87024240Y-85372939D01*
X86858593Y-85538586D01*
X86728444Y-85733367D01*
X86638796Y-85949796D01*
X86593094Y-86179556D01*
X85415530Y-86179556D01*
X86929480Y-84665607D01*
X86931841Y-84664345D01*
X86989437Y-84617077D01*
X87036705Y-84559481D01*
X87037967Y-84557120D01*
X87201425Y-84393661D01*
X87215082Y-84418172D01*
X87253362Y-84463192D01*
X87299691Y-84499878D01*
X87352286Y-84526821D01*
X87409127Y-84542986D01*
X87468029Y-84547751D01*
X87526729Y-84540933D01*
X87582971Y-84522795D01*
X88545884Y-84104109D01*
X88597507Y-84075346D01*
X88642527Y-84037065D01*
X88679213Y-83990737D01*
X88698395Y-83953293D01*
X88738863Y-83964801D01*
X88797765Y-83969566D01*
X88856467Y-83962749D01*
X88912709Y-83944610D01*
X88958056Y-83924696D01*
X89036292Y-84112462D01*
X89044782Y-84128539D01*
X89057032Y-84143843D01*
X89072033Y-84156463D01*
X89089208Y-84165915D01*
X89107897Y-84171833D01*
X89127381Y-84173993D01*
X89146912Y-84172309D01*
X89165739Y-84166848D01*
X89917166Y-83866277D01*
X90173859Y-84457864D01*
G36*
X90632580Y-91619460D02*
G01*
X90652580Y-91619460D01*
X90652580Y-91719460D01*
X90632580Y-91719460D01*
X90632580Y-91739460D01*
X90532580Y-91739460D01*
X90532580Y-91719460D01*
X90512580Y-91719460D01*
X90512580Y-91619460D01*
X90532580Y-91619460D01*
X90532580Y-91599460D01*
X90632580Y-91599460D01*
X90632580Y-91619460D01*
G37*
X90632580Y-91619460D02*
X90652580Y-91619460D01*
X90652580Y-91719460D01*
X90632580Y-91719460D01*
X90632580Y-91739460D01*
X90532580Y-91739460D01*
X90532580Y-91719460D01*
X90512580Y-91719460D01*
X90512580Y-91619460D01*
X90532580Y-91619460D01*
X90532580Y-91599460D01*
X90632580Y-91599460D01*
X90632580Y-91619460D01*
G36*
X89020753Y-82751085D02*
G01*
X89039094Y-82743110D01*
X89078969Y-82834816D01*
X89060627Y-82842791D01*
X89068602Y-82861132D01*
X88976896Y-82901007D01*
X88968921Y-82882665D01*
X88950580Y-82890640D01*
X88910705Y-82798934D01*
X88929047Y-82790959D01*
X88921072Y-82772618D01*
X89012778Y-82732743D01*
X89020753Y-82751085D01*
G37*
X89020753Y-82751085D02*
X89039094Y-82743110D01*
X89078969Y-82834816D01*
X89060627Y-82842791D01*
X89068602Y-82861132D01*
X88976896Y-82901007D01*
X88968921Y-82882665D01*
X88950580Y-82890640D01*
X88910705Y-82798934D01*
X88929047Y-82790959D01*
X88921072Y-82772618D01*
X89012778Y-82732743D01*
X89020753Y-82751085D01*
G36*
X85430523Y-81912436D02*
G01*
X85448864Y-81904461D01*
X85488739Y-81996167D01*
X85470397Y-82004142D01*
X85478372Y-82022483D01*
X85386666Y-82062358D01*
X85378691Y-82044016D01*
X85360350Y-82051991D01*
X85320475Y-81960285D01*
X85338817Y-81952310D01*
X85330842Y-81933969D01*
X85422548Y-81894094D01*
X85430523Y-81912436D01*
G37*
X85430523Y-81912436D02*
X85448864Y-81904461D01*
X85488739Y-81996167D01*
X85470397Y-82004142D01*
X85478372Y-82022483D01*
X85386666Y-82062358D01*
X85378691Y-82044016D01*
X85360350Y-82051991D01*
X85320475Y-81960285D01*
X85338817Y-81952310D01*
X85330842Y-81933969D01*
X85422548Y-81894094D01*
X85430523Y-81912436D01*
G36*
X87585256Y-79449669D02*
G01*
X87603597Y-79441694D01*
X87643472Y-79533400D01*
X87625130Y-79541375D01*
X87633105Y-79559716D01*
X87541399Y-79599591D01*
X87533424Y-79581249D01*
X87515083Y-79589224D01*
X87475208Y-79497518D01*
X87493550Y-79489543D01*
X87485575Y-79471202D01*
X87577281Y-79431327D01*
X87585256Y-79449669D01*
G37*
X87585256Y-79449669D02*
X87603597Y-79441694D01*
X87643472Y-79533400D01*
X87625130Y-79541375D01*
X87633105Y-79559716D01*
X87541399Y-79599591D01*
X87533424Y-79581249D01*
X87515083Y-79589224D01*
X87475208Y-79497518D01*
X87493550Y-79489543D01*
X87485575Y-79471202D01*
X87577281Y-79431327D01*
X87585256Y-79449669D01*
%TO.N,+3V0*%
G36*
X56953148Y-90692000D02*
G01*
X56954600Y-93247000D01*
X57029600Y-93322000D01*
X58404600Y-93322000D01*
X58404600Y-93302000D01*
X58704600Y-93302000D01*
X58704600Y-93322000D01*
X58724600Y-93322000D01*
X58724600Y-93622000D01*
X58704600Y-93622000D01*
X58704600Y-93642000D01*
X58404600Y-93642000D01*
X58404600Y-93622000D01*
X57029600Y-93622000D01*
X56954600Y-93697000D01*
X56953148Y-96252000D01*
X56957686Y-96298080D01*
X56493062Y-96298080D01*
X56401640Y-96206658D01*
X56401640Y-90732262D01*
X56493062Y-90640840D01*
X56958187Y-90640840D01*
X56953148Y-90692000D01*
G37*
X56953148Y-90692000D02*
X56954600Y-93247000D01*
X57029600Y-93322000D01*
X58404600Y-93322000D01*
X58404600Y-93302000D01*
X58704600Y-93302000D01*
X58704600Y-93322000D01*
X58724600Y-93322000D01*
X58724600Y-93622000D01*
X58704600Y-93622000D01*
X58704600Y-93642000D01*
X58404600Y-93642000D01*
X58404600Y-93622000D01*
X57029600Y-93622000D01*
X56954600Y-93697000D01*
X56953148Y-96252000D01*
X56957686Y-96298080D01*
X56493062Y-96298080D01*
X56401640Y-96206658D01*
X56401640Y-90732262D01*
X56493062Y-90640840D01*
X56958187Y-90640840D01*
X56953148Y-90692000D01*
%TD*%
M02*
