M48
; DRILL file {KiCad (5.1.6)-1} date 12/14/25 22:53:04
; FORMAT={-:-/ absolute / inch / decimal}
; #@! TF.CreationDate,2025-12-14T22:53:04+05:30
; #@! TF.GenerationSoftware,Kicad,Pcbnew,(5.1.6)-1
FMAT,2
INCH
T1C0.0118
T2C0.0669
%
G90
G05
T1
X2.167Y-3.836
X2.169Y-3.512
X2.226Y-3.584
X2.226Y-3.777
X2.255Y-3.88
X2.264Y-3.514
X2.289Y-3.841
X2.298Y-3.869
X2.299Y-3.524
X2.3206Y-3.4798
X2.323Y-3.232
X2.332Y-4.114
X2.3392Y-3.8995
X2.372Y-3.7314
X2.3765Y-3.431
X2.3946Y-3.354
X2.4143Y-3.798
X2.4144Y-3.8316
X2.437Y-4.017
X2.448Y-3.5445
X2.456Y-3.319
X2.4605Y-3.713
X2.4608Y-3.598
X2.4625Y-3.275
X2.463Y-3.443
X2.468Y-3.922
X2.4735Y-3.837
X2.4735Y-3.861
X2.475Y-3.812
X2.4845Y-4.039
X2.4891Y-3.9667
X2.502Y-4.094
X2.503Y-3.549
X2.5225Y-3.4855
X2.5334Y-3.3652
X2.537Y-3.269
X2.548Y-4.063
X2.5488Y-4.0342
X2.5511Y-3.9411
X2.553Y-3.8075
X2.558Y-4.129
X2.5644Y-3.7858
X2.5648Y-3.5962
X2.5652Y-3.7564
X2.5735Y-3.436
X2.5785Y-3.308
X2.5787Y-3.8065
X2.5804Y-3.5458
X2.5815Y-3.922
X2.585Y-3.7065
X2.5956Y-3.5944
X2.6002Y-3.532
X2.601Y-3.083
X2.601Y-3.292
X2.601Y-4.27
X2.608Y-3.41
X2.63Y-3.6615
X2.632Y-3.7235
X2.632Y-3.7835
X2.6345Y-3.5745
X2.637Y-3.3573
X2.6456Y-4.1348
X2.6457Y-3.9973
X2.6534Y-3.2211
X2.659Y-3.9655
X2.67Y-3.813
X2.6711Y-3.5479
X2.672Y-3.441
X2.6726Y-3.478
X2.6735Y-3.377
X2.68Y-3.9887
X2.683Y-3.904
X2.7058Y-3.989
X2.7229Y-3.9278
X2.7245Y-4.015
X2.7285Y-3.9775
X2.7308Y-3.3364
X2.731Y-3.243
X2.737Y-4.1665
X2.751Y-3.616
X2.752Y-3.8124
X2.774Y-3.7247
X2.7965Y-3.8121
X2.7984Y-3.7232
X2.82Y-3.383
X2.8207Y-3.289
X2.83Y-3.498
X2.833Y-3.337
X2.834Y-3.5479
X2.8451Y-3.8121
X2.846Y-4.013
X2.8496Y-3.3916
X2.8511Y-3.4841
X2.857Y-3.242
X2.8782Y-3.784
X2.8788Y-3.4344
X2.881Y-3.963
X2.8835Y-4.0155
X2.887Y-3.154
X2.896Y-3.547
X2.8965Y-3.8878
X2.8988Y-3.519
X2.9038Y-3.4899
X2.907Y-3.337
X2.9112Y-4.0152
X2.9115Y-3.405
X2.924Y-3.477
X2.924Y-4.277
X2.925Y-4.066
X2.9306Y-4.1484
X2.933Y-3.319
X2.935Y-3.9085
X2.937Y-3.083
X2.946Y-3.64
X2.946Y-3.681
X2.946Y-3.722
X2.9493Y-3.4777
X2.971Y-3.302
X2.9836Y-3.543
X2.986Y-3.64
X2.986Y-3.681
X2.986Y-3.722
X2.9888Y-3.9612
X2.999Y-3.406
X3.0Y-3.327
X3.0Y-4.13
X3.0046Y-3.8494
X3.0127Y-3.2683
X3.0136Y-4.0035
X3.027Y-3.64
X3.027Y-3.681
X3.027Y-3.722
X3.034Y-3.848
X3.0352Y-3.8132
X3.057Y-4.065
X3.061Y-3.418
X3.0613Y-3.2591
X3.0765Y-3.8075
X3.0809Y-3.5878
X3.0831Y-3.7681
X3.0963Y-3.5686
X3.0967Y-3.9197
X3.101Y-3.796
X3.103Y-4.004
X3.1045Y-3.5911
X3.1057Y-4.0623
X3.11Y-3.344
X3.1137Y-3.6718
X3.115Y-3.444
X3.1157Y-3.715
X3.148Y-3.4802
X3.1518Y-3.6326
X3.154Y-3.5348
X3.168Y-3.368
X3.1717Y-3.4284
X3.1754Y-3.8404
X3.1756Y-3.6326
X3.1845Y-3.4785
X3.185Y-3.53
X3.1927Y-3.817
X3.201Y-3.3963
X3.205Y-3.962
X3.206Y-3.869
X3.208Y-3.233
X3.214Y-4.122
X3.2206Y-3.8133
X3.2249Y-3.5475
X3.232Y-3.464
X3.2424Y-3.8344
X3.258Y-3.5202
X3.2642Y-3.8445
X3.325Y-3.59
X3.326Y-3.751
X3.374Y-3.878
X3.3766Y-3.5258
X3.4402Y-3.5484
T2
X2.092Y-3.9625
X2.092Y-3.3975
X2.4915Y-2.998
X3.456Y-3.9625
X2.4915Y-4.362
X3.0565Y-4.362
X3.0565Y-2.998
X3.456Y-3.3975
T0
M30
