%TF.GenerationSoftware,KiCad,Pcbnew,(5.1.6)-1*%
%TF.CreationDate,2025-10-29T08:33:25+05:30*%
%TF.ProjectId,Project_OAK_MAIN_BRD_V1.0,50726f6a-6563-4745-9f4f-414b5f4d4149,A*%
%TF.SameCoordinates,Original*%
%TF.FileFunction,Copper,L2,Inr*%
%TF.FilePolarity,Positive*%
%FSLAX46Y46*%
G04 Gerber Fmt 4.6, Leading zero omitted, Abs format (unit mm)*
G04 Created by KiCad (PCBNEW (5.1.6)-1) date 2025-10-29 08:33:25*
%MOMM*%
%LPD*%
G01*
G04 APERTURE LIST*
%TA.AperFunction,ViaPad*%
%ADD10C,0.450000*%
%TD*%
%TA.AperFunction,Conductor*%
%ADD11C,0.200000*%
%TD*%
%TA.AperFunction,Conductor*%
%ADD12C,0.156500*%
%TD*%
G04 APERTURE END LIST*
D10*
%TO.N,+3V0*%
X56540400Y-95935800D03*
X71846893Y-90116966D03*
X84455000Y-91186000D03*
X84480400Y-95275400D03*
X80365600Y-97713800D03*
X81864200Y-90093800D03*
X61373990Y-96469200D03*
X71018400Y-96875600D03*
X72793898Y-79472696D03*
X66852800Y-88747600D03*
X65811402Y-91363800D03*
X65811396Y-94284800D03*
X56540400Y-91033600D03*
%TO.N,GND*%
X74599800Y-78308200D03*
X69363460Y-84744612D03*
X66929000Y-87782400D03*
X80881190Y-89809243D03*
X62687200Y-91414600D03*
X66979332Y-85274276D03*
X81483200Y-82118200D03*
X85394800Y-88849200D03*
X85699600Y-98501200D03*
X81635600Y-104698800D03*
X74269600Y-108635800D03*
X66065400Y-108458000D03*
X59232800Y-104495600D03*
X55041800Y-97434400D03*
X55092600Y-89204800D03*
X59004200Y-82092800D03*
X66065400Y-78308200D03*
X68884800Y-100482400D03*
X62611000Y-99644200D03*
X66522600Y-104571800D03*
X71577200Y-104571800D03*
X67589400Y-99085400D03*
X77647800Y-103251000D03*
X68808600Y-86512400D03*
X71958200Y-84759800D03*
X72796400Y-86487000D03*
X64262000Y-86207600D03*
X66065400Y-83616800D03*
X75463400Y-83870800D03*
X77749400Y-86817200D03*
X67056002Y-101676200D03*
X69024534Y-102171532D03*
X64312800Y-88239600D03*
X69367400Y-82372200D03*
X72567800Y-82346800D03*
X66471800Y-86487000D03*
X73050400Y-87452200D03*
X80865610Y-96977200D03*
X69900790Y-96915322D03*
X66963714Y-89633294D03*
X77698600Y-82804000D03*
X60782200Y-85445600D03*
X63093600Y-95808800D03*
X72288400Y-101930200D03*
X66209810Y-96502590D03*
X78943200Y-93243400D03*
X75743706Y-100621621D03*
X81559400Y-96951800D03*
X57277000Y-98552000D03*
X61874400Y-97002600D03*
X63373000Y-100965000D03*
X75920600Y-86334600D03*
X80467200Y-85547200D03*
X80949800Y-98755200D03*
X81356200Y-98323400D03*
%TO.N,/LGT_ON_BTN*%
X73597035Y-90066982D03*
%TO.N,/UP_BTN*%
X73616105Y-88561293D03*
%TO.N,/MCU_RSTn*%
X75706069Y-90050605D03*
X80281810Y-89836519D03*
%TO.N,/C1_T*%
X74498200Y-84302600D03*
X79121000Y-87477600D03*
X78536798Y-99441000D03*
X71645810Y-83540600D03*
X76428600Y-101571632D03*
X80060800Y-92329000D03*
%TO.N,/C2_T*%
X66446400Y-102590604D03*
X61409610Y-97510600D03*
%TO.N,/C3_T*%
X71628000Y-85928200D03*
X73406000Y-80137000D03*
%TO.N,/C4_T*%
X73981751Y-101843057D03*
X83489800Y-97764600D03*
%TO.N,/R1*%
X69519800Y-105829579D03*
X69363460Y-83566000D03*
X66294000Y-105740200D03*
X66395600Y-84302594D03*
%TO.N,/C6_T*%
X57505600Y-89255600D03*
X64960500Y-100735066D03*
%TO.N,/R2*%
X63550800Y-103987600D03*
X67284600Y-81788000D03*
X62560200Y-87452200D03*
X74162317Y-105390283D03*
X76530200Y-83007200D03*
X76200000Y-84505800D03*
X75082400Y-87993190D03*
%TO.N,/R3*%
X61899800Y-102031800D03*
X78994000Y-84937600D03*
X64439800Y-83032600D03*
X74269600Y-88315800D03*
X60502800Y-94615000D03*
X76200000Y-104902000D03*
X79959200Y-88468200D03*
%TO.N,/R4*%
X61881417Y-84919217D03*
X78994000Y-103047800D03*
X59334400Y-99136200D03*
X81454249Y-86266545D03*
X80689588Y-92322569D03*
%TO.N,/R5*%
X58140600Y-97561400D03*
X59829136Y-86477046D03*
X81407000Y-100634800D03*
X64444167Y-101587560D03*
X82956400Y-89484200D03*
%TO.N,/R6*%
X82753200Y-97764600D03*
X71704200Y-103454200D03*
X58369196Y-89458800D03*
X64897000Y-99923600D03*
X82092800Y-87985600D03*
%TO.N,/C6*%
X78645990Y-90643050D03*
X67691000Y-100431600D03*
%TO.N,/C5*%
X78255452Y-91131356D03*
X69977000Y-100075996D03*
%TO.N,/C4*%
X74832663Y-99266168D03*
X78854327Y-91212761D03*
%TO.N,/C3*%
X69316600Y-85928200D03*
X76842177Y-97864109D03*
%TO.N,/C2*%
X76354630Y-97514377D03*
X62433200Y-90271600D03*
%TO.N,/PE1*%
X67259200Y-97510600D03*
%TO.N,/ICSP_MOSI*%
X77321540Y-97028000D03*
%TO.N,/ICSP_MISO*%
X78333604Y-96459611D03*
%TO.N,/ICSP_SCK*%
X78333600Y-95834194D03*
%TO.N,/DWN_BTN*%
X78693721Y-101668610D03*
%TO.N,/RTC_INTO*%
X64566898Y-95568194D03*
X73510962Y-89152020D03*
%TO.N,/ACC_INT1*%
X64389865Y-89692543D03*
%TO.N,/ACC_INT2*%
X72390000Y-96877002D03*
X65023435Y-89699981D03*
%TO.N,/ACC_CS*%
X72263000Y-87477600D03*
%TO.N,/ACC_SDA0*%
X72190740Y-88090204D03*
%TO.N,/PE2*%
X79105443Y-94265792D03*
X70485000Y-99060000D03*
%TD*%
D11*
%TO.N,/C1_T*%
X79785001Y-89259201D02*
X79785001Y-92053201D01*
X79121000Y-88595200D02*
X79785001Y-89259201D01*
X79121000Y-87477600D02*
X79121000Y-88595200D01*
X79785001Y-92053201D02*
X80060800Y-92329000D01*
%TO.N,/C4_T*%
X79212389Y-102143611D02*
X83489800Y-97866200D01*
X73981751Y-101843057D02*
X74282305Y-102143611D01*
X83489800Y-97866200D02*
X83489800Y-97764600D01*
X74282305Y-102143611D02*
X79212389Y-102143611D01*
%TO.N,/R1*%
X66383379Y-105829579D02*
X66294000Y-105740200D01*
X69519800Y-105829579D02*
X66383379Y-105829579D01*
X66395606Y-84302600D02*
X66395600Y-84302594D01*
X68580000Y-84302600D02*
X66395606Y-84302600D01*
X69363460Y-83566000D02*
X69316600Y-83566000D01*
X69316600Y-83566000D02*
X68580000Y-84302600D01*
X66090800Y-105740200D02*
X66294000Y-105740200D01*
X63042800Y-102692200D02*
X66090800Y-105740200D01*
X61010800Y-89916000D02*
X61010800Y-93370400D01*
X61366400Y-93726000D02*
X61366400Y-95504000D01*
X60858400Y-99339400D02*
X63042800Y-101523800D01*
X63627000Y-85598000D02*
X63627000Y-87299800D01*
X66395600Y-84302594D02*
X64922406Y-84302594D01*
X63042800Y-101523800D02*
X63042800Y-102692200D01*
X64922406Y-84302594D02*
X63627000Y-85598000D01*
X63627000Y-87299800D02*
X61010800Y-89916000D01*
X60858400Y-96012000D02*
X60858400Y-99339400D01*
X61010800Y-93370400D02*
X61366400Y-93726000D01*
X61366400Y-95504000D02*
X60858400Y-96012000D01*
%TO.N,/R2*%
X65867789Y-106304589D02*
X73248011Y-106304589D01*
X63550800Y-103987600D02*
X65867789Y-106304589D01*
X73248011Y-106304589D02*
X74162317Y-105390283D01*
X76530200Y-84175600D02*
X76530200Y-83007200D01*
X76200000Y-84505800D02*
X76530200Y-84175600D01*
X60502800Y-89509600D02*
X62560200Y-87452200D01*
X60502800Y-93784998D02*
X60502800Y-89509600D01*
X60977803Y-94260001D02*
X60502800Y-93784998D01*
X60977803Y-95181397D02*
X60977803Y-94260001D01*
X62484000Y-102920800D02*
X62484000Y-101752400D01*
X62484000Y-101752400D02*
X60375800Y-99644200D01*
X60375800Y-99644200D02*
X60375800Y-95783400D01*
X63550800Y-103987600D02*
X62484000Y-102920800D01*
X60375800Y-95783400D02*
X60977803Y-95181397D01*
X66598800Y-81788000D02*
X67284600Y-81788000D01*
X63042800Y-86995000D02*
X63042800Y-85344000D01*
X63042800Y-85344000D02*
X66598800Y-81788000D01*
X62560200Y-87452200D02*
X62585600Y-87452200D01*
X62585600Y-87452200D02*
X63042800Y-86995000D01*
X68503800Y-83007200D02*
X76530200Y-83007200D01*
X67284600Y-81788000D02*
X68503800Y-83007200D01*
%TO.N,/R3*%
X61899800Y-102031800D02*
X59867800Y-99999800D01*
X59867800Y-95250000D02*
X60502800Y-94615000D01*
X59867800Y-99999800D02*
X59867800Y-95250000D01*
X59918600Y-94030800D02*
X60502800Y-94615000D01*
X62433200Y-86664800D02*
X59918600Y-89179400D01*
X59918600Y-89179400D02*
X59918600Y-94030800D01*
X64439800Y-83032600D02*
X62433200Y-85039200D01*
X62433200Y-85039200D02*
X62433200Y-86664800D01*
X80772000Y-87655400D02*
X79959200Y-88468200D01*
X78994000Y-84937600D02*
X80772000Y-86715600D01*
X80772000Y-86715600D02*
X80772000Y-87655400D01*
X66294000Y-81203800D02*
X75412600Y-81203800D01*
X75412600Y-81203800D02*
X78994000Y-84785200D01*
X64439800Y-83032600D02*
X64465200Y-83032600D01*
X78994000Y-84785200D02*
X78994000Y-84937600D01*
X64465200Y-83032600D02*
X66294000Y-81203800D01*
X65455800Y-106807000D02*
X61899800Y-103251000D01*
X61899800Y-103251000D02*
X61899800Y-102031800D01*
X76200000Y-104902000D02*
X76200000Y-104952800D01*
X74345800Y-106807000D02*
X65455800Y-106807000D01*
X76200000Y-104952800D02*
X74345800Y-106807000D01*
%TO.N,/R4*%
X61881417Y-84919217D02*
X61881417Y-86276783D01*
X59334400Y-88823800D02*
X59334400Y-99136200D01*
X61881417Y-86276783D02*
X59334400Y-88823800D01*
X59334400Y-100253800D02*
X59334400Y-99136200D01*
X74726800Y-107315000D02*
X65176400Y-107315000D01*
X78994000Y-103047800D02*
X74726800Y-107315000D01*
X61214000Y-103352600D02*
X61214000Y-102133400D01*
X65176400Y-107315000D02*
X61214000Y-103352600D01*
X61214000Y-102133400D02*
X59334400Y-100253800D01*
X66104834Y-80695800D02*
X76428600Y-80695800D01*
X81454249Y-85721449D02*
X81454249Y-86266545D01*
X61881417Y-84919217D02*
X66104834Y-80695800D01*
X76428600Y-80695800D02*
X81454249Y-85721449D01*
X81381600Y-86339194D02*
X81381600Y-91630557D01*
X81454249Y-86266545D02*
X81381600Y-86339194D01*
X81381600Y-91630557D02*
X80689588Y-92322569D01*
%TO.N,/R5*%
X58140600Y-97561400D02*
X58343800Y-97561400D01*
X58945801Y-96959399D02*
X58945801Y-87360381D01*
X58945801Y-87360381D02*
X59829136Y-86477046D01*
X58343800Y-97561400D02*
X58945801Y-96959399D01*
X79578200Y-103327200D02*
X79578200Y-102463600D01*
X75082400Y-107823000D02*
X79578200Y-103327200D01*
X79578200Y-102463600D02*
X80035400Y-102006400D01*
X64820800Y-107823000D02*
X75082400Y-107823000D01*
X58750200Y-97967800D02*
X58750200Y-100355400D01*
X58750200Y-100355400D02*
X60604400Y-102209600D01*
X58343800Y-97561400D02*
X58750200Y-97967800D01*
X60604400Y-102209600D02*
X60604400Y-103606600D01*
X80035400Y-102006400D02*
X81407000Y-100634800D01*
X60604400Y-103606600D02*
X64820800Y-107823000D01*
X71069200Y-103174800D02*
X66031407Y-103174800D01*
X71678800Y-102565200D02*
X71069200Y-103174800D01*
X66031407Y-103174800D02*
X64444167Y-101587560D01*
X80060800Y-101981000D02*
X79476600Y-102565200D01*
X79476600Y-102565200D02*
X71678800Y-102565200D01*
X83964801Y-97401401D02*
X83964801Y-98076999D01*
X82956400Y-89484200D02*
X82956400Y-96393000D01*
X83964801Y-98076999D02*
X81407000Y-100634800D01*
X82956400Y-96393000D02*
X83964801Y-97401401D01*
%TO.N,/R6*%
X79522778Y-101096622D02*
X66070022Y-101096622D01*
X82753200Y-97764600D02*
X82753200Y-97866200D01*
X66070022Y-101096622D02*
X64897000Y-99923600D01*
X82753200Y-97866200D02*
X79522778Y-101096622D01*
X82423000Y-97434400D02*
X82423000Y-88315800D01*
X82423000Y-88315800D02*
X82092800Y-87985600D01*
X82753200Y-97764600D02*
X82423000Y-97434400D01*
X65350599Y-103679199D02*
X63957200Y-102285800D01*
X63957200Y-100863400D02*
X64897000Y-99923600D01*
X63957200Y-102285800D02*
X63957200Y-100863400D01*
X71704200Y-103454200D02*
X71479201Y-103679199D01*
X71479201Y-103679199D02*
X65350599Y-103679199D01*
%TO.N,/C6*%
X70434200Y-99745800D02*
X70263999Y-99575599D01*
X76885800Y-99745800D02*
X70434200Y-99745800D01*
X68547001Y-99575599D02*
X67691000Y-100431600D01*
X70263999Y-99575599D02*
X68547001Y-99575599D01*
X80010000Y-96621600D02*
X76885800Y-99745800D01*
X78040754Y-90643050D02*
X77780450Y-90903354D01*
X78645990Y-90643050D02*
X78040754Y-90643050D01*
X77780450Y-90903354D02*
X77780450Y-91399042D01*
X77780450Y-91399042D02*
X80010000Y-93628592D01*
X80010000Y-93628592D02*
X80010000Y-96621600D01*
%TO.N,/C5*%
X70047615Y-100146611D02*
X69977000Y-100075996D01*
X78255452Y-91311052D02*
X80365600Y-93421200D01*
X80365600Y-93421200D02*
X80365600Y-96832998D01*
X78255452Y-91131356D02*
X78255452Y-91311052D01*
X80365600Y-96832998D02*
X77051987Y-100146611D01*
X77051987Y-100146611D02*
X70047615Y-100146611D01*
%TO.N,/C4*%
X76781232Y-99266168D02*
X74832663Y-99266168D01*
X79222600Y-90347800D02*
X78994000Y-90119200D01*
X79589378Y-96458022D02*
X76781232Y-99266168D01*
X78854327Y-91212761D02*
X79222600Y-90844488D01*
X78994000Y-90119200D02*
X77978000Y-90119200D01*
X79222600Y-90844488D02*
X79222600Y-90347800D01*
X77393800Y-90703400D02*
X77393800Y-92379800D01*
X77978000Y-90119200D02*
X77393800Y-90703400D01*
X77393800Y-92379800D02*
X78732401Y-93718401D01*
X78732401Y-93718401D02*
X79367401Y-93718401D01*
X79589378Y-93940378D02*
X79589378Y-96458022D01*
X79367401Y-93718401D02*
X79589378Y-93940378D01*
%TO.N,/C3*%
X65760600Y-85928200D02*
X69316600Y-85928200D01*
X61468000Y-90220800D02*
X65760600Y-85928200D01*
X61468000Y-93218000D02*
X61468000Y-90220800D01*
X76332086Y-98374200D02*
X64211200Y-98374200D01*
X76842177Y-97864109D02*
X76332086Y-98374200D01*
X61798200Y-93548200D02*
X61468000Y-93218000D01*
X64211200Y-98374200D02*
X61798200Y-95961200D01*
X61798200Y-95961200D02*
X61798200Y-93548200D01*
%TO.N,/C2*%
X75883406Y-97985601D02*
X64599799Y-97985601D01*
X64599799Y-97985601D02*
X64592200Y-97993200D01*
X76354630Y-97514377D02*
X75883406Y-97985601D01*
X64592200Y-97993200D02*
X64516000Y-97993200D01*
X64516000Y-97993200D02*
X62280800Y-95758000D01*
X62280800Y-95758000D02*
X62280800Y-93345000D01*
X62280800Y-93345000D02*
X61925200Y-92989400D01*
X61925200Y-92989400D02*
X61925200Y-90779600D01*
X61925200Y-90779600D02*
X62433200Y-90271600D01*
D12*
%TO.N,/PE2*%
X79105443Y-94265792D02*
X79105443Y-96383157D01*
X76682668Y-98805932D02*
X70739068Y-98805932D01*
X79105443Y-96383157D02*
X76682668Y-98805932D01*
X70739068Y-98805932D02*
X70485000Y-99060000D01*
%TD*%
D11*
%TO.N,GND*%
G36*
X59743289Y-70801861D02*
G01*
X59775690Y-70811644D01*
X59805582Y-70827537D01*
X59831813Y-70848932D01*
X59853391Y-70875015D01*
X59869488Y-70904786D01*
X59879499Y-70937125D01*
X59884601Y-70985669D01*
X59884600Y-74556039D01*
X59883028Y-74572000D01*
X59889303Y-74635711D01*
X59907887Y-74696974D01*
X59938065Y-74753434D01*
X59975674Y-74799259D01*
X59978679Y-74802921D01*
X60028166Y-74843535D01*
X60084626Y-74873713D01*
X60145889Y-74892297D01*
X60209600Y-74898572D01*
X60225560Y-74897000D01*
X62779788Y-74897000D01*
X62644821Y-74952905D01*
X62423711Y-75100646D01*
X62235673Y-75288684D01*
X62087932Y-75509794D01*
X61986166Y-75755479D01*
X61934286Y-76016296D01*
X61934286Y-76282222D01*
X61986166Y-76543039D01*
X62087932Y-76788724D01*
X62235673Y-77009834D01*
X62423711Y-77197872D01*
X62644821Y-77345613D01*
X62890506Y-77447379D01*
X63151323Y-77499259D01*
X63417249Y-77499259D01*
X63678066Y-77447379D01*
X63923751Y-77345613D01*
X64144861Y-77197872D01*
X64332899Y-77009834D01*
X64480640Y-76788724D01*
X64582406Y-76543039D01*
X64634286Y-76282222D01*
X64634286Y-76016296D01*
X64582406Y-75755479D01*
X64480640Y-75509794D01*
X64332899Y-75288684D01*
X64144861Y-75100646D01*
X63923751Y-74952905D01*
X63788784Y-74897000D01*
X77130416Y-74897000D01*
X76995449Y-74952905D01*
X76774339Y-75100646D01*
X76586301Y-75288684D01*
X76438560Y-75509794D01*
X76336794Y-75755479D01*
X76284914Y-76016296D01*
X76284914Y-76282222D01*
X76336794Y-76543039D01*
X76438560Y-76788724D01*
X76586301Y-77009834D01*
X76774339Y-77197872D01*
X76995449Y-77345613D01*
X77241134Y-77447379D01*
X77501951Y-77499259D01*
X77767877Y-77499259D01*
X78028694Y-77447379D01*
X78274379Y-77345613D01*
X78495489Y-77197872D01*
X78683527Y-77009834D01*
X78831268Y-76788724D01*
X78933034Y-76543039D01*
X78984914Y-76282222D01*
X78984914Y-76016296D01*
X78933034Y-75755479D01*
X78831268Y-75509794D01*
X78683527Y-75288684D01*
X78495489Y-75100646D01*
X78274379Y-74952905D01*
X78139412Y-74897000D01*
X80693639Y-74897000D01*
X80709599Y-74898572D01*
X80773310Y-74892297D01*
X80834573Y-74873713D01*
X80891033Y-74843535D01*
X80940520Y-74802921D01*
X80981134Y-74753434D01*
X81011312Y-74696974D01*
X81029896Y-74635711D01*
X81034599Y-74587961D01*
X81034599Y-74587960D01*
X81036171Y-74572000D01*
X81034599Y-74556039D01*
X81034599Y-70987894D01*
X81039460Y-70938311D01*
X81049243Y-70905910D01*
X81065136Y-70876018D01*
X81086531Y-70849787D01*
X81112614Y-70828209D01*
X81142385Y-70812112D01*
X81174724Y-70802101D01*
X81223258Y-70797000D01*
X83787519Y-70797000D01*
X83934231Y-70811385D01*
X84060053Y-70849373D01*
X84176101Y-70911077D01*
X84277953Y-70994145D01*
X84362330Y-71096139D01*
X84428604Y-71217048D01*
X90173859Y-84457860D01*
X90442091Y-85266257D01*
X90526706Y-85729214D01*
X90842436Y-88728610D01*
X91006238Y-91744277D01*
X91017258Y-94764342D01*
X90875470Y-97781118D01*
X90580896Y-100790331D01*
X90528128Y-101205120D01*
X90343047Y-102035911D01*
X90176347Y-102480405D01*
X84428971Y-115726106D01*
X84357386Y-115854951D01*
X84272451Y-115955257D01*
X84169652Y-116037156D01*
X84052908Y-116097525D01*
X83925750Y-116134332D01*
X83788453Y-116147001D01*
X81225493Y-116146999D01*
X81175910Y-116142138D01*
X81143509Y-116132355D01*
X81113615Y-116116461D01*
X81087385Y-116095067D01*
X81065810Y-116068988D01*
X81049710Y-116039212D01*
X81039700Y-116006874D01*
X81034599Y-115958341D01*
X81034599Y-112387960D01*
X81036171Y-112371999D01*
X81029896Y-112308288D01*
X81011312Y-112247025D01*
X80981134Y-112190565D01*
X80940520Y-112141078D01*
X80891033Y-112100464D01*
X80834573Y-112070286D01*
X80773310Y-112051702D01*
X80725560Y-112046999D01*
X80725559Y-112046999D01*
X80709599Y-112045427D01*
X80693638Y-112046999D01*
X78139415Y-112046999D01*
X78274379Y-111991095D01*
X78495489Y-111843354D01*
X78683527Y-111655316D01*
X78831268Y-111434206D01*
X78933034Y-111188521D01*
X78984914Y-110927704D01*
X78984914Y-110661778D01*
X78933034Y-110400961D01*
X78831268Y-110155276D01*
X78683527Y-109934166D01*
X78495489Y-109746128D01*
X78274379Y-109598387D01*
X78028694Y-109496621D01*
X77767877Y-109444741D01*
X77501951Y-109444741D01*
X77241134Y-109496621D01*
X76995449Y-109598387D01*
X76774339Y-109746128D01*
X76586301Y-109934166D01*
X76438560Y-110155276D01*
X76336794Y-110400961D01*
X76284914Y-110661778D01*
X76284914Y-110927704D01*
X76336794Y-111188521D01*
X76438560Y-111434206D01*
X76586301Y-111655316D01*
X76774339Y-111843354D01*
X76995449Y-111991095D01*
X77130413Y-112046999D01*
X63788787Y-112046999D01*
X63923751Y-111991095D01*
X64144861Y-111843354D01*
X64332899Y-111655316D01*
X64480640Y-111434206D01*
X64582406Y-111188521D01*
X64634286Y-110927704D01*
X64634286Y-110661778D01*
X64582406Y-110400961D01*
X64480640Y-110155276D01*
X64332899Y-109934166D01*
X64144861Y-109746128D01*
X63923751Y-109598387D01*
X63678066Y-109496621D01*
X63417249Y-109444741D01*
X63151323Y-109444741D01*
X62890506Y-109496621D01*
X62644821Y-109598387D01*
X62423711Y-109746128D01*
X62235673Y-109934166D01*
X62087932Y-110155276D01*
X61986166Y-110400961D01*
X61934286Y-110661778D01*
X61934286Y-110927704D01*
X61986166Y-111188521D01*
X62087932Y-111434206D01*
X62235673Y-111655316D01*
X62423711Y-111843354D01*
X62644821Y-111991095D01*
X62779785Y-112046999D01*
X60225561Y-112046999D01*
X60209600Y-112045427D01*
X60193640Y-112046999D01*
X60193639Y-112046999D01*
X60145889Y-112051702D01*
X60084626Y-112070286D01*
X60028166Y-112100464D01*
X59978679Y-112141078D01*
X59938065Y-112190565D01*
X59907887Y-112247025D01*
X59889303Y-112308288D01*
X59883028Y-112371999D01*
X59884601Y-112387970D01*
X59884600Y-115956105D01*
X59879739Y-116005688D01*
X59869956Y-116038089D01*
X59854062Y-116067983D01*
X59832668Y-116094213D01*
X59806589Y-116115788D01*
X59776813Y-116131888D01*
X59744475Y-116141898D01*
X59695942Y-116146999D01*
X57131671Y-116146999D01*
X56984970Y-116132615D01*
X56859146Y-116094626D01*
X56743100Y-116032923D01*
X56641244Y-115949852D01*
X56556868Y-115847860D01*
X56490597Y-115726953D01*
X50745347Y-102486157D01*
X50477109Y-101677744D01*
X50392494Y-101214785D01*
X50318764Y-100514351D01*
X51786859Y-100514351D01*
X51786859Y-100780277D01*
X51838739Y-101041094D01*
X51940505Y-101286779D01*
X52088246Y-101507889D01*
X52276284Y-101695927D01*
X52497394Y-101843668D01*
X52743079Y-101945434D01*
X53003896Y-101997314D01*
X53269822Y-101997314D01*
X53530639Y-101945434D01*
X53776324Y-101843668D01*
X53997434Y-101695927D01*
X54185472Y-101507889D01*
X54333213Y-101286779D01*
X54434979Y-101041094D01*
X54486859Y-100780277D01*
X54486859Y-100514351D01*
X54434979Y-100253534D01*
X54333213Y-100007849D01*
X54185472Y-99786739D01*
X53997434Y-99598701D01*
X53776324Y-99450960D01*
X53530639Y-99349194D01*
X53269822Y-99297314D01*
X53003896Y-99297314D01*
X52743079Y-99349194D01*
X52497394Y-99450960D01*
X52276284Y-99598701D01*
X52088246Y-99786739D01*
X51940505Y-100007849D01*
X51838739Y-100253534D01*
X51786859Y-100514351D01*
X50318764Y-100514351D01*
X50076764Y-98215390D01*
X49950135Y-95884092D01*
X56015400Y-95884092D01*
X56015400Y-95987508D01*
X56035576Y-96088937D01*
X56075151Y-96184481D01*
X56132606Y-96270468D01*
X56205732Y-96343594D01*
X56291719Y-96401049D01*
X56387263Y-96440624D01*
X56488692Y-96460800D01*
X56592108Y-96460800D01*
X56693537Y-96440624D01*
X56789081Y-96401049D01*
X56875068Y-96343594D01*
X56948194Y-96270468D01*
X57005649Y-96184481D01*
X57045224Y-96088937D01*
X57065400Y-95987508D01*
X57065400Y-95884092D01*
X57045224Y-95782663D01*
X57005649Y-95687119D01*
X56948194Y-95601132D01*
X56875068Y-95528006D01*
X56789081Y-95470551D01*
X56693537Y-95430976D01*
X56592108Y-95410800D01*
X56488692Y-95410800D01*
X56387263Y-95430976D01*
X56291719Y-95470551D01*
X56205732Y-95528006D01*
X56132606Y-95601132D01*
X56075151Y-95687119D01*
X56035576Y-95782663D01*
X56015400Y-95884092D01*
X49950135Y-95884092D01*
X49912962Y-95199724D01*
X49901942Y-92179658D01*
X49958236Y-90981892D01*
X56015400Y-90981892D01*
X56015400Y-91085308D01*
X56035576Y-91186737D01*
X56075151Y-91282281D01*
X56132606Y-91368268D01*
X56205732Y-91441394D01*
X56291719Y-91498849D01*
X56387263Y-91538424D01*
X56488692Y-91558600D01*
X56592108Y-91558600D01*
X56693537Y-91538424D01*
X56789081Y-91498849D01*
X56875068Y-91441394D01*
X56948194Y-91368268D01*
X57005649Y-91282281D01*
X57045224Y-91186737D01*
X57065400Y-91085308D01*
X57065400Y-90981892D01*
X57045224Y-90880463D01*
X57005649Y-90784919D01*
X56948194Y-90698932D01*
X56875068Y-90625806D01*
X56789081Y-90568351D01*
X56693537Y-90528776D01*
X56592108Y-90508600D01*
X56488692Y-90508600D01*
X56387263Y-90528776D01*
X56291719Y-90568351D01*
X56205732Y-90625806D01*
X56132606Y-90698932D01*
X56075151Y-90784919D01*
X56035576Y-90880463D01*
X56015400Y-90981892D01*
X49958236Y-90981892D01*
X50041802Y-89203892D01*
X56980600Y-89203892D01*
X56980600Y-89307308D01*
X57000776Y-89408737D01*
X57040351Y-89504281D01*
X57097806Y-89590268D01*
X57170932Y-89663394D01*
X57256919Y-89720849D01*
X57352463Y-89760424D01*
X57453892Y-89780600D01*
X57557308Y-89780600D01*
X57658737Y-89760424D01*
X57754281Y-89720849D01*
X57840268Y-89663394D01*
X57872383Y-89631279D01*
X57903947Y-89707481D01*
X57961402Y-89793468D01*
X58034528Y-89866594D01*
X58120515Y-89924049D01*
X58216059Y-89963624D01*
X58317488Y-89983800D01*
X58420904Y-89983800D01*
X58522333Y-89963624D01*
X58545802Y-89953903D01*
X58545801Y-96793713D01*
X58284730Y-97054784D01*
X58192308Y-97036400D01*
X58088892Y-97036400D01*
X57987463Y-97056576D01*
X57891919Y-97096151D01*
X57805932Y-97153606D01*
X57732806Y-97226732D01*
X57675351Y-97312719D01*
X57635776Y-97408263D01*
X57615600Y-97509692D01*
X57615600Y-97613108D01*
X57635776Y-97714537D01*
X57675351Y-97810081D01*
X57732806Y-97896068D01*
X57805932Y-97969194D01*
X57891919Y-98026649D01*
X57987463Y-98066224D01*
X58088892Y-98086400D01*
X58192308Y-98086400D01*
X58284731Y-98068016D01*
X58350200Y-98133485D01*
X58350201Y-100335744D01*
X58348265Y-100355400D01*
X58355988Y-100433813D01*
X58378861Y-100509214D01*
X58416003Y-100578702D01*
X58453465Y-100624350D01*
X58453468Y-100624353D01*
X58465990Y-100639611D01*
X58481248Y-100652133D01*
X60204400Y-102375286D01*
X60204401Y-103586944D01*
X60202465Y-103606600D01*
X60210188Y-103685013D01*
X60233061Y-103760414D01*
X60270203Y-103829902D01*
X60307665Y-103875550D01*
X60307668Y-103875553D01*
X60320190Y-103890811D01*
X60335448Y-103903333D01*
X64524067Y-108091953D01*
X64536589Y-108107211D01*
X64551847Y-108119733D01*
X64551849Y-108119735D01*
X64597497Y-108157197D01*
X64666986Y-108194340D01*
X64742386Y-108217212D01*
X64801153Y-108223000D01*
X64801155Y-108223000D01*
X64820799Y-108224935D01*
X64840443Y-108223000D01*
X75062754Y-108223000D01*
X75082400Y-108224935D01*
X75102046Y-108223000D01*
X75102047Y-108223000D01*
X75160814Y-108217212D01*
X75236214Y-108194340D01*
X75305703Y-108157197D01*
X75366611Y-108107211D01*
X75379137Y-108091948D01*
X79847154Y-103623932D01*
X79862411Y-103611411D01*
X79877203Y-103593388D01*
X79912396Y-103550504D01*
X79912397Y-103550503D01*
X79949540Y-103481014D01*
X79972412Y-103405614D01*
X79978200Y-103346847D01*
X79978200Y-103346837D01*
X79980134Y-103327201D01*
X79978200Y-103307565D01*
X79978200Y-102629285D01*
X80357535Y-102249950D01*
X81447686Y-101159800D01*
X81458708Y-101159800D01*
X81560137Y-101139624D01*
X81655681Y-101100049D01*
X81741668Y-101042594D01*
X81814794Y-100969468D01*
X81872249Y-100883481D01*
X81911824Y-100787937D01*
X81932000Y-100686508D01*
X81932000Y-100675485D01*
X82093134Y-100514351D01*
X86432341Y-100514351D01*
X86432341Y-100780277D01*
X86484221Y-101041094D01*
X86585987Y-101286779D01*
X86733728Y-101507889D01*
X86921766Y-101695927D01*
X87142876Y-101843668D01*
X87388561Y-101945434D01*
X87649378Y-101997314D01*
X87915304Y-101997314D01*
X88176121Y-101945434D01*
X88421806Y-101843668D01*
X88642916Y-101695927D01*
X88830954Y-101507889D01*
X88978695Y-101286779D01*
X89080461Y-101041094D01*
X89132341Y-100780277D01*
X89132341Y-100514351D01*
X89080461Y-100253534D01*
X88978695Y-100007849D01*
X88830954Y-99786739D01*
X88642916Y-99598701D01*
X88421806Y-99450960D01*
X88176121Y-99349194D01*
X87915304Y-99297314D01*
X87649378Y-99297314D01*
X87388561Y-99349194D01*
X87142876Y-99450960D01*
X86921766Y-99598701D01*
X86733728Y-99786739D01*
X86585987Y-100007849D01*
X86484221Y-100253534D01*
X86432341Y-100514351D01*
X82093134Y-100514351D01*
X84233754Y-98373732D01*
X84249012Y-98361210D01*
X84266797Y-98339540D01*
X84298998Y-98300302D01*
X84336141Y-98230814D01*
X84359013Y-98155413D01*
X84366736Y-98076999D01*
X84364801Y-98057353D01*
X84364801Y-97421036D01*
X84366735Y-97401400D01*
X84364801Y-97381764D01*
X84364801Y-97381754D01*
X84359013Y-97322987D01*
X84336141Y-97247587D01*
X84298998Y-97178098D01*
X84249012Y-97117190D01*
X84233750Y-97104665D01*
X83356400Y-96227315D01*
X83356400Y-95223692D01*
X83955400Y-95223692D01*
X83955400Y-95327108D01*
X83975576Y-95428537D01*
X84015151Y-95524081D01*
X84072606Y-95610068D01*
X84145732Y-95683194D01*
X84231719Y-95740649D01*
X84327263Y-95780224D01*
X84428692Y-95800400D01*
X84532108Y-95800400D01*
X84633537Y-95780224D01*
X84729081Y-95740649D01*
X84815068Y-95683194D01*
X84888194Y-95610068D01*
X84945649Y-95524081D01*
X84985224Y-95428537D01*
X85005400Y-95327108D01*
X85005400Y-95223692D01*
X84985224Y-95122263D01*
X84945649Y-95026719D01*
X84888194Y-94940732D01*
X84815068Y-94867606D01*
X84729081Y-94810151D01*
X84633537Y-94770576D01*
X84532108Y-94750400D01*
X84428692Y-94750400D01*
X84327263Y-94770576D01*
X84231719Y-94810151D01*
X84145732Y-94867606D01*
X84072606Y-94940732D01*
X84015151Y-95026719D01*
X83975576Y-95122263D01*
X83955400Y-95223692D01*
X83356400Y-95223692D01*
X83356400Y-91134292D01*
X83930000Y-91134292D01*
X83930000Y-91237708D01*
X83950176Y-91339137D01*
X83989751Y-91434681D01*
X84047206Y-91520668D01*
X84120332Y-91593794D01*
X84206319Y-91651249D01*
X84301863Y-91690824D01*
X84403292Y-91711000D01*
X84506708Y-91711000D01*
X84608137Y-91690824D01*
X84703681Y-91651249D01*
X84789668Y-91593794D01*
X84862794Y-91520668D01*
X84920249Y-91434681D01*
X84959824Y-91339137D01*
X84980000Y-91237708D01*
X84980000Y-91134292D01*
X84959824Y-91032863D01*
X84920249Y-90937319D01*
X84862794Y-90851332D01*
X84789668Y-90778206D01*
X84703681Y-90720751D01*
X84608137Y-90681176D01*
X84506708Y-90661000D01*
X84403292Y-90661000D01*
X84301863Y-90681176D01*
X84206319Y-90720751D01*
X84120332Y-90778206D01*
X84047206Y-90851332D01*
X83989751Y-90937319D01*
X83950176Y-91032863D01*
X83930000Y-91134292D01*
X83356400Y-91134292D01*
X83356400Y-89826662D01*
X83364194Y-89818868D01*
X83421649Y-89732881D01*
X83461224Y-89637337D01*
X83481400Y-89535908D01*
X83481400Y-89432492D01*
X83461224Y-89331063D01*
X83421649Y-89235519D01*
X83364194Y-89149532D01*
X83291068Y-89076406D01*
X83205081Y-89018951D01*
X83109537Y-88979376D01*
X83008108Y-88959200D01*
X82904692Y-88959200D01*
X82823000Y-88975450D01*
X82823000Y-88335435D01*
X82824934Y-88315799D01*
X82823000Y-88296163D01*
X82823000Y-88296153D01*
X82817212Y-88237386D01*
X82794340Y-88161986D01*
X82757197Y-88092497D01*
X82730861Y-88060406D01*
X82719735Y-88046849D01*
X82719733Y-88046847D01*
X82707211Y-88031589D01*
X82691953Y-88019067D01*
X82617800Y-87944914D01*
X82617800Y-87933892D01*
X82597624Y-87832463D01*
X82558049Y-87736919D01*
X82500594Y-87650932D01*
X82427468Y-87577806D01*
X82341481Y-87520351D01*
X82245937Y-87480776D01*
X82144508Y-87460600D01*
X82041092Y-87460600D01*
X81939663Y-87480776D01*
X81844119Y-87520351D01*
X81781600Y-87562125D01*
X81781600Y-86679228D01*
X81788917Y-86674339D01*
X81862043Y-86601213D01*
X81919498Y-86515226D01*
X81959073Y-86419682D01*
X81979249Y-86318253D01*
X81979249Y-86214837D01*
X81969082Y-86163723D01*
X86432341Y-86163723D01*
X86432341Y-86429649D01*
X86484221Y-86690466D01*
X86585987Y-86936151D01*
X86733728Y-87157261D01*
X86921766Y-87345299D01*
X87142876Y-87493040D01*
X87388561Y-87594806D01*
X87649378Y-87646686D01*
X87915304Y-87646686D01*
X88176121Y-87594806D01*
X88421806Y-87493040D01*
X88642916Y-87345299D01*
X88830954Y-87157261D01*
X88978695Y-86936151D01*
X89080461Y-86690466D01*
X89132341Y-86429649D01*
X89132341Y-86163723D01*
X89080461Y-85902906D01*
X88978695Y-85657221D01*
X88830954Y-85436111D01*
X88642916Y-85248073D01*
X88421806Y-85100332D01*
X88176121Y-84998566D01*
X87915304Y-84946686D01*
X87649378Y-84946686D01*
X87388561Y-84998566D01*
X87142876Y-85100332D01*
X86921766Y-85248073D01*
X86733728Y-85436111D01*
X86585987Y-85657221D01*
X86484221Y-85902906D01*
X86432341Y-86163723D01*
X81969082Y-86163723D01*
X81959073Y-86113408D01*
X81919498Y-86017864D01*
X81862043Y-85931877D01*
X81854249Y-85924083D01*
X81854249Y-85741095D01*
X81856184Y-85721449D01*
X81848461Y-85643035D01*
X81843964Y-85628210D01*
X81825589Y-85567635D01*
X81788446Y-85498146D01*
X81755780Y-85458342D01*
X81750984Y-85452498D01*
X81750982Y-85452496D01*
X81738460Y-85437238D01*
X81723203Y-85424717D01*
X76725337Y-80426852D01*
X76712811Y-80411589D01*
X76651903Y-80361603D01*
X76582414Y-80324460D01*
X76507014Y-80301588D01*
X76448247Y-80295800D01*
X76448246Y-80295800D01*
X76428600Y-80293865D01*
X76408954Y-80295800D01*
X73908478Y-80295800D01*
X73910824Y-80290137D01*
X73931000Y-80188708D01*
X73931000Y-80085292D01*
X73910824Y-79983863D01*
X73871249Y-79888319D01*
X73813794Y-79802332D01*
X73740668Y-79729206D01*
X73654681Y-79671751D01*
X73559137Y-79632176D01*
X73457708Y-79612000D01*
X73354292Y-79612000D01*
X73299298Y-79622939D01*
X73318898Y-79524404D01*
X73318898Y-79420988D01*
X73298722Y-79319559D01*
X73259147Y-79224015D01*
X73201692Y-79138028D01*
X73128566Y-79064902D01*
X73042579Y-79007447D01*
X72947035Y-78967872D01*
X72845606Y-78947696D01*
X72742190Y-78947696D01*
X72640761Y-78967872D01*
X72545217Y-79007447D01*
X72459230Y-79064902D01*
X72386104Y-79138028D01*
X72328649Y-79224015D01*
X72289074Y-79319559D01*
X72268898Y-79420988D01*
X72268898Y-79524404D01*
X72289074Y-79625833D01*
X72328649Y-79721377D01*
X72386104Y-79807364D01*
X72459230Y-79880490D01*
X72545217Y-79937945D01*
X72640761Y-79977520D01*
X72742190Y-79997696D01*
X72845606Y-79997696D01*
X72900600Y-79986757D01*
X72881000Y-80085292D01*
X72881000Y-80188708D01*
X72901176Y-80290137D01*
X72903522Y-80295800D01*
X66124481Y-80295800D01*
X66104834Y-80293865D01*
X66085187Y-80295800D01*
X66026420Y-80301588D01*
X65951020Y-80324460D01*
X65881531Y-80361603D01*
X65820623Y-80411589D01*
X65808097Y-80426852D01*
X61840732Y-84394217D01*
X61829709Y-84394217D01*
X61728280Y-84414393D01*
X61632736Y-84453968D01*
X61546749Y-84511423D01*
X61473623Y-84584549D01*
X61416168Y-84670536D01*
X61376593Y-84766080D01*
X61356417Y-84867509D01*
X61356417Y-84970925D01*
X61376593Y-85072354D01*
X61416168Y-85167898D01*
X61473623Y-85253885D01*
X61481417Y-85261679D01*
X61481418Y-86111096D01*
X59345801Y-88246714D01*
X59345801Y-87526066D01*
X59869822Y-87002046D01*
X59880844Y-87002046D01*
X59982273Y-86981870D01*
X60077817Y-86942295D01*
X60163804Y-86884840D01*
X60236930Y-86811714D01*
X60294385Y-86725727D01*
X60333960Y-86630183D01*
X60354136Y-86528754D01*
X60354136Y-86425338D01*
X60333960Y-86323909D01*
X60294385Y-86228365D01*
X60236930Y-86142378D01*
X60163804Y-86069252D01*
X60077817Y-86011797D01*
X59982273Y-85972222D01*
X59880844Y-85952046D01*
X59777428Y-85952046D01*
X59675999Y-85972222D01*
X59580455Y-86011797D01*
X59494468Y-86069252D01*
X59421342Y-86142378D01*
X59363887Y-86228365D01*
X59324312Y-86323909D01*
X59304136Y-86425338D01*
X59304136Y-86436360D01*
X58676849Y-87063648D01*
X58661591Y-87076170D01*
X58649069Y-87091428D01*
X58649066Y-87091431D01*
X58611604Y-87137079D01*
X58574462Y-87206567D01*
X58551589Y-87281968D01*
X58543866Y-87360381D01*
X58545802Y-87380038D01*
X58545802Y-88963697D01*
X58522333Y-88953976D01*
X58420904Y-88933800D01*
X58317488Y-88933800D01*
X58216059Y-88953976D01*
X58120515Y-88993551D01*
X58034528Y-89051006D01*
X58002413Y-89083121D01*
X57970849Y-89006919D01*
X57913394Y-88920932D01*
X57840268Y-88847806D01*
X57754281Y-88790351D01*
X57658737Y-88750776D01*
X57557308Y-88730600D01*
X57453892Y-88730600D01*
X57352463Y-88750776D01*
X57256919Y-88790351D01*
X57170932Y-88847806D01*
X57097806Y-88920932D01*
X57040351Y-89006919D01*
X57000776Y-89102463D01*
X56980600Y-89203892D01*
X50041802Y-89203892D01*
X50043730Y-89162882D01*
X50337319Y-86163723D01*
X51786859Y-86163723D01*
X51786859Y-86429649D01*
X51838739Y-86690466D01*
X51940505Y-86936151D01*
X52088246Y-87157261D01*
X52276284Y-87345299D01*
X52497394Y-87493040D01*
X52743079Y-87594806D01*
X53003896Y-87646686D01*
X53269822Y-87646686D01*
X53530639Y-87594806D01*
X53776324Y-87493040D01*
X53997434Y-87345299D01*
X54185472Y-87157261D01*
X54333213Y-86936151D01*
X54434979Y-86690466D01*
X54486859Y-86429649D01*
X54486859Y-86163723D01*
X54434979Y-85902906D01*
X54333213Y-85657221D01*
X54185472Y-85436111D01*
X53997434Y-85248073D01*
X53776324Y-85100332D01*
X53530639Y-84998566D01*
X53269822Y-84946686D01*
X53003896Y-84946686D01*
X52743079Y-84998566D01*
X52497394Y-85100332D01*
X52276284Y-85248073D01*
X52088246Y-85436111D01*
X51940505Y-85657221D01*
X51838739Y-85902906D01*
X51786859Y-86163723D01*
X50337319Y-86163723D01*
X50338304Y-86153669D01*
X50391072Y-85738880D01*
X50576150Y-84908098D01*
X50742862Y-84463570D01*
X56490229Y-71217894D01*
X56561815Y-71089048D01*
X56646748Y-70988743D01*
X56749548Y-70906845D01*
X56866292Y-70846475D01*
X56993450Y-70809668D01*
X57130736Y-70797000D01*
X59693706Y-70797000D01*
X59743289Y-70801861D01*
G37*
X59743289Y-70801861D02*
X59775690Y-70811644D01*
X59805582Y-70827537D01*
X59831813Y-70848932D01*
X59853391Y-70875015D01*
X59869488Y-70904786D01*
X59879499Y-70937125D01*
X59884601Y-70985669D01*
X59884600Y-74556039D01*
X59883028Y-74572000D01*
X59889303Y-74635711D01*
X59907887Y-74696974D01*
X59938065Y-74753434D01*
X59975674Y-74799259D01*
X59978679Y-74802921D01*
X60028166Y-74843535D01*
X60084626Y-74873713D01*
X60145889Y-74892297D01*
X60209600Y-74898572D01*
X60225560Y-74897000D01*
X62779788Y-74897000D01*
X62644821Y-74952905D01*
X62423711Y-75100646D01*
X62235673Y-75288684D01*
X62087932Y-75509794D01*
X61986166Y-75755479D01*
X61934286Y-76016296D01*
X61934286Y-76282222D01*
X61986166Y-76543039D01*
X62087932Y-76788724D01*
X62235673Y-77009834D01*
X62423711Y-77197872D01*
X62644821Y-77345613D01*
X62890506Y-77447379D01*
X63151323Y-77499259D01*
X63417249Y-77499259D01*
X63678066Y-77447379D01*
X63923751Y-77345613D01*
X64144861Y-77197872D01*
X64332899Y-77009834D01*
X64480640Y-76788724D01*
X64582406Y-76543039D01*
X64634286Y-76282222D01*
X64634286Y-76016296D01*
X64582406Y-75755479D01*
X64480640Y-75509794D01*
X64332899Y-75288684D01*
X64144861Y-75100646D01*
X63923751Y-74952905D01*
X63788784Y-74897000D01*
X77130416Y-74897000D01*
X76995449Y-74952905D01*
X76774339Y-75100646D01*
X76586301Y-75288684D01*
X76438560Y-75509794D01*
X76336794Y-75755479D01*
X76284914Y-76016296D01*
X76284914Y-76282222D01*
X76336794Y-76543039D01*
X76438560Y-76788724D01*
X76586301Y-77009834D01*
X76774339Y-77197872D01*
X76995449Y-77345613D01*
X77241134Y-77447379D01*
X77501951Y-77499259D01*
X77767877Y-77499259D01*
X78028694Y-77447379D01*
X78274379Y-77345613D01*
X78495489Y-77197872D01*
X78683527Y-77009834D01*
X78831268Y-76788724D01*
X78933034Y-76543039D01*
X78984914Y-76282222D01*
X78984914Y-76016296D01*
X78933034Y-75755479D01*
X78831268Y-75509794D01*
X78683527Y-75288684D01*
X78495489Y-75100646D01*
X78274379Y-74952905D01*
X78139412Y-74897000D01*
X80693639Y-74897000D01*
X80709599Y-74898572D01*
X80773310Y-74892297D01*
X80834573Y-74873713D01*
X80891033Y-74843535D01*
X80940520Y-74802921D01*
X80981134Y-74753434D01*
X81011312Y-74696974D01*
X81029896Y-74635711D01*
X81034599Y-74587961D01*
X81034599Y-74587960D01*
X81036171Y-74572000D01*
X81034599Y-74556039D01*
X81034599Y-70987894D01*
X81039460Y-70938311D01*
X81049243Y-70905910D01*
X81065136Y-70876018D01*
X81086531Y-70849787D01*
X81112614Y-70828209D01*
X81142385Y-70812112D01*
X81174724Y-70802101D01*
X81223258Y-70797000D01*
X83787519Y-70797000D01*
X83934231Y-70811385D01*
X84060053Y-70849373D01*
X84176101Y-70911077D01*
X84277953Y-70994145D01*
X84362330Y-71096139D01*
X84428604Y-71217048D01*
X90173859Y-84457860D01*
X90442091Y-85266257D01*
X90526706Y-85729214D01*
X90842436Y-88728610D01*
X91006238Y-91744277D01*
X91017258Y-94764342D01*
X90875470Y-97781118D01*
X90580896Y-100790331D01*
X90528128Y-101205120D01*
X90343047Y-102035911D01*
X90176347Y-102480405D01*
X84428971Y-115726106D01*
X84357386Y-115854951D01*
X84272451Y-115955257D01*
X84169652Y-116037156D01*
X84052908Y-116097525D01*
X83925750Y-116134332D01*
X83788453Y-116147001D01*
X81225493Y-116146999D01*
X81175910Y-116142138D01*
X81143509Y-116132355D01*
X81113615Y-116116461D01*
X81087385Y-116095067D01*
X81065810Y-116068988D01*
X81049710Y-116039212D01*
X81039700Y-116006874D01*
X81034599Y-115958341D01*
X81034599Y-112387960D01*
X81036171Y-112371999D01*
X81029896Y-112308288D01*
X81011312Y-112247025D01*
X80981134Y-112190565D01*
X80940520Y-112141078D01*
X80891033Y-112100464D01*
X80834573Y-112070286D01*
X80773310Y-112051702D01*
X80725560Y-112046999D01*
X80725559Y-112046999D01*
X80709599Y-112045427D01*
X80693638Y-112046999D01*
X78139415Y-112046999D01*
X78274379Y-111991095D01*
X78495489Y-111843354D01*
X78683527Y-111655316D01*
X78831268Y-111434206D01*
X78933034Y-111188521D01*
X78984914Y-110927704D01*
X78984914Y-110661778D01*
X78933034Y-110400961D01*
X78831268Y-110155276D01*
X78683527Y-109934166D01*
X78495489Y-109746128D01*
X78274379Y-109598387D01*
X78028694Y-109496621D01*
X77767877Y-109444741D01*
X77501951Y-109444741D01*
X77241134Y-109496621D01*
X76995449Y-109598387D01*
X76774339Y-109746128D01*
X76586301Y-109934166D01*
X76438560Y-110155276D01*
X76336794Y-110400961D01*
X76284914Y-110661778D01*
X76284914Y-110927704D01*
X76336794Y-111188521D01*
X76438560Y-111434206D01*
X76586301Y-111655316D01*
X76774339Y-111843354D01*
X76995449Y-111991095D01*
X77130413Y-112046999D01*
X63788787Y-112046999D01*
X63923751Y-111991095D01*
X64144861Y-111843354D01*
X64332899Y-111655316D01*
X64480640Y-111434206D01*
X64582406Y-111188521D01*
X64634286Y-110927704D01*
X64634286Y-110661778D01*
X64582406Y-110400961D01*
X64480640Y-110155276D01*
X64332899Y-109934166D01*
X64144861Y-109746128D01*
X63923751Y-109598387D01*
X63678066Y-109496621D01*
X63417249Y-109444741D01*
X63151323Y-109444741D01*
X62890506Y-109496621D01*
X62644821Y-109598387D01*
X62423711Y-109746128D01*
X62235673Y-109934166D01*
X62087932Y-110155276D01*
X61986166Y-110400961D01*
X61934286Y-110661778D01*
X61934286Y-110927704D01*
X61986166Y-111188521D01*
X62087932Y-111434206D01*
X62235673Y-111655316D01*
X62423711Y-111843354D01*
X62644821Y-111991095D01*
X62779785Y-112046999D01*
X60225561Y-112046999D01*
X60209600Y-112045427D01*
X60193640Y-112046999D01*
X60193639Y-112046999D01*
X60145889Y-112051702D01*
X60084626Y-112070286D01*
X60028166Y-112100464D01*
X59978679Y-112141078D01*
X59938065Y-112190565D01*
X59907887Y-112247025D01*
X59889303Y-112308288D01*
X59883028Y-112371999D01*
X59884601Y-112387970D01*
X59884600Y-115956105D01*
X59879739Y-116005688D01*
X59869956Y-116038089D01*
X59854062Y-116067983D01*
X59832668Y-116094213D01*
X59806589Y-116115788D01*
X59776813Y-116131888D01*
X59744475Y-116141898D01*
X59695942Y-116146999D01*
X57131671Y-116146999D01*
X56984970Y-116132615D01*
X56859146Y-116094626D01*
X56743100Y-116032923D01*
X56641244Y-115949852D01*
X56556868Y-115847860D01*
X56490597Y-115726953D01*
X50745347Y-102486157D01*
X50477109Y-101677744D01*
X50392494Y-101214785D01*
X50318764Y-100514351D01*
X51786859Y-100514351D01*
X51786859Y-100780277D01*
X51838739Y-101041094D01*
X51940505Y-101286779D01*
X52088246Y-101507889D01*
X52276284Y-101695927D01*
X52497394Y-101843668D01*
X52743079Y-101945434D01*
X53003896Y-101997314D01*
X53269822Y-101997314D01*
X53530639Y-101945434D01*
X53776324Y-101843668D01*
X53997434Y-101695927D01*
X54185472Y-101507889D01*
X54333213Y-101286779D01*
X54434979Y-101041094D01*
X54486859Y-100780277D01*
X54486859Y-100514351D01*
X54434979Y-100253534D01*
X54333213Y-100007849D01*
X54185472Y-99786739D01*
X53997434Y-99598701D01*
X53776324Y-99450960D01*
X53530639Y-99349194D01*
X53269822Y-99297314D01*
X53003896Y-99297314D01*
X52743079Y-99349194D01*
X52497394Y-99450960D01*
X52276284Y-99598701D01*
X52088246Y-99786739D01*
X51940505Y-100007849D01*
X51838739Y-100253534D01*
X51786859Y-100514351D01*
X50318764Y-100514351D01*
X50076764Y-98215390D01*
X49950135Y-95884092D01*
X56015400Y-95884092D01*
X56015400Y-95987508D01*
X56035576Y-96088937D01*
X56075151Y-96184481D01*
X56132606Y-96270468D01*
X56205732Y-96343594D01*
X56291719Y-96401049D01*
X56387263Y-96440624D01*
X56488692Y-96460800D01*
X56592108Y-96460800D01*
X56693537Y-96440624D01*
X56789081Y-96401049D01*
X56875068Y-96343594D01*
X56948194Y-96270468D01*
X57005649Y-96184481D01*
X57045224Y-96088937D01*
X57065400Y-95987508D01*
X57065400Y-95884092D01*
X57045224Y-95782663D01*
X57005649Y-95687119D01*
X56948194Y-95601132D01*
X56875068Y-95528006D01*
X56789081Y-95470551D01*
X56693537Y-95430976D01*
X56592108Y-95410800D01*
X56488692Y-95410800D01*
X56387263Y-95430976D01*
X56291719Y-95470551D01*
X56205732Y-95528006D01*
X56132606Y-95601132D01*
X56075151Y-95687119D01*
X56035576Y-95782663D01*
X56015400Y-95884092D01*
X49950135Y-95884092D01*
X49912962Y-95199724D01*
X49901942Y-92179658D01*
X49958236Y-90981892D01*
X56015400Y-90981892D01*
X56015400Y-91085308D01*
X56035576Y-91186737D01*
X56075151Y-91282281D01*
X56132606Y-91368268D01*
X56205732Y-91441394D01*
X56291719Y-91498849D01*
X56387263Y-91538424D01*
X56488692Y-91558600D01*
X56592108Y-91558600D01*
X56693537Y-91538424D01*
X56789081Y-91498849D01*
X56875068Y-91441394D01*
X56948194Y-91368268D01*
X57005649Y-91282281D01*
X57045224Y-91186737D01*
X57065400Y-91085308D01*
X57065400Y-90981892D01*
X57045224Y-90880463D01*
X57005649Y-90784919D01*
X56948194Y-90698932D01*
X56875068Y-90625806D01*
X56789081Y-90568351D01*
X56693537Y-90528776D01*
X56592108Y-90508600D01*
X56488692Y-90508600D01*
X56387263Y-90528776D01*
X56291719Y-90568351D01*
X56205732Y-90625806D01*
X56132606Y-90698932D01*
X56075151Y-90784919D01*
X56035576Y-90880463D01*
X56015400Y-90981892D01*
X49958236Y-90981892D01*
X50041802Y-89203892D01*
X56980600Y-89203892D01*
X56980600Y-89307308D01*
X57000776Y-89408737D01*
X57040351Y-89504281D01*
X57097806Y-89590268D01*
X57170932Y-89663394D01*
X57256919Y-89720849D01*
X57352463Y-89760424D01*
X57453892Y-89780600D01*
X57557308Y-89780600D01*
X57658737Y-89760424D01*
X57754281Y-89720849D01*
X57840268Y-89663394D01*
X57872383Y-89631279D01*
X57903947Y-89707481D01*
X57961402Y-89793468D01*
X58034528Y-89866594D01*
X58120515Y-89924049D01*
X58216059Y-89963624D01*
X58317488Y-89983800D01*
X58420904Y-89983800D01*
X58522333Y-89963624D01*
X58545802Y-89953903D01*
X58545801Y-96793713D01*
X58284730Y-97054784D01*
X58192308Y-97036400D01*
X58088892Y-97036400D01*
X57987463Y-97056576D01*
X57891919Y-97096151D01*
X57805932Y-97153606D01*
X57732806Y-97226732D01*
X57675351Y-97312719D01*
X57635776Y-97408263D01*
X57615600Y-97509692D01*
X57615600Y-97613108D01*
X57635776Y-97714537D01*
X57675351Y-97810081D01*
X57732806Y-97896068D01*
X57805932Y-97969194D01*
X57891919Y-98026649D01*
X57987463Y-98066224D01*
X58088892Y-98086400D01*
X58192308Y-98086400D01*
X58284731Y-98068016D01*
X58350200Y-98133485D01*
X58350201Y-100335744D01*
X58348265Y-100355400D01*
X58355988Y-100433813D01*
X58378861Y-100509214D01*
X58416003Y-100578702D01*
X58453465Y-100624350D01*
X58453468Y-100624353D01*
X58465990Y-100639611D01*
X58481248Y-100652133D01*
X60204400Y-102375286D01*
X60204401Y-103586944D01*
X60202465Y-103606600D01*
X60210188Y-103685013D01*
X60233061Y-103760414D01*
X60270203Y-103829902D01*
X60307665Y-103875550D01*
X60307668Y-103875553D01*
X60320190Y-103890811D01*
X60335448Y-103903333D01*
X64524067Y-108091953D01*
X64536589Y-108107211D01*
X64551847Y-108119733D01*
X64551849Y-108119735D01*
X64597497Y-108157197D01*
X64666986Y-108194340D01*
X64742386Y-108217212D01*
X64801153Y-108223000D01*
X64801155Y-108223000D01*
X64820799Y-108224935D01*
X64840443Y-108223000D01*
X75062754Y-108223000D01*
X75082400Y-108224935D01*
X75102046Y-108223000D01*
X75102047Y-108223000D01*
X75160814Y-108217212D01*
X75236214Y-108194340D01*
X75305703Y-108157197D01*
X75366611Y-108107211D01*
X75379137Y-108091948D01*
X79847154Y-103623932D01*
X79862411Y-103611411D01*
X79877203Y-103593388D01*
X79912396Y-103550504D01*
X79912397Y-103550503D01*
X79949540Y-103481014D01*
X79972412Y-103405614D01*
X79978200Y-103346847D01*
X79978200Y-103346837D01*
X79980134Y-103327201D01*
X79978200Y-103307565D01*
X79978200Y-102629285D01*
X80357535Y-102249950D01*
X81447686Y-101159800D01*
X81458708Y-101159800D01*
X81560137Y-101139624D01*
X81655681Y-101100049D01*
X81741668Y-101042594D01*
X81814794Y-100969468D01*
X81872249Y-100883481D01*
X81911824Y-100787937D01*
X81932000Y-100686508D01*
X81932000Y-100675485D01*
X82093134Y-100514351D01*
X86432341Y-100514351D01*
X86432341Y-100780277D01*
X86484221Y-101041094D01*
X86585987Y-101286779D01*
X86733728Y-101507889D01*
X86921766Y-101695927D01*
X87142876Y-101843668D01*
X87388561Y-101945434D01*
X87649378Y-101997314D01*
X87915304Y-101997314D01*
X88176121Y-101945434D01*
X88421806Y-101843668D01*
X88642916Y-101695927D01*
X88830954Y-101507889D01*
X88978695Y-101286779D01*
X89080461Y-101041094D01*
X89132341Y-100780277D01*
X89132341Y-100514351D01*
X89080461Y-100253534D01*
X88978695Y-100007849D01*
X88830954Y-99786739D01*
X88642916Y-99598701D01*
X88421806Y-99450960D01*
X88176121Y-99349194D01*
X87915304Y-99297314D01*
X87649378Y-99297314D01*
X87388561Y-99349194D01*
X87142876Y-99450960D01*
X86921766Y-99598701D01*
X86733728Y-99786739D01*
X86585987Y-100007849D01*
X86484221Y-100253534D01*
X86432341Y-100514351D01*
X82093134Y-100514351D01*
X84233754Y-98373732D01*
X84249012Y-98361210D01*
X84266797Y-98339540D01*
X84298998Y-98300302D01*
X84336141Y-98230814D01*
X84359013Y-98155413D01*
X84366736Y-98076999D01*
X84364801Y-98057353D01*
X84364801Y-97421036D01*
X84366735Y-97401400D01*
X84364801Y-97381764D01*
X84364801Y-97381754D01*
X84359013Y-97322987D01*
X84336141Y-97247587D01*
X84298998Y-97178098D01*
X84249012Y-97117190D01*
X84233750Y-97104665D01*
X83356400Y-96227315D01*
X83356400Y-95223692D01*
X83955400Y-95223692D01*
X83955400Y-95327108D01*
X83975576Y-95428537D01*
X84015151Y-95524081D01*
X84072606Y-95610068D01*
X84145732Y-95683194D01*
X84231719Y-95740649D01*
X84327263Y-95780224D01*
X84428692Y-95800400D01*
X84532108Y-95800400D01*
X84633537Y-95780224D01*
X84729081Y-95740649D01*
X84815068Y-95683194D01*
X84888194Y-95610068D01*
X84945649Y-95524081D01*
X84985224Y-95428537D01*
X85005400Y-95327108D01*
X85005400Y-95223692D01*
X84985224Y-95122263D01*
X84945649Y-95026719D01*
X84888194Y-94940732D01*
X84815068Y-94867606D01*
X84729081Y-94810151D01*
X84633537Y-94770576D01*
X84532108Y-94750400D01*
X84428692Y-94750400D01*
X84327263Y-94770576D01*
X84231719Y-94810151D01*
X84145732Y-94867606D01*
X84072606Y-94940732D01*
X84015151Y-95026719D01*
X83975576Y-95122263D01*
X83955400Y-95223692D01*
X83356400Y-95223692D01*
X83356400Y-91134292D01*
X83930000Y-91134292D01*
X83930000Y-91237708D01*
X83950176Y-91339137D01*
X83989751Y-91434681D01*
X84047206Y-91520668D01*
X84120332Y-91593794D01*
X84206319Y-91651249D01*
X84301863Y-91690824D01*
X84403292Y-91711000D01*
X84506708Y-91711000D01*
X84608137Y-91690824D01*
X84703681Y-91651249D01*
X84789668Y-91593794D01*
X84862794Y-91520668D01*
X84920249Y-91434681D01*
X84959824Y-91339137D01*
X84980000Y-91237708D01*
X84980000Y-91134292D01*
X84959824Y-91032863D01*
X84920249Y-90937319D01*
X84862794Y-90851332D01*
X84789668Y-90778206D01*
X84703681Y-90720751D01*
X84608137Y-90681176D01*
X84506708Y-90661000D01*
X84403292Y-90661000D01*
X84301863Y-90681176D01*
X84206319Y-90720751D01*
X84120332Y-90778206D01*
X84047206Y-90851332D01*
X83989751Y-90937319D01*
X83950176Y-91032863D01*
X83930000Y-91134292D01*
X83356400Y-91134292D01*
X83356400Y-89826662D01*
X83364194Y-89818868D01*
X83421649Y-89732881D01*
X83461224Y-89637337D01*
X83481400Y-89535908D01*
X83481400Y-89432492D01*
X83461224Y-89331063D01*
X83421649Y-89235519D01*
X83364194Y-89149532D01*
X83291068Y-89076406D01*
X83205081Y-89018951D01*
X83109537Y-88979376D01*
X83008108Y-88959200D01*
X82904692Y-88959200D01*
X82823000Y-88975450D01*
X82823000Y-88335435D01*
X82824934Y-88315799D01*
X82823000Y-88296163D01*
X82823000Y-88296153D01*
X82817212Y-88237386D01*
X82794340Y-88161986D01*
X82757197Y-88092497D01*
X82730861Y-88060406D01*
X82719735Y-88046849D01*
X82719733Y-88046847D01*
X82707211Y-88031589D01*
X82691953Y-88019067D01*
X82617800Y-87944914D01*
X82617800Y-87933892D01*
X82597624Y-87832463D01*
X82558049Y-87736919D01*
X82500594Y-87650932D01*
X82427468Y-87577806D01*
X82341481Y-87520351D01*
X82245937Y-87480776D01*
X82144508Y-87460600D01*
X82041092Y-87460600D01*
X81939663Y-87480776D01*
X81844119Y-87520351D01*
X81781600Y-87562125D01*
X81781600Y-86679228D01*
X81788917Y-86674339D01*
X81862043Y-86601213D01*
X81919498Y-86515226D01*
X81959073Y-86419682D01*
X81979249Y-86318253D01*
X81979249Y-86214837D01*
X81969082Y-86163723D01*
X86432341Y-86163723D01*
X86432341Y-86429649D01*
X86484221Y-86690466D01*
X86585987Y-86936151D01*
X86733728Y-87157261D01*
X86921766Y-87345299D01*
X87142876Y-87493040D01*
X87388561Y-87594806D01*
X87649378Y-87646686D01*
X87915304Y-87646686D01*
X88176121Y-87594806D01*
X88421806Y-87493040D01*
X88642916Y-87345299D01*
X88830954Y-87157261D01*
X88978695Y-86936151D01*
X89080461Y-86690466D01*
X89132341Y-86429649D01*
X89132341Y-86163723D01*
X89080461Y-85902906D01*
X88978695Y-85657221D01*
X88830954Y-85436111D01*
X88642916Y-85248073D01*
X88421806Y-85100332D01*
X88176121Y-84998566D01*
X87915304Y-84946686D01*
X87649378Y-84946686D01*
X87388561Y-84998566D01*
X87142876Y-85100332D01*
X86921766Y-85248073D01*
X86733728Y-85436111D01*
X86585987Y-85657221D01*
X86484221Y-85902906D01*
X86432341Y-86163723D01*
X81969082Y-86163723D01*
X81959073Y-86113408D01*
X81919498Y-86017864D01*
X81862043Y-85931877D01*
X81854249Y-85924083D01*
X81854249Y-85741095D01*
X81856184Y-85721449D01*
X81848461Y-85643035D01*
X81843964Y-85628210D01*
X81825589Y-85567635D01*
X81788446Y-85498146D01*
X81755780Y-85458342D01*
X81750984Y-85452498D01*
X81750982Y-85452496D01*
X81738460Y-85437238D01*
X81723203Y-85424717D01*
X76725337Y-80426852D01*
X76712811Y-80411589D01*
X76651903Y-80361603D01*
X76582414Y-80324460D01*
X76507014Y-80301588D01*
X76448247Y-80295800D01*
X76448246Y-80295800D01*
X76428600Y-80293865D01*
X76408954Y-80295800D01*
X73908478Y-80295800D01*
X73910824Y-80290137D01*
X73931000Y-80188708D01*
X73931000Y-80085292D01*
X73910824Y-79983863D01*
X73871249Y-79888319D01*
X73813794Y-79802332D01*
X73740668Y-79729206D01*
X73654681Y-79671751D01*
X73559137Y-79632176D01*
X73457708Y-79612000D01*
X73354292Y-79612000D01*
X73299298Y-79622939D01*
X73318898Y-79524404D01*
X73318898Y-79420988D01*
X73298722Y-79319559D01*
X73259147Y-79224015D01*
X73201692Y-79138028D01*
X73128566Y-79064902D01*
X73042579Y-79007447D01*
X72947035Y-78967872D01*
X72845606Y-78947696D01*
X72742190Y-78947696D01*
X72640761Y-78967872D01*
X72545217Y-79007447D01*
X72459230Y-79064902D01*
X72386104Y-79138028D01*
X72328649Y-79224015D01*
X72289074Y-79319559D01*
X72268898Y-79420988D01*
X72268898Y-79524404D01*
X72289074Y-79625833D01*
X72328649Y-79721377D01*
X72386104Y-79807364D01*
X72459230Y-79880490D01*
X72545217Y-79937945D01*
X72640761Y-79977520D01*
X72742190Y-79997696D01*
X72845606Y-79997696D01*
X72900600Y-79986757D01*
X72881000Y-80085292D01*
X72881000Y-80188708D01*
X72901176Y-80290137D01*
X72903522Y-80295800D01*
X66124481Y-80295800D01*
X66104834Y-80293865D01*
X66085187Y-80295800D01*
X66026420Y-80301588D01*
X65951020Y-80324460D01*
X65881531Y-80361603D01*
X65820623Y-80411589D01*
X65808097Y-80426852D01*
X61840732Y-84394217D01*
X61829709Y-84394217D01*
X61728280Y-84414393D01*
X61632736Y-84453968D01*
X61546749Y-84511423D01*
X61473623Y-84584549D01*
X61416168Y-84670536D01*
X61376593Y-84766080D01*
X61356417Y-84867509D01*
X61356417Y-84970925D01*
X61376593Y-85072354D01*
X61416168Y-85167898D01*
X61473623Y-85253885D01*
X61481417Y-85261679D01*
X61481418Y-86111096D01*
X59345801Y-88246714D01*
X59345801Y-87526066D01*
X59869822Y-87002046D01*
X59880844Y-87002046D01*
X59982273Y-86981870D01*
X60077817Y-86942295D01*
X60163804Y-86884840D01*
X60236930Y-86811714D01*
X60294385Y-86725727D01*
X60333960Y-86630183D01*
X60354136Y-86528754D01*
X60354136Y-86425338D01*
X60333960Y-86323909D01*
X60294385Y-86228365D01*
X60236930Y-86142378D01*
X60163804Y-86069252D01*
X60077817Y-86011797D01*
X59982273Y-85972222D01*
X59880844Y-85952046D01*
X59777428Y-85952046D01*
X59675999Y-85972222D01*
X59580455Y-86011797D01*
X59494468Y-86069252D01*
X59421342Y-86142378D01*
X59363887Y-86228365D01*
X59324312Y-86323909D01*
X59304136Y-86425338D01*
X59304136Y-86436360D01*
X58676849Y-87063648D01*
X58661591Y-87076170D01*
X58649069Y-87091428D01*
X58649066Y-87091431D01*
X58611604Y-87137079D01*
X58574462Y-87206567D01*
X58551589Y-87281968D01*
X58543866Y-87360381D01*
X58545802Y-87380038D01*
X58545802Y-88963697D01*
X58522333Y-88953976D01*
X58420904Y-88933800D01*
X58317488Y-88933800D01*
X58216059Y-88953976D01*
X58120515Y-88993551D01*
X58034528Y-89051006D01*
X58002413Y-89083121D01*
X57970849Y-89006919D01*
X57913394Y-88920932D01*
X57840268Y-88847806D01*
X57754281Y-88790351D01*
X57658737Y-88750776D01*
X57557308Y-88730600D01*
X57453892Y-88730600D01*
X57352463Y-88750776D01*
X57256919Y-88790351D01*
X57170932Y-88847806D01*
X57097806Y-88920932D01*
X57040351Y-89006919D01*
X57000776Y-89102463D01*
X56980600Y-89203892D01*
X50041802Y-89203892D01*
X50043730Y-89162882D01*
X50337319Y-86163723D01*
X51786859Y-86163723D01*
X51786859Y-86429649D01*
X51838739Y-86690466D01*
X51940505Y-86936151D01*
X52088246Y-87157261D01*
X52276284Y-87345299D01*
X52497394Y-87493040D01*
X52743079Y-87594806D01*
X53003896Y-87646686D01*
X53269822Y-87646686D01*
X53530639Y-87594806D01*
X53776324Y-87493040D01*
X53997434Y-87345299D01*
X54185472Y-87157261D01*
X54333213Y-86936151D01*
X54434979Y-86690466D01*
X54486859Y-86429649D01*
X54486859Y-86163723D01*
X54434979Y-85902906D01*
X54333213Y-85657221D01*
X54185472Y-85436111D01*
X53997434Y-85248073D01*
X53776324Y-85100332D01*
X53530639Y-84998566D01*
X53269822Y-84946686D01*
X53003896Y-84946686D01*
X52743079Y-84998566D01*
X52497394Y-85100332D01*
X52276284Y-85248073D01*
X52088246Y-85436111D01*
X51940505Y-85657221D01*
X51838739Y-85902906D01*
X51786859Y-86163723D01*
X50337319Y-86163723D01*
X50338304Y-86153669D01*
X50391072Y-85738880D01*
X50576150Y-84908098D01*
X50742862Y-84463570D01*
X56490229Y-71217894D01*
X56561815Y-71089048D01*
X56646748Y-70988743D01*
X56749548Y-70906845D01*
X56866292Y-70846475D01*
X56993450Y-70809668D01*
X57130736Y-70797000D01*
X59693706Y-70797000D01*
X59743289Y-70801861D01*
G36*
X63914467Y-98643153D02*
G01*
X63926989Y-98658411D01*
X63942247Y-98670933D01*
X63942249Y-98670935D01*
X63974182Y-98697141D01*
X63987897Y-98708397D01*
X64057386Y-98745540D01*
X64132786Y-98768412D01*
X64191553Y-98774200D01*
X64191563Y-98774200D01*
X64211199Y-98776134D01*
X64230835Y-98774200D01*
X70044553Y-98774200D01*
X70019751Y-98811319D01*
X69980176Y-98906863D01*
X69960000Y-99008292D01*
X69960000Y-99111708D01*
X69972709Y-99175599D01*
X68566636Y-99175599D01*
X68547000Y-99173665D01*
X68527364Y-99175599D01*
X68527354Y-99175599D01*
X68468587Y-99181387D01*
X68393187Y-99204259D01*
X68323698Y-99241402D01*
X68313236Y-99249988D01*
X68278050Y-99278864D01*
X68278048Y-99278866D01*
X68262790Y-99291388D01*
X68250268Y-99306646D01*
X67650315Y-99906600D01*
X67639292Y-99906600D01*
X67537863Y-99926776D01*
X67442319Y-99966351D01*
X67356332Y-100023806D01*
X67283206Y-100096932D01*
X67225751Y-100182919D01*
X67186176Y-100278463D01*
X67166000Y-100379892D01*
X67166000Y-100483308D01*
X67186176Y-100584737D01*
X67225751Y-100680281D01*
X67236670Y-100696622D01*
X66235707Y-100696622D01*
X65422000Y-99882915D01*
X65422000Y-99871892D01*
X65401824Y-99770463D01*
X65362249Y-99674919D01*
X65304794Y-99588932D01*
X65231668Y-99515806D01*
X65145681Y-99458351D01*
X65050137Y-99418776D01*
X64948708Y-99398600D01*
X64845292Y-99398600D01*
X64743863Y-99418776D01*
X64648319Y-99458351D01*
X64562332Y-99515806D01*
X64489206Y-99588932D01*
X64431751Y-99674919D01*
X64392176Y-99770463D01*
X64372000Y-99871892D01*
X64372000Y-99882914D01*
X63688248Y-100566667D01*
X63672990Y-100579189D01*
X63660468Y-100594447D01*
X63660465Y-100594450D01*
X63623003Y-100640098D01*
X63585861Y-100709586D01*
X63562988Y-100784987D01*
X63555265Y-100863400D01*
X63557201Y-100883056D01*
X63557200Y-102266153D01*
X63555265Y-102285800D01*
X63557200Y-102305446D01*
X63562988Y-102364213D01*
X63585860Y-102439613D01*
X63623003Y-102509102D01*
X63672989Y-102570011D01*
X63688252Y-102582537D01*
X65053866Y-103948152D01*
X65066388Y-103963410D01*
X65081646Y-103975932D01*
X65081648Y-103975934D01*
X65127296Y-104013396D01*
X65196785Y-104050539D01*
X65272185Y-104073411D01*
X65350599Y-104081134D01*
X65370246Y-104079199D01*
X71459555Y-104079199D01*
X71479201Y-104081134D01*
X71498847Y-104079199D01*
X71498848Y-104079199D01*
X71557615Y-104073411D01*
X71633015Y-104050539D01*
X71702504Y-104013396D01*
X71744172Y-103979200D01*
X71755908Y-103979200D01*
X71857337Y-103959024D01*
X71952881Y-103919449D01*
X72038868Y-103861994D01*
X72111994Y-103788868D01*
X72169449Y-103702881D01*
X72209024Y-103607337D01*
X72229200Y-103505908D01*
X72229200Y-103402492D01*
X72209024Y-103301063D01*
X72169449Y-103205519D01*
X72111994Y-103119532D01*
X72038868Y-103046406D01*
X71952881Y-102988951D01*
X71895540Y-102965200D01*
X78475145Y-102965200D01*
X78469000Y-102996092D01*
X78469000Y-103007114D01*
X76708545Y-104767569D01*
X76704824Y-104748863D01*
X76665249Y-104653319D01*
X76607794Y-104567332D01*
X76534668Y-104494206D01*
X76448681Y-104436751D01*
X76353137Y-104397176D01*
X76251708Y-104377000D01*
X76148292Y-104377000D01*
X76046863Y-104397176D01*
X75951319Y-104436751D01*
X75865332Y-104494206D01*
X75792206Y-104567332D01*
X75734751Y-104653319D01*
X75695176Y-104748863D01*
X75675000Y-104850292D01*
X75675000Y-104912114D01*
X75073914Y-105513200D01*
X74673152Y-105513200D01*
X74687317Y-105441991D01*
X74687317Y-105338575D01*
X74667141Y-105237146D01*
X74627566Y-105141602D01*
X74570111Y-105055615D01*
X74496985Y-104982489D01*
X74410998Y-104925034D01*
X74315454Y-104885459D01*
X74214025Y-104865283D01*
X74110609Y-104865283D01*
X74009180Y-104885459D01*
X73913636Y-104925034D01*
X73827649Y-104982489D01*
X73754523Y-105055615D01*
X73697068Y-105141602D01*
X73657493Y-105237146D01*
X73637317Y-105338575D01*
X73637317Y-105349597D01*
X73082326Y-105904589D01*
X70040165Y-105904589D01*
X70044800Y-105881287D01*
X70044800Y-105777871D01*
X70024624Y-105676442D01*
X69985049Y-105580898D01*
X69927594Y-105494911D01*
X69854468Y-105421785D01*
X69768481Y-105364330D01*
X69672937Y-105324755D01*
X69571508Y-105304579D01*
X69468092Y-105304579D01*
X69366663Y-105324755D01*
X69271119Y-105364330D01*
X69185132Y-105421785D01*
X69177338Y-105429579D01*
X66717862Y-105429579D01*
X66701794Y-105405532D01*
X66628668Y-105332406D01*
X66542681Y-105274951D01*
X66447137Y-105235376D01*
X66345708Y-105215200D01*
X66242292Y-105215200D01*
X66149870Y-105233584D01*
X63442800Y-102526515D01*
X63442800Y-101543435D01*
X63444734Y-101523799D01*
X63442800Y-101504163D01*
X63442800Y-101504153D01*
X63437012Y-101445386D01*
X63414140Y-101369986D01*
X63376997Y-101300497D01*
X63327011Y-101239589D01*
X63311754Y-101227068D01*
X61258400Y-99173715D01*
X61258400Y-98015807D01*
X61357902Y-98035600D01*
X61461318Y-98035600D01*
X61562747Y-98015424D01*
X61658291Y-97975849D01*
X61744278Y-97918394D01*
X61817404Y-97845268D01*
X61874859Y-97759281D01*
X61914434Y-97663737D01*
X61934610Y-97562308D01*
X61934610Y-97458892D01*
X61914434Y-97357463D01*
X61874859Y-97261919D01*
X61817404Y-97175932D01*
X61744278Y-97102806D01*
X61658291Y-97045351D01*
X61562747Y-97005776D01*
X61465125Y-96986357D01*
X61527127Y-96974024D01*
X61622671Y-96934449D01*
X61708658Y-96876994D01*
X61781784Y-96803868D01*
X61839239Y-96717881D01*
X61878814Y-96622337D01*
X61881276Y-96609961D01*
X63914467Y-98643153D01*
G37*
X63914467Y-98643153D02*
X63926989Y-98658411D01*
X63942247Y-98670933D01*
X63942249Y-98670935D01*
X63974182Y-98697141D01*
X63987897Y-98708397D01*
X64057386Y-98745540D01*
X64132786Y-98768412D01*
X64191553Y-98774200D01*
X64191563Y-98774200D01*
X64211199Y-98776134D01*
X64230835Y-98774200D01*
X70044553Y-98774200D01*
X70019751Y-98811319D01*
X69980176Y-98906863D01*
X69960000Y-99008292D01*
X69960000Y-99111708D01*
X69972709Y-99175599D01*
X68566636Y-99175599D01*
X68547000Y-99173665D01*
X68527364Y-99175599D01*
X68527354Y-99175599D01*
X68468587Y-99181387D01*
X68393187Y-99204259D01*
X68323698Y-99241402D01*
X68313236Y-99249988D01*
X68278050Y-99278864D01*
X68278048Y-99278866D01*
X68262790Y-99291388D01*
X68250268Y-99306646D01*
X67650315Y-99906600D01*
X67639292Y-99906600D01*
X67537863Y-99926776D01*
X67442319Y-99966351D01*
X67356332Y-100023806D01*
X67283206Y-100096932D01*
X67225751Y-100182919D01*
X67186176Y-100278463D01*
X67166000Y-100379892D01*
X67166000Y-100483308D01*
X67186176Y-100584737D01*
X67225751Y-100680281D01*
X67236670Y-100696622D01*
X66235707Y-100696622D01*
X65422000Y-99882915D01*
X65422000Y-99871892D01*
X65401824Y-99770463D01*
X65362249Y-99674919D01*
X65304794Y-99588932D01*
X65231668Y-99515806D01*
X65145681Y-99458351D01*
X65050137Y-99418776D01*
X64948708Y-99398600D01*
X64845292Y-99398600D01*
X64743863Y-99418776D01*
X64648319Y-99458351D01*
X64562332Y-99515806D01*
X64489206Y-99588932D01*
X64431751Y-99674919D01*
X64392176Y-99770463D01*
X64372000Y-99871892D01*
X64372000Y-99882914D01*
X63688248Y-100566667D01*
X63672990Y-100579189D01*
X63660468Y-100594447D01*
X63660465Y-100594450D01*
X63623003Y-100640098D01*
X63585861Y-100709586D01*
X63562988Y-100784987D01*
X63555265Y-100863400D01*
X63557201Y-100883056D01*
X63557200Y-102266153D01*
X63555265Y-102285800D01*
X63557200Y-102305446D01*
X63562988Y-102364213D01*
X63585860Y-102439613D01*
X63623003Y-102509102D01*
X63672989Y-102570011D01*
X63688252Y-102582537D01*
X65053866Y-103948152D01*
X65066388Y-103963410D01*
X65081646Y-103975932D01*
X65081648Y-103975934D01*
X65127296Y-104013396D01*
X65196785Y-104050539D01*
X65272185Y-104073411D01*
X65350599Y-104081134D01*
X65370246Y-104079199D01*
X71459555Y-104079199D01*
X71479201Y-104081134D01*
X71498847Y-104079199D01*
X71498848Y-104079199D01*
X71557615Y-104073411D01*
X71633015Y-104050539D01*
X71702504Y-104013396D01*
X71744172Y-103979200D01*
X71755908Y-103979200D01*
X71857337Y-103959024D01*
X71952881Y-103919449D01*
X72038868Y-103861994D01*
X72111994Y-103788868D01*
X72169449Y-103702881D01*
X72209024Y-103607337D01*
X72229200Y-103505908D01*
X72229200Y-103402492D01*
X72209024Y-103301063D01*
X72169449Y-103205519D01*
X72111994Y-103119532D01*
X72038868Y-103046406D01*
X71952881Y-102988951D01*
X71895540Y-102965200D01*
X78475145Y-102965200D01*
X78469000Y-102996092D01*
X78469000Y-103007114D01*
X76708545Y-104767569D01*
X76704824Y-104748863D01*
X76665249Y-104653319D01*
X76607794Y-104567332D01*
X76534668Y-104494206D01*
X76448681Y-104436751D01*
X76353137Y-104397176D01*
X76251708Y-104377000D01*
X76148292Y-104377000D01*
X76046863Y-104397176D01*
X75951319Y-104436751D01*
X75865332Y-104494206D01*
X75792206Y-104567332D01*
X75734751Y-104653319D01*
X75695176Y-104748863D01*
X75675000Y-104850292D01*
X75675000Y-104912114D01*
X75073914Y-105513200D01*
X74673152Y-105513200D01*
X74687317Y-105441991D01*
X74687317Y-105338575D01*
X74667141Y-105237146D01*
X74627566Y-105141602D01*
X74570111Y-105055615D01*
X74496985Y-104982489D01*
X74410998Y-104925034D01*
X74315454Y-104885459D01*
X74214025Y-104865283D01*
X74110609Y-104865283D01*
X74009180Y-104885459D01*
X73913636Y-104925034D01*
X73827649Y-104982489D01*
X73754523Y-105055615D01*
X73697068Y-105141602D01*
X73657493Y-105237146D01*
X73637317Y-105338575D01*
X73637317Y-105349597D01*
X73082326Y-105904589D01*
X70040165Y-105904589D01*
X70044800Y-105881287D01*
X70044800Y-105777871D01*
X70024624Y-105676442D01*
X69985049Y-105580898D01*
X69927594Y-105494911D01*
X69854468Y-105421785D01*
X69768481Y-105364330D01*
X69672937Y-105324755D01*
X69571508Y-105304579D01*
X69468092Y-105304579D01*
X69366663Y-105324755D01*
X69271119Y-105364330D01*
X69185132Y-105421785D01*
X69177338Y-105429579D01*
X66717862Y-105429579D01*
X66701794Y-105405532D01*
X66628668Y-105332406D01*
X66542681Y-105274951D01*
X66447137Y-105235376D01*
X66345708Y-105215200D01*
X66242292Y-105215200D01*
X66149870Y-105233584D01*
X63442800Y-102526515D01*
X63442800Y-101543435D01*
X63444734Y-101523799D01*
X63442800Y-101504163D01*
X63442800Y-101504153D01*
X63437012Y-101445386D01*
X63414140Y-101369986D01*
X63376997Y-101300497D01*
X63327011Y-101239589D01*
X63311754Y-101227068D01*
X61258400Y-99173715D01*
X61258400Y-98015807D01*
X61357902Y-98035600D01*
X61461318Y-98035600D01*
X61562747Y-98015424D01*
X61658291Y-97975849D01*
X61744278Y-97918394D01*
X61817404Y-97845268D01*
X61874859Y-97759281D01*
X61914434Y-97663737D01*
X61934610Y-97562308D01*
X61934610Y-97458892D01*
X61914434Y-97357463D01*
X61874859Y-97261919D01*
X61817404Y-97175932D01*
X61744278Y-97102806D01*
X61658291Y-97045351D01*
X61562747Y-97005776D01*
X61465125Y-96986357D01*
X61527127Y-96974024D01*
X61622671Y-96934449D01*
X61708658Y-96876994D01*
X61781784Y-96803868D01*
X61839239Y-96717881D01*
X61878814Y-96622337D01*
X61881276Y-96609961D01*
X63914467Y-98643153D01*
G36*
X65773285Y-101365570D02*
G01*
X65785811Y-101380833D01*
X65831702Y-101418495D01*
X65846719Y-101430819D01*
X65916208Y-101467962D01*
X65991608Y-101490834D01*
X66070022Y-101498557D01*
X66089669Y-101496622D01*
X73509200Y-101496622D01*
X73509200Y-101612005D01*
X73476927Y-101689920D01*
X73456751Y-101791349D01*
X73456751Y-101894765D01*
X73476927Y-101996194D01*
X73509200Y-102074109D01*
X73509200Y-102165200D01*
X71698447Y-102165200D01*
X71678800Y-102163265D01*
X71659153Y-102165200D01*
X71600386Y-102170988D01*
X71524986Y-102193860D01*
X71455497Y-102231003D01*
X71394589Y-102280989D01*
X71382065Y-102296250D01*
X70903515Y-102774800D01*
X66938359Y-102774800D01*
X66951224Y-102743741D01*
X66971400Y-102642312D01*
X66971400Y-102538896D01*
X66951224Y-102437467D01*
X66911649Y-102341923D01*
X66854194Y-102255936D01*
X66781068Y-102182810D01*
X66695081Y-102125355D01*
X66599537Y-102085780D01*
X66498108Y-102065604D01*
X66394692Y-102065604D01*
X66293263Y-102085780D01*
X66197719Y-102125355D01*
X66111732Y-102182810D01*
X66038606Y-102255936D01*
X65981151Y-102341923D01*
X65941576Y-102437467D01*
X65928002Y-102505709D01*
X64969167Y-101546875D01*
X64969167Y-101535852D01*
X64948991Y-101434423D01*
X64909416Y-101338879D01*
X64851961Y-101252892D01*
X64846805Y-101247736D01*
X64908792Y-101260066D01*
X65012208Y-101260066D01*
X65113637Y-101239890D01*
X65209181Y-101200315D01*
X65295168Y-101142860D01*
X65368294Y-101069734D01*
X65412016Y-101004301D01*
X65773285Y-101365570D01*
G37*
X65773285Y-101365570D02*
X65785811Y-101380833D01*
X65831702Y-101418495D01*
X65846719Y-101430819D01*
X65916208Y-101467962D01*
X65991608Y-101490834D01*
X66070022Y-101498557D01*
X66089669Y-101496622D01*
X73509200Y-101496622D01*
X73509200Y-101612005D01*
X73476927Y-101689920D01*
X73456751Y-101791349D01*
X73456751Y-101894765D01*
X73476927Y-101996194D01*
X73509200Y-102074109D01*
X73509200Y-102165200D01*
X71698447Y-102165200D01*
X71678800Y-102163265D01*
X71659153Y-102165200D01*
X71600386Y-102170988D01*
X71524986Y-102193860D01*
X71455497Y-102231003D01*
X71394589Y-102280989D01*
X71382065Y-102296250D01*
X70903515Y-102774800D01*
X66938359Y-102774800D01*
X66951224Y-102743741D01*
X66971400Y-102642312D01*
X66971400Y-102538896D01*
X66951224Y-102437467D01*
X66911649Y-102341923D01*
X66854194Y-102255936D01*
X66781068Y-102182810D01*
X66695081Y-102125355D01*
X66599537Y-102085780D01*
X66498108Y-102065604D01*
X66394692Y-102065604D01*
X66293263Y-102085780D01*
X66197719Y-102125355D01*
X66111732Y-102182810D01*
X66038606Y-102255936D01*
X65981151Y-102341923D01*
X65941576Y-102437467D01*
X65928002Y-102505709D01*
X64969167Y-101546875D01*
X64969167Y-101535852D01*
X64948991Y-101434423D01*
X64909416Y-101338879D01*
X64851961Y-101252892D01*
X64846805Y-101247736D01*
X64908792Y-101260066D01*
X65012208Y-101260066D01*
X65113637Y-101239890D01*
X65209181Y-101200315D01*
X65295168Y-101142860D01*
X65368294Y-101069734D01*
X65412016Y-101004301D01*
X65773285Y-101365570D01*
G36*
X82023000Y-97414754D02*
G01*
X82021065Y-97434400D01*
X82027483Y-97499561D01*
X82028788Y-97512813D01*
X82051660Y-97588213D01*
X82088803Y-97657702D01*
X82138789Y-97718611D01*
X82154052Y-97731137D01*
X82228200Y-97805285D01*
X82228200Y-97816308D01*
X82229728Y-97823987D01*
X79357093Y-100696622D01*
X68145330Y-100696622D01*
X68156249Y-100680281D01*
X68195824Y-100584737D01*
X68216000Y-100483308D01*
X68216000Y-100472285D01*
X68712687Y-99975599D01*
X69461685Y-99975599D01*
X69452000Y-100024288D01*
X69452000Y-100127704D01*
X69472176Y-100229133D01*
X69511751Y-100324677D01*
X69569206Y-100410664D01*
X69642332Y-100483790D01*
X69728319Y-100541245D01*
X69823863Y-100580820D01*
X69925292Y-100600996D01*
X70028708Y-100600996D01*
X70130137Y-100580820D01*
X70212726Y-100546611D01*
X77032341Y-100546611D01*
X77051987Y-100548546D01*
X77071633Y-100546611D01*
X77071634Y-100546611D01*
X77130401Y-100540823D01*
X77205801Y-100517951D01*
X77275290Y-100480808D01*
X77336198Y-100430822D01*
X77348724Y-100415559D01*
X78072772Y-99691511D01*
X78129004Y-99775668D01*
X78202130Y-99848794D01*
X78288117Y-99906249D01*
X78383661Y-99945824D01*
X78485090Y-99966000D01*
X78588506Y-99966000D01*
X78689935Y-99945824D01*
X78785479Y-99906249D01*
X78871466Y-99848794D01*
X78944592Y-99775668D01*
X79002047Y-99689681D01*
X79041622Y-99594137D01*
X79061798Y-99492708D01*
X79061798Y-99389292D01*
X79041622Y-99287863D01*
X79002047Y-99192319D01*
X78944592Y-99106332D01*
X78871466Y-99033206D01*
X78787309Y-98976974D01*
X79871487Y-97892796D01*
X79900351Y-97962481D01*
X79957806Y-98048468D01*
X80030932Y-98121594D01*
X80116919Y-98179049D01*
X80212463Y-98218624D01*
X80313892Y-98238800D01*
X80417308Y-98238800D01*
X80518737Y-98218624D01*
X80614281Y-98179049D01*
X80700268Y-98121594D01*
X80773394Y-98048468D01*
X80830849Y-97962481D01*
X80870424Y-97866937D01*
X80890600Y-97765508D01*
X80890600Y-97662092D01*
X80870424Y-97560663D01*
X80830849Y-97465119D01*
X80773394Y-97379132D01*
X80700268Y-97306006D01*
X80614281Y-97248551D01*
X80544596Y-97219687D01*
X80634548Y-97129735D01*
X80649811Y-97117209D01*
X80699797Y-97056301D01*
X80736940Y-96986812D01*
X80759812Y-96911412D01*
X80765600Y-96852645D01*
X80765600Y-96852635D01*
X80767534Y-96832999D01*
X80765600Y-96813363D01*
X80765600Y-94715000D01*
X82023000Y-94715000D01*
X82023000Y-97414754D01*
G37*
X82023000Y-97414754D02*
X82021065Y-97434400D01*
X82027483Y-97499561D01*
X82028788Y-97512813D01*
X82051660Y-97588213D01*
X82088803Y-97657702D01*
X82138789Y-97718611D01*
X82154052Y-97731137D01*
X82228200Y-97805285D01*
X82228200Y-97816308D01*
X82229728Y-97823987D01*
X79357093Y-100696622D01*
X68145330Y-100696622D01*
X68156249Y-100680281D01*
X68195824Y-100584737D01*
X68216000Y-100483308D01*
X68216000Y-100472285D01*
X68712687Y-99975599D01*
X69461685Y-99975599D01*
X69452000Y-100024288D01*
X69452000Y-100127704D01*
X69472176Y-100229133D01*
X69511751Y-100324677D01*
X69569206Y-100410664D01*
X69642332Y-100483790D01*
X69728319Y-100541245D01*
X69823863Y-100580820D01*
X69925292Y-100600996D01*
X70028708Y-100600996D01*
X70130137Y-100580820D01*
X70212726Y-100546611D01*
X77032341Y-100546611D01*
X77051987Y-100548546D01*
X77071633Y-100546611D01*
X77071634Y-100546611D01*
X77130401Y-100540823D01*
X77205801Y-100517951D01*
X77275290Y-100480808D01*
X77336198Y-100430822D01*
X77348724Y-100415559D01*
X78072772Y-99691511D01*
X78129004Y-99775668D01*
X78202130Y-99848794D01*
X78288117Y-99906249D01*
X78383661Y-99945824D01*
X78485090Y-99966000D01*
X78588506Y-99966000D01*
X78689935Y-99945824D01*
X78785479Y-99906249D01*
X78871466Y-99848794D01*
X78944592Y-99775668D01*
X79002047Y-99689681D01*
X79041622Y-99594137D01*
X79061798Y-99492708D01*
X79061798Y-99389292D01*
X79041622Y-99287863D01*
X79002047Y-99192319D01*
X78944592Y-99106332D01*
X78871466Y-99033206D01*
X78787309Y-98976974D01*
X79871487Y-97892796D01*
X79900351Y-97962481D01*
X79957806Y-98048468D01*
X80030932Y-98121594D01*
X80116919Y-98179049D01*
X80212463Y-98218624D01*
X80313892Y-98238800D01*
X80417308Y-98238800D01*
X80518737Y-98218624D01*
X80614281Y-98179049D01*
X80700268Y-98121594D01*
X80773394Y-98048468D01*
X80830849Y-97962481D01*
X80870424Y-97866937D01*
X80890600Y-97765508D01*
X80890600Y-97662092D01*
X80870424Y-97560663D01*
X80830849Y-97465119D01*
X80773394Y-97379132D01*
X80700268Y-97306006D01*
X80614281Y-97248551D01*
X80544596Y-97219687D01*
X80634548Y-97129735D01*
X80649811Y-97117209D01*
X80699797Y-97056301D01*
X80736940Y-96986812D01*
X80759812Y-96911412D01*
X80765600Y-96852645D01*
X80765600Y-96852635D01*
X80767534Y-96832999D01*
X80765600Y-96813363D01*
X80765600Y-94715000D01*
X82023000Y-94715000D01*
X82023000Y-97414754D01*
G36*
X78478956Y-84835841D02*
G01*
X78469000Y-84885892D01*
X78469000Y-84989308D01*
X78489176Y-85090737D01*
X78528751Y-85186281D01*
X78586206Y-85272268D01*
X78659332Y-85345394D01*
X78745319Y-85402849D01*
X78840863Y-85442424D01*
X78942292Y-85462600D01*
X78953315Y-85462600D01*
X80372000Y-86881285D01*
X80372001Y-87489713D01*
X79918515Y-87943200D01*
X79907492Y-87943200D01*
X79806063Y-87963376D01*
X79710519Y-88002951D01*
X79624532Y-88060406D01*
X79551406Y-88133532D01*
X79521000Y-88179038D01*
X79521000Y-87820062D01*
X79528794Y-87812268D01*
X79586249Y-87726281D01*
X79625824Y-87630737D01*
X79646000Y-87529308D01*
X79646000Y-87425892D01*
X79625824Y-87324463D01*
X79586249Y-87228919D01*
X79528794Y-87142932D01*
X79455668Y-87069806D01*
X79369681Y-87012351D01*
X79274137Y-86972776D01*
X79172708Y-86952600D01*
X79069292Y-86952600D01*
X78967863Y-86972776D01*
X78872319Y-87012351D01*
X78786332Y-87069806D01*
X78713206Y-87142932D01*
X78655751Y-87228919D01*
X78616176Y-87324463D01*
X78596000Y-87425892D01*
X78596000Y-87529308D01*
X78616176Y-87630737D01*
X78655751Y-87726281D01*
X78713206Y-87812268D01*
X78721000Y-87820062D01*
X78721001Y-88575544D01*
X78719065Y-88595200D01*
X78726788Y-88673613D01*
X78749661Y-88749014D01*
X78786803Y-88818502D01*
X78824265Y-88864150D01*
X78824268Y-88864153D01*
X78836790Y-88879411D01*
X78852047Y-88891932D01*
X79385001Y-89424887D01*
X79385001Y-89944516D01*
X79290737Y-89850252D01*
X79278211Y-89834989D01*
X79217303Y-89785003D01*
X79147814Y-89747860D01*
X79072414Y-89724988D01*
X79013647Y-89719200D01*
X79013646Y-89719200D01*
X78994000Y-89717265D01*
X78974354Y-89719200D01*
X77997647Y-89719200D01*
X77978000Y-89717265D01*
X77958353Y-89719200D01*
X77899586Y-89724988D01*
X77824186Y-89747860D01*
X77754697Y-89785003D01*
X77693789Y-89834989D01*
X77681263Y-89850252D01*
X77124852Y-90406663D01*
X77109589Y-90419189D01*
X77059603Y-90480098D01*
X77022460Y-90549587D01*
X77014568Y-90575605D01*
X76999588Y-90624987D01*
X76991865Y-90703400D01*
X76993800Y-90723047D01*
X76993801Y-92360144D01*
X76991865Y-92379800D01*
X76999588Y-92458213D01*
X77022461Y-92533614D01*
X77059603Y-92603102D01*
X77097065Y-92648750D01*
X77097068Y-92648753D01*
X77109590Y-92664011D01*
X77124848Y-92676533D01*
X78435664Y-93987349D01*
X78448190Y-94002612D01*
X78489724Y-94036698D01*
X78509098Y-94052598D01*
X78578587Y-94089741D01*
X78606591Y-94098236D01*
X78600619Y-94112655D01*
X78580443Y-94214084D01*
X78580443Y-94317500D01*
X78600619Y-94418929D01*
X78640194Y-94514473D01*
X78697649Y-94600460D01*
X78727193Y-94630004D01*
X78727194Y-95485326D01*
X78668268Y-95426400D01*
X78582281Y-95368945D01*
X78486737Y-95329370D01*
X78385308Y-95309194D01*
X78281892Y-95309194D01*
X78180463Y-95329370D01*
X78084919Y-95368945D01*
X77998932Y-95426400D01*
X77925806Y-95499526D01*
X77868351Y-95585513D01*
X77828776Y-95681057D01*
X77808600Y-95782486D01*
X77808600Y-95885902D01*
X77828776Y-95987331D01*
X77868351Y-96082875D01*
X77911135Y-96146905D01*
X77868355Y-96210930D01*
X77828780Y-96306474D01*
X77808604Y-96407903D01*
X77808604Y-96511319D01*
X77828780Y-96612748D01*
X77868355Y-96708292D01*
X77925810Y-96794279D01*
X77998936Y-96867405D01*
X78051288Y-96902386D01*
X77839730Y-97113945D01*
X77846540Y-97079708D01*
X77846540Y-96976292D01*
X77826364Y-96874863D01*
X77786789Y-96779319D01*
X77729334Y-96693332D01*
X77656208Y-96620206D01*
X77570221Y-96562751D01*
X77474677Y-96523176D01*
X77373248Y-96503000D01*
X77269832Y-96503000D01*
X77168403Y-96523176D01*
X77072859Y-96562751D01*
X76986872Y-96620206D01*
X76913746Y-96693332D01*
X76856291Y-96779319D01*
X76816716Y-96874863D01*
X76796540Y-96976292D01*
X76796540Y-97079708D01*
X76816716Y-97181137D01*
X76856291Y-97276681D01*
X76898636Y-97340054D01*
X76893885Y-97339109D01*
X76850287Y-97339109D01*
X76819879Y-97265696D01*
X76762424Y-97179709D01*
X76689298Y-97106583D01*
X76603311Y-97049128D01*
X76507767Y-97009553D01*
X76406338Y-96989377D01*
X76302922Y-96989377D01*
X76201493Y-97009553D01*
X76105949Y-97049128D01*
X76019962Y-97106583D01*
X75946836Y-97179709D01*
X75889381Y-97265696D01*
X75849806Y-97361240D01*
X75829630Y-97462669D01*
X75829630Y-97473692D01*
X75717721Y-97585601D01*
X67779567Y-97585601D01*
X67784200Y-97562308D01*
X67784200Y-97458892D01*
X67764024Y-97357463D01*
X67724449Y-97261919D01*
X67666994Y-97175932D01*
X67593868Y-97102806D01*
X67507881Y-97045351D01*
X67412337Y-97005776D01*
X67310908Y-96985600D01*
X67207492Y-96985600D01*
X67106063Y-97005776D01*
X67010519Y-97045351D01*
X66924532Y-97102806D01*
X66851406Y-97175932D01*
X66793951Y-97261919D01*
X66754376Y-97357463D01*
X66734200Y-97458892D01*
X66734200Y-97562308D01*
X66738833Y-97585601D01*
X64674087Y-97585601D01*
X63912378Y-96823892D01*
X70493400Y-96823892D01*
X70493400Y-96927308D01*
X70513576Y-97028737D01*
X70553151Y-97124281D01*
X70610606Y-97210268D01*
X70683732Y-97283394D01*
X70769719Y-97340849D01*
X70865263Y-97380424D01*
X70966692Y-97400600D01*
X71070108Y-97400600D01*
X71171537Y-97380424D01*
X71267081Y-97340849D01*
X71353068Y-97283394D01*
X71426194Y-97210268D01*
X71483649Y-97124281D01*
X71523224Y-97028737D01*
X71543400Y-96927308D01*
X71543400Y-96825294D01*
X71865000Y-96825294D01*
X71865000Y-96928710D01*
X71885176Y-97030139D01*
X71924751Y-97125683D01*
X71982206Y-97211670D01*
X72055332Y-97284796D01*
X72141319Y-97342251D01*
X72236863Y-97381826D01*
X72338292Y-97402002D01*
X72441708Y-97402002D01*
X72543137Y-97381826D01*
X72638681Y-97342251D01*
X72724668Y-97284796D01*
X72797794Y-97211670D01*
X72855249Y-97125683D01*
X72894824Y-97030139D01*
X72915000Y-96928710D01*
X72915000Y-96825294D01*
X72894824Y-96723865D01*
X72855249Y-96628321D01*
X72797794Y-96542334D01*
X72724668Y-96469208D01*
X72638681Y-96411753D01*
X72543137Y-96372178D01*
X72441708Y-96352002D01*
X72338292Y-96352002D01*
X72236863Y-96372178D01*
X72141319Y-96411753D01*
X72055332Y-96469208D01*
X71982206Y-96542334D01*
X71924751Y-96628321D01*
X71885176Y-96723865D01*
X71865000Y-96825294D01*
X71543400Y-96825294D01*
X71543400Y-96823892D01*
X71523224Y-96722463D01*
X71483649Y-96626919D01*
X71426194Y-96540932D01*
X71353068Y-96467806D01*
X71267081Y-96410351D01*
X71171537Y-96370776D01*
X71070108Y-96350600D01*
X70966692Y-96350600D01*
X70865263Y-96370776D01*
X70769719Y-96410351D01*
X70683732Y-96467806D01*
X70610606Y-96540932D01*
X70553151Y-96626919D01*
X70513576Y-96722463D01*
X70493400Y-96823892D01*
X63912378Y-96823892D01*
X62680800Y-95592315D01*
X62680800Y-95516486D01*
X64041898Y-95516486D01*
X64041898Y-95619902D01*
X64062074Y-95721331D01*
X64101649Y-95816875D01*
X64159104Y-95902862D01*
X64232230Y-95975988D01*
X64318217Y-96033443D01*
X64413761Y-96073018D01*
X64515190Y-96093194D01*
X64618606Y-96093194D01*
X64720035Y-96073018D01*
X64815579Y-96033443D01*
X64901566Y-95975988D01*
X64974692Y-95902862D01*
X65032147Y-95816875D01*
X65071722Y-95721331D01*
X65091898Y-95619902D01*
X65091898Y-95516486D01*
X65071722Y-95415057D01*
X65032147Y-95319513D01*
X64974692Y-95233526D01*
X64901566Y-95160400D01*
X64815579Y-95102945D01*
X64720035Y-95063370D01*
X64618606Y-95043194D01*
X64515190Y-95043194D01*
X64413761Y-95063370D01*
X64318217Y-95102945D01*
X64232230Y-95160400D01*
X64159104Y-95233526D01*
X64101649Y-95319513D01*
X64062074Y-95415057D01*
X64041898Y-95516486D01*
X62680800Y-95516486D01*
X62680800Y-94233092D01*
X65286396Y-94233092D01*
X65286396Y-94336508D01*
X65306572Y-94437937D01*
X65346147Y-94533481D01*
X65403602Y-94619468D01*
X65476728Y-94692594D01*
X65562715Y-94750049D01*
X65658259Y-94789624D01*
X65759688Y-94809800D01*
X65863104Y-94809800D01*
X65964533Y-94789624D01*
X66060077Y-94750049D01*
X66146064Y-94692594D01*
X66219190Y-94619468D01*
X66276645Y-94533481D01*
X66316220Y-94437937D01*
X66336396Y-94336508D01*
X66336396Y-94233092D01*
X66316220Y-94131663D01*
X66276645Y-94036119D01*
X66219190Y-93950132D01*
X66146064Y-93877006D01*
X66060077Y-93819551D01*
X65964533Y-93779976D01*
X65863104Y-93759800D01*
X65759688Y-93759800D01*
X65658259Y-93779976D01*
X65562715Y-93819551D01*
X65476728Y-93877006D01*
X65403602Y-93950132D01*
X65346147Y-94036119D01*
X65306572Y-94131663D01*
X65286396Y-94233092D01*
X62680800Y-94233092D01*
X62680800Y-93364635D01*
X62682734Y-93344999D01*
X62680800Y-93325363D01*
X62680800Y-93325353D01*
X62675012Y-93266586D01*
X62652140Y-93191186D01*
X62614997Y-93121697D01*
X62565011Y-93060789D01*
X62549748Y-93048263D01*
X62325200Y-92823715D01*
X62325200Y-91312092D01*
X65286402Y-91312092D01*
X65286402Y-91415508D01*
X65306578Y-91516937D01*
X65346153Y-91612481D01*
X65403608Y-91698468D01*
X65476734Y-91771594D01*
X65562721Y-91829049D01*
X65658265Y-91868624D01*
X65759694Y-91888800D01*
X65863110Y-91888800D01*
X65964539Y-91868624D01*
X66060083Y-91829049D01*
X66146070Y-91771594D01*
X66219196Y-91698468D01*
X66276651Y-91612481D01*
X66316226Y-91516937D01*
X66336402Y-91415508D01*
X66336402Y-91312092D01*
X66316226Y-91210663D01*
X66276651Y-91115119D01*
X66219196Y-91029132D01*
X66146070Y-90956006D01*
X66060083Y-90898551D01*
X65964539Y-90858976D01*
X65863110Y-90838800D01*
X65759694Y-90838800D01*
X65658265Y-90858976D01*
X65562721Y-90898551D01*
X65476734Y-90956006D01*
X65403608Y-91029132D01*
X65346153Y-91115119D01*
X65306578Y-91210663D01*
X65286402Y-91312092D01*
X62325200Y-91312092D01*
X62325200Y-90945285D01*
X62473885Y-90796600D01*
X62484908Y-90796600D01*
X62586337Y-90776424D01*
X62681881Y-90736849D01*
X62767868Y-90679394D01*
X62840994Y-90606268D01*
X62898449Y-90520281D01*
X62938024Y-90424737D01*
X62958200Y-90323308D01*
X62958200Y-90219892D01*
X62938024Y-90118463D01*
X62898449Y-90022919D01*
X62840994Y-89936932D01*
X62767868Y-89863806D01*
X62681881Y-89806351D01*
X62586337Y-89766776D01*
X62504073Y-89750412D01*
X62613650Y-89640835D01*
X63864865Y-89640835D01*
X63864865Y-89744251D01*
X63885041Y-89845680D01*
X63924616Y-89941224D01*
X63982071Y-90027211D01*
X64055197Y-90100337D01*
X64141184Y-90157792D01*
X64236728Y-90197367D01*
X64338157Y-90217543D01*
X64441573Y-90217543D01*
X64543002Y-90197367D01*
X64638546Y-90157792D01*
X64701084Y-90116005D01*
X64774754Y-90165230D01*
X64870298Y-90204805D01*
X64971727Y-90224981D01*
X65075143Y-90224981D01*
X65176572Y-90204805D01*
X65272116Y-90165230D01*
X65358103Y-90107775D01*
X65400620Y-90065258D01*
X71321893Y-90065258D01*
X71321893Y-90168674D01*
X71342069Y-90270103D01*
X71381644Y-90365647D01*
X71439099Y-90451634D01*
X71512225Y-90524760D01*
X71598212Y-90582215D01*
X71693756Y-90621790D01*
X71795185Y-90641966D01*
X71898601Y-90641966D01*
X72000030Y-90621790D01*
X72095574Y-90582215D01*
X72181561Y-90524760D01*
X72254687Y-90451634D01*
X72312142Y-90365647D01*
X72351717Y-90270103D01*
X72371893Y-90168674D01*
X72371893Y-90065258D01*
X72351717Y-89963829D01*
X72312142Y-89868285D01*
X72254687Y-89782298D01*
X72181561Y-89709172D01*
X72095574Y-89651717D01*
X72000030Y-89612142D01*
X71898601Y-89591966D01*
X71795185Y-89591966D01*
X71693756Y-89612142D01*
X71598212Y-89651717D01*
X71512225Y-89709172D01*
X71439099Y-89782298D01*
X71381644Y-89868285D01*
X71342069Y-89963829D01*
X71321893Y-90065258D01*
X65400620Y-90065258D01*
X65431229Y-90034649D01*
X65488684Y-89948662D01*
X65528259Y-89853118D01*
X65548435Y-89751689D01*
X65548435Y-89648273D01*
X65528259Y-89546844D01*
X65488684Y-89451300D01*
X65431229Y-89365313D01*
X65358103Y-89292187D01*
X65272116Y-89234732D01*
X65176572Y-89195157D01*
X65075143Y-89174981D01*
X64971727Y-89174981D01*
X64870298Y-89195157D01*
X64774754Y-89234732D01*
X64712216Y-89276519D01*
X64638546Y-89227294D01*
X64543002Y-89187719D01*
X64441573Y-89167543D01*
X64338157Y-89167543D01*
X64236728Y-89187719D01*
X64141184Y-89227294D01*
X64055197Y-89284749D01*
X63982071Y-89357875D01*
X63924616Y-89443862D01*
X63885041Y-89539406D01*
X63864865Y-89640835D01*
X62613650Y-89640835D01*
X63558593Y-88695892D01*
X66327800Y-88695892D01*
X66327800Y-88799308D01*
X66347976Y-88900737D01*
X66387551Y-88996281D01*
X66445006Y-89082268D01*
X66518132Y-89155394D01*
X66604119Y-89212849D01*
X66699663Y-89252424D01*
X66801092Y-89272600D01*
X66904508Y-89272600D01*
X67005937Y-89252424D01*
X67101481Y-89212849D01*
X67187468Y-89155394D01*
X67242550Y-89100312D01*
X72985962Y-89100312D01*
X72985962Y-89203728D01*
X73006138Y-89305157D01*
X73045713Y-89400701D01*
X73103168Y-89486688D01*
X73176294Y-89559814D01*
X73262281Y-89617269D01*
X73301062Y-89633332D01*
X73262367Y-89659188D01*
X73189241Y-89732314D01*
X73131786Y-89818301D01*
X73092211Y-89913845D01*
X73072035Y-90015274D01*
X73072035Y-90118690D01*
X73092211Y-90220119D01*
X73131786Y-90315663D01*
X73189241Y-90401650D01*
X73262367Y-90474776D01*
X73348354Y-90532231D01*
X73443898Y-90571806D01*
X73545327Y-90591982D01*
X73648743Y-90591982D01*
X73750172Y-90571806D01*
X73845716Y-90532231D01*
X73931703Y-90474776D01*
X74004829Y-90401650D01*
X74062284Y-90315663D01*
X74101859Y-90220119D01*
X74122035Y-90118690D01*
X74122035Y-90015274D01*
X74118778Y-89998897D01*
X75181069Y-89998897D01*
X75181069Y-90102313D01*
X75201245Y-90203742D01*
X75240820Y-90299286D01*
X75298275Y-90385273D01*
X75371401Y-90458399D01*
X75457388Y-90515854D01*
X75552932Y-90555429D01*
X75654361Y-90575605D01*
X75757777Y-90575605D01*
X75859206Y-90555429D01*
X75954750Y-90515854D01*
X76040737Y-90458399D01*
X76113863Y-90385273D01*
X76171318Y-90299286D01*
X76210893Y-90203742D01*
X76231069Y-90102313D01*
X76231069Y-89998897D01*
X76210893Y-89897468D01*
X76171318Y-89801924D01*
X76113863Y-89715937D01*
X76040737Y-89642811D01*
X75954750Y-89585356D01*
X75859206Y-89545781D01*
X75757777Y-89525605D01*
X75654361Y-89525605D01*
X75552932Y-89545781D01*
X75457388Y-89585356D01*
X75371401Y-89642811D01*
X75298275Y-89715937D01*
X75240820Y-89801924D01*
X75201245Y-89897468D01*
X75181069Y-89998897D01*
X74118778Y-89998897D01*
X74101859Y-89913845D01*
X74062284Y-89818301D01*
X74004829Y-89732314D01*
X73931703Y-89659188D01*
X73845716Y-89601733D01*
X73806935Y-89585670D01*
X73845630Y-89559814D01*
X73918756Y-89486688D01*
X73976211Y-89400701D01*
X74015786Y-89305157D01*
X74035962Y-89203728D01*
X74035962Y-89100312D01*
X74015786Y-88998883D01*
X73988017Y-88931843D01*
X74023899Y-88895961D01*
X74081354Y-88809974D01*
X74082730Y-88806652D01*
X74116463Y-88820624D01*
X74217892Y-88840800D01*
X74321308Y-88840800D01*
X74422737Y-88820624D01*
X74518281Y-88781049D01*
X74604268Y-88723594D01*
X74677394Y-88650468D01*
X74734849Y-88564481D01*
X74774424Y-88468937D01*
X74783224Y-88424699D01*
X74833719Y-88458439D01*
X74929263Y-88498014D01*
X75030692Y-88518190D01*
X75134108Y-88518190D01*
X75235537Y-88498014D01*
X75331081Y-88458439D01*
X75417068Y-88400984D01*
X75490194Y-88327858D01*
X75547649Y-88241871D01*
X75587224Y-88146327D01*
X75607400Y-88044898D01*
X75607400Y-87941482D01*
X75587224Y-87840053D01*
X75547649Y-87744509D01*
X75490194Y-87658522D01*
X75417068Y-87585396D01*
X75331081Y-87527941D01*
X75235537Y-87488366D01*
X75134108Y-87468190D01*
X75030692Y-87468190D01*
X74929263Y-87488366D01*
X74833719Y-87527941D01*
X74747732Y-87585396D01*
X74674606Y-87658522D01*
X74617151Y-87744509D01*
X74577576Y-87840053D01*
X74568776Y-87884291D01*
X74518281Y-87850551D01*
X74422737Y-87810976D01*
X74321308Y-87790800D01*
X74217892Y-87790800D01*
X74116463Y-87810976D01*
X74020919Y-87850551D01*
X73934932Y-87908006D01*
X73861806Y-87981132D01*
X73804351Y-88067119D01*
X73802975Y-88070441D01*
X73769242Y-88056469D01*
X73667813Y-88036293D01*
X73564397Y-88036293D01*
X73462968Y-88056469D01*
X73367424Y-88096044D01*
X73281437Y-88153499D01*
X73208311Y-88226625D01*
X73150856Y-88312612D01*
X73111281Y-88408156D01*
X73091105Y-88509585D01*
X73091105Y-88613001D01*
X73111281Y-88714430D01*
X73139050Y-88781470D01*
X73103168Y-88817352D01*
X73045713Y-88903339D01*
X73006138Y-88998883D01*
X72985962Y-89100312D01*
X67242550Y-89100312D01*
X67260594Y-89082268D01*
X67318049Y-88996281D01*
X67357624Y-88900737D01*
X67377800Y-88799308D01*
X67377800Y-88695892D01*
X67357624Y-88594463D01*
X67318049Y-88498919D01*
X67260594Y-88412932D01*
X67187468Y-88339806D01*
X67101481Y-88282351D01*
X67005937Y-88242776D01*
X66904508Y-88222600D01*
X66801092Y-88222600D01*
X66699663Y-88242776D01*
X66604119Y-88282351D01*
X66518132Y-88339806D01*
X66445006Y-88412932D01*
X66387551Y-88498919D01*
X66347976Y-88594463D01*
X66327800Y-88695892D01*
X63558593Y-88695892D01*
X64215989Y-88038496D01*
X71665740Y-88038496D01*
X71665740Y-88141912D01*
X71685916Y-88243341D01*
X71725491Y-88338885D01*
X71782946Y-88424872D01*
X71856072Y-88497998D01*
X71942059Y-88555453D01*
X72037603Y-88595028D01*
X72139032Y-88615204D01*
X72242448Y-88615204D01*
X72343877Y-88595028D01*
X72439421Y-88555453D01*
X72525408Y-88497998D01*
X72598534Y-88424872D01*
X72655989Y-88338885D01*
X72695564Y-88243341D01*
X72715740Y-88141912D01*
X72715740Y-88038496D01*
X72695564Y-87937067D01*
X72655989Y-87841523D01*
X72650201Y-87832861D01*
X72670794Y-87812268D01*
X72728249Y-87726281D01*
X72767824Y-87630737D01*
X72788000Y-87529308D01*
X72788000Y-87425892D01*
X72767824Y-87324463D01*
X72728249Y-87228919D01*
X72670794Y-87142932D01*
X72597668Y-87069806D01*
X72511681Y-87012351D01*
X72416137Y-86972776D01*
X72314708Y-86952600D01*
X72211292Y-86952600D01*
X72109863Y-86972776D01*
X72014319Y-87012351D01*
X71928332Y-87069806D01*
X71855206Y-87142932D01*
X71797751Y-87228919D01*
X71758176Y-87324463D01*
X71738000Y-87425892D01*
X71738000Y-87529308D01*
X71758176Y-87630737D01*
X71797751Y-87726281D01*
X71803539Y-87734943D01*
X71782946Y-87755536D01*
X71725491Y-87841523D01*
X71685916Y-87937067D01*
X71665740Y-88038496D01*
X64215989Y-88038496D01*
X65926286Y-86328200D01*
X68974138Y-86328200D01*
X68981932Y-86335994D01*
X69067919Y-86393449D01*
X69163463Y-86433024D01*
X69264892Y-86453200D01*
X69368308Y-86453200D01*
X69469737Y-86433024D01*
X69565281Y-86393449D01*
X69651268Y-86335994D01*
X69724394Y-86262868D01*
X69781849Y-86176881D01*
X69821424Y-86081337D01*
X69841600Y-85979908D01*
X69841600Y-85876492D01*
X71103000Y-85876492D01*
X71103000Y-85979908D01*
X71123176Y-86081337D01*
X71162751Y-86176881D01*
X71220206Y-86262868D01*
X71293332Y-86335994D01*
X71379319Y-86393449D01*
X71474863Y-86433024D01*
X71576292Y-86453200D01*
X71679708Y-86453200D01*
X71781137Y-86433024D01*
X71876681Y-86393449D01*
X71962668Y-86335994D01*
X72035794Y-86262868D01*
X72093249Y-86176881D01*
X72132824Y-86081337D01*
X72153000Y-85979908D01*
X72153000Y-85876492D01*
X72132824Y-85775063D01*
X72093249Y-85679519D01*
X72035794Y-85593532D01*
X71962668Y-85520406D01*
X71876681Y-85462951D01*
X71781137Y-85423376D01*
X71679708Y-85403200D01*
X71576292Y-85403200D01*
X71474863Y-85423376D01*
X71379319Y-85462951D01*
X71293332Y-85520406D01*
X71220206Y-85593532D01*
X71162751Y-85679519D01*
X71123176Y-85775063D01*
X71103000Y-85876492D01*
X69841600Y-85876492D01*
X69821424Y-85775063D01*
X69781849Y-85679519D01*
X69724394Y-85593532D01*
X69651268Y-85520406D01*
X69565281Y-85462951D01*
X69469737Y-85423376D01*
X69368308Y-85403200D01*
X69264892Y-85403200D01*
X69163463Y-85423376D01*
X69067919Y-85462951D01*
X68981932Y-85520406D01*
X68974138Y-85528200D01*
X65780235Y-85528200D01*
X65760599Y-85526266D01*
X65740963Y-85528200D01*
X65740953Y-85528200D01*
X65682186Y-85533988D01*
X65606786Y-85556860D01*
X65537297Y-85594003D01*
X65537295Y-85594004D01*
X65537296Y-85594004D01*
X65491649Y-85631465D01*
X65491647Y-85631467D01*
X65476389Y-85643989D01*
X65463867Y-85659247D01*
X64027000Y-87096114D01*
X64027000Y-85763685D01*
X65088091Y-84702594D01*
X66053138Y-84702594D01*
X66060932Y-84710388D01*
X66146919Y-84767843D01*
X66242463Y-84807418D01*
X66343892Y-84827594D01*
X66447308Y-84827594D01*
X66548737Y-84807418D01*
X66644281Y-84767843D01*
X66730268Y-84710388D01*
X66738056Y-84702600D01*
X68560354Y-84702600D01*
X68580000Y-84704535D01*
X68599646Y-84702600D01*
X68599647Y-84702600D01*
X68658414Y-84696812D01*
X68733814Y-84673940D01*
X68803303Y-84636797D01*
X68864211Y-84586811D01*
X68876737Y-84571548D01*
X69197393Y-84250892D01*
X73973200Y-84250892D01*
X73973200Y-84354308D01*
X73993376Y-84455737D01*
X74032951Y-84551281D01*
X74090406Y-84637268D01*
X74163532Y-84710394D01*
X74249519Y-84767849D01*
X74345063Y-84807424D01*
X74446492Y-84827600D01*
X74549908Y-84827600D01*
X74651337Y-84807424D01*
X74746881Y-84767849D01*
X74832868Y-84710394D01*
X74905994Y-84637268D01*
X74963449Y-84551281D01*
X75003024Y-84455737D01*
X75023200Y-84354308D01*
X75023200Y-84250892D01*
X75003024Y-84149463D01*
X74963449Y-84053919D01*
X74905994Y-83967932D01*
X74832868Y-83894806D01*
X74746881Y-83837351D01*
X74651337Y-83797776D01*
X74549908Y-83777600D01*
X74446492Y-83777600D01*
X74345063Y-83797776D01*
X74249519Y-83837351D01*
X74163532Y-83894806D01*
X74090406Y-83967932D01*
X74032951Y-84053919D01*
X73993376Y-84149463D01*
X73973200Y-84250892D01*
X69197393Y-84250892D01*
X69357285Y-84091000D01*
X69415168Y-84091000D01*
X69516597Y-84070824D01*
X69612141Y-84031249D01*
X69698128Y-83973794D01*
X69771254Y-83900668D01*
X69828709Y-83814681D01*
X69868284Y-83719137D01*
X69888460Y-83617708D01*
X69888460Y-83514292D01*
X69868284Y-83412863D01*
X69865938Y-83407200D01*
X71137060Y-83407200D01*
X71120810Y-83488892D01*
X71120810Y-83592308D01*
X71140986Y-83693737D01*
X71180561Y-83789281D01*
X71238016Y-83875268D01*
X71311142Y-83948394D01*
X71397129Y-84005849D01*
X71492673Y-84045424D01*
X71594102Y-84065600D01*
X71697518Y-84065600D01*
X71798947Y-84045424D01*
X71894491Y-84005849D01*
X71980478Y-83948394D01*
X72053604Y-83875268D01*
X72111059Y-83789281D01*
X72150634Y-83693737D01*
X72170810Y-83592308D01*
X72170810Y-83488892D01*
X72154560Y-83407200D01*
X76130201Y-83407200D01*
X76130200Y-83984399D01*
X76046863Y-84000976D01*
X75951319Y-84040551D01*
X75865332Y-84098006D01*
X75792206Y-84171132D01*
X75734751Y-84257119D01*
X75695176Y-84352663D01*
X75675000Y-84454092D01*
X75675000Y-84557508D01*
X75695176Y-84658937D01*
X75734751Y-84754481D01*
X75792206Y-84840468D01*
X75865332Y-84913594D01*
X75951319Y-84971049D01*
X76046863Y-85010624D01*
X76148292Y-85030800D01*
X76251708Y-85030800D01*
X76353137Y-85010624D01*
X76448681Y-84971049D01*
X76534668Y-84913594D01*
X76607794Y-84840468D01*
X76665249Y-84754481D01*
X76704824Y-84658937D01*
X76725000Y-84557508D01*
X76725000Y-84546486D01*
X76799154Y-84472332D01*
X76814411Y-84459811D01*
X76864397Y-84398903D01*
X76901540Y-84329414D01*
X76924412Y-84254014D01*
X76930200Y-84195247D01*
X76930200Y-84195237D01*
X76932134Y-84175601D01*
X76930200Y-84155965D01*
X76930200Y-83349662D01*
X76937994Y-83341868D01*
X76956815Y-83313700D01*
X78478956Y-84835841D01*
G37*
X78478956Y-84835841D02*
X78469000Y-84885892D01*
X78469000Y-84989308D01*
X78489176Y-85090737D01*
X78528751Y-85186281D01*
X78586206Y-85272268D01*
X78659332Y-85345394D01*
X78745319Y-85402849D01*
X78840863Y-85442424D01*
X78942292Y-85462600D01*
X78953315Y-85462600D01*
X80372000Y-86881285D01*
X80372001Y-87489713D01*
X79918515Y-87943200D01*
X79907492Y-87943200D01*
X79806063Y-87963376D01*
X79710519Y-88002951D01*
X79624532Y-88060406D01*
X79551406Y-88133532D01*
X79521000Y-88179038D01*
X79521000Y-87820062D01*
X79528794Y-87812268D01*
X79586249Y-87726281D01*
X79625824Y-87630737D01*
X79646000Y-87529308D01*
X79646000Y-87425892D01*
X79625824Y-87324463D01*
X79586249Y-87228919D01*
X79528794Y-87142932D01*
X79455668Y-87069806D01*
X79369681Y-87012351D01*
X79274137Y-86972776D01*
X79172708Y-86952600D01*
X79069292Y-86952600D01*
X78967863Y-86972776D01*
X78872319Y-87012351D01*
X78786332Y-87069806D01*
X78713206Y-87142932D01*
X78655751Y-87228919D01*
X78616176Y-87324463D01*
X78596000Y-87425892D01*
X78596000Y-87529308D01*
X78616176Y-87630737D01*
X78655751Y-87726281D01*
X78713206Y-87812268D01*
X78721000Y-87820062D01*
X78721001Y-88575544D01*
X78719065Y-88595200D01*
X78726788Y-88673613D01*
X78749661Y-88749014D01*
X78786803Y-88818502D01*
X78824265Y-88864150D01*
X78824268Y-88864153D01*
X78836790Y-88879411D01*
X78852047Y-88891932D01*
X79385001Y-89424887D01*
X79385001Y-89944516D01*
X79290737Y-89850252D01*
X79278211Y-89834989D01*
X79217303Y-89785003D01*
X79147814Y-89747860D01*
X79072414Y-89724988D01*
X79013647Y-89719200D01*
X79013646Y-89719200D01*
X78994000Y-89717265D01*
X78974354Y-89719200D01*
X77997647Y-89719200D01*
X77978000Y-89717265D01*
X77958353Y-89719200D01*
X77899586Y-89724988D01*
X77824186Y-89747860D01*
X77754697Y-89785003D01*
X77693789Y-89834989D01*
X77681263Y-89850252D01*
X77124852Y-90406663D01*
X77109589Y-90419189D01*
X77059603Y-90480098D01*
X77022460Y-90549587D01*
X77014568Y-90575605D01*
X76999588Y-90624987D01*
X76991865Y-90703400D01*
X76993800Y-90723047D01*
X76993801Y-92360144D01*
X76991865Y-92379800D01*
X76999588Y-92458213D01*
X77022461Y-92533614D01*
X77059603Y-92603102D01*
X77097065Y-92648750D01*
X77097068Y-92648753D01*
X77109590Y-92664011D01*
X77124848Y-92676533D01*
X78435664Y-93987349D01*
X78448190Y-94002612D01*
X78489724Y-94036698D01*
X78509098Y-94052598D01*
X78578587Y-94089741D01*
X78606591Y-94098236D01*
X78600619Y-94112655D01*
X78580443Y-94214084D01*
X78580443Y-94317500D01*
X78600619Y-94418929D01*
X78640194Y-94514473D01*
X78697649Y-94600460D01*
X78727193Y-94630004D01*
X78727194Y-95485326D01*
X78668268Y-95426400D01*
X78582281Y-95368945D01*
X78486737Y-95329370D01*
X78385308Y-95309194D01*
X78281892Y-95309194D01*
X78180463Y-95329370D01*
X78084919Y-95368945D01*
X77998932Y-95426400D01*
X77925806Y-95499526D01*
X77868351Y-95585513D01*
X77828776Y-95681057D01*
X77808600Y-95782486D01*
X77808600Y-95885902D01*
X77828776Y-95987331D01*
X77868351Y-96082875D01*
X77911135Y-96146905D01*
X77868355Y-96210930D01*
X77828780Y-96306474D01*
X77808604Y-96407903D01*
X77808604Y-96511319D01*
X77828780Y-96612748D01*
X77868355Y-96708292D01*
X77925810Y-96794279D01*
X77998936Y-96867405D01*
X78051288Y-96902386D01*
X77839730Y-97113945D01*
X77846540Y-97079708D01*
X77846540Y-96976292D01*
X77826364Y-96874863D01*
X77786789Y-96779319D01*
X77729334Y-96693332D01*
X77656208Y-96620206D01*
X77570221Y-96562751D01*
X77474677Y-96523176D01*
X77373248Y-96503000D01*
X77269832Y-96503000D01*
X77168403Y-96523176D01*
X77072859Y-96562751D01*
X76986872Y-96620206D01*
X76913746Y-96693332D01*
X76856291Y-96779319D01*
X76816716Y-96874863D01*
X76796540Y-96976292D01*
X76796540Y-97079708D01*
X76816716Y-97181137D01*
X76856291Y-97276681D01*
X76898636Y-97340054D01*
X76893885Y-97339109D01*
X76850287Y-97339109D01*
X76819879Y-97265696D01*
X76762424Y-97179709D01*
X76689298Y-97106583D01*
X76603311Y-97049128D01*
X76507767Y-97009553D01*
X76406338Y-96989377D01*
X76302922Y-96989377D01*
X76201493Y-97009553D01*
X76105949Y-97049128D01*
X76019962Y-97106583D01*
X75946836Y-97179709D01*
X75889381Y-97265696D01*
X75849806Y-97361240D01*
X75829630Y-97462669D01*
X75829630Y-97473692D01*
X75717721Y-97585601D01*
X67779567Y-97585601D01*
X67784200Y-97562308D01*
X67784200Y-97458892D01*
X67764024Y-97357463D01*
X67724449Y-97261919D01*
X67666994Y-97175932D01*
X67593868Y-97102806D01*
X67507881Y-97045351D01*
X67412337Y-97005776D01*
X67310908Y-96985600D01*
X67207492Y-96985600D01*
X67106063Y-97005776D01*
X67010519Y-97045351D01*
X66924532Y-97102806D01*
X66851406Y-97175932D01*
X66793951Y-97261919D01*
X66754376Y-97357463D01*
X66734200Y-97458892D01*
X66734200Y-97562308D01*
X66738833Y-97585601D01*
X64674087Y-97585601D01*
X63912378Y-96823892D01*
X70493400Y-96823892D01*
X70493400Y-96927308D01*
X70513576Y-97028737D01*
X70553151Y-97124281D01*
X70610606Y-97210268D01*
X70683732Y-97283394D01*
X70769719Y-97340849D01*
X70865263Y-97380424D01*
X70966692Y-97400600D01*
X71070108Y-97400600D01*
X71171537Y-97380424D01*
X71267081Y-97340849D01*
X71353068Y-97283394D01*
X71426194Y-97210268D01*
X71483649Y-97124281D01*
X71523224Y-97028737D01*
X71543400Y-96927308D01*
X71543400Y-96825294D01*
X71865000Y-96825294D01*
X71865000Y-96928710D01*
X71885176Y-97030139D01*
X71924751Y-97125683D01*
X71982206Y-97211670D01*
X72055332Y-97284796D01*
X72141319Y-97342251D01*
X72236863Y-97381826D01*
X72338292Y-97402002D01*
X72441708Y-97402002D01*
X72543137Y-97381826D01*
X72638681Y-97342251D01*
X72724668Y-97284796D01*
X72797794Y-97211670D01*
X72855249Y-97125683D01*
X72894824Y-97030139D01*
X72915000Y-96928710D01*
X72915000Y-96825294D01*
X72894824Y-96723865D01*
X72855249Y-96628321D01*
X72797794Y-96542334D01*
X72724668Y-96469208D01*
X72638681Y-96411753D01*
X72543137Y-96372178D01*
X72441708Y-96352002D01*
X72338292Y-96352002D01*
X72236863Y-96372178D01*
X72141319Y-96411753D01*
X72055332Y-96469208D01*
X71982206Y-96542334D01*
X71924751Y-96628321D01*
X71885176Y-96723865D01*
X71865000Y-96825294D01*
X71543400Y-96825294D01*
X71543400Y-96823892D01*
X71523224Y-96722463D01*
X71483649Y-96626919D01*
X71426194Y-96540932D01*
X71353068Y-96467806D01*
X71267081Y-96410351D01*
X71171537Y-96370776D01*
X71070108Y-96350600D01*
X70966692Y-96350600D01*
X70865263Y-96370776D01*
X70769719Y-96410351D01*
X70683732Y-96467806D01*
X70610606Y-96540932D01*
X70553151Y-96626919D01*
X70513576Y-96722463D01*
X70493400Y-96823892D01*
X63912378Y-96823892D01*
X62680800Y-95592315D01*
X62680800Y-95516486D01*
X64041898Y-95516486D01*
X64041898Y-95619902D01*
X64062074Y-95721331D01*
X64101649Y-95816875D01*
X64159104Y-95902862D01*
X64232230Y-95975988D01*
X64318217Y-96033443D01*
X64413761Y-96073018D01*
X64515190Y-96093194D01*
X64618606Y-96093194D01*
X64720035Y-96073018D01*
X64815579Y-96033443D01*
X64901566Y-95975988D01*
X64974692Y-95902862D01*
X65032147Y-95816875D01*
X65071722Y-95721331D01*
X65091898Y-95619902D01*
X65091898Y-95516486D01*
X65071722Y-95415057D01*
X65032147Y-95319513D01*
X64974692Y-95233526D01*
X64901566Y-95160400D01*
X64815579Y-95102945D01*
X64720035Y-95063370D01*
X64618606Y-95043194D01*
X64515190Y-95043194D01*
X64413761Y-95063370D01*
X64318217Y-95102945D01*
X64232230Y-95160400D01*
X64159104Y-95233526D01*
X64101649Y-95319513D01*
X64062074Y-95415057D01*
X64041898Y-95516486D01*
X62680800Y-95516486D01*
X62680800Y-94233092D01*
X65286396Y-94233092D01*
X65286396Y-94336508D01*
X65306572Y-94437937D01*
X65346147Y-94533481D01*
X65403602Y-94619468D01*
X65476728Y-94692594D01*
X65562715Y-94750049D01*
X65658259Y-94789624D01*
X65759688Y-94809800D01*
X65863104Y-94809800D01*
X65964533Y-94789624D01*
X66060077Y-94750049D01*
X66146064Y-94692594D01*
X66219190Y-94619468D01*
X66276645Y-94533481D01*
X66316220Y-94437937D01*
X66336396Y-94336508D01*
X66336396Y-94233092D01*
X66316220Y-94131663D01*
X66276645Y-94036119D01*
X66219190Y-93950132D01*
X66146064Y-93877006D01*
X66060077Y-93819551D01*
X65964533Y-93779976D01*
X65863104Y-93759800D01*
X65759688Y-93759800D01*
X65658259Y-93779976D01*
X65562715Y-93819551D01*
X65476728Y-93877006D01*
X65403602Y-93950132D01*
X65346147Y-94036119D01*
X65306572Y-94131663D01*
X65286396Y-94233092D01*
X62680800Y-94233092D01*
X62680800Y-93364635D01*
X62682734Y-93344999D01*
X62680800Y-93325363D01*
X62680800Y-93325353D01*
X62675012Y-93266586D01*
X62652140Y-93191186D01*
X62614997Y-93121697D01*
X62565011Y-93060789D01*
X62549748Y-93048263D01*
X62325200Y-92823715D01*
X62325200Y-91312092D01*
X65286402Y-91312092D01*
X65286402Y-91415508D01*
X65306578Y-91516937D01*
X65346153Y-91612481D01*
X65403608Y-91698468D01*
X65476734Y-91771594D01*
X65562721Y-91829049D01*
X65658265Y-91868624D01*
X65759694Y-91888800D01*
X65863110Y-91888800D01*
X65964539Y-91868624D01*
X66060083Y-91829049D01*
X66146070Y-91771594D01*
X66219196Y-91698468D01*
X66276651Y-91612481D01*
X66316226Y-91516937D01*
X66336402Y-91415508D01*
X66336402Y-91312092D01*
X66316226Y-91210663D01*
X66276651Y-91115119D01*
X66219196Y-91029132D01*
X66146070Y-90956006D01*
X66060083Y-90898551D01*
X65964539Y-90858976D01*
X65863110Y-90838800D01*
X65759694Y-90838800D01*
X65658265Y-90858976D01*
X65562721Y-90898551D01*
X65476734Y-90956006D01*
X65403608Y-91029132D01*
X65346153Y-91115119D01*
X65306578Y-91210663D01*
X65286402Y-91312092D01*
X62325200Y-91312092D01*
X62325200Y-90945285D01*
X62473885Y-90796600D01*
X62484908Y-90796600D01*
X62586337Y-90776424D01*
X62681881Y-90736849D01*
X62767868Y-90679394D01*
X62840994Y-90606268D01*
X62898449Y-90520281D01*
X62938024Y-90424737D01*
X62958200Y-90323308D01*
X62958200Y-90219892D01*
X62938024Y-90118463D01*
X62898449Y-90022919D01*
X62840994Y-89936932D01*
X62767868Y-89863806D01*
X62681881Y-89806351D01*
X62586337Y-89766776D01*
X62504073Y-89750412D01*
X62613650Y-89640835D01*
X63864865Y-89640835D01*
X63864865Y-89744251D01*
X63885041Y-89845680D01*
X63924616Y-89941224D01*
X63982071Y-90027211D01*
X64055197Y-90100337D01*
X64141184Y-90157792D01*
X64236728Y-90197367D01*
X64338157Y-90217543D01*
X64441573Y-90217543D01*
X64543002Y-90197367D01*
X64638546Y-90157792D01*
X64701084Y-90116005D01*
X64774754Y-90165230D01*
X64870298Y-90204805D01*
X64971727Y-90224981D01*
X65075143Y-90224981D01*
X65176572Y-90204805D01*
X65272116Y-90165230D01*
X65358103Y-90107775D01*
X65400620Y-90065258D01*
X71321893Y-90065258D01*
X71321893Y-90168674D01*
X71342069Y-90270103D01*
X71381644Y-90365647D01*
X71439099Y-90451634D01*
X71512225Y-90524760D01*
X71598212Y-90582215D01*
X71693756Y-90621790D01*
X71795185Y-90641966D01*
X71898601Y-90641966D01*
X72000030Y-90621790D01*
X72095574Y-90582215D01*
X72181561Y-90524760D01*
X72254687Y-90451634D01*
X72312142Y-90365647D01*
X72351717Y-90270103D01*
X72371893Y-90168674D01*
X72371893Y-90065258D01*
X72351717Y-89963829D01*
X72312142Y-89868285D01*
X72254687Y-89782298D01*
X72181561Y-89709172D01*
X72095574Y-89651717D01*
X72000030Y-89612142D01*
X71898601Y-89591966D01*
X71795185Y-89591966D01*
X71693756Y-89612142D01*
X71598212Y-89651717D01*
X71512225Y-89709172D01*
X71439099Y-89782298D01*
X71381644Y-89868285D01*
X71342069Y-89963829D01*
X71321893Y-90065258D01*
X65400620Y-90065258D01*
X65431229Y-90034649D01*
X65488684Y-89948662D01*
X65528259Y-89853118D01*
X65548435Y-89751689D01*
X65548435Y-89648273D01*
X65528259Y-89546844D01*
X65488684Y-89451300D01*
X65431229Y-89365313D01*
X65358103Y-89292187D01*
X65272116Y-89234732D01*
X65176572Y-89195157D01*
X65075143Y-89174981D01*
X64971727Y-89174981D01*
X64870298Y-89195157D01*
X64774754Y-89234732D01*
X64712216Y-89276519D01*
X64638546Y-89227294D01*
X64543002Y-89187719D01*
X64441573Y-89167543D01*
X64338157Y-89167543D01*
X64236728Y-89187719D01*
X64141184Y-89227294D01*
X64055197Y-89284749D01*
X63982071Y-89357875D01*
X63924616Y-89443862D01*
X63885041Y-89539406D01*
X63864865Y-89640835D01*
X62613650Y-89640835D01*
X63558593Y-88695892D01*
X66327800Y-88695892D01*
X66327800Y-88799308D01*
X66347976Y-88900737D01*
X66387551Y-88996281D01*
X66445006Y-89082268D01*
X66518132Y-89155394D01*
X66604119Y-89212849D01*
X66699663Y-89252424D01*
X66801092Y-89272600D01*
X66904508Y-89272600D01*
X67005937Y-89252424D01*
X67101481Y-89212849D01*
X67187468Y-89155394D01*
X67242550Y-89100312D01*
X72985962Y-89100312D01*
X72985962Y-89203728D01*
X73006138Y-89305157D01*
X73045713Y-89400701D01*
X73103168Y-89486688D01*
X73176294Y-89559814D01*
X73262281Y-89617269D01*
X73301062Y-89633332D01*
X73262367Y-89659188D01*
X73189241Y-89732314D01*
X73131786Y-89818301D01*
X73092211Y-89913845D01*
X73072035Y-90015274D01*
X73072035Y-90118690D01*
X73092211Y-90220119D01*
X73131786Y-90315663D01*
X73189241Y-90401650D01*
X73262367Y-90474776D01*
X73348354Y-90532231D01*
X73443898Y-90571806D01*
X73545327Y-90591982D01*
X73648743Y-90591982D01*
X73750172Y-90571806D01*
X73845716Y-90532231D01*
X73931703Y-90474776D01*
X74004829Y-90401650D01*
X74062284Y-90315663D01*
X74101859Y-90220119D01*
X74122035Y-90118690D01*
X74122035Y-90015274D01*
X74118778Y-89998897D01*
X75181069Y-89998897D01*
X75181069Y-90102313D01*
X75201245Y-90203742D01*
X75240820Y-90299286D01*
X75298275Y-90385273D01*
X75371401Y-90458399D01*
X75457388Y-90515854D01*
X75552932Y-90555429D01*
X75654361Y-90575605D01*
X75757777Y-90575605D01*
X75859206Y-90555429D01*
X75954750Y-90515854D01*
X76040737Y-90458399D01*
X76113863Y-90385273D01*
X76171318Y-90299286D01*
X76210893Y-90203742D01*
X76231069Y-90102313D01*
X76231069Y-89998897D01*
X76210893Y-89897468D01*
X76171318Y-89801924D01*
X76113863Y-89715937D01*
X76040737Y-89642811D01*
X75954750Y-89585356D01*
X75859206Y-89545781D01*
X75757777Y-89525605D01*
X75654361Y-89525605D01*
X75552932Y-89545781D01*
X75457388Y-89585356D01*
X75371401Y-89642811D01*
X75298275Y-89715937D01*
X75240820Y-89801924D01*
X75201245Y-89897468D01*
X75181069Y-89998897D01*
X74118778Y-89998897D01*
X74101859Y-89913845D01*
X74062284Y-89818301D01*
X74004829Y-89732314D01*
X73931703Y-89659188D01*
X73845716Y-89601733D01*
X73806935Y-89585670D01*
X73845630Y-89559814D01*
X73918756Y-89486688D01*
X73976211Y-89400701D01*
X74015786Y-89305157D01*
X74035962Y-89203728D01*
X74035962Y-89100312D01*
X74015786Y-88998883D01*
X73988017Y-88931843D01*
X74023899Y-88895961D01*
X74081354Y-88809974D01*
X74082730Y-88806652D01*
X74116463Y-88820624D01*
X74217892Y-88840800D01*
X74321308Y-88840800D01*
X74422737Y-88820624D01*
X74518281Y-88781049D01*
X74604268Y-88723594D01*
X74677394Y-88650468D01*
X74734849Y-88564481D01*
X74774424Y-88468937D01*
X74783224Y-88424699D01*
X74833719Y-88458439D01*
X74929263Y-88498014D01*
X75030692Y-88518190D01*
X75134108Y-88518190D01*
X75235537Y-88498014D01*
X75331081Y-88458439D01*
X75417068Y-88400984D01*
X75490194Y-88327858D01*
X75547649Y-88241871D01*
X75587224Y-88146327D01*
X75607400Y-88044898D01*
X75607400Y-87941482D01*
X75587224Y-87840053D01*
X75547649Y-87744509D01*
X75490194Y-87658522D01*
X75417068Y-87585396D01*
X75331081Y-87527941D01*
X75235537Y-87488366D01*
X75134108Y-87468190D01*
X75030692Y-87468190D01*
X74929263Y-87488366D01*
X74833719Y-87527941D01*
X74747732Y-87585396D01*
X74674606Y-87658522D01*
X74617151Y-87744509D01*
X74577576Y-87840053D01*
X74568776Y-87884291D01*
X74518281Y-87850551D01*
X74422737Y-87810976D01*
X74321308Y-87790800D01*
X74217892Y-87790800D01*
X74116463Y-87810976D01*
X74020919Y-87850551D01*
X73934932Y-87908006D01*
X73861806Y-87981132D01*
X73804351Y-88067119D01*
X73802975Y-88070441D01*
X73769242Y-88056469D01*
X73667813Y-88036293D01*
X73564397Y-88036293D01*
X73462968Y-88056469D01*
X73367424Y-88096044D01*
X73281437Y-88153499D01*
X73208311Y-88226625D01*
X73150856Y-88312612D01*
X73111281Y-88408156D01*
X73091105Y-88509585D01*
X73091105Y-88613001D01*
X73111281Y-88714430D01*
X73139050Y-88781470D01*
X73103168Y-88817352D01*
X73045713Y-88903339D01*
X73006138Y-88998883D01*
X72985962Y-89100312D01*
X67242550Y-89100312D01*
X67260594Y-89082268D01*
X67318049Y-88996281D01*
X67357624Y-88900737D01*
X67377800Y-88799308D01*
X67377800Y-88695892D01*
X67357624Y-88594463D01*
X67318049Y-88498919D01*
X67260594Y-88412932D01*
X67187468Y-88339806D01*
X67101481Y-88282351D01*
X67005937Y-88242776D01*
X66904508Y-88222600D01*
X66801092Y-88222600D01*
X66699663Y-88242776D01*
X66604119Y-88282351D01*
X66518132Y-88339806D01*
X66445006Y-88412932D01*
X66387551Y-88498919D01*
X66347976Y-88594463D01*
X66327800Y-88695892D01*
X63558593Y-88695892D01*
X64215989Y-88038496D01*
X71665740Y-88038496D01*
X71665740Y-88141912D01*
X71685916Y-88243341D01*
X71725491Y-88338885D01*
X71782946Y-88424872D01*
X71856072Y-88497998D01*
X71942059Y-88555453D01*
X72037603Y-88595028D01*
X72139032Y-88615204D01*
X72242448Y-88615204D01*
X72343877Y-88595028D01*
X72439421Y-88555453D01*
X72525408Y-88497998D01*
X72598534Y-88424872D01*
X72655989Y-88338885D01*
X72695564Y-88243341D01*
X72715740Y-88141912D01*
X72715740Y-88038496D01*
X72695564Y-87937067D01*
X72655989Y-87841523D01*
X72650201Y-87832861D01*
X72670794Y-87812268D01*
X72728249Y-87726281D01*
X72767824Y-87630737D01*
X72788000Y-87529308D01*
X72788000Y-87425892D01*
X72767824Y-87324463D01*
X72728249Y-87228919D01*
X72670794Y-87142932D01*
X72597668Y-87069806D01*
X72511681Y-87012351D01*
X72416137Y-86972776D01*
X72314708Y-86952600D01*
X72211292Y-86952600D01*
X72109863Y-86972776D01*
X72014319Y-87012351D01*
X71928332Y-87069806D01*
X71855206Y-87142932D01*
X71797751Y-87228919D01*
X71758176Y-87324463D01*
X71738000Y-87425892D01*
X71738000Y-87529308D01*
X71758176Y-87630737D01*
X71797751Y-87726281D01*
X71803539Y-87734943D01*
X71782946Y-87755536D01*
X71725491Y-87841523D01*
X71685916Y-87937067D01*
X71665740Y-88038496D01*
X64215989Y-88038496D01*
X65926286Y-86328200D01*
X68974138Y-86328200D01*
X68981932Y-86335994D01*
X69067919Y-86393449D01*
X69163463Y-86433024D01*
X69264892Y-86453200D01*
X69368308Y-86453200D01*
X69469737Y-86433024D01*
X69565281Y-86393449D01*
X69651268Y-86335994D01*
X69724394Y-86262868D01*
X69781849Y-86176881D01*
X69821424Y-86081337D01*
X69841600Y-85979908D01*
X69841600Y-85876492D01*
X71103000Y-85876492D01*
X71103000Y-85979908D01*
X71123176Y-86081337D01*
X71162751Y-86176881D01*
X71220206Y-86262868D01*
X71293332Y-86335994D01*
X71379319Y-86393449D01*
X71474863Y-86433024D01*
X71576292Y-86453200D01*
X71679708Y-86453200D01*
X71781137Y-86433024D01*
X71876681Y-86393449D01*
X71962668Y-86335994D01*
X72035794Y-86262868D01*
X72093249Y-86176881D01*
X72132824Y-86081337D01*
X72153000Y-85979908D01*
X72153000Y-85876492D01*
X72132824Y-85775063D01*
X72093249Y-85679519D01*
X72035794Y-85593532D01*
X71962668Y-85520406D01*
X71876681Y-85462951D01*
X71781137Y-85423376D01*
X71679708Y-85403200D01*
X71576292Y-85403200D01*
X71474863Y-85423376D01*
X71379319Y-85462951D01*
X71293332Y-85520406D01*
X71220206Y-85593532D01*
X71162751Y-85679519D01*
X71123176Y-85775063D01*
X71103000Y-85876492D01*
X69841600Y-85876492D01*
X69821424Y-85775063D01*
X69781849Y-85679519D01*
X69724394Y-85593532D01*
X69651268Y-85520406D01*
X69565281Y-85462951D01*
X69469737Y-85423376D01*
X69368308Y-85403200D01*
X69264892Y-85403200D01*
X69163463Y-85423376D01*
X69067919Y-85462951D01*
X68981932Y-85520406D01*
X68974138Y-85528200D01*
X65780235Y-85528200D01*
X65760599Y-85526266D01*
X65740963Y-85528200D01*
X65740953Y-85528200D01*
X65682186Y-85533988D01*
X65606786Y-85556860D01*
X65537297Y-85594003D01*
X65537295Y-85594004D01*
X65537296Y-85594004D01*
X65491649Y-85631465D01*
X65491647Y-85631467D01*
X65476389Y-85643989D01*
X65463867Y-85659247D01*
X64027000Y-87096114D01*
X64027000Y-85763685D01*
X65088091Y-84702594D01*
X66053138Y-84702594D01*
X66060932Y-84710388D01*
X66146919Y-84767843D01*
X66242463Y-84807418D01*
X66343892Y-84827594D01*
X66447308Y-84827594D01*
X66548737Y-84807418D01*
X66644281Y-84767843D01*
X66730268Y-84710388D01*
X66738056Y-84702600D01*
X68560354Y-84702600D01*
X68580000Y-84704535D01*
X68599646Y-84702600D01*
X68599647Y-84702600D01*
X68658414Y-84696812D01*
X68733814Y-84673940D01*
X68803303Y-84636797D01*
X68864211Y-84586811D01*
X68876737Y-84571548D01*
X69197393Y-84250892D01*
X73973200Y-84250892D01*
X73973200Y-84354308D01*
X73993376Y-84455737D01*
X74032951Y-84551281D01*
X74090406Y-84637268D01*
X74163532Y-84710394D01*
X74249519Y-84767849D01*
X74345063Y-84807424D01*
X74446492Y-84827600D01*
X74549908Y-84827600D01*
X74651337Y-84807424D01*
X74746881Y-84767849D01*
X74832868Y-84710394D01*
X74905994Y-84637268D01*
X74963449Y-84551281D01*
X75003024Y-84455737D01*
X75023200Y-84354308D01*
X75023200Y-84250892D01*
X75003024Y-84149463D01*
X74963449Y-84053919D01*
X74905994Y-83967932D01*
X74832868Y-83894806D01*
X74746881Y-83837351D01*
X74651337Y-83797776D01*
X74549908Y-83777600D01*
X74446492Y-83777600D01*
X74345063Y-83797776D01*
X74249519Y-83837351D01*
X74163532Y-83894806D01*
X74090406Y-83967932D01*
X74032951Y-84053919D01*
X73993376Y-84149463D01*
X73973200Y-84250892D01*
X69197393Y-84250892D01*
X69357285Y-84091000D01*
X69415168Y-84091000D01*
X69516597Y-84070824D01*
X69612141Y-84031249D01*
X69698128Y-83973794D01*
X69771254Y-83900668D01*
X69828709Y-83814681D01*
X69868284Y-83719137D01*
X69888460Y-83617708D01*
X69888460Y-83514292D01*
X69868284Y-83412863D01*
X69865938Y-83407200D01*
X71137060Y-83407200D01*
X71120810Y-83488892D01*
X71120810Y-83592308D01*
X71140986Y-83693737D01*
X71180561Y-83789281D01*
X71238016Y-83875268D01*
X71311142Y-83948394D01*
X71397129Y-84005849D01*
X71492673Y-84045424D01*
X71594102Y-84065600D01*
X71697518Y-84065600D01*
X71798947Y-84045424D01*
X71894491Y-84005849D01*
X71980478Y-83948394D01*
X72053604Y-83875268D01*
X72111059Y-83789281D01*
X72150634Y-83693737D01*
X72170810Y-83592308D01*
X72170810Y-83488892D01*
X72154560Y-83407200D01*
X76130201Y-83407200D01*
X76130200Y-83984399D01*
X76046863Y-84000976D01*
X75951319Y-84040551D01*
X75865332Y-84098006D01*
X75792206Y-84171132D01*
X75734751Y-84257119D01*
X75695176Y-84352663D01*
X75675000Y-84454092D01*
X75675000Y-84557508D01*
X75695176Y-84658937D01*
X75734751Y-84754481D01*
X75792206Y-84840468D01*
X75865332Y-84913594D01*
X75951319Y-84971049D01*
X76046863Y-85010624D01*
X76148292Y-85030800D01*
X76251708Y-85030800D01*
X76353137Y-85010624D01*
X76448681Y-84971049D01*
X76534668Y-84913594D01*
X76607794Y-84840468D01*
X76665249Y-84754481D01*
X76704824Y-84658937D01*
X76725000Y-84557508D01*
X76725000Y-84546486D01*
X76799154Y-84472332D01*
X76814411Y-84459811D01*
X76864397Y-84398903D01*
X76901540Y-84329414D01*
X76924412Y-84254014D01*
X76930200Y-84195247D01*
X76930200Y-84195237D01*
X76932134Y-84175601D01*
X76930200Y-84155965D01*
X76930200Y-83349662D01*
X76937994Y-83341868D01*
X76956815Y-83313700D01*
X78478956Y-84835841D01*
G36*
X81054249Y-85887135D02*
G01*
X81054249Y-85924083D01*
X81046455Y-85931877D01*
X80989000Y-86017864D01*
X80949425Y-86113408D01*
X80929249Y-86214837D01*
X80929249Y-86307164D01*
X79519000Y-84896915D01*
X79519000Y-84885892D01*
X79498824Y-84784463D01*
X79459249Y-84688919D01*
X79401794Y-84602932D01*
X79328668Y-84529806D01*
X79255203Y-84480718D01*
X75870285Y-81095800D01*
X76262915Y-81095800D01*
X81054249Y-85887135D01*
G37*
X81054249Y-85887135D02*
X81054249Y-85924083D01*
X81046455Y-85931877D01*
X80989000Y-86017864D01*
X80949425Y-86113408D01*
X80929249Y-86214837D01*
X80929249Y-86307164D01*
X79519000Y-84896915D01*
X79519000Y-84885892D01*
X79498824Y-84784463D01*
X79459249Y-84688919D01*
X79401794Y-84602932D01*
X79328668Y-84529806D01*
X79255203Y-84480718D01*
X75870285Y-81095800D01*
X76262915Y-81095800D01*
X81054249Y-85887135D01*
G36*
X66949932Y-82195794D02*
G01*
X67035919Y-82253249D01*
X67131463Y-82292824D01*
X67232892Y-82313000D01*
X67243915Y-82313000D01*
X68207067Y-83276153D01*
X68219589Y-83291411D01*
X68234847Y-83303933D01*
X68234849Y-83303935D01*
X68250539Y-83316811D01*
X68280497Y-83341397D01*
X68349986Y-83378540D01*
X68425386Y-83401412D01*
X68484153Y-83407200D01*
X68484163Y-83407200D01*
X68503799Y-83409134D01*
X68523435Y-83407200D01*
X68860982Y-83407200D01*
X68858636Y-83412863D01*
X68847359Y-83469556D01*
X68414315Y-83902600D01*
X66738068Y-83902600D01*
X66730268Y-83894800D01*
X66644281Y-83837345D01*
X66548737Y-83797770D01*
X66447308Y-83777594D01*
X66343892Y-83777594D01*
X66242463Y-83797770D01*
X66146919Y-83837345D01*
X66060932Y-83894800D01*
X66053138Y-83902594D01*
X65049891Y-83902594D01*
X66764485Y-82188000D01*
X66942138Y-82188000D01*
X66949932Y-82195794D01*
G37*
X66949932Y-82195794D02*
X67035919Y-82253249D01*
X67131463Y-82292824D01*
X67232892Y-82313000D01*
X67243915Y-82313000D01*
X68207067Y-83276153D01*
X68219589Y-83291411D01*
X68234847Y-83303933D01*
X68234849Y-83303935D01*
X68250539Y-83316811D01*
X68280497Y-83341397D01*
X68349986Y-83378540D01*
X68425386Y-83401412D01*
X68484153Y-83407200D01*
X68484163Y-83407200D01*
X68503799Y-83409134D01*
X68523435Y-83407200D01*
X68860982Y-83407200D01*
X68858636Y-83412863D01*
X68847359Y-83469556D01*
X68414315Y-83902600D01*
X66738068Y-83902600D01*
X66730268Y-83894800D01*
X66644281Y-83837345D01*
X66548737Y-83797770D01*
X66447308Y-83777594D01*
X66343892Y-83777594D01*
X66242463Y-83797770D01*
X66146919Y-83837345D01*
X66060932Y-83894800D01*
X66053138Y-83902594D01*
X65049891Y-83902594D01*
X66764485Y-82188000D01*
X66942138Y-82188000D01*
X66949932Y-82195794D01*
G36*
X76223700Y-82580585D02*
G01*
X76195532Y-82599406D01*
X76187738Y-82607200D01*
X68669486Y-82607200D01*
X67809600Y-81747315D01*
X67809600Y-81736292D01*
X67789424Y-81634863D01*
X67776557Y-81603800D01*
X75246915Y-81603800D01*
X76223700Y-82580585D01*
G37*
X76223700Y-82580585D02*
X76195532Y-82599406D01*
X76187738Y-82607200D01*
X68669486Y-82607200D01*
X67809600Y-81747315D01*
X67809600Y-81736292D01*
X67789424Y-81634863D01*
X67776557Y-81603800D01*
X75246915Y-81603800D01*
X76223700Y-82580585D01*
%TD*%
M02*
