M48
; DRILL file {KiCad (5.1.6)-1} date 10/29/25 08:33:31
; FORMAT={-:-/ absolute / inch / decimal}
; #@! TF.CreationDate,2025-10-29T08:33:31+05:30
; #@! TF.GenerationSoftware,Kicad,Pcbnew,(5.1.6)-1
FMAT,2
INCH
T1C0.0118
T2C0.0827
%
G90
G05
T1
X2.167Y-3.836
X2.169Y-3.512
X2.226Y-3.584
X2.226Y-3.777
X2.255Y-3.88
X2.264Y-3.514
X2.289Y-3.841
X2.298Y-3.522
X2.323Y-3.232
X2.332Y-4.114
X2.336Y-3.903
X2.3555Y-3.4046
X2.382Y-3.725
X2.393Y-3.364
X2.4163Y-3.798
X2.4177Y-3.839
X2.436Y-3.819
X2.4363Y-3.3433
X2.437Y-4.017
X2.458Y-3.554
X2.463Y-3.443
X2.465Y-3.923
X2.468Y-3.599
X2.484Y-3.772
X2.495Y-3.975
X2.502Y-4.094
X2.53Y-3.394
X2.532Y-3.474
X2.535Y-3.5312
X2.537Y-3.269
X2.5372Y-3.9995
X2.542Y-3.7625
X2.555Y-3.934
X2.5575Y-3.9659
X2.56Y-3.5315
X2.591Y-3.712
X2.591Y-3.597
X2.601Y-3.083
X2.601Y-3.292
X2.601Y-4.27
X2.6067Y-3.7993
X2.61Y-4.163
X2.614Y-3.319
X2.616Y-4.039
X2.617Y-3.405
X2.619Y-4.117
X2.632Y-3.494
X2.635Y-3.456
X2.6364Y-3.5289
X2.637Y-3.3573
X2.64Y-4.003
X2.648Y-3.839
X2.649Y-3.22
X2.661Y-3.901
X2.665Y-3.954
X2.709Y-3.406
X2.712Y-3.956
X2.7175Y-4.0225
X2.729Y-3.383
X2.7308Y-3.29
X2.7308Y-3.3364
X2.731Y-3.243
X2.737Y-4.1665
X2.752Y-3.8156
X2.755Y-3.94
X2.775Y-3.9
X2.796Y-3.814
X2.818Y-4.117
X2.82Y-3.383
X2.8207Y-3.289
X2.823Y-4.073
X2.8286Y-3.5479
X2.833Y-3.337
X2.8422Y-3.4681
X2.845Y-3.444
X2.846Y-4.013
X2.85Y-3.8141
X2.857Y-3.242
X2.8659Y-3.1288
X2.866Y-3.405
X2.876Y-3.443
X2.89Y-3.155
X2.8941Y-3.5099
X2.8975Y-3.5459
X2.8983Y-3.4867
X2.9127Y-4.0096
X2.9198Y-4.1492
X2.924Y-3.477
X2.924Y-4.277
X2.933Y-3.319
X2.937Y-3.083
X2.9462Y-3.9081
X2.956Y-3.4643
X2.971Y-3.302
X2.9806Y-3.5453
X2.982Y-3.9615
X2.989Y-3.399
X3.0Y-3.327
X3.0Y-4.13
X3.0061Y-3.8391
X3.009Y-3.9989
X3.013Y-3.268
X3.0253Y-3.8529
X3.0442Y-3.82
X3.057Y-4.065
X3.059Y-3.26
X3.061Y-3.418
X3.0809Y-3.5878
X3.084Y-3.773
X3.084Y-3.7976
X3.092Y-3.915
X3.0963Y-3.5686
X3.0982Y-4.0027
X3.1045Y-3.5911
X3.108Y-3.671
X3.11Y-3.344
X3.11Y-4.057
X3.1144Y-3.7113
X3.115Y-3.444
X3.148Y-3.483
X3.152Y-3.635
X3.1607Y-3.5369
X3.164Y-3.847
X3.168Y-3.368
X3.1768Y-3.6347
X3.1837Y-3.818
X3.1843Y-3.5358
X3.187Y-3.888
X3.203Y-3.871
X3.205Y-3.962
X3.2069Y-3.3963
X3.208Y-3.233
X3.211Y-3.817
X3.214Y-4.122
X3.223Y-3.547
X3.232Y-3.464
X3.258Y-3.849
X3.266Y-3.523
X3.287Y-3.849
X3.325Y-3.59
X3.326Y-3.751
X3.362Y-3.498
X3.374Y-3.878
T2
X2.092Y-3.3975
X2.4915Y-2.998
X3.0565Y-4.362
X3.456Y-3.9625
X2.092Y-3.9625
X3.456Y-3.3975
X2.4915Y-4.362
X3.0565Y-2.998
T0
M30
