%TF.GenerationSoftware,KiCad,Pcbnew,(5.1.6)-1*%
%TF.CreationDate,2025-11-02T22:07:18+05:30*%
%TF.ProjectId,Project_OAK_MAIN_BRD_V1.0,50726f6a-6563-4745-9f4f-414b5f4d4149,A*%
%TF.SameCoordinates,Original*%
%TF.FileFunction,Copper,L3,Inr*%
%TF.FilePolarity,Positive*%
%FSLAX46Y46*%
G04 Gerber Fmt 4.6, Leading zero omitted, Abs format (unit mm)*
G04 Created by KiCad (PCBNEW (5.1.6)-1) date 2025-11-02 22:07:18*
%MOMM*%
%LPD*%
G01*
G04 APERTURE LIST*
%TA.AperFunction,ViaPad*%
%ADD10C,0.450000*%
%TD*%
%TA.AperFunction,Conductor*%
%ADD11C,0.100000*%
%TD*%
G04 APERTURE END LIST*
D10*
%TO.N,+3V0*%
X56540400Y-95935800D03*
X71846893Y-90116966D03*
X84455000Y-91186000D03*
X84480400Y-95275400D03*
X80365600Y-97713800D03*
X81864200Y-90093800D03*
X61373990Y-96469200D03*
X71018400Y-96875600D03*
X72793898Y-79472696D03*
X66852800Y-88747600D03*
X65811402Y-91363800D03*
X65811396Y-94284800D03*
X56540400Y-91033600D03*
%TO.N,GND*%
X74599800Y-78308200D03*
X69363460Y-84744612D03*
X66929000Y-87782400D03*
X80881190Y-89809243D03*
X62687200Y-91414600D03*
X66979332Y-85274276D03*
X81483200Y-82118200D03*
X85394800Y-88849200D03*
X85699600Y-98501200D03*
X81635600Y-104698800D03*
X74269600Y-108635800D03*
X66065400Y-108458000D03*
X59232800Y-104495600D03*
X55041800Y-97434400D03*
X55092600Y-89204800D03*
X59004200Y-82092800D03*
X66065400Y-78308200D03*
X68884800Y-100482400D03*
X62611000Y-99644200D03*
X66522600Y-104571800D03*
X71577200Y-104571800D03*
X67589400Y-99085400D03*
X77647800Y-103251000D03*
X68808600Y-86512400D03*
X71958200Y-84759800D03*
X72796400Y-86487000D03*
X64262000Y-86207600D03*
X66065400Y-83616800D03*
X75463400Y-83870800D03*
X77749400Y-86817200D03*
X67056002Y-101676200D03*
X69024534Y-102171532D03*
X64312800Y-88239600D03*
X69367400Y-82372200D03*
X72567800Y-82346800D03*
X66471800Y-86487000D03*
X73050400Y-87452200D03*
X80865610Y-96977200D03*
X69900790Y-96915322D03*
X66963714Y-89633294D03*
X77698600Y-82804000D03*
X60782200Y-85445600D03*
X63093600Y-95808800D03*
X72288400Y-101930200D03*
X66209810Y-96502590D03*
X78943200Y-93243400D03*
X75743706Y-100621621D03*
X81559400Y-96951800D03*
X57277000Y-98552000D03*
X61874400Y-97002600D03*
X63373000Y-100965000D03*
X75920600Y-86334600D03*
X80467200Y-85547200D03*
X80949800Y-98755200D03*
X81356200Y-98323400D03*
X69875394Y-91846400D03*
X70459600Y-94513400D03*
X74828400Y-92456000D03*
X76885800Y-92456000D03*
X75844400Y-92456000D03*
X74828400Y-94538800D03*
X76885800Y-94538800D03*
X75844400Y-94538800D03*
X74828400Y-93497400D03*
X76885800Y-93497400D03*
X75844400Y-93497400D03*
%TO.N,/LGT_ON_BTN*%
X73597035Y-90066982D03*
%TO.N,/UP_BTN*%
X73616105Y-88561293D03*
%TO.N,/MCU_RSTn*%
X75706069Y-90050605D03*
X80281810Y-89836519D03*
%TO.N,/C1_T*%
X74498200Y-84302600D03*
X79121000Y-87477600D03*
X78536798Y-99441000D03*
X71645810Y-83540600D03*
X76428600Y-101571632D03*
X80060800Y-92329000D03*
%TO.N,/C2_T*%
X66446400Y-102590604D03*
X61409610Y-97510600D03*
%TO.N,/C3_T*%
X71628000Y-85928200D03*
X73406000Y-80137000D03*
%TO.N,/C4_T*%
X73981751Y-101843057D03*
X83489800Y-97764600D03*
%TO.N,/R1*%
X69519800Y-105829579D03*
X69363460Y-83566000D03*
X66294000Y-105740200D03*
X66395600Y-84302594D03*
%TO.N,/C6_T*%
X57505600Y-89255600D03*
X64960500Y-100735066D03*
%TO.N,/R2*%
X63550800Y-103987600D03*
X67284600Y-81788000D03*
X62560200Y-87452200D03*
X74162317Y-105390283D03*
X76530200Y-83007200D03*
X76200000Y-84505800D03*
X75082400Y-87993190D03*
%TO.N,/R3*%
X61899800Y-102031800D03*
X78994000Y-84937600D03*
X64439800Y-83032600D03*
X74269600Y-88315800D03*
X60502800Y-94615000D03*
X76200000Y-104902000D03*
X79959200Y-88468200D03*
%TO.N,/R4*%
X61881417Y-84919217D03*
X78994000Y-103047800D03*
X59334400Y-99136200D03*
X81454249Y-86266545D03*
X80689588Y-92322569D03*
%TO.N,/R5*%
X58140600Y-97561400D03*
X59829136Y-86477046D03*
X81407000Y-100634800D03*
X64444167Y-101587560D03*
X82956400Y-89484200D03*
%TO.N,/R6*%
X82753200Y-97764600D03*
X71704200Y-103454200D03*
X58369196Y-89458800D03*
X64897000Y-99923600D03*
X82092800Y-87985600D03*
%TO.N,/C6*%
X78645990Y-90643050D03*
X67691000Y-100431600D03*
%TO.N,/C5*%
X78255452Y-91131356D03*
X69977000Y-100075996D03*
%TO.N,/C4*%
X74832663Y-99266168D03*
X78854327Y-91212761D03*
%TO.N,/C3*%
X69316600Y-85928200D03*
X76842177Y-97864109D03*
%TO.N,/C2*%
X76354630Y-97514377D03*
X62433200Y-90271600D03*
%TO.N,/PE1*%
X67259200Y-97510600D03*
%TO.N,/ICSP_MOSI*%
X77321540Y-97028000D03*
%TO.N,/ICSP_MISO*%
X78333604Y-96459611D03*
%TO.N,/ICSP_SCK*%
X78333600Y-95834194D03*
%TO.N,/DWN_BTN*%
X78693721Y-101668610D03*
%TO.N,/RTC_INTO*%
X64566898Y-95568194D03*
X73510962Y-89152020D03*
%TO.N,/ACC_INT1*%
X64389865Y-89692543D03*
%TO.N,/ACC_INT2*%
X72390000Y-96877002D03*
X65023435Y-89699981D03*
%TO.N,/ACC_CS*%
X72263000Y-87477600D03*
%TO.N,/ACC_SDA0*%
X72190740Y-88090204D03*
%TO.N,/PE2*%
X79105443Y-94265792D03*
X70485000Y-99060000D03*
%TD*%
D11*
%TO.N,GND*%
G36*
X59753045Y-70752579D02*
G01*
X59794843Y-70765198D01*
X59833382Y-70785690D01*
X59867212Y-70813281D01*
X59895040Y-70846920D01*
X59915804Y-70885321D01*
X59928712Y-70927021D01*
X59934601Y-70983049D01*
X59934600Y-74558497D01*
X59933270Y-74572000D01*
X59938580Y-74625909D01*
X59954304Y-74677747D01*
X59979840Y-74725521D01*
X60014205Y-74767395D01*
X60056079Y-74801760D01*
X60103853Y-74827296D01*
X60155691Y-74843020D01*
X60209600Y-74848330D01*
X60223102Y-74847000D01*
X80696097Y-74847000D01*
X80709599Y-74848330D01*
X80763508Y-74843020D01*
X80815346Y-74827296D01*
X80863120Y-74801760D01*
X80904994Y-74767395D01*
X80939359Y-74725521D01*
X80964895Y-74677747D01*
X80980619Y-74625909D01*
X80984599Y-74585503D01*
X80984599Y-74585502D01*
X80985929Y-74572000D01*
X80984599Y-74558497D01*
X80984599Y-70985453D01*
X80990178Y-70928555D01*
X81002797Y-70886757D01*
X81023289Y-70848218D01*
X81050880Y-70814388D01*
X81084519Y-70786560D01*
X81122920Y-70765796D01*
X81164620Y-70752888D01*
X81220638Y-70747000D01*
X83789961Y-70747000D01*
X83943987Y-70762102D01*
X84079200Y-70802925D01*
X84203905Y-70869233D01*
X84313355Y-70958498D01*
X84403891Y-71067938D01*
X84473560Y-71195042D01*
X90220612Y-84439996D01*
X90490647Y-85253826D01*
X90576232Y-85722093D01*
X90892295Y-88724652D01*
X91056233Y-91742823D01*
X91067263Y-94765422D01*
X90925356Y-97784724D01*
X90630584Y-100795955D01*
X90577436Y-101213727D01*
X90391092Y-102050192D01*
X90222717Y-102499152D01*
X84473868Y-115748247D01*
X84398710Y-115883523D01*
X84307443Y-115991307D01*
X84196971Y-116079319D01*
X84071515Y-116144192D01*
X83935087Y-116183682D01*
X83790750Y-116197001D01*
X81223052Y-116196999D01*
X81166154Y-116191420D01*
X81124356Y-116178801D01*
X81085817Y-116158309D01*
X81051987Y-116130718D01*
X81024157Y-116097077D01*
X81003395Y-116058679D01*
X80990487Y-116016977D01*
X80984599Y-115960960D01*
X80984599Y-112385502D01*
X80985929Y-112371999D01*
X80980619Y-112318090D01*
X80964895Y-112266252D01*
X80939359Y-112218478D01*
X80904994Y-112176604D01*
X80863120Y-112142239D01*
X80815346Y-112116703D01*
X80763508Y-112100979D01*
X80723102Y-112096999D01*
X80723101Y-112096999D01*
X80709599Y-112095669D01*
X80696096Y-112096999D01*
X60223103Y-112096999D01*
X60209600Y-112095669D01*
X60196098Y-112096999D01*
X60196097Y-112096999D01*
X60155691Y-112100979D01*
X60103853Y-112116703D01*
X60056079Y-112142239D01*
X60014205Y-112176604D01*
X59979840Y-112218478D01*
X59954304Y-112266252D01*
X59938580Y-112318090D01*
X59933270Y-112371999D01*
X59934601Y-112385512D01*
X59934600Y-115958546D01*
X59929021Y-116015444D01*
X59916402Y-116057242D01*
X59895910Y-116095781D01*
X59868319Y-116129611D01*
X59834678Y-116157441D01*
X59796280Y-116178203D01*
X59754578Y-116191111D01*
X59698561Y-116196999D01*
X57129229Y-116196999D01*
X56975210Y-116181897D01*
X56840003Y-116141076D01*
X56715296Y-116074768D01*
X56605844Y-115985502D01*
X56515309Y-115876064D01*
X56445648Y-115748972D01*
X54240425Y-110666702D01*
X61984286Y-110666702D01*
X61984286Y-110922780D01*
X62034244Y-111173937D01*
X62132241Y-111410522D01*
X62274510Y-111623443D01*
X62455584Y-111804517D01*
X62668505Y-111946786D01*
X62905090Y-112044783D01*
X63156247Y-112094741D01*
X63412325Y-112094741D01*
X63663482Y-112044783D01*
X63900067Y-111946786D01*
X64112988Y-111804517D01*
X64294062Y-111623443D01*
X64436331Y-111410522D01*
X64534328Y-111173937D01*
X64584286Y-110922780D01*
X64584286Y-110666702D01*
X76334914Y-110666702D01*
X76334914Y-110922780D01*
X76384872Y-111173937D01*
X76482869Y-111410522D01*
X76625138Y-111623443D01*
X76806212Y-111804517D01*
X77019133Y-111946786D01*
X77255718Y-112044783D01*
X77506875Y-112094741D01*
X77762953Y-112094741D01*
X78014110Y-112044783D01*
X78250695Y-111946786D01*
X78463616Y-111804517D01*
X78644690Y-111623443D01*
X78786959Y-111410522D01*
X78884956Y-111173937D01*
X78934914Y-110922780D01*
X78934914Y-110666702D01*
X78884956Y-110415545D01*
X78786959Y-110178960D01*
X78644690Y-109966039D01*
X78463616Y-109784965D01*
X78250695Y-109642696D01*
X78014110Y-109544699D01*
X77762953Y-109494741D01*
X77506875Y-109494741D01*
X77255718Y-109544699D01*
X77019133Y-109642696D01*
X76806212Y-109784965D01*
X76625138Y-109966039D01*
X76482869Y-110178960D01*
X76384872Y-110415545D01*
X76334914Y-110666702D01*
X64584286Y-110666702D01*
X64534328Y-110415545D01*
X64436331Y-110178960D01*
X64294062Y-109966039D01*
X64112988Y-109784965D01*
X63900067Y-109642696D01*
X63663482Y-109544699D01*
X63412325Y-109494741D01*
X63156247Y-109494741D01*
X62905090Y-109544699D01*
X62668505Y-109642696D01*
X62455584Y-109784965D01*
X62274510Y-109966039D01*
X62132241Y-110178960D01*
X62034244Y-110415545D01*
X61984286Y-110666702D01*
X54240425Y-110666702D01*
X52082492Y-105693417D01*
X65819000Y-105693417D01*
X65819000Y-105786983D01*
X65837254Y-105878752D01*
X65873061Y-105965197D01*
X65925044Y-106042995D01*
X65991205Y-106109156D01*
X66069003Y-106161139D01*
X66155448Y-106196946D01*
X66247217Y-106215200D01*
X66340783Y-106215200D01*
X66432552Y-106196946D01*
X66518997Y-106161139D01*
X66596795Y-106109156D01*
X66662956Y-106042995D01*
X66714939Y-105965197D01*
X66750746Y-105878752D01*
X66769000Y-105786983D01*
X66769000Y-105782796D01*
X69044800Y-105782796D01*
X69044800Y-105876362D01*
X69063054Y-105968131D01*
X69098861Y-106054576D01*
X69150844Y-106132374D01*
X69217005Y-106198535D01*
X69294803Y-106250518D01*
X69381248Y-106286325D01*
X69473017Y-106304579D01*
X69566583Y-106304579D01*
X69658352Y-106286325D01*
X69744797Y-106250518D01*
X69822595Y-106198535D01*
X69888756Y-106132374D01*
X69940739Y-106054576D01*
X69976546Y-105968131D01*
X69994800Y-105876362D01*
X69994800Y-105782796D01*
X69976546Y-105691027D01*
X69940739Y-105604582D01*
X69888756Y-105526784D01*
X69822595Y-105460623D01*
X69744797Y-105408640D01*
X69658352Y-105372833D01*
X69566583Y-105354579D01*
X69473017Y-105354579D01*
X69381248Y-105372833D01*
X69294803Y-105408640D01*
X69217005Y-105460623D01*
X69150844Y-105526784D01*
X69098861Y-105604582D01*
X69063054Y-105691027D01*
X69044800Y-105782796D01*
X66769000Y-105782796D01*
X66769000Y-105693417D01*
X66750746Y-105601648D01*
X66714939Y-105515203D01*
X66662956Y-105437405D01*
X66596795Y-105371244D01*
X66555274Y-105343500D01*
X73687317Y-105343500D01*
X73687317Y-105437066D01*
X73705571Y-105528835D01*
X73741378Y-105615280D01*
X73793361Y-105693078D01*
X73859522Y-105759239D01*
X73937320Y-105811222D01*
X74023765Y-105847029D01*
X74115534Y-105865283D01*
X74209100Y-105865283D01*
X74300869Y-105847029D01*
X74387314Y-105811222D01*
X74465112Y-105759239D01*
X74531273Y-105693078D01*
X74583256Y-105615280D01*
X74619063Y-105528835D01*
X74637317Y-105437066D01*
X74637317Y-105343500D01*
X74619063Y-105251731D01*
X74583256Y-105165286D01*
X74531273Y-105087488D01*
X74465112Y-105021327D01*
X74387314Y-104969344D01*
X74300869Y-104933537D01*
X74209100Y-104915283D01*
X74115534Y-104915283D01*
X74023765Y-104933537D01*
X73937320Y-104969344D01*
X73859522Y-105021327D01*
X73793361Y-105087488D01*
X73741378Y-105165286D01*
X73705571Y-105251731D01*
X73687317Y-105343500D01*
X66555274Y-105343500D01*
X66518997Y-105319261D01*
X66432552Y-105283454D01*
X66340783Y-105265200D01*
X66247217Y-105265200D01*
X66155448Y-105283454D01*
X66069003Y-105319261D01*
X65991205Y-105371244D01*
X65925044Y-105437405D01*
X65873061Y-105515203D01*
X65837254Y-105601648D01*
X65819000Y-105693417D01*
X52082492Y-105693417D01*
X51718793Y-104855217D01*
X75725000Y-104855217D01*
X75725000Y-104948783D01*
X75743254Y-105040552D01*
X75779061Y-105126997D01*
X75831044Y-105204795D01*
X75897205Y-105270956D01*
X75975003Y-105322939D01*
X76061448Y-105358746D01*
X76153217Y-105377000D01*
X76246783Y-105377000D01*
X76338552Y-105358746D01*
X76424997Y-105322939D01*
X76502795Y-105270956D01*
X76568956Y-105204795D01*
X76620939Y-105126997D01*
X76656746Y-105040552D01*
X76675000Y-104948783D01*
X76675000Y-104855217D01*
X76656746Y-104763448D01*
X76620939Y-104677003D01*
X76568956Y-104599205D01*
X76502795Y-104533044D01*
X76424997Y-104481061D01*
X76338552Y-104445254D01*
X76246783Y-104427000D01*
X76153217Y-104427000D01*
X76061448Y-104445254D01*
X75975003Y-104481061D01*
X75897205Y-104533044D01*
X75831044Y-104599205D01*
X75779061Y-104677003D01*
X75743254Y-104763448D01*
X75725000Y-104855217D01*
X51718793Y-104855217D01*
X51322029Y-103940817D01*
X63075800Y-103940817D01*
X63075800Y-104034383D01*
X63094054Y-104126152D01*
X63129861Y-104212597D01*
X63181844Y-104290395D01*
X63248005Y-104356556D01*
X63325803Y-104408539D01*
X63412248Y-104444346D01*
X63504017Y-104462600D01*
X63597583Y-104462600D01*
X63689352Y-104444346D01*
X63775797Y-104408539D01*
X63853595Y-104356556D01*
X63919756Y-104290395D01*
X63971739Y-104212597D01*
X64007546Y-104126152D01*
X64025800Y-104034383D01*
X64025800Y-103940817D01*
X64007546Y-103849048D01*
X63971739Y-103762603D01*
X63919756Y-103684805D01*
X63853595Y-103618644D01*
X63775797Y-103566661D01*
X63689352Y-103530854D01*
X63597583Y-103512600D01*
X63504017Y-103512600D01*
X63412248Y-103530854D01*
X63325803Y-103566661D01*
X63248005Y-103618644D01*
X63181844Y-103684805D01*
X63129861Y-103762603D01*
X63094054Y-103849048D01*
X63075800Y-103940817D01*
X51322029Y-103940817D01*
X51090584Y-103407417D01*
X71229200Y-103407417D01*
X71229200Y-103500983D01*
X71247454Y-103592752D01*
X71283261Y-103679197D01*
X71335244Y-103756995D01*
X71401405Y-103823156D01*
X71479203Y-103875139D01*
X71565648Y-103910946D01*
X71657417Y-103929200D01*
X71750983Y-103929200D01*
X71842752Y-103910946D01*
X71929197Y-103875139D01*
X72006995Y-103823156D01*
X72073156Y-103756995D01*
X72125139Y-103679197D01*
X72160946Y-103592752D01*
X72179200Y-103500983D01*
X72179200Y-103407417D01*
X72160946Y-103315648D01*
X72125139Y-103229203D01*
X72073156Y-103151405D01*
X72006995Y-103085244D01*
X71929197Y-103033261D01*
X71851354Y-103001017D01*
X78519000Y-103001017D01*
X78519000Y-103094583D01*
X78537254Y-103186352D01*
X78573061Y-103272797D01*
X78625044Y-103350595D01*
X78691205Y-103416756D01*
X78769003Y-103468739D01*
X78855448Y-103504546D01*
X78947217Y-103522800D01*
X79040783Y-103522800D01*
X79132552Y-103504546D01*
X79218997Y-103468739D01*
X79296795Y-103416756D01*
X79362956Y-103350595D01*
X79414939Y-103272797D01*
X79450746Y-103186352D01*
X79469000Y-103094583D01*
X79469000Y-103001017D01*
X79450746Y-102909248D01*
X79414939Y-102822803D01*
X79362956Y-102745005D01*
X79296795Y-102678844D01*
X79218997Y-102626861D01*
X79132552Y-102591054D01*
X79040783Y-102572800D01*
X78947217Y-102572800D01*
X78855448Y-102591054D01*
X78769003Y-102626861D01*
X78691205Y-102678844D01*
X78625044Y-102745005D01*
X78573061Y-102822803D01*
X78537254Y-102909248D01*
X78519000Y-103001017D01*
X71851354Y-103001017D01*
X71842752Y-102997454D01*
X71750983Y-102979200D01*
X71657417Y-102979200D01*
X71565648Y-102997454D01*
X71479203Y-103033261D01*
X71401405Y-103085244D01*
X71335244Y-103151405D01*
X71283261Y-103229203D01*
X71247454Y-103315648D01*
X71229200Y-103407417D01*
X51090584Y-103407417D01*
X50715865Y-102543821D01*
X65971400Y-102543821D01*
X65971400Y-102637387D01*
X65989654Y-102729156D01*
X66025461Y-102815601D01*
X66077444Y-102893399D01*
X66143605Y-102959560D01*
X66221403Y-103011543D01*
X66307848Y-103047350D01*
X66399617Y-103065604D01*
X66493183Y-103065604D01*
X66584952Y-103047350D01*
X66671397Y-103011543D01*
X66749195Y-102959560D01*
X66815356Y-102893399D01*
X66867339Y-102815601D01*
X66903146Y-102729156D01*
X66921400Y-102637387D01*
X66921400Y-102543821D01*
X66903146Y-102452052D01*
X66867339Y-102365607D01*
X66815356Y-102287809D01*
X66749195Y-102221648D01*
X66671397Y-102169665D01*
X66584952Y-102133858D01*
X66493183Y-102115604D01*
X66399617Y-102115604D01*
X66307848Y-102133858D01*
X66221403Y-102169665D01*
X66143605Y-102221648D01*
X66077444Y-102287809D01*
X66025461Y-102365607D01*
X65989654Y-102452052D01*
X65971400Y-102543821D01*
X50715865Y-102543821D01*
X50698593Y-102504017D01*
X50526385Y-101985017D01*
X61424800Y-101985017D01*
X61424800Y-102078583D01*
X61443054Y-102170352D01*
X61478861Y-102256797D01*
X61530844Y-102334595D01*
X61597005Y-102400756D01*
X61674803Y-102452739D01*
X61761248Y-102488546D01*
X61853017Y-102506800D01*
X61946583Y-102506800D01*
X62038352Y-102488546D01*
X62124797Y-102452739D01*
X62202595Y-102400756D01*
X62268756Y-102334595D01*
X62320739Y-102256797D01*
X62356546Y-102170352D01*
X62374800Y-102078583D01*
X62374800Y-101985017D01*
X62356546Y-101893248D01*
X62320739Y-101806803D01*
X62268756Y-101729005D01*
X62202595Y-101662844D01*
X62124797Y-101610861D01*
X62038352Y-101575054D01*
X61946583Y-101556800D01*
X61853017Y-101556800D01*
X61761248Y-101575054D01*
X61674803Y-101610861D01*
X61597005Y-101662844D01*
X61530844Y-101729005D01*
X61478861Y-101806803D01*
X61443054Y-101893248D01*
X61424800Y-101985017D01*
X50526385Y-101985017D01*
X50428553Y-101690174D01*
X50342967Y-101221906D01*
X50269006Y-100519275D01*
X51836859Y-100519275D01*
X51836859Y-100775353D01*
X51886817Y-101026510D01*
X51984814Y-101263095D01*
X52127083Y-101476016D01*
X52308157Y-101657090D01*
X52521078Y-101799359D01*
X52757663Y-101897356D01*
X53008820Y-101947314D01*
X53264898Y-101947314D01*
X53516055Y-101897356D01*
X53752640Y-101799359D01*
X53965561Y-101657090D01*
X54081874Y-101540777D01*
X63969167Y-101540777D01*
X63969167Y-101634343D01*
X63987421Y-101726112D01*
X64023228Y-101812557D01*
X64075211Y-101890355D01*
X64141372Y-101956516D01*
X64219170Y-102008499D01*
X64305615Y-102044306D01*
X64397384Y-102062560D01*
X64490950Y-102062560D01*
X64582719Y-102044306D01*
X64669164Y-102008499D01*
X64746962Y-101956516D01*
X64813123Y-101890355D01*
X64865106Y-101812557D01*
X64871850Y-101796274D01*
X73506751Y-101796274D01*
X73506751Y-101889840D01*
X73525005Y-101981609D01*
X73560812Y-102068054D01*
X73612795Y-102145852D01*
X73678956Y-102212013D01*
X73756754Y-102263996D01*
X73843199Y-102299803D01*
X73934968Y-102318057D01*
X74028534Y-102318057D01*
X74120303Y-102299803D01*
X74206748Y-102263996D01*
X74284546Y-102212013D01*
X74350707Y-102145852D01*
X74402690Y-102068054D01*
X74438497Y-101981609D01*
X74456751Y-101889840D01*
X74456751Y-101796274D01*
X74438497Y-101704505D01*
X74402690Y-101618060D01*
X74350707Y-101540262D01*
X74335294Y-101524849D01*
X75953600Y-101524849D01*
X75953600Y-101618415D01*
X75971854Y-101710184D01*
X76007661Y-101796629D01*
X76059644Y-101874427D01*
X76125805Y-101940588D01*
X76203603Y-101992571D01*
X76290048Y-102028378D01*
X76381817Y-102046632D01*
X76475383Y-102046632D01*
X76567152Y-102028378D01*
X76653597Y-101992571D01*
X76731395Y-101940588D01*
X76797556Y-101874427D01*
X76849539Y-101796629D01*
X76885346Y-101710184D01*
X76902921Y-101621827D01*
X78218721Y-101621827D01*
X78218721Y-101715393D01*
X78236975Y-101807162D01*
X78272782Y-101893607D01*
X78324765Y-101971405D01*
X78390926Y-102037566D01*
X78468724Y-102089549D01*
X78555169Y-102125356D01*
X78646938Y-102143610D01*
X78740504Y-102143610D01*
X78832273Y-102125356D01*
X78918718Y-102089549D01*
X78996516Y-102037566D01*
X79062677Y-101971405D01*
X79114660Y-101893607D01*
X79150467Y-101807162D01*
X79168721Y-101715393D01*
X79168721Y-101621827D01*
X79150467Y-101530058D01*
X79114660Y-101443613D01*
X79062677Y-101365815D01*
X78996516Y-101299654D01*
X78918718Y-101247671D01*
X78832273Y-101211864D01*
X78740504Y-101193610D01*
X78646938Y-101193610D01*
X78555169Y-101211864D01*
X78468724Y-101247671D01*
X78390926Y-101299654D01*
X78324765Y-101365815D01*
X78272782Y-101443613D01*
X78236975Y-101530058D01*
X78218721Y-101621827D01*
X76902921Y-101621827D01*
X76903600Y-101618415D01*
X76903600Y-101524849D01*
X76885346Y-101433080D01*
X76849539Y-101346635D01*
X76797556Y-101268837D01*
X76731395Y-101202676D01*
X76653597Y-101150693D01*
X76567152Y-101114886D01*
X76475383Y-101096632D01*
X76381817Y-101096632D01*
X76290048Y-101114886D01*
X76203603Y-101150693D01*
X76125805Y-101202676D01*
X76059644Y-101268837D01*
X76007661Y-101346635D01*
X75971854Y-101433080D01*
X75953600Y-101524849D01*
X74335294Y-101524849D01*
X74284546Y-101474101D01*
X74206748Y-101422118D01*
X74120303Y-101386311D01*
X74028534Y-101368057D01*
X73934968Y-101368057D01*
X73843199Y-101386311D01*
X73756754Y-101422118D01*
X73678956Y-101474101D01*
X73612795Y-101540262D01*
X73560812Y-101618060D01*
X73525005Y-101704505D01*
X73506751Y-101796274D01*
X64871850Y-101796274D01*
X64900913Y-101726112D01*
X64919167Y-101634343D01*
X64919167Y-101540777D01*
X64900913Y-101449008D01*
X64865106Y-101362563D01*
X64813123Y-101284765D01*
X64746962Y-101218604D01*
X64669164Y-101166621D01*
X64582719Y-101130814D01*
X64490950Y-101112560D01*
X64397384Y-101112560D01*
X64305615Y-101130814D01*
X64219170Y-101166621D01*
X64141372Y-101218604D01*
X64075211Y-101284765D01*
X64023228Y-101362563D01*
X63987421Y-101449008D01*
X63969167Y-101540777D01*
X54081874Y-101540777D01*
X54146635Y-101476016D01*
X54288904Y-101263095D01*
X54386901Y-101026510D01*
X54436859Y-100775353D01*
X54436859Y-100519275D01*
X54386901Y-100268118D01*
X54288904Y-100031533D01*
X54185527Y-99876817D01*
X64422000Y-99876817D01*
X64422000Y-99970383D01*
X64440254Y-100062152D01*
X64476061Y-100148597D01*
X64528044Y-100226395D01*
X64594205Y-100292556D01*
X64672003Y-100344539D01*
X64683106Y-100349138D01*
X64657705Y-100366110D01*
X64591544Y-100432271D01*
X64539561Y-100510069D01*
X64503754Y-100596514D01*
X64485500Y-100688283D01*
X64485500Y-100781849D01*
X64503754Y-100873618D01*
X64539561Y-100960063D01*
X64591544Y-101037861D01*
X64657705Y-101104022D01*
X64735503Y-101156005D01*
X64821948Y-101191812D01*
X64913717Y-101210066D01*
X65007283Y-101210066D01*
X65099052Y-101191812D01*
X65185497Y-101156005D01*
X65263295Y-101104022D01*
X65329456Y-101037861D01*
X65381439Y-100960063D01*
X65417246Y-100873618D01*
X65435500Y-100781849D01*
X65435500Y-100688283D01*
X65417246Y-100596514D01*
X65381439Y-100510069D01*
X65329456Y-100432271D01*
X65282002Y-100384817D01*
X67216000Y-100384817D01*
X67216000Y-100478383D01*
X67234254Y-100570152D01*
X67270061Y-100656597D01*
X67322044Y-100734395D01*
X67388205Y-100800556D01*
X67466003Y-100852539D01*
X67552448Y-100888346D01*
X67644217Y-100906600D01*
X67737783Y-100906600D01*
X67829552Y-100888346D01*
X67915997Y-100852539D01*
X67993795Y-100800556D01*
X68059956Y-100734395D01*
X68111939Y-100656597D01*
X68140346Y-100588017D01*
X80932000Y-100588017D01*
X80932000Y-100681583D01*
X80950254Y-100773352D01*
X80986061Y-100859797D01*
X81038044Y-100937595D01*
X81104205Y-101003756D01*
X81182003Y-101055739D01*
X81268448Y-101091546D01*
X81360217Y-101109800D01*
X81453783Y-101109800D01*
X81545552Y-101091546D01*
X81631997Y-101055739D01*
X81709795Y-101003756D01*
X81775956Y-100937595D01*
X81827939Y-100859797D01*
X81863746Y-100773352D01*
X81882000Y-100681583D01*
X81882000Y-100588017D01*
X81868327Y-100519275D01*
X86482341Y-100519275D01*
X86482341Y-100775353D01*
X86532299Y-101026510D01*
X86630296Y-101263095D01*
X86772565Y-101476016D01*
X86953639Y-101657090D01*
X87166560Y-101799359D01*
X87403145Y-101897356D01*
X87654302Y-101947314D01*
X87910380Y-101947314D01*
X88161537Y-101897356D01*
X88398122Y-101799359D01*
X88611043Y-101657090D01*
X88792117Y-101476016D01*
X88934386Y-101263095D01*
X89032383Y-101026510D01*
X89082341Y-100775353D01*
X89082341Y-100519275D01*
X89032383Y-100268118D01*
X88934386Y-100031533D01*
X88792117Y-99818612D01*
X88611043Y-99637538D01*
X88398122Y-99495269D01*
X88161537Y-99397272D01*
X87910380Y-99347314D01*
X87654302Y-99347314D01*
X87403145Y-99397272D01*
X87166560Y-99495269D01*
X86953639Y-99637538D01*
X86772565Y-99818612D01*
X86630296Y-100031533D01*
X86532299Y-100268118D01*
X86482341Y-100519275D01*
X81868327Y-100519275D01*
X81863746Y-100496248D01*
X81827939Y-100409803D01*
X81775956Y-100332005D01*
X81709795Y-100265844D01*
X81631997Y-100213861D01*
X81545552Y-100178054D01*
X81453783Y-100159800D01*
X81360217Y-100159800D01*
X81268448Y-100178054D01*
X81182003Y-100213861D01*
X81104205Y-100265844D01*
X81038044Y-100332005D01*
X80986061Y-100409803D01*
X80950254Y-100496248D01*
X80932000Y-100588017D01*
X68140346Y-100588017D01*
X68147746Y-100570152D01*
X68166000Y-100478383D01*
X68166000Y-100384817D01*
X68147746Y-100293048D01*
X68111939Y-100206603D01*
X68059956Y-100128805D01*
X67993795Y-100062644D01*
X67943763Y-100029213D01*
X69502000Y-100029213D01*
X69502000Y-100122779D01*
X69520254Y-100214548D01*
X69556061Y-100300993D01*
X69608044Y-100378791D01*
X69674205Y-100444952D01*
X69752003Y-100496935D01*
X69838448Y-100532742D01*
X69930217Y-100550996D01*
X70023783Y-100550996D01*
X70115552Y-100532742D01*
X70201997Y-100496935D01*
X70279795Y-100444952D01*
X70345956Y-100378791D01*
X70397939Y-100300993D01*
X70433746Y-100214548D01*
X70452000Y-100122779D01*
X70452000Y-100029213D01*
X70433746Y-99937444D01*
X70397939Y-99850999D01*
X70345956Y-99773201D01*
X70279795Y-99707040D01*
X70201997Y-99655057D01*
X70115552Y-99619250D01*
X70023783Y-99600996D01*
X69930217Y-99600996D01*
X69838448Y-99619250D01*
X69752003Y-99655057D01*
X69674205Y-99707040D01*
X69608044Y-99773201D01*
X69556061Y-99850999D01*
X69520254Y-99937444D01*
X69502000Y-100029213D01*
X67943763Y-100029213D01*
X67915997Y-100010661D01*
X67829552Y-99974854D01*
X67737783Y-99956600D01*
X67644217Y-99956600D01*
X67552448Y-99974854D01*
X67466003Y-100010661D01*
X67388205Y-100062644D01*
X67322044Y-100128805D01*
X67270061Y-100206603D01*
X67234254Y-100293048D01*
X67216000Y-100384817D01*
X65282002Y-100384817D01*
X65263295Y-100366110D01*
X65185497Y-100314127D01*
X65174394Y-100309528D01*
X65199795Y-100292556D01*
X65265956Y-100226395D01*
X65317939Y-100148597D01*
X65353746Y-100062152D01*
X65372000Y-99970383D01*
X65372000Y-99876817D01*
X65353746Y-99785048D01*
X65317939Y-99698603D01*
X65265956Y-99620805D01*
X65199795Y-99554644D01*
X65121997Y-99502661D01*
X65035552Y-99466854D01*
X64943783Y-99448600D01*
X64850217Y-99448600D01*
X64758448Y-99466854D01*
X64672003Y-99502661D01*
X64594205Y-99554644D01*
X64528044Y-99620805D01*
X64476061Y-99698603D01*
X64440254Y-99785048D01*
X64422000Y-99876817D01*
X54185527Y-99876817D01*
X54146635Y-99818612D01*
X53965561Y-99637538D01*
X53752640Y-99495269D01*
X53516055Y-99397272D01*
X53264898Y-99347314D01*
X53008820Y-99347314D01*
X52757663Y-99397272D01*
X52521078Y-99495269D01*
X52308157Y-99637538D01*
X52127083Y-99818612D01*
X51984814Y-100031533D01*
X51886817Y-100268118D01*
X51836859Y-100519275D01*
X50269006Y-100519275D01*
X50118493Y-99089417D01*
X58859400Y-99089417D01*
X58859400Y-99182983D01*
X58877654Y-99274752D01*
X58913461Y-99361197D01*
X58965444Y-99438995D01*
X59031605Y-99505156D01*
X59109403Y-99557139D01*
X59195848Y-99592946D01*
X59287617Y-99611200D01*
X59381183Y-99611200D01*
X59472952Y-99592946D01*
X59559397Y-99557139D01*
X59637195Y-99505156D01*
X59703356Y-99438995D01*
X59755339Y-99361197D01*
X59791146Y-99274752D01*
X59809400Y-99182983D01*
X59809400Y-99089417D01*
X59794243Y-99013217D01*
X70010000Y-99013217D01*
X70010000Y-99106783D01*
X70028254Y-99198552D01*
X70064061Y-99284997D01*
X70116044Y-99362795D01*
X70182205Y-99428956D01*
X70260003Y-99480939D01*
X70346448Y-99516746D01*
X70438217Y-99535000D01*
X70531783Y-99535000D01*
X70623552Y-99516746D01*
X70709997Y-99480939D01*
X70787795Y-99428956D01*
X70853956Y-99362795D01*
X70905939Y-99284997D01*
X70933116Y-99219385D01*
X74357663Y-99219385D01*
X74357663Y-99312951D01*
X74375917Y-99404720D01*
X74411724Y-99491165D01*
X74463707Y-99568963D01*
X74529868Y-99635124D01*
X74607666Y-99687107D01*
X74694111Y-99722914D01*
X74785880Y-99741168D01*
X74879446Y-99741168D01*
X74971215Y-99722914D01*
X75057660Y-99687107D01*
X75135458Y-99635124D01*
X75201619Y-99568963D01*
X75253602Y-99491165D01*
X75289409Y-99404720D01*
X75291498Y-99394217D01*
X78061798Y-99394217D01*
X78061798Y-99487783D01*
X78080052Y-99579552D01*
X78115859Y-99665997D01*
X78167842Y-99743795D01*
X78234003Y-99809956D01*
X78311801Y-99861939D01*
X78398246Y-99897746D01*
X78490015Y-99916000D01*
X78583581Y-99916000D01*
X78675350Y-99897746D01*
X78761795Y-99861939D01*
X78839593Y-99809956D01*
X78905754Y-99743795D01*
X78957737Y-99665997D01*
X78993544Y-99579552D01*
X79011798Y-99487783D01*
X79011798Y-99394217D01*
X78993544Y-99302448D01*
X78957737Y-99216003D01*
X78905754Y-99138205D01*
X78839593Y-99072044D01*
X78761795Y-99020061D01*
X78675350Y-98984254D01*
X78583581Y-98966000D01*
X78490015Y-98966000D01*
X78398246Y-98984254D01*
X78311801Y-99020061D01*
X78234003Y-99072044D01*
X78167842Y-99138205D01*
X78115859Y-99216003D01*
X78080052Y-99302448D01*
X78061798Y-99394217D01*
X75291498Y-99394217D01*
X75307663Y-99312951D01*
X75307663Y-99219385D01*
X75289409Y-99127616D01*
X75253602Y-99041171D01*
X75201619Y-98963373D01*
X75135458Y-98897212D01*
X75057660Y-98845229D01*
X74971215Y-98809422D01*
X74879446Y-98791168D01*
X74785880Y-98791168D01*
X74694111Y-98809422D01*
X74607666Y-98845229D01*
X74529868Y-98897212D01*
X74463707Y-98963373D01*
X74411724Y-99041171D01*
X74375917Y-99127616D01*
X74357663Y-99219385D01*
X70933116Y-99219385D01*
X70941746Y-99198552D01*
X70960000Y-99106783D01*
X70960000Y-99013217D01*
X70941746Y-98921448D01*
X70905939Y-98835003D01*
X70853956Y-98757205D01*
X70787795Y-98691044D01*
X70709997Y-98639061D01*
X70623552Y-98603254D01*
X70531783Y-98585000D01*
X70438217Y-98585000D01*
X70346448Y-98603254D01*
X70260003Y-98639061D01*
X70182205Y-98691044D01*
X70116044Y-98757205D01*
X70064061Y-98835003D01*
X70028254Y-98921448D01*
X70010000Y-99013217D01*
X59794243Y-99013217D01*
X59791146Y-98997648D01*
X59755339Y-98911203D01*
X59703356Y-98833405D01*
X59637195Y-98767244D01*
X59559397Y-98715261D01*
X59472952Y-98679454D01*
X59381183Y-98661200D01*
X59287617Y-98661200D01*
X59195848Y-98679454D01*
X59109403Y-98715261D01*
X59031605Y-98767244D01*
X58965444Y-98833405D01*
X58913461Y-98911203D01*
X58877654Y-98997648D01*
X58859400Y-99089417D01*
X50118493Y-99089417D01*
X50026905Y-98219348D01*
X49988627Y-97514617D01*
X57665600Y-97514617D01*
X57665600Y-97608183D01*
X57683854Y-97699952D01*
X57719661Y-97786397D01*
X57771644Y-97864195D01*
X57837805Y-97930356D01*
X57915603Y-97982339D01*
X58002048Y-98018146D01*
X58093817Y-98036400D01*
X58187383Y-98036400D01*
X58279152Y-98018146D01*
X58365597Y-97982339D01*
X58443395Y-97930356D01*
X58509556Y-97864195D01*
X58561539Y-97786397D01*
X58597346Y-97699952D01*
X58615600Y-97608183D01*
X58615600Y-97514617D01*
X58605496Y-97463817D01*
X60934610Y-97463817D01*
X60934610Y-97557383D01*
X60952864Y-97649152D01*
X60988671Y-97735597D01*
X61040654Y-97813395D01*
X61106815Y-97879556D01*
X61184613Y-97931539D01*
X61271058Y-97967346D01*
X61362827Y-97985600D01*
X61456393Y-97985600D01*
X61548162Y-97967346D01*
X61634607Y-97931539D01*
X61712405Y-97879556D01*
X61778566Y-97813395D01*
X61830549Y-97735597D01*
X61866356Y-97649152D01*
X61884610Y-97557383D01*
X61884610Y-97463817D01*
X66784200Y-97463817D01*
X66784200Y-97557383D01*
X66802454Y-97649152D01*
X66838261Y-97735597D01*
X66890244Y-97813395D01*
X66956405Y-97879556D01*
X67034203Y-97931539D01*
X67120648Y-97967346D01*
X67212417Y-97985600D01*
X67305983Y-97985600D01*
X67397752Y-97967346D01*
X67484197Y-97931539D01*
X67561995Y-97879556D01*
X67628156Y-97813395D01*
X67680139Y-97735597D01*
X67715946Y-97649152D01*
X67734200Y-97557383D01*
X67734200Y-97467594D01*
X75879630Y-97467594D01*
X75879630Y-97561160D01*
X75897884Y-97652929D01*
X75933691Y-97739374D01*
X75985674Y-97817172D01*
X76051835Y-97883333D01*
X76129633Y-97935316D01*
X76216078Y-97971123D01*
X76307847Y-97989377D01*
X76382789Y-97989377D01*
X76385431Y-98002661D01*
X76421238Y-98089106D01*
X76473221Y-98166904D01*
X76539382Y-98233065D01*
X76617180Y-98285048D01*
X76703625Y-98320855D01*
X76795394Y-98339109D01*
X76888960Y-98339109D01*
X76980729Y-98320855D01*
X77067174Y-98285048D01*
X77144972Y-98233065D01*
X77211133Y-98166904D01*
X77263116Y-98089106D01*
X77298923Y-98002661D01*
X77317177Y-97910892D01*
X77317177Y-97817326D01*
X77298923Y-97725557D01*
X77274675Y-97667017D01*
X79890600Y-97667017D01*
X79890600Y-97760583D01*
X79908854Y-97852352D01*
X79944661Y-97938797D01*
X79996644Y-98016595D01*
X80062805Y-98082756D01*
X80140603Y-98134739D01*
X80227048Y-98170546D01*
X80318817Y-98188800D01*
X80412383Y-98188800D01*
X80504152Y-98170546D01*
X80590597Y-98134739D01*
X80668395Y-98082756D01*
X80734556Y-98016595D01*
X80786539Y-97938797D01*
X80822346Y-97852352D01*
X80840600Y-97760583D01*
X80840600Y-97717817D01*
X82278200Y-97717817D01*
X82278200Y-97811383D01*
X82296454Y-97903152D01*
X82332261Y-97989597D01*
X82384244Y-98067395D01*
X82450405Y-98133556D01*
X82528203Y-98185539D01*
X82614648Y-98221346D01*
X82706417Y-98239600D01*
X82799983Y-98239600D01*
X82891752Y-98221346D01*
X82978197Y-98185539D01*
X83055995Y-98133556D01*
X83121500Y-98068051D01*
X83187005Y-98133556D01*
X83264803Y-98185539D01*
X83351248Y-98221346D01*
X83443017Y-98239600D01*
X83536583Y-98239600D01*
X83628352Y-98221346D01*
X83714797Y-98185539D01*
X83792595Y-98133556D01*
X83858756Y-98067395D01*
X83910739Y-97989597D01*
X83946546Y-97903152D01*
X83964800Y-97811383D01*
X83964800Y-97717817D01*
X83946546Y-97626048D01*
X83910739Y-97539603D01*
X83858756Y-97461805D01*
X83792595Y-97395644D01*
X83714797Y-97343661D01*
X83628352Y-97307854D01*
X83536583Y-97289600D01*
X83443017Y-97289600D01*
X83351248Y-97307854D01*
X83264803Y-97343661D01*
X83187005Y-97395644D01*
X83121500Y-97461149D01*
X83055995Y-97395644D01*
X82978197Y-97343661D01*
X82891752Y-97307854D01*
X82799983Y-97289600D01*
X82706417Y-97289600D01*
X82614648Y-97307854D01*
X82528203Y-97343661D01*
X82450405Y-97395644D01*
X82384244Y-97461805D01*
X82332261Y-97539603D01*
X82296454Y-97626048D01*
X82278200Y-97717817D01*
X80840600Y-97717817D01*
X80840600Y-97667017D01*
X80822346Y-97575248D01*
X80786539Y-97488803D01*
X80734556Y-97411005D01*
X80668395Y-97344844D01*
X80590597Y-97292861D01*
X80504152Y-97257054D01*
X80412383Y-97238800D01*
X80318817Y-97238800D01*
X80227048Y-97257054D01*
X80140603Y-97292861D01*
X80062805Y-97344844D01*
X79996644Y-97411005D01*
X79944661Y-97488803D01*
X79908854Y-97575248D01*
X79890600Y-97667017D01*
X77274675Y-97667017D01*
X77263116Y-97639112D01*
X77211133Y-97561314D01*
X77144972Y-97495153D01*
X77067174Y-97443170D01*
X76980729Y-97407363D01*
X76888960Y-97389109D01*
X76814018Y-97389109D01*
X76811376Y-97375825D01*
X76775569Y-97289380D01*
X76723586Y-97211582D01*
X76657425Y-97145421D01*
X76579627Y-97093438D01*
X76493182Y-97057631D01*
X76401413Y-97039377D01*
X76307847Y-97039377D01*
X76216078Y-97057631D01*
X76129633Y-97093438D01*
X76051835Y-97145421D01*
X75985674Y-97211582D01*
X75933691Y-97289380D01*
X75897884Y-97375825D01*
X75879630Y-97467594D01*
X67734200Y-97467594D01*
X67734200Y-97463817D01*
X67715946Y-97372048D01*
X67680139Y-97285603D01*
X67628156Y-97207805D01*
X67561995Y-97141644D01*
X67484197Y-97089661D01*
X67397752Y-97053854D01*
X67305983Y-97035600D01*
X67212417Y-97035600D01*
X67120648Y-97053854D01*
X67034203Y-97089661D01*
X66956405Y-97141644D01*
X66890244Y-97207805D01*
X66838261Y-97285603D01*
X66802454Y-97372048D01*
X66784200Y-97463817D01*
X61884610Y-97463817D01*
X61866356Y-97372048D01*
X61830549Y-97285603D01*
X61778566Y-97207805D01*
X61712405Y-97141644D01*
X61634607Y-97089661D01*
X61548162Y-97053854D01*
X61456393Y-97035600D01*
X61362827Y-97035600D01*
X61271058Y-97053854D01*
X61184613Y-97089661D01*
X61106815Y-97141644D01*
X61040654Y-97207805D01*
X60988671Y-97285603D01*
X60952864Y-97372048D01*
X60934610Y-97463817D01*
X58605496Y-97463817D01*
X58597346Y-97422848D01*
X58561539Y-97336403D01*
X58509556Y-97258605D01*
X58443395Y-97192444D01*
X58365597Y-97140461D01*
X58279152Y-97104654D01*
X58187383Y-97086400D01*
X58093817Y-97086400D01*
X58002048Y-97104654D01*
X57915603Y-97140461D01*
X57837805Y-97192444D01*
X57771644Y-97258605D01*
X57719661Y-97336403D01*
X57683854Y-97422848D01*
X57665600Y-97514617D01*
X49988627Y-97514617D01*
X49929302Y-96422417D01*
X60898990Y-96422417D01*
X60898990Y-96515983D01*
X60917244Y-96607752D01*
X60953051Y-96694197D01*
X61005034Y-96771995D01*
X61071195Y-96838156D01*
X61148993Y-96890139D01*
X61235438Y-96925946D01*
X61327207Y-96944200D01*
X61420773Y-96944200D01*
X61512542Y-96925946D01*
X61598987Y-96890139D01*
X61676785Y-96838156D01*
X61686124Y-96828817D01*
X70543400Y-96828817D01*
X70543400Y-96922383D01*
X70561654Y-97014152D01*
X70597461Y-97100597D01*
X70649444Y-97178395D01*
X70715605Y-97244556D01*
X70793403Y-97296539D01*
X70879848Y-97332346D01*
X70971617Y-97350600D01*
X71065183Y-97350600D01*
X71156952Y-97332346D01*
X71243397Y-97296539D01*
X71321195Y-97244556D01*
X71387356Y-97178395D01*
X71439339Y-97100597D01*
X71475146Y-97014152D01*
X71493400Y-96922383D01*
X71493400Y-96830219D01*
X71915000Y-96830219D01*
X71915000Y-96923785D01*
X71933254Y-97015554D01*
X71969061Y-97101999D01*
X72021044Y-97179797D01*
X72087205Y-97245958D01*
X72165003Y-97297941D01*
X72251448Y-97333748D01*
X72343217Y-97352002D01*
X72436783Y-97352002D01*
X72528552Y-97333748D01*
X72614997Y-97297941D01*
X72692795Y-97245958D01*
X72758956Y-97179797D01*
X72810939Y-97101999D01*
X72846746Y-97015554D01*
X72853576Y-96981217D01*
X76846540Y-96981217D01*
X76846540Y-97074783D01*
X76864794Y-97166552D01*
X76900601Y-97252997D01*
X76952584Y-97330795D01*
X77018745Y-97396956D01*
X77096543Y-97448939D01*
X77182988Y-97484746D01*
X77274757Y-97503000D01*
X77368323Y-97503000D01*
X77460092Y-97484746D01*
X77546537Y-97448939D01*
X77624335Y-97396956D01*
X77690496Y-97330795D01*
X77742479Y-97252997D01*
X77778286Y-97166552D01*
X77796540Y-97074783D01*
X77796540Y-96981217D01*
X77778286Y-96889448D01*
X77742479Y-96803003D01*
X77690496Y-96725205D01*
X77624335Y-96659044D01*
X77546537Y-96607061D01*
X77460092Y-96571254D01*
X77368323Y-96553000D01*
X77274757Y-96553000D01*
X77182988Y-96571254D01*
X77096543Y-96607061D01*
X77018745Y-96659044D01*
X76952584Y-96725205D01*
X76900601Y-96803003D01*
X76864794Y-96889448D01*
X76846540Y-96981217D01*
X72853576Y-96981217D01*
X72865000Y-96923785D01*
X72865000Y-96830219D01*
X72846746Y-96738450D01*
X72810939Y-96652005D01*
X72758956Y-96574207D01*
X72692795Y-96508046D01*
X72614997Y-96456063D01*
X72528552Y-96420256D01*
X72436783Y-96402002D01*
X72343217Y-96402002D01*
X72251448Y-96420256D01*
X72165003Y-96456063D01*
X72087205Y-96508046D01*
X72021044Y-96574207D01*
X71969061Y-96652005D01*
X71933254Y-96738450D01*
X71915000Y-96830219D01*
X71493400Y-96830219D01*
X71493400Y-96828817D01*
X71475146Y-96737048D01*
X71439339Y-96650603D01*
X71387356Y-96572805D01*
X71321195Y-96506644D01*
X71243397Y-96454661D01*
X71156952Y-96418854D01*
X71065183Y-96400600D01*
X70971617Y-96400600D01*
X70879848Y-96418854D01*
X70793403Y-96454661D01*
X70715605Y-96506644D01*
X70649444Y-96572805D01*
X70597461Y-96650603D01*
X70561654Y-96737048D01*
X70543400Y-96828817D01*
X61686124Y-96828817D01*
X61742946Y-96771995D01*
X61794929Y-96694197D01*
X61830736Y-96607752D01*
X61848990Y-96515983D01*
X61848990Y-96422417D01*
X61830736Y-96330648D01*
X61794929Y-96244203D01*
X61742946Y-96166405D01*
X61676785Y-96100244D01*
X61598987Y-96048261D01*
X61512542Y-96012454D01*
X61420773Y-95994200D01*
X61327207Y-95994200D01*
X61235438Y-96012454D01*
X61148993Y-96048261D01*
X61071195Y-96100244D01*
X61005034Y-96166405D01*
X60953051Y-96244203D01*
X60917244Y-96330648D01*
X60898990Y-96422417D01*
X49929302Y-96422417D01*
X49900329Y-95889017D01*
X56065400Y-95889017D01*
X56065400Y-95982583D01*
X56083654Y-96074352D01*
X56119461Y-96160797D01*
X56171444Y-96238595D01*
X56237605Y-96304756D01*
X56315403Y-96356739D01*
X56401848Y-96392546D01*
X56493617Y-96410800D01*
X56587183Y-96410800D01*
X56678952Y-96392546D01*
X56765397Y-96356739D01*
X56843195Y-96304756D01*
X56909356Y-96238595D01*
X56961339Y-96160797D01*
X56997146Y-96074352D01*
X57015400Y-95982583D01*
X57015400Y-95889017D01*
X56997146Y-95797248D01*
X56961339Y-95710803D01*
X56909356Y-95633005D01*
X56843195Y-95566844D01*
X56775200Y-95521411D01*
X64091898Y-95521411D01*
X64091898Y-95614977D01*
X64110152Y-95706746D01*
X64145959Y-95793191D01*
X64197942Y-95870989D01*
X64264103Y-95937150D01*
X64341901Y-95989133D01*
X64428346Y-96024940D01*
X64520115Y-96043194D01*
X64613681Y-96043194D01*
X64705450Y-96024940D01*
X64791895Y-95989133D01*
X64869693Y-95937150D01*
X64935854Y-95870989D01*
X64987837Y-95793191D01*
X64990231Y-95787411D01*
X77858600Y-95787411D01*
X77858600Y-95880977D01*
X77876854Y-95972746D01*
X77912661Y-96059191D01*
X77964644Y-96136989D01*
X77974560Y-96146905D01*
X77964648Y-96156816D01*
X77912665Y-96234614D01*
X77876858Y-96321059D01*
X77858604Y-96412828D01*
X77858604Y-96506394D01*
X77876858Y-96598163D01*
X77912665Y-96684608D01*
X77964648Y-96762406D01*
X78030809Y-96828567D01*
X78108607Y-96880550D01*
X78195052Y-96916357D01*
X78286821Y-96934611D01*
X78380387Y-96934611D01*
X78472156Y-96916357D01*
X78558601Y-96880550D01*
X78636399Y-96828567D01*
X78702560Y-96762406D01*
X78754543Y-96684608D01*
X78790350Y-96598163D01*
X78808604Y-96506394D01*
X78808604Y-96412828D01*
X78790350Y-96321059D01*
X78754543Y-96234614D01*
X78702560Y-96156816D01*
X78692645Y-96146901D01*
X78702556Y-96136989D01*
X78754539Y-96059191D01*
X78790346Y-95972746D01*
X78808600Y-95880977D01*
X78808600Y-95787411D01*
X78790346Y-95695642D01*
X78754539Y-95609197D01*
X78702556Y-95531399D01*
X78636395Y-95465238D01*
X78558597Y-95413255D01*
X78472152Y-95377448D01*
X78380383Y-95359194D01*
X78286817Y-95359194D01*
X78195048Y-95377448D01*
X78108603Y-95413255D01*
X78030805Y-95465238D01*
X77964644Y-95531399D01*
X77912661Y-95609197D01*
X77876854Y-95695642D01*
X77858600Y-95787411D01*
X64990231Y-95787411D01*
X65023644Y-95706746D01*
X65041898Y-95614977D01*
X65041898Y-95521411D01*
X65023644Y-95429642D01*
X64987837Y-95343197D01*
X64935854Y-95265399D01*
X64899072Y-95228617D01*
X84005400Y-95228617D01*
X84005400Y-95322183D01*
X84023654Y-95413952D01*
X84059461Y-95500397D01*
X84111444Y-95578195D01*
X84177605Y-95644356D01*
X84255403Y-95696339D01*
X84341848Y-95732146D01*
X84433617Y-95750400D01*
X84527183Y-95750400D01*
X84618952Y-95732146D01*
X84705397Y-95696339D01*
X84783195Y-95644356D01*
X84849356Y-95578195D01*
X84901339Y-95500397D01*
X84937146Y-95413952D01*
X84955400Y-95322183D01*
X84955400Y-95228617D01*
X84937146Y-95136848D01*
X84901339Y-95050403D01*
X84849356Y-94972605D01*
X84783195Y-94906444D01*
X84705397Y-94854461D01*
X84618952Y-94818654D01*
X84527183Y-94800400D01*
X84433617Y-94800400D01*
X84341848Y-94818654D01*
X84255403Y-94854461D01*
X84177605Y-94906444D01*
X84111444Y-94972605D01*
X84059461Y-95050403D01*
X84023654Y-95136848D01*
X84005400Y-95228617D01*
X64899072Y-95228617D01*
X64869693Y-95199238D01*
X64791895Y-95147255D01*
X64705450Y-95111448D01*
X64613681Y-95093194D01*
X64520115Y-95093194D01*
X64428346Y-95111448D01*
X64341901Y-95147255D01*
X64264103Y-95199238D01*
X64197942Y-95265399D01*
X64145959Y-95343197D01*
X64110152Y-95429642D01*
X64091898Y-95521411D01*
X56775200Y-95521411D01*
X56765397Y-95514861D01*
X56678952Y-95479054D01*
X56587183Y-95460800D01*
X56493617Y-95460800D01*
X56401848Y-95479054D01*
X56315403Y-95514861D01*
X56237605Y-95566844D01*
X56171444Y-95633005D01*
X56119461Y-95710803D01*
X56083654Y-95797248D01*
X56065400Y-95889017D01*
X49900329Y-95889017D01*
X49862967Y-95201178D01*
X49860658Y-94568217D01*
X60027800Y-94568217D01*
X60027800Y-94661783D01*
X60046054Y-94753552D01*
X60081861Y-94839997D01*
X60133844Y-94917795D01*
X60200005Y-94983956D01*
X60277803Y-95035939D01*
X60364248Y-95071746D01*
X60456017Y-95090000D01*
X60549583Y-95090000D01*
X60641352Y-95071746D01*
X60727797Y-95035939D01*
X60805595Y-94983956D01*
X60871756Y-94917795D01*
X60923739Y-94839997D01*
X60959546Y-94753552D01*
X60977800Y-94661783D01*
X60977800Y-94568217D01*
X60959546Y-94476448D01*
X60923739Y-94390003D01*
X60871756Y-94312205D01*
X60805595Y-94246044D01*
X60793582Y-94238017D01*
X65336396Y-94238017D01*
X65336396Y-94331583D01*
X65354650Y-94423352D01*
X65390457Y-94509797D01*
X65442440Y-94587595D01*
X65508601Y-94653756D01*
X65586399Y-94705739D01*
X65672844Y-94741546D01*
X65764613Y-94759800D01*
X65858179Y-94759800D01*
X65949948Y-94741546D01*
X66036393Y-94705739D01*
X66114191Y-94653756D01*
X66180352Y-94587595D01*
X66232335Y-94509797D01*
X66268142Y-94423352D01*
X66286396Y-94331583D01*
X66286396Y-94238017D01*
X66282616Y-94219009D01*
X78630443Y-94219009D01*
X78630443Y-94312575D01*
X78648697Y-94404344D01*
X78684504Y-94490789D01*
X78736487Y-94568587D01*
X78802648Y-94634748D01*
X78880446Y-94686731D01*
X78966891Y-94722538D01*
X79058660Y-94740792D01*
X79152226Y-94740792D01*
X79243995Y-94722538D01*
X79330440Y-94686731D01*
X79408238Y-94634748D01*
X79474399Y-94568587D01*
X79526382Y-94490789D01*
X79562189Y-94404344D01*
X79580443Y-94312575D01*
X79580443Y-94219009D01*
X79562189Y-94127240D01*
X79526382Y-94040795D01*
X79474399Y-93962997D01*
X79408238Y-93896836D01*
X79330440Y-93844853D01*
X79243995Y-93809046D01*
X79152226Y-93790792D01*
X79058660Y-93790792D01*
X78966891Y-93809046D01*
X78880446Y-93844853D01*
X78802648Y-93896836D01*
X78736487Y-93962997D01*
X78684504Y-94040795D01*
X78648697Y-94127240D01*
X78630443Y-94219009D01*
X66282616Y-94219009D01*
X66268142Y-94146248D01*
X66232335Y-94059803D01*
X66180352Y-93982005D01*
X66114191Y-93915844D01*
X66036393Y-93863861D01*
X65949948Y-93828054D01*
X65858179Y-93809800D01*
X65764613Y-93809800D01*
X65672844Y-93828054D01*
X65586399Y-93863861D01*
X65508601Y-93915844D01*
X65442440Y-93982005D01*
X65390457Y-94059803D01*
X65354650Y-94146248D01*
X65336396Y-94238017D01*
X60793582Y-94238017D01*
X60727797Y-94194061D01*
X60641352Y-94158254D01*
X60549583Y-94140000D01*
X60456017Y-94140000D01*
X60364248Y-94158254D01*
X60277803Y-94194061D01*
X60200005Y-94246044D01*
X60133844Y-94312205D01*
X60081861Y-94390003D01*
X60046054Y-94476448D01*
X60027800Y-94568217D01*
X49860658Y-94568217D01*
X49852316Y-92282217D01*
X79585800Y-92282217D01*
X79585800Y-92375783D01*
X79604054Y-92467552D01*
X79639861Y-92553997D01*
X79691844Y-92631795D01*
X79758005Y-92697956D01*
X79835803Y-92749939D01*
X79922248Y-92785746D01*
X80014017Y-92804000D01*
X80107583Y-92804000D01*
X80199352Y-92785746D01*
X80285797Y-92749939D01*
X80363595Y-92697956D01*
X80378410Y-92683142D01*
X80386793Y-92691525D01*
X80464591Y-92743508D01*
X80551036Y-92779315D01*
X80642805Y-92797569D01*
X80736371Y-92797569D01*
X80828140Y-92779315D01*
X80914585Y-92743508D01*
X80992383Y-92691525D01*
X81058544Y-92625364D01*
X81110527Y-92547566D01*
X81146334Y-92461121D01*
X81164588Y-92369352D01*
X81164588Y-92275786D01*
X81146334Y-92184017D01*
X81110527Y-92097572D01*
X81058544Y-92019774D01*
X80992383Y-91953613D01*
X80914585Y-91901630D01*
X80828140Y-91865823D01*
X80736371Y-91847569D01*
X80642805Y-91847569D01*
X80551036Y-91865823D01*
X80464591Y-91901630D01*
X80386793Y-91953613D01*
X80371979Y-91968428D01*
X80363595Y-91960044D01*
X80285797Y-91908061D01*
X80199352Y-91872254D01*
X80107583Y-91854000D01*
X80014017Y-91854000D01*
X79922248Y-91872254D01*
X79835803Y-91908061D01*
X79758005Y-91960044D01*
X79691844Y-92026205D01*
X79639861Y-92104003D01*
X79604054Y-92190448D01*
X79585800Y-92282217D01*
X49852316Y-92282217D01*
X49851937Y-92178579D01*
X49907949Y-90986817D01*
X56065400Y-90986817D01*
X56065400Y-91080383D01*
X56083654Y-91172152D01*
X56119461Y-91258597D01*
X56171444Y-91336395D01*
X56237605Y-91402556D01*
X56315403Y-91454539D01*
X56401848Y-91490346D01*
X56493617Y-91508600D01*
X56587183Y-91508600D01*
X56678952Y-91490346D01*
X56765397Y-91454539D01*
X56843195Y-91402556D01*
X56909356Y-91336395D01*
X56922303Y-91317017D01*
X65336402Y-91317017D01*
X65336402Y-91410583D01*
X65354656Y-91502352D01*
X65390463Y-91588797D01*
X65442446Y-91666595D01*
X65508607Y-91732756D01*
X65586405Y-91784739D01*
X65672850Y-91820546D01*
X65764619Y-91838800D01*
X65858185Y-91838800D01*
X65949954Y-91820546D01*
X66036399Y-91784739D01*
X66114197Y-91732756D01*
X66180358Y-91666595D01*
X66232341Y-91588797D01*
X66268148Y-91502352D01*
X66286402Y-91410583D01*
X66286402Y-91317017D01*
X66268148Y-91225248D01*
X66232341Y-91138803D01*
X66196106Y-91084573D01*
X77780452Y-91084573D01*
X77780452Y-91178139D01*
X77798706Y-91269908D01*
X77834513Y-91356353D01*
X77886496Y-91434151D01*
X77952657Y-91500312D01*
X78030455Y-91552295D01*
X78116900Y-91588102D01*
X78208669Y-91606356D01*
X78302235Y-91606356D01*
X78394004Y-91588102D01*
X78480449Y-91552295D01*
X78505423Y-91535608D01*
X78551532Y-91581717D01*
X78629330Y-91633700D01*
X78715775Y-91669507D01*
X78807544Y-91687761D01*
X78901110Y-91687761D01*
X78992879Y-91669507D01*
X79079324Y-91633700D01*
X79157122Y-91581717D01*
X79223283Y-91515556D01*
X79275266Y-91437758D01*
X79311073Y-91351313D01*
X79329327Y-91259544D01*
X79329327Y-91165978D01*
X79324004Y-91139217D01*
X83980000Y-91139217D01*
X83980000Y-91232783D01*
X83998254Y-91324552D01*
X84034061Y-91410997D01*
X84086044Y-91488795D01*
X84152205Y-91554956D01*
X84230003Y-91606939D01*
X84316448Y-91642746D01*
X84408217Y-91661000D01*
X84501783Y-91661000D01*
X84593552Y-91642746D01*
X84679997Y-91606939D01*
X84757795Y-91554956D01*
X84823956Y-91488795D01*
X84875939Y-91410997D01*
X84911746Y-91324552D01*
X84930000Y-91232783D01*
X84930000Y-91139217D01*
X84911746Y-91047448D01*
X84875939Y-90961003D01*
X84823956Y-90883205D01*
X84757795Y-90817044D01*
X84679997Y-90765061D01*
X84593552Y-90729254D01*
X84501783Y-90711000D01*
X84408217Y-90711000D01*
X84316448Y-90729254D01*
X84230003Y-90765061D01*
X84152205Y-90817044D01*
X84086044Y-90883205D01*
X84034061Y-90961003D01*
X83998254Y-91047448D01*
X83980000Y-91139217D01*
X79324004Y-91139217D01*
X79311073Y-91074209D01*
X79275266Y-90987764D01*
X79223283Y-90909966D01*
X79157122Y-90843805D01*
X79094345Y-90801859D01*
X79102736Y-90781602D01*
X79120990Y-90689833D01*
X79120990Y-90596267D01*
X79102736Y-90504498D01*
X79066929Y-90418053D01*
X79014946Y-90340255D01*
X78948785Y-90274094D01*
X78870987Y-90222111D01*
X78784542Y-90186304D01*
X78692773Y-90168050D01*
X78599207Y-90168050D01*
X78507438Y-90186304D01*
X78420993Y-90222111D01*
X78343195Y-90274094D01*
X78277034Y-90340255D01*
X78225051Y-90418053D01*
X78189244Y-90504498D01*
X78170990Y-90596267D01*
X78170990Y-90663851D01*
X78116900Y-90674610D01*
X78030455Y-90710417D01*
X77952657Y-90762400D01*
X77886496Y-90828561D01*
X77834513Y-90906359D01*
X77798706Y-90992804D01*
X77780452Y-91084573D01*
X66196106Y-91084573D01*
X66180358Y-91061005D01*
X66114197Y-90994844D01*
X66036399Y-90942861D01*
X65949954Y-90907054D01*
X65858185Y-90888800D01*
X65764619Y-90888800D01*
X65672850Y-90907054D01*
X65586405Y-90942861D01*
X65508607Y-90994844D01*
X65442446Y-91061005D01*
X65390463Y-91138803D01*
X65354656Y-91225248D01*
X65336402Y-91317017D01*
X56922303Y-91317017D01*
X56961339Y-91258597D01*
X56997146Y-91172152D01*
X57015400Y-91080383D01*
X57015400Y-90986817D01*
X56997146Y-90895048D01*
X56961339Y-90808603D01*
X56909356Y-90730805D01*
X56843195Y-90664644D01*
X56765397Y-90612661D01*
X56678952Y-90576854D01*
X56587183Y-90558600D01*
X56493617Y-90558600D01*
X56401848Y-90576854D01*
X56315403Y-90612661D01*
X56237605Y-90664644D01*
X56171444Y-90730805D01*
X56119461Y-90808603D01*
X56083654Y-90895048D01*
X56065400Y-90986817D01*
X49907949Y-90986817D01*
X49943763Y-90224817D01*
X61958200Y-90224817D01*
X61958200Y-90318383D01*
X61976454Y-90410152D01*
X62012261Y-90496597D01*
X62064244Y-90574395D01*
X62130405Y-90640556D01*
X62208203Y-90692539D01*
X62294648Y-90728346D01*
X62386417Y-90746600D01*
X62479983Y-90746600D01*
X62571752Y-90728346D01*
X62658197Y-90692539D01*
X62735995Y-90640556D01*
X62802156Y-90574395D01*
X62854139Y-90496597D01*
X62889946Y-90410152D01*
X62908200Y-90318383D01*
X62908200Y-90224817D01*
X62889946Y-90133048D01*
X62854139Y-90046603D01*
X62802156Y-89968805D01*
X62735995Y-89902644D01*
X62658197Y-89850661D01*
X62571752Y-89814854D01*
X62479983Y-89796600D01*
X62386417Y-89796600D01*
X62294648Y-89814854D01*
X62208203Y-89850661D01*
X62130405Y-89902644D01*
X62064244Y-89968805D01*
X62012261Y-90046603D01*
X61976454Y-90133048D01*
X61958200Y-90224817D01*
X49943763Y-90224817D01*
X49991515Y-89208817D01*
X57030600Y-89208817D01*
X57030600Y-89302383D01*
X57048854Y-89394152D01*
X57084661Y-89480597D01*
X57136644Y-89558395D01*
X57202805Y-89624556D01*
X57280603Y-89676539D01*
X57367048Y-89712346D01*
X57458817Y-89730600D01*
X57552383Y-89730600D01*
X57644152Y-89712346D01*
X57730597Y-89676539D01*
X57808395Y-89624556D01*
X57874556Y-89558395D01*
X57897786Y-89523629D01*
X57912450Y-89597352D01*
X57948257Y-89683797D01*
X58000240Y-89761595D01*
X58066401Y-89827756D01*
X58144199Y-89879739D01*
X58230644Y-89915546D01*
X58322413Y-89933800D01*
X58415979Y-89933800D01*
X58507748Y-89915546D01*
X58594193Y-89879739D01*
X58671991Y-89827756D01*
X58738152Y-89761595D01*
X58790135Y-89683797D01*
X58805890Y-89645760D01*
X63914865Y-89645760D01*
X63914865Y-89739326D01*
X63933119Y-89831095D01*
X63968926Y-89917540D01*
X64020909Y-89995338D01*
X64087070Y-90061499D01*
X64164868Y-90113482D01*
X64251313Y-90149289D01*
X64343082Y-90167543D01*
X64436648Y-90167543D01*
X64528417Y-90149289D01*
X64614862Y-90113482D01*
X64692660Y-90061499D01*
X64702931Y-90051228D01*
X64720640Y-90068937D01*
X64798438Y-90120920D01*
X64884883Y-90156727D01*
X64976652Y-90174981D01*
X65070218Y-90174981D01*
X65161987Y-90156727D01*
X65248432Y-90120920D01*
X65324365Y-90070183D01*
X71371893Y-90070183D01*
X71371893Y-90163749D01*
X71390147Y-90255518D01*
X71425954Y-90341963D01*
X71477937Y-90419761D01*
X71544098Y-90485922D01*
X71621896Y-90537905D01*
X71708341Y-90573712D01*
X71800110Y-90591966D01*
X71893676Y-90591966D01*
X71985445Y-90573712D01*
X72071890Y-90537905D01*
X72149688Y-90485922D01*
X72215849Y-90419761D01*
X72267832Y-90341963D01*
X72303639Y-90255518D01*
X72321893Y-90163749D01*
X72321893Y-90070183D01*
X72303639Y-89978414D01*
X72267832Y-89891969D01*
X72215849Y-89814171D01*
X72149688Y-89748010D01*
X72071890Y-89696027D01*
X71985445Y-89660220D01*
X71893676Y-89641966D01*
X71800110Y-89641966D01*
X71708341Y-89660220D01*
X71621896Y-89696027D01*
X71544098Y-89748010D01*
X71477937Y-89814171D01*
X71425954Y-89891969D01*
X71390147Y-89978414D01*
X71371893Y-90070183D01*
X65324365Y-90070183D01*
X65326230Y-90068937D01*
X65392391Y-90002776D01*
X65444374Y-89924978D01*
X65480181Y-89838533D01*
X65498435Y-89746764D01*
X65498435Y-89653198D01*
X65480181Y-89561429D01*
X65444374Y-89474984D01*
X65392391Y-89397186D01*
X65326230Y-89331025D01*
X65248432Y-89279042D01*
X65161987Y-89243235D01*
X65070218Y-89224981D01*
X64976652Y-89224981D01*
X64884883Y-89243235D01*
X64798438Y-89279042D01*
X64720640Y-89331025D01*
X64710369Y-89341296D01*
X64692660Y-89323587D01*
X64614862Y-89271604D01*
X64528417Y-89235797D01*
X64436648Y-89217543D01*
X64343082Y-89217543D01*
X64251313Y-89235797D01*
X64164868Y-89271604D01*
X64087070Y-89323587D01*
X64020909Y-89389748D01*
X63968926Y-89467546D01*
X63933119Y-89553991D01*
X63914865Y-89645760D01*
X58805890Y-89645760D01*
X58825942Y-89597352D01*
X58844196Y-89505583D01*
X58844196Y-89412017D01*
X58825942Y-89320248D01*
X58790135Y-89233803D01*
X58738152Y-89156005D01*
X58671991Y-89089844D01*
X58594193Y-89037861D01*
X58507748Y-89002054D01*
X58415979Y-88983800D01*
X58322413Y-88983800D01*
X58230644Y-89002054D01*
X58144199Y-89037861D01*
X58066401Y-89089844D01*
X58000240Y-89156005D01*
X57977010Y-89190771D01*
X57962346Y-89117048D01*
X57926539Y-89030603D01*
X57874556Y-88952805D01*
X57808395Y-88886644D01*
X57730597Y-88834661D01*
X57644152Y-88798854D01*
X57552383Y-88780600D01*
X57458817Y-88780600D01*
X57367048Y-88798854D01*
X57280603Y-88834661D01*
X57202805Y-88886644D01*
X57136644Y-88952805D01*
X57084661Y-89030603D01*
X57048854Y-89117048D01*
X57030600Y-89208817D01*
X49991515Y-89208817D01*
X49993844Y-89159276D01*
X50038722Y-88700817D01*
X66377800Y-88700817D01*
X66377800Y-88794383D01*
X66396054Y-88886152D01*
X66431861Y-88972597D01*
X66483844Y-89050395D01*
X66550005Y-89116556D01*
X66627803Y-89168539D01*
X66714248Y-89204346D01*
X66806017Y-89222600D01*
X66899583Y-89222600D01*
X66991352Y-89204346D01*
X67077797Y-89168539D01*
X67155595Y-89116556D01*
X67166914Y-89105237D01*
X73035962Y-89105237D01*
X73035962Y-89198803D01*
X73054216Y-89290572D01*
X73090023Y-89377017D01*
X73142006Y-89454815D01*
X73208167Y-89520976D01*
X73285965Y-89572959D01*
X73372410Y-89608766D01*
X73432957Y-89620809D01*
X73372038Y-89646043D01*
X73294240Y-89698026D01*
X73228079Y-89764187D01*
X73176096Y-89841985D01*
X73140289Y-89928430D01*
X73122035Y-90020199D01*
X73122035Y-90113765D01*
X73140289Y-90205534D01*
X73176096Y-90291979D01*
X73228079Y-90369777D01*
X73294240Y-90435938D01*
X73372038Y-90487921D01*
X73458483Y-90523728D01*
X73550252Y-90541982D01*
X73643818Y-90541982D01*
X73735587Y-90523728D01*
X73822032Y-90487921D01*
X73899830Y-90435938D01*
X73965991Y-90369777D01*
X74017974Y-90291979D01*
X74053781Y-90205534D01*
X74072035Y-90113765D01*
X74072035Y-90020199D01*
X74068778Y-90003822D01*
X75231069Y-90003822D01*
X75231069Y-90097388D01*
X75249323Y-90189157D01*
X75285130Y-90275602D01*
X75337113Y-90353400D01*
X75403274Y-90419561D01*
X75481072Y-90471544D01*
X75567517Y-90507351D01*
X75659286Y-90525605D01*
X75752852Y-90525605D01*
X75844621Y-90507351D01*
X75931066Y-90471544D01*
X76008864Y-90419561D01*
X76075025Y-90353400D01*
X76127008Y-90275602D01*
X76162815Y-90189157D01*
X76181069Y-90097388D01*
X76181069Y-90003822D01*
X76162815Y-89912053D01*
X76127008Y-89825608D01*
X76103040Y-89789736D01*
X79806810Y-89789736D01*
X79806810Y-89883302D01*
X79825064Y-89975071D01*
X79860871Y-90061516D01*
X79912854Y-90139314D01*
X79979015Y-90205475D01*
X80056813Y-90257458D01*
X80143258Y-90293265D01*
X80235027Y-90311519D01*
X80328593Y-90311519D01*
X80420362Y-90293265D01*
X80506807Y-90257458D01*
X80584605Y-90205475D01*
X80650766Y-90139314D01*
X80702749Y-90061516D01*
X80708754Y-90047017D01*
X81389200Y-90047017D01*
X81389200Y-90140583D01*
X81407454Y-90232352D01*
X81443261Y-90318797D01*
X81495244Y-90396595D01*
X81561405Y-90462756D01*
X81639203Y-90514739D01*
X81725648Y-90550546D01*
X81817417Y-90568800D01*
X81910983Y-90568800D01*
X82002752Y-90550546D01*
X82089197Y-90514739D01*
X82166995Y-90462756D01*
X82233156Y-90396595D01*
X82285139Y-90318797D01*
X82320946Y-90232352D01*
X82339200Y-90140583D01*
X82339200Y-90047017D01*
X82320946Y-89955248D01*
X82285139Y-89868803D01*
X82233156Y-89791005D01*
X82166995Y-89724844D01*
X82089197Y-89672861D01*
X82002752Y-89637054D01*
X81910983Y-89618800D01*
X81817417Y-89618800D01*
X81725648Y-89637054D01*
X81639203Y-89672861D01*
X81561405Y-89724844D01*
X81495244Y-89791005D01*
X81443261Y-89868803D01*
X81407454Y-89955248D01*
X81389200Y-90047017D01*
X80708754Y-90047017D01*
X80738556Y-89975071D01*
X80756810Y-89883302D01*
X80756810Y-89789736D01*
X80738556Y-89697967D01*
X80702749Y-89611522D01*
X80650766Y-89533724D01*
X80584605Y-89467563D01*
X80539489Y-89437417D01*
X82481400Y-89437417D01*
X82481400Y-89530983D01*
X82499654Y-89622752D01*
X82535461Y-89709197D01*
X82587444Y-89786995D01*
X82653605Y-89853156D01*
X82731403Y-89905139D01*
X82817848Y-89940946D01*
X82909617Y-89959200D01*
X83003183Y-89959200D01*
X83094952Y-89940946D01*
X83181397Y-89905139D01*
X83259195Y-89853156D01*
X83325356Y-89786995D01*
X83377339Y-89709197D01*
X83413146Y-89622752D01*
X83431400Y-89530983D01*
X83431400Y-89437417D01*
X83413146Y-89345648D01*
X83377339Y-89259203D01*
X83325356Y-89181405D01*
X83259195Y-89115244D01*
X83181397Y-89063261D01*
X83094952Y-89027454D01*
X83003183Y-89009200D01*
X82909617Y-89009200D01*
X82817848Y-89027454D01*
X82731403Y-89063261D01*
X82653605Y-89115244D01*
X82587444Y-89181405D01*
X82535461Y-89259203D01*
X82499654Y-89345648D01*
X82481400Y-89437417D01*
X80539489Y-89437417D01*
X80506807Y-89415580D01*
X80420362Y-89379773D01*
X80328593Y-89361519D01*
X80235027Y-89361519D01*
X80143258Y-89379773D01*
X80056813Y-89415580D01*
X79979015Y-89467563D01*
X79912854Y-89533724D01*
X79860871Y-89611522D01*
X79825064Y-89697967D01*
X79806810Y-89789736D01*
X76103040Y-89789736D01*
X76075025Y-89747810D01*
X76008864Y-89681649D01*
X75931066Y-89629666D01*
X75844621Y-89593859D01*
X75752852Y-89575605D01*
X75659286Y-89575605D01*
X75567517Y-89593859D01*
X75481072Y-89629666D01*
X75403274Y-89681649D01*
X75337113Y-89747810D01*
X75285130Y-89825608D01*
X75249323Y-89912053D01*
X75231069Y-90003822D01*
X74068778Y-90003822D01*
X74053781Y-89928430D01*
X74017974Y-89841985D01*
X73965991Y-89764187D01*
X73899830Y-89698026D01*
X73822032Y-89646043D01*
X73735587Y-89610236D01*
X73675040Y-89598193D01*
X73735959Y-89572959D01*
X73813757Y-89520976D01*
X73879918Y-89454815D01*
X73931901Y-89377017D01*
X73967708Y-89290572D01*
X73985962Y-89198803D01*
X73985962Y-89105237D01*
X73967708Y-89013468D01*
X73931901Y-88927023D01*
X73927986Y-88921163D01*
X73985061Y-88864088D01*
X74037044Y-88786290D01*
X74055670Y-88741323D01*
X74131048Y-88772546D01*
X74222817Y-88790800D01*
X74316383Y-88790800D01*
X74408152Y-88772546D01*
X74494597Y-88736739D01*
X74572395Y-88684756D01*
X74638556Y-88618595D01*
X74690539Y-88540797D01*
X74726346Y-88454352D01*
X74744600Y-88362583D01*
X74744600Y-88327141D01*
X74779605Y-88362146D01*
X74857403Y-88414129D01*
X74943848Y-88449936D01*
X75035617Y-88468190D01*
X75129183Y-88468190D01*
X75220952Y-88449936D01*
X75289802Y-88421417D01*
X79484200Y-88421417D01*
X79484200Y-88514983D01*
X79502454Y-88606752D01*
X79538261Y-88693197D01*
X79590244Y-88770995D01*
X79656405Y-88837156D01*
X79734203Y-88889139D01*
X79820648Y-88924946D01*
X79912417Y-88943200D01*
X80005983Y-88943200D01*
X80097752Y-88924946D01*
X80184197Y-88889139D01*
X80261995Y-88837156D01*
X80328156Y-88770995D01*
X80380139Y-88693197D01*
X80415946Y-88606752D01*
X80434200Y-88514983D01*
X80434200Y-88421417D01*
X80415946Y-88329648D01*
X80380139Y-88243203D01*
X80328156Y-88165405D01*
X80261995Y-88099244D01*
X80184197Y-88047261D01*
X80097752Y-88011454D01*
X80005983Y-87993200D01*
X79912417Y-87993200D01*
X79820648Y-88011454D01*
X79734203Y-88047261D01*
X79656405Y-88099244D01*
X79590244Y-88165405D01*
X79538261Y-88243203D01*
X79502454Y-88329648D01*
X79484200Y-88421417D01*
X75289802Y-88421417D01*
X75307397Y-88414129D01*
X75385195Y-88362146D01*
X75451356Y-88295985D01*
X75503339Y-88218187D01*
X75539146Y-88131742D01*
X75557400Y-88039973D01*
X75557400Y-87946407D01*
X75539146Y-87854638D01*
X75503339Y-87768193D01*
X75451356Y-87690395D01*
X75385195Y-87624234D01*
X75307397Y-87572251D01*
X75220952Y-87536444D01*
X75129183Y-87518190D01*
X75035617Y-87518190D01*
X74943848Y-87536444D01*
X74857403Y-87572251D01*
X74779605Y-87624234D01*
X74713444Y-87690395D01*
X74661461Y-87768193D01*
X74625654Y-87854638D01*
X74607400Y-87946407D01*
X74607400Y-87981849D01*
X74572395Y-87946844D01*
X74494597Y-87894861D01*
X74408152Y-87859054D01*
X74316383Y-87840800D01*
X74222817Y-87840800D01*
X74131048Y-87859054D01*
X74044603Y-87894861D01*
X73966805Y-87946844D01*
X73900644Y-88013005D01*
X73848661Y-88090803D01*
X73830035Y-88135770D01*
X73754657Y-88104547D01*
X73662888Y-88086293D01*
X73569322Y-88086293D01*
X73477553Y-88104547D01*
X73391108Y-88140354D01*
X73313310Y-88192337D01*
X73247149Y-88258498D01*
X73195166Y-88336296D01*
X73159359Y-88422741D01*
X73141105Y-88514510D01*
X73141105Y-88608076D01*
X73159359Y-88699845D01*
X73195166Y-88786290D01*
X73199081Y-88792150D01*
X73142006Y-88849225D01*
X73090023Y-88927023D01*
X73054216Y-89013468D01*
X73035962Y-89105237D01*
X67166914Y-89105237D01*
X67221756Y-89050395D01*
X67273739Y-88972597D01*
X67309546Y-88886152D01*
X67327800Y-88794383D01*
X67327800Y-88700817D01*
X67309546Y-88609048D01*
X67273739Y-88522603D01*
X67221756Y-88444805D01*
X67155595Y-88378644D01*
X67077797Y-88326661D01*
X66991352Y-88290854D01*
X66899583Y-88272600D01*
X66806017Y-88272600D01*
X66714248Y-88290854D01*
X66627803Y-88326661D01*
X66550005Y-88378644D01*
X66483844Y-88444805D01*
X66431861Y-88522603D01*
X66396054Y-88609048D01*
X66377800Y-88700817D01*
X50038722Y-88700817D01*
X50103075Y-88043421D01*
X71715740Y-88043421D01*
X71715740Y-88136987D01*
X71733994Y-88228756D01*
X71769801Y-88315201D01*
X71821784Y-88392999D01*
X71887945Y-88459160D01*
X71965743Y-88511143D01*
X72052188Y-88546950D01*
X72143957Y-88565204D01*
X72237523Y-88565204D01*
X72329292Y-88546950D01*
X72415737Y-88511143D01*
X72493535Y-88459160D01*
X72559696Y-88392999D01*
X72611679Y-88315201D01*
X72647486Y-88228756D01*
X72665740Y-88136987D01*
X72665740Y-88043421D01*
X72647486Y-87951652D01*
X72611679Y-87865207D01*
X72585830Y-87826521D01*
X72631956Y-87780395D01*
X72683939Y-87702597D01*
X72719746Y-87616152D01*
X72738000Y-87524383D01*
X72738000Y-87430817D01*
X78646000Y-87430817D01*
X78646000Y-87524383D01*
X78664254Y-87616152D01*
X78700061Y-87702597D01*
X78752044Y-87780395D01*
X78818205Y-87846556D01*
X78896003Y-87898539D01*
X78982448Y-87934346D01*
X79074217Y-87952600D01*
X79167783Y-87952600D01*
X79237074Y-87938817D01*
X81617800Y-87938817D01*
X81617800Y-88032383D01*
X81636054Y-88124152D01*
X81671861Y-88210597D01*
X81723844Y-88288395D01*
X81790005Y-88354556D01*
X81867803Y-88406539D01*
X81954248Y-88442346D01*
X82046017Y-88460600D01*
X82139583Y-88460600D01*
X82231352Y-88442346D01*
X82317797Y-88406539D01*
X82395595Y-88354556D01*
X82461756Y-88288395D01*
X82513739Y-88210597D01*
X82549546Y-88124152D01*
X82567800Y-88032383D01*
X82567800Y-87938817D01*
X82549546Y-87847048D01*
X82513739Y-87760603D01*
X82461756Y-87682805D01*
X82395595Y-87616644D01*
X82317797Y-87564661D01*
X82231352Y-87528854D01*
X82139583Y-87510600D01*
X82046017Y-87510600D01*
X81954248Y-87528854D01*
X81867803Y-87564661D01*
X81790005Y-87616644D01*
X81723844Y-87682805D01*
X81671861Y-87760603D01*
X81636054Y-87847048D01*
X81617800Y-87938817D01*
X79237074Y-87938817D01*
X79259552Y-87934346D01*
X79345997Y-87898539D01*
X79423795Y-87846556D01*
X79489956Y-87780395D01*
X79541939Y-87702597D01*
X79577746Y-87616152D01*
X79596000Y-87524383D01*
X79596000Y-87430817D01*
X79577746Y-87339048D01*
X79541939Y-87252603D01*
X79489956Y-87174805D01*
X79423795Y-87108644D01*
X79345997Y-87056661D01*
X79259552Y-87020854D01*
X79167783Y-87002600D01*
X79074217Y-87002600D01*
X78982448Y-87020854D01*
X78896003Y-87056661D01*
X78818205Y-87108644D01*
X78752044Y-87174805D01*
X78700061Y-87252603D01*
X78664254Y-87339048D01*
X78646000Y-87430817D01*
X72738000Y-87430817D01*
X72719746Y-87339048D01*
X72683939Y-87252603D01*
X72631956Y-87174805D01*
X72565795Y-87108644D01*
X72487997Y-87056661D01*
X72401552Y-87020854D01*
X72309783Y-87002600D01*
X72216217Y-87002600D01*
X72124448Y-87020854D01*
X72038003Y-87056661D01*
X71960205Y-87108644D01*
X71894044Y-87174805D01*
X71842061Y-87252603D01*
X71806254Y-87339048D01*
X71788000Y-87430817D01*
X71788000Y-87524383D01*
X71806254Y-87616152D01*
X71842061Y-87702597D01*
X71867910Y-87741283D01*
X71821784Y-87787409D01*
X71769801Y-87865207D01*
X71733994Y-87951652D01*
X71715740Y-88043421D01*
X50103075Y-88043421D01*
X50286599Y-86168647D01*
X51836859Y-86168647D01*
X51836859Y-86424725D01*
X51886817Y-86675882D01*
X51984814Y-86912467D01*
X52127083Y-87125388D01*
X52308157Y-87306462D01*
X52521078Y-87448731D01*
X52757663Y-87546728D01*
X53008820Y-87596686D01*
X53264898Y-87596686D01*
X53516055Y-87546728D01*
X53752640Y-87448731D01*
X53817464Y-87405417D01*
X62085200Y-87405417D01*
X62085200Y-87498983D01*
X62103454Y-87590752D01*
X62139261Y-87677197D01*
X62191244Y-87754995D01*
X62257405Y-87821156D01*
X62335203Y-87873139D01*
X62421648Y-87908946D01*
X62513417Y-87927200D01*
X62606983Y-87927200D01*
X62698752Y-87908946D01*
X62785197Y-87873139D01*
X62862995Y-87821156D01*
X62929156Y-87754995D01*
X62981139Y-87677197D01*
X63016946Y-87590752D01*
X63035200Y-87498983D01*
X63035200Y-87405417D01*
X63016946Y-87313648D01*
X62981139Y-87227203D01*
X62929156Y-87149405D01*
X62862995Y-87083244D01*
X62785197Y-87031261D01*
X62698752Y-86995454D01*
X62606983Y-86977200D01*
X62513417Y-86977200D01*
X62421648Y-86995454D01*
X62335203Y-87031261D01*
X62257405Y-87083244D01*
X62191244Y-87149405D01*
X62139261Y-87227203D01*
X62103454Y-87313648D01*
X62085200Y-87405417D01*
X53817464Y-87405417D01*
X53965561Y-87306462D01*
X54146635Y-87125388D01*
X54288904Y-86912467D01*
X54386901Y-86675882D01*
X54435757Y-86430263D01*
X59354136Y-86430263D01*
X59354136Y-86523829D01*
X59372390Y-86615598D01*
X59408197Y-86702043D01*
X59460180Y-86779841D01*
X59526341Y-86846002D01*
X59604139Y-86897985D01*
X59690584Y-86933792D01*
X59782353Y-86952046D01*
X59875919Y-86952046D01*
X59967688Y-86933792D01*
X60054133Y-86897985D01*
X60131931Y-86846002D01*
X60198092Y-86779841D01*
X60250075Y-86702043D01*
X60285882Y-86615598D01*
X60304136Y-86523829D01*
X60304136Y-86430263D01*
X60285882Y-86338494D01*
X60250075Y-86252049D01*
X60198092Y-86174251D01*
X60131931Y-86108090D01*
X60054133Y-86056107D01*
X59967688Y-86020300D01*
X59875919Y-86002046D01*
X59782353Y-86002046D01*
X59690584Y-86020300D01*
X59604139Y-86056107D01*
X59526341Y-86108090D01*
X59460180Y-86174251D01*
X59408197Y-86252049D01*
X59372390Y-86338494D01*
X59354136Y-86430263D01*
X54435757Y-86430263D01*
X54436859Y-86424725D01*
X54436859Y-86168647D01*
X54386901Y-85917490D01*
X54371960Y-85881417D01*
X68841600Y-85881417D01*
X68841600Y-85974983D01*
X68859854Y-86066752D01*
X68895661Y-86153197D01*
X68947644Y-86230995D01*
X69013805Y-86297156D01*
X69091603Y-86349139D01*
X69178048Y-86384946D01*
X69269817Y-86403200D01*
X69363383Y-86403200D01*
X69455152Y-86384946D01*
X69541597Y-86349139D01*
X69619395Y-86297156D01*
X69685556Y-86230995D01*
X69737539Y-86153197D01*
X69773346Y-86066752D01*
X69791600Y-85974983D01*
X69791600Y-85881417D01*
X71153000Y-85881417D01*
X71153000Y-85974983D01*
X71171254Y-86066752D01*
X71207061Y-86153197D01*
X71259044Y-86230995D01*
X71325205Y-86297156D01*
X71403003Y-86349139D01*
X71489448Y-86384946D01*
X71581217Y-86403200D01*
X71674783Y-86403200D01*
X71766552Y-86384946D01*
X71852997Y-86349139D01*
X71930795Y-86297156D01*
X71996956Y-86230995D01*
X72004461Y-86219762D01*
X80979249Y-86219762D01*
X80979249Y-86313328D01*
X80997503Y-86405097D01*
X81033310Y-86491542D01*
X81085293Y-86569340D01*
X81151454Y-86635501D01*
X81229252Y-86687484D01*
X81315697Y-86723291D01*
X81407466Y-86741545D01*
X81501032Y-86741545D01*
X81592801Y-86723291D01*
X81679246Y-86687484D01*
X81757044Y-86635501D01*
X81823205Y-86569340D01*
X81875188Y-86491542D01*
X81910995Y-86405097D01*
X81929249Y-86313328D01*
X81929249Y-86219762D01*
X81919082Y-86168647D01*
X86482341Y-86168647D01*
X86482341Y-86424725D01*
X86532299Y-86675882D01*
X86630296Y-86912467D01*
X86772565Y-87125388D01*
X86953639Y-87306462D01*
X87166560Y-87448731D01*
X87403145Y-87546728D01*
X87654302Y-87596686D01*
X87910380Y-87596686D01*
X88161537Y-87546728D01*
X88398122Y-87448731D01*
X88611043Y-87306462D01*
X88792117Y-87125388D01*
X88934386Y-86912467D01*
X89032383Y-86675882D01*
X89082341Y-86424725D01*
X89082341Y-86168647D01*
X89032383Y-85917490D01*
X88934386Y-85680905D01*
X88792117Y-85467984D01*
X88611043Y-85286910D01*
X88398122Y-85144641D01*
X88161537Y-85046644D01*
X87910380Y-84996686D01*
X87654302Y-84996686D01*
X87403145Y-85046644D01*
X87166560Y-85144641D01*
X86953639Y-85286910D01*
X86772565Y-85467984D01*
X86630296Y-85680905D01*
X86532299Y-85917490D01*
X86482341Y-86168647D01*
X81919082Y-86168647D01*
X81910995Y-86127993D01*
X81875188Y-86041548D01*
X81823205Y-85963750D01*
X81757044Y-85897589D01*
X81679246Y-85845606D01*
X81592801Y-85809799D01*
X81501032Y-85791545D01*
X81407466Y-85791545D01*
X81315697Y-85809799D01*
X81229252Y-85845606D01*
X81151454Y-85897589D01*
X81085293Y-85963750D01*
X81033310Y-86041548D01*
X80997503Y-86127993D01*
X80979249Y-86219762D01*
X72004461Y-86219762D01*
X72048939Y-86153197D01*
X72084746Y-86066752D01*
X72103000Y-85974983D01*
X72103000Y-85881417D01*
X72084746Y-85789648D01*
X72048939Y-85703203D01*
X71996956Y-85625405D01*
X71930795Y-85559244D01*
X71852997Y-85507261D01*
X71766552Y-85471454D01*
X71674783Y-85453200D01*
X71581217Y-85453200D01*
X71489448Y-85471454D01*
X71403003Y-85507261D01*
X71325205Y-85559244D01*
X71259044Y-85625405D01*
X71207061Y-85703203D01*
X71171254Y-85789648D01*
X71153000Y-85881417D01*
X69791600Y-85881417D01*
X69773346Y-85789648D01*
X69737539Y-85703203D01*
X69685556Y-85625405D01*
X69619395Y-85559244D01*
X69541597Y-85507261D01*
X69455152Y-85471454D01*
X69363383Y-85453200D01*
X69269817Y-85453200D01*
X69178048Y-85471454D01*
X69091603Y-85507261D01*
X69013805Y-85559244D01*
X68947644Y-85625405D01*
X68895661Y-85703203D01*
X68859854Y-85789648D01*
X68841600Y-85881417D01*
X54371960Y-85881417D01*
X54288904Y-85680905D01*
X54146635Y-85467984D01*
X53965561Y-85286910D01*
X53752640Y-85144641D01*
X53516055Y-85046644D01*
X53264898Y-84996686D01*
X53008820Y-84996686D01*
X52757663Y-85046644D01*
X52521078Y-85144641D01*
X52308157Y-85286910D01*
X52127083Y-85467984D01*
X51984814Y-85680905D01*
X51886817Y-85917490D01*
X51836859Y-86168647D01*
X50286599Y-86168647D01*
X50288616Y-86148045D01*
X50341763Y-85730275D01*
X50528108Y-84893808D01*
X50536123Y-84872434D01*
X61406417Y-84872434D01*
X61406417Y-84966000D01*
X61424671Y-85057769D01*
X61460478Y-85144214D01*
X61512461Y-85222012D01*
X61578622Y-85288173D01*
X61656420Y-85340156D01*
X61742865Y-85375963D01*
X61834634Y-85394217D01*
X61928200Y-85394217D01*
X62019969Y-85375963D01*
X62106414Y-85340156D01*
X62184212Y-85288173D01*
X62250373Y-85222012D01*
X62302356Y-85144214D01*
X62338163Y-85057769D01*
X62356417Y-84966000D01*
X62356417Y-84872434D01*
X62338163Y-84780665D01*
X62302356Y-84694220D01*
X62250373Y-84616422D01*
X62184212Y-84550261D01*
X62106414Y-84498278D01*
X62019969Y-84462471D01*
X61928200Y-84444217D01*
X61834634Y-84444217D01*
X61742865Y-84462471D01*
X61656420Y-84498278D01*
X61578622Y-84550261D01*
X61512461Y-84616422D01*
X61460478Y-84694220D01*
X61424671Y-84780665D01*
X61406417Y-84872434D01*
X50536123Y-84872434D01*
X50696492Y-84444825D01*
X50778506Y-84255811D01*
X65920600Y-84255811D01*
X65920600Y-84349377D01*
X65938854Y-84441146D01*
X65974661Y-84527591D01*
X66026644Y-84605389D01*
X66092805Y-84671550D01*
X66170603Y-84723533D01*
X66257048Y-84759340D01*
X66348817Y-84777594D01*
X66442383Y-84777594D01*
X66534152Y-84759340D01*
X66620597Y-84723533D01*
X66698395Y-84671550D01*
X66764556Y-84605389D01*
X66816539Y-84527591D01*
X66852346Y-84441146D01*
X66870600Y-84349377D01*
X66870600Y-84255817D01*
X74023200Y-84255817D01*
X74023200Y-84349383D01*
X74041454Y-84441152D01*
X74077261Y-84527597D01*
X74129244Y-84605395D01*
X74195405Y-84671556D01*
X74273203Y-84723539D01*
X74359648Y-84759346D01*
X74451417Y-84777600D01*
X74544983Y-84777600D01*
X74636752Y-84759346D01*
X74723197Y-84723539D01*
X74800995Y-84671556D01*
X74867156Y-84605395D01*
X74919139Y-84527597D01*
X74947546Y-84459017D01*
X75725000Y-84459017D01*
X75725000Y-84552583D01*
X75743254Y-84644352D01*
X75779061Y-84730797D01*
X75831044Y-84808595D01*
X75897205Y-84874756D01*
X75975003Y-84926739D01*
X76061448Y-84962546D01*
X76153217Y-84980800D01*
X76246783Y-84980800D01*
X76338552Y-84962546D01*
X76424997Y-84926739D01*
X76478758Y-84890817D01*
X78519000Y-84890817D01*
X78519000Y-84984383D01*
X78537254Y-85076152D01*
X78573061Y-85162597D01*
X78625044Y-85240395D01*
X78691205Y-85306556D01*
X78769003Y-85358539D01*
X78855448Y-85394346D01*
X78947217Y-85412600D01*
X79040783Y-85412600D01*
X79132552Y-85394346D01*
X79218997Y-85358539D01*
X79296795Y-85306556D01*
X79362956Y-85240395D01*
X79414939Y-85162597D01*
X79450746Y-85076152D01*
X79469000Y-84984383D01*
X79469000Y-84890817D01*
X79450746Y-84799048D01*
X79414939Y-84712603D01*
X79362956Y-84634805D01*
X79296795Y-84568644D01*
X79218997Y-84516661D01*
X79132552Y-84480854D01*
X79040783Y-84462600D01*
X78947217Y-84462600D01*
X78855448Y-84480854D01*
X78769003Y-84516661D01*
X78691205Y-84568644D01*
X78625044Y-84634805D01*
X78573061Y-84712603D01*
X78537254Y-84799048D01*
X78519000Y-84890817D01*
X76478758Y-84890817D01*
X76502795Y-84874756D01*
X76568956Y-84808595D01*
X76620939Y-84730797D01*
X76656746Y-84644352D01*
X76675000Y-84552583D01*
X76675000Y-84459017D01*
X76656746Y-84367248D01*
X76620939Y-84280803D01*
X76568956Y-84203005D01*
X76502795Y-84136844D01*
X76424997Y-84084861D01*
X76338552Y-84049054D01*
X76246783Y-84030800D01*
X76153217Y-84030800D01*
X76061448Y-84049054D01*
X75975003Y-84084861D01*
X75897205Y-84136844D01*
X75831044Y-84203005D01*
X75779061Y-84280803D01*
X75743254Y-84367248D01*
X75725000Y-84459017D01*
X74947546Y-84459017D01*
X74954946Y-84441152D01*
X74973200Y-84349383D01*
X74973200Y-84255817D01*
X74954946Y-84164048D01*
X74919139Y-84077603D01*
X74867156Y-83999805D01*
X74800995Y-83933644D01*
X74723197Y-83881661D01*
X74636752Y-83845854D01*
X74544983Y-83827600D01*
X74451417Y-83827600D01*
X74359648Y-83845854D01*
X74273203Y-83881661D01*
X74195405Y-83933644D01*
X74129244Y-83999805D01*
X74077261Y-84077603D01*
X74041454Y-84164048D01*
X74023200Y-84255817D01*
X66870600Y-84255817D01*
X66870600Y-84255811D01*
X66852346Y-84164042D01*
X66816539Y-84077597D01*
X66764556Y-83999799D01*
X66698395Y-83933638D01*
X66620597Y-83881655D01*
X66534152Y-83845848D01*
X66442383Y-83827594D01*
X66348817Y-83827594D01*
X66257048Y-83845848D01*
X66170603Y-83881655D01*
X66092805Y-83933638D01*
X66026644Y-83999799D01*
X65974661Y-84077597D01*
X65938854Y-84164042D01*
X65920600Y-84255811D01*
X50778506Y-84255811D01*
X51098117Y-83519217D01*
X68888460Y-83519217D01*
X68888460Y-83612783D01*
X68906714Y-83704552D01*
X68942521Y-83790997D01*
X68994504Y-83868795D01*
X69060665Y-83934956D01*
X69138463Y-83986939D01*
X69224908Y-84022746D01*
X69316677Y-84041000D01*
X69410243Y-84041000D01*
X69502012Y-84022746D01*
X69588457Y-83986939D01*
X69666255Y-83934956D01*
X69732416Y-83868795D01*
X69784399Y-83790997D01*
X69820206Y-83704552D01*
X69838460Y-83612783D01*
X69838460Y-83519217D01*
X69833408Y-83493817D01*
X71170810Y-83493817D01*
X71170810Y-83587383D01*
X71189064Y-83679152D01*
X71224871Y-83765597D01*
X71276854Y-83843395D01*
X71343015Y-83909556D01*
X71420813Y-83961539D01*
X71507258Y-83997346D01*
X71599027Y-84015600D01*
X71692593Y-84015600D01*
X71784362Y-83997346D01*
X71870807Y-83961539D01*
X71948605Y-83909556D01*
X72014766Y-83843395D01*
X72066749Y-83765597D01*
X72102556Y-83679152D01*
X72120810Y-83587383D01*
X72120810Y-83493817D01*
X72102556Y-83402048D01*
X72066749Y-83315603D01*
X72014766Y-83237805D01*
X71948605Y-83171644D01*
X71870807Y-83119661D01*
X71784362Y-83083854D01*
X71692593Y-83065600D01*
X71599027Y-83065600D01*
X71507258Y-83083854D01*
X71420813Y-83119661D01*
X71343015Y-83171644D01*
X71276854Y-83237805D01*
X71224871Y-83315603D01*
X71189064Y-83402048D01*
X71170810Y-83493817D01*
X69833408Y-83493817D01*
X69820206Y-83427448D01*
X69784399Y-83341003D01*
X69732416Y-83263205D01*
X69666255Y-83197044D01*
X69588457Y-83145061D01*
X69502012Y-83109254D01*
X69410243Y-83091000D01*
X69316677Y-83091000D01*
X69224908Y-83109254D01*
X69138463Y-83145061D01*
X69060665Y-83197044D01*
X68994504Y-83263205D01*
X68942521Y-83341003D01*
X68906714Y-83427448D01*
X68888460Y-83519217D01*
X51098117Y-83519217D01*
X51329563Y-82985817D01*
X63964800Y-82985817D01*
X63964800Y-83079383D01*
X63983054Y-83171152D01*
X64018861Y-83257597D01*
X64070844Y-83335395D01*
X64137005Y-83401556D01*
X64214803Y-83453539D01*
X64301248Y-83489346D01*
X64393017Y-83507600D01*
X64486583Y-83507600D01*
X64578352Y-83489346D01*
X64664797Y-83453539D01*
X64742595Y-83401556D01*
X64808756Y-83335395D01*
X64860739Y-83257597D01*
X64896546Y-83171152D01*
X64914800Y-83079383D01*
X64914800Y-82985817D01*
X64909748Y-82960417D01*
X76055200Y-82960417D01*
X76055200Y-83053983D01*
X76073454Y-83145752D01*
X76109261Y-83232197D01*
X76161244Y-83309995D01*
X76227405Y-83376156D01*
X76305203Y-83428139D01*
X76391648Y-83463946D01*
X76483417Y-83482200D01*
X76576983Y-83482200D01*
X76668752Y-83463946D01*
X76755197Y-83428139D01*
X76832995Y-83376156D01*
X76899156Y-83309995D01*
X76951139Y-83232197D01*
X76986946Y-83145752D01*
X77005200Y-83053983D01*
X77005200Y-82960417D01*
X76986946Y-82868648D01*
X76951139Y-82782203D01*
X76899156Y-82704405D01*
X76832995Y-82638244D01*
X76755197Y-82586261D01*
X76668752Y-82550454D01*
X76576983Y-82532200D01*
X76483417Y-82532200D01*
X76391648Y-82550454D01*
X76305203Y-82586261D01*
X76227405Y-82638244D01*
X76161244Y-82704405D01*
X76109261Y-82782203D01*
X76073454Y-82868648D01*
X76055200Y-82960417D01*
X64909748Y-82960417D01*
X64896546Y-82894048D01*
X64860739Y-82807603D01*
X64808756Y-82729805D01*
X64742595Y-82663644D01*
X64664797Y-82611661D01*
X64578352Y-82575854D01*
X64486583Y-82557600D01*
X64393017Y-82557600D01*
X64301248Y-82575854D01*
X64214803Y-82611661D01*
X64137005Y-82663644D01*
X64070844Y-82729805D01*
X64018861Y-82807603D01*
X63983054Y-82894048D01*
X63964800Y-82985817D01*
X51329563Y-82985817D01*
X51869601Y-81741217D01*
X66809600Y-81741217D01*
X66809600Y-81834783D01*
X66827854Y-81926552D01*
X66863661Y-82012997D01*
X66915644Y-82090795D01*
X66981805Y-82156956D01*
X67059603Y-82208939D01*
X67146048Y-82244746D01*
X67237817Y-82263000D01*
X67331383Y-82263000D01*
X67423152Y-82244746D01*
X67509597Y-82208939D01*
X67587395Y-82156956D01*
X67653556Y-82090795D01*
X67705539Y-82012997D01*
X67741346Y-81926552D01*
X67759600Y-81834783D01*
X67759600Y-81741217D01*
X67741346Y-81649448D01*
X67705539Y-81563003D01*
X67653556Y-81485205D01*
X67587395Y-81419044D01*
X67509597Y-81367061D01*
X67423152Y-81331254D01*
X67331383Y-81313000D01*
X67237817Y-81313000D01*
X67146048Y-81331254D01*
X67059603Y-81367061D01*
X66981805Y-81419044D01*
X66915644Y-81485205D01*
X66863661Y-81563003D01*
X66827854Y-81649448D01*
X66809600Y-81741217D01*
X51869601Y-81741217D01*
X52874223Y-79425913D01*
X72318898Y-79425913D01*
X72318898Y-79519479D01*
X72337152Y-79611248D01*
X72372959Y-79697693D01*
X72424942Y-79775491D01*
X72491103Y-79841652D01*
X72568901Y-79893635D01*
X72655346Y-79929442D01*
X72747115Y-79947696D01*
X72840681Y-79947696D01*
X72932450Y-79929442D01*
X72989083Y-79905984D01*
X72985061Y-79912003D01*
X72949254Y-79998448D01*
X72931000Y-80090217D01*
X72931000Y-80183783D01*
X72949254Y-80275552D01*
X72985061Y-80361997D01*
X73037044Y-80439795D01*
X73103205Y-80505956D01*
X73181003Y-80557939D01*
X73267448Y-80593746D01*
X73359217Y-80612000D01*
X73452783Y-80612000D01*
X73544552Y-80593746D01*
X73630997Y-80557939D01*
X73708795Y-80505956D01*
X73774956Y-80439795D01*
X73826939Y-80361997D01*
X73862746Y-80275552D01*
X73881000Y-80183783D01*
X73881000Y-80090217D01*
X73862746Y-79998448D01*
X73826939Y-79912003D01*
X73774956Y-79834205D01*
X73708795Y-79768044D01*
X73630997Y-79716061D01*
X73544552Y-79680254D01*
X73452783Y-79662000D01*
X73359217Y-79662000D01*
X73267448Y-79680254D01*
X73210815Y-79703712D01*
X73214837Y-79697693D01*
X73250644Y-79611248D01*
X73268898Y-79519479D01*
X73268898Y-79425913D01*
X73250644Y-79334144D01*
X73214837Y-79247699D01*
X73162854Y-79169901D01*
X73096693Y-79103740D01*
X73018895Y-79051757D01*
X72932450Y-79015950D01*
X72840681Y-78997696D01*
X72747115Y-78997696D01*
X72655346Y-79015950D01*
X72568901Y-79051757D01*
X72491103Y-79103740D01*
X72424942Y-79169901D01*
X72372959Y-79247699D01*
X72337152Y-79334144D01*
X72318898Y-79425913D01*
X52874223Y-79425913D01*
X54351538Y-76021220D01*
X61984286Y-76021220D01*
X61984286Y-76277298D01*
X62034244Y-76528455D01*
X62132241Y-76765040D01*
X62274510Y-76977961D01*
X62455584Y-77159035D01*
X62668505Y-77301304D01*
X62905090Y-77399301D01*
X63156247Y-77449259D01*
X63412325Y-77449259D01*
X63663482Y-77399301D01*
X63900067Y-77301304D01*
X64112988Y-77159035D01*
X64294062Y-76977961D01*
X64436331Y-76765040D01*
X64534328Y-76528455D01*
X64584286Y-76277298D01*
X64584286Y-76021220D01*
X76334914Y-76021220D01*
X76334914Y-76277298D01*
X76384872Y-76528455D01*
X76482869Y-76765040D01*
X76625138Y-76977961D01*
X76806212Y-77159035D01*
X77019133Y-77301304D01*
X77255718Y-77399301D01*
X77506875Y-77449259D01*
X77762953Y-77449259D01*
X78014110Y-77399301D01*
X78250695Y-77301304D01*
X78463616Y-77159035D01*
X78644690Y-76977961D01*
X78786959Y-76765040D01*
X78884956Y-76528455D01*
X78934914Y-76277298D01*
X78934914Y-76021220D01*
X78884956Y-75770063D01*
X78786959Y-75533478D01*
X78644690Y-75320557D01*
X78463616Y-75139483D01*
X78250695Y-74997214D01*
X78014110Y-74899217D01*
X77762953Y-74849259D01*
X77506875Y-74849259D01*
X77255718Y-74899217D01*
X77019133Y-74997214D01*
X76806212Y-75139483D01*
X76625138Y-75320557D01*
X76482869Y-75533478D01*
X76384872Y-75770063D01*
X76334914Y-76021220D01*
X64584286Y-76021220D01*
X64534328Y-75770063D01*
X64436331Y-75533478D01*
X64294062Y-75320557D01*
X64112988Y-75139483D01*
X63900067Y-74997214D01*
X63663482Y-74899217D01*
X63412325Y-74849259D01*
X63156247Y-74849259D01*
X62905090Y-74899217D01*
X62668505Y-74997214D01*
X62455584Y-75139483D01*
X62274510Y-75320557D01*
X62132241Y-75533478D01*
X62034244Y-75770063D01*
X61984286Y-76021220D01*
X54351538Y-76021220D01*
X56445337Y-71195745D01*
X56520489Y-71060479D01*
X56611761Y-70952688D01*
X56722227Y-70864682D01*
X56847685Y-70799808D01*
X56984113Y-70760318D01*
X57128439Y-70747000D01*
X59696147Y-70747000D01*
X59753045Y-70752579D01*
G37*
X59753045Y-70752579D02*
X59794843Y-70765198D01*
X59833382Y-70785690D01*
X59867212Y-70813281D01*
X59895040Y-70846920D01*
X59915804Y-70885321D01*
X59928712Y-70927021D01*
X59934601Y-70983049D01*
X59934600Y-74558497D01*
X59933270Y-74572000D01*
X59938580Y-74625909D01*
X59954304Y-74677747D01*
X59979840Y-74725521D01*
X60014205Y-74767395D01*
X60056079Y-74801760D01*
X60103853Y-74827296D01*
X60155691Y-74843020D01*
X60209600Y-74848330D01*
X60223102Y-74847000D01*
X80696097Y-74847000D01*
X80709599Y-74848330D01*
X80763508Y-74843020D01*
X80815346Y-74827296D01*
X80863120Y-74801760D01*
X80904994Y-74767395D01*
X80939359Y-74725521D01*
X80964895Y-74677747D01*
X80980619Y-74625909D01*
X80984599Y-74585503D01*
X80984599Y-74585502D01*
X80985929Y-74572000D01*
X80984599Y-74558497D01*
X80984599Y-70985453D01*
X80990178Y-70928555D01*
X81002797Y-70886757D01*
X81023289Y-70848218D01*
X81050880Y-70814388D01*
X81084519Y-70786560D01*
X81122920Y-70765796D01*
X81164620Y-70752888D01*
X81220638Y-70747000D01*
X83789961Y-70747000D01*
X83943987Y-70762102D01*
X84079200Y-70802925D01*
X84203905Y-70869233D01*
X84313355Y-70958498D01*
X84403891Y-71067938D01*
X84473560Y-71195042D01*
X90220612Y-84439996D01*
X90490647Y-85253826D01*
X90576232Y-85722093D01*
X90892295Y-88724652D01*
X91056233Y-91742823D01*
X91067263Y-94765422D01*
X90925356Y-97784724D01*
X90630584Y-100795955D01*
X90577436Y-101213727D01*
X90391092Y-102050192D01*
X90222717Y-102499152D01*
X84473868Y-115748247D01*
X84398710Y-115883523D01*
X84307443Y-115991307D01*
X84196971Y-116079319D01*
X84071515Y-116144192D01*
X83935087Y-116183682D01*
X83790750Y-116197001D01*
X81223052Y-116196999D01*
X81166154Y-116191420D01*
X81124356Y-116178801D01*
X81085817Y-116158309D01*
X81051987Y-116130718D01*
X81024157Y-116097077D01*
X81003395Y-116058679D01*
X80990487Y-116016977D01*
X80984599Y-115960960D01*
X80984599Y-112385502D01*
X80985929Y-112371999D01*
X80980619Y-112318090D01*
X80964895Y-112266252D01*
X80939359Y-112218478D01*
X80904994Y-112176604D01*
X80863120Y-112142239D01*
X80815346Y-112116703D01*
X80763508Y-112100979D01*
X80723102Y-112096999D01*
X80723101Y-112096999D01*
X80709599Y-112095669D01*
X80696096Y-112096999D01*
X60223103Y-112096999D01*
X60209600Y-112095669D01*
X60196098Y-112096999D01*
X60196097Y-112096999D01*
X60155691Y-112100979D01*
X60103853Y-112116703D01*
X60056079Y-112142239D01*
X60014205Y-112176604D01*
X59979840Y-112218478D01*
X59954304Y-112266252D01*
X59938580Y-112318090D01*
X59933270Y-112371999D01*
X59934601Y-112385512D01*
X59934600Y-115958546D01*
X59929021Y-116015444D01*
X59916402Y-116057242D01*
X59895910Y-116095781D01*
X59868319Y-116129611D01*
X59834678Y-116157441D01*
X59796280Y-116178203D01*
X59754578Y-116191111D01*
X59698561Y-116196999D01*
X57129229Y-116196999D01*
X56975210Y-116181897D01*
X56840003Y-116141076D01*
X56715296Y-116074768D01*
X56605844Y-115985502D01*
X56515309Y-115876064D01*
X56445648Y-115748972D01*
X54240425Y-110666702D01*
X61984286Y-110666702D01*
X61984286Y-110922780D01*
X62034244Y-111173937D01*
X62132241Y-111410522D01*
X62274510Y-111623443D01*
X62455584Y-111804517D01*
X62668505Y-111946786D01*
X62905090Y-112044783D01*
X63156247Y-112094741D01*
X63412325Y-112094741D01*
X63663482Y-112044783D01*
X63900067Y-111946786D01*
X64112988Y-111804517D01*
X64294062Y-111623443D01*
X64436331Y-111410522D01*
X64534328Y-111173937D01*
X64584286Y-110922780D01*
X64584286Y-110666702D01*
X76334914Y-110666702D01*
X76334914Y-110922780D01*
X76384872Y-111173937D01*
X76482869Y-111410522D01*
X76625138Y-111623443D01*
X76806212Y-111804517D01*
X77019133Y-111946786D01*
X77255718Y-112044783D01*
X77506875Y-112094741D01*
X77762953Y-112094741D01*
X78014110Y-112044783D01*
X78250695Y-111946786D01*
X78463616Y-111804517D01*
X78644690Y-111623443D01*
X78786959Y-111410522D01*
X78884956Y-111173937D01*
X78934914Y-110922780D01*
X78934914Y-110666702D01*
X78884956Y-110415545D01*
X78786959Y-110178960D01*
X78644690Y-109966039D01*
X78463616Y-109784965D01*
X78250695Y-109642696D01*
X78014110Y-109544699D01*
X77762953Y-109494741D01*
X77506875Y-109494741D01*
X77255718Y-109544699D01*
X77019133Y-109642696D01*
X76806212Y-109784965D01*
X76625138Y-109966039D01*
X76482869Y-110178960D01*
X76384872Y-110415545D01*
X76334914Y-110666702D01*
X64584286Y-110666702D01*
X64534328Y-110415545D01*
X64436331Y-110178960D01*
X64294062Y-109966039D01*
X64112988Y-109784965D01*
X63900067Y-109642696D01*
X63663482Y-109544699D01*
X63412325Y-109494741D01*
X63156247Y-109494741D01*
X62905090Y-109544699D01*
X62668505Y-109642696D01*
X62455584Y-109784965D01*
X62274510Y-109966039D01*
X62132241Y-110178960D01*
X62034244Y-110415545D01*
X61984286Y-110666702D01*
X54240425Y-110666702D01*
X52082492Y-105693417D01*
X65819000Y-105693417D01*
X65819000Y-105786983D01*
X65837254Y-105878752D01*
X65873061Y-105965197D01*
X65925044Y-106042995D01*
X65991205Y-106109156D01*
X66069003Y-106161139D01*
X66155448Y-106196946D01*
X66247217Y-106215200D01*
X66340783Y-106215200D01*
X66432552Y-106196946D01*
X66518997Y-106161139D01*
X66596795Y-106109156D01*
X66662956Y-106042995D01*
X66714939Y-105965197D01*
X66750746Y-105878752D01*
X66769000Y-105786983D01*
X66769000Y-105782796D01*
X69044800Y-105782796D01*
X69044800Y-105876362D01*
X69063054Y-105968131D01*
X69098861Y-106054576D01*
X69150844Y-106132374D01*
X69217005Y-106198535D01*
X69294803Y-106250518D01*
X69381248Y-106286325D01*
X69473017Y-106304579D01*
X69566583Y-106304579D01*
X69658352Y-106286325D01*
X69744797Y-106250518D01*
X69822595Y-106198535D01*
X69888756Y-106132374D01*
X69940739Y-106054576D01*
X69976546Y-105968131D01*
X69994800Y-105876362D01*
X69994800Y-105782796D01*
X69976546Y-105691027D01*
X69940739Y-105604582D01*
X69888756Y-105526784D01*
X69822595Y-105460623D01*
X69744797Y-105408640D01*
X69658352Y-105372833D01*
X69566583Y-105354579D01*
X69473017Y-105354579D01*
X69381248Y-105372833D01*
X69294803Y-105408640D01*
X69217005Y-105460623D01*
X69150844Y-105526784D01*
X69098861Y-105604582D01*
X69063054Y-105691027D01*
X69044800Y-105782796D01*
X66769000Y-105782796D01*
X66769000Y-105693417D01*
X66750746Y-105601648D01*
X66714939Y-105515203D01*
X66662956Y-105437405D01*
X66596795Y-105371244D01*
X66555274Y-105343500D01*
X73687317Y-105343500D01*
X73687317Y-105437066D01*
X73705571Y-105528835D01*
X73741378Y-105615280D01*
X73793361Y-105693078D01*
X73859522Y-105759239D01*
X73937320Y-105811222D01*
X74023765Y-105847029D01*
X74115534Y-105865283D01*
X74209100Y-105865283D01*
X74300869Y-105847029D01*
X74387314Y-105811222D01*
X74465112Y-105759239D01*
X74531273Y-105693078D01*
X74583256Y-105615280D01*
X74619063Y-105528835D01*
X74637317Y-105437066D01*
X74637317Y-105343500D01*
X74619063Y-105251731D01*
X74583256Y-105165286D01*
X74531273Y-105087488D01*
X74465112Y-105021327D01*
X74387314Y-104969344D01*
X74300869Y-104933537D01*
X74209100Y-104915283D01*
X74115534Y-104915283D01*
X74023765Y-104933537D01*
X73937320Y-104969344D01*
X73859522Y-105021327D01*
X73793361Y-105087488D01*
X73741378Y-105165286D01*
X73705571Y-105251731D01*
X73687317Y-105343500D01*
X66555274Y-105343500D01*
X66518997Y-105319261D01*
X66432552Y-105283454D01*
X66340783Y-105265200D01*
X66247217Y-105265200D01*
X66155448Y-105283454D01*
X66069003Y-105319261D01*
X65991205Y-105371244D01*
X65925044Y-105437405D01*
X65873061Y-105515203D01*
X65837254Y-105601648D01*
X65819000Y-105693417D01*
X52082492Y-105693417D01*
X51718793Y-104855217D01*
X75725000Y-104855217D01*
X75725000Y-104948783D01*
X75743254Y-105040552D01*
X75779061Y-105126997D01*
X75831044Y-105204795D01*
X75897205Y-105270956D01*
X75975003Y-105322939D01*
X76061448Y-105358746D01*
X76153217Y-105377000D01*
X76246783Y-105377000D01*
X76338552Y-105358746D01*
X76424997Y-105322939D01*
X76502795Y-105270956D01*
X76568956Y-105204795D01*
X76620939Y-105126997D01*
X76656746Y-105040552D01*
X76675000Y-104948783D01*
X76675000Y-104855217D01*
X76656746Y-104763448D01*
X76620939Y-104677003D01*
X76568956Y-104599205D01*
X76502795Y-104533044D01*
X76424997Y-104481061D01*
X76338552Y-104445254D01*
X76246783Y-104427000D01*
X76153217Y-104427000D01*
X76061448Y-104445254D01*
X75975003Y-104481061D01*
X75897205Y-104533044D01*
X75831044Y-104599205D01*
X75779061Y-104677003D01*
X75743254Y-104763448D01*
X75725000Y-104855217D01*
X51718793Y-104855217D01*
X51322029Y-103940817D01*
X63075800Y-103940817D01*
X63075800Y-104034383D01*
X63094054Y-104126152D01*
X63129861Y-104212597D01*
X63181844Y-104290395D01*
X63248005Y-104356556D01*
X63325803Y-104408539D01*
X63412248Y-104444346D01*
X63504017Y-104462600D01*
X63597583Y-104462600D01*
X63689352Y-104444346D01*
X63775797Y-104408539D01*
X63853595Y-104356556D01*
X63919756Y-104290395D01*
X63971739Y-104212597D01*
X64007546Y-104126152D01*
X64025800Y-104034383D01*
X64025800Y-103940817D01*
X64007546Y-103849048D01*
X63971739Y-103762603D01*
X63919756Y-103684805D01*
X63853595Y-103618644D01*
X63775797Y-103566661D01*
X63689352Y-103530854D01*
X63597583Y-103512600D01*
X63504017Y-103512600D01*
X63412248Y-103530854D01*
X63325803Y-103566661D01*
X63248005Y-103618644D01*
X63181844Y-103684805D01*
X63129861Y-103762603D01*
X63094054Y-103849048D01*
X63075800Y-103940817D01*
X51322029Y-103940817D01*
X51090584Y-103407417D01*
X71229200Y-103407417D01*
X71229200Y-103500983D01*
X71247454Y-103592752D01*
X71283261Y-103679197D01*
X71335244Y-103756995D01*
X71401405Y-103823156D01*
X71479203Y-103875139D01*
X71565648Y-103910946D01*
X71657417Y-103929200D01*
X71750983Y-103929200D01*
X71842752Y-103910946D01*
X71929197Y-103875139D01*
X72006995Y-103823156D01*
X72073156Y-103756995D01*
X72125139Y-103679197D01*
X72160946Y-103592752D01*
X72179200Y-103500983D01*
X72179200Y-103407417D01*
X72160946Y-103315648D01*
X72125139Y-103229203D01*
X72073156Y-103151405D01*
X72006995Y-103085244D01*
X71929197Y-103033261D01*
X71851354Y-103001017D01*
X78519000Y-103001017D01*
X78519000Y-103094583D01*
X78537254Y-103186352D01*
X78573061Y-103272797D01*
X78625044Y-103350595D01*
X78691205Y-103416756D01*
X78769003Y-103468739D01*
X78855448Y-103504546D01*
X78947217Y-103522800D01*
X79040783Y-103522800D01*
X79132552Y-103504546D01*
X79218997Y-103468739D01*
X79296795Y-103416756D01*
X79362956Y-103350595D01*
X79414939Y-103272797D01*
X79450746Y-103186352D01*
X79469000Y-103094583D01*
X79469000Y-103001017D01*
X79450746Y-102909248D01*
X79414939Y-102822803D01*
X79362956Y-102745005D01*
X79296795Y-102678844D01*
X79218997Y-102626861D01*
X79132552Y-102591054D01*
X79040783Y-102572800D01*
X78947217Y-102572800D01*
X78855448Y-102591054D01*
X78769003Y-102626861D01*
X78691205Y-102678844D01*
X78625044Y-102745005D01*
X78573061Y-102822803D01*
X78537254Y-102909248D01*
X78519000Y-103001017D01*
X71851354Y-103001017D01*
X71842752Y-102997454D01*
X71750983Y-102979200D01*
X71657417Y-102979200D01*
X71565648Y-102997454D01*
X71479203Y-103033261D01*
X71401405Y-103085244D01*
X71335244Y-103151405D01*
X71283261Y-103229203D01*
X71247454Y-103315648D01*
X71229200Y-103407417D01*
X51090584Y-103407417D01*
X50715865Y-102543821D01*
X65971400Y-102543821D01*
X65971400Y-102637387D01*
X65989654Y-102729156D01*
X66025461Y-102815601D01*
X66077444Y-102893399D01*
X66143605Y-102959560D01*
X66221403Y-103011543D01*
X66307848Y-103047350D01*
X66399617Y-103065604D01*
X66493183Y-103065604D01*
X66584952Y-103047350D01*
X66671397Y-103011543D01*
X66749195Y-102959560D01*
X66815356Y-102893399D01*
X66867339Y-102815601D01*
X66903146Y-102729156D01*
X66921400Y-102637387D01*
X66921400Y-102543821D01*
X66903146Y-102452052D01*
X66867339Y-102365607D01*
X66815356Y-102287809D01*
X66749195Y-102221648D01*
X66671397Y-102169665D01*
X66584952Y-102133858D01*
X66493183Y-102115604D01*
X66399617Y-102115604D01*
X66307848Y-102133858D01*
X66221403Y-102169665D01*
X66143605Y-102221648D01*
X66077444Y-102287809D01*
X66025461Y-102365607D01*
X65989654Y-102452052D01*
X65971400Y-102543821D01*
X50715865Y-102543821D01*
X50698593Y-102504017D01*
X50526385Y-101985017D01*
X61424800Y-101985017D01*
X61424800Y-102078583D01*
X61443054Y-102170352D01*
X61478861Y-102256797D01*
X61530844Y-102334595D01*
X61597005Y-102400756D01*
X61674803Y-102452739D01*
X61761248Y-102488546D01*
X61853017Y-102506800D01*
X61946583Y-102506800D01*
X62038352Y-102488546D01*
X62124797Y-102452739D01*
X62202595Y-102400756D01*
X62268756Y-102334595D01*
X62320739Y-102256797D01*
X62356546Y-102170352D01*
X62374800Y-102078583D01*
X62374800Y-101985017D01*
X62356546Y-101893248D01*
X62320739Y-101806803D01*
X62268756Y-101729005D01*
X62202595Y-101662844D01*
X62124797Y-101610861D01*
X62038352Y-101575054D01*
X61946583Y-101556800D01*
X61853017Y-101556800D01*
X61761248Y-101575054D01*
X61674803Y-101610861D01*
X61597005Y-101662844D01*
X61530844Y-101729005D01*
X61478861Y-101806803D01*
X61443054Y-101893248D01*
X61424800Y-101985017D01*
X50526385Y-101985017D01*
X50428553Y-101690174D01*
X50342967Y-101221906D01*
X50269006Y-100519275D01*
X51836859Y-100519275D01*
X51836859Y-100775353D01*
X51886817Y-101026510D01*
X51984814Y-101263095D01*
X52127083Y-101476016D01*
X52308157Y-101657090D01*
X52521078Y-101799359D01*
X52757663Y-101897356D01*
X53008820Y-101947314D01*
X53264898Y-101947314D01*
X53516055Y-101897356D01*
X53752640Y-101799359D01*
X53965561Y-101657090D01*
X54081874Y-101540777D01*
X63969167Y-101540777D01*
X63969167Y-101634343D01*
X63987421Y-101726112D01*
X64023228Y-101812557D01*
X64075211Y-101890355D01*
X64141372Y-101956516D01*
X64219170Y-102008499D01*
X64305615Y-102044306D01*
X64397384Y-102062560D01*
X64490950Y-102062560D01*
X64582719Y-102044306D01*
X64669164Y-102008499D01*
X64746962Y-101956516D01*
X64813123Y-101890355D01*
X64865106Y-101812557D01*
X64871850Y-101796274D01*
X73506751Y-101796274D01*
X73506751Y-101889840D01*
X73525005Y-101981609D01*
X73560812Y-102068054D01*
X73612795Y-102145852D01*
X73678956Y-102212013D01*
X73756754Y-102263996D01*
X73843199Y-102299803D01*
X73934968Y-102318057D01*
X74028534Y-102318057D01*
X74120303Y-102299803D01*
X74206748Y-102263996D01*
X74284546Y-102212013D01*
X74350707Y-102145852D01*
X74402690Y-102068054D01*
X74438497Y-101981609D01*
X74456751Y-101889840D01*
X74456751Y-101796274D01*
X74438497Y-101704505D01*
X74402690Y-101618060D01*
X74350707Y-101540262D01*
X74335294Y-101524849D01*
X75953600Y-101524849D01*
X75953600Y-101618415D01*
X75971854Y-101710184D01*
X76007661Y-101796629D01*
X76059644Y-101874427D01*
X76125805Y-101940588D01*
X76203603Y-101992571D01*
X76290048Y-102028378D01*
X76381817Y-102046632D01*
X76475383Y-102046632D01*
X76567152Y-102028378D01*
X76653597Y-101992571D01*
X76731395Y-101940588D01*
X76797556Y-101874427D01*
X76849539Y-101796629D01*
X76885346Y-101710184D01*
X76902921Y-101621827D01*
X78218721Y-101621827D01*
X78218721Y-101715393D01*
X78236975Y-101807162D01*
X78272782Y-101893607D01*
X78324765Y-101971405D01*
X78390926Y-102037566D01*
X78468724Y-102089549D01*
X78555169Y-102125356D01*
X78646938Y-102143610D01*
X78740504Y-102143610D01*
X78832273Y-102125356D01*
X78918718Y-102089549D01*
X78996516Y-102037566D01*
X79062677Y-101971405D01*
X79114660Y-101893607D01*
X79150467Y-101807162D01*
X79168721Y-101715393D01*
X79168721Y-101621827D01*
X79150467Y-101530058D01*
X79114660Y-101443613D01*
X79062677Y-101365815D01*
X78996516Y-101299654D01*
X78918718Y-101247671D01*
X78832273Y-101211864D01*
X78740504Y-101193610D01*
X78646938Y-101193610D01*
X78555169Y-101211864D01*
X78468724Y-101247671D01*
X78390926Y-101299654D01*
X78324765Y-101365815D01*
X78272782Y-101443613D01*
X78236975Y-101530058D01*
X78218721Y-101621827D01*
X76902921Y-101621827D01*
X76903600Y-101618415D01*
X76903600Y-101524849D01*
X76885346Y-101433080D01*
X76849539Y-101346635D01*
X76797556Y-101268837D01*
X76731395Y-101202676D01*
X76653597Y-101150693D01*
X76567152Y-101114886D01*
X76475383Y-101096632D01*
X76381817Y-101096632D01*
X76290048Y-101114886D01*
X76203603Y-101150693D01*
X76125805Y-101202676D01*
X76059644Y-101268837D01*
X76007661Y-101346635D01*
X75971854Y-101433080D01*
X75953600Y-101524849D01*
X74335294Y-101524849D01*
X74284546Y-101474101D01*
X74206748Y-101422118D01*
X74120303Y-101386311D01*
X74028534Y-101368057D01*
X73934968Y-101368057D01*
X73843199Y-101386311D01*
X73756754Y-101422118D01*
X73678956Y-101474101D01*
X73612795Y-101540262D01*
X73560812Y-101618060D01*
X73525005Y-101704505D01*
X73506751Y-101796274D01*
X64871850Y-101796274D01*
X64900913Y-101726112D01*
X64919167Y-101634343D01*
X64919167Y-101540777D01*
X64900913Y-101449008D01*
X64865106Y-101362563D01*
X64813123Y-101284765D01*
X64746962Y-101218604D01*
X64669164Y-101166621D01*
X64582719Y-101130814D01*
X64490950Y-101112560D01*
X64397384Y-101112560D01*
X64305615Y-101130814D01*
X64219170Y-101166621D01*
X64141372Y-101218604D01*
X64075211Y-101284765D01*
X64023228Y-101362563D01*
X63987421Y-101449008D01*
X63969167Y-101540777D01*
X54081874Y-101540777D01*
X54146635Y-101476016D01*
X54288904Y-101263095D01*
X54386901Y-101026510D01*
X54436859Y-100775353D01*
X54436859Y-100519275D01*
X54386901Y-100268118D01*
X54288904Y-100031533D01*
X54185527Y-99876817D01*
X64422000Y-99876817D01*
X64422000Y-99970383D01*
X64440254Y-100062152D01*
X64476061Y-100148597D01*
X64528044Y-100226395D01*
X64594205Y-100292556D01*
X64672003Y-100344539D01*
X64683106Y-100349138D01*
X64657705Y-100366110D01*
X64591544Y-100432271D01*
X64539561Y-100510069D01*
X64503754Y-100596514D01*
X64485500Y-100688283D01*
X64485500Y-100781849D01*
X64503754Y-100873618D01*
X64539561Y-100960063D01*
X64591544Y-101037861D01*
X64657705Y-101104022D01*
X64735503Y-101156005D01*
X64821948Y-101191812D01*
X64913717Y-101210066D01*
X65007283Y-101210066D01*
X65099052Y-101191812D01*
X65185497Y-101156005D01*
X65263295Y-101104022D01*
X65329456Y-101037861D01*
X65381439Y-100960063D01*
X65417246Y-100873618D01*
X65435500Y-100781849D01*
X65435500Y-100688283D01*
X65417246Y-100596514D01*
X65381439Y-100510069D01*
X65329456Y-100432271D01*
X65282002Y-100384817D01*
X67216000Y-100384817D01*
X67216000Y-100478383D01*
X67234254Y-100570152D01*
X67270061Y-100656597D01*
X67322044Y-100734395D01*
X67388205Y-100800556D01*
X67466003Y-100852539D01*
X67552448Y-100888346D01*
X67644217Y-100906600D01*
X67737783Y-100906600D01*
X67829552Y-100888346D01*
X67915997Y-100852539D01*
X67993795Y-100800556D01*
X68059956Y-100734395D01*
X68111939Y-100656597D01*
X68140346Y-100588017D01*
X80932000Y-100588017D01*
X80932000Y-100681583D01*
X80950254Y-100773352D01*
X80986061Y-100859797D01*
X81038044Y-100937595D01*
X81104205Y-101003756D01*
X81182003Y-101055739D01*
X81268448Y-101091546D01*
X81360217Y-101109800D01*
X81453783Y-101109800D01*
X81545552Y-101091546D01*
X81631997Y-101055739D01*
X81709795Y-101003756D01*
X81775956Y-100937595D01*
X81827939Y-100859797D01*
X81863746Y-100773352D01*
X81882000Y-100681583D01*
X81882000Y-100588017D01*
X81868327Y-100519275D01*
X86482341Y-100519275D01*
X86482341Y-100775353D01*
X86532299Y-101026510D01*
X86630296Y-101263095D01*
X86772565Y-101476016D01*
X86953639Y-101657090D01*
X87166560Y-101799359D01*
X87403145Y-101897356D01*
X87654302Y-101947314D01*
X87910380Y-101947314D01*
X88161537Y-101897356D01*
X88398122Y-101799359D01*
X88611043Y-101657090D01*
X88792117Y-101476016D01*
X88934386Y-101263095D01*
X89032383Y-101026510D01*
X89082341Y-100775353D01*
X89082341Y-100519275D01*
X89032383Y-100268118D01*
X88934386Y-100031533D01*
X88792117Y-99818612D01*
X88611043Y-99637538D01*
X88398122Y-99495269D01*
X88161537Y-99397272D01*
X87910380Y-99347314D01*
X87654302Y-99347314D01*
X87403145Y-99397272D01*
X87166560Y-99495269D01*
X86953639Y-99637538D01*
X86772565Y-99818612D01*
X86630296Y-100031533D01*
X86532299Y-100268118D01*
X86482341Y-100519275D01*
X81868327Y-100519275D01*
X81863746Y-100496248D01*
X81827939Y-100409803D01*
X81775956Y-100332005D01*
X81709795Y-100265844D01*
X81631997Y-100213861D01*
X81545552Y-100178054D01*
X81453783Y-100159800D01*
X81360217Y-100159800D01*
X81268448Y-100178054D01*
X81182003Y-100213861D01*
X81104205Y-100265844D01*
X81038044Y-100332005D01*
X80986061Y-100409803D01*
X80950254Y-100496248D01*
X80932000Y-100588017D01*
X68140346Y-100588017D01*
X68147746Y-100570152D01*
X68166000Y-100478383D01*
X68166000Y-100384817D01*
X68147746Y-100293048D01*
X68111939Y-100206603D01*
X68059956Y-100128805D01*
X67993795Y-100062644D01*
X67943763Y-100029213D01*
X69502000Y-100029213D01*
X69502000Y-100122779D01*
X69520254Y-100214548D01*
X69556061Y-100300993D01*
X69608044Y-100378791D01*
X69674205Y-100444952D01*
X69752003Y-100496935D01*
X69838448Y-100532742D01*
X69930217Y-100550996D01*
X70023783Y-100550996D01*
X70115552Y-100532742D01*
X70201997Y-100496935D01*
X70279795Y-100444952D01*
X70345956Y-100378791D01*
X70397939Y-100300993D01*
X70433746Y-100214548D01*
X70452000Y-100122779D01*
X70452000Y-100029213D01*
X70433746Y-99937444D01*
X70397939Y-99850999D01*
X70345956Y-99773201D01*
X70279795Y-99707040D01*
X70201997Y-99655057D01*
X70115552Y-99619250D01*
X70023783Y-99600996D01*
X69930217Y-99600996D01*
X69838448Y-99619250D01*
X69752003Y-99655057D01*
X69674205Y-99707040D01*
X69608044Y-99773201D01*
X69556061Y-99850999D01*
X69520254Y-99937444D01*
X69502000Y-100029213D01*
X67943763Y-100029213D01*
X67915997Y-100010661D01*
X67829552Y-99974854D01*
X67737783Y-99956600D01*
X67644217Y-99956600D01*
X67552448Y-99974854D01*
X67466003Y-100010661D01*
X67388205Y-100062644D01*
X67322044Y-100128805D01*
X67270061Y-100206603D01*
X67234254Y-100293048D01*
X67216000Y-100384817D01*
X65282002Y-100384817D01*
X65263295Y-100366110D01*
X65185497Y-100314127D01*
X65174394Y-100309528D01*
X65199795Y-100292556D01*
X65265956Y-100226395D01*
X65317939Y-100148597D01*
X65353746Y-100062152D01*
X65372000Y-99970383D01*
X65372000Y-99876817D01*
X65353746Y-99785048D01*
X65317939Y-99698603D01*
X65265956Y-99620805D01*
X65199795Y-99554644D01*
X65121997Y-99502661D01*
X65035552Y-99466854D01*
X64943783Y-99448600D01*
X64850217Y-99448600D01*
X64758448Y-99466854D01*
X64672003Y-99502661D01*
X64594205Y-99554644D01*
X64528044Y-99620805D01*
X64476061Y-99698603D01*
X64440254Y-99785048D01*
X64422000Y-99876817D01*
X54185527Y-99876817D01*
X54146635Y-99818612D01*
X53965561Y-99637538D01*
X53752640Y-99495269D01*
X53516055Y-99397272D01*
X53264898Y-99347314D01*
X53008820Y-99347314D01*
X52757663Y-99397272D01*
X52521078Y-99495269D01*
X52308157Y-99637538D01*
X52127083Y-99818612D01*
X51984814Y-100031533D01*
X51886817Y-100268118D01*
X51836859Y-100519275D01*
X50269006Y-100519275D01*
X50118493Y-99089417D01*
X58859400Y-99089417D01*
X58859400Y-99182983D01*
X58877654Y-99274752D01*
X58913461Y-99361197D01*
X58965444Y-99438995D01*
X59031605Y-99505156D01*
X59109403Y-99557139D01*
X59195848Y-99592946D01*
X59287617Y-99611200D01*
X59381183Y-99611200D01*
X59472952Y-99592946D01*
X59559397Y-99557139D01*
X59637195Y-99505156D01*
X59703356Y-99438995D01*
X59755339Y-99361197D01*
X59791146Y-99274752D01*
X59809400Y-99182983D01*
X59809400Y-99089417D01*
X59794243Y-99013217D01*
X70010000Y-99013217D01*
X70010000Y-99106783D01*
X70028254Y-99198552D01*
X70064061Y-99284997D01*
X70116044Y-99362795D01*
X70182205Y-99428956D01*
X70260003Y-99480939D01*
X70346448Y-99516746D01*
X70438217Y-99535000D01*
X70531783Y-99535000D01*
X70623552Y-99516746D01*
X70709997Y-99480939D01*
X70787795Y-99428956D01*
X70853956Y-99362795D01*
X70905939Y-99284997D01*
X70933116Y-99219385D01*
X74357663Y-99219385D01*
X74357663Y-99312951D01*
X74375917Y-99404720D01*
X74411724Y-99491165D01*
X74463707Y-99568963D01*
X74529868Y-99635124D01*
X74607666Y-99687107D01*
X74694111Y-99722914D01*
X74785880Y-99741168D01*
X74879446Y-99741168D01*
X74971215Y-99722914D01*
X75057660Y-99687107D01*
X75135458Y-99635124D01*
X75201619Y-99568963D01*
X75253602Y-99491165D01*
X75289409Y-99404720D01*
X75291498Y-99394217D01*
X78061798Y-99394217D01*
X78061798Y-99487783D01*
X78080052Y-99579552D01*
X78115859Y-99665997D01*
X78167842Y-99743795D01*
X78234003Y-99809956D01*
X78311801Y-99861939D01*
X78398246Y-99897746D01*
X78490015Y-99916000D01*
X78583581Y-99916000D01*
X78675350Y-99897746D01*
X78761795Y-99861939D01*
X78839593Y-99809956D01*
X78905754Y-99743795D01*
X78957737Y-99665997D01*
X78993544Y-99579552D01*
X79011798Y-99487783D01*
X79011798Y-99394217D01*
X78993544Y-99302448D01*
X78957737Y-99216003D01*
X78905754Y-99138205D01*
X78839593Y-99072044D01*
X78761795Y-99020061D01*
X78675350Y-98984254D01*
X78583581Y-98966000D01*
X78490015Y-98966000D01*
X78398246Y-98984254D01*
X78311801Y-99020061D01*
X78234003Y-99072044D01*
X78167842Y-99138205D01*
X78115859Y-99216003D01*
X78080052Y-99302448D01*
X78061798Y-99394217D01*
X75291498Y-99394217D01*
X75307663Y-99312951D01*
X75307663Y-99219385D01*
X75289409Y-99127616D01*
X75253602Y-99041171D01*
X75201619Y-98963373D01*
X75135458Y-98897212D01*
X75057660Y-98845229D01*
X74971215Y-98809422D01*
X74879446Y-98791168D01*
X74785880Y-98791168D01*
X74694111Y-98809422D01*
X74607666Y-98845229D01*
X74529868Y-98897212D01*
X74463707Y-98963373D01*
X74411724Y-99041171D01*
X74375917Y-99127616D01*
X74357663Y-99219385D01*
X70933116Y-99219385D01*
X70941746Y-99198552D01*
X70960000Y-99106783D01*
X70960000Y-99013217D01*
X70941746Y-98921448D01*
X70905939Y-98835003D01*
X70853956Y-98757205D01*
X70787795Y-98691044D01*
X70709997Y-98639061D01*
X70623552Y-98603254D01*
X70531783Y-98585000D01*
X70438217Y-98585000D01*
X70346448Y-98603254D01*
X70260003Y-98639061D01*
X70182205Y-98691044D01*
X70116044Y-98757205D01*
X70064061Y-98835003D01*
X70028254Y-98921448D01*
X70010000Y-99013217D01*
X59794243Y-99013217D01*
X59791146Y-98997648D01*
X59755339Y-98911203D01*
X59703356Y-98833405D01*
X59637195Y-98767244D01*
X59559397Y-98715261D01*
X59472952Y-98679454D01*
X59381183Y-98661200D01*
X59287617Y-98661200D01*
X59195848Y-98679454D01*
X59109403Y-98715261D01*
X59031605Y-98767244D01*
X58965444Y-98833405D01*
X58913461Y-98911203D01*
X58877654Y-98997648D01*
X58859400Y-99089417D01*
X50118493Y-99089417D01*
X50026905Y-98219348D01*
X49988627Y-97514617D01*
X57665600Y-97514617D01*
X57665600Y-97608183D01*
X57683854Y-97699952D01*
X57719661Y-97786397D01*
X57771644Y-97864195D01*
X57837805Y-97930356D01*
X57915603Y-97982339D01*
X58002048Y-98018146D01*
X58093817Y-98036400D01*
X58187383Y-98036400D01*
X58279152Y-98018146D01*
X58365597Y-97982339D01*
X58443395Y-97930356D01*
X58509556Y-97864195D01*
X58561539Y-97786397D01*
X58597346Y-97699952D01*
X58615600Y-97608183D01*
X58615600Y-97514617D01*
X58605496Y-97463817D01*
X60934610Y-97463817D01*
X60934610Y-97557383D01*
X60952864Y-97649152D01*
X60988671Y-97735597D01*
X61040654Y-97813395D01*
X61106815Y-97879556D01*
X61184613Y-97931539D01*
X61271058Y-97967346D01*
X61362827Y-97985600D01*
X61456393Y-97985600D01*
X61548162Y-97967346D01*
X61634607Y-97931539D01*
X61712405Y-97879556D01*
X61778566Y-97813395D01*
X61830549Y-97735597D01*
X61866356Y-97649152D01*
X61884610Y-97557383D01*
X61884610Y-97463817D01*
X66784200Y-97463817D01*
X66784200Y-97557383D01*
X66802454Y-97649152D01*
X66838261Y-97735597D01*
X66890244Y-97813395D01*
X66956405Y-97879556D01*
X67034203Y-97931539D01*
X67120648Y-97967346D01*
X67212417Y-97985600D01*
X67305983Y-97985600D01*
X67397752Y-97967346D01*
X67484197Y-97931539D01*
X67561995Y-97879556D01*
X67628156Y-97813395D01*
X67680139Y-97735597D01*
X67715946Y-97649152D01*
X67734200Y-97557383D01*
X67734200Y-97467594D01*
X75879630Y-97467594D01*
X75879630Y-97561160D01*
X75897884Y-97652929D01*
X75933691Y-97739374D01*
X75985674Y-97817172D01*
X76051835Y-97883333D01*
X76129633Y-97935316D01*
X76216078Y-97971123D01*
X76307847Y-97989377D01*
X76382789Y-97989377D01*
X76385431Y-98002661D01*
X76421238Y-98089106D01*
X76473221Y-98166904D01*
X76539382Y-98233065D01*
X76617180Y-98285048D01*
X76703625Y-98320855D01*
X76795394Y-98339109D01*
X76888960Y-98339109D01*
X76980729Y-98320855D01*
X77067174Y-98285048D01*
X77144972Y-98233065D01*
X77211133Y-98166904D01*
X77263116Y-98089106D01*
X77298923Y-98002661D01*
X77317177Y-97910892D01*
X77317177Y-97817326D01*
X77298923Y-97725557D01*
X77274675Y-97667017D01*
X79890600Y-97667017D01*
X79890600Y-97760583D01*
X79908854Y-97852352D01*
X79944661Y-97938797D01*
X79996644Y-98016595D01*
X80062805Y-98082756D01*
X80140603Y-98134739D01*
X80227048Y-98170546D01*
X80318817Y-98188800D01*
X80412383Y-98188800D01*
X80504152Y-98170546D01*
X80590597Y-98134739D01*
X80668395Y-98082756D01*
X80734556Y-98016595D01*
X80786539Y-97938797D01*
X80822346Y-97852352D01*
X80840600Y-97760583D01*
X80840600Y-97717817D01*
X82278200Y-97717817D01*
X82278200Y-97811383D01*
X82296454Y-97903152D01*
X82332261Y-97989597D01*
X82384244Y-98067395D01*
X82450405Y-98133556D01*
X82528203Y-98185539D01*
X82614648Y-98221346D01*
X82706417Y-98239600D01*
X82799983Y-98239600D01*
X82891752Y-98221346D01*
X82978197Y-98185539D01*
X83055995Y-98133556D01*
X83121500Y-98068051D01*
X83187005Y-98133556D01*
X83264803Y-98185539D01*
X83351248Y-98221346D01*
X83443017Y-98239600D01*
X83536583Y-98239600D01*
X83628352Y-98221346D01*
X83714797Y-98185539D01*
X83792595Y-98133556D01*
X83858756Y-98067395D01*
X83910739Y-97989597D01*
X83946546Y-97903152D01*
X83964800Y-97811383D01*
X83964800Y-97717817D01*
X83946546Y-97626048D01*
X83910739Y-97539603D01*
X83858756Y-97461805D01*
X83792595Y-97395644D01*
X83714797Y-97343661D01*
X83628352Y-97307854D01*
X83536583Y-97289600D01*
X83443017Y-97289600D01*
X83351248Y-97307854D01*
X83264803Y-97343661D01*
X83187005Y-97395644D01*
X83121500Y-97461149D01*
X83055995Y-97395644D01*
X82978197Y-97343661D01*
X82891752Y-97307854D01*
X82799983Y-97289600D01*
X82706417Y-97289600D01*
X82614648Y-97307854D01*
X82528203Y-97343661D01*
X82450405Y-97395644D01*
X82384244Y-97461805D01*
X82332261Y-97539603D01*
X82296454Y-97626048D01*
X82278200Y-97717817D01*
X80840600Y-97717817D01*
X80840600Y-97667017D01*
X80822346Y-97575248D01*
X80786539Y-97488803D01*
X80734556Y-97411005D01*
X80668395Y-97344844D01*
X80590597Y-97292861D01*
X80504152Y-97257054D01*
X80412383Y-97238800D01*
X80318817Y-97238800D01*
X80227048Y-97257054D01*
X80140603Y-97292861D01*
X80062805Y-97344844D01*
X79996644Y-97411005D01*
X79944661Y-97488803D01*
X79908854Y-97575248D01*
X79890600Y-97667017D01*
X77274675Y-97667017D01*
X77263116Y-97639112D01*
X77211133Y-97561314D01*
X77144972Y-97495153D01*
X77067174Y-97443170D01*
X76980729Y-97407363D01*
X76888960Y-97389109D01*
X76814018Y-97389109D01*
X76811376Y-97375825D01*
X76775569Y-97289380D01*
X76723586Y-97211582D01*
X76657425Y-97145421D01*
X76579627Y-97093438D01*
X76493182Y-97057631D01*
X76401413Y-97039377D01*
X76307847Y-97039377D01*
X76216078Y-97057631D01*
X76129633Y-97093438D01*
X76051835Y-97145421D01*
X75985674Y-97211582D01*
X75933691Y-97289380D01*
X75897884Y-97375825D01*
X75879630Y-97467594D01*
X67734200Y-97467594D01*
X67734200Y-97463817D01*
X67715946Y-97372048D01*
X67680139Y-97285603D01*
X67628156Y-97207805D01*
X67561995Y-97141644D01*
X67484197Y-97089661D01*
X67397752Y-97053854D01*
X67305983Y-97035600D01*
X67212417Y-97035600D01*
X67120648Y-97053854D01*
X67034203Y-97089661D01*
X66956405Y-97141644D01*
X66890244Y-97207805D01*
X66838261Y-97285603D01*
X66802454Y-97372048D01*
X66784200Y-97463817D01*
X61884610Y-97463817D01*
X61866356Y-97372048D01*
X61830549Y-97285603D01*
X61778566Y-97207805D01*
X61712405Y-97141644D01*
X61634607Y-97089661D01*
X61548162Y-97053854D01*
X61456393Y-97035600D01*
X61362827Y-97035600D01*
X61271058Y-97053854D01*
X61184613Y-97089661D01*
X61106815Y-97141644D01*
X61040654Y-97207805D01*
X60988671Y-97285603D01*
X60952864Y-97372048D01*
X60934610Y-97463817D01*
X58605496Y-97463817D01*
X58597346Y-97422848D01*
X58561539Y-97336403D01*
X58509556Y-97258605D01*
X58443395Y-97192444D01*
X58365597Y-97140461D01*
X58279152Y-97104654D01*
X58187383Y-97086400D01*
X58093817Y-97086400D01*
X58002048Y-97104654D01*
X57915603Y-97140461D01*
X57837805Y-97192444D01*
X57771644Y-97258605D01*
X57719661Y-97336403D01*
X57683854Y-97422848D01*
X57665600Y-97514617D01*
X49988627Y-97514617D01*
X49929302Y-96422417D01*
X60898990Y-96422417D01*
X60898990Y-96515983D01*
X60917244Y-96607752D01*
X60953051Y-96694197D01*
X61005034Y-96771995D01*
X61071195Y-96838156D01*
X61148993Y-96890139D01*
X61235438Y-96925946D01*
X61327207Y-96944200D01*
X61420773Y-96944200D01*
X61512542Y-96925946D01*
X61598987Y-96890139D01*
X61676785Y-96838156D01*
X61686124Y-96828817D01*
X70543400Y-96828817D01*
X70543400Y-96922383D01*
X70561654Y-97014152D01*
X70597461Y-97100597D01*
X70649444Y-97178395D01*
X70715605Y-97244556D01*
X70793403Y-97296539D01*
X70879848Y-97332346D01*
X70971617Y-97350600D01*
X71065183Y-97350600D01*
X71156952Y-97332346D01*
X71243397Y-97296539D01*
X71321195Y-97244556D01*
X71387356Y-97178395D01*
X71439339Y-97100597D01*
X71475146Y-97014152D01*
X71493400Y-96922383D01*
X71493400Y-96830219D01*
X71915000Y-96830219D01*
X71915000Y-96923785D01*
X71933254Y-97015554D01*
X71969061Y-97101999D01*
X72021044Y-97179797D01*
X72087205Y-97245958D01*
X72165003Y-97297941D01*
X72251448Y-97333748D01*
X72343217Y-97352002D01*
X72436783Y-97352002D01*
X72528552Y-97333748D01*
X72614997Y-97297941D01*
X72692795Y-97245958D01*
X72758956Y-97179797D01*
X72810939Y-97101999D01*
X72846746Y-97015554D01*
X72853576Y-96981217D01*
X76846540Y-96981217D01*
X76846540Y-97074783D01*
X76864794Y-97166552D01*
X76900601Y-97252997D01*
X76952584Y-97330795D01*
X77018745Y-97396956D01*
X77096543Y-97448939D01*
X77182988Y-97484746D01*
X77274757Y-97503000D01*
X77368323Y-97503000D01*
X77460092Y-97484746D01*
X77546537Y-97448939D01*
X77624335Y-97396956D01*
X77690496Y-97330795D01*
X77742479Y-97252997D01*
X77778286Y-97166552D01*
X77796540Y-97074783D01*
X77796540Y-96981217D01*
X77778286Y-96889448D01*
X77742479Y-96803003D01*
X77690496Y-96725205D01*
X77624335Y-96659044D01*
X77546537Y-96607061D01*
X77460092Y-96571254D01*
X77368323Y-96553000D01*
X77274757Y-96553000D01*
X77182988Y-96571254D01*
X77096543Y-96607061D01*
X77018745Y-96659044D01*
X76952584Y-96725205D01*
X76900601Y-96803003D01*
X76864794Y-96889448D01*
X76846540Y-96981217D01*
X72853576Y-96981217D01*
X72865000Y-96923785D01*
X72865000Y-96830219D01*
X72846746Y-96738450D01*
X72810939Y-96652005D01*
X72758956Y-96574207D01*
X72692795Y-96508046D01*
X72614997Y-96456063D01*
X72528552Y-96420256D01*
X72436783Y-96402002D01*
X72343217Y-96402002D01*
X72251448Y-96420256D01*
X72165003Y-96456063D01*
X72087205Y-96508046D01*
X72021044Y-96574207D01*
X71969061Y-96652005D01*
X71933254Y-96738450D01*
X71915000Y-96830219D01*
X71493400Y-96830219D01*
X71493400Y-96828817D01*
X71475146Y-96737048D01*
X71439339Y-96650603D01*
X71387356Y-96572805D01*
X71321195Y-96506644D01*
X71243397Y-96454661D01*
X71156952Y-96418854D01*
X71065183Y-96400600D01*
X70971617Y-96400600D01*
X70879848Y-96418854D01*
X70793403Y-96454661D01*
X70715605Y-96506644D01*
X70649444Y-96572805D01*
X70597461Y-96650603D01*
X70561654Y-96737048D01*
X70543400Y-96828817D01*
X61686124Y-96828817D01*
X61742946Y-96771995D01*
X61794929Y-96694197D01*
X61830736Y-96607752D01*
X61848990Y-96515983D01*
X61848990Y-96422417D01*
X61830736Y-96330648D01*
X61794929Y-96244203D01*
X61742946Y-96166405D01*
X61676785Y-96100244D01*
X61598987Y-96048261D01*
X61512542Y-96012454D01*
X61420773Y-95994200D01*
X61327207Y-95994200D01*
X61235438Y-96012454D01*
X61148993Y-96048261D01*
X61071195Y-96100244D01*
X61005034Y-96166405D01*
X60953051Y-96244203D01*
X60917244Y-96330648D01*
X60898990Y-96422417D01*
X49929302Y-96422417D01*
X49900329Y-95889017D01*
X56065400Y-95889017D01*
X56065400Y-95982583D01*
X56083654Y-96074352D01*
X56119461Y-96160797D01*
X56171444Y-96238595D01*
X56237605Y-96304756D01*
X56315403Y-96356739D01*
X56401848Y-96392546D01*
X56493617Y-96410800D01*
X56587183Y-96410800D01*
X56678952Y-96392546D01*
X56765397Y-96356739D01*
X56843195Y-96304756D01*
X56909356Y-96238595D01*
X56961339Y-96160797D01*
X56997146Y-96074352D01*
X57015400Y-95982583D01*
X57015400Y-95889017D01*
X56997146Y-95797248D01*
X56961339Y-95710803D01*
X56909356Y-95633005D01*
X56843195Y-95566844D01*
X56775200Y-95521411D01*
X64091898Y-95521411D01*
X64091898Y-95614977D01*
X64110152Y-95706746D01*
X64145959Y-95793191D01*
X64197942Y-95870989D01*
X64264103Y-95937150D01*
X64341901Y-95989133D01*
X64428346Y-96024940D01*
X64520115Y-96043194D01*
X64613681Y-96043194D01*
X64705450Y-96024940D01*
X64791895Y-95989133D01*
X64869693Y-95937150D01*
X64935854Y-95870989D01*
X64987837Y-95793191D01*
X64990231Y-95787411D01*
X77858600Y-95787411D01*
X77858600Y-95880977D01*
X77876854Y-95972746D01*
X77912661Y-96059191D01*
X77964644Y-96136989D01*
X77974560Y-96146905D01*
X77964648Y-96156816D01*
X77912665Y-96234614D01*
X77876858Y-96321059D01*
X77858604Y-96412828D01*
X77858604Y-96506394D01*
X77876858Y-96598163D01*
X77912665Y-96684608D01*
X77964648Y-96762406D01*
X78030809Y-96828567D01*
X78108607Y-96880550D01*
X78195052Y-96916357D01*
X78286821Y-96934611D01*
X78380387Y-96934611D01*
X78472156Y-96916357D01*
X78558601Y-96880550D01*
X78636399Y-96828567D01*
X78702560Y-96762406D01*
X78754543Y-96684608D01*
X78790350Y-96598163D01*
X78808604Y-96506394D01*
X78808604Y-96412828D01*
X78790350Y-96321059D01*
X78754543Y-96234614D01*
X78702560Y-96156816D01*
X78692645Y-96146901D01*
X78702556Y-96136989D01*
X78754539Y-96059191D01*
X78790346Y-95972746D01*
X78808600Y-95880977D01*
X78808600Y-95787411D01*
X78790346Y-95695642D01*
X78754539Y-95609197D01*
X78702556Y-95531399D01*
X78636395Y-95465238D01*
X78558597Y-95413255D01*
X78472152Y-95377448D01*
X78380383Y-95359194D01*
X78286817Y-95359194D01*
X78195048Y-95377448D01*
X78108603Y-95413255D01*
X78030805Y-95465238D01*
X77964644Y-95531399D01*
X77912661Y-95609197D01*
X77876854Y-95695642D01*
X77858600Y-95787411D01*
X64990231Y-95787411D01*
X65023644Y-95706746D01*
X65041898Y-95614977D01*
X65041898Y-95521411D01*
X65023644Y-95429642D01*
X64987837Y-95343197D01*
X64935854Y-95265399D01*
X64899072Y-95228617D01*
X84005400Y-95228617D01*
X84005400Y-95322183D01*
X84023654Y-95413952D01*
X84059461Y-95500397D01*
X84111444Y-95578195D01*
X84177605Y-95644356D01*
X84255403Y-95696339D01*
X84341848Y-95732146D01*
X84433617Y-95750400D01*
X84527183Y-95750400D01*
X84618952Y-95732146D01*
X84705397Y-95696339D01*
X84783195Y-95644356D01*
X84849356Y-95578195D01*
X84901339Y-95500397D01*
X84937146Y-95413952D01*
X84955400Y-95322183D01*
X84955400Y-95228617D01*
X84937146Y-95136848D01*
X84901339Y-95050403D01*
X84849356Y-94972605D01*
X84783195Y-94906444D01*
X84705397Y-94854461D01*
X84618952Y-94818654D01*
X84527183Y-94800400D01*
X84433617Y-94800400D01*
X84341848Y-94818654D01*
X84255403Y-94854461D01*
X84177605Y-94906444D01*
X84111444Y-94972605D01*
X84059461Y-95050403D01*
X84023654Y-95136848D01*
X84005400Y-95228617D01*
X64899072Y-95228617D01*
X64869693Y-95199238D01*
X64791895Y-95147255D01*
X64705450Y-95111448D01*
X64613681Y-95093194D01*
X64520115Y-95093194D01*
X64428346Y-95111448D01*
X64341901Y-95147255D01*
X64264103Y-95199238D01*
X64197942Y-95265399D01*
X64145959Y-95343197D01*
X64110152Y-95429642D01*
X64091898Y-95521411D01*
X56775200Y-95521411D01*
X56765397Y-95514861D01*
X56678952Y-95479054D01*
X56587183Y-95460800D01*
X56493617Y-95460800D01*
X56401848Y-95479054D01*
X56315403Y-95514861D01*
X56237605Y-95566844D01*
X56171444Y-95633005D01*
X56119461Y-95710803D01*
X56083654Y-95797248D01*
X56065400Y-95889017D01*
X49900329Y-95889017D01*
X49862967Y-95201178D01*
X49860658Y-94568217D01*
X60027800Y-94568217D01*
X60027800Y-94661783D01*
X60046054Y-94753552D01*
X60081861Y-94839997D01*
X60133844Y-94917795D01*
X60200005Y-94983956D01*
X60277803Y-95035939D01*
X60364248Y-95071746D01*
X60456017Y-95090000D01*
X60549583Y-95090000D01*
X60641352Y-95071746D01*
X60727797Y-95035939D01*
X60805595Y-94983956D01*
X60871756Y-94917795D01*
X60923739Y-94839997D01*
X60959546Y-94753552D01*
X60977800Y-94661783D01*
X60977800Y-94568217D01*
X60959546Y-94476448D01*
X60923739Y-94390003D01*
X60871756Y-94312205D01*
X60805595Y-94246044D01*
X60793582Y-94238017D01*
X65336396Y-94238017D01*
X65336396Y-94331583D01*
X65354650Y-94423352D01*
X65390457Y-94509797D01*
X65442440Y-94587595D01*
X65508601Y-94653756D01*
X65586399Y-94705739D01*
X65672844Y-94741546D01*
X65764613Y-94759800D01*
X65858179Y-94759800D01*
X65949948Y-94741546D01*
X66036393Y-94705739D01*
X66114191Y-94653756D01*
X66180352Y-94587595D01*
X66232335Y-94509797D01*
X66268142Y-94423352D01*
X66286396Y-94331583D01*
X66286396Y-94238017D01*
X66282616Y-94219009D01*
X78630443Y-94219009D01*
X78630443Y-94312575D01*
X78648697Y-94404344D01*
X78684504Y-94490789D01*
X78736487Y-94568587D01*
X78802648Y-94634748D01*
X78880446Y-94686731D01*
X78966891Y-94722538D01*
X79058660Y-94740792D01*
X79152226Y-94740792D01*
X79243995Y-94722538D01*
X79330440Y-94686731D01*
X79408238Y-94634748D01*
X79474399Y-94568587D01*
X79526382Y-94490789D01*
X79562189Y-94404344D01*
X79580443Y-94312575D01*
X79580443Y-94219009D01*
X79562189Y-94127240D01*
X79526382Y-94040795D01*
X79474399Y-93962997D01*
X79408238Y-93896836D01*
X79330440Y-93844853D01*
X79243995Y-93809046D01*
X79152226Y-93790792D01*
X79058660Y-93790792D01*
X78966891Y-93809046D01*
X78880446Y-93844853D01*
X78802648Y-93896836D01*
X78736487Y-93962997D01*
X78684504Y-94040795D01*
X78648697Y-94127240D01*
X78630443Y-94219009D01*
X66282616Y-94219009D01*
X66268142Y-94146248D01*
X66232335Y-94059803D01*
X66180352Y-93982005D01*
X66114191Y-93915844D01*
X66036393Y-93863861D01*
X65949948Y-93828054D01*
X65858179Y-93809800D01*
X65764613Y-93809800D01*
X65672844Y-93828054D01*
X65586399Y-93863861D01*
X65508601Y-93915844D01*
X65442440Y-93982005D01*
X65390457Y-94059803D01*
X65354650Y-94146248D01*
X65336396Y-94238017D01*
X60793582Y-94238017D01*
X60727797Y-94194061D01*
X60641352Y-94158254D01*
X60549583Y-94140000D01*
X60456017Y-94140000D01*
X60364248Y-94158254D01*
X60277803Y-94194061D01*
X60200005Y-94246044D01*
X60133844Y-94312205D01*
X60081861Y-94390003D01*
X60046054Y-94476448D01*
X60027800Y-94568217D01*
X49860658Y-94568217D01*
X49852316Y-92282217D01*
X79585800Y-92282217D01*
X79585800Y-92375783D01*
X79604054Y-92467552D01*
X79639861Y-92553997D01*
X79691844Y-92631795D01*
X79758005Y-92697956D01*
X79835803Y-92749939D01*
X79922248Y-92785746D01*
X80014017Y-92804000D01*
X80107583Y-92804000D01*
X80199352Y-92785746D01*
X80285797Y-92749939D01*
X80363595Y-92697956D01*
X80378410Y-92683142D01*
X80386793Y-92691525D01*
X80464591Y-92743508D01*
X80551036Y-92779315D01*
X80642805Y-92797569D01*
X80736371Y-92797569D01*
X80828140Y-92779315D01*
X80914585Y-92743508D01*
X80992383Y-92691525D01*
X81058544Y-92625364D01*
X81110527Y-92547566D01*
X81146334Y-92461121D01*
X81164588Y-92369352D01*
X81164588Y-92275786D01*
X81146334Y-92184017D01*
X81110527Y-92097572D01*
X81058544Y-92019774D01*
X80992383Y-91953613D01*
X80914585Y-91901630D01*
X80828140Y-91865823D01*
X80736371Y-91847569D01*
X80642805Y-91847569D01*
X80551036Y-91865823D01*
X80464591Y-91901630D01*
X80386793Y-91953613D01*
X80371979Y-91968428D01*
X80363595Y-91960044D01*
X80285797Y-91908061D01*
X80199352Y-91872254D01*
X80107583Y-91854000D01*
X80014017Y-91854000D01*
X79922248Y-91872254D01*
X79835803Y-91908061D01*
X79758005Y-91960044D01*
X79691844Y-92026205D01*
X79639861Y-92104003D01*
X79604054Y-92190448D01*
X79585800Y-92282217D01*
X49852316Y-92282217D01*
X49851937Y-92178579D01*
X49907949Y-90986817D01*
X56065400Y-90986817D01*
X56065400Y-91080383D01*
X56083654Y-91172152D01*
X56119461Y-91258597D01*
X56171444Y-91336395D01*
X56237605Y-91402556D01*
X56315403Y-91454539D01*
X56401848Y-91490346D01*
X56493617Y-91508600D01*
X56587183Y-91508600D01*
X56678952Y-91490346D01*
X56765397Y-91454539D01*
X56843195Y-91402556D01*
X56909356Y-91336395D01*
X56922303Y-91317017D01*
X65336402Y-91317017D01*
X65336402Y-91410583D01*
X65354656Y-91502352D01*
X65390463Y-91588797D01*
X65442446Y-91666595D01*
X65508607Y-91732756D01*
X65586405Y-91784739D01*
X65672850Y-91820546D01*
X65764619Y-91838800D01*
X65858185Y-91838800D01*
X65949954Y-91820546D01*
X66036399Y-91784739D01*
X66114197Y-91732756D01*
X66180358Y-91666595D01*
X66232341Y-91588797D01*
X66268148Y-91502352D01*
X66286402Y-91410583D01*
X66286402Y-91317017D01*
X66268148Y-91225248D01*
X66232341Y-91138803D01*
X66196106Y-91084573D01*
X77780452Y-91084573D01*
X77780452Y-91178139D01*
X77798706Y-91269908D01*
X77834513Y-91356353D01*
X77886496Y-91434151D01*
X77952657Y-91500312D01*
X78030455Y-91552295D01*
X78116900Y-91588102D01*
X78208669Y-91606356D01*
X78302235Y-91606356D01*
X78394004Y-91588102D01*
X78480449Y-91552295D01*
X78505423Y-91535608D01*
X78551532Y-91581717D01*
X78629330Y-91633700D01*
X78715775Y-91669507D01*
X78807544Y-91687761D01*
X78901110Y-91687761D01*
X78992879Y-91669507D01*
X79079324Y-91633700D01*
X79157122Y-91581717D01*
X79223283Y-91515556D01*
X79275266Y-91437758D01*
X79311073Y-91351313D01*
X79329327Y-91259544D01*
X79329327Y-91165978D01*
X79324004Y-91139217D01*
X83980000Y-91139217D01*
X83980000Y-91232783D01*
X83998254Y-91324552D01*
X84034061Y-91410997D01*
X84086044Y-91488795D01*
X84152205Y-91554956D01*
X84230003Y-91606939D01*
X84316448Y-91642746D01*
X84408217Y-91661000D01*
X84501783Y-91661000D01*
X84593552Y-91642746D01*
X84679997Y-91606939D01*
X84757795Y-91554956D01*
X84823956Y-91488795D01*
X84875939Y-91410997D01*
X84911746Y-91324552D01*
X84930000Y-91232783D01*
X84930000Y-91139217D01*
X84911746Y-91047448D01*
X84875939Y-90961003D01*
X84823956Y-90883205D01*
X84757795Y-90817044D01*
X84679997Y-90765061D01*
X84593552Y-90729254D01*
X84501783Y-90711000D01*
X84408217Y-90711000D01*
X84316448Y-90729254D01*
X84230003Y-90765061D01*
X84152205Y-90817044D01*
X84086044Y-90883205D01*
X84034061Y-90961003D01*
X83998254Y-91047448D01*
X83980000Y-91139217D01*
X79324004Y-91139217D01*
X79311073Y-91074209D01*
X79275266Y-90987764D01*
X79223283Y-90909966D01*
X79157122Y-90843805D01*
X79094345Y-90801859D01*
X79102736Y-90781602D01*
X79120990Y-90689833D01*
X79120990Y-90596267D01*
X79102736Y-90504498D01*
X79066929Y-90418053D01*
X79014946Y-90340255D01*
X78948785Y-90274094D01*
X78870987Y-90222111D01*
X78784542Y-90186304D01*
X78692773Y-90168050D01*
X78599207Y-90168050D01*
X78507438Y-90186304D01*
X78420993Y-90222111D01*
X78343195Y-90274094D01*
X78277034Y-90340255D01*
X78225051Y-90418053D01*
X78189244Y-90504498D01*
X78170990Y-90596267D01*
X78170990Y-90663851D01*
X78116900Y-90674610D01*
X78030455Y-90710417D01*
X77952657Y-90762400D01*
X77886496Y-90828561D01*
X77834513Y-90906359D01*
X77798706Y-90992804D01*
X77780452Y-91084573D01*
X66196106Y-91084573D01*
X66180358Y-91061005D01*
X66114197Y-90994844D01*
X66036399Y-90942861D01*
X65949954Y-90907054D01*
X65858185Y-90888800D01*
X65764619Y-90888800D01*
X65672850Y-90907054D01*
X65586405Y-90942861D01*
X65508607Y-90994844D01*
X65442446Y-91061005D01*
X65390463Y-91138803D01*
X65354656Y-91225248D01*
X65336402Y-91317017D01*
X56922303Y-91317017D01*
X56961339Y-91258597D01*
X56997146Y-91172152D01*
X57015400Y-91080383D01*
X57015400Y-90986817D01*
X56997146Y-90895048D01*
X56961339Y-90808603D01*
X56909356Y-90730805D01*
X56843195Y-90664644D01*
X56765397Y-90612661D01*
X56678952Y-90576854D01*
X56587183Y-90558600D01*
X56493617Y-90558600D01*
X56401848Y-90576854D01*
X56315403Y-90612661D01*
X56237605Y-90664644D01*
X56171444Y-90730805D01*
X56119461Y-90808603D01*
X56083654Y-90895048D01*
X56065400Y-90986817D01*
X49907949Y-90986817D01*
X49943763Y-90224817D01*
X61958200Y-90224817D01*
X61958200Y-90318383D01*
X61976454Y-90410152D01*
X62012261Y-90496597D01*
X62064244Y-90574395D01*
X62130405Y-90640556D01*
X62208203Y-90692539D01*
X62294648Y-90728346D01*
X62386417Y-90746600D01*
X62479983Y-90746600D01*
X62571752Y-90728346D01*
X62658197Y-90692539D01*
X62735995Y-90640556D01*
X62802156Y-90574395D01*
X62854139Y-90496597D01*
X62889946Y-90410152D01*
X62908200Y-90318383D01*
X62908200Y-90224817D01*
X62889946Y-90133048D01*
X62854139Y-90046603D01*
X62802156Y-89968805D01*
X62735995Y-89902644D01*
X62658197Y-89850661D01*
X62571752Y-89814854D01*
X62479983Y-89796600D01*
X62386417Y-89796600D01*
X62294648Y-89814854D01*
X62208203Y-89850661D01*
X62130405Y-89902644D01*
X62064244Y-89968805D01*
X62012261Y-90046603D01*
X61976454Y-90133048D01*
X61958200Y-90224817D01*
X49943763Y-90224817D01*
X49991515Y-89208817D01*
X57030600Y-89208817D01*
X57030600Y-89302383D01*
X57048854Y-89394152D01*
X57084661Y-89480597D01*
X57136644Y-89558395D01*
X57202805Y-89624556D01*
X57280603Y-89676539D01*
X57367048Y-89712346D01*
X57458817Y-89730600D01*
X57552383Y-89730600D01*
X57644152Y-89712346D01*
X57730597Y-89676539D01*
X57808395Y-89624556D01*
X57874556Y-89558395D01*
X57897786Y-89523629D01*
X57912450Y-89597352D01*
X57948257Y-89683797D01*
X58000240Y-89761595D01*
X58066401Y-89827756D01*
X58144199Y-89879739D01*
X58230644Y-89915546D01*
X58322413Y-89933800D01*
X58415979Y-89933800D01*
X58507748Y-89915546D01*
X58594193Y-89879739D01*
X58671991Y-89827756D01*
X58738152Y-89761595D01*
X58790135Y-89683797D01*
X58805890Y-89645760D01*
X63914865Y-89645760D01*
X63914865Y-89739326D01*
X63933119Y-89831095D01*
X63968926Y-89917540D01*
X64020909Y-89995338D01*
X64087070Y-90061499D01*
X64164868Y-90113482D01*
X64251313Y-90149289D01*
X64343082Y-90167543D01*
X64436648Y-90167543D01*
X64528417Y-90149289D01*
X64614862Y-90113482D01*
X64692660Y-90061499D01*
X64702931Y-90051228D01*
X64720640Y-90068937D01*
X64798438Y-90120920D01*
X64884883Y-90156727D01*
X64976652Y-90174981D01*
X65070218Y-90174981D01*
X65161987Y-90156727D01*
X65248432Y-90120920D01*
X65324365Y-90070183D01*
X71371893Y-90070183D01*
X71371893Y-90163749D01*
X71390147Y-90255518D01*
X71425954Y-90341963D01*
X71477937Y-90419761D01*
X71544098Y-90485922D01*
X71621896Y-90537905D01*
X71708341Y-90573712D01*
X71800110Y-90591966D01*
X71893676Y-90591966D01*
X71985445Y-90573712D01*
X72071890Y-90537905D01*
X72149688Y-90485922D01*
X72215849Y-90419761D01*
X72267832Y-90341963D01*
X72303639Y-90255518D01*
X72321893Y-90163749D01*
X72321893Y-90070183D01*
X72303639Y-89978414D01*
X72267832Y-89891969D01*
X72215849Y-89814171D01*
X72149688Y-89748010D01*
X72071890Y-89696027D01*
X71985445Y-89660220D01*
X71893676Y-89641966D01*
X71800110Y-89641966D01*
X71708341Y-89660220D01*
X71621896Y-89696027D01*
X71544098Y-89748010D01*
X71477937Y-89814171D01*
X71425954Y-89891969D01*
X71390147Y-89978414D01*
X71371893Y-90070183D01*
X65324365Y-90070183D01*
X65326230Y-90068937D01*
X65392391Y-90002776D01*
X65444374Y-89924978D01*
X65480181Y-89838533D01*
X65498435Y-89746764D01*
X65498435Y-89653198D01*
X65480181Y-89561429D01*
X65444374Y-89474984D01*
X65392391Y-89397186D01*
X65326230Y-89331025D01*
X65248432Y-89279042D01*
X65161987Y-89243235D01*
X65070218Y-89224981D01*
X64976652Y-89224981D01*
X64884883Y-89243235D01*
X64798438Y-89279042D01*
X64720640Y-89331025D01*
X64710369Y-89341296D01*
X64692660Y-89323587D01*
X64614862Y-89271604D01*
X64528417Y-89235797D01*
X64436648Y-89217543D01*
X64343082Y-89217543D01*
X64251313Y-89235797D01*
X64164868Y-89271604D01*
X64087070Y-89323587D01*
X64020909Y-89389748D01*
X63968926Y-89467546D01*
X63933119Y-89553991D01*
X63914865Y-89645760D01*
X58805890Y-89645760D01*
X58825942Y-89597352D01*
X58844196Y-89505583D01*
X58844196Y-89412017D01*
X58825942Y-89320248D01*
X58790135Y-89233803D01*
X58738152Y-89156005D01*
X58671991Y-89089844D01*
X58594193Y-89037861D01*
X58507748Y-89002054D01*
X58415979Y-88983800D01*
X58322413Y-88983800D01*
X58230644Y-89002054D01*
X58144199Y-89037861D01*
X58066401Y-89089844D01*
X58000240Y-89156005D01*
X57977010Y-89190771D01*
X57962346Y-89117048D01*
X57926539Y-89030603D01*
X57874556Y-88952805D01*
X57808395Y-88886644D01*
X57730597Y-88834661D01*
X57644152Y-88798854D01*
X57552383Y-88780600D01*
X57458817Y-88780600D01*
X57367048Y-88798854D01*
X57280603Y-88834661D01*
X57202805Y-88886644D01*
X57136644Y-88952805D01*
X57084661Y-89030603D01*
X57048854Y-89117048D01*
X57030600Y-89208817D01*
X49991515Y-89208817D01*
X49993844Y-89159276D01*
X50038722Y-88700817D01*
X66377800Y-88700817D01*
X66377800Y-88794383D01*
X66396054Y-88886152D01*
X66431861Y-88972597D01*
X66483844Y-89050395D01*
X66550005Y-89116556D01*
X66627803Y-89168539D01*
X66714248Y-89204346D01*
X66806017Y-89222600D01*
X66899583Y-89222600D01*
X66991352Y-89204346D01*
X67077797Y-89168539D01*
X67155595Y-89116556D01*
X67166914Y-89105237D01*
X73035962Y-89105237D01*
X73035962Y-89198803D01*
X73054216Y-89290572D01*
X73090023Y-89377017D01*
X73142006Y-89454815D01*
X73208167Y-89520976D01*
X73285965Y-89572959D01*
X73372410Y-89608766D01*
X73432957Y-89620809D01*
X73372038Y-89646043D01*
X73294240Y-89698026D01*
X73228079Y-89764187D01*
X73176096Y-89841985D01*
X73140289Y-89928430D01*
X73122035Y-90020199D01*
X73122035Y-90113765D01*
X73140289Y-90205534D01*
X73176096Y-90291979D01*
X73228079Y-90369777D01*
X73294240Y-90435938D01*
X73372038Y-90487921D01*
X73458483Y-90523728D01*
X73550252Y-90541982D01*
X73643818Y-90541982D01*
X73735587Y-90523728D01*
X73822032Y-90487921D01*
X73899830Y-90435938D01*
X73965991Y-90369777D01*
X74017974Y-90291979D01*
X74053781Y-90205534D01*
X74072035Y-90113765D01*
X74072035Y-90020199D01*
X74068778Y-90003822D01*
X75231069Y-90003822D01*
X75231069Y-90097388D01*
X75249323Y-90189157D01*
X75285130Y-90275602D01*
X75337113Y-90353400D01*
X75403274Y-90419561D01*
X75481072Y-90471544D01*
X75567517Y-90507351D01*
X75659286Y-90525605D01*
X75752852Y-90525605D01*
X75844621Y-90507351D01*
X75931066Y-90471544D01*
X76008864Y-90419561D01*
X76075025Y-90353400D01*
X76127008Y-90275602D01*
X76162815Y-90189157D01*
X76181069Y-90097388D01*
X76181069Y-90003822D01*
X76162815Y-89912053D01*
X76127008Y-89825608D01*
X76103040Y-89789736D01*
X79806810Y-89789736D01*
X79806810Y-89883302D01*
X79825064Y-89975071D01*
X79860871Y-90061516D01*
X79912854Y-90139314D01*
X79979015Y-90205475D01*
X80056813Y-90257458D01*
X80143258Y-90293265D01*
X80235027Y-90311519D01*
X80328593Y-90311519D01*
X80420362Y-90293265D01*
X80506807Y-90257458D01*
X80584605Y-90205475D01*
X80650766Y-90139314D01*
X80702749Y-90061516D01*
X80708754Y-90047017D01*
X81389200Y-90047017D01*
X81389200Y-90140583D01*
X81407454Y-90232352D01*
X81443261Y-90318797D01*
X81495244Y-90396595D01*
X81561405Y-90462756D01*
X81639203Y-90514739D01*
X81725648Y-90550546D01*
X81817417Y-90568800D01*
X81910983Y-90568800D01*
X82002752Y-90550546D01*
X82089197Y-90514739D01*
X82166995Y-90462756D01*
X82233156Y-90396595D01*
X82285139Y-90318797D01*
X82320946Y-90232352D01*
X82339200Y-90140583D01*
X82339200Y-90047017D01*
X82320946Y-89955248D01*
X82285139Y-89868803D01*
X82233156Y-89791005D01*
X82166995Y-89724844D01*
X82089197Y-89672861D01*
X82002752Y-89637054D01*
X81910983Y-89618800D01*
X81817417Y-89618800D01*
X81725648Y-89637054D01*
X81639203Y-89672861D01*
X81561405Y-89724844D01*
X81495244Y-89791005D01*
X81443261Y-89868803D01*
X81407454Y-89955248D01*
X81389200Y-90047017D01*
X80708754Y-90047017D01*
X80738556Y-89975071D01*
X80756810Y-89883302D01*
X80756810Y-89789736D01*
X80738556Y-89697967D01*
X80702749Y-89611522D01*
X80650766Y-89533724D01*
X80584605Y-89467563D01*
X80539489Y-89437417D01*
X82481400Y-89437417D01*
X82481400Y-89530983D01*
X82499654Y-89622752D01*
X82535461Y-89709197D01*
X82587444Y-89786995D01*
X82653605Y-89853156D01*
X82731403Y-89905139D01*
X82817848Y-89940946D01*
X82909617Y-89959200D01*
X83003183Y-89959200D01*
X83094952Y-89940946D01*
X83181397Y-89905139D01*
X83259195Y-89853156D01*
X83325356Y-89786995D01*
X83377339Y-89709197D01*
X83413146Y-89622752D01*
X83431400Y-89530983D01*
X83431400Y-89437417D01*
X83413146Y-89345648D01*
X83377339Y-89259203D01*
X83325356Y-89181405D01*
X83259195Y-89115244D01*
X83181397Y-89063261D01*
X83094952Y-89027454D01*
X83003183Y-89009200D01*
X82909617Y-89009200D01*
X82817848Y-89027454D01*
X82731403Y-89063261D01*
X82653605Y-89115244D01*
X82587444Y-89181405D01*
X82535461Y-89259203D01*
X82499654Y-89345648D01*
X82481400Y-89437417D01*
X80539489Y-89437417D01*
X80506807Y-89415580D01*
X80420362Y-89379773D01*
X80328593Y-89361519D01*
X80235027Y-89361519D01*
X80143258Y-89379773D01*
X80056813Y-89415580D01*
X79979015Y-89467563D01*
X79912854Y-89533724D01*
X79860871Y-89611522D01*
X79825064Y-89697967D01*
X79806810Y-89789736D01*
X76103040Y-89789736D01*
X76075025Y-89747810D01*
X76008864Y-89681649D01*
X75931066Y-89629666D01*
X75844621Y-89593859D01*
X75752852Y-89575605D01*
X75659286Y-89575605D01*
X75567517Y-89593859D01*
X75481072Y-89629666D01*
X75403274Y-89681649D01*
X75337113Y-89747810D01*
X75285130Y-89825608D01*
X75249323Y-89912053D01*
X75231069Y-90003822D01*
X74068778Y-90003822D01*
X74053781Y-89928430D01*
X74017974Y-89841985D01*
X73965991Y-89764187D01*
X73899830Y-89698026D01*
X73822032Y-89646043D01*
X73735587Y-89610236D01*
X73675040Y-89598193D01*
X73735959Y-89572959D01*
X73813757Y-89520976D01*
X73879918Y-89454815D01*
X73931901Y-89377017D01*
X73967708Y-89290572D01*
X73985962Y-89198803D01*
X73985962Y-89105237D01*
X73967708Y-89013468D01*
X73931901Y-88927023D01*
X73927986Y-88921163D01*
X73985061Y-88864088D01*
X74037044Y-88786290D01*
X74055670Y-88741323D01*
X74131048Y-88772546D01*
X74222817Y-88790800D01*
X74316383Y-88790800D01*
X74408152Y-88772546D01*
X74494597Y-88736739D01*
X74572395Y-88684756D01*
X74638556Y-88618595D01*
X74690539Y-88540797D01*
X74726346Y-88454352D01*
X74744600Y-88362583D01*
X74744600Y-88327141D01*
X74779605Y-88362146D01*
X74857403Y-88414129D01*
X74943848Y-88449936D01*
X75035617Y-88468190D01*
X75129183Y-88468190D01*
X75220952Y-88449936D01*
X75289802Y-88421417D01*
X79484200Y-88421417D01*
X79484200Y-88514983D01*
X79502454Y-88606752D01*
X79538261Y-88693197D01*
X79590244Y-88770995D01*
X79656405Y-88837156D01*
X79734203Y-88889139D01*
X79820648Y-88924946D01*
X79912417Y-88943200D01*
X80005983Y-88943200D01*
X80097752Y-88924946D01*
X80184197Y-88889139D01*
X80261995Y-88837156D01*
X80328156Y-88770995D01*
X80380139Y-88693197D01*
X80415946Y-88606752D01*
X80434200Y-88514983D01*
X80434200Y-88421417D01*
X80415946Y-88329648D01*
X80380139Y-88243203D01*
X80328156Y-88165405D01*
X80261995Y-88099244D01*
X80184197Y-88047261D01*
X80097752Y-88011454D01*
X80005983Y-87993200D01*
X79912417Y-87993200D01*
X79820648Y-88011454D01*
X79734203Y-88047261D01*
X79656405Y-88099244D01*
X79590244Y-88165405D01*
X79538261Y-88243203D01*
X79502454Y-88329648D01*
X79484200Y-88421417D01*
X75289802Y-88421417D01*
X75307397Y-88414129D01*
X75385195Y-88362146D01*
X75451356Y-88295985D01*
X75503339Y-88218187D01*
X75539146Y-88131742D01*
X75557400Y-88039973D01*
X75557400Y-87946407D01*
X75539146Y-87854638D01*
X75503339Y-87768193D01*
X75451356Y-87690395D01*
X75385195Y-87624234D01*
X75307397Y-87572251D01*
X75220952Y-87536444D01*
X75129183Y-87518190D01*
X75035617Y-87518190D01*
X74943848Y-87536444D01*
X74857403Y-87572251D01*
X74779605Y-87624234D01*
X74713444Y-87690395D01*
X74661461Y-87768193D01*
X74625654Y-87854638D01*
X74607400Y-87946407D01*
X74607400Y-87981849D01*
X74572395Y-87946844D01*
X74494597Y-87894861D01*
X74408152Y-87859054D01*
X74316383Y-87840800D01*
X74222817Y-87840800D01*
X74131048Y-87859054D01*
X74044603Y-87894861D01*
X73966805Y-87946844D01*
X73900644Y-88013005D01*
X73848661Y-88090803D01*
X73830035Y-88135770D01*
X73754657Y-88104547D01*
X73662888Y-88086293D01*
X73569322Y-88086293D01*
X73477553Y-88104547D01*
X73391108Y-88140354D01*
X73313310Y-88192337D01*
X73247149Y-88258498D01*
X73195166Y-88336296D01*
X73159359Y-88422741D01*
X73141105Y-88514510D01*
X73141105Y-88608076D01*
X73159359Y-88699845D01*
X73195166Y-88786290D01*
X73199081Y-88792150D01*
X73142006Y-88849225D01*
X73090023Y-88927023D01*
X73054216Y-89013468D01*
X73035962Y-89105237D01*
X67166914Y-89105237D01*
X67221756Y-89050395D01*
X67273739Y-88972597D01*
X67309546Y-88886152D01*
X67327800Y-88794383D01*
X67327800Y-88700817D01*
X67309546Y-88609048D01*
X67273739Y-88522603D01*
X67221756Y-88444805D01*
X67155595Y-88378644D01*
X67077797Y-88326661D01*
X66991352Y-88290854D01*
X66899583Y-88272600D01*
X66806017Y-88272600D01*
X66714248Y-88290854D01*
X66627803Y-88326661D01*
X66550005Y-88378644D01*
X66483844Y-88444805D01*
X66431861Y-88522603D01*
X66396054Y-88609048D01*
X66377800Y-88700817D01*
X50038722Y-88700817D01*
X50103075Y-88043421D01*
X71715740Y-88043421D01*
X71715740Y-88136987D01*
X71733994Y-88228756D01*
X71769801Y-88315201D01*
X71821784Y-88392999D01*
X71887945Y-88459160D01*
X71965743Y-88511143D01*
X72052188Y-88546950D01*
X72143957Y-88565204D01*
X72237523Y-88565204D01*
X72329292Y-88546950D01*
X72415737Y-88511143D01*
X72493535Y-88459160D01*
X72559696Y-88392999D01*
X72611679Y-88315201D01*
X72647486Y-88228756D01*
X72665740Y-88136987D01*
X72665740Y-88043421D01*
X72647486Y-87951652D01*
X72611679Y-87865207D01*
X72585830Y-87826521D01*
X72631956Y-87780395D01*
X72683939Y-87702597D01*
X72719746Y-87616152D01*
X72738000Y-87524383D01*
X72738000Y-87430817D01*
X78646000Y-87430817D01*
X78646000Y-87524383D01*
X78664254Y-87616152D01*
X78700061Y-87702597D01*
X78752044Y-87780395D01*
X78818205Y-87846556D01*
X78896003Y-87898539D01*
X78982448Y-87934346D01*
X79074217Y-87952600D01*
X79167783Y-87952600D01*
X79237074Y-87938817D01*
X81617800Y-87938817D01*
X81617800Y-88032383D01*
X81636054Y-88124152D01*
X81671861Y-88210597D01*
X81723844Y-88288395D01*
X81790005Y-88354556D01*
X81867803Y-88406539D01*
X81954248Y-88442346D01*
X82046017Y-88460600D01*
X82139583Y-88460600D01*
X82231352Y-88442346D01*
X82317797Y-88406539D01*
X82395595Y-88354556D01*
X82461756Y-88288395D01*
X82513739Y-88210597D01*
X82549546Y-88124152D01*
X82567800Y-88032383D01*
X82567800Y-87938817D01*
X82549546Y-87847048D01*
X82513739Y-87760603D01*
X82461756Y-87682805D01*
X82395595Y-87616644D01*
X82317797Y-87564661D01*
X82231352Y-87528854D01*
X82139583Y-87510600D01*
X82046017Y-87510600D01*
X81954248Y-87528854D01*
X81867803Y-87564661D01*
X81790005Y-87616644D01*
X81723844Y-87682805D01*
X81671861Y-87760603D01*
X81636054Y-87847048D01*
X81617800Y-87938817D01*
X79237074Y-87938817D01*
X79259552Y-87934346D01*
X79345997Y-87898539D01*
X79423795Y-87846556D01*
X79489956Y-87780395D01*
X79541939Y-87702597D01*
X79577746Y-87616152D01*
X79596000Y-87524383D01*
X79596000Y-87430817D01*
X79577746Y-87339048D01*
X79541939Y-87252603D01*
X79489956Y-87174805D01*
X79423795Y-87108644D01*
X79345997Y-87056661D01*
X79259552Y-87020854D01*
X79167783Y-87002600D01*
X79074217Y-87002600D01*
X78982448Y-87020854D01*
X78896003Y-87056661D01*
X78818205Y-87108644D01*
X78752044Y-87174805D01*
X78700061Y-87252603D01*
X78664254Y-87339048D01*
X78646000Y-87430817D01*
X72738000Y-87430817D01*
X72719746Y-87339048D01*
X72683939Y-87252603D01*
X72631956Y-87174805D01*
X72565795Y-87108644D01*
X72487997Y-87056661D01*
X72401552Y-87020854D01*
X72309783Y-87002600D01*
X72216217Y-87002600D01*
X72124448Y-87020854D01*
X72038003Y-87056661D01*
X71960205Y-87108644D01*
X71894044Y-87174805D01*
X71842061Y-87252603D01*
X71806254Y-87339048D01*
X71788000Y-87430817D01*
X71788000Y-87524383D01*
X71806254Y-87616152D01*
X71842061Y-87702597D01*
X71867910Y-87741283D01*
X71821784Y-87787409D01*
X71769801Y-87865207D01*
X71733994Y-87951652D01*
X71715740Y-88043421D01*
X50103075Y-88043421D01*
X50286599Y-86168647D01*
X51836859Y-86168647D01*
X51836859Y-86424725D01*
X51886817Y-86675882D01*
X51984814Y-86912467D01*
X52127083Y-87125388D01*
X52308157Y-87306462D01*
X52521078Y-87448731D01*
X52757663Y-87546728D01*
X53008820Y-87596686D01*
X53264898Y-87596686D01*
X53516055Y-87546728D01*
X53752640Y-87448731D01*
X53817464Y-87405417D01*
X62085200Y-87405417D01*
X62085200Y-87498983D01*
X62103454Y-87590752D01*
X62139261Y-87677197D01*
X62191244Y-87754995D01*
X62257405Y-87821156D01*
X62335203Y-87873139D01*
X62421648Y-87908946D01*
X62513417Y-87927200D01*
X62606983Y-87927200D01*
X62698752Y-87908946D01*
X62785197Y-87873139D01*
X62862995Y-87821156D01*
X62929156Y-87754995D01*
X62981139Y-87677197D01*
X63016946Y-87590752D01*
X63035200Y-87498983D01*
X63035200Y-87405417D01*
X63016946Y-87313648D01*
X62981139Y-87227203D01*
X62929156Y-87149405D01*
X62862995Y-87083244D01*
X62785197Y-87031261D01*
X62698752Y-86995454D01*
X62606983Y-86977200D01*
X62513417Y-86977200D01*
X62421648Y-86995454D01*
X62335203Y-87031261D01*
X62257405Y-87083244D01*
X62191244Y-87149405D01*
X62139261Y-87227203D01*
X62103454Y-87313648D01*
X62085200Y-87405417D01*
X53817464Y-87405417D01*
X53965561Y-87306462D01*
X54146635Y-87125388D01*
X54288904Y-86912467D01*
X54386901Y-86675882D01*
X54435757Y-86430263D01*
X59354136Y-86430263D01*
X59354136Y-86523829D01*
X59372390Y-86615598D01*
X59408197Y-86702043D01*
X59460180Y-86779841D01*
X59526341Y-86846002D01*
X59604139Y-86897985D01*
X59690584Y-86933792D01*
X59782353Y-86952046D01*
X59875919Y-86952046D01*
X59967688Y-86933792D01*
X60054133Y-86897985D01*
X60131931Y-86846002D01*
X60198092Y-86779841D01*
X60250075Y-86702043D01*
X60285882Y-86615598D01*
X60304136Y-86523829D01*
X60304136Y-86430263D01*
X60285882Y-86338494D01*
X60250075Y-86252049D01*
X60198092Y-86174251D01*
X60131931Y-86108090D01*
X60054133Y-86056107D01*
X59967688Y-86020300D01*
X59875919Y-86002046D01*
X59782353Y-86002046D01*
X59690584Y-86020300D01*
X59604139Y-86056107D01*
X59526341Y-86108090D01*
X59460180Y-86174251D01*
X59408197Y-86252049D01*
X59372390Y-86338494D01*
X59354136Y-86430263D01*
X54435757Y-86430263D01*
X54436859Y-86424725D01*
X54436859Y-86168647D01*
X54386901Y-85917490D01*
X54371960Y-85881417D01*
X68841600Y-85881417D01*
X68841600Y-85974983D01*
X68859854Y-86066752D01*
X68895661Y-86153197D01*
X68947644Y-86230995D01*
X69013805Y-86297156D01*
X69091603Y-86349139D01*
X69178048Y-86384946D01*
X69269817Y-86403200D01*
X69363383Y-86403200D01*
X69455152Y-86384946D01*
X69541597Y-86349139D01*
X69619395Y-86297156D01*
X69685556Y-86230995D01*
X69737539Y-86153197D01*
X69773346Y-86066752D01*
X69791600Y-85974983D01*
X69791600Y-85881417D01*
X71153000Y-85881417D01*
X71153000Y-85974983D01*
X71171254Y-86066752D01*
X71207061Y-86153197D01*
X71259044Y-86230995D01*
X71325205Y-86297156D01*
X71403003Y-86349139D01*
X71489448Y-86384946D01*
X71581217Y-86403200D01*
X71674783Y-86403200D01*
X71766552Y-86384946D01*
X71852997Y-86349139D01*
X71930795Y-86297156D01*
X71996956Y-86230995D01*
X72004461Y-86219762D01*
X80979249Y-86219762D01*
X80979249Y-86313328D01*
X80997503Y-86405097D01*
X81033310Y-86491542D01*
X81085293Y-86569340D01*
X81151454Y-86635501D01*
X81229252Y-86687484D01*
X81315697Y-86723291D01*
X81407466Y-86741545D01*
X81501032Y-86741545D01*
X81592801Y-86723291D01*
X81679246Y-86687484D01*
X81757044Y-86635501D01*
X81823205Y-86569340D01*
X81875188Y-86491542D01*
X81910995Y-86405097D01*
X81929249Y-86313328D01*
X81929249Y-86219762D01*
X81919082Y-86168647D01*
X86482341Y-86168647D01*
X86482341Y-86424725D01*
X86532299Y-86675882D01*
X86630296Y-86912467D01*
X86772565Y-87125388D01*
X86953639Y-87306462D01*
X87166560Y-87448731D01*
X87403145Y-87546728D01*
X87654302Y-87596686D01*
X87910380Y-87596686D01*
X88161537Y-87546728D01*
X88398122Y-87448731D01*
X88611043Y-87306462D01*
X88792117Y-87125388D01*
X88934386Y-86912467D01*
X89032383Y-86675882D01*
X89082341Y-86424725D01*
X89082341Y-86168647D01*
X89032383Y-85917490D01*
X88934386Y-85680905D01*
X88792117Y-85467984D01*
X88611043Y-85286910D01*
X88398122Y-85144641D01*
X88161537Y-85046644D01*
X87910380Y-84996686D01*
X87654302Y-84996686D01*
X87403145Y-85046644D01*
X87166560Y-85144641D01*
X86953639Y-85286910D01*
X86772565Y-85467984D01*
X86630296Y-85680905D01*
X86532299Y-85917490D01*
X86482341Y-86168647D01*
X81919082Y-86168647D01*
X81910995Y-86127993D01*
X81875188Y-86041548D01*
X81823205Y-85963750D01*
X81757044Y-85897589D01*
X81679246Y-85845606D01*
X81592801Y-85809799D01*
X81501032Y-85791545D01*
X81407466Y-85791545D01*
X81315697Y-85809799D01*
X81229252Y-85845606D01*
X81151454Y-85897589D01*
X81085293Y-85963750D01*
X81033310Y-86041548D01*
X80997503Y-86127993D01*
X80979249Y-86219762D01*
X72004461Y-86219762D01*
X72048939Y-86153197D01*
X72084746Y-86066752D01*
X72103000Y-85974983D01*
X72103000Y-85881417D01*
X72084746Y-85789648D01*
X72048939Y-85703203D01*
X71996956Y-85625405D01*
X71930795Y-85559244D01*
X71852997Y-85507261D01*
X71766552Y-85471454D01*
X71674783Y-85453200D01*
X71581217Y-85453200D01*
X71489448Y-85471454D01*
X71403003Y-85507261D01*
X71325205Y-85559244D01*
X71259044Y-85625405D01*
X71207061Y-85703203D01*
X71171254Y-85789648D01*
X71153000Y-85881417D01*
X69791600Y-85881417D01*
X69773346Y-85789648D01*
X69737539Y-85703203D01*
X69685556Y-85625405D01*
X69619395Y-85559244D01*
X69541597Y-85507261D01*
X69455152Y-85471454D01*
X69363383Y-85453200D01*
X69269817Y-85453200D01*
X69178048Y-85471454D01*
X69091603Y-85507261D01*
X69013805Y-85559244D01*
X68947644Y-85625405D01*
X68895661Y-85703203D01*
X68859854Y-85789648D01*
X68841600Y-85881417D01*
X54371960Y-85881417D01*
X54288904Y-85680905D01*
X54146635Y-85467984D01*
X53965561Y-85286910D01*
X53752640Y-85144641D01*
X53516055Y-85046644D01*
X53264898Y-84996686D01*
X53008820Y-84996686D01*
X52757663Y-85046644D01*
X52521078Y-85144641D01*
X52308157Y-85286910D01*
X52127083Y-85467984D01*
X51984814Y-85680905D01*
X51886817Y-85917490D01*
X51836859Y-86168647D01*
X50286599Y-86168647D01*
X50288616Y-86148045D01*
X50341763Y-85730275D01*
X50528108Y-84893808D01*
X50536123Y-84872434D01*
X61406417Y-84872434D01*
X61406417Y-84966000D01*
X61424671Y-85057769D01*
X61460478Y-85144214D01*
X61512461Y-85222012D01*
X61578622Y-85288173D01*
X61656420Y-85340156D01*
X61742865Y-85375963D01*
X61834634Y-85394217D01*
X61928200Y-85394217D01*
X62019969Y-85375963D01*
X62106414Y-85340156D01*
X62184212Y-85288173D01*
X62250373Y-85222012D01*
X62302356Y-85144214D01*
X62338163Y-85057769D01*
X62356417Y-84966000D01*
X62356417Y-84872434D01*
X62338163Y-84780665D01*
X62302356Y-84694220D01*
X62250373Y-84616422D01*
X62184212Y-84550261D01*
X62106414Y-84498278D01*
X62019969Y-84462471D01*
X61928200Y-84444217D01*
X61834634Y-84444217D01*
X61742865Y-84462471D01*
X61656420Y-84498278D01*
X61578622Y-84550261D01*
X61512461Y-84616422D01*
X61460478Y-84694220D01*
X61424671Y-84780665D01*
X61406417Y-84872434D01*
X50536123Y-84872434D01*
X50696492Y-84444825D01*
X50778506Y-84255811D01*
X65920600Y-84255811D01*
X65920600Y-84349377D01*
X65938854Y-84441146D01*
X65974661Y-84527591D01*
X66026644Y-84605389D01*
X66092805Y-84671550D01*
X66170603Y-84723533D01*
X66257048Y-84759340D01*
X66348817Y-84777594D01*
X66442383Y-84777594D01*
X66534152Y-84759340D01*
X66620597Y-84723533D01*
X66698395Y-84671550D01*
X66764556Y-84605389D01*
X66816539Y-84527591D01*
X66852346Y-84441146D01*
X66870600Y-84349377D01*
X66870600Y-84255817D01*
X74023200Y-84255817D01*
X74023200Y-84349383D01*
X74041454Y-84441152D01*
X74077261Y-84527597D01*
X74129244Y-84605395D01*
X74195405Y-84671556D01*
X74273203Y-84723539D01*
X74359648Y-84759346D01*
X74451417Y-84777600D01*
X74544983Y-84777600D01*
X74636752Y-84759346D01*
X74723197Y-84723539D01*
X74800995Y-84671556D01*
X74867156Y-84605395D01*
X74919139Y-84527597D01*
X74947546Y-84459017D01*
X75725000Y-84459017D01*
X75725000Y-84552583D01*
X75743254Y-84644352D01*
X75779061Y-84730797D01*
X75831044Y-84808595D01*
X75897205Y-84874756D01*
X75975003Y-84926739D01*
X76061448Y-84962546D01*
X76153217Y-84980800D01*
X76246783Y-84980800D01*
X76338552Y-84962546D01*
X76424997Y-84926739D01*
X76478758Y-84890817D01*
X78519000Y-84890817D01*
X78519000Y-84984383D01*
X78537254Y-85076152D01*
X78573061Y-85162597D01*
X78625044Y-85240395D01*
X78691205Y-85306556D01*
X78769003Y-85358539D01*
X78855448Y-85394346D01*
X78947217Y-85412600D01*
X79040783Y-85412600D01*
X79132552Y-85394346D01*
X79218997Y-85358539D01*
X79296795Y-85306556D01*
X79362956Y-85240395D01*
X79414939Y-85162597D01*
X79450746Y-85076152D01*
X79469000Y-84984383D01*
X79469000Y-84890817D01*
X79450746Y-84799048D01*
X79414939Y-84712603D01*
X79362956Y-84634805D01*
X79296795Y-84568644D01*
X79218997Y-84516661D01*
X79132552Y-84480854D01*
X79040783Y-84462600D01*
X78947217Y-84462600D01*
X78855448Y-84480854D01*
X78769003Y-84516661D01*
X78691205Y-84568644D01*
X78625044Y-84634805D01*
X78573061Y-84712603D01*
X78537254Y-84799048D01*
X78519000Y-84890817D01*
X76478758Y-84890817D01*
X76502795Y-84874756D01*
X76568956Y-84808595D01*
X76620939Y-84730797D01*
X76656746Y-84644352D01*
X76675000Y-84552583D01*
X76675000Y-84459017D01*
X76656746Y-84367248D01*
X76620939Y-84280803D01*
X76568956Y-84203005D01*
X76502795Y-84136844D01*
X76424997Y-84084861D01*
X76338552Y-84049054D01*
X76246783Y-84030800D01*
X76153217Y-84030800D01*
X76061448Y-84049054D01*
X75975003Y-84084861D01*
X75897205Y-84136844D01*
X75831044Y-84203005D01*
X75779061Y-84280803D01*
X75743254Y-84367248D01*
X75725000Y-84459017D01*
X74947546Y-84459017D01*
X74954946Y-84441152D01*
X74973200Y-84349383D01*
X74973200Y-84255817D01*
X74954946Y-84164048D01*
X74919139Y-84077603D01*
X74867156Y-83999805D01*
X74800995Y-83933644D01*
X74723197Y-83881661D01*
X74636752Y-83845854D01*
X74544983Y-83827600D01*
X74451417Y-83827600D01*
X74359648Y-83845854D01*
X74273203Y-83881661D01*
X74195405Y-83933644D01*
X74129244Y-83999805D01*
X74077261Y-84077603D01*
X74041454Y-84164048D01*
X74023200Y-84255817D01*
X66870600Y-84255817D01*
X66870600Y-84255811D01*
X66852346Y-84164042D01*
X66816539Y-84077597D01*
X66764556Y-83999799D01*
X66698395Y-83933638D01*
X66620597Y-83881655D01*
X66534152Y-83845848D01*
X66442383Y-83827594D01*
X66348817Y-83827594D01*
X66257048Y-83845848D01*
X66170603Y-83881655D01*
X66092805Y-83933638D01*
X66026644Y-83999799D01*
X65974661Y-84077597D01*
X65938854Y-84164042D01*
X65920600Y-84255811D01*
X50778506Y-84255811D01*
X51098117Y-83519217D01*
X68888460Y-83519217D01*
X68888460Y-83612783D01*
X68906714Y-83704552D01*
X68942521Y-83790997D01*
X68994504Y-83868795D01*
X69060665Y-83934956D01*
X69138463Y-83986939D01*
X69224908Y-84022746D01*
X69316677Y-84041000D01*
X69410243Y-84041000D01*
X69502012Y-84022746D01*
X69588457Y-83986939D01*
X69666255Y-83934956D01*
X69732416Y-83868795D01*
X69784399Y-83790997D01*
X69820206Y-83704552D01*
X69838460Y-83612783D01*
X69838460Y-83519217D01*
X69833408Y-83493817D01*
X71170810Y-83493817D01*
X71170810Y-83587383D01*
X71189064Y-83679152D01*
X71224871Y-83765597D01*
X71276854Y-83843395D01*
X71343015Y-83909556D01*
X71420813Y-83961539D01*
X71507258Y-83997346D01*
X71599027Y-84015600D01*
X71692593Y-84015600D01*
X71784362Y-83997346D01*
X71870807Y-83961539D01*
X71948605Y-83909556D01*
X72014766Y-83843395D01*
X72066749Y-83765597D01*
X72102556Y-83679152D01*
X72120810Y-83587383D01*
X72120810Y-83493817D01*
X72102556Y-83402048D01*
X72066749Y-83315603D01*
X72014766Y-83237805D01*
X71948605Y-83171644D01*
X71870807Y-83119661D01*
X71784362Y-83083854D01*
X71692593Y-83065600D01*
X71599027Y-83065600D01*
X71507258Y-83083854D01*
X71420813Y-83119661D01*
X71343015Y-83171644D01*
X71276854Y-83237805D01*
X71224871Y-83315603D01*
X71189064Y-83402048D01*
X71170810Y-83493817D01*
X69833408Y-83493817D01*
X69820206Y-83427448D01*
X69784399Y-83341003D01*
X69732416Y-83263205D01*
X69666255Y-83197044D01*
X69588457Y-83145061D01*
X69502012Y-83109254D01*
X69410243Y-83091000D01*
X69316677Y-83091000D01*
X69224908Y-83109254D01*
X69138463Y-83145061D01*
X69060665Y-83197044D01*
X68994504Y-83263205D01*
X68942521Y-83341003D01*
X68906714Y-83427448D01*
X68888460Y-83519217D01*
X51098117Y-83519217D01*
X51329563Y-82985817D01*
X63964800Y-82985817D01*
X63964800Y-83079383D01*
X63983054Y-83171152D01*
X64018861Y-83257597D01*
X64070844Y-83335395D01*
X64137005Y-83401556D01*
X64214803Y-83453539D01*
X64301248Y-83489346D01*
X64393017Y-83507600D01*
X64486583Y-83507600D01*
X64578352Y-83489346D01*
X64664797Y-83453539D01*
X64742595Y-83401556D01*
X64808756Y-83335395D01*
X64860739Y-83257597D01*
X64896546Y-83171152D01*
X64914800Y-83079383D01*
X64914800Y-82985817D01*
X64909748Y-82960417D01*
X76055200Y-82960417D01*
X76055200Y-83053983D01*
X76073454Y-83145752D01*
X76109261Y-83232197D01*
X76161244Y-83309995D01*
X76227405Y-83376156D01*
X76305203Y-83428139D01*
X76391648Y-83463946D01*
X76483417Y-83482200D01*
X76576983Y-83482200D01*
X76668752Y-83463946D01*
X76755197Y-83428139D01*
X76832995Y-83376156D01*
X76899156Y-83309995D01*
X76951139Y-83232197D01*
X76986946Y-83145752D01*
X77005200Y-83053983D01*
X77005200Y-82960417D01*
X76986946Y-82868648D01*
X76951139Y-82782203D01*
X76899156Y-82704405D01*
X76832995Y-82638244D01*
X76755197Y-82586261D01*
X76668752Y-82550454D01*
X76576983Y-82532200D01*
X76483417Y-82532200D01*
X76391648Y-82550454D01*
X76305203Y-82586261D01*
X76227405Y-82638244D01*
X76161244Y-82704405D01*
X76109261Y-82782203D01*
X76073454Y-82868648D01*
X76055200Y-82960417D01*
X64909748Y-82960417D01*
X64896546Y-82894048D01*
X64860739Y-82807603D01*
X64808756Y-82729805D01*
X64742595Y-82663644D01*
X64664797Y-82611661D01*
X64578352Y-82575854D01*
X64486583Y-82557600D01*
X64393017Y-82557600D01*
X64301248Y-82575854D01*
X64214803Y-82611661D01*
X64137005Y-82663644D01*
X64070844Y-82729805D01*
X64018861Y-82807603D01*
X63983054Y-82894048D01*
X63964800Y-82985817D01*
X51329563Y-82985817D01*
X51869601Y-81741217D01*
X66809600Y-81741217D01*
X66809600Y-81834783D01*
X66827854Y-81926552D01*
X66863661Y-82012997D01*
X66915644Y-82090795D01*
X66981805Y-82156956D01*
X67059603Y-82208939D01*
X67146048Y-82244746D01*
X67237817Y-82263000D01*
X67331383Y-82263000D01*
X67423152Y-82244746D01*
X67509597Y-82208939D01*
X67587395Y-82156956D01*
X67653556Y-82090795D01*
X67705539Y-82012997D01*
X67741346Y-81926552D01*
X67759600Y-81834783D01*
X67759600Y-81741217D01*
X67741346Y-81649448D01*
X67705539Y-81563003D01*
X67653556Y-81485205D01*
X67587395Y-81419044D01*
X67509597Y-81367061D01*
X67423152Y-81331254D01*
X67331383Y-81313000D01*
X67237817Y-81313000D01*
X67146048Y-81331254D01*
X67059603Y-81367061D01*
X66981805Y-81419044D01*
X66915644Y-81485205D01*
X66863661Y-81563003D01*
X66827854Y-81649448D01*
X66809600Y-81741217D01*
X51869601Y-81741217D01*
X52874223Y-79425913D01*
X72318898Y-79425913D01*
X72318898Y-79519479D01*
X72337152Y-79611248D01*
X72372959Y-79697693D01*
X72424942Y-79775491D01*
X72491103Y-79841652D01*
X72568901Y-79893635D01*
X72655346Y-79929442D01*
X72747115Y-79947696D01*
X72840681Y-79947696D01*
X72932450Y-79929442D01*
X72989083Y-79905984D01*
X72985061Y-79912003D01*
X72949254Y-79998448D01*
X72931000Y-80090217D01*
X72931000Y-80183783D01*
X72949254Y-80275552D01*
X72985061Y-80361997D01*
X73037044Y-80439795D01*
X73103205Y-80505956D01*
X73181003Y-80557939D01*
X73267448Y-80593746D01*
X73359217Y-80612000D01*
X73452783Y-80612000D01*
X73544552Y-80593746D01*
X73630997Y-80557939D01*
X73708795Y-80505956D01*
X73774956Y-80439795D01*
X73826939Y-80361997D01*
X73862746Y-80275552D01*
X73881000Y-80183783D01*
X73881000Y-80090217D01*
X73862746Y-79998448D01*
X73826939Y-79912003D01*
X73774956Y-79834205D01*
X73708795Y-79768044D01*
X73630997Y-79716061D01*
X73544552Y-79680254D01*
X73452783Y-79662000D01*
X73359217Y-79662000D01*
X73267448Y-79680254D01*
X73210815Y-79703712D01*
X73214837Y-79697693D01*
X73250644Y-79611248D01*
X73268898Y-79519479D01*
X73268898Y-79425913D01*
X73250644Y-79334144D01*
X73214837Y-79247699D01*
X73162854Y-79169901D01*
X73096693Y-79103740D01*
X73018895Y-79051757D01*
X72932450Y-79015950D01*
X72840681Y-78997696D01*
X72747115Y-78997696D01*
X72655346Y-79015950D01*
X72568901Y-79051757D01*
X72491103Y-79103740D01*
X72424942Y-79169901D01*
X72372959Y-79247699D01*
X72337152Y-79334144D01*
X72318898Y-79425913D01*
X52874223Y-79425913D01*
X54351538Y-76021220D01*
X61984286Y-76021220D01*
X61984286Y-76277298D01*
X62034244Y-76528455D01*
X62132241Y-76765040D01*
X62274510Y-76977961D01*
X62455584Y-77159035D01*
X62668505Y-77301304D01*
X62905090Y-77399301D01*
X63156247Y-77449259D01*
X63412325Y-77449259D01*
X63663482Y-77399301D01*
X63900067Y-77301304D01*
X64112988Y-77159035D01*
X64294062Y-76977961D01*
X64436331Y-76765040D01*
X64534328Y-76528455D01*
X64584286Y-76277298D01*
X64584286Y-76021220D01*
X76334914Y-76021220D01*
X76334914Y-76277298D01*
X76384872Y-76528455D01*
X76482869Y-76765040D01*
X76625138Y-76977961D01*
X76806212Y-77159035D01*
X77019133Y-77301304D01*
X77255718Y-77399301D01*
X77506875Y-77449259D01*
X77762953Y-77449259D01*
X78014110Y-77399301D01*
X78250695Y-77301304D01*
X78463616Y-77159035D01*
X78644690Y-76977961D01*
X78786959Y-76765040D01*
X78884956Y-76528455D01*
X78934914Y-76277298D01*
X78934914Y-76021220D01*
X78884956Y-75770063D01*
X78786959Y-75533478D01*
X78644690Y-75320557D01*
X78463616Y-75139483D01*
X78250695Y-74997214D01*
X78014110Y-74899217D01*
X77762953Y-74849259D01*
X77506875Y-74849259D01*
X77255718Y-74899217D01*
X77019133Y-74997214D01*
X76806212Y-75139483D01*
X76625138Y-75320557D01*
X76482869Y-75533478D01*
X76384872Y-75770063D01*
X76334914Y-76021220D01*
X64584286Y-76021220D01*
X64534328Y-75770063D01*
X64436331Y-75533478D01*
X64294062Y-75320557D01*
X64112988Y-75139483D01*
X63900067Y-74997214D01*
X63663482Y-74899217D01*
X63412325Y-74849259D01*
X63156247Y-74849259D01*
X62905090Y-74899217D01*
X62668505Y-74997214D01*
X62455584Y-75139483D01*
X62274510Y-75320557D01*
X62132241Y-75533478D01*
X62034244Y-75770063D01*
X61984286Y-76021220D01*
X54351538Y-76021220D01*
X56445337Y-71195745D01*
X56520489Y-71060479D01*
X56611761Y-70952688D01*
X56722227Y-70864682D01*
X56847685Y-70799808D01*
X56984113Y-70760318D01*
X57128439Y-70747000D01*
X59696147Y-70747000D01*
X59753045Y-70752579D01*
%TD*%
M02*
