%TF.GenerationSoftware,KiCad,Pcbnew,(5.1.6)-1*%
%TF.CreationDate,2025-12-08T08:50:58+05:30*%
%TF.ProjectId,Project_OAK_MAIN_BRD_V1.0,50726f6a-6563-4745-9f4f-414b5f4d4149,A*%
%TF.SameCoordinates,Original*%
%TF.FileFunction,Soldermask,Bot*%
%TF.FilePolarity,Negative*%
%FSLAX46Y46*%
G04 Gerber Fmt 4.6, Leading zero omitted, Abs format (unit mm)*
G04 Created by KiCad (PCBNEW (5.1.6)-1) date 2025-12-08 08:50:58*
%MOMM*%
%LPD*%
G01*
G04 APERTURE LIST*
%ADD10C,0.160000*%
%ADD11C,1.900000*%
%ADD12R,2.804000X5.764000*%
%ADD13R,8.004000X6.164000*%
%ADD14C,0.100000*%
%ADD15R,1.254000X1.604000*%
%ADD16C,1.200000*%
%ADD17R,1.200000X0.700000*%
G04 APERTURE END LIST*
D10*
X80340504Y-78557380D02*
X80340504Y-77557380D01*
X79959552Y-77557380D01*
X79864314Y-77605000D01*
X79816695Y-77652619D01*
X79769076Y-77747857D01*
X79769076Y-77890714D01*
X79816695Y-77985952D01*
X79864314Y-78033571D01*
X79959552Y-78081190D01*
X80340504Y-78081190D01*
X79340504Y-78557380D02*
X79340504Y-77890714D01*
X79340504Y-78081190D02*
X79292885Y-77985952D01*
X79245266Y-77938333D01*
X79150028Y-77890714D01*
X79054790Y-77890714D01*
X78578600Y-78557380D02*
X78673838Y-78509761D01*
X78721457Y-78462142D01*
X78769076Y-78366904D01*
X78769076Y-78081190D01*
X78721457Y-77985952D01*
X78673838Y-77938333D01*
X78578600Y-77890714D01*
X78435742Y-77890714D01*
X78340504Y-77938333D01*
X78292885Y-77985952D01*
X78245266Y-78081190D01*
X78245266Y-78366904D01*
X78292885Y-78462142D01*
X78340504Y-78509761D01*
X78435742Y-78557380D01*
X78578600Y-78557380D01*
X77816695Y-77890714D02*
X77816695Y-78747857D01*
X77864314Y-78843095D01*
X77959552Y-78890714D01*
X78007171Y-78890714D01*
X77816695Y-77557380D02*
X77864314Y-77605000D01*
X77816695Y-77652619D01*
X77769076Y-77605000D01*
X77816695Y-77557380D01*
X77816695Y-77652619D01*
X76959552Y-78509761D02*
X77054790Y-78557380D01*
X77245266Y-78557380D01*
X77340504Y-78509761D01*
X77388123Y-78414523D01*
X77388123Y-78033571D01*
X77340504Y-77938333D01*
X77245266Y-77890714D01*
X77054790Y-77890714D01*
X76959552Y-77938333D01*
X76911933Y-78033571D01*
X76911933Y-78128809D01*
X77388123Y-78224047D01*
X76054790Y-78509761D02*
X76150028Y-78557380D01*
X76340504Y-78557380D01*
X76435742Y-78509761D01*
X76483361Y-78462142D01*
X76530980Y-78366904D01*
X76530980Y-78081190D01*
X76483361Y-77985952D01*
X76435742Y-77938333D01*
X76340504Y-77890714D01*
X76150028Y-77890714D01*
X76054790Y-77938333D01*
X75769076Y-77890714D02*
X75388123Y-77890714D01*
X75626219Y-77557380D02*
X75626219Y-78414523D01*
X75578600Y-78509761D01*
X75483361Y-78557380D01*
X75388123Y-78557380D01*
X74102409Y-77557380D02*
X73911933Y-77557380D01*
X73816695Y-77605000D01*
X73721457Y-77700238D01*
X73673838Y-77890714D01*
X73673838Y-78224047D01*
X73721457Y-78414523D01*
X73816695Y-78509761D01*
X73911933Y-78557380D01*
X74102409Y-78557380D01*
X74197647Y-78509761D01*
X74292885Y-78414523D01*
X74340504Y-78224047D01*
X74340504Y-77890714D01*
X74292885Y-77700238D01*
X74197647Y-77605000D01*
X74102409Y-77557380D01*
X73292885Y-78271666D02*
X72816695Y-78271666D01*
X73388123Y-78557380D02*
X73054790Y-77557380D01*
X72721457Y-78557380D01*
X72388123Y-78557380D02*
X72388123Y-77557380D01*
X71816695Y-78557380D02*
X72245266Y-77985952D01*
X71816695Y-77557380D02*
X72388123Y-78128809D01*
X70626219Y-78557380D02*
X70626219Y-77557380D01*
X70292885Y-78271666D01*
X69959552Y-77557380D01*
X69959552Y-78557380D01*
X69530980Y-78271666D02*
X69054790Y-78271666D01*
X69626219Y-78557380D02*
X69292885Y-77557380D01*
X68959552Y-78557380D01*
X68626219Y-78557380D02*
X68626219Y-77557380D01*
X68150028Y-78557380D02*
X68150028Y-77557380D01*
X67578600Y-78557380D01*
X67578600Y-77557380D01*
X66007171Y-78033571D02*
X65864314Y-78081190D01*
X65816695Y-78128809D01*
X65769076Y-78224047D01*
X65769076Y-78366904D01*
X65816695Y-78462142D01*
X65864314Y-78509761D01*
X65959552Y-78557380D01*
X66340504Y-78557380D01*
X66340504Y-77557380D01*
X66007171Y-77557380D01*
X65911933Y-77605000D01*
X65864314Y-77652619D01*
X65816695Y-77747857D01*
X65816695Y-77843095D01*
X65864314Y-77938333D01*
X65911933Y-77985952D01*
X66007171Y-78033571D01*
X66340504Y-78033571D01*
X64769076Y-78557380D02*
X65102409Y-78081190D01*
X65340504Y-78557380D02*
X65340504Y-77557380D01*
X64959552Y-77557380D01*
X64864314Y-77605000D01*
X64816695Y-77652619D01*
X64769076Y-77747857D01*
X64769076Y-77890714D01*
X64816695Y-77985952D01*
X64864314Y-78033571D01*
X64959552Y-78081190D01*
X65340504Y-78081190D01*
X64340504Y-78557380D02*
X64340504Y-77557380D01*
X64102409Y-77557380D01*
X63959552Y-77605000D01*
X63864314Y-77700238D01*
X63816695Y-77795476D01*
X63769076Y-77985952D01*
X63769076Y-78128809D01*
X63816695Y-78319285D01*
X63864314Y-78414523D01*
X63959552Y-78509761D01*
X64102409Y-78557380D01*
X64340504Y-78557380D01*
X62721457Y-77557380D02*
X62388123Y-78557380D01*
X62054790Y-77557380D01*
X61197647Y-78557380D02*
X61769076Y-78557380D01*
X61483361Y-78557380D02*
X61483361Y-77557380D01*
X61578600Y-77700238D01*
X61673838Y-77795476D01*
X61769076Y-77843095D01*
X60769076Y-78462142D02*
X60721457Y-78509761D01*
X60769076Y-78557380D01*
X60816695Y-78509761D01*
X60769076Y-78462142D01*
X60769076Y-78557380D01*
X60102409Y-77557380D02*
X60007171Y-77557380D01*
X59911933Y-77605000D01*
X59864314Y-77652619D01*
X59816695Y-77747857D01*
X59769076Y-77938333D01*
X59769076Y-78176428D01*
X59816695Y-78366904D01*
X59864314Y-78462142D01*
X59911933Y-78509761D01*
X60007171Y-78557380D01*
X60102409Y-78557380D01*
X60197647Y-78509761D01*
X60245266Y-78462142D01*
X60292885Y-78366904D01*
X60340504Y-78176428D01*
X60340504Y-77938333D01*
X60292885Y-77747857D01*
X60245266Y-77652619D01*
X60197647Y-77605000D01*
X60102409Y-77557380D01*
%TO.C,TP8*%
G36*
G01*
X65628500Y-105482400D02*
X65628500Y-105007400D01*
G75*
G02*
X65866000Y-104769900I237500J0D01*
G01*
X66341000Y-104769900D01*
G75*
G02*
X66578500Y-105007400I0J-237500D01*
G01*
X66578500Y-105482400D01*
G75*
G02*
X66341000Y-105719900I-237500J0D01*
G01*
X65866000Y-105719900D01*
G75*
G02*
X65628500Y-105482400I0J237500D01*
G01*
G37*
%TD*%
%TO.C,TP2*%
G36*
G01*
X65615800Y-104199700D02*
X65615800Y-103724700D01*
G75*
G02*
X65853300Y-103487200I237500J0D01*
G01*
X66328300Y-103487200D01*
G75*
G02*
X66565800Y-103724700I0J-237500D01*
G01*
X66565800Y-104199700D01*
G75*
G02*
X66328300Y-104437200I-237500J0D01*
G01*
X65853300Y-104437200D01*
G75*
G02*
X65615800Y-104199700I0J237500D01*
G01*
G37*
%TD*%
D11*
%TO.C,REF\u002A\u002A*%
X63284286Y-76149259D03*
%TD*%
%TO.C,REF\u002A\u002A*%
X53136859Y-86296686D03*
%TD*%
%TO.C,REF\u002A\u002A*%
X53136859Y-100647314D03*
%TD*%
%TO.C,REF\u002A\u002A*%
X63284286Y-110794741D03*
%TD*%
%TO.C,REF\u002A\u002A*%
X77634914Y-110794741D03*
%TD*%
%TO.C,REF\u002A\u002A*%
X87782341Y-100647314D03*
%TD*%
%TO.C,REF\u002A\u002A*%
X87782341Y-86296686D03*
%TD*%
%TO.C,REF\u002A\u002A*%
X77634914Y-76149259D03*
%TD*%
D12*
%TO.C,BT1*%
X58554600Y-93472000D03*
X82364600Y-93472000D03*
D13*
X70459600Y-93472000D03*
%TD*%
D14*
%TO.C,S3*%
G36*
X87304140Y-106440503D02*
G01*
X88454133Y-106940534D01*
X87814540Y-108411499D01*
X86664547Y-107911468D01*
X87304140Y-106440503D01*
G37*
G36*
X88739637Y-103139087D02*
G01*
X89889630Y-103639118D01*
X89250037Y-105110083D01*
X88100044Y-104610052D01*
X88739637Y-103139087D01*
G37*
G36*
X85974403Y-105862317D02*
G01*
X87124396Y-106362348D01*
X86484803Y-107833313D01*
X85334810Y-107333282D01*
X85974403Y-105862317D01*
G37*
G36*
X87409900Y-102560901D02*
G01*
X88559893Y-103060932D01*
X87920300Y-104531897D01*
X86770307Y-104031866D01*
X87409900Y-102560901D01*
G37*
%TD*%
D15*
%TO.C,S1*%
X90582580Y-95269460D03*
X90582580Y-91669460D03*
X89132580Y-95269460D03*
X89132580Y-91669460D03*
%TD*%
D14*
%TO.C,S2*%
G36*
X88100044Y-82331408D02*
G01*
X89250037Y-81831377D01*
X89889630Y-83302342D01*
X88739637Y-83802373D01*
X88100044Y-82331408D01*
G37*
G36*
X86664547Y-79029992D02*
G01*
X87814540Y-78529961D01*
X88454133Y-80000926D01*
X87304140Y-80500957D01*
X86664547Y-79029992D01*
G37*
G36*
X86770307Y-82909594D02*
G01*
X87920300Y-82409563D01*
X88559893Y-83880528D01*
X87409900Y-84380559D01*
X86770307Y-82909594D01*
G37*
G36*
X85334810Y-79608178D02*
G01*
X86484803Y-79108147D01*
X87124396Y-80579112D01*
X85974403Y-81079143D01*
X85334810Y-79608178D01*
G37*
%TD*%
%TO.C,C1*%
G36*
G01*
X87852500Y-94352000D02*
X87407500Y-94352000D01*
G75*
G02*
X87210000Y-94154500I0J197500D01*
G01*
X87210000Y-93759500D01*
G75*
G02*
X87407500Y-93562000I197500J0D01*
G01*
X87852500Y-93562000D01*
G75*
G02*
X88050000Y-93759500I0J-197500D01*
G01*
X88050000Y-94154500D01*
G75*
G02*
X87852500Y-94352000I-197500J0D01*
G01*
G37*
G36*
G01*
X87852500Y-93382000D02*
X87407500Y-93382000D01*
G75*
G02*
X87210000Y-93184500I0J197500D01*
G01*
X87210000Y-92789500D01*
G75*
G02*
X87407500Y-92592000I197500J0D01*
G01*
X87852500Y-92592000D01*
G75*
G02*
X88050000Y-92789500I0J-197500D01*
G01*
X88050000Y-93184500D01*
G75*
G02*
X87852500Y-93382000I-197500J0D01*
G01*
G37*
%TD*%
%TO.C,C2*%
G36*
G01*
X85766159Y-82251743D02*
X85358067Y-82429186D01*
G75*
G02*
X85098195Y-82326820I-78753J181119D01*
G01*
X84940689Y-81964581D01*
G75*
G02*
X85043055Y-81704709I181119J78753D01*
G01*
X85451147Y-81527266D01*
G75*
G02*
X85711019Y-81629632I78753J-181119D01*
G01*
X85868525Y-81991871D01*
G75*
G02*
X85766159Y-82251743I-181119J-78753D01*
G01*
G37*
G36*
G01*
X86152945Y-83141291D02*
X85744853Y-83318734D01*
G75*
G02*
X85484981Y-83216368I-78753J181119D01*
G01*
X85327475Y-82854129D01*
G75*
G02*
X85429841Y-82594257I181119J78753D01*
G01*
X85837933Y-82416814D01*
G75*
G02*
X86097805Y-82519180I78753J-181119D01*
G01*
X86255311Y-82881419D01*
G75*
G02*
X86152945Y-83141291I-181119J-78753D01*
G01*
G37*
%TD*%
%TO.C,C3*%
G36*
G01*
X85719453Y-103650666D02*
X86127545Y-103828109D01*
G75*
G02*
X86229911Y-104087981I-78753J-181119D01*
G01*
X86072405Y-104450220D01*
G75*
G02*
X85812533Y-104552586I-181119J78753D01*
G01*
X85404441Y-104375143D01*
G75*
G02*
X85302075Y-104115271I78753J181119D01*
G01*
X85459581Y-103753032D01*
G75*
G02*
X85719453Y-103650666I181119J-78753D01*
G01*
G37*
G36*
G01*
X85332667Y-104540214D02*
X85740759Y-104717657D01*
G75*
G02*
X85843125Y-104977529I-78753J-181119D01*
G01*
X85685619Y-105339768D01*
G75*
G02*
X85425747Y-105442134I-181119J78753D01*
G01*
X85017655Y-105264691D01*
G75*
G02*
X84915289Y-105004819I78753J181119D01*
G01*
X85072795Y-104642580D01*
G75*
G02*
X85332667Y-104540214I181119J-78753D01*
G01*
G37*
%TD*%
%TO.C,C4*%
G36*
G01*
X82800080Y-98740980D02*
X82800080Y-99185980D01*
G75*
G02*
X82602580Y-99383480I-197500J0D01*
G01*
X82207580Y-99383480D01*
G75*
G02*
X82010080Y-99185980I0J197500D01*
G01*
X82010080Y-98740980D01*
G75*
G02*
X82207580Y-98543480I197500J0D01*
G01*
X82602580Y-98543480D01*
G75*
G02*
X82800080Y-98740980I0J-197500D01*
G01*
G37*
G36*
G01*
X81830080Y-98740980D02*
X81830080Y-99185980D01*
G75*
G02*
X81632580Y-99383480I-197500J0D01*
G01*
X81237580Y-99383480D01*
G75*
G02*
X81040080Y-99185980I0J197500D01*
G01*
X81040080Y-98740980D01*
G75*
G02*
X81237580Y-98543480I197500J0D01*
G01*
X81632580Y-98543480D01*
G75*
G02*
X81830080Y-98740980I0J-197500D01*
G01*
G37*
%TD*%
D16*
%TO.C,TP1*%
X72999600Y-105968800D03*
%TD*%
%TO.C,TP3*%
X70459600Y-105968800D03*
%TD*%
%TO.C,TP4*%
X72999600Y-103428800D03*
%TD*%
%TO.C,TP5*%
X70459600Y-103428800D03*
%TD*%
%TO.C,TP12*%
X67919600Y-103428800D03*
%TD*%
%TO.C,TP13*%
X67919600Y-105968800D03*
%TD*%
D13*
%TO.C,BT1*%
X70459600Y-93472000D03*
D12*
X82364600Y-93472000D03*
X58554600Y-93472000D03*
%TD*%
D17*
%TO.C,JP9*%
X84607400Y-97036000D03*
X84607400Y-98036000D03*
%TD*%
%TO.C,JP5*%
X59029600Y-86723600D03*
X59029600Y-87723600D03*
%TD*%
M02*
