%TF.GenerationSoftware,KiCad,Pcbnew,(5.1.6)-1*%
%TF.CreationDate,2025-11-02T22:07:18+05:30*%
%TF.ProjectId,Project_OAK_MAIN_BRD_V1.0,50726f6a-6563-4745-9f4f-414b5f4d4149,A*%
%TF.SameCoordinates,Original*%
%TF.FileFunction,Paste,Bot*%
%TF.FilePolarity,Positive*%
%FSLAX46Y46*%
G04 Gerber Fmt 4.6, Leading zero omitted, Abs format (unit mm)*
G04 Created by KiCad (PCBNEW (5.1.6)-1) date 2025-11-02 22:07:18*
%MOMM*%
%LPD*%
G01*
G04 APERTURE LIST*
%ADD10R,2.600000X5.560000*%
%ADD11C,0.100000*%
%ADD12R,1.050000X1.400000*%
G04 APERTURE END LIST*
D10*
%TO.C,BT1*%
X58554600Y-93472000D03*
X82364600Y-93472000D03*
%TD*%
D11*
%TO.C,S3*%
G36*
X87357008Y-106574716D02*
G01*
X88319921Y-106993402D01*
X87761672Y-108277286D01*
X86798759Y-107858600D01*
X87357008Y-106574716D01*
G37*
G36*
X88792505Y-103273300D02*
G01*
X89755418Y-103691986D01*
X89197169Y-104975870D01*
X88234256Y-104557184D01*
X88792505Y-103273300D01*
G37*
G36*
X86027271Y-105996530D02*
G01*
X86990184Y-106415216D01*
X86431935Y-107699100D01*
X85469022Y-107280414D01*
X86027271Y-105996530D01*
G37*
G36*
X87462768Y-102695114D02*
G01*
X88425681Y-103113800D01*
X87867432Y-104397684D01*
X86904519Y-103978998D01*
X87462768Y-102695114D01*
G37*
%TD*%
D12*
%TO.C,S1*%
X90582580Y-95269460D03*
X90582580Y-91669460D03*
X89132580Y-95269460D03*
X89132580Y-91669460D03*
%TD*%
D11*
%TO.C,S2*%
G36*
X88234256Y-82384276D02*
G01*
X89197169Y-81965590D01*
X89755418Y-83249474D01*
X88792505Y-83668160D01*
X88234256Y-82384276D01*
G37*
G36*
X86798759Y-79082860D02*
G01*
X87761672Y-78664174D01*
X88319921Y-79948058D01*
X87357008Y-80366744D01*
X86798759Y-79082860D01*
G37*
G36*
X86904519Y-82962462D02*
G01*
X87867432Y-82543776D01*
X88425681Y-83827660D01*
X87462768Y-84246346D01*
X86904519Y-82962462D01*
G37*
G36*
X85469022Y-79661046D02*
G01*
X86431935Y-79242360D01*
X86990184Y-80526244D01*
X86027271Y-80944930D01*
X85469022Y-79661046D01*
G37*
%TD*%
%TO.C,C1*%
G36*
G01*
X87802500Y-94252000D02*
X87457500Y-94252000D01*
G75*
G02*
X87310000Y-94104500I0J147500D01*
G01*
X87310000Y-93809500D01*
G75*
G02*
X87457500Y-93662000I147500J0D01*
G01*
X87802500Y-93662000D01*
G75*
G02*
X87950000Y-93809500I0J-147500D01*
G01*
X87950000Y-94104500D01*
G75*
G02*
X87802500Y-94252000I-147500J0D01*
G01*
G37*
G36*
G01*
X87802500Y-93282000D02*
X87457500Y-93282000D01*
G75*
G02*
X87310000Y-93134500I0J147500D01*
G01*
X87310000Y-92839500D01*
G75*
G02*
X87457500Y-92692000I147500J0D01*
G01*
X87802500Y-92692000D01*
G75*
G02*
X87950000Y-92839500I0J-147500D01*
G01*
X87950000Y-93134500D01*
G75*
G02*
X87802500Y-93282000I-147500J0D01*
G01*
G37*
%TD*%
%TO.C,C2*%
G36*
G01*
X85680431Y-82179975D02*
X85364045Y-82317543D01*
G75*
G02*
X85169964Y-82241092I-58815J135266D01*
G01*
X85052333Y-81970559D01*
G75*
G02*
X85128784Y-81776478I135266J58815D01*
G01*
X85445169Y-81638909D01*
G75*
G02*
X85639250Y-81715360I58815J-135266D01*
G01*
X85756881Y-81985893D01*
G75*
G02*
X85680430Y-82179974I-135266J-58815D01*
G01*
G37*
G36*
G01*
X86067217Y-83069523D02*
X85750831Y-83207091D01*
G75*
G02*
X85556750Y-83130640I-58815J135266D01*
G01*
X85439119Y-82860107D01*
G75*
G02*
X85515570Y-82666026I135266J58815D01*
G01*
X85831955Y-82528457D01*
G75*
G02*
X86026036Y-82604908I58815J-135266D01*
G01*
X86143667Y-82875441D01*
G75*
G02*
X86067216Y-83069522I-135266J-58815D01*
G01*
G37*
%TD*%
%TO.C,C3*%
G36*
G01*
X85725431Y-103762309D02*
X86041816Y-103899878D01*
G75*
G02*
X86118267Y-104093959I-58815J-135266D01*
G01*
X86000636Y-104364492D01*
G75*
G02*
X85806555Y-104440943I-135266J58815D01*
G01*
X85490170Y-104303374D01*
G75*
G02*
X85413719Y-104109293I58815J135266D01*
G01*
X85531350Y-103838760D01*
G75*
G02*
X85725431Y-103762309I135266J-58815D01*
G01*
G37*
G36*
G01*
X85338645Y-104651857D02*
X85655030Y-104789426D01*
G75*
G02*
X85731481Y-104983507I-58815J-135266D01*
G01*
X85613850Y-105254040D01*
G75*
G02*
X85419769Y-105330491I-135266J58815D01*
G01*
X85103384Y-105192922D01*
G75*
G02*
X85026933Y-104998841I58815J135266D01*
G01*
X85144564Y-104728308D01*
G75*
G02*
X85338645Y-104651857I135266J-58815D01*
G01*
G37*
%TD*%
%TO.C,C4*%
G36*
G01*
X83507800Y-99014500D02*
X83507800Y-99359500D01*
G75*
G02*
X83360300Y-99507000I-147500J0D01*
G01*
X83065300Y-99507000D01*
G75*
G02*
X82917800Y-99359500I0J147500D01*
G01*
X82917800Y-99014500D01*
G75*
G02*
X83065300Y-98867000I147500J0D01*
G01*
X83360300Y-98867000D01*
G75*
G02*
X83507800Y-99014500I0J-147500D01*
G01*
G37*
G36*
G01*
X82537800Y-99014500D02*
X82537800Y-99359500D01*
G75*
G02*
X82390300Y-99507000I-147500J0D01*
G01*
X82095300Y-99507000D01*
G75*
G02*
X81947800Y-99359500I0J147500D01*
G01*
X81947800Y-99014500D01*
G75*
G02*
X82095300Y-98867000I147500J0D01*
G01*
X82390300Y-98867000D01*
G75*
G02*
X82537800Y-99014500I0J-147500D01*
G01*
G37*
%TD*%
D10*
%TO.C,BT1*%
X82364600Y-93472000D03*
X58554600Y-93472000D03*
%TD*%
M02*
