%TF.GenerationSoftware,KiCad,Pcbnew,(5.1.6)-1*%
%TF.CreationDate,2025-11-30T17:49:07+05:30*%
%TF.ProjectId,Project_OAK_MAIN_BRD_V1.0,50726f6a-6563-4745-9f4f-414b5f4d4149,A*%
%TF.SameCoordinates,Original*%
%TF.FileFunction,Soldermask,Top*%
%TF.FilePolarity,Negative*%
%FSLAX46Y46*%
G04 Gerber Fmt 4.6, Leading zero omitted, Abs format (unit mm)*
G04 Created by KiCad (PCBNEW (5.1.6)-1) date 2025-11-30 17:49:07*
%MOMM*%
%LPD*%
G01*
G04 APERTURE LIST*
%ADD10C,0.300000*%
%ADD11C,0.010000*%
%ADD12C,0.100000*%
%ADD13R,1.004000X0.704000*%
%ADD14C,1.900000*%
%ADD15C,1.200000*%
%ADD16R,3.300000X3.300000*%
%ADD17R,1.200000X0.700000*%
%ADD18C,0.499999*%
G04 APERTURE END LIST*
D10*
X85402028Y-93186285D02*
X85402028Y-92329142D01*
X85402028Y-92757714D02*
X86902028Y-92757714D01*
X86687742Y-92614857D01*
X86544885Y-92472000D01*
X86473457Y-92329142D01*
X86902028Y-94543428D02*
X86902028Y-93829142D01*
X86187742Y-93757714D01*
X86259171Y-93829142D01*
X86330600Y-93972000D01*
X86330600Y-94329142D01*
X86259171Y-94472000D01*
X86187742Y-94543428D01*
X86044885Y-94614857D01*
X85687742Y-94614857D01*
X85544885Y-94543428D01*
X85473457Y-94472000D01*
X85402028Y-94329142D01*
X85402028Y-93972000D01*
X85473457Y-93829142D01*
X85544885Y-93757714D01*
X85144188Y-100632042D02*
X85170333Y-100729615D01*
X85160763Y-100889047D01*
X84982192Y-101198342D01*
X84848904Y-101286346D01*
X84751331Y-101312490D01*
X84591899Y-101302921D01*
X84468181Y-101231492D01*
X84318318Y-101062490D01*
X84004582Y-99891612D01*
X83540297Y-100695778D01*
X84375049Y-102249944D02*
X84303620Y-102373662D01*
X84170333Y-102461666D01*
X84072760Y-102487811D01*
X83913327Y-102478241D01*
X83630177Y-102397243D01*
X83320882Y-102218671D01*
X83109161Y-102013955D01*
X83021157Y-101880668D01*
X82995013Y-101783095D01*
X83004582Y-101623662D01*
X83076011Y-101499944D01*
X83209298Y-101411941D01*
X83306872Y-101385796D01*
X83466304Y-101395366D01*
X83749454Y-101476364D01*
X84058749Y-101654935D01*
X84270470Y-101859651D01*
X84358474Y-101992939D01*
X84384619Y-102090512D01*
X84375049Y-102249944D01*
X79599129Y-107013731D02*
X79572984Y-107111304D01*
X79484980Y-107244592D01*
X79175685Y-107423163D01*
X79016253Y-107432733D01*
X78918680Y-107406588D01*
X78785392Y-107318585D01*
X78713964Y-107194867D01*
X78668680Y-106973575D01*
X78982416Y-105802697D01*
X78178250Y-106266982D01*
X77752929Y-108244592D02*
X78371519Y-107887449D01*
X78076235Y-107233145D01*
X78050090Y-107330718D01*
X77962087Y-107464006D01*
X77652792Y-107642577D01*
X77493360Y-107652147D01*
X77395787Y-107626002D01*
X77262499Y-107537999D01*
X77083928Y-107228704D01*
X77074358Y-107069272D01*
X77100503Y-106971698D01*
X77188506Y-106838411D01*
X77497801Y-106659839D01*
X77657233Y-106650270D01*
X77754807Y-106676414D01*
X63289987Y-108379520D02*
X62485821Y-107915235D01*
X63204548Y-107670363D01*
X63018971Y-107563220D01*
X62930968Y-107429933D01*
X62904823Y-107332359D01*
X62914392Y-107172927D01*
X63092964Y-106863632D01*
X63226251Y-106775629D01*
X63323825Y-106749484D01*
X63483257Y-106759054D01*
X63854411Y-106973339D01*
X63942414Y-107106627D01*
X63968559Y-107204200D01*
X61310501Y-107236663D02*
X61929090Y-107593806D01*
X62348092Y-107010931D01*
X62250519Y-107037075D01*
X62091087Y-107027506D01*
X61781792Y-106848934D01*
X61693788Y-106715647D01*
X61667644Y-106618074D01*
X61677213Y-106458641D01*
X61855785Y-106149347D01*
X61989072Y-106061343D01*
X62086646Y-106035198D01*
X62246078Y-106044768D01*
X62555373Y-106223339D01*
X62643376Y-106356627D01*
X62669521Y-106454200D01*
X61865590Y-79350193D02*
X61247001Y-79707336D01*
X61542285Y-80361640D01*
X61568429Y-80264066D01*
X61656433Y-80130779D01*
X61965728Y-79952207D01*
X62125160Y-79942638D01*
X62222733Y-79968782D01*
X62356021Y-80056786D01*
X62534592Y-80366081D01*
X62544162Y-80525513D01*
X62518017Y-80623086D01*
X62430014Y-80756374D01*
X62120719Y-80934945D01*
X61961287Y-80944515D01*
X61863713Y-80918370D01*
X63102770Y-78635907D02*
X62484180Y-78993050D01*
X62779464Y-79647354D01*
X62805609Y-79549781D01*
X62893612Y-79416493D01*
X63202907Y-79237922D01*
X63362339Y-79228352D01*
X63459912Y-79254497D01*
X63593200Y-79342500D01*
X63771771Y-79651795D01*
X63781341Y-79811227D01*
X63755196Y-79908801D01*
X63667193Y-80042088D01*
X63357898Y-80220660D01*
X63198466Y-80230229D01*
X63100892Y-80204085D01*
X70031028Y-76966071D02*
X69745314Y-76966071D01*
X69602457Y-77037500D01*
X69531028Y-77108928D01*
X69388171Y-77323214D01*
X69316742Y-77608928D01*
X69316742Y-78180357D01*
X69388171Y-78323214D01*
X69459600Y-78394642D01*
X69602457Y-78466071D01*
X69888171Y-78466071D01*
X70031028Y-78394642D01*
X70102457Y-78323214D01*
X70173885Y-78180357D01*
X70173885Y-77823214D01*
X70102457Y-77680357D01*
X70031028Y-77608928D01*
X69888171Y-77537500D01*
X69602457Y-77537500D01*
X69459600Y-77608928D01*
X69388171Y-77680357D01*
X69316742Y-77823214D01*
X71102457Y-76966071D02*
X71245314Y-76966071D01*
X71388171Y-77037500D01*
X71459600Y-77108928D01*
X71531028Y-77251785D01*
X71602457Y-77537500D01*
X71602457Y-77894642D01*
X71531028Y-78180357D01*
X71459600Y-78323214D01*
X71388171Y-78394642D01*
X71245314Y-78466071D01*
X71102457Y-78466071D01*
X70959600Y-78394642D01*
X70888171Y-78323214D01*
X70816742Y-78180357D01*
X70745314Y-77894642D01*
X70745314Y-77537500D01*
X70816742Y-77251785D01*
X70888171Y-77108928D01*
X70959600Y-77037500D01*
X71102457Y-76966071D01*
X78000365Y-78842264D02*
X78124083Y-78913693D01*
X78212087Y-79046980D01*
X78238231Y-79144554D01*
X78228662Y-79303986D01*
X78147664Y-79587136D01*
X77969092Y-79896431D01*
X77764376Y-80108152D01*
X77631089Y-80196156D01*
X77533515Y-80222301D01*
X77374083Y-80212731D01*
X77250365Y-80141302D01*
X77162362Y-80008015D01*
X77136217Y-79910442D01*
X77145787Y-79751009D01*
X77226785Y-79467859D01*
X77405356Y-79158565D01*
X77610072Y-78946843D01*
X77743360Y-78858839D01*
X77840933Y-78832695D01*
X78000365Y-78842264D01*
X79608698Y-79770836D02*
X78990109Y-79413693D01*
X78571107Y-79996568D01*
X78668680Y-79970424D01*
X78828112Y-79979993D01*
X79137407Y-80158565D01*
X79225411Y-80291852D01*
X79251555Y-80389425D01*
X79241986Y-80548858D01*
X79063414Y-80858152D01*
X78930127Y-80946156D01*
X78832553Y-80972301D01*
X78673121Y-80962731D01*
X78363826Y-80784160D01*
X78275823Y-80650872D01*
X78249678Y-80553299D01*
X83254582Y-85753349D02*
X82826011Y-85011042D01*
X83040297Y-85382196D02*
X84339335Y-84632196D01*
X84082329Y-84615621D01*
X83887183Y-84563331D01*
X83753895Y-84475328D01*
X85017906Y-85807516D02*
X85089335Y-85931234D01*
X85098904Y-86090666D01*
X85072760Y-86188239D01*
X84984756Y-86321527D01*
X84773034Y-86526243D01*
X84463740Y-86704814D01*
X84180590Y-86785812D01*
X84021157Y-86795382D01*
X83923584Y-86769237D01*
X83790297Y-86681234D01*
X83718868Y-86557516D01*
X83709298Y-86398084D01*
X83735443Y-86300510D01*
X83823447Y-86167223D01*
X84035168Y-85962507D01*
X84344463Y-85783935D01*
X84627613Y-85702937D01*
X84787045Y-85693368D01*
X84884619Y-85719512D01*
X85017906Y-85807516D01*
X55917150Y-85496580D02*
X55560007Y-86115170D01*
X56142882Y-86534171D01*
X56116738Y-86436598D01*
X56126307Y-86277166D01*
X56304879Y-85967871D01*
X56438166Y-85879868D01*
X56535740Y-85853723D01*
X56695172Y-85863292D01*
X57004467Y-86041864D01*
X57092470Y-86175151D01*
X57118615Y-86272725D01*
X57109045Y-86432157D01*
X56930474Y-86741452D01*
X56797186Y-86829455D01*
X56699613Y-86855600D01*
X56417150Y-84630555D02*
X56488579Y-84506837D01*
X56621866Y-84418833D01*
X56719439Y-84392688D01*
X56878872Y-84402258D01*
X57162022Y-84483256D01*
X57471317Y-84661828D01*
X57683038Y-84866544D01*
X57771042Y-84999831D01*
X57797186Y-85097404D01*
X57787617Y-85256837D01*
X57716188Y-85380555D01*
X57582901Y-85468558D01*
X57485327Y-85494703D01*
X57325895Y-85485133D01*
X57042745Y-85404135D01*
X56733450Y-85225564D01*
X56521729Y-85020848D01*
X56433725Y-84887560D01*
X56407580Y-84789987D01*
X56417150Y-84630555D01*
X54390171Y-93900571D02*
X55390171Y-93900571D01*
X53818742Y-94257714D02*
X54890171Y-94614857D01*
X54890171Y-93686285D01*
X53890171Y-92400571D02*
X53890171Y-93114857D01*
X54604457Y-93186285D01*
X54533028Y-93114857D01*
X54461600Y-92972000D01*
X54461600Y-92614857D01*
X54533028Y-92472000D01*
X54604457Y-92400571D01*
X54747314Y-92329142D01*
X55104457Y-92329142D01*
X55247314Y-92400571D01*
X55318742Y-92472000D01*
X55390171Y-92614857D01*
X55390171Y-92972000D01*
X55318742Y-93114857D01*
X55247314Y-93186285D01*
X56806520Y-101877868D02*
X57672545Y-101377868D01*
X56490220Y-102472877D02*
X57596675Y-102246457D01*
X57132390Y-101442291D01*
X55837793Y-101199983D02*
X55766364Y-101076265D01*
X55756795Y-100916833D01*
X55782939Y-100819260D01*
X55870943Y-100685972D01*
X56082665Y-100481256D01*
X56391959Y-100302685D01*
X56675109Y-100221687D01*
X56834542Y-100212117D01*
X56932115Y-100238262D01*
X57065402Y-100326265D01*
X57136831Y-100449983D01*
X57146401Y-100609415D01*
X57120256Y-100706989D01*
X57032252Y-100840276D01*
X56820531Y-101044992D01*
X56511236Y-101223564D01*
X56228086Y-101304562D01*
X56068654Y-101314131D01*
X55971080Y-101287987D01*
X55837793Y-101199983D01*
D11*
%TO.C,G\u002A\u002A\u002A*%
G36*
X71459090Y-108450380D02*
G01*
X71575507Y-108565351D01*
X71575507Y-109626576D01*
X71459090Y-109741547D01*
X71342674Y-109856517D01*
X71342674Y-108335410D01*
X71459090Y-108450380D01*
G37*
X71459090Y-108450380D02*
X71575507Y-108565351D01*
X71575507Y-109626576D01*
X71459090Y-109741547D01*
X71342674Y-109856517D01*
X71342674Y-108335410D01*
X71459090Y-108450380D01*
G36*
X69545200Y-109867700D02*
G01*
X69333534Y-109867700D01*
X69333534Y-109613700D01*
X69545200Y-109613700D01*
X69545200Y-109867700D01*
G37*
X69545200Y-109867700D02*
X69333534Y-109867700D01*
X69333534Y-109613700D01*
X69545200Y-109613700D01*
X69545200Y-109867700D01*
G36*
X70709168Y-108831528D02*
G01*
X70776161Y-108965157D01*
X70836471Y-109086408D01*
X70887579Y-109190144D01*
X70926969Y-109271224D01*
X70952123Y-109324511D01*
X70960538Y-109344672D01*
X70941843Y-109352755D01*
X70891824Y-109358473D01*
X70824278Y-109360547D01*
X70686882Y-109360547D01*
X70573634Y-109134801D01*
X70460385Y-108909054D01*
X69975401Y-109857964D01*
X69690579Y-109870506D01*
X70458933Y-108334260D01*
X70709168Y-108831528D01*
G37*
X70709168Y-108831528D02*
X70776161Y-108965157D01*
X70836471Y-109086408D01*
X70887579Y-109190144D01*
X70926969Y-109271224D01*
X70952123Y-109324511D01*
X70960538Y-109344672D01*
X70941843Y-109352755D01*
X70891824Y-109358473D01*
X70824278Y-109360547D01*
X70686882Y-109360547D01*
X70573634Y-109134801D01*
X70460385Y-108909054D01*
X69975401Y-109857964D01*
X69690579Y-109870506D01*
X70458933Y-108334260D01*
X70709168Y-108831528D01*
G36*
X71162400Y-109740843D02*
G01*
X71191671Y-109800475D01*
X71211021Y-109843478D01*
X71215674Y-109857260D01*
X71196359Y-109862999D01*
X71145809Y-109867063D01*
X71077566Y-109868547D01*
X71002364Y-109867219D01*
X70958421Y-109860765D01*
X70934690Y-109845482D01*
X70920121Y-109817665D01*
X70919286Y-109815487D01*
X70894471Y-109757332D01*
X70866349Y-109699070D01*
X70833586Y-109635714D01*
X71109127Y-109635714D01*
X71162400Y-109740843D01*
G37*
X71162400Y-109740843D02*
X71191671Y-109800475D01*
X71211021Y-109843478D01*
X71215674Y-109857260D01*
X71196359Y-109862999D01*
X71145809Y-109867063D01*
X71077566Y-109868547D01*
X71002364Y-109867219D01*
X70958421Y-109860765D01*
X70934690Y-109845482D01*
X70920121Y-109817665D01*
X70919286Y-109815487D01*
X70894471Y-109757332D01*
X70866349Y-109699070D01*
X70833586Y-109635714D01*
X71109127Y-109635714D01*
X71162400Y-109740843D01*
D12*
%TO.C,NT1*%
G36*
X78257400Y-89357200D02*
G01*
X78257400Y-89662000D01*
X77952600Y-89662000D01*
X77952600Y-89357200D01*
X78257400Y-89357200D01*
G37*
%TO.C,NT2*%
G36*
X76962000Y-89662000D02*
G01*
X76962000Y-89357200D01*
X77266800Y-89357200D01*
X77266800Y-89662000D01*
X76962000Y-89662000D01*
G37*
%TO.C,NT3*%
G36*
X74930000Y-89662000D02*
G01*
X74930000Y-89357200D01*
X75234800Y-89357200D01*
X75234800Y-89662000D01*
X74930000Y-89662000D01*
G37*
%TO.C,NT4*%
G36*
X74117200Y-89662000D02*
G01*
X74117200Y-89357200D01*
X74422000Y-89357200D01*
X74422000Y-89662000D01*
X74117200Y-89662000D01*
G37*
%TO.C,NT5*%
G36*
X74523600Y-97332800D02*
G01*
X74523600Y-97637600D01*
X74218800Y-97637600D01*
X74218800Y-97332800D01*
X74523600Y-97332800D01*
G37*
%TO.C,NT6*%
G36*
X75387200Y-97332800D02*
G01*
X75387200Y-97637600D01*
X75082400Y-97637600D01*
X75082400Y-97332800D01*
X75387200Y-97332800D01*
G37*
%TO.C,NT7*%
G36*
X61772800Y-92633800D02*
G01*
X61772800Y-92329000D01*
X62077600Y-92329000D01*
X62077600Y-92633800D01*
X61772800Y-92633800D01*
G37*
D11*
%TO.C,U3*%
G36*
X70409600Y-87562600D02*
G01*
X70009600Y-87562600D01*
X70009600Y-87112600D01*
X70409600Y-87112600D01*
X70409600Y-87562600D01*
G37*
X70409600Y-87562600D02*
X70009600Y-87562600D01*
X70009600Y-87112600D01*
X70409600Y-87112600D01*
X70409600Y-87562600D01*
G36*
X70909600Y-87562600D02*
G01*
X70509600Y-87562600D01*
X70509600Y-87112600D01*
X70909600Y-87112600D01*
X70909600Y-87562600D01*
G37*
X70909600Y-87562600D02*
X70509600Y-87562600D01*
X70509600Y-87112600D01*
X70909600Y-87112600D01*
X70909600Y-87562600D01*
G36*
X70409600Y-89112600D02*
G01*
X70009600Y-89112600D01*
X70009600Y-88662600D01*
X70409600Y-88662600D01*
X70409600Y-89112600D01*
G37*
X70409600Y-89112600D02*
X70009600Y-89112600D01*
X70009600Y-88662600D01*
X70409600Y-88662600D01*
X70409600Y-89112600D01*
G36*
X70909600Y-89112600D02*
G01*
X70509600Y-89112600D01*
X70509600Y-88662600D01*
X70909600Y-88662600D01*
X70909600Y-89112600D01*
G37*
X70909600Y-89112600D02*
X70509600Y-89112600D01*
X70509600Y-88662600D01*
X70909600Y-88662600D01*
X70909600Y-89112600D01*
G36*
X69909600Y-87562600D02*
G01*
X69459600Y-87562600D01*
X69459600Y-87162600D01*
X69909600Y-87162600D01*
X69909600Y-87562600D01*
G37*
X69909600Y-87562600D02*
X69459600Y-87562600D01*
X69459600Y-87162600D01*
X69909600Y-87162600D01*
X69909600Y-87562600D01*
G36*
X69909600Y-88062600D02*
G01*
X69459600Y-88062600D01*
X69459600Y-87662600D01*
X69909600Y-87662600D01*
X69909600Y-88062600D01*
G37*
X69909600Y-88062600D02*
X69459600Y-88062600D01*
X69459600Y-87662600D01*
X69909600Y-87662600D01*
X69909600Y-88062600D01*
G36*
X69909600Y-88562600D02*
G01*
X69459600Y-88562600D01*
X69459600Y-88162600D01*
X69909600Y-88162600D01*
X69909600Y-88562600D01*
G37*
X69909600Y-88562600D02*
X69459600Y-88562600D01*
X69459600Y-88162600D01*
X69909600Y-88162600D01*
X69909600Y-88562600D01*
G36*
X69909600Y-89062600D02*
G01*
X69459600Y-89062600D01*
X69459600Y-88662600D01*
X69909600Y-88662600D01*
X69909600Y-89062600D01*
G37*
X69909600Y-89062600D02*
X69459600Y-89062600D01*
X69459600Y-88662600D01*
X69909600Y-88662600D01*
X69909600Y-89062600D01*
G36*
X71459600Y-87562600D02*
G01*
X71009600Y-87562600D01*
X71009600Y-87162600D01*
X71459600Y-87162600D01*
X71459600Y-87562600D01*
G37*
X71459600Y-87562600D02*
X71009600Y-87562600D01*
X71009600Y-87162600D01*
X71459600Y-87162600D01*
X71459600Y-87562600D01*
G36*
X71459600Y-88062600D02*
G01*
X71009600Y-88062600D01*
X71009600Y-87662600D01*
X71459600Y-87662600D01*
X71459600Y-88062600D01*
G37*
X71459600Y-88062600D02*
X71009600Y-88062600D01*
X71009600Y-87662600D01*
X71459600Y-87662600D01*
X71459600Y-88062600D01*
G36*
X71459600Y-88562600D02*
G01*
X71009600Y-88562600D01*
X71009600Y-88162600D01*
X71459600Y-88162600D01*
X71459600Y-88562600D01*
G37*
X71459600Y-88562600D02*
X71009600Y-88562600D01*
X71009600Y-88162600D01*
X71459600Y-88162600D01*
X71459600Y-88562600D01*
G36*
X71459600Y-89062600D02*
G01*
X71009600Y-89062600D01*
X71009600Y-88662600D01*
X71459600Y-88662600D01*
X71459600Y-89062600D01*
G37*
X71459600Y-89062600D02*
X71009600Y-89062600D01*
X71009600Y-88662600D01*
X71459600Y-88662600D01*
X71459600Y-89062600D01*
%TD*%
D13*
%TO.C,U2*%
X64481000Y-92122000D03*
X64481000Y-93022000D03*
X64481000Y-93922000D03*
X64481000Y-94822000D03*
X63281000Y-94822000D03*
X63281000Y-93922000D03*
X63281000Y-93022000D03*
X63281000Y-92122000D03*
%TD*%
D14*
%TO.C,REF\u002A\u002A*%
X63284286Y-76149259D03*
%TD*%
%TO.C,REF\u002A\u002A*%
X53136859Y-86296686D03*
%TD*%
%TO.C,REF\u002A\u002A*%
X53136859Y-100647314D03*
%TD*%
%TO.C,REF\u002A\u002A*%
X63284286Y-110794741D03*
%TD*%
%TO.C,REF\u002A\u002A*%
X77634914Y-110794741D03*
%TD*%
%TO.C,REF\u002A\u002A*%
X87782341Y-100647314D03*
%TD*%
%TO.C,REF\u002A\u002A*%
X87782341Y-86296686D03*
%TD*%
%TO.C,REF\u002A\u002A*%
X77634914Y-76149259D03*
%TD*%
%TO.C,C11*%
G36*
G01*
X63013700Y-96259900D02*
X63013700Y-95814900D01*
G75*
G02*
X63211200Y-95617400I197500J0D01*
G01*
X63606200Y-95617400D01*
G75*
G02*
X63803700Y-95814900I0J-197500D01*
G01*
X63803700Y-96259900D01*
G75*
G02*
X63606200Y-96457400I-197500J0D01*
G01*
X63211200Y-96457400D01*
G75*
G02*
X63013700Y-96259900I0J197500D01*
G01*
G37*
G36*
G01*
X63983700Y-96259900D02*
X63983700Y-95814900D01*
G75*
G02*
X64181200Y-95617400I197500J0D01*
G01*
X64576200Y-95617400D01*
G75*
G02*
X64773700Y-95814900I0J-197500D01*
G01*
X64773700Y-96259900D01*
G75*
G02*
X64576200Y-96457400I-197500J0D01*
G01*
X64181200Y-96457400D01*
G75*
G02*
X63983700Y-96259900I0J197500D01*
G01*
G37*
%TD*%
%TO.C,C5*%
G36*
G01*
X68382900Y-87004000D02*
X68827900Y-87004000D01*
G75*
G02*
X69025400Y-87201500I0J-197500D01*
G01*
X69025400Y-87596500D01*
G75*
G02*
X68827900Y-87794000I-197500J0D01*
G01*
X68382900Y-87794000D01*
G75*
G02*
X68185400Y-87596500I0J197500D01*
G01*
X68185400Y-87201500D01*
G75*
G02*
X68382900Y-87004000I197500J0D01*
G01*
G37*
G36*
G01*
X68382900Y-87974000D02*
X68827900Y-87974000D01*
G75*
G02*
X69025400Y-88171500I0J-197500D01*
G01*
X69025400Y-88566500D01*
G75*
G02*
X68827900Y-88764000I-197500J0D01*
G01*
X68382900Y-88764000D01*
G75*
G02*
X68185400Y-88566500I0J197500D01*
G01*
X68185400Y-88171500D01*
G75*
G02*
X68382900Y-87974000I197500J0D01*
G01*
G37*
%TD*%
%TO.C,C10*%
G36*
G01*
X72587100Y-87235200D02*
X72142100Y-87235200D01*
G75*
G02*
X71944600Y-87037700I0J197500D01*
G01*
X71944600Y-86642700D01*
G75*
G02*
X72142100Y-86445200I197500J0D01*
G01*
X72587100Y-86445200D01*
G75*
G02*
X72784600Y-86642700I0J-197500D01*
G01*
X72784600Y-87037700D01*
G75*
G02*
X72587100Y-87235200I-197500J0D01*
G01*
G37*
G36*
G01*
X72587100Y-88205200D02*
X72142100Y-88205200D01*
G75*
G02*
X71944600Y-88007700I0J197500D01*
G01*
X71944600Y-87612700D01*
G75*
G02*
X72142100Y-87415200I197500J0D01*
G01*
X72587100Y-87415200D01*
G75*
G02*
X72784600Y-87612700I0J-197500D01*
G01*
X72784600Y-88007700D01*
G75*
G02*
X72587100Y-88205200I-197500J0D01*
G01*
G37*
%TD*%
D15*
%TO.C,TP11*%
X67576700Y-94792800D03*
%TD*%
%TO.C,TP6*%
X72161400Y-95910400D03*
%TD*%
%TO.C,TP7*%
X72644000Y-99834700D03*
%TD*%
%TO.C,R17*%
G36*
G01*
X81474200Y-91306400D02*
X81474200Y-91751400D01*
G75*
G02*
X81276700Y-91948900I-197500J0D01*
G01*
X80881700Y-91948900D01*
G75*
G02*
X80684200Y-91751400I0J197500D01*
G01*
X80684200Y-91306400D01*
G75*
G02*
X80881700Y-91108900I197500J0D01*
G01*
X81276700Y-91108900D01*
G75*
G02*
X81474200Y-91306400I0J-197500D01*
G01*
G37*
G36*
G01*
X80504200Y-91306400D02*
X80504200Y-91751400D01*
G75*
G02*
X80306700Y-91948900I-197500J0D01*
G01*
X79911700Y-91948900D01*
G75*
G02*
X79714200Y-91751400I0J197500D01*
G01*
X79714200Y-91306400D01*
G75*
G02*
X79911700Y-91108900I197500J0D01*
G01*
X80306700Y-91108900D01*
G75*
G02*
X80504200Y-91306400I0J-197500D01*
G01*
G37*
%TD*%
%TO.C,C6*%
G36*
G01*
X71923800Y-91623900D02*
X71923800Y-92068900D01*
G75*
G02*
X71726300Y-92266400I-197500J0D01*
G01*
X71331300Y-92266400D01*
G75*
G02*
X71133800Y-92068900I0J197500D01*
G01*
X71133800Y-91623900D01*
G75*
G02*
X71331300Y-91426400I197500J0D01*
G01*
X71726300Y-91426400D01*
G75*
G02*
X71923800Y-91623900I0J-197500D01*
G01*
G37*
G36*
G01*
X70953800Y-91623900D02*
X70953800Y-92068900D01*
G75*
G02*
X70756300Y-92266400I-197500J0D01*
G01*
X70361300Y-92266400D01*
G75*
G02*
X70163800Y-92068900I0J197500D01*
G01*
X70163800Y-91623900D01*
G75*
G02*
X70361300Y-91426400I197500J0D01*
G01*
X70756300Y-91426400D01*
G75*
G02*
X70953800Y-91623900I0J-197500D01*
G01*
G37*
%TD*%
%TO.C,C7*%
G36*
G01*
X79663400Y-96412300D02*
X79663400Y-95967300D01*
G75*
G02*
X79860900Y-95769800I197500J0D01*
G01*
X80255900Y-95769800D01*
G75*
G02*
X80453400Y-95967300I0J-197500D01*
G01*
X80453400Y-96412300D01*
G75*
G02*
X80255900Y-96609800I-197500J0D01*
G01*
X79860900Y-96609800D01*
G75*
G02*
X79663400Y-96412300I0J197500D01*
G01*
G37*
G36*
G01*
X80633400Y-96412300D02*
X80633400Y-95967300D01*
G75*
G02*
X80830900Y-95769800I197500J0D01*
G01*
X81225900Y-95769800D01*
G75*
G02*
X81423400Y-95967300I0J-197500D01*
G01*
X81423400Y-96412300D01*
G75*
G02*
X81225900Y-96609800I-197500J0D01*
G01*
X80830900Y-96609800D01*
G75*
G02*
X80633400Y-96412300I0J197500D01*
G01*
G37*
%TD*%
%TO.C,C8*%
G36*
G01*
X71405500Y-93562000D02*
X71850500Y-93562000D01*
G75*
G02*
X72048000Y-93759500I0J-197500D01*
G01*
X72048000Y-94154500D01*
G75*
G02*
X71850500Y-94352000I-197500J0D01*
G01*
X71405500Y-94352000D01*
G75*
G02*
X71208000Y-94154500I0J197500D01*
G01*
X71208000Y-93759500D01*
G75*
G02*
X71405500Y-93562000I197500J0D01*
G01*
G37*
G36*
G01*
X71405500Y-92592000D02*
X71850500Y-92592000D01*
G75*
G02*
X72048000Y-92789500I0J-197500D01*
G01*
X72048000Y-93184500D01*
G75*
G02*
X71850500Y-93382000I-197500J0D01*
G01*
X71405500Y-93382000D01*
G75*
G02*
X71208000Y-93184500I0J197500D01*
G01*
X71208000Y-92789500D01*
G75*
G02*
X71405500Y-92592000I197500J0D01*
G01*
G37*
%TD*%
%TO.C,C9*%
G36*
G01*
X80633400Y-95320100D02*
X80633400Y-94875100D01*
G75*
G02*
X80830900Y-94677600I197500J0D01*
G01*
X81225900Y-94677600D01*
G75*
G02*
X81423400Y-94875100I0J-197500D01*
G01*
X81423400Y-95320100D01*
G75*
G02*
X81225900Y-95517600I-197500J0D01*
G01*
X80830900Y-95517600D01*
G75*
G02*
X80633400Y-95320100I0J197500D01*
G01*
G37*
G36*
G01*
X79663400Y-95320100D02*
X79663400Y-94875100D01*
G75*
G02*
X79860900Y-94677600I197500J0D01*
G01*
X80255900Y-94677600D01*
G75*
G02*
X80453400Y-94875100I0J-197500D01*
G01*
X80453400Y-95320100D01*
G75*
G02*
X80255900Y-95517600I-197500J0D01*
G01*
X79860900Y-95517600D01*
G75*
G02*
X79663400Y-95320100I0J197500D01*
G01*
G37*
%TD*%
%TO.C,C12*%
G36*
G01*
X65627000Y-95467000D02*
X66072000Y-95467000D01*
G75*
G02*
X66269500Y-95664500I0J-197500D01*
G01*
X66269500Y-96059500D01*
G75*
G02*
X66072000Y-96257000I-197500J0D01*
G01*
X65627000Y-96257000D01*
G75*
G02*
X65429500Y-96059500I0J197500D01*
G01*
X65429500Y-95664500D01*
G75*
G02*
X65627000Y-95467000I197500J0D01*
G01*
G37*
G36*
G01*
X65627000Y-94497000D02*
X66072000Y-94497000D01*
G75*
G02*
X66269500Y-94694500I0J-197500D01*
G01*
X66269500Y-95089500D01*
G75*
G02*
X66072000Y-95287000I-197500J0D01*
G01*
X65627000Y-95287000D01*
G75*
G02*
X65429500Y-95089500I0J197500D01*
G01*
X65429500Y-94694500D01*
G75*
G02*
X65627000Y-94497000I197500J0D01*
G01*
G37*
%TD*%
%TO.C,C13*%
G36*
G01*
X80684200Y-90684600D02*
X80684200Y-90239600D01*
G75*
G02*
X80881700Y-90042100I197500J0D01*
G01*
X81276700Y-90042100D01*
G75*
G02*
X81474200Y-90239600I0J-197500D01*
G01*
X81474200Y-90684600D01*
G75*
G02*
X81276700Y-90882100I-197500J0D01*
G01*
X80881700Y-90882100D01*
G75*
G02*
X80684200Y-90684600I0J197500D01*
G01*
G37*
G36*
G01*
X79714200Y-90684600D02*
X79714200Y-90239600D01*
G75*
G02*
X79911700Y-90042100I197500J0D01*
G01*
X80306700Y-90042100D01*
G75*
G02*
X80504200Y-90239600I0J-197500D01*
G01*
X80504200Y-90684600D01*
G75*
G02*
X80306700Y-90882100I-197500J0D01*
G01*
X79911700Y-90882100D01*
G75*
G02*
X79714200Y-90684600I0J197500D01*
G01*
G37*
%TD*%
%TO.C,C14*%
G36*
G01*
X70369600Y-84537300D02*
X70369600Y-84982300D01*
G75*
G02*
X70172100Y-85179800I-197500J0D01*
G01*
X69777100Y-85179800D01*
G75*
G02*
X69579600Y-84982300I0J197500D01*
G01*
X69579600Y-84537300D01*
G75*
G02*
X69777100Y-84339800I197500J0D01*
G01*
X70172100Y-84339800D01*
G75*
G02*
X70369600Y-84537300I0J-197500D01*
G01*
G37*
G36*
G01*
X71339600Y-84537300D02*
X71339600Y-84982300D01*
G75*
G02*
X71142100Y-85179800I-197500J0D01*
G01*
X70747100Y-85179800D01*
G75*
G02*
X70549600Y-84982300I0J197500D01*
G01*
X70549600Y-84537300D01*
G75*
G02*
X70747100Y-84339800I197500J0D01*
G01*
X71142100Y-84339800D01*
G75*
G02*
X71339600Y-84537300I0J-197500D01*
G01*
G37*
%TD*%
%TO.C,C15*%
G36*
G01*
X65414548Y-86510091D02*
X65192048Y-86124709D01*
G75*
G02*
X65264338Y-85854919I171040J98750D01*
G01*
X65606418Y-85657419D01*
G75*
G02*
X65876208Y-85729709I98750J-171040D01*
G01*
X66098708Y-86115091D01*
G75*
G02*
X66026418Y-86384881I-171040J-98750D01*
G01*
X65684338Y-86582381D01*
G75*
G02*
X65414548Y-86510091I-98750J171040D01*
G01*
G37*
G36*
G01*
X66254592Y-86025091D02*
X66032092Y-85639709D01*
G75*
G02*
X66104382Y-85369919I171040J98750D01*
G01*
X66446462Y-85172419D01*
G75*
G02*
X66716252Y-85244709I98750J-171040D01*
G01*
X66938752Y-85630091D01*
G75*
G02*
X66866462Y-85899881I-171040J-98750D01*
G01*
X66524382Y-86097381D01*
G75*
G02*
X66254592Y-86025091I-98750J171040D01*
G01*
G37*
%TD*%
%TO.C,C16*%
G36*
G01*
X73955048Y-85655491D02*
X74177548Y-85270109D01*
G75*
G02*
X74447338Y-85197819I171040J-98750D01*
G01*
X74789418Y-85395319D01*
G75*
G02*
X74861708Y-85665109I-98750J-171040D01*
G01*
X74639208Y-86050491D01*
G75*
G02*
X74369418Y-86122781I-171040J98750D01*
G01*
X74027338Y-85925281D01*
G75*
G02*
X73955048Y-85655491I98750J171040D01*
G01*
G37*
G36*
G01*
X74795092Y-86140491D02*
X75017592Y-85755109D01*
G75*
G02*
X75287382Y-85682819I171040J-98750D01*
G01*
X75629462Y-85880319D01*
G75*
G02*
X75701752Y-86150109I-98750J-171040D01*
G01*
X75479252Y-86535491D01*
G75*
G02*
X75209462Y-86607781I-171040J98750D01*
G01*
X74867382Y-86410281D01*
G75*
G02*
X74795092Y-86140491I98750J171040D01*
G01*
G37*
%TD*%
%TO.C,C17*%
G36*
G01*
X75042992Y-101239691D02*
X74820492Y-100854309D01*
G75*
G02*
X74892782Y-100584519I171040J98750D01*
G01*
X75234862Y-100387019D01*
G75*
G02*
X75504652Y-100459309I98750J-171040D01*
G01*
X75727152Y-100844691D01*
G75*
G02*
X75654862Y-101114481I-171040J-98750D01*
G01*
X75312782Y-101311981D01*
G75*
G02*
X75042992Y-101239691I-98750J171040D01*
G01*
G37*
G36*
G01*
X74202948Y-101724691D02*
X73980448Y-101339309D01*
G75*
G02*
X74052738Y-101069519I171040J98750D01*
G01*
X74394818Y-100872019D01*
G75*
G02*
X74664608Y-100944309I98750J-171040D01*
G01*
X74887108Y-101329691D01*
G75*
G02*
X74814818Y-101599481I-171040J-98750D01*
G01*
X74472738Y-101796981D01*
G75*
G02*
X74202948Y-101724691I-98750J171040D01*
G01*
G37*
%TD*%
%TO.C,C18*%
G36*
G01*
X71339600Y-101949000D02*
X71339600Y-102394000D01*
G75*
G02*
X71142100Y-102591500I-197500J0D01*
G01*
X70747100Y-102591500D01*
G75*
G02*
X70549600Y-102394000I0J197500D01*
G01*
X70549600Y-101949000D01*
G75*
G02*
X70747100Y-101751500I197500J0D01*
G01*
X71142100Y-101751500D01*
G75*
G02*
X71339600Y-101949000I0J-197500D01*
G01*
G37*
G36*
G01*
X70369600Y-101949000D02*
X70369600Y-102394000D01*
G75*
G02*
X70172100Y-102591500I-197500J0D01*
G01*
X69777100Y-102591500D01*
G75*
G02*
X69579600Y-102394000I0J197500D01*
G01*
X69579600Y-101949000D01*
G75*
G02*
X69777100Y-101751500I197500J0D01*
G01*
X70172100Y-101751500D01*
G75*
G02*
X70369600Y-101949000I0J-197500D01*
G01*
G37*
%TD*%
%TO.C,D1*%
G36*
G01*
X70682100Y-93382000D02*
X70237100Y-93382000D01*
G75*
G02*
X70039600Y-93184500I0J197500D01*
G01*
X70039600Y-92789500D01*
G75*
G02*
X70237100Y-92592000I197500J0D01*
G01*
X70682100Y-92592000D01*
G75*
G02*
X70879600Y-92789500I0J-197500D01*
G01*
X70879600Y-93184500D01*
G75*
G02*
X70682100Y-93382000I-197500J0D01*
G01*
G37*
G36*
G01*
X70682100Y-94352000D02*
X70237100Y-94352000D01*
G75*
G02*
X70039600Y-94154500I0J197500D01*
G01*
X70039600Y-93759500D01*
G75*
G02*
X70237100Y-93562000I197500J0D01*
G01*
X70682100Y-93562000D01*
G75*
G02*
X70879600Y-93759500I0J-197500D01*
G01*
X70879600Y-94154500D01*
G75*
G02*
X70682100Y-94352000I-197500J0D01*
G01*
G37*
%TD*%
%TO.C,D2*%
G36*
G01*
X70549600Y-83788500D02*
X70549600Y-83343500D01*
G75*
G02*
X70747100Y-83146000I197500J0D01*
G01*
X71142100Y-83146000D01*
G75*
G02*
X71339600Y-83343500I0J-197500D01*
G01*
X71339600Y-83788500D01*
G75*
G02*
X71142100Y-83986000I-197500J0D01*
G01*
X70747100Y-83986000D01*
G75*
G02*
X70549600Y-83788500I0J197500D01*
G01*
G37*
G36*
G01*
X69579600Y-83788500D02*
X69579600Y-83343500D01*
G75*
G02*
X69777100Y-83146000I197500J0D01*
G01*
X70172100Y-83146000D01*
G75*
G02*
X70369600Y-83343500I0J-197500D01*
G01*
X70369600Y-83788500D01*
G75*
G02*
X70172100Y-83986000I-197500J0D01*
G01*
X69777100Y-83986000D01*
G75*
G02*
X69579600Y-83788500I0J197500D01*
G01*
G37*
%TD*%
%TO.C,D3*%
G36*
G01*
X66132052Y-84203309D02*
X66354552Y-84588691D01*
G75*
G02*
X66282262Y-84858481I-171040J-98750D01*
G01*
X65940182Y-85055981D01*
G75*
G02*
X65670392Y-84983691I-98750J171040D01*
G01*
X65447892Y-84598309D01*
G75*
G02*
X65520182Y-84328519I171040J98750D01*
G01*
X65862262Y-84131019D01*
G75*
G02*
X66132052Y-84203309I98750J-171040D01*
G01*
G37*
G36*
G01*
X65292008Y-84688309D02*
X65514508Y-85073691D01*
G75*
G02*
X65442218Y-85343481I-171040J-98750D01*
G01*
X65100138Y-85540981D01*
G75*
G02*
X64830348Y-85468691I-98750J171040D01*
G01*
X64607848Y-85083309D01*
G75*
G02*
X64680138Y-84813519I171040J98750D01*
G01*
X65022218Y-84616019D01*
G75*
G02*
X65292008Y-84688309I98750J-171040D01*
G01*
G37*
%TD*%
%TO.C,D4*%
G36*
G01*
X74126812Y-80691854D02*
X73696975Y-80576679D01*
G75*
G02*
X73557322Y-80334792I51117J190770D01*
G01*
X73659555Y-79953251D01*
G75*
G02*
X73901442Y-79813598I190770J-51117D01*
G01*
X74331279Y-79928773D01*
G75*
G02*
X74470932Y-80170660I-51117J-190770D01*
G01*
X74368699Y-80552201D01*
G75*
G02*
X74126812Y-80691854I-190770J51117D01*
G01*
G37*
G36*
G01*
X73875758Y-81628802D02*
X73445921Y-81513627D01*
G75*
G02*
X73306268Y-81271740I51117J190770D01*
G01*
X73408501Y-80890199D01*
G75*
G02*
X73650388Y-80750546I190770J-51117D01*
G01*
X74080225Y-80865721D01*
G75*
G02*
X74219878Y-81107608I-51117J-190770D01*
G01*
X74117645Y-81489149D01*
G75*
G02*
X73875758Y-81628802I-190770J51117D01*
G01*
G37*
%TD*%
%TO.C,D5*%
G36*
G01*
X70237100Y-105825400D02*
X70682100Y-105825400D01*
G75*
G02*
X70879600Y-106022900I0J-197500D01*
G01*
X70879600Y-106417900D01*
G75*
G02*
X70682100Y-106615400I-197500J0D01*
G01*
X70237100Y-106615400D01*
G75*
G02*
X70039600Y-106417900I0J197500D01*
G01*
X70039600Y-106022900D01*
G75*
G02*
X70237100Y-105825400I197500J0D01*
G01*
G37*
G36*
G01*
X70237100Y-106795400D02*
X70682100Y-106795400D01*
G75*
G02*
X70879600Y-106992900I0J-197500D01*
G01*
X70879600Y-107387900D01*
G75*
G02*
X70682100Y-107585400I-197500J0D01*
G01*
X70237100Y-107585400D01*
G75*
G02*
X70039600Y-107387900I0J197500D01*
G01*
X70039600Y-106992900D01*
G75*
G02*
X70237100Y-106795400I197500J0D01*
G01*
G37*
%TD*%
%TO.C,D6*%
G36*
G01*
X66792388Y-106277546D02*
X67222225Y-106392721D01*
G75*
G02*
X67361878Y-106634608I-51117J-190770D01*
G01*
X67259645Y-107016149D01*
G75*
G02*
X67017758Y-107155802I-190770J51117D01*
G01*
X66587921Y-107040627D01*
G75*
G02*
X66448268Y-106798740I51117J190770D01*
G01*
X66550501Y-106417199D01*
G75*
G02*
X66792388Y-106277546I190770J-51117D01*
G01*
G37*
G36*
G01*
X67043442Y-105340598D02*
X67473279Y-105455773D01*
G75*
G02*
X67612932Y-105697660I-51117J-190770D01*
G01*
X67510699Y-106079201D01*
G75*
G02*
X67268812Y-106218854I-190770J51117D01*
G01*
X66838975Y-106103679D01*
G75*
G02*
X66699322Y-105861792I51117J190770D01*
G01*
X66801555Y-105480251D01*
G75*
G02*
X67043442Y-105340598I190770J-51117D01*
G01*
G37*
%TD*%
%TO.C,D7*%
G36*
G01*
X70682100Y-81146400D02*
X70237100Y-81146400D01*
G75*
G02*
X70039600Y-80948900I0J197500D01*
G01*
X70039600Y-80553900D01*
G75*
G02*
X70237100Y-80356400I197500J0D01*
G01*
X70682100Y-80356400D01*
G75*
G02*
X70879600Y-80553900I0J-197500D01*
G01*
X70879600Y-80948900D01*
G75*
G02*
X70682100Y-81146400I-197500J0D01*
G01*
G37*
G36*
G01*
X70682100Y-80176400D02*
X70237100Y-80176400D01*
G75*
G02*
X70039600Y-79978900I0J197500D01*
G01*
X70039600Y-79583900D01*
G75*
G02*
X70237100Y-79386400I197500J0D01*
G01*
X70682100Y-79386400D01*
G75*
G02*
X70879600Y-79583900I0J-197500D01*
G01*
X70879600Y-79978900D01*
G75*
G02*
X70682100Y-80176400I-197500J0D01*
G01*
G37*
%TD*%
%TO.C,D8*%
G36*
G01*
X75471308Y-84623709D02*
X75248808Y-85009091D01*
G75*
G02*
X74979018Y-85081381I-171040J98750D01*
G01*
X74636938Y-84883881D01*
G75*
G02*
X74564648Y-84614091I98750J171040D01*
G01*
X74787148Y-84228709D01*
G75*
G02*
X75056938Y-84156419I171040J-98750D01*
G01*
X75399018Y-84353919D01*
G75*
G02*
X75471308Y-84623709I-98750J-171040D01*
G01*
G37*
G36*
G01*
X76311352Y-85108709D02*
X76088852Y-85494091D01*
G75*
G02*
X75819062Y-85566381I-171040J98750D01*
G01*
X75476982Y-85368881D01*
G75*
G02*
X75404692Y-85099091I98750J171040D01*
G01*
X75627192Y-84713709D01*
G75*
G02*
X75896982Y-84641419I171040J-98750D01*
G01*
X76239062Y-84838919D01*
G75*
G02*
X76311352Y-85108709I-98750J-171040D01*
G01*
G37*
%TD*%
%TO.C,D9*%
G36*
G01*
X62096309Y-87645648D02*
X62481691Y-87868148D01*
G75*
G02*
X62553981Y-88137938I-98750J-171040D01*
G01*
X62356481Y-88480018D01*
G75*
G02*
X62086691Y-88552308I-171040J98750D01*
G01*
X61701309Y-88329808D01*
G75*
G02*
X61629019Y-88060018I98750J171040D01*
G01*
X61826519Y-87717938D01*
G75*
G02*
X62096309Y-87645648I171040J-98750D01*
G01*
G37*
G36*
G01*
X61611309Y-88485692D02*
X61996691Y-88708192D01*
G75*
G02*
X62068981Y-88977982I-98750J-171040D01*
G01*
X61871481Y-89320062D01*
G75*
G02*
X61601691Y-89392352I-171040J98750D01*
G01*
X61216309Y-89169852D01*
G75*
G02*
X61144019Y-88900062I98750J171040D01*
G01*
X61341519Y-88557982D01*
G75*
G02*
X61611309Y-88485692I171040J-98750D01*
G01*
G37*
%TD*%
%TO.C,D10*%
G36*
G01*
X77301291Y-82075308D02*
X76915909Y-81852808D01*
G75*
G02*
X76843619Y-81583018I98750J171040D01*
G01*
X77041119Y-81240938D01*
G75*
G02*
X77310909Y-81168648I171040J-98750D01*
G01*
X77696291Y-81391148D01*
G75*
G02*
X77768581Y-81660938I-98750J-171040D01*
G01*
X77571081Y-82003018D01*
G75*
G02*
X77301291Y-82075308I-171040J98750D01*
G01*
G37*
G36*
G01*
X76816291Y-82915352D02*
X76430909Y-82692852D01*
G75*
G02*
X76358619Y-82423062I98750J171040D01*
G01*
X76556119Y-82080982D01*
G75*
G02*
X76825909Y-82008692I171040J-98750D01*
G01*
X77211291Y-82231192D01*
G75*
G02*
X77283581Y-82500982I-98750J-171040D01*
G01*
X77086081Y-82843062D01*
G75*
G02*
X76816291Y-82915352I-171040J98750D01*
G01*
G37*
%TD*%
%TO.C,D11*%
G36*
G01*
X73445921Y-105455773D02*
X73875758Y-105340598D01*
G75*
G02*
X74117645Y-105480251I51117J-190770D01*
G01*
X74219878Y-105861792D01*
G75*
G02*
X74080225Y-106103679I-190770J-51117D01*
G01*
X73650388Y-106218854D01*
G75*
G02*
X73408501Y-106079201I-51117J190770D01*
G01*
X73306268Y-105697660D01*
G75*
G02*
X73445921Y-105455773I190770J51117D01*
G01*
G37*
G36*
G01*
X73696975Y-106392721D02*
X74126812Y-106277546D01*
G75*
G02*
X74368699Y-106417199I51117J-190770D01*
G01*
X74470932Y-106798740D01*
G75*
G02*
X74331279Y-107040627I-190770J-51117D01*
G01*
X73901442Y-107155802D01*
G75*
G02*
X73659555Y-107016149I-51117J190770D01*
G01*
X73557322Y-106634608D01*
G75*
G02*
X73696975Y-106392721I190770J51117D01*
G01*
G37*
%TD*%
%TO.C,D12*%
G36*
G01*
X63617909Y-104894092D02*
X64003291Y-105116592D01*
G75*
G02*
X64075581Y-105386382I-98750J-171040D01*
G01*
X63878081Y-105728462D01*
G75*
G02*
X63608291Y-105800752I-171040J98750D01*
G01*
X63222909Y-105578252D01*
G75*
G02*
X63150619Y-105308462I98750J171040D01*
G01*
X63348119Y-104966382D01*
G75*
G02*
X63617909Y-104894092I171040J-98750D01*
G01*
G37*
G36*
G01*
X64102909Y-104054048D02*
X64488291Y-104276548D01*
G75*
G02*
X64560581Y-104546338I-98750J-171040D01*
G01*
X64363081Y-104888418D01*
G75*
G02*
X64093291Y-104960708I-171040J98750D01*
G01*
X63707909Y-104738208D01*
G75*
G02*
X63635619Y-104468418I98750J171040D01*
G01*
X63833119Y-104126338D01*
G75*
G02*
X64102909Y-104054048I171040J-98750D01*
G01*
G37*
%TD*%
%TO.C,D13*%
G36*
G01*
X67222225Y-80551279D02*
X66792388Y-80666454D01*
G75*
G02*
X66550501Y-80526801I-51117J190770D01*
G01*
X66448268Y-80145260D01*
G75*
G02*
X66587921Y-79903373I190770J51117D01*
G01*
X67017758Y-79788198D01*
G75*
G02*
X67259645Y-79927851I51117J-190770D01*
G01*
X67361878Y-80309392D01*
G75*
G02*
X67222225Y-80551279I-190770J-51117D01*
G01*
G37*
G36*
G01*
X67473279Y-81488227D02*
X67043442Y-81603402D01*
G75*
G02*
X66801555Y-81463749I-51117J190770D01*
G01*
X66699322Y-81082208D01*
G75*
G02*
X66838975Y-80840321I190770J51117D01*
G01*
X67268812Y-80725146D01*
G75*
G02*
X67510699Y-80864799I51117J-190770D01*
G01*
X67612932Y-81246340D01*
G75*
G02*
X67473279Y-81488227I-190770J-51117D01*
G01*
G37*
%TD*%
%TO.C,D14*%
G36*
G01*
X79677491Y-89169852D02*
X79292109Y-89392352D01*
G75*
G02*
X79022319Y-89320062I-98750J171040D01*
G01*
X78824819Y-88977982D01*
G75*
G02*
X78897109Y-88708192I171040J98750D01*
G01*
X79282491Y-88485692D01*
G75*
G02*
X79552281Y-88557982I98750J-171040D01*
G01*
X79749781Y-88900062D01*
G75*
G02*
X79677491Y-89169852I-171040J-98750D01*
G01*
G37*
G36*
G01*
X79192491Y-88329808D02*
X78807109Y-88552308D01*
G75*
G02*
X78537319Y-88480018I-98750J171040D01*
G01*
X78339819Y-88137938D01*
G75*
G02*
X78412109Y-87868148I171040J98750D01*
G01*
X78797491Y-87645648D01*
G75*
G02*
X79067281Y-87717938I98750J-171040D01*
G01*
X79264781Y-88060018D01*
G75*
G02*
X79192491Y-88329808I-171040J-98750D01*
G01*
G37*
%TD*%
%TO.C,D15*%
G36*
G01*
X60725300Y-93407400D02*
X60280300Y-93407400D01*
G75*
G02*
X60082800Y-93209900I0J197500D01*
G01*
X60082800Y-92814900D01*
G75*
G02*
X60280300Y-92617400I197500J0D01*
G01*
X60725300Y-92617400D01*
G75*
G02*
X60922800Y-92814900I0J-197500D01*
G01*
X60922800Y-93209900D01*
G75*
G02*
X60725300Y-93407400I-197500J0D01*
G01*
G37*
G36*
G01*
X60725300Y-94377400D02*
X60280300Y-94377400D01*
G75*
G02*
X60082800Y-94179900I0J197500D01*
G01*
X60082800Y-93784900D01*
G75*
G02*
X60280300Y-93587400I197500J0D01*
G01*
X60725300Y-93587400D01*
G75*
G02*
X60922800Y-93784900I0J-197500D01*
G01*
X60922800Y-94179900D01*
G75*
G02*
X60725300Y-94377400I-197500J0D01*
G01*
G37*
%TD*%
%TO.C,D16*%
G36*
G01*
X79341877Y-84929785D02*
X79027214Y-84615123D01*
G75*
G02*
X79027214Y-84335815I139654J139654D01*
G01*
X79306521Y-84056508D01*
G75*
G02*
X79585829Y-84056508I139654J-139654D01*
G01*
X79900492Y-84371171D01*
G75*
G02*
X79900492Y-84650479I-139654J-139654D01*
G01*
X79621185Y-84929786D01*
G75*
G02*
X79341877Y-84929786I-139654J139654D01*
G01*
G37*
G36*
G01*
X80027771Y-84243891D02*
X79713108Y-83929229D01*
G75*
G02*
X79713108Y-83649921I139654J139654D01*
G01*
X79992415Y-83370614D01*
G75*
G02*
X80271723Y-83370614I139654J-139654D01*
G01*
X80586386Y-83685277D01*
G75*
G02*
X80586386Y-83964585I-139654J-139654D01*
G01*
X80307079Y-84243892D01*
G75*
G02*
X80027771Y-84243892I-139654J139654D01*
G01*
G37*
%TD*%
%TO.C,D17*%
G36*
G01*
X76915909Y-105116592D02*
X77301291Y-104894092D01*
G75*
G02*
X77571081Y-104966382I98750J-171040D01*
G01*
X77768581Y-105308462D01*
G75*
G02*
X77696291Y-105578252I-171040J-98750D01*
G01*
X77310909Y-105800752D01*
G75*
G02*
X77041119Y-105728462I-98750J171040D01*
G01*
X76843619Y-105386382D01*
G75*
G02*
X76915909Y-105116592I171040J98750D01*
G01*
G37*
G36*
G01*
X76430909Y-104276548D02*
X76816291Y-104054048D01*
G75*
G02*
X77086081Y-104126338I98750J-171040D01*
G01*
X77283581Y-104468418D01*
G75*
G02*
X77211291Y-104738208I-171040J-98750D01*
G01*
X76825909Y-104960708D01*
G75*
G02*
X76556119Y-104888418I-98750J171040D01*
G01*
X76358619Y-104546338D01*
G75*
G02*
X76430909Y-104276548I171040J98750D01*
G01*
G37*
%TD*%
%TO.C,D18*%
G36*
G01*
X61577323Y-102065015D02*
X61891986Y-102379677D01*
G75*
G02*
X61891986Y-102658985I-139654J-139654D01*
G01*
X61612679Y-102938292D01*
G75*
G02*
X61333371Y-102938292I-139654J139654D01*
G01*
X61018708Y-102623629D01*
G75*
G02*
X61018708Y-102344321I139654J139654D01*
G01*
X61298015Y-102065014D01*
G75*
G02*
X61577323Y-102065014I139654J-139654D01*
G01*
G37*
G36*
G01*
X60891429Y-102750909D02*
X61206092Y-103065571D01*
G75*
G02*
X61206092Y-103344879I-139654J-139654D01*
G01*
X60926785Y-103624186D01*
G75*
G02*
X60647477Y-103624186I-139654J139654D01*
G01*
X60332814Y-103309523D01*
G75*
G02*
X60332814Y-103030215I139654J139654D01*
G01*
X60612121Y-102750908D01*
G75*
G02*
X60891429Y-102750908I139654J-139654D01*
G01*
G37*
%TD*%
%TO.C,D19*%
G36*
G01*
X64003291Y-81827408D02*
X63617909Y-82049908D01*
G75*
G02*
X63348119Y-81977618I-98750J171040D01*
G01*
X63150619Y-81635538D01*
G75*
G02*
X63222909Y-81365748I171040J98750D01*
G01*
X63608291Y-81143248D01*
G75*
G02*
X63878081Y-81215538I98750J-171040D01*
G01*
X64075581Y-81557618D01*
G75*
G02*
X64003291Y-81827408I-171040J-98750D01*
G01*
G37*
G36*
G01*
X64488291Y-82667452D02*
X64102909Y-82889952D01*
G75*
G02*
X63833119Y-82817662I-98750J171040D01*
G01*
X63635619Y-82475582D01*
G75*
G02*
X63707909Y-82205792I171040J98750D01*
G01*
X64093291Y-81983292D01*
G75*
G02*
X64363081Y-82055582I98750J-171040D01*
G01*
X64560581Y-82397662D01*
G75*
G02*
X64488291Y-82667452I-171040J-98750D01*
G01*
G37*
%TD*%
%TO.C,D20*%
G36*
G01*
X80168500Y-92592000D02*
X80613500Y-92592000D01*
G75*
G02*
X80811000Y-92789500I0J-197500D01*
G01*
X80811000Y-93184500D01*
G75*
G02*
X80613500Y-93382000I-197500J0D01*
G01*
X80168500Y-93382000D01*
G75*
G02*
X79971000Y-93184500I0J197500D01*
G01*
X79971000Y-92789500D01*
G75*
G02*
X80168500Y-92592000I197500J0D01*
G01*
G37*
G36*
G01*
X80168500Y-93562000D02*
X80613500Y-93562000D01*
G75*
G02*
X80811000Y-93759500I0J-197500D01*
G01*
X80811000Y-94154500D01*
G75*
G02*
X80613500Y-94352000I-197500J0D01*
G01*
X80168500Y-94352000D01*
G75*
G02*
X79971000Y-94154500I0J197500D01*
G01*
X79971000Y-93759500D01*
G75*
G02*
X80168500Y-93562000I197500J0D01*
G01*
G37*
%TD*%
%TO.C,D21*%
G36*
G01*
X61996691Y-98261208D02*
X61611309Y-98483708D01*
G75*
G02*
X61341519Y-98411418I-98750J171040D01*
G01*
X61144019Y-98069338D01*
G75*
G02*
X61216309Y-97799548I171040J98750D01*
G01*
X61601691Y-97577048D01*
G75*
G02*
X61871481Y-97649338I98750J-171040D01*
G01*
X62068981Y-97991418D01*
G75*
G02*
X61996691Y-98261208I-171040J-98750D01*
G01*
G37*
G36*
G01*
X62481691Y-99101252D02*
X62096309Y-99323752D01*
G75*
G02*
X61826519Y-99251462I-98750J171040D01*
G01*
X61629019Y-98909382D01*
G75*
G02*
X61701309Y-98639592I171040J98750D01*
G01*
X62086691Y-98417092D01*
G75*
G02*
X62356481Y-98489382I98750J-171040D01*
G01*
X62553981Y-98831462D01*
G75*
G02*
X62481691Y-99101252I-171040J-98750D01*
G01*
G37*
%TD*%
%TO.C,D22*%
G36*
G01*
X81264148Y-87500691D02*
X81041648Y-87115309D01*
G75*
G02*
X81113938Y-86845519I171040J98750D01*
G01*
X81456018Y-86648019D01*
G75*
G02*
X81725808Y-86720309I98750J-171040D01*
G01*
X81948308Y-87105691D01*
G75*
G02*
X81876018Y-87375481I-171040J-98750D01*
G01*
X81533938Y-87572981D01*
G75*
G02*
X81264148Y-87500691I-98750J171040D01*
G01*
G37*
G36*
G01*
X82104192Y-87015691D02*
X81881692Y-86630309D01*
G75*
G02*
X81953982Y-86360519I171040J98750D01*
G01*
X82296062Y-86163019D01*
G75*
G02*
X82565852Y-86235309I98750J-171040D01*
G01*
X82788352Y-86620691D01*
G75*
G02*
X82716062Y-86890481I-171040J-98750D01*
G01*
X82373982Y-87087981D01*
G75*
G02*
X82104192Y-87015691I-98750J171040D01*
G01*
G37*
%TD*%
%TO.C,D23*%
G36*
G01*
X79713109Y-103065571D02*
X80027771Y-102750908D01*
G75*
G02*
X80307079Y-102750908I139654J-139654D01*
G01*
X80586386Y-103030215D01*
G75*
G02*
X80586386Y-103309523I-139654J-139654D01*
G01*
X80271723Y-103624186D01*
G75*
G02*
X79992415Y-103624186I-139654J139654D01*
G01*
X79713108Y-103344879D01*
G75*
G02*
X79713108Y-103065571I139654J139654D01*
G01*
G37*
G36*
G01*
X79027215Y-102379677D02*
X79341877Y-102065014D01*
G75*
G02*
X79621185Y-102065014I139654J-139654D01*
G01*
X79900492Y-102344321D01*
G75*
G02*
X79900492Y-102623629I-139654J-139654D01*
G01*
X79585829Y-102938292D01*
G75*
G02*
X79306521Y-102938292I-139654J139654D01*
G01*
X79027214Y-102658985D01*
G75*
G02*
X79027214Y-102379677I139654J139654D01*
G01*
G37*
%TD*%
%TO.C,D24*%
G36*
G01*
X59655052Y-99468709D02*
X59877552Y-99854091D01*
G75*
G02*
X59805262Y-100123881I-171040J-98750D01*
G01*
X59463182Y-100321381D01*
G75*
G02*
X59193392Y-100249091I-98750J171040D01*
G01*
X58970892Y-99863709D01*
G75*
G02*
X59043182Y-99593919I171040J98750D01*
G01*
X59385262Y-99396419D01*
G75*
G02*
X59655052Y-99468709I98750J-171040D01*
G01*
G37*
G36*
G01*
X58815008Y-99953709D02*
X59037508Y-100339091D01*
G75*
G02*
X58965218Y-100608881I-171040J-98750D01*
G01*
X58623138Y-100806381D01*
G75*
G02*
X58353348Y-100734091I-98750J171040D01*
G01*
X58130848Y-100348709D01*
G75*
G02*
X58203138Y-100078919I171040J98750D01*
G01*
X58545218Y-99881419D01*
G75*
G02*
X58815008Y-99953709I98750J-171040D01*
G01*
G37*
%TD*%
%TO.C,D25*%
G36*
G01*
X61891985Y-84589723D02*
X61577323Y-84904386D01*
G75*
G02*
X61298015Y-84904386I-139654J139654D01*
G01*
X61018708Y-84625079D01*
G75*
G02*
X61018708Y-84345771I139654J139654D01*
G01*
X61333371Y-84031108D01*
G75*
G02*
X61612679Y-84031108I139654J-139654D01*
G01*
X61891986Y-84310415D01*
G75*
G02*
X61891986Y-84589723I-139654J-139654D01*
G01*
G37*
G36*
G01*
X61206091Y-83903829D02*
X60891429Y-84218492D01*
G75*
G02*
X60612121Y-84218492I-139654J139654D01*
G01*
X60332814Y-83939185D01*
G75*
G02*
X60332814Y-83659877I139654J139654D01*
G01*
X60647477Y-83345214D01*
G75*
G02*
X60926785Y-83345214I139654J-139654D01*
G01*
X61206092Y-83624521D01*
G75*
G02*
X61206092Y-83903829I-139654J-139654D01*
G01*
G37*
%TD*%
%TO.C,D26*%
G36*
G01*
X79342909Y-97577048D02*
X79728291Y-97799548D01*
G75*
G02*
X79800581Y-98069338I-98750J-171040D01*
G01*
X79603081Y-98411418D01*
G75*
G02*
X79333291Y-98483708I-171040J98750D01*
G01*
X78947909Y-98261208D01*
G75*
G02*
X78875619Y-97991418I98750J171040D01*
G01*
X79073119Y-97649338D01*
G75*
G02*
X79342909Y-97577048I171040J-98750D01*
G01*
G37*
G36*
G01*
X78857909Y-98417092D02*
X79243291Y-98639592D01*
G75*
G02*
X79315581Y-98909382I-98750J-171040D01*
G01*
X79118081Y-99251462D01*
G75*
G02*
X78848291Y-99323752I-171040J98750D01*
G01*
X78462909Y-99101252D01*
G75*
G02*
X78390619Y-98831462I98750J171040D01*
G01*
X78588119Y-98489382D01*
G75*
G02*
X78857909Y-98417092I171040J-98750D01*
G01*
G37*
%TD*%
%TO.C,D27*%
G36*
G01*
X64633248Y-101835291D02*
X64855748Y-101449909D01*
G75*
G02*
X65125538Y-101377619I171040J-98750D01*
G01*
X65467618Y-101575119D01*
G75*
G02*
X65539908Y-101844909I-98750J-171040D01*
G01*
X65317408Y-102230291D01*
G75*
G02*
X65047618Y-102302581I-171040J98750D01*
G01*
X64705538Y-102105081D01*
G75*
G02*
X64633248Y-101835291I98750J171040D01*
G01*
G37*
G36*
G01*
X65473292Y-102320291D02*
X65695792Y-101934909D01*
G75*
G02*
X65965582Y-101862619I171040J-98750D01*
G01*
X66307662Y-102060119D01*
G75*
G02*
X66379952Y-102329909I-98750J-171040D01*
G01*
X66157452Y-102715291D01*
G75*
G02*
X65887662Y-102787581I-171040J98750D01*
G01*
X65545582Y-102590081D01*
G75*
G02*
X65473292Y-102320291I98750J171040D01*
G01*
G37*
%TD*%
%TO.C,D28*%
G36*
G01*
X83354921Y-90234625D02*
X83239746Y-89804788D01*
G75*
G02*
X83379399Y-89562901I190770J51117D01*
G01*
X83760940Y-89460668D01*
G75*
G02*
X84002827Y-89600321I51117J-190770D01*
G01*
X84118002Y-90030158D01*
G75*
G02*
X83978349Y-90272045I-190770J-51117D01*
G01*
X83596808Y-90374278D01*
G75*
G02*
X83354921Y-90234625I-51117J190770D01*
G01*
G37*
G36*
G01*
X82417973Y-90485679D02*
X82302798Y-90055842D01*
G75*
G02*
X82442451Y-89813955I190770J51117D01*
G01*
X82823992Y-89711722D01*
G75*
G02*
X83065879Y-89851375I51117J-190770D01*
G01*
X83181054Y-90281212D01*
G75*
G02*
X83041401Y-90523099I-190770J-51117D01*
G01*
X82659860Y-90625332D01*
G75*
G02*
X82417973Y-90485679I-51117J190770D01*
G01*
G37*
%TD*%
%TO.C,D29*%
G36*
G01*
X81041648Y-99854091D02*
X81264148Y-99468709D01*
G75*
G02*
X81533938Y-99396419I171040J-98750D01*
G01*
X81876018Y-99593919D01*
G75*
G02*
X81948308Y-99863709I-98750J-171040D01*
G01*
X81725808Y-100249091D01*
G75*
G02*
X81456018Y-100321381I-171040J98750D01*
G01*
X81113938Y-100123881D01*
G75*
G02*
X81041648Y-99854091I98750J171040D01*
G01*
G37*
G36*
G01*
X81881692Y-100339091D02*
X82104192Y-99953709D01*
G75*
G02*
X82373982Y-99881419I171040J-98750D01*
G01*
X82716062Y-100078919D01*
G75*
G02*
X82788352Y-100348709I-98750J-171040D01*
G01*
X82565852Y-100734091D01*
G75*
G02*
X82296062Y-100806381I-171040J98750D01*
G01*
X81953982Y-100608881D01*
G75*
G02*
X81881692Y-100339091I98750J171040D01*
G01*
G37*
%TD*%
%TO.C,D30*%
G36*
G01*
X57538879Y-96683975D02*
X57654054Y-97113812D01*
G75*
G02*
X57514401Y-97355699I-190770J-51117D01*
G01*
X57132860Y-97457932D01*
G75*
G02*
X56890973Y-97318279I-51117J190770D01*
G01*
X56775798Y-96888442D01*
G75*
G02*
X56915451Y-96646555I190770J51117D01*
G01*
X57296992Y-96544322D01*
G75*
G02*
X57538879Y-96683975I51117J-190770D01*
G01*
G37*
G36*
G01*
X58475827Y-96432921D02*
X58591002Y-96862758D01*
G75*
G02*
X58451349Y-97104645I-190770J-51117D01*
G01*
X58069808Y-97206878D01*
G75*
G02*
X57827921Y-97067225I-51117J190770D01*
G01*
X57712746Y-96637388D01*
G75*
G02*
X57852399Y-96395501I190770J51117D01*
G01*
X58233940Y-96293268D01*
G75*
G02*
X58475827Y-96432921I51117J-190770D01*
G01*
G37*
%TD*%
%TO.C,D31*%
G36*
G01*
X59877552Y-87115309D02*
X59655052Y-87500691D01*
G75*
G02*
X59385262Y-87572981I-171040J98750D01*
G01*
X59043182Y-87375481D01*
G75*
G02*
X58970892Y-87105691I98750J171040D01*
G01*
X59193392Y-86720309D01*
G75*
G02*
X59463182Y-86648019I171040J-98750D01*
G01*
X59805262Y-86845519D01*
G75*
G02*
X59877552Y-87115309I-98750J-171040D01*
G01*
G37*
G36*
G01*
X59037508Y-86630309D02*
X58815008Y-87015691D01*
G75*
G02*
X58545218Y-87087981I-171040J98750D01*
G01*
X58203138Y-86890481D01*
G75*
G02*
X58130848Y-86620691I98750J171040D01*
G01*
X58353348Y-86235309D01*
G75*
G02*
X58623138Y-86163019I171040J-98750D01*
G01*
X58965218Y-86360519D01*
G75*
G02*
X59037508Y-86630309I-98750J-171040D01*
G01*
G37*
%TD*%
%TO.C,D32*%
G36*
G01*
X75627192Y-102230291D02*
X75404692Y-101844909D01*
G75*
G02*
X75476982Y-101575119I171040J98750D01*
G01*
X75819062Y-101377619D01*
G75*
G02*
X76088852Y-101449909I98750J-171040D01*
G01*
X76311352Y-101835291D01*
G75*
G02*
X76239062Y-102105081I-171040J-98750D01*
G01*
X75896982Y-102302581D01*
G75*
G02*
X75627192Y-102230291I-98750J171040D01*
G01*
G37*
G36*
G01*
X74787148Y-102715291D02*
X74564648Y-102329909D01*
G75*
G02*
X74636938Y-102060119I171040J98750D01*
G01*
X74979018Y-101862619D01*
G75*
G02*
X75248808Y-101934909I98750J-171040D01*
G01*
X75471308Y-102320291D01*
G75*
G02*
X75399018Y-102590081I-171040J-98750D01*
G01*
X75056938Y-102787581D01*
G75*
G02*
X74787148Y-102715291I-98750J171040D01*
G01*
G37*
%TD*%
%TO.C,D33*%
G36*
G01*
X71339600Y-103231700D02*
X71339600Y-103676700D01*
G75*
G02*
X71142100Y-103874200I-197500J0D01*
G01*
X70747100Y-103874200D01*
G75*
G02*
X70549600Y-103676700I0J197500D01*
G01*
X70549600Y-103231700D01*
G75*
G02*
X70747100Y-103034200I197500J0D01*
G01*
X71142100Y-103034200D01*
G75*
G02*
X71339600Y-103231700I0J-197500D01*
G01*
G37*
G36*
G01*
X70369600Y-103231700D02*
X70369600Y-103676700D01*
G75*
G02*
X70172100Y-103874200I-197500J0D01*
G01*
X69777100Y-103874200D01*
G75*
G02*
X69579600Y-103676700I0J197500D01*
G01*
X69579600Y-103231700D01*
G75*
G02*
X69777100Y-103034200I197500J0D01*
G01*
X70172100Y-103034200D01*
G75*
G02*
X70369600Y-103231700I0J-197500D01*
G01*
G37*
%TD*%
%TO.C,D34*%
G36*
G01*
X83783000Y-93694500D02*
X83783000Y-93249500D01*
G75*
G02*
X83980500Y-93052000I197500J0D01*
G01*
X84375500Y-93052000D01*
G75*
G02*
X84573000Y-93249500I0J-197500D01*
G01*
X84573000Y-93694500D01*
G75*
G02*
X84375500Y-93892000I-197500J0D01*
G01*
X83980500Y-93892000D01*
G75*
G02*
X83783000Y-93694500I0J197500D01*
G01*
G37*
G36*
G01*
X82813000Y-93694500D02*
X82813000Y-93249500D01*
G75*
G02*
X83010500Y-93052000I197500J0D01*
G01*
X83405500Y-93052000D01*
G75*
G02*
X83603000Y-93249500I0J-197500D01*
G01*
X83603000Y-93694500D01*
G75*
G02*
X83405500Y-93892000I-197500J0D01*
G01*
X83010500Y-93892000D01*
G75*
G02*
X82813000Y-93694500I0J197500D01*
G01*
G37*
%TD*%
%TO.C,D35*%
G36*
G01*
X82328198Y-96888158D02*
X82443373Y-96458321D01*
G75*
G02*
X82685260Y-96318668I190770J-51117D01*
G01*
X83066801Y-96420901D01*
G75*
G02*
X83206454Y-96662788I-51117J-190770D01*
G01*
X83091279Y-97092625D01*
G75*
G02*
X82849392Y-97232278I-190770J51117D01*
G01*
X82467851Y-97130045D01*
G75*
G02*
X82328198Y-96888158I51117J190770D01*
G01*
G37*
G36*
G01*
X83265146Y-97139212D02*
X83380321Y-96709375D01*
G75*
G02*
X83622208Y-96569722I190770J-51117D01*
G01*
X84003749Y-96671955D01*
G75*
G02*
X84143402Y-96913842I-51117J-190770D01*
G01*
X84028227Y-97343679D01*
G75*
G02*
X83786340Y-97483332I-190770J51117D01*
G01*
X83404799Y-97381099D01*
G75*
G02*
X83265146Y-97139212I51117J190770D01*
G01*
G37*
%TD*%
%TO.C,D36*%
G36*
G01*
X57161600Y-93249500D02*
X57161600Y-93694500D01*
G75*
G02*
X56964100Y-93892000I-197500J0D01*
G01*
X56569100Y-93892000D01*
G75*
G02*
X56371600Y-93694500I0J197500D01*
G01*
X56371600Y-93249500D01*
G75*
G02*
X56569100Y-93052000I197500J0D01*
G01*
X56964100Y-93052000D01*
G75*
G02*
X57161600Y-93249500I0J-197500D01*
G01*
G37*
G36*
G01*
X58131600Y-93249500D02*
X58131600Y-93694500D01*
G75*
G02*
X57934100Y-93892000I-197500J0D01*
G01*
X57539100Y-93892000D01*
G75*
G02*
X57341600Y-93694500I0J197500D01*
G01*
X57341600Y-93249500D01*
G75*
G02*
X57539100Y-93052000I197500J0D01*
G01*
X57934100Y-93052000D01*
G75*
G02*
X58131600Y-93249500I0J-197500D01*
G01*
G37*
%TD*%
%TO.C,D37*%
G36*
G01*
X58591002Y-90055842D02*
X58475827Y-90485679D01*
G75*
G02*
X58233940Y-90625332I-190770J51117D01*
G01*
X57852399Y-90523099D01*
G75*
G02*
X57712746Y-90281212I51117J190770D01*
G01*
X57827921Y-89851375D01*
G75*
G02*
X58069808Y-89711722I190770J-51117D01*
G01*
X58451349Y-89813955D01*
G75*
G02*
X58591002Y-90055842I-51117J-190770D01*
G01*
G37*
G36*
G01*
X57654054Y-89804788D02*
X57538879Y-90234625D01*
G75*
G02*
X57296992Y-90374278I-190770J51117D01*
G01*
X56915451Y-90272045D01*
G75*
G02*
X56775798Y-90030158I51117J190770D01*
G01*
X56890973Y-89600321D01*
G75*
G02*
X57132860Y-89460668I190770J-51117D01*
G01*
X57514401Y-89562901D01*
G75*
G02*
X57654054Y-89804788I-51117J-190770D01*
G01*
G37*
%TD*%
%TO.C,R6*%
G36*
G01*
X69068700Y-93562000D02*
X69513700Y-93562000D01*
G75*
G02*
X69711200Y-93759500I0J-197500D01*
G01*
X69711200Y-94154500D01*
G75*
G02*
X69513700Y-94352000I-197500J0D01*
G01*
X69068700Y-94352000D01*
G75*
G02*
X68871200Y-94154500I0J197500D01*
G01*
X68871200Y-93759500D01*
G75*
G02*
X69068700Y-93562000I197500J0D01*
G01*
G37*
G36*
G01*
X69068700Y-92592000D02*
X69513700Y-92592000D01*
G75*
G02*
X69711200Y-92789500I0J-197500D01*
G01*
X69711200Y-93184500D01*
G75*
G02*
X69513700Y-93382000I-197500J0D01*
G01*
X69068700Y-93382000D01*
G75*
G02*
X68871200Y-93184500I0J197500D01*
G01*
X68871200Y-92789500D01*
G75*
G02*
X69068700Y-92592000I197500J0D01*
G01*
G37*
%TD*%
%TO.C,R10*%
G36*
G01*
X65614300Y-92634900D02*
X66059300Y-92634900D01*
G75*
G02*
X66256800Y-92832400I0J-197500D01*
G01*
X66256800Y-93227400D01*
G75*
G02*
X66059300Y-93424900I-197500J0D01*
G01*
X65614300Y-93424900D01*
G75*
G02*
X65416800Y-93227400I0J197500D01*
G01*
X65416800Y-92832400D01*
G75*
G02*
X65614300Y-92634900I197500J0D01*
G01*
G37*
G36*
G01*
X65614300Y-91664900D02*
X66059300Y-91664900D01*
G75*
G02*
X66256800Y-91862400I0J-197500D01*
G01*
X66256800Y-92257400D01*
G75*
G02*
X66059300Y-92454900I-197500J0D01*
G01*
X65614300Y-92454900D01*
G75*
G02*
X65416800Y-92257400I0J197500D01*
G01*
X65416800Y-91862400D01*
G75*
G02*
X65614300Y-91664900I197500J0D01*
G01*
G37*
%TD*%
%TO.C,R11*%
G36*
G01*
X64761000Y-90734900D02*
X64761000Y-91179900D01*
G75*
G02*
X64563500Y-91377400I-197500J0D01*
G01*
X64168500Y-91377400D01*
G75*
G02*
X63971000Y-91179900I0J197500D01*
G01*
X63971000Y-90734900D01*
G75*
G02*
X64168500Y-90537400I197500J0D01*
G01*
X64563500Y-90537400D01*
G75*
G02*
X64761000Y-90734900I0J-197500D01*
G01*
G37*
G36*
G01*
X63791000Y-90734900D02*
X63791000Y-91179900D01*
G75*
G02*
X63593500Y-91377400I-197500J0D01*
G01*
X63198500Y-91377400D01*
G75*
G02*
X63001000Y-91179900I0J197500D01*
G01*
X63001000Y-90734900D01*
G75*
G02*
X63198500Y-90537400I197500J0D01*
G01*
X63593500Y-90537400D01*
G75*
G02*
X63791000Y-90734900I0J-197500D01*
G01*
G37*
%TD*%
%TO.C,R12*%
G36*
G01*
X62147700Y-95287000D02*
X61702700Y-95287000D01*
G75*
G02*
X61505200Y-95089500I0J197500D01*
G01*
X61505200Y-94694500D01*
G75*
G02*
X61702700Y-94497000I197500J0D01*
G01*
X62147700Y-94497000D01*
G75*
G02*
X62345200Y-94694500I0J-197500D01*
G01*
X62345200Y-95089500D01*
G75*
G02*
X62147700Y-95287000I-197500J0D01*
G01*
G37*
G36*
G01*
X62147700Y-96257000D02*
X61702700Y-96257000D01*
G75*
G02*
X61505200Y-96059500I0J197500D01*
G01*
X61505200Y-95664500D01*
G75*
G02*
X61702700Y-95467000I197500J0D01*
G01*
X62147700Y-95467000D01*
G75*
G02*
X62345200Y-95664500I0J-197500D01*
G01*
X62345200Y-96059500D01*
G75*
G02*
X62147700Y-96257000I-197500J0D01*
G01*
G37*
%TD*%
%TO.C,R14*%
G36*
G01*
X70795900Y-97113200D02*
X71240900Y-97113200D01*
G75*
G02*
X71438400Y-97310700I0J-197500D01*
G01*
X71438400Y-97705700D01*
G75*
G02*
X71240900Y-97903200I-197500J0D01*
G01*
X70795900Y-97903200D01*
G75*
G02*
X70598400Y-97705700I0J197500D01*
G01*
X70598400Y-97310700D01*
G75*
G02*
X70795900Y-97113200I197500J0D01*
G01*
G37*
G36*
G01*
X70795900Y-98083200D02*
X71240900Y-98083200D01*
G75*
G02*
X71438400Y-98280700I0J-197500D01*
G01*
X71438400Y-98675700D01*
G75*
G02*
X71240900Y-98873200I-197500J0D01*
G01*
X70795900Y-98873200D01*
G75*
G02*
X70598400Y-98675700I0J197500D01*
G01*
X70598400Y-98280700D01*
G75*
G02*
X70795900Y-98083200I197500J0D01*
G01*
G37*
%TD*%
%TO.C,R15*%
G36*
G01*
X70123300Y-97903200D02*
X69678300Y-97903200D01*
G75*
G02*
X69480800Y-97705700I0J197500D01*
G01*
X69480800Y-97310700D01*
G75*
G02*
X69678300Y-97113200I197500J0D01*
G01*
X70123300Y-97113200D01*
G75*
G02*
X70320800Y-97310700I0J-197500D01*
G01*
X70320800Y-97705700D01*
G75*
G02*
X70123300Y-97903200I-197500J0D01*
G01*
G37*
G36*
G01*
X70123300Y-98873200D02*
X69678300Y-98873200D01*
G75*
G02*
X69480800Y-98675700I0J197500D01*
G01*
X69480800Y-98280700D01*
G75*
G02*
X69678300Y-98083200I197500J0D01*
G01*
X70123300Y-98083200D01*
G75*
G02*
X70320800Y-98280700I0J-197500D01*
G01*
X70320800Y-98675700D01*
G75*
G02*
X70123300Y-98873200I-197500J0D01*
G01*
G37*
%TD*%
%TO.C,U1*%
G36*
G01*
X72869400Y-91859900D02*
X72869400Y-91634900D01*
G75*
G02*
X72981900Y-91522400I112500J0D01*
G01*
X73831900Y-91522400D01*
G75*
G02*
X73944400Y-91634900I0J-112500D01*
G01*
X73944400Y-91859900D01*
G75*
G02*
X73831900Y-91972400I-112500J0D01*
G01*
X72981900Y-91972400D01*
G75*
G02*
X72869400Y-91859900I0J112500D01*
G01*
G37*
G36*
G01*
X72869400Y-92359900D02*
X72869400Y-92134900D01*
G75*
G02*
X72981900Y-92022400I112500J0D01*
G01*
X73831900Y-92022400D01*
G75*
G02*
X73944400Y-92134900I0J-112500D01*
G01*
X73944400Y-92359900D01*
G75*
G02*
X73831900Y-92472400I-112500J0D01*
G01*
X72981900Y-92472400D01*
G75*
G02*
X72869400Y-92359900I0J112500D01*
G01*
G37*
G36*
G01*
X72869400Y-92859900D02*
X72869400Y-92634900D01*
G75*
G02*
X72981900Y-92522400I112500J0D01*
G01*
X73831900Y-92522400D01*
G75*
G02*
X73944400Y-92634900I0J-112500D01*
G01*
X73944400Y-92859900D01*
G75*
G02*
X73831900Y-92972400I-112500J0D01*
G01*
X72981900Y-92972400D01*
G75*
G02*
X72869400Y-92859900I0J112500D01*
G01*
G37*
G36*
G01*
X72869400Y-93359900D02*
X72869400Y-93134900D01*
G75*
G02*
X72981900Y-93022400I112500J0D01*
G01*
X73831900Y-93022400D01*
G75*
G02*
X73944400Y-93134900I0J-112500D01*
G01*
X73944400Y-93359900D01*
G75*
G02*
X73831900Y-93472400I-112500J0D01*
G01*
X72981900Y-93472400D01*
G75*
G02*
X72869400Y-93359900I0J112500D01*
G01*
G37*
G36*
G01*
X72869400Y-93859900D02*
X72869400Y-93634900D01*
G75*
G02*
X72981900Y-93522400I112500J0D01*
G01*
X73831900Y-93522400D01*
G75*
G02*
X73944400Y-93634900I0J-112500D01*
G01*
X73944400Y-93859900D01*
G75*
G02*
X73831900Y-93972400I-112500J0D01*
G01*
X72981900Y-93972400D01*
G75*
G02*
X72869400Y-93859900I0J112500D01*
G01*
G37*
G36*
G01*
X72869400Y-94359900D02*
X72869400Y-94134900D01*
G75*
G02*
X72981900Y-94022400I112500J0D01*
G01*
X73831900Y-94022400D01*
G75*
G02*
X73944400Y-94134900I0J-112500D01*
G01*
X73944400Y-94359900D01*
G75*
G02*
X73831900Y-94472400I-112500J0D01*
G01*
X72981900Y-94472400D01*
G75*
G02*
X72869400Y-94359900I0J112500D01*
G01*
G37*
G36*
G01*
X72869400Y-94859900D02*
X72869400Y-94634900D01*
G75*
G02*
X72981900Y-94522400I112500J0D01*
G01*
X73831900Y-94522400D01*
G75*
G02*
X73944400Y-94634900I0J-112500D01*
G01*
X73944400Y-94859900D01*
G75*
G02*
X73831900Y-94972400I-112500J0D01*
G01*
X72981900Y-94972400D01*
G75*
G02*
X72869400Y-94859900I0J112500D01*
G01*
G37*
G36*
G01*
X72869400Y-95359900D02*
X72869400Y-95134900D01*
G75*
G02*
X72981900Y-95022400I112500J0D01*
G01*
X73831900Y-95022400D01*
G75*
G02*
X73944400Y-95134900I0J-112500D01*
G01*
X73944400Y-95359900D01*
G75*
G02*
X73831900Y-95472400I-112500J0D01*
G01*
X72981900Y-95472400D01*
G75*
G02*
X72869400Y-95359900I0J112500D01*
G01*
G37*
G36*
G01*
X73869400Y-96359900D02*
X73869400Y-95509900D01*
G75*
G02*
X73981900Y-95397400I112500J0D01*
G01*
X74206900Y-95397400D01*
G75*
G02*
X74319400Y-95509900I0J-112500D01*
G01*
X74319400Y-96359900D01*
G75*
G02*
X74206900Y-96472400I-112500J0D01*
G01*
X73981900Y-96472400D01*
G75*
G02*
X73869400Y-96359900I0J112500D01*
G01*
G37*
G36*
G01*
X74369400Y-96359900D02*
X74369400Y-95509900D01*
G75*
G02*
X74481900Y-95397400I112500J0D01*
G01*
X74706900Y-95397400D01*
G75*
G02*
X74819400Y-95509900I0J-112500D01*
G01*
X74819400Y-96359900D01*
G75*
G02*
X74706900Y-96472400I-112500J0D01*
G01*
X74481900Y-96472400D01*
G75*
G02*
X74369400Y-96359900I0J112500D01*
G01*
G37*
G36*
G01*
X74869400Y-96359900D02*
X74869400Y-95509900D01*
G75*
G02*
X74981900Y-95397400I112500J0D01*
G01*
X75206900Y-95397400D01*
G75*
G02*
X75319400Y-95509900I0J-112500D01*
G01*
X75319400Y-96359900D01*
G75*
G02*
X75206900Y-96472400I-112500J0D01*
G01*
X74981900Y-96472400D01*
G75*
G02*
X74869400Y-96359900I0J112500D01*
G01*
G37*
G36*
G01*
X75369400Y-96359900D02*
X75369400Y-95509900D01*
G75*
G02*
X75481900Y-95397400I112500J0D01*
G01*
X75706900Y-95397400D01*
G75*
G02*
X75819400Y-95509900I0J-112500D01*
G01*
X75819400Y-96359900D01*
G75*
G02*
X75706900Y-96472400I-112500J0D01*
G01*
X75481900Y-96472400D01*
G75*
G02*
X75369400Y-96359900I0J112500D01*
G01*
G37*
G36*
G01*
X75869400Y-96359900D02*
X75869400Y-95509900D01*
G75*
G02*
X75981900Y-95397400I112500J0D01*
G01*
X76206900Y-95397400D01*
G75*
G02*
X76319400Y-95509900I0J-112500D01*
G01*
X76319400Y-96359900D01*
G75*
G02*
X76206900Y-96472400I-112500J0D01*
G01*
X75981900Y-96472400D01*
G75*
G02*
X75869400Y-96359900I0J112500D01*
G01*
G37*
G36*
G01*
X76369400Y-96359900D02*
X76369400Y-95509900D01*
G75*
G02*
X76481900Y-95397400I112500J0D01*
G01*
X76706900Y-95397400D01*
G75*
G02*
X76819400Y-95509900I0J-112500D01*
G01*
X76819400Y-96359900D01*
G75*
G02*
X76706900Y-96472400I-112500J0D01*
G01*
X76481900Y-96472400D01*
G75*
G02*
X76369400Y-96359900I0J112500D01*
G01*
G37*
G36*
G01*
X76869400Y-96359900D02*
X76869400Y-95509900D01*
G75*
G02*
X76981900Y-95397400I112500J0D01*
G01*
X77206900Y-95397400D01*
G75*
G02*
X77319400Y-95509900I0J-112500D01*
G01*
X77319400Y-96359900D01*
G75*
G02*
X77206900Y-96472400I-112500J0D01*
G01*
X76981900Y-96472400D01*
G75*
G02*
X76869400Y-96359900I0J112500D01*
G01*
G37*
G36*
G01*
X77369400Y-96359900D02*
X77369400Y-95509900D01*
G75*
G02*
X77481900Y-95397400I112500J0D01*
G01*
X77706900Y-95397400D01*
G75*
G02*
X77819400Y-95509900I0J-112500D01*
G01*
X77819400Y-96359900D01*
G75*
G02*
X77706900Y-96472400I-112500J0D01*
G01*
X77481900Y-96472400D01*
G75*
G02*
X77369400Y-96359900I0J112500D01*
G01*
G37*
G36*
G01*
X77744400Y-95359900D02*
X77744400Y-95134900D01*
G75*
G02*
X77856900Y-95022400I112500J0D01*
G01*
X78706900Y-95022400D01*
G75*
G02*
X78819400Y-95134900I0J-112500D01*
G01*
X78819400Y-95359900D01*
G75*
G02*
X78706900Y-95472400I-112500J0D01*
G01*
X77856900Y-95472400D01*
G75*
G02*
X77744400Y-95359900I0J112500D01*
G01*
G37*
G36*
G01*
X77744400Y-94859900D02*
X77744400Y-94634900D01*
G75*
G02*
X77856900Y-94522400I112500J0D01*
G01*
X78706900Y-94522400D01*
G75*
G02*
X78819400Y-94634900I0J-112500D01*
G01*
X78819400Y-94859900D01*
G75*
G02*
X78706900Y-94972400I-112500J0D01*
G01*
X77856900Y-94972400D01*
G75*
G02*
X77744400Y-94859900I0J112500D01*
G01*
G37*
G36*
G01*
X77744400Y-94359900D02*
X77744400Y-94134900D01*
G75*
G02*
X77856900Y-94022400I112500J0D01*
G01*
X78706900Y-94022400D01*
G75*
G02*
X78819400Y-94134900I0J-112500D01*
G01*
X78819400Y-94359900D01*
G75*
G02*
X78706900Y-94472400I-112500J0D01*
G01*
X77856900Y-94472400D01*
G75*
G02*
X77744400Y-94359900I0J112500D01*
G01*
G37*
G36*
G01*
X77744400Y-93859900D02*
X77744400Y-93634900D01*
G75*
G02*
X77856900Y-93522400I112500J0D01*
G01*
X78706900Y-93522400D01*
G75*
G02*
X78819400Y-93634900I0J-112500D01*
G01*
X78819400Y-93859900D01*
G75*
G02*
X78706900Y-93972400I-112500J0D01*
G01*
X77856900Y-93972400D01*
G75*
G02*
X77744400Y-93859900I0J112500D01*
G01*
G37*
G36*
G01*
X77744400Y-93359900D02*
X77744400Y-93134900D01*
G75*
G02*
X77856900Y-93022400I112500J0D01*
G01*
X78706900Y-93022400D01*
G75*
G02*
X78819400Y-93134900I0J-112500D01*
G01*
X78819400Y-93359900D01*
G75*
G02*
X78706900Y-93472400I-112500J0D01*
G01*
X77856900Y-93472400D01*
G75*
G02*
X77744400Y-93359900I0J112500D01*
G01*
G37*
G36*
G01*
X77744400Y-92859900D02*
X77744400Y-92634900D01*
G75*
G02*
X77856900Y-92522400I112500J0D01*
G01*
X78706900Y-92522400D01*
G75*
G02*
X78819400Y-92634900I0J-112500D01*
G01*
X78819400Y-92859900D01*
G75*
G02*
X78706900Y-92972400I-112500J0D01*
G01*
X77856900Y-92972400D01*
G75*
G02*
X77744400Y-92859900I0J112500D01*
G01*
G37*
G36*
G01*
X77744400Y-92359900D02*
X77744400Y-92134900D01*
G75*
G02*
X77856900Y-92022400I112500J0D01*
G01*
X78706900Y-92022400D01*
G75*
G02*
X78819400Y-92134900I0J-112500D01*
G01*
X78819400Y-92359900D01*
G75*
G02*
X78706900Y-92472400I-112500J0D01*
G01*
X77856900Y-92472400D01*
G75*
G02*
X77744400Y-92359900I0J112500D01*
G01*
G37*
G36*
G01*
X77744400Y-91859900D02*
X77744400Y-91634900D01*
G75*
G02*
X77856900Y-91522400I112500J0D01*
G01*
X78706900Y-91522400D01*
G75*
G02*
X78819400Y-91634900I0J-112500D01*
G01*
X78819400Y-91859900D01*
G75*
G02*
X78706900Y-91972400I-112500J0D01*
G01*
X77856900Y-91972400D01*
G75*
G02*
X77744400Y-91859900I0J112500D01*
G01*
G37*
G36*
G01*
X77369400Y-91484900D02*
X77369400Y-90634900D01*
G75*
G02*
X77481900Y-90522400I112500J0D01*
G01*
X77706900Y-90522400D01*
G75*
G02*
X77819400Y-90634900I0J-112500D01*
G01*
X77819400Y-91484900D01*
G75*
G02*
X77706900Y-91597400I-112500J0D01*
G01*
X77481900Y-91597400D01*
G75*
G02*
X77369400Y-91484900I0J112500D01*
G01*
G37*
G36*
G01*
X76869400Y-91484900D02*
X76869400Y-90634900D01*
G75*
G02*
X76981900Y-90522400I112500J0D01*
G01*
X77206900Y-90522400D01*
G75*
G02*
X77319400Y-90634900I0J-112500D01*
G01*
X77319400Y-91484900D01*
G75*
G02*
X77206900Y-91597400I-112500J0D01*
G01*
X76981900Y-91597400D01*
G75*
G02*
X76869400Y-91484900I0J112500D01*
G01*
G37*
G36*
G01*
X76369400Y-91484900D02*
X76369400Y-90634900D01*
G75*
G02*
X76481900Y-90522400I112500J0D01*
G01*
X76706900Y-90522400D01*
G75*
G02*
X76819400Y-90634900I0J-112500D01*
G01*
X76819400Y-91484900D01*
G75*
G02*
X76706900Y-91597400I-112500J0D01*
G01*
X76481900Y-91597400D01*
G75*
G02*
X76369400Y-91484900I0J112500D01*
G01*
G37*
G36*
G01*
X75869400Y-91484900D02*
X75869400Y-90634900D01*
G75*
G02*
X75981900Y-90522400I112500J0D01*
G01*
X76206900Y-90522400D01*
G75*
G02*
X76319400Y-90634900I0J-112500D01*
G01*
X76319400Y-91484900D01*
G75*
G02*
X76206900Y-91597400I-112500J0D01*
G01*
X75981900Y-91597400D01*
G75*
G02*
X75869400Y-91484900I0J112500D01*
G01*
G37*
G36*
G01*
X75369400Y-91484900D02*
X75369400Y-90634900D01*
G75*
G02*
X75481900Y-90522400I112500J0D01*
G01*
X75706900Y-90522400D01*
G75*
G02*
X75819400Y-90634900I0J-112500D01*
G01*
X75819400Y-91484900D01*
G75*
G02*
X75706900Y-91597400I-112500J0D01*
G01*
X75481900Y-91597400D01*
G75*
G02*
X75369400Y-91484900I0J112500D01*
G01*
G37*
G36*
G01*
X74869400Y-91484900D02*
X74869400Y-90634900D01*
G75*
G02*
X74981900Y-90522400I112500J0D01*
G01*
X75206900Y-90522400D01*
G75*
G02*
X75319400Y-90634900I0J-112500D01*
G01*
X75319400Y-91484900D01*
G75*
G02*
X75206900Y-91597400I-112500J0D01*
G01*
X74981900Y-91597400D01*
G75*
G02*
X74869400Y-91484900I0J112500D01*
G01*
G37*
G36*
G01*
X74369400Y-91484900D02*
X74369400Y-90634900D01*
G75*
G02*
X74481900Y-90522400I112500J0D01*
G01*
X74706900Y-90522400D01*
G75*
G02*
X74819400Y-90634900I0J-112500D01*
G01*
X74819400Y-91484900D01*
G75*
G02*
X74706900Y-91597400I-112500J0D01*
G01*
X74481900Y-91597400D01*
G75*
G02*
X74369400Y-91484900I0J112500D01*
G01*
G37*
G36*
G01*
X73869400Y-91484900D02*
X73869400Y-90634900D01*
G75*
G02*
X73981900Y-90522400I112500J0D01*
G01*
X74206900Y-90522400D01*
G75*
G02*
X74319400Y-90634900I0J-112500D01*
G01*
X74319400Y-91484900D01*
G75*
G02*
X74206900Y-91597400I-112500J0D01*
G01*
X73981900Y-91597400D01*
G75*
G02*
X73869400Y-91484900I0J112500D01*
G01*
G37*
D16*
X75844400Y-93497400D03*
%TD*%
%TO.C,C19*%
G36*
G01*
X65192048Y-100844691D02*
X65414548Y-100459309D01*
G75*
G02*
X65684338Y-100387019I171040J-98750D01*
G01*
X66026418Y-100584519D01*
G75*
G02*
X66098708Y-100854309I-98750J-171040D01*
G01*
X65876208Y-101239691D01*
G75*
G02*
X65606418Y-101311981I-171040J98750D01*
G01*
X65264338Y-101114481D01*
G75*
G02*
X65192048Y-100844691I98750J171040D01*
G01*
G37*
G36*
G01*
X66032092Y-101329691D02*
X66254592Y-100944309D01*
G75*
G02*
X66524382Y-100872019I171040J-98750D01*
G01*
X66866462Y-101069519D01*
G75*
G02*
X66938752Y-101339309I-98750J-171040D01*
G01*
X66716252Y-101724691D01*
G75*
G02*
X66446462Y-101796981I-171040J98750D01*
G01*
X66104382Y-101599481D01*
G75*
G02*
X66032092Y-101329691I98750J171040D01*
G01*
G37*
%TD*%
%TO.C,R7*%
G36*
G01*
X69579600Y-86150700D02*
X69579600Y-85705700D01*
G75*
G02*
X69777100Y-85508200I197500J0D01*
G01*
X70172100Y-85508200D01*
G75*
G02*
X70369600Y-85705700I0J-197500D01*
G01*
X70369600Y-86150700D01*
G75*
G02*
X70172100Y-86348200I-197500J0D01*
G01*
X69777100Y-86348200D01*
G75*
G02*
X69579600Y-86150700I0J197500D01*
G01*
G37*
G36*
G01*
X70549600Y-86150700D02*
X70549600Y-85705700D01*
G75*
G02*
X70747100Y-85508200I197500J0D01*
G01*
X71142100Y-85508200D01*
G75*
G02*
X71339600Y-85705700I0J-197500D01*
G01*
X71339600Y-86150700D01*
G75*
G02*
X71142100Y-86348200I-197500J0D01*
G01*
X70747100Y-86348200D01*
G75*
G02*
X70549600Y-86150700I0J197500D01*
G01*
G37*
%TD*%
D17*
%TO.C,JP6*%
X72390000Y-98493200D03*
X72390000Y-97493200D03*
%TD*%
%TO.C,JP10*%
X68529200Y-98493200D03*
X68529200Y-97493200D03*
%TD*%
%TO.C,C20*%
G36*
G01*
X64773700Y-98824800D02*
X64773700Y-99269800D01*
G75*
G02*
X64576200Y-99467300I-197500J0D01*
G01*
X64181200Y-99467300D01*
G75*
G02*
X63983700Y-99269800I0J197500D01*
G01*
X63983700Y-98824800D01*
G75*
G02*
X64181200Y-98627300I197500J0D01*
G01*
X64576200Y-98627300D01*
G75*
G02*
X64773700Y-98824800I0J-197500D01*
G01*
G37*
G36*
G01*
X63803700Y-98824800D02*
X63803700Y-99269800D01*
G75*
G02*
X63606200Y-99467300I-197500J0D01*
G01*
X63211200Y-99467300D01*
G75*
G02*
X63013700Y-99269800I0J197500D01*
G01*
X63013700Y-98824800D01*
G75*
G02*
X63211200Y-98627300I197500J0D01*
G01*
X63606200Y-98627300D01*
G75*
G02*
X63803700Y-98824800I0J-197500D01*
G01*
G37*
%TD*%
%TO.C,R1*%
G36*
G01*
X66998600Y-97113200D02*
X67443600Y-97113200D01*
G75*
G02*
X67641100Y-97310700I0J-197500D01*
G01*
X67641100Y-97705700D01*
G75*
G02*
X67443600Y-97903200I-197500J0D01*
G01*
X66998600Y-97903200D01*
G75*
G02*
X66801100Y-97705700I0J197500D01*
G01*
X66801100Y-97310700D01*
G75*
G02*
X66998600Y-97113200I197500J0D01*
G01*
G37*
G36*
G01*
X66998600Y-98083200D02*
X67443600Y-98083200D01*
G75*
G02*
X67641100Y-98280700I0J-197500D01*
G01*
X67641100Y-98675700D01*
G75*
G02*
X67443600Y-98873200I-197500J0D01*
G01*
X66998600Y-98873200D01*
G75*
G02*
X66801100Y-98675700I0J197500D01*
G01*
X66801100Y-98280700D01*
G75*
G02*
X66998600Y-98083200I197500J0D01*
G01*
G37*
%TD*%
%TO.C,R2*%
G36*
G01*
X65906400Y-98083200D02*
X66351400Y-98083200D01*
G75*
G02*
X66548900Y-98280700I0J-197500D01*
G01*
X66548900Y-98675700D01*
G75*
G02*
X66351400Y-98873200I-197500J0D01*
G01*
X65906400Y-98873200D01*
G75*
G02*
X65708900Y-98675700I0J197500D01*
G01*
X65708900Y-98280700D01*
G75*
G02*
X65906400Y-98083200I197500J0D01*
G01*
G37*
G36*
G01*
X65906400Y-97113200D02*
X66351400Y-97113200D01*
G75*
G02*
X66548900Y-97310700I0J-197500D01*
G01*
X66548900Y-97705700D01*
G75*
G02*
X66351400Y-97903200I-197500J0D01*
G01*
X65906400Y-97903200D01*
G75*
G02*
X65708900Y-97705700I0J197500D01*
G01*
X65708900Y-97310700D01*
G75*
G02*
X65906400Y-97113200I197500J0D01*
G01*
G37*
%TD*%
%TO.C,R3*%
G36*
G01*
X64167000Y-101527500D02*
X63722000Y-101527500D01*
G75*
G02*
X63524500Y-101330000I0J197500D01*
G01*
X63524500Y-100935000D01*
G75*
G02*
X63722000Y-100737500I197500J0D01*
G01*
X64167000Y-100737500D01*
G75*
G02*
X64364500Y-100935000I0J-197500D01*
G01*
X64364500Y-101330000D01*
G75*
G02*
X64167000Y-101527500I-197500J0D01*
G01*
G37*
G36*
G01*
X64167000Y-100557500D02*
X63722000Y-100557500D01*
G75*
G02*
X63524500Y-100360000I0J197500D01*
G01*
X63524500Y-99965000D01*
G75*
G02*
X63722000Y-99767500I197500J0D01*
G01*
X64167000Y-99767500D01*
G75*
G02*
X64364500Y-99965000I0J-197500D01*
G01*
X64364500Y-100360000D01*
G75*
G02*
X64167000Y-100557500I-197500J0D01*
G01*
G37*
%TD*%
%TO.C,R4*%
G36*
G01*
X78379591Y-97938530D02*
X77994209Y-97716030D01*
G75*
G02*
X77921919Y-97446240I98750J171040D01*
G01*
X78119419Y-97104160D01*
G75*
G02*
X78389209Y-97031870I171040J-98750D01*
G01*
X78774591Y-97254370D01*
G75*
G02*
X78846881Y-97524160I-98750J-171040D01*
G01*
X78649381Y-97866240D01*
G75*
G02*
X78379591Y-97938530I-171040J98750D01*
G01*
G37*
G36*
G01*
X77894591Y-98778574D02*
X77509209Y-98556074D01*
G75*
G02*
X77436919Y-98286284I98750J171040D01*
G01*
X77634419Y-97944204D01*
G75*
G02*
X77904209Y-97871914I171040J-98750D01*
G01*
X78289591Y-98094414D01*
G75*
G02*
X78361881Y-98364204I-98750J-171040D01*
G01*
X78164381Y-98706284D01*
G75*
G02*
X77894591Y-98778574I-171040J98750D01*
G01*
G37*
%TD*%
%TO.C,R5*%
G36*
G01*
X62566891Y-89925752D02*
X62181509Y-89703252D01*
G75*
G02*
X62109219Y-89433462I98750J171040D01*
G01*
X62306719Y-89091382D01*
G75*
G02*
X62576509Y-89019092I171040J-98750D01*
G01*
X62961891Y-89241592D01*
G75*
G02*
X63034181Y-89511382I-98750J-171040D01*
G01*
X62836681Y-89853462D01*
G75*
G02*
X62566891Y-89925752I-171040J98750D01*
G01*
G37*
G36*
G01*
X63051891Y-89085708D02*
X62666509Y-88863208D01*
G75*
G02*
X62594219Y-88593418I98750J171040D01*
G01*
X62791719Y-88251338D01*
G75*
G02*
X63061509Y-88179048I171040J-98750D01*
G01*
X63446891Y-88401548D01*
G75*
G02*
X63519181Y-88671338I-98750J-171040D01*
G01*
X63321681Y-89013418D01*
G75*
G02*
X63051891Y-89085708I-171040J98750D01*
G01*
G37*
%TD*%
%TO.C,R8*%
G36*
G01*
X74131208Y-99979109D02*
X74353708Y-100364491D01*
G75*
G02*
X74281418Y-100634281I-171040J-98750D01*
G01*
X73939338Y-100831781D01*
G75*
G02*
X73669548Y-100759491I-98750J171040D01*
G01*
X73447048Y-100374109D01*
G75*
G02*
X73519338Y-100104319I171040J98750D01*
G01*
X73861418Y-99906819D01*
G75*
G02*
X74131208Y-99979109I98750J-171040D01*
G01*
G37*
G36*
G01*
X74971252Y-99494109D02*
X75193752Y-99879491D01*
G75*
G02*
X75121462Y-100149281I-171040J-98750D01*
G01*
X74779382Y-100346781D01*
G75*
G02*
X74509592Y-100274491I-98750J171040D01*
G01*
X74287092Y-99889109D01*
G75*
G02*
X74359382Y-99619319I171040J98750D01*
G01*
X74701462Y-99421819D01*
G75*
G02*
X74971252Y-99494109I98750J-171040D01*
G01*
G37*
%TD*%
%TO.C,R9*%
G36*
G01*
X69579600Y-101263700D02*
X69579600Y-100818700D01*
G75*
G02*
X69777100Y-100621200I197500J0D01*
G01*
X70172100Y-100621200D01*
G75*
G02*
X70369600Y-100818700I0J-197500D01*
G01*
X70369600Y-101263700D01*
G75*
G02*
X70172100Y-101461200I-197500J0D01*
G01*
X69777100Y-101461200D01*
G75*
G02*
X69579600Y-101263700I0J197500D01*
G01*
G37*
G36*
G01*
X70549600Y-101263700D02*
X70549600Y-100818700D01*
G75*
G02*
X70747100Y-100621200I197500J0D01*
G01*
X71142100Y-100621200D01*
G75*
G02*
X71339600Y-100818700I0J-197500D01*
G01*
X71339600Y-101263700D01*
G75*
G02*
X71142100Y-101461200I-197500J0D01*
G01*
X70747100Y-101461200D01*
G75*
G02*
X70549600Y-101263700I0J197500D01*
G01*
G37*
%TD*%
D18*
%TO.C,U4*%
X64457199Y-98112199D03*
X63957200Y-98112199D03*
X63457201Y-98112199D03*
X64457199Y-97612200D03*
X63957200Y-97612200D03*
X63457201Y-97612200D03*
X64457199Y-97112201D03*
X63957200Y-97112201D03*
X63457201Y-97112201D03*
%TD*%
%TO.C,R13*%
G36*
G01*
X67497552Y-100374109D02*
X67275052Y-100759491D01*
G75*
G02*
X67005262Y-100831781I-171040J98750D01*
G01*
X66663182Y-100634281D01*
G75*
G02*
X66590892Y-100364491I98750J171040D01*
G01*
X66813392Y-99979109D01*
G75*
G02*
X67083182Y-99906819I171040J-98750D01*
G01*
X67425262Y-100104319D01*
G75*
G02*
X67497552Y-100374109I-98750J-171040D01*
G01*
G37*
G36*
G01*
X66657508Y-99889109D02*
X66435008Y-100274491D01*
G75*
G02*
X66165218Y-100346781I-171040J98750D01*
G01*
X65823138Y-100149281D01*
G75*
G02*
X65750848Y-99879491I98750J171040D01*
G01*
X65973348Y-99494109D01*
G75*
G02*
X66243138Y-99421819I171040J-98750D01*
G01*
X66585218Y-99619319D01*
G75*
G02*
X66657508Y-99889109I-98750J-171040D01*
G01*
G37*
%TD*%
M02*
