%TF.GenerationSoftware,KiCad,Pcbnew,(5.1.6)-1*%
%TF.CreationDate,2025-10-29T08:33:25+05:30*%
%TF.ProjectId,Project_OAK_MAIN_BRD_V1.0,50726f6a-6563-4745-9f4f-414b5f4d4149,A*%
%TF.SameCoordinates,Original*%
%TF.FileFunction,Soldermask,Bot*%
%TF.FilePolarity,Negative*%
%FSLAX46Y46*%
G04 Gerber Fmt 4.6, Leading zero omitted, Abs format (unit mm)*
G04 Created by KiCad (PCBNEW (5.1.6)-1) date 2025-10-29 08:33:25*
%MOMM*%
%LPD*%
G01*
G04 APERTURE LIST*
%ADD10R,2.804000X5.764000*%
%ADD11R,8.004000X6.164000*%
%ADD12C,2.300000*%
%ADD13C,0.100000*%
%ADD14R,1.254000X1.604000*%
%ADD15C,1.200000*%
%ADD16R,1.200000X0.700000*%
G04 APERTURE END LIST*
D10*
%TO.C,BT1*%
X58554600Y-93472000D03*
X82364600Y-93472000D03*
D11*
X70459600Y-93472000D03*
%TD*%
D12*
%TO.C,REF\u002A\u002A*%
X63284286Y-76149259D03*
%TD*%
%TO.C,REF\u002A\u002A*%
X53136859Y-86296686D03*
%TD*%
%TO.C,REF\u002A\u002A*%
X53136859Y-100647314D03*
%TD*%
%TO.C,REF\u002A\u002A*%
X63284286Y-110794741D03*
%TD*%
%TO.C,REF\u002A\u002A*%
X77634914Y-110794741D03*
%TD*%
%TO.C,REF\u002A\u002A*%
X87782341Y-100647314D03*
%TD*%
%TO.C,REF\u002A\u002A*%
X87782341Y-86296686D03*
%TD*%
%TO.C,REF\u002A\u002A*%
X77634914Y-76149259D03*
%TD*%
D13*
%TO.C,S3*%
G36*
X87304140Y-106440503D02*
G01*
X88454133Y-106940534D01*
X87814540Y-108411499D01*
X86664547Y-107911468D01*
X87304140Y-106440503D01*
G37*
G36*
X88739637Y-103139087D02*
G01*
X89889630Y-103639118D01*
X89250037Y-105110083D01*
X88100044Y-104610052D01*
X88739637Y-103139087D01*
G37*
G36*
X85974403Y-105862317D02*
G01*
X87124396Y-106362348D01*
X86484803Y-107833313D01*
X85334810Y-107333282D01*
X85974403Y-105862317D01*
G37*
G36*
X87409900Y-102560901D02*
G01*
X88559893Y-103060932D01*
X87920300Y-104531897D01*
X86770307Y-104031866D01*
X87409900Y-102560901D01*
G37*
%TD*%
D14*
%TO.C,S1*%
X90582580Y-95269460D03*
X90582580Y-91669460D03*
X89132580Y-95269460D03*
X89132580Y-91669460D03*
%TD*%
D13*
%TO.C,S2*%
G36*
X88100044Y-82331408D02*
G01*
X89250037Y-81831377D01*
X89889630Y-83302342D01*
X88739637Y-83802373D01*
X88100044Y-82331408D01*
G37*
G36*
X86664547Y-79029992D02*
G01*
X87814540Y-78529961D01*
X88454133Y-80000926D01*
X87304140Y-80500957D01*
X86664547Y-79029992D01*
G37*
G36*
X86770307Y-82909594D02*
G01*
X87920300Y-82409563D01*
X88559893Y-83880528D01*
X87409900Y-84380559D01*
X86770307Y-82909594D01*
G37*
G36*
X85334810Y-79608178D02*
G01*
X86484803Y-79108147D01*
X87124396Y-80579112D01*
X85974403Y-81079143D01*
X85334810Y-79608178D01*
G37*
%TD*%
%TO.C,C1*%
G36*
G01*
X87852500Y-94352000D02*
X87407500Y-94352000D01*
G75*
G02*
X87210000Y-94154500I0J197500D01*
G01*
X87210000Y-93759500D01*
G75*
G02*
X87407500Y-93562000I197500J0D01*
G01*
X87852500Y-93562000D01*
G75*
G02*
X88050000Y-93759500I0J-197500D01*
G01*
X88050000Y-94154500D01*
G75*
G02*
X87852500Y-94352000I-197500J0D01*
G01*
G37*
G36*
G01*
X87852500Y-93382000D02*
X87407500Y-93382000D01*
G75*
G02*
X87210000Y-93184500I0J197500D01*
G01*
X87210000Y-92789500D01*
G75*
G02*
X87407500Y-92592000I197500J0D01*
G01*
X87852500Y-92592000D01*
G75*
G02*
X88050000Y-92789500I0J-197500D01*
G01*
X88050000Y-93184500D01*
G75*
G02*
X87852500Y-93382000I-197500J0D01*
G01*
G37*
%TD*%
%TO.C,C2*%
G36*
G01*
X85766159Y-82251743D02*
X85358067Y-82429186D01*
G75*
G02*
X85098195Y-82326820I-78753J181119D01*
G01*
X84940689Y-81964581D01*
G75*
G02*
X85043055Y-81704709I181119J78753D01*
G01*
X85451147Y-81527266D01*
G75*
G02*
X85711019Y-81629632I78753J-181119D01*
G01*
X85868525Y-81991871D01*
G75*
G02*
X85766159Y-82251743I-181119J-78753D01*
G01*
G37*
G36*
G01*
X86152945Y-83141291D02*
X85744853Y-83318734D01*
G75*
G02*
X85484981Y-83216368I-78753J181119D01*
G01*
X85327475Y-82854129D01*
G75*
G02*
X85429841Y-82594257I181119J78753D01*
G01*
X85837933Y-82416814D01*
G75*
G02*
X86097805Y-82519180I78753J-181119D01*
G01*
X86255311Y-82881419D01*
G75*
G02*
X86152945Y-83141291I-181119J-78753D01*
G01*
G37*
%TD*%
%TO.C,C3*%
G36*
G01*
X85719453Y-103650666D02*
X86127545Y-103828109D01*
G75*
G02*
X86229911Y-104087981I-78753J-181119D01*
G01*
X86072405Y-104450220D01*
G75*
G02*
X85812533Y-104552586I-181119J78753D01*
G01*
X85404441Y-104375143D01*
G75*
G02*
X85302075Y-104115271I78753J181119D01*
G01*
X85459581Y-103753032D01*
G75*
G02*
X85719453Y-103650666I181119J-78753D01*
G01*
G37*
G36*
G01*
X85332667Y-104540214D02*
X85740759Y-104717657D01*
G75*
G02*
X85843125Y-104977529I-78753J-181119D01*
G01*
X85685619Y-105339768D01*
G75*
G02*
X85425747Y-105442134I-181119J78753D01*
G01*
X85017655Y-105264691D01*
G75*
G02*
X84915289Y-105004819I78753J181119D01*
G01*
X85072795Y-104642580D01*
G75*
G02*
X85332667Y-104540214I181119J-78753D01*
G01*
G37*
%TD*%
%TO.C,C4*%
G36*
G01*
X83607800Y-98964500D02*
X83607800Y-99409500D01*
G75*
G02*
X83410300Y-99607000I-197500J0D01*
G01*
X83015300Y-99607000D01*
G75*
G02*
X82817800Y-99409500I0J197500D01*
G01*
X82817800Y-98964500D01*
G75*
G02*
X83015300Y-98767000I197500J0D01*
G01*
X83410300Y-98767000D01*
G75*
G02*
X83607800Y-98964500I0J-197500D01*
G01*
G37*
G36*
G01*
X82637800Y-98964500D02*
X82637800Y-99409500D01*
G75*
G02*
X82440300Y-99607000I-197500J0D01*
G01*
X82045300Y-99607000D01*
G75*
G02*
X81847800Y-99409500I0J197500D01*
G01*
X81847800Y-98964500D01*
G75*
G02*
X82045300Y-98767000I197500J0D01*
G01*
X82440300Y-98767000D01*
G75*
G02*
X82637800Y-98964500I0J-197500D01*
G01*
G37*
%TD*%
D15*
%TO.C,TP1*%
X72999600Y-105968800D03*
%TD*%
%TO.C,TP3*%
X70459600Y-105968800D03*
%TD*%
%TO.C,TP4*%
X72999600Y-103428800D03*
%TD*%
%TO.C,TP5*%
X70459600Y-103428800D03*
%TD*%
%TO.C,TP12*%
X67919600Y-103428800D03*
%TD*%
%TO.C,TP13*%
X67919600Y-105968800D03*
%TD*%
D11*
%TO.C,BT1*%
X70459600Y-93472000D03*
D10*
X82364600Y-93472000D03*
X58554600Y-93472000D03*
%TD*%
D16*
%TO.C,JP1*%
X72009000Y-80357600D03*
X72009000Y-79357600D03*
%TD*%
%TO.C,JP2*%
X70459600Y-79357600D03*
X70459600Y-80357600D03*
%TD*%
%TO.C,JP9*%
X84607400Y-97036000D03*
X84607400Y-98036000D03*
%TD*%
%TO.C,JP5*%
X68910200Y-79357600D03*
X68910200Y-80357600D03*
%TD*%
M02*
