%TF.GenerationSoftware,KiCad,Pcbnew,(5.1.6)-1*%
%TF.CreationDate,2025-12-08T08:50:58+05:30*%
%TF.ProjectId,Project_OAK_MAIN_BRD_V1.0,50726f6a-6563-4745-9f4f-414b5f4d4149,A*%
%TF.SameCoordinates,Original*%
%TF.FileFunction,Copper,L3,Inr*%
%TF.FilePolarity,Positive*%
%FSLAX46Y46*%
G04 Gerber Fmt 4.6, Leading zero omitted, Abs format (unit mm)*
G04 Created by KiCad (PCBNEW (5.1.6)-1) date 2025-12-08 08:50:58*
%MOMM*%
%LPD*%
G01*
G04 APERTURE LIST*
%TA.AperFunction,ViaPad*%
%ADD10C,0.450000*%
%TD*%
%TA.AperFunction,Conductor*%
%ADD11C,0.100000*%
%TD*%
G04 APERTURE END LIST*
D10*
%TO.N,+3V0*%
X56540400Y-95935800D03*
X84455000Y-91186000D03*
X84480400Y-95275400D03*
X56540400Y-91033600D03*
X61323190Y-96469200D03*
X67640200Y-87499060D03*
X71031101Y-96827012D03*
X78765400Y-96418400D03*
X81864200Y-90093800D03*
X65130680Y-91373960D03*
X73146920Y-86791800D03*
X80655162Y-97546160D03*
X63362840Y-100650040D03*
X65156080Y-95412556D03*
X71912480Y-90116974D03*
%TO.N,GND*%
X74599800Y-78308200D03*
X69363460Y-84744612D03*
X81483200Y-82118200D03*
X85765640Y-89555320D03*
X85699600Y-98501200D03*
X81635600Y-104698800D03*
X74269600Y-108635800D03*
X66065400Y-108458000D03*
X59232800Y-104495600D03*
X55041800Y-97434400D03*
X55092600Y-89204800D03*
X59004200Y-82092800D03*
X66065400Y-78308200D03*
X77647800Y-103251000D03*
X71958200Y-84759800D03*
X66065400Y-83616800D03*
X75463400Y-83870800D03*
X77749400Y-86817200D03*
X69367400Y-82372200D03*
X72567800Y-82346800D03*
X77698600Y-82804000D03*
X72288400Y-101930200D03*
X78943200Y-93243400D03*
X57277000Y-98552000D03*
X80467200Y-85547200D03*
X69875394Y-91846400D03*
X74828400Y-92456000D03*
X76885800Y-92456000D03*
X75844400Y-92456000D03*
X74828400Y-94538800D03*
X76885800Y-94538800D03*
X75844400Y-94538800D03*
X74828400Y-93497400D03*
X76885800Y-93497400D03*
X75844400Y-93497400D03*
X66979332Y-85274276D03*
X69303900Y-101892100D03*
X62826900Y-97459800D03*
X66771520Y-96113600D03*
X66916300Y-90792300D03*
X66916300Y-93002100D03*
X67818000Y-96850200D03*
X74295000Y-103276400D03*
X63106300Y-102590600D03*
X73177400Y-100660200D03*
X73952100Y-86487000D03*
X73837800Y-84759800D03*
X65366900Y-87274400D03*
X64071500Y-88531700D03*
X60629800Y-85318600D03*
X62547500Y-83185000D03*
X80881190Y-89836200D03*
X80886300Y-88506300D03*
X60363100Y-87147400D03*
X66611500Y-88341200D03*
X76174600Y-86512400D03*
X62872131Y-91497093D03*
X87381080Y-90129360D03*
X72379840Y-86146638D03*
X67883010Y-88341200D03*
X81650840Y-96834960D03*
X75915520Y-100614480D03*
X81095811Y-96951617D03*
X81432400Y-98272600D03*
X64989043Y-104815037D03*
X63317120Y-99687350D03*
X64348360Y-85476080D03*
X67201384Y-101530818D03*
X70459600Y-94608478D03*
X73106280Y-96113600D03*
X66807080Y-94493080D03*
X65094336Y-96009389D03*
X69900800Y-96834960D03*
X71885277Y-88841269D03*
%TO.N,/LGT_ON_BTN*%
X73628423Y-90067552D03*
%TO.N,/UP_BTN*%
X73757660Y-88643528D03*
%TO.N,/MCU_RSTn*%
X75706069Y-90050605D03*
X80233520Y-89783920D03*
%TO.N,/R1*%
X69519800Y-105829579D03*
X65493902Y-84023200D03*
X67170300Y-105168700D03*
%TO.N,/R2*%
X63550800Y-103987600D03*
X67284600Y-81788000D03*
X62560200Y-87452200D03*
X74162317Y-105390283D03*
X76530200Y-83007200D03*
X76200000Y-84505800D03*
X74919840Y-88341200D03*
%TO.N,/R3*%
X61899800Y-102031800D03*
X78994000Y-84937600D03*
X64439800Y-83032600D03*
X74269600Y-88315800D03*
X76200000Y-104902000D03*
X79959200Y-88468200D03*
X60229618Y-94589600D03*
%TO.N,/R4*%
X59334400Y-99136200D03*
X80689588Y-92322569D03*
X62382400Y-84302600D03*
X81305400Y-86266545D03*
X78884750Y-103182450D03*
%TO.N,/R5*%
X58140600Y-97561400D03*
X81407000Y-100634800D03*
X64739499Y-102469879D03*
X58943240Y-88386920D03*
X82849720Y-89448640D03*
%TO.N,/R6*%
X82092800Y-87985600D03*
X72974202Y-101320600D03*
X58394600Y-89509600D03*
X64797084Y-100103419D03*
X82356960Y-97393760D03*
%TO.N,/C6*%
X78645990Y-90643050D03*
X67614800Y-100723700D03*
%TO.N,/C5*%
X78255452Y-91131356D03*
X69303900Y-101028500D03*
%TO.N,/C4*%
X78854327Y-91212761D03*
X74543920Y-99274500D03*
%TO.N,/C3*%
X76853351Y-97870246D03*
X67906900Y-85775800D03*
%TO.N,/C2*%
X62179198Y-90030300D03*
X76240729Y-97681500D03*
%TO.N,/PE1*%
X65242569Y-94271505D03*
%TO.N,/ICSP_MOSI*%
X68726369Y-101319837D03*
X77007720Y-97073720D03*
%TO.N,/ICSP_MISO*%
X68237100Y-101727000D03*
X78066900Y-96735902D03*
%TO.N,/ICSP_SCK*%
X78701900Y-95783400D03*
%TO.N,/DWN_BTN*%
X78816198Y-101701600D03*
%TO.N,/RTC_INTO*%
X62496700Y-94310200D03*
X73588880Y-89341960D03*
%TO.N,/SNS_SCL*%
X64840607Y-96734525D03*
X65784589Y-90222951D03*
%TO.N,/SNS_SDA*%
X63576200Y-90144600D03*
X65432465Y-96829719D03*
X72400160Y-88508840D03*
%TO.N,/ACC_INT1*%
X66243200Y-86614000D03*
%TO.N,/ACC_INT2*%
X65784589Y-91319008D03*
X72377300Y-96827016D03*
%TO.N,/PE2*%
X79072882Y-94247399D03*
X67894200Y-99090480D03*
X73177400Y-98836480D03*
%TO.N,/LED MATRIX/C1_T*%
X74498200Y-84302600D03*
X79121000Y-87477600D03*
X71645810Y-83540600D03*
X80060800Y-92329000D03*
X76544726Y-101689518D03*
X78656782Y-99560984D03*
%TO.N,/LED MATRIX/C2_T*%
X61323190Y-97510600D03*
X66446400Y-102590604D03*
%TO.N,/LED MATRIX/C3_T*%
X71628000Y-85928200D03*
X73329800Y-80111600D03*
%TO.N,/LED MATRIX/C4_T*%
X73981751Y-101843057D03*
X82911385Y-97650316D03*
%TO.N,/LED MATRIX/C6_T*%
X57505600Y-89255600D03*
X65570100Y-99618800D03*
%TO.N,/HAP_DRV_NEG*%
X62865000Y-96824800D03*
%TO.N,/HAP_DRV_POS*%
X62826900Y-98069400D03*
%TD*%
D11*
%TO.N,GND*%
G36*
X59696148Y-70747001D02*
G01*
X59753046Y-70752580D01*
X59794844Y-70765199D01*
X59833383Y-70785691D01*
X59867213Y-70813282D01*
X59895041Y-70846921D01*
X59915805Y-70885322D01*
X59928713Y-70927022D01*
X59934602Y-70983050D01*
X59934601Y-74085503D01*
X59935766Y-74097335D01*
X59935745Y-74100415D01*
X59936119Y-74104237D01*
X59946319Y-74201285D01*
X59951335Y-74225719D01*
X59956002Y-74250183D01*
X59957111Y-74253859D01*
X59985967Y-74347078D01*
X59995641Y-74370093D01*
X60004964Y-74393166D01*
X60006766Y-74396557D01*
X60053179Y-74482395D01*
X60067121Y-74503065D01*
X60080764Y-74523913D01*
X60083191Y-74526889D01*
X60145393Y-74602078D01*
X60163101Y-74619663D01*
X60180516Y-74637446D01*
X60183474Y-74639894D01*
X60259095Y-74701570D01*
X60279841Y-74715354D01*
X60300424Y-74729447D01*
X60303802Y-74731273D01*
X60389963Y-74777085D01*
X60412976Y-74786570D01*
X60435913Y-74796401D01*
X60439581Y-74797537D01*
X60532999Y-74825742D01*
X60557491Y-74830592D01*
X60581831Y-74835765D01*
X60585644Y-74836166D01*
X60585647Y-74836167D01*
X60585650Y-74836167D01*
X60682767Y-74845689D01*
X60682778Y-74845689D01*
X60696098Y-74847001D01*
X80223102Y-74847001D01*
X80234934Y-74845836D01*
X80238013Y-74845857D01*
X80241835Y-74845483D01*
X80338883Y-74835283D01*
X80363317Y-74830267D01*
X80387781Y-74825600D01*
X80391457Y-74824491D01*
X80484676Y-74795635D01*
X80507691Y-74785961D01*
X80530764Y-74776638D01*
X80534155Y-74774836D01*
X80619993Y-74728423D01*
X80640663Y-74714481D01*
X80661511Y-74700838D01*
X80664487Y-74698411D01*
X80739676Y-74636209D01*
X80757261Y-74618501D01*
X80775044Y-74601086D01*
X80777492Y-74598128D01*
X80839168Y-74522507D01*
X80852952Y-74501761D01*
X80867045Y-74481178D01*
X80868871Y-74477800D01*
X80914683Y-74391639D01*
X80924168Y-74368626D01*
X80933999Y-74345689D01*
X80935135Y-74342021D01*
X80963340Y-74248603D01*
X80968190Y-74224111D01*
X80973363Y-74199771D01*
X80973765Y-74195952D01*
X80983287Y-74098835D01*
X80983287Y-74098824D01*
X80984599Y-74085504D01*
X80984599Y-70985454D01*
X80990178Y-70928556D01*
X81002797Y-70886758D01*
X81023289Y-70848219D01*
X81050880Y-70814389D01*
X81084519Y-70786561D01*
X81122920Y-70765797D01*
X81164620Y-70752889D01*
X81220638Y-70747001D01*
X83789969Y-70747001D01*
X83943985Y-70762102D01*
X84079197Y-70802924D01*
X84203903Y-70869232D01*
X84313355Y-70958498D01*
X84403890Y-71067936D01*
X84473558Y-71195041D01*
X90220612Y-84440001D01*
X90490646Y-85253826D01*
X90576231Y-85722092D01*
X90892294Y-88724651D01*
X91056232Y-91742822D01*
X91067263Y-94765421D01*
X90925355Y-97784723D01*
X90630583Y-100795958D01*
X90577438Y-101213715D01*
X90391091Y-102050191D01*
X90222716Y-102499151D01*
X84473871Y-115748239D01*
X84398708Y-115883522D01*
X84307438Y-115991310D01*
X84196973Y-116079316D01*
X84071517Y-116144190D01*
X83935086Y-116183681D01*
X83790760Y-116196999D01*
X81223052Y-116196999D01*
X81166154Y-116191420D01*
X81124356Y-116178801D01*
X81085817Y-116158309D01*
X81051987Y-116130718D01*
X81024157Y-116097077D01*
X81003395Y-116058679D01*
X80990487Y-116016977D01*
X80984599Y-115960960D01*
X80984599Y-112858496D01*
X80983434Y-112846664D01*
X80983455Y-112843585D01*
X80983081Y-112839764D01*
X80972881Y-112742715D01*
X80967865Y-112718281D01*
X80963198Y-112693817D01*
X80962089Y-112690141D01*
X80933233Y-112596922D01*
X80923569Y-112573932D01*
X80914236Y-112550833D01*
X80912439Y-112547453D01*
X80912435Y-112547445D01*
X80912430Y-112547438D01*
X80866021Y-112461605D01*
X80852079Y-112440935D01*
X80838436Y-112420087D01*
X80836009Y-112417111D01*
X80773807Y-112341922D01*
X80756115Y-112324354D01*
X80738684Y-112306554D01*
X80735726Y-112304106D01*
X80660105Y-112242430D01*
X80639336Y-112228630D01*
X80618776Y-112214553D01*
X80615411Y-112212734D01*
X80615402Y-112212728D01*
X80615393Y-112212724D01*
X80529237Y-112166915D01*
X80506224Y-112157430D01*
X80483287Y-112147599D01*
X80479619Y-112146463D01*
X80386201Y-112118258D01*
X80361717Y-112113410D01*
X80337370Y-112108235D01*
X80333556Y-112107834D01*
X80333553Y-112107833D01*
X80333550Y-112107833D01*
X80236433Y-112098311D01*
X80236422Y-112098311D01*
X80223102Y-112096999D01*
X60696098Y-112096999D01*
X60684266Y-112098164D01*
X60681187Y-112098143D01*
X60677366Y-112098517D01*
X60580317Y-112108717D01*
X60555883Y-112113733D01*
X60531419Y-112118400D01*
X60527743Y-112119509D01*
X60434524Y-112148365D01*
X60411534Y-112158029D01*
X60388435Y-112167362D01*
X60385055Y-112169159D01*
X60385047Y-112169163D01*
X60385040Y-112169168D01*
X60299207Y-112215577D01*
X60278537Y-112229519D01*
X60257689Y-112243162D01*
X60254713Y-112245589D01*
X60179524Y-112307791D01*
X60161956Y-112325483D01*
X60144156Y-112342914D01*
X60141708Y-112345872D01*
X60080032Y-112421493D01*
X60066232Y-112442262D01*
X60052155Y-112462822D01*
X60050336Y-112466187D01*
X60050330Y-112466196D01*
X60050326Y-112466205D01*
X60004517Y-112552361D01*
X59995032Y-112575374D01*
X59985201Y-112598311D01*
X59984065Y-112601979D01*
X59955860Y-112695397D01*
X59951012Y-112719881D01*
X59945837Y-112744228D01*
X59945435Y-112748048D01*
X59935913Y-112845165D01*
X59935913Y-112845186D01*
X59934602Y-112858496D01*
X59934601Y-115958546D01*
X59929022Y-116015444D01*
X59916403Y-116057242D01*
X59895911Y-116095781D01*
X59868320Y-116129611D01*
X59834679Y-116157441D01*
X59796281Y-116178203D01*
X59754579Y-116191111D01*
X59698562Y-116196999D01*
X57129239Y-116196999D01*
X56975209Y-116181896D01*
X56839998Y-116141074D01*
X56715298Y-116074769D01*
X56605845Y-115985501D01*
X56515309Y-115876061D01*
X56445644Y-115748965D01*
X54247284Y-110682510D01*
X62144799Y-110682510D01*
X62144799Y-110906970D01*
X62188589Y-111127116D01*
X62274486Y-111334489D01*
X62399189Y-111521120D01*
X62557906Y-111679837D01*
X62744537Y-111804540D01*
X62951910Y-111890437D01*
X63172056Y-111934227D01*
X63396516Y-111934227D01*
X63616662Y-111890437D01*
X63824035Y-111804540D01*
X64010666Y-111679837D01*
X64169383Y-111521120D01*
X64294086Y-111334489D01*
X64379983Y-111127116D01*
X64423773Y-110906970D01*
X64423773Y-110682510D01*
X76495426Y-110682510D01*
X76495426Y-110906970D01*
X76539216Y-111127116D01*
X76625113Y-111334489D01*
X76749816Y-111521120D01*
X76908533Y-111679837D01*
X77095164Y-111804540D01*
X77302537Y-111890437D01*
X77522683Y-111934227D01*
X77747143Y-111934227D01*
X77967289Y-111890437D01*
X78174662Y-111804540D01*
X78361293Y-111679837D01*
X78520010Y-111521120D01*
X78644713Y-111334489D01*
X78730610Y-111127116D01*
X78774400Y-110906970D01*
X78774400Y-110682510D01*
X78730610Y-110462364D01*
X78644713Y-110254991D01*
X78520010Y-110068360D01*
X78361293Y-109909643D01*
X78174662Y-109784940D01*
X77967289Y-109699043D01*
X77747143Y-109655253D01*
X77522683Y-109655253D01*
X77302537Y-109699043D01*
X77095164Y-109784940D01*
X76908533Y-109909643D01*
X76749816Y-110068360D01*
X76625113Y-110254991D01*
X76539216Y-110462364D01*
X76495426Y-110682510D01*
X64423773Y-110682510D01*
X64379983Y-110462364D01*
X64294086Y-110254991D01*
X64169383Y-110068360D01*
X64010666Y-109909643D01*
X63824035Y-109784940D01*
X63616662Y-109699043D01*
X63396516Y-109655253D01*
X63172056Y-109655253D01*
X62951910Y-109699043D01*
X62744537Y-109784940D01*
X62557906Y-109909643D01*
X62399189Y-110068360D01*
X62274486Y-110254991D01*
X62188589Y-110462364D01*
X62144799Y-110682510D01*
X54247284Y-110682510D01*
X52121274Y-105782796D01*
X69044800Y-105782796D01*
X69044800Y-105876362D01*
X69063054Y-105968131D01*
X69098861Y-106054576D01*
X69150844Y-106132374D01*
X69217005Y-106198535D01*
X69294803Y-106250518D01*
X69381248Y-106286325D01*
X69473017Y-106304579D01*
X69566583Y-106304579D01*
X69658352Y-106286325D01*
X69744797Y-106250518D01*
X69822595Y-106198535D01*
X69888756Y-106132374D01*
X69940739Y-106054576D01*
X69976546Y-105968131D01*
X69994800Y-105876362D01*
X69994800Y-105782796D01*
X69976546Y-105691027D01*
X69940739Y-105604582D01*
X69888756Y-105526784D01*
X69822595Y-105460623D01*
X69744797Y-105408640D01*
X69658352Y-105372833D01*
X69566583Y-105354579D01*
X69473017Y-105354579D01*
X69381248Y-105372833D01*
X69294803Y-105408640D01*
X69217005Y-105460623D01*
X69150844Y-105526784D01*
X69098861Y-105604582D01*
X69063054Y-105691027D01*
X69044800Y-105782796D01*
X52121274Y-105782796D01*
X51834515Y-105121917D01*
X66695300Y-105121917D01*
X66695300Y-105215483D01*
X66713554Y-105307252D01*
X66749361Y-105393697D01*
X66801344Y-105471495D01*
X66867505Y-105537656D01*
X66945303Y-105589639D01*
X67031748Y-105625446D01*
X67123517Y-105643700D01*
X67217083Y-105643700D01*
X67308852Y-105625446D01*
X67395297Y-105589639D01*
X67473095Y-105537656D01*
X67539256Y-105471495D01*
X67591239Y-105393697D01*
X67612031Y-105343500D01*
X73687317Y-105343500D01*
X73687317Y-105437066D01*
X73705571Y-105528835D01*
X73741378Y-105615280D01*
X73793361Y-105693078D01*
X73859522Y-105759239D01*
X73937320Y-105811222D01*
X74023765Y-105847029D01*
X74115534Y-105865283D01*
X74209100Y-105865283D01*
X74300869Y-105847029D01*
X74387314Y-105811222D01*
X74465112Y-105759239D01*
X74531273Y-105693078D01*
X74583256Y-105615280D01*
X74619063Y-105528835D01*
X74637317Y-105437066D01*
X74637317Y-105343500D01*
X74619063Y-105251731D01*
X74583256Y-105165286D01*
X74531273Y-105087488D01*
X74465112Y-105021327D01*
X74387314Y-104969344D01*
X74300869Y-104933537D01*
X74209100Y-104915283D01*
X74115534Y-104915283D01*
X74023765Y-104933537D01*
X73937320Y-104969344D01*
X73859522Y-105021327D01*
X73793361Y-105087488D01*
X73741378Y-105165286D01*
X73705571Y-105251731D01*
X73687317Y-105343500D01*
X67612031Y-105343500D01*
X67627046Y-105307252D01*
X67645300Y-105215483D01*
X67645300Y-105121917D01*
X67627046Y-105030148D01*
X67591239Y-104943703D01*
X67539256Y-104865905D01*
X67528568Y-104855217D01*
X75725000Y-104855217D01*
X75725000Y-104948783D01*
X75743254Y-105040552D01*
X75779061Y-105126997D01*
X75831044Y-105204795D01*
X75897205Y-105270956D01*
X75975003Y-105322939D01*
X76061448Y-105358746D01*
X76153217Y-105377000D01*
X76246783Y-105377000D01*
X76338552Y-105358746D01*
X76424997Y-105322939D01*
X76502795Y-105270956D01*
X76568956Y-105204795D01*
X76620939Y-105126997D01*
X76656746Y-105040552D01*
X76675000Y-104948783D01*
X76675000Y-104855217D01*
X76656746Y-104763448D01*
X76620939Y-104677003D01*
X76568956Y-104599205D01*
X76502795Y-104533044D01*
X76424997Y-104481061D01*
X76338552Y-104445254D01*
X76246783Y-104427000D01*
X76153217Y-104427000D01*
X76061448Y-104445254D01*
X75975003Y-104481061D01*
X75897205Y-104533044D01*
X75831044Y-104599205D01*
X75779061Y-104677003D01*
X75743254Y-104763448D01*
X75725000Y-104855217D01*
X67528568Y-104855217D01*
X67473095Y-104799744D01*
X67395297Y-104747761D01*
X67308852Y-104711954D01*
X67217083Y-104693700D01*
X67123517Y-104693700D01*
X67031748Y-104711954D01*
X66945303Y-104747761D01*
X66867505Y-104799744D01*
X66801344Y-104865905D01*
X66749361Y-104943703D01*
X66713554Y-105030148D01*
X66695300Y-105121917D01*
X51834515Y-105121917D01*
X51322029Y-103940817D01*
X63075800Y-103940817D01*
X63075800Y-104034383D01*
X63094054Y-104126152D01*
X63129861Y-104212597D01*
X63181844Y-104290395D01*
X63248005Y-104356556D01*
X63325803Y-104408539D01*
X63412248Y-104444346D01*
X63504017Y-104462600D01*
X63597583Y-104462600D01*
X63689352Y-104444346D01*
X63775797Y-104408539D01*
X63853595Y-104356556D01*
X63919756Y-104290395D01*
X63971739Y-104212597D01*
X64007546Y-104126152D01*
X64025800Y-104034383D01*
X64025800Y-103940817D01*
X64007546Y-103849048D01*
X63971739Y-103762603D01*
X63919756Y-103684805D01*
X63853595Y-103618644D01*
X63775797Y-103566661D01*
X63689352Y-103530854D01*
X63597583Y-103512600D01*
X63504017Y-103512600D01*
X63412248Y-103530854D01*
X63325803Y-103566661D01*
X63248005Y-103618644D01*
X63181844Y-103684805D01*
X63129861Y-103762603D01*
X63094054Y-103849048D01*
X63075800Y-103940817D01*
X51322029Y-103940817D01*
X50972671Y-103135667D01*
X78409750Y-103135667D01*
X78409750Y-103229233D01*
X78428004Y-103321002D01*
X78463811Y-103407447D01*
X78515794Y-103485245D01*
X78581955Y-103551406D01*
X78659753Y-103603389D01*
X78746198Y-103639196D01*
X78837967Y-103657450D01*
X78931533Y-103657450D01*
X79023302Y-103639196D01*
X79109747Y-103603389D01*
X79187545Y-103551406D01*
X79253706Y-103485245D01*
X79305689Y-103407447D01*
X79341496Y-103321002D01*
X79359750Y-103229233D01*
X79359750Y-103135667D01*
X79341496Y-103043898D01*
X79305689Y-102957453D01*
X79253706Y-102879655D01*
X79187545Y-102813494D01*
X79109747Y-102761511D01*
X79023302Y-102725704D01*
X78931533Y-102707450D01*
X78837967Y-102707450D01*
X78746198Y-102725704D01*
X78659753Y-102761511D01*
X78581955Y-102813494D01*
X78515794Y-102879655D01*
X78463811Y-102957453D01*
X78428004Y-103043898D01*
X78409750Y-103135667D01*
X50972671Y-103135667D01*
X50698589Y-102504006D01*
X50526385Y-101985017D01*
X61424800Y-101985017D01*
X61424800Y-102078583D01*
X61443054Y-102170352D01*
X61478861Y-102256797D01*
X61530844Y-102334595D01*
X61597005Y-102400756D01*
X61674803Y-102452739D01*
X61761248Y-102488546D01*
X61853017Y-102506800D01*
X61946583Y-102506800D01*
X62038352Y-102488546D01*
X62124797Y-102452739D01*
X62169160Y-102423096D01*
X64264499Y-102423096D01*
X64264499Y-102516662D01*
X64282753Y-102608431D01*
X64318560Y-102694876D01*
X64370543Y-102772674D01*
X64436704Y-102838835D01*
X64514502Y-102890818D01*
X64600947Y-102926625D01*
X64692716Y-102944879D01*
X64786282Y-102944879D01*
X64878051Y-102926625D01*
X64964496Y-102890818D01*
X65042294Y-102838835D01*
X65108455Y-102772674D01*
X65160438Y-102694876D01*
X65196245Y-102608431D01*
X65209096Y-102543821D01*
X65971400Y-102543821D01*
X65971400Y-102637387D01*
X65989654Y-102729156D01*
X66025461Y-102815601D01*
X66077444Y-102893399D01*
X66143605Y-102959560D01*
X66221403Y-103011543D01*
X66307848Y-103047350D01*
X66399617Y-103065604D01*
X66493183Y-103065604D01*
X66584952Y-103047350D01*
X66671397Y-103011543D01*
X66749195Y-102959560D01*
X66815356Y-102893399D01*
X66867339Y-102815601D01*
X66903146Y-102729156D01*
X66921400Y-102637387D01*
X66921400Y-102543821D01*
X66903146Y-102452052D01*
X66867339Y-102365607D01*
X66815356Y-102287809D01*
X66749195Y-102221648D01*
X66671397Y-102169665D01*
X66584952Y-102133858D01*
X66493183Y-102115604D01*
X66399617Y-102115604D01*
X66307848Y-102133858D01*
X66221403Y-102169665D01*
X66143605Y-102221648D01*
X66077444Y-102287809D01*
X66025461Y-102365607D01*
X65989654Y-102452052D01*
X65971400Y-102543821D01*
X65209096Y-102543821D01*
X65214499Y-102516662D01*
X65214499Y-102423096D01*
X65196245Y-102331327D01*
X65160438Y-102244882D01*
X65108455Y-102167084D01*
X65042294Y-102100923D01*
X64964496Y-102048940D01*
X64878051Y-102013133D01*
X64786282Y-101994879D01*
X64692716Y-101994879D01*
X64600947Y-102013133D01*
X64514502Y-102048940D01*
X64436704Y-102100923D01*
X64370543Y-102167084D01*
X64318560Y-102244882D01*
X64282753Y-102331327D01*
X64264499Y-102423096D01*
X62169160Y-102423096D01*
X62202595Y-102400756D01*
X62268756Y-102334595D01*
X62320739Y-102256797D01*
X62356546Y-102170352D01*
X62374800Y-102078583D01*
X62374800Y-101985017D01*
X62356546Y-101893248D01*
X62320739Y-101806803D01*
X62268756Y-101729005D01*
X62219968Y-101680217D01*
X67762100Y-101680217D01*
X67762100Y-101773783D01*
X67780354Y-101865552D01*
X67816161Y-101951997D01*
X67868144Y-102029795D01*
X67934305Y-102095956D01*
X68012103Y-102147939D01*
X68098548Y-102183746D01*
X68190317Y-102202000D01*
X68283883Y-102202000D01*
X68375652Y-102183746D01*
X68462097Y-102147939D01*
X68539895Y-102095956D01*
X68606056Y-102029795D01*
X68658039Y-101951997D01*
X68693846Y-101865552D01*
X68707626Y-101796274D01*
X73506751Y-101796274D01*
X73506751Y-101889840D01*
X73525005Y-101981609D01*
X73560812Y-102068054D01*
X73612795Y-102145852D01*
X73678956Y-102212013D01*
X73756754Y-102263996D01*
X73843199Y-102299803D01*
X73934968Y-102318057D01*
X74028534Y-102318057D01*
X74120303Y-102299803D01*
X74206748Y-102263996D01*
X74284546Y-102212013D01*
X74350707Y-102145852D01*
X74402690Y-102068054D01*
X74438497Y-101981609D01*
X74456751Y-101889840D01*
X74456751Y-101796274D01*
X74438497Y-101704505D01*
X74412911Y-101642735D01*
X76069726Y-101642735D01*
X76069726Y-101736301D01*
X76087980Y-101828070D01*
X76123787Y-101914515D01*
X76175770Y-101992313D01*
X76241931Y-102058474D01*
X76319729Y-102110457D01*
X76406174Y-102146264D01*
X76497943Y-102164518D01*
X76591509Y-102164518D01*
X76683278Y-102146264D01*
X76769723Y-102110457D01*
X76847521Y-102058474D01*
X76913682Y-101992313D01*
X76965665Y-101914515D01*
X77001472Y-101828070D01*
X77019726Y-101736301D01*
X77019726Y-101654817D01*
X78341198Y-101654817D01*
X78341198Y-101748383D01*
X78359452Y-101840152D01*
X78395259Y-101926597D01*
X78447242Y-102004395D01*
X78513403Y-102070556D01*
X78591201Y-102122539D01*
X78677646Y-102158346D01*
X78769415Y-102176600D01*
X78862981Y-102176600D01*
X78954750Y-102158346D01*
X79041195Y-102122539D01*
X79118993Y-102070556D01*
X79185154Y-102004395D01*
X79237137Y-101926597D01*
X79272944Y-101840152D01*
X79291198Y-101748383D01*
X79291198Y-101654817D01*
X79272944Y-101563048D01*
X79237137Y-101476603D01*
X79185154Y-101398805D01*
X79118993Y-101332644D01*
X79041195Y-101280661D01*
X78954750Y-101244854D01*
X78862981Y-101226600D01*
X78769415Y-101226600D01*
X78677646Y-101244854D01*
X78591201Y-101280661D01*
X78513403Y-101332644D01*
X78447242Y-101398805D01*
X78395259Y-101476603D01*
X78359452Y-101563048D01*
X78341198Y-101654817D01*
X77019726Y-101654817D01*
X77019726Y-101642735D01*
X77001472Y-101550966D01*
X76965665Y-101464521D01*
X76913682Y-101386723D01*
X76847521Y-101320562D01*
X76769723Y-101268579D01*
X76683278Y-101232772D01*
X76591509Y-101214518D01*
X76497943Y-101214518D01*
X76406174Y-101232772D01*
X76319729Y-101268579D01*
X76241931Y-101320562D01*
X76175770Y-101386723D01*
X76123787Y-101464521D01*
X76087980Y-101550966D01*
X76069726Y-101642735D01*
X74412911Y-101642735D01*
X74402690Y-101618060D01*
X74350707Y-101540262D01*
X74284546Y-101474101D01*
X74206748Y-101422118D01*
X74120303Y-101386311D01*
X74028534Y-101368057D01*
X73934968Y-101368057D01*
X73843199Y-101386311D01*
X73756754Y-101422118D01*
X73678956Y-101474101D01*
X73612795Y-101540262D01*
X73560812Y-101618060D01*
X73525005Y-101704505D01*
X73506751Y-101796274D01*
X68707626Y-101796274D01*
X68707912Y-101794837D01*
X68773152Y-101794837D01*
X68864921Y-101776583D01*
X68951366Y-101740776D01*
X69029164Y-101688793D01*
X69095325Y-101622632D01*
X69147308Y-101544834D01*
X69171485Y-101486467D01*
X69257117Y-101503500D01*
X69350683Y-101503500D01*
X69442452Y-101485246D01*
X69528897Y-101449439D01*
X69606695Y-101397456D01*
X69672856Y-101331295D01*
X69711261Y-101273817D01*
X72499202Y-101273817D01*
X72499202Y-101367383D01*
X72517456Y-101459152D01*
X72553263Y-101545597D01*
X72605246Y-101623395D01*
X72671407Y-101689556D01*
X72749205Y-101741539D01*
X72835650Y-101777346D01*
X72927419Y-101795600D01*
X73020985Y-101795600D01*
X73112754Y-101777346D01*
X73199199Y-101741539D01*
X73276997Y-101689556D01*
X73343158Y-101623395D01*
X73395141Y-101545597D01*
X73430948Y-101459152D01*
X73449202Y-101367383D01*
X73449202Y-101273817D01*
X73430948Y-101182048D01*
X73395141Y-101095603D01*
X73343158Y-101017805D01*
X73276997Y-100951644D01*
X73199199Y-100899661D01*
X73112754Y-100863854D01*
X73020985Y-100845600D01*
X72927419Y-100845600D01*
X72835650Y-100863854D01*
X72749205Y-100899661D01*
X72671407Y-100951644D01*
X72605246Y-101017805D01*
X72553263Y-101095603D01*
X72517456Y-101182048D01*
X72499202Y-101273817D01*
X69711261Y-101273817D01*
X69724839Y-101253497D01*
X69760646Y-101167052D01*
X69778900Y-101075283D01*
X69778900Y-100981717D01*
X69760646Y-100889948D01*
X69724839Y-100803503D01*
X69672856Y-100725705D01*
X69606695Y-100659544D01*
X69528897Y-100607561D01*
X69481715Y-100588017D01*
X80932000Y-100588017D01*
X80932000Y-100681583D01*
X80950254Y-100773352D01*
X80986061Y-100859797D01*
X81038044Y-100937595D01*
X81104205Y-101003756D01*
X81182003Y-101055739D01*
X81268448Y-101091546D01*
X81360217Y-101109800D01*
X81453783Y-101109800D01*
X81545552Y-101091546D01*
X81631997Y-101055739D01*
X81709795Y-101003756D01*
X81775956Y-100937595D01*
X81827939Y-100859797D01*
X81863746Y-100773352D01*
X81882000Y-100681583D01*
X81882000Y-100588017D01*
X81871471Y-100535083D01*
X86642853Y-100535083D01*
X86642853Y-100759543D01*
X86686643Y-100979689D01*
X86772540Y-101187062D01*
X86897243Y-101373693D01*
X87055960Y-101532410D01*
X87242591Y-101657113D01*
X87449964Y-101743010D01*
X87670110Y-101786800D01*
X87894570Y-101786800D01*
X88114716Y-101743010D01*
X88322089Y-101657113D01*
X88508720Y-101532410D01*
X88667437Y-101373693D01*
X88792140Y-101187062D01*
X88878037Y-100979689D01*
X88921827Y-100759543D01*
X88921827Y-100535083D01*
X88878037Y-100314937D01*
X88792140Y-100107564D01*
X88667437Y-99920933D01*
X88508720Y-99762216D01*
X88322089Y-99637513D01*
X88114716Y-99551616D01*
X87894570Y-99507826D01*
X87670110Y-99507826D01*
X87449964Y-99551616D01*
X87242591Y-99637513D01*
X87055960Y-99762216D01*
X86897243Y-99920933D01*
X86772540Y-100107564D01*
X86686643Y-100314937D01*
X86642853Y-100535083D01*
X81871471Y-100535083D01*
X81863746Y-100496248D01*
X81827939Y-100409803D01*
X81775956Y-100332005D01*
X81709795Y-100265844D01*
X81631997Y-100213861D01*
X81545552Y-100178054D01*
X81453783Y-100159800D01*
X81360217Y-100159800D01*
X81268448Y-100178054D01*
X81182003Y-100213861D01*
X81104205Y-100265844D01*
X81038044Y-100332005D01*
X80986061Y-100409803D01*
X80950254Y-100496248D01*
X80932000Y-100588017D01*
X69481715Y-100588017D01*
X69442452Y-100571754D01*
X69350683Y-100553500D01*
X69257117Y-100553500D01*
X69165348Y-100571754D01*
X69078903Y-100607561D01*
X69001105Y-100659544D01*
X68934944Y-100725705D01*
X68882961Y-100803503D01*
X68858784Y-100861870D01*
X68773152Y-100844837D01*
X68679586Y-100844837D01*
X68587817Y-100863091D01*
X68501372Y-100898898D01*
X68423574Y-100950881D01*
X68357413Y-101017042D01*
X68305430Y-101094840D01*
X68269623Y-101181285D01*
X68255557Y-101252000D01*
X68190317Y-101252000D01*
X68098548Y-101270254D01*
X68012103Y-101306061D01*
X67934305Y-101358044D01*
X67868144Y-101424205D01*
X67816161Y-101502003D01*
X67780354Y-101588448D01*
X67762100Y-101680217D01*
X62219968Y-101680217D01*
X62202595Y-101662844D01*
X62124797Y-101610861D01*
X62038352Y-101575054D01*
X61946583Y-101556800D01*
X61853017Y-101556800D01*
X61761248Y-101575054D01*
X61674803Y-101610861D01*
X61597005Y-101662844D01*
X61530844Y-101729005D01*
X61478861Y-101806803D01*
X61443054Y-101893248D01*
X61424800Y-101985017D01*
X50526385Y-101985017D01*
X50428553Y-101690173D01*
X50342967Y-101221906D01*
X50270670Y-100535083D01*
X51997372Y-100535083D01*
X51997372Y-100759543D01*
X52041162Y-100979689D01*
X52127059Y-101187062D01*
X52251762Y-101373693D01*
X52410479Y-101532410D01*
X52597110Y-101657113D01*
X52804483Y-101743010D01*
X53024629Y-101786800D01*
X53249089Y-101786800D01*
X53469235Y-101743010D01*
X53676608Y-101657113D01*
X53863239Y-101532410D01*
X54021956Y-101373693D01*
X54146659Y-101187062D01*
X54232556Y-100979689D01*
X54276346Y-100759543D01*
X54276346Y-100603257D01*
X62887840Y-100603257D01*
X62887840Y-100696823D01*
X62906094Y-100788592D01*
X62941901Y-100875037D01*
X62993884Y-100952835D01*
X63060045Y-101018996D01*
X63137843Y-101070979D01*
X63224288Y-101106786D01*
X63316057Y-101125040D01*
X63409623Y-101125040D01*
X63501392Y-101106786D01*
X63587837Y-101070979D01*
X63665635Y-101018996D01*
X63731796Y-100952835D01*
X63783779Y-100875037D01*
X63819586Y-100788592D01*
X63837840Y-100696823D01*
X63837840Y-100676917D01*
X67139800Y-100676917D01*
X67139800Y-100770483D01*
X67158054Y-100862252D01*
X67193861Y-100948697D01*
X67245844Y-101026495D01*
X67312005Y-101092656D01*
X67389803Y-101144639D01*
X67476248Y-101180446D01*
X67568017Y-101198700D01*
X67661583Y-101198700D01*
X67753352Y-101180446D01*
X67839797Y-101144639D01*
X67917595Y-101092656D01*
X67983756Y-101026495D01*
X68035739Y-100948697D01*
X68071546Y-100862252D01*
X68089800Y-100770483D01*
X68089800Y-100676917D01*
X68071546Y-100585148D01*
X68035739Y-100498703D01*
X67983756Y-100420905D01*
X67917595Y-100354744D01*
X67839797Y-100302761D01*
X67753352Y-100266954D01*
X67661583Y-100248700D01*
X67568017Y-100248700D01*
X67476248Y-100266954D01*
X67389803Y-100302761D01*
X67312005Y-100354744D01*
X67245844Y-100420905D01*
X67193861Y-100498703D01*
X67158054Y-100585148D01*
X67139800Y-100676917D01*
X63837840Y-100676917D01*
X63837840Y-100603257D01*
X63819586Y-100511488D01*
X63783779Y-100425043D01*
X63731796Y-100347245D01*
X63665635Y-100281084D01*
X63587837Y-100229101D01*
X63501392Y-100193294D01*
X63409623Y-100175040D01*
X63316057Y-100175040D01*
X63224288Y-100193294D01*
X63137843Y-100229101D01*
X63060045Y-100281084D01*
X62993884Y-100347245D01*
X62941901Y-100425043D01*
X62906094Y-100511488D01*
X62887840Y-100603257D01*
X54276346Y-100603257D01*
X54276346Y-100535083D01*
X54232556Y-100314937D01*
X54146659Y-100107564D01*
X54112630Y-100056636D01*
X64322084Y-100056636D01*
X64322084Y-100150202D01*
X64340338Y-100241971D01*
X64376145Y-100328416D01*
X64428128Y-100406214D01*
X64494289Y-100472375D01*
X64572087Y-100524358D01*
X64658532Y-100560165D01*
X64750301Y-100578419D01*
X64843867Y-100578419D01*
X64935636Y-100560165D01*
X65022081Y-100524358D01*
X65099879Y-100472375D01*
X65166040Y-100406214D01*
X65218023Y-100328416D01*
X65253830Y-100241971D01*
X65272084Y-100150202D01*
X65272084Y-100056636D01*
X65256168Y-99976619D01*
X65267305Y-99987756D01*
X65345103Y-100039739D01*
X65431548Y-100075546D01*
X65523317Y-100093800D01*
X65616883Y-100093800D01*
X65708652Y-100075546D01*
X65795097Y-100039739D01*
X65872895Y-99987756D01*
X65939056Y-99921595D01*
X65991039Y-99843797D01*
X66026846Y-99757352D01*
X66045100Y-99665583D01*
X66045100Y-99572017D01*
X66026846Y-99480248D01*
X65991039Y-99393803D01*
X65939056Y-99316005D01*
X65872895Y-99249844D01*
X65795097Y-99197861D01*
X65708652Y-99162054D01*
X65616883Y-99143800D01*
X65523317Y-99143800D01*
X65431548Y-99162054D01*
X65345103Y-99197861D01*
X65267305Y-99249844D01*
X65201144Y-99316005D01*
X65149161Y-99393803D01*
X65113354Y-99480248D01*
X65095100Y-99572017D01*
X65095100Y-99665583D01*
X65111016Y-99745600D01*
X65099879Y-99734463D01*
X65022081Y-99682480D01*
X64935636Y-99646673D01*
X64843867Y-99628419D01*
X64750301Y-99628419D01*
X64658532Y-99646673D01*
X64572087Y-99682480D01*
X64494289Y-99734463D01*
X64428128Y-99800624D01*
X64376145Y-99878422D01*
X64340338Y-99964867D01*
X64322084Y-100056636D01*
X54112630Y-100056636D01*
X54021956Y-99920933D01*
X53863239Y-99762216D01*
X53676608Y-99637513D01*
X53469235Y-99551616D01*
X53249089Y-99507826D01*
X53024629Y-99507826D01*
X52804483Y-99551616D01*
X52597110Y-99637513D01*
X52410479Y-99762216D01*
X52251762Y-99920933D01*
X52127059Y-100107564D01*
X52041162Y-100314937D01*
X51997372Y-100535083D01*
X50270670Y-100535083D01*
X50118493Y-99089417D01*
X58859400Y-99089417D01*
X58859400Y-99182983D01*
X58877654Y-99274752D01*
X58913461Y-99361197D01*
X58965444Y-99438995D01*
X59031605Y-99505156D01*
X59109403Y-99557139D01*
X59195848Y-99592946D01*
X59287617Y-99611200D01*
X59381183Y-99611200D01*
X59472952Y-99592946D01*
X59559397Y-99557139D01*
X59637195Y-99505156D01*
X59703356Y-99438995D01*
X59755339Y-99361197D01*
X59791146Y-99274752D01*
X59809400Y-99182983D01*
X59809400Y-99089417D01*
X59800306Y-99043697D01*
X67419200Y-99043697D01*
X67419200Y-99137263D01*
X67437454Y-99229032D01*
X67473261Y-99315477D01*
X67525244Y-99393275D01*
X67591405Y-99459436D01*
X67669203Y-99511419D01*
X67755648Y-99547226D01*
X67847417Y-99565480D01*
X67940983Y-99565480D01*
X68032752Y-99547226D01*
X68119197Y-99511419D01*
X68196995Y-99459436D01*
X68263156Y-99393275D01*
X68315139Y-99315477D01*
X68350946Y-99229032D01*
X68369200Y-99137263D01*
X68369200Y-99043697D01*
X68350946Y-98951928D01*
X68315139Y-98865483D01*
X68264501Y-98789697D01*
X72702400Y-98789697D01*
X72702400Y-98883263D01*
X72720654Y-98975032D01*
X72756461Y-99061477D01*
X72808444Y-99139275D01*
X72874605Y-99205436D01*
X72952403Y-99257419D01*
X73038848Y-99293226D01*
X73130617Y-99311480D01*
X73224183Y-99311480D01*
X73315952Y-99293226D01*
X73402397Y-99257419D01*
X73446849Y-99227717D01*
X74068920Y-99227717D01*
X74068920Y-99321283D01*
X74087174Y-99413052D01*
X74122981Y-99499497D01*
X74174964Y-99577295D01*
X74241125Y-99643456D01*
X74318923Y-99695439D01*
X74405368Y-99731246D01*
X74497137Y-99749500D01*
X74590703Y-99749500D01*
X74682472Y-99731246D01*
X74768917Y-99695439D01*
X74846715Y-99643456D01*
X74912876Y-99577295D01*
X74955034Y-99514201D01*
X78181782Y-99514201D01*
X78181782Y-99607767D01*
X78200036Y-99699536D01*
X78235843Y-99785981D01*
X78287826Y-99863779D01*
X78353987Y-99929940D01*
X78431785Y-99981923D01*
X78518230Y-100017730D01*
X78609999Y-100035984D01*
X78703565Y-100035984D01*
X78795334Y-100017730D01*
X78881779Y-99981923D01*
X78959577Y-99929940D01*
X79025738Y-99863779D01*
X79077721Y-99785981D01*
X79113528Y-99699536D01*
X79131782Y-99607767D01*
X79131782Y-99514201D01*
X79113528Y-99422432D01*
X79077721Y-99335987D01*
X79025738Y-99258189D01*
X78959577Y-99192028D01*
X78881779Y-99140045D01*
X78795334Y-99104238D01*
X78703565Y-99085984D01*
X78609999Y-99085984D01*
X78518230Y-99104238D01*
X78431785Y-99140045D01*
X78353987Y-99192028D01*
X78287826Y-99258189D01*
X78235843Y-99335987D01*
X78200036Y-99422432D01*
X78181782Y-99514201D01*
X74955034Y-99514201D01*
X74964859Y-99499497D01*
X75000666Y-99413052D01*
X75018920Y-99321283D01*
X75018920Y-99227717D01*
X75000666Y-99135948D01*
X74964859Y-99049503D01*
X74912876Y-98971705D01*
X74846715Y-98905544D01*
X74768917Y-98853561D01*
X74682472Y-98817754D01*
X74590703Y-98799500D01*
X74497137Y-98799500D01*
X74405368Y-98817754D01*
X74318923Y-98853561D01*
X74241125Y-98905544D01*
X74174964Y-98971705D01*
X74122981Y-99049503D01*
X74087174Y-99135948D01*
X74068920Y-99227717D01*
X73446849Y-99227717D01*
X73480195Y-99205436D01*
X73546356Y-99139275D01*
X73598339Y-99061477D01*
X73634146Y-98975032D01*
X73652400Y-98883263D01*
X73652400Y-98789697D01*
X73634146Y-98697928D01*
X73598339Y-98611483D01*
X73546356Y-98533685D01*
X73480195Y-98467524D01*
X73402397Y-98415541D01*
X73315952Y-98379734D01*
X73224183Y-98361480D01*
X73130617Y-98361480D01*
X73038848Y-98379734D01*
X72952403Y-98415541D01*
X72874605Y-98467524D01*
X72808444Y-98533685D01*
X72756461Y-98611483D01*
X72720654Y-98697928D01*
X72702400Y-98789697D01*
X68264501Y-98789697D01*
X68263156Y-98787685D01*
X68196995Y-98721524D01*
X68119197Y-98669541D01*
X68032752Y-98633734D01*
X67940983Y-98615480D01*
X67847417Y-98615480D01*
X67755648Y-98633734D01*
X67669203Y-98669541D01*
X67591405Y-98721524D01*
X67525244Y-98787685D01*
X67473261Y-98865483D01*
X67437454Y-98951928D01*
X67419200Y-99043697D01*
X59800306Y-99043697D01*
X59791146Y-98997648D01*
X59755339Y-98911203D01*
X59703356Y-98833405D01*
X59637195Y-98767244D01*
X59559397Y-98715261D01*
X59472952Y-98679454D01*
X59381183Y-98661200D01*
X59287617Y-98661200D01*
X59195848Y-98679454D01*
X59109403Y-98715261D01*
X59031605Y-98767244D01*
X58965444Y-98833405D01*
X58913461Y-98911203D01*
X58877654Y-98997648D01*
X58859400Y-99089417D01*
X50118493Y-99089417D01*
X50026905Y-98219348D01*
X49988627Y-97514617D01*
X57665600Y-97514617D01*
X57665600Y-97608183D01*
X57683854Y-97699952D01*
X57719661Y-97786397D01*
X57771644Y-97864195D01*
X57837805Y-97930356D01*
X57915603Y-97982339D01*
X58002048Y-98018146D01*
X58093817Y-98036400D01*
X58187383Y-98036400D01*
X58256674Y-98022617D01*
X62351900Y-98022617D01*
X62351900Y-98116183D01*
X62370154Y-98207952D01*
X62405961Y-98294397D01*
X62457944Y-98372195D01*
X62524105Y-98438356D01*
X62601903Y-98490339D01*
X62688348Y-98526146D01*
X62780117Y-98544400D01*
X62873683Y-98544400D01*
X62965452Y-98526146D01*
X63051897Y-98490339D01*
X63129695Y-98438356D01*
X63195856Y-98372195D01*
X63247839Y-98294397D01*
X63283646Y-98207952D01*
X63301900Y-98116183D01*
X63301900Y-98022617D01*
X63283646Y-97930848D01*
X63247839Y-97844403D01*
X63195856Y-97766605D01*
X63129695Y-97700444D01*
X63051897Y-97648461D01*
X63018717Y-97634717D01*
X75765729Y-97634717D01*
X75765729Y-97728283D01*
X75783983Y-97820052D01*
X75819790Y-97906497D01*
X75871773Y-97984295D01*
X75937934Y-98050456D01*
X76015732Y-98102439D01*
X76102177Y-98138246D01*
X76193946Y-98156500D01*
X76287512Y-98156500D01*
X76379281Y-98138246D01*
X76443400Y-98111687D01*
X76484395Y-98173041D01*
X76550556Y-98239202D01*
X76628354Y-98291185D01*
X76714799Y-98326992D01*
X76806568Y-98345246D01*
X76900134Y-98345246D01*
X76991903Y-98326992D01*
X77078348Y-98291185D01*
X77156146Y-98239202D01*
X77222307Y-98173041D01*
X77274290Y-98095243D01*
X77310097Y-98008798D01*
X77328351Y-97917029D01*
X77328351Y-97823463D01*
X77310097Y-97731694D01*
X77274290Y-97645249D01*
X77222307Y-97567451D01*
X77173884Y-97519028D01*
X77221326Y-97499377D01*
X80180162Y-97499377D01*
X80180162Y-97592943D01*
X80198416Y-97684712D01*
X80234223Y-97771157D01*
X80286206Y-97848955D01*
X80352367Y-97915116D01*
X80430165Y-97967099D01*
X80516610Y-98002906D01*
X80608379Y-98021160D01*
X80701945Y-98021160D01*
X80793714Y-98002906D01*
X80880159Y-97967099D01*
X80957957Y-97915116D01*
X81024118Y-97848955D01*
X81076101Y-97771157D01*
X81111908Y-97684712D01*
X81130162Y-97592943D01*
X81130162Y-97499377D01*
X81111908Y-97407608D01*
X81086794Y-97346977D01*
X81881960Y-97346977D01*
X81881960Y-97440543D01*
X81900214Y-97532312D01*
X81936021Y-97618757D01*
X81988004Y-97696555D01*
X82054165Y-97762716D01*
X82131963Y-97814699D01*
X82218408Y-97850506D01*
X82310177Y-97868760D01*
X82403743Y-97868760D01*
X82481338Y-97853325D01*
X82490446Y-97875313D01*
X82542429Y-97953111D01*
X82608590Y-98019272D01*
X82686388Y-98071255D01*
X82772833Y-98107062D01*
X82864602Y-98125316D01*
X82958168Y-98125316D01*
X83049937Y-98107062D01*
X83136382Y-98071255D01*
X83214180Y-98019272D01*
X83280341Y-97953111D01*
X83332324Y-97875313D01*
X83368131Y-97788868D01*
X83386385Y-97697099D01*
X83386385Y-97603533D01*
X83368131Y-97511764D01*
X83332324Y-97425319D01*
X83280341Y-97347521D01*
X83214180Y-97281360D01*
X83136382Y-97229377D01*
X83049937Y-97193570D01*
X82958168Y-97175316D01*
X82864602Y-97175316D01*
X82787007Y-97190751D01*
X82777899Y-97168763D01*
X82725916Y-97090965D01*
X82659755Y-97024804D01*
X82581957Y-96972821D01*
X82495512Y-96937014D01*
X82403743Y-96918760D01*
X82310177Y-96918760D01*
X82218408Y-96937014D01*
X82131963Y-96972821D01*
X82054165Y-97024804D01*
X81988004Y-97090965D01*
X81936021Y-97168763D01*
X81900214Y-97255208D01*
X81881960Y-97346977D01*
X81086794Y-97346977D01*
X81076101Y-97321163D01*
X81024118Y-97243365D01*
X80957957Y-97177204D01*
X80880159Y-97125221D01*
X80793714Y-97089414D01*
X80701945Y-97071160D01*
X80608379Y-97071160D01*
X80516610Y-97089414D01*
X80430165Y-97125221D01*
X80352367Y-97177204D01*
X80286206Y-97243365D01*
X80234223Y-97321163D01*
X80198416Y-97407608D01*
X80180162Y-97499377D01*
X77221326Y-97499377D01*
X77232717Y-97494659D01*
X77310515Y-97442676D01*
X77376676Y-97376515D01*
X77428659Y-97298717D01*
X77464466Y-97212272D01*
X77482720Y-97120503D01*
X77482720Y-97026937D01*
X77464466Y-96935168D01*
X77428659Y-96848723D01*
X77376676Y-96770925D01*
X77310515Y-96704764D01*
X77287101Y-96689119D01*
X77591900Y-96689119D01*
X77591900Y-96782685D01*
X77610154Y-96874454D01*
X77645961Y-96960899D01*
X77697944Y-97038697D01*
X77764105Y-97104858D01*
X77841903Y-97156841D01*
X77928348Y-97192648D01*
X78020117Y-97210902D01*
X78113683Y-97210902D01*
X78205452Y-97192648D01*
X78291897Y-97156841D01*
X78369695Y-97104858D01*
X78435856Y-97038697D01*
X78487839Y-96960899D01*
X78523646Y-96874454D01*
X78531777Y-96833575D01*
X78540403Y-96839339D01*
X78626848Y-96875146D01*
X78718617Y-96893400D01*
X78812183Y-96893400D01*
X78903952Y-96875146D01*
X78990397Y-96839339D01*
X79068195Y-96787356D01*
X79134356Y-96721195D01*
X79186339Y-96643397D01*
X79222146Y-96556952D01*
X79240400Y-96465183D01*
X79240400Y-96371617D01*
X79222146Y-96279848D01*
X79186339Y-96193403D01*
X79134356Y-96115605D01*
X79084511Y-96065760D01*
X79122839Y-96008397D01*
X79158646Y-95921952D01*
X79176900Y-95830183D01*
X79176900Y-95736617D01*
X79158646Y-95644848D01*
X79122839Y-95558403D01*
X79070856Y-95480605D01*
X79004695Y-95414444D01*
X78926897Y-95362461D01*
X78840452Y-95326654D01*
X78748683Y-95308400D01*
X78655117Y-95308400D01*
X78563348Y-95326654D01*
X78476903Y-95362461D01*
X78399105Y-95414444D01*
X78332944Y-95480605D01*
X78280961Y-95558403D01*
X78245154Y-95644848D01*
X78226900Y-95736617D01*
X78226900Y-95830183D01*
X78245154Y-95921952D01*
X78280961Y-96008397D01*
X78332944Y-96086195D01*
X78382789Y-96136040D01*
X78344461Y-96193403D01*
X78308654Y-96279848D01*
X78300523Y-96320727D01*
X78291897Y-96314963D01*
X78205452Y-96279156D01*
X78113683Y-96260902D01*
X78020117Y-96260902D01*
X77928348Y-96279156D01*
X77841903Y-96314963D01*
X77764105Y-96366946D01*
X77697944Y-96433107D01*
X77645961Y-96510905D01*
X77610154Y-96597350D01*
X77591900Y-96689119D01*
X77287101Y-96689119D01*
X77232717Y-96652781D01*
X77146272Y-96616974D01*
X77054503Y-96598720D01*
X76960937Y-96598720D01*
X76869168Y-96616974D01*
X76782723Y-96652781D01*
X76704925Y-96704764D01*
X76638764Y-96770925D01*
X76586781Y-96848723D01*
X76550974Y-96935168D01*
X76532720Y-97026937D01*
X76532720Y-97120503D01*
X76550974Y-97212272D01*
X76586781Y-97298717D01*
X76638764Y-97376515D01*
X76687187Y-97424938D01*
X76650680Y-97440059D01*
X76609685Y-97378705D01*
X76543524Y-97312544D01*
X76465726Y-97260561D01*
X76379281Y-97224754D01*
X76287512Y-97206500D01*
X76193946Y-97206500D01*
X76102177Y-97224754D01*
X76015732Y-97260561D01*
X75937934Y-97312544D01*
X75871773Y-97378705D01*
X75819790Y-97456503D01*
X75783983Y-97542948D01*
X75765729Y-97634717D01*
X63018717Y-97634717D01*
X62965452Y-97612654D01*
X62873683Y-97594400D01*
X62780117Y-97594400D01*
X62688348Y-97612654D01*
X62601903Y-97648461D01*
X62524105Y-97700444D01*
X62457944Y-97766605D01*
X62405961Y-97844403D01*
X62370154Y-97930848D01*
X62351900Y-98022617D01*
X58256674Y-98022617D01*
X58279152Y-98018146D01*
X58365597Y-97982339D01*
X58443395Y-97930356D01*
X58509556Y-97864195D01*
X58561539Y-97786397D01*
X58597346Y-97699952D01*
X58615600Y-97608183D01*
X58615600Y-97514617D01*
X58605496Y-97463817D01*
X60848190Y-97463817D01*
X60848190Y-97557383D01*
X60866444Y-97649152D01*
X60902251Y-97735597D01*
X60954234Y-97813395D01*
X61020395Y-97879556D01*
X61098193Y-97931539D01*
X61184638Y-97967346D01*
X61276407Y-97985600D01*
X61369973Y-97985600D01*
X61461742Y-97967346D01*
X61548187Y-97931539D01*
X61625985Y-97879556D01*
X61692146Y-97813395D01*
X61744129Y-97735597D01*
X61779936Y-97649152D01*
X61798190Y-97557383D01*
X61798190Y-97463817D01*
X61779936Y-97372048D01*
X61744129Y-97285603D01*
X61692146Y-97207805D01*
X61625985Y-97141644D01*
X61548187Y-97089661D01*
X61461742Y-97053854D01*
X61369973Y-97035600D01*
X61276407Y-97035600D01*
X61184638Y-97053854D01*
X61098193Y-97089661D01*
X61020395Y-97141644D01*
X60954234Y-97207805D01*
X60902251Y-97285603D01*
X60866444Y-97372048D01*
X60848190Y-97463817D01*
X58605496Y-97463817D01*
X58597346Y-97422848D01*
X58561539Y-97336403D01*
X58509556Y-97258605D01*
X58443395Y-97192444D01*
X58365597Y-97140461D01*
X58279152Y-97104654D01*
X58187383Y-97086400D01*
X58093817Y-97086400D01*
X58002048Y-97104654D01*
X57915603Y-97140461D01*
X57837805Y-97192444D01*
X57771644Y-97258605D01*
X57719661Y-97336403D01*
X57683854Y-97422848D01*
X57665600Y-97514617D01*
X49988627Y-97514617D01*
X49929302Y-96422417D01*
X60848190Y-96422417D01*
X60848190Y-96515983D01*
X60866444Y-96607752D01*
X60902251Y-96694197D01*
X60954234Y-96771995D01*
X61020395Y-96838156D01*
X61098193Y-96890139D01*
X61184638Y-96925946D01*
X61276407Y-96944200D01*
X61369973Y-96944200D01*
X61461742Y-96925946D01*
X61548187Y-96890139D01*
X61625985Y-96838156D01*
X61686124Y-96778017D01*
X62390000Y-96778017D01*
X62390000Y-96871583D01*
X62408254Y-96963352D01*
X62444061Y-97049797D01*
X62496044Y-97127595D01*
X62562205Y-97193756D01*
X62640003Y-97245739D01*
X62726448Y-97281546D01*
X62818217Y-97299800D01*
X62911783Y-97299800D01*
X63003552Y-97281546D01*
X63089997Y-97245739D01*
X63167795Y-97193756D01*
X63233956Y-97127595D01*
X63285939Y-97049797D01*
X63321746Y-96963352D01*
X63340000Y-96871583D01*
X63340000Y-96778017D01*
X63322044Y-96687742D01*
X64365607Y-96687742D01*
X64365607Y-96781308D01*
X64383861Y-96873077D01*
X64419668Y-96959522D01*
X64471651Y-97037320D01*
X64537812Y-97103481D01*
X64615610Y-97155464D01*
X64702055Y-97191271D01*
X64793824Y-97209525D01*
X64887390Y-97209525D01*
X64979159Y-97191271D01*
X65065604Y-97155464D01*
X65078106Y-97147111D01*
X65129670Y-97198675D01*
X65207468Y-97250658D01*
X65293913Y-97286465D01*
X65385682Y-97304719D01*
X65479248Y-97304719D01*
X65571017Y-97286465D01*
X65657462Y-97250658D01*
X65735260Y-97198675D01*
X65801421Y-97132514D01*
X65853404Y-97054716D01*
X65889211Y-96968271D01*
X65907465Y-96876502D01*
X65907465Y-96782936D01*
X65906927Y-96780229D01*
X70556101Y-96780229D01*
X70556101Y-96873795D01*
X70574355Y-96965564D01*
X70610162Y-97052009D01*
X70662145Y-97129807D01*
X70728306Y-97195968D01*
X70806104Y-97247951D01*
X70892549Y-97283758D01*
X70984318Y-97302012D01*
X71077884Y-97302012D01*
X71169653Y-97283758D01*
X71256098Y-97247951D01*
X71333896Y-97195968D01*
X71400057Y-97129807D01*
X71452040Y-97052009D01*
X71487847Y-96965564D01*
X71506101Y-96873795D01*
X71506101Y-96780233D01*
X71902300Y-96780233D01*
X71902300Y-96873799D01*
X71920554Y-96965568D01*
X71956361Y-97052013D01*
X72008344Y-97129811D01*
X72074505Y-97195972D01*
X72152303Y-97247955D01*
X72238748Y-97283762D01*
X72330517Y-97302016D01*
X72424083Y-97302016D01*
X72515852Y-97283762D01*
X72602297Y-97247955D01*
X72680095Y-97195972D01*
X72746256Y-97129811D01*
X72798239Y-97052013D01*
X72834046Y-96965568D01*
X72852300Y-96873799D01*
X72852300Y-96780233D01*
X72834046Y-96688464D01*
X72798239Y-96602019D01*
X72746256Y-96524221D01*
X72680095Y-96458060D01*
X72602297Y-96406077D01*
X72515852Y-96370270D01*
X72424083Y-96352016D01*
X72330517Y-96352016D01*
X72238748Y-96370270D01*
X72152303Y-96406077D01*
X72074505Y-96458060D01*
X72008344Y-96524221D01*
X71956361Y-96602019D01*
X71920554Y-96688464D01*
X71902300Y-96780233D01*
X71506101Y-96780233D01*
X71506101Y-96780229D01*
X71487847Y-96688460D01*
X71452040Y-96602015D01*
X71400057Y-96524217D01*
X71333896Y-96458056D01*
X71256098Y-96406073D01*
X71169653Y-96370266D01*
X71077884Y-96352012D01*
X70984318Y-96352012D01*
X70892549Y-96370266D01*
X70806104Y-96406073D01*
X70728306Y-96458056D01*
X70662145Y-96524217D01*
X70610162Y-96602015D01*
X70574355Y-96688460D01*
X70556101Y-96780229D01*
X65906927Y-96780229D01*
X65889211Y-96691167D01*
X65853404Y-96604722D01*
X65801421Y-96526924D01*
X65735260Y-96460763D01*
X65657462Y-96408780D01*
X65571017Y-96372973D01*
X65479248Y-96354719D01*
X65385682Y-96354719D01*
X65293913Y-96372973D01*
X65207468Y-96408780D01*
X65194966Y-96417133D01*
X65143402Y-96365569D01*
X65065604Y-96313586D01*
X64979159Y-96277779D01*
X64887390Y-96259525D01*
X64793824Y-96259525D01*
X64702055Y-96277779D01*
X64615610Y-96313586D01*
X64537812Y-96365569D01*
X64471651Y-96431730D01*
X64419668Y-96509528D01*
X64383861Y-96595973D01*
X64365607Y-96687742D01*
X63322044Y-96687742D01*
X63321746Y-96686248D01*
X63285939Y-96599803D01*
X63233956Y-96522005D01*
X63167795Y-96455844D01*
X63089997Y-96403861D01*
X63003552Y-96368054D01*
X62911783Y-96349800D01*
X62818217Y-96349800D01*
X62726448Y-96368054D01*
X62640003Y-96403861D01*
X62562205Y-96455844D01*
X62496044Y-96522005D01*
X62444061Y-96599803D01*
X62408254Y-96686248D01*
X62390000Y-96778017D01*
X61686124Y-96778017D01*
X61692146Y-96771995D01*
X61744129Y-96694197D01*
X61779936Y-96607752D01*
X61798190Y-96515983D01*
X61798190Y-96422417D01*
X61779936Y-96330648D01*
X61744129Y-96244203D01*
X61692146Y-96166405D01*
X61625985Y-96100244D01*
X61548187Y-96048261D01*
X61461742Y-96012454D01*
X61369973Y-95994200D01*
X61276407Y-95994200D01*
X61184638Y-96012454D01*
X61098193Y-96048261D01*
X61020395Y-96100244D01*
X60954234Y-96166405D01*
X60902251Y-96244203D01*
X60866444Y-96330648D01*
X60848190Y-96422417D01*
X49929302Y-96422417D01*
X49900329Y-95889017D01*
X56065400Y-95889017D01*
X56065400Y-95982583D01*
X56083654Y-96074352D01*
X56119461Y-96160797D01*
X56171444Y-96238595D01*
X56237605Y-96304756D01*
X56315403Y-96356739D01*
X56401848Y-96392546D01*
X56493617Y-96410800D01*
X56587183Y-96410800D01*
X56678952Y-96392546D01*
X56765397Y-96356739D01*
X56843195Y-96304756D01*
X56909356Y-96238595D01*
X56961339Y-96160797D01*
X56997146Y-96074352D01*
X57015400Y-95982583D01*
X57015400Y-95889017D01*
X56997146Y-95797248D01*
X56961339Y-95710803D01*
X56909356Y-95633005D01*
X56843195Y-95566844D01*
X56765397Y-95514861D01*
X56678952Y-95479054D01*
X56587183Y-95460800D01*
X56493617Y-95460800D01*
X56401848Y-95479054D01*
X56315403Y-95514861D01*
X56237605Y-95566844D01*
X56171444Y-95633005D01*
X56119461Y-95710803D01*
X56083654Y-95797248D01*
X56065400Y-95889017D01*
X49900329Y-95889017D01*
X49871908Y-95365773D01*
X64681080Y-95365773D01*
X64681080Y-95459339D01*
X64699334Y-95551108D01*
X64735141Y-95637553D01*
X64787124Y-95715351D01*
X64853285Y-95781512D01*
X64931083Y-95833495D01*
X65017528Y-95869302D01*
X65109297Y-95887556D01*
X65202863Y-95887556D01*
X65294632Y-95869302D01*
X65381077Y-95833495D01*
X65458875Y-95781512D01*
X65525036Y-95715351D01*
X65577019Y-95637553D01*
X65612826Y-95551108D01*
X65631080Y-95459339D01*
X65631080Y-95365773D01*
X65612826Y-95274004D01*
X65594026Y-95228617D01*
X84005400Y-95228617D01*
X84005400Y-95322183D01*
X84023654Y-95413952D01*
X84059461Y-95500397D01*
X84111444Y-95578195D01*
X84177605Y-95644356D01*
X84255403Y-95696339D01*
X84341848Y-95732146D01*
X84433617Y-95750400D01*
X84527183Y-95750400D01*
X84618952Y-95732146D01*
X84705397Y-95696339D01*
X84783195Y-95644356D01*
X84849356Y-95578195D01*
X84901339Y-95500397D01*
X84937146Y-95413952D01*
X84955400Y-95322183D01*
X84955400Y-95228617D01*
X84937146Y-95136848D01*
X84901339Y-95050403D01*
X84849356Y-94972605D01*
X84783195Y-94906444D01*
X84705397Y-94854461D01*
X84618952Y-94818654D01*
X84527183Y-94800400D01*
X84433617Y-94800400D01*
X84341848Y-94818654D01*
X84255403Y-94854461D01*
X84177605Y-94906444D01*
X84111444Y-94972605D01*
X84059461Y-95050403D01*
X84023654Y-95136848D01*
X84005400Y-95228617D01*
X65594026Y-95228617D01*
X65577019Y-95187559D01*
X65525036Y-95109761D01*
X65458875Y-95043600D01*
X65381077Y-94991617D01*
X65294632Y-94955810D01*
X65202863Y-94937556D01*
X65109297Y-94937556D01*
X65017528Y-94955810D01*
X64931083Y-94991617D01*
X64853285Y-95043600D01*
X64787124Y-95109761D01*
X64735141Y-95187559D01*
X64699334Y-95274004D01*
X64681080Y-95365773D01*
X49871908Y-95365773D01*
X49862967Y-95201178D01*
X49860565Y-94542817D01*
X59754618Y-94542817D01*
X59754618Y-94636383D01*
X59772872Y-94728152D01*
X59808679Y-94814597D01*
X59860662Y-94892395D01*
X59926823Y-94958556D01*
X60004621Y-95010539D01*
X60091066Y-95046346D01*
X60182835Y-95064600D01*
X60276401Y-95064600D01*
X60368170Y-95046346D01*
X60454615Y-95010539D01*
X60532413Y-94958556D01*
X60598574Y-94892395D01*
X60650557Y-94814597D01*
X60686364Y-94728152D01*
X60704618Y-94636383D01*
X60704618Y-94542817D01*
X60686364Y-94451048D01*
X60650557Y-94364603D01*
X60598574Y-94286805D01*
X60575186Y-94263417D01*
X62021700Y-94263417D01*
X62021700Y-94356983D01*
X62039954Y-94448752D01*
X62075761Y-94535197D01*
X62127744Y-94612995D01*
X62193905Y-94679156D01*
X62271703Y-94731139D01*
X62358148Y-94766946D01*
X62449917Y-94785200D01*
X62543483Y-94785200D01*
X62635252Y-94766946D01*
X62721697Y-94731139D01*
X62799495Y-94679156D01*
X62865656Y-94612995D01*
X62917639Y-94535197D01*
X62953446Y-94448752D01*
X62971700Y-94356983D01*
X62971700Y-94263417D01*
X62964004Y-94224722D01*
X64767569Y-94224722D01*
X64767569Y-94318288D01*
X64785823Y-94410057D01*
X64821630Y-94496502D01*
X64873613Y-94574300D01*
X64939774Y-94640461D01*
X65017572Y-94692444D01*
X65104017Y-94728251D01*
X65195786Y-94746505D01*
X65289352Y-94746505D01*
X65381121Y-94728251D01*
X65467566Y-94692444D01*
X65545364Y-94640461D01*
X65611525Y-94574300D01*
X65663508Y-94496502D01*
X65699315Y-94410057D01*
X65717569Y-94318288D01*
X65717569Y-94224722D01*
X65712775Y-94200616D01*
X78597882Y-94200616D01*
X78597882Y-94294182D01*
X78616136Y-94385951D01*
X78651943Y-94472396D01*
X78703926Y-94550194D01*
X78770087Y-94616355D01*
X78847885Y-94668338D01*
X78934330Y-94704145D01*
X79026099Y-94722399D01*
X79119665Y-94722399D01*
X79211434Y-94704145D01*
X79297879Y-94668338D01*
X79375677Y-94616355D01*
X79441838Y-94550194D01*
X79493821Y-94472396D01*
X79529628Y-94385951D01*
X79547882Y-94294182D01*
X79547882Y-94200616D01*
X79529628Y-94108847D01*
X79493821Y-94022402D01*
X79441838Y-93944604D01*
X79375677Y-93878443D01*
X79297879Y-93826460D01*
X79211434Y-93790653D01*
X79119665Y-93772399D01*
X79026099Y-93772399D01*
X78934330Y-93790653D01*
X78847885Y-93826460D01*
X78770087Y-93878443D01*
X78703926Y-93944604D01*
X78651943Y-94022402D01*
X78616136Y-94108847D01*
X78597882Y-94200616D01*
X65712775Y-94200616D01*
X65699315Y-94132953D01*
X65663508Y-94046508D01*
X65611525Y-93968710D01*
X65545364Y-93902549D01*
X65467566Y-93850566D01*
X65381121Y-93814759D01*
X65289352Y-93796505D01*
X65195786Y-93796505D01*
X65104017Y-93814759D01*
X65017572Y-93850566D01*
X64939774Y-93902549D01*
X64873613Y-93968710D01*
X64821630Y-94046508D01*
X64785823Y-94132953D01*
X64767569Y-94224722D01*
X62964004Y-94224722D01*
X62953446Y-94171648D01*
X62917639Y-94085203D01*
X62865656Y-94007405D01*
X62799495Y-93941244D01*
X62721697Y-93889261D01*
X62635252Y-93853454D01*
X62543483Y-93835200D01*
X62449917Y-93835200D01*
X62358148Y-93853454D01*
X62271703Y-93889261D01*
X62193905Y-93941244D01*
X62127744Y-94007405D01*
X62075761Y-94085203D01*
X62039954Y-94171648D01*
X62021700Y-94263417D01*
X60575186Y-94263417D01*
X60532413Y-94220644D01*
X60454615Y-94168661D01*
X60368170Y-94132854D01*
X60276401Y-94114600D01*
X60182835Y-94114600D01*
X60091066Y-94132854D01*
X60004621Y-94168661D01*
X59926823Y-94220644D01*
X59860662Y-94286805D01*
X59808679Y-94364603D01*
X59772872Y-94451048D01*
X59754618Y-94542817D01*
X49860565Y-94542817D01*
X49852315Y-92282217D01*
X79585800Y-92282217D01*
X79585800Y-92375783D01*
X79604054Y-92467552D01*
X79639861Y-92553997D01*
X79691844Y-92631795D01*
X79758005Y-92697956D01*
X79835803Y-92749939D01*
X79922248Y-92785746D01*
X80014017Y-92804000D01*
X80107583Y-92804000D01*
X80199352Y-92785746D01*
X80285797Y-92749939D01*
X80363595Y-92697956D01*
X80378410Y-92683142D01*
X80386793Y-92691525D01*
X80464591Y-92743508D01*
X80551036Y-92779315D01*
X80642805Y-92797569D01*
X80736371Y-92797569D01*
X80828140Y-92779315D01*
X80914585Y-92743508D01*
X80992383Y-92691525D01*
X81058544Y-92625364D01*
X81110527Y-92547566D01*
X81146334Y-92461121D01*
X81164588Y-92369352D01*
X81164588Y-92275786D01*
X81146334Y-92184017D01*
X81110527Y-92097572D01*
X81058544Y-92019774D01*
X80992383Y-91953613D01*
X80914585Y-91901630D01*
X80828140Y-91865823D01*
X80736371Y-91847569D01*
X80642805Y-91847569D01*
X80551036Y-91865823D01*
X80464591Y-91901630D01*
X80386793Y-91953613D01*
X80371979Y-91968428D01*
X80363595Y-91960044D01*
X80285797Y-91908061D01*
X80199352Y-91872254D01*
X80107583Y-91854000D01*
X80014017Y-91854000D01*
X79922248Y-91872254D01*
X79835803Y-91908061D01*
X79758005Y-91960044D01*
X79691844Y-92026205D01*
X79639861Y-92104003D01*
X79604054Y-92190448D01*
X79585800Y-92282217D01*
X49852315Y-92282217D01*
X49851936Y-92178579D01*
X49907949Y-90986817D01*
X56065400Y-90986817D01*
X56065400Y-91080383D01*
X56083654Y-91172152D01*
X56119461Y-91258597D01*
X56171444Y-91336395D01*
X56237605Y-91402556D01*
X56315403Y-91454539D01*
X56401848Y-91490346D01*
X56493617Y-91508600D01*
X56587183Y-91508600D01*
X56678952Y-91490346D01*
X56765397Y-91454539D01*
X56843195Y-91402556D01*
X56909356Y-91336395D01*
X56915515Y-91327177D01*
X64655680Y-91327177D01*
X64655680Y-91420743D01*
X64673934Y-91512512D01*
X64709741Y-91598957D01*
X64761724Y-91676755D01*
X64827885Y-91742916D01*
X64905683Y-91794899D01*
X64992128Y-91830706D01*
X65083897Y-91848960D01*
X65177463Y-91848960D01*
X65269232Y-91830706D01*
X65355677Y-91794899D01*
X65433475Y-91742916D01*
X65485770Y-91690621D01*
X65559592Y-91739947D01*
X65646037Y-91775754D01*
X65737806Y-91794008D01*
X65831372Y-91794008D01*
X65923141Y-91775754D01*
X66009586Y-91739947D01*
X66087384Y-91687964D01*
X66153545Y-91621803D01*
X66205528Y-91544005D01*
X66241335Y-91457560D01*
X66259589Y-91365791D01*
X66259589Y-91272225D01*
X66241335Y-91180456D01*
X66205528Y-91094011D01*
X66199222Y-91084573D01*
X77780452Y-91084573D01*
X77780452Y-91178139D01*
X77798706Y-91269908D01*
X77834513Y-91356353D01*
X77886496Y-91434151D01*
X77952657Y-91500312D01*
X78030455Y-91552295D01*
X78116900Y-91588102D01*
X78208669Y-91606356D01*
X78302235Y-91606356D01*
X78394004Y-91588102D01*
X78480449Y-91552295D01*
X78505423Y-91535608D01*
X78551532Y-91581717D01*
X78629330Y-91633700D01*
X78715775Y-91669507D01*
X78807544Y-91687761D01*
X78901110Y-91687761D01*
X78992879Y-91669507D01*
X79079324Y-91633700D01*
X79157122Y-91581717D01*
X79223283Y-91515556D01*
X79275266Y-91437758D01*
X79311073Y-91351313D01*
X79329327Y-91259544D01*
X79329327Y-91165978D01*
X79324004Y-91139217D01*
X83980000Y-91139217D01*
X83980000Y-91232783D01*
X83998254Y-91324552D01*
X84034061Y-91410997D01*
X84086044Y-91488795D01*
X84152205Y-91554956D01*
X84230003Y-91606939D01*
X84316448Y-91642746D01*
X84408217Y-91661000D01*
X84501783Y-91661000D01*
X84593552Y-91642746D01*
X84679997Y-91606939D01*
X84757795Y-91554956D01*
X84823956Y-91488795D01*
X84875939Y-91410997D01*
X84911746Y-91324552D01*
X84930000Y-91232783D01*
X84930000Y-91139217D01*
X84911746Y-91047448D01*
X84875939Y-90961003D01*
X84823956Y-90883205D01*
X84757795Y-90817044D01*
X84679997Y-90765061D01*
X84593552Y-90729254D01*
X84501783Y-90711000D01*
X84408217Y-90711000D01*
X84316448Y-90729254D01*
X84230003Y-90765061D01*
X84152205Y-90817044D01*
X84086044Y-90883205D01*
X84034061Y-90961003D01*
X83998254Y-91047448D01*
X83980000Y-91139217D01*
X79324004Y-91139217D01*
X79311073Y-91074209D01*
X79275266Y-90987764D01*
X79223283Y-90909966D01*
X79157122Y-90843805D01*
X79094345Y-90801859D01*
X79102736Y-90781602D01*
X79120990Y-90689833D01*
X79120990Y-90596267D01*
X79102736Y-90504498D01*
X79066929Y-90418053D01*
X79014946Y-90340255D01*
X78948785Y-90274094D01*
X78870987Y-90222111D01*
X78784542Y-90186304D01*
X78692773Y-90168050D01*
X78599207Y-90168050D01*
X78507438Y-90186304D01*
X78420993Y-90222111D01*
X78343195Y-90274094D01*
X78277034Y-90340255D01*
X78225051Y-90418053D01*
X78189244Y-90504498D01*
X78170990Y-90596267D01*
X78170990Y-90663851D01*
X78116900Y-90674610D01*
X78030455Y-90710417D01*
X77952657Y-90762400D01*
X77886496Y-90828561D01*
X77834513Y-90906359D01*
X77798706Y-90992804D01*
X77780452Y-91084573D01*
X66199222Y-91084573D01*
X66153545Y-91016213D01*
X66087384Y-90950052D01*
X66009586Y-90898069D01*
X65923141Y-90862262D01*
X65831372Y-90844008D01*
X65737806Y-90844008D01*
X65646037Y-90862262D01*
X65559592Y-90898069D01*
X65481794Y-90950052D01*
X65429499Y-91002347D01*
X65355677Y-90953021D01*
X65269232Y-90917214D01*
X65177463Y-90898960D01*
X65083897Y-90898960D01*
X64992128Y-90917214D01*
X64905683Y-90953021D01*
X64827885Y-91005004D01*
X64761724Y-91071165D01*
X64709741Y-91148963D01*
X64673934Y-91235408D01*
X64655680Y-91327177D01*
X56915515Y-91327177D01*
X56961339Y-91258597D01*
X56997146Y-91172152D01*
X57015400Y-91080383D01*
X57015400Y-90986817D01*
X56997146Y-90895048D01*
X56961339Y-90808603D01*
X56909356Y-90730805D01*
X56843195Y-90664644D01*
X56765397Y-90612661D01*
X56678952Y-90576854D01*
X56587183Y-90558600D01*
X56493617Y-90558600D01*
X56401848Y-90576854D01*
X56315403Y-90612661D01*
X56237605Y-90664644D01*
X56171444Y-90730805D01*
X56119461Y-90808603D01*
X56083654Y-90895048D01*
X56065400Y-90986817D01*
X49907949Y-90986817D01*
X49991515Y-89208817D01*
X57030600Y-89208817D01*
X57030600Y-89302383D01*
X57048854Y-89394152D01*
X57084661Y-89480597D01*
X57136644Y-89558395D01*
X57202805Y-89624556D01*
X57280603Y-89676539D01*
X57367048Y-89712346D01*
X57458817Y-89730600D01*
X57552383Y-89730600D01*
X57644152Y-89712346D01*
X57730597Y-89676539D01*
X57808395Y-89624556D01*
X57874556Y-89558395D01*
X57919600Y-89490982D01*
X57919600Y-89556383D01*
X57937854Y-89648152D01*
X57973661Y-89734597D01*
X58025644Y-89812395D01*
X58091805Y-89878556D01*
X58169603Y-89930539D01*
X58256048Y-89966346D01*
X58347817Y-89984600D01*
X58441383Y-89984600D01*
X58446827Y-89983517D01*
X61704198Y-89983517D01*
X61704198Y-90077083D01*
X61722452Y-90168852D01*
X61758259Y-90255297D01*
X61810242Y-90333095D01*
X61876403Y-90399256D01*
X61954201Y-90451239D01*
X62040646Y-90487046D01*
X62132415Y-90505300D01*
X62225981Y-90505300D01*
X62317750Y-90487046D01*
X62404195Y-90451239D01*
X62481993Y-90399256D01*
X62548154Y-90333095D01*
X62600137Y-90255297D01*
X62635944Y-90168852D01*
X62650073Y-90097817D01*
X63101200Y-90097817D01*
X63101200Y-90191383D01*
X63119454Y-90283152D01*
X63155261Y-90369597D01*
X63207244Y-90447395D01*
X63273405Y-90513556D01*
X63351203Y-90565539D01*
X63437648Y-90601346D01*
X63529417Y-90619600D01*
X63622983Y-90619600D01*
X63714752Y-90601346D01*
X63801197Y-90565539D01*
X63878995Y-90513556D01*
X63945156Y-90447395D01*
X63997139Y-90369597D01*
X64032946Y-90283152D01*
X64051200Y-90191383D01*
X64051200Y-90176168D01*
X65309589Y-90176168D01*
X65309589Y-90269734D01*
X65327843Y-90361503D01*
X65363650Y-90447948D01*
X65415633Y-90525746D01*
X65481794Y-90591907D01*
X65559592Y-90643890D01*
X65646037Y-90679697D01*
X65737806Y-90697951D01*
X65831372Y-90697951D01*
X65923141Y-90679697D01*
X66009586Y-90643890D01*
X66087384Y-90591907D01*
X66153545Y-90525746D01*
X66205528Y-90447948D01*
X66241335Y-90361503D01*
X66259589Y-90269734D01*
X66259589Y-90176168D01*
X66241335Y-90084399D01*
X66235450Y-90070191D01*
X71437480Y-90070191D01*
X71437480Y-90163757D01*
X71455734Y-90255526D01*
X71491541Y-90341971D01*
X71543524Y-90419769D01*
X71609685Y-90485930D01*
X71687483Y-90537913D01*
X71773928Y-90573720D01*
X71865697Y-90591974D01*
X71959263Y-90591974D01*
X72051032Y-90573720D01*
X72137477Y-90537913D01*
X72215275Y-90485930D01*
X72281436Y-90419769D01*
X72333419Y-90341971D01*
X72369226Y-90255526D01*
X72387480Y-90163757D01*
X72387480Y-90070191D01*
X72369226Y-89978422D01*
X72333419Y-89891977D01*
X72281436Y-89814179D01*
X72215275Y-89748018D01*
X72137477Y-89696035D01*
X72051032Y-89660228D01*
X71959263Y-89641974D01*
X71865697Y-89641974D01*
X71773928Y-89660228D01*
X71687483Y-89696035D01*
X71609685Y-89748018D01*
X71543524Y-89814179D01*
X71491541Y-89891977D01*
X71455734Y-89978422D01*
X71437480Y-90070191D01*
X66235450Y-90070191D01*
X66205528Y-89997954D01*
X66153545Y-89920156D01*
X66087384Y-89853995D01*
X66009586Y-89802012D01*
X65923141Y-89766205D01*
X65831372Y-89747951D01*
X65737806Y-89747951D01*
X65646037Y-89766205D01*
X65559592Y-89802012D01*
X65481794Y-89853995D01*
X65415633Y-89920156D01*
X65363650Y-89997954D01*
X65327843Y-90084399D01*
X65309589Y-90176168D01*
X64051200Y-90176168D01*
X64051200Y-90097817D01*
X64032946Y-90006048D01*
X63997139Y-89919603D01*
X63945156Y-89841805D01*
X63878995Y-89775644D01*
X63801197Y-89723661D01*
X63714752Y-89687854D01*
X63622983Y-89669600D01*
X63529417Y-89669600D01*
X63437648Y-89687854D01*
X63351203Y-89723661D01*
X63273405Y-89775644D01*
X63207244Y-89841805D01*
X63155261Y-89919603D01*
X63119454Y-90006048D01*
X63101200Y-90097817D01*
X62650073Y-90097817D01*
X62654198Y-90077083D01*
X62654198Y-89983517D01*
X62635944Y-89891748D01*
X62600137Y-89805303D01*
X62548154Y-89727505D01*
X62481993Y-89661344D01*
X62404195Y-89609361D01*
X62317750Y-89573554D01*
X62225981Y-89555300D01*
X62132415Y-89555300D01*
X62040646Y-89573554D01*
X61954201Y-89609361D01*
X61876403Y-89661344D01*
X61810242Y-89727505D01*
X61758259Y-89805303D01*
X61722452Y-89891748D01*
X61704198Y-89983517D01*
X58446827Y-89983517D01*
X58533152Y-89966346D01*
X58619597Y-89930539D01*
X58697395Y-89878556D01*
X58763556Y-89812395D01*
X58815539Y-89734597D01*
X58851346Y-89648152D01*
X58869600Y-89556383D01*
X58869600Y-89462817D01*
X58851346Y-89371048D01*
X58819919Y-89295177D01*
X73113880Y-89295177D01*
X73113880Y-89388743D01*
X73132134Y-89480512D01*
X73167941Y-89566957D01*
X73219924Y-89644755D01*
X73286085Y-89710916D01*
X73302404Y-89721820D01*
X73259467Y-89764757D01*
X73207484Y-89842555D01*
X73171677Y-89929000D01*
X73153423Y-90020769D01*
X73153423Y-90114335D01*
X73171677Y-90206104D01*
X73207484Y-90292549D01*
X73259467Y-90370347D01*
X73325628Y-90436508D01*
X73403426Y-90488491D01*
X73489871Y-90524298D01*
X73581640Y-90542552D01*
X73675206Y-90542552D01*
X73766975Y-90524298D01*
X73853420Y-90488491D01*
X73931218Y-90436508D01*
X73997379Y-90370347D01*
X74049362Y-90292549D01*
X74085169Y-90206104D01*
X74103423Y-90114335D01*
X74103423Y-90020769D01*
X74100053Y-90003822D01*
X75231069Y-90003822D01*
X75231069Y-90097388D01*
X75249323Y-90189157D01*
X75285130Y-90275602D01*
X75337113Y-90353400D01*
X75403274Y-90419561D01*
X75481072Y-90471544D01*
X75567517Y-90507351D01*
X75659286Y-90525605D01*
X75752852Y-90525605D01*
X75844621Y-90507351D01*
X75931066Y-90471544D01*
X76008864Y-90419561D01*
X76075025Y-90353400D01*
X76127008Y-90275602D01*
X76162815Y-90189157D01*
X76181069Y-90097388D01*
X76181069Y-90003822D01*
X76162815Y-89912053D01*
X76127008Y-89825608D01*
X76075025Y-89747810D01*
X76064352Y-89737137D01*
X79758520Y-89737137D01*
X79758520Y-89830703D01*
X79776774Y-89922472D01*
X79812581Y-90008917D01*
X79864564Y-90086715D01*
X79930725Y-90152876D01*
X80008523Y-90204859D01*
X80094968Y-90240666D01*
X80186737Y-90258920D01*
X80280303Y-90258920D01*
X80372072Y-90240666D01*
X80458517Y-90204859D01*
X80536315Y-90152876D01*
X80602476Y-90086715D01*
X80629001Y-90047017D01*
X81389200Y-90047017D01*
X81389200Y-90140583D01*
X81407454Y-90232352D01*
X81443261Y-90318797D01*
X81495244Y-90396595D01*
X81561405Y-90462756D01*
X81639203Y-90514739D01*
X81725648Y-90550546D01*
X81817417Y-90568800D01*
X81910983Y-90568800D01*
X82002752Y-90550546D01*
X82089197Y-90514739D01*
X82166995Y-90462756D01*
X82233156Y-90396595D01*
X82285139Y-90318797D01*
X82320946Y-90232352D01*
X82339200Y-90140583D01*
X82339200Y-90047017D01*
X82320946Y-89955248D01*
X82285139Y-89868803D01*
X82233156Y-89791005D01*
X82166995Y-89724844D01*
X82089197Y-89672861D01*
X82002752Y-89637054D01*
X81910983Y-89618800D01*
X81817417Y-89618800D01*
X81725648Y-89637054D01*
X81639203Y-89672861D01*
X81561405Y-89724844D01*
X81495244Y-89791005D01*
X81443261Y-89868803D01*
X81407454Y-89955248D01*
X81389200Y-90047017D01*
X80629001Y-90047017D01*
X80654459Y-90008917D01*
X80690266Y-89922472D01*
X80708520Y-89830703D01*
X80708520Y-89737137D01*
X80690266Y-89645368D01*
X80654459Y-89558923D01*
X80602476Y-89481125D01*
X80536315Y-89414964D01*
X80516700Y-89401857D01*
X82374720Y-89401857D01*
X82374720Y-89495423D01*
X82392974Y-89587192D01*
X82428781Y-89673637D01*
X82480764Y-89751435D01*
X82546925Y-89817596D01*
X82624723Y-89869579D01*
X82711168Y-89905386D01*
X82802937Y-89923640D01*
X82896503Y-89923640D01*
X82988272Y-89905386D01*
X83074717Y-89869579D01*
X83152515Y-89817596D01*
X83218676Y-89751435D01*
X83270659Y-89673637D01*
X83306466Y-89587192D01*
X83324720Y-89495423D01*
X83324720Y-89401857D01*
X83306466Y-89310088D01*
X83270659Y-89223643D01*
X83218676Y-89145845D01*
X83152515Y-89079684D01*
X83074717Y-89027701D01*
X82988272Y-88991894D01*
X82896503Y-88973640D01*
X82802937Y-88973640D01*
X82711168Y-88991894D01*
X82624723Y-89027701D01*
X82546925Y-89079684D01*
X82480764Y-89145845D01*
X82428781Y-89223643D01*
X82392974Y-89310088D01*
X82374720Y-89401857D01*
X80516700Y-89401857D01*
X80458517Y-89362981D01*
X80372072Y-89327174D01*
X80280303Y-89308920D01*
X80186737Y-89308920D01*
X80094968Y-89327174D01*
X80008523Y-89362981D01*
X79930725Y-89414964D01*
X79864564Y-89481125D01*
X79812581Y-89558923D01*
X79776774Y-89645368D01*
X79758520Y-89737137D01*
X76064352Y-89737137D01*
X76008864Y-89681649D01*
X75931066Y-89629666D01*
X75844621Y-89593859D01*
X75752852Y-89575605D01*
X75659286Y-89575605D01*
X75567517Y-89593859D01*
X75481072Y-89629666D01*
X75403274Y-89681649D01*
X75337113Y-89747810D01*
X75285130Y-89825608D01*
X75249323Y-89912053D01*
X75231069Y-90003822D01*
X74100053Y-90003822D01*
X74085169Y-89929000D01*
X74049362Y-89842555D01*
X73997379Y-89764757D01*
X73931218Y-89698596D01*
X73914899Y-89687692D01*
X73957836Y-89644755D01*
X74009819Y-89566957D01*
X74045626Y-89480512D01*
X74063880Y-89388743D01*
X74063880Y-89295177D01*
X74045626Y-89203408D01*
X74009819Y-89116963D01*
X73976458Y-89067035D01*
X73982657Y-89064467D01*
X74060455Y-89012484D01*
X74126616Y-88946323D01*
X74178599Y-88868525D01*
X74211709Y-88788591D01*
X74222817Y-88790800D01*
X74316383Y-88790800D01*
X74408152Y-88772546D01*
X74494597Y-88736739D01*
X74572395Y-88684756D01*
X74582020Y-88675131D01*
X74617045Y-88710156D01*
X74694843Y-88762139D01*
X74781288Y-88797946D01*
X74873057Y-88816200D01*
X74966623Y-88816200D01*
X75058392Y-88797946D01*
X75144837Y-88762139D01*
X75222635Y-88710156D01*
X75288796Y-88643995D01*
X75340779Y-88566197D01*
X75376586Y-88479752D01*
X75388189Y-88421417D01*
X79484200Y-88421417D01*
X79484200Y-88514983D01*
X79502454Y-88606752D01*
X79538261Y-88693197D01*
X79590244Y-88770995D01*
X79656405Y-88837156D01*
X79734203Y-88889139D01*
X79820648Y-88924946D01*
X79912417Y-88943200D01*
X80005983Y-88943200D01*
X80097752Y-88924946D01*
X80184197Y-88889139D01*
X80261995Y-88837156D01*
X80328156Y-88770995D01*
X80380139Y-88693197D01*
X80415946Y-88606752D01*
X80434200Y-88514983D01*
X80434200Y-88421417D01*
X80415946Y-88329648D01*
X80380139Y-88243203D01*
X80328156Y-88165405D01*
X80261995Y-88099244D01*
X80184197Y-88047261D01*
X80097752Y-88011454D01*
X80005983Y-87993200D01*
X79912417Y-87993200D01*
X79820648Y-88011454D01*
X79734203Y-88047261D01*
X79656405Y-88099244D01*
X79590244Y-88165405D01*
X79538261Y-88243203D01*
X79502454Y-88329648D01*
X79484200Y-88421417D01*
X75388189Y-88421417D01*
X75394840Y-88387983D01*
X75394840Y-88294417D01*
X75376586Y-88202648D01*
X75340779Y-88116203D01*
X75288796Y-88038405D01*
X75222635Y-87972244D01*
X75144837Y-87920261D01*
X75058392Y-87884454D01*
X74966623Y-87866200D01*
X74873057Y-87866200D01*
X74781288Y-87884454D01*
X74694843Y-87920261D01*
X74617045Y-87972244D01*
X74607420Y-87981869D01*
X74572395Y-87946844D01*
X74494597Y-87894861D01*
X74408152Y-87859054D01*
X74316383Y-87840800D01*
X74222817Y-87840800D01*
X74131048Y-87859054D01*
X74044603Y-87894861D01*
X73966805Y-87946844D01*
X73900644Y-88013005D01*
X73848661Y-88090803D01*
X73815551Y-88170737D01*
X73804443Y-88168528D01*
X73710877Y-88168528D01*
X73619108Y-88186782D01*
X73532663Y-88222589D01*
X73454865Y-88274572D01*
X73388704Y-88340733D01*
X73336721Y-88418531D01*
X73300914Y-88504976D01*
X73282660Y-88596745D01*
X73282660Y-88690311D01*
X73300914Y-88782080D01*
X73336721Y-88868525D01*
X73370082Y-88918453D01*
X73363883Y-88921021D01*
X73286085Y-88973004D01*
X73219924Y-89039165D01*
X73167941Y-89116963D01*
X73132134Y-89203408D01*
X73113880Y-89295177D01*
X58819919Y-89295177D01*
X58815539Y-89284603D01*
X58763556Y-89206805D01*
X58697395Y-89140644D01*
X58619597Y-89088661D01*
X58533152Y-89052854D01*
X58441383Y-89034600D01*
X58347817Y-89034600D01*
X58256048Y-89052854D01*
X58169603Y-89088661D01*
X58091805Y-89140644D01*
X58025644Y-89206805D01*
X57980600Y-89274218D01*
X57980600Y-89208817D01*
X57962346Y-89117048D01*
X57926539Y-89030603D01*
X57874556Y-88952805D01*
X57808395Y-88886644D01*
X57730597Y-88834661D01*
X57644152Y-88798854D01*
X57552383Y-88780600D01*
X57458817Y-88780600D01*
X57367048Y-88798854D01*
X57280603Y-88834661D01*
X57202805Y-88886644D01*
X57136644Y-88952805D01*
X57084661Y-89030603D01*
X57048854Y-89117048D01*
X57030600Y-89208817D01*
X49991515Y-89208817D01*
X49993844Y-89159276D01*
X50074030Y-88340137D01*
X58468240Y-88340137D01*
X58468240Y-88433703D01*
X58486494Y-88525472D01*
X58522301Y-88611917D01*
X58574284Y-88689715D01*
X58640445Y-88755876D01*
X58718243Y-88807859D01*
X58804688Y-88843666D01*
X58896457Y-88861920D01*
X58990023Y-88861920D01*
X59081792Y-88843666D01*
X59168237Y-88807859D01*
X59246035Y-88755876D01*
X59312196Y-88689715D01*
X59364179Y-88611917D01*
X59399986Y-88525472D01*
X59412600Y-88462057D01*
X71925160Y-88462057D01*
X71925160Y-88555623D01*
X71943414Y-88647392D01*
X71979221Y-88733837D01*
X72031204Y-88811635D01*
X72097365Y-88877796D01*
X72175163Y-88929779D01*
X72261608Y-88965586D01*
X72353377Y-88983840D01*
X72446943Y-88983840D01*
X72538712Y-88965586D01*
X72625157Y-88929779D01*
X72702955Y-88877796D01*
X72769116Y-88811635D01*
X72821099Y-88733837D01*
X72856906Y-88647392D01*
X72875160Y-88555623D01*
X72875160Y-88462057D01*
X72856906Y-88370288D01*
X72821099Y-88283843D01*
X72769116Y-88206045D01*
X72702955Y-88139884D01*
X72625157Y-88087901D01*
X72538712Y-88052094D01*
X72446943Y-88033840D01*
X72353377Y-88033840D01*
X72261608Y-88052094D01*
X72175163Y-88087901D01*
X72097365Y-88139884D01*
X72031204Y-88206045D01*
X71979221Y-88283843D01*
X71943414Y-88370288D01*
X71925160Y-88462057D01*
X59412600Y-88462057D01*
X59418240Y-88433703D01*
X59418240Y-88340137D01*
X59399986Y-88248368D01*
X59364179Y-88161923D01*
X59312196Y-88084125D01*
X59246035Y-88017964D01*
X59168237Y-87965981D01*
X59081792Y-87930174D01*
X58990023Y-87911920D01*
X58896457Y-87911920D01*
X58804688Y-87930174D01*
X58718243Y-87965981D01*
X58640445Y-88017964D01*
X58574284Y-88084125D01*
X58522301Y-88161923D01*
X58486494Y-88248368D01*
X58468240Y-88340137D01*
X50074030Y-88340137D01*
X50285051Y-86184456D01*
X51997372Y-86184456D01*
X51997372Y-86408916D01*
X52041162Y-86629062D01*
X52127059Y-86836435D01*
X52251762Y-87023066D01*
X52410479Y-87181783D01*
X52597110Y-87306486D01*
X52804483Y-87392383D01*
X53024629Y-87436173D01*
X53249089Y-87436173D01*
X53403709Y-87405417D01*
X62085200Y-87405417D01*
X62085200Y-87498983D01*
X62103454Y-87590752D01*
X62139261Y-87677197D01*
X62191244Y-87754995D01*
X62257405Y-87821156D01*
X62335203Y-87873139D01*
X62421648Y-87908946D01*
X62513417Y-87927200D01*
X62606983Y-87927200D01*
X62698752Y-87908946D01*
X62785197Y-87873139D01*
X62862995Y-87821156D01*
X62929156Y-87754995D01*
X62981139Y-87677197D01*
X63016946Y-87590752D01*
X63035200Y-87498983D01*
X63035200Y-87452277D01*
X67165200Y-87452277D01*
X67165200Y-87545843D01*
X67183454Y-87637612D01*
X67219261Y-87724057D01*
X67271244Y-87801855D01*
X67337405Y-87868016D01*
X67415203Y-87919999D01*
X67501648Y-87955806D01*
X67593417Y-87974060D01*
X67686983Y-87974060D01*
X67778752Y-87955806D01*
X67865197Y-87919999D01*
X67942995Y-87868016D01*
X68009156Y-87801855D01*
X68061139Y-87724057D01*
X68096946Y-87637612D01*
X68115200Y-87545843D01*
X68115200Y-87452277D01*
X68110932Y-87430817D01*
X78646000Y-87430817D01*
X78646000Y-87524383D01*
X78664254Y-87616152D01*
X78700061Y-87702597D01*
X78752044Y-87780395D01*
X78818205Y-87846556D01*
X78896003Y-87898539D01*
X78982448Y-87934346D01*
X79074217Y-87952600D01*
X79167783Y-87952600D01*
X79237074Y-87938817D01*
X81617800Y-87938817D01*
X81617800Y-88032383D01*
X81636054Y-88124152D01*
X81671861Y-88210597D01*
X81723844Y-88288395D01*
X81790005Y-88354556D01*
X81867803Y-88406539D01*
X81954248Y-88442346D01*
X82046017Y-88460600D01*
X82139583Y-88460600D01*
X82231352Y-88442346D01*
X82317797Y-88406539D01*
X82395595Y-88354556D01*
X82461756Y-88288395D01*
X82513739Y-88210597D01*
X82549546Y-88124152D01*
X82567800Y-88032383D01*
X82567800Y-87938817D01*
X82549546Y-87847048D01*
X82513739Y-87760603D01*
X82461756Y-87682805D01*
X82395595Y-87616644D01*
X82317797Y-87564661D01*
X82231352Y-87528854D01*
X82139583Y-87510600D01*
X82046017Y-87510600D01*
X81954248Y-87528854D01*
X81867803Y-87564661D01*
X81790005Y-87616644D01*
X81723844Y-87682805D01*
X81671861Y-87760603D01*
X81636054Y-87847048D01*
X81617800Y-87938817D01*
X79237074Y-87938817D01*
X79259552Y-87934346D01*
X79345997Y-87898539D01*
X79423795Y-87846556D01*
X79489956Y-87780395D01*
X79541939Y-87702597D01*
X79577746Y-87616152D01*
X79596000Y-87524383D01*
X79596000Y-87430817D01*
X79577746Y-87339048D01*
X79541939Y-87252603D01*
X79489956Y-87174805D01*
X79423795Y-87108644D01*
X79345997Y-87056661D01*
X79259552Y-87020854D01*
X79167783Y-87002600D01*
X79074217Y-87002600D01*
X78982448Y-87020854D01*
X78896003Y-87056661D01*
X78818205Y-87108644D01*
X78752044Y-87174805D01*
X78700061Y-87252603D01*
X78664254Y-87339048D01*
X78646000Y-87430817D01*
X68110932Y-87430817D01*
X68096946Y-87360508D01*
X68061139Y-87274063D01*
X68009156Y-87196265D01*
X67942995Y-87130104D01*
X67865197Y-87078121D01*
X67778752Y-87042314D01*
X67686983Y-87024060D01*
X67593417Y-87024060D01*
X67501648Y-87042314D01*
X67415203Y-87078121D01*
X67337405Y-87130104D01*
X67271244Y-87196265D01*
X67219261Y-87274063D01*
X67183454Y-87360508D01*
X67165200Y-87452277D01*
X63035200Y-87452277D01*
X63035200Y-87405417D01*
X63016946Y-87313648D01*
X62981139Y-87227203D01*
X62929156Y-87149405D01*
X62862995Y-87083244D01*
X62785197Y-87031261D01*
X62698752Y-86995454D01*
X62606983Y-86977200D01*
X62513417Y-86977200D01*
X62421648Y-86995454D01*
X62335203Y-87031261D01*
X62257405Y-87083244D01*
X62191244Y-87149405D01*
X62139261Y-87227203D01*
X62103454Y-87313648D01*
X62085200Y-87405417D01*
X53403709Y-87405417D01*
X53469235Y-87392383D01*
X53676608Y-87306486D01*
X53863239Y-87181783D01*
X54021956Y-87023066D01*
X54146659Y-86836435D01*
X54232556Y-86629062D01*
X54244857Y-86567217D01*
X65768200Y-86567217D01*
X65768200Y-86660783D01*
X65786454Y-86752552D01*
X65822261Y-86838997D01*
X65874244Y-86916795D01*
X65940405Y-86982956D01*
X66018203Y-87034939D01*
X66104648Y-87070746D01*
X66196417Y-87089000D01*
X66289983Y-87089000D01*
X66381752Y-87070746D01*
X66468197Y-87034939D01*
X66545995Y-86982956D01*
X66612156Y-86916795D01*
X66664139Y-86838997D01*
X66699946Y-86752552D01*
X66701444Y-86745017D01*
X72671920Y-86745017D01*
X72671920Y-86838583D01*
X72690174Y-86930352D01*
X72725981Y-87016797D01*
X72777964Y-87094595D01*
X72844125Y-87160756D01*
X72921923Y-87212739D01*
X73008368Y-87248546D01*
X73100137Y-87266800D01*
X73193703Y-87266800D01*
X73285472Y-87248546D01*
X73371917Y-87212739D01*
X73449715Y-87160756D01*
X73515876Y-87094595D01*
X73567859Y-87016797D01*
X73603666Y-86930352D01*
X73621920Y-86838583D01*
X73621920Y-86745017D01*
X73603666Y-86653248D01*
X73567859Y-86566803D01*
X73515876Y-86489005D01*
X73449715Y-86422844D01*
X73371917Y-86370861D01*
X73285472Y-86335054D01*
X73193703Y-86316800D01*
X73100137Y-86316800D01*
X73008368Y-86335054D01*
X72921923Y-86370861D01*
X72844125Y-86422844D01*
X72777964Y-86489005D01*
X72725981Y-86566803D01*
X72690174Y-86653248D01*
X72671920Y-86745017D01*
X66701444Y-86745017D01*
X66718200Y-86660783D01*
X66718200Y-86567217D01*
X66699946Y-86475448D01*
X66664139Y-86389003D01*
X66612156Y-86311205D01*
X66545995Y-86245044D01*
X66468197Y-86193061D01*
X66381752Y-86157254D01*
X66289983Y-86139000D01*
X66196417Y-86139000D01*
X66104648Y-86157254D01*
X66018203Y-86193061D01*
X65940405Y-86245044D01*
X65874244Y-86311205D01*
X65822261Y-86389003D01*
X65786454Y-86475448D01*
X65768200Y-86567217D01*
X54244857Y-86567217D01*
X54276346Y-86408916D01*
X54276346Y-86184456D01*
X54232556Y-85964310D01*
X54146659Y-85756937D01*
X54128004Y-85729017D01*
X67431900Y-85729017D01*
X67431900Y-85822583D01*
X67450154Y-85914352D01*
X67485961Y-86000797D01*
X67537944Y-86078595D01*
X67604105Y-86144756D01*
X67681903Y-86196739D01*
X67768348Y-86232546D01*
X67860117Y-86250800D01*
X67953683Y-86250800D01*
X68045452Y-86232546D01*
X68131897Y-86196739D01*
X68209695Y-86144756D01*
X68275856Y-86078595D01*
X68327839Y-86000797D01*
X68363646Y-85914352D01*
X68370197Y-85881417D01*
X71153000Y-85881417D01*
X71153000Y-85974983D01*
X71171254Y-86066752D01*
X71207061Y-86153197D01*
X71259044Y-86230995D01*
X71325205Y-86297156D01*
X71403003Y-86349139D01*
X71489448Y-86384946D01*
X71581217Y-86403200D01*
X71674783Y-86403200D01*
X71766552Y-86384946D01*
X71852997Y-86349139D01*
X71930795Y-86297156D01*
X71996956Y-86230995D01*
X72004461Y-86219762D01*
X80830400Y-86219762D01*
X80830400Y-86313328D01*
X80848654Y-86405097D01*
X80884461Y-86491542D01*
X80936444Y-86569340D01*
X81002605Y-86635501D01*
X81080403Y-86687484D01*
X81166848Y-86723291D01*
X81258617Y-86741545D01*
X81352183Y-86741545D01*
X81443952Y-86723291D01*
X81530397Y-86687484D01*
X81608195Y-86635501D01*
X81674356Y-86569340D01*
X81726339Y-86491542D01*
X81762146Y-86405097D01*
X81780400Y-86313328D01*
X81780400Y-86219762D01*
X81773378Y-86184456D01*
X86642853Y-86184456D01*
X86642853Y-86408916D01*
X86686643Y-86629062D01*
X86772540Y-86836435D01*
X86897243Y-87023066D01*
X87055960Y-87181783D01*
X87242591Y-87306486D01*
X87449964Y-87392383D01*
X87670110Y-87436173D01*
X87894570Y-87436173D01*
X88114716Y-87392383D01*
X88322089Y-87306486D01*
X88508720Y-87181783D01*
X88667437Y-87023066D01*
X88792140Y-86836435D01*
X88878037Y-86629062D01*
X88921827Y-86408916D01*
X88921827Y-86184456D01*
X88878037Y-85964310D01*
X88792140Y-85756937D01*
X88667437Y-85570306D01*
X88508720Y-85411589D01*
X88322089Y-85286886D01*
X88114716Y-85200989D01*
X87894570Y-85157199D01*
X87670110Y-85157199D01*
X87449964Y-85200989D01*
X87242591Y-85286886D01*
X87055960Y-85411589D01*
X86897243Y-85570306D01*
X86772540Y-85756937D01*
X86686643Y-85964310D01*
X86642853Y-86184456D01*
X81773378Y-86184456D01*
X81762146Y-86127993D01*
X81726339Y-86041548D01*
X81674356Y-85963750D01*
X81608195Y-85897589D01*
X81530397Y-85845606D01*
X81443952Y-85809799D01*
X81352183Y-85791545D01*
X81258617Y-85791545D01*
X81166848Y-85809799D01*
X81080403Y-85845606D01*
X81002605Y-85897589D01*
X80936444Y-85963750D01*
X80884461Y-86041548D01*
X80848654Y-86127993D01*
X80830400Y-86219762D01*
X72004461Y-86219762D01*
X72048939Y-86153197D01*
X72084746Y-86066752D01*
X72103000Y-85974983D01*
X72103000Y-85881417D01*
X72084746Y-85789648D01*
X72048939Y-85703203D01*
X71996956Y-85625405D01*
X71930795Y-85559244D01*
X71852997Y-85507261D01*
X71766552Y-85471454D01*
X71674783Y-85453200D01*
X71581217Y-85453200D01*
X71489448Y-85471454D01*
X71403003Y-85507261D01*
X71325205Y-85559244D01*
X71259044Y-85625405D01*
X71207061Y-85703203D01*
X71171254Y-85789648D01*
X71153000Y-85881417D01*
X68370197Y-85881417D01*
X68381900Y-85822583D01*
X68381900Y-85729017D01*
X68363646Y-85637248D01*
X68327839Y-85550803D01*
X68275856Y-85473005D01*
X68209695Y-85406844D01*
X68131897Y-85354861D01*
X68045452Y-85319054D01*
X67953683Y-85300800D01*
X67860117Y-85300800D01*
X67768348Y-85319054D01*
X67681903Y-85354861D01*
X67604105Y-85406844D01*
X67537944Y-85473005D01*
X67485961Y-85550803D01*
X67450154Y-85637248D01*
X67431900Y-85729017D01*
X54128004Y-85729017D01*
X54021956Y-85570306D01*
X53863239Y-85411589D01*
X53676608Y-85286886D01*
X53469235Y-85200989D01*
X53249089Y-85157199D01*
X53024629Y-85157199D01*
X52804483Y-85200989D01*
X52597110Y-85286886D01*
X52410479Y-85411589D01*
X52251762Y-85570306D01*
X52127059Y-85756937D01*
X52041162Y-85964310D01*
X51997372Y-86184456D01*
X50285051Y-86184456D01*
X50288616Y-86148045D01*
X50341763Y-85730275D01*
X50528108Y-84893808D01*
X50696492Y-84444825D01*
X50778503Y-84255817D01*
X61907400Y-84255817D01*
X61907400Y-84349383D01*
X61925654Y-84441152D01*
X61961461Y-84527597D01*
X62013444Y-84605395D01*
X62079605Y-84671556D01*
X62157403Y-84723539D01*
X62243848Y-84759346D01*
X62335617Y-84777600D01*
X62429183Y-84777600D01*
X62520952Y-84759346D01*
X62607397Y-84723539D01*
X62685195Y-84671556D01*
X62751356Y-84605395D01*
X62803339Y-84527597D01*
X62839146Y-84441152D01*
X62857400Y-84349383D01*
X62857400Y-84255817D01*
X62839146Y-84164048D01*
X62803339Y-84077603D01*
X62751356Y-83999805D01*
X62727968Y-83976417D01*
X65018902Y-83976417D01*
X65018902Y-84069983D01*
X65037156Y-84161752D01*
X65072963Y-84248197D01*
X65124946Y-84325995D01*
X65191107Y-84392156D01*
X65268905Y-84444139D01*
X65355350Y-84479946D01*
X65447119Y-84498200D01*
X65540685Y-84498200D01*
X65632454Y-84479946D01*
X65718899Y-84444139D01*
X65796697Y-84392156D01*
X65862858Y-84325995D01*
X65909749Y-84255817D01*
X74023200Y-84255817D01*
X74023200Y-84349383D01*
X74041454Y-84441152D01*
X74077261Y-84527597D01*
X74129244Y-84605395D01*
X74195405Y-84671556D01*
X74273203Y-84723539D01*
X74359648Y-84759346D01*
X74451417Y-84777600D01*
X74544983Y-84777600D01*
X74636752Y-84759346D01*
X74723197Y-84723539D01*
X74800995Y-84671556D01*
X74867156Y-84605395D01*
X74919139Y-84527597D01*
X74947546Y-84459017D01*
X75725000Y-84459017D01*
X75725000Y-84552583D01*
X75743254Y-84644352D01*
X75779061Y-84730797D01*
X75831044Y-84808595D01*
X75897205Y-84874756D01*
X75975003Y-84926739D01*
X76061448Y-84962546D01*
X76153217Y-84980800D01*
X76246783Y-84980800D01*
X76338552Y-84962546D01*
X76424997Y-84926739D01*
X76478758Y-84890817D01*
X78519000Y-84890817D01*
X78519000Y-84984383D01*
X78537254Y-85076152D01*
X78573061Y-85162597D01*
X78625044Y-85240395D01*
X78691205Y-85306556D01*
X78769003Y-85358539D01*
X78855448Y-85394346D01*
X78947217Y-85412600D01*
X79040783Y-85412600D01*
X79132552Y-85394346D01*
X79218997Y-85358539D01*
X79296795Y-85306556D01*
X79362956Y-85240395D01*
X79414939Y-85162597D01*
X79450746Y-85076152D01*
X79469000Y-84984383D01*
X79469000Y-84890817D01*
X79450746Y-84799048D01*
X79414939Y-84712603D01*
X79362956Y-84634805D01*
X79296795Y-84568644D01*
X79218997Y-84516661D01*
X79132552Y-84480854D01*
X79040783Y-84462600D01*
X78947217Y-84462600D01*
X78855448Y-84480854D01*
X78769003Y-84516661D01*
X78691205Y-84568644D01*
X78625044Y-84634805D01*
X78573061Y-84712603D01*
X78537254Y-84799048D01*
X78519000Y-84890817D01*
X76478758Y-84890817D01*
X76502795Y-84874756D01*
X76568956Y-84808595D01*
X76620939Y-84730797D01*
X76656746Y-84644352D01*
X76675000Y-84552583D01*
X76675000Y-84459017D01*
X76656746Y-84367248D01*
X76620939Y-84280803D01*
X76568956Y-84203005D01*
X76502795Y-84136844D01*
X76424997Y-84084861D01*
X76338552Y-84049054D01*
X76246783Y-84030800D01*
X76153217Y-84030800D01*
X76061448Y-84049054D01*
X75975003Y-84084861D01*
X75897205Y-84136844D01*
X75831044Y-84203005D01*
X75779061Y-84280803D01*
X75743254Y-84367248D01*
X75725000Y-84459017D01*
X74947546Y-84459017D01*
X74954946Y-84441152D01*
X74973200Y-84349383D01*
X74973200Y-84255817D01*
X74954946Y-84164048D01*
X74919139Y-84077603D01*
X74867156Y-83999805D01*
X74800995Y-83933644D01*
X74723197Y-83881661D01*
X74636752Y-83845854D01*
X74544983Y-83827600D01*
X74451417Y-83827600D01*
X74359648Y-83845854D01*
X74273203Y-83881661D01*
X74195405Y-83933644D01*
X74129244Y-83999805D01*
X74077261Y-84077603D01*
X74041454Y-84164048D01*
X74023200Y-84255817D01*
X65909749Y-84255817D01*
X65914841Y-84248197D01*
X65950648Y-84161752D01*
X65968902Y-84069983D01*
X65968902Y-83976417D01*
X65950648Y-83884648D01*
X65914841Y-83798203D01*
X65862858Y-83720405D01*
X65796697Y-83654244D01*
X65718899Y-83602261D01*
X65632454Y-83566454D01*
X65540685Y-83548200D01*
X65447119Y-83548200D01*
X65355350Y-83566454D01*
X65268905Y-83602261D01*
X65191107Y-83654244D01*
X65124946Y-83720405D01*
X65072963Y-83798203D01*
X65037156Y-83884648D01*
X65018902Y-83976417D01*
X62727968Y-83976417D01*
X62685195Y-83933644D01*
X62607397Y-83881661D01*
X62520952Y-83845854D01*
X62429183Y-83827600D01*
X62335617Y-83827600D01*
X62243848Y-83845854D01*
X62157403Y-83881661D01*
X62079605Y-83933644D01*
X62013444Y-83999805D01*
X61961461Y-84077603D01*
X61925654Y-84164048D01*
X61907400Y-84255817D01*
X50778503Y-84255817D01*
X51329562Y-82985817D01*
X63964800Y-82985817D01*
X63964800Y-83079383D01*
X63983054Y-83171152D01*
X64018861Y-83257597D01*
X64070844Y-83335395D01*
X64137005Y-83401556D01*
X64214803Y-83453539D01*
X64301248Y-83489346D01*
X64393017Y-83507600D01*
X64486583Y-83507600D01*
X64555874Y-83493817D01*
X71170810Y-83493817D01*
X71170810Y-83587383D01*
X71189064Y-83679152D01*
X71224871Y-83765597D01*
X71276854Y-83843395D01*
X71343015Y-83909556D01*
X71420813Y-83961539D01*
X71507258Y-83997346D01*
X71599027Y-84015600D01*
X71692593Y-84015600D01*
X71784362Y-83997346D01*
X71870807Y-83961539D01*
X71948605Y-83909556D01*
X72014766Y-83843395D01*
X72066749Y-83765597D01*
X72102556Y-83679152D01*
X72120810Y-83587383D01*
X72120810Y-83493817D01*
X72102556Y-83402048D01*
X72066749Y-83315603D01*
X72014766Y-83237805D01*
X71948605Y-83171644D01*
X71870807Y-83119661D01*
X71784362Y-83083854D01*
X71692593Y-83065600D01*
X71599027Y-83065600D01*
X71507258Y-83083854D01*
X71420813Y-83119661D01*
X71343015Y-83171644D01*
X71276854Y-83237805D01*
X71224871Y-83315603D01*
X71189064Y-83402048D01*
X71170810Y-83493817D01*
X64555874Y-83493817D01*
X64578352Y-83489346D01*
X64664797Y-83453539D01*
X64742595Y-83401556D01*
X64808756Y-83335395D01*
X64860739Y-83257597D01*
X64896546Y-83171152D01*
X64914800Y-83079383D01*
X64914800Y-82985817D01*
X64909748Y-82960417D01*
X76055200Y-82960417D01*
X76055200Y-83053983D01*
X76073454Y-83145752D01*
X76109261Y-83232197D01*
X76161244Y-83309995D01*
X76227405Y-83376156D01*
X76305203Y-83428139D01*
X76391648Y-83463946D01*
X76483417Y-83482200D01*
X76576983Y-83482200D01*
X76668752Y-83463946D01*
X76755197Y-83428139D01*
X76832995Y-83376156D01*
X76899156Y-83309995D01*
X76951139Y-83232197D01*
X76986946Y-83145752D01*
X77005200Y-83053983D01*
X77005200Y-82960417D01*
X76986946Y-82868648D01*
X76951139Y-82782203D01*
X76899156Y-82704405D01*
X76832995Y-82638244D01*
X76755197Y-82586261D01*
X76668752Y-82550454D01*
X76576983Y-82532200D01*
X76483417Y-82532200D01*
X76391648Y-82550454D01*
X76305203Y-82586261D01*
X76227405Y-82638244D01*
X76161244Y-82704405D01*
X76109261Y-82782203D01*
X76073454Y-82868648D01*
X76055200Y-82960417D01*
X64909748Y-82960417D01*
X64896546Y-82894048D01*
X64860739Y-82807603D01*
X64808756Y-82729805D01*
X64742595Y-82663644D01*
X64664797Y-82611661D01*
X64578352Y-82575854D01*
X64486583Y-82557600D01*
X64393017Y-82557600D01*
X64301248Y-82575854D01*
X64214803Y-82611661D01*
X64137005Y-82663644D01*
X64070844Y-82729805D01*
X64018861Y-82807603D01*
X63983054Y-82894048D01*
X63964800Y-82985817D01*
X51329562Y-82985817D01*
X51869600Y-81741217D01*
X66809600Y-81741217D01*
X66809600Y-81834783D01*
X66827854Y-81926552D01*
X66863661Y-82012997D01*
X66915644Y-82090795D01*
X66981805Y-82156956D01*
X67059603Y-82208939D01*
X67146048Y-82244746D01*
X67237817Y-82263000D01*
X67331383Y-82263000D01*
X67423152Y-82244746D01*
X67509597Y-82208939D01*
X67587395Y-82156956D01*
X67653556Y-82090795D01*
X67705539Y-82012997D01*
X67741346Y-81926552D01*
X67759600Y-81834783D01*
X67759600Y-81741217D01*
X67741346Y-81649448D01*
X67705539Y-81563003D01*
X67653556Y-81485205D01*
X67587395Y-81419044D01*
X67509597Y-81367061D01*
X67423152Y-81331254D01*
X67331383Y-81313000D01*
X67237817Y-81313000D01*
X67146048Y-81331254D01*
X67059603Y-81367061D01*
X66981805Y-81419044D01*
X66915644Y-81485205D01*
X66863661Y-81563003D01*
X66827854Y-81649448D01*
X66809600Y-81741217D01*
X51869600Y-81741217D01*
X52596998Y-80064817D01*
X72854800Y-80064817D01*
X72854800Y-80158383D01*
X72873054Y-80250152D01*
X72908861Y-80336597D01*
X72960844Y-80414395D01*
X73027005Y-80480556D01*
X73104803Y-80532539D01*
X73191248Y-80568346D01*
X73283017Y-80586600D01*
X73376583Y-80586600D01*
X73468352Y-80568346D01*
X73554797Y-80532539D01*
X73632595Y-80480556D01*
X73698756Y-80414395D01*
X73750739Y-80336597D01*
X73786546Y-80250152D01*
X73804800Y-80158383D01*
X73804800Y-80064817D01*
X73786546Y-79973048D01*
X73750739Y-79886603D01*
X73698756Y-79808805D01*
X73632595Y-79742644D01*
X73554797Y-79690661D01*
X73468352Y-79654854D01*
X73376583Y-79636600D01*
X73283017Y-79636600D01*
X73191248Y-79654854D01*
X73104803Y-79690661D01*
X73027005Y-79742644D01*
X72960844Y-79808805D01*
X72908861Y-79886603D01*
X72873054Y-79973048D01*
X72854800Y-80064817D01*
X52596998Y-80064817D01*
X54344676Y-76037029D01*
X62144799Y-76037029D01*
X62144799Y-76261489D01*
X62188589Y-76481635D01*
X62274486Y-76689008D01*
X62399189Y-76875639D01*
X62557906Y-77034356D01*
X62744537Y-77159059D01*
X62951910Y-77244956D01*
X63172056Y-77288746D01*
X63396516Y-77288746D01*
X63616662Y-77244956D01*
X63824035Y-77159059D01*
X64010666Y-77034356D01*
X64169383Y-76875639D01*
X64294086Y-76689008D01*
X64379983Y-76481635D01*
X64423773Y-76261489D01*
X64423773Y-76037029D01*
X76495426Y-76037029D01*
X76495426Y-76261489D01*
X76539216Y-76481635D01*
X76625113Y-76689008D01*
X76749816Y-76875639D01*
X76908533Y-77034356D01*
X77095164Y-77159059D01*
X77302537Y-77244956D01*
X77522683Y-77288746D01*
X77747143Y-77288746D01*
X77967289Y-77244956D01*
X78174662Y-77159059D01*
X78361293Y-77034356D01*
X78520010Y-76875639D01*
X78644713Y-76689008D01*
X78730610Y-76481635D01*
X78774400Y-76261489D01*
X78774400Y-76037029D01*
X78730610Y-75816883D01*
X78644713Y-75609510D01*
X78520010Y-75422879D01*
X78361293Y-75264162D01*
X78174662Y-75139459D01*
X77967289Y-75053562D01*
X77747143Y-75009772D01*
X77522683Y-75009772D01*
X77302537Y-75053562D01*
X77095164Y-75139459D01*
X76908533Y-75264162D01*
X76749816Y-75422879D01*
X76625113Y-75609510D01*
X76539216Y-75816883D01*
X76495426Y-76037029D01*
X64423773Y-76037029D01*
X64379983Y-75816883D01*
X64294086Y-75609510D01*
X64169383Y-75422879D01*
X64010666Y-75264162D01*
X63824035Y-75139459D01*
X63616662Y-75053562D01*
X63396516Y-75009772D01*
X63172056Y-75009772D01*
X62951910Y-75053562D01*
X62744537Y-75139459D01*
X62557906Y-75264162D01*
X62399189Y-75422879D01*
X62274486Y-75609510D01*
X62188589Y-75816883D01*
X62144799Y-76037029D01*
X54344676Y-76037029D01*
X56445329Y-71195757D01*
X56520490Y-71060477D01*
X56611757Y-70952693D01*
X56722226Y-70864683D01*
X56847683Y-70799809D01*
X56984113Y-70760318D01*
X57128450Y-70746999D01*
X59696148Y-70747001D01*
G37*
X59696148Y-70747001D02*
X59753046Y-70752580D01*
X59794844Y-70765199D01*
X59833383Y-70785691D01*
X59867213Y-70813282D01*
X59895041Y-70846921D01*
X59915805Y-70885322D01*
X59928713Y-70927022D01*
X59934602Y-70983050D01*
X59934601Y-74085503D01*
X59935766Y-74097335D01*
X59935745Y-74100415D01*
X59936119Y-74104237D01*
X59946319Y-74201285D01*
X59951335Y-74225719D01*
X59956002Y-74250183D01*
X59957111Y-74253859D01*
X59985967Y-74347078D01*
X59995641Y-74370093D01*
X60004964Y-74393166D01*
X60006766Y-74396557D01*
X60053179Y-74482395D01*
X60067121Y-74503065D01*
X60080764Y-74523913D01*
X60083191Y-74526889D01*
X60145393Y-74602078D01*
X60163101Y-74619663D01*
X60180516Y-74637446D01*
X60183474Y-74639894D01*
X60259095Y-74701570D01*
X60279841Y-74715354D01*
X60300424Y-74729447D01*
X60303802Y-74731273D01*
X60389963Y-74777085D01*
X60412976Y-74786570D01*
X60435913Y-74796401D01*
X60439581Y-74797537D01*
X60532999Y-74825742D01*
X60557491Y-74830592D01*
X60581831Y-74835765D01*
X60585644Y-74836166D01*
X60585647Y-74836167D01*
X60585650Y-74836167D01*
X60682767Y-74845689D01*
X60682778Y-74845689D01*
X60696098Y-74847001D01*
X80223102Y-74847001D01*
X80234934Y-74845836D01*
X80238013Y-74845857D01*
X80241835Y-74845483D01*
X80338883Y-74835283D01*
X80363317Y-74830267D01*
X80387781Y-74825600D01*
X80391457Y-74824491D01*
X80484676Y-74795635D01*
X80507691Y-74785961D01*
X80530764Y-74776638D01*
X80534155Y-74774836D01*
X80619993Y-74728423D01*
X80640663Y-74714481D01*
X80661511Y-74700838D01*
X80664487Y-74698411D01*
X80739676Y-74636209D01*
X80757261Y-74618501D01*
X80775044Y-74601086D01*
X80777492Y-74598128D01*
X80839168Y-74522507D01*
X80852952Y-74501761D01*
X80867045Y-74481178D01*
X80868871Y-74477800D01*
X80914683Y-74391639D01*
X80924168Y-74368626D01*
X80933999Y-74345689D01*
X80935135Y-74342021D01*
X80963340Y-74248603D01*
X80968190Y-74224111D01*
X80973363Y-74199771D01*
X80973765Y-74195952D01*
X80983287Y-74098835D01*
X80983287Y-74098824D01*
X80984599Y-74085504D01*
X80984599Y-70985454D01*
X80990178Y-70928556D01*
X81002797Y-70886758D01*
X81023289Y-70848219D01*
X81050880Y-70814389D01*
X81084519Y-70786561D01*
X81122920Y-70765797D01*
X81164620Y-70752889D01*
X81220638Y-70747001D01*
X83789969Y-70747001D01*
X83943985Y-70762102D01*
X84079197Y-70802924D01*
X84203903Y-70869232D01*
X84313355Y-70958498D01*
X84403890Y-71067936D01*
X84473558Y-71195041D01*
X90220612Y-84440001D01*
X90490646Y-85253826D01*
X90576231Y-85722092D01*
X90892294Y-88724651D01*
X91056232Y-91742822D01*
X91067263Y-94765421D01*
X90925355Y-97784723D01*
X90630583Y-100795958D01*
X90577438Y-101213715D01*
X90391091Y-102050191D01*
X90222716Y-102499151D01*
X84473871Y-115748239D01*
X84398708Y-115883522D01*
X84307438Y-115991310D01*
X84196973Y-116079316D01*
X84071517Y-116144190D01*
X83935086Y-116183681D01*
X83790760Y-116196999D01*
X81223052Y-116196999D01*
X81166154Y-116191420D01*
X81124356Y-116178801D01*
X81085817Y-116158309D01*
X81051987Y-116130718D01*
X81024157Y-116097077D01*
X81003395Y-116058679D01*
X80990487Y-116016977D01*
X80984599Y-115960960D01*
X80984599Y-112858496D01*
X80983434Y-112846664D01*
X80983455Y-112843585D01*
X80983081Y-112839764D01*
X80972881Y-112742715D01*
X80967865Y-112718281D01*
X80963198Y-112693817D01*
X80962089Y-112690141D01*
X80933233Y-112596922D01*
X80923569Y-112573932D01*
X80914236Y-112550833D01*
X80912439Y-112547453D01*
X80912435Y-112547445D01*
X80912430Y-112547438D01*
X80866021Y-112461605D01*
X80852079Y-112440935D01*
X80838436Y-112420087D01*
X80836009Y-112417111D01*
X80773807Y-112341922D01*
X80756115Y-112324354D01*
X80738684Y-112306554D01*
X80735726Y-112304106D01*
X80660105Y-112242430D01*
X80639336Y-112228630D01*
X80618776Y-112214553D01*
X80615411Y-112212734D01*
X80615402Y-112212728D01*
X80615393Y-112212724D01*
X80529237Y-112166915D01*
X80506224Y-112157430D01*
X80483287Y-112147599D01*
X80479619Y-112146463D01*
X80386201Y-112118258D01*
X80361717Y-112113410D01*
X80337370Y-112108235D01*
X80333556Y-112107834D01*
X80333553Y-112107833D01*
X80333550Y-112107833D01*
X80236433Y-112098311D01*
X80236422Y-112098311D01*
X80223102Y-112096999D01*
X60696098Y-112096999D01*
X60684266Y-112098164D01*
X60681187Y-112098143D01*
X60677366Y-112098517D01*
X60580317Y-112108717D01*
X60555883Y-112113733D01*
X60531419Y-112118400D01*
X60527743Y-112119509D01*
X60434524Y-112148365D01*
X60411534Y-112158029D01*
X60388435Y-112167362D01*
X60385055Y-112169159D01*
X60385047Y-112169163D01*
X60385040Y-112169168D01*
X60299207Y-112215577D01*
X60278537Y-112229519D01*
X60257689Y-112243162D01*
X60254713Y-112245589D01*
X60179524Y-112307791D01*
X60161956Y-112325483D01*
X60144156Y-112342914D01*
X60141708Y-112345872D01*
X60080032Y-112421493D01*
X60066232Y-112442262D01*
X60052155Y-112462822D01*
X60050336Y-112466187D01*
X60050330Y-112466196D01*
X60050326Y-112466205D01*
X60004517Y-112552361D01*
X59995032Y-112575374D01*
X59985201Y-112598311D01*
X59984065Y-112601979D01*
X59955860Y-112695397D01*
X59951012Y-112719881D01*
X59945837Y-112744228D01*
X59945435Y-112748048D01*
X59935913Y-112845165D01*
X59935913Y-112845186D01*
X59934602Y-112858496D01*
X59934601Y-115958546D01*
X59929022Y-116015444D01*
X59916403Y-116057242D01*
X59895911Y-116095781D01*
X59868320Y-116129611D01*
X59834679Y-116157441D01*
X59796281Y-116178203D01*
X59754579Y-116191111D01*
X59698562Y-116196999D01*
X57129239Y-116196999D01*
X56975209Y-116181896D01*
X56839998Y-116141074D01*
X56715298Y-116074769D01*
X56605845Y-115985501D01*
X56515309Y-115876061D01*
X56445644Y-115748965D01*
X54247284Y-110682510D01*
X62144799Y-110682510D01*
X62144799Y-110906970D01*
X62188589Y-111127116D01*
X62274486Y-111334489D01*
X62399189Y-111521120D01*
X62557906Y-111679837D01*
X62744537Y-111804540D01*
X62951910Y-111890437D01*
X63172056Y-111934227D01*
X63396516Y-111934227D01*
X63616662Y-111890437D01*
X63824035Y-111804540D01*
X64010666Y-111679837D01*
X64169383Y-111521120D01*
X64294086Y-111334489D01*
X64379983Y-111127116D01*
X64423773Y-110906970D01*
X64423773Y-110682510D01*
X76495426Y-110682510D01*
X76495426Y-110906970D01*
X76539216Y-111127116D01*
X76625113Y-111334489D01*
X76749816Y-111521120D01*
X76908533Y-111679837D01*
X77095164Y-111804540D01*
X77302537Y-111890437D01*
X77522683Y-111934227D01*
X77747143Y-111934227D01*
X77967289Y-111890437D01*
X78174662Y-111804540D01*
X78361293Y-111679837D01*
X78520010Y-111521120D01*
X78644713Y-111334489D01*
X78730610Y-111127116D01*
X78774400Y-110906970D01*
X78774400Y-110682510D01*
X78730610Y-110462364D01*
X78644713Y-110254991D01*
X78520010Y-110068360D01*
X78361293Y-109909643D01*
X78174662Y-109784940D01*
X77967289Y-109699043D01*
X77747143Y-109655253D01*
X77522683Y-109655253D01*
X77302537Y-109699043D01*
X77095164Y-109784940D01*
X76908533Y-109909643D01*
X76749816Y-110068360D01*
X76625113Y-110254991D01*
X76539216Y-110462364D01*
X76495426Y-110682510D01*
X64423773Y-110682510D01*
X64379983Y-110462364D01*
X64294086Y-110254991D01*
X64169383Y-110068360D01*
X64010666Y-109909643D01*
X63824035Y-109784940D01*
X63616662Y-109699043D01*
X63396516Y-109655253D01*
X63172056Y-109655253D01*
X62951910Y-109699043D01*
X62744537Y-109784940D01*
X62557906Y-109909643D01*
X62399189Y-110068360D01*
X62274486Y-110254991D01*
X62188589Y-110462364D01*
X62144799Y-110682510D01*
X54247284Y-110682510D01*
X52121274Y-105782796D01*
X69044800Y-105782796D01*
X69044800Y-105876362D01*
X69063054Y-105968131D01*
X69098861Y-106054576D01*
X69150844Y-106132374D01*
X69217005Y-106198535D01*
X69294803Y-106250518D01*
X69381248Y-106286325D01*
X69473017Y-106304579D01*
X69566583Y-106304579D01*
X69658352Y-106286325D01*
X69744797Y-106250518D01*
X69822595Y-106198535D01*
X69888756Y-106132374D01*
X69940739Y-106054576D01*
X69976546Y-105968131D01*
X69994800Y-105876362D01*
X69994800Y-105782796D01*
X69976546Y-105691027D01*
X69940739Y-105604582D01*
X69888756Y-105526784D01*
X69822595Y-105460623D01*
X69744797Y-105408640D01*
X69658352Y-105372833D01*
X69566583Y-105354579D01*
X69473017Y-105354579D01*
X69381248Y-105372833D01*
X69294803Y-105408640D01*
X69217005Y-105460623D01*
X69150844Y-105526784D01*
X69098861Y-105604582D01*
X69063054Y-105691027D01*
X69044800Y-105782796D01*
X52121274Y-105782796D01*
X51834515Y-105121917D01*
X66695300Y-105121917D01*
X66695300Y-105215483D01*
X66713554Y-105307252D01*
X66749361Y-105393697D01*
X66801344Y-105471495D01*
X66867505Y-105537656D01*
X66945303Y-105589639D01*
X67031748Y-105625446D01*
X67123517Y-105643700D01*
X67217083Y-105643700D01*
X67308852Y-105625446D01*
X67395297Y-105589639D01*
X67473095Y-105537656D01*
X67539256Y-105471495D01*
X67591239Y-105393697D01*
X67612031Y-105343500D01*
X73687317Y-105343500D01*
X73687317Y-105437066D01*
X73705571Y-105528835D01*
X73741378Y-105615280D01*
X73793361Y-105693078D01*
X73859522Y-105759239D01*
X73937320Y-105811222D01*
X74023765Y-105847029D01*
X74115534Y-105865283D01*
X74209100Y-105865283D01*
X74300869Y-105847029D01*
X74387314Y-105811222D01*
X74465112Y-105759239D01*
X74531273Y-105693078D01*
X74583256Y-105615280D01*
X74619063Y-105528835D01*
X74637317Y-105437066D01*
X74637317Y-105343500D01*
X74619063Y-105251731D01*
X74583256Y-105165286D01*
X74531273Y-105087488D01*
X74465112Y-105021327D01*
X74387314Y-104969344D01*
X74300869Y-104933537D01*
X74209100Y-104915283D01*
X74115534Y-104915283D01*
X74023765Y-104933537D01*
X73937320Y-104969344D01*
X73859522Y-105021327D01*
X73793361Y-105087488D01*
X73741378Y-105165286D01*
X73705571Y-105251731D01*
X73687317Y-105343500D01*
X67612031Y-105343500D01*
X67627046Y-105307252D01*
X67645300Y-105215483D01*
X67645300Y-105121917D01*
X67627046Y-105030148D01*
X67591239Y-104943703D01*
X67539256Y-104865905D01*
X67528568Y-104855217D01*
X75725000Y-104855217D01*
X75725000Y-104948783D01*
X75743254Y-105040552D01*
X75779061Y-105126997D01*
X75831044Y-105204795D01*
X75897205Y-105270956D01*
X75975003Y-105322939D01*
X76061448Y-105358746D01*
X76153217Y-105377000D01*
X76246783Y-105377000D01*
X76338552Y-105358746D01*
X76424997Y-105322939D01*
X76502795Y-105270956D01*
X76568956Y-105204795D01*
X76620939Y-105126997D01*
X76656746Y-105040552D01*
X76675000Y-104948783D01*
X76675000Y-104855217D01*
X76656746Y-104763448D01*
X76620939Y-104677003D01*
X76568956Y-104599205D01*
X76502795Y-104533044D01*
X76424997Y-104481061D01*
X76338552Y-104445254D01*
X76246783Y-104427000D01*
X76153217Y-104427000D01*
X76061448Y-104445254D01*
X75975003Y-104481061D01*
X75897205Y-104533044D01*
X75831044Y-104599205D01*
X75779061Y-104677003D01*
X75743254Y-104763448D01*
X75725000Y-104855217D01*
X67528568Y-104855217D01*
X67473095Y-104799744D01*
X67395297Y-104747761D01*
X67308852Y-104711954D01*
X67217083Y-104693700D01*
X67123517Y-104693700D01*
X67031748Y-104711954D01*
X66945303Y-104747761D01*
X66867505Y-104799744D01*
X66801344Y-104865905D01*
X66749361Y-104943703D01*
X66713554Y-105030148D01*
X66695300Y-105121917D01*
X51834515Y-105121917D01*
X51322029Y-103940817D01*
X63075800Y-103940817D01*
X63075800Y-104034383D01*
X63094054Y-104126152D01*
X63129861Y-104212597D01*
X63181844Y-104290395D01*
X63248005Y-104356556D01*
X63325803Y-104408539D01*
X63412248Y-104444346D01*
X63504017Y-104462600D01*
X63597583Y-104462600D01*
X63689352Y-104444346D01*
X63775797Y-104408539D01*
X63853595Y-104356556D01*
X63919756Y-104290395D01*
X63971739Y-104212597D01*
X64007546Y-104126152D01*
X64025800Y-104034383D01*
X64025800Y-103940817D01*
X64007546Y-103849048D01*
X63971739Y-103762603D01*
X63919756Y-103684805D01*
X63853595Y-103618644D01*
X63775797Y-103566661D01*
X63689352Y-103530854D01*
X63597583Y-103512600D01*
X63504017Y-103512600D01*
X63412248Y-103530854D01*
X63325803Y-103566661D01*
X63248005Y-103618644D01*
X63181844Y-103684805D01*
X63129861Y-103762603D01*
X63094054Y-103849048D01*
X63075800Y-103940817D01*
X51322029Y-103940817D01*
X50972671Y-103135667D01*
X78409750Y-103135667D01*
X78409750Y-103229233D01*
X78428004Y-103321002D01*
X78463811Y-103407447D01*
X78515794Y-103485245D01*
X78581955Y-103551406D01*
X78659753Y-103603389D01*
X78746198Y-103639196D01*
X78837967Y-103657450D01*
X78931533Y-103657450D01*
X79023302Y-103639196D01*
X79109747Y-103603389D01*
X79187545Y-103551406D01*
X79253706Y-103485245D01*
X79305689Y-103407447D01*
X79341496Y-103321002D01*
X79359750Y-103229233D01*
X79359750Y-103135667D01*
X79341496Y-103043898D01*
X79305689Y-102957453D01*
X79253706Y-102879655D01*
X79187545Y-102813494D01*
X79109747Y-102761511D01*
X79023302Y-102725704D01*
X78931533Y-102707450D01*
X78837967Y-102707450D01*
X78746198Y-102725704D01*
X78659753Y-102761511D01*
X78581955Y-102813494D01*
X78515794Y-102879655D01*
X78463811Y-102957453D01*
X78428004Y-103043898D01*
X78409750Y-103135667D01*
X50972671Y-103135667D01*
X50698589Y-102504006D01*
X50526385Y-101985017D01*
X61424800Y-101985017D01*
X61424800Y-102078583D01*
X61443054Y-102170352D01*
X61478861Y-102256797D01*
X61530844Y-102334595D01*
X61597005Y-102400756D01*
X61674803Y-102452739D01*
X61761248Y-102488546D01*
X61853017Y-102506800D01*
X61946583Y-102506800D01*
X62038352Y-102488546D01*
X62124797Y-102452739D01*
X62169160Y-102423096D01*
X64264499Y-102423096D01*
X64264499Y-102516662D01*
X64282753Y-102608431D01*
X64318560Y-102694876D01*
X64370543Y-102772674D01*
X64436704Y-102838835D01*
X64514502Y-102890818D01*
X64600947Y-102926625D01*
X64692716Y-102944879D01*
X64786282Y-102944879D01*
X64878051Y-102926625D01*
X64964496Y-102890818D01*
X65042294Y-102838835D01*
X65108455Y-102772674D01*
X65160438Y-102694876D01*
X65196245Y-102608431D01*
X65209096Y-102543821D01*
X65971400Y-102543821D01*
X65971400Y-102637387D01*
X65989654Y-102729156D01*
X66025461Y-102815601D01*
X66077444Y-102893399D01*
X66143605Y-102959560D01*
X66221403Y-103011543D01*
X66307848Y-103047350D01*
X66399617Y-103065604D01*
X66493183Y-103065604D01*
X66584952Y-103047350D01*
X66671397Y-103011543D01*
X66749195Y-102959560D01*
X66815356Y-102893399D01*
X66867339Y-102815601D01*
X66903146Y-102729156D01*
X66921400Y-102637387D01*
X66921400Y-102543821D01*
X66903146Y-102452052D01*
X66867339Y-102365607D01*
X66815356Y-102287809D01*
X66749195Y-102221648D01*
X66671397Y-102169665D01*
X66584952Y-102133858D01*
X66493183Y-102115604D01*
X66399617Y-102115604D01*
X66307848Y-102133858D01*
X66221403Y-102169665D01*
X66143605Y-102221648D01*
X66077444Y-102287809D01*
X66025461Y-102365607D01*
X65989654Y-102452052D01*
X65971400Y-102543821D01*
X65209096Y-102543821D01*
X65214499Y-102516662D01*
X65214499Y-102423096D01*
X65196245Y-102331327D01*
X65160438Y-102244882D01*
X65108455Y-102167084D01*
X65042294Y-102100923D01*
X64964496Y-102048940D01*
X64878051Y-102013133D01*
X64786282Y-101994879D01*
X64692716Y-101994879D01*
X64600947Y-102013133D01*
X64514502Y-102048940D01*
X64436704Y-102100923D01*
X64370543Y-102167084D01*
X64318560Y-102244882D01*
X64282753Y-102331327D01*
X64264499Y-102423096D01*
X62169160Y-102423096D01*
X62202595Y-102400756D01*
X62268756Y-102334595D01*
X62320739Y-102256797D01*
X62356546Y-102170352D01*
X62374800Y-102078583D01*
X62374800Y-101985017D01*
X62356546Y-101893248D01*
X62320739Y-101806803D01*
X62268756Y-101729005D01*
X62219968Y-101680217D01*
X67762100Y-101680217D01*
X67762100Y-101773783D01*
X67780354Y-101865552D01*
X67816161Y-101951997D01*
X67868144Y-102029795D01*
X67934305Y-102095956D01*
X68012103Y-102147939D01*
X68098548Y-102183746D01*
X68190317Y-102202000D01*
X68283883Y-102202000D01*
X68375652Y-102183746D01*
X68462097Y-102147939D01*
X68539895Y-102095956D01*
X68606056Y-102029795D01*
X68658039Y-101951997D01*
X68693846Y-101865552D01*
X68707626Y-101796274D01*
X73506751Y-101796274D01*
X73506751Y-101889840D01*
X73525005Y-101981609D01*
X73560812Y-102068054D01*
X73612795Y-102145852D01*
X73678956Y-102212013D01*
X73756754Y-102263996D01*
X73843199Y-102299803D01*
X73934968Y-102318057D01*
X74028534Y-102318057D01*
X74120303Y-102299803D01*
X74206748Y-102263996D01*
X74284546Y-102212013D01*
X74350707Y-102145852D01*
X74402690Y-102068054D01*
X74438497Y-101981609D01*
X74456751Y-101889840D01*
X74456751Y-101796274D01*
X74438497Y-101704505D01*
X74412911Y-101642735D01*
X76069726Y-101642735D01*
X76069726Y-101736301D01*
X76087980Y-101828070D01*
X76123787Y-101914515D01*
X76175770Y-101992313D01*
X76241931Y-102058474D01*
X76319729Y-102110457D01*
X76406174Y-102146264D01*
X76497943Y-102164518D01*
X76591509Y-102164518D01*
X76683278Y-102146264D01*
X76769723Y-102110457D01*
X76847521Y-102058474D01*
X76913682Y-101992313D01*
X76965665Y-101914515D01*
X77001472Y-101828070D01*
X77019726Y-101736301D01*
X77019726Y-101654817D01*
X78341198Y-101654817D01*
X78341198Y-101748383D01*
X78359452Y-101840152D01*
X78395259Y-101926597D01*
X78447242Y-102004395D01*
X78513403Y-102070556D01*
X78591201Y-102122539D01*
X78677646Y-102158346D01*
X78769415Y-102176600D01*
X78862981Y-102176600D01*
X78954750Y-102158346D01*
X79041195Y-102122539D01*
X79118993Y-102070556D01*
X79185154Y-102004395D01*
X79237137Y-101926597D01*
X79272944Y-101840152D01*
X79291198Y-101748383D01*
X79291198Y-101654817D01*
X79272944Y-101563048D01*
X79237137Y-101476603D01*
X79185154Y-101398805D01*
X79118993Y-101332644D01*
X79041195Y-101280661D01*
X78954750Y-101244854D01*
X78862981Y-101226600D01*
X78769415Y-101226600D01*
X78677646Y-101244854D01*
X78591201Y-101280661D01*
X78513403Y-101332644D01*
X78447242Y-101398805D01*
X78395259Y-101476603D01*
X78359452Y-101563048D01*
X78341198Y-101654817D01*
X77019726Y-101654817D01*
X77019726Y-101642735D01*
X77001472Y-101550966D01*
X76965665Y-101464521D01*
X76913682Y-101386723D01*
X76847521Y-101320562D01*
X76769723Y-101268579D01*
X76683278Y-101232772D01*
X76591509Y-101214518D01*
X76497943Y-101214518D01*
X76406174Y-101232772D01*
X76319729Y-101268579D01*
X76241931Y-101320562D01*
X76175770Y-101386723D01*
X76123787Y-101464521D01*
X76087980Y-101550966D01*
X76069726Y-101642735D01*
X74412911Y-101642735D01*
X74402690Y-101618060D01*
X74350707Y-101540262D01*
X74284546Y-101474101D01*
X74206748Y-101422118D01*
X74120303Y-101386311D01*
X74028534Y-101368057D01*
X73934968Y-101368057D01*
X73843199Y-101386311D01*
X73756754Y-101422118D01*
X73678956Y-101474101D01*
X73612795Y-101540262D01*
X73560812Y-101618060D01*
X73525005Y-101704505D01*
X73506751Y-101796274D01*
X68707626Y-101796274D01*
X68707912Y-101794837D01*
X68773152Y-101794837D01*
X68864921Y-101776583D01*
X68951366Y-101740776D01*
X69029164Y-101688793D01*
X69095325Y-101622632D01*
X69147308Y-101544834D01*
X69171485Y-101486467D01*
X69257117Y-101503500D01*
X69350683Y-101503500D01*
X69442452Y-101485246D01*
X69528897Y-101449439D01*
X69606695Y-101397456D01*
X69672856Y-101331295D01*
X69711261Y-101273817D01*
X72499202Y-101273817D01*
X72499202Y-101367383D01*
X72517456Y-101459152D01*
X72553263Y-101545597D01*
X72605246Y-101623395D01*
X72671407Y-101689556D01*
X72749205Y-101741539D01*
X72835650Y-101777346D01*
X72927419Y-101795600D01*
X73020985Y-101795600D01*
X73112754Y-101777346D01*
X73199199Y-101741539D01*
X73276997Y-101689556D01*
X73343158Y-101623395D01*
X73395141Y-101545597D01*
X73430948Y-101459152D01*
X73449202Y-101367383D01*
X73449202Y-101273817D01*
X73430948Y-101182048D01*
X73395141Y-101095603D01*
X73343158Y-101017805D01*
X73276997Y-100951644D01*
X73199199Y-100899661D01*
X73112754Y-100863854D01*
X73020985Y-100845600D01*
X72927419Y-100845600D01*
X72835650Y-100863854D01*
X72749205Y-100899661D01*
X72671407Y-100951644D01*
X72605246Y-101017805D01*
X72553263Y-101095603D01*
X72517456Y-101182048D01*
X72499202Y-101273817D01*
X69711261Y-101273817D01*
X69724839Y-101253497D01*
X69760646Y-101167052D01*
X69778900Y-101075283D01*
X69778900Y-100981717D01*
X69760646Y-100889948D01*
X69724839Y-100803503D01*
X69672856Y-100725705D01*
X69606695Y-100659544D01*
X69528897Y-100607561D01*
X69481715Y-100588017D01*
X80932000Y-100588017D01*
X80932000Y-100681583D01*
X80950254Y-100773352D01*
X80986061Y-100859797D01*
X81038044Y-100937595D01*
X81104205Y-101003756D01*
X81182003Y-101055739D01*
X81268448Y-101091546D01*
X81360217Y-101109800D01*
X81453783Y-101109800D01*
X81545552Y-101091546D01*
X81631997Y-101055739D01*
X81709795Y-101003756D01*
X81775956Y-100937595D01*
X81827939Y-100859797D01*
X81863746Y-100773352D01*
X81882000Y-100681583D01*
X81882000Y-100588017D01*
X81871471Y-100535083D01*
X86642853Y-100535083D01*
X86642853Y-100759543D01*
X86686643Y-100979689D01*
X86772540Y-101187062D01*
X86897243Y-101373693D01*
X87055960Y-101532410D01*
X87242591Y-101657113D01*
X87449964Y-101743010D01*
X87670110Y-101786800D01*
X87894570Y-101786800D01*
X88114716Y-101743010D01*
X88322089Y-101657113D01*
X88508720Y-101532410D01*
X88667437Y-101373693D01*
X88792140Y-101187062D01*
X88878037Y-100979689D01*
X88921827Y-100759543D01*
X88921827Y-100535083D01*
X88878037Y-100314937D01*
X88792140Y-100107564D01*
X88667437Y-99920933D01*
X88508720Y-99762216D01*
X88322089Y-99637513D01*
X88114716Y-99551616D01*
X87894570Y-99507826D01*
X87670110Y-99507826D01*
X87449964Y-99551616D01*
X87242591Y-99637513D01*
X87055960Y-99762216D01*
X86897243Y-99920933D01*
X86772540Y-100107564D01*
X86686643Y-100314937D01*
X86642853Y-100535083D01*
X81871471Y-100535083D01*
X81863746Y-100496248D01*
X81827939Y-100409803D01*
X81775956Y-100332005D01*
X81709795Y-100265844D01*
X81631997Y-100213861D01*
X81545552Y-100178054D01*
X81453783Y-100159800D01*
X81360217Y-100159800D01*
X81268448Y-100178054D01*
X81182003Y-100213861D01*
X81104205Y-100265844D01*
X81038044Y-100332005D01*
X80986061Y-100409803D01*
X80950254Y-100496248D01*
X80932000Y-100588017D01*
X69481715Y-100588017D01*
X69442452Y-100571754D01*
X69350683Y-100553500D01*
X69257117Y-100553500D01*
X69165348Y-100571754D01*
X69078903Y-100607561D01*
X69001105Y-100659544D01*
X68934944Y-100725705D01*
X68882961Y-100803503D01*
X68858784Y-100861870D01*
X68773152Y-100844837D01*
X68679586Y-100844837D01*
X68587817Y-100863091D01*
X68501372Y-100898898D01*
X68423574Y-100950881D01*
X68357413Y-101017042D01*
X68305430Y-101094840D01*
X68269623Y-101181285D01*
X68255557Y-101252000D01*
X68190317Y-101252000D01*
X68098548Y-101270254D01*
X68012103Y-101306061D01*
X67934305Y-101358044D01*
X67868144Y-101424205D01*
X67816161Y-101502003D01*
X67780354Y-101588448D01*
X67762100Y-101680217D01*
X62219968Y-101680217D01*
X62202595Y-101662844D01*
X62124797Y-101610861D01*
X62038352Y-101575054D01*
X61946583Y-101556800D01*
X61853017Y-101556800D01*
X61761248Y-101575054D01*
X61674803Y-101610861D01*
X61597005Y-101662844D01*
X61530844Y-101729005D01*
X61478861Y-101806803D01*
X61443054Y-101893248D01*
X61424800Y-101985017D01*
X50526385Y-101985017D01*
X50428553Y-101690173D01*
X50342967Y-101221906D01*
X50270670Y-100535083D01*
X51997372Y-100535083D01*
X51997372Y-100759543D01*
X52041162Y-100979689D01*
X52127059Y-101187062D01*
X52251762Y-101373693D01*
X52410479Y-101532410D01*
X52597110Y-101657113D01*
X52804483Y-101743010D01*
X53024629Y-101786800D01*
X53249089Y-101786800D01*
X53469235Y-101743010D01*
X53676608Y-101657113D01*
X53863239Y-101532410D01*
X54021956Y-101373693D01*
X54146659Y-101187062D01*
X54232556Y-100979689D01*
X54276346Y-100759543D01*
X54276346Y-100603257D01*
X62887840Y-100603257D01*
X62887840Y-100696823D01*
X62906094Y-100788592D01*
X62941901Y-100875037D01*
X62993884Y-100952835D01*
X63060045Y-101018996D01*
X63137843Y-101070979D01*
X63224288Y-101106786D01*
X63316057Y-101125040D01*
X63409623Y-101125040D01*
X63501392Y-101106786D01*
X63587837Y-101070979D01*
X63665635Y-101018996D01*
X63731796Y-100952835D01*
X63783779Y-100875037D01*
X63819586Y-100788592D01*
X63837840Y-100696823D01*
X63837840Y-100676917D01*
X67139800Y-100676917D01*
X67139800Y-100770483D01*
X67158054Y-100862252D01*
X67193861Y-100948697D01*
X67245844Y-101026495D01*
X67312005Y-101092656D01*
X67389803Y-101144639D01*
X67476248Y-101180446D01*
X67568017Y-101198700D01*
X67661583Y-101198700D01*
X67753352Y-101180446D01*
X67839797Y-101144639D01*
X67917595Y-101092656D01*
X67983756Y-101026495D01*
X68035739Y-100948697D01*
X68071546Y-100862252D01*
X68089800Y-100770483D01*
X68089800Y-100676917D01*
X68071546Y-100585148D01*
X68035739Y-100498703D01*
X67983756Y-100420905D01*
X67917595Y-100354744D01*
X67839797Y-100302761D01*
X67753352Y-100266954D01*
X67661583Y-100248700D01*
X67568017Y-100248700D01*
X67476248Y-100266954D01*
X67389803Y-100302761D01*
X67312005Y-100354744D01*
X67245844Y-100420905D01*
X67193861Y-100498703D01*
X67158054Y-100585148D01*
X67139800Y-100676917D01*
X63837840Y-100676917D01*
X63837840Y-100603257D01*
X63819586Y-100511488D01*
X63783779Y-100425043D01*
X63731796Y-100347245D01*
X63665635Y-100281084D01*
X63587837Y-100229101D01*
X63501392Y-100193294D01*
X63409623Y-100175040D01*
X63316057Y-100175040D01*
X63224288Y-100193294D01*
X63137843Y-100229101D01*
X63060045Y-100281084D01*
X62993884Y-100347245D01*
X62941901Y-100425043D01*
X62906094Y-100511488D01*
X62887840Y-100603257D01*
X54276346Y-100603257D01*
X54276346Y-100535083D01*
X54232556Y-100314937D01*
X54146659Y-100107564D01*
X54112630Y-100056636D01*
X64322084Y-100056636D01*
X64322084Y-100150202D01*
X64340338Y-100241971D01*
X64376145Y-100328416D01*
X64428128Y-100406214D01*
X64494289Y-100472375D01*
X64572087Y-100524358D01*
X64658532Y-100560165D01*
X64750301Y-100578419D01*
X64843867Y-100578419D01*
X64935636Y-100560165D01*
X65022081Y-100524358D01*
X65099879Y-100472375D01*
X65166040Y-100406214D01*
X65218023Y-100328416D01*
X65253830Y-100241971D01*
X65272084Y-100150202D01*
X65272084Y-100056636D01*
X65256168Y-99976619D01*
X65267305Y-99987756D01*
X65345103Y-100039739D01*
X65431548Y-100075546D01*
X65523317Y-100093800D01*
X65616883Y-100093800D01*
X65708652Y-100075546D01*
X65795097Y-100039739D01*
X65872895Y-99987756D01*
X65939056Y-99921595D01*
X65991039Y-99843797D01*
X66026846Y-99757352D01*
X66045100Y-99665583D01*
X66045100Y-99572017D01*
X66026846Y-99480248D01*
X65991039Y-99393803D01*
X65939056Y-99316005D01*
X65872895Y-99249844D01*
X65795097Y-99197861D01*
X65708652Y-99162054D01*
X65616883Y-99143800D01*
X65523317Y-99143800D01*
X65431548Y-99162054D01*
X65345103Y-99197861D01*
X65267305Y-99249844D01*
X65201144Y-99316005D01*
X65149161Y-99393803D01*
X65113354Y-99480248D01*
X65095100Y-99572017D01*
X65095100Y-99665583D01*
X65111016Y-99745600D01*
X65099879Y-99734463D01*
X65022081Y-99682480D01*
X64935636Y-99646673D01*
X64843867Y-99628419D01*
X64750301Y-99628419D01*
X64658532Y-99646673D01*
X64572087Y-99682480D01*
X64494289Y-99734463D01*
X64428128Y-99800624D01*
X64376145Y-99878422D01*
X64340338Y-99964867D01*
X64322084Y-100056636D01*
X54112630Y-100056636D01*
X54021956Y-99920933D01*
X53863239Y-99762216D01*
X53676608Y-99637513D01*
X53469235Y-99551616D01*
X53249089Y-99507826D01*
X53024629Y-99507826D01*
X52804483Y-99551616D01*
X52597110Y-99637513D01*
X52410479Y-99762216D01*
X52251762Y-99920933D01*
X52127059Y-100107564D01*
X52041162Y-100314937D01*
X51997372Y-100535083D01*
X50270670Y-100535083D01*
X50118493Y-99089417D01*
X58859400Y-99089417D01*
X58859400Y-99182983D01*
X58877654Y-99274752D01*
X58913461Y-99361197D01*
X58965444Y-99438995D01*
X59031605Y-99505156D01*
X59109403Y-99557139D01*
X59195848Y-99592946D01*
X59287617Y-99611200D01*
X59381183Y-99611200D01*
X59472952Y-99592946D01*
X59559397Y-99557139D01*
X59637195Y-99505156D01*
X59703356Y-99438995D01*
X59755339Y-99361197D01*
X59791146Y-99274752D01*
X59809400Y-99182983D01*
X59809400Y-99089417D01*
X59800306Y-99043697D01*
X67419200Y-99043697D01*
X67419200Y-99137263D01*
X67437454Y-99229032D01*
X67473261Y-99315477D01*
X67525244Y-99393275D01*
X67591405Y-99459436D01*
X67669203Y-99511419D01*
X67755648Y-99547226D01*
X67847417Y-99565480D01*
X67940983Y-99565480D01*
X68032752Y-99547226D01*
X68119197Y-99511419D01*
X68196995Y-99459436D01*
X68263156Y-99393275D01*
X68315139Y-99315477D01*
X68350946Y-99229032D01*
X68369200Y-99137263D01*
X68369200Y-99043697D01*
X68350946Y-98951928D01*
X68315139Y-98865483D01*
X68264501Y-98789697D01*
X72702400Y-98789697D01*
X72702400Y-98883263D01*
X72720654Y-98975032D01*
X72756461Y-99061477D01*
X72808444Y-99139275D01*
X72874605Y-99205436D01*
X72952403Y-99257419D01*
X73038848Y-99293226D01*
X73130617Y-99311480D01*
X73224183Y-99311480D01*
X73315952Y-99293226D01*
X73402397Y-99257419D01*
X73446849Y-99227717D01*
X74068920Y-99227717D01*
X74068920Y-99321283D01*
X74087174Y-99413052D01*
X74122981Y-99499497D01*
X74174964Y-99577295D01*
X74241125Y-99643456D01*
X74318923Y-99695439D01*
X74405368Y-99731246D01*
X74497137Y-99749500D01*
X74590703Y-99749500D01*
X74682472Y-99731246D01*
X74768917Y-99695439D01*
X74846715Y-99643456D01*
X74912876Y-99577295D01*
X74955034Y-99514201D01*
X78181782Y-99514201D01*
X78181782Y-99607767D01*
X78200036Y-99699536D01*
X78235843Y-99785981D01*
X78287826Y-99863779D01*
X78353987Y-99929940D01*
X78431785Y-99981923D01*
X78518230Y-100017730D01*
X78609999Y-100035984D01*
X78703565Y-100035984D01*
X78795334Y-100017730D01*
X78881779Y-99981923D01*
X78959577Y-99929940D01*
X79025738Y-99863779D01*
X79077721Y-99785981D01*
X79113528Y-99699536D01*
X79131782Y-99607767D01*
X79131782Y-99514201D01*
X79113528Y-99422432D01*
X79077721Y-99335987D01*
X79025738Y-99258189D01*
X78959577Y-99192028D01*
X78881779Y-99140045D01*
X78795334Y-99104238D01*
X78703565Y-99085984D01*
X78609999Y-99085984D01*
X78518230Y-99104238D01*
X78431785Y-99140045D01*
X78353987Y-99192028D01*
X78287826Y-99258189D01*
X78235843Y-99335987D01*
X78200036Y-99422432D01*
X78181782Y-99514201D01*
X74955034Y-99514201D01*
X74964859Y-99499497D01*
X75000666Y-99413052D01*
X75018920Y-99321283D01*
X75018920Y-99227717D01*
X75000666Y-99135948D01*
X74964859Y-99049503D01*
X74912876Y-98971705D01*
X74846715Y-98905544D01*
X74768917Y-98853561D01*
X74682472Y-98817754D01*
X74590703Y-98799500D01*
X74497137Y-98799500D01*
X74405368Y-98817754D01*
X74318923Y-98853561D01*
X74241125Y-98905544D01*
X74174964Y-98971705D01*
X74122981Y-99049503D01*
X74087174Y-99135948D01*
X74068920Y-99227717D01*
X73446849Y-99227717D01*
X73480195Y-99205436D01*
X73546356Y-99139275D01*
X73598339Y-99061477D01*
X73634146Y-98975032D01*
X73652400Y-98883263D01*
X73652400Y-98789697D01*
X73634146Y-98697928D01*
X73598339Y-98611483D01*
X73546356Y-98533685D01*
X73480195Y-98467524D01*
X73402397Y-98415541D01*
X73315952Y-98379734D01*
X73224183Y-98361480D01*
X73130617Y-98361480D01*
X73038848Y-98379734D01*
X72952403Y-98415541D01*
X72874605Y-98467524D01*
X72808444Y-98533685D01*
X72756461Y-98611483D01*
X72720654Y-98697928D01*
X72702400Y-98789697D01*
X68264501Y-98789697D01*
X68263156Y-98787685D01*
X68196995Y-98721524D01*
X68119197Y-98669541D01*
X68032752Y-98633734D01*
X67940983Y-98615480D01*
X67847417Y-98615480D01*
X67755648Y-98633734D01*
X67669203Y-98669541D01*
X67591405Y-98721524D01*
X67525244Y-98787685D01*
X67473261Y-98865483D01*
X67437454Y-98951928D01*
X67419200Y-99043697D01*
X59800306Y-99043697D01*
X59791146Y-98997648D01*
X59755339Y-98911203D01*
X59703356Y-98833405D01*
X59637195Y-98767244D01*
X59559397Y-98715261D01*
X59472952Y-98679454D01*
X59381183Y-98661200D01*
X59287617Y-98661200D01*
X59195848Y-98679454D01*
X59109403Y-98715261D01*
X59031605Y-98767244D01*
X58965444Y-98833405D01*
X58913461Y-98911203D01*
X58877654Y-98997648D01*
X58859400Y-99089417D01*
X50118493Y-99089417D01*
X50026905Y-98219348D01*
X49988627Y-97514617D01*
X57665600Y-97514617D01*
X57665600Y-97608183D01*
X57683854Y-97699952D01*
X57719661Y-97786397D01*
X57771644Y-97864195D01*
X57837805Y-97930356D01*
X57915603Y-97982339D01*
X58002048Y-98018146D01*
X58093817Y-98036400D01*
X58187383Y-98036400D01*
X58256674Y-98022617D01*
X62351900Y-98022617D01*
X62351900Y-98116183D01*
X62370154Y-98207952D01*
X62405961Y-98294397D01*
X62457944Y-98372195D01*
X62524105Y-98438356D01*
X62601903Y-98490339D01*
X62688348Y-98526146D01*
X62780117Y-98544400D01*
X62873683Y-98544400D01*
X62965452Y-98526146D01*
X63051897Y-98490339D01*
X63129695Y-98438356D01*
X63195856Y-98372195D01*
X63247839Y-98294397D01*
X63283646Y-98207952D01*
X63301900Y-98116183D01*
X63301900Y-98022617D01*
X63283646Y-97930848D01*
X63247839Y-97844403D01*
X63195856Y-97766605D01*
X63129695Y-97700444D01*
X63051897Y-97648461D01*
X63018717Y-97634717D01*
X75765729Y-97634717D01*
X75765729Y-97728283D01*
X75783983Y-97820052D01*
X75819790Y-97906497D01*
X75871773Y-97984295D01*
X75937934Y-98050456D01*
X76015732Y-98102439D01*
X76102177Y-98138246D01*
X76193946Y-98156500D01*
X76287512Y-98156500D01*
X76379281Y-98138246D01*
X76443400Y-98111687D01*
X76484395Y-98173041D01*
X76550556Y-98239202D01*
X76628354Y-98291185D01*
X76714799Y-98326992D01*
X76806568Y-98345246D01*
X76900134Y-98345246D01*
X76991903Y-98326992D01*
X77078348Y-98291185D01*
X77156146Y-98239202D01*
X77222307Y-98173041D01*
X77274290Y-98095243D01*
X77310097Y-98008798D01*
X77328351Y-97917029D01*
X77328351Y-97823463D01*
X77310097Y-97731694D01*
X77274290Y-97645249D01*
X77222307Y-97567451D01*
X77173884Y-97519028D01*
X77221326Y-97499377D01*
X80180162Y-97499377D01*
X80180162Y-97592943D01*
X80198416Y-97684712D01*
X80234223Y-97771157D01*
X80286206Y-97848955D01*
X80352367Y-97915116D01*
X80430165Y-97967099D01*
X80516610Y-98002906D01*
X80608379Y-98021160D01*
X80701945Y-98021160D01*
X80793714Y-98002906D01*
X80880159Y-97967099D01*
X80957957Y-97915116D01*
X81024118Y-97848955D01*
X81076101Y-97771157D01*
X81111908Y-97684712D01*
X81130162Y-97592943D01*
X81130162Y-97499377D01*
X81111908Y-97407608D01*
X81086794Y-97346977D01*
X81881960Y-97346977D01*
X81881960Y-97440543D01*
X81900214Y-97532312D01*
X81936021Y-97618757D01*
X81988004Y-97696555D01*
X82054165Y-97762716D01*
X82131963Y-97814699D01*
X82218408Y-97850506D01*
X82310177Y-97868760D01*
X82403743Y-97868760D01*
X82481338Y-97853325D01*
X82490446Y-97875313D01*
X82542429Y-97953111D01*
X82608590Y-98019272D01*
X82686388Y-98071255D01*
X82772833Y-98107062D01*
X82864602Y-98125316D01*
X82958168Y-98125316D01*
X83049937Y-98107062D01*
X83136382Y-98071255D01*
X83214180Y-98019272D01*
X83280341Y-97953111D01*
X83332324Y-97875313D01*
X83368131Y-97788868D01*
X83386385Y-97697099D01*
X83386385Y-97603533D01*
X83368131Y-97511764D01*
X83332324Y-97425319D01*
X83280341Y-97347521D01*
X83214180Y-97281360D01*
X83136382Y-97229377D01*
X83049937Y-97193570D01*
X82958168Y-97175316D01*
X82864602Y-97175316D01*
X82787007Y-97190751D01*
X82777899Y-97168763D01*
X82725916Y-97090965D01*
X82659755Y-97024804D01*
X82581957Y-96972821D01*
X82495512Y-96937014D01*
X82403743Y-96918760D01*
X82310177Y-96918760D01*
X82218408Y-96937014D01*
X82131963Y-96972821D01*
X82054165Y-97024804D01*
X81988004Y-97090965D01*
X81936021Y-97168763D01*
X81900214Y-97255208D01*
X81881960Y-97346977D01*
X81086794Y-97346977D01*
X81076101Y-97321163D01*
X81024118Y-97243365D01*
X80957957Y-97177204D01*
X80880159Y-97125221D01*
X80793714Y-97089414D01*
X80701945Y-97071160D01*
X80608379Y-97071160D01*
X80516610Y-97089414D01*
X80430165Y-97125221D01*
X80352367Y-97177204D01*
X80286206Y-97243365D01*
X80234223Y-97321163D01*
X80198416Y-97407608D01*
X80180162Y-97499377D01*
X77221326Y-97499377D01*
X77232717Y-97494659D01*
X77310515Y-97442676D01*
X77376676Y-97376515D01*
X77428659Y-97298717D01*
X77464466Y-97212272D01*
X77482720Y-97120503D01*
X77482720Y-97026937D01*
X77464466Y-96935168D01*
X77428659Y-96848723D01*
X77376676Y-96770925D01*
X77310515Y-96704764D01*
X77287101Y-96689119D01*
X77591900Y-96689119D01*
X77591900Y-96782685D01*
X77610154Y-96874454D01*
X77645961Y-96960899D01*
X77697944Y-97038697D01*
X77764105Y-97104858D01*
X77841903Y-97156841D01*
X77928348Y-97192648D01*
X78020117Y-97210902D01*
X78113683Y-97210902D01*
X78205452Y-97192648D01*
X78291897Y-97156841D01*
X78369695Y-97104858D01*
X78435856Y-97038697D01*
X78487839Y-96960899D01*
X78523646Y-96874454D01*
X78531777Y-96833575D01*
X78540403Y-96839339D01*
X78626848Y-96875146D01*
X78718617Y-96893400D01*
X78812183Y-96893400D01*
X78903952Y-96875146D01*
X78990397Y-96839339D01*
X79068195Y-96787356D01*
X79134356Y-96721195D01*
X79186339Y-96643397D01*
X79222146Y-96556952D01*
X79240400Y-96465183D01*
X79240400Y-96371617D01*
X79222146Y-96279848D01*
X79186339Y-96193403D01*
X79134356Y-96115605D01*
X79084511Y-96065760D01*
X79122839Y-96008397D01*
X79158646Y-95921952D01*
X79176900Y-95830183D01*
X79176900Y-95736617D01*
X79158646Y-95644848D01*
X79122839Y-95558403D01*
X79070856Y-95480605D01*
X79004695Y-95414444D01*
X78926897Y-95362461D01*
X78840452Y-95326654D01*
X78748683Y-95308400D01*
X78655117Y-95308400D01*
X78563348Y-95326654D01*
X78476903Y-95362461D01*
X78399105Y-95414444D01*
X78332944Y-95480605D01*
X78280961Y-95558403D01*
X78245154Y-95644848D01*
X78226900Y-95736617D01*
X78226900Y-95830183D01*
X78245154Y-95921952D01*
X78280961Y-96008397D01*
X78332944Y-96086195D01*
X78382789Y-96136040D01*
X78344461Y-96193403D01*
X78308654Y-96279848D01*
X78300523Y-96320727D01*
X78291897Y-96314963D01*
X78205452Y-96279156D01*
X78113683Y-96260902D01*
X78020117Y-96260902D01*
X77928348Y-96279156D01*
X77841903Y-96314963D01*
X77764105Y-96366946D01*
X77697944Y-96433107D01*
X77645961Y-96510905D01*
X77610154Y-96597350D01*
X77591900Y-96689119D01*
X77287101Y-96689119D01*
X77232717Y-96652781D01*
X77146272Y-96616974D01*
X77054503Y-96598720D01*
X76960937Y-96598720D01*
X76869168Y-96616974D01*
X76782723Y-96652781D01*
X76704925Y-96704764D01*
X76638764Y-96770925D01*
X76586781Y-96848723D01*
X76550974Y-96935168D01*
X76532720Y-97026937D01*
X76532720Y-97120503D01*
X76550974Y-97212272D01*
X76586781Y-97298717D01*
X76638764Y-97376515D01*
X76687187Y-97424938D01*
X76650680Y-97440059D01*
X76609685Y-97378705D01*
X76543524Y-97312544D01*
X76465726Y-97260561D01*
X76379281Y-97224754D01*
X76287512Y-97206500D01*
X76193946Y-97206500D01*
X76102177Y-97224754D01*
X76015732Y-97260561D01*
X75937934Y-97312544D01*
X75871773Y-97378705D01*
X75819790Y-97456503D01*
X75783983Y-97542948D01*
X75765729Y-97634717D01*
X63018717Y-97634717D01*
X62965452Y-97612654D01*
X62873683Y-97594400D01*
X62780117Y-97594400D01*
X62688348Y-97612654D01*
X62601903Y-97648461D01*
X62524105Y-97700444D01*
X62457944Y-97766605D01*
X62405961Y-97844403D01*
X62370154Y-97930848D01*
X62351900Y-98022617D01*
X58256674Y-98022617D01*
X58279152Y-98018146D01*
X58365597Y-97982339D01*
X58443395Y-97930356D01*
X58509556Y-97864195D01*
X58561539Y-97786397D01*
X58597346Y-97699952D01*
X58615600Y-97608183D01*
X58615600Y-97514617D01*
X58605496Y-97463817D01*
X60848190Y-97463817D01*
X60848190Y-97557383D01*
X60866444Y-97649152D01*
X60902251Y-97735597D01*
X60954234Y-97813395D01*
X61020395Y-97879556D01*
X61098193Y-97931539D01*
X61184638Y-97967346D01*
X61276407Y-97985600D01*
X61369973Y-97985600D01*
X61461742Y-97967346D01*
X61548187Y-97931539D01*
X61625985Y-97879556D01*
X61692146Y-97813395D01*
X61744129Y-97735597D01*
X61779936Y-97649152D01*
X61798190Y-97557383D01*
X61798190Y-97463817D01*
X61779936Y-97372048D01*
X61744129Y-97285603D01*
X61692146Y-97207805D01*
X61625985Y-97141644D01*
X61548187Y-97089661D01*
X61461742Y-97053854D01*
X61369973Y-97035600D01*
X61276407Y-97035600D01*
X61184638Y-97053854D01*
X61098193Y-97089661D01*
X61020395Y-97141644D01*
X60954234Y-97207805D01*
X60902251Y-97285603D01*
X60866444Y-97372048D01*
X60848190Y-97463817D01*
X58605496Y-97463817D01*
X58597346Y-97422848D01*
X58561539Y-97336403D01*
X58509556Y-97258605D01*
X58443395Y-97192444D01*
X58365597Y-97140461D01*
X58279152Y-97104654D01*
X58187383Y-97086400D01*
X58093817Y-97086400D01*
X58002048Y-97104654D01*
X57915603Y-97140461D01*
X57837805Y-97192444D01*
X57771644Y-97258605D01*
X57719661Y-97336403D01*
X57683854Y-97422848D01*
X57665600Y-97514617D01*
X49988627Y-97514617D01*
X49929302Y-96422417D01*
X60848190Y-96422417D01*
X60848190Y-96515983D01*
X60866444Y-96607752D01*
X60902251Y-96694197D01*
X60954234Y-96771995D01*
X61020395Y-96838156D01*
X61098193Y-96890139D01*
X61184638Y-96925946D01*
X61276407Y-96944200D01*
X61369973Y-96944200D01*
X61461742Y-96925946D01*
X61548187Y-96890139D01*
X61625985Y-96838156D01*
X61686124Y-96778017D01*
X62390000Y-96778017D01*
X62390000Y-96871583D01*
X62408254Y-96963352D01*
X62444061Y-97049797D01*
X62496044Y-97127595D01*
X62562205Y-97193756D01*
X62640003Y-97245739D01*
X62726448Y-97281546D01*
X62818217Y-97299800D01*
X62911783Y-97299800D01*
X63003552Y-97281546D01*
X63089997Y-97245739D01*
X63167795Y-97193756D01*
X63233956Y-97127595D01*
X63285939Y-97049797D01*
X63321746Y-96963352D01*
X63340000Y-96871583D01*
X63340000Y-96778017D01*
X63322044Y-96687742D01*
X64365607Y-96687742D01*
X64365607Y-96781308D01*
X64383861Y-96873077D01*
X64419668Y-96959522D01*
X64471651Y-97037320D01*
X64537812Y-97103481D01*
X64615610Y-97155464D01*
X64702055Y-97191271D01*
X64793824Y-97209525D01*
X64887390Y-97209525D01*
X64979159Y-97191271D01*
X65065604Y-97155464D01*
X65078106Y-97147111D01*
X65129670Y-97198675D01*
X65207468Y-97250658D01*
X65293913Y-97286465D01*
X65385682Y-97304719D01*
X65479248Y-97304719D01*
X65571017Y-97286465D01*
X65657462Y-97250658D01*
X65735260Y-97198675D01*
X65801421Y-97132514D01*
X65853404Y-97054716D01*
X65889211Y-96968271D01*
X65907465Y-96876502D01*
X65907465Y-96782936D01*
X65906927Y-96780229D01*
X70556101Y-96780229D01*
X70556101Y-96873795D01*
X70574355Y-96965564D01*
X70610162Y-97052009D01*
X70662145Y-97129807D01*
X70728306Y-97195968D01*
X70806104Y-97247951D01*
X70892549Y-97283758D01*
X70984318Y-97302012D01*
X71077884Y-97302012D01*
X71169653Y-97283758D01*
X71256098Y-97247951D01*
X71333896Y-97195968D01*
X71400057Y-97129807D01*
X71452040Y-97052009D01*
X71487847Y-96965564D01*
X71506101Y-96873795D01*
X71506101Y-96780233D01*
X71902300Y-96780233D01*
X71902300Y-96873799D01*
X71920554Y-96965568D01*
X71956361Y-97052013D01*
X72008344Y-97129811D01*
X72074505Y-97195972D01*
X72152303Y-97247955D01*
X72238748Y-97283762D01*
X72330517Y-97302016D01*
X72424083Y-97302016D01*
X72515852Y-97283762D01*
X72602297Y-97247955D01*
X72680095Y-97195972D01*
X72746256Y-97129811D01*
X72798239Y-97052013D01*
X72834046Y-96965568D01*
X72852300Y-96873799D01*
X72852300Y-96780233D01*
X72834046Y-96688464D01*
X72798239Y-96602019D01*
X72746256Y-96524221D01*
X72680095Y-96458060D01*
X72602297Y-96406077D01*
X72515852Y-96370270D01*
X72424083Y-96352016D01*
X72330517Y-96352016D01*
X72238748Y-96370270D01*
X72152303Y-96406077D01*
X72074505Y-96458060D01*
X72008344Y-96524221D01*
X71956361Y-96602019D01*
X71920554Y-96688464D01*
X71902300Y-96780233D01*
X71506101Y-96780233D01*
X71506101Y-96780229D01*
X71487847Y-96688460D01*
X71452040Y-96602015D01*
X71400057Y-96524217D01*
X71333896Y-96458056D01*
X71256098Y-96406073D01*
X71169653Y-96370266D01*
X71077884Y-96352012D01*
X70984318Y-96352012D01*
X70892549Y-96370266D01*
X70806104Y-96406073D01*
X70728306Y-96458056D01*
X70662145Y-96524217D01*
X70610162Y-96602015D01*
X70574355Y-96688460D01*
X70556101Y-96780229D01*
X65906927Y-96780229D01*
X65889211Y-96691167D01*
X65853404Y-96604722D01*
X65801421Y-96526924D01*
X65735260Y-96460763D01*
X65657462Y-96408780D01*
X65571017Y-96372973D01*
X65479248Y-96354719D01*
X65385682Y-96354719D01*
X65293913Y-96372973D01*
X65207468Y-96408780D01*
X65194966Y-96417133D01*
X65143402Y-96365569D01*
X65065604Y-96313586D01*
X64979159Y-96277779D01*
X64887390Y-96259525D01*
X64793824Y-96259525D01*
X64702055Y-96277779D01*
X64615610Y-96313586D01*
X64537812Y-96365569D01*
X64471651Y-96431730D01*
X64419668Y-96509528D01*
X64383861Y-96595973D01*
X64365607Y-96687742D01*
X63322044Y-96687742D01*
X63321746Y-96686248D01*
X63285939Y-96599803D01*
X63233956Y-96522005D01*
X63167795Y-96455844D01*
X63089997Y-96403861D01*
X63003552Y-96368054D01*
X62911783Y-96349800D01*
X62818217Y-96349800D01*
X62726448Y-96368054D01*
X62640003Y-96403861D01*
X62562205Y-96455844D01*
X62496044Y-96522005D01*
X62444061Y-96599803D01*
X62408254Y-96686248D01*
X62390000Y-96778017D01*
X61686124Y-96778017D01*
X61692146Y-96771995D01*
X61744129Y-96694197D01*
X61779936Y-96607752D01*
X61798190Y-96515983D01*
X61798190Y-96422417D01*
X61779936Y-96330648D01*
X61744129Y-96244203D01*
X61692146Y-96166405D01*
X61625985Y-96100244D01*
X61548187Y-96048261D01*
X61461742Y-96012454D01*
X61369973Y-95994200D01*
X61276407Y-95994200D01*
X61184638Y-96012454D01*
X61098193Y-96048261D01*
X61020395Y-96100244D01*
X60954234Y-96166405D01*
X60902251Y-96244203D01*
X60866444Y-96330648D01*
X60848190Y-96422417D01*
X49929302Y-96422417D01*
X49900329Y-95889017D01*
X56065400Y-95889017D01*
X56065400Y-95982583D01*
X56083654Y-96074352D01*
X56119461Y-96160797D01*
X56171444Y-96238595D01*
X56237605Y-96304756D01*
X56315403Y-96356739D01*
X56401848Y-96392546D01*
X56493617Y-96410800D01*
X56587183Y-96410800D01*
X56678952Y-96392546D01*
X56765397Y-96356739D01*
X56843195Y-96304756D01*
X56909356Y-96238595D01*
X56961339Y-96160797D01*
X56997146Y-96074352D01*
X57015400Y-95982583D01*
X57015400Y-95889017D01*
X56997146Y-95797248D01*
X56961339Y-95710803D01*
X56909356Y-95633005D01*
X56843195Y-95566844D01*
X56765397Y-95514861D01*
X56678952Y-95479054D01*
X56587183Y-95460800D01*
X56493617Y-95460800D01*
X56401848Y-95479054D01*
X56315403Y-95514861D01*
X56237605Y-95566844D01*
X56171444Y-95633005D01*
X56119461Y-95710803D01*
X56083654Y-95797248D01*
X56065400Y-95889017D01*
X49900329Y-95889017D01*
X49871908Y-95365773D01*
X64681080Y-95365773D01*
X64681080Y-95459339D01*
X64699334Y-95551108D01*
X64735141Y-95637553D01*
X64787124Y-95715351D01*
X64853285Y-95781512D01*
X64931083Y-95833495D01*
X65017528Y-95869302D01*
X65109297Y-95887556D01*
X65202863Y-95887556D01*
X65294632Y-95869302D01*
X65381077Y-95833495D01*
X65458875Y-95781512D01*
X65525036Y-95715351D01*
X65577019Y-95637553D01*
X65612826Y-95551108D01*
X65631080Y-95459339D01*
X65631080Y-95365773D01*
X65612826Y-95274004D01*
X65594026Y-95228617D01*
X84005400Y-95228617D01*
X84005400Y-95322183D01*
X84023654Y-95413952D01*
X84059461Y-95500397D01*
X84111444Y-95578195D01*
X84177605Y-95644356D01*
X84255403Y-95696339D01*
X84341848Y-95732146D01*
X84433617Y-95750400D01*
X84527183Y-95750400D01*
X84618952Y-95732146D01*
X84705397Y-95696339D01*
X84783195Y-95644356D01*
X84849356Y-95578195D01*
X84901339Y-95500397D01*
X84937146Y-95413952D01*
X84955400Y-95322183D01*
X84955400Y-95228617D01*
X84937146Y-95136848D01*
X84901339Y-95050403D01*
X84849356Y-94972605D01*
X84783195Y-94906444D01*
X84705397Y-94854461D01*
X84618952Y-94818654D01*
X84527183Y-94800400D01*
X84433617Y-94800400D01*
X84341848Y-94818654D01*
X84255403Y-94854461D01*
X84177605Y-94906444D01*
X84111444Y-94972605D01*
X84059461Y-95050403D01*
X84023654Y-95136848D01*
X84005400Y-95228617D01*
X65594026Y-95228617D01*
X65577019Y-95187559D01*
X65525036Y-95109761D01*
X65458875Y-95043600D01*
X65381077Y-94991617D01*
X65294632Y-94955810D01*
X65202863Y-94937556D01*
X65109297Y-94937556D01*
X65017528Y-94955810D01*
X64931083Y-94991617D01*
X64853285Y-95043600D01*
X64787124Y-95109761D01*
X64735141Y-95187559D01*
X64699334Y-95274004D01*
X64681080Y-95365773D01*
X49871908Y-95365773D01*
X49862967Y-95201178D01*
X49860565Y-94542817D01*
X59754618Y-94542817D01*
X59754618Y-94636383D01*
X59772872Y-94728152D01*
X59808679Y-94814597D01*
X59860662Y-94892395D01*
X59926823Y-94958556D01*
X60004621Y-95010539D01*
X60091066Y-95046346D01*
X60182835Y-95064600D01*
X60276401Y-95064600D01*
X60368170Y-95046346D01*
X60454615Y-95010539D01*
X60532413Y-94958556D01*
X60598574Y-94892395D01*
X60650557Y-94814597D01*
X60686364Y-94728152D01*
X60704618Y-94636383D01*
X60704618Y-94542817D01*
X60686364Y-94451048D01*
X60650557Y-94364603D01*
X60598574Y-94286805D01*
X60575186Y-94263417D01*
X62021700Y-94263417D01*
X62021700Y-94356983D01*
X62039954Y-94448752D01*
X62075761Y-94535197D01*
X62127744Y-94612995D01*
X62193905Y-94679156D01*
X62271703Y-94731139D01*
X62358148Y-94766946D01*
X62449917Y-94785200D01*
X62543483Y-94785200D01*
X62635252Y-94766946D01*
X62721697Y-94731139D01*
X62799495Y-94679156D01*
X62865656Y-94612995D01*
X62917639Y-94535197D01*
X62953446Y-94448752D01*
X62971700Y-94356983D01*
X62971700Y-94263417D01*
X62964004Y-94224722D01*
X64767569Y-94224722D01*
X64767569Y-94318288D01*
X64785823Y-94410057D01*
X64821630Y-94496502D01*
X64873613Y-94574300D01*
X64939774Y-94640461D01*
X65017572Y-94692444D01*
X65104017Y-94728251D01*
X65195786Y-94746505D01*
X65289352Y-94746505D01*
X65381121Y-94728251D01*
X65467566Y-94692444D01*
X65545364Y-94640461D01*
X65611525Y-94574300D01*
X65663508Y-94496502D01*
X65699315Y-94410057D01*
X65717569Y-94318288D01*
X65717569Y-94224722D01*
X65712775Y-94200616D01*
X78597882Y-94200616D01*
X78597882Y-94294182D01*
X78616136Y-94385951D01*
X78651943Y-94472396D01*
X78703926Y-94550194D01*
X78770087Y-94616355D01*
X78847885Y-94668338D01*
X78934330Y-94704145D01*
X79026099Y-94722399D01*
X79119665Y-94722399D01*
X79211434Y-94704145D01*
X79297879Y-94668338D01*
X79375677Y-94616355D01*
X79441838Y-94550194D01*
X79493821Y-94472396D01*
X79529628Y-94385951D01*
X79547882Y-94294182D01*
X79547882Y-94200616D01*
X79529628Y-94108847D01*
X79493821Y-94022402D01*
X79441838Y-93944604D01*
X79375677Y-93878443D01*
X79297879Y-93826460D01*
X79211434Y-93790653D01*
X79119665Y-93772399D01*
X79026099Y-93772399D01*
X78934330Y-93790653D01*
X78847885Y-93826460D01*
X78770087Y-93878443D01*
X78703926Y-93944604D01*
X78651943Y-94022402D01*
X78616136Y-94108847D01*
X78597882Y-94200616D01*
X65712775Y-94200616D01*
X65699315Y-94132953D01*
X65663508Y-94046508D01*
X65611525Y-93968710D01*
X65545364Y-93902549D01*
X65467566Y-93850566D01*
X65381121Y-93814759D01*
X65289352Y-93796505D01*
X65195786Y-93796505D01*
X65104017Y-93814759D01*
X65017572Y-93850566D01*
X64939774Y-93902549D01*
X64873613Y-93968710D01*
X64821630Y-94046508D01*
X64785823Y-94132953D01*
X64767569Y-94224722D01*
X62964004Y-94224722D01*
X62953446Y-94171648D01*
X62917639Y-94085203D01*
X62865656Y-94007405D01*
X62799495Y-93941244D01*
X62721697Y-93889261D01*
X62635252Y-93853454D01*
X62543483Y-93835200D01*
X62449917Y-93835200D01*
X62358148Y-93853454D01*
X62271703Y-93889261D01*
X62193905Y-93941244D01*
X62127744Y-94007405D01*
X62075761Y-94085203D01*
X62039954Y-94171648D01*
X62021700Y-94263417D01*
X60575186Y-94263417D01*
X60532413Y-94220644D01*
X60454615Y-94168661D01*
X60368170Y-94132854D01*
X60276401Y-94114600D01*
X60182835Y-94114600D01*
X60091066Y-94132854D01*
X60004621Y-94168661D01*
X59926823Y-94220644D01*
X59860662Y-94286805D01*
X59808679Y-94364603D01*
X59772872Y-94451048D01*
X59754618Y-94542817D01*
X49860565Y-94542817D01*
X49852315Y-92282217D01*
X79585800Y-92282217D01*
X79585800Y-92375783D01*
X79604054Y-92467552D01*
X79639861Y-92553997D01*
X79691844Y-92631795D01*
X79758005Y-92697956D01*
X79835803Y-92749939D01*
X79922248Y-92785746D01*
X80014017Y-92804000D01*
X80107583Y-92804000D01*
X80199352Y-92785746D01*
X80285797Y-92749939D01*
X80363595Y-92697956D01*
X80378410Y-92683142D01*
X80386793Y-92691525D01*
X80464591Y-92743508D01*
X80551036Y-92779315D01*
X80642805Y-92797569D01*
X80736371Y-92797569D01*
X80828140Y-92779315D01*
X80914585Y-92743508D01*
X80992383Y-92691525D01*
X81058544Y-92625364D01*
X81110527Y-92547566D01*
X81146334Y-92461121D01*
X81164588Y-92369352D01*
X81164588Y-92275786D01*
X81146334Y-92184017D01*
X81110527Y-92097572D01*
X81058544Y-92019774D01*
X80992383Y-91953613D01*
X80914585Y-91901630D01*
X80828140Y-91865823D01*
X80736371Y-91847569D01*
X80642805Y-91847569D01*
X80551036Y-91865823D01*
X80464591Y-91901630D01*
X80386793Y-91953613D01*
X80371979Y-91968428D01*
X80363595Y-91960044D01*
X80285797Y-91908061D01*
X80199352Y-91872254D01*
X80107583Y-91854000D01*
X80014017Y-91854000D01*
X79922248Y-91872254D01*
X79835803Y-91908061D01*
X79758005Y-91960044D01*
X79691844Y-92026205D01*
X79639861Y-92104003D01*
X79604054Y-92190448D01*
X79585800Y-92282217D01*
X49852315Y-92282217D01*
X49851936Y-92178579D01*
X49907949Y-90986817D01*
X56065400Y-90986817D01*
X56065400Y-91080383D01*
X56083654Y-91172152D01*
X56119461Y-91258597D01*
X56171444Y-91336395D01*
X56237605Y-91402556D01*
X56315403Y-91454539D01*
X56401848Y-91490346D01*
X56493617Y-91508600D01*
X56587183Y-91508600D01*
X56678952Y-91490346D01*
X56765397Y-91454539D01*
X56843195Y-91402556D01*
X56909356Y-91336395D01*
X56915515Y-91327177D01*
X64655680Y-91327177D01*
X64655680Y-91420743D01*
X64673934Y-91512512D01*
X64709741Y-91598957D01*
X64761724Y-91676755D01*
X64827885Y-91742916D01*
X64905683Y-91794899D01*
X64992128Y-91830706D01*
X65083897Y-91848960D01*
X65177463Y-91848960D01*
X65269232Y-91830706D01*
X65355677Y-91794899D01*
X65433475Y-91742916D01*
X65485770Y-91690621D01*
X65559592Y-91739947D01*
X65646037Y-91775754D01*
X65737806Y-91794008D01*
X65831372Y-91794008D01*
X65923141Y-91775754D01*
X66009586Y-91739947D01*
X66087384Y-91687964D01*
X66153545Y-91621803D01*
X66205528Y-91544005D01*
X66241335Y-91457560D01*
X66259589Y-91365791D01*
X66259589Y-91272225D01*
X66241335Y-91180456D01*
X66205528Y-91094011D01*
X66199222Y-91084573D01*
X77780452Y-91084573D01*
X77780452Y-91178139D01*
X77798706Y-91269908D01*
X77834513Y-91356353D01*
X77886496Y-91434151D01*
X77952657Y-91500312D01*
X78030455Y-91552295D01*
X78116900Y-91588102D01*
X78208669Y-91606356D01*
X78302235Y-91606356D01*
X78394004Y-91588102D01*
X78480449Y-91552295D01*
X78505423Y-91535608D01*
X78551532Y-91581717D01*
X78629330Y-91633700D01*
X78715775Y-91669507D01*
X78807544Y-91687761D01*
X78901110Y-91687761D01*
X78992879Y-91669507D01*
X79079324Y-91633700D01*
X79157122Y-91581717D01*
X79223283Y-91515556D01*
X79275266Y-91437758D01*
X79311073Y-91351313D01*
X79329327Y-91259544D01*
X79329327Y-91165978D01*
X79324004Y-91139217D01*
X83980000Y-91139217D01*
X83980000Y-91232783D01*
X83998254Y-91324552D01*
X84034061Y-91410997D01*
X84086044Y-91488795D01*
X84152205Y-91554956D01*
X84230003Y-91606939D01*
X84316448Y-91642746D01*
X84408217Y-91661000D01*
X84501783Y-91661000D01*
X84593552Y-91642746D01*
X84679997Y-91606939D01*
X84757795Y-91554956D01*
X84823956Y-91488795D01*
X84875939Y-91410997D01*
X84911746Y-91324552D01*
X84930000Y-91232783D01*
X84930000Y-91139217D01*
X84911746Y-91047448D01*
X84875939Y-90961003D01*
X84823956Y-90883205D01*
X84757795Y-90817044D01*
X84679997Y-90765061D01*
X84593552Y-90729254D01*
X84501783Y-90711000D01*
X84408217Y-90711000D01*
X84316448Y-90729254D01*
X84230003Y-90765061D01*
X84152205Y-90817044D01*
X84086044Y-90883205D01*
X84034061Y-90961003D01*
X83998254Y-91047448D01*
X83980000Y-91139217D01*
X79324004Y-91139217D01*
X79311073Y-91074209D01*
X79275266Y-90987764D01*
X79223283Y-90909966D01*
X79157122Y-90843805D01*
X79094345Y-90801859D01*
X79102736Y-90781602D01*
X79120990Y-90689833D01*
X79120990Y-90596267D01*
X79102736Y-90504498D01*
X79066929Y-90418053D01*
X79014946Y-90340255D01*
X78948785Y-90274094D01*
X78870987Y-90222111D01*
X78784542Y-90186304D01*
X78692773Y-90168050D01*
X78599207Y-90168050D01*
X78507438Y-90186304D01*
X78420993Y-90222111D01*
X78343195Y-90274094D01*
X78277034Y-90340255D01*
X78225051Y-90418053D01*
X78189244Y-90504498D01*
X78170990Y-90596267D01*
X78170990Y-90663851D01*
X78116900Y-90674610D01*
X78030455Y-90710417D01*
X77952657Y-90762400D01*
X77886496Y-90828561D01*
X77834513Y-90906359D01*
X77798706Y-90992804D01*
X77780452Y-91084573D01*
X66199222Y-91084573D01*
X66153545Y-91016213D01*
X66087384Y-90950052D01*
X66009586Y-90898069D01*
X65923141Y-90862262D01*
X65831372Y-90844008D01*
X65737806Y-90844008D01*
X65646037Y-90862262D01*
X65559592Y-90898069D01*
X65481794Y-90950052D01*
X65429499Y-91002347D01*
X65355677Y-90953021D01*
X65269232Y-90917214D01*
X65177463Y-90898960D01*
X65083897Y-90898960D01*
X64992128Y-90917214D01*
X64905683Y-90953021D01*
X64827885Y-91005004D01*
X64761724Y-91071165D01*
X64709741Y-91148963D01*
X64673934Y-91235408D01*
X64655680Y-91327177D01*
X56915515Y-91327177D01*
X56961339Y-91258597D01*
X56997146Y-91172152D01*
X57015400Y-91080383D01*
X57015400Y-90986817D01*
X56997146Y-90895048D01*
X56961339Y-90808603D01*
X56909356Y-90730805D01*
X56843195Y-90664644D01*
X56765397Y-90612661D01*
X56678952Y-90576854D01*
X56587183Y-90558600D01*
X56493617Y-90558600D01*
X56401848Y-90576854D01*
X56315403Y-90612661D01*
X56237605Y-90664644D01*
X56171444Y-90730805D01*
X56119461Y-90808603D01*
X56083654Y-90895048D01*
X56065400Y-90986817D01*
X49907949Y-90986817D01*
X49991515Y-89208817D01*
X57030600Y-89208817D01*
X57030600Y-89302383D01*
X57048854Y-89394152D01*
X57084661Y-89480597D01*
X57136644Y-89558395D01*
X57202805Y-89624556D01*
X57280603Y-89676539D01*
X57367048Y-89712346D01*
X57458817Y-89730600D01*
X57552383Y-89730600D01*
X57644152Y-89712346D01*
X57730597Y-89676539D01*
X57808395Y-89624556D01*
X57874556Y-89558395D01*
X57919600Y-89490982D01*
X57919600Y-89556383D01*
X57937854Y-89648152D01*
X57973661Y-89734597D01*
X58025644Y-89812395D01*
X58091805Y-89878556D01*
X58169603Y-89930539D01*
X58256048Y-89966346D01*
X58347817Y-89984600D01*
X58441383Y-89984600D01*
X58446827Y-89983517D01*
X61704198Y-89983517D01*
X61704198Y-90077083D01*
X61722452Y-90168852D01*
X61758259Y-90255297D01*
X61810242Y-90333095D01*
X61876403Y-90399256D01*
X61954201Y-90451239D01*
X62040646Y-90487046D01*
X62132415Y-90505300D01*
X62225981Y-90505300D01*
X62317750Y-90487046D01*
X62404195Y-90451239D01*
X62481993Y-90399256D01*
X62548154Y-90333095D01*
X62600137Y-90255297D01*
X62635944Y-90168852D01*
X62650073Y-90097817D01*
X63101200Y-90097817D01*
X63101200Y-90191383D01*
X63119454Y-90283152D01*
X63155261Y-90369597D01*
X63207244Y-90447395D01*
X63273405Y-90513556D01*
X63351203Y-90565539D01*
X63437648Y-90601346D01*
X63529417Y-90619600D01*
X63622983Y-90619600D01*
X63714752Y-90601346D01*
X63801197Y-90565539D01*
X63878995Y-90513556D01*
X63945156Y-90447395D01*
X63997139Y-90369597D01*
X64032946Y-90283152D01*
X64051200Y-90191383D01*
X64051200Y-90176168D01*
X65309589Y-90176168D01*
X65309589Y-90269734D01*
X65327843Y-90361503D01*
X65363650Y-90447948D01*
X65415633Y-90525746D01*
X65481794Y-90591907D01*
X65559592Y-90643890D01*
X65646037Y-90679697D01*
X65737806Y-90697951D01*
X65831372Y-90697951D01*
X65923141Y-90679697D01*
X66009586Y-90643890D01*
X66087384Y-90591907D01*
X66153545Y-90525746D01*
X66205528Y-90447948D01*
X66241335Y-90361503D01*
X66259589Y-90269734D01*
X66259589Y-90176168D01*
X66241335Y-90084399D01*
X66235450Y-90070191D01*
X71437480Y-90070191D01*
X71437480Y-90163757D01*
X71455734Y-90255526D01*
X71491541Y-90341971D01*
X71543524Y-90419769D01*
X71609685Y-90485930D01*
X71687483Y-90537913D01*
X71773928Y-90573720D01*
X71865697Y-90591974D01*
X71959263Y-90591974D01*
X72051032Y-90573720D01*
X72137477Y-90537913D01*
X72215275Y-90485930D01*
X72281436Y-90419769D01*
X72333419Y-90341971D01*
X72369226Y-90255526D01*
X72387480Y-90163757D01*
X72387480Y-90070191D01*
X72369226Y-89978422D01*
X72333419Y-89891977D01*
X72281436Y-89814179D01*
X72215275Y-89748018D01*
X72137477Y-89696035D01*
X72051032Y-89660228D01*
X71959263Y-89641974D01*
X71865697Y-89641974D01*
X71773928Y-89660228D01*
X71687483Y-89696035D01*
X71609685Y-89748018D01*
X71543524Y-89814179D01*
X71491541Y-89891977D01*
X71455734Y-89978422D01*
X71437480Y-90070191D01*
X66235450Y-90070191D01*
X66205528Y-89997954D01*
X66153545Y-89920156D01*
X66087384Y-89853995D01*
X66009586Y-89802012D01*
X65923141Y-89766205D01*
X65831372Y-89747951D01*
X65737806Y-89747951D01*
X65646037Y-89766205D01*
X65559592Y-89802012D01*
X65481794Y-89853995D01*
X65415633Y-89920156D01*
X65363650Y-89997954D01*
X65327843Y-90084399D01*
X65309589Y-90176168D01*
X64051200Y-90176168D01*
X64051200Y-90097817D01*
X64032946Y-90006048D01*
X63997139Y-89919603D01*
X63945156Y-89841805D01*
X63878995Y-89775644D01*
X63801197Y-89723661D01*
X63714752Y-89687854D01*
X63622983Y-89669600D01*
X63529417Y-89669600D01*
X63437648Y-89687854D01*
X63351203Y-89723661D01*
X63273405Y-89775644D01*
X63207244Y-89841805D01*
X63155261Y-89919603D01*
X63119454Y-90006048D01*
X63101200Y-90097817D01*
X62650073Y-90097817D01*
X62654198Y-90077083D01*
X62654198Y-89983517D01*
X62635944Y-89891748D01*
X62600137Y-89805303D01*
X62548154Y-89727505D01*
X62481993Y-89661344D01*
X62404195Y-89609361D01*
X62317750Y-89573554D01*
X62225981Y-89555300D01*
X62132415Y-89555300D01*
X62040646Y-89573554D01*
X61954201Y-89609361D01*
X61876403Y-89661344D01*
X61810242Y-89727505D01*
X61758259Y-89805303D01*
X61722452Y-89891748D01*
X61704198Y-89983517D01*
X58446827Y-89983517D01*
X58533152Y-89966346D01*
X58619597Y-89930539D01*
X58697395Y-89878556D01*
X58763556Y-89812395D01*
X58815539Y-89734597D01*
X58851346Y-89648152D01*
X58869600Y-89556383D01*
X58869600Y-89462817D01*
X58851346Y-89371048D01*
X58819919Y-89295177D01*
X73113880Y-89295177D01*
X73113880Y-89388743D01*
X73132134Y-89480512D01*
X73167941Y-89566957D01*
X73219924Y-89644755D01*
X73286085Y-89710916D01*
X73302404Y-89721820D01*
X73259467Y-89764757D01*
X73207484Y-89842555D01*
X73171677Y-89929000D01*
X73153423Y-90020769D01*
X73153423Y-90114335D01*
X73171677Y-90206104D01*
X73207484Y-90292549D01*
X73259467Y-90370347D01*
X73325628Y-90436508D01*
X73403426Y-90488491D01*
X73489871Y-90524298D01*
X73581640Y-90542552D01*
X73675206Y-90542552D01*
X73766975Y-90524298D01*
X73853420Y-90488491D01*
X73931218Y-90436508D01*
X73997379Y-90370347D01*
X74049362Y-90292549D01*
X74085169Y-90206104D01*
X74103423Y-90114335D01*
X74103423Y-90020769D01*
X74100053Y-90003822D01*
X75231069Y-90003822D01*
X75231069Y-90097388D01*
X75249323Y-90189157D01*
X75285130Y-90275602D01*
X75337113Y-90353400D01*
X75403274Y-90419561D01*
X75481072Y-90471544D01*
X75567517Y-90507351D01*
X75659286Y-90525605D01*
X75752852Y-90525605D01*
X75844621Y-90507351D01*
X75931066Y-90471544D01*
X76008864Y-90419561D01*
X76075025Y-90353400D01*
X76127008Y-90275602D01*
X76162815Y-90189157D01*
X76181069Y-90097388D01*
X76181069Y-90003822D01*
X76162815Y-89912053D01*
X76127008Y-89825608D01*
X76075025Y-89747810D01*
X76064352Y-89737137D01*
X79758520Y-89737137D01*
X79758520Y-89830703D01*
X79776774Y-89922472D01*
X79812581Y-90008917D01*
X79864564Y-90086715D01*
X79930725Y-90152876D01*
X80008523Y-90204859D01*
X80094968Y-90240666D01*
X80186737Y-90258920D01*
X80280303Y-90258920D01*
X80372072Y-90240666D01*
X80458517Y-90204859D01*
X80536315Y-90152876D01*
X80602476Y-90086715D01*
X80629001Y-90047017D01*
X81389200Y-90047017D01*
X81389200Y-90140583D01*
X81407454Y-90232352D01*
X81443261Y-90318797D01*
X81495244Y-90396595D01*
X81561405Y-90462756D01*
X81639203Y-90514739D01*
X81725648Y-90550546D01*
X81817417Y-90568800D01*
X81910983Y-90568800D01*
X82002752Y-90550546D01*
X82089197Y-90514739D01*
X82166995Y-90462756D01*
X82233156Y-90396595D01*
X82285139Y-90318797D01*
X82320946Y-90232352D01*
X82339200Y-90140583D01*
X82339200Y-90047017D01*
X82320946Y-89955248D01*
X82285139Y-89868803D01*
X82233156Y-89791005D01*
X82166995Y-89724844D01*
X82089197Y-89672861D01*
X82002752Y-89637054D01*
X81910983Y-89618800D01*
X81817417Y-89618800D01*
X81725648Y-89637054D01*
X81639203Y-89672861D01*
X81561405Y-89724844D01*
X81495244Y-89791005D01*
X81443261Y-89868803D01*
X81407454Y-89955248D01*
X81389200Y-90047017D01*
X80629001Y-90047017D01*
X80654459Y-90008917D01*
X80690266Y-89922472D01*
X80708520Y-89830703D01*
X80708520Y-89737137D01*
X80690266Y-89645368D01*
X80654459Y-89558923D01*
X80602476Y-89481125D01*
X80536315Y-89414964D01*
X80516700Y-89401857D01*
X82374720Y-89401857D01*
X82374720Y-89495423D01*
X82392974Y-89587192D01*
X82428781Y-89673637D01*
X82480764Y-89751435D01*
X82546925Y-89817596D01*
X82624723Y-89869579D01*
X82711168Y-89905386D01*
X82802937Y-89923640D01*
X82896503Y-89923640D01*
X82988272Y-89905386D01*
X83074717Y-89869579D01*
X83152515Y-89817596D01*
X83218676Y-89751435D01*
X83270659Y-89673637D01*
X83306466Y-89587192D01*
X83324720Y-89495423D01*
X83324720Y-89401857D01*
X83306466Y-89310088D01*
X83270659Y-89223643D01*
X83218676Y-89145845D01*
X83152515Y-89079684D01*
X83074717Y-89027701D01*
X82988272Y-88991894D01*
X82896503Y-88973640D01*
X82802937Y-88973640D01*
X82711168Y-88991894D01*
X82624723Y-89027701D01*
X82546925Y-89079684D01*
X82480764Y-89145845D01*
X82428781Y-89223643D01*
X82392974Y-89310088D01*
X82374720Y-89401857D01*
X80516700Y-89401857D01*
X80458517Y-89362981D01*
X80372072Y-89327174D01*
X80280303Y-89308920D01*
X80186737Y-89308920D01*
X80094968Y-89327174D01*
X80008523Y-89362981D01*
X79930725Y-89414964D01*
X79864564Y-89481125D01*
X79812581Y-89558923D01*
X79776774Y-89645368D01*
X79758520Y-89737137D01*
X76064352Y-89737137D01*
X76008864Y-89681649D01*
X75931066Y-89629666D01*
X75844621Y-89593859D01*
X75752852Y-89575605D01*
X75659286Y-89575605D01*
X75567517Y-89593859D01*
X75481072Y-89629666D01*
X75403274Y-89681649D01*
X75337113Y-89747810D01*
X75285130Y-89825608D01*
X75249323Y-89912053D01*
X75231069Y-90003822D01*
X74100053Y-90003822D01*
X74085169Y-89929000D01*
X74049362Y-89842555D01*
X73997379Y-89764757D01*
X73931218Y-89698596D01*
X73914899Y-89687692D01*
X73957836Y-89644755D01*
X74009819Y-89566957D01*
X74045626Y-89480512D01*
X74063880Y-89388743D01*
X74063880Y-89295177D01*
X74045626Y-89203408D01*
X74009819Y-89116963D01*
X73976458Y-89067035D01*
X73982657Y-89064467D01*
X74060455Y-89012484D01*
X74126616Y-88946323D01*
X74178599Y-88868525D01*
X74211709Y-88788591D01*
X74222817Y-88790800D01*
X74316383Y-88790800D01*
X74408152Y-88772546D01*
X74494597Y-88736739D01*
X74572395Y-88684756D01*
X74582020Y-88675131D01*
X74617045Y-88710156D01*
X74694843Y-88762139D01*
X74781288Y-88797946D01*
X74873057Y-88816200D01*
X74966623Y-88816200D01*
X75058392Y-88797946D01*
X75144837Y-88762139D01*
X75222635Y-88710156D01*
X75288796Y-88643995D01*
X75340779Y-88566197D01*
X75376586Y-88479752D01*
X75388189Y-88421417D01*
X79484200Y-88421417D01*
X79484200Y-88514983D01*
X79502454Y-88606752D01*
X79538261Y-88693197D01*
X79590244Y-88770995D01*
X79656405Y-88837156D01*
X79734203Y-88889139D01*
X79820648Y-88924946D01*
X79912417Y-88943200D01*
X80005983Y-88943200D01*
X80097752Y-88924946D01*
X80184197Y-88889139D01*
X80261995Y-88837156D01*
X80328156Y-88770995D01*
X80380139Y-88693197D01*
X80415946Y-88606752D01*
X80434200Y-88514983D01*
X80434200Y-88421417D01*
X80415946Y-88329648D01*
X80380139Y-88243203D01*
X80328156Y-88165405D01*
X80261995Y-88099244D01*
X80184197Y-88047261D01*
X80097752Y-88011454D01*
X80005983Y-87993200D01*
X79912417Y-87993200D01*
X79820648Y-88011454D01*
X79734203Y-88047261D01*
X79656405Y-88099244D01*
X79590244Y-88165405D01*
X79538261Y-88243203D01*
X79502454Y-88329648D01*
X79484200Y-88421417D01*
X75388189Y-88421417D01*
X75394840Y-88387983D01*
X75394840Y-88294417D01*
X75376586Y-88202648D01*
X75340779Y-88116203D01*
X75288796Y-88038405D01*
X75222635Y-87972244D01*
X75144837Y-87920261D01*
X75058392Y-87884454D01*
X74966623Y-87866200D01*
X74873057Y-87866200D01*
X74781288Y-87884454D01*
X74694843Y-87920261D01*
X74617045Y-87972244D01*
X74607420Y-87981869D01*
X74572395Y-87946844D01*
X74494597Y-87894861D01*
X74408152Y-87859054D01*
X74316383Y-87840800D01*
X74222817Y-87840800D01*
X74131048Y-87859054D01*
X74044603Y-87894861D01*
X73966805Y-87946844D01*
X73900644Y-88013005D01*
X73848661Y-88090803D01*
X73815551Y-88170737D01*
X73804443Y-88168528D01*
X73710877Y-88168528D01*
X73619108Y-88186782D01*
X73532663Y-88222589D01*
X73454865Y-88274572D01*
X73388704Y-88340733D01*
X73336721Y-88418531D01*
X73300914Y-88504976D01*
X73282660Y-88596745D01*
X73282660Y-88690311D01*
X73300914Y-88782080D01*
X73336721Y-88868525D01*
X73370082Y-88918453D01*
X73363883Y-88921021D01*
X73286085Y-88973004D01*
X73219924Y-89039165D01*
X73167941Y-89116963D01*
X73132134Y-89203408D01*
X73113880Y-89295177D01*
X58819919Y-89295177D01*
X58815539Y-89284603D01*
X58763556Y-89206805D01*
X58697395Y-89140644D01*
X58619597Y-89088661D01*
X58533152Y-89052854D01*
X58441383Y-89034600D01*
X58347817Y-89034600D01*
X58256048Y-89052854D01*
X58169603Y-89088661D01*
X58091805Y-89140644D01*
X58025644Y-89206805D01*
X57980600Y-89274218D01*
X57980600Y-89208817D01*
X57962346Y-89117048D01*
X57926539Y-89030603D01*
X57874556Y-88952805D01*
X57808395Y-88886644D01*
X57730597Y-88834661D01*
X57644152Y-88798854D01*
X57552383Y-88780600D01*
X57458817Y-88780600D01*
X57367048Y-88798854D01*
X57280603Y-88834661D01*
X57202805Y-88886644D01*
X57136644Y-88952805D01*
X57084661Y-89030603D01*
X57048854Y-89117048D01*
X57030600Y-89208817D01*
X49991515Y-89208817D01*
X49993844Y-89159276D01*
X50074030Y-88340137D01*
X58468240Y-88340137D01*
X58468240Y-88433703D01*
X58486494Y-88525472D01*
X58522301Y-88611917D01*
X58574284Y-88689715D01*
X58640445Y-88755876D01*
X58718243Y-88807859D01*
X58804688Y-88843666D01*
X58896457Y-88861920D01*
X58990023Y-88861920D01*
X59081792Y-88843666D01*
X59168237Y-88807859D01*
X59246035Y-88755876D01*
X59312196Y-88689715D01*
X59364179Y-88611917D01*
X59399986Y-88525472D01*
X59412600Y-88462057D01*
X71925160Y-88462057D01*
X71925160Y-88555623D01*
X71943414Y-88647392D01*
X71979221Y-88733837D01*
X72031204Y-88811635D01*
X72097365Y-88877796D01*
X72175163Y-88929779D01*
X72261608Y-88965586D01*
X72353377Y-88983840D01*
X72446943Y-88983840D01*
X72538712Y-88965586D01*
X72625157Y-88929779D01*
X72702955Y-88877796D01*
X72769116Y-88811635D01*
X72821099Y-88733837D01*
X72856906Y-88647392D01*
X72875160Y-88555623D01*
X72875160Y-88462057D01*
X72856906Y-88370288D01*
X72821099Y-88283843D01*
X72769116Y-88206045D01*
X72702955Y-88139884D01*
X72625157Y-88087901D01*
X72538712Y-88052094D01*
X72446943Y-88033840D01*
X72353377Y-88033840D01*
X72261608Y-88052094D01*
X72175163Y-88087901D01*
X72097365Y-88139884D01*
X72031204Y-88206045D01*
X71979221Y-88283843D01*
X71943414Y-88370288D01*
X71925160Y-88462057D01*
X59412600Y-88462057D01*
X59418240Y-88433703D01*
X59418240Y-88340137D01*
X59399986Y-88248368D01*
X59364179Y-88161923D01*
X59312196Y-88084125D01*
X59246035Y-88017964D01*
X59168237Y-87965981D01*
X59081792Y-87930174D01*
X58990023Y-87911920D01*
X58896457Y-87911920D01*
X58804688Y-87930174D01*
X58718243Y-87965981D01*
X58640445Y-88017964D01*
X58574284Y-88084125D01*
X58522301Y-88161923D01*
X58486494Y-88248368D01*
X58468240Y-88340137D01*
X50074030Y-88340137D01*
X50285051Y-86184456D01*
X51997372Y-86184456D01*
X51997372Y-86408916D01*
X52041162Y-86629062D01*
X52127059Y-86836435D01*
X52251762Y-87023066D01*
X52410479Y-87181783D01*
X52597110Y-87306486D01*
X52804483Y-87392383D01*
X53024629Y-87436173D01*
X53249089Y-87436173D01*
X53403709Y-87405417D01*
X62085200Y-87405417D01*
X62085200Y-87498983D01*
X62103454Y-87590752D01*
X62139261Y-87677197D01*
X62191244Y-87754995D01*
X62257405Y-87821156D01*
X62335203Y-87873139D01*
X62421648Y-87908946D01*
X62513417Y-87927200D01*
X62606983Y-87927200D01*
X62698752Y-87908946D01*
X62785197Y-87873139D01*
X62862995Y-87821156D01*
X62929156Y-87754995D01*
X62981139Y-87677197D01*
X63016946Y-87590752D01*
X63035200Y-87498983D01*
X63035200Y-87452277D01*
X67165200Y-87452277D01*
X67165200Y-87545843D01*
X67183454Y-87637612D01*
X67219261Y-87724057D01*
X67271244Y-87801855D01*
X67337405Y-87868016D01*
X67415203Y-87919999D01*
X67501648Y-87955806D01*
X67593417Y-87974060D01*
X67686983Y-87974060D01*
X67778752Y-87955806D01*
X67865197Y-87919999D01*
X67942995Y-87868016D01*
X68009156Y-87801855D01*
X68061139Y-87724057D01*
X68096946Y-87637612D01*
X68115200Y-87545843D01*
X68115200Y-87452277D01*
X68110932Y-87430817D01*
X78646000Y-87430817D01*
X78646000Y-87524383D01*
X78664254Y-87616152D01*
X78700061Y-87702597D01*
X78752044Y-87780395D01*
X78818205Y-87846556D01*
X78896003Y-87898539D01*
X78982448Y-87934346D01*
X79074217Y-87952600D01*
X79167783Y-87952600D01*
X79237074Y-87938817D01*
X81617800Y-87938817D01*
X81617800Y-88032383D01*
X81636054Y-88124152D01*
X81671861Y-88210597D01*
X81723844Y-88288395D01*
X81790005Y-88354556D01*
X81867803Y-88406539D01*
X81954248Y-88442346D01*
X82046017Y-88460600D01*
X82139583Y-88460600D01*
X82231352Y-88442346D01*
X82317797Y-88406539D01*
X82395595Y-88354556D01*
X82461756Y-88288395D01*
X82513739Y-88210597D01*
X82549546Y-88124152D01*
X82567800Y-88032383D01*
X82567800Y-87938817D01*
X82549546Y-87847048D01*
X82513739Y-87760603D01*
X82461756Y-87682805D01*
X82395595Y-87616644D01*
X82317797Y-87564661D01*
X82231352Y-87528854D01*
X82139583Y-87510600D01*
X82046017Y-87510600D01*
X81954248Y-87528854D01*
X81867803Y-87564661D01*
X81790005Y-87616644D01*
X81723844Y-87682805D01*
X81671861Y-87760603D01*
X81636054Y-87847048D01*
X81617800Y-87938817D01*
X79237074Y-87938817D01*
X79259552Y-87934346D01*
X79345997Y-87898539D01*
X79423795Y-87846556D01*
X79489956Y-87780395D01*
X79541939Y-87702597D01*
X79577746Y-87616152D01*
X79596000Y-87524383D01*
X79596000Y-87430817D01*
X79577746Y-87339048D01*
X79541939Y-87252603D01*
X79489956Y-87174805D01*
X79423795Y-87108644D01*
X79345997Y-87056661D01*
X79259552Y-87020854D01*
X79167783Y-87002600D01*
X79074217Y-87002600D01*
X78982448Y-87020854D01*
X78896003Y-87056661D01*
X78818205Y-87108644D01*
X78752044Y-87174805D01*
X78700061Y-87252603D01*
X78664254Y-87339048D01*
X78646000Y-87430817D01*
X68110932Y-87430817D01*
X68096946Y-87360508D01*
X68061139Y-87274063D01*
X68009156Y-87196265D01*
X67942995Y-87130104D01*
X67865197Y-87078121D01*
X67778752Y-87042314D01*
X67686983Y-87024060D01*
X67593417Y-87024060D01*
X67501648Y-87042314D01*
X67415203Y-87078121D01*
X67337405Y-87130104D01*
X67271244Y-87196265D01*
X67219261Y-87274063D01*
X67183454Y-87360508D01*
X67165200Y-87452277D01*
X63035200Y-87452277D01*
X63035200Y-87405417D01*
X63016946Y-87313648D01*
X62981139Y-87227203D01*
X62929156Y-87149405D01*
X62862995Y-87083244D01*
X62785197Y-87031261D01*
X62698752Y-86995454D01*
X62606983Y-86977200D01*
X62513417Y-86977200D01*
X62421648Y-86995454D01*
X62335203Y-87031261D01*
X62257405Y-87083244D01*
X62191244Y-87149405D01*
X62139261Y-87227203D01*
X62103454Y-87313648D01*
X62085200Y-87405417D01*
X53403709Y-87405417D01*
X53469235Y-87392383D01*
X53676608Y-87306486D01*
X53863239Y-87181783D01*
X54021956Y-87023066D01*
X54146659Y-86836435D01*
X54232556Y-86629062D01*
X54244857Y-86567217D01*
X65768200Y-86567217D01*
X65768200Y-86660783D01*
X65786454Y-86752552D01*
X65822261Y-86838997D01*
X65874244Y-86916795D01*
X65940405Y-86982956D01*
X66018203Y-87034939D01*
X66104648Y-87070746D01*
X66196417Y-87089000D01*
X66289983Y-87089000D01*
X66381752Y-87070746D01*
X66468197Y-87034939D01*
X66545995Y-86982956D01*
X66612156Y-86916795D01*
X66664139Y-86838997D01*
X66699946Y-86752552D01*
X66701444Y-86745017D01*
X72671920Y-86745017D01*
X72671920Y-86838583D01*
X72690174Y-86930352D01*
X72725981Y-87016797D01*
X72777964Y-87094595D01*
X72844125Y-87160756D01*
X72921923Y-87212739D01*
X73008368Y-87248546D01*
X73100137Y-87266800D01*
X73193703Y-87266800D01*
X73285472Y-87248546D01*
X73371917Y-87212739D01*
X73449715Y-87160756D01*
X73515876Y-87094595D01*
X73567859Y-87016797D01*
X73603666Y-86930352D01*
X73621920Y-86838583D01*
X73621920Y-86745017D01*
X73603666Y-86653248D01*
X73567859Y-86566803D01*
X73515876Y-86489005D01*
X73449715Y-86422844D01*
X73371917Y-86370861D01*
X73285472Y-86335054D01*
X73193703Y-86316800D01*
X73100137Y-86316800D01*
X73008368Y-86335054D01*
X72921923Y-86370861D01*
X72844125Y-86422844D01*
X72777964Y-86489005D01*
X72725981Y-86566803D01*
X72690174Y-86653248D01*
X72671920Y-86745017D01*
X66701444Y-86745017D01*
X66718200Y-86660783D01*
X66718200Y-86567217D01*
X66699946Y-86475448D01*
X66664139Y-86389003D01*
X66612156Y-86311205D01*
X66545995Y-86245044D01*
X66468197Y-86193061D01*
X66381752Y-86157254D01*
X66289983Y-86139000D01*
X66196417Y-86139000D01*
X66104648Y-86157254D01*
X66018203Y-86193061D01*
X65940405Y-86245044D01*
X65874244Y-86311205D01*
X65822261Y-86389003D01*
X65786454Y-86475448D01*
X65768200Y-86567217D01*
X54244857Y-86567217D01*
X54276346Y-86408916D01*
X54276346Y-86184456D01*
X54232556Y-85964310D01*
X54146659Y-85756937D01*
X54128004Y-85729017D01*
X67431900Y-85729017D01*
X67431900Y-85822583D01*
X67450154Y-85914352D01*
X67485961Y-86000797D01*
X67537944Y-86078595D01*
X67604105Y-86144756D01*
X67681903Y-86196739D01*
X67768348Y-86232546D01*
X67860117Y-86250800D01*
X67953683Y-86250800D01*
X68045452Y-86232546D01*
X68131897Y-86196739D01*
X68209695Y-86144756D01*
X68275856Y-86078595D01*
X68327839Y-86000797D01*
X68363646Y-85914352D01*
X68370197Y-85881417D01*
X71153000Y-85881417D01*
X71153000Y-85974983D01*
X71171254Y-86066752D01*
X71207061Y-86153197D01*
X71259044Y-86230995D01*
X71325205Y-86297156D01*
X71403003Y-86349139D01*
X71489448Y-86384946D01*
X71581217Y-86403200D01*
X71674783Y-86403200D01*
X71766552Y-86384946D01*
X71852997Y-86349139D01*
X71930795Y-86297156D01*
X71996956Y-86230995D01*
X72004461Y-86219762D01*
X80830400Y-86219762D01*
X80830400Y-86313328D01*
X80848654Y-86405097D01*
X80884461Y-86491542D01*
X80936444Y-86569340D01*
X81002605Y-86635501D01*
X81080403Y-86687484D01*
X81166848Y-86723291D01*
X81258617Y-86741545D01*
X81352183Y-86741545D01*
X81443952Y-86723291D01*
X81530397Y-86687484D01*
X81608195Y-86635501D01*
X81674356Y-86569340D01*
X81726339Y-86491542D01*
X81762146Y-86405097D01*
X81780400Y-86313328D01*
X81780400Y-86219762D01*
X81773378Y-86184456D01*
X86642853Y-86184456D01*
X86642853Y-86408916D01*
X86686643Y-86629062D01*
X86772540Y-86836435D01*
X86897243Y-87023066D01*
X87055960Y-87181783D01*
X87242591Y-87306486D01*
X87449964Y-87392383D01*
X87670110Y-87436173D01*
X87894570Y-87436173D01*
X88114716Y-87392383D01*
X88322089Y-87306486D01*
X88508720Y-87181783D01*
X88667437Y-87023066D01*
X88792140Y-86836435D01*
X88878037Y-86629062D01*
X88921827Y-86408916D01*
X88921827Y-86184456D01*
X88878037Y-85964310D01*
X88792140Y-85756937D01*
X88667437Y-85570306D01*
X88508720Y-85411589D01*
X88322089Y-85286886D01*
X88114716Y-85200989D01*
X87894570Y-85157199D01*
X87670110Y-85157199D01*
X87449964Y-85200989D01*
X87242591Y-85286886D01*
X87055960Y-85411589D01*
X86897243Y-85570306D01*
X86772540Y-85756937D01*
X86686643Y-85964310D01*
X86642853Y-86184456D01*
X81773378Y-86184456D01*
X81762146Y-86127993D01*
X81726339Y-86041548D01*
X81674356Y-85963750D01*
X81608195Y-85897589D01*
X81530397Y-85845606D01*
X81443952Y-85809799D01*
X81352183Y-85791545D01*
X81258617Y-85791545D01*
X81166848Y-85809799D01*
X81080403Y-85845606D01*
X81002605Y-85897589D01*
X80936444Y-85963750D01*
X80884461Y-86041548D01*
X80848654Y-86127993D01*
X80830400Y-86219762D01*
X72004461Y-86219762D01*
X72048939Y-86153197D01*
X72084746Y-86066752D01*
X72103000Y-85974983D01*
X72103000Y-85881417D01*
X72084746Y-85789648D01*
X72048939Y-85703203D01*
X71996956Y-85625405D01*
X71930795Y-85559244D01*
X71852997Y-85507261D01*
X71766552Y-85471454D01*
X71674783Y-85453200D01*
X71581217Y-85453200D01*
X71489448Y-85471454D01*
X71403003Y-85507261D01*
X71325205Y-85559244D01*
X71259044Y-85625405D01*
X71207061Y-85703203D01*
X71171254Y-85789648D01*
X71153000Y-85881417D01*
X68370197Y-85881417D01*
X68381900Y-85822583D01*
X68381900Y-85729017D01*
X68363646Y-85637248D01*
X68327839Y-85550803D01*
X68275856Y-85473005D01*
X68209695Y-85406844D01*
X68131897Y-85354861D01*
X68045452Y-85319054D01*
X67953683Y-85300800D01*
X67860117Y-85300800D01*
X67768348Y-85319054D01*
X67681903Y-85354861D01*
X67604105Y-85406844D01*
X67537944Y-85473005D01*
X67485961Y-85550803D01*
X67450154Y-85637248D01*
X67431900Y-85729017D01*
X54128004Y-85729017D01*
X54021956Y-85570306D01*
X53863239Y-85411589D01*
X53676608Y-85286886D01*
X53469235Y-85200989D01*
X53249089Y-85157199D01*
X53024629Y-85157199D01*
X52804483Y-85200989D01*
X52597110Y-85286886D01*
X52410479Y-85411589D01*
X52251762Y-85570306D01*
X52127059Y-85756937D01*
X52041162Y-85964310D01*
X51997372Y-86184456D01*
X50285051Y-86184456D01*
X50288616Y-86148045D01*
X50341763Y-85730275D01*
X50528108Y-84893808D01*
X50696492Y-84444825D01*
X50778503Y-84255817D01*
X61907400Y-84255817D01*
X61907400Y-84349383D01*
X61925654Y-84441152D01*
X61961461Y-84527597D01*
X62013444Y-84605395D01*
X62079605Y-84671556D01*
X62157403Y-84723539D01*
X62243848Y-84759346D01*
X62335617Y-84777600D01*
X62429183Y-84777600D01*
X62520952Y-84759346D01*
X62607397Y-84723539D01*
X62685195Y-84671556D01*
X62751356Y-84605395D01*
X62803339Y-84527597D01*
X62839146Y-84441152D01*
X62857400Y-84349383D01*
X62857400Y-84255817D01*
X62839146Y-84164048D01*
X62803339Y-84077603D01*
X62751356Y-83999805D01*
X62727968Y-83976417D01*
X65018902Y-83976417D01*
X65018902Y-84069983D01*
X65037156Y-84161752D01*
X65072963Y-84248197D01*
X65124946Y-84325995D01*
X65191107Y-84392156D01*
X65268905Y-84444139D01*
X65355350Y-84479946D01*
X65447119Y-84498200D01*
X65540685Y-84498200D01*
X65632454Y-84479946D01*
X65718899Y-84444139D01*
X65796697Y-84392156D01*
X65862858Y-84325995D01*
X65909749Y-84255817D01*
X74023200Y-84255817D01*
X74023200Y-84349383D01*
X74041454Y-84441152D01*
X74077261Y-84527597D01*
X74129244Y-84605395D01*
X74195405Y-84671556D01*
X74273203Y-84723539D01*
X74359648Y-84759346D01*
X74451417Y-84777600D01*
X74544983Y-84777600D01*
X74636752Y-84759346D01*
X74723197Y-84723539D01*
X74800995Y-84671556D01*
X74867156Y-84605395D01*
X74919139Y-84527597D01*
X74947546Y-84459017D01*
X75725000Y-84459017D01*
X75725000Y-84552583D01*
X75743254Y-84644352D01*
X75779061Y-84730797D01*
X75831044Y-84808595D01*
X75897205Y-84874756D01*
X75975003Y-84926739D01*
X76061448Y-84962546D01*
X76153217Y-84980800D01*
X76246783Y-84980800D01*
X76338552Y-84962546D01*
X76424997Y-84926739D01*
X76478758Y-84890817D01*
X78519000Y-84890817D01*
X78519000Y-84984383D01*
X78537254Y-85076152D01*
X78573061Y-85162597D01*
X78625044Y-85240395D01*
X78691205Y-85306556D01*
X78769003Y-85358539D01*
X78855448Y-85394346D01*
X78947217Y-85412600D01*
X79040783Y-85412600D01*
X79132552Y-85394346D01*
X79218997Y-85358539D01*
X79296795Y-85306556D01*
X79362956Y-85240395D01*
X79414939Y-85162597D01*
X79450746Y-85076152D01*
X79469000Y-84984383D01*
X79469000Y-84890817D01*
X79450746Y-84799048D01*
X79414939Y-84712603D01*
X79362956Y-84634805D01*
X79296795Y-84568644D01*
X79218997Y-84516661D01*
X79132552Y-84480854D01*
X79040783Y-84462600D01*
X78947217Y-84462600D01*
X78855448Y-84480854D01*
X78769003Y-84516661D01*
X78691205Y-84568644D01*
X78625044Y-84634805D01*
X78573061Y-84712603D01*
X78537254Y-84799048D01*
X78519000Y-84890817D01*
X76478758Y-84890817D01*
X76502795Y-84874756D01*
X76568956Y-84808595D01*
X76620939Y-84730797D01*
X76656746Y-84644352D01*
X76675000Y-84552583D01*
X76675000Y-84459017D01*
X76656746Y-84367248D01*
X76620939Y-84280803D01*
X76568956Y-84203005D01*
X76502795Y-84136844D01*
X76424997Y-84084861D01*
X76338552Y-84049054D01*
X76246783Y-84030800D01*
X76153217Y-84030800D01*
X76061448Y-84049054D01*
X75975003Y-84084861D01*
X75897205Y-84136844D01*
X75831044Y-84203005D01*
X75779061Y-84280803D01*
X75743254Y-84367248D01*
X75725000Y-84459017D01*
X74947546Y-84459017D01*
X74954946Y-84441152D01*
X74973200Y-84349383D01*
X74973200Y-84255817D01*
X74954946Y-84164048D01*
X74919139Y-84077603D01*
X74867156Y-83999805D01*
X74800995Y-83933644D01*
X74723197Y-83881661D01*
X74636752Y-83845854D01*
X74544983Y-83827600D01*
X74451417Y-83827600D01*
X74359648Y-83845854D01*
X74273203Y-83881661D01*
X74195405Y-83933644D01*
X74129244Y-83999805D01*
X74077261Y-84077603D01*
X74041454Y-84164048D01*
X74023200Y-84255817D01*
X65909749Y-84255817D01*
X65914841Y-84248197D01*
X65950648Y-84161752D01*
X65968902Y-84069983D01*
X65968902Y-83976417D01*
X65950648Y-83884648D01*
X65914841Y-83798203D01*
X65862858Y-83720405D01*
X65796697Y-83654244D01*
X65718899Y-83602261D01*
X65632454Y-83566454D01*
X65540685Y-83548200D01*
X65447119Y-83548200D01*
X65355350Y-83566454D01*
X65268905Y-83602261D01*
X65191107Y-83654244D01*
X65124946Y-83720405D01*
X65072963Y-83798203D01*
X65037156Y-83884648D01*
X65018902Y-83976417D01*
X62727968Y-83976417D01*
X62685195Y-83933644D01*
X62607397Y-83881661D01*
X62520952Y-83845854D01*
X62429183Y-83827600D01*
X62335617Y-83827600D01*
X62243848Y-83845854D01*
X62157403Y-83881661D01*
X62079605Y-83933644D01*
X62013444Y-83999805D01*
X61961461Y-84077603D01*
X61925654Y-84164048D01*
X61907400Y-84255817D01*
X50778503Y-84255817D01*
X51329562Y-82985817D01*
X63964800Y-82985817D01*
X63964800Y-83079383D01*
X63983054Y-83171152D01*
X64018861Y-83257597D01*
X64070844Y-83335395D01*
X64137005Y-83401556D01*
X64214803Y-83453539D01*
X64301248Y-83489346D01*
X64393017Y-83507600D01*
X64486583Y-83507600D01*
X64555874Y-83493817D01*
X71170810Y-83493817D01*
X71170810Y-83587383D01*
X71189064Y-83679152D01*
X71224871Y-83765597D01*
X71276854Y-83843395D01*
X71343015Y-83909556D01*
X71420813Y-83961539D01*
X71507258Y-83997346D01*
X71599027Y-84015600D01*
X71692593Y-84015600D01*
X71784362Y-83997346D01*
X71870807Y-83961539D01*
X71948605Y-83909556D01*
X72014766Y-83843395D01*
X72066749Y-83765597D01*
X72102556Y-83679152D01*
X72120810Y-83587383D01*
X72120810Y-83493817D01*
X72102556Y-83402048D01*
X72066749Y-83315603D01*
X72014766Y-83237805D01*
X71948605Y-83171644D01*
X71870807Y-83119661D01*
X71784362Y-83083854D01*
X71692593Y-83065600D01*
X71599027Y-83065600D01*
X71507258Y-83083854D01*
X71420813Y-83119661D01*
X71343015Y-83171644D01*
X71276854Y-83237805D01*
X71224871Y-83315603D01*
X71189064Y-83402048D01*
X71170810Y-83493817D01*
X64555874Y-83493817D01*
X64578352Y-83489346D01*
X64664797Y-83453539D01*
X64742595Y-83401556D01*
X64808756Y-83335395D01*
X64860739Y-83257597D01*
X64896546Y-83171152D01*
X64914800Y-83079383D01*
X64914800Y-82985817D01*
X64909748Y-82960417D01*
X76055200Y-82960417D01*
X76055200Y-83053983D01*
X76073454Y-83145752D01*
X76109261Y-83232197D01*
X76161244Y-83309995D01*
X76227405Y-83376156D01*
X76305203Y-83428139D01*
X76391648Y-83463946D01*
X76483417Y-83482200D01*
X76576983Y-83482200D01*
X76668752Y-83463946D01*
X76755197Y-83428139D01*
X76832995Y-83376156D01*
X76899156Y-83309995D01*
X76951139Y-83232197D01*
X76986946Y-83145752D01*
X77005200Y-83053983D01*
X77005200Y-82960417D01*
X76986946Y-82868648D01*
X76951139Y-82782203D01*
X76899156Y-82704405D01*
X76832995Y-82638244D01*
X76755197Y-82586261D01*
X76668752Y-82550454D01*
X76576983Y-82532200D01*
X76483417Y-82532200D01*
X76391648Y-82550454D01*
X76305203Y-82586261D01*
X76227405Y-82638244D01*
X76161244Y-82704405D01*
X76109261Y-82782203D01*
X76073454Y-82868648D01*
X76055200Y-82960417D01*
X64909748Y-82960417D01*
X64896546Y-82894048D01*
X64860739Y-82807603D01*
X64808756Y-82729805D01*
X64742595Y-82663644D01*
X64664797Y-82611661D01*
X64578352Y-82575854D01*
X64486583Y-82557600D01*
X64393017Y-82557600D01*
X64301248Y-82575854D01*
X64214803Y-82611661D01*
X64137005Y-82663644D01*
X64070844Y-82729805D01*
X64018861Y-82807603D01*
X63983054Y-82894048D01*
X63964800Y-82985817D01*
X51329562Y-82985817D01*
X51869600Y-81741217D01*
X66809600Y-81741217D01*
X66809600Y-81834783D01*
X66827854Y-81926552D01*
X66863661Y-82012997D01*
X66915644Y-82090795D01*
X66981805Y-82156956D01*
X67059603Y-82208939D01*
X67146048Y-82244746D01*
X67237817Y-82263000D01*
X67331383Y-82263000D01*
X67423152Y-82244746D01*
X67509597Y-82208939D01*
X67587395Y-82156956D01*
X67653556Y-82090795D01*
X67705539Y-82012997D01*
X67741346Y-81926552D01*
X67759600Y-81834783D01*
X67759600Y-81741217D01*
X67741346Y-81649448D01*
X67705539Y-81563003D01*
X67653556Y-81485205D01*
X67587395Y-81419044D01*
X67509597Y-81367061D01*
X67423152Y-81331254D01*
X67331383Y-81313000D01*
X67237817Y-81313000D01*
X67146048Y-81331254D01*
X67059603Y-81367061D01*
X66981805Y-81419044D01*
X66915644Y-81485205D01*
X66863661Y-81563003D01*
X66827854Y-81649448D01*
X66809600Y-81741217D01*
X51869600Y-81741217D01*
X52596998Y-80064817D01*
X72854800Y-80064817D01*
X72854800Y-80158383D01*
X72873054Y-80250152D01*
X72908861Y-80336597D01*
X72960844Y-80414395D01*
X73027005Y-80480556D01*
X73104803Y-80532539D01*
X73191248Y-80568346D01*
X73283017Y-80586600D01*
X73376583Y-80586600D01*
X73468352Y-80568346D01*
X73554797Y-80532539D01*
X73632595Y-80480556D01*
X73698756Y-80414395D01*
X73750739Y-80336597D01*
X73786546Y-80250152D01*
X73804800Y-80158383D01*
X73804800Y-80064817D01*
X73786546Y-79973048D01*
X73750739Y-79886603D01*
X73698756Y-79808805D01*
X73632595Y-79742644D01*
X73554797Y-79690661D01*
X73468352Y-79654854D01*
X73376583Y-79636600D01*
X73283017Y-79636600D01*
X73191248Y-79654854D01*
X73104803Y-79690661D01*
X73027005Y-79742644D01*
X72960844Y-79808805D01*
X72908861Y-79886603D01*
X72873054Y-79973048D01*
X72854800Y-80064817D01*
X52596998Y-80064817D01*
X54344676Y-76037029D01*
X62144799Y-76037029D01*
X62144799Y-76261489D01*
X62188589Y-76481635D01*
X62274486Y-76689008D01*
X62399189Y-76875639D01*
X62557906Y-77034356D01*
X62744537Y-77159059D01*
X62951910Y-77244956D01*
X63172056Y-77288746D01*
X63396516Y-77288746D01*
X63616662Y-77244956D01*
X63824035Y-77159059D01*
X64010666Y-77034356D01*
X64169383Y-76875639D01*
X64294086Y-76689008D01*
X64379983Y-76481635D01*
X64423773Y-76261489D01*
X64423773Y-76037029D01*
X76495426Y-76037029D01*
X76495426Y-76261489D01*
X76539216Y-76481635D01*
X76625113Y-76689008D01*
X76749816Y-76875639D01*
X76908533Y-77034356D01*
X77095164Y-77159059D01*
X77302537Y-77244956D01*
X77522683Y-77288746D01*
X77747143Y-77288746D01*
X77967289Y-77244956D01*
X78174662Y-77159059D01*
X78361293Y-77034356D01*
X78520010Y-76875639D01*
X78644713Y-76689008D01*
X78730610Y-76481635D01*
X78774400Y-76261489D01*
X78774400Y-76037029D01*
X78730610Y-75816883D01*
X78644713Y-75609510D01*
X78520010Y-75422879D01*
X78361293Y-75264162D01*
X78174662Y-75139459D01*
X77967289Y-75053562D01*
X77747143Y-75009772D01*
X77522683Y-75009772D01*
X77302537Y-75053562D01*
X77095164Y-75139459D01*
X76908533Y-75264162D01*
X76749816Y-75422879D01*
X76625113Y-75609510D01*
X76539216Y-75816883D01*
X76495426Y-76037029D01*
X64423773Y-76037029D01*
X64379983Y-75816883D01*
X64294086Y-75609510D01*
X64169383Y-75422879D01*
X64010666Y-75264162D01*
X63824035Y-75139459D01*
X63616662Y-75053562D01*
X63396516Y-75009772D01*
X63172056Y-75009772D01*
X62951910Y-75053562D01*
X62744537Y-75139459D01*
X62557906Y-75264162D01*
X62399189Y-75422879D01*
X62274486Y-75609510D01*
X62188589Y-75816883D01*
X62144799Y-76037029D01*
X54344676Y-76037029D01*
X56445329Y-71195757D01*
X56520490Y-71060477D01*
X56611757Y-70952693D01*
X56722226Y-70864683D01*
X56847683Y-70799809D01*
X56984113Y-70760318D01*
X57128450Y-70746999D01*
X59696148Y-70747001D01*
%TD*%
M02*
