%TF.GenerationSoftware,KiCad,Pcbnew,(5.1.6)-1*%
%TF.CreationDate,2025-07-06T20:48:39+05:30*%
%TF.ProjectId,Project_OAK_HEX_COVER_INNER_V0,50726f6a-6563-4745-9f4f-414b5f484558,A*%
%TF.SameCoordinates,Original*%
%TF.FileFunction,Profile,NP*%
%FSLAX46Y46*%
G04 Gerber Fmt 4.6, Leading zero omitted, Abs format (unit mm)*
G04 Created by KiCad (PCBNEW (5.1.6)-1) date 2025-07-06 20:48:39*
%MOMM*%
%LPD*%
G01*
G04 APERTURE LIST*
%TA.AperFunction,Profile*%
%ADD10C,0.150000*%
%TD*%
%TA.AperFunction,Profile*%
%ADD11C,0.100000*%
%TD*%
G04 APERTURE END LIST*
D10*
X85459600Y-93472000D02*
G75*
G03*
X85459600Y-93472000I-15000000J0D01*
G01*
D11*
X70406467Y-72153422D02*
X69888943Y-72156411D01*
X69888943Y-72156411D02*
X69371472Y-72164666D01*
X69371472Y-72164666D02*
X68854053Y-72178134D01*
X68854053Y-72178134D02*
X68336740Y-72196866D01*
X68336740Y-72196866D02*
X67819586Y-72220837D01*
X67819586Y-72220837D02*
X67302644Y-72250047D01*
X67302644Y-72250047D02*
X66785940Y-72284496D01*
X66785940Y-72284496D02*
X66269500Y-72324184D01*
X66269500Y-72324184D02*
X65753405Y-72369110D01*
X65753405Y-72369110D02*
X65237653Y-72419275D01*
X65237653Y-72419275D02*
X64722325Y-72474705D01*
X64722325Y-72474705D02*
X64207420Y-72535347D01*
X64207420Y-72535347D02*
X63693044Y-72601255D01*
X63693044Y-72601255D02*
X63179171Y-72672375D01*
X63179171Y-72672375D02*
X62665906Y-72748760D01*
X62665906Y-72748760D02*
X62153224Y-72830384D01*
X62153224Y-72830384D02*
X62133089Y-72831416D01*
X62133089Y-72831416D02*
X62109832Y-72839168D01*
X62109832Y-72839168D02*
X61687637Y-73014851D01*
X61687637Y-73014851D02*
X61660227Y-73032949D01*
X61660227Y-73032949D02*
X61658163Y-73034510D01*
X61658163Y-73034510D02*
X61238031Y-73340129D01*
X61238031Y-73340129D02*
X60821154Y-73649850D01*
X60821154Y-73649850D02*
X60407611Y-73963699D01*
X60407611Y-73963699D02*
X59997375Y-74281622D01*
X59997375Y-74281622D02*
X59590526Y-74603593D01*
X59590526Y-74603593D02*
X59187090Y-74929585D01*
X59187090Y-74929585D02*
X58787067Y-75259547D01*
X58787067Y-75259547D02*
X58390483Y-75593503D01*
X58390483Y-75593503D02*
X57997419Y-75931376D01*
X57997419Y-75931376D02*
X57607847Y-76273164D01*
X57607847Y-76273164D02*
X57221820Y-76618815D01*
X57221820Y-76618815D02*
X56839366Y-76968330D01*
X56839366Y-76968330D02*
X56460509Y-77321654D01*
X56460509Y-77321654D02*
X56085277Y-77678788D01*
X56085277Y-77678788D02*
X55713697Y-78039679D01*
X55713697Y-78039679D02*
X55345821Y-78404301D01*
X55345821Y-78404301D02*
X54981649Y-78772627D01*
X54981649Y-78772627D02*
X54621234Y-79144657D01*
X54621234Y-79144657D02*
X54264576Y-79520338D01*
X54264576Y-79520338D02*
X53911728Y-79899618D01*
X53911728Y-79899618D02*
X53562690Y-80282523D01*
X53562690Y-80282523D02*
X53217542Y-80668973D01*
X53217542Y-80668973D02*
X52876256Y-81058994D01*
X52876256Y-81058994D02*
X52538886Y-81452509D01*
X52538886Y-81452509D02*
X52205485Y-81849489D01*
X52205485Y-81849489D02*
X51876053Y-82249962D01*
X51876053Y-82249962D02*
X51550611Y-82653848D01*
X51550611Y-82653848D02*
X51229206Y-83061120D01*
X51229206Y-83061120D02*
X50911862Y-83471780D01*
X50911862Y-83471780D02*
X50598607Y-83885773D01*
X50598607Y-83885773D02*
X50289470Y-84303100D01*
X50289470Y-84303100D02*
X49984480Y-84723681D01*
X49984480Y-84723681D02*
X49980864Y-84729369D01*
X49980864Y-84729369D02*
X49964843Y-84755219D01*
X49964843Y-84755219D02*
X49791210Y-85176885D01*
X49791210Y-85176885D02*
X49784493Y-85210487D01*
X49784493Y-85210487D02*
X49783458Y-85214085D01*
X49783458Y-85214085D02*
X49702467Y-85727297D01*
X49702467Y-85727297D02*
X49626722Y-86241064D01*
X49626722Y-86241064D02*
X49556226Y-86755414D01*
X49556226Y-86755414D02*
X49490980Y-87270266D01*
X49490980Y-87270266D02*
X49430981Y-87785620D01*
X49430981Y-87785620D02*
X49376233Y-88301372D01*
X49376233Y-88301372D02*
X49326731Y-88817547D01*
X49326731Y-88817547D02*
X49282479Y-89334066D01*
X49282479Y-89334066D02*
X49243476Y-89850902D01*
X49243476Y-89850902D02*
X49209723Y-90368030D01*
X49209723Y-90368030D02*
X49181218Y-90885369D01*
X49181218Y-90885369D02*
X49157963Y-91402920D01*
X49157963Y-91402920D02*
X49139957Y-91920629D01*
X49139957Y-91920629D02*
X49127200Y-92438445D01*
X49127200Y-92438445D02*
X49119694Y-92956260D01*
X49119694Y-92956260D02*
X49117436Y-93474314D01*
X49117436Y-93474314D02*
X49120429Y-93992103D01*
X49120429Y-93992103D02*
X49128671Y-94510156D01*
X49128671Y-94510156D02*
X49142163Y-95027945D01*
X49142163Y-95027945D02*
X49160905Y-95545469D01*
X49160905Y-95545469D02*
X49184897Y-96062994D01*
X49184897Y-96062994D02*
X49214140Y-96580518D01*
X49214140Y-96580518D02*
X49248632Y-97097513D01*
X49248632Y-97097513D02*
X49288375Y-97614244D01*
X49288375Y-97614244D02*
X49333369Y-98130710D01*
X49333369Y-98130710D02*
X49383612Y-98646911D01*
X49383612Y-98646911D02*
X49439109Y-99162584D01*
X49439109Y-99162584D02*
X49499854Y-99677727D01*
X49499854Y-99677727D02*
X49565849Y-100192605D01*
X49565849Y-100192605D02*
X49637096Y-100706690D01*
X49637096Y-100706690D02*
X49713595Y-101220510D01*
X49713595Y-101220510D02*
X49795343Y-101733537D01*
X49795343Y-101733537D02*
X49803095Y-101768726D01*
X49803095Y-101768726D02*
X49978794Y-102188884D01*
X49978794Y-102188884D02*
X49993265Y-102213490D01*
X49993265Y-102213490D02*
X49998432Y-102221692D01*
X49998432Y-102221692D02*
X50304041Y-102641850D01*
X50304041Y-102641850D02*
X50613780Y-103058833D01*
X50613780Y-103058833D02*
X50927626Y-103472376D01*
X50927626Y-103472376D02*
X51245546Y-103882480D01*
X51245546Y-103882480D02*
X51567512Y-104289408D01*
X51567512Y-104289408D02*
X51893489Y-104692897D01*
X51893489Y-104692897D02*
X52223477Y-105092947D01*
X52223477Y-105092947D02*
X52557407Y-105489557D01*
X52557407Y-105489557D02*
X52895306Y-105882463D01*
X52895306Y-105882463D02*
X53237068Y-106272193D01*
X53237068Y-106272193D02*
X53582746Y-106658220D01*
X53582746Y-106658220D02*
X53932260Y-107040542D01*
X53932260Y-107040542D02*
X54285584Y-107419425D01*
X54285584Y-107419425D02*
X54642718Y-107794604D01*
X54642718Y-107794604D02*
X55003609Y-108166343D01*
X55003609Y-108166343D02*
X55368231Y-108534113D01*
X55368231Y-108534113D02*
X55736584Y-108898180D01*
X55736584Y-108898180D02*
X56108587Y-109258806D01*
X56108587Y-109258806D02*
X56484269Y-109615464D01*
X56484269Y-109615464D02*
X56863575Y-109968153D01*
X56863575Y-109968153D02*
X57246453Y-110317138D01*
X57246453Y-110317138D02*
X57632929Y-110662419D01*
X57632929Y-110662419D02*
X58022925Y-111003731D01*
X58022925Y-111003731D02*
X58416439Y-111341074D01*
X58416439Y-111341074D02*
X58813446Y-111674449D01*
X58813446Y-111674449D02*
X59213892Y-112003855D01*
X59213892Y-112003855D02*
X59617778Y-112329292D01*
X59617778Y-112329292D02*
X60025077Y-112650760D01*
X60025077Y-112650760D02*
X60435710Y-112967995D01*
X60435710Y-112967995D02*
X60849729Y-113281262D01*
X60849729Y-113281262D02*
X61267030Y-113590559D01*
X61267030Y-113590559D02*
X61687637Y-113895359D01*
X61687637Y-113895359D02*
X61713461Y-113908852D01*
X61713461Y-113908852D02*
X61714492Y-113909382D01*
X61714492Y-113909382D02*
X61719149Y-113911498D01*
X61719149Y-113911498D02*
X62140815Y-114087181D01*
X62140815Y-114087181D02*
X62167194Y-114094590D01*
X62167194Y-114094590D02*
X62168226Y-114094590D01*
X62168226Y-114094590D02*
X62178042Y-114097236D01*
X62178042Y-114097236D02*
X62691227Y-114178198D01*
X62691227Y-114178198D02*
X63205021Y-114253869D01*
X63205021Y-114253869D02*
X63719344Y-114324512D01*
X63719344Y-114324512D02*
X64234222Y-114389600D01*
X64234222Y-114389600D02*
X64749551Y-114449660D01*
X64749551Y-114449660D02*
X65265329Y-114504429D01*
X65265329Y-114504429D02*
X65781477Y-114553906D01*
X65781477Y-114553906D02*
X66297996Y-114598091D01*
X66297996Y-114598091D02*
X66814859Y-114637249D01*
X66814859Y-114637249D02*
X67331960Y-114670851D01*
X67331960Y-114670851D02*
X67849326Y-114699426D01*
X67849326Y-114699426D02*
X68366876Y-114722710D01*
X68366876Y-114722710D02*
X68884559Y-114740701D01*
X68884559Y-114740701D02*
X69402401Y-114753401D01*
X69402401Y-114753401D02*
X69920296Y-114760810D01*
X69920296Y-114760810D02*
X70438217Y-114763191D01*
X70438217Y-114763191D02*
X70956165Y-114760281D01*
X70956165Y-114760281D02*
X71474033Y-114752078D01*
X71474033Y-114752078D02*
X71991849Y-114738585D01*
X71991849Y-114738585D02*
X72509505Y-114719799D01*
X72509505Y-114719799D02*
X73027030Y-114695722D01*
X73027030Y-114695722D02*
X73544342Y-114666618D01*
X73544342Y-114666618D02*
X74061417Y-114631958D01*
X74061417Y-114631958D02*
X74578200Y-114592270D01*
X74578200Y-114592270D02*
X75094640Y-114547291D01*
X75094640Y-114547291D02*
X75610762Y-114497020D01*
X75610762Y-114497020D02*
X76126434Y-114441458D01*
X76126434Y-114441458D02*
X76641577Y-114380868D01*
X76641577Y-114380868D02*
X77156456Y-114314723D01*
X77156456Y-114314723D02*
X77670805Y-114243550D01*
X77670805Y-114243550D02*
X78184361Y-114167085D01*
X78184361Y-114167085D02*
X78697387Y-114085329D01*
X78697387Y-114085329D02*
X78711939Y-114081625D01*
X78711939Y-114081625D02*
X78712469Y-114081625D01*
X78712469Y-114081625D02*
X78732577Y-114075540D01*
X78732577Y-114075540D02*
X79154322Y-113899857D01*
X79154322Y-113899857D02*
X79165170Y-113894565D01*
X79165170Y-113894565D02*
X79166758Y-113893507D01*
X79166758Y-113893507D02*
X79187924Y-113882130D01*
X79187924Y-113882130D02*
X79608082Y-113576536D01*
X79608082Y-113576536D02*
X80024800Y-113266709D01*
X80024800Y-113266709D02*
X80438343Y-112952914D01*
X80438343Y-112952914D02*
X80848712Y-112635150D01*
X80848712Y-112635150D02*
X81255376Y-112313152D01*
X81255376Y-112313152D02*
X81658865Y-111987186D01*
X81658865Y-111987186D02*
X82058650Y-111657251D01*
X82058650Y-111657251D02*
X82455260Y-111323083D01*
X82455260Y-111323083D02*
X82848165Y-110985210D01*
X82848165Y-110985210D02*
X83237632Y-110643634D01*
X83237632Y-110643634D02*
X83623658Y-110297824D01*
X83623658Y-110297824D02*
X84005981Y-109948309D01*
X84005981Y-109948309D02*
X84384864Y-109595091D01*
X84384864Y-109595091D02*
X84760042Y-109237904D01*
X84760042Y-109237904D02*
X85131517Y-108877013D01*
X85131517Y-108877013D02*
X85499287Y-108512418D01*
X85499287Y-108512418D02*
X85863353Y-108144118D01*
X85863353Y-108144118D02*
X86223715Y-107772114D01*
X86223715Y-107772114D02*
X86580109Y-107396406D01*
X86580109Y-107396406D02*
X86932798Y-107016994D01*
X86932798Y-107016994D02*
X87281783Y-106634143D01*
X87281783Y-106634143D02*
X87626799Y-106247587D01*
X87626799Y-106247587D02*
X87968111Y-105857592D01*
X87968111Y-105857592D02*
X88305454Y-105464157D01*
X88305454Y-105464157D02*
X88638829Y-105067282D01*
X88638829Y-105067282D02*
X88968235Y-104666704D01*
X88968235Y-104666704D02*
X89293407Y-104262950D01*
X89293407Y-104262950D02*
X89614876Y-103855492D01*
X89614876Y-103855492D02*
X89932111Y-103444859D01*
X89932111Y-103444859D02*
X90245377Y-103030787D01*
X90245377Y-103030787D02*
X90554410Y-102613540D01*
X90554410Y-102613540D02*
X90859474Y-102193117D01*
X90859474Y-102193117D02*
X90872439Y-102168776D01*
X90872439Y-102168776D02*
X90877201Y-102159515D01*
X90877201Y-102159515D02*
X91051297Y-101737770D01*
X91051297Y-101737770D02*
X91053413Y-101730891D01*
X91053413Y-101730891D02*
X91062674Y-101702580D01*
X91062674Y-101702580D02*
X91143636Y-101189289D01*
X91143636Y-101189289D02*
X91219307Y-100675469D01*
X91219307Y-100675469D02*
X91289951Y-100161120D01*
X91289951Y-100161120D02*
X91355038Y-99646506D01*
X91355038Y-99646506D02*
X91415098Y-99131098D01*
X91415098Y-99131098D02*
X91469603Y-98615161D01*
X91469603Y-98615161D02*
X91519080Y-98099224D01*
X91519080Y-98099224D02*
X91563265Y-97582494D01*
X91563265Y-97582494D02*
X91602423Y-97065763D01*
X91602423Y-97065763D02*
X91636025Y-96548503D01*
X91636025Y-96548503D02*
X91664336Y-96031244D01*
X91664336Y-96031244D02*
X91687619Y-95513719D01*
X91687619Y-95513719D02*
X91705611Y-94995930D01*
X91705611Y-94995930D02*
X91718311Y-94478141D01*
X91718311Y-94478141D02*
X91725719Y-93960353D01*
X91725719Y-93960353D02*
X91727836Y-93442299D01*
X91727836Y-93442299D02*
X91724925Y-92924510D01*
X91724925Y-92924510D02*
X91716458Y-92406536D01*
X91716458Y-92406536D02*
X91702965Y-91888747D01*
X91702965Y-91888747D02*
X91684179Y-91371064D01*
X91684179Y-91371064D02*
X91660102Y-90853566D01*
X91660102Y-90853566D02*
X91630734Y-90336253D01*
X91630734Y-90336253D02*
X91596338Y-89819179D01*
X91596338Y-89819179D02*
X91556386Y-89302395D01*
X91556386Y-89302395D02*
X91511407Y-88785929D01*
X91511407Y-88785929D02*
X91461136Y-88269860D01*
X91461136Y-88269860D02*
X91405573Y-87754161D01*
X91405573Y-87754161D02*
X91344719Y-87238912D01*
X91344719Y-87238912D02*
X91278838Y-86724140D01*
X91278838Y-86724140D02*
X91207401Y-86209923D01*
X91207401Y-86209923D02*
X91130936Y-85696235D01*
X91130936Y-85696235D02*
X91049180Y-85183182D01*
X91049180Y-85183182D02*
X91045211Y-85167148D01*
X91045211Y-85167148D02*
X91045211Y-85166116D01*
X91045211Y-85166116D02*
X91039391Y-85145982D01*
X91039391Y-85145982D02*
X90863707Y-84723786D01*
X90863707Y-84723786D02*
X90849685Y-84700530D01*
X90849685Y-84700530D02*
X90849155Y-84699498D01*
X90849155Y-84699498D02*
X90846245Y-84694841D01*
X90846245Y-84694841D02*
X90540387Y-84274683D01*
X90540387Y-84274683D02*
X90230825Y-83857806D01*
X90230825Y-83857806D02*
X89917029Y-83444237D01*
X89917029Y-83444237D02*
X89599001Y-83034001D01*
X89599001Y-83034001D02*
X89277003Y-82627151D01*
X89277003Y-82627151D02*
X88951037Y-82223715D01*
X88951037Y-82223715D02*
X88620837Y-81823666D01*
X88620837Y-81823666D02*
X88286934Y-81427109D01*
X88286934Y-81427109D02*
X87949061Y-81034018D01*
X87949061Y-81034018D02*
X87607220Y-80644446D01*
X87607220Y-80644446D02*
X87261674Y-80258419D01*
X87261674Y-80258419D02*
X86912160Y-79875964D01*
X86912160Y-79875964D02*
X86558677Y-79497108D01*
X86558677Y-79497108D02*
X86201490Y-79121876D01*
X86201490Y-79121876D02*
X85840599Y-78750296D01*
X85840599Y-78750296D02*
X85476004Y-78382420D01*
X85476004Y-78382420D02*
X85107704Y-78018248D01*
X85107704Y-78018248D02*
X84735436Y-77657833D01*
X84735436Y-77657833D02*
X84359728Y-77301175D01*
X84359728Y-77301175D02*
X83980581Y-76948301D01*
X83980581Y-76948301D02*
X83597729Y-76599289D01*
X83597729Y-76599289D02*
X83211173Y-76254141D01*
X83211173Y-76254141D02*
X82821178Y-75912855D01*
X82821178Y-75912855D02*
X82427478Y-75575485D01*
X82427478Y-75575485D02*
X82030604Y-75242084D01*
X82030604Y-75242084D02*
X81630025Y-74912626D01*
X81630025Y-74912626D02*
X81226272Y-74587188D01*
X81226272Y-74587188D02*
X80818814Y-74265799D01*
X80818814Y-74265799D02*
X80408181Y-73948459D01*
X80408181Y-73948459D02*
X79994109Y-73635192D01*
X79994109Y-73635192D02*
X79576861Y-73326054D01*
X79576861Y-73326054D02*
X79156174Y-73021069D01*
X79156174Y-73021069D02*
X79145326Y-73014348D01*
X79145326Y-73014348D02*
X79145062Y-73013819D01*
X79145062Y-73013819D02*
X79123366Y-73001410D01*
X79123366Y-73001410D02*
X78701621Y-72825701D01*
X78701621Y-72825701D02*
X78681777Y-72820012D01*
X78681777Y-72820012D02*
X78661139Y-72818478D01*
X78661139Y-72818478D02*
X78660081Y-72818478D01*
X78660081Y-72818478D02*
X78147319Y-72737621D01*
X78147319Y-72737621D02*
X77634028Y-72661977D01*
X77634028Y-72661977D02*
X77119943Y-72591571D01*
X77119943Y-72591571D02*
X76605594Y-72526431D01*
X76605594Y-72526431D02*
X76090716Y-72466503D01*
X76090716Y-72466503D02*
X75575308Y-72411840D01*
X75575308Y-72411840D02*
X75059556Y-72362389D01*
X75059556Y-72362389D02*
X74543434Y-72318204D01*
X74543434Y-72318204D02*
X74027021Y-72279257D01*
X74027021Y-72279257D02*
X73510317Y-72245549D01*
X73510317Y-72245549D02*
X72993375Y-72217080D01*
X72993375Y-72217080D02*
X72476221Y-72193850D01*
X72476221Y-72193850D02*
X71958935Y-72175885D01*
X71958935Y-72175885D02*
X71441516Y-72163132D01*
X71441516Y-72163132D02*
X70924018Y-72155644D01*
X70924018Y-72155644D02*
X70406467Y-72153422D01*
X70406467Y-72153422D02*
X70406467Y-72153422D01*
X70406467Y-72153422D02*
X70406467Y-72153422D01*
M02*
