%TF.GenerationSoftware,KiCad,Pcbnew,(5.1.6)-1*%
%TF.CreationDate,2024-07-23T23:35:14+05:30*%
%TF.ProjectId,Project_OAK_MAIN_BRD_V0.1,50726f6a-6563-4745-9f4f-414b5f4d4149,A*%
%TF.SameCoordinates,Original*%
%TF.FileFunction,Soldermask,Bot*%
%TF.FilePolarity,Negative*%
%FSLAX46Y46*%
G04 Gerber Fmt 4.6, Leading zero omitted, Abs format (unit mm)*
G04 Created by KiCad (PCBNEW (5.1.6)-1) date 2024-07-23 23:35:14*
%MOMM*%
%LPD*%
G01*
G04 APERTURE LIST*
%ADD10C,2.300000*%
%ADD11R,1.000000X1.100000*%
%ADD12C,1.200000*%
%ADD13R,2.800000X5.760000*%
%ADD14R,8.000000X6.160000*%
G04 APERTURE END LIST*
D10*
%TO.C,REF\u002A\u002A*%
X87630000Y-86360000D03*
%TD*%
%TO.C,REF\u002A\u002A*%
X87630000Y-100584000D03*
%TD*%
%TO.C,REF\u002A\u002A*%
X77571600Y-110642400D03*
%TD*%
%TO.C,REF\u002A\u002A*%
X63347600Y-110642400D03*
%TD*%
%TO.C,REF\u002A\u002A*%
X53289200Y-100584000D03*
%TD*%
%TO.C,REF\u002A\u002A*%
X53289200Y-86360000D03*
%TD*%
%TO.C,REF\u002A\u002A*%
X63347600Y-76301600D03*
%TD*%
%TO.C,REF\u002A\u002A*%
X77571600Y-76301600D03*
%TD*%
D11*
%TO.C,Q1*%
X70459600Y-81772000D03*
X71409600Y-79772000D03*
X69509600Y-79772000D03*
%TD*%
D12*
%TO.C,TP10*%
X65786000Y-82296000D03*
%TD*%
%TO.C,TP9*%
X63119000Y-83820000D03*
%TD*%
%TO.C,TP11*%
X78016100Y-83883500D03*
%TD*%
%TO.C,TP8*%
X75031600Y-82232500D03*
%TD*%
D13*
%TO.C,BT1*%
X58554600Y-93472000D03*
X82364600Y-93472000D03*
D14*
X70459600Y-93472000D03*
%TD*%
%TO.C,C4*%
G36*
G01*
X81314400Y-87852500D02*
X81314400Y-87407500D01*
G75*
G02*
X81511900Y-87210000I197500J0D01*
G01*
X81906900Y-87210000D01*
G75*
G02*
X82104400Y-87407500I0J-197500D01*
G01*
X82104400Y-87852500D01*
G75*
G02*
X81906900Y-88050000I-197500J0D01*
G01*
X81511900Y-88050000D01*
G75*
G02*
X81314400Y-87852500I0J197500D01*
G01*
G37*
G36*
G01*
X82284400Y-87852500D02*
X82284400Y-87407500D01*
G75*
G02*
X82481900Y-87210000I197500J0D01*
G01*
X82876900Y-87210000D01*
G75*
G02*
X83074400Y-87407500I0J-197500D01*
G01*
X83074400Y-87852500D01*
G75*
G02*
X82876900Y-88050000I-197500J0D01*
G01*
X82481900Y-88050000D01*
G75*
G02*
X82284400Y-87852500I0J197500D01*
G01*
G37*
%TD*%
%TO.C,R1*%
G36*
G01*
X58916400Y-87852500D02*
X58916400Y-87407500D01*
G75*
G02*
X59113900Y-87210000I197500J0D01*
G01*
X59508900Y-87210000D01*
G75*
G02*
X59706400Y-87407500I0J-197500D01*
G01*
X59706400Y-87852500D01*
G75*
G02*
X59508900Y-88050000I-197500J0D01*
G01*
X59113900Y-88050000D01*
G75*
G02*
X58916400Y-87852500I0J197500D01*
G01*
G37*
G36*
G01*
X57946400Y-87852500D02*
X57946400Y-87407500D01*
G75*
G02*
X58143900Y-87210000I197500J0D01*
G01*
X58538900Y-87210000D01*
G75*
G02*
X58736400Y-87407500I0J-197500D01*
G01*
X58736400Y-87852500D01*
G75*
G02*
X58538900Y-88050000I-197500J0D01*
G01*
X58143900Y-88050000D01*
G75*
G02*
X57946400Y-87852500I0J197500D01*
G01*
G37*
%TD*%
%TO.C,R5*%
G36*
G01*
X67849500Y-79485600D02*
X68294500Y-79485600D01*
G75*
G02*
X68492000Y-79683100I0J-197500D01*
G01*
X68492000Y-80078100D01*
G75*
G02*
X68294500Y-80275600I-197500J0D01*
G01*
X67849500Y-80275600D01*
G75*
G02*
X67652000Y-80078100I0J197500D01*
G01*
X67652000Y-79683100D01*
G75*
G02*
X67849500Y-79485600I197500J0D01*
G01*
G37*
G36*
G01*
X67849500Y-80455600D02*
X68294500Y-80455600D01*
G75*
G02*
X68492000Y-80653100I0J-197500D01*
G01*
X68492000Y-81048100D01*
G75*
G02*
X68294500Y-81245600I-197500J0D01*
G01*
X67849500Y-81245600D01*
G75*
G02*
X67652000Y-81048100I0J197500D01*
G01*
X67652000Y-80653100D01*
G75*
G02*
X67849500Y-80455600I197500J0D01*
G01*
G37*
%TD*%
%TO.C,R6*%
G36*
G01*
X73095100Y-80072400D02*
X72650100Y-80072400D01*
G75*
G02*
X72452600Y-79874900I0J197500D01*
G01*
X72452600Y-79479900D01*
G75*
G02*
X72650100Y-79282400I197500J0D01*
G01*
X73095100Y-79282400D01*
G75*
G02*
X73292600Y-79479900I0J-197500D01*
G01*
X73292600Y-79874900D01*
G75*
G02*
X73095100Y-80072400I-197500J0D01*
G01*
G37*
G36*
G01*
X73095100Y-81042400D02*
X72650100Y-81042400D01*
G75*
G02*
X72452600Y-80844900I0J197500D01*
G01*
X72452600Y-80449900D01*
G75*
G02*
X72650100Y-80252400I197500J0D01*
G01*
X73095100Y-80252400D01*
G75*
G02*
X73292600Y-80449900I0J-197500D01*
G01*
X73292600Y-80844900D01*
G75*
G02*
X73095100Y-81042400I-197500J0D01*
G01*
G37*
%TD*%
D12*
%TO.C,TP1*%
X72999600Y-105968800D03*
%TD*%
%TO.C,TP3*%
X70459600Y-105968800D03*
%TD*%
%TO.C,TP4*%
X72999600Y-103428800D03*
%TD*%
%TO.C,TP5*%
X70459600Y-103428800D03*
%TD*%
%TO.C,TP12*%
X67919600Y-103428800D03*
%TD*%
%TO.C,TP13*%
X67919600Y-105968800D03*
%TD*%
M02*
