M48
; DRILL file {KiCad (5.1.6)-1} date 07/23/24 23:35:20
; FORMAT={-:-/ absolute / inch / decimal}
; #@! TF.CreationDate,2024-07-23T23:35:20+05:30
; #@! TF.GenerationSoftware,Kicad,Pcbnew,(5.1.6)-1
FMAT,2
INCH
T1C0.0118
T2C0.0157
T3C0.0827
%
G90
G05
T1
X2.25Y-3.88
X2.391Y-3.469
X2.3955Y-3.539
X2.4265Y-3.82
X2.4444Y-3.409
X2.4525Y-3.5375
X2.4527Y-3.6977
X2.455Y-4.065
X2.4558Y-3.6623
X2.4661Y-3.8388
X2.47Y-3.518
X2.5019Y-3.4379
X2.5481Y-3.7645
X2.55Y-3.925
X2.565Y-4.1425
X2.5775Y-3.59
X2.5777Y-3.6977
X2.5829Y-3.4695
X2.66Y-4.0225
X2.6662Y-3.9763
X2.67Y-3.24
X2.67Y-3.2825
X2.687Y-3.93
X2.6925Y-3.4871
X2.696Y-3.427
X2.701Y-3.586
X2.71Y-4.21
X2.7183Y-3.4733
X2.7188Y-3.4448
X2.762Y-3.5848
X2.774Y-3.875
X2.79Y-3.5851
X2.8205Y-3.431
X2.8273Y-3.2137
X2.83Y-3.3225
X2.8453Y-3.4795
X2.8472Y-3.4275
X2.848Y-3.835
X2.871Y-3.817
X2.8759Y-3.4821
X2.8875Y-3.4075
X2.9067Y-3.4831
X2.945Y-3.6804
X2.945Y-3.722
X2.946Y-3.64
X2.982Y-3.5458
X2.9854Y-3.64
X2.986Y-3.681
X2.986Y-3.722
X2.997Y-3.84
X3.007Y-3.533
X3.008Y-3.426
X3.024Y-3.723
X3.026Y-3.399
X3.026Y-3.64
X3.0268Y-3.842
X3.027Y-3.681
X3.0315Y-3.9477
X3.0346Y-3.5337
X3.047Y-3.427
X3.0625Y-3.2625
X3.0887Y-3.7878
X3.097Y-3.5881
X3.1082Y-3.7678
X3.1156Y-3.7948
X3.1163Y-3.7109
X3.1181Y-3.5676
X3.1196Y-3.5368
X3.12Y-3.822
X3.1237Y-3.595
X3.1318Y-3.6628
X3.17Y-3.443
X3.178Y-3.818
X3.179Y-3.843
X3.198Y-3.516
X3.203Y-3.83
X3.2205Y-3.5332
X3.31Y-4.2575
X3.345Y-3.19
X3.3605Y-4.1505
X3.4Y-3.3
X3.465Y-3.66
X3.465Y-3.7775
T2
X2.2Y-3.555
X2.2315Y-3.595
X2.2315Y-3.6344
X2.2315Y-3.7275
X2.2315Y-3.7669
X2.2565Y-3.45
X2.2764Y-3.5125
X2.319Y-3.88
X2.3321Y-3.3859
X2.3436Y-3.8125
X2.3616Y-3.9549
X2.3646Y-3.5313
X2.3715Y-3.8291
X2.3869Y-4.0186
X2.3991Y-3.4005
X2.41Y-3.97
X2.4725Y-3.5875
X2.496Y-4.096
X2.504Y-3.337
X2.514Y-3.927
X2.5169Y-4.0024
X2.539Y-3.275
X2.552Y-3.955
X2.553Y-3.408
X2.5575Y-3.795
X2.6118Y-4.1551
X2.6325Y-4.0475
X2.635Y-3.96
X2.7008Y-3.875
X2.7117Y-3.3606
X2.714Y-4.1075
X2.7158Y-3.1818
X2.719Y-3.2638
X2.719Y-3.329
X2.7725Y-3.485
X2.817Y-4.1825
X2.8293Y-4.0273
X2.848Y-4.002
X2.8489Y-3.2398
X2.854Y-4.245
X2.8644Y-3.3204
X2.919Y-4.03
X2.9415Y-4.1589
X2.944Y-3.192
X2.952Y-3.4849
X2.9547Y-3.1608
X2.9676Y-3.8207
X2.9687Y-3.8607
X2.9746Y-3.5069
X2.9891Y-3.3953
X2.9924Y-4.1331
X2.994Y-3.2225
X2.9955Y-4.0477
X3.0084Y-3.9661
X3.0305Y-4.0223
X3.037Y-3.3472
X3.0693Y-3.5285
X3.079Y-3.864
X3.0815Y-3.92
X3.0909Y-4.0411
X3.098Y-3.429
X3.151Y-3.831
X3.158Y-3.873
X3.1665Y-3.405
X3.174Y-3.952
X3.1805Y-3.4746
X3.2355Y-3.507
X3.3Y-3.078
X3.3165Y-3.59
X3.3165Y-3.7225
X3.3173Y-3.6294
X3.3201Y-3.7619
X3.3304Y-3.4387
X3.415Y-4.0375
X3.4675Y-3.54
T3
X3.45Y-3.96
X2.494Y-4.356
X3.054Y-4.356
X3.45Y-3.4
X2.494Y-3.004
X2.098Y-3.96
X2.098Y-3.4
X3.054Y-3.004
T0
M30
