%TF.GenerationSoftware,KiCad,Pcbnew,(5.1.6)-1*%
%TF.CreationDate,2025-07-06T20:15:57+05:30*%
%TF.ProjectId,Project_OAK_WATCH_DIAL_V0,50726f6a-6563-4745-9f4f-414b5f574154,A*%
%TF.SameCoordinates,Original*%
%TF.FileFunction,Soldermask,Bot*%
%TF.FilePolarity,Negative*%
%FSLAX46Y46*%
G04 Gerber Fmt 4.6, Leading zero omitted, Abs format (unit mm)*
G04 Created by KiCad (PCBNEW (5.1.6)-1) date 2025-07-06 20:15:57*
%MOMM*%
%LPD*%
G01*
G04 APERTURE LIST*
%ADD10C,0.010000*%
%ADD11C,2.500000*%
G04 APERTURE END LIST*
D10*
%TO.C,G\u002A\u002A\u002A*%
G36*
X70561422Y-79522923D02*
G01*
X70713906Y-79557814D01*
X70860393Y-79627524D01*
X70974827Y-79714282D01*
X71087037Y-79838345D01*
X71161710Y-79973891D01*
X71201785Y-80127766D01*
X71210918Y-80264000D01*
X71208538Y-80364563D01*
X71199203Y-80439600D01*
X71179814Y-80505738D01*
X71155239Y-80562873D01*
X71064288Y-80714235D01*
X70945824Y-80835302D01*
X70814529Y-80921216D01*
X70740512Y-80957921D01*
X70677023Y-80980068D01*
X70607033Y-80991827D01*
X70513514Y-80997367D01*
X70501933Y-80997748D01*
X70410202Y-80998085D01*
X70327301Y-80993917D01*
X70268054Y-80986106D01*
X70258516Y-80983635D01*
X70150224Y-80936074D01*
X70037435Y-80863913D01*
X69937050Y-80779078D01*
X69883622Y-80719083D01*
X69799474Y-80583313D01*
X69749716Y-80439631D01*
X69730652Y-80276524D01*
X69730196Y-80241287D01*
X69749289Y-80074424D01*
X69802690Y-79925314D01*
X69885361Y-79796090D01*
X69992263Y-79688885D01*
X70118359Y-79605832D01*
X70258610Y-79549065D01*
X70407977Y-79520718D01*
X70561422Y-79522923D01*
G37*
X70561422Y-79522923D02*
X70713906Y-79557814D01*
X70860393Y-79627524D01*
X70974827Y-79714282D01*
X71087037Y-79838345D01*
X71161710Y-79973891D01*
X71201785Y-80127766D01*
X71210918Y-80264000D01*
X71208538Y-80364563D01*
X71199203Y-80439600D01*
X71179814Y-80505738D01*
X71155239Y-80562873D01*
X71064288Y-80714235D01*
X70945824Y-80835302D01*
X70814529Y-80921216D01*
X70740512Y-80957921D01*
X70677023Y-80980068D01*
X70607033Y-80991827D01*
X70513514Y-80997367D01*
X70501933Y-80997748D01*
X70410202Y-80998085D01*
X70327301Y-80993917D01*
X70268054Y-80986106D01*
X70258516Y-80983635D01*
X70150224Y-80936074D01*
X70037435Y-80863913D01*
X69937050Y-80779078D01*
X69883622Y-80719083D01*
X69799474Y-80583313D01*
X69749716Y-80439631D01*
X69730652Y-80276524D01*
X69730196Y-80241287D01*
X69749289Y-80074424D01*
X69802690Y-79925314D01*
X69885361Y-79796090D01*
X69992263Y-79688885D01*
X70118359Y-79605832D01*
X70258610Y-79549065D01*
X70407977Y-79520718D01*
X70561422Y-79522923D01*
G36*
X73899183Y-79979059D02*
G01*
X73997920Y-79981205D01*
X74069650Y-79988671D01*
X74129636Y-80004498D01*
X74193144Y-80031725D01*
X74213228Y-80041602D01*
X74340586Y-80124417D01*
X74454885Y-80234791D01*
X74545268Y-80360895D01*
X74587408Y-80449279D01*
X74619831Y-80579827D01*
X74629365Y-80726058D01*
X74616559Y-80872129D01*
X74581963Y-81002202D01*
X74567006Y-81036583D01*
X74476419Y-81177232D01*
X74357458Y-81293324D01*
X74217120Y-81381627D01*
X74062397Y-81438908D01*
X73900284Y-81461934D01*
X73737776Y-81447472D01*
X73698796Y-81437870D01*
X73533526Y-81372490D01*
X73394481Y-81275149D01*
X73279046Y-81143690D01*
X73215402Y-81038857D01*
X73188545Y-80983435D01*
X73171679Y-80932362D01*
X73162544Y-80872974D01*
X73158883Y-80792606D01*
X73158366Y-80719083D01*
X73159644Y-80616324D01*
X73165067Y-80542568D01*
X73176987Y-80484522D01*
X73197760Y-80428893D01*
X73216991Y-80388004D01*
X73304663Y-80254084D01*
X73424790Y-80136667D01*
X73568217Y-80044459D01*
X73588559Y-80034561D01*
X73655970Y-80006016D01*
X73718000Y-79989073D01*
X73789997Y-79980990D01*
X73887310Y-79979024D01*
X73899183Y-79979059D01*
G37*
X73899183Y-79979059D02*
X73997920Y-79981205D01*
X74069650Y-79988671D01*
X74129636Y-80004498D01*
X74193144Y-80031725D01*
X74213228Y-80041602D01*
X74340586Y-80124417D01*
X74454885Y-80234791D01*
X74545268Y-80360895D01*
X74587408Y-80449279D01*
X74619831Y-80579827D01*
X74629365Y-80726058D01*
X74616559Y-80872129D01*
X74581963Y-81002202D01*
X74567006Y-81036583D01*
X74476419Y-81177232D01*
X74357458Y-81293324D01*
X74217120Y-81381627D01*
X74062397Y-81438908D01*
X73900284Y-81461934D01*
X73737776Y-81447472D01*
X73698796Y-81437870D01*
X73533526Y-81372490D01*
X73394481Y-81275149D01*
X73279046Y-81143690D01*
X73215402Y-81038857D01*
X73188545Y-80983435D01*
X73171679Y-80932362D01*
X73162544Y-80872974D01*
X73158883Y-80792606D01*
X73158366Y-80719083D01*
X73159644Y-80616324D01*
X73165067Y-80542568D01*
X73176987Y-80484522D01*
X73197760Y-80428893D01*
X73216991Y-80388004D01*
X73304663Y-80254084D01*
X73424790Y-80136667D01*
X73568217Y-80044459D01*
X73588559Y-80034561D01*
X73655970Y-80006016D01*
X73718000Y-79989073D01*
X73789997Y-79980990D01*
X73887310Y-79979024D01*
X73899183Y-79979059D01*
G36*
X67151582Y-79981985D02*
G01*
X67226744Y-79991235D01*
X67294777Y-80010862D01*
X67363642Y-80039848D01*
X67507953Y-80127101D01*
X67627764Y-80242420D01*
X67719556Y-80379163D01*
X67779805Y-80530686D01*
X67804991Y-80690349D01*
X67792269Y-80848275D01*
X67736305Y-81023885D01*
X67646897Y-81174357D01*
X67525524Y-81297805D01*
X67373667Y-81392342D01*
X67360675Y-81398404D01*
X67231878Y-81441156D01*
X67088704Y-81462732D01*
X66949563Y-81461218D01*
X66876812Y-81448719D01*
X66715466Y-81386962D01*
X66573692Y-81289759D01*
X66456963Y-81161582D01*
X66391197Y-81052014D01*
X66356867Y-80978116D01*
X66336077Y-80917315D01*
X66325501Y-80853746D01*
X66321815Y-80771546D01*
X66321516Y-80719528D01*
X66323495Y-80618171D01*
X66331297Y-80543627D01*
X66347717Y-80480484D01*
X66375552Y-80413330D01*
X66378035Y-80408007D01*
X66467517Y-80264708D01*
X66589288Y-80141320D01*
X66734887Y-80046284D01*
X66746167Y-80040711D01*
X66818013Y-80009065D01*
X66882040Y-79990584D01*
X66955021Y-79981922D01*
X67051766Y-79979734D01*
X67151582Y-79981985D01*
G37*
X67151582Y-79981985D02*
X67226744Y-79991235D01*
X67294777Y-80010862D01*
X67363642Y-80039848D01*
X67507953Y-80127101D01*
X67627764Y-80242420D01*
X67719556Y-80379163D01*
X67779805Y-80530686D01*
X67804991Y-80690349D01*
X67792269Y-80848275D01*
X67736305Y-81023885D01*
X67646897Y-81174357D01*
X67525524Y-81297805D01*
X67373667Y-81392342D01*
X67360675Y-81398404D01*
X67231878Y-81441156D01*
X67088704Y-81462732D01*
X66949563Y-81461218D01*
X66876812Y-81448719D01*
X66715466Y-81386962D01*
X66573692Y-81289759D01*
X66456963Y-81161582D01*
X66391197Y-81052014D01*
X66356867Y-80978116D01*
X66336077Y-80917315D01*
X66325501Y-80853746D01*
X66321815Y-80771546D01*
X66321516Y-80719528D01*
X66323495Y-80618171D01*
X66331297Y-80543627D01*
X66347717Y-80480484D01*
X66375552Y-80413330D01*
X66378035Y-80408007D01*
X66467517Y-80264708D01*
X66589288Y-80141320D01*
X66734887Y-80046284D01*
X66746167Y-80040711D01*
X66818013Y-80009065D01*
X66882040Y-79990584D01*
X66955021Y-79981922D01*
X67051766Y-79979734D01*
X67151582Y-79981985D01*
G36*
X77186782Y-81306955D02*
G01*
X77330872Y-81337590D01*
X77349350Y-81344052D01*
X77471981Y-81408071D01*
X77589713Y-81503040D01*
X77691633Y-81618006D01*
X77766826Y-81742015D01*
X77782205Y-81778451D01*
X77818489Y-81928180D01*
X77823362Y-82090210D01*
X77797541Y-82249329D01*
X77754532Y-82365814D01*
X77679140Y-82483100D01*
X77576080Y-82592794D01*
X77457988Y-82683282D01*
X77348485Y-82739005D01*
X77215943Y-82772167D01*
X77069184Y-82782139D01*
X76925765Y-82768868D01*
X76822816Y-82740546D01*
X76688936Y-82675096D01*
X76575576Y-82593759D01*
X76506408Y-82521128D01*
X76413147Y-82367248D01*
X76357856Y-82205178D01*
X76339370Y-82040412D01*
X76356519Y-81878445D01*
X76408135Y-81724771D01*
X76493050Y-81584885D01*
X76610096Y-81464281D01*
X76750668Y-81372223D01*
X76881623Y-81324980D01*
X77032014Y-81302988D01*
X77186782Y-81306955D01*
G37*
X77186782Y-81306955D02*
X77330872Y-81337590D01*
X77349350Y-81344052D01*
X77471981Y-81408071D01*
X77589713Y-81503040D01*
X77691633Y-81618006D01*
X77766826Y-81742015D01*
X77782205Y-81778451D01*
X77818489Y-81928180D01*
X77823362Y-82090210D01*
X77797541Y-82249329D01*
X77754532Y-82365814D01*
X77679140Y-82483100D01*
X77576080Y-82592794D01*
X77457988Y-82683282D01*
X77348485Y-82739005D01*
X77215943Y-82772167D01*
X77069184Y-82782139D01*
X76925765Y-82768868D01*
X76822816Y-82740546D01*
X76688936Y-82675096D01*
X76575576Y-82593759D01*
X76506408Y-82521128D01*
X76413147Y-82367248D01*
X76357856Y-82205178D01*
X76339370Y-82040412D01*
X76356519Y-81878445D01*
X76408135Y-81724771D01*
X76493050Y-81584885D01*
X76610096Y-81464281D01*
X76750668Y-81372223D01*
X76881623Y-81324980D01*
X77032014Y-81302988D01*
X77186782Y-81306955D01*
G36*
X64036655Y-81314983D02*
G01*
X64199538Y-81372161D01*
X64340634Y-81463093D01*
X64456331Y-81584782D01*
X64543016Y-81734227D01*
X64597074Y-81908433D01*
X64597407Y-81910131D01*
X64608787Y-82074522D01*
X64581643Y-82236451D01*
X64519556Y-82389055D01*
X64426108Y-82525474D01*
X64304880Y-82638845D01*
X64177763Y-82714236D01*
X64070901Y-82750357D01*
X63946551Y-82772635D01*
X63819763Y-82779942D01*
X63705583Y-82771145D01*
X63640635Y-82754585D01*
X63471762Y-82672727D01*
X63334915Y-82564248D01*
X63227339Y-82426663D01*
X63180406Y-82339299D01*
X63152266Y-82272260D01*
X63135547Y-82209169D01*
X63127520Y-82134736D01*
X63125456Y-82033667D01*
X63125456Y-82031416D01*
X63133103Y-81888859D01*
X63159499Y-81772734D01*
X63210100Y-81669284D01*
X63290361Y-81564748D01*
X63325835Y-81526028D01*
X63458391Y-81411081D01*
X63602442Y-81336053D01*
X63761980Y-81299200D01*
X63855600Y-81294557D01*
X64036655Y-81314983D01*
G37*
X64036655Y-81314983D02*
X64199538Y-81372161D01*
X64340634Y-81463093D01*
X64456331Y-81584782D01*
X64543016Y-81734227D01*
X64597074Y-81908433D01*
X64597407Y-81910131D01*
X64608787Y-82074522D01*
X64581643Y-82236451D01*
X64519556Y-82389055D01*
X64426108Y-82525474D01*
X64304880Y-82638845D01*
X64177763Y-82714236D01*
X64070901Y-82750357D01*
X63946551Y-82772635D01*
X63819763Y-82779942D01*
X63705583Y-82771145D01*
X63640635Y-82754585D01*
X63471762Y-82672727D01*
X63334915Y-82564248D01*
X63227339Y-82426663D01*
X63180406Y-82339299D01*
X63152266Y-82272260D01*
X63135547Y-82209169D01*
X63127520Y-82134736D01*
X63125456Y-82033667D01*
X63125456Y-82031416D01*
X63133103Y-81888859D01*
X63159499Y-81772734D01*
X63210100Y-81669284D01*
X63290361Y-81564748D01*
X63325835Y-81526028D01*
X63458391Y-81411081D01*
X63602442Y-81336053D01*
X63761980Y-81299200D01*
X63855600Y-81294557D01*
X64036655Y-81314983D01*
G36*
X70626512Y-82260904D02*
G01*
X70766240Y-82285301D01*
X70906473Y-82330879D01*
X71031100Y-82385571D01*
X71220075Y-82498419D01*
X71387030Y-82643843D01*
X71527294Y-82815915D01*
X71636199Y-83008705D01*
X71709075Y-83216282D01*
X71718923Y-83259083D01*
X71748410Y-83488562D01*
X71737699Y-83708553D01*
X71686195Y-83922077D01*
X71593302Y-84132156D01*
X71523846Y-84248100D01*
X71388946Y-84416723D01*
X71225017Y-84558949D01*
X71038138Y-84672035D01*
X70834391Y-84753236D01*
X70619854Y-84799808D01*
X70400609Y-84809008D01*
X70300850Y-84800068D01*
X70097006Y-84753099D01*
X69899547Y-84669851D01*
X69715820Y-84555410D01*
X69553172Y-84414859D01*
X69418948Y-84253285D01*
X69352745Y-84143860D01*
X69258667Y-83922310D01*
X69205489Y-83698692D01*
X69192724Y-83476385D01*
X69219884Y-83258768D01*
X69286484Y-83049221D01*
X69392036Y-82851121D01*
X69536054Y-82667849D01*
X69570481Y-82632220D01*
X69750316Y-82478827D01*
X69943479Y-82365482D01*
X70151232Y-82291652D01*
X70374834Y-82256808D01*
X70470183Y-82253666D01*
X70626512Y-82260904D01*
G37*
X70626512Y-82260904D02*
X70766240Y-82285301D01*
X70906473Y-82330879D01*
X71031100Y-82385571D01*
X71220075Y-82498419D01*
X71387030Y-82643843D01*
X71527294Y-82815915D01*
X71636199Y-83008705D01*
X71709075Y-83216282D01*
X71718923Y-83259083D01*
X71748410Y-83488562D01*
X71737699Y-83708553D01*
X71686195Y-83922077D01*
X71593302Y-84132156D01*
X71523846Y-84248100D01*
X71388946Y-84416723D01*
X71225017Y-84558949D01*
X71038138Y-84672035D01*
X70834391Y-84753236D01*
X70619854Y-84799808D01*
X70400609Y-84809008D01*
X70300850Y-84800068D01*
X70097006Y-84753099D01*
X69899547Y-84669851D01*
X69715820Y-84555410D01*
X69553172Y-84414859D01*
X69418948Y-84253285D01*
X69352745Y-84143860D01*
X69258667Y-83922310D01*
X69205489Y-83698692D01*
X69192724Y-83476385D01*
X69219884Y-83258768D01*
X69286484Y-83049221D01*
X69392036Y-82851121D01*
X69536054Y-82667849D01*
X69570481Y-82632220D01*
X69750316Y-82478827D01*
X69943479Y-82365482D01*
X70151232Y-82291652D01*
X70374834Y-82256808D01*
X70470183Y-82253666D01*
X70626512Y-82260904D01*
G36*
X61276519Y-83398373D02*
G01*
X61433423Y-83449115D01*
X61581185Y-83537026D01*
X61641981Y-83587857D01*
X61752800Y-83716392D01*
X61827908Y-83860361D01*
X61868233Y-84013993D01*
X61874702Y-84171517D01*
X61848243Y-84327163D01*
X61789784Y-84475158D01*
X61700253Y-84609731D01*
X61580578Y-84725112D01*
X61445677Y-84808849D01*
X61331844Y-84848391D01*
X61198118Y-84870179D01*
X61061983Y-84872883D01*
X60940924Y-84855173D01*
X60919487Y-84848878D01*
X60751975Y-84774289D01*
X60613517Y-84669016D01*
X60503025Y-84532099D01*
X60449906Y-84434799D01*
X60421744Y-84367676D01*
X60405005Y-84304438D01*
X60396952Y-84229780D01*
X60394850Y-84128400D01*
X60394850Y-84126916D01*
X60396615Y-84027763D01*
X60403849Y-83955658D01*
X60419459Y-83895397D01*
X60446354Y-83831771D01*
X60454505Y-83814932D01*
X60549487Y-83664988D01*
X60668691Y-83545833D01*
X60806557Y-83458531D01*
X60957525Y-83404144D01*
X61116032Y-83383737D01*
X61276519Y-83398373D01*
G37*
X61276519Y-83398373D02*
X61433423Y-83449115D01*
X61581185Y-83537026D01*
X61641981Y-83587857D01*
X61752800Y-83716392D01*
X61827908Y-83860361D01*
X61868233Y-84013993D01*
X61874702Y-84171517D01*
X61848243Y-84327163D01*
X61789784Y-84475158D01*
X61700253Y-84609731D01*
X61580578Y-84725112D01*
X61445677Y-84808849D01*
X61331844Y-84848391D01*
X61198118Y-84870179D01*
X61061983Y-84872883D01*
X60940924Y-84855173D01*
X60919487Y-84848878D01*
X60751975Y-84774289D01*
X60613517Y-84669016D01*
X60503025Y-84532099D01*
X60449906Y-84434799D01*
X60421744Y-84367676D01*
X60405005Y-84304438D01*
X60396952Y-84229780D01*
X60394850Y-84128400D01*
X60394850Y-84126916D01*
X60396615Y-84027763D01*
X60403849Y-83955658D01*
X60419459Y-83895397D01*
X60446354Y-83831771D01*
X60454505Y-83814932D01*
X60549487Y-83664988D01*
X60668691Y-83545833D01*
X60806557Y-83458531D01*
X60957525Y-83404144D01*
X61116032Y-83383737D01*
X61276519Y-83398373D01*
G36*
X80006024Y-83423176D02*
G01*
X80149029Y-83480421D01*
X80296003Y-83579193D01*
X80410917Y-83703530D01*
X80489739Y-83838626D01*
X80519303Y-83909532D01*
X80536357Y-83976147D01*
X80543999Y-84055101D01*
X80545418Y-84137500D01*
X80543046Y-84236948D01*
X80533760Y-84311755D01*
X80514115Y-84379466D01*
X80483925Y-84450586D01*
X80394029Y-84597272D01*
X80274954Y-84717513D01*
X80132993Y-84807970D01*
X79974437Y-84865304D01*
X79805579Y-84886177D01*
X79680868Y-84876708D01*
X79520173Y-84830096D01*
X79375290Y-84748033D01*
X79251444Y-84636056D01*
X79153861Y-84499703D01*
X79087767Y-84344510D01*
X79062252Y-84221209D01*
X79063654Y-84072792D01*
X79098160Y-83919844D01*
X79160998Y-83773495D01*
X79247392Y-83644875D01*
X79352072Y-83545475D01*
X79505390Y-83458596D01*
X79670091Y-83408877D01*
X79839271Y-83396883D01*
X80006024Y-83423176D01*
G37*
X80006024Y-83423176D02*
X80149029Y-83480421D01*
X80296003Y-83579193D01*
X80410917Y-83703530D01*
X80489739Y-83838626D01*
X80519303Y-83909532D01*
X80536357Y-83976147D01*
X80543999Y-84055101D01*
X80545418Y-84137500D01*
X80543046Y-84236948D01*
X80533760Y-84311755D01*
X80514115Y-84379466D01*
X80483925Y-84450586D01*
X80394029Y-84597272D01*
X80274954Y-84717513D01*
X80132993Y-84807970D01*
X79974437Y-84865304D01*
X79805579Y-84886177D01*
X79680868Y-84876708D01*
X79520173Y-84830096D01*
X79375290Y-84748033D01*
X79251444Y-84636056D01*
X79153861Y-84499703D01*
X79087767Y-84344510D01*
X79062252Y-84221209D01*
X79063654Y-84072792D01*
X79098160Y-83919844D01*
X79160998Y-83773495D01*
X79247392Y-83644875D01*
X79352072Y-83545475D01*
X79505390Y-83458596D01*
X79670091Y-83408877D01*
X79839271Y-83396883D01*
X80006024Y-83423176D01*
G36*
X75703278Y-83616674D02*
G01*
X75922138Y-83681205D01*
X76031800Y-83729789D01*
X76159050Y-83807949D01*
X76289721Y-83914006D01*
X76412285Y-84036706D01*
X76515212Y-84164793D01*
X76572706Y-84257854D01*
X76660209Y-84469181D01*
X76709288Y-84691555D01*
X76719943Y-84918653D01*
X76692179Y-85144149D01*
X76625998Y-85361718D01*
X76572205Y-85477645D01*
X76487453Y-85607774D01*
X76373715Y-85739049D01*
X76242521Y-85860351D01*
X76105402Y-85960560D01*
X76023700Y-86006615D01*
X75818786Y-86087121D01*
X75604458Y-86134140D01*
X75390629Y-86146219D01*
X75208104Y-86126272D01*
X75052609Y-86081886D01*
X74890586Y-86011982D01*
X74734652Y-85923596D01*
X74597424Y-85823764D01*
X74503085Y-85733092D01*
X74364620Y-85544007D01*
X74257860Y-85329865D01*
X74234163Y-85266272D01*
X74206944Y-85181024D01*
X74189801Y-85105593D01*
X74180560Y-85024882D01*
X74177045Y-84923794D01*
X74176753Y-84867750D01*
X74178385Y-84752843D01*
X74184757Y-84664950D01*
X74198084Y-84588825D01*
X74220582Y-84509225D01*
X74235193Y-84465583D01*
X74272209Y-84369598D01*
X74315543Y-84273751D01*
X74356482Y-84197151D01*
X74360658Y-84190416D01*
X74500326Y-84007360D01*
X74664954Y-83855911D01*
X74849993Y-83737325D01*
X75050893Y-83652854D01*
X75263107Y-83603753D01*
X75482084Y-83591275D01*
X75703278Y-83616674D01*
G37*
X75703278Y-83616674D02*
X75922138Y-83681205D01*
X76031800Y-83729789D01*
X76159050Y-83807949D01*
X76289721Y-83914006D01*
X76412285Y-84036706D01*
X76515212Y-84164793D01*
X76572706Y-84257854D01*
X76660209Y-84469181D01*
X76709288Y-84691555D01*
X76719943Y-84918653D01*
X76692179Y-85144149D01*
X76625998Y-85361718D01*
X76572205Y-85477645D01*
X76487453Y-85607774D01*
X76373715Y-85739049D01*
X76242521Y-85860351D01*
X76105402Y-85960560D01*
X76023700Y-86006615D01*
X75818786Y-86087121D01*
X75604458Y-86134140D01*
X75390629Y-86146219D01*
X75208104Y-86126272D01*
X75052609Y-86081886D01*
X74890586Y-86011982D01*
X74734652Y-85923596D01*
X74597424Y-85823764D01*
X74503085Y-85733092D01*
X74364620Y-85544007D01*
X74257860Y-85329865D01*
X74234163Y-85266272D01*
X74206944Y-85181024D01*
X74189801Y-85105593D01*
X74180560Y-85024882D01*
X74177045Y-84923794D01*
X74176753Y-84867750D01*
X74178385Y-84752843D01*
X74184757Y-84664950D01*
X74198084Y-84588825D01*
X74220582Y-84509225D01*
X74235193Y-84465583D01*
X74272209Y-84369598D01*
X74315543Y-84273751D01*
X74356482Y-84197151D01*
X74360658Y-84190416D01*
X74500326Y-84007360D01*
X74664954Y-83855911D01*
X74849993Y-83737325D01*
X75050893Y-83652854D01*
X75263107Y-83603753D01*
X75482084Y-83591275D01*
X75703278Y-83616674D01*
G36*
X65619986Y-83595563D02*
G01*
X65825050Y-83632500D01*
X66020908Y-83702243D01*
X66203493Y-83803184D01*
X66368737Y-83933716D01*
X66512574Y-84092232D01*
X66630936Y-84277124D01*
X66719755Y-84486785D01*
X66747311Y-84582000D01*
X66770240Y-84728383D01*
X66773901Y-84895206D01*
X66759249Y-85065717D01*
X66727234Y-85223162D01*
X66707299Y-85285612D01*
X66608296Y-85498030D01*
X66477681Y-85685888D01*
X66319084Y-85845976D01*
X66136136Y-85975083D01*
X65932467Y-86069998D01*
X65767258Y-86117035D01*
X65647286Y-86135152D01*
X65513100Y-86143963D01*
X65384137Y-86142781D01*
X65294933Y-86133710D01*
X65097289Y-86081118D01*
X64904787Y-85993267D01*
X64725352Y-85875824D01*
X64566909Y-85734458D01*
X64437384Y-85574835D01*
X64380528Y-85479764D01*
X64306915Y-85322885D01*
X64259814Y-85178092D01*
X64234987Y-85028370D01*
X64228176Y-84867750D01*
X64247969Y-84633106D01*
X64306335Y-84413583D01*
X64401755Y-84212050D01*
X64532712Y-84031376D01*
X64697685Y-83874431D01*
X64789020Y-83808028D01*
X64990234Y-83697665D01*
X65198511Y-83626538D01*
X65409784Y-83593040D01*
X65619986Y-83595563D01*
G37*
X65619986Y-83595563D02*
X65825050Y-83632500D01*
X66020908Y-83702243D01*
X66203493Y-83803184D01*
X66368737Y-83933716D01*
X66512574Y-84092232D01*
X66630936Y-84277124D01*
X66719755Y-84486785D01*
X66747311Y-84582000D01*
X66770240Y-84728383D01*
X66773901Y-84895206D01*
X66759249Y-85065717D01*
X66727234Y-85223162D01*
X66707299Y-85285612D01*
X66608296Y-85498030D01*
X66477681Y-85685888D01*
X66319084Y-85845976D01*
X66136136Y-85975083D01*
X65932467Y-86069998D01*
X65767258Y-86117035D01*
X65647286Y-86135152D01*
X65513100Y-86143963D01*
X65384137Y-86142781D01*
X65294933Y-86133710D01*
X65097289Y-86081118D01*
X64904787Y-85993267D01*
X64725352Y-85875824D01*
X64566909Y-85734458D01*
X64437384Y-85574835D01*
X64380528Y-85479764D01*
X64306915Y-85322885D01*
X64259814Y-85178092D01*
X64234987Y-85028370D01*
X64228176Y-84867750D01*
X64247969Y-84633106D01*
X64306335Y-84413583D01*
X64401755Y-84212050D01*
X64532712Y-84031376D01*
X64697685Y-83874431D01*
X64789020Y-83808028D01*
X64990234Y-83697665D01*
X65198511Y-83626538D01*
X65409784Y-83593040D01*
X65619986Y-83595563D01*
G36*
X82009275Y-86132385D02*
G01*
X82150468Y-86162053D01*
X82169987Y-86168963D01*
X82297524Y-86235638D01*
X82418973Y-86332711D01*
X82521846Y-86448734D01*
X82581872Y-86546476D01*
X82610644Y-86610156D01*
X82628313Y-86667311D01*
X82637486Y-86732107D01*
X82640767Y-86818710D01*
X82641016Y-86868000D01*
X82639519Y-86968869D01*
X82633292Y-87041625D01*
X82619727Y-87100433D01*
X82596220Y-87159458D01*
X82581872Y-87189523D01*
X82505284Y-87308770D01*
X82401336Y-87419521D01*
X82282427Y-87510346D01*
X82174485Y-87565005D01*
X82065073Y-87593339D01*
X81938363Y-87606876D01*
X81811445Y-87605127D01*
X81701409Y-87587601D01*
X81674635Y-87579333D01*
X81549532Y-87522587D01*
X81434964Y-87448507D01*
X81346119Y-87367051D01*
X81340273Y-87360145D01*
X81242588Y-87211626D01*
X81182901Y-87053132D01*
X81160070Y-86890287D01*
X81172958Y-86728712D01*
X81220425Y-86574030D01*
X81301333Y-86431863D01*
X81414542Y-86307834D01*
X81558914Y-86207564D01*
X81575539Y-86198795D01*
X81706160Y-86151542D01*
X81855955Y-86129144D01*
X82009275Y-86132385D01*
G37*
X82009275Y-86132385D02*
X82150468Y-86162053D01*
X82169987Y-86168963D01*
X82297524Y-86235638D01*
X82418973Y-86332711D01*
X82521846Y-86448734D01*
X82581872Y-86546476D01*
X82610644Y-86610156D01*
X82628313Y-86667311D01*
X82637486Y-86732107D01*
X82640767Y-86818710D01*
X82641016Y-86868000D01*
X82639519Y-86968869D01*
X82633292Y-87041625D01*
X82619727Y-87100433D01*
X82596220Y-87159458D01*
X82581872Y-87189523D01*
X82505284Y-87308770D01*
X82401336Y-87419521D01*
X82282427Y-87510346D01*
X82174485Y-87565005D01*
X82065073Y-87593339D01*
X81938363Y-87606876D01*
X81811445Y-87605127D01*
X81701409Y-87587601D01*
X81674635Y-87579333D01*
X81549532Y-87522587D01*
X81434964Y-87448507D01*
X81346119Y-87367051D01*
X81340273Y-87360145D01*
X81242588Y-87211626D01*
X81182901Y-87053132D01*
X81160070Y-86890287D01*
X81172958Y-86728712D01*
X81220425Y-86574030D01*
X81301333Y-86431863D01*
X81414542Y-86307834D01*
X81558914Y-86207564D01*
X81575539Y-86198795D01*
X81706160Y-86151542D01*
X81855955Y-86129144D01*
X82009275Y-86132385D01*
G36*
X59239873Y-86163805D02*
G01*
X59389635Y-86228031D01*
X59523285Y-86323927D01*
X59634899Y-86449828D01*
X59702719Y-86567507D01*
X59732619Y-86640267D01*
X59749880Y-86709020D01*
X59757685Y-86790680D01*
X59759238Y-86868000D01*
X59757297Y-86967182D01*
X59748480Y-87041397D01*
X59729495Y-87107858D01*
X59700077Y-87177253D01*
X59611843Y-87322086D01*
X59495823Y-87442152D01*
X59358571Y-87534181D01*
X59206645Y-87594904D01*
X59046603Y-87621050D01*
X58885000Y-87609351D01*
X58849683Y-87601320D01*
X58682045Y-87537520D01*
X58537818Y-87440708D01*
X58420837Y-87315324D01*
X58334936Y-87165808D01*
X58283949Y-86996600D01*
X58275349Y-86936341D01*
X58279089Y-86779049D01*
X58319459Y-86621762D01*
X58391869Y-86474139D01*
X58491731Y-86345837D01*
X58598168Y-86256918D01*
X58753145Y-86177806D01*
X58915704Y-86137027D01*
X59079921Y-86132915D01*
X59239873Y-86163805D01*
G37*
X59239873Y-86163805D02*
X59389635Y-86228031D01*
X59523285Y-86323927D01*
X59634899Y-86449828D01*
X59702719Y-86567507D01*
X59732619Y-86640267D01*
X59749880Y-86709020D01*
X59757685Y-86790680D01*
X59759238Y-86868000D01*
X59757297Y-86967182D01*
X59748480Y-87041397D01*
X59729495Y-87107858D01*
X59700077Y-87177253D01*
X59611843Y-87322086D01*
X59495823Y-87442152D01*
X59358571Y-87534181D01*
X59206645Y-87594904D01*
X59046603Y-87621050D01*
X58885000Y-87609351D01*
X58849683Y-87601320D01*
X58682045Y-87537520D01*
X58537818Y-87440708D01*
X58420837Y-87315324D01*
X58334936Y-87165808D01*
X58283949Y-86996600D01*
X58275349Y-86936341D01*
X58279089Y-86779049D01*
X58319459Y-86621762D01*
X58391869Y-86474139D01*
X58491731Y-86345837D01*
X58598168Y-86256918D01*
X58753145Y-86177806D01*
X58915704Y-86137027D01*
X59079921Y-86132915D01*
X59239873Y-86163805D01*
G36*
X79159100Y-87234888D02*
G01*
X79389239Y-87269484D01*
X79603336Y-87341927D01*
X79798118Y-87449701D01*
X79970311Y-87590293D01*
X80116640Y-87761185D01*
X80233832Y-87959864D01*
X80294346Y-88107057D01*
X80321076Y-88189752D01*
X80338226Y-88261715D01*
X80347786Y-88337106D01*
X80351745Y-88430087D01*
X80352239Y-88519000D01*
X80350483Y-88635961D01*
X80344576Y-88724367D01*
X80332615Y-88797932D01*
X80312695Y-88870376D01*
X80297124Y-88916218D01*
X80199178Y-89131888D01*
X80068478Y-89322275D01*
X79907756Y-89484646D01*
X79719743Y-89616271D01*
X79507174Y-89714419D01*
X79493750Y-89719166D01*
X79317844Y-89763549D01*
X79125697Y-89783402D01*
X78933824Y-89778083D01*
X78761202Y-89747622D01*
X78574485Y-89683143D01*
X78409676Y-89594373D01*
X78254743Y-89474222D01*
X78185222Y-89408210D01*
X78050989Y-89256969D01*
X77951068Y-89102626D01*
X77878416Y-88933038D01*
X77846246Y-88823884D01*
X77809646Y-88601319D01*
X77812341Y-88383591D01*
X77851372Y-88174283D01*
X77923779Y-87976978D01*
X78026600Y-87795260D01*
X78156876Y-87632711D01*
X78311645Y-87492915D01*
X78487948Y-87379455D01*
X78682824Y-87295913D01*
X78893313Y-87245874D01*
X79116454Y-87232920D01*
X79159100Y-87234888D01*
G37*
X79159100Y-87234888D02*
X79389239Y-87269484D01*
X79603336Y-87341927D01*
X79798118Y-87449701D01*
X79970311Y-87590293D01*
X80116640Y-87761185D01*
X80233832Y-87959864D01*
X80294346Y-88107057D01*
X80321076Y-88189752D01*
X80338226Y-88261715D01*
X80347786Y-88337106D01*
X80351745Y-88430087D01*
X80352239Y-88519000D01*
X80350483Y-88635961D01*
X80344576Y-88724367D01*
X80332615Y-88797932D01*
X80312695Y-88870376D01*
X80297124Y-88916218D01*
X80199178Y-89131888D01*
X80068478Y-89322275D01*
X79907756Y-89484646D01*
X79719743Y-89616271D01*
X79507174Y-89714419D01*
X79493750Y-89719166D01*
X79317844Y-89763549D01*
X79125697Y-89783402D01*
X78933824Y-89778083D01*
X78761202Y-89747622D01*
X78574485Y-89683143D01*
X78409676Y-89594373D01*
X78254743Y-89474222D01*
X78185222Y-89408210D01*
X78050989Y-89256969D01*
X77951068Y-89102626D01*
X77878416Y-88933038D01*
X77846246Y-88823884D01*
X77809646Y-88601319D01*
X77812341Y-88383591D01*
X77851372Y-88174283D01*
X77923779Y-87976978D01*
X78026600Y-87795260D01*
X78156876Y-87632711D01*
X78311645Y-87492915D01*
X78487948Y-87379455D01*
X78682824Y-87295913D01*
X78893313Y-87245874D01*
X79116454Y-87232920D01*
X79159100Y-87234888D01*
G36*
X62078359Y-87248740D02*
G01*
X62289671Y-87306822D01*
X62485633Y-87399162D01*
X62662592Y-87522108D01*
X62816898Y-87672008D01*
X62944898Y-87845210D01*
X63042940Y-88038064D01*
X63107374Y-88246916D01*
X63134546Y-88468114D01*
X63135198Y-88508416D01*
X63115056Y-88731753D01*
X63057057Y-88943166D01*
X62964838Y-89139049D01*
X62842038Y-89315798D01*
X62692294Y-89469808D01*
X62519246Y-89597475D01*
X62326531Y-89695194D01*
X62117788Y-89759360D01*
X61896655Y-89786369D01*
X61844766Y-89786949D01*
X61743211Y-89781063D01*
X61632659Y-89767415D01*
X61573150Y-89756541D01*
X61364525Y-89690333D01*
X61172633Y-89588410D01*
X61001101Y-89455309D01*
X60853558Y-89295571D01*
X60733630Y-89113732D01*
X60644945Y-88914331D01*
X60591131Y-88701907D01*
X60575501Y-88508416D01*
X60595673Y-88285406D01*
X60653755Y-88074095D01*
X60746095Y-87878133D01*
X60869041Y-87701174D01*
X61018941Y-87546868D01*
X61192144Y-87418868D01*
X61384997Y-87320825D01*
X61593849Y-87256392D01*
X61815048Y-87229220D01*
X61855350Y-87228568D01*
X62078359Y-87248740D01*
G37*
X62078359Y-87248740D02*
X62289671Y-87306822D01*
X62485633Y-87399162D01*
X62662592Y-87522108D01*
X62816898Y-87672008D01*
X62944898Y-87845210D01*
X63042940Y-88038064D01*
X63107374Y-88246916D01*
X63134546Y-88468114D01*
X63135198Y-88508416D01*
X63115056Y-88731753D01*
X63057057Y-88943166D01*
X62964838Y-89139049D01*
X62842038Y-89315798D01*
X62692294Y-89469808D01*
X62519246Y-89597475D01*
X62326531Y-89695194D01*
X62117788Y-89759360D01*
X61896655Y-89786369D01*
X61844766Y-89786949D01*
X61743211Y-89781063D01*
X61632659Y-89767415D01*
X61573150Y-89756541D01*
X61364525Y-89690333D01*
X61172633Y-89588410D01*
X61001101Y-89455309D01*
X60853558Y-89295571D01*
X60733630Y-89113732D01*
X60644945Y-88914331D01*
X60591131Y-88701907D01*
X60575501Y-88508416D01*
X60595673Y-88285406D01*
X60653755Y-88074095D01*
X60746095Y-87878133D01*
X60869041Y-87701174D01*
X61018941Y-87546868D01*
X61192144Y-87418868D01*
X61384997Y-87320825D01*
X61593849Y-87256392D01*
X61815048Y-87229220D01*
X61855350Y-87228568D01*
X62078359Y-87248740D01*
G36*
X83418573Y-89338219D02*
G01*
X83570811Y-89398173D01*
X83708477Y-89488583D01*
X83824091Y-89605735D01*
X83897864Y-89720463D01*
X83924911Y-89787515D01*
X83950919Y-89874832D01*
X83966262Y-89943386D01*
X83975803Y-90106600D01*
X83947062Y-90266405D01*
X83883991Y-90416449D01*
X83790539Y-90550384D01*
X83670657Y-90661860D01*
X83528295Y-90744528D01*
X83450121Y-90773015D01*
X83338162Y-90795377D01*
X83214352Y-90802908D01*
X83096305Y-90795508D01*
X83008135Y-90775500D01*
X82840040Y-90695506D01*
X82702073Y-90585954D01*
X82593064Y-90445791D01*
X82547906Y-90361465D01*
X82519934Y-90295058D01*
X82503367Y-90233091D01*
X82495534Y-90160361D01*
X82493763Y-90061662D01*
X82493796Y-90053583D01*
X82502278Y-89909272D01*
X82529588Y-89791599D01*
X82580940Y-89687117D01*
X82661548Y-89582380D01*
X82687551Y-89553864D01*
X82815116Y-89442160D01*
X82958954Y-89365659D01*
X83100301Y-89324533D01*
X83259243Y-89312435D01*
X83418573Y-89338219D01*
G37*
X83418573Y-89338219D02*
X83570811Y-89398173D01*
X83708477Y-89488583D01*
X83824091Y-89605735D01*
X83897864Y-89720463D01*
X83924911Y-89787515D01*
X83950919Y-89874832D01*
X83966262Y-89943386D01*
X83975803Y-90106600D01*
X83947062Y-90266405D01*
X83883991Y-90416449D01*
X83790539Y-90550384D01*
X83670657Y-90661860D01*
X83528295Y-90744528D01*
X83450121Y-90773015D01*
X83338162Y-90795377D01*
X83214352Y-90802908D01*
X83096305Y-90795508D01*
X83008135Y-90775500D01*
X82840040Y-90695506D01*
X82702073Y-90585954D01*
X82593064Y-90445791D01*
X82547906Y-90361465D01*
X82519934Y-90295058D01*
X82503367Y-90233091D01*
X82495534Y-90160361D01*
X82493763Y-90061662D01*
X82493796Y-90053583D01*
X82502278Y-89909272D01*
X82529588Y-89791599D01*
X82580940Y-89687117D01*
X82661548Y-89582380D01*
X82687551Y-89553864D01*
X82815116Y-89442160D01*
X82958954Y-89365659D01*
X83100301Y-89324533D01*
X83259243Y-89312435D01*
X83418573Y-89338219D01*
G36*
X57812292Y-89335860D02*
G01*
X57888167Y-89341972D01*
X57946837Y-89354508D01*
X58000832Y-89375463D01*
X58018179Y-89383782D01*
X58172101Y-89482558D01*
X58296906Y-89611266D01*
X58377947Y-89742044D01*
X58413369Y-89818787D01*
X58434273Y-89882038D01*
X58444363Y-89948962D01*
X58447348Y-90036723D01*
X58447418Y-90063721D01*
X58445049Y-90163354D01*
X58435805Y-90238218D01*
X58416286Y-90305736D01*
X58386468Y-90376042D01*
X58295408Y-90525677D01*
X58176002Y-90646502D01*
X58033208Y-90735838D01*
X57871985Y-90791007D01*
X57697294Y-90809330D01*
X57596727Y-90802662D01*
X57445478Y-90763536D01*
X57301306Y-90689128D01*
X57174311Y-90586379D01*
X57074592Y-90462233D01*
X57056565Y-90431359D01*
X57021994Y-90352806D01*
X56990822Y-90256666D01*
X56974508Y-90187144D01*
X56961293Y-90099315D01*
X56960367Y-90028237D01*
X56972461Y-89951251D01*
X56983636Y-89903386D01*
X57042546Y-89734071D01*
X57130271Y-89593633D01*
X57250496Y-89477391D01*
X57386909Y-89390968D01*
X57442246Y-89364135D01*
X57493149Y-89347297D01*
X57552272Y-89338207D01*
X57632267Y-89334619D01*
X57706683Y-89334177D01*
X57812292Y-89335860D01*
G37*
X57812292Y-89335860D02*
X57888167Y-89341972D01*
X57946837Y-89354508D01*
X58000832Y-89375463D01*
X58018179Y-89383782D01*
X58172101Y-89482558D01*
X58296906Y-89611266D01*
X58377947Y-89742044D01*
X58413369Y-89818787D01*
X58434273Y-89882038D01*
X58444363Y-89948962D01*
X58447348Y-90036723D01*
X58447418Y-90063721D01*
X58445049Y-90163354D01*
X58435805Y-90238218D01*
X58416286Y-90305736D01*
X58386468Y-90376042D01*
X58295408Y-90525677D01*
X58176002Y-90646502D01*
X58033208Y-90735838D01*
X57871985Y-90791007D01*
X57697294Y-90809330D01*
X57596727Y-90802662D01*
X57445478Y-90763536D01*
X57301306Y-90689128D01*
X57174311Y-90586379D01*
X57074592Y-90462233D01*
X57056565Y-90431359D01*
X57021994Y-90352806D01*
X56990822Y-90256666D01*
X56974508Y-90187144D01*
X56961293Y-90099315D01*
X56960367Y-90028237D01*
X56972461Y-89951251D01*
X56983636Y-89903386D01*
X57042546Y-89734071D01*
X57130271Y-89593633D01*
X57250496Y-89477391D01*
X57386909Y-89390968D01*
X57442246Y-89364135D01*
X57493149Y-89347297D01*
X57552272Y-89338207D01*
X57632267Y-89334619D01*
X57706683Y-89334177D01*
X57812292Y-89335860D01*
G36*
X83790177Y-92745243D02*
G01*
X83865962Y-92755139D01*
X83932647Y-92775148D01*
X83985100Y-92797932D01*
X84136126Y-92887613D01*
X84254361Y-93000447D01*
X84345482Y-93141917D01*
X84349336Y-93149651D01*
X84383665Y-93223550D01*
X84404456Y-93284351D01*
X84415031Y-93347919D01*
X84418718Y-93430120D01*
X84419016Y-93482138D01*
X84417037Y-93583495D01*
X84409235Y-93658039D01*
X84392815Y-93721182D01*
X84364980Y-93788336D01*
X84362497Y-93793659D01*
X84281487Y-93925352D01*
X84172530Y-94043304D01*
X84047467Y-94135610D01*
X83995406Y-94162765D01*
X83882788Y-94200208D01*
X83752095Y-94222061D01*
X83621796Y-94226424D01*
X83514055Y-94212348D01*
X83361135Y-94153893D01*
X83219779Y-94062246D01*
X83100027Y-93945345D01*
X83015386Y-93818062D01*
X82956586Y-93658399D01*
X82936650Y-93494292D01*
X82953428Y-93331782D01*
X83004770Y-93176908D01*
X83088526Y-93035710D01*
X83202545Y-92914228D01*
X83344677Y-92818501D01*
X83376890Y-92802699D01*
X83452432Y-92770865D01*
X83518905Y-92752438D01*
X83593653Y-92744062D01*
X83688766Y-92742361D01*
X83790177Y-92745243D01*
G37*
X83790177Y-92745243D02*
X83865962Y-92755139D01*
X83932647Y-92775148D01*
X83985100Y-92797932D01*
X84136126Y-92887613D01*
X84254361Y-93000447D01*
X84345482Y-93141917D01*
X84349336Y-93149651D01*
X84383665Y-93223550D01*
X84404456Y-93284351D01*
X84415031Y-93347919D01*
X84418718Y-93430120D01*
X84419016Y-93482138D01*
X84417037Y-93583495D01*
X84409235Y-93658039D01*
X84392815Y-93721182D01*
X84364980Y-93788336D01*
X84362497Y-93793659D01*
X84281487Y-93925352D01*
X84172530Y-94043304D01*
X84047467Y-94135610D01*
X83995406Y-94162765D01*
X83882788Y-94200208D01*
X83752095Y-94222061D01*
X83621796Y-94226424D01*
X83514055Y-94212348D01*
X83361135Y-94153893D01*
X83219779Y-94062246D01*
X83100027Y-93945345D01*
X83015386Y-93818062D01*
X82956586Y-93658399D01*
X82936650Y-93494292D01*
X82953428Y-93331782D01*
X83004770Y-93176908D01*
X83088526Y-93035710D01*
X83202545Y-92914228D01*
X83344677Y-92818501D01*
X83376890Y-92802699D01*
X83452432Y-92770865D01*
X83518905Y-92752438D01*
X83593653Y-92744062D01*
X83688766Y-92742361D01*
X83790177Y-92745243D01*
G36*
X57460011Y-92766897D02*
G01*
X57605783Y-92826205D01*
X57736595Y-92915666D01*
X57847320Y-93033118D01*
X57932833Y-93176398D01*
X57988007Y-93343344D01*
X57992345Y-93364862D01*
X58002117Y-93526081D01*
X57973901Y-93685127D01*
X57911794Y-93835239D01*
X57819891Y-93969658D01*
X57702288Y-94081624D01*
X57563083Y-94164377D01*
X57491616Y-94191177D01*
X57311755Y-94227548D01*
X57139688Y-94223769D01*
X57037185Y-94200876D01*
X56881502Y-94133074D01*
X56752043Y-94037142D01*
X56649678Y-93918644D01*
X56575275Y-93783143D01*
X56529704Y-93636201D01*
X56513835Y-93483381D01*
X56528537Y-93330245D01*
X56574680Y-93182356D01*
X56653133Y-93045277D01*
X56764766Y-92924571D01*
X56829849Y-92874452D01*
X56984198Y-92791521D01*
X57144093Y-92747392D01*
X57304406Y-92739905D01*
X57460011Y-92766897D01*
G37*
X57460011Y-92766897D02*
X57605783Y-92826205D01*
X57736595Y-92915666D01*
X57847320Y-93033118D01*
X57932833Y-93176398D01*
X57988007Y-93343344D01*
X57992345Y-93364862D01*
X58002117Y-93526081D01*
X57973901Y-93685127D01*
X57911794Y-93835239D01*
X57819891Y-93969658D01*
X57702288Y-94081624D01*
X57563083Y-94164377D01*
X57491616Y-94191177D01*
X57311755Y-94227548D01*
X57139688Y-94223769D01*
X57037185Y-94200876D01*
X56881502Y-94133074D01*
X56752043Y-94037142D01*
X56649678Y-93918644D01*
X56575275Y-93783143D01*
X56529704Y-93636201D01*
X56513835Y-93483381D01*
X56528537Y-93330245D01*
X56574680Y-93182356D01*
X56653133Y-93045277D01*
X56764766Y-92924571D01*
X56829849Y-92874452D01*
X56984198Y-92791521D01*
X57144093Y-92747392D01*
X57304406Y-92739905D01*
X57460011Y-92766897D01*
G36*
X80555760Y-92206823D02*
G01*
X80770606Y-92251732D01*
X80976589Y-92333553D01*
X81168243Y-92450704D01*
X81320021Y-92581078D01*
X81466182Y-92754632D01*
X81575347Y-92942424D01*
X81648613Y-93140223D01*
X81687076Y-93343801D01*
X81691833Y-93548927D01*
X81663981Y-93751372D01*
X81604616Y-93946905D01*
X81514835Y-94131298D01*
X81395735Y-94300320D01*
X81248413Y-94449742D01*
X81073965Y-94575334D01*
X80873488Y-94672865D01*
X80768435Y-94708442D01*
X80680673Y-94727632D01*
X80569668Y-94742700D01*
X80451211Y-94752387D01*
X80341090Y-94755440D01*
X80255093Y-94750601D01*
X80249183Y-94749752D01*
X80042827Y-94699876D01*
X79844306Y-94617400D01*
X79662285Y-94507299D01*
X79505431Y-94374548D01*
X79415515Y-94271165D01*
X79293926Y-94084723D01*
X79210191Y-93895018D01*
X79160420Y-93691752D01*
X79144946Y-93554885D01*
X79149528Y-93331667D01*
X79193190Y-93117036D01*
X79272920Y-92915067D01*
X79385706Y-92729834D01*
X79528537Y-92565412D01*
X79698401Y-92425874D01*
X79892285Y-92315295D01*
X80107177Y-92237750D01*
X80121338Y-92234068D01*
X80337516Y-92200407D01*
X80555760Y-92206823D01*
G37*
X80555760Y-92206823D02*
X80770606Y-92251732D01*
X80976589Y-92333553D01*
X81168243Y-92450704D01*
X81320021Y-92581078D01*
X81466182Y-92754632D01*
X81575347Y-92942424D01*
X81648613Y-93140223D01*
X81687076Y-93343801D01*
X81691833Y-93548927D01*
X81663981Y-93751372D01*
X81604616Y-93946905D01*
X81514835Y-94131298D01*
X81395735Y-94300320D01*
X81248413Y-94449742D01*
X81073965Y-94575334D01*
X80873488Y-94672865D01*
X80768435Y-94708442D01*
X80680673Y-94727632D01*
X80569668Y-94742700D01*
X80451211Y-94752387D01*
X80341090Y-94755440D01*
X80255093Y-94750601D01*
X80249183Y-94749752D01*
X80042827Y-94699876D01*
X79844306Y-94617400D01*
X79662285Y-94507299D01*
X79505431Y-94374548D01*
X79415515Y-94271165D01*
X79293926Y-94084723D01*
X79210191Y-93895018D01*
X79160420Y-93691752D01*
X79144946Y-93554885D01*
X79149528Y-93331667D01*
X79193190Y-93117036D01*
X79272920Y-92915067D01*
X79385706Y-92729834D01*
X79528537Y-92565412D01*
X79698401Y-92425874D01*
X79892285Y-92315295D01*
X80107177Y-92237750D01*
X80121338Y-92234068D01*
X80337516Y-92200407D01*
X80555760Y-92206823D01*
G36*
X60761370Y-92231687D02*
G01*
X60986784Y-92295310D01*
X61185798Y-92390512D01*
X61362696Y-92519709D01*
X61480691Y-92637281D01*
X61616428Y-92818887D01*
X61714476Y-93013161D01*
X61775952Y-93215856D01*
X61801972Y-93422725D01*
X61793654Y-93629521D01*
X61752115Y-93831997D01*
X61678472Y-94025905D01*
X61573843Y-94206998D01*
X61439344Y-94371028D01*
X61276093Y-94513750D01*
X61085207Y-94630914D01*
X60939712Y-94693996D01*
X60785342Y-94734987D01*
X60609410Y-94755954D01*
X60427959Y-94756305D01*
X60257037Y-94735452D01*
X60196222Y-94721317D01*
X59978998Y-94641315D01*
X59783767Y-94526204D01*
X59613240Y-94378562D01*
X59470130Y-94200966D01*
X59357148Y-93995995D01*
X59311415Y-93880060D01*
X59272650Y-93725132D01*
X59253426Y-93550931D01*
X59254176Y-93373675D01*
X59275333Y-93209585D01*
X59291760Y-93143916D01*
X59376015Y-92930273D01*
X59492018Y-92739195D01*
X59635599Y-92573272D01*
X59802585Y-92435094D01*
X59988804Y-92327251D01*
X60190084Y-92252332D01*
X60402253Y-92212926D01*
X60621140Y-92211624D01*
X60761370Y-92231687D01*
G37*
X60761370Y-92231687D02*
X60986784Y-92295310D01*
X61185798Y-92390512D01*
X61362696Y-92519709D01*
X61480691Y-92637281D01*
X61616428Y-92818887D01*
X61714476Y-93013161D01*
X61775952Y-93215856D01*
X61801972Y-93422725D01*
X61793654Y-93629521D01*
X61752115Y-93831997D01*
X61678472Y-94025905D01*
X61573843Y-94206998D01*
X61439344Y-94371028D01*
X61276093Y-94513750D01*
X61085207Y-94630914D01*
X60939712Y-94693996D01*
X60785342Y-94734987D01*
X60609410Y-94755954D01*
X60427959Y-94756305D01*
X60257037Y-94735452D01*
X60196222Y-94721317D01*
X59978998Y-94641315D01*
X59783767Y-94526204D01*
X59613240Y-94378562D01*
X59470130Y-94200966D01*
X59357148Y-93995995D01*
X59311415Y-93880060D01*
X59272650Y-93725132D01*
X59253426Y-93550931D01*
X59254176Y-93373675D01*
X59275333Y-93209585D01*
X59291760Y-93143916D01*
X59376015Y-92930273D01*
X59492018Y-92739195D01*
X59635599Y-92573272D01*
X59802585Y-92435094D01*
X59988804Y-92327251D01*
X60190084Y-92252332D01*
X60402253Y-92212926D01*
X60621140Y-92211624D01*
X60761370Y-92231687D01*
G36*
X57862098Y-96175697D02*
G01*
X57994337Y-96211592D01*
X58024183Y-96224467D01*
X58165112Y-96313547D01*
X58281769Y-96431923D01*
X58370555Y-96572469D01*
X58427871Y-96728058D01*
X58450116Y-96891565D01*
X58436822Y-97041350D01*
X58381147Y-97213480D01*
X58290108Y-97363584D01*
X58166369Y-97488228D01*
X58017036Y-97581845D01*
X57911136Y-97616966D01*
X57781699Y-97635885D01*
X57644477Y-97638158D01*
X57515224Y-97623336D01*
X57427325Y-97598547D01*
X57291596Y-97523858D01*
X57168870Y-97415706D01*
X57068210Y-97282777D01*
X57035288Y-97222857D01*
X56999960Y-97146297D01*
X56979086Y-97083097D01*
X56968975Y-97016148D01*
X56965937Y-96928341D01*
X56965850Y-96901000D01*
X56967692Y-96805268D01*
X56975680Y-96734690D01*
X56993504Y-96672157D01*
X57024856Y-96600561D01*
X57035288Y-96579142D01*
X57127617Y-96433844D01*
X57246681Y-96313240D01*
X57384939Y-96224402D01*
X57437832Y-96201607D01*
X57567162Y-96170054D01*
X57714146Y-96161634D01*
X57862098Y-96175697D01*
G37*
X57862098Y-96175697D02*
X57994337Y-96211592D01*
X58024183Y-96224467D01*
X58165112Y-96313547D01*
X58281769Y-96431923D01*
X58370555Y-96572469D01*
X58427871Y-96728058D01*
X58450116Y-96891565D01*
X58436822Y-97041350D01*
X58381147Y-97213480D01*
X58290108Y-97363584D01*
X58166369Y-97488228D01*
X58017036Y-97581845D01*
X57911136Y-97616966D01*
X57781699Y-97635885D01*
X57644477Y-97638158D01*
X57515224Y-97623336D01*
X57427325Y-97598547D01*
X57291596Y-97523858D01*
X57168870Y-97415706D01*
X57068210Y-97282777D01*
X57035288Y-97222857D01*
X56999960Y-97146297D01*
X56979086Y-97083097D01*
X56968975Y-97016148D01*
X56965937Y-96928341D01*
X56965850Y-96901000D01*
X56967692Y-96805268D01*
X56975680Y-96734690D01*
X56993504Y-96672157D01*
X57024856Y-96600561D01*
X57035288Y-96579142D01*
X57127617Y-96433844D01*
X57246681Y-96313240D01*
X57384939Y-96224402D01*
X57437832Y-96201607D01*
X57567162Y-96170054D01*
X57714146Y-96161634D01*
X57862098Y-96175697D01*
G36*
X83367956Y-96170503D02*
G01*
X83480328Y-96201197D01*
X83643368Y-96283439D01*
X83776240Y-96395224D01*
X83877825Y-96535304D01*
X83947006Y-96702428D01*
X83954995Y-96731602D01*
X83977478Y-96897596D01*
X83961867Y-97057545D01*
X83912363Y-97207140D01*
X83833172Y-97342069D01*
X83728494Y-97458021D01*
X83602534Y-97550685D01*
X83459495Y-97615750D01*
X83303579Y-97648906D01*
X83138990Y-97645841D01*
X83074933Y-97634256D01*
X82910887Y-97577430D01*
X82770979Y-97490275D01*
X82656937Y-97378201D01*
X82570489Y-97246620D01*
X82513362Y-97100944D01*
X82487285Y-96946584D01*
X82493984Y-96788951D01*
X82535187Y-96633457D01*
X82612622Y-96485514D01*
X82680531Y-96398907D01*
X82740816Y-96343720D01*
X82820675Y-96285322D01*
X82889336Y-96243921D01*
X83041646Y-96184729D01*
X83205105Y-96159973D01*
X83367956Y-96170503D01*
G37*
X83367956Y-96170503D02*
X83480328Y-96201197D01*
X83643368Y-96283439D01*
X83776240Y-96395224D01*
X83877825Y-96535304D01*
X83947006Y-96702428D01*
X83954995Y-96731602D01*
X83977478Y-96897596D01*
X83961867Y-97057545D01*
X83912363Y-97207140D01*
X83833172Y-97342069D01*
X83728494Y-97458021D01*
X83602534Y-97550685D01*
X83459495Y-97615750D01*
X83303579Y-97648906D01*
X83138990Y-97645841D01*
X83074933Y-97634256D01*
X82910887Y-97577430D01*
X82770979Y-97490275D01*
X82656937Y-97378201D01*
X82570489Y-97246620D01*
X82513362Y-97100944D01*
X82487285Y-96946584D01*
X82493984Y-96788951D01*
X82535187Y-96633457D01*
X82612622Y-96485514D01*
X82680531Y-96398907D01*
X82740816Y-96343720D01*
X82820675Y-96285322D01*
X82889336Y-96243921D01*
X83041646Y-96184729D01*
X83205105Y-96159973D01*
X83367956Y-96170503D01*
G36*
X79317709Y-97208055D02*
G01*
X79528193Y-97266371D01*
X79725046Y-97359023D01*
X79903262Y-97483487D01*
X80057836Y-97637240D01*
X80183761Y-97817758D01*
X80217165Y-97880718D01*
X80306883Y-98105767D01*
X80354344Y-98330782D01*
X80359544Y-98555225D01*
X80322479Y-98778560D01*
X80243147Y-99000250D01*
X80224920Y-99038833D01*
X80120213Y-99208465D01*
X79982075Y-99364915D01*
X79818908Y-99501484D01*
X79639114Y-99611471D01*
X79451097Y-99688175D01*
X79389750Y-99704790D01*
X79255451Y-99725947D01*
X79100327Y-99733973D01*
X78943101Y-99728899D01*
X78802497Y-99710754D01*
X78770584Y-99703805D01*
X78587559Y-99639878D01*
X78408304Y-99540872D01*
X78241477Y-99413761D01*
X78095732Y-99265517D01*
X77979726Y-99103113D01*
X77945092Y-99038833D01*
X77861296Y-98823419D01*
X77817201Y-98605830D01*
X77810793Y-98390037D01*
X77840058Y-98180009D01*
X77902980Y-97979716D01*
X77997545Y-97793131D01*
X78121738Y-97624222D01*
X78273544Y-97476960D01*
X78450949Y-97355317D01*
X78651938Y-97263261D01*
X78874496Y-97204764D01*
X78875873Y-97204526D01*
X79098600Y-97186599D01*
X79317709Y-97208055D01*
G37*
X79317709Y-97208055D02*
X79528193Y-97266371D01*
X79725046Y-97359023D01*
X79903262Y-97483487D01*
X80057836Y-97637240D01*
X80183761Y-97817758D01*
X80217165Y-97880718D01*
X80306883Y-98105767D01*
X80354344Y-98330782D01*
X80359544Y-98555225D01*
X80322479Y-98778560D01*
X80243147Y-99000250D01*
X80224920Y-99038833D01*
X80120213Y-99208465D01*
X79982075Y-99364915D01*
X79818908Y-99501484D01*
X79639114Y-99611471D01*
X79451097Y-99688175D01*
X79389750Y-99704790D01*
X79255451Y-99725947D01*
X79100327Y-99733973D01*
X78943101Y-99728899D01*
X78802497Y-99710754D01*
X78770584Y-99703805D01*
X78587559Y-99639878D01*
X78408304Y-99540872D01*
X78241477Y-99413761D01*
X78095732Y-99265517D01*
X77979726Y-99103113D01*
X77945092Y-99038833D01*
X77861296Y-98823419D01*
X77817201Y-98605830D01*
X77810793Y-98390037D01*
X77840058Y-98180009D01*
X77902980Y-97979716D01*
X77997545Y-97793131D01*
X78121738Y-97624222D01*
X78273544Y-97476960D01*
X78450949Y-97355317D01*
X78651938Y-97263261D01*
X78874496Y-97204764D01*
X78875873Y-97204526D01*
X79098600Y-97186599D01*
X79317709Y-97208055D01*
G36*
X61971132Y-97184798D02*
G01*
X62178489Y-97220150D01*
X62379619Y-97290490D01*
X62569877Y-97396579D01*
X62730934Y-97526045D01*
X62870024Y-97677484D01*
X62979770Y-97844075D01*
X63068469Y-98038413D01*
X63068650Y-98038887D01*
X63091730Y-98104051D01*
X63107237Y-98163351D01*
X63116631Y-98228018D01*
X63121373Y-98309284D01*
X63122922Y-98418381D01*
X63122983Y-98456750D01*
X63122085Y-98575997D01*
X63118417Y-98664164D01*
X63110520Y-98732480D01*
X63096933Y-98792178D01*
X63076194Y-98854490D01*
X63068650Y-98874612D01*
X62981606Y-99066312D01*
X62874974Y-99229574D01*
X62740590Y-99376722D01*
X62728790Y-99387801D01*
X62547665Y-99528930D01*
X62348814Y-99634357D01*
X62137338Y-99702750D01*
X61918344Y-99732777D01*
X61696933Y-99723107D01*
X61552995Y-99694605D01*
X61330949Y-99615401D01*
X61131092Y-99501388D01*
X60956458Y-99355506D01*
X60810085Y-99180701D01*
X60695007Y-98979913D01*
X60625370Y-98795416D01*
X60598313Y-98659264D01*
X60587699Y-98486554D01*
X60587510Y-98456750D01*
X60595923Y-98280918D01*
X60624055Y-98126839D01*
X60676239Y-97976826D01*
X60735495Y-97853044D01*
X60856370Y-97664797D01*
X61003535Y-97506209D01*
X61172345Y-97378041D01*
X61358155Y-97281055D01*
X61556320Y-97216011D01*
X61762194Y-97183672D01*
X61971132Y-97184798D01*
G37*
X61971132Y-97184798D02*
X62178489Y-97220150D01*
X62379619Y-97290490D01*
X62569877Y-97396579D01*
X62730934Y-97526045D01*
X62870024Y-97677484D01*
X62979770Y-97844075D01*
X63068469Y-98038413D01*
X63068650Y-98038887D01*
X63091730Y-98104051D01*
X63107237Y-98163351D01*
X63116631Y-98228018D01*
X63121373Y-98309284D01*
X63122922Y-98418381D01*
X63122983Y-98456750D01*
X63122085Y-98575997D01*
X63118417Y-98664164D01*
X63110520Y-98732480D01*
X63096933Y-98792178D01*
X63076194Y-98854490D01*
X63068650Y-98874612D01*
X62981606Y-99066312D01*
X62874974Y-99229574D01*
X62740590Y-99376722D01*
X62728790Y-99387801D01*
X62547665Y-99528930D01*
X62348814Y-99634357D01*
X62137338Y-99702750D01*
X61918344Y-99732777D01*
X61696933Y-99723107D01*
X61552995Y-99694605D01*
X61330949Y-99615401D01*
X61131092Y-99501388D01*
X60956458Y-99355506D01*
X60810085Y-99180701D01*
X60695007Y-98979913D01*
X60625370Y-98795416D01*
X60598313Y-98659264D01*
X60587699Y-98486554D01*
X60587510Y-98456750D01*
X60595923Y-98280918D01*
X60624055Y-98126839D01*
X60676239Y-97976826D01*
X60735495Y-97853044D01*
X60856370Y-97664797D01*
X61003535Y-97506209D01*
X61172345Y-97378041D01*
X61358155Y-97281055D01*
X61556320Y-97216011D01*
X61762194Y-97183672D01*
X61971132Y-97184798D01*
G36*
X82063992Y-99366144D02*
G01*
X82225696Y-99418963D01*
X82250510Y-99430962D01*
X82379733Y-99510489D01*
X82480282Y-99607444D01*
X82564504Y-99733884D01*
X82568878Y-99741879D01*
X82601384Y-99804154D01*
X82622300Y-99854944D01*
X82634174Y-99906788D01*
X82639551Y-99972229D01*
X82640978Y-100063807D01*
X82641016Y-100097166D01*
X82639953Y-100201322D01*
X82635395Y-100275154D01*
X82625290Y-100330645D01*
X82607583Y-100379779D01*
X82584643Y-100426216D01*
X82487117Y-100568352D01*
X82359398Y-100688984D01*
X82231730Y-100768545D01*
X82152912Y-100802273D01*
X82076183Y-100821631D01*
X81982754Y-100830759D01*
X81942516Y-100832308D01*
X81837776Y-100830817D01*
X81743356Y-100821388D01*
X81684795Y-100808546D01*
X81539347Y-100740661D01*
X81406954Y-100639420D01*
X81296809Y-100513625D01*
X81218103Y-100372076D01*
X81211576Y-100355434D01*
X81177309Y-100212729D01*
X81171766Y-100055660D01*
X81194266Y-99900323D01*
X81235866Y-99779666D01*
X81325782Y-99634508D01*
X81443257Y-99516987D01*
X81582054Y-99429247D01*
X81735934Y-99373430D01*
X81898659Y-99351681D01*
X82063992Y-99366144D01*
G37*
X82063992Y-99366144D02*
X82225696Y-99418963D01*
X82250510Y-99430962D01*
X82379733Y-99510489D01*
X82480282Y-99607444D01*
X82564504Y-99733884D01*
X82568878Y-99741879D01*
X82601384Y-99804154D01*
X82622300Y-99854944D01*
X82634174Y-99906788D01*
X82639551Y-99972229D01*
X82640978Y-100063807D01*
X82641016Y-100097166D01*
X82639953Y-100201322D01*
X82635395Y-100275154D01*
X82625290Y-100330645D01*
X82607583Y-100379779D01*
X82584643Y-100426216D01*
X82487117Y-100568352D01*
X82359398Y-100688984D01*
X82231730Y-100768545D01*
X82152912Y-100802273D01*
X82076183Y-100821631D01*
X81982754Y-100830759D01*
X81942516Y-100832308D01*
X81837776Y-100830817D01*
X81743356Y-100821388D01*
X81684795Y-100808546D01*
X81539347Y-100740661D01*
X81406954Y-100639420D01*
X81296809Y-100513625D01*
X81218103Y-100372076D01*
X81211576Y-100355434D01*
X81177309Y-100212729D01*
X81171766Y-100055660D01*
X81194266Y-99900323D01*
X81235866Y-99779666D01*
X81325782Y-99634508D01*
X81443257Y-99516987D01*
X81582054Y-99429247D01*
X81735934Y-99373430D01*
X81898659Y-99351681D01*
X82063992Y-99366144D01*
G36*
X59199680Y-99364646D02*
G01*
X59347039Y-99412366D01*
X59479381Y-99495638D01*
X59544832Y-99554016D01*
X59644404Y-99666925D01*
X59710780Y-99781924D01*
X59749485Y-99911559D01*
X59765421Y-100054833D01*
X59768066Y-100157334D01*
X59762454Y-100234939D01*
X59746515Y-100304629D01*
X59728636Y-100356387D01*
X59655043Y-100496282D01*
X59549101Y-100621783D01*
X59420598Y-100722544D01*
X59342798Y-100764143D01*
X59213573Y-100807560D01*
X59073801Y-100830219D01*
X58938703Y-100830773D01*
X58828516Y-100809588D01*
X58659498Y-100733943D01*
X58517097Y-100629615D01*
X58405258Y-100500201D01*
X58330207Y-100355434D01*
X58306186Y-100281664D01*
X58293868Y-100211155D01*
X58291201Y-100126988D01*
X58293778Y-100054833D01*
X58311873Y-99900595D01*
X58352545Y-99772558D01*
X58421319Y-99658175D01*
X58514367Y-99554016D01*
X58641944Y-99451044D01*
X58780531Y-99385216D01*
X58937833Y-99353471D01*
X59029600Y-99349419D01*
X59199680Y-99364646D01*
G37*
X59199680Y-99364646D02*
X59347039Y-99412366D01*
X59479381Y-99495638D01*
X59544832Y-99554016D01*
X59644404Y-99666925D01*
X59710780Y-99781924D01*
X59749485Y-99911559D01*
X59765421Y-100054833D01*
X59768066Y-100157334D01*
X59762454Y-100234939D01*
X59746515Y-100304629D01*
X59728636Y-100356387D01*
X59655043Y-100496282D01*
X59549101Y-100621783D01*
X59420598Y-100722544D01*
X59342798Y-100764143D01*
X59213573Y-100807560D01*
X59073801Y-100830219D01*
X58938703Y-100830773D01*
X58828516Y-100809588D01*
X58659498Y-100733943D01*
X58517097Y-100629615D01*
X58405258Y-100500201D01*
X58330207Y-100355434D01*
X58306186Y-100281664D01*
X58293868Y-100211155D01*
X58291201Y-100126988D01*
X58293778Y-100054833D01*
X58311873Y-99900595D01*
X58352545Y-99772558D01*
X58421319Y-99658175D01*
X58514367Y-99554016D01*
X58641944Y-99451044D01*
X58780531Y-99385216D01*
X58937833Y-99353471D01*
X59029600Y-99349419D01*
X59199680Y-99364646D01*
G36*
X75741905Y-100856161D02*
G01*
X75963865Y-100930841D01*
X76023700Y-100958550D01*
X76158767Y-101040412D01*
X76294950Y-101150156D01*
X76420717Y-101276664D01*
X76524538Y-101408815D01*
X76572205Y-101487521D01*
X76659881Y-101697894D01*
X76709142Y-101919734D01*
X76719984Y-102146715D01*
X76692406Y-102372512D01*
X76626404Y-102590800D01*
X76572706Y-102707311D01*
X76489177Y-102836467D01*
X76376894Y-102967199D01*
X76247449Y-103088260D01*
X76112434Y-103188405D01*
X76026433Y-103237320D01*
X75805813Y-103322655D01*
X75577215Y-103367692D01*
X75345445Y-103371829D01*
X75162150Y-103345541D01*
X74953468Y-103279286D01*
X74761681Y-103177109D01*
X74590412Y-103043286D01*
X74443284Y-102882093D01*
X74323919Y-102697806D01*
X74235941Y-102494703D01*
X74182971Y-102277059D01*
X74171576Y-102176254D01*
X74176278Y-101968464D01*
X74217933Y-101759755D01*
X74292992Y-101558062D01*
X74397904Y-101371318D01*
X74529118Y-101207459D01*
X74655768Y-101094284D01*
X74858260Y-100966272D01*
X75071593Y-100878108D01*
X75292295Y-100830139D01*
X75516890Y-100822708D01*
X75741905Y-100856161D01*
G37*
X75741905Y-100856161D02*
X75963865Y-100930841D01*
X76023700Y-100958550D01*
X76158767Y-101040412D01*
X76294950Y-101150156D01*
X76420717Y-101276664D01*
X76524538Y-101408815D01*
X76572205Y-101487521D01*
X76659881Y-101697894D01*
X76709142Y-101919734D01*
X76719984Y-102146715D01*
X76692406Y-102372512D01*
X76626404Y-102590800D01*
X76572706Y-102707311D01*
X76489177Y-102836467D01*
X76376894Y-102967199D01*
X76247449Y-103088260D01*
X76112434Y-103188405D01*
X76026433Y-103237320D01*
X75805813Y-103322655D01*
X75577215Y-103367692D01*
X75345445Y-103371829D01*
X75162150Y-103345541D01*
X74953468Y-103279286D01*
X74761681Y-103177109D01*
X74590412Y-103043286D01*
X74443284Y-102882093D01*
X74323919Y-102697806D01*
X74235941Y-102494703D01*
X74182971Y-102277059D01*
X74171576Y-102176254D01*
X74176278Y-101968464D01*
X74217933Y-101759755D01*
X74292992Y-101558062D01*
X74397904Y-101371318D01*
X74529118Y-101207459D01*
X74655768Y-101094284D01*
X74858260Y-100966272D01*
X75071593Y-100878108D01*
X75292295Y-100830139D01*
X75516890Y-100822708D01*
X75741905Y-100856161D01*
G36*
X65779578Y-100858365D02*
G01*
X65980762Y-100922853D01*
X66168718Y-101019988D01*
X66339347Y-101147957D01*
X66488552Y-101304950D01*
X66612234Y-101489155D01*
X66706296Y-101698759D01*
X66726138Y-101759654D01*
X66750845Y-101876487D01*
X66762848Y-102023530D01*
X66764327Y-102108000D01*
X66748710Y-102331396D01*
X66699703Y-102532931D01*
X66614870Y-102718404D01*
X66491777Y-102893616D01*
X66386397Y-103008446D01*
X66209249Y-103157625D01*
X66014644Y-103270828D01*
X65810461Y-103344446D01*
X65682048Y-103366654D01*
X65531604Y-103375759D01*
X65376229Y-103371938D01*
X65233021Y-103355367D01*
X65154073Y-103337701D01*
X64935109Y-103254191D01*
X64739099Y-103136691D01*
X64569222Y-102987811D01*
X64428655Y-102810166D01*
X64354532Y-102680552D01*
X64297423Y-102554918D01*
X64259377Y-102440924D01*
X64237097Y-102323616D01*
X64227290Y-102188038D01*
X64226016Y-102097416D01*
X64236743Y-101899633D01*
X64271413Y-101726341D01*
X64333754Y-101564837D01*
X64427500Y-101402414D01*
X64432158Y-101395416D01*
X64564133Y-101226823D01*
X64715696Y-101090294D01*
X64896317Y-100977513D01*
X64924516Y-100963119D01*
X65137634Y-100878901D01*
X65353916Y-100834577D01*
X65569263Y-100828336D01*
X65779578Y-100858365D01*
G37*
X65779578Y-100858365D02*
X65980762Y-100922853D01*
X66168718Y-101019988D01*
X66339347Y-101147957D01*
X66488552Y-101304950D01*
X66612234Y-101489155D01*
X66706296Y-101698759D01*
X66726138Y-101759654D01*
X66750845Y-101876487D01*
X66762848Y-102023530D01*
X66764327Y-102108000D01*
X66748710Y-102331396D01*
X66699703Y-102532931D01*
X66614870Y-102718404D01*
X66491777Y-102893616D01*
X66386397Y-103008446D01*
X66209249Y-103157625D01*
X66014644Y-103270828D01*
X65810461Y-103344446D01*
X65682048Y-103366654D01*
X65531604Y-103375759D01*
X65376229Y-103371938D01*
X65233021Y-103355367D01*
X65154073Y-103337701D01*
X64935109Y-103254191D01*
X64739099Y-103136691D01*
X64569222Y-102987811D01*
X64428655Y-102810166D01*
X64354532Y-102680552D01*
X64297423Y-102554918D01*
X64259377Y-102440924D01*
X64237097Y-102323616D01*
X64227290Y-102188038D01*
X64226016Y-102097416D01*
X64236743Y-101899633D01*
X64271413Y-101726341D01*
X64333754Y-101564837D01*
X64427500Y-101402414D01*
X64432158Y-101395416D01*
X64564133Y-101226823D01*
X64715696Y-101090294D01*
X64896317Y-100977513D01*
X64924516Y-100963119D01*
X65137634Y-100878901D01*
X65353916Y-100834577D01*
X65569263Y-100828336D01*
X65779578Y-100858365D01*
G36*
X79919422Y-102098479D02*
G01*
X79993254Y-102103037D01*
X80048745Y-102113143D01*
X80097879Y-102130849D01*
X80144316Y-102153789D01*
X80278037Y-102244185D01*
X80394511Y-102361167D01*
X80481966Y-102492619D01*
X80490603Y-102510166D01*
X80517733Y-102573946D01*
X80534276Y-102633810D01*
X80542688Y-102703967D01*
X80545429Y-102798627D01*
X80545516Y-102827666D01*
X80543805Y-102930639D01*
X80537035Y-103005569D01*
X80522747Y-103066666D01*
X80498483Y-103128142D01*
X80490603Y-103145166D01*
X80405055Y-103281662D01*
X80289331Y-103401018D01*
X80154961Y-103491714D01*
X80132766Y-103502671D01*
X79995905Y-103547757D01*
X79842977Y-103566773D01*
X79689476Y-103559299D01*
X79550895Y-103524911D01*
X79535914Y-103518919D01*
X79377334Y-103431658D01*
X79250038Y-103315924D01*
X79153473Y-103171148D01*
X79115552Y-103085074D01*
X79082487Y-102949618D01*
X79075215Y-102799021D01*
X79092935Y-102649121D01*
X79134845Y-102515756D01*
X79145489Y-102493568D01*
X79243987Y-102346765D01*
X79374008Y-102224336D01*
X79481168Y-102156347D01*
X79536181Y-102129367D01*
X79585708Y-102112124D01*
X79641879Y-102102478D01*
X79716827Y-102098290D01*
X79815266Y-102097416D01*
X79919422Y-102098479D01*
G37*
X79919422Y-102098479D02*
X79993254Y-102103037D01*
X80048745Y-102113143D01*
X80097879Y-102130849D01*
X80144316Y-102153789D01*
X80278037Y-102244185D01*
X80394511Y-102361167D01*
X80481966Y-102492619D01*
X80490603Y-102510166D01*
X80517733Y-102573946D01*
X80534276Y-102633810D01*
X80542688Y-102703967D01*
X80545429Y-102798627D01*
X80545516Y-102827666D01*
X80543805Y-102930639D01*
X80537035Y-103005569D01*
X80522747Y-103066666D01*
X80498483Y-103128142D01*
X80490603Y-103145166D01*
X80405055Y-103281662D01*
X80289331Y-103401018D01*
X80154961Y-103491714D01*
X80132766Y-103502671D01*
X79995905Y-103547757D01*
X79842977Y-103566773D01*
X79689476Y-103559299D01*
X79550895Y-103524911D01*
X79535914Y-103518919D01*
X79377334Y-103431658D01*
X79250038Y-103315924D01*
X79153473Y-103171148D01*
X79115552Y-103085074D01*
X79082487Y-102949618D01*
X79075215Y-102799021D01*
X79092935Y-102649121D01*
X79134845Y-102515756D01*
X79145489Y-102493568D01*
X79243987Y-102346765D01*
X79374008Y-102224336D01*
X79481168Y-102156347D01*
X79536181Y-102129367D01*
X79585708Y-102112124D01*
X79641879Y-102102478D01*
X79716827Y-102098290D01*
X79815266Y-102097416D01*
X79919422Y-102098479D01*
G36*
X61357379Y-102119638D02*
G01*
X61511723Y-102191644D01*
X61646350Y-102297661D01*
X61756232Y-102434999D01*
X61798104Y-102510024D01*
X61826057Y-102572372D01*
X61843197Y-102629487D01*
X61852050Y-102695391D01*
X61855143Y-102784106D01*
X61855334Y-102827666D01*
X61848694Y-102970037D01*
X61825528Y-103084695D01*
X61780922Y-103184636D01*
X61709964Y-103282855D01*
X61663691Y-103334715D01*
X61545004Y-103440870D01*
X61416917Y-103511704D01*
X61270074Y-103551357D01*
X61147977Y-103562905D01*
X61049313Y-103564701D01*
X60976274Y-103559324D01*
X60912417Y-103544344D01*
X60842152Y-103517687D01*
X60683781Y-103429576D01*
X60555752Y-103312452D01*
X60459877Y-103168575D01*
X60397965Y-103000203D01*
X60387086Y-102949648D01*
X60376375Y-102782050D01*
X60403957Y-102620362D01*
X60465846Y-102470102D01*
X60558051Y-102336787D01*
X60676586Y-102225935D01*
X60817461Y-102143063D01*
X60976687Y-102093689D01*
X61009661Y-102088417D01*
X61188348Y-102084333D01*
X61357379Y-102119638D01*
G37*
X61357379Y-102119638D02*
X61511723Y-102191644D01*
X61646350Y-102297661D01*
X61756232Y-102434999D01*
X61798104Y-102510024D01*
X61826057Y-102572372D01*
X61843197Y-102629487D01*
X61852050Y-102695391D01*
X61855143Y-102784106D01*
X61855334Y-102827666D01*
X61848694Y-102970037D01*
X61825528Y-103084695D01*
X61780922Y-103184636D01*
X61709964Y-103282855D01*
X61663691Y-103334715D01*
X61545004Y-103440870D01*
X61416917Y-103511704D01*
X61270074Y-103551357D01*
X61147977Y-103562905D01*
X61049313Y-103564701D01*
X60976274Y-103559324D01*
X60912417Y-103544344D01*
X60842152Y-103517687D01*
X60683781Y-103429576D01*
X60555752Y-103312452D01*
X60459877Y-103168575D01*
X60397965Y-103000203D01*
X60387086Y-102949648D01*
X60376375Y-102782050D01*
X60403957Y-102620362D01*
X60465846Y-102470102D01*
X60558051Y-102336787D01*
X60676586Y-102225935D01*
X60817461Y-102143063D01*
X60976687Y-102093689D01*
X61009661Y-102088417D01*
X61188348Y-102084333D01*
X61357379Y-102119638D01*
G36*
X70697277Y-102164528D02*
G01*
X70778377Y-102180047D01*
X71001115Y-102256911D01*
X71201756Y-102368829D01*
X71377413Y-102513132D01*
X71525202Y-102687148D01*
X71642236Y-102888207D01*
X71700894Y-103033439D01*
X71739445Y-103190156D01*
X71758524Y-103366298D01*
X71757307Y-103543832D01*
X71734966Y-103704725D01*
X71732162Y-103716666D01*
X71662744Y-103917816D01*
X71557206Y-104110725D01*
X71421759Y-104286695D01*
X71262614Y-104437025D01*
X71170343Y-104503615D01*
X71008981Y-104588108D01*
X70823984Y-104651406D01*
X70628870Y-104690593D01*
X70437160Y-104702751D01*
X70298777Y-104691609D01*
X70079124Y-104636432D01*
X69874998Y-104544824D01*
X69690671Y-104420639D01*
X69530413Y-104267728D01*
X69398494Y-104089946D01*
X69299186Y-103891145D01*
X69253039Y-103748180D01*
X69215667Y-103521104D01*
X69218340Y-103297470D01*
X69258776Y-103081521D01*
X69334693Y-102877502D01*
X69443812Y-102689657D01*
X69583850Y-102522231D01*
X69752526Y-102379469D01*
X69947559Y-102265614D01*
X70078600Y-102212136D01*
X70216568Y-102177237D01*
X70376922Y-102157153D01*
X70542785Y-102152659D01*
X70697277Y-102164528D01*
G37*
X70697277Y-102164528D02*
X70778377Y-102180047D01*
X71001115Y-102256911D01*
X71201756Y-102368829D01*
X71377413Y-102513132D01*
X71525202Y-102687148D01*
X71642236Y-102888207D01*
X71700894Y-103033439D01*
X71739445Y-103190156D01*
X71758524Y-103366298D01*
X71757307Y-103543832D01*
X71734966Y-103704725D01*
X71732162Y-103716666D01*
X71662744Y-103917816D01*
X71557206Y-104110725D01*
X71421759Y-104286695D01*
X71262614Y-104437025D01*
X71170343Y-104503615D01*
X71008981Y-104588108D01*
X70823984Y-104651406D01*
X70628870Y-104690593D01*
X70437160Y-104702751D01*
X70298777Y-104691609D01*
X70079124Y-104636432D01*
X69874998Y-104544824D01*
X69690671Y-104420639D01*
X69530413Y-104267728D01*
X69398494Y-104089946D01*
X69299186Y-103891145D01*
X69253039Y-103748180D01*
X69215667Y-103521104D01*
X69218340Y-103297470D01*
X69258776Y-103081521D01*
X69334693Y-102877502D01*
X69443812Y-102689657D01*
X69583850Y-102522231D01*
X69752526Y-102379469D01*
X69947559Y-102265614D01*
X70078600Y-102212136D01*
X70216568Y-102177237D01*
X70376922Y-102157153D01*
X70542785Y-102152659D01*
X70697277Y-102164528D01*
G36*
X77185801Y-104194431D02*
G01*
X77258674Y-104200693D01*
X77317502Y-104214280D01*
X77376399Y-104237771D01*
X77404902Y-104251382D01*
X77520279Y-104325156D01*
X77630399Y-104425905D01*
X77722007Y-104540115D01*
X77768665Y-104622235D01*
X77792316Y-104683433D01*
X77806518Y-104749515D01*
X77813316Y-104833802D01*
X77814793Y-104923166D01*
X77813218Y-105025940D01*
X77806591Y-105100649D01*
X77792466Y-105161480D01*
X77768396Y-105222620D01*
X77760043Y-105240666D01*
X77676161Y-105376319D01*
X77564795Y-105494311D01*
X77437265Y-105582805D01*
X77428283Y-105587459D01*
X77364563Y-105616784D01*
X77300348Y-105638258D01*
X77221668Y-105655696D01*
X77116516Y-105672629D01*
X77071020Y-105673334D01*
X77003764Y-105668081D01*
X76968350Y-105663619D01*
X76802069Y-105619063D01*
X76653037Y-105537383D01*
X76525876Y-105421861D01*
X76427114Y-105279317D01*
X76394413Y-105216708D01*
X76373367Y-105165781D01*
X76361416Y-105113975D01*
X76355999Y-105048731D01*
X76354557Y-104957487D01*
X76354516Y-104923166D01*
X76355585Y-104818962D01*
X76360150Y-104745118D01*
X76370251Y-104689684D01*
X76387929Y-104640712D01*
X76410519Y-104595083D01*
X76502627Y-104460711D01*
X76624014Y-104342464D01*
X76761783Y-104252815D01*
X76767124Y-104250162D01*
X76829480Y-104222207D01*
X76886610Y-104205064D01*
X76952537Y-104196208D01*
X77041285Y-104193109D01*
X77084766Y-104192916D01*
X77185801Y-104194431D01*
G37*
X77185801Y-104194431D02*
X77258674Y-104200693D01*
X77317502Y-104214280D01*
X77376399Y-104237771D01*
X77404902Y-104251382D01*
X77520279Y-104325156D01*
X77630399Y-104425905D01*
X77722007Y-104540115D01*
X77768665Y-104622235D01*
X77792316Y-104683433D01*
X77806518Y-104749515D01*
X77813316Y-104833802D01*
X77814793Y-104923166D01*
X77813218Y-105025940D01*
X77806591Y-105100649D01*
X77792466Y-105161480D01*
X77768396Y-105222620D01*
X77760043Y-105240666D01*
X77676161Y-105376319D01*
X77564795Y-105494311D01*
X77437265Y-105582805D01*
X77428283Y-105587459D01*
X77364563Y-105616784D01*
X77300348Y-105638258D01*
X77221668Y-105655696D01*
X77116516Y-105672629D01*
X77071020Y-105673334D01*
X77003764Y-105668081D01*
X76968350Y-105663619D01*
X76802069Y-105619063D01*
X76653037Y-105537383D01*
X76525876Y-105421861D01*
X76427114Y-105279317D01*
X76394413Y-105216708D01*
X76373367Y-105165781D01*
X76361416Y-105113975D01*
X76355999Y-105048731D01*
X76354557Y-104957487D01*
X76354516Y-104923166D01*
X76355585Y-104818962D01*
X76360150Y-104745118D01*
X76370251Y-104689684D01*
X76387929Y-104640712D01*
X76410519Y-104595083D01*
X76502627Y-104460711D01*
X76624014Y-104342464D01*
X76761783Y-104252815D01*
X76767124Y-104250162D01*
X76829480Y-104222207D01*
X76886610Y-104205064D01*
X76952537Y-104196208D01*
X77041285Y-104193109D01*
X77084766Y-104192916D01*
X77185801Y-104194431D01*
G36*
X63963789Y-104194436D02*
G01*
X64034525Y-104201213D01*
X64094703Y-104216571D01*
X64160187Y-104243836D01*
X64199114Y-104262597D01*
X64334559Y-104346733D01*
X64443654Y-104455451D01*
X64533629Y-104596269D01*
X64548564Y-104626044D01*
X64578527Y-104695387D01*
X64596013Y-104760505D01*
X64604190Y-104837762D01*
X64606180Y-104923611D01*
X64604832Y-105018776D01*
X64597314Y-105088721D01*
X64579988Y-105150483D01*
X64549217Y-105221100D01*
X64537577Y-105245023D01*
X64443146Y-105392907D01*
X64322249Y-105512637D01*
X64180708Y-105601330D01*
X64024343Y-105656102D01*
X63858975Y-105674067D01*
X63707433Y-105656423D01*
X63539387Y-105597420D01*
X63392710Y-105503319D01*
X63271905Y-105377762D01*
X63186299Y-105235042D01*
X63154385Y-105159178D01*
X63135854Y-105092060D01*
X63127319Y-105016318D01*
X63125383Y-104922654D01*
X63127269Y-104826867D01*
X63135344Y-104756211D01*
X63153294Y-104693557D01*
X63184808Y-104621776D01*
X63194379Y-104602140D01*
X63287819Y-104454230D01*
X63408826Y-104337010D01*
X63556726Y-104248694D01*
X63624222Y-104220263D01*
X63687220Y-104203331D01*
X63761054Y-104195136D01*
X63861059Y-104192920D01*
X63866628Y-104192916D01*
X63963789Y-104194436D01*
G37*
X63963789Y-104194436D02*
X64034525Y-104201213D01*
X64094703Y-104216571D01*
X64160187Y-104243836D01*
X64199114Y-104262597D01*
X64334559Y-104346733D01*
X64443654Y-104455451D01*
X64533629Y-104596269D01*
X64548564Y-104626044D01*
X64578527Y-104695387D01*
X64596013Y-104760505D01*
X64604190Y-104837762D01*
X64606180Y-104923611D01*
X64604832Y-105018776D01*
X64597314Y-105088721D01*
X64579988Y-105150483D01*
X64549217Y-105221100D01*
X64537577Y-105245023D01*
X64443146Y-105392907D01*
X64322249Y-105512637D01*
X64180708Y-105601330D01*
X64024343Y-105656102D01*
X63858975Y-105674067D01*
X63707433Y-105656423D01*
X63539387Y-105597420D01*
X63392710Y-105503319D01*
X63271905Y-105377762D01*
X63186299Y-105235042D01*
X63154385Y-105159178D01*
X63135854Y-105092060D01*
X63127319Y-105016318D01*
X63125383Y-104922654D01*
X63127269Y-104826867D01*
X63135344Y-104756211D01*
X63153294Y-104693557D01*
X63184808Y-104621776D01*
X63194379Y-104602140D01*
X63287819Y-104454230D01*
X63408826Y-104337010D01*
X63556726Y-104248694D01*
X63624222Y-104220263D01*
X63687220Y-104203331D01*
X63761054Y-104195136D01*
X63861059Y-104192920D01*
X63866628Y-104192916D01*
X63963789Y-104194436D01*
G36*
X73992405Y-105527441D02*
G01*
X74065987Y-105531925D01*
X74121433Y-105541982D01*
X74170833Y-105559727D01*
X74221193Y-105584585D01*
X74348581Y-105663218D01*
X74446169Y-105752821D01*
X74526471Y-105865573D01*
X74546711Y-105901379D01*
X74579217Y-105963654D01*
X74600133Y-106014444D01*
X74612007Y-106066288D01*
X74617384Y-106131729D01*
X74618811Y-106223307D01*
X74618850Y-106256666D01*
X74617786Y-106360822D01*
X74613229Y-106434654D01*
X74603123Y-106490145D01*
X74585416Y-106539279D01*
X74562477Y-106585716D01*
X74472304Y-106719180D01*
X74355737Y-106835334D01*
X74224821Y-106922482D01*
X74206100Y-106931671D01*
X74078276Y-106973811D01*
X73931993Y-106993717D01*
X73783568Y-106990778D01*
X73649319Y-106964385D01*
X73618872Y-106953654D01*
X73502720Y-106890774D01*
X73388417Y-106798867D01*
X73288672Y-106689820D01*
X73217494Y-106578190D01*
X73188722Y-106514510D01*
X73171052Y-106457355D01*
X73161880Y-106392558D01*
X73158598Y-106305955D01*
X73158350Y-106256666D01*
X73160060Y-106153694D01*
X73166831Y-106078764D01*
X73181119Y-106017666D01*
X73205383Y-105956190D01*
X73213263Y-105939166D01*
X73296073Y-105806722D01*
X73409435Y-105687169D01*
X73541578Y-105592626D01*
X73559550Y-105582789D01*
X73612824Y-105556881D01*
X73662123Y-105540344D01*
X73719430Y-105531125D01*
X73796730Y-105527171D01*
X73888600Y-105526416D01*
X73992405Y-105527441D01*
G37*
X73992405Y-105527441D02*
X74065987Y-105531925D01*
X74121433Y-105541982D01*
X74170833Y-105559727D01*
X74221193Y-105584585D01*
X74348581Y-105663218D01*
X74446169Y-105752821D01*
X74526471Y-105865573D01*
X74546711Y-105901379D01*
X74579217Y-105963654D01*
X74600133Y-106014444D01*
X74612007Y-106066288D01*
X74617384Y-106131729D01*
X74618811Y-106223307D01*
X74618850Y-106256666D01*
X74617786Y-106360822D01*
X74613229Y-106434654D01*
X74603123Y-106490145D01*
X74585416Y-106539279D01*
X74562477Y-106585716D01*
X74472304Y-106719180D01*
X74355737Y-106835334D01*
X74224821Y-106922482D01*
X74206100Y-106931671D01*
X74078276Y-106973811D01*
X73931993Y-106993717D01*
X73783568Y-106990778D01*
X73649319Y-106964385D01*
X73618872Y-106953654D01*
X73502720Y-106890774D01*
X73388417Y-106798867D01*
X73288672Y-106689820D01*
X73217494Y-106578190D01*
X73188722Y-106514510D01*
X73171052Y-106457355D01*
X73161880Y-106392558D01*
X73158598Y-106305955D01*
X73158350Y-106256666D01*
X73160060Y-106153694D01*
X73166831Y-106078764D01*
X73181119Y-106017666D01*
X73205383Y-105956190D01*
X73213263Y-105939166D01*
X73296073Y-105806722D01*
X73409435Y-105687169D01*
X73541578Y-105592626D01*
X73559550Y-105582789D01*
X73612824Y-105556881D01*
X73662123Y-105540344D01*
X73719430Y-105531125D01*
X73796730Y-105527171D01*
X73888600Y-105526416D01*
X73992405Y-105527441D01*
G36*
X67212541Y-105518692D02*
G01*
X67366122Y-105570154D01*
X67504528Y-105653363D01*
X67622462Y-105764790D01*
X67714631Y-105900909D01*
X67775737Y-106058193D01*
X67791122Y-106131309D01*
X67798801Y-106304433D01*
X67768259Y-106468245D01*
X67703367Y-106617970D01*
X67607991Y-106748834D01*
X67486002Y-106856064D01*
X67341269Y-106934884D01*
X67177660Y-106980520D01*
X67095976Y-106989116D01*
X66971370Y-106988797D01*
X66870248Y-106974914D01*
X66846154Y-106968172D01*
X66677461Y-106892854D01*
X66538189Y-106788626D01*
X66430565Y-106658344D01*
X66356817Y-106504862D01*
X66319172Y-106331036D01*
X66315851Y-106288416D01*
X66313498Y-106186108D01*
X66320765Y-106107121D01*
X66339950Y-106033080D01*
X66351963Y-105999437D01*
X66434243Y-105836403D01*
X66546112Y-105703437D01*
X66686151Y-105601810D01*
X66852946Y-105532792D01*
X66881033Y-105525113D01*
X67049080Y-105502502D01*
X67212541Y-105518692D01*
G37*
X67212541Y-105518692D02*
X67366122Y-105570154D01*
X67504528Y-105653363D01*
X67622462Y-105764790D01*
X67714631Y-105900909D01*
X67775737Y-106058193D01*
X67791122Y-106131309D01*
X67798801Y-106304433D01*
X67768259Y-106468245D01*
X67703367Y-106617970D01*
X67607991Y-106748834D01*
X67486002Y-106856064D01*
X67341269Y-106934884D01*
X67177660Y-106980520D01*
X67095976Y-106989116D01*
X66971370Y-106988797D01*
X66870248Y-106974914D01*
X66846154Y-106968172D01*
X66677461Y-106892854D01*
X66538189Y-106788626D01*
X66430565Y-106658344D01*
X66356817Y-106504862D01*
X66319172Y-106331036D01*
X66315851Y-106288416D01*
X66313498Y-106186108D01*
X66320765Y-106107121D01*
X66339950Y-106033080D01*
X66351963Y-105999437D01*
X66434243Y-105836403D01*
X66546112Y-105703437D01*
X66686151Y-105601810D01*
X66852946Y-105532792D01*
X66881033Y-105525113D01*
X67049080Y-105502502D01*
X67212541Y-105518692D01*
G36*
X70569446Y-105971805D02*
G01*
X70639644Y-105976328D01*
X70694036Y-105987271D01*
X70745882Y-106007419D01*
X70808441Y-106039559D01*
X70815750Y-106043514D01*
X70960946Y-106142850D01*
X71075614Y-106268675D01*
X71154987Y-106404833D01*
X71184292Y-106474836D01*
X71201266Y-106541619D01*
X71208986Y-106621610D01*
X71210558Y-106701611D01*
X71208981Y-106797002D01*
X71201225Y-106867231D01*
X71183621Y-106929395D01*
X71152500Y-107000590D01*
X71141577Y-107023023D01*
X71045756Y-107173102D01*
X70923228Y-107293608D01*
X70779270Y-107381771D01*
X70619164Y-107434821D01*
X70448186Y-107449987D01*
X70346368Y-107440374D01*
X70185019Y-107393409D01*
X70038041Y-107309560D01*
X69911281Y-107193410D01*
X69810584Y-107049541D01*
X69786120Y-107001207D01*
X69741589Y-106861506D01*
X69726053Y-106706356D01*
X69739525Y-106550865D01*
X69782018Y-106410141D01*
X69785585Y-106402293D01*
X69875598Y-106251661D01*
X69993691Y-106130292D01*
X70125836Y-106042864D01*
X70189705Y-106009662D01*
X70241834Y-105988631D01*
X70295452Y-105977006D01*
X70363788Y-105972024D01*
X70460071Y-105970920D01*
X70470183Y-105970916D01*
X70569446Y-105971805D01*
G37*
X70569446Y-105971805D02*
X70639644Y-105976328D01*
X70694036Y-105987271D01*
X70745882Y-106007419D01*
X70808441Y-106039559D01*
X70815750Y-106043514D01*
X70960946Y-106142850D01*
X71075614Y-106268675D01*
X71154987Y-106404833D01*
X71184292Y-106474836D01*
X71201266Y-106541619D01*
X71208986Y-106621610D01*
X71210558Y-106701611D01*
X71208981Y-106797002D01*
X71201225Y-106867231D01*
X71183621Y-106929395D01*
X71152500Y-107000590D01*
X71141577Y-107023023D01*
X71045756Y-107173102D01*
X70923228Y-107293608D01*
X70779270Y-107381771D01*
X70619164Y-107434821D01*
X70448186Y-107449987D01*
X70346368Y-107440374D01*
X70185019Y-107393409D01*
X70038041Y-107309560D01*
X69911281Y-107193410D01*
X69810584Y-107049541D01*
X69786120Y-107001207D01*
X69741589Y-106861506D01*
X69726053Y-106706356D01*
X69739525Y-106550865D01*
X69782018Y-106410141D01*
X69785585Y-106402293D01*
X69875598Y-106251661D01*
X69993691Y-106130292D01*
X70125836Y-106042864D01*
X70189705Y-106009662D01*
X70241834Y-105988631D01*
X70295452Y-105977006D01*
X70363788Y-105972024D01*
X70460071Y-105970920D01*
X70470183Y-105970916D01*
X70569446Y-105971805D01*
G36*
X67178767Y-75899433D02*
G01*
X67945778Y-75899433D01*
X68096731Y-75751621D01*
X68247683Y-75603810D01*
X67178767Y-75603100D01*
X67178767Y-75899433D01*
G37*
X67178767Y-75899433D02*
X67945778Y-75899433D01*
X68096731Y-75751621D01*
X68247683Y-75603810D01*
X67178767Y-75603100D01*
X67178767Y-75899433D01*
G36*
X67178767Y-76470933D02*
G01*
X68194767Y-76470933D01*
X68194767Y-76153433D01*
X67178767Y-76153433D01*
X67178767Y-76470933D01*
G37*
X67178767Y-76470933D02*
X68194767Y-76470933D01*
X68194767Y-76153433D01*
X67178767Y-76153433D01*
X67178767Y-76470933D01*
G36*
X67178767Y-77021266D02*
G01*
X67686767Y-77021266D01*
X67846334Y-77021102D01*
X67968530Y-77020355D01*
X68058317Y-77018641D01*
X68120656Y-77015580D01*
X68160508Y-77010788D01*
X68182837Y-77003882D01*
X68192602Y-76994481D01*
X68194767Y-76982202D01*
X68194767Y-76982107D01*
X68179580Y-76950271D01*
X68139376Y-76901480D01*
X68082189Y-76845233D01*
X68069438Y-76833940D01*
X67944109Y-76724933D01*
X67178767Y-76724933D01*
X67178767Y-77021266D01*
G37*
X67178767Y-77021266D02*
X67686767Y-77021266D01*
X67846334Y-77021102D01*
X67968530Y-77020355D01*
X68058317Y-77018641D01*
X68120656Y-77015580D01*
X68160508Y-77010788D01*
X68182837Y-77003882D01*
X68192602Y-76994481D01*
X68194767Y-76982202D01*
X68194767Y-76982107D01*
X68179580Y-76950271D01*
X68139376Y-76901480D01*
X68082189Y-76845233D01*
X68069438Y-76833940D01*
X67944109Y-76724933D01*
X67178767Y-76724933D01*
X67178767Y-77021266D01*
G36*
X68647557Y-75621435D02*
G01*
X68506958Y-75677196D01*
X68401921Y-75751581D01*
X68311183Y-75833114D01*
X68410816Y-75933877D01*
X68464657Y-75986808D01*
X68498624Y-76013311D01*
X68521897Y-76017746D01*
X68543657Y-76004476D01*
X68549174Y-75999594D01*
X68624262Y-75951067D01*
X68719867Y-75915087D01*
X68814431Y-75899557D01*
X68822404Y-75899433D01*
X68932864Y-75919297D01*
X69037148Y-75973830D01*
X69126564Y-76055441D01*
X69192419Y-76156541D01*
X69222816Y-76249050D01*
X69223030Y-76358345D01*
X69187220Y-76465722D01*
X69121248Y-76563104D01*
X69030972Y-76642420D01*
X68922253Y-76695596D01*
X68892656Y-76703913D01*
X68833386Y-76724715D01*
X68760241Y-76759662D01*
X68682654Y-76802963D01*
X68610057Y-76848829D01*
X68551882Y-76891469D01*
X68517561Y-76925093D01*
X68512267Y-76937416D01*
X68531285Y-76955193D01*
X68580498Y-76975429D01*
X68648143Y-76994948D01*
X68722458Y-77010577D01*
X68791681Y-77019142D01*
X68817734Y-77019850D01*
X68898042Y-77011855D01*
X68980126Y-76994196D01*
X68988517Y-76991658D01*
X69103097Y-76947569D01*
X69194928Y-76890950D01*
X69282185Y-76810026D01*
X69301772Y-76788683D01*
X69387787Y-76672868D01*
X69442688Y-76547295D01*
X69469927Y-76402009D01*
X69474431Y-76291016D01*
X69455453Y-76114267D01*
X69400467Y-75958679D01*
X69310523Y-75826003D01*
X69186675Y-75717992D01*
X69100230Y-75667591D01*
X68952673Y-75615613D01*
X68798955Y-75600569D01*
X68647557Y-75621435D01*
G37*
X68647557Y-75621435D02*
X68506958Y-75677196D01*
X68401921Y-75751581D01*
X68311183Y-75833114D01*
X68410816Y-75933877D01*
X68464657Y-75986808D01*
X68498624Y-76013311D01*
X68521897Y-76017746D01*
X68543657Y-76004476D01*
X68549174Y-75999594D01*
X68624262Y-75951067D01*
X68719867Y-75915087D01*
X68814431Y-75899557D01*
X68822404Y-75899433D01*
X68932864Y-75919297D01*
X69037148Y-75973830D01*
X69126564Y-76055441D01*
X69192419Y-76156541D01*
X69222816Y-76249050D01*
X69223030Y-76358345D01*
X69187220Y-76465722D01*
X69121248Y-76563104D01*
X69030972Y-76642420D01*
X68922253Y-76695596D01*
X68892656Y-76703913D01*
X68833386Y-76724715D01*
X68760241Y-76759662D01*
X68682654Y-76802963D01*
X68610057Y-76848829D01*
X68551882Y-76891469D01*
X68517561Y-76925093D01*
X68512267Y-76937416D01*
X68531285Y-76955193D01*
X68580498Y-76975429D01*
X68648143Y-76994948D01*
X68722458Y-77010577D01*
X68791681Y-77019142D01*
X68817734Y-77019850D01*
X68898042Y-77011855D01*
X68980126Y-76994196D01*
X68988517Y-76991658D01*
X69103097Y-76947569D01*
X69194928Y-76890950D01*
X69282185Y-76810026D01*
X69301772Y-76788683D01*
X69387787Y-76672868D01*
X69442688Y-76547295D01*
X69469927Y-76402009D01*
X69474431Y-76291016D01*
X69455453Y-76114267D01*
X69400467Y-75958679D01*
X69310523Y-75826003D01*
X69186675Y-75717992D01*
X69100230Y-75667591D01*
X68952673Y-75615613D01*
X68798955Y-75600569D01*
X68647557Y-75621435D01*
G36*
X69532810Y-76862917D02*
G01*
X69499629Y-76931506D01*
X69475406Y-76984057D01*
X69464884Y-77010246D01*
X69464767Y-77011084D01*
X69484182Y-77016015D01*
X69535428Y-77019631D01*
X69608009Y-77021241D01*
X69618974Y-77021266D01*
X69773181Y-77021266D01*
X69841224Y-76883282D01*
X69874405Y-76814693D01*
X69898627Y-76762142D01*
X69909149Y-76735953D01*
X69909267Y-76735115D01*
X69889852Y-76730184D01*
X69838606Y-76726568D01*
X69766025Y-76724958D01*
X69755060Y-76724933D01*
X69600853Y-76724933D01*
X69532810Y-76862917D01*
G37*
X69532810Y-76862917D02*
X69499629Y-76931506D01*
X69475406Y-76984057D01*
X69464884Y-77010246D01*
X69464767Y-77011084D01*
X69484182Y-77016015D01*
X69535428Y-77019631D01*
X69608009Y-77021241D01*
X69618974Y-77021266D01*
X69773181Y-77021266D01*
X69841224Y-76883282D01*
X69874405Y-76814693D01*
X69898627Y-76762142D01*
X69909149Y-76735953D01*
X69909267Y-76735115D01*
X69889852Y-76730184D01*
X69838606Y-76726568D01*
X69766025Y-76724958D01*
X69755060Y-76724933D01*
X69600853Y-76724933D01*
X69532810Y-76862917D01*
G36*
X70172980Y-75632927D02*
G01*
X70168825Y-75637590D01*
X70152192Y-75665737D01*
X70120670Y-75724057D01*
X70077498Y-75806173D01*
X70025913Y-75905713D01*
X69969154Y-76016302D01*
X69910460Y-76131565D01*
X69853068Y-76245128D01*
X69800218Y-76350617D01*
X69755146Y-76441658D01*
X69721093Y-76511876D01*
X69701295Y-76554896D01*
X69697600Y-76565147D01*
X69717013Y-76570776D01*
X69768251Y-76574904D01*
X69840811Y-76576738D01*
X69851633Y-76576766D01*
X70005666Y-76576766D01*
X70187774Y-76209576D01*
X70283442Y-76387879D01*
X70334502Y-76484368D01*
X70395361Y-76601364D01*
X70456999Y-76721453D01*
X70493616Y-76793725D01*
X70608120Y-77021266D01*
X70756110Y-77021266D01*
X70831898Y-77018472D01*
X70884386Y-77010993D01*
X70904100Y-77000181D01*
X70904100Y-77000133D01*
X70894772Y-76977063D01*
X70868220Y-76920684D01*
X70826592Y-76835326D01*
X70772036Y-76725322D01*
X70706701Y-76595002D01*
X70632735Y-76448698D01*
X70552286Y-76290740D01*
X70551140Y-76288499D01*
X70458963Y-76108552D01*
X70383864Y-75963110D01*
X70323900Y-75848861D01*
X70277124Y-75762492D01*
X70241592Y-75700692D01*
X70215356Y-75660148D01*
X70196473Y-75637547D01*
X70182996Y-75629577D01*
X70172980Y-75632927D01*
G37*
X70172980Y-75632927D02*
X70168825Y-75637590D01*
X70152192Y-75665737D01*
X70120670Y-75724057D01*
X70077498Y-75806173D01*
X70025913Y-75905713D01*
X69969154Y-76016302D01*
X69910460Y-76131565D01*
X69853068Y-76245128D01*
X69800218Y-76350617D01*
X69755146Y-76441658D01*
X69721093Y-76511876D01*
X69701295Y-76554896D01*
X69697600Y-76565147D01*
X69717013Y-76570776D01*
X69768251Y-76574904D01*
X69840811Y-76576738D01*
X69851633Y-76576766D01*
X70005666Y-76576766D01*
X70187774Y-76209576D01*
X70283442Y-76387879D01*
X70334502Y-76484368D01*
X70395361Y-76601364D01*
X70456999Y-76721453D01*
X70493616Y-76793725D01*
X70608120Y-77021266D01*
X70756110Y-77021266D01*
X70831898Y-77018472D01*
X70884386Y-77010993D01*
X70904100Y-77000181D01*
X70904100Y-77000133D01*
X70894772Y-76977063D01*
X70868220Y-76920684D01*
X70826592Y-76835326D01*
X70772036Y-76725322D01*
X70706701Y-76595002D01*
X70632735Y-76448698D01*
X70552286Y-76290740D01*
X70551140Y-76288499D01*
X70458963Y-76108552D01*
X70383864Y-75963110D01*
X70323900Y-75848861D01*
X70277124Y-75762492D01*
X70241592Y-75700692D01*
X70215356Y-75660148D01*
X70196473Y-75637547D01*
X70182996Y-75629577D01*
X70172980Y-75632927D01*
G36*
X71536827Y-75606796D02*
G01*
X71390414Y-75609349D01*
X71279662Y-75612201D01*
X71197899Y-75616111D01*
X71138455Y-75621837D01*
X71094659Y-75630138D01*
X71059841Y-75641772D01*
X71027330Y-75657497D01*
X71010801Y-75666600D01*
X70911847Y-75744874D01*
X70839017Y-75848823D01*
X70793713Y-75969752D01*
X70777339Y-76098971D01*
X70791297Y-76227788D01*
X70836991Y-76347509D01*
X70888934Y-76421617D01*
X70948869Y-76481529D01*
X71012475Y-76524212D01*
X71088288Y-76552324D01*
X71184845Y-76568524D01*
X71310682Y-76575470D01*
X71385642Y-76576301D01*
X71644933Y-76576766D01*
X71644933Y-77021266D01*
X71898933Y-77021266D01*
X71898933Y-76280433D01*
X71547658Y-76280433D01*
X71396988Y-76279146D01*
X71282625Y-76274213D01*
X71198591Y-76264028D01*
X71138910Y-76246985D01*
X71097604Y-76221475D01*
X71068696Y-76185894D01*
X71049393Y-76146494D01*
X71034513Y-76091885D01*
X71046164Y-76044320D01*
X71054216Y-76028820D01*
X71094318Y-75976216D01*
X71151295Y-75938985D01*
X71231538Y-75915126D01*
X71341434Y-75902638D01*
X71467227Y-75899466D01*
X71702270Y-75899433D01*
X71835370Y-75749671D01*
X71968470Y-75599911D01*
X71536827Y-75606796D01*
G37*
X71536827Y-75606796D02*
X71390414Y-75609349D01*
X71279662Y-75612201D01*
X71197899Y-75616111D01*
X71138455Y-75621837D01*
X71094659Y-75630138D01*
X71059841Y-75641772D01*
X71027330Y-75657497D01*
X71010801Y-75666600D01*
X70911847Y-75744874D01*
X70839017Y-75848823D01*
X70793713Y-75969752D01*
X70777339Y-76098971D01*
X70791297Y-76227788D01*
X70836991Y-76347509D01*
X70888934Y-76421617D01*
X70948869Y-76481529D01*
X71012475Y-76524212D01*
X71088288Y-76552324D01*
X71184845Y-76568524D01*
X71310682Y-76575470D01*
X71385642Y-76576301D01*
X71644933Y-76576766D01*
X71644933Y-77021266D01*
X71898933Y-77021266D01*
X71898933Y-76280433D01*
X71547658Y-76280433D01*
X71396988Y-76279146D01*
X71282625Y-76274213D01*
X71198591Y-76264028D01*
X71138910Y-76246985D01*
X71097604Y-76221475D01*
X71068696Y-76185894D01*
X71049393Y-76146494D01*
X71034513Y-76091885D01*
X71046164Y-76044320D01*
X71054216Y-76028820D01*
X71094318Y-75976216D01*
X71151295Y-75938985D01*
X71231538Y-75915126D01*
X71341434Y-75902638D01*
X71467227Y-75899466D01*
X71702270Y-75899433D01*
X71835370Y-75749671D01*
X71968470Y-75599911D01*
X71536827Y-75606796D01*
G36*
X72893767Y-75749575D02*
G01*
X72895531Y-75831310D01*
X72902224Y-75880123D01*
X72915946Y-75905329D01*
X72930808Y-75913898D01*
X73000174Y-75953845D01*
X73035379Y-76007462D01*
X73034356Y-76066649D01*
X72995037Y-76123306D01*
X72986162Y-76130730D01*
X72955963Y-76150529D01*
X72919501Y-76163374D01*
X72867375Y-76170704D01*
X72790188Y-76173960D01*
X72699732Y-76174600D01*
X72567974Y-76177443D01*
X72469165Y-76187849D01*
X72394187Y-76208627D01*
X72333925Y-76242588D01*
X72279261Y-76292544D01*
X72264618Y-76308752D01*
X72194390Y-76419780D01*
X72161342Y-76547538D01*
X72163498Y-76661294D01*
X72198908Y-76784539D01*
X72265027Y-76887962D01*
X72355750Y-76965169D01*
X72464970Y-77009768D01*
X72502319Y-77016051D01*
X72597433Y-77026772D01*
X72597433Y-76875852D01*
X72596331Y-76797118D01*
X72591346Y-76751717D01*
X72579960Y-76730674D01*
X72559654Y-76725012D01*
X72555100Y-76724933D01*
X72509022Y-76710567D01*
X72470433Y-76682600D01*
X72438721Y-76636521D01*
X72428100Y-76597933D01*
X72442466Y-76551854D01*
X72470433Y-76513266D01*
X72495129Y-76493720D01*
X72528217Y-76481214D01*
X72578898Y-76474239D01*
X72656376Y-76471290D01*
X72729725Y-76470815D01*
X72831953Y-76468448D01*
X72927874Y-76462190D01*
X73003396Y-76453138D01*
X73031350Y-76447307D01*
X73130218Y-76399326D01*
X73214184Y-76318778D01*
X73275128Y-76214882D01*
X73297175Y-76145569D01*
X73309645Y-76007834D01*
X73286010Y-75881563D01*
X73229748Y-75772470D01*
X73144336Y-75686268D01*
X73033251Y-75628672D01*
X72973142Y-75613104D01*
X72893767Y-75598389D01*
X72893767Y-75749575D01*
G37*
X72893767Y-75749575D02*
X72895531Y-75831310D01*
X72902224Y-75880123D01*
X72915946Y-75905329D01*
X72930808Y-75913898D01*
X73000174Y-75953845D01*
X73035379Y-76007462D01*
X73034356Y-76066649D01*
X72995037Y-76123306D01*
X72986162Y-76130730D01*
X72955963Y-76150529D01*
X72919501Y-76163374D01*
X72867375Y-76170704D01*
X72790188Y-76173960D01*
X72699732Y-76174600D01*
X72567974Y-76177443D01*
X72469165Y-76187849D01*
X72394187Y-76208627D01*
X72333925Y-76242588D01*
X72279261Y-76292544D01*
X72264618Y-76308752D01*
X72194390Y-76419780D01*
X72161342Y-76547538D01*
X72163498Y-76661294D01*
X72198908Y-76784539D01*
X72265027Y-76887962D01*
X72355750Y-76965169D01*
X72464970Y-77009768D01*
X72502319Y-77016051D01*
X72597433Y-77026772D01*
X72597433Y-76875852D01*
X72596331Y-76797118D01*
X72591346Y-76751717D01*
X72579960Y-76730674D01*
X72559654Y-76725012D01*
X72555100Y-76724933D01*
X72509022Y-76710567D01*
X72470433Y-76682600D01*
X72438721Y-76636521D01*
X72428100Y-76597933D01*
X72442466Y-76551854D01*
X72470433Y-76513266D01*
X72495129Y-76493720D01*
X72528217Y-76481214D01*
X72578898Y-76474239D01*
X72656376Y-76471290D01*
X72729725Y-76470815D01*
X72831953Y-76468448D01*
X72927874Y-76462190D01*
X73003396Y-76453138D01*
X73031350Y-76447307D01*
X73130218Y-76399326D01*
X73214184Y-76318778D01*
X73275128Y-76214882D01*
X73297175Y-76145569D01*
X73309645Y-76007834D01*
X73286010Y-75881563D01*
X73229748Y-75772470D01*
X73144336Y-75686268D01*
X73033251Y-75628672D01*
X72973142Y-75613104D01*
X72893767Y-75598389D01*
X72893767Y-75749575D01*
G36*
X73633639Y-75707672D02*
G01*
X73528767Y-75822828D01*
X73528767Y-76801537D01*
X73633639Y-76916693D01*
X73738512Y-77031850D01*
X73738512Y-75592517D01*
X73633639Y-75707672D01*
G37*
X73633639Y-75707672D02*
X73528767Y-75822828D01*
X73528767Y-76801537D01*
X73633639Y-76916693D01*
X73738512Y-77031850D01*
X73738512Y-75592517D01*
X73633639Y-75707672D01*
%TD*%
D11*
%TO.C,REF\u002A\u002A*%
X87630000Y-86360000D03*
%TD*%
%TO.C,REF\u002A\u002A*%
X87630000Y-100584000D03*
%TD*%
%TO.C,REF\u002A\u002A*%
X77571600Y-110642400D03*
%TD*%
%TO.C,REF\u002A\u002A*%
X63347600Y-110642400D03*
%TD*%
%TO.C,REF\u002A\u002A*%
X53289200Y-100584000D03*
%TD*%
%TO.C,REF\u002A\u002A*%
X53289200Y-86360000D03*
%TD*%
%TO.C,REF\u002A\u002A*%
X63347600Y-76301600D03*
%TD*%
%TO.C,REF\u002A\u002A*%
X77571600Y-76301600D03*
%TD*%
M02*
