%TF.GenerationSoftware,KiCad,Pcbnew,(5.1.6)-1*%
%TF.CreationDate,2025-07-06T20:52:53+05:30*%
%TF.ProjectId,Project_OAK_BOT_STRAP_V0,50726f6a-6563-4745-9f4f-414b5f424f54,A*%
%TF.SameCoordinates,Original*%
%TF.FileFunction,Profile,NP*%
%FSLAX46Y46*%
G04 Gerber Fmt 4.6, Leading zero omitted, Abs format (unit mm)*
G04 Created by KiCad (PCBNEW (5.1.6)-1) date 2025-07-06 20:52:53*
%MOMM*%
%LPD*%
G01*
G04 APERTURE LIST*
%TA.AperFunction,Profile*%
%ADD10C,0.100000*%
%TD*%
G04 APERTURE END LIST*
D10*
X70459601Y-112409600D02*
X80492600Y-112409600D01*
X60426601Y-112409600D02*
X70459601Y-112409600D01*
X60426683Y-113909599D02*
X60426601Y-112409600D01*
X59226710Y-113909599D02*
X60426683Y-113909599D01*
X80492600Y-112409600D02*
X80492600Y-113909599D01*
X64397601Y-110657000D02*
G75*
G03*
X64397601Y-110657000I-1050000J0D01*
G01*
X78621600Y-76316200D02*
G75*
G03*
X78621600Y-76316200I-1050000J0D01*
G01*
X64397601Y-76316200D02*
G75*
G03*
X64397601Y-76316200I-1050000J0D01*
G01*
X59226601Y-73063600D02*
X59226601Y-72063600D01*
X49197500Y-95558508D02*
X49250500Y-96593208D01*
X49535400Y-99690308D02*
X49672299Y-100719308D01*
X49529099Y-87284108D02*
X49414199Y-88315108D01*
X60426601Y-70563600D02*
X56667121Y-70563600D01*
X49665100Y-86255108D02*
X49529099Y-87284108D01*
X49419499Y-98659408D02*
X49535400Y-99690308D01*
X49164399Y-92451708D02*
X49154500Y-93487408D01*
X59226710Y-114909599D02*
X59226710Y-113909599D01*
X60426738Y-114909599D02*
X59226710Y-114909599D01*
X60426820Y-116409599D02*
X60426738Y-114909599D01*
X49861000Y-85163808D02*
X49822000Y-85228208D01*
X56668006Y-116409599D02*
X60426820Y-116409599D01*
X49822000Y-85228208D02*
X49665100Y-86255108D01*
X49165499Y-94523107D02*
X49197500Y-95558508D01*
X49247300Y-90381508D02*
X49195399Y-91416308D01*
X49414199Y-88315108D02*
X49320300Y-89347708D01*
X60426601Y-72063600D02*
X60426601Y-70563600D01*
X49855600Y-101796708D02*
X56668006Y-116409599D01*
X49324499Y-97627008D02*
X49419499Y-98659408D01*
X49672299Y-100719308D02*
X49830200Y-101745907D01*
X49250500Y-96593208D02*
X49324499Y-97627008D01*
X49154500Y-93487408D02*
X49165499Y-94523107D01*
X49830200Y-101745907D02*
X49855600Y-101796708D01*
X49195399Y-91416308D02*
X49164399Y-92451708D01*
X56667121Y-70563600D02*
X49861000Y-85163808D01*
X49320300Y-89347708D02*
X49247300Y-90381508D01*
X59226601Y-72063600D02*
X60426601Y-72063600D01*
X60426601Y-73063600D02*
X59226601Y-73063600D01*
X60426601Y-74563600D02*
X60426601Y-73063600D01*
X70459601Y-74563600D02*
X60426601Y-74563600D01*
X80492600Y-74563600D02*
X70459601Y-74563600D01*
X80492600Y-73063600D02*
X80492600Y-74563600D01*
X81692600Y-73063600D02*
X80492600Y-73063600D01*
X81692600Y-72063600D02*
X81692600Y-73063600D01*
X80492600Y-72063600D02*
X81692600Y-72063600D01*
X84254461Y-70563600D02*
X80492600Y-70563600D01*
X91076261Y-85193108D02*
X84254461Y-70563600D01*
X91088060Y-85224308D02*
X91076261Y-85193108D01*
X91090061Y-85228208D02*
X91088060Y-85224308D01*
X91247960Y-86254908D02*
X91090061Y-85228208D01*
X91500661Y-88314708D02*
X91384761Y-87283808D01*
X91722160Y-91415608D02*
X91669361Y-90380908D01*
X91068791Y-101798608D02*
X91095960Y-101745808D01*
X88680000Y-100598600D02*
G75*
G03*
X88680000Y-100598600I-1050000J0D01*
G01*
X80492600Y-113909599D02*
X81692600Y-113909599D01*
X91764760Y-93486708D02*
X91753960Y-92451009D01*
X88680000Y-86374600D02*
G75*
G03*
X88680000Y-86374600I-1050000J0D01*
G01*
X84959600Y-93486600D02*
G75*
G03*
X84959600Y-93486600I-14499999J0D01*
G01*
X81692600Y-113909599D02*
X81692600Y-114909600D01*
X91066791Y-101800608D02*
X91068791Y-101798608D01*
X91252960Y-100719008D02*
X91389061Y-99689908D01*
X91723460Y-95557807D02*
X91754661Y-94522408D01*
X91598161Y-97626408D02*
X91671361Y-96592608D01*
X91671361Y-96592608D02*
X91723460Y-95557807D01*
X81692600Y-114909600D02*
X80492600Y-114909600D01*
X91389061Y-99689908D02*
X91504060Y-98659008D01*
X78621600Y-110657000D02*
G75*
G03*
X78621600Y-110657000I-1050000J0D01*
G01*
X91095960Y-101745808D02*
X91252960Y-100719008D01*
X84254211Y-116409600D02*
X91066791Y-101800608D01*
X80492600Y-116409600D02*
X84254211Y-116409600D01*
X54339201Y-86374600D02*
G75*
G03*
X54339201Y-86374600I-1050000J0D01*
G01*
X91595460Y-89347209D02*
X91500661Y-88314708D01*
X91504060Y-98659008D02*
X91598161Y-97626408D01*
X80492600Y-70563600D02*
X80492600Y-72063600D01*
X54339201Y-100598600D02*
G75*
G03*
X54339201Y-100598600I-1050000J0D01*
G01*
X91754661Y-94522408D02*
X91764760Y-93486708D01*
X91384761Y-87283808D02*
X91247960Y-86254908D01*
X91669361Y-90380908D02*
X91595460Y-89347209D01*
X91753960Y-92451009D02*
X91722160Y-91415608D01*
X80492600Y-114909600D02*
X80492600Y-116409600D01*
M02*
