%TF.GenerationSoftware,KiCad,Pcbnew,(5.1.6)-1*%
%TF.CreationDate,2024-07-23T23:35:14+05:30*%
%TF.ProjectId,Project_OAK_MAIN_BRD_V0.1,50726f6a-6563-4745-9f4f-414b5f4d4149,A*%
%TF.SameCoordinates,Original*%
%TF.FileFunction,Copper,L6,Bot*%
%TF.FilePolarity,Positive*%
%FSLAX46Y46*%
G04 Gerber Fmt 4.6, Leading zero omitted, Abs format (unit mm)*
G04 Created by KiCad (PCBNEW (5.1.6)-1) date 2024-07-23 23:35:14*
%MOMM*%
%LPD*%
G01*
G04 APERTURE LIST*
%TA.AperFunction,SMDPad,CuDef*%
%ADD10R,0.800000X0.900000*%
%TD*%
%TA.AperFunction,SMDPad,CuDef*%
%ADD11C,1.000000*%
%TD*%
%TA.AperFunction,SMDPad,CuDef*%
%ADD12R,2.600000X5.560000*%
%TD*%
%TA.AperFunction,SMDPad,CuDef*%
%ADD13R,7.800000X5.960000*%
%TD*%
%TA.AperFunction,ViaPad*%
%ADD14C,0.500000*%
%TD*%
%TA.AperFunction,ViaPad*%
%ADD15C,0.600000*%
%TD*%
%TA.AperFunction,ViaPad*%
%ADD16C,0.450000*%
%TD*%
%TA.AperFunction,Conductor*%
%ADD17C,0.200000*%
%TD*%
%TA.AperFunction,Conductor*%
%ADD18C,0.156000*%
%TD*%
%TA.AperFunction,Conductor*%
%ADD19C,0.254000*%
%TD*%
G04 APERTURE END LIST*
D10*
%TO.P,Q1,3*%
%TO.N,Net-(D1-Pad2)*%
X70459600Y-81772000D03*
%TO.P,Q1,2*%
%TO.N,Net-(Q1-Pad2)*%
X71409600Y-79772000D03*
%TO.P,Q1,1*%
%TO.N,Net-(Q1-Pad1)*%
X69509600Y-79772000D03*
%TD*%
D11*
%TO.P,TP10,1*%
%TO.N,/DBG_TX*%
X65786000Y-82296000D03*
%TD*%
%TO.P,TP9,1*%
%TO.N,/DBG_RX*%
X63119000Y-83820000D03*
%TD*%
%TO.P,TP11,1*%
%TO.N,/RTC_CLKO*%
X78016100Y-83883500D03*
%TD*%
%TO.P,TP8,1*%
%TO.N,/RTC_CLKO_EN*%
X75031600Y-82232500D03*
%TD*%
D12*
%TO.P,BT1,S1+*%
%TO.N,+3V0*%
X58554600Y-93472000D03*
%TO.P,BT1,S2+*%
X82364600Y-93472000D03*
D13*
%TO.P,BT1,-*%
%TO.N,GND*%
X70459600Y-93472000D03*
%TD*%
%TO.P,C4,1*%
%TO.N,+3V0*%
%TA.AperFunction,SMDPad,CuDef*%
G36*
G01*
X81414400Y-87802500D02*
X81414400Y-87457500D01*
G75*
G02*
X81561900Y-87310000I147500J0D01*
G01*
X81856900Y-87310000D01*
G75*
G02*
X82004400Y-87457500I0J-147500D01*
G01*
X82004400Y-87802500D01*
G75*
G02*
X81856900Y-87950000I-147500J0D01*
G01*
X81561900Y-87950000D01*
G75*
G02*
X81414400Y-87802500I0J147500D01*
G01*
G37*
%TD.AperFunction*%
%TO.P,C4,2*%
%TO.N,GND*%
%TA.AperFunction,SMDPad,CuDef*%
G36*
G01*
X82384400Y-87802500D02*
X82384400Y-87457500D01*
G75*
G02*
X82531900Y-87310000I147500J0D01*
G01*
X82826900Y-87310000D01*
G75*
G02*
X82974400Y-87457500I0J-147500D01*
G01*
X82974400Y-87802500D01*
G75*
G02*
X82826900Y-87950000I-147500J0D01*
G01*
X82531900Y-87950000D01*
G75*
G02*
X82384400Y-87802500I0J147500D01*
G01*
G37*
%TD.AperFunction*%
%TD*%
%TO.P,R1,2*%
%TO.N,+3V0*%
%TA.AperFunction,SMDPad,CuDef*%
G36*
G01*
X59016400Y-87802500D02*
X59016400Y-87457500D01*
G75*
G02*
X59163900Y-87310000I147500J0D01*
G01*
X59458900Y-87310000D01*
G75*
G02*
X59606400Y-87457500I0J-147500D01*
G01*
X59606400Y-87802500D01*
G75*
G02*
X59458900Y-87950000I-147500J0D01*
G01*
X59163900Y-87950000D01*
G75*
G02*
X59016400Y-87802500I0J147500D01*
G01*
G37*
%TD.AperFunction*%
%TO.P,R1,1*%
%TO.N,/EXT_3V3_IN*%
%TA.AperFunction,SMDPad,CuDef*%
G36*
G01*
X58046400Y-87802500D02*
X58046400Y-87457500D01*
G75*
G02*
X58193900Y-87310000I147500J0D01*
G01*
X58488900Y-87310000D01*
G75*
G02*
X58636400Y-87457500I0J-147500D01*
G01*
X58636400Y-87802500D01*
G75*
G02*
X58488900Y-87950000I-147500J0D01*
G01*
X58193900Y-87950000D01*
G75*
G02*
X58046400Y-87802500I0J147500D01*
G01*
G37*
%TD.AperFunction*%
%TD*%
%TO.P,R5,1*%
%TO.N,Net-(Q1-Pad1)*%
%TA.AperFunction,SMDPad,CuDef*%
G36*
G01*
X67899500Y-79585600D02*
X68244500Y-79585600D01*
G75*
G02*
X68392000Y-79733100I0J-147500D01*
G01*
X68392000Y-80028100D01*
G75*
G02*
X68244500Y-80175600I-147500J0D01*
G01*
X67899500Y-80175600D01*
G75*
G02*
X67752000Y-80028100I0J147500D01*
G01*
X67752000Y-79733100D01*
G75*
G02*
X67899500Y-79585600I147500J0D01*
G01*
G37*
%TD.AperFunction*%
%TO.P,R5,2*%
%TO.N,+3V0*%
%TA.AperFunction,SMDPad,CuDef*%
G36*
G01*
X67899500Y-80555600D02*
X68244500Y-80555600D01*
G75*
G02*
X68392000Y-80703100I0J-147500D01*
G01*
X68392000Y-80998100D01*
G75*
G02*
X68244500Y-81145600I-147500J0D01*
G01*
X67899500Y-81145600D01*
G75*
G02*
X67752000Y-80998100I0J147500D01*
G01*
X67752000Y-80703100D01*
G75*
G02*
X67899500Y-80555600I147500J0D01*
G01*
G37*
%TD.AperFunction*%
%TD*%
%TO.P,R6,2*%
%TO.N,/+3V0_MON_LED*%
%TA.AperFunction,SMDPad,CuDef*%
G36*
G01*
X73045100Y-79972400D02*
X72700100Y-79972400D01*
G75*
G02*
X72552600Y-79824900I0J147500D01*
G01*
X72552600Y-79529900D01*
G75*
G02*
X72700100Y-79382400I147500J0D01*
G01*
X73045100Y-79382400D01*
G75*
G02*
X73192600Y-79529900I0J-147500D01*
G01*
X73192600Y-79824900D01*
G75*
G02*
X73045100Y-79972400I-147500J0D01*
G01*
G37*
%TD.AperFunction*%
%TO.P,R6,1*%
%TO.N,Net-(Q1-Pad2)*%
%TA.AperFunction,SMDPad,CuDef*%
G36*
G01*
X73045100Y-80942400D02*
X72700100Y-80942400D01*
G75*
G02*
X72552600Y-80794900I0J147500D01*
G01*
X72552600Y-80499900D01*
G75*
G02*
X72700100Y-80352400I147500J0D01*
G01*
X73045100Y-80352400D01*
G75*
G02*
X73192600Y-80499900I0J-147500D01*
G01*
X73192600Y-80794900D01*
G75*
G02*
X73045100Y-80942400I-147500J0D01*
G01*
G37*
%TD.AperFunction*%
%TD*%
D11*
%TO.P,TP1,1*%
%TO.N,/EXT_3V3_IN*%
X72999600Y-105968800D03*
%TD*%
%TO.P,TP3,1*%
%TO.N,/ICSP_MOSI*%
X70459600Y-105968800D03*
%TD*%
%TO.P,TP4,1*%
%TO.N,/ICSP_MISO*%
X72999600Y-103428800D03*
%TD*%
%TO.P,TP5,1*%
%TO.N,/ICSP_SCK*%
X70459600Y-103428800D03*
%TD*%
%TO.P,TP12,1*%
%TO.N,/MCU_RSTn*%
X67919600Y-103428800D03*
%TD*%
%TO.P,TP13,1*%
%TO.N,GND*%
X67919600Y-105968800D03*
%TD*%
D14*
%TO.N,+3V0*%
X62738000Y-89357200D03*
D15*
X56680100Y-91313000D03*
X56680100Y-92313000D03*
X56680100Y-94678500D03*
X56680100Y-95678500D03*
X84239100Y-91186000D03*
X84239100Y-94551500D03*
X68981228Y-80817628D03*
X80035400Y-97307400D03*
X84331032Y-95551500D03*
X84259800Y-92186000D03*
X68877839Y-85360385D03*
X78206600Y-98145600D03*
X63855600Y-99745800D03*
X72339200Y-101650800D03*
X77960698Y-89623779D03*
D14*
X72339200Y-97409000D03*
D15*
X70421500Y-88519000D03*
D14*
X62293500Y-89852500D03*
X64722427Y-95618276D03*
X84074000Y-108140500D03*
X86360000Y-83820000D03*
X88011000Y-95948544D03*
X81801732Y-89743051D03*
%TO.N,GND*%
X81356200Y-97282000D03*
X80721200Y-96977200D03*
D15*
X68600506Y-98425000D03*
D14*
X74828400Y-92456000D03*
X75828400Y-92456000D03*
X76860400Y-92456000D03*
X74803000Y-93481400D03*
X75844400Y-93497400D03*
X76885800Y-93497400D03*
X74803000Y-94538800D03*
X75844400Y-94538800D03*
X76809600Y-94564200D03*
X80746600Y-97612200D03*
D15*
X66928999Y-100584000D03*
X64846200Y-86563200D03*
X69062600Y-84556600D03*
X71863679Y-102294150D03*
D14*
X67818000Y-82296000D03*
X71882000Y-84391500D03*
X67818000Y-83375500D03*
X77787500Y-82867500D03*
X68834000Y-106934000D03*
X62357000Y-103251000D03*
X65151000Y-105219500D03*
X57150000Y-98552000D03*
X64770000Y-99695000D03*
X67564000Y-102171500D03*
D15*
X76413628Y-100739082D03*
D14*
X80518000Y-87452200D03*
X76860400Y-86334600D03*
X60731400Y-88112600D03*
X68605400Y-91084400D03*
X70154800Y-91053610D03*
D15*
X75922568Y-86239510D03*
X64960499Y-96393001D03*
D14*
X62377010Y-93022005D03*
D15*
X62801500Y-91122500D03*
D14*
X61633100Y-97028000D03*
X70866004Y-91062510D03*
D15*
X84592920Y-87343945D03*
X88074495Y-89915995D03*
X86741000Y-102552500D03*
D14*
X81229200Y-89306398D03*
D15*
X83820000Y-78181200D03*
D14*
%TO.N,/LGT_ON_BTN*%
X73830983Y-88470436D03*
X88011000Y-92964000D03*
%TO.N,/UP_BTN*%
X72269736Y-88378136D03*
X84963000Y-81026000D03*
%TO.N,/MCU_RSTn*%
X68249800Y-99822000D03*
X79237087Y-89833582D03*
X75741805Y-90062612D03*
D15*
%TO.N,/C1_T*%
X74142612Y-102362000D03*
X78270100Y-99568000D03*
X78689200Y-87096600D03*
%TO.N,/C3_T*%
X75049317Y-80283208D03*
X72755983Y-84338387D03*
D14*
%TO.N,Net-(D1-Pad2)*%
X71814590Y-81626810D03*
X69045715Y-88221251D03*
D15*
%TO.N,/R1*%
X66340291Y-105540510D03*
X77138574Y-85018536D03*
X71551800Y-106235492D03*
X74777600Y-81076800D03*
X69062600Y-82899478D03*
%TO.N,/C6_T*%
X55880000Y-90297006D03*
X64820800Y-100457000D03*
%TO.N,/R2*%
X63398400Y-104038400D03*
X74714088Y-105635490D03*
X76047600Y-81851500D03*
%TO.N,/R3*%
X64490600Y-83185000D03*
X80429100Y-86487000D03*
X60236100Y-97258722D03*
X76007558Y-104979691D03*
X60628084Y-102073124D03*
%TO.N,/R4*%
X59983844Y-100455278D03*
X80783677Y-88255833D03*
X78508306Y-102644510D03*
X60938109Y-86373277D03*
D14*
X79547410Y-93035140D03*
D15*
%TO.N,/R5*%
X63930084Y-101661397D03*
X66865500Y-102806500D03*
X58902600Y-98552002D03*
X59236079Y-86000983D03*
X80619600Y-100380800D03*
X80213202Y-98374200D03*
X82182486Y-89077990D03*
%TO.N,/R6*%
X68935600Y-104330500D03*
X57819990Y-89217500D03*
X76085203Y-102811243D03*
D14*
%TO.N,Net-(Q5-Pad2)*%
X76403200Y-87020400D03*
X73342508Y-86550500D03*
%TO.N,Net-(Q6-Pad2)*%
X68389208Y-88572672D03*
X65605343Y-88125576D03*
D15*
%TO.N,/EXT_3V3_IN*%
X57315100Y-87630000D03*
X72491600Y-107822996D03*
D16*
%TO.N,/+3V0_MON_LED*%
X72318360Y-87057797D03*
D14*
%TO.N,/DBG_RX*%
X60845755Y-89890600D03*
D15*
%TO.N,/R2_R*%
X72361227Y-82292003D03*
X75554607Y-89074628D03*
X60059662Y-89694108D03*
%TO.N,/R3_R*%
X63601600Y-84759800D03*
X74980995Y-88516965D03*
X59528010Y-96837050D03*
D14*
%TO.N,/DBG_TX*%
X62088121Y-86588600D03*
%TO.N,/RTC_SCL*%
X69056532Y-87496935D03*
X76377800Y-89738200D03*
%TO.N,/RTC_SDA*%
X68478400Y-87045800D03*
X77078023Y-89754833D03*
%TO.N,/C6*%
X62637727Y-97506445D03*
X79200415Y-90616974D03*
%TO.N,/+3V0_VOL_MON*%
X70459584Y-98425008D03*
X79155190Y-94255975D03*
%TO.N,/C5*%
X67721790Y-100999190D03*
X78663800Y-91137984D03*
%TO.N,/C4*%
X77000084Y-100271549D03*
X79341531Y-91313191D03*
%TO.N,/C3*%
X77393800Y-87045800D03*
X79248191Y-97079978D03*
%TO.N,/C2*%
X63548400Y-87322800D03*
X76881554Y-97585739D03*
%TO.N,/C1*%
X76123800Y-97536000D03*
D16*
X71640611Y-87147491D03*
D15*
%TO.N,/R4_R*%
X75405073Y-98061871D03*
X76974933Y-102166636D03*
%TO.N,/R5_R*%
X75377283Y-97045856D03*
X61214554Y-100837445D03*
D14*
%TO.N,/ICSP_MOSI*%
X79136750Y-96388894D03*
%TO.N,/ICSP_MISO*%
X78453052Y-96209810D03*
%TO.N,/ICSP_SCK*%
X78948264Y-95701810D03*
%TO.N,/DWN_BTN*%
X72923400Y-96951800D03*
X85356186Y-105422186D03*
%TO.N,/RTC_INTO*%
X65468500Y-91186000D03*
X73047808Y-88444412D03*
%TO.N,/RTC_CLKO*%
X65474000Y-93922000D03*
%TO.N,/RTC_CLKO_EN*%
X62299002Y-93922000D03*
%TD*%
D17*
%TO.N,+3V0*%
X82588100Y-93248500D02*
X82364600Y-93472000D01*
X68948256Y-80850600D02*
X68981228Y-80817628D01*
X68072000Y-80850600D02*
X68948256Y-80850600D01*
X84576400Y-91869400D02*
X84259800Y-92186000D01*
%TO.N,GND*%
X84306865Y-87630000D02*
X84592920Y-87343945D01*
X82679400Y-87630000D02*
X84306865Y-87630000D01*
D18*
%TO.N,/MCU_RSTn*%
X68249800Y-102489000D02*
X68249800Y-99822000D01*
X67919600Y-103428800D02*
X67919600Y-102819200D01*
X67919600Y-102819200D02*
X68249800Y-102489000D01*
X76046190Y-90366997D02*
X75741805Y-90062612D01*
X78631918Y-89833582D02*
X78098503Y-90366997D01*
X78098503Y-90366997D02*
X76046190Y-90366997D01*
X79237087Y-89833582D02*
X78631918Y-89833582D01*
D17*
%TO.N,/C1_T*%
X78369999Y-99468101D02*
X78369999Y-99419881D01*
X75687466Y-102362000D02*
X74142612Y-102362000D01*
X78270100Y-99779366D02*
X75687466Y-102362000D01*
X78270100Y-99568000D02*
X78270100Y-99779366D01*
%TO.N,/C3_T*%
X74529792Y-80283208D02*
X73055982Y-81757018D01*
X73055982Y-81757018D02*
X73055982Y-84038388D01*
X73055982Y-84038388D02*
X72755983Y-84338387D01*
X75049317Y-80283208D02*
X74529792Y-80283208D01*
D18*
%TO.N,Net-(D1-Pad2)*%
X70604790Y-81626810D02*
X71814590Y-81626810D01*
X70459600Y-81772000D02*
X70604790Y-81626810D01*
D17*
%TO.N,/C6_T*%
X61093745Y-97945501D02*
X63605244Y-100457000D01*
X55880000Y-97345500D02*
X56480001Y-97945501D01*
X55880000Y-90297006D02*
X55880000Y-97345500D01*
X56480001Y-97945501D02*
X61093745Y-97945501D01*
X63605244Y-100457000D02*
X64820800Y-100457000D01*
%TO.N,/R4*%
X80340200Y-88699310D02*
X80340200Y-92242350D01*
X80340200Y-92242350D02*
X79547410Y-93035140D01*
X80783677Y-88255833D02*
X80340200Y-88699310D01*
%TO.N,/R5*%
X58902600Y-98552002D02*
X60801252Y-98552002D01*
X63910647Y-101661397D02*
X63930084Y-101661397D01*
X60801252Y-98552002D02*
X63910647Y-101661397D01*
X80619600Y-100380800D02*
X80213202Y-99974402D01*
X80213202Y-99974402D02*
X80213202Y-98374200D01*
%TO.N,/R6*%
X55943500Y-89217500D02*
X57819990Y-89217500D01*
X65619902Y-104330500D02*
X60476402Y-99187000D01*
X60476402Y-99187000D02*
X56705500Y-99187000D01*
X55118000Y-90043000D02*
X55943500Y-89217500D01*
X56705500Y-99187000D02*
X55118000Y-97599500D01*
X68935600Y-104330500D02*
X65619902Y-104330500D01*
X55118000Y-97599500D02*
X55118000Y-90043000D01*
X68935600Y-104330500D02*
X74565946Y-104330500D01*
X74565946Y-104330500D02*
X76085203Y-102811243D01*
D18*
%TO.N,Net-(Q1-Pad2)*%
X71504200Y-79677400D02*
X71409600Y-79772000D01*
X72303500Y-80647400D02*
X71412100Y-79756000D01*
X72872600Y-80647400D02*
X72303500Y-80647400D01*
%TO.N,Net-(Q1-Pad1)*%
X68074400Y-79883000D02*
X68072000Y-79880600D01*
X69509600Y-79772000D02*
X69398600Y-79883000D01*
X69398600Y-79883000D02*
X68074400Y-79883000D01*
%TO.N,Net-(Q5-Pad2)*%
X73812408Y-87020400D02*
X73342508Y-86550500D01*
X76403200Y-87020400D02*
X73812408Y-87020400D01*
%TO.N,Net-(Q6-Pad2)*%
X68389208Y-88572672D02*
X67942112Y-88125576D01*
X67942112Y-88125576D02*
X65605343Y-88125576D01*
D17*
%TO.N,/EXT_3V3_IN*%
X57315100Y-87630000D02*
X58341400Y-87630000D01*
X72999600Y-105968800D02*
X72999600Y-107314996D01*
X72999600Y-107314996D02*
X72491600Y-107822996D01*
D18*
%TO.N,/+3V0_MON_LED*%
X72318360Y-86803589D02*
X72318360Y-87057797D01*
X76121400Y-79677400D02*
X78930500Y-82486500D01*
X72872600Y-79677400D02*
X76121400Y-79677400D01*
X78930500Y-82486500D02*
X78930500Y-84582000D01*
X77851000Y-85661500D02*
X73460449Y-85661500D01*
X73460449Y-85661500D02*
X72318360Y-86803589D01*
X78930500Y-84582000D02*
X77851000Y-85661500D01*
%TO.N,/DBG_RX*%
X60845755Y-89242845D02*
X60845755Y-89890600D01*
X62619001Y-87469599D02*
X60845755Y-89242845D01*
X62619001Y-84319999D02*
X62619001Y-87469599D01*
X63119000Y-83820000D02*
X62619001Y-84319999D01*
D17*
%TO.N,/R2_R*%
X72364600Y-82288630D02*
X72361227Y-82292003D01*
X72364600Y-81381600D02*
X72364600Y-82288630D01*
X69113400Y-81534000D02*
X69765002Y-80882398D01*
X71865398Y-80882398D02*
X72364600Y-81381600D01*
X63627000Y-81216500D02*
X66395600Y-81216500D01*
X60059662Y-89694108D02*
X60059662Y-84783838D01*
X66395600Y-81216500D02*
X66713100Y-81534000D01*
X69765002Y-80882398D02*
X71865398Y-80882398D01*
X60059662Y-84783838D02*
X63627000Y-81216500D01*
X66713100Y-81534000D02*
X69113400Y-81534000D01*
%TO.N,/R3_R*%
X64135000Y-85293200D02*
X63601600Y-84759800D01*
X61531500Y-91440000D02*
X64135000Y-88836500D01*
X61531500Y-94159004D02*
X61531500Y-91440000D01*
X62241496Y-94869000D02*
X61531500Y-94159004D01*
X73835960Y-89662000D02*
X66611500Y-89662000D01*
X66040000Y-94234000D02*
X65405000Y-94869000D01*
X64135000Y-88836500D02*
X64135000Y-85293200D01*
X74980995Y-88516965D02*
X73835960Y-89662000D01*
X66611500Y-89662000D02*
X66040000Y-90233500D01*
X65405000Y-94869000D02*
X62241496Y-94869000D01*
X66040000Y-90233500D02*
X66040000Y-94234000D01*
D18*
%TO.N,/DBG_TX*%
X62088121Y-83453879D02*
X62088121Y-86588600D01*
X65786000Y-82296000D02*
X63246000Y-82296000D01*
X63246000Y-82296000D02*
X62088121Y-83453879D01*
%TO.N,/+3V0_VOL_MON*%
X76200000Y-96393000D02*
X78337025Y-94255975D01*
X73151992Y-98425008D02*
X75184000Y-96393000D01*
X78337025Y-94255975D02*
X79155190Y-94255975D01*
X70459584Y-98425008D02*
X73151992Y-98425008D01*
X75184000Y-96393000D02*
X76200000Y-96393000D01*
%TO.N,/C2*%
X76631555Y-97835738D02*
X76881554Y-97585739D01*
X75229493Y-99237800D02*
X76631555Y-97835738D01*
X65138300Y-99237800D02*
X75229493Y-99237800D01*
X61404500Y-89466700D02*
X61404500Y-90297000D01*
X63548400Y-87322800D02*
X61404500Y-89466700D01*
X61016189Y-90685311D02*
X61016189Y-95115689D01*
X61404500Y-90297000D02*
X61016189Y-90685311D01*
X61016189Y-95115689D02*
X65138300Y-99237800D01*
%TO.N,/C1*%
X76123800Y-97536000D02*
X76123800Y-97129600D01*
X79869532Y-91566632D02*
X79869532Y-88759532D01*
X79019400Y-93294200D02*
X79019400Y-92416764D01*
X72169989Y-87676869D02*
X71640611Y-87147491D01*
X79756000Y-94030800D02*
X79019400Y-93294200D01*
X79248000Y-95173800D02*
X79756000Y-94665800D01*
X79019400Y-92416764D02*
X79869532Y-91566632D01*
X79756000Y-94665800D02*
X79756000Y-94030800D01*
X79869532Y-88759532D02*
X78786869Y-87676869D01*
X78079600Y-95173800D02*
X79248000Y-95173800D01*
X78786869Y-87676869D02*
X72169989Y-87676869D01*
X76123800Y-97129600D02*
X78079600Y-95173800D01*
%TO.N,/ICSP_MOSI*%
X79311500Y-97891583D02*
X78719997Y-97300080D01*
X70459600Y-105371900D02*
X71081900Y-104749600D01*
X70459600Y-105968800D02*
X70459600Y-105371900D01*
X71081900Y-104749600D02*
X75209400Y-104749600D01*
X78719997Y-96805647D02*
X79136750Y-96388894D01*
X78719997Y-97300080D02*
X78719997Y-96805647D01*
X75209400Y-104749600D02*
X79311500Y-100647500D01*
X79311500Y-100647500D02*
X79311500Y-97891583D01*
%TO.N,/ICSP_MISO*%
X78203053Y-96459809D02*
X78203053Y-97286611D01*
X78803500Y-97887058D02*
X78803500Y-98488500D01*
X77216000Y-98869500D02*
X75882500Y-100203000D01*
X78203053Y-97286611D02*
X78803500Y-97887058D01*
X75882500Y-100203000D02*
X74803000Y-100203000D01*
X74803000Y-100203000D02*
X74549000Y-100457000D01*
X74549000Y-100457000D02*
X74549000Y-101536500D01*
X74358500Y-101727000D02*
X74104500Y-101727000D01*
X71437500Y-100330000D02*
X71247000Y-100520500D01*
X73914000Y-101536500D02*
X73914000Y-100520500D01*
X71247000Y-100838000D02*
X71437500Y-101028500D01*
X71437500Y-101028500D02*
X72834500Y-101028500D01*
X72834500Y-101028500D02*
X72999600Y-101193600D01*
X73914000Y-100520500D02*
X73723500Y-100330000D01*
X72999600Y-101193600D02*
X72999600Y-103428800D01*
X71247000Y-100520500D02*
X71247000Y-100838000D01*
X74104500Y-101727000D02*
X73914000Y-101536500D01*
X73723500Y-100330000D02*
X71437500Y-100330000D01*
X74549000Y-101536500D02*
X74358500Y-101727000D01*
X78803500Y-98488500D02*
X78422500Y-98869500D01*
X78422500Y-98869500D02*
X77216000Y-98869500D01*
X78453052Y-96209810D02*
X78203053Y-96459809D01*
%TO.N,/ICSP_SCK*%
X78948264Y-95701810D02*
X78928254Y-95681800D01*
X70358000Y-100838000D02*
X70459600Y-100939600D01*
X78928254Y-95681800D02*
X78209987Y-95681800D01*
X69088000Y-102171500D02*
X69278500Y-102362000D01*
X69278500Y-102362000D02*
X69659500Y-102362000D01*
X70459600Y-100939600D02*
X70459600Y-103428800D01*
X69913500Y-100838000D02*
X70358000Y-100838000D01*
X77597000Y-96294787D02*
X77597000Y-97637410D01*
X69786500Y-100965000D02*
X69913500Y-100838000D01*
X69088000Y-99949000D02*
X69088000Y-102171500D01*
X69786500Y-102235000D02*
X69786500Y-100965000D01*
X78209987Y-95681800D02*
X77597000Y-96294787D01*
X69659500Y-102362000D02*
X69786500Y-102235000D01*
X69342000Y-99695000D02*
X69088000Y-99949000D01*
X75539410Y-99695000D02*
X69342000Y-99695000D01*
X77597000Y-97637410D02*
X75539410Y-99695000D01*
%TO.N,/RTC_INTO*%
X65468500Y-91186000D02*
X65468500Y-90106500D01*
X65468500Y-90106500D02*
X66294000Y-89281000D01*
X72211220Y-89281000D02*
X73047808Y-88444412D01*
X66294000Y-89281000D02*
X72211220Y-89281000D01*
%TO.N,/RTC_CLKO*%
X72085200Y-86487000D02*
X74688700Y-83883500D01*
X66497200Y-86487000D02*
X72085200Y-86487000D01*
X65062511Y-87921689D02*
X66497200Y-86487000D01*
X65093000Y-93922000D02*
X64262000Y-93091000D01*
X65474000Y-93922000D02*
X65093000Y-93922000D01*
X74688700Y-83883500D02*
X78016100Y-83883500D01*
X64262000Y-93091000D02*
X64262000Y-90551000D01*
X64262000Y-90551000D02*
X65062511Y-89750489D01*
X65062511Y-89750489D02*
X65062511Y-87921689D01*
%TO.N,/RTC_CLKO_EN*%
X62732500Y-93922000D02*
X62299002Y-93922000D01*
X63627000Y-90424000D02*
X63627000Y-93027500D01*
X75031600Y-82232500D02*
X75031600Y-82939606D01*
X71992206Y-85979000D02*
X66294000Y-85979000D01*
X64617600Y-89433400D02*
X63627000Y-90424000D01*
X75031600Y-82939606D02*
X71992206Y-85979000D01*
X64617600Y-87655400D02*
X64617600Y-89433400D01*
X63627000Y-93027500D02*
X62732500Y-93922000D01*
X66294000Y-85979000D02*
X64617600Y-87655400D01*
%TD*%
D17*
%TO.N,+3V0*%
G36*
X81859400Y-87480000D02*
G01*
X81879400Y-87480000D01*
X81879400Y-87780000D01*
X81859400Y-87780000D01*
X81859400Y-88175000D01*
X81934400Y-88250000D01*
X82004400Y-88251452D01*
X82063210Y-88245660D01*
X82116632Y-88229454D01*
X82222889Y-88335711D01*
X82238043Y-88348147D01*
X82255332Y-88357388D01*
X82274091Y-88363079D01*
X82293600Y-88365000D01*
X85127178Y-88365000D01*
X85218600Y-88456422D01*
X85218600Y-96328578D01*
X85127178Y-96420000D01*
X83914820Y-96420000D01*
X83915248Y-96419478D01*
X83943105Y-96367361D01*
X83960260Y-96310810D01*
X83966052Y-96252000D01*
X83964600Y-93697000D01*
X83889600Y-93622000D01*
X82514600Y-93622000D01*
X82514600Y-93642000D01*
X82214600Y-93642000D01*
X82214600Y-93622000D01*
X82194600Y-93622000D01*
X82194600Y-93322000D01*
X82214600Y-93322000D01*
X82214600Y-90467000D01*
X82514600Y-90467000D01*
X82514600Y-93322000D01*
X83889600Y-93322000D01*
X83964600Y-93247000D01*
X83966052Y-90692000D01*
X83960260Y-90633190D01*
X83943105Y-90576639D01*
X83915248Y-90524522D01*
X83877759Y-90478841D01*
X83832078Y-90441352D01*
X83779961Y-90413495D01*
X83723410Y-90396340D01*
X83664600Y-90390548D01*
X82589600Y-90392000D01*
X82514600Y-90467000D01*
X82214600Y-90467000D01*
X82139600Y-90392000D01*
X81189500Y-90390717D01*
X81189500Y-90135222D01*
X81261811Y-90062911D01*
X81274247Y-90047757D01*
X81283488Y-90030468D01*
X81289179Y-90011709D01*
X81291100Y-89992200D01*
X81291100Y-89854860D01*
X81389629Y-89835262D01*
X81489723Y-89793801D01*
X81579804Y-89733611D01*
X81656413Y-89657002D01*
X81716603Y-89566921D01*
X81747734Y-89491766D01*
X81800008Y-89544040D01*
X81898279Y-89609703D01*
X82007472Y-89654932D01*
X82123391Y-89677990D01*
X82241581Y-89677990D01*
X82357500Y-89654932D01*
X82466693Y-89609703D01*
X82564964Y-89544040D01*
X82648536Y-89460468D01*
X82714199Y-89362197D01*
X82759428Y-89253004D01*
X82782486Y-89137085D01*
X82782486Y-89018895D01*
X82759428Y-88902976D01*
X82714199Y-88793783D01*
X82648536Y-88695512D01*
X82564964Y-88611940D01*
X82466693Y-88546277D01*
X82357500Y-88501048D01*
X82241581Y-88477990D01*
X82123391Y-88477990D01*
X82007472Y-88501048D01*
X81898279Y-88546277D01*
X81800008Y-88611940D01*
X81716436Y-88695512D01*
X81650773Y-88793783D01*
X81605544Y-88902976D01*
X81605221Y-88904602D01*
X81579804Y-88879185D01*
X81489723Y-88818995D01*
X81389629Y-88777534D01*
X81291100Y-88757936D01*
X81291100Y-88576392D01*
X81315390Y-88540040D01*
X81360619Y-88430847D01*
X81383677Y-88314928D01*
X81383677Y-88248426D01*
X81414400Y-88251452D01*
X81484400Y-88250000D01*
X81559400Y-88175000D01*
X81559400Y-87780000D01*
X81539400Y-87780000D01*
X81539400Y-87480000D01*
X81559400Y-87480000D01*
X81559400Y-87460000D01*
X81859400Y-87460000D01*
X81859400Y-87480000D01*
G37*
X81859400Y-87480000D02*
X81879400Y-87480000D01*
X81879400Y-87780000D01*
X81859400Y-87780000D01*
X81859400Y-88175000D01*
X81934400Y-88250000D01*
X82004400Y-88251452D01*
X82063210Y-88245660D01*
X82116632Y-88229454D01*
X82222889Y-88335711D01*
X82238043Y-88348147D01*
X82255332Y-88357388D01*
X82274091Y-88363079D01*
X82293600Y-88365000D01*
X85127178Y-88365000D01*
X85218600Y-88456422D01*
X85218600Y-96328578D01*
X85127178Y-96420000D01*
X83914820Y-96420000D01*
X83915248Y-96419478D01*
X83943105Y-96367361D01*
X83960260Y-96310810D01*
X83966052Y-96252000D01*
X83964600Y-93697000D01*
X83889600Y-93622000D01*
X82514600Y-93622000D01*
X82514600Y-93642000D01*
X82214600Y-93642000D01*
X82214600Y-93622000D01*
X82194600Y-93622000D01*
X82194600Y-93322000D01*
X82214600Y-93322000D01*
X82214600Y-90467000D01*
X82514600Y-90467000D01*
X82514600Y-93322000D01*
X83889600Y-93322000D01*
X83964600Y-93247000D01*
X83966052Y-90692000D01*
X83960260Y-90633190D01*
X83943105Y-90576639D01*
X83915248Y-90524522D01*
X83877759Y-90478841D01*
X83832078Y-90441352D01*
X83779961Y-90413495D01*
X83723410Y-90396340D01*
X83664600Y-90390548D01*
X82589600Y-90392000D01*
X82514600Y-90467000D01*
X82214600Y-90467000D01*
X82139600Y-90392000D01*
X81189500Y-90390717D01*
X81189500Y-90135222D01*
X81261811Y-90062911D01*
X81274247Y-90047757D01*
X81283488Y-90030468D01*
X81289179Y-90011709D01*
X81291100Y-89992200D01*
X81291100Y-89854860D01*
X81389629Y-89835262D01*
X81489723Y-89793801D01*
X81579804Y-89733611D01*
X81656413Y-89657002D01*
X81716603Y-89566921D01*
X81747734Y-89491766D01*
X81800008Y-89544040D01*
X81898279Y-89609703D01*
X82007472Y-89654932D01*
X82123391Y-89677990D01*
X82241581Y-89677990D01*
X82357500Y-89654932D01*
X82466693Y-89609703D01*
X82564964Y-89544040D01*
X82648536Y-89460468D01*
X82714199Y-89362197D01*
X82759428Y-89253004D01*
X82782486Y-89137085D01*
X82782486Y-89018895D01*
X82759428Y-88902976D01*
X82714199Y-88793783D01*
X82648536Y-88695512D01*
X82564964Y-88611940D01*
X82466693Y-88546277D01*
X82357500Y-88501048D01*
X82241581Y-88477990D01*
X82123391Y-88477990D01*
X82007472Y-88501048D01*
X81898279Y-88546277D01*
X81800008Y-88611940D01*
X81716436Y-88695512D01*
X81650773Y-88793783D01*
X81605544Y-88902976D01*
X81605221Y-88904602D01*
X81579804Y-88879185D01*
X81489723Y-88818995D01*
X81389629Y-88777534D01*
X81291100Y-88757936D01*
X81291100Y-88576392D01*
X81315390Y-88540040D01*
X81360619Y-88430847D01*
X81383677Y-88314928D01*
X81383677Y-88248426D01*
X81414400Y-88251452D01*
X81484400Y-88250000D01*
X81559400Y-88175000D01*
X81559400Y-87780000D01*
X81539400Y-87780000D01*
X81539400Y-87480000D01*
X81559400Y-87480000D01*
X81559400Y-87460000D01*
X81859400Y-87460000D01*
X81859400Y-87480000D01*
G36*
X59461400Y-87480000D02*
G01*
X59481400Y-87480000D01*
X59481400Y-87780000D01*
X59461400Y-87780000D01*
X59461400Y-88175000D01*
X59536400Y-88250000D01*
X59606400Y-88251452D01*
X59659662Y-88246206D01*
X59659662Y-89245580D01*
X59593612Y-89311630D01*
X59527949Y-89409901D01*
X59482720Y-89519094D01*
X59459662Y-89635013D01*
X59459662Y-89753203D01*
X59482720Y-89869122D01*
X59527949Y-89978315D01*
X59593612Y-90076586D01*
X59677184Y-90160158D01*
X59775455Y-90225821D01*
X59780500Y-90227911D01*
X59780500Y-90390648D01*
X58779600Y-90392000D01*
X58704600Y-90467000D01*
X58704600Y-93322000D01*
X58724600Y-93322000D01*
X58724600Y-93622000D01*
X58704600Y-93622000D01*
X58704600Y-93642000D01*
X58404600Y-93642000D01*
X58404600Y-93622000D01*
X57029600Y-93622000D01*
X56954600Y-93697000D01*
X56953148Y-96252000D01*
X56958940Y-96310810D01*
X56976095Y-96367361D01*
X57003952Y-96419478D01*
X57004380Y-96420000D01*
X56490522Y-96420000D01*
X56399100Y-96328578D01*
X56399100Y-90692000D01*
X56953148Y-90692000D01*
X56954600Y-93247000D01*
X57029600Y-93322000D01*
X58404600Y-93322000D01*
X58404600Y-90467000D01*
X58329600Y-90392000D01*
X57254600Y-90390548D01*
X57195790Y-90396340D01*
X57139239Y-90413495D01*
X57087122Y-90441352D01*
X57041441Y-90478841D01*
X57003952Y-90524522D01*
X56976095Y-90576639D01*
X56958940Y-90633190D01*
X56953148Y-90692000D01*
X56399100Y-90692000D01*
X56399100Y-90600090D01*
X56411713Y-90581213D01*
X56456942Y-90472020D01*
X56480000Y-90356101D01*
X56480000Y-90237911D01*
X56456942Y-90121992D01*
X56411713Y-90012799D01*
X56399100Y-89993922D01*
X56399100Y-89980422D01*
X56490522Y-89889000D01*
X58397000Y-89889000D01*
X58416509Y-89887079D01*
X58435268Y-89881388D01*
X58452557Y-89872147D01*
X58467711Y-89859711D01*
X58617711Y-89709711D01*
X58630147Y-89694557D01*
X58639388Y-89677268D01*
X58645079Y-89658509D01*
X58647000Y-89639000D01*
X58647000Y-88392922D01*
X58743101Y-88296821D01*
X58752768Y-88293888D01*
X58770057Y-88284647D01*
X58785211Y-88272211D01*
X58854039Y-88203383D01*
X58901039Y-88228505D01*
X58957590Y-88245660D01*
X59016400Y-88251452D01*
X59086400Y-88250000D01*
X59161400Y-88175000D01*
X59161400Y-87780000D01*
X59141400Y-87780000D01*
X59141400Y-87480000D01*
X59161400Y-87480000D01*
X59161400Y-87460000D01*
X59461400Y-87460000D01*
X59461400Y-87480000D01*
G37*
X59461400Y-87480000D02*
X59481400Y-87480000D01*
X59481400Y-87780000D01*
X59461400Y-87780000D01*
X59461400Y-88175000D01*
X59536400Y-88250000D01*
X59606400Y-88251452D01*
X59659662Y-88246206D01*
X59659662Y-89245580D01*
X59593612Y-89311630D01*
X59527949Y-89409901D01*
X59482720Y-89519094D01*
X59459662Y-89635013D01*
X59459662Y-89753203D01*
X59482720Y-89869122D01*
X59527949Y-89978315D01*
X59593612Y-90076586D01*
X59677184Y-90160158D01*
X59775455Y-90225821D01*
X59780500Y-90227911D01*
X59780500Y-90390648D01*
X58779600Y-90392000D01*
X58704600Y-90467000D01*
X58704600Y-93322000D01*
X58724600Y-93322000D01*
X58724600Y-93622000D01*
X58704600Y-93622000D01*
X58704600Y-93642000D01*
X58404600Y-93642000D01*
X58404600Y-93622000D01*
X57029600Y-93622000D01*
X56954600Y-93697000D01*
X56953148Y-96252000D01*
X56958940Y-96310810D01*
X56976095Y-96367361D01*
X57003952Y-96419478D01*
X57004380Y-96420000D01*
X56490522Y-96420000D01*
X56399100Y-96328578D01*
X56399100Y-90692000D01*
X56953148Y-90692000D01*
X56954600Y-93247000D01*
X57029600Y-93322000D01*
X58404600Y-93322000D01*
X58404600Y-90467000D01*
X58329600Y-90392000D01*
X57254600Y-90390548D01*
X57195790Y-90396340D01*
X57139239Y-90413495D01*
X57087122Y-90441352D01*
X57041441Y-90478841D01*
X57003952Y-90524522D01*
X56976095Y-90576639D01*
X56958940Y-90633190D01*
X56953148Y-90692000D01*
X56399100Y-90692000D01*
X56399100Y-90600090D01*
X56411713Y-90581213D01*
X56456942Y-90472020D01*
X56480000Y-90356101D01*
X56480000Y-90237911D01*
X56456942Y-90121992D01*
X56411713Y-90012799D01*
X56399100Y-89993922D01*
X56399100Y-89980422D01*
X56490522Y-89889000D01*
X58397000Y-89889000D01*
X58416509Y-89887079D01*
X58435268Y-89881388D01*
X58452557Y-89872147D01*
X58467711Y-89859711D01*
X58617711Y-89709711D01*
X58630147Y-89694557D01*
X58639388Y-89677268D01*
X58645079Y-89658509D01*
X58647000Y-89639000D01*
X58647000Y-88392922D01*
X58743101Y-88296821D01*
X58752768Y-88293888D01*
X58770057Y-88284647D01*
X58785211Y-88272211D01*
X58854039Y-88203383D01*
X58901039Y-88228505D01*
X58957590Y-88245660D01*
X59016400Y-88251452D01*
X59086400Y-88250000D01*
X59161400Y-88175000D01*
X59161400Y-87780000D01*
X59141400Y-87780000D01*
X59141400Y-87480000D01*
X59161400Y-87480000D01*
X59161400Y-87460000D01*
X59461400Y-87460000D01*
X59461400Y-87480000D01*
D19*
%TO.N,GND*%
G36*
X90716279Y-85309115D02*
G01*
X90718121Y-85313927D01*
X90724067Y-85325819D01*
X90725412Y-85328705D01*
X90873698Y-86292788D01*
X91009589Y-87314205D01*
X91124638Y-88337535D01*
X91218938Y-89362331D01*
X91292391Y-90388499D01*
X91344999Y-91415563D01*
X91376764Y-92443289D01*
X91387682Y-93471427D01*
X91377857Y-94499456D01*
X91347085Y-95527193D01*
X91295567Y-96554363D01*
X91223103Y-97580579D01*
X91129902Y-98605504D01*
X91015850Y-99628893D01*
X90880852Y-100650308D01*
X90735867Y-101599223D01*
X90734683Y-101601223D01*
X90726132Y-101615344D01*
X90725312Y-101617057D01*
X90724328Y-101618720D01*
X90717247Y-101633909D01*
X90702107Y-101665546D01*
X90701632Y-101667407D01*
X84765295Y-114401791D01*
X80860088Y-114401764D01*
X80865797Y-114391083D01*
X80888783Y-114315306D01*
X80894600Y-114256247D01*
X80896545Y-114236500D01*
X80894600Y-114216753D01*
X80894600Y-112414747D01*
X80896545Y-112395000D01*
X80888783Y-112316194D01*
X80865797Y-112240417D01*
X80828468Y-112170580D01*
X80778232Y-112109368D01*
X80717020Y-112059132D01*
X80647183Y-112021803D01*
X80571406Y-111998817D01*
X80512347Y-111993000D01*
X80492600Y-111991055D01*
X80472853Y-111993000D01*
X77839945Y-111993000D01*
X77973256Y-111966483D01*
X78223854Y-111862682D01*
X78449387Y-111711986D01*
X78641186Y-111520187D01*
X78791882Y-111294654D01*
X78895683Y-111044056D01*
X78948600Y-110778023D01*
X78948600Y-110506777D01*
X78895683Y-110240744D01*
X78791882Y-109990146D01*
X78641186Y-109764613D01*
X78449387Y-109572814D01*
X78223854Y-109422118D01*
X77973256Y-109318317D01*
X77707223Y-109265400D01*
X77435977Y-109265400D01*
X77169944Y-109318317D01*
X76919346Y-109422118D01*
X76693813Y-109572814D01*
X76502014Y-109764613D01*
X76351318Y-109990146D01*
X76247517Y-110240744D01*
X76194600Y-110506777D01*
X76194600Y-110778023D01*
X76247517Y-111044056D01*
X76351318Y-111294654D01*
X76502014Y-111520187D01*
X76693813Y-111711986D01*
X76919346Y-111862682D01*
X77169944Y-111966483D01*
X77303255Y-111993000D01*
X63615945Y-111993000D01*
X63749256Y-111966483D01*
X63999854Y-111862682D01*
X64225387Y-111711986D01*
X64417186Y-111520187D01*
X64567882Y-111294654D01*
X64671683Y-111044056D01*
X64724600Y-110778023D01*
X64724600Y-110506777D01*
X64671683Y-110240744D01*
X64567882Y-109990146D01*
X64417186Y-109764613D01*
X64225387Y-109572814D01*
X63999854Y-109422118D01*
X63749256Y-109318317D01*
X63483223Y-109265400D01*
X63211977Y-109265400D01*
X62945944Y-109318317D01*
X62695346Y-109422118D01*
X62469813Y-109572814D01*
X62278014Y-109764613D01*
X62127318Y-109990146D01*
X62023517Y-110240744D01*
X61970600Y-110506777D01*
X61970600Y-110778023D01*
X62023517Y-111044056D01*
X62127318Y-111294654D01*
X62278014Y-111520187D01*
X62469813Y-111711986D01*
X62695346Y-111862682D01*
X62945944Y-111966483D01*
X63079255Y-111993000D01*
X60446347Y-111993000D01*
X60426600Y-111991055D01*
X60406853Y-111993000D01*
X60347794Y-111998817D01*
X60272017Y-112021803D01*
X60202180Y-112059132D01*
X60140968Y-112109368D01*
X60090732Y-112170580D01*
X60053403Y-112240417D01*
X60030417Y-112316194D01*
X60022655Y-112395000D01*
X60024600Y-112414747D01*
X60024601Y-114216743D01*
X60022655Y-114236500D01*
X60030417Y-114315306D01*
X60053403Y-114391083D01*
X60059036Y-114401621D01*
X56151178Y-114401594D01*
X52521257Y-106617141D01*
X67409852Y-106617141D01*
X67454409Y-106775808D01*
X67620787Y-106851055D01*
X67798649Y-106892398D01*
X67981158Y-106898248D01*
X68161302Y-106868380D01*
X68332157Y-106803941D01*
X68384791Y-106775808D01*
X68429348Y-106617141D01*
X67919600Y-106107393D01*
X67409852Y-106617141D01*
X52521257Y-106617141D01*
X51990423Y-105478756D01*
X65713291Y-105478756D01*
X65713291Y-105602264D01*
X65737386Y-105723399D01*
X65784651Y-105837506D01*
X65853268Y-105940199D01*
X65940602Y-106027533D01*
X66043295Y-106096150D01*
X66157402Y-106143415D01*
X66278537Y-106167510D01*
X66402045Y-106167510D01*
X66523180Y-106143415D01*
X66637287Y-106096150D01*
X66735752Y-106030358D01*
X66990152Y-106030358D01*
X67020020Y-106210502D01*
X67084459Y-106381357D01*
X67112592Y-106433991D01*
X67271259Y-106478548D01*
X67781007Y-105968800D01*
X68058193Y-105968800D01*
X68567941Y-106478548D01*
X68726608Y-106433991D01*
X68801855Y-106267613D01*
X68843198Y-106089751D01*
X68849048Y-105907242D01*
X68819180Y-105727098D01*
X68754741Y-105556243D01*
X68726608Y-105503609D01*
X68567941Y-105459052D01*
X68058193Y-105968800D01*
X67781007Y-105968800D01*
X67271259Y-105459052D01*
X67112592Y-105503609D01*
X67037345Y-105669987D01*
X66996002Y-105847849D01*
X66990152Y-106030358D01*
X66735752Y-106030358D01*
X66739980Y-106027533D01*
X66827314Y-105940199D01*
X66895931Y-105837506D01*
X66943196Y-105723399D01*
X66967291Y-105602264D01*
X66967291Y-105478756D01*
X66943196Y-105357621D01*
X66927803Y-105320459D01*
X67409852Y-105320459D01*
X67919600Y-105830207D01*
X68429348Y-105320459D01*
X68384791Y-105161792D01*
X68218413Y-105086545D01*
X68040551Y-105045202D01*
X67858042Y-105039352D01*
X67677898Y-105069220D01*
X67507043Y-105133659D01*
X67454409Y-105161792D01*
X67409852Y-105320459D01*
X66927803Y-105320459D01*
X66895931Y-105243514D01*
X66827314Y-105140821D01*
X66739980Y-105053487D01*
X66637287Y-104984870D01*
X66523180Y-104937605D01*
X66402045Y-104913510D01*
X66278537Y-104913510D01*
X66157402Y-104937605D01*
X66043295Y-104984870D01*
X65940602Y-105053487D01*
X65853268Y-105140821D01*
X65784651Y-105243514D01*
X65737386Y-105357621D01*
X65713291Y-105478756D01*
X51990423Y-105478756D01*
X51289983Y-103976646D01*
X62771400Y-103976646D01*
X62771400Y-104100154D01*
X62795495Y-104221289D01*
X62842760Y-104335396D01*
X62911377Y-104438089D01*
X62998711Y-104525423D01*
X63101404Y-104594040D01*
X63215511Y-104641305D01*
X63336646Y-104665400D01*
X63460154Y-104665400D01*
X63581289Y-104641305D01*
X63695396Y-104594040D01*
X63798089Y-104525423D01*
X63885423Y-104438089D01*
X63954040Y-104335396D01*
X64001305Y-104221289D01*
X64025400Y-104100154D01*
X64025400Y-103976646D01*
X64001305Y-103855511D01*
X63954040Y-103741404D01*
X63885423Y-103638711D01*
X63798089Y-103551377D01*
X63695396Y-103482760D01*
X63581289Y-103435495D01*
X63460154Y-103411400D01*
X63336646Y-103411400D01*
X63215511Y-103435495D01*
X63101404Y-103482760D01*
X62998711Y-103551377D01*
X62911377Y-103638711D01*
X62842760Y-103741404D01*
X62795495Y-103855511D01*
X62771400Y-103976646D01*
X51289983Y-103976646D01*
X50373566Y-102011370D01*
X60001084Y-102011370D01*
X60001084Y-102134878D01*
X60025179Y-102256013D01*
X60072444Y-102370120D01*
X60141061Y-102472813D01*
X60228395Y-102560147D01*
X60331088Y-102628764D01*
X60445195Y-102676029D01*
X60566330Y-102700124D01*
X60689838Y-102700124D01*
X60810973Y-102676029D01*
X60925080Y-102628764D01*
X61027773Y-102560147D01*
X61115107Y-102472813D01*
X61183724Y-102370120D01*
X61230989Y-102256013D01*
X61255084Y-102134878D01*
X61255084Y-102011370D01*
X61230989Y-101890235D01*
X61183724Y-101776128D01*
X61115107Y-101673435D01*
X61027773Y-101586101D01*
X60925080Y-101517484D01*
X60810973Y-101470219D01*
X60689838Y-101446124D01*
X60566330Y-101446124D01*
X60445195Y-101470219D01*
X60331088Y-101517484D01*
X60228395Y-101586101D01*
X60141061Y-101673435D01*
X60072444Y-101776128D01*
X60025179Y-101890235D01*
X60001084Y-102011370D01*
X50373566Y-102011370D01*
X50194837Y-101628082D01*
X50044446Y-100650203D01*
X50017612Y-100448377D01*
X51912200Y-100448377D01*
X51912200Y-100719623D01*
X51965117Y-100985656D01*
X52068918Y-101236254D01*
X52219614Y-101461787D01*
X52411413Y-101653586D01*
X52636946Y-101804282D01*
X52887544Y-101908083D01*
X53153577Y-101961000D01*
X53424823Y-101961000D01*
X53690856Y-101908083D01*
X53941454Y-101804282D01*
X54166987Y-101653586D01*
X54358786Y-101461787D01*
X54509482Y-101236254D01*
X54613283Y-100985656D01*
X54666200Y-100719623D01*
X54666200Y-100448377D01*
X54655290Y-100393524D01*
X59356844Y-100393524D01*
X59356844Y-100517032D01*
X59380939Y-100638167D01*
X59428204Y-100752274D01*
X59496821Y-100854967D01*
X59584155Y-100942301D01*
X59686848Y-101010918D01*
X59800955Y-101058183D01*
X59922090Y-101082278D01*
X60045598Y-101082278D01*
X60166733Y-101058183D01*
X60280840Y-101010918D01*
X60383533Y-100942301D01*
X60470867Y-100854967D01*
X60539484Y-100752274D01*
X60586749Y-100638167D01*
X60610844Y-100517032D01*
X60610844Y-100393524D01*
X60586749Y-100272389D01*
X60539484Y-100158282D01*
X60470867Y-100055589D01*
X60383533Y-99968255D01*
X60280840Y-99899638D01*
X60166733Y-99852373D01*
X60045598Y-99828278D01*
X59922090Y-99828278D01*
X59800955Y-99852373D01*
X59686848Y-99899638D01*
X59584155Y-99968255D01*
X59496821Y-100055589D01*
X59428204Y-100158282D01*
X59380939Y-100272389D01*
X59356844Y-100393524D01*
X54655290Y-100393524D01*
X54613283Y-100182344D01*
X54509482Y-99931746D01*
X54358786Y-99706213D01*
X54166987Y-99514414D01*
X53941454Y-99363718D01*
X53690856Y-99259917D01*
X53424823Y-99207000D01*
X53153577Y-99207000D01*
X52887544Y-99259917D01*
X52636946Y-99363718D01*
X52411413Y-99514414D01*
X52219614Y-99706213D01*
X52068918Y-99931746D01*
X51965117Y-100182344D01*
X51912200Y-100448377D01*
X50017612Y-100448377D01*
X49908651Y-99628871D01*
X49793611Y-98605628D01*
X49699508Y-97580714D01*
X49626152Y-96554633D01*
X49573744Y-95527578D01*
X49542179Y-94499851D01*
X49531459Y-93471759D01*
X49541483Y-92443732D01*
X49572454Y-91415941D01*
X49624169Y-90388778D01*
X49648652Y-90043000D01*
X54688935Y-90043000D01*
X54691001Y-90063977D01*
X54691000Y-97578533D01*
X54688935Y-97599500D01*
X54691000Y-97620467D01*
X54691000Y-97620477D01*
X54697178Y-97683206D01*
X54721595Y-97763695D01*
X54730393Y-97780154D01*
X54761245Y-97837876D01*
X54801232Y-97886600D01*
X54814605Y-97902895D01*
X54830900Y-97916268D01*
X56388736Y-99474105D01*
X56402105Y-99490395D01*
X56418395Y-99503764D01*
X56418399Y-99503768D01*
X56467123Y-99543755D01*
X56485507Y-99553581D01*
X56541304Y-99583405D01*
X56621793Y-99607822D01*
X56684522Y-99614000D01*
X56684532Y-99614000D01*
X56705499Y-99616065D01*
X56726466Y-99614000D01*
X60299534Y-99614000D01*
X60952758Y-100267224D01*
X60917558Y-100281805D01*
X60814865Y-100350422D01*
X60727531Y-100437756D01*
X60658914Y-100540449D01*
X60611649Y-100654556D01*
X60587554Y-100775691D01*
X60587554Y-100899199D01*
X60611649Y-101020334D01*
X60658914Y-101134441D01*
X60727531Y-101237134D01*
X60814865Y-101324468D01*
X60917558Y-101393085D01*
X61031665Y-101440350D01*
X61152800Y-101464445D01*
X61276308Y-101464445D01*
X61397443Y-101440350D01*
X61511550Y-101393085D01*
X61614243Y-101324468D01*
X61701577Y-101237134D01*
X61770194Y-101134441D01*
X61784774Y-101099241D01*
X65303138Y-104617605D01*
X65316507Y-104633895D01*
X65332797Y-104647264D01*
X65332800Y-104647267D01*
X65381525Y-104687255D01*
X65421175Y-104708448D01*
X65455706Y-104726905D01*
X65536195Y-104751322D01*
X65598924Y-104757500D01*
X65598944Y-104757500D01*
X65619901Y-104759564D01*
X65640858Y-104757500D01*
X68475888Y-104757500D01*
X68535911Y-104817523D01*
X68638604Y-104886140D01*
X68752711Y-104933405D01*
X68873846Y-104957500D01*
X68997354Y-104957500D01*
X69118489Y-104933405D01*
X69232596Y-104886140D01*
X69335289Y-104817523D01*
X69395312Y-104757500D01*
X70501244Y-104757500D01*
X70187286Y-105071459D01*
X70171838Y-105084137D01*
X70121227Y-105145806D01*
X70083620Y-105216164D01*
X70079028Y-105231301D01*
X70067869Y-105235923D01*
X69932419Y-105326428D01*
X69817228Y-105441619D01*
X69726723Y-105577069D01*
X69664382Y-105727573D01*
X69632600Y-105887348D01*
X69632600Y-106050252D01*
X69664382Y-106210027D01*
X69726723Y-106360531D01*
X69817228Y-106495981D01*
X69932419Y-106611172D01*
X70067869Y-106701677D01*
X70218373Y-106764018D01*
X70378148Y-106795800D01*
X70541052Y-106795800D01*
X70700827Y-106764018D01*
X70851331Y-106701677D01*
X70986781Y-106611172D01*
X71023920Y-106574033D01*
X71064777Y-106635181D01*
X71152111Y-106722515D01*
X71254804Y-106791132D01*
X71368911Y-106838397D01*
X71490046Y-106862492D01*
X71613554Y-106862492D01*
X71734689Y-106838397D01*
X71848796Y-106791132D01*
X71951489Y-106722515D01*
X72038823Y-106635181D01*
X72107440Y-106532488D01*
X72154705Y-106418381D01*
X72178800Y-106297246D01*
X72178800Y-106173738D01*
X72154705Y-106052603D01*
X72107440Y-105938496D01*
X72038823Y-105835803D01*
X71951489Y-105748469D01*
X71848796Y-105679852D01*
X71734689Y-105632587D01*
X71613554Y-105608492D01*
X71490046Y-105608492D01*
X71368911Y-105632587D01*
X71254804Y-105679852D01*
X71239333Y-105690189D01*
X71192477Y-105577069D01*
X71101972Y-105441619D01*
X71032304Y-105371951D01*
X71249656Y-105154600D01*
X72853800Y-105154600D01*
X72758373Y-105173582D01*
X72607869Y-105235923D01*
X72472419Y-105326428D01*
X72357228Y-105441619D01*
X72266723Y-105577069D01*
X72204382Y-105727573D01*
X72172600Y-105887348D01*
X72172600Y-106050252D01*
X72204382Y-106210027D01*
X72266723Y-106360531D01*
X72357228Y-106495981D01*
X72472419Y-106611172D01*
X72572601Y-106678111D01*
X72572601Y-107138126D01*
X72514731Y-107195996D01*
X72429846Y-107195996D01*
X72308711Y-107220091D01*
X72194604Y-107267356D01*
X72091911Y-107335973D01*
X72004577Y-107423307D01*
X71935960Y-107526000D01*
X71888695Y-107640107D01*
X71864600Y-107761242D01*
X71864600Y-107884750D01*
X71888695Y-108005885D01*
X71935960Y-108119992D01*
X72004577Y-108222685D01*
X72091911Y-108310019D01*
X72194604Y-108378636D01*
X72308711Y-108425901D01*
X72429846Y-108449996D01*
X72553354Y-108449996D01*
X72674489Y-108425901D01*
X72788596Y-108378636D01*
X72891289Y-108310019D01*
X72978623Y-108222685D01*
X73047240Y-108119992D01*
X73062285Y-108083670D01*
X83497000Y-108083670D01*
X83497000Y-108197330D01*
X83519174Y-108308805D01*
X83562669Y-108413812D01*
X83625815Y-108508316D01*
X83706184Y-108588685D01*
X83800688Y-108651831D01*
X83905695Y-108695326D01*
X84017170Y-108717500D01*
X84130830Y-108717500D01*
X84242305Y-108695326D01*
X84347312Y-108651831D01*
X84441816Y-108588685D01*
X84522185Y-108508316D01*
X84585331Y-108413812D01*
X84628826Y-108308805D01*
X84651000Y-108197330D01*
X84651000Y-108083670D01*
X84628826Y-107972195D01*
X84585331Y-107867188D01*
X84522185Y-107772684D01*
X84441816Y-107692315D01*
X84347312Y-107629169D01*
X84242305Y-107585674D01*
X84130830Y-107563500D01*
X84017170Y-107563500D01*
X83905695Y-107585674D01*
X83800688Y-107629169D01*
X83706184Y-107692315D01*
X83625815Y-107772684D01*
X83562669Y-107867188D01*
X83519174Y-107972195D01*
X83497000Y-108083670D01*
X73062285Y-108083670D01*
X73094505Y-108005885D01*
X73118600Y-107884750D01*
X73118600Y-107799865D01*
X73286705Y-107631760D01*
X73302995Y-107618391D01*
X73316364Y-107602101D01*
X73316367Y-107602098D01*
X73356355Y-107553373D01*
X73396004Y-107479193D01*
X73396005Y-107479192D01*
X73420422Y-107398703D01*
X73426600Y-107335974D01*
X73426600Y-107335954D01*
X73428664Y-107314997D01*
X73426600Y-107294040D01*
X73426600Y-106678111D01*
X73526781Y-106611172D01*
X73641972Y-106495981D01*
X73732477Y-106360531D01*
X73794818Y-106210027D01*
X73826600Y-106050252D01*
X73826600Y-105887348D01*
X73794818Y-105727573D01*
X73732477Y-105577069D01*
X73641972Y-105441619D01*
X73526781Y-105326428D01*
X73391331Y-105235923D01*
X73240827Y-105173582D01*
X73145400Y-105154600D01*
X74308266Y-105154600D01*
X74227065Y-105235801D01*
X74158448Y-105338494D01*
X74111183Y-105452601D01*
X74087088Y-105573736D01*
X74087088Y-105697244D01*
X74111183Y-105818379D01*
X74158448Y-105932486D01*
X74227065Y-106035179D01*
X74314399Y-106122513D01*
X74417092Y-106191130D01*
X74531199Y-106238395D01*
X74652334Y-106262490D01*
X74775842Y-106262490D01*
X74896977Y-106238395D01*
X75011084Y-106191130D01*
X75113777Y-106122513D01*
X75201111Y-106035179D01*
X75269728Y-105932486D01*
X75316993Y-105818379D01*
X75341088Y-105697244D01*
X75341088Y-105573736D01*
X75316993Y-105452601D01*
X75269728Y-105338494D01*
X75201111Y-105235801D01*
X75119910Y-105154600D01*
X75189519Y-105154600D01*
X75209400Y-105156558D01*
X75229281Y-105154600D01*
X75229289Y-105154600D01*
X75288794Y-105148739D01*
X75365136Y-105125581D01*
X75394203Y-105110044D01*
X75404653Y-105162580D01*
X75451918Y-105276687D01*
X75520535Y-105379380D01*
X75607869Y-105466714D01*
X75710562Y-105535331D01*
X75824669Y-105582596D01*
X75945804Y-105606691D01*
X76069312Y-105606691D01*
X76190447Y-105582596D01*
X76304554Y-105535331D01*
X76407247Y-105466714D01*
X76494581Y-105379380D01*
X76503951Y-105365356D01*
X84779186Y-105365356D01*
X84779186Y-105479016D01*
X84801360Y-105590491D01*
X84844855Y-105695498D01*
X84908001Y-105790002D01*
X84988370Y-105870371D01*
X85082874Y-105933517D01*
X85187881Y-105977012D01*
X85299356Y-105999186D01*
X85413016Y-105999186D01*
X85524491Y-105977012D01*
X85629498Y-105933517D01*
X85724002Y-105870371D01*
X85804371Y-105790002D01*
X85867517Y-105695498D01*
X85911012Y-105590491D01*
X85933186Y-105479016D01*
X85933186Y-105365356D01*
X85911012Y-105253881D01*
X85867517Y-105148874D01*
X85804371Y-105054370D01*
X85724002Y-104974001D01*
X85629498Y-104910855D01*
X85524491Y-104867360D01*
X85413016Y-104845186D01*
X85299356Y-104845186D01*
X85187881Y-104867360D01*
X85082874Y-104910855D01*
X84988370Y-104974001D01*
X84908001Y-105054370D01*
X84844855Y-105148874D01*
X84801360Y-105253881D01*
X84779186Y-105365356D01*
X76503951Y-105365356D01*
X76563198Y-105276687D01*
X76610463Y-105162580D01*
X76634558Y-105041445D01*
X76634558Y-104917937D01*
X76610463Y-104796802D01*
X76563198Y-104682695D01*
X76494581Y-104580002D01*
X76407247Y-104492668D01*
X76304554Y-104424051D01*
X76190447Y-104376786D01*
X76160855Y-104370900D01*
X77881306Y-102650450D01*
X77881306Y-102706264D01*
X77905401Y-102827399D01*
X77952666Y-102941506D01*
X78021283Y-103044199D01*
X78108617Y-103131533D01*
X78211310Y-103200150D01*
X78325417Y-103247415D01*
X78446552Y-103271510D01*
X78570060Y-103271510D01*
X78691195Y-103247415D01*
X78805302Y-103200150D01*
X78907995Y-103131533D01*
X78995329Y-103044199D01*
X79063946Y-102941506D01*
X79111211Y-102827399D01*
X79135306Y-102706264D01*
X79135306Y-102582756D01*
X79111211Y-102461621D01*
X79063946Y-102347514D01*
X78995329Y-102244821D01*
X78907995Y-102157487D01*
X78805302Y-102088870D01*
X78691195Y-102041605D01*
X78570060Y-102017510D01*
X78514246Y-102017510D01*
X79583816Y-100947940D01*
X79599263Y-100935263D01*
X79649874Y-100873594D01*
X79668899Y-100838000D01*
X80190088Y-100838000D01*
X80219911Y-100867823D01*
X80322604Y-100936440D01*
X80436711Y-100983705D01*
X80557846Y-101007800D01*
X80681354Y-101007800D01*
X80802489Y-100983705D01*
X80916596Y-100936440D01*
X81019289Y-100867823D01*
X81106623Y-100780489D01*
X81175240Y-100677796D01*
X81222505Y-100563689D01*
X81245441Y-100448377D01*
X86253000Y-100448377D01*
X86253000Y-100719623D01*
X86305917Y-100985656D01*
X86409718Y-101236254D01*
X86560414Y-101461787D01*
X86752213Y-101653586D01*
X86977746Y-101804282D01*
X87228344Y-101908083D01*
X87494377Y-101961000D01*
X87765623Y-101961000D01*
X88031656Y-101908083D01*
X88282254Y-101804282D01*
X88507787Y-101653586D01*
X88699586Y-101461787D01*
X88850282Y-101236254D01*
X88954083Y-100985656D01*
X89007000Y-100719623D01*
X89007000Y-100448377D01*
X88954083Y-100182344D01*
X88850282Y-99931746D01*
X88699586Y-99706213D01*
X88507787Y-99514414D01*
X88282254Y-99363718D01*
X88031656Y-99259917D01*
X87765623Y-99207000D01*
X87494377Y-99207000D01*
X87228344Y-99259917D01*
X86977746Y-99363718D01*
X86752213Y-99514414D01*
X86560414Y-99706213D01*
X86409718Y-99931746D01*
X86305917Y-100182344D01*
X86253000Y-100448377D01*
X81245441Y-100448377D01*
X81246600Y-100442554D01*
X81246600Y-100319046D01*
X81222505Y-100197911D01*
X81175240Y-100083804D01*
X81106623Y-99981111D01*
X81019289Y-99893777D01*
X80916596Y-99825160D01*
X80802489Y-99777895D01*
X80681354Y-99753800D01*
X80640202Y-99753800D01*
X80640202Y-98833912D01*
X80700225Y-98773889D01*
X80768842Y-98671196D01*
X80816107Y-98557089D01*
X80840202Y-98435954D01*
X80840202Y-98312446D01*
X80816107Y-98191311D01*
X80768842Y-98077204D01*
X80700225Y-97974511D01*
X80612891Y-97887177D01*
X80510198Y-97818560D01*
X80440021Y-97789491D01*
X80522423Y-97707089D01*
X80591040Y-97604396D01*
X80638305Y-97490289D01*
X80662400Y-97369154D01*
X80662400Y-97245646D01*
X80638305Y-97124511D01*
X80591040Y-97010404D01*
X80570087Y-96979046D01*
X80944718Y-96687666D01*
X81008276Y-96751224D01*
X81057829Y-96791891D01*
X81114363Y-96822109D01*
X81175705Y-96840717D01*
X81239500Y-96847000D01*
X85168600Y-96847000D01*
X85232395Y-96840717D01*
X85293737Y-96822109D01*
X85350271Y-96791891D01*
X85399824Y-96751224D01*
X85549824Y-96601224D01*
X85590491Y-96551671D01*
X85620709Y-96495137D01*
X85639317Y-96433795D01*
X85645600Y-96370000D01*
X85645600Y-95891714D01*
X87434000Y-95891714D01*
X87434000Y-96005374D01*
X87456174Y-96116849D01*
X87499669Y-96221856D01*
X87562815Y-96316360D01*
X87643184Y-96396729D01*
X87737688Y-96459875D01*
X87842695Y-96503370D01*
X87954170Y-96525544D01*
X88067830Y-96525544D01*
X88179305Y-96503370D01*
X88284312Y-96459875D01*
X88378816Y-96396729D01*
X88459185Y-96316360D01*
X88522331Y-96221856D01*
X88565826Y-96116849D01*
X88588000Y-96005374D01*
X88588000Y-95891714D01*
X88565826Y-95780239D01*
X88522331Y-95675232D01*
X88459185Y-95580728D01*
X88378816Y-95500359D01*
X88284312Y-95437213D01*
X88179305Y-95393718D01*
X88067830Y-95371544D01*
X87954170Y-95371544D01*
X87842695Y-95393718D01*
X87737688Y-95437213D01*
X87643184Y-95500359D01*
X87562815Y-95580728D01*
X87499669Y-95675232D01*
X87456174Y-95780239D01*
X87434000Y-95891714D01*
X85645600Y-95891714D01*
X85645600Y-92907170D01*
X87434000Y-92907170D01*
X87434000Y-93020830D01*
X87456174Y-93132305D01*
X87499669Y-93237312D01*
X87562815Y-93331816D01*
X87643184Y-93412185D01*
X87737688Y-93475331D01*
X87842695Y-93518826D01*
X87954170Y-93541000D01*
X88067830Y-93541000D01*
X88179305Y-93518826D01*
X88284312Y-93475331D01*
X88378816Y-93412185D01*
X88459185Y-93331816D01*
X88522331Y-93237312D01*
X88565826Y-93132305D01*
X88588000Y-93020830D01*
X88588000Y-92907170D01*
X88565826Y-92795695D01*
X88522331Y-92690688D01*
X88459185Y-92596184D01*
X88378816Y-92515815D01*
X88284312Y-92452669D01*
X88179305Y-92409174D01*
X88067830Y-92387000D01*
X87954170Y-92387000D01*
X87842695Y-92409174D01*
X87737688Y-92452669D01*
X87643184Y-92515815D01*
X87562815Y-92596184D01*
X87499669Y-92690688D01*
X87456174Y-92795695D01*
X87434000Y-92907170D01*
X85645600Y-92907170D01*
X85645600Y-88415000D01*
X85639317Y-88351205D01*
X85620709Y-88289863D01*
X85590491Y-88233329D01*
X85549824Y-88183776D01*
X85399824Y-88033776D01*
X85350271Y-87993109D01*
X85293737Y-87962891D01*
X85232395Y-87944283D01*
X85168600Y-87938000D01*
X83403251Y-87938000D01*
X83401400Y-87834750D01*
X83294650Y-87728000D01*
X82777400Y-87728000D01*
X82777400Y-87748000D01*
X82581400Y-87748000D01*
X82581400Y-87728000D01*
X82561400Y-87728000D01*
X82561400Y-87532000D01*
X82581400Y-87532000D01*
X82581400Y-86989750D01*
X82777400Y-86989750D01*
X82777400Y-87532000D01*
X83294650Y-87532000D01*
X83401400Y-87425250D01*
X83403466Y-87310000D01*
X83395222Y-87226293D01*
X83370805Y-87145804D01*
X83331155Y-87071624D01*
X83277795Y-87006605D01*
X83212776Y-86953245D01*
X83138596Y-86913595D01*
X83058107Y-86889178D01*
X82974400Y-86880934D01*
X82884150Y-86883000D01*
X82777400Y-86989750D01*
X82581400Y-86989750D01*
X82474650Y-86883000D01*
X82384400Y-86880934D01*
X82300693Y-86889178D01*
X82241257Y-86907209D01*
X82224824Y-86890776D01*
X82175271Y-86850109D01*
X82118737Y-86819891D01*
X82057395Y-86801283D01*
X81993600Y-86795000D01*
X81341100Y-86795000D01*
X81277305Y-86801283D01*
X81215963Y-86819891D01*
X81159429Y-86850109D01*
X81109876Y-86890776D01*
X80959876Y-87040776D01*
X80919209Y-87090329D01*
X80888991Y-87146863D01*
X80870383Y-87208205D01*
X80864100Y-87272000D01*
X80864100Y-87632546D01*
X80845431Y-87628833D01*
X80721923Y-87628833D01*
X80600788Y-87652928D01*
X80486681Y-87700193D01*
X80383988Y-87768810D01*
X80296654Y-87856144D01*
X80228037Y-87958837D01*
X80180772Y-88072944D01*
X80156677Y-88194079D01*
X80156677Y-88278964D01*
X80059199Y-88376443D01*
X79177353Y-87494598D01*
X79244840Y-87393596D01*
X79292105Y-87279489D01*
X79316200Y-87158354D01*
X79316200Y-87034846D01*
X79292105Y-86913711D01*
X79244840Y-86799604D01*
X79176223Y-86696911D01*
X79088889Y-86609577D01*
X78986196Y-86540960D01*
X78872089Y-86493695D01*
X78750954Y-86469600D01*
X78627446Y-86469600D01*
X78506311Y-86493695D01*
X78392204Y-86540960D01*
X78289511Y-86609577D01*
X78202177Y-86696911D01*
X78133560Y-86799604D01*
X78086295Y-86913711D01*
X78062200Y-87034846D01*
X78062200Y-87158354D01*
X78084779Y-87271869D01*
X77924700Y-87271869D01*
X77948626Y-87214105D01*
X77970800Y-87102630D01*
X77970800Y-86988970D01*
X77948626Y-86877495D01*
X77905131Y-86772488D01*
X77841985Y-86677984D01*
X77761616Y-86597615D01*
X77667112Y-86534469D01*
X77562105Y-86490974D01*
X77450630Y-86468800D01*
X77336970Y-86468800D01*
X77225495Y-86490974D01*
X77120488Y-86534469D01*
X77025984Y-86597615D01*
X76945615Y-86677984D01*
X76906986Y-86735796D01*
X76851385Y-86652584D01*
X76771016Y-86572215D01*
X76676512Y-86509069D01*
X76571505Y-86465574D01*
X76460030Y-86443400D01*
X76346370Y-86443400D01*
X76234895Y-86465574D01*
X76129888Y-86509069D01*
X76035384Y-86572215D01*
X75992199Y-86615400D01*
X75755500Y-86615400D01*
X75755500Y-86425246D01*
X79802100Y-86425246D01*
X79802100Y-86548754D01*
X79826195Y-86669889D01*
X79873460Y-86783996D01*
X79942077Y-86886689D01*
X80029411Y-86974023D01*
X80132104Y-87042640D01*
X80246211Y-87089905D01*
X80367346Y-87114000D01*
X80490854Y-87114000D01*
X80611989Y-87089905D01*
X80726096Y-87042640D01*
X80828789Y-86974023D01*
X80916123Y-86886689D01*
X80984740Y-86783996D01*
X81032005Y-86669889D01*
X81056100Y-86548754D01*
X81056100Y-86425246D01*
X81032005Y-86304111D01*
X80998978Y-86224377D01*
X86253000Y-86224377D01*
X86253000Y-86495623D01*
X86305917Y-86761656D01*
X86409718Y-87012254D01*
X86560414Y-87237787D01*
X86752213Y-87429586D01*
X86977746Y-87580282D01*
X87228344Y-87684083D01*
X87494377Y-87737000D01*
X87765623Y-87737000D01*
X88031656Y-87684083D01*
X88282254Y-87580282D01*
X88507787Y-87429586D01*
X88699586Y-87237787D01*
X88850282Y-87012254D01*
X88954083Y-86761656D01*
X89007000Y-86495623D01*
X89007000Y-86224377D01*
X88954083Y-85958344D01*
X88850282Y-85707746D01*
X88699586Y-85482213D01*
X88507787Y-85290414D01*
X88282254Y-85139718D01*
X88031656Y-85035917D01*
X87765623Y-84983000D01*
X87494377Y-84983000D01*
X87228344Y-85035917D01*
X86977746Y-85139718D01*
X86752213Y-85290414D01*
X86560414Y-85482213D01*
X86409718Y-85707746D01*
X86305917Y-85958344D01*
X86253000Y-86224377D01*
X80998978Y-86224377D01*
X80984740Y-86190004D01*
X80916123Y-86087311D01*
X80828789Y-85999977D01*
X80726096Y-85931360D01*
X80611989Y-85884095D01*
X80490854Y-85860000D01*
X80367346Y-85860000D01*
X80246211Y-85884095D01*
X80132104Y-85931360D01*
X80029411Y-85999977D01*
X79942077Y-86087311D01*
X79873460Y-86190004D01*
X79826195Y-86304111D01*
X79802100Y-86425246D01*
X75755500Y-86425246D01*
X75755500Y-86066500D01*
X77831119Y-86066500D01*
X77851000Y-86068458D01*
X77870881Y-86066500D01*
X77870889Y-86066500D01*
X77930394Y-86060639D01*
X78006736Y-86037481D01*
X78077094Y-85999874D01*
X78138763Y-85949263D01*
X78151445Y-85933810D01*
X79202820Y-84882437D01*
X79218263Y-84869763D01*
X79230936Y-84854321D01*
X79230942Y-84854315D01*
X79268874Y-84808094D01*
X79306481Y-84737737D01*
X79329639Y-84661394D01*
X79329937Y-84658372D01*
X79335500Y-84601889D01*
X79335500Y-84601882D01*
X79337458Y-84582000D01*
X79335500Y-84562118D01*
X79335500Y-83763170D01*
X85783000Y-83763170D01*
X85783000Y-83876830D01*
X85805174Y-83988305D01*
X85848669Y-84093312D01*
X85911815Y-84187816D01*
X85992184Y-84268185D01*
X86086688Y-84331331D01*
X86191695Y-84374826D01*
X86303170Y-84397000D01*
X86416830Y-84397000D01*
X86528305Y-84374826D01*
X86633312Y-84331331D01*
X86727816Y-84268185D01*
X86808185Y-84187816D01*
X86871331Y-84093312D01*
X86914826Y-83988305D01*
X86937000Y-83876830D01*
X86937000Y-83763170D01*
X86914826Y-83651695D01*
X86871331Y-83546688D01*
X86808185Y-83452184D01*
X86727816Y-83371815D01*
X86633312Y-83308669D01*
X86528305Y-83265174D01*
X86416830Y-83243000D01*
X86303170Y-83243000D01*
X86191695Y-83265174D01*
X86086688Y-83308669D01*
X85992184Y-83371815D01*
X85911815Y-83452184D01*
X85848669Y-83546688D01*
X85805174Y-83651695D01*
X85783000Y-83763170D01*
X79335500Y-83763170D01*
X79335500Y-82506378D01*
X79337458Y-82486499D01*
X79335500Y-82466620D01*
X79335500Y-82466611D01*
X79329639Y-82407106D01*
X79306481Y-82330764D01*
X79268874Y-82260406D01*
X79218263Y-82198737D01*
X79202816Y-82186060D01*
X77985926Y-80969170D01*
X84386000Y-80969170D01*
X84386000Y-81082830D01*
X84408174Y-81194305D01*
X84451669Y-81299312D01*
X84514815Y-81393816D01*
X84595184Y-81474185D01*
X84689688Y-81537331D01*
X84794695Y-81580826D01*
X84906170Y-81603000D01*
X85019830Y-81603000D01*
X85131305Y-81580826D01*
X85236312Y-81537331D01*
X85330816Y-81474185D01*
X85411185Y-81393816D01*
X85474331Y-81299312D01*
X85517826Y-81194305D01*
X85540000Y-81082830D01*
X85540000Y-80969170D01*
X85517826Y-80857695D01*
X85474331Y-80752688D01*
X85411185Y-80658184D01*
X85330816Y-80577815D01*
X85236312Y-80514669D01*
X85131305Y-80471174D01*
X85019830Y-80449000D01*
X84906170Y-80449000D01*
X84794695Y-80471174D01*
X84689688Y-80514669D01*
X84595184Y-80577815D01*
X84514815Y-80658184D01*
X84451669Y-80752688D01*
X84408174Y-80857695D01*
X84386000Y-80969170D01*
X77985926Y-80969170D01*
X76421845Y-79405090D01*
X76409163Y-79389637D01*
X76347494Y-79339026D01*
X76277136Y-79301419D01*
X76200794Y-79278261D01*
X76141289Y-79272400D01*
X76141281Y-79272400D01*
X76121400Y-79270442D01*
X76101519Y-79272400D01*
X73444688Y-79272400D01*
X73440948Y-79265403D01*
X73381741Y-79193259D01*
X73309597Y-79134052D01*
X73227289Y-79090058D01*
X73137979Y-79062966D01*
X73045100Y-79053818D01*
X72700100Y-79053818D01*
X72607221Y-79062966D01*
X72517911Y-79090058D01*
X72435603Y-79134052D01*
X72363459Y-79193259D01*
X72304252Y-79265403D01*
X72260258Y-79347711D01*
X72233166Y-79437021D01*
X72224018Y-79529900D01*
X72224018Y-79824900D01*
X72233166Y-79917779D01*
X72260258Y-80007089D01*
X72288176Y-80059320D01*
X72138182Y-79909327D01*
X72138182Y-79322000D01*
X72131868Y-79257897D01*
X72113170Y-79196257D01*
X72082806Y-79139450D01*
X72041943Y-79089657D01*
X71992150Y-79048794D01*
X71935343Y-79018430D01*
X71873703Y-78999732D01*
X71809600Y-78993418D01*
X71009600Y-78993418D01*
X70945497Y-78999732D01*
X70883857Y-79018430D01*
X70827050Y-79048794D01*
X70777257Y-79089657D01*
X70736394Y-79139450D01*
X70706030Y-79196257D01*
X70687332Y-79257897D01*
X70681018Y-79322000D01*
X70681018Y-80222000D01*
X70687332Y-80286103D01*
X70706030Y-80347743D01*
X70736394Y-80404550D01*
X70777257Y-80454343D01*
X70778543Y-80455398D01*
X70140657Y-80455398D01*
X70141943Y-80454343D01*
X70182806Y-80404550D01*
X70213170Y-80347743D01*
X70231868Y-80286103D01*
X70238182Y-80222000D01*
X70238182Y-79322000D01*
X70231868Y-79257897D01*
X70213170Y-79196257D01*
X70182806Y-79139450D01*
X70141943Y-79089657D01*
X70092150Y-79048794D01*
X70035343Y-79018430D01*
X69973703Y-78999732D01*
X69909600Y-78993418D01*
X69109600Y-78993418D01*
X69045497Y-78999732D01*
X68983857Y-79018430D01*
X68927050Y-79048794D01*
X68877257Y-79089657D01*
X68836394Y-79139450D01*
X68806030Y-79196257D01*
X68787332Y-79257897D01*
X68781018Y-79322000D01*
X68781018Y-79478000D01*
X68645371Y-79478000D01*
X68640348Y-79468603D01*
X68581141Y-79396459D01*
X68508997Y-79337252D01*
X68426689Y-79293258D01*
X68337379Y-79266166D01*
X68244500Y-79257018D01*
X67899500Y-79257018D01*
X67806621Y-79266166D01*
X67717311Y-79293258D01*
X67635003Y-79337252D01*
X67562859Y-79396459D01*
X67503652Y-79468603D01*
X67459658Y-79550911D01*
X67432566Y-79640221D01*
X67423418Y-79733100D01*
X67423418Y-80028100D01*
X67432566Y-80120979D01*
X67459658Y-80210289D01*
X67503652Y-80292597D01*
X67562859Y-80364741D01*
X67563906Y-80365600D01*
X67562859Y-80366459D01*
X67503652Y-80438603D01*
X67459658Y-80520911D01*
X67432566Y-80610221D01*
X67423418Y-80703100D01*
X67423418Y-80998100D01*
X67432566Y-81090979D01*
X67437426Y-81107000D01*
X66889969Y-81107000D01*
X66712368Y-80929400D01*
X66698995Y-80913105D01*
X66633976Y-80859745D01*
X66559796Y-80820095D01*
X66479307Y-80795678D01*
X66416578Y-80789500D01*
X66416567Y-80789500D01*
X66395600Y-80787435D01*
X66374633Y-80789500D01*
X63647967Y-80789500D01*
X63627000Y-80787435D01*
X63606033Y-80789500D01*
X63606022Y-80789500D01*
X63543293Y-80795678D01*
X63462804Y-80820095D01*
X63445538Y-80829324D01*
X63388623Y-80859744D01*
X63339899Y-80899732D01*
X63339895Y-80899736D01*
X63323605Y-80913105D01*
X63310236Y-80929395D01*
X59772558Y-84467074D01*
X59756268Y-84480443D01*
X59742899Y-84496733D01*
X59742894Y-84496738D01*
X59702907Y-84545462D01*
X59672747Y-84601889D01*
X59663258Y-84619642D01*
X59638841Y-84700131D01*
X59635137Y-84737736D01*
X59630597Y-84783838D01*
X59632663Y-84804815D01*
X59632663Y-85511885D01*
X59533075Y-85445343D01*
X59418968Y-85398078D01*
X59297833Y-85373983D01*
X59174325Y-85373983D01*
X59053190Y-85398078D01*
X58939083Y-85445343D01*
X58836390Y-85513960D01*
X58749056Y-85601294D01*
X58680439Y-85703987D01*
X58633174Y-85818094D01*
X58609079Y-85939229D01*
X58609079Y-86062737D01*
X58633174Y-86183872D01*
X58680439Y-86297979D01*
X58749056Y-86400672D01*
X58836390Y-86488006D01*
X58939083Y-86556623D01*
X59053190Y-86603888D01*
X59174325Y-86627983D01*
X59297833Y-86627983D01*
X59418968Y-86603888D01*
X59533075Y-86556623D01*
X59632663Y-86490081D01*
X59632663Y-86858500D01*
X59014500Y-86858500D01*
X58950705Y-86864783D01*
X58889363Y-86883391D01*
X58832829Y-86913609D01*
X58783276Y-86954276D01*
X58702894Y-87034658D01*
X58671089Y-87017658D01*
X58581779Y-86990566D01*
X58488900Y-86981418D01*
X58193900Y-86981418D01*
X58101021Y-86990566D01*
X58011711Y-87017658D01*
X57929403Y-87061652D01*
X57857259Y-87120859D01*
X57798052Y-87193003D01*
X57792709Y-87203000D01*
X57774812Y-87203000D01*
X57714789Y-87142977D01*
X57612096Y-87074360D01*
X57497989Y-87027095D01*
X57376854Y-87003000D01*
X57253346Y-87003000D01*
X57132211Y-87027095D01*
X57018104Y-87074360D01*
X56915411Y-87142977D01*
X56828077Y-87230311D01*
X56759460Y-87333004D01*
X56712195Y-87447111D01*
X56688100Y-87568246D01*
X56688100Y-87691754D01*
X56712195Y-87812889D01*
X56759460Y-87926996D01*
X56828077Y-88029689D01*
X56915411Y-88117023D01*
X57018104Y-88185640D01*
X57132211Y-88232905D01*
X57253346Y-88257000D01*
X57376854Y-88257000D01*
X57497989Y-88232905D01*
X57612096Y-88185640D01*
X57714789Y-88117023D01*
X57774812Y-88057000D01*
X57792709Y-88057000D01*
X57798052Y-88066997D01*
X57857259Y-88139141D01*
X57929403Y-88198348D01*
X58011711Y-88242342D01*
X58101021Y-88269434D01*
X58193900Y-88278582D01*
X58229050Y-88278582D01*
X58226283Y-88287705D01*
X58220000Y-88351500D01*
X58220000Y-88730798D01*
X58219679Y-88730477D01*
X58116986Y-88661860D01*
X58002879Y-88614595D01*
X57881744Y-88590500D01*
X57758236Y-88590500D01*
X57637101Y-88614595D01*
X57522994Y-88661860D01*
X57420301Y-88730477D01*
X57360278Y-88790500D01*
X55964464Y-88790500D01*
X55943499Y-88788435D01*
X55922534Y-88790500D01*
X55922522Y-88790500D01*
X55859793Y-88796678D01*
X55779304Y-88821095D01*
X55745945Y-88838926D01*
X55705123Y-88860745D01*
X55656398Y-88900732D01*
X55656389Y-88900741D01*
X55640105Y-88914105D01*
X55626741Y-88930389D01*
X54830895Y-89726237D01*
X54814606Y-89739605D01*
X54801237Y-89755895D01*
X54801232Y-89755900D01*
X54761245Y-89804624D01*
X54733383Y-89856752D01*
X54721596Y-89878804D01*
X54697179Y-89959293D01*
X54692338Y-90008447D01*
X54688935Y-90043000D01*
X49648652Y-90043000D01*
X49696829Y-89362603D01*
X49790238Y-88337597D01*
X49904392Y-87314275D01*
X50039486Y-86292795D01*
X50049947Y-86224377D01*
X51912200Y-86224377D01*
X51912200Y-86495623D01*
X51965117Y-86761656D01*
X52068918Y-87012254D01*
X52219614Y-87237787D01*
X52411413Y-87429586D01*
X52636946Y-87580282D01*
X52887544Y-87684083D01*
X53153577Y-87737000D01*
X53424823Y-87737000D01*
X53690856Y-87684083D01*
X53941454Y-87580282D01*
X54166987Y-87429586D01*
X54358786Y-87237787D01*
X54509482Y-87012254D01*
X54613283Y-86761656D01*
X54666200Y-86495623D01*
X54666200Y-86224377D01*
X54613283Y-85958344D01*
X54509482Y-85707746D01*
X54358786Y-85482213D01*
X54166987Y-85290414D01*
X53941454Y-85139718D01*
X53690856Y-85035917D01*
X53424823Y-84983000D01*
X53153577Y-84983000D01*
X52887544Y-85035917D01*
X52636946Y-85139718D01*
X52411413Y-85290414D01*
X52219614Y-85482213D01*
X52068918Y-85707746D01*
X51965117Y-85958344D01*
X51912200Y-86224377D01*
X50049947Y-86224377D01*
X50186007Y-85334531D01*
X50186257Y-85334108D01*
X50189740Y-85326638D01*
X50202396Y-85302961D01*
X50205401Y-85293056D01*
X56150698Y-72543879D01*
X60058348Y-72543665D01*
X60053403Y-72552917D01*
X60030417Y-72628694D01*
X60022655Y-72707500D01*
X60024600Y-72727247D01*
X60024601Y-74529243D01*
X60022655Y-74549000D01*
X60030417Y-74627806D01*
X60053403Y-74703583D01*
X60090732Y-74773420D01*
X60140968Y-74834632D01*
X60202180Y-74884868D01*
X60272017Y-74922197D01*
X60347794Y-74945183D01*
X60406853Y-74951000D01*
X60426600Y-74952945D01*
X60446347Y-74951000D01*
X63079255Y-74951000D01*
X62945944Y-74977517D01*
X62695346Y-75081318D01*
X62469813Y-75232014D01*
X62278014Y-75423813D01*
X62127318Y-75649346D01*
X62023517Y-75899944D01*
X61970600Y-76165977D01*
X61970600Y-76437223D01*
X62023517Y-76703256D01*
X62127318Y-76953854D01*
X62278014Y-77179387D01*
X62469813Y-77371186D01*
X62695346Y-77521882D01*
X62945944Y-77625683D01*
X63211977Y-77678600D01*
X63483223Y-77678600D01*
X63749256Y-77625683D01*
X63999854Y-77521882D01*
X64225387Y-77371186D01*
X64417186Y-77179387D01*
X64567882Y-76953854D01*
X64671683Y-76703256D01*
X64724600Y-76437223D01*
X64724600Y-76165977D01*
X64671683Y-75899944D01*
X64567882Y-75649346D01*
X64417186Y-75423813D01*
X64225387Y-75232014D01*
X63999854Y-75081318D01*
X63749256Y-74977517D01*
X63615945Y-74951000D01*
X77303255Y-74951000D01*
X77169944Y-74977517D01*
X76919346Y-75081318D01*
X76693813Y-75232014D01*
X76502014Y-75423813D01*
X76351318Y-75649346D01*
X76247517Y-75899944D01*
X76194600Y-76165977D01*
X76194600Y-76437223D01*
X76247517Y-76703256D01*
X76351318Y-76953854D01*
X76502014Y-77179387D01*
X76693813Y-77371186D01*
X76919346Y-77521882D01*
X77169944Y-77625683D01*
X77435977Y-77678600D01*
X77707223Y-77678600D01*
X77973256Y-77625683D01*
X78223854Y-77521882D01*
X78449387Y-77371186D01*
X78641186Y-77179387D01*
X78791882Y-76953854D01*
X78895683Y-76703256D01*
X78948600Y-76437223D01*
X78948600Y-76165977D01*
X78895683Y-75899944D01*
X78791882Y-75649346D01*
X78641186Y-75423813D01*
X78449387Y-75232014D01*
X78223854Y-75081318D01*
X77973256Y-74977517D01*
X77839945Y-74951000D01*
X80472853Y-74951000D01*
X80492600Y-74952945D01*
X80512347Y-74951000D01*
X80571406Y-74945183D01*
X80647183Y-74922197D01*
X80717020Y-74884868D01*
X80778232Y-74834632D01*
X80828468Y-74773420D01*
X80865797Y-74703583D01*
X80888783Y-74627806D01*
X80896545Y-74549000D01*
X80894600Y-74529253D01*
X80894600Y-72727247D01*
X80896545Y-72707500D01*
X80888783Y-72628694D01*
X80865797Y-72552917D01*
X80860244Y-72542528D01*
X84764506Y-72542314D01*
X90716279Y-85309115D01*
G37*
X90716279Y-85309115D02*
X90718121Y-85313927D01*
X90724067Y-85325819D01*
X90725412Y-85328705D01*
X90873698Y-86292788D01*
X91009589Y-87314205D01*
X91124638Y-88337535D01*
X91218938Y-89362331D01*
X91292391Y-90388499D01*
X91344999Y-91415563D01*
X91376764Y-92443289D01*
X91387682Y-93471427D01*
X91377857Y-94499456D01*
X91347085Y-95527193D01*
X91295567Y-96554363D01*
X91223103Y-97580579D01*
X91129902Y-98605504D01*
X91015850Y-99628893D01*
X90880852Y-100650308D01*
X90735867Y-101599223D01*
X90734683Y-101601223D01*
X90726132Y-101615344D01*
X90725312Y-101617057D01*
X90724328Y-101618720D01*
X90717247Y-101633909D01*
X90702107Y-101665546D01*
X90701632Y-101667407D01*
X84765295Y-114401791D01*
X80860088Y-114401764D01*
X80865797Y-114391083D01*
X80888783Y-114315306D01*
X80894600Y-114256247D01*
X80896545Y-114236500D01*
X80894600Y-114216753D01*
X80894600Y-112414747D01*
X80896545Y-112395000D01*
X80888783Y-112316194D01*
X80865797Y-112240417D01*
X80828468Y-112170580D01*
X80778232Y-112109368D01*
X80717020Y-112059132D01*
X80647183Y-112021803D01*
X80571406Y-111998817D01*
X80512347Y-111993000D01*
X80492600Y-111991055D01*
X80472853Y-111993000D01*
X77839945Y-111993000D01*
X77973256Y-111966483D01*
X78223854Y-111862682D01*
X78449387Y-111711986D01*
X78641186Y-111520187D01*
X78791882Y-111294654D01*
X78895683Y-111044056D01*
X78948600Y-110778023D01*
X78948600Y-110506777D01*
X78895683Y-110240744D01*
X78791882Y-109990146D01*
X78641186Y-109764613D01*
X78449387Y-109572814D01*
X78223854Y-109422118D01*
X77973256Y-109318317D01*
X77707223Y-109265400D01*
X77435977Y-109265400D01*
X77169944Y-109318317D01*
X76919346Y-109422118D01*
X76693813Y-109572814D01*
X76502014Y-109764613D01*
X76351318Y-109990146D01*
X76247517Y-110240744D01*
X76194600Y-110506777D01*
X76194600Y-110778023D01*
X76247517Y-111044056D01*
X76351318Y-111294654D01*
X76502014Y-111520187D01*
X76693813Y-111711986D01*
X76919346Y-111862682D01*
X77169944Y-111966483D01*
X77303255Y-111993000D01*
X63615945Y-111993000D01*
X63749256Y-111966483D01*
X63999854Y-111862682D01*
X64225387Y-111711986D01*
X64417186Y-111520187D01*
X64567882Y-111294654D01*
X64671683Y-111044056D01*
X64724600Y-110778023D01*
X64724600Y-110506777D01*
X64671683Y-110240744D01*
X64567882Y-109990146D01*
X64417186Y-109764613D01*
X64225387Y-109572814D01*
X63999854Y-109422118D01*
X63749256Y-109318317D01*
X63483223Y-109265400D01*
X63211977Y-109265400D01*
X62945944Y-109318317D01*
X62695346Y-109422118D01*
X62469813Y-109572814D01*
X62278014Y-109764613D01*
X62127318Y-109990146D01*
X62023517Y-110240744D01*
X61970600Y-110506777D01*
X61970600Y-110778023D01*
X62023517Y-111044056D01*
X62127318Y-111294654D01*
X62278014Y-111520187D01*
X62469813Y-111711986D01*
X62695346Y-111862682D01*
X62945944Y-111966483D01*
X63079255Y-111993000D01*
X60446347Y-111993000D01*
X60426600Y-111991055D01*
X60406853Y-111993000D01*
X60347794Y-111998817D01*
X60272017Y-112021803D01*
X60202180Y-112059132D01*
X60140968Y-112109368D01*
X60090732Y-112170580D01*
X60053403Y-112240417D01*
X60030417Y-112316194D01*
X60022655Y-112395000D01*
X60024600Y-112414747D01*
X60024601Y-114216743D01*
X60022655Y-114236500D01*
X60030417Y-114315306D01*
X60053403Y-114391083D01*
X60059036Y-114401621D01*
X56151178Y-114401594D01*
X52521257Y-106617141D01*
X67409852Y-106617141D01*
X67454409Y-106775808D01*
X67620787Y-106851055D01*
X67798649Y-106892398D01*
X67981158Y-106898248D01*
X68161302Y-106868380D01*
X68332157Y-106803941D01*
X68384791Y-106775808D01*
X68429348Y-106617141D01*
X67919600Y-106107393D01*
X67409852Y-106617141D01*
X52521257Y-106617141D01*
X51990423Y-105478756D01*
X65713291Y-105478756D01*
X65713291Y-105602264D01*
X65737386Y-105723399D01*
X65784651Y-105837506D01*
X65853268Y-105940199D01*
X65940602Y-106027533D01*
X66043295Y-106096150D01*
X66157402Y-106143415D01*
X66278537Y-106167510D01*
X66402045Y-106167510D01*
X66523180Y-106143415D01*
X66637287Y-106096150D01*
X66735752Y-106030358D01*
X66990152Y-106030358D01*
X67020020Y-106210502D01*
X67084459Y-106381357D01*
X67112592Y-106433991D01*
X67271259Y-106478548D01*
X67781007Y-105968800D01*
X68058193Y-105968800D01*
X68567941Y-106478548D01*
X68726608Y-106433991D01*
X68801855Y-106267613D01*
X68843198Y-106089751D01*
X68849048Y-105907242D01*
X68819180Y-105727098D01*
X68754741Y-105556243D01*
X68726608Y-105503609D01*
X68567941Y-105459052D01*
X68058193Y-105968800D01*
X67781007Y-105968800D01*
X67271259Y-105459052D01*
X67112592Y-105503609D01*
X67037345Y-105669987D01*
X66996002Y-105847849D01*
X66990152Y-106030358D01*
X66735752Y-106030358D01*
X66739980Y-106027533D01*
X66827314Y-105940199D01*
X66895931Y-105837506D01*
X66943196Y-105723399D01*
X66967291Y-105602264D01*
X66967291Y-105478756D01*
X66943196Y-105357621D01*
X66927803Y-105320459D01*
X67409852Y-105320459D01*
X67919600Y-105830207D01*
X68429348Y-105320459D01*
X68384791Y-105161792D01*
X68218413Y-105086545D01*
X68040551Y-105045202D01*
X67858042Y-105039352D01*
X67677898Y-105069220D01*
X67507043Y-105133659D01*
X67454409Y-105161792D01*
X67409852Y-105320459D01*
X66927803Y-105320459D01*
X66895931Y-105243514D01*
X66827314Y-105140821D01*
X66739980Y-105053487D01*
X66637287Y-104984870D01*
X66523180Y-104937605D01*
X66402045Y-104913510D01*
X66278537Y-104913510D01*
X66157402Y-104937605D01*
X66043295Y-104984870D01*
X65940602Y-105053487D01*
X65853268Y-105140821D01*
X65784651Y-105243514D01*
X65737386Y-105357621D01*
X65713291Y-105478756D01*
X51990423Y-105478756D01*
X51289983Y-103976646D01*
X62771400Y-103976646D01*
X62771400Y-104100154D01*
X62795495Y-104221289D01*
X62842760Y-104335396D01*
X62911377Y-104438089D01*
X62998711Y-104525423D01*
X63101404Y-104594040D01*
X63215511Y-104641305D01*
X63336646Y-104665400D01*
X63460154Y-104665400D01*
X63581289Y-104641305D01*
X63695396Y-104594040D01*
X63798089Y-104525423D01*
X63885423Y-104438089D01*
X63954040Y-104335396D01*
X64001305Y-104221289D01*
X64025400Y-104100154D01*
X64025400Y-103976646D01*
X64001305Y-103855511D01*
X63954040Y-103741404D01*
X63885423Y-103638711D01*
X63798089Y-103551377D01*
X63695396Y-103482760D01*
X63581289Y-103435495D01*
X63460154Y-103411400D01*
X63336646Y-103411400D01*
X63215511Y-103435495D01*
X63101404Y-103482760D01*
X62998711Y-103551377D01*
X62911377Y-103638711D01*
X62842760Y-103741404D01*
X62795495Y-103855511D01*
X62771400Y-103976646D01*
X51289983Y-103976646D01*
X50373566Y-102011370D01*
X60001084Y-102011370D01*
X60001084Y-102134878D01*
X60025179Y-102256013D01*
X60072444Y-102370120D01*
X60141061Y-102472813D01*
X60228395Y-102560147D01*
X60331088Y-102628764D01*
X60445195Y-102676029D01*
X60566330Y-102700124D01*
X60689838Y-102700124D01*
X60810973Y-102676029D01*
X60925080Y-102628764D01*
X61027773Y-102560147D01*
X61115107Y-102472813D01*
X61183724Y-102370120D01*
X61230989Y-102256013D01*
X61255084Y-102134878D01*
X61255084Y-102011370D01*
X61230989Y-101890235D01*
X61183724Y-101776128D01*
X61115107Y-101673435D01*
X61027773Y-101586101D01*
X60925080Y-101517484D01*
X60810973Y-101470219D01*
X60689838Y-101446124D01*
X60566330Y-101446124D01*
X60445195Y-101470219D01*
X60331088Y-101517484D01*
X60228395Y-101586101D01*
X60141061Y-101673435D01*
X60072444Y-101776128D01*
X60025179Y-101890235D01*
X60001084Y-102011370D01*
X50373566Y-102011370D01*
X50194837Y-101628082D01*
X50044446Y-100650203D01*
X50017612Y-100448377D01*
X51912200Y-100448377D01*
X51912200Y-100719623D01*
X51965117Y-100985656D01*
X52068918Y-101236254D01*
X52219614Y-101461787D01*
X52411413Y-101653586D01*
X52636946Y-101804282D01*
X52887544Y-101908083D01*
X53153577Y-101961000D01*
X53424823Y-101961000D01*
X53690856Y-101908083D01*
X53941454Y-101804282D01*
X54166987Y-101653586D01*
X54358786Y-101461787D01*
X54509482Y-101236254D01*
X54613283Y-100985656D01*
X54666200Y-100719623D01*
X54666200Y-100448377D01*
X54655290Y-100393524D01*
X59356844Y-100393524D01*
X59356844Y-100517032D01*
X59380939Y-100638167D01*
X59428204Y-100752274D01*
X59496821Y-100854967D01*
X59584155Y-100942301D01*
X59686848Y-101010918D01*
X59800955Y-101058183D01*
X59922090Y-101082278D01*
X60045598Y-101082278D01*
X60166733Y-101058183D01*
X60280840Y-101010918D01*
X60383533Y-100942301D01*
X60470867Y-100854967D01*
X60539484Y-100752274D01*
X60586749Y-100638167D01*
X60610844Y-100517032D01*
X60610844Y-100393524D01*
X60586749Y-100272389D01*
X60539484Y-100158282D01*
X60470867Y-100055589D01*
X60383533Y-99968255D01*
X60280840Y-99899638D01*
X60166733Y-99852373D01*
X60045598Y-99828278D01*
X59922090Y-99828278D01*
X59800955Y-99852373D01*
X59686848Y-99899638D01*
X59584155Y-99968255D01*
X59496821Y-100055589D01*
X59428204Y-100158282D01*
X59380939Y-100272389D01*
X59356844Y-100393524D01*
X54655290Y-100393524D01*
X54613283Y-100182344D01*
X54509482Y-99931746D01*
X54358786Y-99706213D01*
X54166987Y-99514414D01*
X53941454Y-99363718D01*
X53690856Y-99259917D01*
X53424823Y-99207000D01*
X53153577Y-99207000D01*
X52887544Y-99259917D01*
X52636946Y-99363718D01*
X52411413Y-99514414D01*
X52219614Y-99706213D01*
X52068918Y-99931746D01*
X51965117Y-100182344D01*
X51912200Y-100448377D01*
X50017612Y-100448377D01*
X49908651Y-99628871D01*
X49793611Y-98605628D01*
X49699508Y-97580714D01*
X49626152Y-96554633D01*
X49573744Y-95527578D01*
X49542179Y-94499851D01*
X49531459Y-93471759D01*
X49541483Y-92443732D01*
X49572454Y-91415941D01*
X49624169Y-90388778D01*
X49648652Y-90043000D01*
X54688935Y-90043000D01*
X54691001Y-90063977D01*
X54691000Y-97578533D01*
X54688935Y-97599500D01*
X54691000Y-97620467D01*
X54691000Y-97620477D01*
X54697178Y-97683206D01*
X54721595Y-97763695D01*
X54730393Y-97780154D01*
X54761245Y-97837876D01*
X54801232Y-97886600D01*
X54814605Y-97902895D01*
X54830900Y-97916268D01*
X56388736Y-99474105D01*
X56402105Y-99490395D01*
X56418395Y-99503764D01*
X56418399Y-99503768D01*
X56467123Y-99543755D01*
X56485507Y-99553581D01*
X56541304Y-99583405D01*
X56621793Y-99607822D01*
X56684522Y-99614000D01*
X56684532Y-99614000D01*
X56705499Y-99616065D01*
X56726466Y-99614000D01*
X60299534Y-99614000D01*
X60952758Y-100267224D01*
X60917558Y-100281805D01*
X60814865Y-100350422D01*
X60727531Y-100437756D01*
X60658914Y-100540449D01*
X60611649Y-100654556D01*
X60587554Y-100775691D01*
X60587554Y-100899199D01*
X60611649Y-101020334D01*
X60658914Y-101134441D01*
X60727531Y-101237134D01*
X60814865Y-101324468D01*
X60917558Y-101393085D01*
X61031665Y-101440350D01*
X61152800Y-101464445D01*
X61276308Y-101464445D01*
X61397443Y-101440350D01*
X61511550Y-101393085D01*
X61614243Y-101324468D01*
X61701577Y-101237134D01*
X61770194Y-101134441D01*
X61784774Y-101099241D01*
X65303138Y-104617605D01*
X65316507Y-104633895D01*
X65332797Y-104647264D01*
X65332800Y-104647267D01*
X65381525Y-104687255D01*
X65421175Y-104708448D01*
X65455706Y-104726905D01*
X65536195Y-104751322D01*
X65598924Y-104757500D01*
X65598944Y-104757500D01*
X65619901Y-104759564D01*
X65640858Y-104757500D01*
X68475888Y-104757500D01*
X68535911Y-104817523D01*
X68638604Y-104886140D01*
X68752711Y-104933405D01*
X68873846Y-104957500D01*
X68997354Y-104957500D01*
X69118489Y-104933405D01*
X69232596Y-104886140D01*
X69335289Y-104817523D01*
X69395312Y-104757500D01*
X70501244Y-104757500D01*
X70187286Y-105071459D01*
X70171838Y-105084137D01*
X70121227Y-105145806D01*
X70083620Y-105216164D01*
X70079028Y-105231301D01*
X70067869Y-105235923D01*
X69932419Y-105326428D01*
X69817228Y-105441619D01*
X69726723Y-105577069D01*
X69664382Y-105727573D01*
X69632600Y-105887348D01*
X69632600Y-106050252D01*
X69664382Y-106210027D01*
X69726723Y-106360531D01*
X69817228Y-106495981D01*
X69932419Y-106611172D01*
X70067869Y-106701677D01*
X70218373Y-106764018D01*
X70378148Y-106795800D01*
X70541052Y-106795800D01*
X70700827Y-106764018D01*
X70851331Y-106701677D01*
X70986781Y-106611172D01*
X71023920Y-106574033D01*
X71064777Y-106635181D01*
X71152111Y-106722515D01*
X71254804Y-106791132D01*
X71368911Y-106838397D01*
X71490046Y-106862492D01*
X71613554Y-106862492D01*
X71734689Y-106838397D01*
X71848796Y-106791132D01*
X71951489Y-106722515D01*
X72038823Y-106635181D01*
X72107440Y-106532488D01*
X72154705Y-106418381D01*
X72178800Y-106297246D01*
X72178800Y-106173738D01*
X72154705Y-106052603D01*
X72107440Y-105938496D01*
X72038823Y-105835803D01*
X71951489Y-105748469D01*
X71848796Y-105679852D01*
X71734689Y-105632587D01*
X71613554Y-105608492D01*
X71490046Y-105608492D01*
X71368911Y-105632587D01*
X71254804Y-105679852D01*
X71239333Y-105690189D01*
X71192477Y-105577069D01*
X71101972Y-105441619D01*
X71032304Y-105371951D01*
X71249656Y-105154600D01*
X72853800Y-105154600D01*
X72758373Y-105173582D01*
X72607869Y-105235923D01*
X72472419Y-105326428D01*
X72357228Y-105441619D01*
X72266723Y-105577069D01*
X72204382Y-105727573D01*
X72172600Y-105887348D01*
X72172600Y-106050252D01*
X72204382Y-106210027D01*
X72266723Y-106360531D01*
X72357228Y-106495981D01*
X72472419Y-106611172D01*
X72572601Y-106678111D01*
X72572601Y-107138126D01*
X72514731Y-107195996D01*
X72429846Y-107195996D01*
X72308711Y-107220091D01*
X72194604Y-107267356D01*
X72091911Y-107335973D01*
X72004577Y-107423307D01*
X71935960Y-107526000D01*
X71888695Y-107640107D01*
X71864600Y-107761242D01*
X71864600Y-107884750D01*
X71888695Y-108005885D01*
X71935960Y-108119992D01*
X72004577Y-108222685D01*
X72091911Y-108310019D01*
X72194604Y-108378636D01*
X72308711Y-108425901D01*
X72429846Y-108449996D01*
X72553354Y-108449996D01*
X72674489Y-108425901D01*
X72788596Y-108378636D01*
X72891289Y-108310019D01*
X72978623Y-108222685D01*
X73047240Y-108119992D01*
X73062285Y-108083670D01*
X83497000Y-108083670D01*
X83497000Y-108197330D01*
X83519174Y-108308805D01*
X83562669Y-108413812D01*
X83625815Y-108508316D01*
X83706184Y-108588685D01*
X83800688Y-108651831D01*
X83905695Y-108695326D01*
X84017170Y-108717500D01*
X84130830Y-108717500D01*
X84242305Y-108695326D01*
X84347312Y-108651831D01*
X84441816Y-108588685D01*
X84522185Y-108508316D01*
X84585331Y-108413812D01*
X84628826Y-108308805D01*
X84651000Y-108197330D01*
X84651000Y-108083670D01*
X84628826Y-107972195D01*
X84585331Y-107867188D01*
X84522185Y-107772684D01*
X84441816Y-107692315D01*
X84347312Y-107629169D01*
X84242305Y-107585674D01*
X84130830Y-107563500D01*
X84017170Y-107563500D01*
X83905695Y-107585674D01*
X83800688Y-107629169D01*
X83706184Y-107692315D01*
X83625815Y-107772684D01*
X83562669Y-107867188D01*
X83519174Y-107972195D01*
X83497000Y-108083670D01*
X73062285Y-108083670D01*
X73094505Y-108005885D01*
X73118600Y-107884750D01*
X73118600Y-107799865D01*
X73286705Y-107631760D01*
X73302995Y-107618391D01*
X73316364Y-107602101D01*
X73316367Y-107602098D01*
X73356355Y-107553373D01*
X73396004Y-107479193D01*
X73396005Y-107479192D01*
X73420422Y-107398703D01*
X73426600Y-107335974D01*
X73426600Y-107335954D01*
X73428664Y-107314997D01*
X73426600Y-107294040D01*
X73426600Y-106678111D01*
X73526781Y-106611172D01*
X73641972Y-106495981D01*
X73732477Y-106360531D01*
X73794818Y-106210027D01*
X73826600Y-106050252D01*
X73826600Y-105887348D01*
X73794818Y-105727573D01*
X73732477Y-105577069D01*
X73641972Y-105441619D01*
X73526781Y-105326428D01*
X73391331Y-105235923D01*
X73240827Y-105173582D01*
X73145400Y-105154600D01*
X74308266Y-105154600D01*
X74227065Y-105235801D01*
X74158448Y-105338494D01*
X74111183Y-105452601D01*
X74087088Y-105573736D01*
X74087088Y-105697244D01*
X74111183Y-105818379D01*
X74158448Y-105932486D01*
X74227065Y-106035179D01*
X74314399Y-106122513D01*
X74417092Y-106191130D01*
X74531199Y-106238395D01*
X74652334Y-106262490D01*
X74775842Y-106262490D01*
X74896977Y-106238395D01*
X75011084Y-106191130D01*
X75113777Y-106122513D01*
X75201111Y-106035179D01*
X75269728Y-105932486D01*
X75316993Y-105818379D01*
X75341088Y-105697244D01*
X75341088Y-105573736D01*
X75316993Y-105452601D01*
X75269728Y-105338494D01*
X75201111Y-105235801D01*
X75119910Y-105154600D01*
X75189519Y-105154600D01*
X75209400Y-105156558D01*
X75229281Y-105154600D01*
X75229289Y-105154600D01*
X75288794Y-105148739D01*
X75365136Y-105125581D01*
X75394203Y-105110044D01*
X75404653Y-105162580D01*
X75451918Y-105276687D01*
X75520535Y-105379380D01*
X75607869Y-105466714D01*
X75710562Y-105535331D01*
X75824669Y-105582596D01*
X75945804Y-105606691D01*
X76069312Y-105606691D01*
X76190447Y-105582596D01*
X76304554Y-105535331D01*
X76407247Y-105466714D01*
X76494581Y-105379380D01*
X76503951Y-105365356D01*
X84779186Y-105365356D01*
X84779186Y-105479016D01*
X84801360Y-105590491D01*
X84844855Y-105695498D01*
X84908001Y-105790002D01*
X84988370Y-105870371D01*
X85082874Y-105933517D01*
X85187881Y-105977012D01*
X85299356Y-105999186D01*
X85413016Y-105999186D01*
X85524491Y-105977012D01*
X85629498Y-105933517D01*
X85724002Y-105870371D01*
X85804371Y-105790002D01*
X85867517Y-105695498D01*
X85911012Y-105590491D01*
X85933186Y-105479016D01*
X85933186Y-105365356D01*
X85911012Y-105253881D01*
X85867517Y-105148874D01*
X85804371Y-105054370D01*
X85724002Y-104974001D01*
X85629498Y-104910855D01*
X85524491Y-104867360D01*
X85413016Y-104845186D01*
X85299356Y-104845186D01*
X85187881Y-104867360D01*
X85082874Y-104910855D01*
X84988370Y-104974001D01*
X84908001Y-105054370D01*
X84844855Y-105148874D01*
X84801360Y-105253881D01*
X84779186Y-105365356D01*
X76503951Y-105365356D01*
X76563198Y-105276687D01*
X76610463Y-105162580D01*
X76634558Y-105041445D01*
X76634558Y-104917937D01*
X76610463Y-104796802D01*
X76563198Y-104682695D01*
X76494581Y-104580002D01*
X76407247Y-104492668D01*
X76304554Y-104424051D01*
X76190447Y-104376786D01*
X76160855Y-104370900D01*
X77881306Y-102650450D01*
X77881306Y-102706264D01*
X77905401Y-102827399D01*
X77952666Y-102941506D01*
X78021283Y-103044199D01*
X78108617Y-103131533D01*
X78211310Y-103200150D01*
X78325417Y-103247415D01*
X78446552Y-103271510D01*
X78570060Y-103271510D01*
X78691195Y-103247415D01*
X78805302Y-103200150D01*
X78907995Y-103131533D01*
X78995329Y-103044199D01*
X79063946Y-102941506D01*
X79111211Y-102827399D01*
X79135306Y-102706264D01*
X79135306Y-102582756D01*
X79111211Y-102461621D01*
X79063946Y-102347514D01*
X78995329Y-102244821D01*
X78907995Y-102157487D01*
X78805302Y-102088870D01*
X78691195Y-102041605D01*
X78570060Y-102017510D01*
X78514246Y-102017510D01*
X79583816Y-100947940D01*
X79599263Y-100935263D01*
X79649874Y-100873594D01*
X79668899Y-100838000D01*
X80190088Y-100838000D01*
X80219911Y-100867823D01*
X80322604Y-100936440D01*
X80436711Y-100983705D01*
X80557846Y-101007800D01*
X80681354Y-101007800D01*
X80802489Y-100983705D01*
X80916596Y-100936440D01*
X81019289Y-100867823D01*
X81106623Y-100780489D01*
X81175240Y-100677796D01*
X81222505Y-100563689D01*
X81245441Y-100448377D01*
X86253000Y-100448377D01*
X86253000Y-100719623D01*
X86305917Y-100985656D01*
X86409718Y-101236254D01*
X86560414Y-101461787D01*
X86752213Y-101653586D01*
X86977746Y-101804282D01*
X87228344Y-101908083D01*
X87494377Y-101961000D01*
X87765623Y-101961000D01*
X88031656Y-101908083D01*
X88282254Y-101804282D01*
X88507787Y-101653586D01*
X88699586Y-101461787D01*
X88850282Y-101236254D01*
X88954083Y-100985656D01*
X89007000Y-100719623D01*
X89007000Y-100448377D01*
X88954083Y-100182344D01*
X88850282Y-99931746D01*
X88699586Y-99706213D01*
X88507787Y-99514414D01*
X88282254Y-99363718D01*
X88031656Y-99259917D01*
X87765623Y-99207000D01*
X87494377Y-99207000D01*
X87228344Y-99259917D01*
X86977746Y-99363718D01*
X86752213Y-99514414D01*
X86560414Y-99706213D01*
X86409718Y-99931746D01*
X86305917Y-100182344D01*
X86253000Y-100448377D01*
X81245441Y-100448377D01*
X81246600Y-100442554D01*
X81246600Y-100319046D01*
X81222505Y-100197911D01*
X81175240Y-100083804D01*
X81106623Y-99981111D01*
X81019289Y-99893777D01*
X80916596Y-99825160D01*
X80802489Y-99777895D01*
X80681354Y-99753800D01*
X80640202Y-99753800D01*
X80640202Y-98833912D01*
X80700225Y-98773889D01*
X80768842Y-98671196D01*
X80816107Y-98557089D01*
X80840202Y-98435954D01*
X80840202Y-98312446D01*
X80816107Y-98191311D01*
X80768842Y-98077204D01*
X80700225Y-97974511D01*
X80612891Y-97887177D01*
X80510198Y-97818560D01*
X80440021Y-97789491D01*
X80522423Y-97707089D01*
X80591040Y-97604396D01*
X80638305Y-97490289D01*
X80662400Y-97369154D01*
X80662400Y-97245646D01*
X80638305Y-97124511D01*
X80591040Y-97010404D01*
X80570087Y-96979046D01*
X80944718Y-96687666D01*
X81008276Y-96751224D01*
X81057829Y-96791891D01*
X81114363Y-96822109D01*
X81175705Y-96840717D01*
X81239500Y-96847000D01*
X85168600Y-96847000D01*
X85232395Y-96840717D01*
X85293737Y-96822109D01*
X85350271Y-96791891D01*
X85399824Y-96751224D01*
X85549824Y-96601224D01*
X85590491Y-96551671D01*
X85620709Y-96495137D01*
X85639317Y-96433795D01*
X85645600Y-96370000D01*
X85645600Y-95891714D01*
X87434000Y-95891714D01*
X87434000Y-96005374D01*
X87456174Y-96116849D01*
X87499669Y-96221856D01*
X87562815Y-96316360D01*
X87643184Y-96396729D01*
X87737688Y-96459875D01*
X87842695Y-96503370D01*
X87954170Y-96525544D01*
X88067830Y-96525544D01*
X88179305Y-96503370D01*
X88284312Y-96459875D01*
X88378816Y-96396729D01*
X88459185Y-96316360D01*
X88522331Y-96221856D01*
X88565826Y-96116849D01*
X88588000Y-96005374D01*
X88588000Y-95891714D01*
X88565826Y-95780239D01*
X88522331Y-95675232D01*
X88459185Y-95580728D01*
X88378816Y-95500359D01*
X88284312Y-95437213D01*
X88179305Y-95393718D01*
X88067830Y-95371544D01*
X87954170Y-95371544D01*
X87842695Y-95393718D01*
X87737688Y-95437213D01*
X87643184Y-95500359D01*
X87562815Y-95580728D01*
X87499669Y-95675232D01*
X87456174Y-95780239D01*
X87434000Y-95891714D01*
X85645600Y-95891714D01*
X85645600Y-92907170D01*
X87434000Y-92907170D01*
X87434000Y-93020830D01*
X87456174Y-93132305D01*
X87499669Y-93237312D01*
X87562815Y-93331816D01*
X87643184Y-93412185D01*
X87737688Y-93475331D01*
X87842695Y-93518826D01*
X87954170Y-93541000D01*
X88067830Y-93541000D01*
X88179305Y-93518826D01*
X88284312Y-93475331D01*
X88378816Y-93412185D01*
X88459185Y-93331816D01*
X88522331Y-93237312D01*
X88565826Y-93132305D01*
X88588000Y-93020830D01*
X88588000Y-92907170D01*
X88565826Y-92795695D01*
X88522331Y-92690688D01*
X88459185Y-92596184D01*
X88378816Y-92515815D01*
X88284312Y-92452669D01*
X88179305Y-92409174D01*
X88067830Y-92387000D01*
X87954170Y-92387000D01*
X87842695Y-92409174D01*
X87737688Y-92452669D01*
X87643184Y-92515815D01*
X87562815Y-92596184D01*
X87499669Y-92690688D01*
X87456174Y-92795695D01*
X87434000Y-92907170D01*
X85645600Y-92907170D01*
X85645600Y-88415000D01*
X85639317Y-88351205D01*
X85620709Y-88289863D01*
X85590491Y-88233329D01*
X85549824Y-88183776D01*
X85399824Y-88033776D01*
X85350271Y-87993109D01*
X85293737Y-87962891D01*
X85232395Y-87944283D01*
X85168600Y-87938000D01*
X83403251Y-87938000D01*
X83401400Y-87834750D01*
X83294650Y-87728000D01*
X82777400Y-87728000D01*
X82777400Y-87748000D01*
X82581400Y-87748000D01*
X82581400Y-87728000D01*
X82561400Y-87728000D01*
X82561400Y-87532000D01*
X82581400Y-87532000D01*
X82581400Y-86989750D01*
X82777400Y-86989750D01*
X82777400Y-87532000D01*
X83294650Y-87532000D01*
X83401400Y-87425250D01*
X83403466Y-87310000D01*
X83395222Y-87226293D01*
X83370805Y-87145804D01*
X83331155Y-87071624D01*
X83277795Y-87006605D01*
X83212776Y-86953245D01*
X83138596Y-86913595D01*
X83058107Y-86889178D01*
X82974400Y-86880934D01*
X82884150Y-86883000D01*
X82777400Y-86989750D01*
X82581400Y-86989750D01*
X82474650Y-86883000D01*
X82384400Y-86880934D01*
X82300693Y-86889178D01*
X82241257Y-86907209D01*
X82224824Y-86890776D01*
X82175271Y-86850109D01*
X82118737Y-86819891D01*
X82057395Y-86801283D01*
X81993600Y-86795000D01*
X81341100Y-86795000D01*
X81277305Y-86801283D01*
X81215963Y-86819891D01*
X81159429Y-86850109D01*
X81109876Y-86890776D01*
X80959876Y-87040776D01*
X80919209Y-87090329D01*
X80888991Y-87146863D01*
X80870383Y-87208205D01*
X80864100Y-87272000D01*
X80864100Y-87632546D01*
X80845431Y-87628833D01*
X80721923Y-87628833D01*
X80600788Y-87652928D01*
X80486681Y-87700193D01*
X80383988Y-87768810D01*
X80296654Y-87856144D01*
X80228037Y-87958837D01*
X80180772Y-88072944D01*
X80156677Y-88194079D01*
X80156677Y-88278964D01*
X80059199Y-88376443D01*
X79177353Y-87494598D01*
X79244840Y-87393596D01*
X79292105Y-87279489D01*
X79316200Y-87158354D01*
X79316200Y-87034846D01*
X79292105Y-86913711D01*
X79244840Y-86799604D01*
X79176223Y-86696911D01*
X79088889Y-86609577D01*
X78986196Y-86540960D01*
X78872089Y-86493695D01*
X78750954Y-86469600D01*
X78627446Y-86469600D01*
X78506311Y-86493695D01*
X78392204Y-86540960D01*
X78289511Y-86609577D01*
X78202177Y-86696911D01*
X78133560Y-86799604D01*
X78086295Y-86913711D01*
X78062200Y-87034846D01*
X78062200Y-87158354D01*
X78084779Y-87271869D01*
X77924700Y-87271869D01*
X77948626Y-87214105D01*
X77970800Y-87102630D01*
X77970800Y-86988970D01*
X77948626Y-86877495D01*
X77905131Y-86772488D01*
X77841985Y-86677984D01*
X77761616Y-86597615D01*
X77667112Y-86534469D01*
X77562105Y-86490974D01*
X77450630Y-86468800D01*
X77336970Y-86468800D01*
X77225495Y-86490974D01*
X77120488Y-86534469D01*
X77025984Y-86597615D01*
X76945615Y-86677984D01*
X76906986Y-86735796D01*
X76851385Y-86652584D01*
X76771016Y-86572215D01*
X76676512Y-86509069D01*
X76571505Y-86465574D01*
X76460030Y-86443400D01*
X76346370Y-86443400D01*
X76234895Y-86465574D01*
X76129888Y-86509069D01*
X76035384Y-86572215D01*
X75992199Y-86615400D01*
X75755500Y-86615400D01*
X75755500Y-86425246D01*
X79802100Y-86425246D01*
X79802100Y-86548754D01*
X79826195Y-86669889D01*
X79873460Y-86783996D01*
X79942077Y-86886689D01*
X80029411Y-86974023D01*
X80132104Y-87042640D01*
X80246211Y-87089905D01*
X80367346Y-87114000D01*
X80490854Y-87114000D01*
X80611989Y-87089905D01*
X80726096Y-87042640D01*
X80828789Y-86974023D01*
X80916123Y-86886689D01*
X80984740Y-86783996D01*
X81032005Y-86669889D01*
X81056100Y-86548754D01*
X81056100Y-86425246D01*
X81032005Y-86304111D01*
X80998978Y-86224377D01*
X86253000Y-86224377D01*
X86253000Y-86495623D01*
X86305917Y-86761656D01*
X86409718Y-87012254D01*
X86560414Y-87237787D01*
X86752213Y-87429586D01*
X86977746Y-87580282D01*
X87228344Y-87684083D01*
X87494377Y-87737000D01*
X87765623Y-87737000D01*
X88031656Y-87684083D01*
X88282254Y-87580282D01*
X88507787Y-87429586D01*
X88699586Y-87237787D01*
X88850282Y-87012254D01*
X88954083Y-86761656D01*
X89007000Y-86495623D01*
X89007000Y-86224377D01*
X88954083Y-85958344D01*
X88850282Y-85707746D01*
X88699586Y-85482213D01*
X88507787Y-85290414D01*
X88282254Y-85139718D01*
X88031656Y-85035917D01*
X87765623Y-84983000D01*
X87494377Y-84983000D01*
X87228344Y-85035917D01*
X86977746Y-85139718D01*
X86752213Y-85290414D01*
X86560414Y-85482213D01*
X86409718Y-85707746D01*
X86305917Y-85958344D01*
X86253000Y-86224377D01*
X80998978Y-86224377D01*
X80984740Y-86190004D01*
X80916123Y-86087311D01*
X80828789Y-85999977D01*
X80726096Y-85931360D01*
X80611989Y-85884095D01*
X80490854Y-85860000D01*
X80367346Y-85860000D01*
X80246211Y-85884095D01*
X80132104Y-85931360D01*
X80029411Y-85999977D01*
X79942077Y-86087311D01*
X79873460Y-86190004D01*
X79826195Y-86304111D01*
X79802100Y-86425246D01*
X75755500Y-86425246D01*
X75755500Y-86066500D01*
X77831119Y-86066500D01*
X77851000Y-86068458D01*
X77870881Y-86066500D01*
X77870889Y-86066500D01*
X77930394Y-86060639D01*
X78006736Y-86037481D01*
X78077094Y-85999874D01*
X78138763Y-85949263D01*
X78151445Y-85933810D01*
X79202820Y-84882437D01*
X79218263Y-84869763D01*
X79230936Y-84854321D01*
X79230942Y-84854315D01*
X79268874Y-84808094D01*
X79306481Y-84737737D01*
X79329639Y-84661394D01*
X79329937Y-84658372D01*
X79335500Y-84601889D01*
X79335500Y-84601882D01*
X79337458Y-84582000D01*
X79335500Y-84562118D01*
X79335500Y-83763170D01*
X85783000Y-83763170D01*
X85783000Y-83876830D01*
X85805174Y-83988305D01*
X85848669Y-84093312D01*
X85911815Y-84187816D01*
X85992184Y-84268185D01*
X86086688Y-84331331D01*
X86191695Y-84374826D01*
X86303170Y-84397000D01*
X86416830Y-84397000D01*
X86528305Y-84374826D01*
X86633312Y-84331331D01*
X86727816Y-84268185D01*
X86808185Y-84187816D01*
X86871331Y-84093312D01*
X86914826Y-83988305D01*
X86937000Y-83876830D01*
X86937000Y-83763170D01*
X86914826Y-83651695D01*
X86871331Y-83546688D01*
X86808185Y-83452184D01*
X86727816Y-83371815D01*
X86633312Y-83308669D01*
X86528305Y-83265174D01*
X86416830Y-83243000D01*
X86303170Y-83243000D01*
X86191695Y-83265174D01*
X86086688Y-83308669D01*
X85992184Y-83371815D01*
X85911815Y-83452184D01*
X85848669Y-83546688D01*
X85805174Y-83651695D01*
X85783000Y-83763170D01*
X79335500Y-83763170D01*
X79335500Y-82506378D01*
X79337458Y-82486499D01*
X79335500Y-82466620D01*
X79335500Y-82466611D01*
X79329639Y-82407106D01*
X79306481Y-82330764D01*
X79268874Y-82260406D01*
X79218263Y-82198737D01*
X79202816Y-82186060D01*
X77985926Y-80969170D01*
X84386000Y-80969170D01*
X84386000Y-81082830D01*
X84408174Y-81194305D01*
X84451669Y-81299312D01*
X84514815Y-81393816D01*
X84595184Y-81474185D01*
X84689688Y-81537331D01*
X84794695Y-81580826D01*
X84906170Y-81603000D01*
X85019830Y-81603000D01*
X85131305Y-81580826D01*
X85236312Y-81537331D01*
X85330816Y-81474185D01*
X85411185Y-81393816D01*
X85474331Y-81299312D01*
X85517826Y-81194305D01*
X85540000Y-81082830D01*
X85540000Y-80969170D01*
X85517826Y-80857695D01*
X85474331Y-80752688D01*
X85411185Y-80658184D01*
X85330816Y-80577815D01*
X85236312Y-80514669D01*
X85131305Y-80471174D01*
X85019830Y-80449000D01*
X84906170Y-80449000D01*
X84794695Y-80471174D01*
X84689688Y-80514669D01*
X84595184Y-80577815D01*
X84514815Y-80658184D01*
X84451669Y-80752688D01*
X84408174Y-80857695D01*
X84386000Y-80969170D01*
X77985926Y-80969170D01*
X76421845Y-79405090D01*
X76409163Y-79389637D01*
X76347494Y-79339026D01*
X76277136Y-79301419D01*
X76200794Y-79278261D01*
X76141289Y-79272400D01*
X76141281Y-79272400D01*
X76121400Y-79270442D01*
X76101519Y-79272400D01*
X73444688Y-79272400D01*
X73440948Y-79265403D01*
X73381741Y-79193259D01*
X73309597Y-79134052D01*
X73227289Y-79090058D01*
X73137979Y-79062966D01*
X73045100Y-79053818D01*
X72700100Y-79053818D01*
X72607221Y-79062966D01*
X72517911Y-79090058D01*
X72435603Y-79134052D01*
X72363459Y-79193259D01*
X72304252Y-79265403D01*
X72260258Y-79347711D01*
X72233166Y-79437021D01*
X72224018Y-79529900D01*
X72224018Y-79824900D01*
X72233166Y-79917779D01*
X72260258Y-80007089D01*
X72288176Y-80059320D01*
X72138182Y-79909327D01*
X72138182Y-79322000D01*
X72131868Y-79257897D01*
X72113170Y-79196257D01*
X72082806Y-79139450D01*
X72041943Y-79089657D01*
X71992150Y-79048794D01*
X71935343Y-79018430D01*
X71873703Y-78999732D01*
X71809600Y-78993418D01*
X71009600Y-78993418D01*
X70945497Y-78999732D01*
X70883857Y-79018430D01*
X70827050Y-79048794D01*
X70777257Y-79089657D01*
X70736394Y-79139450D01*
X70706030Y-79196257D01*
X70687332Y-79257897D01*
X70681018Y-79322000D01*
X70681018Y-80222000D01*
X70687332Y-80286103D01*
X70706030Y-80347743D01*
X70736394Y-80404550D01*
X70777257Y-80454343D01*
X70778543Y-80455398D01*
X70140657Y-80455398D01*
X70141943Y-80454343D01*
X70182806Y-80404550D01*
X70213170Y-80347743D01*
X70231868Y-80286103D01*
X70238182Y-80222000D01*
X70238182Y-79322000D01*
X70231868Y-79257897D01*
X70213170Y-79196257D01*
X70182806Y-79139450D01*
X70141943Y-79089657D01*
X70092150Y-79048794D01*
X70035343Y-79018430D01*
X69973703Y-78999732D01*
X69909600Y-78993418D01*
X69109600Y-78993418D01*
X69045497Y-78999732D01*
X68983857Y-79018430D01*
X68927050Y-79048794D01*
X68877257Y-79089657D01*
X68836394Y-79139450D01*
X68806030Y-79196257D01*
X68787332Y-79257897D01*
X68781018Y-79322000D01*
X68781018Y-79478000D01*
X68645371Y-79478000D01*
X68640348Y-79468603D01*
X68581141Y-79396459D01*
X68508997Y-79337252D01*
X68426689Y-79293258D01*
X68337379Y-79266166D01*
X68244500Y-79257018D01*
X67899500Y-79257018D01*
X67806621Y-79266166D01*
X67717311Y-79293258D01*
X67635003Y-79337252D01*
X67562859Y-79396459D01*
X67503652Y-79468603D01*
X67459658Y-79550911D01*
X67432566Y-79640221D01*
X67423418Y-79733100D01*
X67423418Y-80028100D01*
X67432566Y-80120979D01*
X67459658Y-80210289D01*
X67503652Y-80292597D01*
X67562859Y-80364741D01*
X67563906Y-80365600D01*
X67562859Y-80366459D01*
X67503652Y-80438603D01*
X67459658Y-80520911D01*
X67432566Y-80610221D01*
X67423418Y-80703100D01*
X67423418Y-80998100D01*
X67432566Y-81090979D01*
X67437426Y-81107000D01*
X66889969Y-81107000D01*
X66712368Y-80929400D01*
X66698995Y-80913105D01*
X66633976Y-80859745D01*
X66559796Y-80820095D01*
X66479307Y-80795678D01*
X66416578Y-80789500D01*
X66416567Y-80789500D01*
X66395600Y-80787435D01*
X66374633Y-80789500D01*
X63647967Y-80789500D01*
X63627000Y-80787435D01*
X63606033Y-80789500D01*
X63606022Y-80789500D01*
X63543293Y-80795678D01*
X63462804Y-80820095D01*
X63445538Y-80829324D01*
X63388623Y-80859744D01*
X63339899Y-80899732D01*
X63339895Y-80899736D01*
X63323605Y-80913105D01*
X63310236Y-80929395D01*
X59772558Y-84467074D01*
X59756268Y-84480443D01*
X59742899Y-84496733D01*
X59742894Y-84496738D01*
X59702907Y-84545462D01*
X59672747Y-84601889D01*
X59663258Y-84619642D01*
X59638841Y-84700131D01*
X59635137Y-84737736D01*
X59630597Y-84783838D01*
X59632663Y-84804815D01*
X59632663Y-85511885D01*
X59533075Y-85445343D01*
X59418968Y-85398078D01*
X59297833Y-85373983D01*
X59174325Y-85373983D01*
X59053190Y-85398078D01*
X58939083Y-85445343D01*
X58836390Y-85513960D01*
X58749056Y-85601294D01*
X58680439Y-85703987D01*
X58633174Y-85818094D01*
X58609079Y-85939229D01*
X58609079Y-86062737D01*
X58633174Y-86183872D01*
X58680439Y-86297979D01*
X58749056Y-86400672D01*
X58836390Y-86488006D01*
X58939083Y-86556623D01*
X59053190Y-86603888D01*
X59174325Y-86627983D01*
X59297833Y-86627983D01*
X59418968Y-86603888D01*
X59533075Y-86556623D01*
X59632663Y-86490081D01*
X59632663Y-86858500D01*
X59014500Y-86858500D01*
X58950705Y-86864783D01*
X58889363Y-86883391D01*
X58832829Y-86913609D01*
X58783276Y-86954276D01*
X58702894Y-87034658D01*
X58671089Y-87017658D01*
X58581779Y-86990566D01*
X58488900Y-86981418D01*
X58193900Y-86981418D01*
X58101021Y-86990566D01*
X58011711Y-87017658D01*
X57929403Y-87061652D01*
X57857259Y-87120859D01*
X57798052Y-87193003D01*
X57792709Y-87203000D01*
X57774812Y-87203000D01*
X57714789Y-87142977D01*
X57612096Y-87074360D01*
X57497989Y-87027095D01*
X57376854Y-87003000D01*
X57253346Y-87003000D01*
X57132211Y-87027095D01*
X57018104Y-87074360D01*
X56915411Y-87142977D01*
X56828077Y-87230311D01*
X56759460Y-87333004D01*
X56712195Y-87447111D01*
X56688100Y-87568246D01*
X56688100Y-87691754D01*
X56712195Y-87812889D01*
X56759460Y-87926996D01*
X56828077Y-88029689D01*
X56915411Y-88117023D01*
X57018104Y-88185640D01*
X57132211Y-88232905D01*
X57253346Y-88257000D01*
X57376854Y-88257000D01*
X57497989Y-88232905D01*
X57612096Y-88185640D01*
X57714789Y-88117023D01*
X57774812Y-88057000D01*
X57792709Y-88057000D01*
X57798052Y-88066997D01*
X57857259Y-88139141D01*
X57929403Y-88198348D01*
X58011711Y-88242342D01*
X58101021Y-88269434D01*
X58193900Y-88278582D01*
X58229050Y-88278582D01*
X58226283Y-88287705D01*
X58220000Y-88351500D01*
X58220000Y-88730798D01*
X58219679Y-88730477D01*
X58116986Y-88661860D01*
X58002879Y-88614595D01*
X57881744Y-88590500D01*
X57758236Y-88590500D01*
X57637101Y-88614595D01*
X57522994Y-88661860D01*
X57420301Y-88730477D01*
X57360278Y-88790500D01*
X55964464Y-88790500D01*
X55943499Y-88788435D01*
X55922534Y-88790500D01*
X55922522Y-88790500D01*
X55859793Y-88796678D01*
X55779304Y-88821095D01*
X55745945Y-88838926D01*
X55705123Y-88860745D01*
X55656398Y-88900732D01*
X55656389Y-88900741D01*
X55640105Y-88914105D01*
X55626741Y-88930389D01*
X54830895Y-89726237D01*
X54814606Y-89739605D01*
X54801237Y-89755895D01*
X54801232Y-89755900D01*
X54761245Y-89804624D01*
X54733383Y-89856752D01*
X54721596Y-89878804D01*
X54697179Y-89959293D01*
X54692338Y-90008447D01*
X54688935Y-90043000D01*
X49648652Y-90043000D01*
X49696829Y-89362603D01*
X49790238Y-88337597D01*
X49904392Y-87314275D01*
X50039486Y-86292795D01*
X50049947Y-86224377D01*
X51912200Y-86224377D01*
X51912200Y-86495623D01*
X51965117Y-86761656D01*
X52068918Y-87012254D01*
X52219614Y-87237787D01*
X52411413Y-87429586D01*
X52636946Y-87580282D01*
X52887544Y-87684083D01*
X53153577Y-87737000D01*
X53424823Y-87737000D01*
X53690856Y-87684083D01*
X53941454Y-87580282D01*
X54166987Y-87429586D01*
X54358786Y-87237787D01*
X54509482Y-87012254D01*
X54613283Y-86761656D01*
X54666200Y-86495623D01*
X54666200Y-86224377D01*
X54613283Y-85958344D01*
X54509482Y-85707746D01*
X54358786Y-85482213D01*
X54166987Y-85290414D01*
X53941454Y-85139718D01*
X53690856Y-85035917D01*
X53424823Y-84983000D01*
X53153577Y-84983000D01*
X52887544Y-85035917D01*
X52636946Y-85139718D01*
X52411413Y-85290414D01*
X52219614Y-85482213D01*
X52068918Y-85707746D01*
X51965117Y-85958344D01*
X51912200Y-86224377D01*
X50049947Y-86224377D01*
X50186007Y-85334531D01*
X50186257Y-85334108D01*
X50189740Y-85326638D01*
X50202396Y-85302961D01*
X50205401Y-85293056D01*
X56150698Y-72543879D01*
X60058348Y-72543665D01*
X60053403Y-72552917D01*
X60030417Y-72628694D01*
X60022655Y-72707500D01*
X60024600Y-72727247D01*
X60024601Y-74529243D01*
X60022655Y-74549000D01*
X60030417Y-74627806D01*
X60053403Y-74703583D01*
X60090732Y-74773420D01*
X60140968Y-74834632D01*
X60202180Y-74884868D01*
X60272017Y-74922197D01*
X60347794Y-74945183D01*
X60406853Y-74951000D01*
X60426600Y-74952945D01*
X60446347Y-74951000D01*
X63079255Y-74951000D01*
X62945944Y-74977517D01*
X62695346Y-75081318D01*
X62469813Y-75232014D01*
X62278014Y-75423813D01*
X62127318Y-75649346D01*
X62023517Y-75899944D01*
X61970600Y-76165977D01*
X61970600Y-76437223D01*
X62023517Y-76703256D01*
X62127318Y-76953854D01*
X62278014Y-77179387D01*
X62469813Y-77371186D01*
X62695346Y-77521882D01*
X62945944Y-77625683D01*
X63211977Y-77678600D01*
X63483223Y-77678600D01*
X63749256Y-77625683D01*
X63999854Y-77521882D01*
X64225387Y-77371186D01*
X64417186Y-77179387D01*
X64567882Y-76953854D01*
X64671683Y-76703256D01*
X64724600Y-76437223D01*
X64724600Y-76165977D01*
X64671683Y-75899944D01*
X64567882Y-75649346D01*
X64417186Y-75423813D01*
X64225387Y-75232014D01*
X63999854Y-75081318D01*
X63749256Y-74977517D01*
X63615945Y-74951000D01*
X77303255Y-74951000D01*
X77169944Y-74977517D01*
X76919346Y-75081318D01*
X76693813Y-75232014D01*
X76502014Y-75423813D01*
X76351318Y-75649346D01*
X76247517Y-75899944D01*
X76194600Y-76165977D01*
X76194600Y-76437223D01*
X76247517Y-76703256D01*
X76351318Y-76953854D01*
X76502014Y-77179387D01*
X76693813Y-77371186D01*
X76919346Y-77521882D01*
X77169944Y-77625683D01*
X77435977Y-77678600D01*
X77707223Y-77678600D01*
X77973256Y-77625683D01*
X78223854Y-77521882D01*
X78449387Y-77371186D01*
X78641186Y-77179387D01*
X78791882Y-76953854D01*
X78895683Y-76703256D01*
X78948600Y-76437223D01*
X78948600Y-76165977D01*
X78895683Y-75899944D01*
X78791882Y-75649346D01*
X78641186Y-75423813D01*
X78449387Y-75232014D01*
X78223854Y-75081318D01*
X77973256Y-74977517D01*
X77839945Y-74951000D01*
X80472853Y-74951000D01*
X80492600Y-74952945D01*
X80512347Y-74951000D01*
X80571406Y-74945183D01*
X80647183Y-74922197D01*
X80717020Y-74884868D01*
X80778232Y-74834632D01*
X80828468Y-74773420D01*
X80865797Y-74703583D01*
X80888783Y-74627806D01*
X80896545Y-74549000D01*
X80894600Y-74529253D01*
X80894600Y-72727247D01*
X80896545Y-72707500D01*
X80888783Y-72628694D01*
X80865797Y-72552917D01*
X80860244Y-72542528D01*
X84764506Y-72542314D01*
X90716279Y-85309115D01*
G36*
X62339504Y-97011759D02*
G01*
X62269911Y-97058260D01*
X62189542Y-97138629D01*
X62126396Y-97233133D01*
X62082901Y-97338140D01*
X62060727Y-97449615D01*
X62060727Y-97563275D01*
X62082901Y-97674750D01*
X62126396Y-97779757D01*
X62189542Y-97874261D01*
X62269911Y-97954630D01*
X62364415Y-98017776D01*
X62469422Y-98061271D01*
X62580897Y-98083445D01*
X62694557Y-98083445D01*
X62806032Y-98061271D01*
X62911039Y-98017776D01*
X63005543Y-97954630D01*
X63085912Y-97874261D01*
X63132413Y-97804668D01*
X64837859Y-99510115D01*
X64850537Y-99525563D01*
X64912206Y-99576174D01*
X64982564Y-99613781D01*
X65058906Y-99636939D01*
X65118411Y-99642800D01*
X65118420Y-99642800D01*
X65138299Y-99644758D01*
X65158178Y-99642800D01*
X67699487Y-99642800D01*
X67694974Y-99653695D01*
X67672800Y-99765170D01*
X67672800Y-99878830D01*
X67694974Y-99990305D01*
X67738469Y-100095312D01*
X67801615Y-100189816D01*
X67844801Y-100233002D01*
X67844801Y-100435354D01*
X67778620Y-100422190D01*
X67664960Y-100422190D01*
X67553485Y-100444364D01*
X67448478Y-100487859D01*
X67353974Y-100551005D01*
X67273605Y-100631374D01*
X67210459Y-100725878D01*
X67166964Y-100830885D01*
X67144790Y-100942360D01*
X67144790Y-101056020D01*
X67166964Y-101167495D01*
X67210459Y-101272502D01*
X67273605Y-101367006D01*
X67353974Y-101447375D01*
X67448478Y-101510521D01*
X67553485Y-101554016D01*
X67664960Y-101576190D01*
X67778620Y-101576190D01*
X67844800Y-101563026D01*
X67844800Y-102321244D01*
X67647285Y-102518759D01*
X67631838Y-102531437D01*
X67581227Y-102593106D01*
X67555115Y-102641959D01*
X67543620Y-102663464D01*
X67534622Y-102693126D01*
X67527869Y-102695923D01*
X67488077Y-102722511D01*
X67468405Y-102623611D01*
X67421140Y-102509504D01*
X67352523Y-102406811D01*
X67265189Y-102319477D01*
X67162496Y-102250860D01*
X67048389Y-102203595D01*
X66927254Y-102179500D01*
X66803746Y-102179500D01*
X66682611Y-102203595D01*
X66568504Y-102250860D01*
X66465811Y-102319477D01*
X66378477Y-102406811D01*
X66309860Y-102509504D01*
X66262595Y-102623611D01*
X66238500Y-102744746D01*
X66238500Y-102868254D01*
X66262595Y-102989389D01*
X66309860Y-103103496D01*
X66378477Y-103206189D01*
X66465811Y-103293523D01*
X66568504Y-103362140D01*
X66682611Y-103409405D01*
X66803746Y-103433500D01*
X66927254Y-103433500D01*
X67048389Y-103409405D01*
X67092600Y-103391092D01*
X67092600Y-103510252D01*
X67124382Y-103670027D01*
X67186723Y-103820531D01*
X67242161Y-103903500D01*
X65796771Y-103903500D01*
X64144510Y-102251239D01*
X64227080Y-102217037D01*
X64329773Y-102148420D01*
X64417107Y-102061086D01*
X64485724Y-101958393D01*
X64532989Y-101844286D01*
X64557084Y-101723151D01*
X64557084Y-101599643D01*
X64532989Y-101478508D01*
X64485724Y-101364401D01*
X64417107Y-101261708D01*
X64329773Y-101174374D01*
X64227080Y-101105757D01*
X64112973Y-101058492D01*
X63991838Y-101034397D01*
X63887516Y-101034397D01*
X63737119Y-100884000D01*
X64361088Y-100884000D01*
X64421111Y-100944023D01*
X64523804Y-101012640D01*
X64637911Y-101059905D01*
X64759046Y-101084000D01*
X64882554Y-101084000D01*
X65003689Y-101059905D01*
X65117796Y-101012640D01*
X65220489Y-100944023D01*
X65307823Y-100856689D01*
X65376440Y-100753996D01*
X65423705Y-100639889D01*
X65447800Y-100518754D01*
X65447800Y-100395246D01*
X65423705Y-100274111D01*
X65376440Y-100160004D01*
X65307823Y-100057311D01*
X65220489Y-99969977D01*
X65117796Y-99901360D01*
X65003689Y-99854095D01*
X64882554Y-99830000D01*
X64759046Y-99830000D01*
X64637911Y-99854095D01*
X64523804Y-99901360D01*
X64449168Y-99951230D01*
X64458505Y-99928689D01*
X64482600Y-99807554D01*
X64482600Y-99684046D01*
X64458505Y-99562911D01*
X64411240Y-99448804D01*
X64342623Y-99346111D01*
X64255289Y-99258777D01*
X64152596Y-99190160D01*
X64038489Y-99142895D01*
X63917354Y-99118800D01*
X63793846Y-99118800D01*
X63672711Y-99142895D01*
X63558604Y-99190160D01*
X63455911Y-99258777D01*
X63368577Y-99346111D01*
X63299960Y-99448804D01*
X63270951Y-99518838D01*
X61410512Y-97658400D01*
X61397140Y-97642106D01*
X61332121Y-97588746D01*
X61257941Y-97549096D01*
X61177452Y-97524679D01*
X61114723Y-97518501D01*
X61114712Y-97518501D01*
X61093745Y-97516436D01*
X61072778Y-97518501D01*
X60807156Y-97518501D01*
X60839005Y-97441611D01*
X60863100Y-97320476D01*
X60863100Y-97196968D01*
X60839005Y-97075833D01*
X60791740Y-96961726D01*
X60723123Y-96859033D01*
X60635789Y-96771699D01*
X60533096Y-96703082D01*
X60418989Y-96655817D01*
X60374662Y-96647000D01*
X61974745Y-96647000D01*
X62339504Y-97011759D01*
G37*
X62339504Y-97011759D02*
X62269911Y-97058260D01*
X62189542Y-97138629D01*
X62126396Y-97233133D01*
X62082901Y-97338140D01*
X62060727Y-97449615D01*
X62060727Y-97563275D01*
X62082901Y-97674750D01*
X62126396Y-97779757D01*
X62189542Y-97874261D01*
X62269911Y-97954630D01*
X62364415Y-98017776D01*
X62469422Y-98061271D01*
X62580897Y-98083445D01*
X62694557Y-98083445D01*
X62806032Y-98061271D01*
X62911039Y-98017776D01*
X63005543Y-97954630D01*
X63085912Y-97874261D01*
X63132413Y-97804668D01*
X64837859Y-99510115D01*
X64850537Y-99525563D01*
X64912206Y-99576174D01*
X64982564Y-99613781D01*
X65058906Y-99636939D01*
X65118411Y-99642800D01*
X65118420Y-99642800D01*
X65138299Y-99644758D01*
X65158178Y-99642800D01*
X67699487Y-99642800D01*
X67694974Y-99653695D01*
X67672800Y-99765170D01*
X67672800Y-99878830D01*
X67694974Y-99990305D01*
X67738469Y-100095312D01*
X67801615Y-100189816D01*
X67844801Y-100233002D01*
X67844801Y-100435354D01*
X67778620Y-100422190D01*
X67664960Y-100422190D01*
X67553485Y-100444364D01*
X67448478Y-100487859D01*
X67353974Y-100551005D01*
X67273605Y-100631374D01*
X67210459Y-100725878D01*
X67166964Y-100830885D01*
X67144790Y-100942360D01*
X67144790Y-101056020D01*
X67166964Y-101167495D01*
X67210459Y-101272502D01*
X67273605Y-101367006D01*
X67353974Y-101447375D01*
X67448478Y-101510521D01*
X67553485Y-101554016D01*
X67664960Y-101576190D01*
X67778620Y-101576190D01*
X67844800Y-101563026D01*
X67844800Y-102321244D01*
X67647285Y-102518759D01*
X67631838Y-102531437D01*
X67581227Y-102593106D01*
X67555115Y-102641959D01*
X67543620Y-102663464D01*
X67534622Y-102693126D01*
X67527869Y-102695923D01*
X67488077Y-102722511D01*
X67468405Y-102623611D01*
X67421140Y-102509504D01*
X67352523Y-102406811D01*
X67265189Y-102319477D01*
X67162496Y-102250860D01*
X67048389Y-102203595D01*
X66927254Y-102179500D01*
X66803746Y-102179500D01*
X66682611Y-102203595D01*
X66568504Y-102250860D01*
X66465811Y-102319477D01*
X66378477Y-102406811D01*
X66309860Y-102509504D01*
X66262595Y-102623611D01*
X66238500Y-102744746D01*
X66238500Y-102868254D01*
X66262595Y-102989389D01*
X66309860Y-103103496D01*
X66378477Y-103206189D01*
X66465811Y-103293523D01*
X66568504Y-103362140D01*
X66682611Y-103409405D01*
X66803746Y-103433500D01*
X66927254Y-103433500D01*
X67048389Y-103409405D01*
X67092600Y-103391092D01*
X67092600Y-103510252D01*
X67124382Y-103670027D01*
X67186723Y-103820531D01*
X67242161Y-103903500D01*
X65796771Y-103903500D01*
X64144510Y-102251239D01*
X64227080Y-102217037D01*
X64329773Y-102148420D01*
X64417107Y-102061086D01*
X64485724Y-101958393D01*
X64532989Y-101844286D01*
X64557084Y-101723151D01*
X64557084Y-101599643D01*
X64532989Y-101478508D01*
X64485724Y-101364401D01*
X64417107Y-101261708D01*
X64329773Y-101174374D01*
X64227080Y-101105757D01*
X64112973Y-101058492D01*
X63991838Y-101034397D01*
X63887516Y-101034397D01*
X63737119Y-100884000D01*
X64361088Y-100884000D01*
X64421111Y-100944023D01*
X64523804Y-101012640D01*
X64637911Y-101059905D01*
X64759046Y-101084000D01*
X64882554Y-101084000D01*
X65003689Y-101059905D01*
X65117796Y-101012640D01*
X65220489Y-100944023D01*
X65307823Y-100856689D01*
X65376440Y-100753996D01*
X65423705Y-100639889D01*
X65447800Y-100518754D01*
X65447800Y-100395246D01*
X65423705Y-100274111D01*
X65376440Y-100160004D01*
X65307823Y-100057311D01*
X65220489Y-99969977D01*
X65117796Y-99901360D01*
X65003689Y-99854095D01*
X64882554Y-99830000D01*
X64759046Y-99830000D01*
X64637911Y-99854095D01*
X64523804Y-99901360D01*
X64449168Y-99951230D01*
X64458505Y-99928689D01*
X64482600Y-99807554D01*
X64482600Y-99684046D01*
X64458505Y-99562911D01*
X64411240Y-99448804D01*
X64342623Y-99346111D01*
X64255289Y-99258777D01*
X64152596Y-99190160D01*
X64038489Y-99142895D01*
X63917354Y-99118800D01*
X63793846Y-99118800D01*
X63672711Y-99142895D01*
X63558604Y-99190160D01*
X63455911Y-99258777D01*
X63368577Y-99346111D01*
X63299960Y-99448804D01*
X63270951Y-99518838D01*
X61410512Y-97658400D01*
X61397140Y-97642106D01*
X61332121Y-97588746D01*
X61257941Y-97549096D01*
X61177452Y-97524679D01*
X61114723Y-97518501D01*
X61114712Y-97518501D01*
X61093745Y-97516436D01*
X61072778Y-97518501D01*
X60807156Y-97518501D01*
X60839005Y-97441611D01*
X60863100Y-97320476D01*
X60863100Y-97196968D01*
X60839005Y-97075833D01*
X60791740Y-96961726D01*
X60723123Y-96859033D01*
X60635789Y-96771699D01*
X60533096Y-96703082D01*
X60418989Y-96655817D01*
X60374662Y-96647000D01*
X61974745Y-96647000D01*
X62339504Y-97011759D01*
G36*
X78215615Y-90770168D02*
G01*
X78152469Y-90864672D01*
X78108974Y-90969679D01*
X78086800Y-91081154D01*
X78086800Y-91194814D01*
X78108974Y-91306289D01*
X78152469Y-91411296D01*
X78215615Y-91505800D01*
X78295984Y-91586169D01*
X78390488Y-91649315D01*
X78495495Y-91692810D01*
X78606970Y-91714984D01*
X78720630Y-91714984D01*
X78832105Y-91692810D01*
X78886248Y-91670384D01*
X78893346Y-91681007D01*
X78973715Y-91761376D01*
X79050636Y-91812773D01*
X78747086Y-92116323D01*
X78731638Y-92129001D01*
X78681027Y-92190670D01*
X78653403Y-92242351D01*
X78643420Y-92261028D01*
X78620261Y-92337371D01*
X78612442Y-92416764D01*
X78614401Y-92436655D01*
X78614400Y-93274318D01*
X78612442Y-93294200D01*
X78614400Y-93314081D01*
X78614400Y-93314088D01*
X78620261Y-93373593D01*
X78643419Y-93449935D01*
X78681026Y-93520293D01*
X78731637Y-93581963D01*
X78747090Y-93594645D01*
X78892634Y-93740189D01*
X78881878Y-93744644D01*
X78787374Y-93807790D01*
X78744189Y-93850975D01*
X78356907Y-93850975D01*
X78337025Y-93849017D01*
X78317143Y-93850975D01*
X78317136Y-93850975D01*
X78257631Y-93856836D01*
X78181289Y-93879994D01*
X78141868Y-93901065D01*
X78110931Y-93917601D01*
X78064710Y-93955533D01*
X78064704Y-93955539D01*
X78049262Y-93968212D01*
X78036589Y-93983654D01*
X76452744Y-95567500D01*
X74788008Y-95567500D01*
X74786600Y-93676750D01*
X74679850Y-93570000D01*
X70557600Y-93570000D01*
X70557600Y-96772250D01*
X70664350Y-96879000D01*
X72109009Y-96879808D01*
X72065888Y-96897669D01*
X71971384Y-96960815D01*
X71891015Y-97041184D01*
X71827869Y-97135688D01*
X71784374Y-97240695D01*
X71762200Y-97352170D01*
X71762200Y-97465830D01*
X71784374Y-97577305D01*
X71827869Y-97682312D01*
X71891015Y-97776816D01*
X71971384Y-97857185D01*
X72065888Y-97920331D01*
X72170895Y-97963826D01*
X72282370Y-97986000D01*
X72396030Y-97986000D01*
X72507505Y-97963826D01*
X72612512Y-97920331D01*
X72707016Y-97857185D01*
X72787385Y-97776816D01*
X72850531Y-97682312D01*
X72894026Y-97577305D01*
X72903674Y-97528800D01*
X72980230Y-97528800D01*
X73091705Y-97506626D01*
X73196712Y-97463131D01*
X73291216Y-97399985D01*
X73371585Y-97319616D01*
X73434731Y-97225112D01*
X73478226Y-97120105D01*
X73500400Y-97008630D01*
X73500400Y-96894970D01*
X73497538Y-96880584D01*
X74123310Y-96880934D01*
X72984237Y-98020008D01*
X70870585Y-98020008D01*
X70827400Y-97976823D01*
X70732896Y-97913677D01*
X70627889Y-97870182D01*
X70516414Y-97848008D01*
X70402754Y-97848008D01*
X70291279Y-97870182D01*
X70186272Y-97913677D01*
X70091768Y-97976823D01*
X70011399Y-98057192D01*
X69948253Y-98151696D01*
X69904758Y-98256703D01*
X69882584Y-98368178D01*
X69882584Y-98481838D01*
X69904758Y-98593313D01*
X69948253Y-98698320D01*
X70011399Y-98792824D01*
X70051375Y-98832800D01*
X65306056Y-98832800D01*
X61723255Y-95250000D01*
X62048479Y-95250000D01*
X62077300Y-95265405D01*
X62157789Y-95289822D01*
X62220518Y-95296000D01*
X62220529Y-95296000D01*
X62241496Y-95298065D01*
X62262463Y-95296000D01*
X64243813Y-95296000D01*
X64211096Y-95344964D01*
X64167601Y-95449971D01*
X64145427Y-95561446D01*
X64145427Y-95675106D01*
X64167601Y-95786581D01*
X64211096Y-95891588D01*
X64274242Y-95986092D01*
X64354611Y-96066461D01*
X64449115Y-96129607D01*
X64554122Y-96173102D01*
X64665597Y-96195276D01*
X64779257Y-96195276D01*
X64890732Y-96173102D01*
X64995739Y-96129607D01*
X65090243Y-96066461D01*
X65170612Y-95986092D01*
X65233758Y-95891588D01*
X65277253Y-95786581D01*
X65299427Y-95675106D01*
X65299427Y-95561446D01*
X65277253Y-95449971D01*
X65233758Y-95344964D01*
X65201041Y-95296000D01*
X65384033Y-95296000D01*
X65405000Y-95298065D01*
X65425967Y-95296000D01*
X65425978Y-95296000D01*
X65488707Y-95289822D01*
X65569196Y-95265405D01*
X65643376Y-95225755D01*
X65708395Y-95172395D01*
X65721768Y-95156100D01*
X66131804Y-94746065D01*
X66130534Y-96452000D01*
X66138778Y-96535707D01*
X66163195Y-96616196D01*
X66202845Y-96690376D01*
X66256205Y-96755395D01*
X66321224Y-96808755D01*
X66395404Y-96848405D01*
X66475893Y-96872822D01*
X66559600Y-96881066D01*
X70254850Y-96879000D01*
X70361600Y-96772250D01*
X70361600Y-93570000D01*
X70341600Y-93570000D01*
X70341600Y-93374000D01*
X70361600Y-93374000D01*
X70361600Y-93354000D01*
X70557600Y-93354000D01*
X70557600Y-93374000D01*
X74679850Y-93374000D01*
X74786600Y-93267250D01*
X74788433Y-90805000D01*
X76073000Y-90805000D01*
X76092807Y-90803446D01*
X76116900Y-90797171D01*
X76139306Y-90786317D01*
X76158241Y-90771997D01*
X78078622Y-90771997D01*
X78098503Y-90773955D01*
X78118384Y-90771997D01*
X78118392Y-90771997D01*
X78177897Y-90766136D01*
X78237826Y-90747957D01*
X78215615Y-90770168D01*
G37*
X78215615Y-90770168D02*
X78152469Y-90864672D01*
X78108974Y-90969679D01*
X78086800Y-91081154D01*
X78086800Y-91194814D01*
X78108974Y-91306289D01*
X78152469Y-91411296D01*
X78215615Y-91505800D01*
X78295984Y-91586169D01*
X78390488Y-91649315D01*
X78495495Y-91692810D01*
X78606970Y-91714984D01*
X78720630Y-91714984D01*
X78832105Y-91692810D01*
X78886248Y-91670384D01*
X78893346Y-91681007D01*
X78973715Y-91761376D01*
X79050636Y-91812773D01*
X78747086Y-92116323D01*
X78731638Y-92129001D01*
X78681027Y-92190670D01*
X78653403Y-92242351D01*
X78643420Y-92261028D01*
X78620261Y-92337371D01*
X78612442Y-92416764D01*
X78614401Y-92436655D01*
X78614400Y-93274318D01*
X78612442Y-93294200D01*
X78614400Y-93314081D01*
X78614400Y-93314088D01*
X78620261Y-93373593D01*
X78643419Y-93449935D01*
X78681026Y-93520293D01*
X78731637Y-93581963D01*
X78747090Y-93594645D01*
X78892634Y-93740189D01*
X78881878Y-93744644D01*
X78787374Y-93807790D01*
X78744189Y-93850975D01*
X78356907Y-93850975D01*
X78337025Y-93849017D01*
X78317143Y-93850975D01*
X78317136Y-93850975D01*
X78257631Y-93856836D01*
X78181289Y-93879994D01*
X78141868Y-93901065D01*
X78110931Y-93917601D01*
X78064710Y-93955533D01*
X78064704Y-93955539D01*
X78049262Y-93968212D01*
X78036589Y-93983654D01*
X76452744Y-95567500D01*
X74788008Y-95567500D01*
X74786600Y-93676750D01*
X74679850Y-93570000D01*
X70557600Y-93570000D01*
X70557600Y-96772250D01*
X70664350Y-96879000D01*
X72109009Y-96879808D01*
X72065888Y-96897669D01*
X71971384Y-96960815D01*
X71891015Y-97041184D01*
X71827869Y-97135688D01*
X71784374Y-97240695D01*
X71762200Y-97352170D01*
X71762200Y-97465830D01*
X71784374Y-97577305D01*
X71827869Y-97682312D01*
X71891015Y-97776816D01*
X71971384Y-97857185D01*
X72065888Y-97920331D01*
X72170895Y-97963826D01*
X72282370Y-97986000D01*
X72396030Y-97986000D01*
X72507505Y-97963826D01*
X72612512Y-97920331D01*
X72707016Y-97857185D01*
X72787385Y-97776816D01*
X72850531Y-97682312D01*
X72894026Y-97577305D01*
X72903674Y-97528800D01*
X72980230Y-97528800D01*
X73091705Y-97506626D01*
X73196712Y-97463131D01*
X73291216Y-97399985D01*
X73371585Y-97319616D01*
X73434731Y-97225112D01*
X73478226Y-97120105D01*
X73500400Y-97008630D01*
X73500400Y-96894970D01*
X73497538Y-96880584D01*
X74123310Y-96880934D01*
X72984237Y-98020008D01*
X70870585Y-98020008D01*
X70827400Y-97976823D01*
X70732896Y-97913677D01*
X70627889Y-97870182D01*
X70516414Y-97848008D01*
X70402754Y-97848008D01*
X70291279Y-97870182D01*
X70186272Y-97913677D01*
X70091768Y-97976823D01*
X70011399Y-98057192D01*
X69948253Y-98151696D01*
X69904758Y-98256703D01*
X69882584Y-98368178D01*
X69882584Y-98481838D01*
X69904758Y-98593313D01*
X69948253Y-98698320D01*
X70011399Y-98792824D01*
X70051375Y-98832800D01*
X65306056Y-98832800D01*
X61723255Y-95250000D01*
X62048479Y-95250000D01*
X62077300Y-95265405D01*
X62157789Y-95289822D01*
X62220518Y-95296000D01*
X62220529Y-95296000D01*
X62241496Y-95298065D01*
X62262463Y-95296000D01*
X64243813Y-95296000D01*
X64211096Y-95344964D01*
X64167601Y-95449971D01*
X64145427Y-95561446D01*
X64145427Y-95675106D01*
X64167601Y-95786581D01*
X64211096Y-95891588D01*
X64274242Y-95986092D01*
X64354611Y-96066461D01*
X64449115Y-96129607D01*
X64554122Y-96173102D01*
X64665597Y-96195276D01*
X64779257Y-96195276D01*
X64890732Y-96173102D01*
X64995739Y-96129607D01*
X65090243Y-96066461D01*
X65170612Y-95986092D01*
X65233758Y-95891588D01*
X65277253Y-95786581D01*
X65299427Y-95675106D01*
X65299427Y-95561446D01*
X65277253Y-95449971D01*
X65233758Y-95344964D01*
X65201041Y-95296000D01*
X65384033Y-95296000D01*
X65405000Y-95298065D01*
X65425967Y-95296000D01*
X65425978Y-95296000D01*
X65488707Y-95289822D01*
X65569196Y-95265405D01*
X65643376Y-95225755D01*
X65708395Y-95172395D01*
X65721768Y-95156100D01*
X66131804Y-94746065D01*
X66130534Y-96452000D01*
X66138778Y-96535707D01*
X66163195Y-96616196D01*
X66202845Y-96690376D01*
X66256205Y-96755395D01*
X66321224Y-96808755D01*
X66395404Y-96848405D01*
X66475893Y-96872822D01*
X66559600Y-96881066D01*
X70254850Y-96879000D01*
X70361600Y-96772250D01*
X70361600Y-93570000D01*
X70341600Y-93570000D01*
X70341600Y-93374000D01*
X70361600Y-93374000D01*
X70361600Y-93354000D01*
X70557600Y-93354000D01*
X70557600Y-93374000D01*
X74679850Y-93374000D01*
X74786600Y-93267250D01*
X74788433Y-90805000D01*
X76073000Y-90805000D01*
X76092807Y-90803446D01*
X76116900Y-90797171D01*
X76139306Y-90786317D01*
X76158241Y-90771997D01*
X78078622Y-90771997D01*
X78098503Y-90773955D01*
X78118384Y-90771997D01*
X78118392Y-90771997D01*
X78177897Y-90766136D01*
X78237826Y-90747957D01*
X78215615Y-90770168D01*
G36*
X63222000Y-90404112D02*
G01*
X63222000Y-90404119D01*
X63220042Y-90424000D01*
X63222000Y-90443881D01*
X63222001Y-92859743D01*
X62631517Y-93450228D01*
X62572314Y-93410669D01*
X62467307Y-93367174D01*
X62355832Y-93345000D01*
X62242172Y-93345000D01*
X62130697Y-93367174D01*
X62025690Y-93410669D01*
X61958500Y-93455564D01*
X61958500Y-91616868D01*
X63227544Y-90347824D01*
X63222000Y-90404112D01*
G37*
X63222000Y-90404112D02*
X63222000Y-90404119D01*
X63220042Y-90424000D01*
X63222000Y-90443881D01*
X63222001Y-92859743D01*
X62631517Y-93450228D01*
X62572314Y-93410669D01*
X62467307Y-93367174D01*
X62355832Y-93345000D01*
X62242172Y-93345000D01*
X62130697Y-93367174D01*
X62025690Y-93410669D01*
X61958500Y-93455564D01*
X61958500Y-91616868D01*
X63227544Y-90347824D01*
X63222000Y-90404112D01*
G36*
X69731018Y-82222000D02*
G01*
X69737332Y-82286103D01*
X69756030Y-82347743D01*
X69786394Y-82404550D01*
X69827257Y-82454343D01*
X69877050Y-82495206D01*
X69933857Y-82525570D01*
X69995497Y-82544268D01*
X70059600Y-82550582D01*
X70859600Y-82550582D01*
X70923703Y-82544268D01*
X70985343Y-82525570D01*
X71042150Y-82495206D01*
X71091943Y-82454343D01*
X71132806Y-82404550D01*
X71163170Y-82347743D01*
X71181868Y-82286103D01*
X71188182Y-82222000D01*
X71188182Y-82031810D01*
X71403589Y-82031810D01*
X71446774Y-82074995D01*
X71541278Y-82138141D01*
X71646285Y-82181636D01*
X71740182Y-82200313D01*
X71734227Y-82230249D01*
X71734227Y-82353757D01*
X71758322Y-82474892D01*
X71805587Y-82588999D01*
X71874204Y-82691692D01*
X71961538Y-82779026D01*
X72064231Y-82847643D01*
X72178338Y-82894908D01*
X72299473Y-82919003D01*
X72422981Y-82919003D01*
X72544116Y-82894908D01*
X72628982Y-82859755D01*
X72628983Y-83724365D01*
X72573094Y-83735482D01*
X72458987Y-83782747D01*
X72356294Y-83851364D01*
X72268960Y-83938698D01*
X72200343Y-84041391D01*
X72153078Y-84155498D01*
X72128983Y-84276633D01*
X72128983Y-84400141D01*
X72153078Y-84521276D01*
X72200343Y-84635383D01*
X72268960Y-84738076D01*
X72356294Y-84825410D01*
X72458987Y-84894027D01*
X72491116Y-84907335D01*
X71824451Y-85574000D01*
X69468017Y-85574000D01*
X69480744Y-85543274D01*
X69504839Y-85422139D01*
X69504839Y-85298631D01*
X69480744Y-85177496D01*
X69433479Y-85063389D01*
X69364862Y-84960696D01*
X69277528Y-84873362D01*
X69174835Y-84804745D01*
X69060728Y-84757480D01*
X68939593Y-84733385D01*
X68816085Y-84733385D01*
X68694950Y-84757480D01*
X68580843Y-84804745D01*
X68478150Y-84873362D01*
X68390816Y-84960696D01*
X68322199Y-85063389D01*
X68274934Y-85177496D01*
X68250839Y-85298631D01*
X68250839Y-85422139D01*
X68274934Y-85543274D01*
X68287661Y-85574000D01*
X66313882Y-85574000D01*
X66294000Y-85572042D01*
X66274118Y-85574000D01*
X66274111Y-85574000D01*
X66214606Y-85579861D01*
X66138264Y-85603019D01*
X66103799Y-85621441D01*
X66067906Y-85640626D01*
X66021685Y-85678558D01*
X66021679Y-85678564D01*
X66006237Y-85691237D01*
X65993564Y-85706680D01*
X64562000Y-87138245D01*
X64562000Y-85314167D01*
X64564065Y-85293200D01*
X64562000Y-85272233D01*
X64562000Y-85272222D01*
X64555822Y-85209493D01*
X64531405Y-85129004D01*
X64531405Y-85129003D01*
X64491756Y-85054824D01*
X64451768Y-85006099D01*
X64451764Y-85006095D01*
X64438395Y-84989805D01*
X64422105Y-84976436D01*
X64228600Y-84782931D01*
X64228600Y-84698046D01*
X64204505Y-84576911D01*
X64157240Y-84462804D01*
X64088623Y-84360111D01*
X64001289Y-84272777D01*
X63898596Y-84204160D01*
X63861396Y-84188751D01*
X63914218Y-84061227D01*
X63946000Y-83901452D01*
X63946000Y-83738548D01*
X63914218Y-83578773D01*
X63851877Y-83428269D01*
X63761372Y-83292819D01*
X63717053Y-83248500D01*
X63863947Y-83248500D01*
X63887695Y-83367889D01*
X63934960Y-83481996D01*
X64003577Y-83584689D01*
X64090911Y-83672023D01*
X64193604Y-83740640D01*
X64307711Y-83787905D01*
X64428846Y-83812000D01*
X64552354Y-83812000D01*
X64673489Y-83787905D01*
X64787596Y-83740640D01*
X64890289Y-83672023D01*
X64977623Y-83584689D01*
X65046240Y-83481996D01*
X65093505Y-83367889D01*
X65117600Y-83246754D01*
X65117600Y-83123246D01*
X65093505Y-83002111D01*
X65046240Y-82888004D01*
X64977623Y-82785311D01*
X64893312Y-82701000D01*
X65061989Y-82701000D01*
X65143628Y-82823181D01*
X65258819Y-82938372D01*
X65394269Y-83028877D01*
X65544773Y-83091218D01*
X65704548Y-83123000D01*
X65867452Y-83123000D01*
X66027227Y-83091218D01*
X66177731Y-83028877D01*
X66313181Y-82938372D01*
X66413829Y-82837724D01*
X68435600Y-82837724D01*
X68435600Y-82961232D01*
X68459695Y-83082367D01*
X68506960Y-83196474D01*
X68575577Y-83299167D01*
X68662911Y-83386501D01*
X68765604Y-83455118D01*
X68879711Y-83502383D01*
X69000846Y-83526478D01*
X69124354Y-83526478D01*
X69245489Y-83502383D01*
X69359596Y-83455118D01*
X69462289Y-83386501D01*
X69549623Y-83299167D01*
X69618240Y-83196474D01*
X69665505Y-83082367D01*
X69689600Y-82961232D01*
X69689600Y-82837724D01*
X69665505Y-82716589D01*
X69618240Y-82602482D01*
X69549623Y-82499789D01*
X69462289Y-82412455D01*
X69359596Y-82343838D01*
X69245489Y-82296573D01*
X69124354Y-82272478D01*
X69000846Y-82272478D01*
X68879711Y-82296573D01*
X68765604Y-82343838D01*
X68662911Y-82412455D01*
X68575577Y-82499789D01*
X68506960Y-82602482D01*
X68459695Y-82716589D01*
X68435600Y-82837724D01*
X66413829Y-82837724D01*
X66428372Y-82823181D01*
X66518877Y-82687731D01*
X66581218Y-82537227D01*
X66613000Y-82377452D01*
X66613000Y-82214548D01*
X66581218Y-82054773D01*
X66524243Y-81917223D01*
X66548904Y-81930405D01*
X66629393Y-81954822D01*
X66692122Y-81961000D01*
X66692133Y-81961000D01*
X66713100Y-81963065D01*
X66734067Y-81961000D01*
X69092433Y-81961000D01*
X69113400Y-81963065D01*
X69134367Y-81961000D01*
X69134378Y-81961000D01*
X69197107Y-81954822D01*
X69277596Y-81930405D01*
X69351776Y-81890755D01*
X69416795Y-81837395D01*
X69430168Y-81821100D01*
X69731018Y-81520251D01*
X69731018Y-82222000D01*
G37*
X69731018Y-82222000D02*
X69737332Y-82286103D01*
X69756030Y-82347743D01*
X69786394Y-82404550D01*
X69827257Y-82454343D01*
X69877050Y-82495206D01*
X69933857Y-82525570D01*
X69995497Y-82544268D01*
X70059600Y-82550582D01*
X70859600Y-82550582D01*
X70923703Y-82544268D01*
X70985343Y-82525570D01*
X71042150Y-82495206D01*
X71091943Y-82454343D01*
X71132806Y-82404550D01*
X71163170Y-82347743D01*
X71181868Y-82286103D01*
X71188182Y-82222000D01*
X71188182Y-82031810D01*
X71403589Y-82031810D01*
X71446774Y-82074995D01*
X71541278Y-82138141D01*
X71646285Y-82181636D01*
X71740182Y-82200313D01*
X71734227Y-82230249D01*
X71734227Y-82353757D01*
X71758322Y-82474892D01*
X71805587Y-82588999D01*
X71874204Y-82691692D01*
X71961538Y-82779026D01*
X72064231Y-82847643D01*
X72178338Y-82894908D01*
X72299473Y-82919003D01*
X72422981Y-82919003D01*
X72544116Y-82894908D01*
X72628982Y-82859755D01*
X72628983Y-83724365D01*
X72573094Y-83735482D01*
X72458987Y-83782747D01*
X72356294Y-83851364D01*
X72268960Y-83938698D01*
X72200343Y-84041391D01*
X72153078Y-84155498D01*
X72128983Y-84276633D01*
X72128983Y-84400141D01*
X72153078Y-84521276D01*
X72200343Y-84635383D01*
X72268960Y-84738076D01*
X72356294Y-84825410D01*
X72458987Y-84894027D01*
X72491116Y-84907335D01*
X71824451Y-85574000D01*
X69468017Y-85574000D01*
X69480744Y-85543274D01*
X69504839Y-85422139D01*
X69504839Y-85298631D01*
X69480744Y-85177496D01*
X69433479Y-85063389D01*
X69364862Y-84960696D01*
X69277528Y-84873362D01*
X69174835Y-84804745D01*
X69060728Y-84757480D01*
X68939593Y-84733385D01*
X68816085Y-84733385D01*
X68694950Y-84757480D01*
X68580843Y-84804745D01*
X68478150Y-84873362D01*
X68390816Y-84960696D01*
X68322199Y-85063389D01*
X68274934Y-85177496D01*
X68250839Y-85298631D01*
X68250839Y-85422139D01*
X68274934Y-85543274D01*
X68287661Y-85574000D01*
X66313882Y-85574000D01*
X66294000Y-85572042D01*
X66274118Y-85574000D01*
X66274111Y-85574000D01*
X66214606Y-85579861D01*
X66138264Y-85603019D01*
X66103799Y-85621441D01*
X66067906Y-85640626D01*
X66021685Y-85678558D01*
X66021679Y-85678564D01*
X66006237Y-85691237D01*
X65993564Y-85706680D01*
X64562000Y-87138245D01*
X64562000Y-85314167D01*
X64564065Y-85293200D01*
X64562000Y-85272233D01*
X64562000Y-85272222D01*
X64555822Y-85209493D01*
X64531405Y-85129004D01*
X64531405Y-85129003D01*
X64491756Y-85054824D01*
X64451768Y-85006099D01*
X64451764Y-85006095D01*
X64438395Y-84989805D01*
X64422105Y-84976436D01*
X64228600Y-84782931D01*
X64228600Y-84698046D01*
X64204505Y-84576911D01*
X64157240Y-84462804D01*
X64088623Y-84360111D01*
X64001289Y-84272777D01*
X63898596Y-84204160D01*
X63861396Y-84188751D01*
X63914218Y-84061227D01*
X63946000Y-83901452D01*
X63946000Y-83738548D01*
X63914218Y-83578773D01*
X63851877Y-83428269D01*
X63761372Y-83292819D01*
X63717053Y-83248500D01*
X63863947Y-83248500D01*
X63887695Y-83367889D01*
X63934960Y-83481996D01*
X64003577Y-83584689D01*
X64090911Y-83672023D01*
X64193604Y-83740640D01*
X64307711Y-83787905D01*
X64428846Y-83812000D01*
X64552354Y-83812000D01*
X64673489Y-83787905D01*
X64787596Y-83740640D01*
X64890289Y-83672023D01*
X64977623Y-83584689D01*
X65046240Y-83481996D01*
X65093505Y-83367889D01*
X65117600Y-83246754D01*
X65117600Y-83123246D01*
X65093505Y-83002111D01*
X65046240Y-82888004D01*
X64977623Y-82785311D01*
X64893312Y-82701000D01*
X65061989Y-82701000D01*
X65143628Y-82823181D01*
X65258819Y-82938372D01*
X65394269Y-83028877D01*
X65544773Y-83091218D01*
X65704548Y-83123000D01*
X65867452Y-83123000D01*
X66027227Y-83091218D01*
X66177731Y-83028877D01*
X66313181Y-82938372D01*
X66413829Y-82837724D01*
X68435600Y-82837724D01*
X68435600Y-82961232D01*
X68459695Y-83082367D01*
X68506960Y-83196474D01*
X68575577Y-83299167D01*
X68662911Y-83386501D01*
X68765604Y-83455118D01*
X68879711Y-83502383D01*
X69000846Y-83526478D01*
X69124354Y-83526478D01*
X69245489Y-83502383D01*
X69359596Y-83455118D01*
X69462289Y-83386501D01*
X69549623Y-83299167D01*
X69618240Y-83196474D01*
X69665505Y-83082367D01*
X69689600Y-82961232D01*
X69689600Y-82837724D01*
X69665505Y-82716589D01*
X69618240Y-82602482D01*
X69549623Y-82499789D01*
X69462289Y-82412455D01*
X69359596Y-82343838D01*
X69245489Y-82296573D01*
X69124354Y-82272478D01*
X69000846Y-82272478D01*
X68879711Y-82296573D01*
X68765604Y-82343838D01*
X68662911Y-82412455D01*
X68575577Y-82499789D01*
X68506960Y-82602482D01*
X68459695Y-82716589D01*
X68435600Y-82837724D01*
X66413829Y-82837724D01*
X66428372Y-82823181D01*
X66518877Y-82687731D01*
X66581218Y-82537227D01*
X66613000Y-82377452D01*
X66613000Y-82214548D01*
X66581218Y-82054773D01*
X66524243Y-81917223D01*
X66548904Y-81930405D01*
X66629393Y-81954822D01*
X66692122Y-81961000D01*
X66692133Y-81961000D01*
X66713100Y-81963065D01*
X66734067Y-81961000D01*
X69092433Y-81961000D01*
X69113400Y-81963065D01*
X69134367Y-81961000D01*
X69134378Y-81961000D01*
X69197107Y-81954822D01*
X69277596Y-81930405D01*
X69351776Y-81890755D01*
X69416795Y-81837395D01*
X69430168Y-81821100D01*
X69731018Y-81520251D01*
X69731018Y-82222000D01*
%TD*%
M02*
