%TF.GenerationSoftware,KiCad,Pcbnew,(5.1.6)-1*%
%TF.CreationDate,2024-07-23T23:35:14+05:30*%
%TF.ProjectId,Project_OAK_MAIN_BRD_V0.1,50726f6a-6563-4745-9f4f-414b5f4d4149,A*%
%TF.SameCoordinates,Original*%
%TF.FileFunction,Legend,Bot*%
%TF.FilePolarity,Positive*%
%FSLAX46Y46*%
G04 Gerber Fmt 4.6, Leading zero omitted, Abs format (unit mm)*
G04 Created by KiCad (PCBNEW (5.1.6)-1) date 2024-07-23 23:35:14*
%MOMM*%
%LPD*%
G01*
G04 APERTURE LIST*
%ADD10C,0.150000*%
%ADD11C,0.160000*%
%ADD12C,0.050000*%
%ADD13C,0.127000*%
%ADD14C,0.120000*%
G04 APERTURE END LIST*
D10*
X75142147Y-110132880D02*
X75142147Y-110847166D01*
X75189766Y-110990023D01*
X75285004Y-111085261D01*
X75427861Y-111132880D01*
X75523100Y-111132880D01*
X74189766Y-111132880D02*
X74665957Y-111132880D01*
X74665957Y-110132880D01*
X73285004Y-111037642D02*
X73332623Y-111085261D01*
X73475480Y-111132880D01*
X73570719Y-111132880D01*
X73713576Y-111085261D01*
X73808814Y-110990023D01*
X73856433Y-110894785D01*
X73904052Y-110704309D01*
X73904052Y-110561452D01*
X73856433Y-110370976D01*
X73808814Y-110275738D01*
X73713576Y-110180500D01*
X73570719Y-110132880D01*
X73475480Y-110132880D01*
X73332623Y-110180500D01*
X73285004Y-110228119D01*
X72570719Y-110132880D02*
X72570719Y-110847166D01*
X72618338Y-110990023D01*
X72713576Y-111085261D01*
X72856433Y-111132880D01*
X72951671Y-111132880D01*
X71618338Y-111132880D02*
X72094528Y-111132880D01*
X72094528Y-110132880D01*
X70713576Y-111037642D02*
X70761195Y-111085261D01*
X70904052Y-111132880D01*
X70999290Y-111132880D01*
X71142147Y-111085261D01*
X71237385Y-110990023D01*
X71285004Y-110894785D01*
X71332623Y-110704309D01*
X71332623Y-110561452D01*
X71285004Y-110370976D01*
X71237385Y-110275738D01*
X71142147Y-110180500D01*
X70999290Y-110132880D01*
X70904052Y-110132880D01*
X70761195Y-110180500D01*
X70713576Y-110228119D01*
X69999290Y-110132880D02*
X69999290Y-110847166D01*
X70046909Y-110990023D01*
X70142147Y-111085261D01*
X70285004Y-111132880D01*
X70380242Y-111132880D01*
X69046909Y-111132880D02*
X69523100Y-111132880D01*
X69523100Y-110132880D01*
X68142147Y-111037642D02*
X68189766Y-111085261D01*
X68332623Y-111132880D01*
X68427861Y-111132880D01*
X68570719Y-111085261D01*
X68665957Y-110990023D01*
X68713576Y-110894785D01*
X68761195Y-110704309D01*
X68761195Y-110561452D01*
X68713576Y-110370976D01*
X68665957Y-110275738D01*
X68570719Y-110180500D01*
X68427861Y-110132880D01*
X68332623Y-110132880D01*
X68189766Y-110180500D01*
X68142147Y-110228119D01*
X67427861Y-110132880D02*
X67427861Y-110847166D01*
X67475480Y-110990023D01*
X67570719Y-111085261D01*
X67713576Y-111132880D01*
X67808814Y-111132880D01*
X66475480Y-111132880D02*
X66951671Y-111132880D01*
X66951671Y-110132880D01*
X65570719Y-111037642D02*
X65618338Y-111085261D01*
X65761195Y-111132880D01*
X65856433Y-111132880D01*
X65999290Y-111085261D01*
X66094528Y-110990023D01*
X66142147Y-110894785D01*
X66189766Y-110704309D01*
X66189766Y-110561452D01*
X66142147Y-110370976D01*
X66094528Y-110275738D01*
X65999290Y-110180500D01*
X65856433Y-110132880D01*
X65761195Y-110132880D01*
X65618338Y-110180500D01*
X65570719Y-110228119D01*
D11*
X80340504Y-78557380D02*
X80340504Y-77557380D01*
X79959552Y-77557380D01*
X79864314Y-77605000D01*
X79816695Y-77652619D01*
X79769076Y-77747857D01*
X79769076Y-77890714D01*
X79816695Y-77985952D01*
X79864314Y-78033571D01*
X79959552Y-78081190D01*
X80340504Y-78081190D01*
X79340504Y-78557380D02*
X79340504Y-77890714D01*
X79340504Y-78081190D02*
X79292885Y-77985952D01*
X79245266Y-77938333D01*
X79150028Y-77890714D01*
X79054790Y-77890714D01*
X78578600Y-78557380D02*
X78673838Y-78509761D01*
X78721457Y-78462142D01*
X78769076Y-78366904D01*
X78769076Y-78081190D01*
X78721457Y-77985952D01*
X78673838Y-77938333D01*
X78578600Y-77890714D01*
X78435742Y-77890714D01*
X78340504Y-77938333D01*
X78292885Y-77985952D01*
X78245266Y-78081190D01*
X78245266Y-78366904D01*
X78292885Y-78462142D01*
X78340504Y-78509761D01*
X78435742Y-78557380D01*
X78578600Y-78557380D01*
X77816695Y-77890714D02*
X77816695Y-78747857D01*
X77864314Y-78843095D01*
X77959552Y-78890714D01*
X78007171Y-78890714D01*
X77816695Y-77557380D02*
X77864314Y-77605000D01*
X77816695Y-77652619D01*
X77769076Y-77605000D01*
X77816695Y-77557380D01*
X77816695Y-77652619D01*
X76959552Y-78509761D02*
X77054790Y-78557380D01*
X77245266Y-78557380D01*
X77340504Y-78509761D01*
X77388123Y-78414523D01*
X77388123Y-78033571D01*
X77340504Y-77938333D01*
X77245266Y-77890714D01*
X77054790Y-77890714D01*
X76959552Y-77938333D01*
X76911933Y-78033571D01*
X76911933Y-78128809D01*
X77388123Y-78224047D01*
X76054790Y-78509761D02*
X76150028Y-78557380D01*
X76340504Y-78557380D01*
X76435742Y-78509761D01*
X76483361Y-78462142D01*
X76530980Y-78366904D01*
X76530980Y-78081190D01*
X76483361Y-77985952D01*
X76435742Y-77938333D01*
X76340504Y-77890714D01*
X76150028Y-77890714D01*
X76054790Y-77938333D01*
X75769076Y-77890714D02*
X75388123Y-77890714D01*
X75626219Y-77557380D02*
X75626219Y-78414523D01*
X75578600Y-78509761D01*
X75483361Y-78557380D01*
X75388123Y-78557380D01*
X74102409Y-77557380D02*
X73911933Y-77557380D01*
X73816695Y-77605000D01*
X73721457Y-77700238D01*
X73673838Y-77890714D01*
X73673838Y-78224047D01*
X73721457Y-78414523D01*
X73816695Y-78509761D01*
X73911933Y-78557380D01*
X74102409Y-78557380D01*
X74197647Y-78509761D01*
X74292885Y-78414523D01*
X74340504Y-78224047D01*
X74340504Y-77890714D01*
X74292885Y-77700238D01*
X74197647Y-77605000D01*
X74102409Y-77557380D01*
X73292885Y-78271666D02*
X72816695Y-78271666D01*
X73388123Y-78557380D02*
X73054790Y-77557380D01*
X72721457Y-78557380D01*
X72388123Y-78557380D02*
X72388123Y-77557380D01*
X71816695Y-78557380D02*
X72245266Y-77985952D01*
X71816695Y-77557380D02*
X72388123Y-78128809D01*
X70626219Y-78557380D02*
X70626219Y-77557380D01*
X70292885Y-78271666D01*
X69959552Y-77557380D01*
X69959552Y-78557380D01*
X69530980Y-78271666D02*
X69054790Y-78271666D01*
X69626219Y-78557380D02*
X69292885Y-77557380D01*
X68959552Y-78557380D01*
X68626219Y-78557380D02*
X68626219Y-77557380D01*
X68150028Y-78557380D02*
X68150028Y-77557380D01*
X67578600Y-78557380D01*
X67578600Y-77557380D01*
X66007171Y-78033571D02*
X65864314Y-78081190D01*
X65816695Y-78128809D01*
X65769076Y-78224047D01*
X65769076Y-78366904D01*
X65816695Y-78462142D01*
X65864314Y-78509761D01*
X65959552Y-78557380D01*
X66340504Y-78557380D01*
X66340504Y-77557380D01*
X66007171Y-77557380D01*
X65911933Y-77605000D01*
X65864314Y-77652619D01*
X65816695Y-77747857D01*
X65816695Y-77843095D01*
X65864314Y-77938333D01*
X65911933Y-77985952D01*
X66007171Y-78033571D01*
X66340504Y-78033571D01*
X64769076Y-78557380D02*
X65102409Y-78081190D01*
X65340504Y-78557380D02*
X65340504Y-77557380D01*
X64959552Y-77557380D01*
X64864314Y-77605000D01*
X64816695Y-77652619D01*
X64769076Y-77747857D01*
X64769076Y-77890714D01*
X64816695Y-77985952D01*
X64864314Y-78033571D01*
X64959552Y-78081190D01*
X65340504Y-78081190D01*
X64340504Y-78557380D02*
X64340504Y-77557380D01*
X64102409Y-77557380D01*
X63959552Y-77605000D01*
X63864314Y-77700238D01*
X63816695Y-77795476D01*
X63769076Y-77985952D01*
X63769076Y-78128809D01*
X63816695Y-78319285D01*
X63864314Y-78414523D01*
X63959552Y-78509761D01*
X64102409Y-78557380D01*
X64340504Y-78557380D01*
X62721457Y-77557380D02*
X62388123Y-78557380D01*
X62054790Y-77557380D01*
X61530980Y-77557380D02*
X61435742Y-77557380D01*
X61340504Y-77605000D01*
X61292885Y-77652619D01*
X61245266Y-77747857D01*
X61197647Y-77938333D01*
X61197647Y-78176428D01*
X61245266Y-78366904D01*
X61292885Y-78462142D01*
X61340504Y-78509761D01*
X61435742Y-78557380D01*
X61530980Y-78557380D01*
X61626219Y-78509761D01*
X61673838Y-78462142D01*
X61721457Y-78366904D01*
X61769076Y-78176428D01*
X61769076Y-77938333D01*
X61721457Y-77747857D01*
X61673838Y-77652619D01*
X61626219Y-77605000D01*
X61530980Y-77557380D01*
X60769076Y-78462142D02*
X60721457Y-78509761D01*
X60769076Y-78557380D01*
X60816695Y-78509761D01*
X60769076Y-78462142D01*
X60769076Y-78557380D01*
X59769076Y-78557380D02*
X60340504Y-78557380D01*
X60054790Y-78557380D02*
X60054790Y-77557380D01*
X60150028Y-77700238D01*
X60245266Y-77795476D01*
X60340504Y-77843095D01*
D10*
X73380552Y-107322928D02*
X72618647Y-107322928D01*
X72999600Y-107703880D02*
X72999600Y-106941976D01*
X68300552Y-107322928D02*
X67538647Y-107322928D01*
D12*
X81459600Y-93472000D02*
G75*
G03*
X81459600Y-93472000I-11000000J0D01*
G01*
D13*
%TO.C,BT1*%
X57804400Y-89560400D02*
X59304400Y-89560400D01*
X60109600Y-96572000D02*
X60109600Y-98237000D01*
X60109600Y-98237000D02*
X80809600Y-98237000D01*
X80809600Y-98237000D02*
X80809600Y-96572000D01*
X80809600Y-90372000D02*
X80809600Y-88707000D01*
X80809600Y-88707000D02*
X60109600Y-88707000D01*
X60109600Y-88707000D02*
X60109600Y-90372000D01*
X58554400Y-88810400D02*
X58554400Y-90310400D01*
X69659600Y-98872000D02*
X71159600Y-98872000D01*
X81518000Y-89560400D02*
X83018000Y-89560400D01*
X82268000Y-88810400D02*
X82268000Y-90310400D01*
D14*
%TO.C,TP1*%
X73699600Y-105968800D02*
G75*
G03*
X73699600Y-105968800I-700000J0D01*
G01*
%TO.C,TP3*%
X71159600Y-105968800D02*
G75*
G03*
X71159600Y-105968800I-700000J0D01*
G01*
%TO.C,TP4*%
X73699600Y-103428800D02*
G75*
G03*
X73699600Y-103428800I-700000J0D01*
G01*
%TO.C,TP5*%
X71159600Y-103428800D02*
G75*
G03*
X71159600Y-103428800I-700000J0D01*
G01*
%TO.C,TP12*%
X68619600Y-103428800D02*
G75*
G03*
X68619600Y-103428800I-700000J0D01*
G01*
%TO.C,TP13*%
X68619600Y-105968800D02*
G75*
G03*
X68619600Y-105968800I-700000J0D01*
G01*
%TD*%
M02*
