%TF.GenerationSoftware,KiCad,Pcbnew,(5.1.6)-1*%
%TF.CreationDate,2024-07-23T23:35:14+05:30*%
%TF.ProjectId,Project_OAK_MAIN_BRD_V0.1,50726f6a-6563-4745-9f4f-414b5f4d4149,A*%
%TF.SameCoordinates,Original*%
%TF.FileFunction,Copper,L4,Inr*%
%TF.FilePolarity,Positive*%
%FSLAX46Y46*%
G04 Gerber Fmt 4.6, Leading zero omitted, Abs format (unit mm)*
G04 Created by KiCad (PCBNEW (5.1.6)-1) date 2024-07-23 23:35:14*
%MOMM*%
%LPD*%
G01*
G04 APERTURE LIST*
%TA.AperFunction,ViaPad*%
%ADD10C,0.500000*%
%TD*%
%TA.AperFunction,ViaPad*%
%ADD11C,0.600000*%
%TD*%
%TA.AperFunction,ViaPad*%
%ADD12C,0.450000*%
%TD*%
%TA.AperFunction,Conductor*%
%ADD13C,0.254000*%
%TD*%
G04 APERTURE END LIST*
D10*
%TO.N,+3V0*%
X62738000Y-89357200D03*
D11*
X56680100Y-91313000D03*
X56680100Y-92313000D03*
X56680100Y-94678500D03*
X56680100Y-95678500D03*
X84239100Y-91186000D03*
X84239100Y-94551500D03*
X68981228Y-80817628D03*
X80035400Y-97307400D03*
X84331032Y-95551500D03*
X84259800Y-92186000D03*
X68877839Y-85360385D03*
X78206600Y-98145600D03*
X63855600Y-99745800D03*
X72339200Y-101650800D03*
X77960698Y-89623779D03*
D10*
X72339200Y-97409000D03*
D11*
X70421500Y-88519000D03*
D10*
X62293500Y-89852500D03*
X64722427Y-95618276D03*
X84074000Y-108140500D03*
X86360000Y-83820000D03*
X88011000Y-95948544D03*
X81801732Y-89743051D03*
%TO.N,GND*%
X81356200Y-97282000D03*
X80721200Y-96977200D03*
D11*
X68600506Y-98425000D03*
D10*
X74828400Y-92456000D03*
X75828400Y-92456000D03*
X76860400Y-92456000D03*
X74803000Y-93481400D03*
X75844400Y-93497400D03*
X76885800Y-93497400D03*
X74803000Y-94538800D03*
X75844400Y-94538800D03*
X76809600Y-94564200D03*
X80746600Y-97612200D03*
D11*
X66928999Y-100584000D03*
X64846200Y-86563200D03*
X69062600Y-84556600D03*
X71863679Y-102294150D03*
D10*
X67818000Y-82296000D03*
X71882000Y-84391500D03*
X67818000Y-83375500D03*
X77787500Y-82867500D03*
X68834000Y-106934000D03*
X62357000Y-103251000D03*
X65151000Y-105219500D03*
X57150000Y-98552000D03*
X64770000Y-99695000D03*
X67564000Y-102171500D03*
D11*
X76413628Y-100739082D03*
D10*
X80518000Y-87452200D03*
X76860400Y-86334600D03*
X60731400Y-88112600D03*
X68605400Y-91084400D03*
X70154800Y-91053610D03*
D11*
X75922568Y-86239510D03*
X64960499Y-96393001D03*
D10*
X62377010Y-93022005D03*
D11*
X62801500Y-91122500D03*
D10*
X61633100Y-97028000D03*
X70866004Y-91062510D03*
D11*
X84592920Y-87343945D03*
X88074495Y-89915995D03*
X86741000Y-102552500D03*
D10*
X81229200Y-89306398D03*
D11*
X83820000Y-78181200D03*
D10*
%TO.N,/LGT_ON_BTN*%
X73830983Y-88470436D03*
X88011000Y-92964000D03*
%TO.N,/UP_BTN*%
X72269736Y-88378136D03*
X84963000Y-81026000D03*
%TO.N,/MCU_RSTn*%
X68249800Y-99822000D03*
X79237087Y-89833582D03*
X75741805Y-90062612D03*
D11*
%TO.N,/C1_T*%
X74142612Y-102362000D03*
X78270100Y-99568000D03*
X78689200Y-87096600D03*
%TO.N,/C3_T*%
X75049317Y-80283208D03*
X72755983Y-84338387D03*
D10*
%TO.N,Net-(D1-Pad2)*%
X71814590Y-81626810D03*
X69045715Y-88221251D03*
D11*
%TO.N,/R1*%
X66340291Y-105540510D03*
X77138574Y-85018536D03*
X71551800Y-106235492D03*
X74777600Y-81076800D03*
X69062600Y-82899478D03*
%TO.N,/C6_T*%
X55880000Y-90297006D03*
X64820800Y-100457000D03*
%TO.N,/R2*%
X63398400Y-104038400D03*
X74714088Y-105635490D03*
X76047600Y-81851500D03*
%TO.N,/R3*%
X64490600Y-83185000D03*
X80429100Y-86487000D03*
X60236100Y-97258722D03*
X76007558Y-104979691D03*
X60628084Y-102073124D03*
%TO.N,/R4*%
X59983844Y-100455278D03*
X80783677Y-88255833D03*
X78508306Y-102644510D03*
X60938109Y-86373277D03*
D10*
X79547410Y-93035140D03*
D11*
%TO.N,/R5*%
X63930084Y-101661397D03*
X66865500Y-102806500D03*
X58902600Y-98552002D03*
X59236079Y-86000983D03*
X80619600Y-100380800D03*
X80213202Y-98374200D03*
X82182486Y-89077990D03*
%TO.N,/R6*%
X68935600Y-104330500D03*
X57819990Y-89217500D03*
X76085203Y-102811243D03*
D10*
%TO.N,Net-(Q5-Pad2)*%
X76403200Y-87020400D03*
X73342508Y-86550500D03*
%TO.N,Net-(Q6-Pad2)*%
X68389208Y-88572672D03*
X65605343Y-88125576D03*
D11*
%TO.N,/EXT_3V3_IN*%
X57315100Y-87630000D03*
X72491600Y-107822996D03*
D12*
%TO.N,/+3V0_MON_LED*%
X72318360Y-87057797D03*
D10*
%TO.N,/DBG_RX*%
X60845755Y-89890600D03*
D11*
%TO.N,/R2_R*%
X72361227Y-82292003D03*
X75554607Y-89074628D03*
X60059662Y-89694108D03*
%TO.N,/R3_R*%
X63601600Y-84759800D03*
X74980995Y-88516965D03*
X59528010Y-96837050D03*
D10*
%TO.N,/DBG_TX*%
X62088121Y-86588600D03*
%TO.N,/RTC_SCL*%
X69056532Y-87496935D03*
X76377800Y-89738200D03*
%TO.N,/RTC_SDA*%
X68478400Y-87045800D03*
X77078023Y-89754833D03*
%TO.N,/C6*%
X62637727Y-97506445D03*
X79200415Y-90616974D03*
%TO.N,/+3V0_VOL_MON*%
X70459584Y-98425008D03*
X79155190Y-94255975D03*
%TO.N,/C5*%
X67721790Y-100999190D03*
X78663800Y-91137984D03*
%TO.N,/C4*%
X77000084Y-100271549D03*
X79341531Y-91313191D03*
%TO.N,/C3*%
X77393800Y-87045800D03*
X79248191Y-97079978D03*
%TO.N,/C2*%
X63548400Y-87322800D03*
X76881554Y-97585739D03*
%TO.N,/C1*%
X76123800Y-97536000D03*
D12*
X71640611Y-87147491D03*
D11*
%TO.N,/R4_R*%
X75405073Y-98061871D03*
X76974933Y-102166636D03*
%TO.N,/R5_R*%
X75377283Y-97045856D03*
X61214554Y-100837445D03*
D10*
%TO.N,/ICSP_MOSI*%
X79136750Y-96388894D03*
%TO.N,/ICSP_MISO*%
X78453052Y-96209810D03*
%TO.N,/ICSP_SCK*%
X78948264Y-95701810D03*
%TO.N,/DWN_BTN*%
X72923400Y-96951800D03*
X85356186Y-105422186D03*
%TO.N,/RTC_INTO*%
X65468500Y-91186000D03*
X73047808Y-88444412D03*
%TO.N,/RTC_CLKO*%
X65474000Y-93922000D03*
%TO.N,/RTC_CLKO_EN*%
X62299002Y-93922000D03*
%TD*%
D13*
%TO.N,GND*%
G36*
X90716279Y-85309115D02*
G01*
X90718121Y-85313927D01*
X90724067Y-85325819D01*
X90725412Y-85328705D01*
X90873698Y-86292788D01*
X91009589Y-87314205D01*
X91124638Y-88337535D01*
X91218938Y-89362331D01*
X91292391Y-90388499D01*
X91344999Y-91415563D01*
X91376764Y-92443289D01*
X91387682Y-93471427D01*
X91377857Y-94499456D01*
X91347085Y-95527193D01*
X91295567Y-96554363D01*
X91223103Y-97580579D01*
X91129902Y-98605504D01*
X91015850Y-99628893D01*
X90880852Y-100650308D01*
X90735867Y-101599223D01*
X90734683Y-101601223D01*
X90726132Y-101615344D01*
X90725312Y-101617057D01*
X90724328Y-101618720D01*
X90717247Y-101633909D01*
X90702107Y-101665546D01*
X90701632Y-101667407D01*
X84765295Y-114401791D01*
X80860088Y-114401764D01*
X80865797Y-114391083D01*
X80888783Y-114315306D01*
X80894600Y-114256247D01*
X80896545Y-114236500D01*
X80894600Y-114216753D01*
X80894600Y-112414747D01*
X80896545Y-112395000D01*
X80888783Y-112316194D01*
X80865797Y-112240417D01*
X80828468Y-112170580D01*
X80778232Y-112109368D01*
X80717020Y-112059132D01*
X80647183Y-112021803D01*
X80571406Y-111998817D01*
X80512347Y-111993000D01*
X80492600Y-111991055D01*
X80472853Y-111993000D01*
X77839945Y-111993000D01*
X77973256Y-111966483D01*
X78223854Y-111862682D01*
X78449387Y-111711986D01*
X78641186Y-111520187D01*
X78791882Y-111294654D01*
X78895683Y-111044056D01*
X78948600Y-110778023D01*
X78948600Y-110506777D01*
X78895683Y-110240744D01*
X78791882Y-109990146D01*
X78641186Y-109764613D01*
X78449387Y-109572814D01*
X78223854Y-109422118D01*
X77973256Y-109318317D01*
X77707223Y-109265400D01*
X77435977Y-109265400D01*
X77169944Y-109318317D01*
X76919346Y-109422118D01*
X76693813Y-109572814D01*
X76502014Y-109764613D01*
X76351318Y-109990146D01*
X76247517Y-110240744D01*
X76194600Y-110506777D01*
X76194600Y-110778023D01*
X76247517Y-111044056D01*
X76351318Y-111294654D01*
X76502014Y-111520187D01*
X76693813Y-111711986D01*
X76919346Y-111862682D01*
X77169944Y-111966483D01*
X77303255Y-111993000D01*
X63615945Y-111993000D01*
X63749256Y-111966483D01*
X63999854Y-111862682D01*
X64225387Y-111711986D01*
X64417186Y-111520187D01*
X64567882Y-111294654D01*
X64671683Y-111044056D01*
X64724600Y-110778023D01*
X64724600Y-110506777D01*
X64671683Y-110240744D01*
X64567882Y-109990146D01*
X64417186Y-109764613D01*
X64225387Y-109572814D01*
X63999854Y-109422118D01*
X63749256Y-109318317D01*
X63483223Y-109265400D01*
X63211977Y-109265400D01*
X62945944Y-109318317D01*
X62695346Y-109422118D01*
X62469813Y-109572814D01*
X62278014Y-109764613D01*
X62127318Y-109990146D01*
X62023517Y-110240744D01*
X61970600Y-110506777D01*
X61970600Y-110778023D01*
X62023517Y-111044056D01*
X62127318Y-111294654D01*
X62278014Y-111520187D01*
X62469813Y-111711986D01*
X62695346Y-111862682D01*
X62945944Y-111966483D01*
X63079255Y-111993000D01*
X60446347Y-111993000D01*
X60426600Y-111991055D01*
X60406853Y-111993000D01*
X60347794Y-111998817D01*
X60272017Y-112021803D01*
X60202180Y-112059132D01*
X60140968Y-112109368D01*
X60090732Y-112170580D01*
X60053403Y-112240417D01*
X60030417Y-112316194D01*
X60022655Y-112395000D01*
X60024600Y-112414747D01*
X60024601Y-114216743D01*
X60022655Y-114236500D01*
X60030417Y-114315306D01*
X60053403Y-114391083D01*
X60059036Y-114401621D01*
X56151178Y-114401594D01*
X53054756Y-107761242D01*
X71864600Y-107761242D01*
X71864600Y-107884750D01*
X71888695Y-108005885D01*
X71935960Y-108119992D01*
X72004577Y-108222685D01*
X72091911Y-108310019D01*
X72194604Y-108378636D01*
X72308711Y-108425901D01*
X72429846Y-108449996D01*
X72553354Y-108449996D01*
X72674489Y-108425901D01*
X72788596Y-108378636D01*
X72891289Y-108310019D01*
X72978623Y-108222685D01*
X73047240Y-108119992D01*
X73062285Y-108083670D01*
X83497000Y-108083670D01*
X83497000Y-108197330D01*
X83519174Y-108308805D01*
X83562669Y-108413812D01*
X83625815Y-108508316D01*
X83706184Y-108588685D01*
X83800688Y-108651831D01*
X83905695Y-108695326D01*
X84017170Y-108717500D01*
X84130830Y-108717500D01*
X84242305Y-108695326D01*
X84347312Y-108651831D01*
X84441816Y-108588685D01*
X84522185Y-108508316D01*
X84585331Y-108413812D01*
X84628826Y-108308805D01*
X84651000Y-108197330D01*
X84651000Y-108083670D01*
X84628826Y-107972195D01*
X84585331Y-107867188D01*
X84522185Y-107772684D01*
X84441816Y-107692315D01*
X84347312Y-107629169D01*
X84242305Y-107585674D01*
X84130830Y-107563500D01*
X84017170Y-107563500D01*
X83905695Y-107585674D01*
X83800688Y-107629169D01*
X83706184Y-107692315D01*
X83625815Y-107772684D01*
X83562669Y-107867188D01*
X83519174Y-107972195D01*
X83497000Y-108083670D01*
X73062285Y-108083670D01*
X73094505Y-108005885D01*
X73118600Y-107884750D01*
X73118600Y-107761242D01*
X73094505Y-107640107D01*
X73047240Y-107526000D01*
X72978623Y-107423307D01*
X72891289Y-107335973D01*
X72788596Y-107267356D01*
X72674489Y-107220091D01*
X72553354Y-107195996D01*
X72429846Y-107195996D01*
X72308711Y-107220091D01*
X72194604Y-107267356D01*
X72091911Y-107335973D01*
X72004577Y-107423307D01*
X71935960Y-107526000D01*
X71888695Y-107640107D01*
X71864600Y-107761242D01*
X53054756Y-107761242D01*
X52314496Y-106173738D01*
X70924800Y-106173738D01*
X70924800Y-106297246D01*
X70948895Y-106418381D01*
X70996160Y-106532488D01*
X71064777Y-106635181D01*
X71152111Y-106722515D01*
X71254804Y-106791132D01*
X71368911Y-106838397D01*
X71490046Y-106862492D01*
X71613554Y-106862492D01*
X71734689Y-106838397D01*
X71848796Y-106791132D01*
X71951489Y-106722515D01*
X72038823Y-106635181D01*
X72107440Y-106532488D01*
X72154705Y-106418381D01*
X72178800Y-106297246D01*
X72178800Y-106173738D01*
X72154705Y-106052603D01*
X72107440Y-105938496D01*
X72038823Y-105835803D01*
X71951489Y-105748469D01*
X71848796Y-105679852D01*
X71734689Y-105632587D01*
X71613554Y-105608492D01*
X71490046Y-105608492D01*
X71368911Y-105632587D01*
X71254804Y-105679852D01*
X71152111Y-105748469D01*
X71064777Y-105835803D01*
X70996160Y-105938496D01*
X70948895Y-106052603D01*
X70924800Y-106173738D01*
X52314496Y-106173738D01*
X51990423Y-105478756D01*
X65713291Y-105478756D01*
X65713291Y-105602264D01*
X65737386Y-105723399D01*
X65784651Y-105837506D01*
X65853268Y-105940199D01*
X65940602Y-106027533D01*
X66043295Y-106096150D01*
X66157402Y-106143415D01*
X66278537Y-106167510D01*
X66402045Y-106167510D01*
X66523180Y-106143415D01*
X66637287Y-106096150D01*
X66739980Y-106027533D01*
X66827314Y-105940199D01*
X66895931Y-105837506D01*
X66943196Y-105723399D01*
X66967291Y-105602264D01*
X66967291Y-105573736D01*
X74087088Y-105573736D01*
X74087088Y-105697244D01*
X74111183Y-105818379D01*
X74158448Y-105932486D01*
X74227065Y-106035179D01*
X74314399Y-106122513D01*
X74417092Y-106191130D01*
X74531199Y-106238395D01*
X74652334Y-106262490D01*
X74775842Y-106262490D01*
X74896977Y-106238395D01*
X75011084Y-106191130D01*
X75113777Y-106122513D01*
X75201111Y-106035179D01*
X75269728Y-105932486D01*
X75316993Y-105818379D01*
X75341088Y-105697244D01*
X75341088Y-105573736D01*
X75316993Y-105452601D01*
X75269728Y-105338494D01*
X75201111Y-105235801D01*
X75113777Y-105148467D01*
X75011084Y-105079850D01*
X74896977Y-105032585D01*
X74775842Y-105008490D01*
X74652334Y-105008490D01*
X74531199Y-105032585D01*
X74417092Y-105079850D01*
X74314399Y-105148467D01*
X74227065Y-105235801D01*
X74158448Y-105338494D01*
X74111183Y-105452601D01*
X74087088Y-105573736D01*
X66967291Y-105573736D01*
X66967291Y-105478756D01*
X66943196Y-105357621D01*
X66895931Y-105243514D01*
X66827314Y-105140821D01*
X66739980Y-105053487D01*
X66637287Y-104984870D01*
X66523180Y-104937605D01*
X66402045Y-104913510D01*
X66278537Y-104913510D01*
X66157402Y-104937605D01*
X66043295Y-104984870D01*
X65940602Y-105053487D01*
X65853268Y-105140821D01*
X65784651Y-105243514D01*
X65737386Y-105357621D01*
X65713291Y-105478756D01*
X51990423Y-105478756D01*
X51289983Y-103976646D01*
X62771400Y-103976646D01*
X62771400Y-104100154D01*
X62795495Y-104221289D01*
X62842760Y-104335396D01*
X62911377Y-104438089D01*
X62998711Y-104525423D01*
X63101404Y-104594040D01*
X63215511Y-104641305D01*
X63336646Y-104665400D01*
X63460154Y-104665400D01*
X63581289Y-104641305D01*
X63695396Y-104594040D01*
X63798089Y-104525423D01*
X63885423Y-104438089D01*
X63954040Y-104335396D01*
X63981647Y-104268746D01*
X68308600Y-104268746D01*
X68308600Y-104392254D01*
X68332695Y-104513389D01*
X68379960Y-104627496D01*
X68448577Y-104730189D01*
X68535911Y-104817523D01*
X68638604Y-104886140D01*
X68752711Y-104933405D01*
X68873846Y-104957500D01*
X68997354Y-104957500D01*
X69118489Y-104933405D01*
X69155831Y-104917937D01*
X75380558Y-104917937D01*
X75380558Y-105041445D01*
X75404653Y-105162580D01*
X75451918Y-105276687D01*
X75520535Y-105379380D01*
X75607869Y-105466714D01*
X75710562Y-105535331D01*
X75824669Y-105582596D01*
X75945804Y-105606691D01*
X76069312Y-105606691D01*
X76190447Y-105582596D01*
X76304554Y-105535331D01*
X76407247Y-105466714D01*
X76494581Y-105379380D01*
X76503951Y-105365356D01*
X84779186Y-105365356D01*
X84779186Y-105479016D01*
X84801360Y-105590491D01*
X84844855Y-105695498D01*
X84908001Y-105790002D01*
X84988370Y-105870371D01*
X85082874Y-105933517D01*
X85187881Y-105977012D01*
X85299356Y-105999186D01*
X85413016Y-105999186D01*
X85524491Y-105977012D01*
X85629498Y-105933517D01*
X85724002Y-105870371D01*
X85804371Y-105790002D01*
X85867517Y-105695498D01*
X85911012Y-105590491D01*
X85933186Y-105479016D01*
X85933186Y-105365356D01*
X85911012Y-105253881D01*
X85867517Y-105148874D01*
X85804371Y-105054370D01*
X85724002Y-104974001D01*
X85629498Y-104910855D01*
X85524491Y-104867360D01*
X85413016Y-104845186D01*
X85299356Y-104845186D01*
X85187881Y-104867360D01*
X85082874Y-104910855D01*
X84988370Y-104974001D01*
X84908001Y-105054370D01*
X84844855Y-105148874D01*
X84801360Y-105253881D01*
X84779186Y-105365356D01*
X76503951Y-105365356D01*
X76563198Y-105276687D01*
X76610463Y-105162580D01*
X76634558Y-105041445D01*
X76634558Y-104917937D01*
X76610463Y-104796802D01*
X76563198Y-104682695D01*
X76494581Y-104580002D01*
X76407247Y-104492668D01*
X76304554Y-104424051D01*
X76190447Y-104376786D01*
X76069312Y-104352691D01*
X75945804Y-104352691D01*
X75824669Y-104376786D01*
X75710562Y-104424051D01*
X75607869Y-104492668D01*
X75520535Y-104580002D01*
X75451918Y-104682695D01*
X75404653Y-104796802D01*
X75380558Y-104917937D01*
X69155831Y-104917937D01*
X69232596Y-104886140D01*
X69335289Y-104817523D01*
X69422623Y-104730189D01*
X69491240Y-104627496D01*
X69538505Y-104513389D01*
X69562600Y-104392254D01*
X69562600Y-104268746D01*
X69538505Y-104147611D01*
X69491240Y-104033504D01*
X69422623Y-103930811D01*
X69335289Y-103843477D01*
X69232596Y-103774860D01*
X69118489Y-103727595D01*
X68997354Y-103703500D01*
X68873846Y-103703500D01*
X68752711Y-103727595D01*
X68638604Y-103774860D01*
X68535911Y-103843477D01*
X68448577Y-103930811D01*
X68379960Y-104033504D01*
X68332695Y-104147611D01*
X68308600Y-104268746D01*
X63981647Y-104268746D01*
X64001305Y-104221289D01*
X64025400Y-104100154D01*
X64025400Y-103976646D01*
X64001305Y-103855511D01*
X63954040Y-103741404D01*
X63885423Y-103638711D01*
X63798089Y-103551377D01*
X63695396Y-103482760D01*
X63581289Y-103435495D01*
X63460154Y-103411400D01*
X63336646Y-103411400D01*
X63215511Y-103435495D01*
X63101404Y-103482760D01*
X62998711Y-103551377D01*
X62911377Y-103638711D01*
X62842760Y-103741404D01*
X62795495Y-103855511D01*
X62771400Y-103976646D01*
X51289983Y-103976646D01*
X50715543Y-102744746D01*
X66238500Y-102744746D01*
X66238500Y-102868254D01*
X66262595Y-102989389D01*
X66309860Y-103103496D01*
X66378477Y-103206189D01*
X66465811Y-103293523D01*
X66568504Y-103362140D01*
X66682611Y-103409405D01*
X66803746Y-103433500D01*
X66927254Y-103433500D01*
X67048389Y-103409405D01*
X67162496Y-103362140D01*
X67265189Y-103293523D01*
X67352523Y-103206189D01*
X67421140Y-103103496D01*
X67468405Y-102989389D01*
X67492500Y-102868254D01*
X67492500Y-102744746D01*
X67468405Y-102623611D01*
X67421140Y-102509504D01*
X67352523Y-102406811D01*
X67265189Y-102319477D01*
X67236408Y-102300246D01*
X73515612Y-102300246D01*
X73515612Y-102423754D01*
X73539707Y-102544889D01*
X73586972Y-102658996D01*
X73655589Y-102761689D01*
X73742923Y-102849023D01*
X73845616Y-102917640D01*
X73959723Y-102964905D01*
X74080858Y-102989000D01*
X74204366Y-102989000D01*
X74325501Y-102964905D01*
X74439608Y-102917640D01*
X74542301Y-102849023D01*
X74629635Y-102761689D01*
X74637786Y-102749489D01*
X75458203Y-102749489D01*
X75458203Y-102872997D01*
X75482298Y-102994132D01*
X75529563Y-103108239D01*
X75598180Y-103210932D01*
X75685514Y-103298266D01*
X75788207Y-103366883D01*
X75902314Y-103414148D01*
X76023449Y-103438243D01*
X76146957Y-103438243D01*
X76268092Y-103414148D01*
X76382199Y-103366883D01*
X76484892Y-103298266D01*
X76572226Y-103210932D01*
X76640843Y-103108239D01*
X76688108Y-102994132D01*
X76712203Y-102872997D01*
X76712203Y-102749489D01*
X76709381Y-102735301D01*
X76792044Y-102769541D01*
X76913179Y-102793636D01*
X77036687Y-102793636D01*
X77157822Y-102769541D01*
X77271929Y-102722276D01*
X77374622Y-102653659D01*
X77445525Y-102582756D01*
X77881306Y-102582756D01*
X77881306Y-102706264D01*
X77905401Y-102827399D01*
X77952666Y-102941506D01*
X78021283Y-103044199D01*
X78108617Y-103131533D01*
X78211310Y-103200150D01*
X78325417Y-103247415D01*
X78446552Y-103271510D01*
X78570060Y-103271510D01*
X78691195Y-103247415D01*
X78805302Y-103200150D01*
X78907995Y-103131533D01*
X78995329Y-103044199D01*
X79063946Y-102941506D01*
X79111211Y-102827399D01*
X79135306Y-102706264D01*
X79135306Y-102582756D01*
X79111211Y-102461621D01*
X79063946Y-102347514D01*
X78995329Y-102244821D01*
X78907995Y-102157487D01*
X78805302Y-102088870D01*
X78691195Y-102041605D01*
X78570060Y-102017510D01*
X78446552Y-102017510D01*
X78325417Y-102041605D01*
X78211310Y-102088870D01*
X78108617Y-102157487D01*
X78021283Y-102244821D01*
X77952666Y-102347514D01*
X77905401Y-102461621D01*
X77881306Y-102582756D01*
X77445525Y-102582756D01*
X77461956Y-102566325D01*
X77530573Y-102463632D01*
X77577838Y-102349525D01*
X77601933Y-102228390D01*
X77601933Y-102104882D01*
X77577838Y-101983747D01*
X77530573Y-101869640D01*
X77461956Y-101766947D01*
X77374622Y-101679613D01*
X77271929Y-101610996D01*
X77157822Y-101563731D01*
X77036687Y-101539636D01*
X76913179Y-101539636D01*
X76792044Y-101563731D01*
X76677937Y-101610996D01*
X76575244Y-101679613D01*
X76487910Y-101766947D01*
X76419293Y-101869640D01*
X76372028Y-101983747D01*
X76347933Y-102104882D01*
X76347933Y-102228390D01*
X76350755Y-102242578D01*
X76268092Y-102208338D01*
X76146957Y-102184243D01*
X76023449Y-102184243D01*
X75902314Y-102208338D01*
X75788207Y-102255603D01*
X75685514Y-102324220D01*
X75598180Y-102411554D01*
X75529563Y-102514247D01*
X75482298Y-102628354D01*
X75458203Y-102749489D01*
X74637786Y-102749489D01*
X74698252Y-102658996D01*
X74745517Y-102544889D01*
X74769612Y-102423754D01*
X74769612Y-102300246D01*
X74745517Y-102179111D01*
X74698252Y-102065004D01*
X74629635Y-101962311D01*
X74542301Y-101874977D01*
X74439608Y-101806360D01*
X74325501Y-101759095D01*
X74204366Y-101735000D01*
X74080858Y-101735000D01*
X73959723Y-101759095D01*
X73845616Y-101806360D01*
X73742923Y-101874977D01*
X73655589Y-101962311D01*
X73586972Y-102065004D01*
X73539707Y-102179111D01*
X73515612Y-102300246D01*
X67236408Y-102300246D01*
X67162496Y-102250860D01*
X67048389Y-102203595D01*
X66927254Y-102179500D01*
X66803746Y-102179500D01*
X66682611Y-102203595D01*
X66568504Y-102250860D01*
X66465811Y-102319477D01*
X66378477Y-102406811D01*
X66309860Y-102509504D01*
X66262595Y-102623611D01*
X66238500Y-102744746D01*
X50715543Y-102744746D01*
X50373566Y-102011370D01*
X60001084Y-102011370D01*
X60001084Y-102134878D01*
X60025179Y-102256013D01*
X60072444Y-102370120D01*
X60141061Y-102472813D01*
X60228395Y-102560147D01*
X60331088Y-102628764D01*
X60445195Y-102676029D01*
X60566330Y-102700124D01*
X60689838Y-102700124D01*
X60810973Y-102676029D01*
X60925080Y-102628764D01*
X61027773Y-102560147D01*
X61115107Y-102472813D01*
X61183724Y-102370120D01*
X61230989Y-102256013D01*
X61255084Y-102134878D01*
X61255084Y-102011370D01*
X61230989Y-101890235D01*
X61183724Y-101776128D01*
X61115107Y-101673435D01*
X61041315Y-101599643D01*
X63303084Y-101599643D01*
X63303084Y-101723151D01*
X63327179Y-101844286D01*
X63374444Y-101958393D01*
X63443061Y-102061086D01*
X63530395Y-102148420D01*
X63633088Y-102217037D01*
X63747195Y-102264302D01*
X63868330Y-102288397D01*
X63991838Y-102288397D01*
X64112973Y-102264302D01*
X64227080Y-102217037D01*
X64329773Y-102148420D01*
X64417107Y-102061086D01*
X64485724Y-101958393D01*
X64532989Y-101844286D01*
X64557084Y-101723151D01*
X64557084Y-101599643D01*
X64554977Y-101589046D01*
X71712200Y-101589046D01*
X71712200Y-101712554D01*
X71736295Y-101833689D01*
X71783560Y-101947796D01*
X71852177Y-102050489D01*
X71939511Y-102137823D01*
X72042204Y-102206440D01*
X72156311Y-102253705D01*
X72277446Y-102277800D01*
X72400954Y-102277800D01*
X72522089Y-102253705D01*
X72636196Y-102206440D01*
X72738889Y-102137823D01*
X72826223Y-102050489D01*
X72894840Y-101947796D01*
X72942105Y-101833689D01*
X72966200Y-101712554D01*
X72966200Y-101589046D01*
X72942105Y-101467911D01*
X72894840Y-101353804D01*
X72826223Y-101251111D01*
X72738889Y-101163777D01*
X72636196Y-101095160D01*
X72522089Y-101047895D01*
X72400954Y-101023800D01*
X72277446Y-101023800D01*
X72156311Y-101047895D01*
X72042204Y-101095160D01*
X71939511Y-101163777D01*
X71852177Y-101251111D01*
X71783560Y-101353804D01*
X71736295Y-101467911D01*
X71712200Y-101589046D01*
X64554977Y-101589046D01*
X64532989Y-101478508D01*
X64485724Y-101364401D01*
X64417107Y-101261708D01*
X64329773Y-101174374D01*
X64227080Y-101105757D01*
X64112973Y-101058492D01*
X63991838Y-101034397D01*
X63868330Y-101034397D01*
X63747195Y-101058492D01*
X63633088Y-101105757D01*
X63530395Y-101174374D01*
X63443061Y-101261708D01*
X63374444Y-101364401D01*
X63327179Y-101478508D01*
X63303084Y-101599643D01*
X61041315Y-101599643D01*
X61027773Y-101586101D01*
X60925080Y-101517484D01*
X60810973Y-101470219D01*
X60689838Y-101446124D01*
X60566330Y-101446124D01*
X60445195Y-101470219D01*
X60331088Y-101517484D01*
X60228395Y-101586101D01*
X60141061Y-101673435D01*
X60072444Y-101776128D01*
X60025179Y-101890235D01*
X60001084Y-102011370D01*
X50373566Y-102011370D01*
X50194837Y-101628082D01*
X50044446Y-100650203D01*
X50017612Y-100448377D01*
X51912200Y-100448377D01*
X51912200Y-100719623D01*
X51965117Y-100985656D01*
X52068918Y-101236254D01*
X52219614Y-101461787D01*
X52411413Y-101653586D01*
X52636946Y-101804282D01*
X52887544Y-101908083D01*
X53153577Y-101961000D01*
X53424823Y-101961000D01*
X53690856Y-101908083D01*
X53941454Y-101804282D01*
X54166987Y-101653586D01*
X54358786Y-101461787D01*
X54509482Y-101236254D01*
X54613283Y-100985656D01*
X54666200Y-100719623D01*
X54666200Y-100448377D01*
X54655290Y-100393524D01*
X59356844Y-100393524D01*
X59356844Y-100517032D01*
X59380939Y-100638167D01*
X59428204Y-100752274D01*
X59496821Y-100854967D01*
X59584155Y-100942301D01*
X59686848Y-101010918D01*
X59800955Y-101058183D01*
X59922090Y-101082278D01*
X60045598Y-101082278D01*
X60166733Y-101058183D01*
X60280840Y-101010918D01*
X60383533Y-100942301D01*
X60470867Y-100854967D01*
X60523837Y-100775691D01*
X60587554Y-100775691D01*
X60587554Y-100899199D01*
X60611649Y-101020334D01*
X60658914Y-101134441D01*
X60727531Y-101237134D01*
X60814865Y-101324468D01*
X60917558Y-101393085D01*
X61031665Y-101440350D01*
X61152800Y-101464445D01*
X61276308Y-101464445D01*
X61397443Y-101440350D01*
X61511550Y-101393085D01*
X61614243Y-101324468D01*
X61701577Y-101237134D01*
X61770194Y-101134441D01*
X61817459Y-101020334D01*
X61841554Y-100899199D01*
X61841554Y-100775691D01*
X61817459Y-100654556D01*
X61770194Y-100540449D01*
X61701577Y-100437756D01*
X61614243Y-100350422D01*
X61511550Y-100281805D01*
X61397443Y-100234540D01*
X61276308Y-100210445D01*
X61152800Y-100210445D01*
X61031665Y-100234540D01*
X60917558Y-100281805D01*
X60814865Y-100350422D01*
X60727531Y-100437756D01*
X60658914Y-100540449D01*
X60611649Y-100654556D01*
X60587554Y-100775691D01*
X60523837Y-100775691D01*
X60539484Y-100752274D01*
X60586749Y-100638167D01*
X60610844Y-100517032D01*
X60610844Y-100393524D01*
X60586749Y-100272389D01*
X60539484Y-100158282D01*
X60470867Y-100055589D01*
X60383533Y-99968255D01*
X60280840Y-99899638D01*
X60166733Y-99852373D01*
X60045598Y-99828278D01*
X59922090Y-99828278D01*
X59800955Y-99852373D01*
X59686848Y-99899638D01*
X59584155Y-99968255D01*
X59496821Y-100055589D01*
X59428204Y-100158282D01*
X59380939Y-100272389D01*
X59356844Y-100393524D01*
X54655290Y-100393524D01*
X54613283Y-100182344D01*
X54509482Y-99931746D01*
X54358786Y-99706213D01*
X54336619Y-99684046D01*
X63228600Y-99684046D01*
X63228600Y-99807554D01*
X63252695Y-99928689D01*
X63299960Y-100042796D01*
X63368577Y-100145489D01*
X63455911Y-100232823D01*
X63558604Y-100301440D01*
X63672711Y-100348705D01*
X63793846Y-100372800D01*
X63917354Y-100372800D01*
X64038489Y-100348705D01*
X64152596Y-100301440D01*
X64227232Y-100251570D01*
X64217895Y-100274111D01*
X64193800Y-100395246D01*
X64193800Y-100518754D01*
X64217895Y-100639889D01*
X64265160Y-100753996D01*
X64333777Y-100856689D01*
X64421111Y-100944023D01*
X64523804Y-101012640D01*
X64637911Y-101059905D01*
X64759046Y-101084000D01*
X64882554Y-101084000D01*
X65003689Y-101059905D01*
X65117796Y-101012640D01*
X65220489Y-100944023D01*
X65222152Y-100942360D01*
X67144790Y-100942360D01*
X67144790Y-101056020D01*
X67166964Y-101167495D01*
X67210459Y-101272502D01*
X67273605Y-101367006D01*
X67353974Y-101447375D01*
X67448478Y-101510521D01*
X67553485Y-101554016D01*
X67664960Y-101576190D01*
X67778620Y-101576190D01*
X67890095Y-101554016D01*
X67995102Y-101510521D01*
X68089606Y-101447375D01*
X68169975Y-101367006D01*
X68233121Y-101272502D01*
X68276616Y-101167495D01*
X68298790Y-101056020D01*
X68298790Y-100942360D01*
X68276616Y-100830885D01*
X68233121Y-100725878D01*
X68169975Y-100631374D01*
X68089606Y-100551005D01*
X67995102Y-100487859D01*
X67890095Y-100444364D01*
X67778620Y-100422190D01*
X67664960Y-100422190D01*
X67553485Y-100444364D01*
X67448478Y-100487859D01*
X67353974Y-100551005D01*
X67273605Y-100631374D01*
X67210459Y-100725878D01*
X67166964Y-100830885D01*
X67144790Y-100942360D01*
X65222152Y-100942360D01*
X65307823Y-100856689D01*
X65376440Y-100753996D01*
X65423705Y-100639889D01*
X65447800Y-100518754D01*
X65447800Y-100395246D01*
X65423705Y-100274111D01*
X65376440Y-100160004D01*
X65307823Y-100057311D01*
X65220489Y-99969977D01*
X65117796Y-99901360D01*
X65003689Y-99854095D01*
X64882554Y-99830000D01*
X64759046Y-99830000D01*
X64637911Y-99854095D01*
X64523804Y-99901360D01*
X64449168Y-99951230D01*
X64458505Y-99928689D01*
X64482600Y-99807554D01*
X64482600Y-99765170D01*
X67672800Y-99765170D01*
X67672800Y-99878830D01*
X67694974Y-99990305D01*
X67738469Y-100095312D01*
X67801615Y-100189816D01*
X67881984Y-100270185D01*
X67976488Y-100333331D01*
X68081495Y-100376826D01*
X68192970Y-100399000D01*
X68306630Y-100399000D01*
X68418105Y-100376826D01*
X68523112Y-100333331D01*
X68617616Y-100270185D01*
X68673082Y-100214719D01*
X76423084Y-100214719D01*
X76423084Y-100328379D01*
X76445258Y-100439854D01*
X76488753Y-100544861D01*
X76551899Y-100639365D01*
X76632268Y-100719734D01*
X76726772Y-100782880D01*
X76831779Y-100826375D01*
X76943254Y-100848549D01*
X77056914Y-100848549D01*
X77168389Y-100826375D01*
X77273396Y-100782880D01*
X77367900Y-100719734D01*
X77448269Y-100639365D01*
X77511415Y-100544861D01*
X77554910Y-100439854D01*
X77577084Y-100328379D01*
X77577084Y-100319046D01*
X79992600Y-100319046D01*
X79992600Y-100442554D01*
X80016695Y-100563689D01*
X80063960Y-100677796D01*
X80132577Y-100780489D01*
X80219911Y-100867823D01*
X80322604Y-100936440D01*
X80436711Y-100983705D01*
X80557846Y-101007800D01*
X80681354Y-101007800D01*
X80802489Y-100983705D01*
X80916596Y-100936440D01*
X81019289Y-100867823D01*
X81106623Y-100780489D01*
X81175240Y-100677796D01*
X81222505Y-100563689D01*
X81245441Y-100448377D01*
X86253000Y-100448377D01*
X86253000Y-100719623D01*
X86305917Y-100985656D01*
X86409718Y-101236254D01*
X86560414Y-101461787D01*
X86752213Y-101653586D01*
X86977746Y-101804282D01*
X87228344Y-101908083D01*
X87494377Y-101961000D01*
X87765623Y-101961000D01*
X88031656Y-101908083D01*
X88282254Y-101804282D01*
X88507787Y-101653586D01*
X88699586Y-101461787D01*
X88850282Y-101236254D01*
X88954083Y-100985656D01*
X89007000Y-100719623D01*
X89007000Y-100448377D01*
X88954083Y-100182344D01*
X88850282Y-99931746D01*
X88699586Y-99706213D01*
X88507787Y-99514414D01*
X88282254Y-99363718D01*
X88031656Y-99259917D01*
X87765623Y-99207000D01*
X87494377Y-99207000D01*
X87228344Y-99259917D01*
X86977746Y-99363718D01*
X86752213Y-99514414D01*
X86560414Y-99706213D01*
X86409718Y-99931746D01*
X86305917Y-100182344D01*
X86253000Y-100448377D01*
X81245441Y-100448377D01*
X81246600Y-100442554D01*
X81246600Y-100319046D01*
X81222505Y-100197911D01*
X81175240Y-100083804D01*
X81106623Y-99981111D01*
X81019289Y-99893777D01*
X80916596Y-99825160D01*
X80802489Y-99777895D01*
X80681354Y-99753800D01*
X80557846Y-99753800D01*
X80436711Y-99777895D01*
X80322604Y-99825160D01*
X80219911Y-99893777D01*
X80132577Y-99981111D01*
X80063960Y-100083804D01*
X80016695Y-100197911D01*
X79992600Y-100319046D01*
X77577084Y-100319046D01*
X77577084Y-100214719D01*
X77554910Y-100103244D01*
X77511415Y-99998237D01*
X77448269Y-99903733D01*
X77367900Y-99823364D01*
X77273396Y-99760218D01*
X77168389Y-99716723D01*
X77056914Y-99694549D01*
X76943254Y-99694549D01*
X76831779Y-99716723D01*
X76726772Y-99760218D01*
X76632268Y-99823364D01*
X76551899Y-99903733D01*
X76488753Y-99998237D01*
X76445258Y-100103244D01*
X76423084Y-100214719D01*
X68673082Y-100214719D01*
X68697985Y-100189816D01*
X68761131Y-100095312D01*
X68804626Y-99990305D01*
X68826800Y-99878830D01*
X68826800Y-99765170D01*
X68804626Y-99653695D01*
X68761131Y-99548688D01*
X68732772Y-99506246D01*
X77643100Y-99506246D01*
X77643100Y-99629754D01*
X77667195Y-99750889D01*
X77714460Y-99864996D01*
X77783077Y-99967689D01*
X77870411Y-100055023D01*
X77973104Y-100123640D01*
X78087211Y-100170905D01*
X78208346Y-100195000D01*
X78331854Y-100195000D01*
X78452989Y-100170905D01*
X78567096Y-100123640D01*
X78669789Y-100055023D01*
X78757123Y-99967689D01*
X78825740Y-99864996D01*
X78873005Y-99750889D01*
X78897100Y-99629754D01*
X78897100Y-99506246D01*
X78873005Y-99385111D01*
X78825740Y-99271004D01*
X78757123Y-99168311D01*
X78669789Y-99080977D01*
X78567096Y-99012360D01*
X78452989Y-98965095D01*
X78331854Y-98941000D01*
X78208346Y-98941000D01*
X78087211Y-98965095D01*
X77973104Y-99012360D01*
X77870411Y-99080977D01*
X77783077Y-99168311D01*
X77714460Y-99271004D01*
X77667195Y-99385111D01*
X77643100Y-99506246D01*
X68732772Y-99506246D01*
X68697985Y-99454184D01*
X68617616Y-99373815D01*
X68523112Y-99310669D01*
X68418105Y-99267174D01*
X68306630Y-99245000D01*
X68192970Y-99245000D01*
X68081495Y-99267174D01*
X67976488Y-99310669D01*
X67881984Y-99373815D01*
X67801615Y-99454184D01*
X67738469Y-99548688D01*
X67694974Y-99653695D01*
X67672800Y-99765170D01*
X64482600Y-99765170D01*
X64482600Y-99684046D01*
X64458505Y-99562911D01*
X64411240Y-99448804D01*
X64342623Y-99346111D01*
X64255289Y-99258777D01*
X64152596Y-99190160D01*
X64038489Y-99142895D01*
X63917354Y-99118800D01*
X63793846Y-99118800D01*
X63672711Y-99142895D01*
X63558604Y-99190160D01*
X63455911Y-99258777D01*
X63368577Y-99346111D01*
X63299960Y-99448804D01*
X63252695Y-99562911D01*
X63228600Y-99684046D01*
X54336619Y-99684046D01*
X54166987Y-99514414D01*
X53941454Y-99363718D01*
X53690856Y-99259917D01*
X53424823Y-99207000D01*
X53153577Y-99207000D01*
X52887544Y-99259917D01*
X52636946Y-99363718D01*
X52411413Y-99514414D01*
X52219614Y-99706213D01*
X52068918Y-99931746D01*
X51965117Y-100182344D01*
X51912200Y-100448377D01*
X50017612Y-100448377D01*
X49908651Y-99628871D01*
X49793611Y-98605628D01*
X49783018Y-98490248D01*
X58275600Y-98490248D01*
X58275600Y-98613756D01*
X58299695Y-98734891D01*
X58346960Y-98848998D01*
X58415577Y-98951691D01*
X58502911Y-99039025D01*
X58605604Y-99107642D01*
X58719711Y-99154907D01*
X58840846Y-99179002D01*
X58964354Y-99179002D01*
X59085489Y-99154907D01*
X59199596Y-99107642D01*
X59302289Y-99039025D01*
X59389623Y-98951691D01*
X59458240Y-98848998D01*
X59505505Y-98734891D01*
X59529600Y-98613756D01*
X59529600Y-98490248D01*
X59505505Y-98369113D01*
X59505118Y-98368178D01*
X69882584Y-98368178D01*
X69882584Y-98481838D01*
X69904758Y-98593313D01*
X69948253Y-98698320D01*
X70011399Y-98792824D01*
X70091768Y-98873193D01*
X70186272Y-98936339D01*
X70291279Y-98979834D01*
X70402754Y-99002008D01*
X70516414Y-99002008D01*
X70627889Y-98979834D01*
X70732896Y-98936339D01*
X70827400Y-98873193D01*
X70907769Y-98792824D01*
X70970915Y-98698320D01*
X71014410Y-98593313D01*
X71036584Y-98481838D01*
X71036584Y-98368178D01*
X71014410Y-98256703D01*
X70970915Y-98151696D01*
X70907769Y-98057192D01*
X70827400Y-97976823D01*
X70732896Y-97913677D01*
X70627889Y-97870182D01*
X70516414Y-97848008D01*
X70402754Y-97848008D01*
X70291279Y-97870182D01*
X70186272Y-97913677D01*
X70091768Y-97976823D01*
X70011399Y-98057192D01*
X69948253Y-98151696D01*
X69904758Y-98256703D01*
X69882584Y-98368178D01*
X59505118Y-98368178D01*
X59458240Y-98255006D01*
X59389623Y-98152313D01*
X59302289Y-98064979D01*
X59199596Y-97996362D01*
X59085489Y-97949097D01*
X58964354Y-97925002D01*
X58840846Y-97925002D01*
X58719711Y-97949097D01*
X58605604Y-97996362D01*
X58502911Y-98064979D01*
X58415577Y-98152313D01*
X58346960Y-98255006D01*
X58299695Y-98369113D01*
X58275600Y-98490248D01*
X49783018Y-98490248D01*
X49699508Y-97580714D01*
X49641928Y-96775296D01*
X58901010Y-96775296D01*
X58901010Y-96898804D01*
X58925105Y-97019939D01*
X58972370Y-97134046D01*
X59040987Y-97236739D01*
X59128321Y-97324073D01*
X59231014Y-97392690D01*
X59345121Y-97439955D01*
X59466256Y-97464050D01*
X59589764Y-97464050D01*
X59638476Y-97454361D01*
X59680460Y-97555718D01*
X59749077Y-97658411D01*
X59836411Y-97745745D01*
X59939104Y-97814362D01*
X60053211Y-97861627D01*
X60174346Y-97885722D01*
X60297854Y-97885722D01*
X60418989Y-97861627D01*
X60533096Y-97814362D01*
X60635789Y-97745745D01*
X60723123Y-97658411D01*
X60791740Y-97555718D01*
X60835689Y-97449615D01*
X62060727Y-97449615D01*
X62060727Y-97563275D01*
X62082901Y-97674750D01*
X62126396Y-97779757D01*
X62189542Y-97874261D01*
X62269911Y-97954630D01*
X62364415Y-98017776D01*
X62469422Y-98061271D01*
X62580897Y-98083445D01*
X62694557Y-98083445D01*
X62806032Y-98061271D01*
X62911039Y-98017776D01*
X63005543Y-97954630D01*
X63085912Y-97874261D01*
X63149058Y-97779757D01*
X63192553Y-97674750D01*
X63214727Y-97563275D01*
X63214727Y-97449615D01*
X63195344Y-97352170D01*
X71762200Y-97352170D01*
X71762200Y-97465830D01*
X71784374Y-97577305D01*
X71827869Y-97682312D01*
X71891015Y-97776816D01*
X71971384Y-97857185D01*
X72065888Y-97920331D01*
X72170895Y-97963826D01*
X72282370Y-97986000D01*
X72396030Y-97986000D01*
X72507505Y-97963826D01*
X72612512Y-97920331D01*
X72707016Y-97857185D01*
X72787385Y-97776816D01*
X72850531Y-97682312D01*
X72894026Y-97577305D01*
X72903674Y-97528800D01*
X72980230Y-97528800D01*
X73091705Y-97506626D01*
X73196712Y-97463131D01*
X73291216Y-97399985D01*
X73371585Y-97319616D01*
X73434731Y-97225112D01*
X73478226Y-97120105D01*
X73500400Y-97008630D01*
X73500400Y-96984102D01*
X74750283Y-96984102D01*
X74750283Y-97107610D01*
X74774378Y-97228745D01*
X74821643Y-97342852D01*
X74890260Y-97445545D01*
X74977594Y-97532879D01*
X75022895Y-97563148D01*
X75005384Y-97574848D01*
X74918050Y-97662182D01*
X74849433Y-97764875D01*
X74802168Y-97878982D01*
X74778073Y-98000117D01*
X74778073Y-98123625D01*
X74802168Y-98244760D01*
X74849433Y-98358867D01*
X74918050Y-98461560D01*
X75005384Y-98548894D01*
X75108077Y-98617511D01*
X75222184Y-98664776D01*
X75343319Y-98688871D01*
X75466827Y-98688871D01*
X75587962Y-98664776D01*
X75702069Y-98617511D01*
X75804762Y-98548894D01*
X75892096Y-98461560D01*
X75960713Y-98358867D01*
X76007978Y-98244760D01*
X76032073Y-98123625D01*
X76032073Y-98106058D01*
X76066970Y-98113000D01*
X76180630Y-98113000D01*
X76292105Y-98090826D01*
X76397112Y-98047331D01*
X76475061Y-97995247D01*
X76513738Y-98033924D01*
X76608242Y-98097070D01*
X76713249Y-98140565D01*
X76824724Y-98162739D01*
X76938384Y-98162739D01*
X77049859Y-98140565D01*
X77154866Y-98097070D01*
X77174656Y-98083846D01*
X77579600Y-98083846D01*
X77579600Y-98207354D01*
X77603695Y-98328489D01*
X77650960Y-98442596D01*
X77719577Y-98545289D01*
X77806911Y-98632623D01*
X77909604Y-98701240D01*
X78023711Y-98748505D01*
X78144846Y-98772600D01*
X78268354Y-98772600D01*
X78389489Y-98748505D01*
X78503596Y-98701240D01*
X78606289Y-98632623D01*
X78693623Y-98545289D01*
X78762240Y-98442596D01*
X78809505Y-98328489D01*
X78833600Y-98207354D01*
X78833600Y-98083846D01*
X78809505Y-97962711D01*
X78762240Y-97848604D01*
X78693623Y-97745911D01*
X78606289Y-97658577D01*
X78503596Y-97589960D01*
X78389489Y-97542695D01*
X78268354Y-97518600D01*
X78144846Y-97518600D01*
X78023711Y-97542695D01*
X77909604Y-97589960D01*
X77806911Y-97658577D01*
X77719577Y-97745911D01*
X77650960Y-97848604D01*
X77603695Y-97962711D01*
X77579600Y-98083846D01*
X77174656Y-98083846D01*
X77249370Y-98033924D01*
X77329739Y-97953555D01*
X77392885Y-97859051D01*
X77436380Y-97754044D01*
X77458554Y-97642569D01*
X77458554Y-97528909D01*
X77436380Y-97417434D01*
X77392885Y-97312427D01*
X77329739Y-97217923D01*
X77249370Y-97137554D01*
X77154866Y-97074408D01*
X77049859Y-97030913D01*
X76938384Y-97008739D01*
X76824724Y-97008739D01*
X76713249Y-97030913D01*
X76608242Y-97074408D01*
X76530293Y-97126492D01*
X76491616Y-97087815D01*
X76397112Y-97024669D01*
X76292105Y-96981174D01*
X76180630Y-96959000D01*
X76066970Y-96959000D01*
X76001866Y-96971950D01*
X75980188Y-96862967D01*
X75932923Y-96748860D01*
X75864306Y-96646167D01*
X75776972Y-96558833D01*
X75674279Y-96490216D01*
X75560172Y-96442951D01*
X75439037Y-96418856D01*
X75315529Y-96418856D01*
X75194394Y-96442951D01*
X75080287Y-96490216D01*
X74977594Y-96558833D01*
X74890260Y-96646167D01*
X74821643Y-96748860D01*
X74774378Y-96862967D01*
X74750283Y-96984102D01*
X73500400Y-96984102D01*
X73500400Y-96894970D01*
X73478226Y-96783495D01*
X73434731Y-96678488D01*
X73371585Y-96583984D01*
X73291216Y-96503615D01*
X73196712Y-96440469D01*
X73091705Y-96396974D01*
X72980230Y-96374800D01*
X72866570Y-96374800D01*
X72755095Y-96396974D01*
X72650088Y-96440469D01*
X72555584Y-96503615D01*
X72475215Y-96583984D01*
X72412069Y-96678488D01*
X72368574Y-96783495D01*
X72358926Y-96832000D01*
X72282370Y-96832000D01*
X72170895Y-96854174D01*
X72065888Y-96897669D01*
X71971384Y-96960815D01*
X71891015Y-97041184D01*
X71827869Y-97135688D01*
X71784374Y-97240695D01*
X71762200Y-97352170D01*
X63195344Y-97352170D01*
X63192553Y-97338140D01*
X63149058Y-97233133D01*
X63085912Y-97138629D01*
X63005543Y-97058260D01*
X62911039Y-96995114D01*
X62806032Y-96951619D01*
X62694557Y-96929445D01*
X62580897Y-96929445D01*
X62469422Y-96951619D01*
X62364415Y-96995114D01*
X62269911Y-97058260D01*
X62189542Y-97138629D01*
X62126396Y-97233133D01*
X62082901Y-97338140D01*
X62060727Y-97449615D01*
X60835689Y-97449615D01*
X60839005Y-97441611D01*
X60863100Y-97320476D01*
X60863100Y-97196968D01*
X60839005Y-97075833D01*
X60791740Y-96961726D01*
X60723123Y-96859033D01*
X60635789Y-96771699D01*
X60533096Y-96703082D01*
X60418989Y-96655817D01*
X60297854Y-96631722D01*
X60174346Y-96631722D01*
X60125634Y-96641411D01*
X60083650Y-96540054D01*
X60015033Y-96437361D01*
X59927699Y-96350027D01*
X59825006Y-96281410D01*
X59710899Y-96234145D01*
X59589764Y-96210050D01*
X59466256Y-96210050D01*
X59345121Y-96234145D01*
X59231014Y-96281410D01*
X59128321Y-96350027D01*
X59040987Y-96437361D01*
X58972370Y-96540054D01*
X58925105Y-96654161D01*
X58901010Y-96775296D01*
X49641928Y-96775296D01*
X49626152Y-96554633D01*
X49573744Y-95527578D01*
X49545770Y-94616746D01*
X56053100Y-94616746D01*
X56053100Y-94740254D01*
X56077195Y-94861389D01*
X56124460Y-94975496D01*
X56193077Y-95078189D01*
X56280411Y-95165523D01*
X56299833Y-95178500D01*
X56280411Y-95191477D01*
X56193077Y-95278811D01*
X56124460Y-95381504D01*
X56077195Y-95495611D01*
X56053100Y-95616746D01*
X56053100Y-95740254D01*
X56077195Y-95861389D01*
X56124460Y-95975496D01*
X56193077Y-96078189D01*
X56280411Y-96165523D01*
X56383104Y-96234140D01*
X56497211Y-96281405D01*
X56618346Y-96305500D01*
X56741854Y-96305500D01*
X56862989Y-96281405D01*
X56977096Y-96234140D01*
X57079789Y-96165523D01*
X57167123Y-96078189D01*
X57235740Y-95975496D01*
X57283005Y-95861389D01*
X57307100Y-95740254D01*
X57307100Y-95616746D01*
X57296101Y-95561446D01*
X64145427Y-95561446D01*
X64145427Y-95675106D01*
X64167601Y-95786581D01*
X64211096Y-95891588D01*
X64274242Y-95986092D01*
X64354611Y-96066461D01*
X64449115Y-96129607D01*
X64554122Y-96173102D01*
X64665597Y-96195276D01*
X64779257Y-96195276D01*
X64890732Y-96173102D01*
X64939311Y-96152980D01*
X77876052Y-96152980D01*
X77876052Y-96266640D01*
X77898226Y-96378115D01*
X77941721Y-96483122D01*
X78004867Y-96577626D01*
X78085236Y-96657995D01*
X78179740Y-96721141D01*
X78284747Y-96764636D01*
X78396222Y-96786810D01*
X78509882Y-96786810D01*
X78621357Y-96764636D01*
X78678144Y-96741114D01*
X78688565Y-96756710D01*
X78737525Y-96805670D01*
X78736860Y-96806666D01*
X78693365Y-96911673D01*
X78671191Y-97023148D01*
X78671191Y-97136808D01*
X78693365Y-97248283D01*
X78736860Y-97353290D01*
X78800006Y-97447794D01*
X78880375Y-97528163D01*
X78974879Y-97591309D01*
X79079886Y-97634804D01*
X79191361Y-97656978D01*
X79305021Y-97656978D01*
X79416496Y-97634804D01*
X79481960Y-97607688D01*
X79548377Y-97707089D01*
X79635711Y-97794423D01*
X79738404Y-97863040D01*
X79808581Y-97892109D01*
X79726179Y-97974511D01*
X79657562Y-98077204D01*
X79610297Y-98191311D01*
X79586202Y-98312446D01*
X79586202Y-98435954D01*
X79610297Y-98557089D01*
X79657562Y-98671196D01*
X79726179Y-98773889D01*
X79813513Y-98861223D01*
X79916206Y-98929840D01*
X80030313Y-98977105D01*
X80151448Y-99001200D01*
X80274956Y-99001200D01*
X80396091Y-98977105D01*
X80510198Y-98929840D01*
X80612891Y-98861223D01*
X80700225Y-98773889D01*
X80768842Y-98671196D01*
X80816107Y-98557089D01*
X80840202Y-98435954D01*
X80840202Y-98312446D01*
X80816107Y-98191311D01*
X80768842Y-98077204D01*
X80700225Y-97974511D01*
X80612891Y-97887177D01*
X80510198Y-97818560D01*
X80440021Y-97789491D01*
X80522423Y-97707089D01*
X80591040Y-97604396D01*
X80638305Y-97490289D01*
X80662400Y-97369154D01*
X80662400Y-97245646D01*
X80638305Y-97124511D01*
X80591040Y-97010404D01*
X80522423Y-96907711D01*
X80435089Y-96820377D01*
X80332396Y-96751760D01*
X80218289Y-96704495D01*
X80097154Y-96680400D01*
X79973646Y-96680400D01*
X79852511Y-96704495D01*
X79738404Y-96751760D01*
X79727640Y-96758952D01*
X79696376Y-96712162D01*
X79647416Y-96663202D01*
X79648081Y-96662206D01*
X79691576Y-96557199D01*
X79713750Y-96445724D01*
X79713750Y-96332064D01*
X79691576Y-96220589D01*
X79648081Y-96115582D01*
X79584935Y-96021078D01*
X79504566Y-95940709D01*
X79480508Y-95924634D01*
X79503090Y-95870115D01*
X79525264Y-95758640D01*
X79525264Y-95644980D01*
X79503090Y-95533505D01*
X79459595Y-95428498D01*
X79396449Y-95333994D01*
X79316080Y-95253625D01*
X79221576Y-95190479D01*
X79116569Y-95146984D01*
X79005094Y-95124810D01*
X78891434Y-95124810D01*
X78779959Y-95146984D01*
X78674952Y-95190479D01*
X78580448Y-95253625D01*
X78500079Y-95333994D01*
X78436933Y-95428498D01*
X78393438Y-95533505D01*
X78372756Y-95637478D01*
X78284747Y-95654984D01*
X78179740Y-95698479D01*
X78085236Y-95761625D01*
X78004867Y-95841994D01*
X77941721Y-95936498D01*
X77898226Y-96041505D01*
X77876052Y-96152980D01*
X64939311Y-96152980D01*
X64995739Y-96129607D01*
X65090243Y-96066461D01*
X65170612Y-95986092D01*
X65233758Y-95891588D01*
X65277253Y-95786581D01*
X65299427Y-95675106D01*
X65299427Y-95561446D01*
X65277253Y-95449971D01*
X65233758Y-95344964D01*
X65170612Y-95250460D01*
X65090243Y-95170091D01*
X64995739Y-95106945D01*
X64890732Y-95063450D01*
X64779257Y-95041276D01*
X64665597Y-95041276D01*
X64554122Y-95063450D01*
X64449115Y-95106945D01*
X64354611Y-95170091D01*
X64274242Y-95250460D01*
X64211096Y-95344964D01*
X64167601Y-95449971D01*
X64145427Y-95561446D01*
X57296101Y-95561446D01*
X57283005Y-95495611D01*
X57235740Y-95381504D01*
X57167123Y-95278811D01*
X57079789Y-95191477D01*
X57060367Y-95178500D01*
X57079789Y-95165523D01*
X57167123Y-95078189D01*
X57235740Y-94975496D01*
X57283005Y-94861389D01*
X57307100Y-94740254D01*
X57307100Y-94616746D01*
X57283005Y-94495611D01*
X57235740Y-94381504D01*
X57167123Y-94278811D01*
X57079789Y-94191477D01*
X56977096Y-94122860D01*
X56862989Y-94075595D01*
X56741854Y-94051500D01*
X56618346Y-94051500D01*
X56497211Y-94075595D01*
X56383104Y-94122860D01*
X56280411Y-94191477D01*
X56193077Y-94278811D01*
X56124460Y-94381504D01*
X56077195Y-94495611D01*
X56053100Y-94616746D01*
X49545770Y-94616746D01*
X49542179Y-94499851D01*
X49535562Y-93865170D01*
X61722002Y-93865170D01*
X61722002Y-93978830D01*
X61744176Y-94090305D01*
X61787671Y-94195312D01*
X61850817Y-94289816D01*
X61931186Y-94370185D01*
X62025690Y-94433331D01*
X62130697Y-94476826D01*
X62242172Y-94499000D01*
X62355832Y-94499000D01*
X62467307Y-94476826D01*
X62572314Y-94433331D01*
X62666818Y-94370185D01*
X62747187Y-94289816D01*
X62810333Y-94195312D01*
X62853828Y-94090305D01*
X62876002Y-93978830D01*
X62876002Y-93865170D01*
X64897000Y-93865170D01*
X64897000Y-93978830D01*
X64919174Y-94090305D01*
X64962669Y-94195312D01*
X65025815Y-94289816D01*
X65106184Y-94370185D01*
X65200688Y-94433331D01*
X65305695Y-94476826D01*
X65417170Y-94499000D01*
X65530830Y-94499000D01*
X65642305Y-94476826D01*
X65747312Y-94433331D01*
X65841816Y-94370185D01*
X65922185Y-94289816D01*
X65982769Y-94199145D01*
X78578190Y-94199145D01*
X78578190Y-94312805D01*
X78600364Y-94424280D01*
X78643859Y-94529287D01*
X78707005Y-94623791D01*
X78787374Y-94704160D01*
X78881878Y-94767306D01*
X78986885Y-94810801D01*
X79098360Y-94832975D01*
X79212020Y-94832975D01*
X79323495Y-94810801D01*
X79428502Y-94767306D01*
X79523006Y-94704160D01*
X79603375Y-94623791D01*
X79666521Y-94529287D01*
X79682899Y-94489746D01*
X83612100Y-94489746D01*
X83612100Y-94613254D01*
X83636195Y-94734389D01*
X83683460Y-94848496D01*
X83752077Y-94951189D01*
X83839411Y-95038523D01*
X83910079Y-95085741D01*
X83844009Y-95151811D01*
X83775392Y-95254504D01*
X83728127Y-95368611D01*
X83704032Y-95489746D01*
X83704032Y-95613254D01*
X83728127Y-95734389D01*
X83775392Y-95848496D01*
X83844009Y-95951189D01*
X83931343Y-96038523D01*
X84034036Y-96107140D01*
X84148143Y-96154405D01*
X84269278Y-96178500D01*
X84392786Y-96178500D01*
X84513921Y-96154405D01*
X84628028Y-96107140D01*
X84730721Y-96038523D01*
X84818055Y-95951189D01*
X84857794Y-95891714D01*
X87434000Y-95891714D01*
X87434000Y-96005374D01*
X87456174Y-96116849D01*
X87499669Y-96221856D01*
X87562815Y-96316360D01*
X87643184Y-96396729D01*
X87737688Y-96459875D01*
X87842695Y-96503370D01*
X87954170Y-96525544D01*
X88067830Y-96525544D01*
X88179305Y-96503370D01*
X88284312Y-96459875D01*
X88378816Y-96396729D01*
X88459185Y-96316360D01*
X88522331Y-96221856D01*
X88565826Y-96116849D01*
X88588000Y-96005374D01*
X88588000Y-95891714D01*
X88565826Y-95780239D01*
X88522331Y-95675232D01*
X88459185Y-95580728D01*
X88378816Y-95500359D01*
X88284312Y-95437213D01*
X88179305Y-95393718D01*
X88067830Y-95371544D01*
X87954170Y-95371544D01*
X87842695Y-95393718D01*
X87737688Y-95437213D01*
X87643184Y-95500359D01*
X87562815Y-95580728D01*
X87499669Y-95675232D01*
X87456174Y-95780239D01*
X87434000Y-95891714D01*
X84857794Y-95891714D01*
X84886672Y-95848496D01*
X84933937Y-95734389D01*
X84958032Y-95613254D01*
X84958032Y-95489746D01*
X84933937Y-95368611D01*
X84886672Y-95254504D01*
X84818055Y-95151811D01*
X84730721Y-95064477D01*
X84660053Y-95017259D01*
X84726123Y-94951189D01*
X84794740Y-94848496D01*
X84842005Y-94734389D01*
X84866100Y-94613254D01*
X84866100Y-94489746D01*
X84842005Y-94368611D01*
X84794740Y-94254504D01*
X84726123Y-94151811D01*
X84638789Y-94064477D01*
X84536096Y-93995860D01*
X84421989Y-93948595D01*
X84300854Y-93924500D01*
X84177346Y-93924500D01*
X84056211Y-93948595D01*
X83942104Y-93995860D01*
X83839411Y-94064477D01*
X83752077Y-94151811D01*
X83683460Y-94254504D01*
X83636195Y-94368611D01*
X83612100Y-94489746D01*
X79682899Y-94489746D01*
X79710016Y-94424280D01*
X79732190Y-94312805D01*
X79732190Y-94199145D01*
X79710016Y-94087670D01*
X79666521Y-93982663D01*
X79603375Y-93888159D01*
X79523006Y-93807790D01*
X79428502Y-93744644D01*
X79323495Y-93701149D01*
X79212020Y-93678975D01*
X79098360Y-93678975D01*
X78986885Y-93701149D01*
X78881878Y-93744644D01*
X78787374Y-93807790D01*
X78707005Y-93888159D01*
X78643859Y-93982663D01*
X78600364Y-94087670D01*
X78578190Y-94199145D01*
X65982769Y-94199145D01*
X65985331Y-94195312D01*
X66028826Y-94090305D01*
X66051000Y-93978830D01*
X66051000Y-93865170D01*
X66028826Y-93753695D01*
X65985331Y-93648688D01*
X65922185Y-93554184D01*
X65841816Y-93473815D01*
X65747312Y-93410669D01*
X65642305Y-93367174D01*
X65530830Y-93345000D01*
X65417170Y-93345000D01*
X65305695Y-93367174D01*
X65200688Y-93410669D01*
X65106184Y-93473815D01*
X65025815Y-93554184D01*
X64962669Y-93648688D01*
X64919174Y-93753695D01*
X64897000Y-93865170D01*
X62876002Y-93865170D01*
X62853828Y-93753695D01*
X62810333Y-93648688D01*
X62747187Y-93554184D01*
X62666818Y-93473815D01*
X62572314Y-93410669D01*
X62467307Y-93367174D01*
X62355832Y-93345000D01*
X62242172Y-93345000D01*
X62130697Y-93367174D01*
X62025690Y-93410669D01*
X61931186Y-93473815D01*
X61850817Y-93554184D01*
X61787671Y-93648688D01*
X61744176Y-93753695D01*
X61722002Y-93865170D01*
X49535562Y-93865170D01*
X49531459Y-93471759D01*
X49536270Y-92978310D01*
X78970410Y-92978310D01*
X78970410Y-93091970D01*
X78992584Y-93203445D01*
X79036079Y-93308452D01*
X79099225Y-93402956D01*
X79179594Y-93483325D01*
X79274098Y-93546471D01*
X79379105Y-93589966D01*
X79490580Y-93612140D01*
X79604240Y-93612140D01*
X79715715Y-93589966D01*
X79820722Y-93546471D01*
X79915226Y-93483325D01*
X79995595Y-93402956D01*
X80058741Y-93308452D01*
X80102236Y-93203445D01*
X80124410Y-93091970D01*
X80124410Y-92978310D01*
X80110260Y-92907170D01*
X87434000Y-92907170D01*
X87434000Y-93020830D01*
X87456174Y-93132305D01*
X87499669Y-93237312D01*
X87562815Y-93331816D01*
X87643184Y-93412185D01*
X87737688Y-93475331D01*
X87842695Y-93518826D01*
X87954170Y-93541000D01*
X88067830Y-93541000D01*
X88179305Y-93518826D01*
X88284312Y-93475331D01*
X88378816Y-93412185D01*
X88459185Y-93331816D01*
X88522331Y-93237312D01*
X88565826Y-93132305D01*
X88588000Y-93020830D01*
X88588000Y-92907170D01*
X88565826Y-92795695D01*
X88522331Y-92690688D01*
X88459185Y-92596184D01*
X88378816Y-92515815D01*
X88284312Y-92452669D01*
X88179305Y-92409174D01*
X88067830Y-92387000D01*
X87954170Y-92387000D01*
X87842695Y-92409174D01*
X87737688Y-92452669D01*
X87643184Y-92515815D01*
X87562815Y-92596184D01*
X87499669Y-92690688D01*
X87456174Y-92795695D01*
X87434000Y-92907170D01*
X80110260Y-92907170D01*
X80102236Y-92866835D01*
X80058741Y-92761828D01*
X79995595Y-92667324D01*
X79915226Y-92586955D01*
X79820722Y-92523809D01*
X79715715Y-92480314D01*
X79604240Y-92458140D01*
X79490580Y-92458140D01*
X79379105Y-92480314D01*
X79274098Y-92523809D01*
X79179594Y-92586955D01*
X79099225Y-92667324D01*
X79036079Y-92761828D01*
X78992584Y-92866835D01*
X78970410Y-92978310D01*
X49536270Y-92978310D01*
X49541483Y-92443732D01*
X49572454Y-91415941D01*
X49580745Y-91251246D01*
X56053100Y-91251246D01*
X56053100Y-91374754D01*
X56077195Y-91495889D01*
X56124460Y-91609996D01*
X56193077Y-91712689D01*
X56280411Y-91800023D01*
X56299833Y-91813000D01*
X56280411Y-91825977D01*
X56193077Y-91913311D01*
X56124460Y-92016004D01*
X56077195Y-92130111D01*
X56053100Y-92251246D01*
X56053100Y-92374754D01*
X56077195Y-92495889D01*
X56124460Y-92609996D01*
X56193077Y-92712689D01*
X56280411Y-92800023D01*
X56383104Y-92868640D01*
X56497211Y-92915905D01*
X56618346Y-92940000D01*
X56741854Y-92940000D01*
X56862989Y-92915905D01*
X56977096Y-92868640D01*
X57079789Y-92800023D01*
X57167123Y-92712689D01*
X57235740Y-92609996D01*
X57283005Y-92495889D01*
X57307100Y-92374754D01*
X57307100Y-92251246D01*
X57283005Y-92130111D01*
X57235740Y-92016004D01*
X57167123Y-91913311D01*
X57079789Y-91825977D01*
X57060367Y-91813000D01*
X57079789Y-91800023D01*
X57167123Y-91712689D01*
X57235740Y-91609996D01*
X57283005Y-91495889D01*
X57307100Y-91374754D01*
X57307100Y-91251246D01*
X57283005Y-91130111D01*
X57282616Y-91129170D01*
X64891500Y-91129170D01*
X64891500Y-91242830D01*
X64913674Y-91354305D01*
X64957169Y-91459312D01*
X65020315Y-91553816D01*
X65100684Y-91634185D01*
X65195188Y-91697331D01*
X65300195Y-91740826D01*
X65411670Y-91763000D01*
X65525330Y-91763000D01*
X65636805Y-91740826D01*
X65741812Y-91697331D01*
X65836316Y-91634185D01*
X65916685Y-91553816D01*
X65979831Y-91459312D01*
X66023326Y-91354305D01*
X66045500Y-91242830D01*
X66045500Y-91129170D01*
X66035949Y-91081154D01*
X78086800Y-91081154D01*
X78086800Y-91194814D01*
X78108974Y-91306289D01*
X78152469Y-91411296D01*
X78215615Y-91505800D01*
X78295984Y-91586169D01*
X78390488Y-91649315D01*
X78495495Y-91692810D01*
X78606970Y-91714984D01*
X78720630Y-91714984D01*
X78832105Y-91692810D01*
X78886248Y-91670384D01*
X78893346Y-91681007D01*
X78973715Y-91761376D01*
X79068219Y-91824522D01*
X79173226Y-91868017D01*
X79284701Y-91890191D01*
X79398361Y-91890191D01*
X79509836Y-91868017D01*
X79614843Y-91824522D01*
X79709347Y-91761376D01*
X79789716Y-91681007D01*
X79852862Y-91586503D01*
X79896357Y-91481496D01*
X79918531Y-91370021D01*
X79918531Y-91256361D01*
X79896357Y-91144886D01*
X79887808Y-91124246D01*
X83612100Y-91124246D01*
X83612100Y-91247754D01*
X83636195Y-91368889D01*
X83683460Y-91482996D01*
X83752077Y-91585689D01*
X83839411Y-91673023D01*
X83869183Y-91692916D01*
X83860111Y-91698977D01*
X83772777Y-91786311D01*
X83704160Y-91889004D01*
X83656895Y-92003111D01*
X83632800Y-92124246D01*
X83632800Y-92247754D01*
X83656895Y-92368889D01*
X83704160Y-92482996D01*
X83772777Y-92585689D01*
X83860111Y-92673023D01*
X83962804Y-92741640D01*
X84076911Y-92788905D01*
X84198046Y-92813000D01*
X84321554Y-92813000D01*
X84442689Y-92788905D01*
X84556796Y-92741640D01*
X84659489Y-92673023D01*
X84746823Y-92585689D01*
X84815440Y-92482996D01*
X84862705Y-92368889D01*
X84886800Y-92247754D01*
X84886800Y-92124246D01*
X84862705Y-92003111D01*
X84815440Y-91889004D01*
X84746823Y-91786311D01*
X84659489Y-91698977D01*
X84629717Y-91679084D01*
X84638789Y-91673023D01*
X84726123Y-91585689D01*
X84794740Y-91482996D01*
X84842005Y-91368889D01*
X84866100Y-91247754D01*
X84866100Y-91124246D01*
X84842005Y-91003111D01*
X84794740Y-90889004D01*
X84726123Y-90786311D01*
X84638789Y-90698977D01*
X84536096Y-90630360D01*
X84421989Y-90583095D01*
X84300854Y-90559000D01*
X84177346Y-90559000D01*
X84056211Y-90583095D01*
X83942104Y-90630360D01*
X83839411Y-90698977D01*
X83752077Y-90786311D01*
X83683460Y-90889004D01*
X83636195Y-91003111D01*
X83612100Y-91124246D01*
X79887808Y-91124246D01*
X79852862Y-91039879D01*
X79789716Y-90945375D01*
X79718448Y-90874107D01*
X79755241Y-90785279D01*
X79777415Y-90673804D01*
X79777415Y-90560144D01*
X79755241Y-90448669D01*
X79711746Y-90343662D01*
X79648600Y-90249158D01*
X79643056Y-90243614D01*
X79685272Y-90201398D01*
X79748418Y-90106894D01*
X79791913Y-90001887D01*
X79814087Y-89890412D01*
X79814087Y-89776752D01*
X79796080Y-89686221D01*
X81224732Y-89686221D01*
X81224732Y-89799881D01*
X81246906Y-89911356D01*
X81290401Y-90016363D01*
X81353547Y-90110867D01*
X81433916Y-90191236D01*
X81528420Y-90254382D01*
X81633427Y-90297877D01*
X81744902Y-90320051D01*
X81858562Y-90320051D01*
X81970037Y-90297877D01*
X82075044Y-90254382D01*
X82169548Y-90191236D01*
X82249917Y-90110867D01*
X82313063Y-90016363D01*
X82356558Y-89911356D01*
X82378732Y-89799881D01*
X82378732Y-89686221D01*
X82376736Y-89676189D01*
X82479482Y-89633630D01*
X82582175Y-89565013D01*
X82669509Y-89477679D01*
X82738126Y-89374986D01*
X82785391Y-89260879D01*
X82809486Y-89139744D01*
X82809486Y-89016236D01*
X82785391Y-88895101D01*
X82738126Y-88780994D01*
X82669509Y-88678301D01*
X82582175Y-88590967D01*
X82479482Y-88522350D01*
X82365375Y-88475085D01*
X82244240Y-88450990D01*
X82120732Y-88450990D01*
X81999597Y-88475085D01*
X81885490Y-88522350D01*
X81782797Y-88590967D01*
X81695463Y-88678301D01*
X81626846Y-88780994D01*
X81579581Y-88895101D01*
X81555486Y-89016236D01*
X81555486Y-89139744D01*
X81570328Y-89214361D01*
X81528420Y-89231720D01*
X81433916Y-89294866D01*
X81353547Y-89375235D01*
X81290401Y-89469739D01*
X81246906Y-89574746D01*
X81224732Y-89686221D01*
X79796080Y-89686221D01*
X79791913Y-89665277D01*
X79748418Y-89560270D01*
X79685272Y-89465766D01*
X79604903Y-89385397D01*
X79510399Y-89322251D01*
X79405392Y-89278756D01*
X79293917Y-89256582D01*
X79180257Y-89256582D01*
X79068782Y-89278756D01*
X78963775Y-89322251D01*
X78869271Y-89385397D01*
X78788902Y-89465766D01*
X78725756Y-89560270D01*
X78682261Y-89665277D01*
X78660087Y-89776752D01*
X78660087Y-89890412D01*
X78682261Y-90001887D01*
X78725756Y-90106894D01*
X78788902Y-90201398D01*
X78794446Y-90206942D01*
X78752230Y-90249158D01*
X78689084Y-90343662D01*
X78645589Y-90448669D01*
X78623415Y-90560144D01*
X78623415Y-90560984D01*
X78606970Y-90560984D01*
X78495495Y-90583158D01*
X78390488Y-90626653D01*
X78295984Y-90689799D01*
X78215615Y-90770168D01*
X78152469Y-90864672D01*
X78108974Y-90969679D01*
X78086800Y-91081154D01*
X66035949Y-91081154D01*
X66023326Y-91017695D01*
X65979831Y-90912688D01*
X65916685Y-90818184D01*
X65836316Y-90737815D01*
X65741812Y-90674669D01*
X65636805Y-90631174D01*
X65525330Y-90609000D01*
X65411670Y-90609000D01*
X65300195Y-90631174D01*
X65195188Y-90674669D01*
X65100684Y-90737815D01*
X65020315Y-90818184D01*
X64957169Y-90912688D01*
X64913674Y-91017695D01*
X64891500Y-91129170D01*
X57282616Y-91129170D01*
X57235740Y-91016004D01*
X57167123Y-90913311D01*
X57079789Y-90825977D01*
X56977096Y-90757360D01*
X56862989Y-90710095D01*
X56741854Y-90686000D01*
X56618346Y-90686000D01*
X56497211Y-90710095D01*
X56383104Y-90757360D01*
X56280411Y-90825977D01*
X56193077Y-90913311D01*
X56124460Y-91016004D01*
X56077195Y-91130111D01*
X56053100Y-91251246D01*
X49580745Y-91251246D01*
X49624169Y-90388778D01*
X49635039Y-90235252D01*
X55253000Y-90235252D01*
X55253000Y-90358760D01*
X55277095Y-90479895D01*
X55324360Y-90594002D01*
X55392977Y-90696695D01*
X55480311Y-90784029D01*
X55583004Y-90852646D01*
X55697111Y-90899911D01*
X55818246Y-90924006D01*
X55941754Y-90924006D01*
X56062889Y-90899911D01*
X56176996Y-90852646D01*
X56279689Y-90784029D01*
X56367023Y-90696695D01*
X56435640Y-90594002D01*
X56482905Y-90479895D01*
X56507000Y-90358760D01*
X56507000Y-90235252D01*
X56482905Y-90114117D01*
X56435640Y-90000010D01*
X56367023Y-89897317D01*
X56279689Y-89809983D01*
X56176996Y-89741366D01*
X56062889Y-89694101D01*
X55941754Y-89670006D01*
X55818246Y-89670006D01*
X55697111Y-89694101D01*
X55583004Y-89741366D01*
X55480311Y-89809983D01*
X55392977Y-89897317D01*
X55324360Y-90000010D01*
X55277095Y-90114117D01*
X55253000Y-90235252D01*
X49635039Y-90235252D01*
X49696829Y-89362603D01*
X49715679Y-89155746D01*
X57192990Y-89155746D01*
X57192990Y-89279254D01*
X57217085Y-89400389D01*
X57264350Y-89514496D01*
X57332967Y-89617189D01*
X57420301Y-89704523D01*
X57522994Y-89773140D01*
X57637101Y-89820405D01*
X57758236Y-89844500D01*
X57881744Y-89844500D01*
X58002879Y-89820405D01*
X58116986Y-89773140D01*
X58219679Y-89704523D01*
X58291848Y-89632354D01*
X59432662Y-89632354D01*
X59432662Y-89755862D01*
X59456757Y-89876997D01*
X59504022Y-89991104D01*
X59572639Y-90093797D01*
X59659973Y-90181131D01*
X59762666Y-90249748D01*
X59876773Y-90297013D01*
X59997908Y-90321108D01*
X60121416Y-90321108D01*
X60242551Y-90297013D01*
X60356658Y-90249748D01*
X60380938Y-90233525D01*
X60397570Y-90258416D01*
X60477939Y-90338785D01*
X60572443Y-90401931D01*
X60677450Y-90445426D01*
X60788925Y-90467600D01*
X60902585Y-90467600D01*
X61014060Y-90445426D01*
X61119067Y-90401931D01*
X61213571Y-90338785D01*
X61293940Y-90258416D01*
X61357086Y-90163912D01*
X61400581Y-90058905D01*
X61422755Y-89947430D01*
X61422755Y-89833770D01*
X61415177Y-89795670D01*
X61716500Y-89795670D01*
X61716500Y-89909330D01*
X61738674Y-90020805D01*
X61782169Y-90125812D01*
X61845315Y-90220316D01*
X61925684Y-90300685D01*
X62020188Y-90363831D01*
X62125195Y-90407326D01*
X62236670Y-90429500D01*
X62350330Y-90429500D01*
X62461805Y-90407326D01*
X62566812Y-90363831D01*
X62661316Y-90300685D01*
X62741685Y-90220316D01*
X62804831Y-90125812D01*
X62848326Y-90020805D01*
X62868467Y-89919553D01*
X62906305Y-89912026D01*
X63011312Y-89868531D01*
X63105816Y-89805385D01*
X63186185Y-89725016D01*
X63249331Y-89630512D01*
X63292826Y-89525505D01*
X63315000Y-89414030D01*
X63315000Y-89300370D01*
X63292826Y-89188895D01*
X63249331Y-89083888D01*
X63186185Y-88989384D01*
X63105816Y-88909015D01*
X63011312Y-88845869D01*
X62906305Y-88802374D01*
X62794830Y-88780200D01*
X62681170Y-88780200D01*
X62569695Y-88802374D01*
X62464688Y-88845869D01*
X62370184Y-88909015D01*
X62289815Y-88989384D01*
X62226669Y-89083888D01*
X62183174Y-89188895D01*
X62163033Y-89290147D01*
X62125195Y-89297674D01*
X62020188Y-89341169D01*
X61925684Y-89404315D01*
X61845315Y-89484684D01*
X61782169Y-89579188D01*
X61738674Y-89684195D01*
X61716500Y-89795670D01*
X61415177Y-89795670D01*
X61400581Y-89722295D01*
X61357086Y-89617288D01*
X61293940Y-89522784D01*
X61213571Y-89442415D01*
X61119067Y-89379269D01*
X61014060Y-89335774D01*
X60902585Y-89313600D01*
X60788925Y-89313600D01*
X60677450Y-89335774D01*
X60596674Y-89369232D01*
X60546685Y-89294419D01*
X60459351Y-89207085D01*
X60356658Y-89138468D01*
X60242551Y-89091203D01*
X60121416Y-89067108D01*
X59997908Y-89067108D01*
X59876773Y-89091203D01*
X59762666Y-89138468D01*
X59659973Y-89207085D01*
X59572639Y-89294419D01*
X59504022Y-89397112D01*
X59456757Y-89511219D01*
X59432662Y-89632354D01*
X58291848Y-89632354D01*
X58307013Y-89617189D01*
X58375630Y-89514496D01*
X58422895Y-89400389D01*
X58446990Y-89279254D01*
X58446990Y-89155746D01*
X58422895Y-89034611D01*
X58375630Y-88920504D01*
X58307013Y-88817811D01*
X58219679Y-88730477D01*
X58116986Y-88661860D01*
X58002879Y-88614595D01*
X57881744Y-88590500D01*
X57758236Y-88590500D01*
X57637101Y-88614595D01*
X57522994Y-88661860D01*
X57420301Y-88730477D01*
X57332967Y-88817811D01*
X57264350Y-88920504D01*
X57217085Y-89034611D01*
X57192990Y-89155746D01*
X49715679Y-89155746D01*
X49790238Y-88337597D01*
X49904392Y-87314275D01*
X50039486Y-86292795D01*
X50049947Y-86224377D01*
X51912200Y-86224377D01*
X51912200Y-86495623D01*
X51965117Y-86761656D01*
X52068918Y-87012254D01*
X52219614Y-87237787D01*
X52411413Y-87429586D01*
X52636946Y-87580282D01*
X52887544Y-87684083D01*
X53153577Y-87737000D01*
X53424823Y-87737000D01*
X53690856Y-87684083D01*
X53941454Y-87580282D01*
X53959467Y-87568246D01*
X56688100Y-87568246D01*
X56688100Y-87691754D01*
X56712195Y-87812889D01*
X56759460Y-87926996D01*
X56828077Y-88029689D01*
X56915411Y-88117023D01*
X57018104Y-88185640D01*
X57132211Y-88232905D01*
X57253346Y-88257000D01*
X57376854Y-88257000D01*
X57497989Y-88232905D01*
X57612096Y-88185640D01*
X57714789Y-88117023D01*
X57763066Y-88068746D01*
X65028343Y-88068746D01*
X65028343Y-88182406D01*
X65050517Y-88293881D01*
X65094012Y-88398888D01*
X65157158Y-88493392D01*
X65237527Y-88573761D01*
X65332031Y-88636907D01*
X65437038Y-88680402D01*
X65548513Y-88702576D01*
X65662173Y-88702576D01*
X65773648Y-88680402D01*
X65878655Y-88636907D01*
X65973159Y-88573761D01*
X66031078Y-88515842D01*
X67812208Y-88515842D01*
X67812208Y-88629502D01*
X67834382Y-88740977D01*
X67877877Y-88845984D01*
X67941023Y-88940488D01*
X68021392Y-89020857D01*
X68115896Y-89084003D01*
X68220903Y-89127498D01*
X68332378Y-89149672D01*
X68446038Y-89149672D01*
X68557513Y-89127498D01*
X68662520Y-89084003D01*
X68757024Y-89020857D01*
X68837393Y-88940488D01*
X68900539Y-88845984D01*
X68925530Y-88785649D01*
X68988885Y-88798251D01*
X69102545Y-88798251D01*
X69214020Y-88776077D01*
X69319027Y-88732582D01*
X69413531Y-88669436D01*
X69493900Y-88589067D01*
X69557046Y-88494563D01*
X69572503Y-88457246D01*
X69794500Y-88457246D01*
X69794500Y-88580754D01*
X69818595Y-88701889D01*
X69865860Y-88815996D01*
X69934477Y-88918689D01*
X70021811Y-89006023D01*
X70124504Y-89074640D01*
X70238611Y-89121905D01*
X70359746Y-89146000D01*
X70483254Y-89146000D01*
X70604389Y-89121905D01*
X70718496Y-89074640D01*
X70821189Y-89006023D01*
X70908523Y-88918689D01*
X70977140Y-88815996D01*
X71024405Y-88701889D01*
X71048500Y-88580754D01*
X71048500Y-88457246D01*
X71024405Y-88336111D01*
X71018273Y-88321306D01*
X71692736Y-88321306D01*
X71692736Y-88434966D01*
X71714910Y-88546441D01*
X71758405Y-88651448D01*
X71821551Y-88745952D01*
X71901920Y-88826321D01*
X71996424Y-88889467D01*
X72101431Y-88932962D01*
X72212906Y-88955136D01*
X72326566Y-88955136D01*
X72438041Y-88932962D01*
X72543048Y-88889467D01*
X72623263Y-88835868D01*
X72679992Y-88892597D01*
X72774496Y-88955743D01*
X72879503Y-88999238D01*
X72990978Y-89021412D01*
X73104638Y-89021412D01*
X73216113Y-88999238D01*
X73321120Y-88955743D01*
X73415624Y-88892597D01*
X73426384Y-88881838D01*
X73463167Y-88918621D01*
X73557671Y-88981767D01*
X73662678Y-89025262D01*
X73774153Y-89047436D01*
X73887813Y-89047436D01*
X73999288Y-89025262D01*
X74104295Y-88981767D01*
X74198799Y-88918621D01*
X74279168Y-88838252D01*
X74342314Y-88743748D01*
X74372382Y-88671157D01*
X74378090Y-88699854D01*
X74425355Y-88813961D01*
X74493972Y-88916654D01*
X74581306Y-89003988D01*
X74683999Y-89072605D01*
X74798106Y-89119870D01*
X74919241Y-89143965D01*
X74929115Y-89143965D01*
X74951702Y-89257517D01*
X74998967Y-89371624D01*
X75067584Y-89474317D01*
X75154918Y-89561651D01*
X75257611Y-89630268D01*
X75328701Y-89659715D01*
X75293620Y-89694796D01*
X75230474Y-89789300D01*
X75186979Y-89894307D01*
X75164805Y-90005782D01*
X75164805Y-90119442D01*
X75186979Y-90230917D01*
X75230474Y-90335924D01*
X75293620Y-90430428D01*
X75373989Y-90510797D01*
X75468493Y-90573943D01*
X75573500Y-90617438D01*
X75684975Y-90639612D01*
X75798635Y-90639612D01*
X75910110Y-90617438D01*
X76015117Y-90573943D01*
X76109621Y-90510797D01*
X76189990Y-90430428D01*
X76253136Y-90335924D01*
X76266230Y-90304311D01*
X76320970Y-90315200D01*
X76434630Y-90315200D01*
X76546105Y-90293026D01*
X76651112Y-90249531D01*
X76715465Y-90206531D01*
X76804711Y-90266164D01*
X76909718Y-90309659D01*
X77021193Y-90331833D01*
X77134853Y-90331833D01*
X77246328Y-90309659D01*
X77351335Y-90266164D01*
X77445839Y-90203018D01*
X77526208Y-90122649D01*
X77544893Y-90094686D01*
X77561009Y-90110802D01*
X77663702Y-90179419D01*
X77777809Y-90226684D01*
X77898944Y-90250779D01*
X78022452Y-90250779D01*
X78143587Y-90226684D01*
X78257694Y-90179419D01*
X78360387Y-90110802D01*
X78447721Y-90023468D01*
X78516338Y-89920775D01*
X78563603Y-89806668D01*
X78587698Y-89685533D01*
X78587698Y-89562025D01*
X78563603Y-89440890D01*
X78516338Y-89326783D01*
X78447721Y-89224090D01*
X78360387Y-89136756D01*
X78257694Y-89068139D01*
X78143587Y-89020874D01*
X78022452Y-88996779D01*
X77898944Y-88996779D01*
X77777809Y-89020874D01*
X77663702Y-89068139D01*
X77561009Y-89136756D01*
X77473675Y-89224090D01*
X77426947Y-89294024D01*
X77351335Y-89243502D01*
X77246328Y-89200007D01*
X77134853Y-89177833D01*
X77021193Y-89177833D01*
X76909718Y-89200007D01*
X76804711Y-89243502D01*
X76740358Y-89286502D01*
X76651112Y-89226869D01*
X76546105Y-89183374D01*
X76434630Y-89161200D01*
X76320970Y-89161200D01*
X76209495Y-89183374D01*
X76168917Y-89200182D01*
X76181607Y-89136382D01*
X76181607Y-89012874D01*
X76157512Y-88891739D01*
X76110247Y-88777632D01*
X76041630Y-88674939D01*
X75954296Y-88587605D01*
X75851603Y-88518988D01*
X75737496Y-88471723D01*
X75616361Y-88447628D01*
X75606487Y-88447628D01*
X75583900Y-88334076D01*
X75536635Y-88219969D01*
X75519336Y-88194079D01*
X80156677Y-88194079D01*
X80156677Y-88317587D01*
X80180772Y-88438722D01*
X80228037Y-88552829D01*
X80296654Y-88655522D01*
X80383988Y-88742856D01*
X80486681Y-88811473D01*
X80600788Y-88858738D01*
X80721923Y-88882833D01*
X80845431Y-88882833D01*
X80966566Y-88858738D01*
X81080673Y-88811473D01*
X81183366Y-88742856D01*
X81270700Y-88655522D01*
X81339317Y-88552829D01*
X81386582Y-88438722D01*
X81410677Y-88317587D01*
X81410677Y-88194079D01*
X81386582Y-88072944D01*
X81339317Y-87958837D01*
X81270700Y-87856144D01*
X81183366Y-87768810D01*
X81080673Y-87700193D01*
X80966566Y-87652928D01*
X80845431Y-87628833D01*
X80721923Y-87628833D01*
X80600788Y-87652928D01*
X80486681Y-87700193D01*
X80383988Y-87768810D01*
X80296654Y-87856144D01*
X80228037Y-87958837D01*
X80180772Y-88072944D01*
X80156677Y-88194079D01*
X75519336Y-88194079D01*
X75468018Y-88117276D01*
X75380684Y-88029942D01*
X75277991Y-87961325D01*
X75163884Y-87914060D01*
X75042749Y-87889965D01*
X74919241Y-87889965D01*
X74798106Y-87914060D01*
X74683999Y-87961325D01*
X74581306Y-88029942D01*
X74493972Y-88117276D01*
X74425355Y-88219969D01*
X74387598Y-88311123D01*
X74385809Y-88302131D01*
X74342314Y-88197124D01*
X74279168Y-88102620D01*
X74198799Y-88022251D01*
X74104295Y-87959105D01*
X73999288Y-87915610D01*
X73887813Y-87893436D01*
X73774153Y-87893436D01*
X73662678Y-87915610D01*
X73557671Y-87959105D01*
X73463167Y-88022251D01*
X73452408Y-88033011D01*
X73415624Y-87996227D01*
X73321120Y-87933081D01*
X73216113Y-87889586D01*
X73104638Y-87867412D01*
X72990978Y-87867412D01*
X72879503Y-87889586D01*
X72774496Y-87933081D01*
X72694281Y-87986680D01*
X72637552Y-87929951D01*
X72543048Y-87866805D01*
X72438041Y-87823310D01*
X72326566Y-87801136D01*
X72212906Y-87801136D01*
X72101431Y-87823310D01*
X71996424Y-87866805D01*
X71901920Y-87929951D01*
X71821551Y-88010320D01*
X71758405Y-88104824D01*
X71714910Y-88209831D01*
X71692736Y-88321306D01*
X71018273Y-88321306D01*
X70977140Y-88222004D01*
X70908523Y-88119311D01*
X70821189Y-88031977D01*
X70718496Y-87963360D01*
X70604389Y-87916095D01*
X70483254Y-87892000D01*
X70359746Y-87892000D01*
X70238611Y-87916095D01*
X70124504Y-87963360D01*
X70021811Y-88031977D01*
X69934477Y-88119311D01*
X69865860Y-88222004D01*
X69818595Y-88336111D01*
X69794500Y-88457246D01*
X69572503Y-88457246D01*
X69600541Y-88389556D01*
X69622715Y-88278081D01*
X69622715Y-88164421D01*
X69600541Y-88052946D01*
X69557046Y-87947939D01*
X69502765Y-87866703D01*
X69504717Y-87864751D01*
X69567863Y-87770247D01*
X69611358Y-87665240D01*
X69633532Y-87553765D01*
X69633532Y-87440105D01*
X69611358Y-87328630D01*
X69567863Y-87223623D01*
X69504717Y-87129119D01*
X69468722Y-87093124D01*
X71088611Y-87093124D01*
X71088611Y-87201858D01*
X71109824Y-87308503D01*
X71151435Y-87408961D01*
X71211845Y-87499371D01*
X71288731Y-87576257D01*
X71379141Y-87636667D01*
X71479599Y-87678278D01*
X71586244Y-87699491D01*
X71694978Y-87699491D01*
X71801623Y-87678278D01*
X71902081Y-87636667D01*
X71992491Y-87576257D01*
X72035840Y-87532908D01*
X72056890Y-87546973D01*
X72157348Y-87588584D01*
X72263993Y-87609797D01*
X72372727Y-87609797D01*
X72479372Y-87588584D01*
X72579830Y-87546973D01*
X72670240Y-87486563D01*
X72747126Y-87409677D01*
X72807536Y-87319267D01*
X72849147Y-87218809D01*
X72870360Y-87112164D01*
X72870360Y-87003430D01*
X72849147Y-86896785D01*
X72807536Y-86796327D01*
X72747126Y-86705917D01*
X72670240Y-86629031D01*
X72579830Y-86568621D01*
X72479372Y-86527010D01*
X72372727Y-86505797D01*
X72263993Y-86505797D01*
X72157348Y-86527010D01*
X72056890Y-86568621D01*
X71966480Y-86629031D01*
X71923131Y-86672380D01*
X71902081Y-86658315D01*
X71801623Y-86616704D01*
X71694978Y-86595491D01*
X71586244Y-86595491D01*
X71479599Y-86616704D01*
X71379141Y-86658315D01*
X71288731Y-86718725D01*
X71211845Y-86795611D01*
X71151435Y-86886021D01*
X71109824Y-86986479D01*
X71088611Y-87093124D01*
X69468722Y-87093124D01*
X69424348Y-87048750D01*
X69329844Y-86985604D01*
X69224837Y-86942109D01*
X69113362Y-86919935D01*
X69041668Y-86919935D01*
X69033226Y-86877495D01*
X68989731Y-86772488D01*
X68926585Y-86677984D01*
X68846216Y-86597615D01*
X68751712Y-86534469D01*
X68653214Y-86493670D01*
X72765508Y-86493670D01*
X72765508Y-86607330D01*
X72787682Y-86718805D01*
X72831177Y-86823812D01*
X72894323Y-86918316D01*
X72974692Y-86998685D01*
X73069196Y-87061831D01*
X73174203Y-87105326D01*
X73285678Y-87127500D01*
X73399338Y-87127500D01*
X73510813Y-87105326D01*
X73615820Y-87061831D01*
X73710324Y-86998685D01*
X73745439Y-86963570D01*
X75826200Y-86963570D01*
X75826200Y-87077230D01*
X75848374Y-87188705D01*
X75891869Y-87293712D01*
X75955015Y-87388216D01*
X76035384Y-87468585D01*
X76129888Y-87531731D01*
X76234895Y-87575226D01*
X76346370Y-87597400D01*
X76460030Y-87597400D01*
X76571505Y-87575226D01*
X76676512Y-87531731D01*
X76771016Y-87468585D01*
X76851385Y-87388216D01*
X76890014Y-87330404D01*
X76945615Y-87413616D01*
X77025984Y-87493985D01*
X77120488Y-87557131D01*
X77225495Y-87600626D01*
X77336970Y-87622800D01*
X77450630Y-87622800D01*
X77562105Y-87600626D01*
X77667112Y-87557131D01*
X77761616Y-87493985D01*
X77841985Y-87413616D01*
X77905131Y-87319112D01*
X77948626Y-87214105D01*
X77970800Y-87102630D01*
X77970800Y-87034846D01*
X78062200Y-87034846D01*
X78062200Y-87158354D01*
X78086295Y-87279489D01*
X78133560Y-87393596D01*
X78202177Y-87496289D01*
X78289511Y-87583623D01*
X78392204Y-87652240D01*
X78506311Y-87699505D01*
X78627446Y-87723600D01*
X78750954Y-87723600D01*
X78872089Y-87699505D01*
X78986196Y-87652240D01*
X79088889Y-87583623D01*
X79176223Y-87496289D01*
X79244840Y-87393596D01*
X79292105Y-87279489D01*
X79316200Y-87158354D01*
X79316200Y-87034846D01*
X79292105Y-86913711D01*
X79244840Y-86799604D01*
X79176223Y-86696911D01*
X79088889Y-86609577D01*
X78986196Y-86540960D01*
X78872089Y-86493695D01*
X78750954Y-86469600D01*
X78627446Y-86469600D01*
X78506311Y-86493695D01*
X78392204Y-86540960D01*
X78289511Y-86609577D01*
X78202177Y-86696911D01*
X78133560Y-86799604D01*
X78086295Y-86913711D01*
X78062200Y-87034846D01*
X77970800Y-87034846D01*
X77970800Y-86988970D01*
X77948626Y-86877495D01*
X77905131Y-86772488D01*
X77841985Y-86677984D01*
X77761616Y-86597615D01*
X77667112Y-86534469D01*
X77562105Y-86490974D01*
X77450630Y-86468800D01*
X77336970Y-86468800D01*
X77225495Y-86490974D01*
X77120488Y-86534469D01*
X77025984Y-86597615D01*
X76945615Y-86677984D01*
X76906986Y-86735796D01*
X76851385Y-86652584D01*
X76771016Y-86572215D01*
X76676512Y-86509069D01*
X76571505Y-86465574D01*
X76460030Y-86443400D01*
X76346370Y-86443400D01*
X76234895Y-86465574D01*
X76129888Y-86509069D01*
X76035384Y-86572215D01*
X75955015Y-86652584D01*
X75891869Y-86747088D01*
X75848374Y-86852095D01*
X75826200Y-86963570D01*
X73745439Y-86963570D01*
X73790693Y-86918316D01*
X73853839Y-86823812D01*
X73897334Y-86718805D01*
X73919508Y-86607330D01*
X73919508Y-86493670D01*
X73905898Y-86425246D01*
X79802100Y-86425246D01*
X79802100Y-86548754D01*
X79826195Y-86669889D01*
X79873460Y-86783996D01*
X79942077Y-86886689D01*
X80029411Y-86974023D01*
X80132104Y-87042640D01*
X80246211Y-87089905D01*
X80367346Y-87114000D01*
X80490854Y-87114000D01*
X80611989Y-87089905D01*
X80726096Y-87042640D01*
X80828789Y-86974023D01*
X80916123Y-86886689D01*
X80984740Y-86783996D01*
X81032005Y-86669889D01*
X81056100Y-86548754D01*
X81056100Y-86425246D01*
X81032005Y-86304111D01*
X80998978Y-86224377D01*
X86253000Y-86224377D01*
X86253000Y-86495623D01*
X86305917Y-86761656D01*
X86409718Y-87012254D01*
X86560414Y-87237787D01*
X86752213Y-87429586D01*
X86977746Y-87580282D01*
X87228344Y-87684083D01*
X87494377Y-87737000D01*
X87765623Y-87737000D01*
X88031656Y-87684083D01*
X88282254Y-87580282D01*
X88507787Y-87429586D01*
X88699586Y-87237787D01*
X88850282Y-87012254D01*
X88954083Y-86761656D01*
X89007000Y-86495623D01*
X89007000Y-86224377D01*
X88954083Y-85958344D01*
X88850282Y-85707746D01*
X88699586Y-85482213D01*
X88507787Y-85290414D01*
X88282254Y-85139718D01*
X88031656Y-85035917D01*
X87765623Y-84983000D01*
X87494377Y-84983000D01*
X87228344Y-85035917D01*
X86977746Y-85139718D01*
X86752213Y-85290414D01*
X86560414Y-85482213D01*
X86409718Y-85707746D01*
X86305917Y-85958344D01*
X86253000Y-86224377D01*
X80998978Y-86224377D01*
X80984740Y-86190004D01*
X80916123Y-86087311D01*
X80828789Y-85999977D01*
X80726096Y-85931360D01*
X80611989Y-85884095D01*
X80490854Y-85860000D01*
X80367346Y-85860000D01*
X80246211Y-85884095D01*
X80132104Y-85931360D01*
X80029411Y-85999977D01*
X79942077Y-86087311D01*
X79873460Y-86190004D01*
X79826195Y-86304111D01*
X79802100Y-86425246D01*
X73905898Y-86425246D01*
X73897334Y-86382195D01*
X73853839Y-86277188D01*
X73790693Y-86182684D01*
X73710324Y-86102315D01*
X73615820Y-86039169D01*
X73510813Y-85995674D01*
X73399338Y-85973500D01*
X73285678Y-85973500D01*
X73174203Y-85995674D01*
X73069196Y-86039169D01*
X72974692Y-86102315D01*
X72894323Y-86182684D01*
X72831177Y-86277188D01*
X72787682Y-86382195D01*
X72765508Y-86493670D01*
X68653214Y-86493670D01*
X68646705Y-86490974D01*
X68535230Y-86468800D01*
X68421570Y-86468800D01*
X68310095Y-86490974D01*
X68205088Y-86534469D01*
X68110584Y-86597615D01*
X68030215Y-86677984D01*
X67967069Y-86772488D01*
X67923574Y-86877495D01*
X67901400Y-86988970D01*
X67901400Y-87102630D01*
X67923574Y-87214105D01*
X67967069Y-87319112D01*
X68030215Y-87413616D01*
X68110584Y-87493985D01*
X68205088Y-87557131D01*
X68310095Y-87600626D01*
X68421570Y-87622800D01*
X68493264Y-87622800D01*
X68501706Y-87665240D01*
X68545201Y-87770247D01*
X68599482Y-87851483D01*
X68597530Y-87853435D01*
X68534384Y-87947939D01*
X68509393Y-88008274D01*
X68446038Y-87995672D01*
X68332378Y-87995672D01*
X68220903Y-88017846D01*
X68115896Y-88061341D01*
X68021392Y-88124487D01*
X67941023Y-88204856D01*
X67877877Y-88299360D01*
X67834382Y-88404367D01*
X67812208Y-88515842D01*
X66031078Y-88515842D01*
X66053528Y-88493392D01*
X66116674Y-88398888D01*
X66160169Y-88293881D01*
X66182343Y-88182406D01*
X66182343Y-88068746D01*
X66160169Y-87957271D01*
X66116674Y-87852264D01*
X66053528Y-87757760D01*
X65973159Y-87677391D01*
X65878655Y-87614245D01*
X65773648Y-87570750D01*
X65662173Y-87548576D01*
X65548513Y-87548576D01*
X65437038Y-87570750D01*
X65332031Y-87614245D01*
X65237527Y-87677391D01*
X65157158Y-87757760D01*
X65094012Y-87852264D01*
X65050517Y-87957271D01*
X65028343Y-88068746D01*
X57763066Y-88068746D01*
X57802123Y-88029689D01*
X57870740Y-87926996D01*
X57918005Y-87812889D01*
X57942100Y-87691754D01*
X57942100Y-87568246D01*
X57918005Y-87447111D01*
X57870740Y-87333004D01*
X57825950Y-87265970D01*
X62971400Y-87265970D01*
X62971400Y-87379630D01*
X62993574Y-87491105D01*
X63037069Y-87596112D01*
X63100215Y-87690616D01*
X63180584Y-87770985D01*
X63275088Y-87834131D01*
X63380095Y-87877626D01*
X63491570Y-87899800D01*
X63605230Y-87899800D01*
X63716705Y-87877626D01*
X63821712Y-87834131D01*
X63916216Y-87770985D01*
X63996585Y-87690616D01*
X64059731Y-87596112D01*
X64103226Y-87491105D01*
X64125400Y-87379630D01*
X64125400Y-87265970D01*
X64103226Y-87154495D01*
X64059731Y-87049488D01*
X63996585Y-86954984D01*
X63916216Y-86874615D01*
X63821712Y-86811469D01*
X63716705Y-86767974D01*
X63605230Y-86745800D01*
X63491570Y-86745800D01*
X63380095Y-86767974D01*
X63275088Y-86811469D01*
X63180584Y-86874615D01*
X63100215Y-86954984D01*
X63037069Y-87049488D01*
X62993574Y-87154495D01*
X62971400Y-87265970D01*
X57825950Y-87265970D01*
X57802123Y-87230311D01*
X57714789Y-87142977D01*
X57612096Y-87074360D01*
X57497989Y-87027095D01*
X57376854Y-87003000D01*
X57253346Y-87003000D01*
X57132211Y-87027095D01*
X57018104Y-87074360D01*
X56915411Y-87142977D01*
X56828077Y-87230311D01*
X56759460Y-87333004D01*
X56712195Y-87447111D01*
X56688100Y-87568246D01*
X53959467Y-87568246D01*
X54166987Y-87429586D01*
X54358786Y-87237787D01*
X54509482Y-87012254D01*
X54613283Y-86761656D01*
X54666200Y-86495623D01*
X54666200Y-86224377D01*
X54613283Y-85958344D01*
X54605366Y-85939229D01*
X58609079Y-85939229D01*
X58609079Y-86062737D01*
X58633174Y-86183872D01*
X58680439Y-86297979D01*
X58749056Y-86400672D01*
X58836390Y-86488006D01*
X58939083Y-86556623D01*
X59053190Y-86603888D01*
X59174325Y-86627983D01*
X59297833Y-86627983D01*
X59418968Y-86603888D01*
X59533075Y-86556623D01*
X59635768Y-86488006D01*
X59723102Y-86400672D01*
X59782669Y-86311523D01*
X60311109Y-86311523D01*
X60311109Y-86435031D01*
X60335204Y-86556166D01*
X60382469Y-86670273D01*
X60451086Y-86772966D01*
X60538420Y-86860300D01*
X60641113Y-86928917D01*
X60755220Y-86976182D01*
X60876355Y-87000277D01*
X60999863Y-87000277D01*
X61120998Y-86976182D01*
X61235105Y-86928917D01*
X61337798Y-86860300D01*
X61425132Y-86772966D01*
X61493749Y-86670273D01*
X61511121Y-86628334D01*
X61511121Y-86645430D01*
X61533295Y-86756905D01*
X61576790Y-86861912D01*
X61639936Y-86956416D01*
X61720305Y-87036785D01*
X61814809Y-87099931D01*
X61919816Y-87143426D01*
X62031291Y-87165600D01*
X62144951Y-87165600D01*
X62256426Y-87143426D01*
X62361433Y-87099931D01*
X62455937Y-87036785D01*
X62536306Y-86956416D01*
X62599452Y-86861912D01*
X62642947Y-86756905D01*
X62665121Y-86645430D01*
X62665121Y-86531770D01*
X62642947Y-86420295D01*
X62599452Y-86315288D01*
X62536306Y-86220784D01*
X62455937Y-86140415D01*
X62361433Y-86077269D01*
X62256426Y-86033774D01*
X62144951Y-86011600D01*
X62031291Y-86011600D01*
X61919816Y-86033774D01*
X61814809Y-86077269D01*
X61720305Y-86140415D01*
X61639936Y-86220784D01*
X61576790Y-86315288D01*
X61565109Y-86343489D01*
X61565109Y-86311523D01*
X61541014Y-86190388D01*
X61493749Y-86076281D01*
X61425132Y-85973588D01*
X61337798Y-85886254D01*
X61235105Y-85817637D01*
X61120998Y-85770372D01*
X60999863Y-85746277D01*
X60876355Y-85746277D01*
X60755220Y-85770372D01*
X60641113Y-85817637D01*
X60538420Y-85886254D01*
X60451086Y-85973588D01*
X60382469Y-86076281D01*
X60335204Y-86190388D01*
X60311109Y-86311523D01*
X59782669Y-86311523D01*
X59791719Y-86297979D01*
X59838984Y-86183872D01*
X59863079Y-86062737D01*
X59863079Y-85939229D01*
X59838984Y-85818094D01*
X59791719Y-85703987D01*
X59723102Y-85601294D01*
X59635768Y-85513960D01*
X59533075Y-85445343D01*
X59418968Y-85398078D01*
X59297833Y-85373983D01*
X59174325Y-85373983D01*
X59053190Y-85398078D01*
X58939083Y-85445343D01*
X58836390Y-85513960D01*
X58749056Y-85601294D01*
X58680439Y-85703987D01*
X58633174Y-85818094D01*
X58609079Y-85939229D01*
X54605366Y-85939229D01*
X54509482Y-85707746D01*
X54358786Y-85482213D01*
X54166987Y-85290414D01*
X53941454Y-85139718D01*
X53690856Y-85035917D01*
X53424823Y-84983000D01*
X53153577Y-84983000D01*
X52887544Y-85035917D01*
X52636946Y-85139718D01*
X52411413Y-85290414D01*
X52219614Y-85482213D01*
X52068918Y-85707746D01*
X51965117Y-85958344D01*
X51912200Y-86224377D01*
X50049947Y-86224377D01*
X50186007Y-85334531D01*
X50186257Y-85334108D01*
X50189740Y-85326638D01*
X50202396Y-85302961D01*
X50205401Y-85293056D01*
X50482870Y-84698046D01*
X62974600Y-84698046D01*
X62974600Y-84821554D01*
X62998695Y-84942689D01*
X63045960Y-85056796D01*
X63114577Y-85159489D01*
X63201911Y-85246823D01*
X63304604Y-85315440D01*
X63418711Y-85362705D01*
X63539846Y-85386800D01*
X63663354Y-85386800D01*
X63784489Y-85362705D01*
X63898596Y-85315440D01*
X63923752Y-85298631D01*
X68250839Y-85298631D01*
X68250839Y-85422139D01*
X68274934Y-85543274D01*
X68322199Y-85657381D01*
X68390816Y-85760074D01*
X68478150Y-85847408D01*
X68580843Y-85916025D01*
X68694950Y-85963290D01*
X68816085Y-85987385D01*
X68939593Y-85987385D01*
X69060728Y-85963290D01*
X69174835Y-85916025D01*
X69277528Y-85847408D01*
X69364862Y-85760074D01*
X69433479Y-85657381D01*
X69480744Y-85543274D01*
X69504839Y-85422139D01*
X69504839Y-85298631D01*
X69480744Y-85177496D01*
X69433479Y-85063389D01*
X69364862Y-84960696D01*
X69277528Y-84873362D01*
X69174835Y-84804745D01*
X69060728Y-84757480D01*
X68939593Y-84733385D01*
X68816085Y-84733385D01*
X68694950Y-84757480D01*
X68580843Y-84804745D01*
X68478150Y-84873362D01*
X68390816Y-84960696D01*
X68322199Y-85063389D01*
X68274934Y-85177496D01*
X68250839Y-85298631D01*
X63923752Y-85298631D01*
X64001289Y-85246823D01*
X64088623Y-85159489D01*
X64157240Y-85056796D01*
X64204505Y-84942689D01*
X64228600Y-84821554D01*
X64228600Y-84698046D01*
X64204505Y-84576911D01*
X64157240Y-84462804D01*
X64088623Y-84360111D01*
X64005145Y-84276633D01*
X72128983Y-84276633D01*
X72128983Y-84400141D01*
X72153078Y-84521276D01*
X72200343Y-84635383D01*
X72268960Y-84738076D01*
X72356294Y-84825410D01*
X72458987Y-84894027D01*
X72573094Y-84941292D01*
X72694229Y-84965387D01*
X72817737Y-84965387D01*
X72860997Y-84956782D01*
X76511574Y-84956782D01*
X76511574Y-85080290D01*
X76535669Y-85201425D01*
X76582934Y-85315532D01*
X76651551Y-85418225D01*
X76738885Y-85505559D01*
X76841578Y-85574176D01*
X76955685Y-85621441D01*
X77076820Y-85645536D01*
X77200328Y-85645536D01*
X77321463Y-85621441D01*
X77435570Y-85574176D01*
X77538263Y-85505559D01*
X77625597Y-85418225D01*
X77694214Y-85315532D01*
X77741479Y-85201425D01*
X77765574Y-85080290D01*
X77765574Y-84956782D01*
X77741479Y-84835647D01*
X77694214Y-84721540D01*
X77625597Y-84618847D01*
X77538263Y-84531513D01*
X77435570Y-84462896D01*
X77321463Y-84415631D01*
X77200328Y-84391536D01*
X77076820Y-84391536D01*
X76955685Y-84415631D01*
X76841578Y-84462896D01*
X76738885Y-84531513D01*
X76651551Y-84618847D01*
X76582934Y-84721540D01*
X76535669Y-84835647D01*
X76511574Y-84956782D01*
X72860997Y-84956782D01*
X72938872Y-84941292D01*
X73052979Y-84894027D01*
X73155672Y-84825410D01*
X73243006Y-84738076D01*
X73311623Y-84635383D01*
X73358888Y-84521276D01*
X73382983Y-84400141D01*
X73382983Y-84276633D01*
X73358888Y-84155498D01*
X73311623Y-84041391D01*
X73243006Y-83938698D01*
X73155672Y-83851364D01*
X73052979Y-83782747D01*
X73005717Y-83763170D01*
X85783000Y-83763170D01*
X85783000Y-83876830D01*
X85805174Y-83988305D01*
X85848669Y-84093312D01*
X85911815Y-84187816D01*
X85992184Y-84268185D01*
X86086688Y-84331331D01*
X86191695Y-84374826D01*
X86303170Y-84397000D01*
X86416830Y-84397000D01*
X86528305Y-84374826D01*
X86633312Y-84331331D01*
X86727816Y-84268185D01*
X86808185Y-84187816D01*
X86871331Y-84093312D01*
X86914826Y-83988305D01*
X86937000Y-83876830D01*
X86937000Y-83763170D01*
X86914826Y-83651695D01*
X86871331Y-83546688D01*
X86808185Y-83452184D01*
X86727816Y-83371815D01*
X86633312Y-83308669D01*
X86528305Y-83265174D01*
X86416830Y-83243000D01*
X86303170Y-83243000D01*
X86191695Y-83265174D01*
X86086688Y-83308669D01*
X85992184Y-83371815D01*
X85911815Y-83452184D01*
X85848669Y-83546688D01*
X85805174Y-83651695D01*
X85783000Y-83763170D01*
X73005717Y-83763170D01*
X72938872Y-83735482D01*
X72817737Y-83711387D01*
X72694229Y-83711387D01*
X72573094Y-83735482D01*
X72458987Y-83782747D01*
X72356294Y-83851364D01*
X72268960Y-83938698D01*
X72200343Y-84041391D01*
X72153078Y-84155498D01*
X72128983Y-84276633D01*
X64005145Y-84276633D01*
X64001289Y-84272777D01*
X63898596Y-84204160D01*
X63784489Y-84156895D01*
X63663354Y-84132800D01*
X63539846Y-84132800D01*
X63418711Y-84156895D01*
X63304604Y-84204160D01*
X63201911Y-84272777D01*
X63114577Y-84360111D01*
X63045960Y-84462804D01*
X62998695Y-84576911D01*
X62974600Y-84698046D01*
X50482870Y-84698046D01*
X51217243Y-83123246D01*
X63863600Y-83123246D01*
X63863600Y-83246754D01*
X63887695Y-83367889D01*
X63934960Y-83481996D01*
X64003577Y-83584689D01*
X64090911Y-83672023D01*
X64193604Y-83740640D01*
X64307711Y-83787905D01*
X64428846Y-83812000D01*
X64552354Y-83812000D01*
X64673489Y-83787905D01*
X64787596Y-83740640D01*
X64890289Y-83672023D01*
X64977623Y-83584689D01*
X65046240Y-83481996D01*
X65093505Y-83367889D01*
X65117600Y-83246754D01*
X65117600Y-83123246D01*
X65093505Y-83002111D01*
X65046240Y-82888004D01*
X65012645Y-82837724D01*
X68435600Y-82837724D01*
X68435600Y-82961232D01*
X68459695Y-83082367D01*
X68506960Y-83196474D01*
X68575577Y-83299167D01*
X68662911Y-83386501D01*
X68765604Y-83455118D01*
X68879711Y-83502383D01*
X69000846Y-83526478D01*
X69124354Y-83526478D01*
X69245489Y-83502383D01*
X69359596Y-83455118D01*
X69462289Y-83386501D01*
X69549623Y-83299167D01*
X69618240Y-83196474D01*
X69665505Y-83082367D01*
X69689600Y-82961232D01*
X69689600Y-82837724D01*
X69665505Y-82716589D01*
X69618240Y-82602482D01*
X69549623Y-82499789D01*
X69462289Y-82412455D01*
X69359596Y-82343838D01*
X69245489Y-82296573D01*
X69124354Y-82272478D01*
X69000846Y-82272478D01*
X68879711Y-82296573D01*
X68765604Y-82343838D01*
X68662911Y-82412455D01*
X68575577Y-82499789D01*
X68506960Y-82602482D01*
X68459695Y-82716589D01*
X68435600Y-82837724D01*
X65012645Y-82837724D01*
X64977623Y-82785311D01*
X64890289Y-82697977D01*
X64787596Y-82629360D01*
X64673489Y-82582095D01*
X64552354Y-82558000D01*
X64428846Y-82558000D01*
X64307711Y-82582095D01*
X64193604Y-82629360D01*
X64090911Y-82697977D01*
X64003577Y-82785311D01*
X63934960Y-82888004D01*
X63887695Y-83002111D01*
X63863600Y-83123246D01*
X51217243Y-83123246D01*
X51941573Y-81569980D01*
X71237590Y-81569980D01*
X71237590Y-81683640D01*
X71259764Y-81795115D01*
X71303259Y-81900122D01*
X71366405Y-81994626D01*
X71446774Y-82074995D01*
X71541278Y-82138141D01*
X71646285Y-82181636D01*
X71740182Y-82200313D01*
X71734227Y-82230249D01*
X71734227Y-82353757D01*
X71758322Y-82474892D01*
X71805587Y-82588999D01*
X71874204Y-82691692D01*
X71961538Y-82779026D01*
X72064231Y-82847643D01*
X72178338Y-82894908D01*
X72299473Y-82919003D01*
X72422981Y-82919003D01*
X72544116Y-82894908D01*
X72658223Y-82847643D01*
X72760916Y-82779026D01*
X72848250Y-82691692D01*
X72916867Y-82588999D01*
X72964132Y-82474892D01*
X72988227Y-82353757D01*
X72988227Y-82230249D01*
X72964132Y-82109114D01*
X72916867Y-81995007D01*
X72848250Y-81892314D01*
X72760916Y-81804980D01*
X72738117Y-81789746D01*
X75420600Y-81789746D01*
X75420600Y-81913254D01*
X75444695Y-82034389D01*
X75491960Y-82148496D01*
X75560577Y-82251189D01*
X75647911Y-82338523D01*
X75750604Y-82407140D01*
X75864711Y-82454405D01*
X75985846Y-82478500D01*
X76109354Y-82478500D01*
X76230489Y-82454405D01*
X76344596Y-82407140D01*
X76447289Y-82338523D01*
X76534623Y-82251189D01*
X76603240Y-82148496D01*
X76650505Y-82034389D01*
X76674600Y-81913254D01*
X76674600Y-81789746D01*
X76650505Y-81668611D01*
X76603240Y-81554504D01*
X76534623Y-81451811D01*
X76447289Y-81364477D01*
X76344596Y-81295860D01*
X76230489Y-81248595D01*
X76109354Y-81224500D01*
X75985846Y-81224500D01*
X75864711Y-81248595D01*
X75750604Y-81295860D01*
X75647911Y-81364477D01*
X75560577Y-81451811D01*
X75491960Y-81554504D01*
X75444695Y-81668611D01*
X75420600Y-81789746D01*
X72738117Y-81789746D01*
X72658223Y-81736363D01*
X72544116Y-81689098D01*
X72422981Y-81665003D01*
X72391590Y-81665003D01*
X72391590Y-81569980D01*
X72369416Y-81458505D01*
X72325921Y-81353498D01*
X72262775Y-81258994D01*
X72182406Y-81178625D01*
X72087902Y-81115479D01*
X71982895Y-81071984D01*
X71871420Y-81049810D01*
X71757760Y-81049810D01*
X71646285Y-81071984D01*
X71541278Y-81115479D01*
X71446774Y-81178625D01*
X71366405Y-81258994D01*
X71303259Y-81353498D01*
X71259764Y-81458505D01*
X71237590Y-81569980D01*
X51941573Y-81569980D01*
X52321214Y-80755874D01*
X68354228Y-80755874D01*
X68354228Y-80879382D01*
X68378323Y-81000517D01*
X68425588Y-81114624D01*
X68494205Y-81217317D01*
X68581539Y-81304651D01*
X68684232Y-81373268D01*
X68798339Y-81420533D01*
X68919474Y-81444628D01*
X69042982Y-81444628D01*
X69164117Y-81420533D01*
X69278224Y-81373268D01*
X69380917Y-81304651D01*
X69468251Y-81217317D01*
X69536868Y-81114624D01*
X69578114Y-81015046D01*
X74150600Y-81015046D01*
X74150600Y-81138554D01*
X74174695Y-81259689D01*
X74221960Y-81373796D01*
X74290577Y-81476489D01*
X74377911Y-81563823D01*
X74480604Y-81632440D01*
X74594711Y-81679705D01*
X74715846Y-81703800D01*
X74839354Y-81703800D01*
X74960489Y-81679705D01*
X75074596Y-81632440D01*
X75177289Y-81563823D01*
X75264623Y-81476489D01*
X75333240Y-81373796D01*
X75380505Y-81259689D01*
X75404600Y-81138554D01*
X75404600Y-81015046D01*
X75395475Y-80969170D01*
X84386000Y-80969170D01*
X84386000Y-81082830D01*
X84408174Y-81194305D01*
X84451669Y-81299312D01*
X84514815Y-81393816D01*
X84595184Y-81474185D01*
X84689688Y-81537331D01*
X84794695Y-81580826D01*
X84906170Y-81603000D01*
X85019830Y-81603000D01*
X85131305Y-81580826D01*
X85236312Y-81537331D01*
X85330816Y-81474185D01*
X85411185Y-81393816D01*
X85474331Y-81299312D01*
X85517826Y-81194305D01*
X85540000Y-81082830D01*
X85540000Y-80969170D01*
X85517826Y-80857695D01*
X85474331Y-80752688D01*
X85411185Y-80658184D01*
X85330816Y-80577815D01*
X85236312Y-80514669D01*
X85131305Y-80471174D01*
X85019830Y-80449000D01*
X84906170Y-80449000D01*
X84794695Y-80471174D01*
X84689688Y-80514669D01*
X84595184Y-80577815D01*
X84514815Y-80658184D01*
X84451669Y-80752688D01*
X84408174Y-80857695D01*
X84386000Y-80969170D01*
X75395475Y-80969170D01*
X75380505Y-80893911D01*
X75355229Y-80832890D01*
X75449006Y-80770231D01*
X75536340Y-80682897D01*
X75604957Y-80580204D01*
X75652222Y-80466097D01*
X75676317Y-80344962D01*
X75676317Y-80221454D01*
X75652222Y-80100319D01*
X75604957Y-79986212D01*
X75536340Y-79883519D01*
X75449006Y-79796185D01*
X75346313Y-79727568D01*
X75232206Y-79680303D01*
X75111071Y-79656208D01*
X74987563Y-79656208D01*
X74866428Y-79680303D01*
X74752321Y-79727568D01*
X74649628Y-79796185D01*
X74562294Y-79883519D01*
X74493677Y-79986212D01*
X74446412Y-80100319D01*
X74422317Y-80221454D01*
X74422317Y-80344962D01*
X74446412Y-80466097D01*
X74471688Y-80527118D01*
X74377911Y-80589777D01*
X74290577Y-80677111D01*
X74221960Y-80779804D01*
X74174695Y-80893911D01*
X74150600Y-81015046D01*
X69578114Y-81015046D01*
X69584133Y-81000517D01*
X69608228Y-80879382D01*
X69608228Y-80755874D01*
X69584133Y-80634739D01*
X69536868Y-80520632D01*
X69468251Y-80417939D01*
X69380917Y-80330605D01*
X69278224Y-80261988D01*
X69164117Y-80214723D01*
X69042982Y-80190628D01*
X68919474Y-80190628D01*
X68798339Y-80214723D01*
X68684232Y-80261988D01*
X68581539Y-80330605D01*
X68494205Y-80417939D01*
X68425588Y-80520632D01*
X68378323Y-80634739D01*
X68354228Y-80755874D01*
X52321214Y-80755874D01*
X56150698Y-72543879D01*
X60058348Y-72543665D01*
X60053403Y-72552917D01*
X60030417Y-72628694D01*
X60022655Y-72707500D01*
X60024600Y-72727247D01*
X60024601Y-74529243D01*
X60022655Y-74549000D01*
X60030417Y-74627806D01*
X60053403Y-74703583D01*
X60090732Y-74773420D01*
X60140968Y-74834632D01*
X60202180Y-74884868D01*
X60272017Y-74922197D01*
X60347794Y-74945183D01*
X60406853Y-74951000D01*
X60426600Y-74952945D01*
X60446347Y-74951000D01*
X63079255Y-74951000D01*
X62945944Y-74977517D01*
X62695346Y-75081318D01*
X62469813Y-75232014D01*
X62278014Y-75423813D01*
X62127318Y-75649346D01*
X62023517Y-75899944D01*
X61970600Y-76165977D01*
X61970600Y-76437223D01*
X62023517Y-76703256D01*
X62127318Y-76953854D01*
X62278014Y-77179387D01*
X62469813Y-77371186D01*
X62695346Y-77521882D01*
X62945944Y-77625683D01*
X63211977Y-77678600D01*
X63483223Y-77678600D01*
X63749256Y-77625683D01*
X63999854Y-77521882D01*
X64225387Y-77371186D01*
X64417186Y-77179387D01*
X64567882Y-76953854D01*
X64671683Y-76703256D01*
X64724600Y-76437223D01*
X64724600Y-76165977D01*
X64671683Y-75899944D01*
X64567882Y-75649346D01*
X64417186Y-75423813D01*
X64225387Y-75232014D01*
X63999854Y-75081318D01*
X63749256Y-74977517D01*
X63615945Y-74951000D01*
X77303255Y-74951000D01*
X77169944Y-74977517D01*
X76919346Y-75081318D01*
X76693813Y-75232014D01*
X76502014Y-75423813D01*
X76351318Y-75649346D01*
X76247517Y-75899944D01*
X76194600Y-76165977D01*
X76194600Y-76437223D01*
X76247517Y-76703256D01*
X76351318Y-76953854D01*
X76502014Y-77179387D01*
X76693813Y-77371186D01*
X76919346Y-77521882D01*
X77169944Y-77625683D01*
X77435977Y-77678600D01*
X77707223Y-77678600D01*
X77973256Y-77625683D01*
X78223854Y-77521882D01*
X78449387Y-77371186D01*
X78641186Y-77179387D01*
X78791882Y-76953854D01*
X78895683Y-76703256D01*
X78948600Y-76437223D01*
X78948600Y-76165977D01*
X78895683Y-75899944D01*
X78791882Y-75649346D01*
X78641186Y-75423813D01*
X78449387Y-75232014D01*
X78223854Y-75081318D01*
X77973256Y-74977517D01*
X77839945Y-74951000D01*
X80472853Y-74951000D01*
X80492600Y-74952945D01*
X80512347Y-74951000D01*
X80571406Y-74945183D01*
X80647183Y-74922197D01*
X80717020Y-74884868D01*
X80778232Y-74834632D01*
X80828468Y-74773420D01*
X80865797Y-74703583D01*
X80888783Y-74627806D01*
X80896545Y-74549000D01*
X80894600Y-74529253D01*
X80894600Y-72727247D01*
X80896545Y-72707500D01*
X80888783Y-72628694D01*
X80865797Y-72552917D01*
X80860244Y-72542528D01*
X84764506Y-72542314D01*
X90716279Y-85309115D01*
G37*
X90716279Y-85309115D02*
X90718121Y-85313927D01*
X90724067Y-85325819D01*
X90725412Y-85328705D01*
X90873698Y-86292788D01*
X91009589Y-87314205D01*
X91124638Y-88337535D01*
X91218938Y-89362331D01*
X91292391Y-90388499D01*
X91344999Y-91415563D01*
X91376764Y-92443289D01*
X91387682Y-93471427D01*
X91377857Y-94499456D01*
X91347085Y-95527193D01*
X91295567Y-96554363D01*
X91223103Y-97580579D01*
X91129902Y-98605504D01*
X91015850Y-99628893D01*
X90880852Y-100650308D01*
X90735867Y-101599223D01*
X90734683Y-101601223D01*
X90726132Y-101615344D01*
X90725312Y-101617057D01*
X90724328Y-101618720D01*
X90717247Y-101633909D01*
X90702107Y-101665546D01*
X90701632Y-101667407D01*
X84765295Y-114401791D01*
X80860088Y-114401764D01*
X80865797Y-114391083D01*
X80888783Y-114315306D01*
X80894600Y-114256247D01*
X80896545Y-114236500D01*
X80894600Y-114216753D01*
X80894600Y-112414747D01*
X80896545Y-112395000D01*
X80888783Y-112316194D01*
X80865797Y-112240417D01*
X80828468Y-112170580D01*
X80778232Y-112109368D01*
X80717020Y-112059132D01*
X80647183Y-112021803D01*
X80571406Y-111998817D01*
X80512347Y-111993000D01*
X80492600Y-111991055D01*
X80472853Y-111993000D01*
X77839945Y-111993000D01*
X77973256Y-111966483D01*
X78223854Y-111862682D01*
X78449387Y-111711986D01*
X78641186Y-111520187D01*
X78791882Y-111294654D01*
X78895683Y-111044056D01*
X78948600Y-110778023D01*
X78948600Y-110506777D01*
X78895683Y-110240744D01*
X78791882Y-109990146D01*
X78641186Y-109764613D01*
X78449387Y-109572814D01*
X78223854Y-109422118D01*
X77973256Y-109318317D01*
X77707223Y-109265400D01*
X77435977Y-109265400D01*
X77169944Y-109318317D01*
X76919346Y-109422118D01*
X76693813Y-109572814D01*
X76502014Y-109764613D01*
X76351318Y-109990146D01*
X76247517Y-110240744D01*
X76194600Y-110506777D01*
X76194600Y-110778023D01*
X76247517Y-111044056D01*
X76351318Y-111294654D01*
X76502014Y-111520187D01*
X76693813Y-111711986D01*
X76919346Y-111862682D01*
X77169944Y-111966483D01*
X77303255Y-111993000D01*
X63615945Y-111993000D01*
X63749256Y-111966483D01*
X63999854Y-111862682D01*
X64225387Y-111711986D01*
X64417186Y-111520187D01*
X64567882Y-111294654D01*
X64671683Y-111044056D01*
X64724600Y-110778023D01*
X64724600Y-110506777D01*
X64671683Y-110240744D01*
X64567882Y-109990146D01*
X64417186Y-109764613D01*
X64225387Y-109572814D01*
X63999854Y-109422118D01*
X63749256Y-109318317D01*
X63483223Y-109265400D01*
X63211977Y-109265400D01*
X62945944Y-109318317D01*
X62695346Y-109422118D01*
X62469813Y-109572814D01*
X62278014Y-109764613D01*
X62127318Y-109990146D01*
X62023517Y-110240744D01*
X61970600Y-110506777D01*
X61970600Y-110778023D01*
X62023517Y-111044056D01*
X62127318Y-111294654D01*
X62278014Y-111520187D01*
X62469813Y-111711986D01*
X62695346Y-111862682D01*
X62945944Y-111966483D01*
X63079255Y-111993000D01*
X60446347Y-111993000D01*
X60426600Y-111991055D01*
X60406853Y-111993000D01*
X60347794Y-111998817D01*
X60272017Y-112021803D01*
X60202180Y-112059132D01*
X60140968Y-112109368D01*
X60090732Y-112170580D01*
X60053403Y-112240417D01*
X60030417Y-112316194D01*
X60022655Y-112395000D01*
X60024600Y-112414747D01*
X60024601Y-114216743D01*
X60022655Y-114236500D01*
X60030417Y-114315306D01*
X60053403Y-114391083D01*
X60059036Y-114401621D01*
X56151178Y-114401594D01*
X53054756Y-107761242D01*
X71864600Y-107761242D01*
X71864600Y-107884750D01*
X71888695Y-108005885D01*
X71935960Y-108119992D01*
X72004577Y-108222685D01*
X72091911Y-108310019D01*
X72194604Y-108378636D01*
X72308711Y-108425901D01*
X72429846Y-108449996D01*
X72553354Y-108449996D01*
X72674489Y-108425901D01*
X72788596Y-108378636D01*
X72891289Y-108310019D01*
X72978623Y-108222685D01*
X73047240Y-108119992D01*
X73062285Y-108083670D01*
X83497000Y-108083670D01*
X83497000Y-108197330D01*
X83519174Y-108308805D01*
X83562669Y-108413812D01*
X83625815Y-108508316D01*
X83706184Y-108588685D01*
X83800688Y-108651831D01*
X83905695Y-108695326D01*
X84017170Y-108717500D01*
X84130830Y-108717500D01*
X84242305Y-108695326D01*
X84347312Y-108651831D01*
X84441816Y-108588685D01*
X84522185Y-108508316D01*
X84585331Y-108413812D01*
X84628826Y-108308805D01*
X84651000Y-108197330D01*
X84651000Y-108083670D01*
X84628826Y-107972195D01*
X84585331Y-107867188D01*
X84522185Y-107772684D01*
X84441816Y-107692315D01*
X84347312Y-107629169D01*
X84242305Y-107585674D01*
X84130830Y-107563500D01*
X84017170Y-107563500D01*
X83905695Y-107585674D01*
X83800688Y-107629169D01*
X83706184Y-107692315D01*
X83625815Y-107772684D01*
X83562669Y-107867188D01*
X83519174Y-107972195D01*
X83497000Y-108083670D01*
X73062285Y-108083670D01*
X73094505Y-108005885D01*
X73118600Y-107884750D01*
X73118600Y-107761242D01*
X73094505Y-107640107D01*
X73047240Y-107526000D01*
X72978623Y-107423307D01*
X72891289Y-107335973D01*
X72788596Y-107267356D01*
X72674489Y-107220091D01*
X72553354Y-107195996D01*
X72429846Y-107195996D01*
X72308711Y-107220091D01*
X72194604Y-107267356D01*
X72091911Y-107335973D01*
X72004577Y-107423307D01*
X71935960Y-107526000D01*
X71888695Y-107640107D01*
X71864600Y-107761242D01*
X53054756Y-107761242D01*
X52314496Y-106173738D01*
X70924800Y-106173738D01*
X70924800Y-106297246D01*
X70948895Y-106418381D01*
X70996160Y-106532488D01*
X71064777Y-106635181D01*
X71152111Y-106722515D01*
X71254804Y-106791132D01*
X71368911Y-106838397D01*
X71490046Y-106862492D01*
X71613554Y-106862492D01*
X71734689Y-106838397D01*
X71848796Y-106791132D01*
X71951489Y-106722515D01*
X72038823Y-106635181D01*
X72107440Y-106532488D01*
X72154705Y-106418381D01*
X72178800Y-106297246D01*
X72178800Y-106173738D01*
X72154705Y-106052603D01*
X72107440Y-105938496D01*
X72038823Y-105835803D01*
X71951489Y-105748469D01*
X71848796Y-105679852D01*
X71734689Y-105632587D01*
X71613554Y-105608492D01*
X71490046Y-105608492D01*
X71368911Y-105632587D01*
X71254804Y-105679852D01*
X71152111Y-105748469D01*
X71064777Y-105835803D01*
X70996160Y-105938496D01*
X70948895Y-106052603D01*
X70924800Y-106173738D01*
X52314496Y-106173738D01*
X51990423Y-105478756D01*
X65713291Y-105478756D01*
X65713291Y-105602264D01*
X65737386Y-105723399D01*
X65784651Y-105837506D01*
X65853268Y-105940199D01*
X65940602Y-106027533D01*
X66043295Y-106096150D01*
X66157402Y-106143415D01*
X66278537Y-106167510D01*
X66402045Y-106167510D01*
X66523180Y-106143415D01*
X66637287Y-106096150D01*
X66739980Y-106027533D01*
X66827314Y-105940199D01*
X66895931Y-105837506D01*
X66943196Y-105723399D01*
X66967291Y-105602264D01*
X66967291Y-105573736D01*
X74087088Y-105573736D01*
X74087088Y-105697244D01*
X74111183Y-105818379D01*
X74158448Y-105932486D01*
X74227065Y-106035179D01*
X74314399Y-106122513D01*
X74417092Y-106191130D01*
X74531199Y-106238395D01*
X74652334Y-106262490D01*
X74775842Y-106262490D01*
X74896977Y-106238395D01*
X75011084Y-106191130D01*
X75113777Y-106122513D01*
X75201111Y-106035179D01*
X75269728Y-105932486D01*
X75316993Y-105818379D01*
X75341088Y-105697244D01*
X75341088Y-105573736D01*
X75316993Y-105452601D01*
X75269728Y-105338494D01*
X75201111Y-105235801D01*
X75113777Y-105148467D01*
X75011084Y-105079850D01*
X74896977Y-105032585D01*
X74775842Y-105008490D01*
X74652334Y-105008490D01*
X74531199Y-105032585D01*
X74417092Y-105079850D01*
X74314399Y-105148467D01*
X74227065Y-105235801D01*
X74158448Y-105338494D01*
X74111183Y-105452601D01*
X74087088Y-105573736D01*
X66967291Y-105573736D01*
X66967291Y-105478756D01*
X66943196Y-105357621D01*
X66895931Y-105243514D01*
X66827314Y-105140821D01*
X66739980Y-105053487D01*
X66637287Y-104984870D01*
X66523180Y-104937605D01*
X66402045Y-104913510D01*
X66278537Y-104913510D01*
X66157402Y-104937605D01*
X66043295Y-104984870D01*
X65940602Y-105053487D01*
X65853268Y-105140821D01*
X65784651Y-105243514D01*
X65737386Y-105357621D01*
X65713291Y-105478756D01*
X51990423Y-105478756D01*
X51289983Y-103976646D01*
X62771400Y-103976646D01*
X62771400Y-104100154D01*
X62795495Y-104221289D01*
X62842760Y-104335396D01*
X62911377Y-104438089D01*
X62998711Y-104525423D01*
X63101404Y-104594040D01*
X63215511Y-104641305D01*
X63336646Y-104665400D01*
X63460154Y-104665400D01*
X63581289Y-104641305D01*
X63695396Y-104594040D01*
X63798089Y-104525423D01*
X63885423Y-104438089D01*
X63954040Y-104335396D01*
X63981647Y-104268746D01*
X68308600Y-104268746D01*
X68308600Y-104392254D01*
X68332695Y-104513389D01*
X68379960Y-104627496D01*
X68448577Y-104730189D01*
X68535911Y-104817523D01*
X68638604Y-104886140D01*
X68752711Y-104933405D01*
X68873846Y-104957500D01*
X68997354Y-104957500D01*
X69118489Y-104933405D01*
X69155831Y-104917937D01*
X75380558Y-104917937D01*
X75380558Y-105041445D01*
X75404653Y-105162580D01*
X75451918Y-105276687D01*
X75520535Y-105379380D01*
X75607869Y-105466714D01*
X75710562Y-105535331D01*
X75824669Y-105582596D01*
X75945804Y-105606691D01*
X76069312Y-105606691D01*
X76190447Y-105582596D01*
X76304554Y-105535331D01*
X76407247Y-105466714D01*
X76494581Y-105379380D01*
X76503951Y-105365356D01*
X84779186Y-105365356D01*
X84779186Y-105479016D01*
X84801360Y-105590491D01*
X84844855Y-105695498D01*
X84908001Y-105790002D01*
X84988370Y-105870371D01*
X85082874Y-105933517D01*
X85187881Y-105977012D01*
X85299356Y-105999186D01*
X85413016Y-105999186D01*
X85524491Y-105977012D01*
X85629498Y-105933517D01*
X85724002Y-105870371D01*
X85804371Y-105790002D01*
X85867517Y-105695498D01*
X85911012Y-105590491D01*
X85933186Y-105479016D01*
X85933186Y-105365356D01*
X85911012Y-105253881D01*
X85867517Y-105148874D01*
X85804371Y-105054370D01*
X85724002Y-104974001D01*
X85629498Y-104910855D01*
X85524491Y-104867360D01*
X85413016Y-104845186D01*
X85299356Y-104845186D01*
X85187881Y-104867360D01*
X85082874Y-104910855D01*
X84988370Y-104974001D01*
X84908001Y-105054370D01*
X84844855Y-105148874D01*
X84801360Y-105253881D01*
X84779186Y-105365356D01*
X76503951Y-105365356D01*
X76563198Y-105276687D01*
X76610463Y-105162580D01*
X76634558Y-105041445D01*
X76634558Y-104917937D01*
X76610463Y-104796802D01*
X76563198Y-104682695D01*
X76494581Y-104580002D01*
X76407247Y-104492668D01*
X76304554Y-104424051D01*
X76190447Y-104376786D01*
X76069312Y-104352691D01*
X75945804Y-104352691D01*
X75824669Y-104376786D01*
X75710562Y-104424051D01*
X75607869Y-104492668D01*
X75520535Y-104580002D01*
X75451918Y-104682695D01*
X75404653Y-104796802D01*
X75380558Y-104917937D01*
X69155831Y-104917937D01*
X69232596Y-104886140D01*
X69335289Y-104817523D01*
X69422623Y-104730189D01*
X69491240Y-104627496D01*
X69538505Y-104513389D01*
X69562600Y-104392254D01*
X69562600Y-104268746D01*
X69538505Y-104147611D01*
X69491240Y-104033504D01*
X69422623Y-103930811D01*
X69335289Y-103843477D01*
X69232596Y-103774860D01*
X69118489Y-103727595D01*
X68997354Y-103703500D01*
X68873846Y-103703500D01*
X68752711Y-103727595D01*
X68638604Y-103774860D01*
X68535911Y-103843477D01*
X68448577Y-103930811D01*
X68379960Y-104033504D01*
X68332695Y-104147611D01*
X68308600Y-104268746D01*
X63981647Y-104268746D01*
X64001305Y-104221289D01*
X64025400Y-104100154D01*
X64025400Y-103976646D01*
X64001305Y-103855511D01*
X63954040Y-103741404D01*
X63885423Y-103638711D01*
X63798089Y-103551377D01*
X63695396Y-103482760D01*
X63581289Y-103435495D01*
X63460154Y-103411400D01*
X63336646Y-103411400D01*
X63215511Y-103435495D01*
X63101404Y-103482760D01*
X62998711Y-103551377D01*
X62911377Y-103638711D01*
X62842760Y-103741404D01*
X62795495Y-103855511D01*
X62771400Y-103976646D01*
X51289983Y-103976646D01*
X50715543Y-102744746D01*
X66238500Y-102744746D01*
X66238500Y-102868254D01*
X66262595Y-102989389D01*
X66309860Y-103103496D01*
X66378477Y-103206189D01*
X66465811Y-103293523D01*
X66568504Y-103362140D01*
X66682611Y-103409405D01*
X66803746Y-103433500D01*
X66927254Y-103433500D01*
X67048389Y-103409405D01*
X67162496Y-103362140D01*
X67265189Y-103293523D01*
X67352523Y-103206189D01*
X67421140Y-103103496D01*
X67468405Y-102989389D01*
X67492500Y-102868254D01*
X67492500Y-102744746D01*
X67468405Y-102623611D01*
X67421140Y-102509504D01*
X67352523Y-102406811D01*
X67265189Y-102319477D01*
X67236408Y-102300246D01*
X73515612Y-102300246D01*
X73515612Y-102423754D01*
X73539707Y-102544889D01*
X73586972Y-102658996D01*
X73655589Y-102761689D01*
X73742923Y-102849023D01*
X73845616Y-102917640D01*
X73959723Y-102964905D01*
X74080858Y-102989000D01*
X74204366Y-102989000D01*
X74325501Y-102964905D01*
X74439608Y-102917640D01*
X74542301Y-102849023D01*
X74629635Y-102761689D01*
X74637786Y-102749489D01*
X75458203Y-102749489D01*
X75458203Y-102872997D01*
X75482298Y-102994132D01*
X75529563Y-103108239D01*
X75598180Y-103210932D01*
X75685514Y-103298266D01*
X75788207Y-103366883D01*
X75902314Y-103414148D01*
X76023449Y-103438243D01*
X76146957Y-103438243D01*
X76268092Y-103414148D01*
X76382199Y-103366883D01*
X76484892Y-103298266D01*
X76572226Y-103210932D01*
X76640843Y-103108239D01*
X76688108Y-102994132D01*
X76712203Y-102872997D01*
X76712203Y-102749489D01*
X76709381Y-102735301D01*
X76792044Y-102769541D01*
X76913179Y-102793636D01*
X77036687Y-102793636D01*
X77157822Y-102769541D01*
X77271929Y-102722276D01*
X77374622Y-102653659D01*
X77445525Y-102582756D01*
X77881306Y-102582756D01*
X77881306Y-102706264D01*
X77905401Y-102827399D01*
X77952666Y-102941506D01*
X78021283Y-103044199D01*
X78108617Y-103131533D01*
X78211310Y-103200150D01*
X78325417Y-103247415D01*
X78446552Y-103271510D01*
X78570060Y-103271510D01*
X78691195Y-103247415D01*
X78805302Y-103200150D01*
X78907995Y-103131533D01*
X78995329Y-103044199D01*
X79063946Y-102941506D01*
X79111211Y-102827399D01*
X79135306Y-102706264D01*
X79135306Y-102582756D01*
X79111211Y-102461621D01*
X79063946Y-102347514D01*
X78995329Y-102244821D01*
X78907995Y-102157487D01*
X78805302Y-102088870D01*
X78691195Y-102041605D01*
X78570060Y-102017510D01*
X78446552Y-102017510D01*
X78325417Y-102041605D01*
X78211310Y-102088870D01*
X78108617Y-102157487D01*
X78021283Y-102244821D01*
X77952666Y-102347514D01*
X77905401Y-102461621D01*
X77881306Y-102582756D01*
X77445525Y-102582756D01*
X77461956Y-102566325D01*
X77530573Y-102463632D01*
X77577838Y-102349525D01*
X77601933Y-102228390D01*
X77601933Y-102104882D01*
X77577838Y-101983747D01*
X77530573Y-101869640D01*
X77461956Y-101766947D01*
X77374622Y-101679613D01*
X77271929Y-101610996D01*
X77157822Y-101563731D01*
X77036687Y-101539636D01*
X76913179Y-101539636D01*
X76792044Y-101563731D01*
X76677937Y-101610996D01*
X76575244Y-101679613D01*
X76487910Y-101766947D01*
X76419293Y-101869640D01*
X76372028Y-101983747D01*
X76347933Y-102104882D01*
X76347933Y-102228390D01*
X76350755Y-102242578D01*
X76268092Y-102208338D01*
X76146957Y-102184243D01*
X76023449Y-102184243D01*
X75902314Y-102208338D01*
X75788207Y-102255603D01*
X75685514Y-102324220D01*
X75598180Y-102411554D01*
X75529563Y-102514247D01*
X75482298Y-102628354D01*
X75458203Y-102749489D01*
X74637786Y-102749489D01*
X74698252Y-102658996D01*
X74745517Y-102544889D01*
X74769612Y-102423754D01*
X74769612Y-102300246D01*
X74745517Y-102179111D01*
X74698252Y-102065004D01*
X74629635Y-101962311D01*
X74542301Y-101874977D01*
X74439608Y-101806360D01*
X74325501Y-101759095D01*
X74204366Y-101735000D01*
X74080858Y-101735000D01*
X73959723Y-101759095D01*
X73845616Y-101806360D01*
X73742923Y-101874977D01*
X73655589Y-101962311D01*
X73586972Y-102065004D01*
X73539707Y-102179111D01*
X73515612Y-102300246D01*
X67236408Y-102300246D01*
X67162496Y-102250860D01*
X67048389Y-102203595D01*
X66927254Y-102179500D01*
X66803746Y-102179500D01*
X66682611Y-102203595D01*
X66568504Y-102250860D01*
X66465811Y-102319477D01*
X66378477Y-102406811D01*
X66309860Y-102509504D01*
X66262595Y-102623611D01*
X66238500Y-102744746D01*
X50715543Y-102744746D01*
X50373566Y-102011370D01*
X60001084Y-102011370D01*
X60001084Y-102134878D01*
X60025179Y-102256013D01*
X60072444Y-102370120D01*
X60141061Y-102472813D01*
X60228395Y-102560147D01*
X60331088Y-102628764D01*
X60445195Y-102676029D01*
X60566330Y-102700124D01*
X60689838Y-102700124D01*
X60810973Y-102676029D01*
X60925080Y-102628764D01*
X61027773Y-102560147D01*
X61115107Y-102472813D01*
X61183724Y-102370120D01*
X61230989Y-102256013D01*
X61255084Y-102134878D01*
X61255084Y-102011370D01*
X61230989Y-101890235D01*
X61183724Y-101776128D01*
X61115107Y-101673435D01*
X61041315Y-101599643D01*
X63303084Y-101599643D01*
X63303084Y-101723151D01*
X63327179Y-101844286D01*
X63374444Y-101958393D01*
X63443061Y-102061086D01*
X63530395Y-102148420D01*
X63633088Y-102217037D01*
X63747195Y-102264302D01*
X63868330Y-102288397D01*
X63991838Y-102288397D01*
X64112973Y-102264302D01*
X64227080Y-102217037D01*
X64329773Y-102148420D01*
X64417107Y-102061086D01*
X64485724Y-101958393D01*
X64532989Y-101844286D01*
X64557084Y-101723151D01*
X64557084Y-101599643D01*
X64554977Y-101589046D01*
X71712200Y-101589046D01*
X71712200Y-101712554D01*
X71736295Y-101833689D01*
X71783560Y-101947796D01*
X71852177Y-102050489D01*
X71939511Y-102137823D01*
X72042204Y-102206440D01*
X72156311Y-102253705D01*
X72277446Y-102277800D01*
X72400954Y-102277800D01*
X72522089Y-102253705D01*
X72636196Y-102206440D01*
X72738889Y-102137823D01*
X72826223Y-102050489D01*
X72894840Y-101947796D01*
X72942105Y-101833689D01*
X72966200Y-101712554D01*
X72966200Y-101589046D01*
X72942105Y-101467911D01*
X72894840Y-101353804D01*
X72826223Y-101251111D01*
X72738889Y-101163777D01*
X72636196Y-101095160D01*
X72522089Y-101047895D01*
X72400954Y-101023800D01*
X72277446Y-101023800D01*
X72156311Y-101047895D01*
X72042204Y-101095160D01*
X71939511Y-101163777D01*
X71852177Y-101251111D01*
X71783560Y-101353804D01*
X71736295Y-101467911D01*
X71712200Y-101589046D01*
X64554977Y-101589046D01*
X64532989Y-101478508D01*
X64485724Y-101364401D01*
X64417107Y-101261708D01*
X64329773Y-101174374D01*
X64227080Y-101105757D01*
X64112973Y-101058492D01*
X63991838Y-101034397D01*
X63868330Y-101034397D01*
X63747195Y-101058492D01*
X63633088Y-101105757D01*
X63530395Y-101174374D01*
X63443061Y-101261708D01*
X63374444Y-101364401D01*
X63327179Y-101478508D01*
X63303084Y-101599643D01*
X61041315Y-101599643D01*
X61027773Y-101586101D01*
X60925080Y-101517484D01*
X60810973Y-101470219D01*
X60689838Y-101446124D01*
X60566330Y-101446124D01*
X60445195Y-101470219D01*
X60331088Y-101517484D01*
X60228395Y-101586101D01*
X60141061Y-101673435D01*
X60072444Y-101776128D01*
X60025179Y-101890235D01*
X60001084Y-102011370D01*
X50373566Y-102011370D01*
X50194837Y-101628082D01*
X50044446Y-100650203D01*
X50017612Y-100448377D01*
X51912200Y-100448377D01*
X51912200Y-100719623D01*
X51965117Y-100985656D01*
X52068918Y-101236254D01*
X52219614Y-101461787D01*
X52411413Y-101653586D01*
X52636946Y-101804282D01*
X52887544Y-101908083D01*
X53153577Y-101961000D01*
X53424823Y-101961000D01*
X53690856Y-101908083D01*
X53941454Y-101804282D01*
X54166987Y-101653586D01*
X54358786Y-101461787D01*
X54509482Y-101236254D01*
X54613283Y-100985656D01*
X54666200Y-100719623D01*
X54666200Y-100448377D01*
X54655290Y-100393524D01*
X59356844Y-100393524D01*
X59356844Y-100517032D01*
X59380939Y-100638167D01*
X59428204Y-100752274D01*
X59496821Y-100854967D01*
X59584155Y-100942301D01*
X59686848Y-101010918D01*
X59800955Y-101058183D01*
X59922090Y-101082278D01*
X60045598Y-101082278D01*
X60166733Y-101058183D01*
X60280840Y-101010918D01*
X60383533Y-100942301D01*
X60470867Y-100854967D01*
X60523837Y-100775691D01*
X60587554Y-100775691D01*
X60587554Y-100899199D01*
X60611649Y-101020334D01*
X60658914Y-101134441D01*
X60727531Y-101237134D01*
X60814865Y-101324468D01*
X60917558Y-101393085D01*
X61031665Y-101440350D01*
X61152800Y-101464445D01*
X61276308Y-101464445D01*
X61397443Y-101440350D01*
X61511550Y-101393085D01*
X61614243Y-101324468D01*
X61701577Y-101237134D01*
X61770194Y-101134441D01*
X61817459Y-101020334D01*
X61841554Y-100899199D01*
X61841554Y-100775691D01*
X61817459Y-100654556D01*
X61770194Y-100540449D01*
X61701577Y-100437756D01*
X61614243Y-100350422D01*
X61511550Y-100281805D01*
X61397443Y-100234540D01*
X61276308Y-100210445D01*
X61152800Y-100210445D01*
X61031665Y-100234540D01*
X60917558Y-100281805D01*
X60814865Y-100350422D01*
X60727531Y-100437756D01*
X60658914Y-100540449D01*
X60611649Y-100654556D01*
X60587554Y-100775691D01*
X60523837Y-100775691D01*
X60539484Y-100752274D01*
X60586749Y-100638167D01*
X60610844Y-100517032D01*
X60610844Y-100393524D01*
X60586749Y-100272389D01*
X60539484Y-100158282D01*
X60470867Y-100055589D01*
X60383533Y-99968255D01*
X60280840Y-99899638D01*
X60166733Y-99852373D01*
X60045598Y-99828278D01*
X59922090Y-99828278D01*
X59800955Y-99852373D01*
X59686848Y-99899638D01*
X59584155Y-99968255D01*
X59496821Y-100055589D01*
X59428204Y-100158282D01*
X59380939Y-100272389D01*
X59356844Y-100393524D01*
X54655290Y-100393524D01*
X54613283Y-100182344D01*
X54509482Y-99931746D01*
X54358786Y-99706213D01*
X54336619Y-99684046D01*
X63228600Y-99684046D01*
X63228600Y-99807554D01*
X63252695Y-99928689D01*
X63299960Y-100042796D01*
X63368577Y-100145489D01*
X63455911Y-100232823D01*
X63558604Y-100301440D01*
X63672711Y-100348705D01*
X63793846Y-100372800D01*
X63917354Y-100372800D01*
X64038489Y-100348705D01*
X64152596Y-100301440D01*
X64227232Y-100251570D01*
X64217895Y-100274111D01*
X64193800Y-100395246D01*
X64193800Y-100518754D01*
X64217895Y-100639889D01*
X64265160Y-100753996D01*
X64333777Y-100856689D01*
X64421111Y-100944023D01*
X64523804Y-101012640D01*
X64637911Y-101059905D01*
X64759046Y-101084000D01*
X64882554Y-101084000D01*
X65003689Y-101059905D01*
X65117796Y-101012640D01*
X65220489Y-100944023D01*
X65222152Y-100942360D01*
X67144790Y-100942360D01*
X67144790Y-101056020D01*
X67166964Y-101167495D01*
X67210459Y-101272502D01*
X67273605Y-101367006D01*
X67353974Y-101447375D01*
X67448478Y-101510521D01*
X67553485Y-101554016D01*
X67664960Y-101576190D01*
X67778620Y-101576190D01*
X67890095Y-101554016D01*
X67995102Y-101510521D01*
X68089606Y-101447375D01*
X68169975Y-101367006D01*
X68233121Y-101272502D01*
X68276616Y-101167495D01*
X68298790Y-101056020D01*
X68298790Y-100942360D01*
X68276616Y-100830885D01*
X68233121Y-100725878D01*
X68169975Y-100631374D01*
X68089606Y-100551005D01*
X67995102Y-100487859D01*
X67890095Y-100444364D01*
X67778620Y-100422190D01*
X67664960Y-100422190D01*
X67553485Y-100444364D01*
X67448478Y-100487859D01*
X67353974Y-100551005D01*
X67273605Y-100631374D01*
X67210459Y-100725878D01*
X67166964Y-100830885D01*
X67144790Y-100942360D01*
X65222152Y-100942360D01*
X65307823Y-100856689D01*
X65376440Y-100753996D01*
X65423705Y-100639889D01*
X65447800Y-100518754D01*
X65447800Y-100395246D01*
X65423705Y-100274111D01*
X65376440Y-100160004D01*
X65307823Y-100057311D01*
X65220489Y-99969977D01*
X65117796Y-99901360D01*
X65003689Y-99854095D01*
X64882554Y-99830000D01*
X64759046Y-99830000D01*
X64637911Y-99854095D01*
X64523804Y-99901360D01*
X64449168Y-99951230D01*
X64458505Y-99928689D01*
X64482600Y-99807554D01*
X64482600Y-99765170D01*
X67672800Y-99765170D01*
X67672800Y-99878830D01*
X67694974Y-99990305D01*
X67738469Y-100095312D01*
X67801615Y-100189816D01*
X67881984Y-100270185D01*
X67976488Y-100333331D01*
X68081495Y-100376826D01*
X68192970Y-100399000D01*
X68306630Y-100399000D01*
X68418105Y-100376826D01*
X68523112Y-100333331D01*
X68617616Y-100270185D01*
X68673082Y-100214719D01*
X76423084Y-100214719D01*
X76423084Y-100328379D01*
X76445258Y-100439854D01*
X76488753Y-100544861D01*
X76551899Y-100639365D01*
X76632268Y-100719734D01*
X76726772Y-100782880D01*
X76831779Y-100826375D01*
X76943254Y-100848549D01*
X77056914Y-100848549D01*
X77168389Y-100826375D01*
X77273396Y-100782880D01*
X77367900Y-100719734D01*
X77448269Y-100639365D01*
X77511415Y-100544861D01*
X77554910Y-100439854D01*
X77577084Y-100328379D01*
X77577084Y-100319046D01*
X79992600Y-100319046D01*
X79992600Y-100442554D01*
X80016695Y-100563689D01*
X80063960Y-100677796D01*
X80132577Y-100780489D01*
X80219911Y-100867823D01*
X80322604Y-100936440D01*
X80436711Y-100983705D01*
X80557846Y-101007800D01*
X80681354Y-101007800D01*
X80802489Y-100983705D01*
X80916596Y-100936440D01*
X81019289Y-100867823D01*
X81106623Y-100780489D01*
X81175240Y-100677796D01*
X81222505Y-100563689D01*
X81245441Y-100448377D01*
X86253000Y-100448377D01*
X86253000Y-100719623D01*
X86305917Y-100985656D01*
X86409718Y-101236254D01*
X86560414Y-101461787D01*
X86752213Y-101653586D01*
X86977746Y-101804282D01*
X87228344Y-101908083D01*
X87494377Y-101961000D01*
X87765623Y-101961000D01*
X88031656Y-101908083D01*
X88282254Y-101804282D01*
X88507787Y-101653586D01*
X88699586Y-101461787D01*
X88850282Y-101236254D01*
X88954083Y-100985656D01*
X89007000Y-100719623D01*
X89007000Y-100448377D01*
X88954083Y-100182344D01*
X88850282Y-99931746D01*
X88699586Y-99706213D01*
X88507787Y-99514414D01*
X88282254Y-99363718D01*
X88031656Y-99259917D01*
X87765623Y-99207000D01*
X87494377Y-99207000D01*
X87228344Y-99259917D01*
X86977746Y-99363718D01*
X86752213Y-99514414D01*
X86560414Y-99706213D01*
X86409718Y-99931746D01*
X86305917Y-100182344D01*
X86253000Y-100448377D01*
X81245441Y-100448377D01*
X81246600Y-100442554D01*
X81246600Y-100319046D01*
X81222505Y-100197911D01*
X81175240Y-100083804D01*
X81106623Y-99981111D01*
X81019289Y-99893777D01*
X80916596Y-99825160D01*
X80802489Y-99777895D01*
X80681354Y-99753800D01*
X80557846Y-99753800D01*
X80436711Y-99777895D01*
X80322604Y-99825160D01*
X80219911Y-99893777D01*
X80132577Y-99981111D01*
X80063960Y-100083804D01*
X80016695Y-100197911D01*
X79992600Y-100319046D01*
X77577084Y-100319046D01*
X77577084Y-100214719D01*
X77554910Y-100103244D01*
X77511415Y-99998237D01*
X77448269Y-99903733D01*
X77367900Y-99823364D01*
X77273396Y-99760218D01*
X77168389Y-99716723D01*
X77056914Y-99694549D01*
X76943254Y-99694549D01*
X76831779Y-99716723D01*
X76726772Y-99760218D01*
X76632268Y-99823364D01*
X76551899Y-99903733D01*
X76488753Y-99998237D01*
X76445258Y-100103244D01*
X76423084Y-100214719D01*
X68673082Y-100214719D01*
X68697985Y-100189816D01*
X68761131Y-100095312D01*
X68804626Y-99990305D01*
X68826800Y-99878830D01*
X68826800Y-99765170D01*
X68804626Y-99653695D01*
X68761131Y-99548688D01*
X68732772Y-99506246D01*
X77643100Y-99506246D01*
X77643100Y-99629754D01*
X77667195Y-99750889D01*
X77714460Y-99864996D01*
X77783077Y-99967689D01*
X77870411Y-100055023D01*
X77973104Y-100123640D01*
X78087211Y-100170905D01*
X78208346Y-100195000D01*
X78331854Y-100195000D01*
X78452989Y-100170905D01*
X78567096Y-100123640D01*
X78669789Y-100055023D01*
X78757123Y-99967689D01*
X78825740Y-99864996D01*
X78873005Y-99750889D01*
X78897100Y-99629754D01*
X78897100Y-99506246D01*
X78873005Y-99385111D01*
X78825740Y-99271004D01*
X78757123Y-99168311D01*
X78669789Y-99080977D01*
X78567096Y-99012360D01*
X78452989Y-98965095D01*
X78331854Y-98941000D01*
X78208346Y-98941000D01*
X78087211Y-98965095D01*
X77973104Y-99012360D01*
X77870411Y-99080977D01*
X77783077Y-99168311D01*
X77714460Y-99271004D01*
X77667195Y-99385111D01*
X77643100Y-99506246D01*
X68732772Y-99506246D01*
X68697985Y-99454184D01*
X68617616Y-99373815D01*
X68523112Y-99310669D01*
X68418105Y-99267174D01*
X68306630Y-99245000D01*
X68192970Y-99245000D01*
X68081495Y-99267174D01*
X67976488Y-99310669D01*
X67881984Y-99373815D01*
X67801615Y-99454184D01*
X67738469Y-99548688D01*
X67694974Y-99653695D01*
X67672800Y-99765170D01*
X64482600Y-99765170D01*
X64482600Y-99684046D01*
X64458505Y-99562911D01*
X64411240Y-99448804D01*
X64342623Y-99346111D01*
X64255289Y-99258777D01*
X64152596Y-99190160D01*
X64038489Y-99142895D01*
X63917354Y-99118800D01*
X63793846Y-99118800D01*
X63672711Y-99142895D01*
X63558604Y-99190160D01*
X63455911Y-99258777D01*
X63368577Y-99346111D01*
X63299960Y-99448804D01*
X63252695Y-99562911D01*
X63228600Y-99684046D01*
X54336619Y-99684046D01*
X54166987Y-99514414D01*
X53941454Y-99363718D01*
X53690856Y-99259917D01*
X53424823Y-99207000D01*
X53153577Y-99207000D01*
X52887544Y-99259917D01*
X52636946Y-99363718D01*
X52411413Y-99514414D01*
X52219614Y-99706213D01*
X52068918Y-99931746D01*
X51965117Y-100182344D01*
X51912200Y-100448377D01*
X50017612Y-100448377D01*
X49908651Y-99628871D01*
X49793611Y-98605628D01*
X49783018Y-98490248D01*
X58275600Y-98490248D01*
X58275600Y-98613756D01*
X58299695Y-98734891D01*
X58346960Y-98848998D01*
X58415577Y-98951691D01*
X58502911Y-99039025D01*
X58605604Y-99107642D01*
X58719711Y-99154907D01*
X58840846Y-99179002D01*
X58964354Y-99179002D01*
X59085489Y-99154907D01*
X59199596Y-99107642D01*
X59302289Y-99039025D01*
X59389623Y-98951691D01*
X59458240Y-98848998D01*
X59505505Y-98734891D01*
X59529600Y-98613756D01*
X59529600Y-98490248D01*
X59505505Y-98369113D01*
X59505118Y-98368178D01*
X69882584Y-98368178D01*
X69882584Y-98481838D01*
X69904758Y-98593313D01*
X69948253Y-98698320D01*
X70011399Y-98792824D01*
X70091768Y-98873193D01*
X70186272Y-98936339D01*
X70291279Y-98979834D01*
X70402754Y-99002008D01*
X70516414Y-99002008D01*
X70627889Y-98979834D01*
X70732896Y-98936339D01*
X70827400Y-98873193D01*
X70907769Y-98792824D01*
X70970915Y-98698320D01*
X71014410Y-98593313D01*
X71036584Y-98481838D01*
X71036584Y-98368178D01*
X71014410Y-98256703D01*
X70970915Y-98151696D01*
X70907769Y-98057192D01*
X70827400Y-97976823D01*
X70732896Y-97913677D01*
X70627889Y-97870182D01*
X70516414Y-97848008D01*
X70402754Y-97848008D01*
X70291279Y-97870182D01*
X70186272Y-97913677D01*
X70091768Y-97976823D01*
X70011399Y-98057192D01*
X69948253Y-98151696D01*
X69904758Y-98256703D01*
X69882584Y-98368178D01*
X59505118Y-98368178D01*
X59458240Y-98255006D01*
X59389623Y-98152313D01*
X59302289Y-98064979D01*
X59199596Y-97996362D01*
X59085489Y-97949097D01*
X58964354Y-97925002D01*
X58840846Y-97925002D01*
X58719711Y-97949097D01*
X58605604Y-97996362D01*
X58502911Y-98064979D01*
X58415577Y-98152313D01*
X58346960Y-98255006D01*
X58299695Y-98369113D01*
X58275600Y-98490248D01*
X49783018Y-98490248D01*
X49699508Y-97580714D01*
X49641928Y-96775296D01*
X58901010Y-96775296D01*
X58901010Y-96898804D01*
X58925105Y-97019939D01*
X58972370Y-97134046D01*
X59040987Y-97236739D01*
X59128321Y-97324073D01*
X59231014Y-97392690D01*
X59345121Y-97439955D01*
X59466256Y-97464050D01*
X59589764Y-97464050D01*
X59638476Y-97454361D01*
X59680460Y-97555718D01*
X59749077Y-97658411D01*
X59836411Y-97745745D01*
X59939104Y-97814362D01*
X60053211Y-97861627D01*
X60174346Y-97885722D01*
X60297854Y-97885722D01*
X60418989Y-97861627D01*
X60533096Y-97814362D01*
X60635789Y-97745745D01*
X60723123Y-97658411D01*
X60791740Y-97555718D01*
X60835689Y-97449615D01*
X62060727Y-97449615D01*
X62060727Y-97563275D01*
X62082901Y-97674750D01*
X62126396Y-97779757D01*
X62189542Y-97874261D01*
X62269911Y-97954630D01*
X62364415Y-98017776D01*
X62469422Y-98061271D01*
X62580897Y-98083445D01*
X62694557Y-98083445D01*
X62806032Y-98061271D01*
X62911039Y-98017776D01*
X63005543Y-97954630D01*
X63085912Y-97874261D01*
X63149058Y-97779757D01*
X63192553Y-97674750D01*
X63214727Y-97563275D01*
X63214727Y-97449615D01*
X63195344Y-97352170D01*
X71762200Y-97352170D01*
X71762200Y-97465830D01*
X71784374Y-97577305D01*
X71827869Y-97682312D01*
X71891015Y-97776816D01*
X71971384Y-97857185D01*
X72065888Y-97920331D01*
X72170895Y-97963826D01*
X72282370Y-97986000D01*
X72396030Y-97986000D01*
X72507505Y-97963826D01*
X72612512Y-97920331D01*
X72707016Y-97857185D01*
X72787385Y-97776816D01*
X72850531Y-97682312D01*
X72894026Y-97577305D01*
X72903674Y-97528800D01*
X72980230Y-97528800D01*
X73091705Y-97506626D01*
X73196712Y-97463131D01*
X73291216Y-97399985D01*
X73371585Y-97319616D01*
X73434731Y-97225112D01*
X73478226Y-97120105D01*
X73500400Y-97008630D01*
X73500400Y-96984102D01*
X74750283Y-96984102D01*
X74750283Y-97107610D01*
X74774378Y-97228745D01*
X74821643Y-97342852D01*
X74890260Y-97445545D01*
X74977594Y-97532879D01*
X75022895Y-97563148D01*
X75005384Y-97574848D01*
X74918050Y-97662182D01*
X74849433Y-97764875D01*
X74802168Y-97878982D01*
X74778073Y-98000117D01*
X74778073Y-98123625D01*
X74802168Y-98244760D01*
X74849433Y-98358867D01*
X74918050Y-98461560D01*
X75005384Y-98548894D01*
X75108077Y-98617511D01*
X75222184Y-98664776D01*
X75343319Y-98688871D01*
X75466827Y-98688871D01*
X75587962Y-98664776D01*
X75702069Y-98617511D01*
X75804762Y-98548894D01*
X75892096Y-98461560D01*
X75960713Y-98358867D01*
X76007978Y-98244760D01*
X76032073Y-98123625D01*
X76032073Y-98106058D01*
X76066970Y-98113000D01*
X76180630Y-98113000D01*
X76292105Y-98090826D01*
X76397112Y-98047331D01*
X76475061Y-97995247D01*
X76513738Y-98033924D01*
X76608242Y-98097070D01*
X76713249Y-98140565D01*
X76824724Y-98162739D01*
X76938384Y-98162739D01*
X77049859Y-98140565D01*
X77154866Y-98097070D01*
X77174656Y-98083846D01*
X77579600Y-98083846D01*
X77579600Y-98207354D01*
X77603695Y-98328489D01*
X77650960Y-98442596D01*
X77719577Y-98545289D01*
X77806911Y-98632623D01*
X77909604Y-98701240D01*
X78023711Y-98748505D01*
X78144846Y-98772600D01*
X78268354Y-98772600D01*
X78389489Y-98748505D01*
X78503596Y-98701240D01*
X78606289Y-98632623D01*
X78693623Y-98545289D01*
X78762240Y-98442596D01*
X78809505Y-98328489D01*
X78833600Y-98207354D01*
X78833600Y-98083846D01*
X78809505Y-97962711D01*
X78762240Y-97848604D01*
X78693623Y-97745911D01*
X78606289Y-97658577D01*
X78503596Y-97589960D01*
X78389489Y-97542695D01*
X78268354Y-97518600D01*
X78144846Y-97518600D01*
X78023711Y-97542695D01*
X77909604Y-97589960D01*
X77806911Y-97658577D01*
X77719577Y-97745911D01*
X77650960Y-97848604D01*
X77603695Y-97962711D01*
X77579600Y-98083846D01*
X77174656Y-98083846D01*
X77249370Y-98033924D01*
X77329739Y-97953555D01*
X77392885Y-97859051D01*
X77436380Y-97754044D01*
X77458554Y-97642569D01*
X77458554Y-97528909D01*
X77436380Y-97417434D01*
X77392885Y-97312427D01*
X77329739Y-97217923D01*
X77249370Y-97137554D01*
X77154866Y-97074408D01*
X77049859Y-97030913D01*
X76938384Y-97008739D01*
X76824724Y-97008739D01*
X76713249Y-97030913D01*
X76608242Y-97074408D01*
X76530293Y-97126492D01*
X76491616Y-97087815D01*
X76397112Y-97024669D01*
X76292105Y-96981174D01*
X76180630Y-96959000D01*
X76066970Y-96959000D01*
X76001866Y-96971950D01*
X75980188Y-96862967D01*
X75932923Y-96748860D01*
X75864306Y-96646167D01*
X75776972Y-96558833D01*
X75674279Y-96490216D01*
X75560172Y-96442951D01*
X75439037Y-96418856D01*
X75315529Y-96418856D01*
X75194394Y-96442951D01*
X75080287Y-96490216D01*
X74977594Y-96558833D01*
X74890260Y-96646167D01*
X74821643Y-96748860D01*
X74774378Y-96862967D01*
X74750283Y-96984102D01*
X73500400Y-96984102D01*
X73500400Y-96894970D01*
X73478226Y-96783495D01*
X73434731Y-96678488D01*
X73371585Y-96583984D01*
X73291216Y-96503615D01*
X73196712Y-96440469D01*
X73091705Y-96396974D01*
X72980230Y-96374800D01*
X72866570Y-96374800D01*
X72755095Y-96396974D01*
X72650088Y-96440469D01*
X72555584Y-96503615D01*
X72475215Y-96583984D01*
X72412069Y-96678488D01*
X72368574Y-96783495D01*
X72358926Y-96832000D01*
X72282370Y-96832000D01*
X72170895Y-96854174D01*
X72065888Y-96897669D01*
X71971384Y-96960815D01*
X71891015Y-97041184D01*
X71827869Y-97135688D01*
X71784374Y-97240695D01*
X71762200Y-97352170D01*
X63195344Y-97352170D01*
X63192553Y-97338140D01*
X63149058Y-97233133D01*
X63085912Y-97138629D01*
X63005543Y-97058260D01*
X62911039Y-96995114D01*
X62806032Y-96951619D01*
X62694557Y-96929445D01*
X62580897Y-96929445D01*
X62469422Y-96951619D01*
X62364415Y-96995114D01*
X62269911Y-97058260D01*
X62189542Y-97138629D01*
X62126396Y-97233133D01*
X62082901Y-97338140D01*
X62060727Y-97449615D01*
X60835689Y-97449615D01*
X60839005Y-97441611D01*
X60863100Y-97320476D01*
X60863100Y-97196968D01*
X60839005Y-97075833D01*
X60791740Y-96961726D01*
X60723123Y-96859033D01*
X60635789Y-96771699D01*
X60533096Y-96703082D01*
X60418989Y-96655817D01*
X60297854Y-96631722D01*
X60174346Y-96631722D01*
X60125634Y-96641411D01*
X60083650Y-96540054D01*
X60015033Y-96437361D01*
X59927699Y-96350027D01*
X59825006Y-96281410D01*
X59710899Y-96234145D01*
X59589764Y-96210050D01*
X59466256Y-96210050D01*
X59345121Y-96234145D01*
X59231014Y-96281410D01*
X59128321Y-96350027D01*
X59040987Y-96437361D01*
X58972370Y-96540054D01*
X58925105Y-96654161D01*
X58901010Y-96775296D01*
X49641928Y-96775296D01*
X49626152Y-96554633D01*
X49573744Y-95527578D01*
X49545770Y-94616746D01*
X56053100Y-94616746D01*
X56053100Y-94740254D01*
X56077195Y-94861389D01*
X56124460Y-94975496D01*
X56193077Y-95078189D01*
X56280411Y-95165523D01*
X56299833Y-95178500D01*
X56280411Y-95191477D01*
X56193077Y-95278811D01*
X56124460Y-95381504D01*
X56077195Y-95495611D01*
X56053100Y-95616746D01*
X56053100Y-95740254D01*
X56077195Y-95861389D01*
X56124460Y-95975496D01*
X56193077Y-96078189D01*
X56280411Y-96165523D01*
X56383104Y-96234140D01*
X56497211Y-96281405D01*
X56618346Y-96305500D01*
X56741854Y-96305500D01*
X56862989Y-96281405D01*
X56977096Y-96234140D01*
X57079789Y-96165523D01*
X57167123Y-96078189D01*
X57235740Y-95975496D01*
X57283005Y-95861389D01*
X57307100Y-95740254D01*
X57307100Y-95616746D01*
X57296101Y-95561446D01*
X64145427Y-95561446D01*
X64145427Y-95675106D01*
X64167601Y-95786581D01*
X64211096Y-95891588D01*
X64274242Y-95986092D01*
X64354611Y-96066461D01*
X64449115Y-96129607D01*
X64554122Y-96173102D01*
X64665597Y-96195276D01*
X64779257Y-96195276D01*
X64890732Y-96173102D01*
X64939311Y-96152980D01*
X77876052Y-96152980D01*
X77876052Y-96266640D01*
X77898226Y-96378115D01*
X77941721Y-96483122D01*
X78004867Y-96577626D01*
X78085236Y-96657995D01*
X78179740Y-96721141D01*
X78284747Y-96764636D01*
X78396222Y-96786810D01*
X78509882Y-96786810D01*
X78621357Y-96764636D01*
X78678144Y-96741114D01*
X78688565Y-96756710D01*
X78737525Y-96805670D01*
X78736860Y-96806666D01*
X78693365Y-96911673D01*
X78671191Y-97023148D01*
X78671191Y-97136808D01*
X78693365Y-97248283D01*
X78736860Y-97353290D01*
X78800006Y-97447794D01*
X78880375Y-97528163D01*
X78974879Y-97591309D01*
X79079886Y-97634804D01*
X79191361Y-97656978D01*
X79305021Y-97656978D01*
X79416496Y-97634804D01*
X79481960Y-97607688D01*
X79548377Y-97707089D01*
X79635711Y-97794423D01*
X79738404Y-97863040D01*
X79808581Y-97892109D01*
X79726179Y-97974511D01*
X79657562Y-98077204D01*
X79610297Y-98191311D01*
X79586202Y-98312446D01*
X79586202Y-98435954D01*
X79610297Y-98557089D01*
X79657562Y-98671196D01*
X79726179Y-98773889D01*
X79813513Y-98861223D01*
X79916206Y-98929840D01*
X80030313Y-98977105D01*
X80151448Y-99001200D01*
X80274956Y-99001200D01*
X80396091Y-98977105D01*
X80510198Y-98929840D01*
X80612891Y-98861223D01*
X80700225Y-98773889D01*
X80768842Y-98671196D01*
X80816107Y-98557089D01*
X80840202Y-98435954D01*
X80840202Y-98312446D01*
X80816107Y-98191311D01*
X80768842Y-98077204D01*
X80700225Y-97974511D01*
X80612891Y-97887177D01*
X80510198Y-97818560D01*
X80440021Y-97789491D01*
X80522423Y-97707089D01*
X80591040Y-97604396D01*
X80638305Y-97490289D01*
X80662400Y-97369154D01*
X80662400Y-97245646D01*
X80638305Y-97124511D01*
X80591040Y-97010404D01*
X80522423Y-96907711D01*
X80435089Y-96820377D01*
X80332396Y-96751760D01*
X80218289Y-96704495D01*
X80097154Y-96680400D01*
X79973646Y-96680400D01*
X79852511Y-96704495D01*
X79738404Y-96751760D01*
X79727640Y-96758952D01*
X79696376Y-96712162D01*
X79647416Y-96663202D01*
X79648081Y-96662206D01*
X79691576Y-96557199D01*
X79713750Y-96445724D01*
X79713750Y-96332064D01*
X79691576Y-96220589D01*
X79648081Y-96115582D01*
X79584935Y-96021078D01*
X79504566Y-95940709D01*
X79480508Y-95924634D01*
X79503090Y-95870115D01*
X79525264Y-95758640D01*
X79525264Y-95644980D01*
X79503090Y-95533505D01*
X79459595Y-95428498D01*
X79396449Y-95333994D01*
X79316080Y-95253625D01*
X79221576Y-95190479D01*
X79116569Y-95146984D01*
X79005094Y-95124810D01*
X78891434Y-95124810D01*
X78779959Y-95146984D01*
X78674952Y-95190479D01*
X78580448Y-95253625D01*
X78500079Y-95333994D01*
X78436933Y-95428498D01*
X78393438Y-95533505D01*
X78372756Y-95637478D01*
X78284747Y-95654984D01*
X78179740Y-95698479D01*
X78085236Y-95761625D01*
X78004867Y-95841994D01*
X77941721Y-95936498D01*
X77898226Y-96041505D01*
X77876052Y-96152980D01*
X64939311Y-96152980D01*
X64995739Y-96129607D01*
X65090243Y-96066461D01*
X65170612Y-95986092D01*
X65233758Y-95891588D01*
X65277253Y-95786581D01*
X65299427Y-95675106D01*
X65299427Y-95561446D01*
X65277253Y-95449971D01*
X65233758Y-95344964D01*
X65170612Y-95250460D01*
X65090243Y-95170091D01*
X64995739Y-95106945D01*
X64890732Y-95063450D01*
X64779257Y-95041276D01*
X64665597Y-95041276D01*
X64554122Y-95063450D01*
X64449115Y-95106945D01*
X64354611Y-95170091D01*
X64274242Y-95250460D01*
X64211096Y-95344964D01*
X64167601Y-95449971D01*
X64145427Y-95561446D01*
X57296101Y-95561446D01*
X57283005Y-95495611D01*
X57235740Y-95381504D01*
X57167123Y-95278811D01*
X57079789Y-95191477D01*
X57060367Y-95178500D01*
X57079789Y-95165523D01*
X57167123Y-95078189D01*
X57235740Y-94975496D01*
X57283005Y-94861389D01*
X57307100Y-94740254D01*
X57307100Y-94616746D01*
X57283005Y-94495611D01*
X57235740Y-94381504D01*
X57167123Y-94278811D01*
X57079789Y-94191477D01*
X56977096Y-94122860D01*
X56862989Y-94075595D01*
X56741854Y-94051500D01*
X56618346Y-94051500D01*
X56497211Y-94075595D01*
X56383104Y-94122860D01*
X56280411Y-94191477D01*
X56193077Y-94278811D01*
X56124460Y-94381504D01*
X56077195Y-94495611D01*
X56053100Y-94616746D01*
X49545770Y-94616746D01*
X49542179Y-94499851D01*
X49535562Y-93865170D01*
X61722002Y-93865170D01*
X61722002Y-93978830D01*
X61744176Y-94090305D01*
X61787671Y-94195312D01*
X61850817Y-94289816D01*
X61931186Y-94370185D01*
X62025690Y-94433331D01*
X62130697Y-94476826D01*
X62242172Y-94499000D01*
X62355832Y-94499000D01*
X62467307Y-94476826D01*
X62572314Y-94433331D01*
X62666818Y-94370185D01*
X62747187Y-94289816D01*
X62810333Y-94195312D01*
X62853828Y-94090305D01*
X62876002Y-93978830D01*
X62876002Y-93865170D01*
X64897000Y-93865170D01*
X64897000Y-93978830D01*
X64919174Y-94090305D01*
X64962669Y-94195312D01*
X65025815Y-94289816D01*
X65106184Y-94370185D01*
X65200688Y-94433331D01*
X65305695Y-94476826D01*
X65417170Y-94499000D01*
X65530830Y-94499000D01*
X65642305Y-94476826D01*
X65747312Y-94433331D01*
X65841816Y-94370185D01*
X65922185Y-94289816D01*
X65982769Y-94199145D01*
X78578190Y-94199145D01*
X78578190Y-94312805D01*
X78600364Y-94424280D01*
X78643859Y-94529287D01*
X78707005Y-94623791D01*
X78787374Y-94704160D01*
X78881878Y-94767306D01*
X78986885Y-94810801D01*
X79098360Y-94832975D01*
X79212020Y-94832975D01*
X79323495Y-94810801D01*
X79428502Y-94767306D01*
X79523006Y-94704160D01*
X79603375Y-94623791D01*
X79666521Y-94529287D01*
X79682899Y-94489746D01*
X83612100Y-94489746D01*
X83612100Y-94613254D01*
X83636195Y-94734389D01*
X83683460Y-94848496D01*
X83752077Y-94951189D01*
X83839411Y-95038523D01*
X83910079Y-95085741D01*
X83844009Y-95151811D01*
X83775392Y-95254504D01*
X83728127Y-95368611D01*
X83704032Y-95489746D01*
X83704032Y-95613254D01*
X83728127Y-95734389D01*
X83775392Y-95848496D01*
X83844009Y-95951189D01*
X83931343Y-96038523D01*
X84034036Y-96107140D01*
X84148143Y-96154405D01*
X84269278Y-96178500D01*
X84392786Y-96178500D01*
X84513921Y-96154405D01*
X84628028Y-96107140D01*
X84730721Y-96038523D01*
X84818055Y-95951189D01*
X84857794Y-95891714D01*
X87434000Y-95891714D01*
X87434000Y-96005374D01*
X87456174Y-96116849D01*
X87499669Y-96221856D01*
X87562815Y-96316360D01*
X87643184Y-96396729D01*
X87737688Y-96459875D01*
X87842695Y-96503370D01*
X87954170Y-96525544D01*
X88067830Y-96525544D01*
X88179305Y-96503370D01*
X88284312Y-96459875D01*
X88378816Y-96396729D01*
X88459185Y-96316360D01*
X88522331Y-96221856D01*
X88565826Y-96116849D01*
X88588000Y-96005374D01*
X88588000Y-95891714D01*
X88565826Y-95780239D01*
X88522331Y-95675232D01*
X88459185Y-95580728D01*
X88378816Y-95500359D01*
X88284312Y-95437213D01*
X88179305Y-95393718D01*
X88067830Y-95371544D01*
X87954170Y-95371544D01*
X87842695Y-95393718D01*
X87737688Y-95437213D01*
X87643184Y-95500359D01*
X87562815Y-95580728D01*
X87499669Y-95675232D01*
X87456174Y-95780239D01*
X87434000Y-95891714D01*
X84857794Y-95891714D01*
X84886672Y-95848496D01*
X84933937Y-95734389D01*
X84958032Y-95613254D01*
X84958032Y-95489746D01*
X84933937Y-95368611D01*
X84886672Y-95254504D01*
X84818055Y-95151811D01*
X84730721Y-95064477D01*
X84660053Y-95017259D01*
X84726123Y-94951189D01*
X84794740Y-94848496D01*
X84842005Y-94734389D01*
X84866100Y-94613254D01*
X84866100Y-94489746D01*
X84842005Y-94368611D01*
X84794740Y-94254504D01*
X84726123Y-94151811D01*
X84638789Y-94064477D01*
X84536096Y-93995860D01*
X84421989Y-93948595D01*
X84300854Y-93924500D01*
X84177346Y-93924500D01*
X84056211Y-93948595D01*
X83942104Y-93995860D01*
X83839411Y-94064477D01*
X83752077Y-94151811D01*
X83683460Y-94254504D01*
X83636195Y-94368611D01*
X83612100Y-94489746D01*
X79682899Y-94489746D01*
X79710016Y-94424280D01*
X79732190Y-94312805D01*
X79732190Y-94199145D01*
X79710016Y-94087670D01*
X79666521Y-93982663D01*
X79603375Y-93888159D01*
X79523006Y-93807790D01*
X79428502Y-93744644D01*
X79323495Y-93701149D01*
X79212020Y-93678975D01*
X79098360Y-93678975D01*
X78986885Y-93701149D01*
X78881878Y-93744644D01*
X78787374Y-93807790D01*
X78707005Y-93888159D01*
X78643859Y-93982663D01*
X78600364Y-94087670D01*
X78578190Y-94199145D01*
X65982769Y-94199145D01*
X65985331Y-94195312D01*
X66028826Y-94090305D01*
X66051000Y-93978830D01*
X66051000Y-93865170D01*
X66028826Y-93753695D01*
X65985331Y-93648688D01*
X65922185Y-93554184D01*
X65841816Y-93473815D01*
X65747312Y-93410669D01*
X65642305Y-93367174D01*
X65530830Y-93345000D01*
X65417170Y-93345000D01*
X65305695Y-93367174D01*
X65200688Y-93410669D01*
X65106184Y-93473815D01*
X65025815Y-93554184D01*
X64962669Y-93648688D01*
X64919174Y-93753695D01*
X64897000Y-93865170D01*
X62876002Y-93865170D01*
X62853828Y-93753695D01*
X62810333Y-93648688D01*
X62747187Y-93554184D01*
X62666818Y-93473815D01*
X62572314Y-93410669D01*
X62467307Y-93367174D01*
X62355832Y-93345000D01*
X62242172Y-93345000D01*
X62130697Y-93367174D01*
X62025690Y-93410669D01*
X61931186Y-93473815D01*
X61850817Y-93554184D01*
X61787671Y-93648688D01*
X61744176Y-93753695D01*
X61722002Y-93865170D01*
X49535562Y-93865170D01*
X49531459Y-93471759D01*
X49536270Y-92978310D01*
X78970410Y-92978310D01*
X78970410Y-93091970D01*
X78992584Y-93203445D01*
X79036079Y-93308452D01*
X79099225Y-93402956D01*
X79179594Y-93483325D01*
X79274098Y-93546471D01*
X79379105Y-93589966D01*
X79490580Y-93612140D01*
X79604240Y-93612140D01*
X79715715Y-93589966D01*
X79820722Y-93546471D01*
X79915226Y-93483325D01*
X79995595Y-93402956D01*
X80058741Y-93308452D01*
X80102236Y-93203445D01*
X80124410Y-93091970D01*
X80124410Y-92978310D01*
X80110260Y-92907170D01*
X87434000Y-92907170D01*
X87434000Y-93020830D01*
X87456174Y-93132305D01*
X87499669Y-93237312D01*
X87562815Y-93331816D01*
X87643184Y-93412185D01*
X87737688Y-93475331D01*
X87842695Y-93518826D01*
X87954170Y-93541000D01*
X88067830Y-93541000D01*
X88179305Y-93518826D01*
X88284312Y-93475331D01*
X88378816Y-93412185D01*
X88459185Y-93331816D01*
X88522331Y-93237312D01*
X88565826Y-93132305D01*
X88588000Y-93020830D01*
X88588000Y-92907170D01*
X88565826Y-92795695D01*
X88522331Y-92690688D01*
X88459185Y-92596184D01*
X88378816Y-92515815D01*
X88284312Y-92452669D01*
X88179305Y-92409174D01*
X88067830Y-92387000D01*
X87954170Y-92387000D01*
X87842695Y-92409174D01*
X87737688Y-92452669D01*
X87643184Y-92515815D01*
X87562815Y-92596184D01*
X87499669Y-92690688D01*
X87456174Y-92795695D01*
X87434000Y-92907170D01*
X80110260Y-92907170D01*
X80102236Y-92866835D01*
X80058741Y-92761828D01*
X79995595Y-92667324D01*
X79915226Y-92586955D01*
X79820722Y-92523809D01*
X79715715Y-92480314D01*
X79604240Y-92458140D01*
X79490580Y-92458140D01*
X79379105Y-92480314D01*
X79274098Y-92523809D01*
X79179594Y-92586955D01*
X79099225Y-92667324D01*
X79036079Y-92761828D01*
X78992584Y-92866835D01*
X78970410Y-92978310D01*
X49536270Y-92978310D01*
X49541483Y-92443732D01*
X49572454Y-91415941D01*
X49580745Y-91251246D01*
X56053100Y-91251246D01*
X56053100Y-91374754D01*
X56077195Y-91495889D01*
X56124460Y-91609996D01*
X56193077Y-91712689D01*
X56280411Y-91800023D01*
X56299833Y-91813000D01*
X56280411Y-91825977D01*
X56193077Y-91913311D01*
X56124460Y-92016004D01*
X56077195Y-92130111D01*
X56053100Y-92251246D01*
X56053100Y-92374754D01*
X56077195Y-92495889D01*
X56124460Y-92609996D01*
X56193077Y-92712689D01*
X56280411Y-92800023D01*
X56383104Y-92868640D01*
X56497211Y-92915905D01*
X56618346Y-92940000D01*
X56741854Y-92940000D01*
X56862989Y-92915905D01*
X56977096Y-92868640D01*
X57079789Y-92800023D01*
X57167123Y-92712689D01*
X57235740Y-92609996D01*
X57283005Y-92495889D01*
X57307100Y-92374754D01*
X57307100Y-92251246D01*
X57283005Y-92130111D01*
X57235740Y-92016004D01*
X57167123Y-91913311D01*
X57079789Y-91825977D01*
X57060367Y-91813000D01*
X57079789Y-91800023D01*
X57167123Y-91712689D01*
X57235740Y-91609996D01*
X57283005Y-91495889D01*
X57307100Y-91374754D01*
X57307100Y-91251246D01*
X57283005Y-91130111D01*
X57282616Y-91129170D01*
X64891500Y-91129170D01*
X64891500Y-91242830D01*
X64913674Y-91354305D01*
X64957169Y-91459312D01*
X65020315Y-91553816D01*
X65100684Y-91634185D01*
X65195188Y-91697331D01*
X65300195Y-91740826D01*
X65411670Y-91763000D01*
X65525330Y-91763000D01*
X65636805Y-91740826D01*
X65741812Y-91697331D01*
X65836316Y-91634185D01*
X65916685Y-91553816D01*
X65979831Y-91459312D01*
X66023326Y-91354305D01*
X66045500Y-91242830D01*
X66045500Y-91129170D01*
X66035949Y-91081154D01*
X78086800Y-91081154D01*
X78086800Y-91194814D01*
X78108974Y-91306289D01*
X78152469Y-91411296D01*
X78215615Y-91505800D01*
X78295984Y-91586169D01*
X78390488Y-91649315D01*
X78495495Y-91692810D01*
X78606970Y-91714984D01*
X78720630Y-91714984D01*
X78832105Y-91692810D01*
X78886248Y-91670384D01*
X78893346Y-91681007D01*
X78973715Y-91761376D01*
X79068219Y-91824522D01*
X79173226Y-91868017D01*
X79284701Y-91890191D01*
X79398361Y-91890191D01*
X79509836Y-91868017D01*
X79614843Y-91824522D01*
X79709347Y-91761376D01*
X79789716Y-91681007D01*
X79852862Y-91586503D01*
X79896357Y-91481496D01*
X79918531Y-91370021D01*
X79918531Y-91256361D01*
X79896357Y-91144886D01*
X79887808Y-91124246D01*
X83612100Y-91124246D01*
X83612100Y-91247754D01*
X83636195Y-91368889D01*
X83683460Y-91482996D01*
X83752077Y-91585689D01*
X83839411Y-91673023D01*
X83869183Y-91692916D01*
X83860111Y-91698977D01*
X83772777Y-91786311D01*
X83704160Y-91889004D01*
X83656895Y-92003111D01*
X83632800Y-92124246D01*
X83632800Y-92247754D01*
X83656895Y-92368889D01*
X83704160Y-92482996D01*
X83772777Y-92585689D01*
X83860111Y-92673023D01*
X83962804Y-92741640D01*
X84076911Y-92788905D01*
X84198046Y-92813000D01*
X84321554Y-92813000D01*
X84442689Y-92788905D01*
X84556796Y-92741640D01*
X84659489Y-92673023D01*
X84746823Y-92585689D01*
X84815440Y-92482996D01*
X84862705Y-92368889D01*
X84886800Y-92247754D01*
X84886800Y-92124246D01*
X84862705Y-92003111D01*
X84815440Y-91889004D01*
X84746823Y-91786311D01*
X84659489Y-91698977D01*
X84629717Y-91679084D01*
X84638789Y-91673023D01*
X84726123Y-91585689D01*
X84794740Y-91482996D01*
X84842005Y-91368889D01*
X84866100Y-91247754D01*
X84866100Y-91124246D01*
X84842005Y-91003111D01*
X84794740Y-90889004D01*
X84726123Y-90786311D01*
X84638789Y-90698977D01*
X84536096Y-90630360D01*
X84421989Y-90583095D01*
X84300854Y-90559000D01*
X84177346Y-90559000D01*
X84056211Y-90583095D01*
X83942104Y-90630360D01*
X83839411Y-90698977D01*
X83752077Y-90786311D01*
X83683460Y-90889004D01*
X83636195Y-91003111D01*
X83612100Y-91124246D01*
X79887808Y-91124246D01*
X79852862Y-91039879D01*
X79789716Y-90945375D01*
X79718448Y-90874107D01*
X79755241Y-90785279D01*
X79777415Y-90673804D01*
X79777415Y-90560144D01*
X79755241Y-90448669D01*
X79711746Y-90343662D01*
X79648600Y-90249158D01*
X79643056Y-90243614D01*
X79685272Y-90201398D01*
X79748418Y-90106894D01*
X79791913Y-90001887D01*
X79814087Y-89890412D01*
X79814087Y-89776752D01*
X79796080Y-89686221D01*
X81224732Y-89686221D01*
X81224732Y-89799881D01*
X81246906Y-89911356D01*
X81290401Y-90016363D01*
X81353547Y-90110867D01*
X81433916Y-90191236D01*
X81528420Y-90254382D01*
X81633427Y-90297877D01*
X81744902Y-90320051D01*
X81858562Y-90320051D01*
X81970037Y-90297877D01*
X82075044Y-90254382D01*
X82169548Y-90191236D01*
X82249917Y-90110867D01*
X82313063Y-90016363D01*
X82356558Y-89911356D01*
X82378732Y-89799881D01*
X82378732Y-89686221D01*
X82376736Y-89676189D01*
X82479482Y-89633630D01*
X82582175Y-89565013D01*
X82669509Y-89477679D01*
X82738126Y-89374986D01*
X82785391Y-89260879D01*
X82809486Y-89139744D01*
X82809486Y-89016236D01*
X82785391Y-88895101D01*
X82738126Y-88780994D01*
X82669509Y-88678301D01*
X82582175Y-88590967D01*
X82479482Y-88522350D01*
X82365375Y-88475085D01*
X82244240Y-88450990D01*
X82120732Y-88450990D01*
X81999597Y-88475085D01*
X81885490Y-88522350D01*
X81782797Y-88590967D01*
X81695463Y-88678301D01*
X81626846Y-88780994D01*
X81579581Y-88895101D01*
X81555486Y-89016236D01*
X81555486Y-89139744D01*
X81570328Y-89214361D01*
X81528420Y-89231720D01*
X81433916Y-89294866D01*
X81353547Y-89375235D01*
X81290401Y-89469739D01*
X81246906Y-89574746D01*
X81224732Y-89686221D01*
X79796080Y-89686221D01*
X79791913Y-89665277D01*
X79748418Y-89560270D01*
X79685272Y-89465766D01*
X79604903Y-89385397D01*
X79510399Y-89322251D01*
X79405392Y-89278756D01*
X79293917Y-89256582D01*
X79180257Y-89256582D01*
X79068782Y-89278756D01*
X78963775Y-89322251D01*
X78869271Y-89385397D01*
X78788902Y-89465766D01*
X78725756Y-89560270D01*
X78682261Y-89665277D01*
X78660087Y-89776752D01*
X78660087Y-89890412D01*
X78682261Y-90001887D01*
X78725756Y-90106894D01*
X78788902Y-90201398D01*
X78794446Y-90206942D01*
X78752230Y-90249158D01*
X78689084Y-90343662D01*
X78645589Y-90448669D01*
X78623415Y-90560144D01*
X78623415Y-90560984D01*
X78606970Y-90560984D01*
X78495495Y-90583158D01*
X78390488Y-90626653D01*
X78295984Y-90689799D01*
X78215615Y-90770168D01*
X78152469Y-90864672D01*
X78108974Y-90969679D01*
X78086800Y-91081154D01*
X66035949Y-91081154D01*
X66023326Y-91017695D01*
X65979831Y-90912688D01*
X65916685Y-90818184D01*
X65836316Y-90737815D01*
X65741812Y-90674669D01*
X65636805Y-90631174D01*
X65525330Y-90609000D01*
X65411670Y-90609000D01*
X65300195Y-90631174D01*
X65195188Y-90674669D01*
X65100684Y-90737815D01*
X65020315Y-90818184D01*
X64957169Y-90912688D01*
X64913674Y-91017695D01*
X64891500Y-91129170D01*
X57282616Y-91129170D01*
X57235740Y-91016004D01*
X57167123Y-90913311D01*
X57079789Y-90825977D01*
X56977096Y-90757360D01*
X56862989Y-90710095D01*
X56741854Y-90686000D01*
X56618346Y-90686000D01*
X56497211Y-90710095D01*
X56383104Y-90757360D01*
X56280411Y-90825977D01*
X56193077Y-90913311D01*
X56124460Y-91016004D01*
X56077195Y-91130111D01*
X56053100Y-91251246D01*
X49580745Y-91251246D01*
X49624169Y-90388778D01*
X49635039Y-90235252D01*
X55253000Y-90235252D01*
X55253000Y-90358760D01*
X55277095Y-90479895D01*
X55324360Y-90594002D01*
X55392977Y-90696695D01*
X55480311Y-90784029D01*
X55583004Y-90852646D01*
X55697111Y-90899911D01*
X55818246Y-90924006D01*
X55941754Y-90924006D01*
X56062889Y-90899911D01*
X56176996Y-90852646D01*
X56279689Y-90784029D01*
X56367023Y-90696695D01*
X56435640Y-90594002D01*
X56482905Y-90479895D01*
X56507000Y-90358760D01*
X56507000Y-90235252D01*
X56482905Y-90114117D01*
X56435640Y-90000010D01*
X56367023Y-89897317D01*
X56279689Y-89809983D01*
X56176996Y-89741366D01*
X56062889Y-89694101D01*
X55941754Y-89670006D01*
X55818246Y-89670006D01*
X55697111Y-89694101D01*
X55583004Y-89741366D01*
X55480311Y-89809983D01*
X55392977Y-89897317D01*
X55324360Y-90000010D01*
X55277095Y-90114117D01*
X55253000Y-90235252D01*
X49635039Y-90235252D01*
X49696829Y-89362603D01*
X49715679Y-89155746D01*
X57192990Y-89155746D01*
X57192990Y-89279254D01*
X57217085Y-89400389D01*
X57264350Y-89514496D01*
X57332967Y-89617189D01*
X57420301Y-89704523D01*
X57522994Y-89773140D01*
X57637101Y-89820405D01*
X57758236Y-89844500D01*
X57881744Y-89844500D01*
X58002879Y-89820405D01*
X58116986Y-89773140D01*
X58219679Y-89704523D01*
X58291848Y-89632354D01*
X59432662Y-89632354D01*
X59432662Y-89755862D01*
X59456757Y-89876997D01*
X59504022Y-89991104D01*
X59572639Y-90093797D01*
X59659973Y-90181131D01*
X59762666Y-90249748D01*
X59876773Y-90297013D01*
X59997908Y-90321108D01*
X60121416Y-90321108D01*
X60242551Y-90297013D01*
X60356658Y-90249748D01*
X60380938Y-90233525D01*
X60397570Y-90258416D01*
X60477939Y-90338785D01*
X60572443Y-90401931D01*
X60677450Y-90445426D01*
X60788925Y-90467600D01*
X60902585Y-90467600D01*
X61014060Y-90445426D01*
X61119067Y-90401931D01*
X61213571Y-90338785D01*
X61293940Y-90258416D01*
X61357086Y-90163912D01*
X61400581Y-90058905D01*
X61422755Y-89947430D01*
X61422755Y-89833770D01*
X61415177Y-89795670D01*
X61716500Y-89795670D01*
X61716500Y-89909330D01*
X61738674Y-90020805D01*
X61782169Y-90125812D01*
X61845315Y-90220316D01*
X61925684Y-90300685D01*
X62020188Y-90363831D01*
X62125195Y-90407326D01*
X62236670Y-90429500D01*
X62350330Y-90429500D01*
X62461805Y-90407326D01*
X62566812Y-90363831D01*
X62661316Y-90300685D01*
X62741685Y-90220316D01*
X62804831Y-90125812D01*
X62848326Y-90020805D01*
X62868467Y-89919553D01*
X62906305Y-89912026D01*
X63011312Y-89868531D01*
X63105816Y-89805385D01*
X63186185Y-89725016D01*
X63249331Y-89630512D01*
X63292826Y-89525505D01*
X63315000Y-89414030D01*
X63315000Y-89300370D01*
X63292826Y-89188895D01*
X63249331Y-89083888D01*
X63186185Y-88989384D01*
X63105816Y-88909015D01*
X63011312Y-88845869D01*
X62906305Y-88802374D01*
X62794830Y-88780200D01*
X62681170Y-88780200D01*
X62569695Y-88802374D01*
X62464688Y-88845869D01*
X62370184Y-88909015D01*
X62289815Y-88989384D01*
X62226669Y-89083888D01*
X62183174Y-89188895D01*
X62163033Y-89290147D01*
X62125195Y-89297674D01*
X62020188Y-89341169D01*
X61925684Y-89404315D01*
X61845315Y-89484684D01*
X61782169Y-89579188D01*
X61738674Y-89684195D01*
X61716500Y-89795670D01*
X61415177Y-89795670D01*
X61400581Y-89722295D01*
X61357086Y-89617288D01*
X61293940Y-89522784D01*
X61213571Y-89442415D01*
X61119067Y-89379269D01*
X61014060Y-89335774D01*
X60902585Y-89313600D01*
X60788925Y-89313600D01*
X60677450Y-89335774D01*
X60596674Y-89369232D01*
X60546685Y-89294419D01*
X60459351Y-89207085D01*
X60356658Y-89138468D01*
X60242551Y-89091203D01*
X60121416Y-89067108D01*
X59997908Y-89067108D01*
X59876773Y-89091203D01*
X59762666Y-89138468D01*
X59659973Y-89207085D01*
X59572639Y-89294419D01*
X59504022Y-89397112D01*
X59456757Y-89511219D01*
X59432662Y-89632354D01*
X58291848Y-89632354D01*
X58307013Y-89617189D01*
X58375630Y-89514496D01*
X58422895Y-89400389D01*
X58446990Y-89279254D01*
X58446990Y-89155746D01*
X58422895Y-89034611D01*
X58375630Y-88920504D01*
X58307013Y-88817811D01*
X58219679Y-88730477D01*
X58116986Y-88661860D01*
X58002879Y-88614595D01*
X57881744Y-88590500D01*
X57758236Y-88590500D01*
X57637101Y-88614595D01*
X57522994Y-88661860D01*
X57420301Y-88730477D01*
X57332967Y-88817811D01*
X57264350Y-88920504D01*
X57217085Y-89034611D01*
X57192990Y-89155746D01*
X49715679Y-89155746D01*
X49790238Y-88337597D01*
X49904392Y-87314275D01*
X50039486Y-86292795D01*
X50049947Y-86224377D01*
X51912200Y-86224377D01*
X51912200Y-86495623D01*
X51965117Y-86761656D01*
X52068918Y-87012254D01*
X52219614Y-87237787D01*
X52411413Y-87429586D01*
X52636946Y-87580282D01*
X52887544Y-87684083D01*
X53153577Y-87737000D01*
X53424823Y-87737000D01*
X53690856Y-87684083D01*
X53941454Y-87580282D01*
X53959467Y-87568246D01*
X56688100Y-87568246D01*
X56688100Y-87691754D01*
X56712195Y-87812889D01*
X56759460Y-87926996D01*
X56828077Y-88029689D01*
X56915411Y-88117023D01*
X57018104Y-88185640D01*
X57132211Y-88232905D01*
X57253346Y-88257000D01*
X57376854Y-88257000D01*
X57497989Y-88232905D01*
X57612096Y-88185640D01*
X57714789Y-88117023D01*
X57763066Y-88068746D01*
X65028343Y-88068746D01*
X65028343Y-88182406D01*
X65050517Y-88293881D01*
X65094012Y-88398888D01*
X65157158Y-88493392D01*
X65237527Y-88573761D01*
X65332031Y-88636907D01*
X65437038Y-88680402D01*
X65548513Y-88702576D01*
X65662173Y-88702576D01*
X65773648Y-88680402D01*
X65878655Y-88636907D01*
X65973159Y-88573761D01*
X66031078Y-88515842D01*
X67812208Y-88515842D01*
X67812208Y-88629502D01*
X67834382Y-88740977D01*
X67877877Y-88845984D01*
X67941023Y-88940488D01*
X68021392Y-89020857D01*
X68115896Y-89084003D01*
X68220903Y-89127498D01*
X68332378Y-89149672D01*
X68446038Y-89149672D01*
X68557513Y-89127498D01*
X68662520Y-89084003D01*
X68757024Y-89020857D01*
X68837393Y-88940488D01*
X68900539Y-88845984D01*
X68925530Y-88785649D01*
X68988885Y-88798251D01*
X69102545Y-88798251D01*
X69214020Y-88776077D01*
X69319027Y-88732582D01*
X69413531Y-88669436D01*
X69493900Y-88589067D01*
X69557046Y-88494563D01*
X69572503Y-88457246D01*
X69794500Y-88457246D01*
X69794500Y-88580754D01*
X69818595Y-88701889D01*
X69865860Y-88815996D01*
X69934477Y-88918689D01*
X70021811Y-89006023D01*
X70124504Y-89074640D01*
X70238611Y-89121905D01*
X70359746Y-89146000D01*
X70483254Y-89146000D01*
X70604389Y-89121905D01*
X70718496Y-89074640D01*
X70821189Y-89006023D01*
X70908523Y-88918689D01*
X70977140Y-88815996D01*
X71024405Y-88701889D01*
X71048500Y-88580754D01*
X71048500Y-88457246D01*
X71024405Y-88336111D01*
X71018273Y-88321306D01*
X71692736Y-88321306D01*
X71692736Y-88434966D01*
X71714910Y-88546441D01*
X71758405Y-88651448D01*
X71821551Y-88745952D01*
X71901920Y-88826321D01*
X71996424Y-88889467D01*
X72101431Y-88932962D01*
X72212906Y-88955136D01*
X72326566Y-88955136D01*
X72438041Y-88932962D01*
X72543048Y-88889467D01*
X72623263Y-88835868D01*
X72679992Y-88892597D01*
X72774496Y-88955743D01*
X72879503Y-88999238D01*
X72990978Y-89021412D01*
X73104638Y-89021412D01*
X73216113Y-88999238D01*
X73321120Y-88955743D01*
X73415624Y-88892597D01*
X73426384Y-88881838D01*
X73463167Y-88918621D01*
X73557671Y-88981767D01*
X73662678Y-89025262D01*
X73774153Y-89047436D01*
X73887813Y-89047436D01*
X73999288Y-89025262D01*
X74104295Y-88981767D01*
X74198799Y-88918621D01*
X74279168Y-88838252D01*
X74342314Y-88743748D01*
X74372382Y-88671157D01*
X74378090Y-88699854D01*
X74425355Y-88813961D01*
X74493972Y-88916654D01*
X74581306Y-89003988D01*
X74683999Y-89072605D01*
X74798106Y-89119870D01*
X74919241Y-89143965D01*
X74929115Y-89143965D01*
X74951702Y-89257517D01*
X74998967Y-89371624D01*
X75067584Y-89474317D01*
X75154918Y-89561651D01*
X75257611Y-89630268D01*
X75328701Y-89659715D01*
X75293620Y-89694796D01*
X75230474Y-89789300D01*
X75186979Y-89894307D01*
X75164805Y-90005782D01*
X75164805Y-90119442D01*
X75186979Y-90230917D01*
X75230474Y-90335924D01*
X75293620Y-90430428D01*
X75373989Y-90510797D01*
X75468493Y-90573943D01*
X75573500Y-90617438D01*
X75684975Y-90639612D01*
X75798635Y-90639612D01*
X75910110Y-90617438D01*
X76015117Y-90573943D01*
X76109621Y-90510797D01*
X76189990Y-90430428D01*
X76253136Y-90335924D01*
X76266230Y-90304311D01*
X76320970Y-90315200D01*
X76434630Y-90315200D01*
X76546105Y-90293026D01*
X76651112Y-90249531D01*
X76715465Y-90206531D01*
X76804711Y-90266164D01*
X76909718Y-90309659D01*
X77021193Y-90331833D01*
X77134853Y-90331833D01*
X77246328Y-90309659D01*
X77351335Y-90266164D01*
X77445839Y-90203018D01*
X77526208Y-90122649D01*
X77544893Y-90094686D01*
X77561009Y-90110802D01*
X77663702Y-90179419D01*
X77777809Y-90226684D01*
X77898944Y-90250779D01*
X78022452Y-90250779D01*
X78143587Y-90226684D01*
X78257694Y-90179419D01*
X78360387Y-90110802D01*
X78447721Y-90023468D01*
X78516338Y-89920775D01*
X78563603Y-89806668D01*
X78587698Y-89685533D01*
X78587698Y-89562025D01*
X78563603Y-89440890D01*
X78516338Y-89326783D01*
X78447721Y-89224090D01*
X78360387Y-89136756D01*
X78257694Y-89068139D01*
X78143587Y-89020874D01*
X78022452Y-88996779D01*
X77898944Y-88996779D01*
X77777809Y-89020874D01*
X77663702Y-89068139D01*
X77561009Y-89136756D01*
X77473675Y-89224090D01*
X77426947Y-89294024D01*
X77351335Y-89243502D01*
X77246328Y-89200007D01*
X77134853Y-89177833D01*
X77021193Y-89177833D01*
X76909718Y-89200007D01*
X76804711Y-89243502D01*
X76740358Y-89286502D01*
X76651112Y-89226869D01*
X76546105Y-89183374D01*
X76434630Y-89161200D01*
X76320970Y-89161200D01*
X76209495Y-89183374D01*
X76168917Y-89200182D01*
X76181607Y-89136382D01*
X76181607Y-89012874D01*
X76157512Y-88891739D01*
X76110247Y-88777632D01*
X76041630Y-88674939D01*
X75954296Y-88587605D01*
X75851603Y-88518988D01*
X75737496Y-88471723D01*
X75616361Y-88447628D01*
X75606487Y-88447628D01*
X75583900Y-88334076D01*
X75536635Y-88219969D01*
X75519336Y-88194079D01*
X80156677Y-88194079D01*
X80156677Y-88317587D01*
X80180772Y-88438722D01*
X80228037Y-88552829D01*
X80296654Y-88655522D01*
X80383988Y-88742856D01*
X80486681Y-88811473D01*
X80600788Y-88858738D01*
X80721923Y-88882833D01*
X80845431Y-88882833D01*
X80966566Y-88858738D01*
X81080673Y-88811473D01*
X81183366Y-88742856D01*
X81270700Y-88655522D01*
X81339317Y-88552829D01*
X81386582Y-88438722D01*
X81410677Y-88317587D01*
X81410677Y-88194079D01*
X81386582Y-88072944D01*
X81339317Y-87958837D01*
X81270700Y-87856144D01*
X81183366Y-87768810D01*
X81080673Y-87700193D01*
X80966566Y-87652928D01*
X80845431Y-87628833D01*
X80721923Y-87628833D01*
X80600788Y-87652928D01*
X80486681Y-87700193D01*
X80383988Y-87768810D01*
X80296654Y-87856144D01*
X80228037Y-87958837D01*
X80180772Y-88072944D01*
X80156677Y-88194079D01*
X75519336Y-88194079D01*
X75468018Y-88117276D01*
X75380684Y-88029942D01*
X75277991Y-87961325D01*
X75163884Y-87914060D01*
X75042749Y-87889965D01*
X74919241Y-87889965D01*
X74798106Y-87914060D01*
X74683999Y-87961325D01*
X74581306Y-88029942D01*
X74493972Y-88117276D01*
X74425355Y-88219969D01*
X74387598Y-88311123D01*
X74385809Y-88302131D01*
X74342314Y-88197124D01*
X74279168Y-88102620D01*
X74198799Y-88022251D01*
X74104295Y-87959105D01*
X73999288Y-87915610D01*
X73887813Y-87893436D01*
X73774153Y-87893436D01*
X73662678Y-87915610D01*
X73557671Y-87959105D01*
X73463167Y-88022251D01*
X73452408Y-88033011D01*
X73415624Y-87996227D01*
X73321120Y-87933081D01*
X73216113Y-87889586D01*
X73104638Y-87867412D01*
X72990978Y-87867412D01*
X72879503Y-87889586D01*
X72774496Y-87933081D01*
X72694281Y-87986680D01*
X72637552Y-87929951D01*
X72543048Y-87866805D01*
X72438041Y-87823310D01*
X72326566Y-87801136D01*
X72212906Y-87801136D01*
X72101431Y-87823310D01*
X71996424Y-87866805D01*
X71901920Y-87929951D01*
X71821551Y-88010320D01*
X71758405Y-88104824D01*
X71714910Y-88209831D01*
X71692736Y-88321306D01*
X71018273Y-88321306D01*
X70977140Y-88222004D01*
X70908523Y-88119311D01*
X70821189Y-88031977D01*
X70718496Y-87963360D01*
X70604389Y-87916095D01*
X70483254Y-87892000D01*
X70359746Y-87892000D01*
X70238611Y-87916095D01*
X70124504Y-87963360D01*
X70021811Y-88031977D01*
X69934477Y-88119311D01*
X69865860Y-88222004D01*
X69818595Y-88336111D01*
X69794500Y-88457246D01*
X69572503Y-88457246D01*
X69600541Y-88389556D01*
X69622715Y-88278081D01*
X69622715Y-88164421D01*
X69600541Y-88052946D01*
X69557046Y-87947939D01*
X69502765Y-87866703D01*
X69504717Y-87864751D01*
X69567863Y-87770247D01*
X69611358Y-87665240D01*
X69633532Y-87553765D01*
X69633532Y-87440105D01*
X69611358Y-87328630D01*
X69567863Y-87223623D01*
X69504717Y-87129119D01*
X69468722Y-87093124D01*
X71088611Y-87093124D01*
X71088611Y-87201858D01*
X71109824Y-87308503D01*
X71151435Y-87408961D01*
X71211845Y-87499371D01*
X71288731Y-87576257D01*
X71379141Y-87636667D01*
X71479599Y-87678278D01*
X71586244Y-87699491D01*
X71694978Y-87699491D01*
X71801623Y-87678278D01*
X71902081Y-87636667D01*
X71992491Y-87576257D01*
X72035840Y-87532908D01*
X72056890Y-87546973D01*
X72157348Y-87588584D01*
X72263993Y-87609797D01*
X72372727Y-87609797D01*
X72479372Y-87588584D01*
X72579830Y-87546973D01*
X72670240Y-87486563D01*
X72747126Y-87409677D01*
X72807536Y-87319267D01*
X72849147Y-87218809D01*
X72870360Y-87112164D01*
X72870360Y-87003430D01*
X72849147Y-86896785D01*
X72807536Y-86796327D01*
X72747126Y-86705917D01*
X72670240Y-86629031D01*
X72579830Y-86568621D01*
X72479372Y-86527010D01*
X72372727Y-86505797D01*
X72263993Y-86505797D01*
X72157348Y-86527010D01*
X72056890Y-86568621D01*
X71966480Y-86629031D01*
X71923131Y-86672380D01*
X71902081Y-86658315D01*
X71801623Y-86616704D01*
X71694978Y-86595491D01*
X71586244Y-86595491D01*
X71479599Y-86616704D01*
X71379141Y-86658315D01*
X71288731Y-86718725D01*
X71211845Y-86795611D01*
X71151435Y-86886021D01*
X71109824Y-86986479D01*
X71088611Y-87093124D01*
X69468722Y-87093124D01*
X69424348Y-87048750D01*
X69329844Y-86985604D01*
X69224837Y-86942109D01*
X69113362Y-86919935D01*
X69041668Y-86919935D01*
X69033226Y-86877495D01*
X68989731Y-86772488D01*
X68926585Y-86677984D01*
X68846216Y-86597615D01*
X68751712Y-86534469D01*
X68653214Y-86493670D01*
X72765508Y-86493670D01*
X72765508Y-86607330D01*
X72787682Y-86718805D01*
X72831177Y-86823812D01*
X72894323Y-86918316D01*
X72974692Y-86998685D01*
X73069196Y-87061831D01*
X73174203Y-87105326D01*
X73285678Y-87127500D01*
X73399338Y-87127500D01*
X73510813Y-87105326D01*
X73615820Y-87061831D01*
X73710324Y-86998685D01*
X73745439Y-86963570D01*
X75826200Y-86963570D01*
X75826200Y-87077230D01*
X75848374Y-87188705D01*
X75891869Y-87293712D01*
X75955015Y-87388216D01*
X76035384Y-87468585D01*
X76129888Y-87531731D01*
X76234895Y-87575226D01*
X76346370Y-87597400D01*
X76460030Y-87597400D01*
X76571505Y-87575226D01*
X76676512Y-87531731D01*
X76771016Y-87468585D01*
X76851385Y-87388216D01*
X76890014Y-87330404D01*
X76945615Y-87413616D01*
X77025984Y-87493985D01*
X77120488Y-87557131D01*
X77225495Y-87600626D01*
X77336970Y-87622800D01*
X77450630Y-87622800D01*
X77562105Y-87600626D01*
X77667112Y-87557131D01*
X77761616Y-87493985D01*
X77841985Y-87413616D01*
X77905131Y-87319112D01*
X77948626Y-87214105D01*
X77970800Y-87102630D01*
X77970800Y-87034846D01*
X78062200Y-87034846D01*
X78062200Y-87158354D01*
X78086295Y-87279489D01*
X78133560Y-87393596D01*
X78202177Y-87496289D01*
X78289511Y-87583623D01*
X78392204Y-87652240D01*
X78506311Y-87699505D01*
X78627446Y-87723600D01*
X78750954Y-87723600D01*
X78872089Y-87699505D01*
X78986196Y-87652240D01*
X79088889Y-87583623D01*
X79176223Y-87496289D01*
X79244840Y-87393596D01*
X79292105Y-87279489D01*
X79316200Y-87158354D01*
X79316200Y-87034846D01*
X79292105Y-86913711D01*
X79244840Y-86799604D01*
X79176223Y-86696911D01*
X79088889Y-86609577D01*
X78986196Y-86540960D01*
X78872089Y-86493695D01*
X78750954Y-86469600D01*
X78627446Y-86469600D01*
X78506311Y-86493695D01*
X78392204Y-86540960D01*
X78289511Y-86609577D01*
X78202177Y-86696911D01*
X78133560Y-86799604D01*
X78086295Y-86913711D01*
X78062200Y-87034846D01*
X77970800Y-87034846D01*
X77970800Y-86988970D01*
X77948626Y-86877495D01*
X77905131Y-86772488D01*
X77841985Y-86677984D01*
X77761616Y-86597615D01*
X77667112Y-86534469D01*
X77562105Y-86490974D01*
X77450630Y-86468800D01*
X77336970Y-86468800D01*
X77225495Y-86490974D01*
X77120488Y-86534469D01*
X77025984Y-86597615D01*
X76945615Y-86677984D01*
X76906986Y-86735796D01*
X76851385Y-86652584D01*
X76771016Y-86572215D01*
X76676512Y-86509069D01*
X76571505Y-86465574D01*
X76460030Y-86443400D01*
X76346370Y-86443400D01*
X76234895Y-86465574D01*
X76129888Y-86509069D01*
X76035384Y-86572215D01*
X75955015Y-86652584D01*
X75891869Y-86747088D01*
X75848374Y-86852095D01*
X75826200Y-86963570D01*
X73745439Y-86963570D01*
X73790693Y-86918316D01*
X73853839Y-86823812D01*
X73897334Y-86718805D01*
X73919508Y-86607330D01*
X73919508Y-86493670D01*
X73905898Y-86425246D01*
X79802100Y-86425246D01*
X79802100Y-86548754D01*
X79826195Y-86669889D01*
X79873460Y-86783996D01*
X79942077Y-86886689D01*
X80029411Y-86974023D01*
X80132104Y-87042640D01*
X80246211Y-87089905D01*
X80367346Y-87114000D01*
X80490854Y-87114000D01*
X80611989Y-87089905D01*
X80726096Y-87042640D01*
X80828789Y-86974023D01*
X80916123Y-86886689D01*
X80984740Y-86783996D01*
X81032005Y-86669889D01*
X81056100Y-86548754D01*
X81056100Y-86425246D01*
X81032005Y-86304111D01*
X80998978Y-86224377D01*
X86253000Y-86224377D01*
X86253000Y-86495623D01*
X86305917Y-86761656D01*
X86409718Y-87012254D01*
X86560414Y-87237787D01*
X86752213Y-87429586D01*
X86977746Y-87580282D01*
X87228344Y-87684083D01*
X87494377Y-87737000D01*
X87765623Y-87737000D01*
X88031656Y-87684083D01*
X88282254Y-87580282D01*
X88507787Y-87429586D01*
X88699586Y-87237787D01*
X88850282Y-87012254D01*
X88954083Y-86761656D01*
X89007000Y-86495623D01*
X89007000Y-86224377D01*
X88954083Y-85958344D01*
X88850282Y-85707746D01*
X88699586Y-85482213D01*
X88507787Y-85290414D01*
X88282254Y-85139718D01*
X88031656Y-85035917D01*
X87765623Y-84983000D01*
X87494377Y-84983000D01*
X87228344Y-85035917D01*
X86977746Y-85139718D01*
X86752213Y-85290414D01*
X86560414Y-85482213D01*
X86409718Y-85707746D01*
X86305917Y-85958344D01*
X86253000Y-86224377D01*
X80998978Y-86224377D01*
X80984740Y-86190004D01*
X80916123Y-86087311D01*
X80828789Y-85999977D01*
X80726096Y-85931360D01*
X80611989Y-85884095D01*
X80490854Y-85860000D01*
X80367346Y-85860000D01*
X80246211Y-85884095D01*
X80132104Y-85931360D01*
X80029411Y-85999977D01*
X79942077Y-86087311D01*
X79873460Y-86190004D01*
X79826195Y-86304111D01*
X79802100Y-86425246D01*
X73905898Y-86425246D01*
X73897334Y-86382195D01*
X73853839Y-86277188D01*
X73790693Y-86182684D01*
X73710324Y-86102315D01*
X73615820Y-86039169D01*
X73510813Y-85995674D01*
X73399338Y-85973500D01*
X73285678Y-85973500D01*
X73174203Y-85995674D01*
X73069196Y-86039169D01*
X72974692Y-86102315D01*
X72894323Y-86182684D01*
X72831177Y-86277188D01*
X72787682Y-86382195D01*
X72765508Y-86493670D01*
X68653214Y-86493670D01*
X68646705Y-86490974D01*
X68535230Y-86468800D01*
X68421570Y-86468800D01*
X68310095Y-86490974D01*
X68205088Y-86534469D01*
X68110584Y-86597615D01*
X68030215Y-86677984D01*
X67967069Y-86772488D01*
X67923574Y-86877495D01*
X67901400Y-86988970D01*
X67901400Y-87102630D01*
X67923574Y-87214105D01*
X67967069Y-87319112D01*
X68030215Y-87413616D01*
X68110584Y-87493985D01*
X68205088Y-87557131D01*
X68310095Y-87600626D01*
X68421570Y-87622800D01*
X68493264Y-87622800D01*
X68501706Y-87665240D01*
X68545201Y-87770247D01*
X68599482Y-87851483D01*
X68597530Y-87853435D01*
X68534384Y-87947939D01*
X68509393Y-88008274D01*
X68446038Y-87995672D01*
X68332378Y-87995672D01*
X68220903Y-88017846D01*
X68115896Y-88061341D01*
X68021392Y-88124487D01*
X67941023Y-88204856D01*
X67877877Y-88299360D01*
X67834382Y-88404367D01*
X67812208Y-88515842D01*
X66031078Y-88515842D01*
X66053528Y-88493392D01*
X66116674Y-88398888D01*
X66160169Y-88293881D01*
X66182343Y-88182406D01*
X66182343Y-88068746D01*
X66160169Y-87957271D01*
X66116674Y-87852264D01*
X66053528Y-87757760D01*
X65973159Y-87677391D01*
X65878655Y-87614245D01*
X65773648Y-87570750D01*
X65662173Y-87548576D01*
X65548513Y-87548576D01*
X65437038Y-87570750D01*
X65332031Y-87614245D01*
X65237527Y-87677391D01*
X65157158Y-87757760D01*
X65094012Y-87852264D01*
X65050517Y-87957271D01*
X65028343Y-88068746D01*
X57763066Y-88068746D01*
X57802123Y-88029689D01*
X57870740Y-87926996D01*
X57918005Y-87812889D01*
X57942100Y-87691754D01*
X57942100Y-87568246D01*
X57918005Y-87447111D01*
X57870740Y-87333004D01*
X57825950Y-87265970D01*
X62971400Y-87265970D01*
X62971400Y-87379630D01*
X62993574Y-87491105D01*
X63037069Y-87596112D01*
X63100215Y-87690616D01*
X63180584Y-87770985D01*
X63275088Y-87834131D01*
X63380095Y-87877626D01*
X63491570Y-87899800D01*
X63605230Y-87899800D01*
X63716705Y-87877626D01*
X63821712Y-87834131D01*
X63916216Y-87770985D01*
X63996585Y-87690616D01*
X64059731Y-87596112D01*
X64103226Y-87491105D01*
X64125400Y-87379630D01*
X64125400Y-87265970D01*
X64103226Y-87154495D01*
X64059731Y-87049488D01*
X63996585Y-86954984D01*
X63916216Y-86874615D01*
X63821712Y-86811469D01*
X63716705Y-86767974D01*
X63605230Y-86745800D01*
X63491570Y-86745800D01*
X63380095Y-86767974D01*
X63275088Y-86811469D01*
X63180584Y-86874615D01*
X63100215Y-86954984D01*
X63037069Y-87049488D01*
X62993574Y-87154495D01*
X62971400Y-87265970D01*
X57825950Y-87265970D01*
X57802123Y-87230311D01*
X57714789Y-87142977D01*
X57612096Y-87074360D01*
X57497989Y-87027095D01*
X57376854Y-87003000D01*
X57253346Y-87003000D01*
X57132211Y-87027095D01*
X57018104Y-87074360D01*
X56915411Y-87142977D01*
X56828077Y-87230311D01*
X56759460Y-87333004D01*
X56712195Y-87447111D01*
X56688100Y-87568246D01*
X53959467Y-87568246D01*
X54166987Y-87429586D01*
X54358786Y-87237787D01*
X54509482Y-87012254D01*
X54613283Y-86761656D01*
X54666200Y-86495623D01*
X54666200Y-86224377D01*
X54613283Y-85958344D01*
X54605366Y-85939229D01*
X58609079Y-85939229D01*
X58609079Y-86062737D01*
X58633174Y-86183872D01*
X58680439Y-86297979D01*
X58749056Y-86400672D01*
X58836390Y-86488006D01*
X58939083Y-86556623D01*
X59053190Y-86603888D01*
X59174325Y-86627983D01*
X59297833Y-86627983D01*
X59418968Y-86603888D01*
X59533075Y-86556623D01*
X59635768Y-86488006D01*
X59723102Y-86400672D01*
X59782669Y-86311523D01*
X60311109Y-86311523D01*
X60311109Y-86435031D01*
X60335204Y-86556166D01*
X60382469Y-86670273D01*
X60451086Y-86772966D01*
X60538420Y-86860300D01*
X60641113Y-86928917D01*
X60755220Y-86976182D01*
X60876355Y-87000277D01*
X60999863Y-87000277D01*
X61120998Y-86976182D01*
X61235105Y-86928917D01*
X61337798Y-86860300D01*
X61425132Y-86772966D01*
X61493749Y-86670273D01*
X61511121Y-86628334D01*
X61511121Y-86645430D01*
X61533295Y-86756905D01*
X61576790Y-86861912D01*
X61639936Y-86956416D01*
X61720305Y-87036785D01*
X61814809Y-87099931D01*
X61919816Y-87143426D01*
X62031291Y-87165600D01*
X62144951Y-87165600D01*
X62256426Y-87143426D01*
X62361433Y-87099931D01*
X62455937Y-87036785D01*
X62536306Y-86956416D01*
X62599452Y-86861912D01*
X62642947Y-86756905D01*
X62665121Y-86645430D01*
X62665121Y-86531770D01*
X62642947Y-86420295D01*
X62599452Y-86315288D01*
X62536306Y-86220784D01*
X62455937Y-86140415D01*
X62361433Y-86077269D01*
X62256426Y-86033774D01*
X62144951Y-86011600D01*
X62031291Y-86011600D01*
X61919816Y-86033774D01*
X61814809Y-86077269D01*
X61720305Y-86140415D01*
X61639936Y-86220784D01*
X61576790Y-86315288D01*
X61565109Y-86343489D01*
X61565109Y-86311523D01*
X61541014Y-86190388D01*
X61493749Y-86076281D01*
X61425132Y-85973588D01*
X61337798Y-85886254D01*
X61235105Y-85817637D01*
X61120998Y-85770372D01*
X60999863Y-85746277D01*
X60876355Y-85746277D01*
X60755220Y-85770372D01*
X60641113Y-85817637D01*
X60538420Y-85886254D01*
X60451086Y-85973588D01*
X60382469Y-86076281D01*
X60335204Y-86190388D01*
X60311109Y-86311523D01*
X59782669Y-86311523D01*
X59791719Y-86297979D01*
X59838984Y-86183872D01*
X59863079Y-86062737D01*
X59863079Y-85939229D01*
X59838984Y-85818094D01*
X59791719Y-85703987D01*
X59723102Y-85601294D01*
X59635768Y-85513960D01*
X59533075Y-85445343D01*
X59418968Y-85398078D01*
X59297833Y-85373983D01*
X59174325Y-85373983D01*
X59053190Y-85398078D01*
X58939083Y-85445343D01*
X58836390Y-85513960D01*
X58749056Y-85601294D01*
X58680439Y-85703987D01*
X58633174Y-85818094D01*
X58609079Y-85939229D01*
X54605366Y-85939229D01*
X54509482Y-85707746D01*
X54358786Y-85482213D01*
X54166987Y-85290414D01*
X53941454Y-85139718D01*
X53690856Y-85035917D01*
X53424823Y-84983000D01*
X53153577Y-84983000D01*
X52887544Y-85035917D01*
X52636946Y-85139718D01*
X52411413Y-85290414D01*
X52219614Y-85482213D01*
X52068918Y-85707746D01*
X51965117Y-85958344D01*
X51912200Y-86224377D01*
X50049947Y-86224377D01*
X50186007Y-85334531D01*
X50186257Y-85334108D01*
X50189740Y-85326638D01*
X50202396Y-85302961D01*
X50205401Y-85293056D01*
X50482870Y-84698046D01*
X62974600Y-84698046D01*
X62974600Y-84821554D01*
X62998695Y-84942689D01*
X63045960Y-85056796D01*
X63114577Y-85159489D01*
X63201911Y-85246823D01*
X63304604Y-85315440D01*
X63418711Y-85362705D01*
X63539846Y-85386800D01*
X63663354Y-85386800D01*
X63784489Y-85362705D01*
X63898596Y-85315440D01*
X63923752Y-85298631D01*
X68250839Y-85298631D01*
X68250839Y-85422139D01*
X68274934Y-85543274D01*
X68322199Y-85657381D01*
X68390816Y-85760074D01*
X68478150Y-85847408D01*
X68580843Y-85916025D01*
X68694950Y-85963290D01*
X68816085Y-85987385D01*
X68939593Y-85987385D01*
X69060728Y-85963290D01*
X69174835Y-85916025D01*
X69277528Y-85847408D01*
X69364862Y-85760074D01*
X69433479Y-85657381D01*
X69480744Y-85543274D01*
X69504839Y-85422139D01*
X69504839Y-85298631D01*
X69480744Y-85177496D01*
X69433479Y-85063389D01*
X69364862Y-84960696D01*
X69277528Y-84873362D01*
X69174835Y-84804745D01*
X69060728Y-84757480D01*
X68939593Y-84733385D01*
X68816085Y-84733385D01*
X68694950Y-84757480D01*
X68580843Y-84804745D01*
X68478150Y-84873362D01*
X68390816Y-84960696D01*
X68322199Y-85063389D01*
X68274934Y-85177496D01*
X68250839Y-85298631D01*
X63923752Y-85298631D01*
X64001289Y-85246823D01*
X64088623Y-85159489D01*
X64157240Y-85056796D01*
X64204505Y-84942689D01*
X64228600Y-84821554D01*
X64228600Y-84698046D01*
X64204505Y-84576911D01*
X64157240Y-84462804D01*
X64088623Y-84360111D01*
X64005145Y-84276633D01*
X72128983Y-84276633D01*
X72128983Y-84400141D01*
X72153078Y-84521276D01*
X72200343Y-84635383D01*
X72268960Y-84738076D01*
X72356294Y-84825410D01*
X72458987Y-84894027D01*
X72573094Y-84941292D01*
X72694229Y-84965387D01*
X72817737Y-84965387D01*
X72860997Y-84956782D01*
X76511574Y-84956782D01*
X76511574Y-85080290D01*
X76535669Y-85201425D01*
X76582934Y-85315532D01*
X76651551Y-85418225D01*
X76738885Y-85505559D01*
X76841578Y-85574176D01*
X76955685Y-85621441D01*
X77076820Y-85645536D01*
X77200328Y-85645536D01*
X77321463Y-85621441D01*
X77435570Y-85574176D01*
X77538263Y-85505559D01*
X77625597Y-85418225D01*
X77694214Y-85315532D01*
X77741479Y-85201425D01*
X77765574Y-85080290D01*
X77765574Y-84956782D01*
X77741479Y-84835647D01*
X77694214Y-84721540D01*
X77625597Y-84618847D01*
X77538263Y-84531513D01*
X77435570Y-84462896D01*
X77321463Y-84415631D01*
X77200328Y-84391536D01*
X77076820Y-84391536D01*
X76955685Y-84415631D01*
X76841578Y-84462896D01*
X76738885Y-84531513D01*
X76651551Y-84618847D01*
X76582934Y-84721540D01*
X76535669Y-84835647D01*
X76511574Y-84956782D01*
X72860997Y-84956782D01*
X72938872Y-84941292D01*
X73052979Y-84894027D01*
X73155672Y-84825410D01*
X73243006Y-84738076D01*
X73311623Y-84635383D01*
X73358888Y-84521276D01*
X73382983Y-84400141D01*
X73382983Y-84276633D01*
X73358888Y-84155498D01*
X73311623Y-84041391D01*
X73243006Y-83938698D01*
X73155672Y-83851364D01*
X73052979Y-83782747D01*
X73005717Y-83763170D01*
X85783000Y-83763170D01*
X85783000Y-83876830D01*
X85805174Y-83988305D01*
X85848669Y-84093312D01*
X85911815Y-84187816D01*
X85992184Y-84268185D01*
X86086688Y-84331331D01*
X86191695Y-84374826D01*
X86303170Y-84397000D01*
X86416830Y-84397000D01*
X86528305Y-84374826D01*
X86633312Y-84331331D01*
X86727816Y-84268185D01*
X86808185Y-84187816D01*
X86871331Y-84093312D01*
X86914826Y-83988305D01*
X86937000Y-83876830D01*
X86937000Y-83763170D01*
X86914826Y-83651695D01*
X86871331Y-83546688D01*
X86808185Y-83452184D01*
X86727816Y-83371815D01*
X86633312Y-83308669D01*
X86528305Y-83265174D01*
X86416830Y-83243000D01*
X86303170Y-83243000D01*
X86191695Y-83265174D01*
X86086688Y-83308669D01*
X85992184Y-83371815D01*
X85911815Y-83452184D01*
X85848669Y-83546688D01*
X85805174Y-83651695D01*
X85783000Y-83763170D01*
X73005717Y-83763170D01*
X72938872Y-83735482D01*
X72817737Y-83711387D01*
X72694229Y-83711387D01*
X72573094Y-83735482D01*
X72458987Y-83782747D01*
X72356294Y-83851364D01*
X72268960Y-83938698D01*
X72200343Y-84041391D01*
X72153078Y-84155498D01*
X72128983Y-84276633D01*
X64005145Y-84276633D01*
X64001289Y-84272777D01*
X63898596Y-84204160D01*
X63784489Y-84156895D01*
X63663354Y-84132800D01*
X63539846Y-84132800D01*
X63418711Y-84156895D01*
X63304604Y-84204160D01*
X63201911Y-84272777D01*
X63114577Y-84360111D01*
X63045960Y-84462804D01*
X62998695Y-84576911D01*
X62974600Y-84698046D01*
X50482870Y-84698046D01*
X51217243Y-83123246D01*
X63863600Y-83123246D01*
X63863600Y-83246754D01*
X63887695Y-83367889D01*
X63934960Y-83481996D01*
X64003577Y-83584689D01*
X64090911Y-83672023D01*
X64193604Y-83740640D01*
X64307711Y-83787905D01*
X64428846Y-83812000D01*
X64552354Y-83812000D01*
X64673489Y-83787905D01*
X64787596Y-83740640D01*
X64890289Y-83672023D01*
X64977623Y-83584689D01*
X65046240Y-83481996D01*
X65093505Y-83367889D01*
X65117600Y-83246754D01*
X65117600Y-83123246D01*
X65093505Y-83002111D01*
X65046240Y-82888004D01*
X65012645Y-82837724D01*
X68435600Y-82837724D01*
X68435600Y-82961232D01*
X68459695Y-83082367D01*
X68506960Y-83196474D01*
X68575577Y-83299167D01*
X68662911Y-83386501D01*
X68765604Y-83455118D01*
X68879711Y-83502383D01*
X69000846Y-83526478D01*
X69124354Y-83526478D01*
X69245489Y-83502383D01*
X69359596Y-83455118D01*
X69462289Y-83386501D01*
X69549623Y-83299167D01*
X69618240Y-83196474D01*
X69665505Y-83082367D01*
X69689600Y-82961232D01*
X69689600Y-82837724D01*
X69665505Y-82716589D01*
X69618240Y-82602482D01*
X69549623Y-82499789D01*
X69462289Y-82412455D01*
X69359596Y-82343838D01*
X69245489Y-82296573D01*
X69124354Y-82272478D01*
X69000846Y-82272478D01*
X68879711Y-82296573D01*
X68765604Y-82343838D01*
X68662911Y-82412455D01*
X68575577Y-82499789D01*
X68506960Y-82602482D01*
X68459695Y-82716589D01*
X68435600Y-82837724D01*
X65012645Y-82837724D01*
X64977623Y-82785311D01*
X64890289Y-82697977D01*
X64787596Y-82629360D01*
X64673489Y-82582095D01*
X64552354Y-82558000D01*
X64428846Y-82558000D01*
X64307711Y-82582095D01*
X64193604Y-82629360D01*
X64090911Y-82697977D01*
X64003577Y-82785311D01*
X63934960Y-82888004D01*
X63887695Y-83002111D01*
X63863600Y-83123246D01*
X51217243Y-83123246D01*
X51941573Y-81569980D01*
X71237590Y-81569980D01*
X71237590Y-81683640D01*
X71259764Y-81795115D01*
X71303259Y-81900122D01*
X71366405Y-81994626D01*
X71446774Y-82074995D01*
X71541278Y-82138141D01*
X71646285Y-82181636D01*
X71740182Y-82200313D01*
X71734227Y-82230249D01*
X71734227Y-82353757D01*
X71758322Y-82474892D01*
X71805587Y-82588999D01*
X71874204Y-82691692D01*
X71961538Y-82779026D01*
X72064231Y-82847643D01*
X72178338Y-82894908D01*
X72299473Y-82919003D01*
X72422981Y-82919003D01*
X72544116Y-82894908D01*
X72658223Y-82847643D01*
X72760916Y-82779026D01*
X72848250Y-82691692D01*
X72916867Y-82588999D01*
X72964132Y-82474892D01*
X72988227Y-82353757D01*
X72988227Y-82230249D01*
X72964132Y-82109114D01*
X72916867Y-81995007D01*
X72848250Y-81892314D01*
X72760916Y-81804980D01*
X72738117Y-81789746D01*
X75420600Y-81789746D01*
X75420600Y-81913254D01*
X75444695Y-82034389D01*
X75491960Y-82148496D01*
X75560577Y-82251189D01*
X75647911Y-82338523D01*
X75750604Y-82407140D01*
X75864711Y-82454405D01*
X75985846Y-82478500D01*
X76109354Y-82478500D01*
X76230489Y-82454405D01*
X76344596Y-82407140D01*
X76447289Y-82338523D01*
X76534623Y-82251189D01*
X76603240Y-82148496D01*
X76650505Y-82034389D01*
X76674600Y-81913254D01*
X76674600Y-81789746D01*
X76650505Y-81668611D01*
X76603240Y-81554504D01*
X76534623Y-81451811D01*
X76447289Y-81364477D01*
X76344596Y-81295860D01*
X76230489Y-81248595D01*
X76109354Y-81224500D01*
X75985846Y-81224500D01*
X75864711Y-81248595D01*
X75750604Y-81295860D01*
X75647911Y-81364477D01*
X75560577Y-81451811D01*
X75491960Y-81554504D01*
X75444695Y-81668611D01*
X75420600Y-81789746D01*
X72738117Y-81789746D01*
X72658223Y-81736363D01*
X72544116Y-81689098D01*
X72422981Y-81665003D01*
X72391590Y-81665003D01*
X72391590Y-81569980D01*
X72369416Y-81458505D01*
X72325921Y-81353498D01*
X72262775Y-81258994D01*
X72182406Y-81178625D01*
X72087902Y-81115479D01*
X71982895Y-81071984D01*
X71871420Y-81049810D01*
X71757760Y-81049810D01*
X71646285Y-81071984D01*
X71541278Y-81115479D01*
X71446774Y-81178625D01*
X71366405Y-81258994D01*
X71303259Y-81353498D01*
X71259764Y-81458505D01*
X71237590Y-81569980D01*
X51941573Y-81569980D01*
X52321214Y-80755874D01*
X68354228Y-80755874D01*
X68354228Y-80879382D01*
X68378323Y-81000517D01*
X68425588Y-81114624D01*
X68494205Y-81217317D01*
X68581539Y-81304651D01*
X68684232Y-81373268D01*
X68798339Y-81420533D01*
X68919474Y-81444628D01*
X69042982Y-81444628D01*
X69164117Y-81420533D01*
X69278224Y-81373268D01*
X69380917Y-81304651D01*
X69468251Y-81217317D01*
X69536868Y-81114624D01*
X69578114Y-81015046D01*
X74150600Y-81015046D01*
X74150600Y-81138554D01*
X74174695Y-81259689D01*
X74221960Y-81373796D01*
X74290577Y-81476489D01*
X74377911Y-81563823D01*
X74480604Y-81632440D01*
X74594711Y-81679705D01*
X74715846Y-81703800D01*
X74839354Y-81703800D01*
X74960489Y-81679705D01*
X75074596Y-81632440D01*
X75177289Y-81563823D01*
X75264623Y-81476489D01*
X75333240Y-81373796D01*
X75380505Y-81259689D01*
X75404600Y-81138554D01*
X75404600Y-81015046D01*
X75395475Y-80969170D01*
X84386000Y-80969170D01*
X84386000Y-81082830D01*
X84408174Y-81194305D01*
X84451669Y-81299312D01*
X84514815Y-81393816D01*
X84595184Y-81474185D01*
X84689688Y-81537331D01*
X84794695Y-81580826D01*
X84906170Y-81603000D01*
X85019830Y-81603000D01*
X85131305Y-81580826D01*
X85236312Y-81537331D01*
X85330816Y-81474185D01*
X85411185Y-81393816D01*
X85474331Y-81299312D01*
X85517826Y-81194305D01*
X85540000Y-81082830D01*
X85540000Y-80969170D01*
X85517826Y-80857695D01*
X85474331Y-80752688D01*
X85411185Y-80658184D01*
X85330816Y-80577815D01*
X85236312Y-80514669D01*
X85131305Y-80471174D01*
X85019830Y-80449000D01*
X84906170Y-80449000D01*
X84794695Y-80471174D01*
X84689688Y-80514669D01*
X84595184Y-80577815D01*
X84514815Y-80658184D01*
X84451669Y-80752688D01*
X84408174Y-80857695D01*
X84386000Y-80969170D01*
X75395475Y-80969170D01*
X75380505Y-80893911D01*
X75355229Y-80832890D01*
X75449006Y-80770231D01*
X75536340Y-80682897D01*
X75604957Y-80580204D01*
X75652222Y-80466097D01*
X75676317Y-80344962D01*
X75676317Y-80221454D01*
X75652222Y-80100319D01*
X75604957Y-79986212D01*
X75536340Y-79883519D01*
X75449006Y-79796185D01*
X75346313Y-79727568D01*
X75232206Y-79680303D01*
X75111071Y-79656208D01*
X74987563Y-79656208D01*
X74866428Y-79680303D01*
X74752321Y-79727568D01*
X74649628Y-79796185D01*
X74562294Y-79883519D01*
X74493677Y-79986212D01*
X74446412Y-80100319D01*
X74422317Y-80221454D01*
X74422317Y-80344962D01*
X74446412Y-80466097D01*
X74471688Y-80527118D01*
X74377911Y-80589777D01*
X74290577Y-80677111D01*
X74221960Y-80779804D01*
X74174695Y-80893911D01*
X74150600Y-81015046D01*
X69578114Y-81015046D01*
X69584133Y-81000517D01*
X69608228Y-80879382D01*
X69608228Y-80755874D01*
X69584133Y-80634739D01*
X69536868Y-80520632D01*
X69468251Y-80417939D01*
X69380917Y-80330605D01*
X69278224Y-80261988D01*
X69164117Y-80214723D01*
X69042982Y-80190628D01*
X68919474Y-80190628D01*
X68798339Y-80214723D01*
X68684232Y-80261988D01*
X68581539Y-80330605D01*
X68494205Y-80417939D01*
X68425588Y-80520632D01*
X68378323Y-80634739D01*
X68354228Y-80755874D01*
X52321214Y-80755874D01*
X56150698Y-72543879D01*
X60058348Y-72543665D01*
X60053403Y-72552917D01*
X60030417Y-72628694D01*
X60022655Y-72707500D01*
X60024600Y-72727247D01*
X60024601Y-74529243D01*
X60022655Y-74549000D01*
X60030417Y-74627806D01*
X60053403Y-74703583D01*
X60090732Y-74773420D01*
X60140968Y-74834632D01*
X60202180Y-74884868D01*
X60272017Y-74922197D01*
X60347794Y-74945183D01*
X60406853Y-74951000D01*
X60426600Y-74952945D01*
X60446347Y-74951000D01*
X63079255Y-74951000D01*
X62945944Y-74977517D01*
X62695346Y-75081318D01*
X62469813Y-75232014D01*
X62278014Y-75423813D01*
X62127318Y-75649346D01*
X62023517Y-75899944D01*
X61970600Y-76165977D01*
X61970600Y-76437223D01*
X62023517Y-76703256D01*
X62127318Y-76953854D01*
X62278014Y-77179387D01*
X62469813Y-77371186D01*
X62695346Y-77521882D01*
X62945944Y-77625683D01*
X63211977Y-77678600D01*
X63483223Y-77678600D01*
X63749256Y-77625683D01*
X63999854Y-77521882D01*
X64225387Y-77371186D01*
X64417186Y-77179387D01*
X64567882Y-76953854D01*
X64671683Y-76703256D01*
X64724600Y-76437223D01*
X64724600Y-76165977D01*
X64671683Y-75899944D01*
X64567882Y-75649346D01*
X64417186Y-75423813D01*
X64225387Y-75232014D01*
X63999854Y-75081318D01*
X63749256Y-74977517D01*
X63615945Y-74951000D01*
X77303255Y-74951000D01*
X77169944Y-74977517D01*
X76919346Y-75081318D01*
X76693813Y-75232014D01*
X76502014Y-75423813D01*
X76351318Y-75649346D01*
X76247517Y-75899944D01*
X76194600Y-76165977D01*
X76194600Y-76437223D01*
X76247517Y-76703256D01*
X76351318Y-76953854D01*
X76502014Y-77179387D01*
X76693813Y-77371186D01*
X76919346Y-77521882D01*
X77169944Y-77625683D01*
X77435977Y-77678600D01*
X77707223Y-77678600D01*
X77973256Y-77625683D01*
X78223854Y-77521882D01*
X78449387Y-77371186D01*
X78641186Y-77179387D01*
X78791882Y-76953854D01*
X78895683Y-76703256D01*
X78948600Y-76437223D01*
X78948600Y-76165977D01*
X78895683Y-75899944D01*
X78791882Y-75649346D01*
X78641186Y-75423813D01*
X78449387Y-75232014D01*
X78223854Y-75081318D01*
X77973256Y-74977517D01*
X77839945Y-74951000D01*
X80472853Y-74951000D01*
X80492600Y-74952945D01*
X80512347Y-74951000D01*
X80571406Y-74945183D01*
X80647183Y-74922197D01*
X80717020Y-74884868D01*
X80778232Y-74834632D01*
X80828468Y-74773420D01*
X80865797Y-74703583D01*
X80888783Y-74627806D01*
X80896545Y-74549000D01*
X80894600Y-74529253D01*
X80894600Y-72727247D01*
X80896545Y-72707500D01*
X80888783Y-72628694D01*
X80865797Y-72552917D01*
X80860244Y-72542528D01*
X84764506Y-72542314D01*
X90716279Y-85309115D01*
%TD*%
M02*
