%TF.GenerationSoftware,KiCad,Pcbnew,(5.1.6)-1*%
%TF.CreationDate,2024-07-23T23:35:14+05:30*%
%TF.ProjectId,Project_OAK_MAIN_BRD_V0.1,50726f6a-6563-4745-9f4f-414b5f4d4149,A*%
%TF.SameCoordinates,Original*%
%TF.FileFunction,Copper,L1,Top*%
%TF.FilePolarity,Positive*%
%FSLAX46Y46*%
G04 Gerber Fmt 4.6, Leading zero omitted, Abs format (unit mm)*
G04 Created by KiCad (PCBNEW (5.1.6)-1) date 2024-07-23 23:35:14*
%MOMM*%
%LPD*%
G01*
G04 APERTURE LIST*
%TA.AperFunction,NonConductor*%
%ADD10C,0.300000*%
%TD*%
%TA.AperFunction,EtchedComponent*%
%ADD11C,0.010000*%
%TD*%
%TA.AperFunction,SMDPad,CuDef*%
%ADD12R,0.800000X0.500000*%
%TD*%
%TA.AperFunction,SMDPad,CuDef*%
%ADD13R,0.800000X0.900000*%
%TD*%
%TA.AperFunction,SMDPad,CuDef*%
%ADD14C,1.000000*%
%TD*%
%TA.AperFunction,SMDPad,CuDef*%
%ADD15R,1.050000X1.400000*%
%TD*%
%TA.AperFunction,SMDPad,CuDef*%
%ADD16C,0.100000*%
%TD*%
%TA.AperFunction,SMDPad,CuDef*%
%ADD17R,3.100000X3.100000*%
%TD*%
%TA.AperFunction,ViaPad*%
%ADD18C,0.500000*%
%TD*%
%TA.AperFunction,ViaPad*%
%ADD19C,0.600000*%
%TD*%
%TA.AperFunction,ViaPad*%
%ADD20C,0.450000*%
%TD*%
%TA.AperFunction,Conductor*%
%ADD21C,0.200000*%
%TD*%
%TA.AperFunction,Conductor*%
%ADD22C,0.250000*%
%TD*%
%TA.AperFunction,Conductor*%
%ADD23C,0.156000*%
%TD*%
G04 APERTURE END LIST*
D10*
X56806520Y-101877868D02*
X57672545Y-101377868D01*
X56490220Y-102472877D02*
X57596675Y-102246457D01*
X57132390Y-101442291D01*
X55837793Y-101199983D02*
X55766364Y-101076265D01*
X55756795Y-100916833D01*
X55782939Y-100819260D01*
X55870943Y-100685972D01*
X56082665Y-100481256D01*
X56391959Y-100302685D01*
X56675109Y-100221687D01*
X56834542Y-100212117D01*
X56932115Y-100238262D01*
X57065402Y-100326265D01*
X57136831Y-100449983D01*
X57146401Y-100609415D01*
X57120256Y-100706989D01*
X57032252Y-100840276D01*
X56820531Y-101044992D01*
X56511236Y-101223564D01*
X56228086Y-101304562D01*
X56068654Y-101314131D01*
X55971080Y-101287987D01*
X55837793Y-101199983D01*
X54390171Y-93900571D02*
X55390171Y-93900571D01*
X53818742Y-94257714D02*
X54890171Y-94614857D01*
X54890171Y-93686285D01*
X53890171Y-92400571D02*
X53890171Y-93114857D01*
X54604457Y-93186285D01*
X54533028Y-93114857D01*
X54461600Y-92972000D01*
X54461600Y-92614857D01*
X54533028Y-92472000D01*
X54604457Y-92400571D01*
X54747314Y-92329142D01*
X55104457Y-92329142D01*
X55247314Y-92400571D01*
X55318742Y-92472000D01*
X55390171Y-92614857D01*
X55390171Y-92972000D01*
X55318742Y-93114857D01*
X55247314Y-93186285D01*
X55917150Y-85496580D02*
X55560007Y-86115170D01*
X56142882Y-86534171D01*
X56116738Y-86436598D01*
X56126307Y-86277166D01*
X56304879Y-85967871D01*
X56438166Y-85879868D01*
X56535740Y-85853723D01*
X56695172Y-85863292D01*
X57004467Y-86041864D01*
X57092470Y-86175151D01*
X57118615Y-86272725D01*
X57109045Y-86432157D01*
X56930474Y-86741452D01*
X56797186Y-86829455D01*
X56699613Y-86855600D01*
X56417150Y-84630555D02*
X56488579Y-84506837D01*
X56621866Y-84418833D01*
X56719439Y-84392688D01*
X56878872Y-84402258D01*
X57162022Y-84483256D01*
X57471317Y-84661828D01*
X57683038Y-84866544D01*
X57771042Y-84999831D01*
X57797186Y-85097404D01*
X57787617Y-85256837D01*
X57716188Y-85380555D01*
X57582901Y-85468558D01*
X57485327Y-85494703D01*
X57325895Y-85485133D01*
X57042745Y-85404135D01*
X56733450Y-85225564D01*
X56521729Y-85020848D01*
X56433725Y-84887560D01*
X56407580Y-84789987D01*
X56417150Y-84630555D01*
X61865590Y-79350193D02*
X61247001Y-79707336D01*
X61542285Y-80361640D01*
X61568429Y-80264066D01*
X61656433Y-80130779D01*
X61965728Y-79952207D01*
X62125160Y-79942638D01*
X62222733Y-79968782D01*
X62356021Y-80056786D01*
X62534592Y-80366081D01*
X62544162Y-80525513D01*
X62518017Y-80623086D01*
X62430014Y-80756374D01*
X62120719Y-80934945D01*
X61961287Y-80944515D01*
X61863713Y-80918370D01*
X63102770Y-78635907D02*
X62484180Y-78993050D01*
X62779464Y-79647354D01*
X62805609Y-79549781D01*
X62893612Y-79416493D01*
X63202907Y-79237922D01*
X63362339Y-79228352D01*
X63459912Y-79254497D01*
X63593200Y-79342500D01*
X63771771Y-79651795D01*
X63781341Y-79811227D01*
X63755196Y-79908801D01*
X63667193Y-80042088D01*
X63357898Y-80220660D01*
X63198466Y-80230229D01*
X63100892Y-80204085D01*
X63289987Y-108379520D02*
X62485821Y-107915235D01*
X63204548Y-107670363D01*
X63018971Y-107563220D01*
X62930968Y-107429933D01*
X62904823Y-107332359D01*
X62914392Y-107172927D01*
X63092964Y-106863632D01*
X63226251Y-106775629D01*
X63323825Y-106749484D01*
X63483257Y-106759054D01*
X63854411Y-106973339D01*
X63942414Y-107106627D01*
X63968559Y-107204200D01*
X61310501Y-107236663D02*
X61929090Y-107593806D01*
X62348092Y-107010931D01*
X62250519Y-107037075D01*
X62091087Y-107027506D01*
X61781792Y-106848934D01*
X61693788Y-106715647D01*
X61667644Y-106618074D01*
X61677213Y-106458641D01*
X61855785Y-106149347D01*
X61989072Y-106061343D01*
X62086646Y-106035198D01*
X62246078Y-106044768D01*
X62555373Y-106223339D01*
X62643376Y-106356627D01*
X62669521Y-106454200D01*
X79599129Y-107013731D02*
X79572984Y-107111304D01*
X79484980Y-107244592D01*
X79175685Y-107423163D01*
X79016253Y-107432733D01*
X78918680Y-107406588D01*
X78785392Y-107318585D01*
X78713964Y-107194867D01*
X78668680Y-106973575D01*
X78982416Y-105802697D01*
X78178250Y-106266982D01*
X77752929Y-108244592D02*
X78371519Y-107887449D01*
X78076235Y-107233145D01*
X78050090Y-107330718D01*
X77962087Y-107464006D01*
X77652792Y-107642577D01*
X77493360Y-107652147D01*
X77395787Y-107626002D01*
X77262499Y-107537999D01*
X77083928Y-107228704D01*
X77074358Y-107069272D01*
X77100503Y-106971698D01*
X77188506Y-106838411D01*
X77497801Y-106659839D01*
X77657233Y-106650270D01*
X77754807Y-106676414D01*
X85156888Y-100619342D02*
X85183033Y-100716915D01*
X85173463Y-100876347D01*
X84994892Y-101185642D01*
X84861604Y-101273646D01*
X84764031Y-101299790D01*
X84604599Y-101290221D01*
X84480881Y-101218792D01*
X84331018Y-101049790D01*
X84017282Y-99878912D01*
X83552997Y-100683078D01*
X84387749Y-102237244D02*
X84316320Y-102360962D01*
X84183033Y-102448966D01*
X84085460Y-102475111D01*
X83926027Y-102465541D01*
X83642877Y-102384543D01*
X83333582Y-102205971D01*
X83121861Y-102001255D01*
X83033857Y-101867968D01*
X83007713Y-101770395D01*
X83017282Y-101610962D01*
X83088711Y-101487244D01*
X83221998Y-101399241D01*
X83319572Y-101373096D01*
X83479004Y-101382666D01*
X83762154Y-101463664D01*
X84071449Y-101642235D01*
X84283170Y-101846951D01*
X84371174Y-101980239D01*
X84397319Y-102077812D01*
X84387749Y-102237244D01*
X85402028Y-93186285D02*
X85402028Y-92329142D01*
X85402028Y-92757714D02*
X86902028Y-92757714D01*
X86687742Y-92614857D01*
X86544885Y-92472000D01*
X86473457Y-92329142D01*
X86902028Y-94543428D02*
X86902028Y-93829142D01*
X86187742Y-93757714D01*
X86259171Y-93829142D01*
X86330600Y-93972000D01*
X86330600Y-94329142D01*
X86259171Y-94472000D01*
X86187742Y-94543428D01*
X86044885Y-94614857D01*
X85687742Y-94614857D01*
X85544885Y-94543428D01*
X85473457Y-94472000D01*
X85402028Y-94329142D01*
X85402028Y-93972000D01*
X85473457Y-93829142D01*
X85544885Y-93757714D01*
X83254582Y-85753349D02*
X82826011Y-85011042D01*
X83040297Y-85382196D02*
X84339335Y-84632196D01*
X84082329Y-84615621D01*
X83887183Y-84563331D01*
X83753895Y-84475328D01*
X85017906Y-85807516D02*
X85089335Y-85931234D01*
X85098904Y-86090666D01*
X85072760Y-86188239D01*
X84984756Y-86321527D01*
X84773034Y-86526243D01*
X84463740Y-86704814D01*
X84180590Y-86785812D01*
X84021157Y-86795382D01*
X83923584Y-86769237D01*
X83790297Y-86681234D01*
X83718868Y-86557516D01*
X83709298Y-86398084D01*
X83735443Y-86300510D01*
X83823447Y-86167223D01*
X84035168Y-85962507D01*
X84344463Y-85783935D01*
X84627613Y-85702937D01*
X84787045Y-85693368D01*
X84884619Y-85719512D01*
X85017906Y-85807516D01*
X78000365Y-78842264D02*
X78124083Y-78913693D01*
X78212087Y-79046980D01*
X78238231Y-79144554D01*
X78228662Y-79303986D01*
X78147664Y-79587136D01*
X77969092Y-79896431D01*
X77764376Y-80108152D01*
X77631089Y-80196156D01*
X77533515Y-80222301D01*
X77374083Y-80212731D01*
X77250365Y-80141302D01*
X77162362Y-80008015D01*
X77136217Y-79910442D01*
X77145787Y-79751009D01*
X77226785Y-79467859D01*
X77405356Y-79158565D01*
X77610072Y-78946843D01*
X77743360Y-78858839D01*
X77840933Y-78832695D01*
X78000365Y-78842264D01*
X79608698Y-79770836D02*
X78990109Y-79413693D01*
X78571107Y-79996568D01*
X78668680Y-79970424D01*
X78828112Y-79979993D01*
X79137407Y-80158565D01*
X79225411Y-80291852D01*
X79251555Y-80389425D01*
X79241986Y-80548858D01*
X79063414Y-80858152D01*
X78930127Y-80946156D01*
X78832553Y-80972301D01*
X78673121Y-80962731D01*
X78363826Y-80784160D01*
X78275823Y-80650872D01*
X78249678Y-80553299D01*
X70031028Y-76966071D02*
X69745314Y-76966071D01*
X69602457Y-77037500D01*
X69531028Y-77108928D01*
X69388171Y-77323214D01*
X69316742Y-77608928D01*
X69316742Y-78180357D01*
X69388171Y-78323214D01*
X69459600Y-78394642D01*
X69602457Y-78466071D01*
X69888171Y-78466071D01*
X70031028Y-78394642D01*
X70102457Y-78323214D01*
X70173885Y-78180357D01*
X70173885Y-77823214D01*
X70102457Y-77680357D01*
X70031028Y-77608928D01*
X69888171Y-77537500D01*
X69602457Y-77537500D01*
X69459600Y-77608928D01*
X69388171Y-77680357D01*
X69316742Y-77823214D01*
X71102457Y-76966071D02*
X71245314Y-76966071D01*
X71388171Y-77037500D01*
X71459600Y-77108928D01*
X71531028Y-77251785D01*
X71602457Y-77537500D01*
X71602457Y-77894642D01*
X71531028Y-78180357D01*
X71459600Y-78323214D01*
X71388171Y-78394642D01*
X71245314Y-78466071D01*
X71102457Y-78466071D01*
X70959600Y-78394642D01*
X70888171Y-78323214D01*
X70816742Y-78180357D01*
X70745314Y-77894642D01*
X70745314Y-77537500D01*
X70816742Y-77251785D01*
X70888171Y-77108928D01*
X70959600Y-77037500D01*
X71102457Y-76966071D01*
D11*
%TO.C,G\u002A\u002A\u002A*%
G36*
X69329300Y-110206367D02*
G01*
X69117634Y-110206367D01*
X69117634Y-109952367D01*
X69329300Y-109952367D01*
X69329300Y-110206367D01*
G37*
X69329300Y-110206367D02*
X69117634Y-110206367D01*
X69117634Y-109952367D01*
X69329300Y-109952367D01*
X69329300Y-110206367D01*
G36*
X70706628Y-109169348D02*
G01*
X70773621Y-109302977D01*
X70833931Y-109424228D01*
X70885039Y-109527964D01*
X70924429Y-109609044D01*
X70949583Y-109662331D01*
X70957998Y-109682492D01*
X70939303Y-109690575D01*
X70889284Y-109696293D01*
X70821738Y-109698367D01*
X70684342Y-109698367D01*
X70571094Y-109472621D01*
X70457845Y-109246874D01*
X69972861Y-110195784D01*
X69688039Y-110208326D01*
X70456393Y-108672080D01*
X70706628Y-109169348D01*
G37*
X70706628Y-109169348D02*
X70773621Y-109302977D01*
X70833931Y-109424228D01*
X70885039Y-109527964D01*
X70924429Y-109609044D01*
X70949583Y-109662331D01*
X70957998Y-109682492D01*
X70939303Y-109690575D01*
X70889284Y-109696293D01*
X70821738Y-109698367D01*
X70684342Y-109698367D01*
X70571094Y-109472621D01*
X70457845Y-109246874D01*
X69972861Y-110195784D01*
X69688039Y-110208326D01*
X70456393Y-108672080D01*
X70706628Y-109169348D01*
G36*
X71159860Y-110078663D02*
G01*
X71189131Y-110138295D01*
X71208481Y-110181298D01*
X71213134Y-110195080D01*
X71193819Y-110200819D01*
X71143269Y-110204883D01*
X71075026Y-110206367D01*
X70999824Y-110205039D01*
X70955881Y-110198585D01*
X70932150Y-110183302D01*
X70917581Y-110155485D01*
X70916746Y-110153307D01*
X70891931Y-110095152D01*
X70863809Y-110036890D01*
X70831046Y-109973534D01*
X71106587Y-109973534D01*
X71159860Y-110078663D01*
G37*
X71159860Y-110078663D02*
X71189131Y-110138295D01*
X71208481Y-110181298D01*
X71213134Y-110195080D01*
X71193819Y-110200819D01*
X71143269Y-110204883D01*
X71075026Y-110206367D01*
X70999824Y-110205039D01*
X70955881Y-110198585D01*
X70932150Y-110183302D01*
X70917581Y-110155485D01*
X70916746Y-110153307D01*
X70891931Y-110095152D01*
X70863809Y-110036890D01*
X70831046Y-109973534D01*
X71106587Y-109973534D01*
X71159860Y-110078663D01*
G36*
X71456550Y-108788200D02*
G01*
X71572967Y-108903171D01*
X71572967Y-109964396D01*
X71456550Y-110079367D01*
X71340134Y-110194337D01*
X71340134Y-108673230D01*
X71456550Y-108788200D01*
G37*
X71456550Y-108788200D02*
X71572967Y-108903171D01*
X71572967Y-109964396D01*
X71456550Y-110079367D01*
X71340134Y-110194337D01*
X71340134Y-108673230D01*
X71456550Y-108788200D01*
%TD*%
D12*
%TO.P,U2,8*%
%TO.N,/RTC_SDA*%
X64481000Y-92122000D03*
%TO.P,U2,7*%
%TO.N,/RTC_SCL*%
X64481000Y-93022000D03*
%TO.P,U2,6*%
%TO.N,/RTC_CLKO*%
X64481000Y-93922000D03*
%TO.P,U2,5*%
%TO.N,+3V0*%
X64481000Y-94822000D03*
%TO.P,U2,4*%
%TO.N,/RTC_INTO*%
X63281000Y-94822000D03*
%TO.P,U2,3*%
%TO.N,/RTC_CLKO_EN*%
X63281000Y-93922000D03*
%TO.P,U2,2*%
%TO.N,GND*%
X63281000Y-93022000D03*
%TO.P,U2,1*%
%TO.N,Net-(U2-Pad1)*%
X63281000Y-92122000D03*
%TD*%
D13*
%TO.P,Q6,3*%
%TO.N,/C2_T*%
X66852800Y-87544400D03*
%TO.P,Q6,2*%
%TO.N,Net-(Q6-Pad2)*%
X67802800Y-89544400D03*
%TO.P,Q6,1*%
%TO.N,Net-(Q6-Pad1)*%
X65902800Y-89544400D03*
%TD*%
%TO.P,Q7,1*%
%TO.N,Net-(Q7-Pad1)*%
X69509600Y-89528400D03*
%TO.P,Q7,2*%
%TO.N,Net-(Q7-Pad2)*%
X71409600Y-89528400D03*
%TO.P,Q7,3*%
%TO.N,/C1_T*%
X70459600Y-87528400D03*
%TD*%
%TO.P,Q5,3*%
%TO.N,/C3_T*%
X74091800Y-89544400D03*
%TO.P,Q5,2*%
%TO.N,Net-(Q5-Pad2)*%
X73141800Y-87544400D03*
%TO.P,Q5,1*%
%TO.N,Net-(Q5-Pad1)*%
X75041800Y-87544400D03*
%TD*%
%TO.P,Q2,1*%
%TO.N,Net-(Q2-Pad1)*%
X67777400Y-97450400D03*
%TO.P,Q2,2*%
%TO.N,Net-(Q2-Pad2)*%
X65877400Y-97450400D03*
%TO.P,Q2,3*%
%TO.N,/C6_T*%
X66827400Y-99450400D03*
%TD*%
%TO.P,Q4,1*%
%TO.N,Net-(Q4-Pad1)*%
X73116400Y-99450400D03*
%TO.P,Q4,2*%
%TO.N,Net-(Q4-Pad2)*%
X75016400Y-99450400D03*
%TO.P,Q4,3*%
%TO.N,/C4_T*%
X74066400Y-97450400D03*
%TD*%
%TO.P,Q3,1*%
%TO.N,Net-(Q3-Pad1)*%
X71409600Y-97450400D03*
%TO.P,Q3,2*%
%TO.N,Net-(Q3-Pad2)*%
X69509600Y-97450400D03*
%TO.P,Q3,3*%
%TO.N,/C5_T*%
X70459600Y-99450400D03*
%TD*%
D14*
%TO.P,TP6,1*%
%TO.N,/PB6*%
X68884800Y-93726000D03*
%TD*%
%TO.P,TP2,1*%
%TO.N,/PE1*%
X68834000Y-92202000D03*
%TD*%
%TO.P,TP7,1*%
%TO.N,/PB7*%
X68110100Y-94996000D03*
%TD*%
%TO.P,R17,1*%
%TO.N,+3V0*%
%TA.AperFunction,SMDPad,CuDef*%
G36*
G01*
X81374200Y-91356400D02*
X81374200Y-91701400D01*
G75*
G02*
X81226700Y-91848900I-147500J0D01*
G01*
X80931700Y-91848900D01*
G75*
G02*
X80784200Y-91701400I0J147500D01*
G01*
X80784200Y-91356400D01*
G75*
G02*
X80931700Y-91208900I147500J0D01*
G01*
X81226700Y-91208900D01*
G75*
G02*
X81374200Y-91356400I0J-147500D01*
G01*
G37*
%TD.AperFunction*%
%TO.P,R17,2*%
%TO.N,/MCU_RSTn*%
%TA.AperFunction,SMDPad,CuDef*%
G36*
G01*
X80404200Y-91356400D02*
X80404200Y-91701400D01*
G75*
G02*
X80256700Y-91848900I-147500J0D01*
G01*
X79961700Y-91848900D01*
G75*
G02*
X79814200Y-91701400I0J147500D01*
G01*
X79814200Y-91356400D01*
G75*
G02*
X79961700Y-91208900I147500J0D01*
G01*
X80256700Y-91208900D01*
G75*
G02*
X80404200Y-91356400I0J-147500D01*
G01*
G37*
%TD.AperFunction*%
%TD*%
%TO.P,C1,1*%
%TO.N,/LGT_ON_BTN*%
%TA.AperFunction,SMDPad,CuDef*%
G36*
G01*
X88183500Y-92029500D02*
X87838500Y-92029500D01*
G75*
G02*
X87691000Y-91882000I0J147500D01*
G01*
X87691000Y-91587000D01*
G75*
G02*
X87838500Y-91439500I147500J0D01*
G01*
X88183500Y-91439500D01*
G75*
G02*
X88331000Y-91587000I0J-147500D01*
G01*
X88331000Y-91882000D01*
G75*
G02*
X88183500Y-92029500I-147500J0D01*
G01*
G37*
%TD.AperFunction*%
%TO.P,C1,2*%
%TO.N,GND*%
%TA.AperFunction,SMDPad,CuDef*%
G36*
G01*
X88183500Y-91059500D02*
X87838500Y-91059500D01*
G75*
G02*
X87691000Y-90912000I0J147500D01*
G01*
X87691000Y-90617000D01*
G75*
G02*
X87838500Y-90469500I147500J0D01*
G01*
X88183500Y-90469500D01*
G75*
G02*
X88331000Y-90617000I0J-147500D01*
G01*
X88331000Y-90912000D01*
G75*
G02*
X88183500Y-91059500I-147500J0D01*
G01*
G37*
%TD.AperFunction*%
%TD*%
%TO.P,C2,2*%
%TO.N,GND*%
%TA.AperFunction,SMDPad,CuDef*%
G36*
G01*
X84326070Y-79198341D02*
X84013394Y-79344144D01*
G75*
G02*
X83817378Y-79272800I-62336J133680D01*
G01*
X83692706Y-79005439D01*
G75*
G02*
X83764050Y-78809423I133680J62336D01*
G01*
X84076726Y-78663620D01*
G75*
G02*
X84272742Y-78734964I62336J-133680D01*
G01*
X84397414Y-79002325D01*
G75*
G02*
X84326070Y-79198341I-133680J-62336D01*
G01*
G37*
%TD.AperFunction*%
%TO.P,C2,1*%
%TO.N,/UP_BTN*%
%TA.AperFunction,SMDPad,CuDef*%
G36*
G01*
X84736010Y-80077459D02*
X84423334Y-80223262D01*
G75*
G02*
X84227318Y-80151918I-62336J133680D01*
G01*
X84102646Y-79884557D01*
G75*
G02*
X84173990Y-79688541I133680J62336D01*
G01*
X84486666Y-79542738D01*
G75*
G02*
X84682682Y-79614082I62336J-133680D01*
G01*
X84807354Y-79881443D01*
G75*
G02*
X84736010Y-80077459I-133680J-62336D01*
G01*
G37*
%TD.AperFunction*%
%TD*%
%TO.P,C3,1*%
%TO.N,/DWN_BTN*%
%TA.AperFunction,SMDPad,CuDef*%
G36*
G01*
X85932696Y-104538821D02*
X85620020Y-104393018D01*
G75*
G02*
X85548676Y-104197002I62336J133680D01*
G01*
X85673348Y-103929641D01*
G75*
G02*
X85869364Y-103858297I133680J-62336D01*
G01*
X86182040Y-104004100D01*
G75*
G02*
X86253384Y-104200116I-62336J-133680D01*
G01*
X86128712Y-104467477D01*
G75*
G02*
X85932696Y-104538821I-133680J62336D01*
G01*
G37*
%TD.AperFunction*%
%TO.P,C3,2*%
%TO.N,GND*%
%TA.AperFunction,SMDPad,CuDef*%
G36*
G01*
X86342636Y-103659703D02*
X86029960Y-103513900D01*
G75*
G02*
X85958616Y-103317884I62336J133680D01*
G01*
X86083288Y-103050523D01*
G75*
G02*
X86279304Y-102979179I133680J-62336D01*
G01*
X86591980Y-103124982D01*
G75*
G02*
X86663324Y-103320998I-62336J-133680D01*
G01*
X86538652Y-103588359D01*
G75*
G02*
X86342636Y-103659703I-133680J62336D01*
G01*
G37*
%TD.AperFunction*%
%TD*%
%TO.P,C6,1*%
%TO.N,+3V0*%
%TA.AperFunction,SMDPad,CuDef*%
G36*
G01*
X71836500Y-91775500D02*
X71836500Y-92120500D01*
G75*
G02*
X71689000Y-92268000I-147500J0D01*
G01*
X71394000Y-92268000D01*
G75*
G02*
X71246500Y-92120500I0J147500D01*
G01*
X71246500Y-91775500D01*
G75*
G02*
X71394000Y-91628000I147500J0D01*
G01*
X71689000Y-91628000D01*
G75*
G02*
X71836500Y-91775500I0J-147500D01*
G01*
G37*
%TD.AperFunction*%
%TO.P,C6,2*%
%TO.N,GND*%
%TA.AperFunction,SMDPad,CuDef*%
G36*
G01*
X70866500Y-91775500D02*
X70866500Y-92120500D01*
G75*
G02*
X70719000Y-92268000I-147500J0D01*
G01*
X70424000Y-92268000D01*
G75*
G02*
X70276500Y-92120500I0J147500D01*
G01*
X70276500Y-91775500D01*
G75*
G02*
X70424000Y-91628000I147500J0D01*
G01*
X70719000Y-91628000D01*
G75*
G02*
X70866500Y-91775500I0J-147500D01*
G01*
G37*
%TD.AperFunction*%
%TD*%
%TO.P,C7,1*%
%TO.N,+3V0*%
%TA.AperFunction,SMDPad,CuDef*%
G36*
G01*
X79763400Y-96362300D02*
X79763400Y-96017300D01*
G75*
G02*
X79910900Y-95869800I147500J0D01*
G01*
X80205900Y-95869800D01*
G75*
G02*
X80353400Y-96017300I0J-147500D01*
G01*
X80353400Y-96362300D01*
G75*
G02*
X80205900Y-96509800I-147500J0D01*
G01*
X79910900Y-96509800D01*
G75*
G02*
X79763400Y-96362300I0J147500D01*
G01*
G37*
%TD.AperFunction*%
%TO.P,C7,2*%
%TO.N,GND*%
%TA.AperFunction,SMDPad,CuDef*%
G36*
G01*
X80733400Y-96362300D02*
X80733400Y-96017300D01*
G75*
G02*
X80880900Y-95869800I147500J0D01*
G01*
X81175900Y-95869800D01*
G75*
G02*
X81323400Y-96017300I0J-147500D01*
G01*
X81323400Y-96362300D01*
G75*
G02*
X81175900Y-96509800I-147500J0D01*
G01*
X80880900Y-96509800D01*
G75*
G02*
X80733400Y-96362300I0J147500D01*
G01*
G37*
%TD.AperFunction*%
%TD*%
%TO.P,C8,2*%
%TO.N,GND*%
%TA.AperFunction,SMDPad,CuDef*%
G36*
G01*
X71557100Y-93662000D02*
X71902100Y-93662000D01*
G75*
G02*
X72049600Y-93809500I0J-147500D01*
G01*
X72049600Y-94104500D01*
G75*
G02*
X71902100Y-94252000I-147500J0D01*
G01*
X71557100Y-94252000D01*
G75*
G02*
X71409600Y-94104500I0J147500D01*
G01*
X71409600Y-93809500D01*
G75*
G02*
X71557100Y-93662000I147500J0D01*
G01*
G37*
%TD.AperFunction*%
%TO.P,C8,1*%
%TO.N,+3V0*%
%TA.AperFunction,SMDPad,CuDef*%
G36*
G01*
X71557100Y-92692000D02*
X71902100Y-92692000D01*
G75*
G02*
X72049600Y-92839500I0J-147500D01*
G01*
X72049600Y-93134500D01*
G75*
G02*
X71902100Y-93282000I-147500J0D01*
G01*
X71557100Y-93282000D01*
G75*
G02*
X71409600Y-93134500I0J147500D01*
G01*
X71409600Y-92839500D01*
G75*
G02*
X71557100Y-92692000I147500J0D01*
G01*
G37*
%TD.AperFunction*%
%TD*%
%TO.P,C9,2*%
%TO.N,GND*%
%TA.AperFunction,SMDPad,CuDef*%
G36*
G01*
X80733400Y-95270100D02*
X80733400Y-94925100D01*
G75*
G02*
X80880900Y-94777600I147500J0D01*
G01*
X81175900Y-94777600D01*
G75*
G02*
X81323400Y-94925100I0J-147500D01*
G01*
X81323400Y-95270100D01*
G75*
G02*
X81175900Y-95417600I-147500J0D01*
G01*
X80880900Y-95417600D01*
G75*
G02*
X80733400Y-95270100I0J147500D01*
G01*
G37*
%TD.AperFunction*%
%TO.P,C9,1*%
%TO.N,/AREF*%
%TA.AperFunction,SMDPad,CuDef*%
G36*
G01*
X79763400Y-95270100D02*
X79763400Y-94925100D01*
G75*
G02*
X79910900Y-94777600I147500J0D01*
G01*
X80205900Y-94777600D01*
G75*
G02*
X80353400Y-94925100I0J-147500D01*
G01*
X80353400Y-95270100D01*
G75*
G02*
X80205900Y-95417600I-147500J0D01*
G01*
X79910900Y-95417600D01*
G75*
G02*
X79763400Y-95270100I0J147500D01*
G01*
G37*
%TD.AperFunction*%
%TD*%
%TO.P,C12,2*%
%TO.N,GND*%
%TA.AperFunction,SMDPad,CuDef*%
G36*
G01*
X65677000Y-95757500D02*
X66022000Y-95757500D01*
G75*
G02*
X66169500Y-95905000I0J-147500D01*
G01*
X66169500Y-96200000D01*
G75*
G02*
X66022000Y-96347500I-147500J0D01*
G01*
X65677000Y-96347500D01*
G75*
G02*
X65529500Y-96200000I0J147500D01*
G01*
X65529500Y-95905000D01*
G75*
G02*
X65677000Y-95757500I147500J0D01*
G01*
G37*
%TD.AperFunction*%
%TO.P,C12,1*%
%TO.N,+3V0*%
%TA.AperFunction,SMDPad,CuDef*%
G36*
G01*
X65677000Y-94787500D02*
X66022000Y-94787500D01*
G75*
G02*
X66169500Y-94935000I0J-147500D01*
G01*
X66169500Y-95230000D01*
G75*
G02*
X66022000Y-95377500I-147500J0D01*
G01*
X65677000Y-95377500D01*
G75*
G02*
X65529500Y-95230000I0J147500D01*
G01*
X65529500Y-94935000D01*
G75*
G02*
X65677000Y-94787500I147500J0D01*
G01*
G37*
%TD.AperFunction*%
%TD*%
%TO.P,C13,2*%
%TO.N,GND*%
%TA.AperFunction,SMDPad,CuDef*%
G36*
G01*
X80784200Y-90634600D02*
X80784200Y-90289600D01*
G75*
G02*
X80931700Y-90142100I147500J0D01*
G01*
X81226700Y-90142100D01*
G75*
G02*
X81374200Y-90289600I0J-147500D01*
G01*
X81374200Y-90634600D01*
G75*
G02*
X81226700Y-90782100I-147500J0D01*
G01*
X80931700Y-90782100D01*
G75*
G02*
X80784200Y-90634600I0J147500D01*
G01*
G37*
%TD.AperFunction*%
%TO.P,C13,1*%
%TO.N,/MCU_RSTn*%
%TA.AperFunction,SMDPad,CuDef*%
G36*
G01*
X79814200Y-90634600D02*
X79814200Y-90289600D01*
G75*
G02*
X79961700Y-90142100I147500J0D01*
G01*
X80256700Y-90142100D01*
G75*
G02*
X80404200Y-90289600I0J-147500D01*
G01*
X80404200Y-90634600D01*
G75*
G02*
X80256700Y-90782100I-147500J0D01*
G01*
X79961700Y-90782100D01*
G75*
G02*
X79814200Y-90634600I0J147500D01*
G01*
G37*
%TD.AperFunction*%
%TD*%
%TO.P,C14,2*%
%TO.N,GND*%
%TA.AperFunction,SMDPad,CuDef*%
G36*
G01*
X70269600Y-84587300D02*
X70269600Y-84932300D01*
G75*
G02*
X70122100Y-85079800I-147500J0D01*
G01*
X69827100Y-85079800D01*
G75*
G02*
X69679600Y-84932300I0J147500D01*
G01*
X69679600Y-84587300D01*
G75*
G02*
X69827100Y-84439800I147500J0D01*
G01*
X70122100Y-84439800D01*
G75*
G02*
X70269600Y-84587300I0J-147500D01*
G01*
G37*
%TD.AperFunction*%
%TO.P,C14,1*%
%TO.N,/C1_T*%
%TA.AperFunction,SMDPad,CuDef*%
G36*
G01*
X71239600Y-84587300D02*
X71239600Y-84932300D01*
G75*
G02*
X71092100Y-85079800I-147500J0D01*
G01*
X70797100Y-85079800D01*
G75*
G02*
X70649600Y-84932300I0J147500D01*
G01*
X70649600Y-84587300D01*
G75*
G02*
X70797100Y-84439800I147500J0D01*
G01*
X71092100Y-84439800D01*
G75*
G02*
X71239600Y-84587300I0J-147500D01*
G01*
G37*
%TD.AperFunction*%
%TD*%
%TO.P,C15,1*%
%TO.N,/C2_T*%
%TA.AperFunction,SMDPad,CuDef*%
G36*
G01*
X66654649Y-85338011D02*
X66827150Y-85636789D01*
G75*
G02*
X66773161Y-85838278I-127739J-73750D01*
G01*
X66517683Y-85985778D01*
G75*
G02*
X66316194Y-85931789I-73750J127739D01*
G01*
X66143694Y-85633011D01*
G75*
G02*
X66197683Y-85431522I127739J73750D01*
G01*
X66453161Y-85284022D01*
G75*
G02*
X66654650Y-85338011I73750J-127739D01*
G01*
G37*
%TD.AperFunction*%
%TO.P,C15,2*%
%TO.N,GND*%
%TA.AperFunction,SMDPad,CuDef*%
G36*
G01*
X65814605Y-85823011D02*
X65987106Y-86121789D01*
G75*
G02*
X65933117Y-86323278I-127739J-73750D01*
G01*
X65677639Y-86470778D01*
G75*
G02*
X65476150Y-86416789I-73750J127739D01*
G01*
X65303650Y-86118011D01*
G75*
G02*
X65357639Y-85916522I127739J73750D01*
G01*
X65613117Y-85769022D01*
G75*
G02*
X65814606Y-85823011I73750J-127739D01*
G01*
G37*
%TD.AperFunction*%
%TD*%
%TO.P,C16,1*%
%TO.N,/C3_T*%
%TA.AperFunction,SMDPad,CuDef*%
G36*
G01*
X73794400Y-86380100D02*
X73794400Y-86035100D01*
G75*
G02*
X73941900Y-85887600I147500J0D01*
G01*
X74236900Y-85887600D01*
G75*
G02*
X74384400Y-86035100I0J-147500D01*
G01*
X74384400Y-86380100D01*
G75*
G02*
X74236900Y-86527600I-147500J0D01*
G01*
X73941900Y-86527600D01*
G75*
G02*
X73794400Y-86380100I0J147500D01*
G01*
G37*
%TD.AperFunction*%
%TO.P,C16,2*%
%TO.N,GND*%
%TA.AperFunction,SMDPad,CuDef*%
G36*
G01*
X74764400Y-86380100D02*
X74764400Y-86035100D01*
G75*
G02*
X74911900Y-85887600I147500J0D01*
G01*
X75206900Y-85887600D01*
G75*
G02*
X75354400Y-86035100I0J-147500D01*
G01*
X75354400Y-86380100D01*
G75*
G02*
X75206900Y-86527600I-147500J0D01*
G01*
X74911900Y-86527600D01*
G75*
G02*
X74764400Y-86380100I0J147500D01*
G01*
G37*
%TD.AperFunction*%
%TD*%
%TO.P,C17,2*%
%TO.N,GND*%
%TA.AperFunction,SMDPad,CuDef*%
G36*
G01*
X75104595Y-101146389D02*
X74932094Y-100847611D01*
G75*
G02*
X74986083Y-100646122I127739J73750D01*
G01*
X75241561Y-100498622D01*
G75*
G02*
X75443050Y-100552611I73750J-127739D01*
G01*
X75615550Y-100851389D01*
G75*
G02*
X75561561Y-101052878I-127739J-73750D01*
G01*
X75306083Y-101200378D01*
G75*
G02*
X75104594Y-101146389I-73750J127739D01*
G01*
G37*
%TD.AperFunction*%
%TO.P,C17,1*%
%TO.N,/C4_T*%
%TA.AperFunction,SMDPad,CuDef*%
G36*
G01*
X74264551Y-101631389D02*
X74092050Y-101332611D01*
G75*
G02*
X74146039Y-101131122I127739J73750D01*
G01*
X74401517Y-100983622D01*
G75*
G02*
X74603006Y-101037611I73750J-127739D01*
G01*
X74775506Y-101336389D01*
G75*
G02*
X74721517Y-101537878I-127739J-73750D01*
G01*
X74466039Y-101685378D01*
G75*
G02*
X74264550Y-101631389I-73750J127739D01*
G01*
G37*
%TD.AperFunction*%
%TD*%
%TO.P,C18,1*%
%TO.N,/C5_T*%
%TA.AperFunction,SMDPad,CuDef*%
G36*
G01*
X69679600Y-102344000D02*
X69679600Y-101999000D01*
G75*
G02*
X69827100Y-101851500I147500J0D01*
G01*
X70122100Y-101851500D01*
G75*
G02*
X70269600Y-101999000I0J-147500D01*
G01*
X70269600Y-102344000D01*
G75*
G02*
X70122100Y-102491500I-147500J0D01*
G01*
X69827100Y-102491500D01*
G75*
G02*
X69679600Y-102344000I0J147500D01*
G01*
G37*
%TD.AperFunction*%
%TO.P,C18,2*%
%TO.N,GND*%
%TA.AperFunction,SMDPad,CuDef*%
G36*
G01*
X70649600Y-102344000D02*
X70649600Y-101999000D01*
G75*
G02*
X70797100Y-101851500I147500J0D01*
G01*
X71092100Y-101851500D01*
G75*
G02*
X71239600Y-101999000I0J-147500D01*
G01*
X71239600Y-102344000D01*
G75*
G02*
X71092100Y-102491500I-147500J0D01*
G01*
X70797100Y-102491500D01*
G75*
G02*
X70649600Y-102344000I0J147500D01*
G01*
G37*
%TD.AperFunction*%
%TD*%
%TO.P,D1,2*%
%TO.N,Net-(D1-Pad2)*%
%TA.AperFunction,SMDPad,CuDef*%
G36*
G01*
X70632100Y-93282000D02*
X70287100Y-93282000D01*
G75*
G02*
X70139600Y-93134500I0J147500D01*
G01*
X70139600Y-92839500D01*
G75*
G02*
X70287100Y-92692000I147500J0D01*
G01*
X70632100Y-92692000D01*
G75*
G02*
X70779600Y-92839500I0J-147500D01*
G01*
X70779600Y-93134500D01*
G75*
G02*
X70632100Y-93282000I-147500J0D01*
G01*
G37*
%TD.AperFunction*%
%TO.P,D1,1*%
%TO.N,GND*%
%TA.AperFunction,SMDPad,CuDef*%
G36*
G01*
X70632100Y-94252000D02*
X70287100Y-94252000D01*
G75*
G02*
X70139600Y-94104500I0J147500D01*
G01*
X70139600Y-93809500D01*
G75*
G02*
X70287100Y-93662000I147500J0D01*
G01*
X70632100Y-93662000D01*
G75*
G02*
X70779600Y-93809500I0J-147500D01*
G01*
X70779600Y-94104500D01*
G75*
G02*
X70632100Y-94252000I-147500J0D01*
G01*
G37*
%TD.AperFunction*%
%TD*%
%TO.P,D2,2*%
%TO.N,/C1_T*%
%TA.AperFunction,SMDPad,CuDef*%
G36*
G01*
X70649600Y-83738500D02*
X70649600Y-83393500D01*
G75*
G02*
X70797100Y-83246000I147500J0D01*
G01*
X71092100Y-83246000D01*
G75*
G02*
X71239600Y-83393500I0J-147500D01*
G01*
X71239600Y-83738500D01*
G75*
G02*
X71092100Y-83886000I-147500J0D01*
G01*
X70797100Y-83886000D01*
G75*
G02*
X70649600Y-83738500I0J147500D01*
G01*
G37*
%TD.AperFunction*%
%TO.P,D2,1*%
%TO.N,/R1*%
%TA.AperFunction,SMDPad,CuDef*%
G36*
G01*
X69679600Y-83738500D02*
X69679600Y-83393500D01*
G75*
G02*
X69827100Y-83246000I147500J0D01*
G01*
X70122100Y-83246000D01*
G75*
G02*
X70269600Y-83393500I0J-147500D01*
G01*
X70269600Y-83738500D01*
G75*
G02*
X70122100Y-83886000I-147500J0D01*
G01*
X69827100Y-83886000D01*
G75*
G02*
X69679600Y-83738500I0J147500D01*
G01*
G37*
%TD.AperFunction*%
%TD*%
%TO.P,D3,1*%
%TO.N,/R1*%
%TA.AperFunction,SMDPad,CuDef*%
G36*
G01*
X66070449Y-84296611D02*
X66242950Y-84595389D01*
G75*
G02*
X66188961Y-84796878I-127739J-73750D01*
G01*
X65933483Y-84944378D01*
G75*
G02*
X65731994Y-84890389I-73750J127739D01*
G01*
X65559494Y-84591611D01*
G75*
G02*
X65613483Y-84390122I127739J73750D01*
G01*
X65868961Y-84242622D01*
G75*
G02*
X66070450Y-84296611I73750J-127739D01*
G01*
G37*
%TD.AperFunction*%
%TO.P,D3,2*%
%TO.N,/C2_T*%
%TA.AperFunction,SMDPad,CuDef*%
G36*
G01*
X65230405Y-84781611D02*
X65402906Y-85080389D01*
G75*
G02*
X65348917Y-85281878I-127739J-73750D01*
G01*
X65093439Y-85429378D01*
G75*
G02*
X64891950Y-85375389I-73750J127739D01*
G01*
X64719450Y-85076611D01*
G75*
G02*
X64773439Y-84875122I127739J73750D01*
G01*
X65028917Y-84727622D01*
G75*
G02*
X65230406Y-84781611I73750J-127739D01*
G01*
G37*
%TD.AperFunction*%
%TD*%
%TO.P,D4,2*%
%TO.N,/C3_T*%
%TA.AperFunction,SMDPad,CuDef*%
G36*
G01*
X74104398Y-80582320D02*
X73771153Y-80493028D01*
G75*
G02*
X73666855Y-80312378I38176J142474D01*
G01*
X73743207Y-80027430D01*
G75*
G02*
X73923857Y-79923132I142474J-38176D01*
G01*
X74257101Y-80012424D01*
G75*
G02*
X74361399Y-80193074I-38176J-142474D01*
G01*
X74285047Y-80478022D01*
G75*
G02*
X74104397Y-80582320I-142474J38176D01*
G01*
G37*
%TD.AperFunction*%
%TO.P,D4,1*%
%TO.N,/R1*%
%TA.AperFunction,SMDPad,CuDef*%
G36*
G01*
X73853344Y-81519268D02*
X73520099Y-81429976D01*
G75*
G02*
X73415801Y-81249326I38176J142474D01*
G01*
X73492153Y-80964378D01*
G75*
G02*
X73672803Y-80860080I142474J-38176D01*
G01*
X74006047Y-80949372D01*
G75*
G02*
X74110345Y-81130022I-38176J-142474D01*
G01*
X74033993Y-81414970D01*
G75*
G02*
X73853343Y-81519268I-142474J38176D01*
G01*
G37*
%TD.AperFunction*%
%TD*%
%TO.P,D5,1*%
%TO.N,/R1*%
%TA.AperFunction,SMDPad,CuDef*%
G36*
G01*
X70287100Y-105925400D02*
X70632100Y-105925400D01*
G75*
G02*
X70779600Y-106072900I0J-147500D01*
G01*
X70779600Y-106367900D01*
G75*
G02*
X70632100Y-106515400I-147500J0D01*
G01*
X70287100Y-106515400D01*
G75*
G02*
X70139600Y-106367900I0J147500D01*
G01*
X70139600Y-106072900D01*
G75*
G02*
X70287100Y-105925400I147500J0D01*
G01*
G37*
%TD.AperFunction*%
%TO.P,D5,2*%
%TO.N,/C4_T*%
%TA.AperFunction,SMDPad,CuDef*%
G36*
G01*
X70287100Y-106895400D02*
X70632100Y-106895400D01*
G75*
G02*
X70779600Y-107042900I0J-147500D01*
G01*
X70779600Y-107337900D01*
G75*
G02*
X70632100Y-107485400I-147500J0D01*
G01*
X70287100Y-107485400D01*
G75*
G02*
X70139600Y-107337900I0J147500D01*
G01*
X70139600Y-107042900D01*
G75*
G02*
X70287100Y-106895400I147500J0D01*
G01*
G37*
%TD.AperFunction*%
%TD*%
%TO.P,D6,2*%
%TO.N,/C5_T*%
%TA.AperFunction,SMDPad,CuDef*%
G36*
G01*
X66814802Y-106387080D02*
X67148047Y-106476372D01*
G75*
G02*
X67252345Y-106657022I-38176J-142474D01*
G01*
X67175993Y-106941970D01*
G75*
G02*
X66995343Y-107046268I-142474J38176D01*
G01*
X66662099Y-106956976D01*
G75*
G02*
X66557801Y-106776326I38176J142474D01*
G01*
X66634153Y-106491378D01*
G75*
G02*
X66814803Y-106387080I142474J-38176D01*
G01*
G37*
%TD.AperFunction*%
%TO.P,D6,1*%
%TO.N,/R1*%
%TA.AperFunction,SMDPad,CuDef*%
G36*
G01*
X67065856Y-105450132D02*
X67399101Y-105539424D01*
G75*
G02*
X67503399Y-105720074I-38176J-142474D01*
G01*
X67427047Y-106005022D01*
G75*
G02*
X67246397Y-106109320I-142474J38176D01*
G01*
X66913153Y-106020028D01*
G75*
G02*
X66808855Y-105839378I38176J142474D01*
G01*
X66885207Y-105554430D01*
G75*
G02*
X67065857Y-105450132I142474J-38176D01*
G01*
G37*
%TD.AperFunction*%
%TD*%
%TO.P,D7,1*%
%TO.N,/R1*%
%TA.AperFunction,SMDPad,CuDef*%
G36*
G01*
X70632100Y-81046400D02*
X70287100Y-81046400D01*
G75*
G02*
X70139600Y-80898900I0J147500D01*
G01*
X70139600Y-80603900D01*
G75*
G02*
X70287100Y-80456400I147500J0D01*
G01*
X70632100Y-80456400D01*
G75*
G02*
X70779600Y-80603900I0J-147500D01*
G01*
X70779600Y-80898900D01*
G75*
G02*
X70632100Y-81046400I-147500J0D01*
G01*
G37*
%TD.AperFunction*%
%TO.P,D7,2*%
%TO.N,/C6_T*%
%TA.AperFunction,SMDPad,CuDef*%
G36*
G01*
X70632100Y-80076400D02*
X70287100Y-80076400D01*
G75*
G02*
X70139600Y-79928900I0J147500D01*
G01*
X70139600Y-79633900D01*
G75*
G02*
X70287100Y-79486400I147500J0D01*
G01*
X70632100Y-79486400D01*
G75*
G02*
X70779600Y-79633900I0J-147500D01*
G01*
X70779600Y-79928900D01*
G75*
G02*
X70632100Y-80076400I-147500J0D01*
G01*
G37*
%TD.AperFunction*%
%TD*%
%TO.P,D8,2*%
%TO.N,/C1_T*%
%TA.AperFunction,SMDPad,CuDef*%
G36*
G01*
X75516295Y-85105789D02*
X75688794Y-84807011D01*
G75*
G02*
X75890283Y-84753022I127739J-73750D01*
G01*
X76145761Y-84900522D01*
G75*
G02*
X76199750Y-85102011I-73750J-127739D01*
G01*
X76027250Y-85400789D01*
G75*
G02*
X75825761Y-85454778I-127739J73750D01*
G01*
X75570283Y-85307278D01*
G75*
G02*
X75516294Y-85105789I73750J127739D01*
G01*
G37*
%TD.AperFunction*%
%TO.P,D8,1*%
%TO.N,/R2*%
%TA.AperFunction,SMDPad,CuDef*%
G36*
G01*
X74676251Y-84620789D02*
X74848750Y-84322011D01*
G75*
G02*
X75050239Y-84268022I127739J-73750D01*
G01*
X75305717Y-84415522D01*
G75*
G02*
X75359706Y-84617011I-73750J-127739D01*
G01*
X75187206Y-84915789D01*
G75*
G02*
X74985717Y-84969778I-127739J73750D01*
G01*
X74730239Y-84822278D01*
G75*
G02*
X74676250Y-84620789I73750J127739D01*
G01*
G37*
%TD.AperFunction*%
%TD*%
%TO.P,D9,1*%
%TO.N,/R2*%
%TA.AperFunction,SMDPad,CuDef*%
G36*
G01*
X62089611Y-87757251D02*
X62388389Y-87929750D01*
G75*
G02*
X62442378Y-88131239I-73750J-127739D01*
G01*
X62294878Y-88386717D01*
G75*
G02*
X62093389Y-88440706I-127739J73750D01*
G01*
X61794611Y-88268206D01*
G75*
G02*
X61740622Y-88066717I73750J127739D01*
G01*
X61888122Y-87811239D01*
G75*
G02*
X62089611Y-87757250I127739J-73750D01*
G01*
G37*
%TD.AperFunction*%
%TO.P,D9,2*%
%TO.N,/C2_T*%
%TA.AperFunction,SMDPad,CuDef*%
G36*
G01*
X61604611Y-88597295D02*
X61903389Y-88769794D01*
G75*
G02*
X61957378Y-88971283I-73750J-127739D01*
G01*
X61809878Y-89226761D01*
G75*
G02*
X61608389Y-89280750I-127739J73750D01*
G01*
X61309611Y-89108250D01*
G75*
G02*
X61255622Y-88906761I73750J127739D01*
G01*
X61403122Y-88651283D01*
G75*
G02*
X61604611Y-88597294I127739J-73750D01*
G01*
G37*
%TD.AperFunction*%
%TD*%
%TO.P,D10,2*%
%TO.N,/C3_T*%
%TA.AperFunction,SMDPad,CuDef*%
G36*
G01*
X77307989Y-81963705D02*
X77009211Y-81791206D01*
G75*
G02*
X76955222Y-81589717I73750J127739D01*
G01*
X77102722Y-81334239D01*
G75*
G02*
X77304211Y-81280250I127739J-73750D01*
G01*
X77602989Y-81452750D01*
G75*
G02*
X77656978Y-81654239I-73750J-127739D01*
G01*
X77509478Y-81909717D01*
G75*
G02*
X77307989Y-81963706I-127739J73750D01*
G01*
G37*
%TD.AperFunction*%
%TO.P,D10,1*%
%TO.N,/R2*%
%TA.AperFunction,SMDPad,CuDef*%
G36*
G01*
X76822989Y-82803749D02*
X76524211Y-82631250D01*
G75*
G02*
X76470222Y-82429761I73750J127739D01*
G01*
X76617722Y-82174283D01*
G75*
G02*
X76819211Y-82120294I127739J-73750D01*
G01*
X77117989Y-82292794D01*
G75*
G02*
X77171978Y-82494283I-73750J-127739D01*
G01*
X77024478Y-82749761D01*
G75*
G02*
X76822989Y-82803750I-127739J73750D01*
G01*
G37*
%TD.AperFunction*%
%TD*%
%TO.P,D11,1*%
%TO.N,/R2*%
%TA.AperFunction,SMDPad,CuDef*%
G36*
G01*
X73520099Y-105539424D02*
X73853343Y-105450132D01*
G75*
G02*
X74033993Y-105554430I38176J-142474D01*
G01*
X74110345Y-105839378D01*
G75*
G02*
X74006047Y-106020028I-142474J-38176D01*
G01*
X73672803Y-106109320D01*
G75*
G02*
X73492153Y-106005022I-38176J142474D01*
G01*
X73415801Y-105720074D01*
G75*
G02*
X73520099Y-105539424I142474J38176D01*
G01*
G37*
%TD.AperFunction*%
%TO.P,D11,2*%
%TO.N,/C4_T*%
%TA.AperFunction,SMDPad,CuDef*%
G36*
G01*
X73771153Y-106476372D02*
X74104397Y-106387080D01*
G75*
G02*
X74285047Y-106491378I38176J-142474D01*
G01*
X74361399Y-106776326D01*
G75*
G02*
X74257101Y-106956976I-142474J-38176D01*
G01*
X73923857Y-107046268D01*
G75*
G02*
X73743207Y-106941970I-38176J142474D01*
G01*
X73666855Y-106657022D01*
G75*
G02*
X73771153Y-106476372I142474J38176D01*
G01*
G37*
%TD.AperFunction*%
%TD*%
%TO.P,D12,2*%
%TO.N,/C5_T*%
%TA.AperFunction,SMDPad,CuDef*%
G36*
G01*
X63611211Y-105005695D02*
X63909989Y-105178194D01*
G75*
G02*
X63963978Y-105379683I-73750J-127739D01*
G01*
X63816478Y-105635161D01*
G75*
G02*
X63614989Y-105689150I-127739J73750D01*
G01*
X63316211Y-105516650D01*
G75*
G02*
X63262222Y-105315161I73750J127739D01*
G01*
X63409722Y-105059683D01*
G75*
G02*
X63611211Y-105005694I127739J-73750D01*
G01*
G37*
%TD.AperFunction*%
%TO.P,D12,1*%
%TO.N,/R2*%
%TA.AperFunction,SMDPad,CuDef*%
G36*
G01*
X64096211Y-104165651D02*
X64394989Y-104338150D01*
G75*
G02*
X64448978Y-104539639I-73750J-127739D01*
G01*
X64301478Y-104795117D01*
G75*
G02*
X64099989Y-104849106I-127739J73750D01*
G01*
X63801211Y-104676606D01*
G75*
G02*
X63747222Y-104475117I73750J127739D01*
G01*
X63894722Y-104219639D01*
G75*
G02*
X64096211Y-104165650I127739J-73750D01*
G01*
G37*
%TD.AperFunction*%
%TD*%
%TO.P,D13,2*%
%TO.N,/C6_T*%
%TA.AperFunction,SMDPad,CuDef*%
G36*
G01*
X67148047Y-80467628D02*
X66814803Y-80556920D01*
G75*
G02*
X66634153Y-80452622I-38176J142474D01*
G01*
X66557801Y-80167674D01*
G75*
G02*
X66662099Y-79987024I142474J38176D01*
G01*
X66995343Y-79897732D01*
G75*
G02*
X67175993Y-80002030I38176J-142474D01*
G01*
X67252345Y-80286978D01*
G75*
G02*
X67148047Y-80467628I-142474J-38176D01*
G01*
G37*
%TD.AperFunction*%
%TO.P,D13,1*%
%TO.N,/R2*%
%TA.AperFunction,SMDPad,CuDef*%
G36*
G01*
X67399101Y-81404576D02*
X67065857Y-81493868D01*
G75*
G02*
X66885207Y-81389570I-38176J142474D01*
G01*
X66808855Y-81104622D01*
G75*
G02*
X66913153Y-80923972I142474J38176D01*
G01*
X67246397Y-80834680D01*
G75*
G02*
X67427047Y-80938978I38176J-142474D01*
G01*
X67503399Y-81223926D01*
G75*
G02*
X67399101Y-81404576I-142474J-38176D01*
G01*
G37*
%TD.AperFunction*%
%TD*%
%TO.P,D14,1*%
%TO.N,/R3*%
%TA.AperFunction,SMDPad,CuDef*%
G36*
G01*
X79584189Y-89108249D02*
X79285411Y-89280750D01*
G75*
G02*
X79083922Y-89226761I-73750J127739D01*
G01*
X78936422Y-88971283D01*
G75*
G02*
X78990411Y-88769794I127739J73750D01*
G01*
X79289189Y-88597294D01*
G75*
G02*
X79490678Y-88651283I73750J-127739D01*
G01*
X79638178Y-88906761D01*
G75*
G02*
X79584189Y-89108250I-127739J-73750D01*
G01*
G37*
%TD.AperFunction*%
%TO.P,D14,2*%
%TO.N,/C1_T*%
%TA.AperFunction,SMDPad,CuDef*%
G36*
G01*
X79099189Y-88268205D02*
X78800411Y-88440706D01*
G75*
G02*
X78598922Y-88386717I-73750J127739D01*
G01*
X78451422Y-88131239D01*
G75*
G02*
X78505411Y-87929750I127739J73750D01*
G01*
X78804189Y-87757250D01*
G75*
G02*
X79005678Y-87811239I73750J-127739D01*
G01*
X79153178Y-88066717D01*
G75*
G02*
X79099189Y-88268206I-127739J-73750D01*
G01*
G37*
%TD.AperFunction*%
%TD*%
%TO.P,D15,2*%
%TO.N,/C2_T*%
%TA.AperFunction,SMDPad,CuDef*%
G36*
G01*
X60675300Y-93307400D02*
X60330300Y-93307400D01*
G75*
G02*
X60182800Y-93159900I0J147500D01*
G01*
X60182800Y-92864900D01*
G75*
G02*
X60330300Y-92717400I147500J0D01*
G01*
X60675300Y-92717400D01*
G75*
G02*
X60822800Y-92864900I0J-147500D01*
G01*
X60822800Y-93159900D01*
G75*
G02*
X60675300Y-93307400I-147500J0D01*
G01*
G37*
%TD.AperFunction*%
%TO.P,D15,1*%
%TO.N,/R3*%
%TA.AperFunction,SMDPad,CuDef*%
G36*
G01*
X60675300Y-94277400D02*
X60330300Y-94277400D01*
G75*
G02*
X60182800Y-94129900I0J147500D01*
G01*
X60182800Y-93834900D01*
G75*
G02*
X60330300Y-93687400I147500J0D01*
G01*
X60675300Y-93687400D01*
G75*
G02*
X60822800Y-93834900I0J-147500D01*
G01*
X60822800Y-94129900D01*
G75*
G02*
X60675300Y-94277400I-147500J0D01*
G01*
G37*
%TD.AperFunction*%
%TD*%
%TO.P,D16,1*%
%TO.N,/R3*%
%TA.AperFunction,SMDPad,CuDef*%
G36*
G01*
X79377232Y-84823719D02*
X79133281Y-84579767D01*
G75*
G02*
X79133281Y-84371171I104298J104298D01*
G01*
X79341877Y-84162575D01*
G75*
G02*
X79550473Y-84162575I104298J-104298D01*
G01*
X79794425Y-84406527D01*
G75*
G02*
X79794425Y-84615123I-104298J-104298D01*
G01*
X79585829Y-84823719D01*
G75*
G02*
X79377233Y-84823719I-104298J104298D01*
G01*
G37*
%TD.AperFunction*%
%TO.P,D16,2*%
%TO.N,/C3_T*%
%TA.AperFunction,SMDPad,CuDef*%
G36*
G01*
X80063126Y-84137825D02*
X79819175Y-83893873D01*
G75*
G02*
X79819175Y-83685277I104298J104298D01*
G01*
X80027771Y-83476681D01*
G75*
G02*
X80236367Y-83476681I104298J-104298D01*
G01*
X80480319Y-83720633D01*
G75*
G02*
X80480319Y-83929229I-104298J-104298D01*
G01*
X80271723Y-84137825D01*
G75*
G02*
X80063127Y-84137825I-104298J104298D01*
G01*
G37*
%TD.AperFunction*%
%TD*%
%TO.P,D17,2*%
%TO.N,/C4_T*%
%TA.AperFunction,SMDPad,CuDef*%
G36*
G01*
X77009211Y-105178195D02*
X77307989Y-105005694D01*
G75*
G02*
X77509478Y-105059683I73750J-127739D01*
G01*
X77656978Y-105315161D01*
G75*
G02*
X77602989Y-105516650I-127739J-73750D01*
G01*
X77304211Y-105689150D01*
G75*
G02*
X77102722Y-105635161I-73750J127739D01*
G01*
X76955222Y-105379683D01*
G75*
G02*
X77009211Y-105178194I127739J73750D01*
G01*
G37*
%TD.AperFunction*%
%TO.P,D17,1*%
%TO.N,/R3*%
%TA.AperFunction,SMDPad,CuDef*%
G36*
G01*
X76524211Y-104338151D02*
X76822989Y-104165650D01*
G75*
G02*
X77024478Y-104219639I73750J-127739D01*
G01*
X77171978Y-104475117D01*
G75*
G02*
X77117989Y-104676606I-127739J-73750D01*
G01*
X76819211Y-104849106D01*
G75*
G02*
X76617722Y-104795117I-73750J127739D01*
G01*
X76470222Y-104539639D01*
G75*
G02*
X76524211Y-104338150I127739J73750D01*
G01*
G37*
%TD.AperFunction*%
%TD*%
%TO.P,D18,1*%
%TO.N,/R3*%
%TA.AperFunction,SMDPad,CuDef*%
G36*
G01*
X61541968Y-102171081D02*
X61785919Y-102415033D01*
G75*
G02*
X61785919Y-102623629I-104298J-104298D01*
G01*
X61577323Y-102832225D01*
G75*
G02*
X61368727Y-102832225I-104298J104298D01*
G01*
X61124775Y-102588273D01*
G75*
G02*
X61124775Y-102379677I104298J104298D01*
G01*
X61333371Y-102171081D01*
G75*
G02*
X61541967Y-102171081I104298J-104298D01*
G01*
G37*
%TD.AperFunction*%
%TO.P,D18,2*%
%TO.N,/C5_T*%
%TA.AperFunction,SMDPad,CuDef*%
G36*
G01*
X60856074Y-102856975D02*
X61100025Y-103100927D01*
G75*
G02*
X61100025Y-103309523I-104298J-104298D01*
G01*
X60891429Y-103518119D01*
G75*
G02*
X60682833Y-103518119I-104298J104298D01*
G01*
X60438881Y-103274167D01*
G75*
G02*
X60438881Y-103065571I104298J104298D01*
G01*
X60647477Y-102856975D01*
G75*
G02*
X60856073Y-102856975I104298J-104298D01*
G01*
G37*
%TD.AperFunction*%
%TD*%
%TO.P,D19,2*%
%TO.N,/C6_T*%
%TA.AperFunction,SMDPad,CuDef*%
G36*
G01*
X63909989Y-81765805D02*
X63611211Y-81938306D01*
G75*
G02*
X63409722Y-81884317I-73750J127739D01*
G01*
X63262222Y-81628839D01*
G75*
G02*
X63316211Y-81427350I127739J73750D01*
G01*
X63614989Y-81254850D01*
G75*
G02*
X63816478Y-81308839I73750J-127739D01*
G01*
X63963978Y-81564317D01*
G75*
G02*
X63909989Y-81765806I-127739J-73750D01*
G01*
G37*
%TD.AperFunction*%
%TO.P,D19,1*%
%TO.N,/R3*%
%TA.AperFunction,SMDPad,CuDef*%
G36*
G01*
X64394989Y-82605849D02*
X64096211Y-82778350D01*
G75*
G02*
X63894722Y-82724361I-73750J127739D01*
G01*
X63747222Y-82468883D01*
G75*
G02*
X63801211Y-82267394I127739J73750D01*
G01*
X64099989Y-82094894D01*
G75*
G02*
X64301478Y-82148883I73750J-127739D01*
G01*
X64448978Y-82404361D01*
G75*
G02*
X64394989Y-82605850I-127739J-73750D01*
G01*
G37*
%TD.AperFunction*%
%TD*%
%TO.P,D20,1*%
%TO.N,/R4*%
%TA.AperFunction,SMDPad,CuDef*%
G36*
G01*
X80218500Y-92692000D02*
X80563500Y-92692000D01*
G75*
G02*
X80711000Y-92839500I0J-147500D01*
G01*
X80711000Y-93134500D01*
G75*
G02*
X80563500Y-93282000I-147500J0D01*
G01*
X80218500Y-93282000D01*
G75*
G02*
X80071000Y-93134500I0J147500D01*
G01*
X80071000Y-92839500D01*
G75*
G02*
X80218500Y-92692000I147500J0D01*
G01*
G37*
%TD.AperFunction*%
%TO.P,D20,2*%
%TO.N,/C1_T*%
%TA.AperFunction,SMDPad,CuDef*%
G36*
G01*
X80218500Y-93662000D02*
X80563500Y-93662000D01*
G75*
G02*
X80711000Y-93809500I0J-147500D01*
G01*
X80711000Y-94104500D01*
G75*
G02*
X80563500Y-94252000I-147500J0D01*
G01*
X80218500Y-94252000D01*
G75*
G02*
X80071000Y-94104500I0J147500D01*
G01*
X80071000Y-93809500D01*
G75*
G02*
X80218500Y-93662000I147500J0D01*
G01*
G37*
%TD.AperFunction*%
%TD*%
%TO.P,D21,2*%
%TO.N,/C2_T*%
%TA.AperFunction,SMDPad,CuDef*%
G36*
G01*
X61903389Y-98199605D02*
X61604611Y-98372106D01*
G75*
G02*
X61403122Y-98318117I-73750J127739D01*
G01*
X61255622Y-98062639D01*
G75*
G02*
X61309611Y-97861150I127739J73750D01*
G01*
X61608389Y-97688650D01*
G75*
G02*
X61809878Y-97742639I73750J-127739D01*
G01*
X61957378Y-97998117D01*
G75*
G02*
X61903389Y-98199606I-127739J-73750D01*
G01*
G37*
%TD.AperFunction*%
%TO.P,D21,1*%
%TO.N,/R4*%
%TA.AperFunction,SMDPad,CuDef*%
G36*
G01*
X62388389Y-99039649D02*
X62089611Y-99212150D01*
G75*
G02*
X61888122Y-99158161I-73750J127739D01*
G01*
X61740622Y-98902683D01*
G75*
G02*
X61794611Y-98701194I127739J73750D01*
G01*
X62093389Y-98528694D01*
G75*
G02*
X62294878Y-98582683I73750J-127739D01*
G01*
X62442378Y-98838161D01*
G75*
G02*
X62388389Y-99039650I-127739J-73750D01*
G01*
G37*
%TD.AperFunction*%
%TD*%
%TO.P,D22,1*%
%TO.N,/R4*%
%TA.AperFunction,SMDPad,CuDef*%
G36*
G01*
X81325751Y-87407389D02*
X81153250Y-87108611D01*
G75*
G02*
X81207239Y-86907122I127739J73750D01*
G01*
X81462717Y-86759622D01*
G75*
G02*
X81664206Y-86813611I73750J-127739D01*
G01*
X81836706Y-87112389D01*
G75*
G02*
X81782717Y-87313878I-127739J-73750D01*
G01*
X81527239Y-87461378D01*
G75*
G02*
X81325750Y-87407389I-73750J127739D01*
G01*
G37*
%TD.AperFunction*%
%TO.P,D22,2*%
%TO.N,/C3_T*%
%TA.AperFunction,SMDPad,CuDef*%
G36*
G01*
X82165795Y-86922389D02*
X81993294Y-86623611D01*
G75*
G02*
X82047283Y-86422122I127739J73750D01*
G01*
X82302761Y-86274622D01*
G75*
G02*
X82504250Y-86328611I73750J-127739D01*
G01*
X82676750Y-86627389D01*
G75*
G02*
X82622761Y-86828878I-127739J-73750D01*
G01*
X82367283Y-86976378D01*
G75*
G02*
X82165794Y-86922389I-73750J127739D01*
G01*
G37*
%TD.AperFunction*%
%TD*%
%TO.P,D23,2*%
%TO.N,/C4_T*%
%TA.AperFunction,SMDPad,CuDef*%
G36*
G01*
X79819175Y-103100926D02*
X80063127Y-102856975D01*
G75*
G02*
X80271723Y-102856975I104298J-104298D01*
G01*
X80480319Y-103065571D01*
G75*
G02*
X80480319Y-103274167I-104298J-104298D01*
G01*
X80236367Y-103518119D01*
G75*
G02*
X80027771Y-103518119I-104298J104298D01*
G01*
X79819175Y-103309523D01*
G75*
G02*
X79819175Y-103100927I104298J104298D01*
G01*
G37*
%TD.AperFunction*%
%TO.P,D23,1*%
%TO.N,/R4*%
%TA.AperFunction,SMDPad,CuDef*%
G36*
G01*
X79133281Y-102415032D02*
X79377233Y-102171081D01*
G75*
G02*
X79585829Y-102171081I104298J-104298D01*
G01*
X79794425Y-102379677D01*
G75*
G02*
X79794425Y-102588273I-104298J-104298D01*
G01*
X79550473Y-102832225D01*
G75*
G02*
X79341877Y-102832225I-104298J104298D01*
G01*
X79133281Y-102623629D01*
G75*
G02*
X79133281Y-102415033I104298J104298D01*
G01*
G37*
%TD.AperFunction*%
%TD*%
%TO.P,D24,1*%
%TO.N,/R4*%
%TA.AperFunction,SMDPad,CuDef*%
G36*
G01*
X59593449Y-99562011D02*
X59765950Y-99860789D01*
G75*
G02*
X59711961Y-100062278I-127739J-73750D01*
G01*
X59456483Y-100209778D01*
G75*
G02*
X59254994Y-100155789I-73750J127739D01*
G01*
X59082494Y-99857011D01*
G75*
G02*
X59136483Y-99655522I127739J73750D01*
G01*
X59391961Y-99508022D01*
G75*
G02*
X59593450Y-99562011I73750J-127739D01*
G01*
G37*
%TD.AperFunction*%
%TO.P,D24,2*%
%TO.N,/C5_T*%
%TA.AperFunction,SMDPad,CuDef*%
G36*
G01*
X58753405Y-100047011D02*
X58925906Y-100345789D01*
G75*
G02*
X58871917Y-100547278I-127739J-73750D01*
G01*
X58616439Y-100694778D01*
G75*
G02*
X58414950Y-100640789I-73750J127739D01*
G01*
X58242450Y-100342011D01*
G75*
G02*
X58296439Y-100140522I127739J73750D01*
G01*
X58551917Y-99993022D01*
G75*
G02*
X58753406Y-100047011I73750J-127739D01*
G01*
G37*
%TD.AperFunction*%
%TD*%
%TO.P,D25,1*%
%TO.N,/R4*%
%TA.AperFunction,SMDPad,CuDef*%
G36*
G01*
X61785919Y-84554368D02*
X61541967Y-84798319D01*
G75*
G02*
X61333371Y-84798319I-104298J104298D01*
G01*
X61124775Y-84589723D01*
G75*
G02*
X61124775Y-84381127I104298J104298D01*
G01*
X61368727Y-84137175D01*
G75*
G02*
X61577323Y-84137175I104298J-104298D01*
G01*
X61785919Y-84345771D01*
G75*
G02*
X61785919Y-84554367I-104298J-104298D01*
G01*
G37*
%TD.AperFunction*%
%TO.P,D25,2*%
%TO.N,/C6_T*%
%TA.AperFunction,SMDPad,CuDef*%
G36*
G01*
X61100025Y-83868474D02*
X60856073Y-84112425D01*
G75*
G02*
X60647477Y-84112425I-104298J104298D01*
G01*
X60438881Y-83903829D01*
G75*
G02*
X60438881Y-83695233I104298J104298D01*
G01*
X60682833Y-83451281D01*
G75*
G02*
X60891429Y-83451281I104298J-104298D01*
G01*
X61100025Y-83659877D01*
G75*
G02*
X61100025Y-83868473I-104298J-104298D01*
G01*
G37*
%TD.AperFunction*%
%TD*%
%TO.P,D26,1*%
%TO.N,/R5*%
%TA.AperFunction,SMDPad,CuDef*%
G36*
G01*
X79336211Y-97688651D02*
X79634989Y-97861150D01*
G75*
G02*
X79688978Y-98062639I-73750J-127739D01*
G01*
X79541478Y-98318117D01*
G75*
G02*
X79339989Y-98372106I-127739J73750D01*
G01*
X79041211Y-98199606D01*
G75*
G02*
X78987222Y-97998117I73750J127739D01*
G01*
X79134722Y-97742639D01*
G75*
G02*
X79336211Y-97688650I127739J-73750D01*
G01*
G37*
%TD.AperFunction*%
%TO.P,D26,2*%
%TO.N,/C1_T*%
%TA.AperFunction,SMDPad,CuDef*%
G36*
G01*
X78851211Y-98528695D02*
X79149989Y-98701194D01*
G75*
G02*
X79203978Y-98902683I-73750J-127739D01*
G01*
X79056478Y-99158161D01*
G75*
G02*
X78854989Y-99212150I-127739J73750D01*
G01*
X78556211Y-99039650D01*
G75*
G02*
X78502222Y-98838161I73750J127739D01*
G01*
X78649722Y-98582683D01*
G75*
G02*
X78851211Y-98528694I127739J-73750D01*
G01*
G37*
%TD.AperFunction*%
%TD*%
%TO.P,D27,1*%
%TO.N,/R5*%
%TA.AperFunction,SMDPad,CuDef*%
G36*
G01*
X66268349Y-102323211D02*
X66095850Y-102621989D01*
G75*
G02*
X65894361Y-102675978I-127739J73750D01*
G01*
X65638883Y-102528478D01*
G75*
G02*
X65584894Y-102326989I73750J127739D01*
G01*
X65757394Y-102028211D01*
G75*
G02*
X65958883Y-101974222I127739J-73750D01*
G01*
X66214361Y-102121722D01*
G75*
G02*
X66268350Y-102323211I-73750J-127739D01*
G01*
G37*
%TD.AperFunction*%
%TO.P,D27,2*%
%TO.N,/C2_T*%
%TA.AperFunction,SMDPad,CuDef*%
G36*
G01*
X65428305Y-101838211D02*
X65255806Y-102136989D01*
G75*
G02*
X65054317Y-102190978I-127739J73750D01*
G01*
X64798839Y-102043478D01*
G75*
G02*
X64744850Y-101841989I73750J127739D01*
G01*
X64917350Y-101543211D01*
G75*
G02*
X65118839Y-101489222I127739J-73750D01*
G01*
X65374317Y-101636722D01*
G75*
G02*
X65428306Y-101838211I-73750J-127739D01*
G01*
G37*
%TD.AperFunction*%
%TD*%
%TO.P,D28,2*%
%TO.N,/C3_T*%
%TA.AperFunction,SMDPad,CuDef*%
G36*
G01*
X83438572Y-90160447D02*
X83349280Y-89827203D01*
G75*
G02*
X83453578Y-89646553I142474J38176D01*
G01*
X83738526Y-89570201D01*
G75*
G02*
X83919176Y-89674499I38176J-142474D01*
G01*
X84008468Y-90007743D01*
G75*
G02*
X83904170Y-90188393I-142474J-38176D01*
G01*
X83619222Y-90264745D01*
G75*
G02*
X83438572Y-90160447I-38176J142474D01*
G01*
G37*
%TD.AperFunction*%
%TO.P,D28,1*%
%TO.N,/R5*%
%TA.AperFunction,SMDPad,CuDef*%
G36*
G01*
X82501624Y-90411501D02*
X82412332Y-90078257D01*
G75*
G02*
X82516630Y-89897607I142474J38176D01*
G01*
X82801578Y-89821255D01*
G75*
G02*
X82982228Y-89925553I38176J-142474D01*
G01*
X83071520Y-90258797D01*
G75*
G02*
X82967222Y-90439447I-142474J-38176D01*
G01*
X82682274Y-90515799D01*
G75*
G02*
X82501624Y-90411501I-38176J142474D01*
G01*
G37*
%TD.AperFunction*%
%TD*%
%TO.P,D29,1*%
%TO.N,/R5*%
%TA.AperFunction,SMDPad,CuDef*%
G36*
G01*
X81153251Y-99860789D02*
X81325750Y-99562011D01*
G75*
G02*
X81527239Y-99508022I127739J-73750D01*
G01*
X81782717Y-99655522D01*
G75*
G02*
X81836706Y-99857011I-73750J-127739D01*
G01*
X81664206Y-100155789D01*
G75*
G02*
X81462717Y-100209778I-127739J73750D01*
G01*
X81207239Y-100062278D01*
G75*
G02*
X81153250Y-99860789I73750J127739D01*
G01*
G37*
%TD.AperFunction*%
%TO.P,D29,2*%
%TO.N,/C4_T*%
%TA.AperFunction,SMDPad,CuDef*%
G36*
G01*
X81993295Y-100345789D02*
X82165794Y-100047011D01*
G75*
G02*
X82367283Y-99993022I127739J-73750D01*
G01*
X82622761Y-100140522D01*
G75*
G02*
X82676750Y-100342011I-73750J-127739D01*
G01*
X82504250Y-100640789D01*
G75*
G02*
X82302761Y-100694778I-127739J73750D01*
G01*
X82047283Y-100547278D01*
G75*
G02*
X81993294Y-100345789I73750J127739D01*
G01*
G37*
%TD.AperFunction*%
%TD*%
%TO.P,D30,2*%
%TO.N,/C5_T*%
%TA.AperFunction,SMDPad,CuDef*%
G36*
G01*
X57455228Y-96758153D02*
X57544520Y-97091397D01*
G75*
G02*
X57440222Y-97272047I-142474J-38176D01*
G01*
X57155274Y-97348399D01*
G75*
G02*
X56974624Y-97244101I-38176J142474D01*
G01*
X56885332Y-96910857D01*
G75*
G02*
X56989630Y-96730207I142474J38176D01*
G01*
X57274578Y-96653855D01*
G75*
G02*
X57455228Y-96758153I38176J-142474D01*
G01*
G37*
%TD.AperFunction*%
%TO.P,D30,1*%
%TO.N,/R5*%
%TA.AperFunction,SMDPad,CuDef*%
G36*
G01*
X58392176Y-96507099D02*
X58481468Y-96840343D01*
G75*
G02*
X58377170Y-97020993I-142474J-38176D01*
G01*
X58092222Y-97097345D01*
G75*
G02*
X57911572Y-96993047I-38176J142474D01*
G01*
X57822280Y-96659803D01*
G75*
G02*
X57926578Y-96479153I142474J38176D01*
G01*
X58211526Y-96402801D01*
G75*
G02*
X58392176Y-96507099I38176J-142474D01*
G01*
G37*
%TD.AperFunction*%
%TD*%
%TO.P,D31,1*%
%TO.N,/R5*%
%TA.AperFunction,SMDPad,CuDef*%
G36*
G01*
X59765949Y-87108611D02*
X59593450Y-87407389D01*
G75*
G02*
X59391961Y-87461378I-127739J73750D01*
G01*
X59136483Y-87313878D01*
G75*
G02*
X59082494Y-87112389I73750J127739D01*
G01*
X59254994Y-86813611D01*
G75*
G02*
X59456483Y-86759622I127739J-73750D01*
G01*
X59711961Y-86907122D01*
G75*
G02*
X59765950Y-87108611I-73750J-127739D01*
G01*
G37*
%TD.AperFunction*%
%TO.P,D31,2*%
%TO.N,/C6_T*%
%TA.AperFunction,SMDPad,CuDef*%
G36*
G01*
X58925905Y-86623611D02*
X58753406Y-86922389D01*
G75*
G02*
X58551917Y-86976378I-127739J73750D01*
G01*
X58296439Y-86828878D01*
G75*
G02*
X58242450Y-86627389I73750J127739D01*
G01*
X58414950Y-86328611D01*
G75*
G02*
X58616439Y-86274622I127739J-73750D01*
G01*
X58871917Y-86422122D01*
G75*
G02*
X58925906Y-86623611I-73750J-127739D01*
G01*
G37*
%TD.AperFunction*%
%TD*%
%TO.P,D32,2*%
%TO.N,/C1_T*%
%TA.AperFunction,SMDPad,CuDef*%
G36*
G01*
X75187205Y-102028211D02*
X75359706Y-102326989D01*
G75*
G02*
X75305717Y-102528478I-127739J-73750D01*
G01*
X75050239Y-102675978D01*
G75*
G02*
X74848750Y-102621989I-73750J127739D01*
G01*
X74676250Y-102323211D01*
G75*
G02*
X74730239Y-102121722I127739J73750D01*
G01*
X74985717Y-101974222D01*
G75*
G02*
X75187206Y-102028211I73750J-127739D01*
G01*
G37*
%TD.AperFunction*%
%TO.P,D32,1*%
%TO.N,/R6*%
%TA.AperFunction,SMDPad,CuDef*%
G36*
G01*
X76027249Y-101543211D02*
X76199750Y-101841989D01*
G75*
G02*
X76145761Y-102043478I-127739J-73750D01*
G01*
X75890283Y-102190978D01*
G75*
G02*
X75688794Y-102136989I-73750J127739D01*
G01*
X75516294Y-101838211D01*
G75*
G02*
X75570283Y-101636722I127739J73750D01*
G01*
X75825761Y-101489222D01*
G75*
G02*
X76027250Y-101543211I73750J-127739D01*
G01*
G37*
%TD.AperFunction*%
%TD*%
%TO.P,D33,1*%
%TO.N,/R6*%
%TA.AperFunction,SMDPad,CuDef*%
G36*
G01*
X71239600Y-103281700D02*
X71239600Y-103626700D01*
G75*
G02*
X71092100Y-103774200I-147500J0D01*
G01*
X70797100Y-103774200D01*
G75*
G02*
X70649600Y-103626700I0J147500D01*
G01*
X70649600Y-103281700D01*
G75*
G02*
X70797100Y-103134200I147500J0D01*
G01*
X71092100Y-103134200D01*
G75*
G02*
X71239600Y-103281700I0J-147500D01*
G01*
G37*
%TD.AperFunction*%
%TO.P,D33,2*%
%TO.N,/C2_T*%
%TA.AperFunction,SMDPad,CuDef*%
G36*
G01*
X70269600Y-103281700D02*
X70269600Y-103626700D01*
G75*
G02*
X70122100Y-103774200I-147500J0D01*
G01*
X69827100Y-103774200D01*
G75*
G02*
X69679600Y-103626700I0J147500D01*
G01*
X69679600Y-103281700D01*
G75*
G02*
X69827100Y-103134200I147500J0D01*
G01*
X70122100Y-103134200D01*
G75*
G02*
X70269600Y-103281700I0J-147500D01*
G01*
G37*
%TD.AperFunction*%
%TD*%
%TO.P,D34,2*%
%TO.N,/C3_T*%
%TA.AperFunction,SMDPad,CuDef*%
G36*
G01*
X83883000Y-93644500D02*
X83883000Y-93299500D01*
G75*
G02*
X84030500Y-93152000I147500J0D01*
G01*
X84325500Y-93152000D01*
G75*
G02*
X84473000Y-93299500I0J-147500D01*
G01*
X84473000Y-93644500D01*
G75*
G02*
X84325500Y-93792000I-147500J0D01*
G01*
X84030500Y-93792000D01*
G75*
G02*
X83883000Y-93644500I0J147500D01*
G01*
G37*
%TD.AperFunction*%
%TO.P,D34,1*%
%TO.N,/R6*%
%TA.AperFunction,SMDPad,CuDef*%
G36*
G01*
X82913000Y-93644500D02*
X82913000Y-93299500D01*
G75*
G02*
X83060500Y-93152000I147500J0D01*
G01*
X83355500Y-93152000D01*
G75*
G02*
X83503000Y-93299500I0J-147500D01*
G01*
X83503000Y-93644500D01*
G75*
G02*
X83355500Y-93792000I-147500J0D01*
G01*
X83060500Y-93792000D01*
G75*
G02*
X82913000Y-93644500I0J147500D01*
G01*
G37*
%TD.AperFunction*%
%TD*%
%TO.P,D35,1*%
%TO.N,/R6*%
%TA.AperFunction,SMDPad,CuDef*%
G36*
G01*
X82437732Y-96865744D02*
X82527024Y-96532499D01*
G75*
G02*
X82707674Y-96428201I142474J-38176D01*
G01*
X82992622Y-96504553D01*
G75*
G02*
X83096920Y-96685203I-38176J-142474D01*
G01*
X83007628Y-97018447D01*
G75*
G02*
X82826978Y-97122745I-142474J38176D01*
G01*
X82542030Y-97046393D01*
G75*
G02*
X82437732Y-96865743I38176J142474D01*
G01*
G37*
%TD.AperFunction*%
%TO.P,D35,2*%
%TO.N,/C4_T*%
%TA.AperFunction,SMDPad,CuDef*%
G36*
G01*
X83374680Y-97116798D02*
X83463972Y-96783553D01*
G75*
G02*
X83644622Y-96679255I142474J-38176D01*
G01*
X83929570Y-96755607D01*
G75*
G02*
X84033868Y-96936257I-38176J-142474D01*
G01*
X83944576Y-97269501D01*
G75*
G02*
X83763926Y-97373799I-142474J38176D01*
G01*
X83478978Y-97297447D01*
G75*
G02*
X83374680Y-97116797I38176J142474D01*
G01*
G37*
%TD.AperFunction*%
%TD*%
%TO.P,D36,2*%
%TO.N,/C5_T*%
%TA.AperFunction,SMDPad,CuDef*%
G36*
G01*
X57061600Y-93299500D02*
X57061600Y-93644500D01*
G75*
G02*
X56914100Y-93792000I-147500J0D01*
G01*
X56619100Y-93792000D01*
G75*
G02*
X56471600Y-93644500I0J147500D01*
G01*
X56471600Y-93299500D01*
G75*
G02*
X56619100Y-93152000I147500J0D01*
G01*
X56914100Y-93152000D01*
G75*
G02*
X57061600Y-93299500I0J-147500D01*
G01*
G37*
%TD.AperFunction*%
%TO.P,D36,1*%
%TO.N,/R6*%
%TA.AperFunction,SMDPad,CuDef*%
G36*
G01*
X58031600Y-93299500D02*
X58031600Y-93644500D01*
G75*
G02*
X57884100Y-93792000I-147500J0D01*
G01*
X57589100Y-93792000D01*
G75*
G02*
X57441600Y-93644500I0J147500D01*
G01*
X57441600Y-93299500D01*
G75*
G02*
X57589100Y-93152000I147500J0D01*
G01*
X57884100Y-93152000D01*
G75*
G02*
X58031600Y-93299500I0J-147500D01*
G01*
G37*
%TD.AperFunction*%
%TD*%
%TO.P,D37,1*%
%TO.N,/R6*%
%TA.AperFunction,SMDPad,CuDef*%
G36*
G01*
X58481468Y-90078256D02*
X58392176Y-90411501D01*
G75*
G02*
X58211526Y-90515799I-142474J38176D01*
G01*
X57926578Y-90439447D01*
G75*
G02*
X57822280Y-90258797I38176J142474D01*
G01*
X57911572Y-89925553D01*
G75*
G02*
X58092222Y-89821255I142474J-38176D01*
G01*
X58377170Y-89897607D01*
G75*
G02*
X58481468Y-90078257I-38176J-142474D01*
G01*
G37*
%TD.AperFunction*%
%TO.P,D37,2*%
%TO.N,/C6_T*%
%TA.AperFunction,SMDPad,CuDef*%
G36*
G01*
X57544520Y-89827202D02*
X57455228Y-90160447D01*
G75*
G02*
X57274578Y-90264745I-142474J38176D01*
G01*
X56989630Y-90188393D01*
G75*
G02*
X56885332Y-90007743I38176J142474D01*
G01*
X56974624Y-89674499D01*
G75*
G02*
X57155274Y-89570201I142474J-38176D01*
G01*
X57440222Y-89646553D01*
G75*
G02*
X57544520Y-89827203I-38176J-142474D01*
G01*
G37*
%TD.AperFunction*%
%TD*%
%TO.P,R2,2*%
%TO.N,/LGT_ON_BTN*%
%TA.AperFunction,SMDPad,CuDef*%
G36*
G01*
X88183500Y-94552000D02*
X87838500Y-94552000D01*
G75*
G02*
X87691000Y-94404500I0J147500D01*
G01*
X87691000Y-94109500D01*
G75*
G02*
X87838500Y-93962000I147500J0D01*
G01*
X88183500Y-93962000D01*
G75*
G02*
X88331000Y-94109500I0J-147500D01*
G01*
X88331000Y-94404500D01*
G75*
G02*
X88183500Y-94552000I-147500J0D01*
G01*
G37*
%TD.AperFunction*%
%TO.P,R2,1*%
%TO.N,+3V0*%
%TA.AperFunction,SMDPad,CuDef*%
G36*
G01*
X88183500Y-95522000D02*
X87838500Y-95522000D01*
G75*
G02*
X87691000Y-95374500I0J147500D01*
G01*
X87691000Y-95079500D01*
G75*
G02*
X87838500Y-94932000I147500J0D01*
G01*
X88183500Y-94932000D01*
G75*
G02*
X88331000Y-95079500I0J-147500D01*
G01*
X88331000Y-95374500D01*
G75*
G02*
X88183500Y-95522000I-147500J0D01*
G01*
G37*
%TD.AperFunction*%
%TD*%
%TO.P,R3,2*%
%TO.N,/UP_BTN*%
%TA.AperFunction,SMDPad,CuDef*%
G36*
G01*
X85801040Y-82431900D02*
X85488364Y-82577703D01*
G75*
G02*
X85292348Y-82506359I-62336J133680D01*
G01*
X85167676Y-82238998D01*
G75*
G02*
X85239020Y-82042982I133680J62336D01*
G01*
X85551696Y-81897179D01*
G75*
G02*
X85747712Y-81968523I62336J-133680D01*
G01*
X85872384Y-82235884D01*
G75*
G02*
X85801040Y-82431900I-133680J-62336D01*
G01*
G37*
%TD.AperFunction*%
%TO.P,R3,1*%
%TO.N,+3V0*%
%TA.AperFunction,SMDPad,CuDef*%
G36*
G01*
X86210980Y-83311018D02*
X85898304Y-83456821D01*
G75*
G02*
X85702288Y-83385477I-62336J133680D01*
G01*
X85577616Y-83118116D01*
G75*
G02*
X85648960Y-82922100I133680J62336D01*
G01*
X85961636Y-82776297D01*
G75*
G02*
X86157652Y-82847641I62336J-133680D01*
G01*
X86282324Y-83115002D01*
G75*
G02*
X86210980Y-83311018I-133680J-62336D01*
G01*
G37*
%TD.AperFunction*%
%TD*%
%TO.P,R4,1*%
%TO.N,+3V0*%
%TA.AperFunction,SMDPad,CuDef*%
G36*
G01*
X84472196Y-107777321D02*
X84159520Y-107631518D01*
G75*
G02*
X84088176Y-107435502I62336J133680D01*
G01*
X84212848Y-107168141D01*
G75*
G02*
X84408864Y-107096797I133680J-62336D01*
G01*
X84721540Y-107242600D01*
G75*
G02*
X84792884Y-107438616I-62336J-133680D01*
G01*
X84668212Y-107705977D01*
G75*
G02*
X84472196Y-107777321I-133680J62336D01*
G01*
G37*
%TD.AperFunction*%
%TO.P,R4,2*%
%TO.N,/DWN_BTN*%
%TA.AperFunction,SMDPad,CuDef*%
G36*
G01*
X84882136Y-106898203D02*
X84569460Y-106752400D01*
G75*
G02*
X84498116Y-106556384I62336J133680D01*
G01*
X84622788Y-106289023D01*
G75*
G02*
X84818804Y-106217679I133680J-62336D01*
G01*
X85131480Y-106363482D01*
G75*
G02*
X85202824Y-106559498I-62336J-133680D01*
G01*
X85078152Y-106826859D01*
G75*
G02*
X84882136Y-106898203I-133680J62336D01*
G01*
G37*
%TD.AperFunction*%
%TD*%
%TO.P,R8,2*%
%TO.N,/DBG_RX*%
%TA.AperFunction,SMDPad,CuDef*%
G36*
G01*
X60421300Y-91072200D02*
X60076300Y-91072200D01*
G75*
G02*
X59928800Y-90924700I0J147500D01*
G01*
X59928800Y-90629700D01*
G75*
G02*
X60076300Y-90482200I147500J0D01*
G01*
X60421300Y-90482200D01*
G75*
G02*
X60568800Y-90629700I0J-147500D01*
G01*
X60568800Y-90924700D01*
G75*
G02*
X60421300Y-91072200I-147500J0D01*
G01*
G37*
%TD.AperFunction*%
%TO.P,R8,1*%
%TO.N,/R2_R*%
%TA.AperFunction,SMDPad,CuDef*%
G36*
G01*
X60421300Y-92042200D02*
X60076300Y-92042200D01*
G75*
G02*
X59928800Y-91894700I0J147500D01*
G01*
X59928800Y-91599700D01*
G75*
G02*
X60076300Y-91452200I147500J0D01*
G01*
X60421300Y-91452200D01*
G75*
G02*
X60568800Y-91599700I0J-147500D01*
G01*
X60568800Y-91894700D01*
G75*
G02*
X60421300Y-92042200I-147500J0D01*
G01*
G37*
%TD.AperFunction*%
%TD*%
%TO.P,R9,1*%
%TO.N,/R3_R*%
%TA.AperFunction,SMDPad,CuDef*%
G36*
G01*
X63645000Y-85450900D02*
X63645000Y-85795900D01*
G75*
G02*
X63497500Y-85943400I-147500J0D01*
G01*
X63202500Y-85943400D01*
G75*
G02*
X63055000Y-85795900I0J147500D01*
G01*
X63055000Y-85450900D01*
G75*
G02*
X63202500Y-85303400I147500J0D01*
G01*
X63497500Y-85303400D01*
G75*
G02*
X63645000Y-85450900I0J-147500D01*
G01*
G37*
%TD.AperFunction*%
%TO.P,R9,2*%
%TO.N,/DBG_TX*%
%TA.AperFunction,SMDPad,CuDef*%
G36*
G01*
X62675000Y-85450900D02*
X62675000Y-85795900D01*
G75*
G02*
X62527500Y-85943400I-147500J0D01*
G01*
X62232500Y-85943400D01*
G75*
G02*
X62085000Y-85795900I0J147500D01*
G01*
X62085000Y-85450900D01*
G75*
G02*
X62232500Y-85303400I147500J0D01*
G01*
X62527500Y-85303400D01*
G75*
G02*
X62675000Y-85450900I0J-147500D01*
G01*
G37*
%TD.AperFunction*%
%TD*%
%TO.P,R10,2*%
%TO.N,/RTC_SCL*%
%TA.AperFunction,SMDPad,CuDef*%
G36*
G01*
X67126900Y-94425000D02*
X66781900Y-94425000D01*
G75*
G02*
X66634400Y-94277500I0J147500D01*
G01*
X66634400Y-93982500D01*
G75*
G02*
X66781900Y-93835000I147500J0D01*
G01*
X67126900Y-93835000D01*
G75*
G02*
X67274400Y-93982500I0J-147500D01*
G01*
X67274400Y-94277500D01*
G75*
G02*
X67126900Y-94425000I-147500J0D01*
G01*
G37*
%TD.AperFunction*%
%TO.P,R10,1*%
%TO.N,+3V0*%
%TA.AperFunction,SMDPad,CuDef*%
G36*
G01*
X67126900Y-95395000D02*
X66781900Y-95395000D01*
G75*
G02*
X66634400Y-95247500I0J147500D01*
G01*
X66634400Y-94952500D01*
G75*
G02*
X66781900Y-94805000I147500J0D01*
G01*
X67126900Y-94805000D01*
G75*
G02*
X67274400Y-94952500I0J-147500D01*
G01*
X67274400Y-95247500D01*
G75*
G02*
X67126900Y-95395000I-147500J0D01*
G01*
G37*
%TD.AperFunction*%
%TD*%
%TO.P,R11,1*%
%TO.N,+3V0*%
%TA.AperFunction,SMDPad,CuDef*%
G36*
G01*
X66781900Y-91866500D02*
X67126900Y-91866500D01*
G75*
G02*
X67274400Y-92014000I0J-147500D01*
G01*
X67274400Y-92309000D01*
G75*
G02*
X67126900Y-92456500I-147500J0D01*
G01*
X66781900Y-92456500D01*
G75*
G02*
X66634400Y-92309000I0J147500D01*
G01*
X66634400Y-92014000D01*
G75*
G02*
X66781900Y-91866500I147500J0D01*
G01*
G37*
%TD.AperFunction*%
%TO.P,R11,2*%
%TO.N,/RTC_SDA*%
%TA.AperFunction,SMDPad,CuDef*%
G36*
G01*
X66781900Y-92836500D02*
X67126900Y-92836500D01*
G75*
G02*
X67274400Y-92984000I0J-147500D01*
G01*
X67274400Y-93279000D01*
G75*
G02*
X67126900Y-93426500I-147500J0D01*
G01*
X66781900Y-93426500D01*
G75*
G02*
X66634400Y-93279000I0J147500D01*
G01*
X66634400Y-92984000D01*
G75*
G02*
X66781900Y-92836500I147500J0D01*
G01*
G37*
%TD.AperFunction*%
%TD*%
%TO.P,R12,2*%
%TO.N,/RTC_INTO*%
%TA.AperFunction,SMDPad,CuDef*%
G36*
G01*
X62085000Y-95314000D02*
X61740000Y-95314000D01*
G75*
G02*
X61592500Y-95166500I0J147500D01*
G01*
X61592500Y-94871500D01*
G75*
G02*
X61740000Y-94724000I147500J0D01*
G01*
X62085000Y-94724000D01*
G75*
G02*
X62232500Y-94871500I0J-147500D01*
G01*
X62232500Y-95166500D01*
G75*
G02*
X62085000Y-95314000I-147500J0D01*
G01*
G37*
%TD.AperFunction*%
%TO.P,R12,1*%
%TO.N,+3V0*%
%TA.AperFunction,SMDPad,CuDef*%
G36*
G01*
X62085000Y-96284000D02*
X61740000Y-96284000D01*
G75*
G02*
X61592500Y-96136500I0J147500D01*
G01*
X61592500Y-95841500D01*
G75*
G02*
X61740000Y-95694000I147500J0D01*
G01*
X62085000Y-95694000D01*
G75*
G02*
X62232500Y-95841500I0J-147500D01*
G01*
X62232500Y-96136500D01*
G75*
G02*
X62085000Y-96284000I-147500J0D01*
G01*
G37*
%TD.AperFunction*%
%TD*%
%TO.P,R13,2*%
%TO.N,Net-(Q2-Pad2)*%
%TA.AperFunction,SMDPad,CuDef*%
G36*
G01*
X64175000Y-97860900D02*
X64175000Y-97515900D01*
G75*
G02*
X64322500Y-97368400I147500J0D01*
G01*
X64617500Y-97368400D01*
G75*
G02*
X64765000Y-97515900I0J-147500D01*
G01*
X64765000Y-97860900D01*
G75*
G02*
X64617500Y-98008400I-147500J0D01*
G01*
X64322500Y-98008400D01*
G75*
G02*
X64175000Y-97860900I0J147500D01*
G01*
G37*
%TD.AperFunction*%
%TO.P,R13,1*%
%TO.N,/C6*%
%TA.AperFunction,SMDPad,CuDef*%
G36*
G01*
X63205000Y-97860900D02*
X63205000Y-97515900D01*
G75*
G02*
X63352500Y-97368400I147500J0D01*
G01*
X63647500Y-97368400D01*
G75*
G02*
X63795000Y-97515900I0J-147500D01*
G01*
X63795000Y-97860900D01*
G75*
G02*
X63647500Y-98008400I-147500J0D01*
G01*
X63352500Y-98008400D01*
G75*
G02*
X63205000Y-97860900I0J147500D01*
G01*
G37*
%TD.AperFunction*%
%TD*%
%TO.P,R14,1*%
%TO.N,+3V0*%
%TA.AperFunction,SMDPad,CuDef*%
G36*
G01*
X72258000Y-95991900D02*
X72258000Y-96336900D01*
G75*
G02*
X72110500Y-96484400I-147500J0D01*
G01*
X71815500Y-96484400D01*
G75*
G02*
X71668000Y-96336900I0J147500D01*
G01*
X71668000Y-95991900D01*
G75*
G02*
X71815500Y-95844400I147500J0D01*
G01*
X72110500Y-95844400D01*
G75*
G02*
X72258000Y-95991900I0J-147500D01*
G01*
G37*
%TD.AperFunction*%
%TO.P,R14,2*%
%TO.N,/+3V0_VOL_MON*%
%TA.AperFunction,SMDPad,CuDef*%
G36*
G01*
X71288000Y-95991900D02*
X71288000Y-96336900D01*
G75*
G02*
X71140500Y-96484400I-147500J0D01*
G01*
X70845500Y-96484400D01*
G75*
G02*
X70698000Y-96336900I0J147500D01*
G01*
X70698000Y-95991900D01*
G75*
G02*
X70845500Y-95844400I147500J0D01*
G01*
X71140500Y-95844400D01*
G75*
G02*
X71288000Y-95991900I0J-147500D01*
G01*
G37*
%TD.AperFunction*%
%TD*%
%TO.P,R15,2*%
%TO.N,GND*%
%TA.AperFunction,SMDPad,CuDef*%
G36*
G01*
X69279000Y-95991900D02*
X69279000Y-96336900D01*
G75*
G02*
X69131500Y-96484400I-147500J0D01*
G01*
X68836500Y-96484400D01*
G75*
G02*
X68689000Y-96336900I0J147500D01*
G01*
X68689000Y-95991900D01*
G75*
G02*
X68836500Y-95844400I147500J0D01*
G01*
X69131500Y-95844400D01*
G75*
G02*
X69279000Y-95991900I0J-147500D01*
G01*
G37*
%TD.AperFunction*%
%TO.P,R15,1*%
%TO.N,/+3V0_VOL_MON*%
%TA.AperFunction,SMDPad,CuDef*%
G36*
G01*
X70249000Y-95991900D02*
X70249000Y-96336900D01*
G75*
G02*
X70101500Y-96484400I-147500J0D01*
G01*
X69806500Y-96484400D01*
G75*
G02*
X69659000Y-96336900I0J147500D01*
G01*
X69659000Y-95991900D01*
G75*
G02*
X69806500Y-95844400I147500J0D01*
G01*
X70101500Y-95844400D01*
G75*
G02*
X70249000Y-95991900I0J-147500D01*
G01*
G37*
%TD.AperFunction*%
%TD*%
%TO.P,R16,1*%
%TO.N,Net-(Q2-Pad1)*%
%TA.AperFunction,SMDPad,CuDef*%
G36*
G01*
X64762600Y-98608100D02*
X64762600Y-98953100D01*
G75*
G02*
X64615100Y-99100600I-147500J0D01*
G01*
X64320100Y-99100600D01*
G75*
G02*
X64172600Y-98953100I0J147500D01*
G01*
X64172600Y-98608100D01*
G75*
G02*
X64320100Y-98460600I147500J0D01*
G01*
X64615100Y-98460600D01*
G75*
G02*
X64762600Y-98608100I0J-147500D01*
G01*
G37*
%TD.AperFunction*%
%TO.P,R16,2*%
%TO.N,+3V0*%
%TA.AperFunction,SMDPad,CuDef*%
G36*
G01*
X63792600Y-98608100D02*
X63792600Y-98953100D01*
G75*
G02*
X63645100Y-99100600I-147500J0D01*
G01*
X63350100Y-99100600D01*
G75*
G02*
X63202600Y-98953100I0J147500D01*
G01*
X63202600Y-98608100D01*
G75*
G02*
X63350100Y-98460600I147500J0D01*
G01*
X63645100Y-98460600D01*
G75*
G02*
X63792600Y-98608100I0J-147500D01*
G01*
G37*
%TD.AperFunction*%
%TD*%
%TO.P,R18,2*%
%TO.N,Net-(Q3-Pad2)*%
%TA.AperFunction,SMDPad,CuDef*%
G36*
G01*
X69379600Y-100883500D02*
X69379600Y-100538500D01*
G75*
G02*
X69527100Y-100391000I147500J0D01*
G01*
X69822100Y-100391000D01*
G75*
G02*
X69969600Y-100538500I0J-147500D01*
G01*
X69969600Y-100883500D01*
G75*
G02*
X69822100Y-101031000I-147500J0D01*
G01*
X69527100Y-101031000D01*
G75*
G02*
X69379600Y-100883500I0J147500D01*
G01*
G37*
%TD.AperFunction*%
%TO.P,R18,1*%
%TO.N,/C5*%
%TA.AperFunction,SMDPad,CuDef*%
G36*
G01*
X68409600Y-100883500D02*
X68409600Y-100538500D01*
G75*
G02*
X68557100Y-100391000I147500J0D01*
G01*
X68852100Y-100391000D01*
G75*
G02*
X68999600Y-100538500I0J-147500D01*
G01*
X68999600Y-100883500D01*
G75*
G02*
X68852100Y-101031000I-147500J0D01*
G01*
X68557100Y-101031000D01*
G75*
G02*
X68409600Y-100883500I0J147500D01*
G01*
G37*
%TD.AperFunction*%
%TD*%
%TO.P,R19,1*%
%TO.N,/C4*%
%TA.AperFunction,SMDPad,CuDef*%
G36*
G01*
X77665800Y-99344700D02*
X77665800Y-99689700D01*
G75*
G02*
X77518300Y-99837200I-147500J0D01*
G01*
X77223300Y-99837200D01*
G75*
G02*
X77075800Y-99689700I0J147500D01*
G01*
X77075800Y-99344700D01*
G75*
G02*
X77223300Y-99197200I147500J0D01*
G01*
X77518300Y-99197200D01*
G75*
G02*
X77665800Y-99344700I0J-147500D01*
G01*
G37*
%TD.AperFunction*%
%TO.P,R19,2*%
%TO.N,Net-(Q4-Pad2)*%
%TA.AperFunction,SMDPad,CuDef*%
G36*
G01*
X76695800Y-99344700D02*
X76695800Y-99689700D01*
G75*
G02*
X76548300Y-99837200I-147500J0D01*
G01*
X76253300Y-99837200D01*
G75*
G02*
X76105800Y-99689700I0J147500D01*
G01*
X76105800Y-99344700D01*
G75*
G02*
X76253300Y-99197200I147500J0D01*
G01*
X76548300Y-99197200D01*
G75*
G02*
X76695800Y-99344700I0J-147500D01*
G01*
G37*
%TD.AperFunction*%
%TD*%
%TO.P,R20,2*%
%TO.N,+3V0*%
%TA.AperFunction,SMDPad,CuDef*%
G36*
G01*
X71665600Y-100883500D02*
X71665600Y-100538500D01*
G75*
G02*
X71813100Y-100391000I147500J0D01*
G01*
X72108100Y-100391000D01*
G75*
G02*
X72255600Y-100538500I0J-147500D01*
G01*
X72255600Y-100883500D01*
G75*
G02*
X72108100Y-101031000I-147500J0D01*
G01*
X71813100Y-101031000D01*
G75*
G02*
X71665600Y-100883500I0J147500D01*
G01*
G37*
%TD.AperFunction*%
%TO.P,R20,1*%
%TO.N,Net-(Q3-Pad1)*%
%TA.AperFunction,SMDPad,CuDef*%
G36*
G01*
X70695600Y-100883500D02*
X70695600Y-100538500D01*
G75*
G02*
X70843100Y-100391000I147500J0D01*
G01*
X71138100Y-100391000D01*
G75*
G02*
X71285600Y-100538500I0J-147500D01*
G01*
X71285600Y-100883500D01*
G75*
G02*
X71138100Y-101031000I-147500J0D01*
G01*
X70843100Y-101031000D01*
G75*
G02*
X70695600Y-100883500I0J147500D01*
G01*
G37*
%TD.AperFunction*%
%TD*%
%TO.P,R21,1*%
%TO.N,Net-(Q4-Pad1)*%
%TA.AperFunction,SMDPad,CuDef*%
G36*
G01*
X76105800Y-98597500D02*
X76105800Y-98252500D01*
G75*
G02*
X76253300Y-98105000I147500J0D01*
G01*
X76548300Y-98105000D01*
G75*
G02*
X76695800Y-98252500I0J-147500D01*
G01*
X76695800Y-98597500D01*
G75*
G02*
X76548300Y-98745000I-147500J0D01*
G01*
X76253300Y-98745000D01*
G75*
G02*
X76105800Y-98597500I0J147500D01*
G01*
G37*
%TD.AperFunction*%
%TO.P,R21,2*%
%TO.N,+3V0*%
%TA.AperFunction,SMDPad,CuDef*%
G36*
G01*
X77075800Y-98597500D02*
X77075800Y-98252500D01*
G75*
G02*
X77223300Y-98105000I147500J0D01*
G01*
X77518300Y-98105000D01*
G75*
G02*
X77665800Y-98252500I0J-147500D01*
G01*
X77665800Y-98597500D01*
G75*
G02*
X77518300Y-98745000I-147500J0D01*
G01*
X77223300Y-98745000D01*
G75*
G02*
X77075800Y-98597500I0J147500D01*
G01*
G37*
%TD.AperFunction*%
%TD*%
%TO.P,R22,2*%
%TO.N,Net-(Q5-Pad2)*%
%TA.AperFunction,SMDPad,CuDef*%
G36*
G01*
X76721200Y-87711500D02*
X76721200Y-88056500D01*
G75*
G02*
X76573700Y-88204000I-147500J0D01*
G01*
X76278700Y-88204000D01*
G75*
G02*
X76131200Y-88056500I0J147500D01*
G01*
X76131200Y-87711500D01*
G75*
G02*
X76278700Y-87564000I147500J0D01*
G01*
X76573700Y-87564000D01*
G75*
G02*
X76721200Y-87711500I0J-147500D01*
G01*
G37*
%TD.AperFunction*%
%TO.P,R22,1*%
%TO.N,/C3*%
%TA.AperFunction,SMDPad,CuDef*%
G36*
G01*
X77691200Y-87711500D02*
X77691200Y-88056500D01*
G75*
G02*
X77543700Y-88204000I-147500J0D01*
G01*
X77248700Y-88204000D01*
G75*
G02*
X77101200Y-88056500I0J147500D01*
G01*
X77101200Y-87711500D01*
G75*
G02*
X77248700Y-87564000I147500J0D01*
G01*
X77543700Y-87564000D01*
G75*
G02*
X77691200Y-87711500I0J-147500D01*
G01*
G37*
%TD.AperFunction*%
%TD*%
%TO.P,R23,1*%
%TO.N,/C2*%
%TA.AperFunction,SMDPad,CuDef*%
G36*
G01*
X63253400Y-88335900D02*
X63253400Y-87990900D01*
G75*
G02*
X63400900Y-87843400I147500J0D01*
G01*
X63695900Y-87843400D01*
G75*
G02*
X63843400Y-87990900I0J-147500D01*
G01*
X63843400Y-88335900D01*
G75*
G02*
X63695900Y-88483400I-147500J0D01*
G01*
X63400900Y-88483400D01*
G75*
G02*
X63253400Y-88335900I0J147500D01*
G01*
G37*
%TD.AperFunction*%
%TO.P,R23,2*%
%TO.N,Net-(Q6-Pad2)*%
%TA.AperFunction,SMDPad,CuDef*%
G36*
G01*
X64223400Y-88335900D02*
X64223400Y-87990900D01*
G75*
G02*
X64370900Y-87843400I147500J0D01*
G01*
X64665900Y-87843400D01*
G75*
G02*
X64813400Y-87990900I0J-147500D01*
G01*
X64813400Y-88335900D01*
G75*
G02*
X64665900Y-88483400I-147500J0D01*
G01*
X64370900Y-88483400D01*
G75*
G02*
X64223400Y-88335900I0J147500D01*
G01*
G37*
%TD.AperFunction*%
%TD*%
%TO.P,R24,2*%
%TO.N,+3V0*%
%TA.AperFunction,SMDPad,CuDef*%
G36*
G01*
X77101200Y-89072500D02*
X77101200Y-88727500D01*
G75*
G02*
X77248700Y-88580000I147500J0D01*
G01*
X77543700Y-88580000D01*
G75*
G02*
X77691200Y-88727500I0J-147500D01*
G01*
X77691200Y-89072500D01*
G75*
G02*
X77543700Y-89220000I-147500J0D01*
G01*
X77248700Y-89220000D01*
G75*
G02*
X77101200Y-89072500I0J147500D01*
G01*
G37*
%TD.AperFunction*%
%TO.P,R24,1*%
%TO.N,Net-(Q5-Pad1)*%
%TA.AperFunction,SMDPad,CuDef*%
G36*
G01*
X76131200Y-89072500D02*
X76131200Y-88727500D01*
G75*
G02*
X76278700Y-88580000I147500J0D01*
G01*
X76573700Y-88580000D01*
G75*
G02*
X76721200Y-88727500I0J-147500D01*
G01*
X76721200Y-89072500D01*
G75*
G02*
X76573700Y-89220000I-147500J0D01*
G01*
X76278700Y-89220000D01*
G75*
G02*
X76131200Y-89072500I0J147500D01*
G01*
G37*
%TD.AperFunction*%
%TD*%
%TO.P,R25,1*%
%TO.N,Net-(Q6-Pad1)*%
%TA.AperFunction,SMDPad,CuDef*%
G36*
G01*
X64811000Y-89083100D02*
X64811000Y-89428100D01*
G75*
G02*
X64663500Y-89575600I-147500J0D01*
G01*
X64368500Y-89575600D01*
G75*
G02*
X64221000Y-89428100I0J147500D01*
G01*
X64221000Y-89083100D01*
G75*
G02*
X64368500Y-88935600I147500J0D01*
G01*
X64663500Y-88935600D01*
G75*
G02*
X64811000Y-89083100I0J-147500D01*
G01*
G37*
%TD.AperFunction*%
%TO.P,R25,2*%
%TO.N,+3V0*%
%TA.AperFunction,SMDPad,CuDef*%
G36*
G01*
X63841000Y-89083100D02*
X63841000Y-89428100D01*
G75*
G02*
X63693500Y-89575600I-147500J0D01*
G01*
X63398500Y-89575600D01*
G75*
G02*
X63251000Y-89428100I0J147500D01*
G01*
X63251000Y-89083100D01*
G75*
G02*
X63398500Y-88935600I147500J0D01*
G01*
X63693500Y-88935600D01*
G75*
G02*
X63841000Y-89083100I0J-147500D01*
G01*
G37*
%TD.AperFunction*%
%TD*%
%TO.P,R26,1*%
%TO.N,/C1*%
%TA.AperFunction,SMDPad,CuDef*%
G36*
G01*
X72357200Y-86035100D02*
X72357200Y-86380100D01*
G75*
G02*
X72209700Y-86527600I-147500J0D01*
G01*
X71914700Y-86527600D01*
G75*
G02*
X71767200Y-86380100I0J147500D01*
G01*
X71767200Y-86035100D01*
G75*
G02*
X71914700Y-85887600I147500J0D01*
G01*
X72209700Y-85887600D01*
G75*
G02*
X72357200Y-86035100I0J-147500D01*
G01*
G37*
%TD.AperFunction*%
%TO.P,R26,2*%
%TO.N,Net-(Q7-Pad2)*%
%TA.AperFunction,SMDPad,CuDef*%
G36*
G01*
X71387200Y-86035100D02*
X71387200Y-86380100D01*
G75*
G02*
X71239700Y-86527600I-147500J0D01*
G01*
X70944700Y-86527600D01*
G75*
G02*
X70797200Y-86380100I0J147500D01*
G01*
X70797200Y-86035100D01*
G75*
G02*
X70944700Y-85887600I147500J0D01*
G01*
X71239700Y-85887600D01*
G75*
G02*
X71387200Y-86035100I0J-147500D01*
G01*
G37*
%TD.AperFunction*%
%TD*%
%TO.P,R27,2*%
%TO.N,+3V0*%
%TA.AperFunction,SMDPad,CuDef*%
G36*
G01*
X69126600Y-86035100D02*
X69126600Y-86380100D01*
G75*
G02*
X68979100Y-86527600I-147500J0D01*
G01*
X68684100Y-86527600D01*
G75*
G02*
X68536600Y-86380100I0J147500D01*
G01*
X68536600Y-86035100D01*
G75*
G02*
X68684100Y-85887600I147500J0D01*
G01*
X68979100Y-85887600D01*
G75*
G02*
X69126600Y-86035100I0J-147500D01*
G01*
G37*
%TD.AperFunction*%
%TO.P,R27,1*%
%TO.N,Net-(Q7-Pad1)*%
%TA.AperFunction,SMDPad,CuDef*%
G36*
G01*
X70096600Y-86035100D02*
X70096600Y-86380100D01*
G75*
G02*
X69949100Y-86527600I-147500J0D01*
G01*
X69654100Y-86527600D01*
G75*
G02*
X69506600Y-86380100I0J147500D01*
G01*
X69506600Y-86035100D01*
G75*
G02*
X69654100Y-85887600I147500J0D01*
G01*
X69949100Y-85887600D01*
G75*
G02*
X70096600Y-86035100I0J-147500D01*
G01*
G37*
%TD.AperFunction*%
%TD*%
%TO.P,R28,2*%
%TO.N,/R6_R*%
%TA.AperFunction,SMDPad,CuDef*%
G36*
G01*
X82189100Y-93282000D02*
X81844100Y-93282000D01*
G75*
G02*
X81696600Y-93134500I0J147500D01*
G01*
X81696600Y-92839500D01*
G75*
G02*
X81844100Y-92692000I147500J0D01*
G01*
X82189100Y-92692000D01*
G75*
G02*
X82336600Y-92839500I0J-147500D01*
G01*
X82336600Y-93134500D01*
G75*
G02*
X82189100Y-93282000I-147500J0D01*
G01*
G37*
%TD.AperFunction*%
%TO.P,R28,1*%
%TO.N,/R6*%
%TA.AperFunction,SMDPad,CuDef*%
G36*
G01*
X82189100Y-94252000D02*
X81844100Y-94252000D01*
G75*
G02*
X81696600Y-94104500I0J147500D01*
G01*
X81696600Y-93809500D01*
G75*
G02*
X81844100Y-93662000I147500J0D01*
G01*
X82189100Y-93662000D01*
G75*
G02*
X82336600Y-93809500I0J-147500D01*
G01*
X82336600Y-94104500D01*
G75*
G02*
X82189100Y-94252000I-147500J0D01*
G01*
G37*
%TD.AperFunction*%
%TD*%
%TO.P,R29,1*%
%TO.N,/R1_R*%
%TA.AperFunction,SMDPad,CuDef*%
G36*
G01*
X79088200Y-85501700D02*
X79088200Y-85846700D01*
G75*
G02*
X78940700Y-85994200I-147500J0D01*
G01*
X78645700Y-85994200D01*
G75*
G02*
X78498200Y-85846700I0J147500D01*
G01*
X78498200Y-85501700D01*
G75*
G02*
X78645700Y-85354200I147500J0D01*
G01*
X78940700Y-85354200D01*
G75*
G02*
X79088200Y-85501700I0J-147500D01*
G01*
G37*
%TD.AperFunction*%
%TO.P,R29,2*%
%TO.N,/R1*%
%TA.AperFunction,SMDPad,CuDef*%
G36*
G01*
X78118200Y-85501700D02*
X78118200Y-85846700D01*
G75*
G02*
X77970700Y-85994200I-147500J0D01*
G01*
X77675700Y-85994200D01*
G75*
G02*
X77528200Y-85846700I0J147500D01*
G01*
X77528200Y-85501700D01*
G75*
G02*
X77675700Y-85354200I147500J0D01*
G01*
X77970700Y-85354200D01*
G75*
G02*
X78118200Y-85501700I0J-147500D01*
G01*
G37*
%TD.AperFunction*%
%TD*%
%TO.P,R30,1*%
%TO.N,/R4_R*%
%TA.AperFunction,SMDPad,CuDef*%
G36*
G01*
X77528200Y-101518500D02*
X77528200Y-101173500D01*
G75*
G02*
X77675700Y-101026000I147500J0D01*
G01*
X77970700Y-101026000D01*
G75*
G02*
X78118200Y-101173500I0J-147500D01*
G01*
X78118200Y-101518500D01*
G75*
G02*
X77970700Y-101666000I-147500J0D01*
G01*
X77675700Y-101666000D01*
G75*
G02*
X77528200Y-101518500I0J147500D01*
G01*
G37*
%TD.AperFunction*%
%TO.P,R30,2*%
%TO.N,/R4*%
%TA.AperFunction,SMDPad,CuDef*%
G36*
G01*
X78498200Y-101518500D02*
X78498200Y-101173500D01*
G75*
G02*
X78645700Y-101026000I147500J0D01*
G01*
X78940700Y-101026000D01*
G75*
G02*
X79088200Y-101173500I0J-147500D01*
G01*
X79088200Y-101518500D01*
G75*
G02*
X78940700Y-101666000I-147500J0D01*
G01*
X78645700Y-101666000D01*
G75*
G02*
X78498200Y-101518500I0J147500D01*
G01*
G37*
%TD.AperFunction*%
%TD*%
%TO.P,R31,1*%
%TO.N,/R5_R*%
%TA.AperFunction,SMDPad,CuDef*%
G36*
G01*
X61856400Y-101518500D02*
X61856400Y-101173500D01*
G75*
G02*
X62003900Y-101026000I147500J0D01*
G01*
X62298900Y-101026000D01*
G75*
G02*
X62446400Y-101173500I0J-147500D01*
G01*
X62446400Y-101518500D01*
G75*
G02*
X62298900Y-101666000I-147500J0D01*
G01*
X62003900Y-101666000D01*
G75*
G02*
X61856400Y-101518500I0J147500D01*
G01*
G37*
%TD.AperFunction*%
%TO.P,R31,2*%
%TO.N,/R5*%
%TA.AperFunction,SMDPad,CuDef*%
G36*
G01*
X62826400Y-101518500D02*
X62826400Y-101173500D01*
G75*
G02*
X62973900Y-101026000I147500J0D01*
G01*
X63268900Y-101026000D01*
G75*
G02*
X63416400Y-101173500I0J-147500D01*
G01*
X63416400Y-101518500D01*
G75*
G02*
X63268900Y-101666000I-147500J0D01*
G01*
X62973900Y-101666000D01*
G75*
G02*
X62826400Y-101518500I0J147500D01*
G01*
G37*
%TD.AperFunction*%
%TD*%
%TO.P,R32,1*%
%TO.N,/R2_R*%
%TA.AperFunction,SMDPad,CuDef*%
G36*
G01*
X71237200Y-82098100D02*
X71237200Y-82443100D01*
G75*
G02*
X71089700Y-82590600I-147500J0D01*
G01*
X70794700Y-82590600D01*
G75*
G02*
X70647200Y-82443100I0J147500D01*
G01*
X70647200Y-82098100D01*
G75*
G02*
X70794700Y-81950600I147500J0D01*
G01*
X71089700Y-81950600D01*
G75*
G02*
X71237200Y-82098100I0J-147500D01*
G01*
G37*
%TD.AperFunction*%
%TO.P,R32,2*%
%TO.N,/R2*%
%TA.AperFunction,SMDPad,CuDef*%
G36*
G01*
X70267200Y-82098100D02*
X70267200Y-82443100D01*
G75*
G02*
X70119700Y-82590600I-147500J0D01*
G01*
X69824700Y-82590600D01*
G75*
G02*
X69677200Y-82443100I0J147500D01*
G01*
X69677200Y-82098100D01*
G75*
G02*
X69824700Y-81950600I147500J0D01*
G01*
X70119700Y-81950600D01*
G75*
G02*
X70267200Y-82098100I0J-147500D01*
G01*
G37*
%TD.AperFunction*%
%TD*%
%TO.P,R33,1*%
%TO.N,/R3_R*%
%TA.AperFunction,SMDPad,CuDef*%
G36*
G01*
X59252900Y-94252000D02*
X58907900Y-94252000D01*
G75*
G02*
X58760400Y-94104500I0J147500D01*
G01*
X58760400Y-93809500D01*
G75*
G02*
X58907900Y-93662000I147500J0D01*
G01*
X59252900Y-93662000D01*
G75*
G02*
X59400400Y-93809500I0J-147500D01*
G01*
X59400400Y-94104500D01*
G75*
G02*
X59252900Y-94252000I-147500J0D01*
G01*
G37*
%TD.AperFunction*%
%TO.P,R33,2*%
%TO.N,/R3*%
%TA.AperFunction,SMDPad,CuDef*%
G36*
G01*
X59252900Y-93282000D02*
X58907900Y-93282000D01*
G75*
G02*
X58760400Y-93134500I0J147500D01*
G01*
X58760400Y-92839500D01*
G75*
G02*
X58907900Y-92692000I147500J0D01*
G01*
X59252900Y-92692000D01*
G75*
G02*
X59400400Y-92839500I0J-147500D01*
G01*
X59400400Y-93134500D01*
G75*
G02*
X59252900Y-93282000I-147500J0D01*
G01*
G37*
%TD.AperFunction*%
%TD*%
D15*
%TO.P,S1,1*%
%TO.N,/LGT_ON_BTN*%
X89343400Y-94743400D03*
%TO.P,S1,2*%
%TO.N,GND*%
X89343400Y-91143400D03*
%TO.P,S1,3*%
%TO.N,Net-(S1-Pad3)*%
X90793400Y-94743400D03*
%TO.P,S1,4*%
%TO.N,Net-(S1-Pad4)*%
X90793400Y-91143400D03*
%TD*%
%TA.AperFunction,SMDPad,CuDef*%
D16*
%TO.P,S2,4*%
%TO.N,Net-(S2-Pad4)*%
G36*
X86944554Y-77325065D02*
G01*
X87536219Y-78593896D01*
X86584596Y-79037645D01*
X85992931Y-77768814D01*
X86944554Y-77325065D01*
G37*
%TD.AperFunction*%
%TA.AperFunction,SMDPad,CuDef*%
%TO.P,S2,3*%
%TO.N,Net-(S2-Pad3)*%
G36*
X88465980Y-80587773D02*
G01*
X89057645Y-81856604D01*
X88106022Y-82300353D01*
X87514357Y-81031522D01*
X88465980Y-80587773D01*
G37*
%TD.AperFunction*%
%TA.AperFunction,SMDPad,CuDef*%
%TO.P,S2,2*%
%TO.N,GND*%
G36*
X85630408Y-77937862D02*
G01*
X86222073Y-79206693D01*
X85270450Y-79650442D01*
X84678785Y-78381611D01*
X85630408Y-77937862D01*
G37*
%TD.AperFunction*%
%TA.AperFunction,SMDPad,CuDef*%
%TO.P,S2,1*%
%TO.N,/UP_BTN*%
G36*
X87151833Y-81200570D02*
G01*
X87743498Y-82469401D01*
X86791875Y-82913150D01*
X86200210Y-81644319D01*
X87151833Y-81200570D01*
G37*
%TD.AperFunction*%
%TD*%
%TA.AperFunction,SMDPad,CuDef*%
%TO.P,S3,4*%
%TO.N,Net-(S3-Pad4)*%
G36*
X89311215Y-104480111D02*
G01*
X88719550Y-105748942D01*
X87767927Y-105305193D01*
X88359592Y-104036362D01*
X89311215Y-104480111D01*
G37*
%TD.AperFunction*%
%TA.AperFunction,SMDPad,CuDef*%
%TO.P,S3,3*%
%TO.N,Net-(S3-Pad3)*%
G36*
X87789790Y-107742819D02*
G01*
X87198125Y-109011650D01*
X86246502Y-108567901D01*
X86838167Y-107299070D01*
X87789790Y-107742819D01*
G37*
%TD.AperFunction*%
%TA.AperFunction,SMDPad,CuDef*%
%TO.P,S3,2*%
%TO.N,GND*%
G36*
X87997069Y-103867314D02*
G01*
X87405404Y-105136145D01*
X86453781Y-104692396D01*
X87045446Y-103423565D01*
X87997069Y-103867314D01*
G37*
%TD.AperFunction*%
%TA.AperFunction,SMDPad,CuDef*%
%TO.P,S3,1*%
%TO.N,/DWN_BTN*%
G36*
X86475643Y-107130022D02*
G01*
X85883978Y-108398853D01*
X84932355Y-107955104D01*
X85524020Y-106686273D01*
X86475643Y-107130022D01*
G37*
%TD.AperFunction*%
%TD*%
%TO.P,U1,1*%
%TO.N,/RTC_INTO*%
%TA.AperFunction,SMDPad,CuDef*%
G36*
G01*
X72969400Y-91809900D02*
X72969400Y-91684900D01*
G75*
G02*
X73031900Y-91622400I62500J0D01*
G01*
X73781900Y-91622400D01*
G75*
G02*
X73844400Y-91684900I0J-62500D01*
G01*
X73844400Y-91809900D01*
G75*
G02*
X73781900Y-91872400I-62500J0D01*
G01*
X73031900Y-91872400D01*
G75*
G02*
X72969400Y-91809900I0J62500D01*
G01*
G37*
%TD.AperFunction*%
%TO.P,U1,2*%
%TO.N,/UP_BTN*%
%TA.AperFunction,SMDPad,CuDef*%
G36*
G01*
X72969400Y-92309900D02*
X72969400Y-92184900D01*
G75*
G02*
X73031900Y-92122400I62500J0D01*
G01*
X73781900Y-92122400D01*
G75*
G02*
X73844400Y-92184900I0J-62500D01*
G01*
X73844400Y-92309900D01*
G75*
G02*
X73781900Y-92372400I-62500J0D01*
G01*
X73031900Y-92372400D01*
G75*
G02*
X72969400Y-92309900I0J62500D01*
G01*
G37*
%TD.AperFunction*%
%TO.P,U1,3*%
%TO.N,/+3V0_MON_LED*%
%TA.AperFunction,SMDPad,CuDef*%
G36*
G01*
X72969400Y-92809900D02*
X72969400Y-92684900D01*
G75*
G02*
X73031900Y-92622400I62500J0D01*
G01*
X73781900Y-92622400D01*
G75*
G02*
X73844400Y-92684900I0J-62500D01*
G01*
X73844400Y-92809900D01*
G75*
G02*
X73781900Y-92872400I-62500J0D01*
G01*
X73031900Y-92872400D01*
G75*
G02*
X72969400Y-92809900I0J62500D01*
G01*
G37*
%TD.AperFunction*%
%TO.P,U1,4*%
%TO.N,+3V0*%
%TA.AperFunction,SMDPad,CuDef*%
G36*
G01*
X72969400Y-93309900D02*
X72969400Y-93184900D01*
G75*
G02*
X73031900Y-93122400I62500J0D01*
G01*
X73781900Y-93122400D01*
G75*
G02*
X73844400Y-93184900I0J-62500D01*
G01*
X73844400Y-93309900D01*
G75*
G02*
X73781900Y-93372400I-62500J0D01*
G01*
X73031900Y-93372400D01*
G75*
G02*
X72969400Y-93309900I0J62500D01*
G01*
G37*
%TD.AperFunction*%
%TO.P,U1,5*%
%TO.N,GND*%
%TA.AperFunction,SMDPad,CuDef*%
G36*
G01*
X72969400Y-93809900D02*
X72969400Y-93684900D01*
G75*
G02*
X73031900Y-93622400I62500J0D01*
G01*
X73781900Y-93622400D01*
G75*
G02*
X73844400Y-93684900I0J-62500D01*
G01*
X73844400Y-93809900D01*
G75*
G02*
X73781900Y-93872400I-62500J0D01*
G01*
X73031900Y-93872400D01*
G75*
G02*
X72969400Y-93809900I0J62500D01*
G01*
G37*
%TD.AperFunction*%
%TO.P,U1,6*%
%TO.N,/PE1*%
%TA.AperFunction,SMDPad,CuDef*%
G36*
G01*
X72969400Y-94309900D02*
X72969400Y-94184900D01*
G75*
G02*
X73031900Y-94122400I62500J0D01*
G01*
X73781900Y-94122400D01*
G75*
G02*
X73844400Y-94184900I0J-62500D01*
G01*
X73844400Y-94309900D01*
G75*
G02*
X73781900Y-94372400I-62500J0D01*
G01*
X73031900Y-94372400D01*
G75*
G02*
X72969400Y-94309900I0J62500D01*
G01*
G37*
%TD.AperFunction*%
%TO.P,U1,7*%
%TO.N,/PB6*%
%TA.AperFunction,SMDPad,CuDef*%
G36*
G01*
X72969400Y-94809900D02*
X72969400Y-94684900D01*
G75*
G02*
X73031900Y-94622400I62500J0D01*
G01*
X73781900Y-94622400D01*
G75*
G02*
X73844400Y-94684900I0J-62500D01*
G01*
X73844400Y-94809900D01*
G75*
G02*
X73781900Y-94872400I-62500J0D01*
G01*
X73031900Y-94872400D01*
G75*
G02*
X72969400Y-94809900I0J62500D01*
G01*
G37*
%TD.AperFunction*%
%TO.P,U1,8*%
%TO.N,/PB7*%
%TA.AperFunction,SMDPad,CuDef*%
G36*
G01*
X72969400Y-95309900D02*
X72969400Y-95184900D01*
G75*
G02*
X73031900Y-95122400I62500J0D01*
G01*
X73781900Y-95122400D01*
G75*
G02*
X73844400Y-95184900I0J-62500D01*
G01*
X73844400Y-95309900D01*
G75*
G02*
X73781900Y-95372400I-62500J0D01*
G01*
X73031900Y-95372400D01*
G75*
G02*
X72969400Y-95309900I0J62500D01*
G01*
G37*
%TD.AperFunction*%
%TO.P,U1,9*%
%TO.N,/DWN_BTN*%
%TA.AperFunction,SMDPad,CuDef*%
G36*
G01*
X73969400Y-96309900D02*
X73969400Y-95559900D01*
G75*
G02*
X74031900Y-95497400I62500J0D01*
G01*
X74156900Y-95497400D01*
G75*
G02*
X74219400Y-95559900I0J-62500D01*
G01*
X74219400Y-96309900D01*
G75*
G02*
X74156900Y-96372400I-62500J0D01*
G01*
X74031900Y-96372400D01*
G75*
G02*
X73969400Y-96309900I0J62500D01*
G01*
G37*
%TD.AperFunction*%
%TO.P,U1,10*%
%TO.N,/R4_R*%
%TA.AperFunction,SMDPad,CuDef*%
G36*
G01*
X74469400Y-96309900D02*
X74469400Y-95559900D01*
G75*
G02*
X74531900Y-95497400I62500J0D01*
G01*
X74656900Y-95497400D01*
G75*
G02*
X74719400Y-95559900I0J-62500D01*
G01*
X74719400Y-96309900D01*
G75*
G02*
X74656900Y-96372400I-62500J0D01*
G01*
X74531900Y-96372400D01*
G75*
G02*
X74469400Y-96309900I0J62500D01*
G01*
G37*
%TD.AperFunction*%
%TO.P,U1,11*%
%TO.N,/R5_R*%
%TA.AperFunction,SMDPad,CuDef*%
G36*
G01*
X74969400Y-96309900D02*
X74969400Y-95559900D01*
G75*
G02*
X75031900Y-95497400I62500J0D01*
G01*
X75156900Y-95497400D01*
G75*
G02*
X75219400Y-95559900I0J-62500D01*
G01*
X75219400Y-96309900D01*
G75*
G02*
X75156900Y-96372400I-62500J0D01*
G01*
X75031900Y-96372400D01*
G75*
G02*
X74969400Y-96309900I0J62500D01*
G01*
G37*
%TD.AperFunction*%
%TO.P,U1,12*%
%TO.N,/C1*%
%TA.AperFunction,SMDPad,CuDef*%
G36*
G01*
X75469400Y-96309900D02*
X75469400Y-95559900D01*
G75*
G02*
X75531900Y-95497400I62500J0D01*
G01*
X75656900Y-95497400D01*
G75*
G02*
X75719400Y-95559900I0J-62500D01*
G01*
X75719400Y-96309900D01*
G75*
G02*
X75656900Y-96372400I-62500J0D01*
G01*
X75531900Y-96372400D01*
G75*
G02*
X75469400Y-96309900I0J62500D01*
G01*
G37*
%TD.AperFunction*%
%TO.P,U1,13*%
%TO.N,/C2*%
%TA.AperFunction,SMDPad,CuDef*%
G36*
G01*
X75969400Y-96309900D02*
X75969400Y-95559900D01*
G75*
G02*
X76031900Y-95497400I62500J0D01*
G01*
X76156900Y-95497400D01*
G75*
G02*
X76219400Y-95559900I0J-62500D01*
G01*
X76219400Y-96309900D01*
G75*
G02*
X76156900Y-96372400I-62500J0D01*
G01*
X76031900Y-96372400D01*
G75*
G02*
X75969400Y-96309900I0J62500D01*
G01*
G37*
%TD.AperFunction*%
%TO.P,U1,14*%
%TO.N,/C3*%
%TA.AperFunction,SMDPad,CuDef*%
G36*
G01*
X76469400Y-96309900D02*
X76469400Y-95559900D01*
G75*
G02*
X76531900Y-95497400I62500J0D01*
G01*
X76656900Y-95497400D01*
G75*
G02*
X76719400Y-95559900I0J-62500D01*
G01*
X76719400Y-96309900D01*
G75*
G02*
X76656900Y-96372400I-62500J0D01*
G01*
X76531900Y-96372400D01*
G75*
G02*
X76469400Y-96309900I0J62500D01*
G01*
G37*
%TD.AperFunction*%
%TO.P,U1,15*%
%TO.N,/ICSP_MOSI*%
%TA.AperFunction,SMDPad,CuDef*%
G36*
G01*
X76969400Y-96309900D02*
X76969400Y-95559900D01*
G75*
G02*
X77031900Y-95497400I62500J0D01*
G01*
X77156900Y-95497400D01*
G75*
G02*
X77219400Y-95559900I0J-62500D01*
G01*
X77219400Y-96309900D01*
G75*
G02*
X77156900Y-96372400I-62500J0D01*
G01*
X77031900Y-96372400D01*
G75*
G02*
X76969400Y-96309900I0J62500D01*
G01*
G37*
%TD.AperFunction*%
%TO.P,U1,16*%
%TO.N,/ICSP_MISO*%
%TA.AperFunction,SMDPad,CuDef*%
G36*
G01*
X77469400Y-96309900D02*
X77469400Y-95559900D01*
G75*
G02*
X77531900Y-95497400I62500J0D01*
G01*
X77656900Y-95497400D01*
G75*
G02*
X77719400Y-95559900I0J-62500D01*
G01*
X77719400Y-96309900D01*
G75*
G02*
X77656900Y-96372400I-62500J0D01*
G01*
X77531900Y-96372400D01*
G75*
G02*
X77469400Y-96309900I0J62500D01*
G01*
G37*
%TD.AperFunction*%
%TO.P,U1,17*%
%TO.N,/ICSP_SCK*%
%TA.AperFunction,SMDPad,CuDef*%
G36*
G01*
X77844400Y-95309900D02*
X77844400Y-95184900D01*
G75*
G02*
X77906900Y-95122400I62500J0D01*
G01*
X78656900Y-95122400D01*
G75*
G02*
X78719400Y-95184900I0J-62500D01*
G01*
X78719400Y-95309900D01*
G75*
G02*
X78656900Y-95372400I-62500J0D01*
G01*
X77906900Y-95372400D01*
G75*
G02*
X77844400Y-95309900I0J62500D01*
G01*
G37*
%TD.AperFunction*%
%TO.P,U1,18*%
%TO.N,+3V0*%
%TA.AperFunction,SMDPad,CuDef*%
G36*
G01*
X77844400Y-94809900D02*
X77844400Y-94684900D01*
G75*
G02*
X77906900Y-94622400I62500J0D01*
G01*
X78656900Y-94622400D01*
G75*
G02*
X78719400Y-94684900I0J-62500D01*
G01*
X78719400Y-94809900D01*
G75*
G02*
X78656900Y-94872400I-62500J0D01*
G01*
X77906900Y-94872400D01*
G75*
G02*
X77844400Y-94809900I0J62500D01*
G01*
G37*
%TD.AperFunction*%
%TO.P,U1,19*%
%TO.N,/+3V0_VOL_MON*%
%TA.AperFunction,SMDPad,CuDef*%
G36*
G01*
X77844400Y-94309900D02*
X77844400Y-94184900D01*
G75*
G02*
X77906900Y-94122400I62500J0D01*
G01*
X78656900Y-94122400D01*
G75*
G02*
X78719400Y-94184900I0J-62500D01*
G01*
X78719400Y-94309900D01*
G75*
G02*
X78656900Y-94372400I-62500J0D01*
G01*
X77906900Y-94372400D01*
G75*
G02*
X77844400Y-94309900I0J62500D01*
G01*
G37*
%TD.AperFunction*%
%TO.P,U1,20*%
%TO.N,/AREF*%
%TA.AperFunction,SMDPad,CuDef*%
G36*
G01*
X77844400Y-93809900D02*
X77844400Y-93684900D01*
G75*
G02*
X77906900Y-93622400I62500J0D01*
G01*
X78656900Y-93622400D01*
G75*
G02*
X78719400Y-93684900I0J-62500D01*
G01*
X78719400Y-93809900D01*
G75*
G02*
X78656900Y-93872400I-62500J0D01*
G01*
X77906900Y-93872400D01*
G75*
G02*
X77844400Y-93809900I0J62500D01*
G01*
G37*
%TD.AperFunction*%
%TO.P,U1,21*%
%TO.N,GND*%
%TA.AperFunction,SMDPad,CuDef*%
G36*
G01*
X77844400Y-93309900D02*
X77844400Y-93184900D01*
G75*
G02*
X77906900Y-93122400I62500J0D01*
G01*
X78656900Y-93122400D01*
G75*
G02*
X78719400Y-93184900I0J-62500D01*
G01*
X78719400Y-93309900D01*
G75*
G02*
X78656900Y-93372400I-62500J0D01*
G01*
X77906900Y-93372400D01*
G75*
G02*
X77844400Y-93309900I0J62500D01*
G01*
G37*
%TD.AperFunction*%
%TO.P,U1,22*%
%TO.N,/R6_R*%
%TA.AperFunction,SMDPad,CuDef*%
G36*
G01*
X77844400Y-92809900D02*
X77844400Y-92684900D01*
G75*
G02*
X77906900Y-92622400I62500J0D01*
G01*
X78656900Y-92622400D01*
G75*
G02*
X78719400Y-92684900I0J-62500D01*
G01*
X78719400Y-92809900D01*
G75*
G02*
X78656900Y-92872400I-62500J0D01*
G01*
X77906900Y-92872400D01*
G75*
G02*
X77844400Y-92809900I0J62500D01*
G01*
G37*
%TD.AperFunction*%
%TO.P,U1,23*%
%TO.N,/C4*%
%TA.AperFunction,SMDPad,CuDef*%
G36*
G01*
X77844400Y-92309900D02*
X77844400Y-92184900D01*
G75*
G02*
X77906900Y-92122400I62500J0D01*
G01*
X78656900Y-92122400D01*
G75*
G02*
X78719400Y-92184900I0J-62500D01*
G01*
X78719400Y-92309900D01*
G75*
G02*
X78656900Y-92372400I-62500J0D01*
G01*
X77906900Y-92372400D01*
G75*
G02*
X77844400Y-92309900I0J62500D01*
G01*
G37*
%TD.AperFunction*%
%TO.P,U1,24*%
%TO.N,/C5*%
%TA.AperFunction,SMDPad,CuDef*%
G36*
G01*
X77844400Y-91809900D02*
X77844400Y-91684900D01*
G75*
G02*
X77906900Y-91622400I62500J0D01*
G01*
X78656900Y-91622400D01*
G75*
G02*
X78719400Y-91684900I0J-62500D01*
G01*
X78719400Y-91809900D01*
G75*
G02*
X78656900Y-91872400I-62500J0D01*
G01*
X77906900Y-91872400D01*
G75*
G02*
X77844400Y-91809900I0J62500D01*
G01*
G37*
%TD.AperFunction*%
%TO.P,U1,25*%
%TO.N,/C6*%
%TA.AperFunction,SMDPad,CuDef*%
G36*
G01*
X77469400Y-91434900D02*
X77469400Y-90684900D01*
G75*
G02*
X77531900Y-90622400I62500J0D01*
G01*
X77656900Y-90622400D01*
G75*
G02*
X77719400Y-90684900I0J-62500D01*
G01*
X77719400Y-91434900D01*
G75*
G02*
X77656900Y-91497400I-62500J0D01*
G01*
X77531900Y-91497400D01*
G75*
G02*
X77469400Y-91434900I0J62500D01*
G01*
G37*
%TD.AperFunction*%
%TO.P,U1,26*%
%TO.N,/R1_R*%
%TA.AperFunction,SMDPad,CuDef*%
G36*
G01*
X76969400Y-91434900D02*
X76969400Y-90684900D01*
G75*
G02*
X77031900Y-90622400I62500J0D01*
G01*
X77156900Y-90622400D01*
G75*
G02*
X77219400Y-90684900I0J-62500D01*
G01*
X77219400Y-91434900D01*
G75*
G02*
X77156900Y-91497400I-62500J0D01*
G01*
X77031900Y-91497400D01*
G75*
G02*
X76969400Y-91434900I0J62500D01*
G01*
G37*
%TD.AperFunction*%
%TO.P,U1,27*%
%TO.N,/RTC_SDA*%
%TA.AperFunction,SMDPad,CuDef*%
G36*
G01*
X76469400Y-91434900D02*
X76469400Y-90684900D01*
G75*
G02*
X76531900Y-90622400I62500J0D01*
G01*
X76656900Y-90622400D01*
G75*
G02*
X76719400Y-90684900I0J-62500D01*
G01*
X76719400Y-91434900D01*
G75*
G02*
X76656900Y-91497400I-62500J0D01*
G01*
X76531900Y-91497400D01*
G75*
G02*
X76469400Y-91434900I0J62500D01*
G01*
G37*
%TD.AperFunction*%
%TO.P,U1,28*%
%TO.N,/RTC_SCL*%
%TA.AperFunction,SMDPad,CuDef*%
G36*
G01*
X75969400Y-91434900D02*
X75969400Y-90684900D01*
G75*
G02*
X76031900Y-90622400I62500J0D01*
G01*
X76156900Y-90622400D01*
G75*
G02*
X76219400Y-90684900I0J-62500D01*
G01*
X76219400Y-91434900D01*
G75*
G02*
X76156900Y-91497400I-62500J0D01*
G01*
X76031900Y-91497400D01*
G75*
G02*
X75969400Y-91434900I0J62500D01*
G01*
G37*
%TD.AperFunction*%
%TO.P,U1,29*%
%TO.N,/MCU_RSTn*%
%TA.AperFunction,SMDPad,CuDef*%
G36*
G01*
X75469400Y-91434900D02*
X75469400Y-90684900D01*
G75*
G02*
X75531900Y-90622400I62500J0D01*
G01*
X75656900Y-90622400D01*
G75*
G02*
X75719400Y-90684900I0J-62500D01*
G01*
X75719400Y-91434900D01*
G75*
G02*
X75656900Y-91497400I-62500J0D01*
G01*
X75531900Y-91497400D01*
G75*
G02*
X75469400Y-91434900I0J62500D01*
G01*
G37*
%TD.AperFunction*%
%TO.P,U1,30*%
%TO.N,/R2_R*%
%TA.AperFunction,SMDPad,CuDef*%
G36*
G01*
X74969400Y-91434900D02*
X74969400Y-90684900D01*
G75*
G02*
X75031900Y-90622400I62500J0D01*
G01*
X75156900Y-90622400D01*
G75*
G02*
X75219400Y-90684900I0J-62500D01*
G01*
X75219400Y-91434900D01*
G75*
G02*
X75156900Y-91497400I-62500J0D01*
G01*
X75031900Y-91497400D01*
G75*
G02*
X74969400Y-91434900I0J62500D01*
G01*
G37*
%TD.AperFunction*%
%TO.P,U1,31*%
%TO.N,/R3_R*%
%TA.AperFunction,SMDPad,CuDef*%
G36*
G01*
X74469400Y-91434900D02*
X74469400Y-90684900D01*
G75*
G02*
X74531900Y-90622400I62500J0D01*
G01*
X74656900Y-90622400D01*
G75*
G02*
X74719400Y-90684900I0J-62500D01*
G01*
X74719400Y-91434900D01*
G75*
G02*
X74656900Y-91497400I-62500J0D01*
G01*
X74531900Y-91497400D01*
G75*
G02*
X74469400Y-91434900I0J62500D01*
G01*
G37*
%TD.AperFunction*%
%TO.P,U1,32*%
%TO.N,/LGT_ON_BTN*%
%TA.AperFunction,SMDPad,CuDef*%
G36*
G01*
X73969400Y-91434900D02*
X73969400Y-90684900D01*
G75*
G02*
X74031900Y-90622400I62500J0D01*
G01*
X74156900Y-90622400D01*
G75*
G02*
X74219400Y-90684900I0J-62500D01*
G01*
X74219400Y-91434900D01*
G75*
G02*
X74156900Y-91497400I-62500J0D01*
G01*
X74031900Y-91497400D01*
G75*
G02*
X73969400Y-91434900I0J62500D01*
G01*
G37*
%TD.AperFunction*%
D17*
%TO.P,U1,33*%
%TO.N,GND*%
X75844400Y-93497400D03*
%TD*%
%TO.P,C19,1*%
%TO.N,/C6_T*%
%TA.AperFunction,SMDPad,CuDef*%
G36*
G01*
X65303651Y-100851389D02*
X65476150Y-100552611D01*
G75*
G02*
X65677639Y-100498622I127739J-73750D01*
G01*
X65933117Y-100646122D01*
G75*
G02*
X65987106Y-100847611I-73750J-127739D01*
G01*
X65814606Y-101146389D01*
G75*
G02*
X65613117Y-101200378I-127739J73750D01*
G01*
X65357639Y-101052878D01*
G75*
G02*
X65303650Y-100851389I73750J127739D01*
G01*
G37*
%TD.AperFunction*%
%TO.P,C19,2*%
%TO.N,GND*%
%TA.AperFunction,SMDPad,CuDef*%
G36*
G01*
X66143695Y-101336389D02*
X66316194Y-101037611D01*
G75*
G02*
X66517683Y-100983622I127739J-73750D01*
G01*
X66773161Y-101131122D01*
G75*
G02*
X66827150Y-101332611I-73750J-127739D01*
G01*
X66654650Y-101631389D01*
G75*
G02*
X66453161Y-101685378I-127739J73750D01*
G01*
X66197683Y-101537878D01*
G75*
G02*
X66143694Y-101336389I73750J127739D01*
G01*
G37*
%TD.AperFunction*%
%TD*%
%TO.P,R7,1*%
%TO.N,/RTC_CLKO_EN*%
%TA.AperFunction,SMDPad,CuDef*%
G36*
G01*
X62085000Y-92347000D02*
X61740000Y-92347000D01*
G75*
G02*
X61592500Y-92199500I0J147500D01*
G01*
X61592500Y-91904500D01*
G75*
G02*
X61740000Y-91757000I147500J0D01*
G01*
X62085000Y-91757000D01*
G75*
G02*
X62232500Y-91904500I0J-147500D01*
G01*
X62232500Y-92199500D01*
G75*
G02*
X62085000Y-92347000I-147500J0D01*
G01*
G37*
%TD.AperFunction*%
%TO.P,R7,2*%
%TO.N,GND*%
%TA.AperFunction,SMDPad,CuDef*%
G36*
G01*
X62085000Y-91377000D02*
X61740000Y-91377000D01*
G75*
G02*
X61592500Y-91229500I0J147500D01*
G01*
X61592500Y-90934500D01*
G75*
G02*
X61740000Y-90787000I147500J0D01*
G01*
X62085000Y-90787000D01*
G75*
G02*
X62232500Y-90934500I0J-147500D01*
G01*
X62232500Y-91229500D01*
G75*
G02*
X62085000Y-91377000I-147500J0D01*
G01*
G37*
%TD.AperFunction*%
%TD*%
D18*
%TO.N,+3V0*%
X62738000Y-89357200D03*
D19*
X56680100Y-91313000D03*
X56680100Y-92313000D03*
X56680100Y-94678500D03*
X56680100Y-95678500D03*
X84239100Y-91186000D03*
X84239100Y-94551500D03*
X68981228Y-80817628D03*
X80035400Y-97307400D03*
X84331032Y-95551500D03*
X84259800Y-92186000D03*
X68877839Y-85360385D03*
X78206600Y-98145600D03*
X63855600Y-99745800D03*
X72339200Y-101650800D03*
X77960698Y-89623779D03*
D18*
X72339200Y-97409000D03*
D19*
X70421500Y-88519000D03*
D18*
X62293500Y-89852500D03*
X64722427Y-95618276D03*
X84074000Y-108140500D03*
X86360000Y-83820000D03*
X88011000Y-95948544D03*
X81801732Y-89743051D03*
%TO.N,GND*%
X81356200Y-97282000D03*
X80721200Y-96977200D03*
D19*
X68600506Y-98425000D03*
D18*
X74828400Y-92456000D03*
X75828400Y-92456000D03*
X76860400Y-92456000D03*
X74803000Y-93481400D03*
X75844400Y-93497400D03*
X76885800Y-93497400D03*
X74803000Y-94538800D03*
X75844400Y-94538800D03*
X76809600Y-94564200D03*
X80746600Y-97612200D03*
D19*
X66928999Y-100584000D03*
X64846200Y-86563200D03*
X69062600Y-84556600D03*
X71863679Y-102294150D03*
D18*
X67818000Y-82296000D03*
X71882000Y-84391500D03*
X67818000Y-83375500D03*
X77787500Y-82867500D03*
X68834000Y-106934000D03*
X62357000Y-103251000D03*
X65151000Y-105219500D03*
X57150000Y-98552000D03*
X64770000Y-99695000D03*
X67564000Y-102171500D03*
D19*
X76413628Y-100739082D03*
D18*
X80518000Y-87452200D03*
X76860400Y-86334600D03*
X60731400Y-88112600D03*
X68605400Y-91084400D03*
X70154800Y-91053610D03*
D19*
X75922568Y-86239510D03*
X64960499Y-96393001D03*
D18*
X62377010Y-93022005D03*
D19*
X62801500Y-91122500D03*
D18*
X61633100Y-97028000D03*
X70866004Y-91062510D03*
D19*
X84592920Y-87343945D03*
X88074495Y-89915995D03*
X86741000Y-102552500D03*
D18*
X81229200Y-89306398D03*
D19*
X83820000Y-78181200D03*
D18*
%TO.N,/LGT_ON_BTN*%
X73830983Y-88470436D03*
X88011000Y-92964000D03*
%TO.N,/UP_BTN*%
X72269736Y-88378136D03*
X84963000Y-81026000D03*
%TO.N,/MCU_RSTn*%
X68249800Y-99822000D03*
X79237087Y-89833582D03*
X75741805Y-90062612D03*
D19*
%TO.N,/C1_T*%
X74142612Y-102362000D03*
X78270100Y-99568000D03*
X78689200Y-87096600D03*
%TO.N,/C3_T*%
X75049317Y-80283208D03*
X72755983Y-84338387D03*
D18*
%TO.N,Net-(D1-Pad2)*%
X71814590Y-81626810D03*
X69045715Y-88221251D03*
D19*
%TO.N,/R1*%
X66340291Y-105540510D03*
X77138574Y-85018536D03*
X71551800Y-106235492D03*
X74777600Y-81076800D03*
X69062600Y-82899478D03*
%TO.N,/C6_T*%
X55880000Y-90297006D03*
X64820800Y-100457000D03*
%TO.N,/R2*%
X63398400Y-104038400D03*
X74714088Y-105635490D03*
X76047600Y-81851500D03*
%TO.N,/R3*%
X64490600Y-83185000D03*
X80429100Y-86487000D03*
X60236100Y-97258722D03*
X76007558Y-104979691D03*
X60628084Y-102073124D03*
%TO.N,/R4*%
X59983844Y-100455278D03*
X80783677Y-88255833D03*
X78508306Y-102644510D03*
X60938109Y-86373277D03*
D18*
X79547410Y-93035140D03*
D19*
%TO.N,/R5*%
X63930084Y-101661397D03*
X66865500Y-102806500D03*
X58902600Y-98552002D03*
X59236079Y-86000983D03*
X80619600Y-100380800D03*
X80213202Y-98374200D03*
X82182486Y-89077990D03*
%TO.N,/R6*%
X68935600Y-104330500D03*
X57819990Y-89217500D03*
X76085203Y-102811243D03*
D18*
%TO.N,Net-(Q5-Pad2)*%
X76403200Y-87020400D03*
X73342508Y-86550500D03*
%TO.N,Net-(Q6-Pad2)*%
X68389208Y-88572672D03*
X65605343Y-88125576D03*
D19*
%TO.N,/EXT_3V3_IN*%
X57315100Y-87630000D03*
X72491600Y-107822996D03*
D20*
%TO.N,/+3V0_MON_LED*%
X72318360Y-87057797D03*
D18*
%TO.N,/DBG_RX*%
X60845755Y-89890600D03*
D19*
%TO.N,/R2_R*%
X72361227Y-82292003D03*
X75554607Y-89074628D03*
X60059662Y-89694108D03*
%TO.N,/R3_R*%
X63601600Y-84759800D03*
X74980995Y-88516965D03*
X59528010Y-96837050D03*
D18*
%TO.N,/DBG_TX*%
X62088121Y-86588600D03*
%TO.N,/RTC_SCL*%
X69056532Y-87496935D03*
X76377800Y-89738200D03*
%TO.N,/RTC_SDA*%
X68478400Y-87045800D03*
X77078023Y-89754833D03*
%TO.N,/C6*%
X62637727Y-97506445D03*
X79200415Y-90616974D03*
%TO.N,/+3V0_VOL_MON*%
X70459584Y-98425008D03*
X79155190Y-94255975D03*
%TO.N,/C5*%
X67721790Y-100999190D03*
X78663800Y-91137984D03*
%TO.N,/C4*%
X77000084Y-100271549D03*
X79341531Y-91313191D03*
%TO.N,/C3*%
X77393800Y-87045800D03*
X79248191Y-97079978D03*
%TO.N,/C2*%
X63548400Y-87322800D03*
X76881554Y-97585739D03*
%TO.N,/C1*%
X76123800Y-97536000D03*
D20*
X71640611Y-87147491D03*
D19*
%TO.N,/R4_R*%
X75405073Y-98061871D03*
X76974933Y-102166636D03*
%TO.N,/R5_R*%
X75377283Y-97045856D03*
X61214554Y-100837445D03*
D18*
%TO.N,/ICSP_MOSI*%
X79136750Y-96388894D03*
%TO.N,/ICSP_MISO*%
X78453052Y-96209810D03*
%TO.N,/ICSP_SCK*%
X78948264Y-95701810D03*
%TO.N,/DWN_BTN*%
X72923400Y-96951800D03*
X85356186Y-105422186D03*
%TO.N,/RTC_INTO*%
X65468500Y-91186000D03*
X73047808Y-88444412D03*
%TO.N,/RTC_CLKO*%
X65474000Y-93922000D03*
%TO.N,/RTC_CLKO_EN*%
X62299002Y-93922000D03*
%TD*%
D21*
%TO.N,+3V0*%
X63474600Y-98803600D02*
X63497600Y-98780600D01*
X77396200Y-89027000D02*
X77396200Y-89042100D01*
X72561500Y-93247400D02*
X72301100Y-92987000D01*
X73406900Y-93247400D02*
X72561500Y-93247400D01*
X72301100Y-92987000D02*
X71729600Y-92987000D01*
X78209519Y-98323400D02*
X78299827Y-98233092D01*
D22*
X80035400Y-96212800D02*
X80035400Y-97307400D01*
D21*
X80058400Y-96189800D02*
X80035400Y-96212800D01*
X71729600Y-92136100D02*
X71541500Y-91948000D01*
X71729600Y-92987000D02*
X71729600Y-92136100D01*
X68956200Y-86207600D02*
X68877839Y-86129239D01*
X68877839Y-86129239D02*
X68877839Y-85360385D01*
X77927200Y-98425000D02*
X78206600Y-98145600D01*
X77370800Y-98425000D02*
X77927200Y-98425000D01*
X63497600Y-99387800D02*
X63855600Y-99745800D01*
X63497600Y-98780600D02*
X63497600Y-99387800D01*
X71960600Y-101272200D02*
X72339200Y-101650800D01*
X71960600Y-100711000D02*
X71960600Y-101272200D01*
X77960698Y-89464498D02*
X77960698Y-89623779D01*
X77396200Y-88900000D02*
X77960698Y-89464498D01*
X78783929Y-94747400D02*
X79498265Y-95461736D01*
X78281900Y-94747400D02*
X78783929Y-94747400D01*
X79498265Y-95461736D02*
X79498265Y-95629665D01*
X79498265Y-95629665D02*
X80058400Y-96189800D01*
X72326500Y-96527900D02*
X72326500Y-97396300D01*
X71963000Y-96164400D02*
X72326500Y-96527900D01*
X72326500Y-97396300D02*
X72339200Y-97409000D01*
X63546000Y-90089000D02*
X63546000Y-89255600D01*
X64071500Y-90614500D02*
X63546000Y-90089000D01*
X66167000Y-90614500D02*
X64071500Y-90614500D01*
X66954400Y-92161500D02*
X66954400Y-91401900D01*
X66954400Y-91401900D02*
X66167000Y-90614500D01*
X64709703Y-95631000D02*
X64722427Y-95618276D01*
X61912500Y-95989000D02*
X62270500Y-95631000D01*
X62270500Y-95631000D02*
X64709703Y-95631000D01*
D22*
X70421500Y-90258900D02*
X70421500Y-88519000D01*
X71221600Y-90487500D02*
X70650100Y-90487500D01*
X70650100Y-90487500D02*
X70421500Y-90258900D01*
X71541500Y-91948000D02*
X71541500Y-90807400D01*
X71541500Y-90807400D02*
X71221600Y-90487500D01*
D21*
X84347032Y-95567500D02*
X84331032Y-95551500D01*
X84074000Y-108140500D02*
X84440530Y-107437059D01*
X85929970Y-83116559D02*
X86360000Y-83820000D01*
X88011000Y-95227000D02*
X88011000Y-95948544D01*
X81079200Y-91528900D02*
X81374200Y-91528900D01*
X81801732Y-91101368D02*
X81801732Y-89743051D01*
X81374200Y-91528900D02*
X81801732Y-91101368D01*
%TO.N,GND*%
X75844400Y-93497400D02*
X74561700Y-93497400D01*
X74311700Y-93747400D02*
X73406900Y-93747400D01*
X74561700Y-93497400D02*
X74311700Y-93747400D01*
X76094400Y-93247400D02*
X78281900Y-93247400D01*
X75844400Y-93497400D02*
X76094400Y-93247400D01*
X70459600Y-93957000D02*
X71729600Y-93957000D01*
X75844400Y-93497400D02*
X75844609Y-93497609D01*
X71094600Y-93916500D02*
X71094600Y-92583000D01*
X70459600Y-93957000D02*
X71135100Y-93957000D01*
X71135100Y-93957000D02*
X71094600Y-93916500D01*
X70571500Y-92059900D02*
X71094600Y-92583000D01*
X70571500Y-91948000D02*
X70571500Y-92059900D01*
X72353414Y-93980000D02*
X71752600Y-93980000D01*
X73406900Y-93747400D02*
X72586014Y-93747400D01*
X71752600Y-93980000D02*
X71729600Y-93957000D01*
X72586014Y-93747400D02*
X72353414Y-93980000D01*
X66928999Y-100890923D02*
X66928999Y-100584000D01*
X66485422Y-101334500D02*
X66928999Y-100890923D01*
X65202078Y-86563200D02*
X64846200Y-86563200D01*
X65645378Y-86119900D02*
X65202078Y-86563200D01*
X69974600Y-84759800D02*
X69265800Y-84759800D01*
X69265800Y-84759800D02*
X69062600Y-84556600D01*
X71829929Y-102260400D02*
X71863679Y-102294150D01*
X70944600Y-102260400D02*
X71829929Y-102260400D01*
X76303210Y-100849500D02*
X76413628Y-100739082D01*
X75273822Y-100849500D02*
X76303210Y-100849500D01*
X70571500Y-91470310D02*
X70154800Y-91053610D01*
X70571500Y-91948000D02*
X70571500Y-91470310D01*
X75890658Y-86207600D02*
X75922568Y-86239510D01*
X75059400Y-86207600D02*
X75890658Y-86207600D01*
X68600506Y-96547894D02*
X68984000Y-96164400D01*
X68600506Y-98425000D02*
X68600506Y-96547894D01*
X65849500Y-96052500D02*
X65301000Y-96052500D01*
X65301000Y-96052500D02*
X64960499Y-96393001D01*
X63281000Y-93022000D02*
X62377015Y-93022000D01*
X62377015Y-93022000D02*
X62377010Y-93022005D01*
X62761000Y-91082000D02*
X62801500Y-91122500D01*
X61912500Y-91082000D02*
X62761000Y-91082000D01*
X70571500Y-91357014D02*
X70866004Y-91062510D01*
X70571500Y-91909900D02*
X70571500Y-91357014D01*
X87047625Y-104470355D02*
X87439500Y-104078480D01*
X88964500Y-90764500D02*
X89343400Y-91143400D01*
X88011000Y-90764500D02*
X88964500Y-90764500D01*
X88074500Y-89916000D02*
X88074495Y-89915995D01*
X88116000Y-89916000D02*
X88074500Y-89916000D01*
X88011000Y-89979490D02*
X88074495Y-89915995D01*
X88011000Y-90764500D02*
X88011000Y-89979490D01*
X86310970Y-103319441D02*
X87225425Y-104279855D01*
X86741000Y-102552500D02*
X86310970Y-103319441D01*
X84045060Y-79003882D02*
X85450429Y-78794152D01*
X81079200Y-90462100D02*
X81079200Y-89456398D01*
X81079200Y-89456398D02*
X81229200Y-89306398D01*
X84045060Y-78406260D02*
X83820000Y-78181200D01*
X84045060Y-79003882D02*
X84045060Y-78406260D01*
D23*
%TO.N,/LGT_ON_BTN*%
X73413799Y-90647699D02*
X73413799Y-88887620D01*
X73826000Y-91059900D02*
X73413799Y-90647699D01*
X74094400Y-91059900D02*
X73826000Y-91059900D01*
X73413799Y-88887620D02*
X73830983Y-88470436D01*
X89343400Y-94743400D02*
X89343400Y-94613900D01*
X88986500Y-94257000D02*
X88011000Y-94257000D01*
X89343400Y-94613900D02*
X88986500Y-94257000D01*
X88011000Y-92964000D02*
X88011000Y-94257000D01*
X88011000Y-91734500D02*
X88011000Y-92964000D01*
%TO.N,/UP_BTN*%
X72566978Y-90376930D02*
X72566978Y-88675378D01*
X73406900Y-92247400D02*
X72752900Y-92247400D01*
X72579085Y-92073585D02*
X72579085Y-90389037D01*
X72566978Y-88675378D02*
X72269736Y-88378136D01*
X72579085Y-90389037D02*
X72566978Y-90376930D01*
X72752900Y-92247400D02*
X72579085Y-92073585D01*
X84455000Y-79883000D02*
X85520030Y-82237441D01*
X85520030Y-82237441D02*
X86281640Y-82056860D01*
X86971854Y-82056860D02*
X86281640Y-82056860D01*
D21*
%TO.N,/AREF*%
X78281900Y-93747400D02*
X78323335Y-93705965D01*
X79705200Y-93926170D02*
X79705200Y-94744400D01*
X79705200Y-94744400D02*
X80058400Y-95097600D01*
X78323335Y-93705965D02*
X79484995Y-93705965D01*
X79484995Y-93705965D02*
X79705200Y-93926170D01*
D23*
%TO.N,/MCU_RSTn*%
X80109200Y-91528900D02*
X80109200Y-90462100D01*
X80109200Y-90462100D02*
X79865605Y-90462100D01*
X79865605Y-90462100D02*
X79237087Y-89833582D01*
X75594400Y-91059900D02*
X75594400Y-90210017D01*
X75594400Y-90210017D02*
X75741805Y-90062612D01*
D21*
%TO.N,/C1_T*%
X70944600Y-83566000D02*
X70944600Y-84759800D01*
X74179512Y-102325100D02*
X74142612Y-102362000D01*
X75017978Y-102325100D02*
X74179512Y-102325100D01*
X78853100Y-98985000D02*
X78270100Y-99568000D01*
X78853100Y-98870422D02*
X78853100Y-98985000D01*
X78689200Y-87985878D02*
X78689200Y-87096600D01*
X78802300Y-88098978D02*
X78689200Y-87985878D01*
X76557722Y-84404200D02*
X75858022Y-85103900D01*
X78511400Y-84404200D02*
X76557722Y-84404200D01*
X79409599Y-85302399D02*
X78511400Y-84404200D01*
X78802300Y-88098978D02*
X79409599Y-87491679D01*
X79409599Y-87491679D02*
X79409599Y-85302399D01*
X70944600Y-85214600D02*
X70944600Y-84759800D01*
X70459600Y-87528400D02*
X70434200Y-87503000D01*
X70434200Y-85725000D02*
X70944600Y-85214600D01*
X70434200Y-87503000D02*
X70434200Y-85725000D01*
X78711498Y-99126602D02*
X78270100Y-99568000D01*
X80730798Y-99126602D02*
X78711498Y-99126602D01*
X81915000Y-97942400D02*
X80730798Y-99126602D01*
X81003000Y-93957000D02*
X81915000Y-94869000D01*
X80391000Y-93957000D02*
X81003000Y-93957000D01*
X81915000Y-94869000D02*
X81915000Y-97942400D01*
X72897002Y-83566000D02*
X70944600Y-83566000D01*
X74738502Y-85407500D02*
X72897002Y-83566000D01*
X75858022Y-85103900D02*
X75554422Y-85407500D01*
X75554422Y-85407500D02*
X74738502Y-85407500D01*
%TO.N,/C2_T*%
X66852800Y-86002278D02*
X66485422Y-85634900D01*
X66852800Y-87544400D02*
X66852800Y-86002278D01*
X66485422Y-85634900D02*
X66612700Y-85634900D01*
X66485422Y-85634900D02*
X66485422Y-85433822D01*
X69974600Y-103454200D02*
X66014600Y-103454200D01*
X65086578Y-102526178D02*
X65086578Y-101840100D01*
X66014600Y-103454200D02*
X65086578Y-102526178D01*
X65010100Y-85078500D02*
X65061178Y-85078500D01*
X62839600Y-88430100D02*
X62839600Y-87249000D01*
X61606500Y-88939022D02*
X62330678Y-88939022D01*
X62839600Y-87249000D02*
X65010100Y-85078500D01*
X62330678Y-88939022D02*
X62839600Y-88430100D01*
X62470378Y-98030378D02*
X61606500Y-98030378D01*
X62839600Y-98399600D02*
X62470378Y-98030378D01*
X62839600Y-99593122D02*
X62839600Y-98399600D01*
X65086578Y-101840100D02*
X62839600Y-99593122D01*
X66194522Y-85344000D02*
X66485422Y-85634900D01*
X65061178Y-85078500D02*
X65326678Y-85344000D01*
X65326678Y-85344000D02*
X66194522Y-85344000D01*
X60502800Y-93012400D02*
X59131200Y-91640800D01*
X58394600Y-92377400D02*
X59131200Y-91640800D01*
X58394600Y-94411800D02*
X58394600Y-92377400D01*
X61372244Y-98264634D02*
X60088434Y-98264634D01*
X60088434Y-98264634D02*
X58928000Y-97104200D01*
X58928000Y-97104200D02*
X58928000Y-94945200D01*
X61606500Y-98030378D02*
X61372244Y-98264634D01*
X58928000Y-94945200D02*
X58394600Y-94411800D01*
X61606500Y-88939022D02*
X59790574Y-88939022D01*
X59790574Y-88939022D02*
X59131200Y-89598396D01*
X59131200Y-89598396D02*
X59131200Y-91465400D01*
X59131200Y-91640800D02*
X59131200Y-91465400D01*
%TO.N,/C3_T*%
X83604100Y-92519500D02*
X83604100Y-89992247D01*
X84178000Y-93472000D02*
X84178000Y-93093400D01*
X83604100Y-89992247D02*
X83678874Y-89917473D01*
X84178000Y-93093400D02*
X83604100Y-92519500D01*
X74014127Y-80252726D02*
X74014127Y-80138473D01*
X77306100Y-81621978D02*
X80149747Y-83807253D01*
X82335022Y-86625500D02*
X83678874Y-89917473D01*
X80149747Y-83807253D02*
X82335022Y-86625500D01*
X74089400Y-87937370D02*
X74380993Y-88228963D01*
X74380993Y-89255207D02*
X74091800Y-89544400D01*
X74089400Y-86207600D02*
X74089400Y-87937370D01*
X74380993Y-88228963D02*
X74380993Y-89255207D01*
X75967330Y-80283208D02*
X75049317Y-80283208D01*
X74014127Y-80252726D02*
X75018835Y-80252726D01*
X77306100Y-81621978D02*
X75967330Y-80283208D01*
X75018835Y-80252726D02*
X75049317Y-80283208D01*
X74089400Y-85671804D02*
X72755983Y-84338387D01*
X74089400Y-86207600D02*
X74089400Y-85671804D01*
%TO.N,/C4_T*%
X74079100Y-97463100D02*
X74066400Y-97450400D01*
X83704274Y-97026527D02*
X82335022Y-100343900D01*
X82335022Y-100343900D02*
X80149747Y-103187547D01*
X80149747Y-103187547D02*
X77306100Y-105347422D01*
X77306100Y-105347422D02*
X74014127Y-106716674D01*
X74014127Y-106716674D02*
X70459600Y-107190400D01*
X69890500Y-107190400D02*
X70459600Y-107190400D01*
X69507100Y-106807000D02*
X69890500Y-107190400D01*
X69507100Y-105727500D02*
X69507100Y-106807000D01*
X70015100Y-105219500D02*
X69507100Y-105727500D01*
X74422278Y-101346000D02*
X73761600Y-101346000D01*
X72593200Y-102514400D02*
X72593200Y-104444800D01*
X74433778Y-101334500D02*
X74422278Y-101346000D01*
X73761600Y-101346000D02*
X72593200Y-102514400D01*
X71818500Y-105219500D02*
X70015100Y-105219500D01*
X72593200Y-104444800D02*
X71818500Y-105219500D01*
X73888600Y-100647500D02*
X74433778Y-101192678D01*
X74433778Y-101192678D02*
X74433778Y-101334500D01*
X74066400Y-97450400D02*
X73237600Y-97450400D01*
X72186800Y-98501200D02*
X72186800Y-99866450D01*
X72186800Y-99866450D02*
X72967850Y-100647500D01*
X73237600Y-97450400D02*
X72186800Y-98501200D01*
X72967850Y-100647500D02*
X73888600Y-100647500D01*
%TO.N,/C5_T*%
X66905073Y-106716674D02*
X63613100Y-105347422D01*
X63613100Y-105347422D02*
X60769453Y-103187547D01*
X58584178Y-100343900D02*
X57214926Y-97001127D01*
X69974600Y-101704000D02*
X69974600Y-102171500D01*
X70332600Y-101346000D02*
X69974600Y-101704000D01*
X70459600Y-99450400D02*
X70332600Y-99577400D01*
X70332600Y-99577400D02*
X70332600Y-101346000D01*
X56766600Y-93876998D02*
X56766600Y-93472000D01*
X57315100Y-94425498D02*
X56766600Y-93876998D01*
X57315100Y-97314086D02*
X57315100Y-94425498D01*
X57214926Y-97001127D02*
X57214926Y-97213912D01*
X57214926Y-97213912D02*
X57315100Y-97314086D01*
X67438426Y-106716674D02*
X66905073Y-106716674D01*
X69399111Y-104755989D02*
X67438426Y-106716674D01*
X71831200Y-104343200D02*
X71418411Y-104755989D01*
X69974600Y-102491500D02*
X70302300Y-102819200D01*
X70302300Y-102819200D02*
X71424800Y-102819200D01*
X71418411Y-104755989D02*
X69399111Y-104755989D01*
X69974600Y-102171500D02*
X69974600Y-102491500D01*
X71831200Y-103225600D02*
X71831200Y-104343200D01*
X71424800Y-102819200D02*
X71831200Y-103225600D01*
X60769453Y-103187547D02*
X58584178Y-101002272D01*
X58584178Y-101002272D02*
X58584178Y-100343900D01*
D23*
%TO.N,Net-(D1-Pad2)*%
X70459600Y-92987000D02*
X69626798Y-92154198D01*
X69045715Y-88662885D02*
X69045715Y-88221251D01*
X69626798Y-92154198D02*
X69626798Y-91210448D01*
X68757800Y-88950800D02*
X69045715Y-88662885D01*
X69626798Y-91210448D02*
X68757800Y-90341450D01*
X68757800Y-90341450D02*
X68757800Y-88950800D01*
D21*
%TO.N,/R1*%
X65901222Y-84593500D02*
X69974600Y-83566000D01*
X67019326Y-105779726D02*
X66776600Y-105537000D01*
X66776600Y-105537000D02*
X66343801Y-105537000D01*
X67156127Y-105779726D02*
X67019326Y-105779726D01*
X66343801Y-105537000D02*
X66340291Y-105540510D01*
X71536708Y-106220400D02*
X71551800Y-106235492D01*
X70459600Y-106220400D02*
X71536708Y-106220400D01*
X73324799Y-80751400D02*
X70459600Y-80751400D01*
X73763073Y-81189674D02*
X73324799Y-80751400D01*
X77138574Y-85418974D02*
X77138574Y-85018536D01*
X77823200Y-85674200D02*
X77393800Y-85674200D01*
X77393800Y-85674200D02*
X77138574Y-85418974D01*
X73763073Y-81189674D02*
X74664726Y-81189674D01*
X74664726Y-81189674D02*
X74777600Y-81076800D01*
X69974600Y-83144500D02*
X69729578Y-82899478D01*
X69974600Y-83566000D02*
X69974600Y-83144500D01*
X69729578Y-82899478D02*
X69062600Y-82899478D01*
%TO.N,/C6_T*%
X65645378Y-99873722D02*
X65645378Y-100849500D01*
X66827400Y-99450400D02*
X66068700Y-99450400D01*
X66068700Y-99450400D02*
X65645378Y-99873722D01*
X66905073Y-80227326D02*
X63613100Y-81596578D01*
X70459600Y-79781400D02*
X66905073Y-80227326D01*
X57214926Y-89917473D02*
X55880000Y-90297006D01*
X58584178Y-86625500D02*
X57214926Y-89063674D01*
X57214926Y-89917473D02*
X57214926Y-89063674D01*
X63613100Y-81596578D02*
X60769453Y-83781853D01*
X60464747Y-83781853D02*
X60769453Y-83781853D01*
X58584178Y-86625500D02*
X58584178Y-85662422D01*
X58584178Y-85662422D02*
X60464747Y-83781853D01*
X65645378Y-100849500D02*
X65213300Y-100849500D01*
X65213300Y-100849500D02*
X64820800Y-100457000D01*
%TO.N,/R2*%
X62091500Y-88048178D02*
X62091500Y-88098978D01*
X64098100Y-104507378D02*
X64019778Y-104507378D01*
X63550800Y-104038400D02*
X63398400Y-104038400D01*
X64019778Y-104507378D02*
X63550800Y-104038400D01*
X76821100Y-82462022D02*
X76909078Y-82550000D01*
X75017978Y-84618900D02*
X74865300Y-84618900D01*
X67156127Y-81164274D02*
X69972200Y-82270600D01*
X75017978Y-84618900D02*
X76821100Y-82462022D01*
X73907309Y-105635490D02*
X74714088Y-105635490D01*
X73763073Y-105779726D02*
X73907309Y-105635490D01*
X76658122Y-82462022D02*
X76047600Y-81851500D01*
X76821100Y-82462022D02*
X76658122Y-82462022D01*
X63090098Y-83823502D02*
X64802305Y-83823502D01*
X62091500Y-88098978D02*
X61538119Y-87545597D01*
X64802305Y-83823502D02*
X67156127Y-81469680D01*
X61538119Y-85375481D02*
X63090098Y-83823502D01*
X61538119Y-87545597D02*
X61538119Y-85375481D01*
X67156127Y-81469680D02*
X67156127Y-81164274D01*
X69972200Y-82570600D02*
X69972200Y-82270600D01*
X73215500Y-82931000D02*
X70332600Y-82931000D01*
X75017978Y-84618900D02*
X74903400Y-84618900D01*
X70332600Y-82931000D02*
X69972200Y-82570600D01*
X74903400Y-84618900D02*
X73215500Y-82931000D01*
%TO.N,/R3*%
X60502800Y-93982400D02*
X60477400Y-93957000D01*
X64490600Y-82829122D02*
X64490600Y-83185000D01*
X64098100Y-82436622D02*
X64490600Y-82829122D01*
X80429100Y-85458394D02*
X80429100Y-85852000D01*
X79463853Y-84493147D02*
X80429100Y-85458394D01*
X80429100Y-85852000D02*
X80429100Y-86487000D01*
X60490100Y-97004722D02*
X60236100Y-97258722D01*
X60502800Y-93982400D02*
X60490100Y-93995100D01*
X60490100Y-93995100D02*
X60490100Y-97004722D01*
X59080400Y-92987000D02*
X59029600Y-92987000D01*
X60502800Y-93982400D02*
X60276600Y-93982400D01*
X59281200Y-92987000D02*
X59080400Y-92987000D01*
X60276600Y-93982400D02*
X59281200Y-92987000D01*
X76821100Y-104507378D02*
X76348787Y-104979691D01*
X76348787Y-104979691D02*
X76007558Y-104979691D01*
X80429100Y-86499700D02*
X80429100Y-86487000D01*
X79832200Y-87096600D02*
X80429100Y-86499700D01*
X79287300Y-88939022D02*
X79437578Y-88939022D01*
X79832200Y-88544400D02*
X79832200Y-87096600D01*
X79437578Y-88939022D02*
X79832200Y-88544400D01*
X61455347Y-102501653D02*
X61026818Y-102073124D01*
X61026818Y-102073124D02*
X60628084Y-102073124D01*
%TO.N,/R4*%
X59424222Y-99858900D02*
X59424222Y-99835622D01*
X79463853Y-102016653D02*
X78793200Y-101346000D01*
X79463853Y-102501653D02*
X79463853Y-102016653D01*
X59983844Y-100418522D02*
X59983844Y-100455278D01*
X59424222Y-99858900D02*
X59983844Y-100418522D01*
X62091500Y-98870422D02*
X59424222Y-99858900D01*
X80882767Y-88255833D02*
X80783677Y-88255833D01*
X81494978Y-87110500D02*
X81494978Y-87643622D01*
X81494978Y-87643622D02*
X80882767Y-88255833D01*
X79463853Y-102501653D02*
X78651163Y-102501653D01*
X78651163Y-102501653D02*
X78508306Y-102644510D01*
X61455347Y-84467747D02*
X60938109Y-84984985D01*
X60938109Y-84984985D02*
X60938109Y-86373277D01*
X80391000Y-92987000D02*
X79595550Y-92987000D01*
X79595550Y-92987000D02*
X79547410Y-93035140D01*
%TO.N,/R5*%
X63436797Y-101661397D02*
X63930084Y-101661397D01*
X63121400Y-101346000D02*
X63436797Y-101661397D01*
X65926622Y-102325100D02*
X66053900Y-102325100D01*
X66053900Y-102325100D02*
X66535300Y-102806500D01*
X66535300Y-102806500D02*
X66865500Y-102806500D01*
X58151874Y-96750073D02*
X58902600Y-98552002D01*
X59424222Y-86189126D02*
X59236079Y-86000983D01*
X59424222Y-87110500D02*
X59424222Y-86189126D01*
X80973078Y-100380800D02*
X80619600Y-100380800D01*
X81494978Y-99858900D02*
X80973078Y-100380800D01*
X79681922Y-98374200D02*
X80213202Y-98374200D01*
X79338100Y-98030378D02*
X79681922Y-98374200D01*
X82741926Y-90168527D02*
X82741926Y-89637430D01*
X82741926Y-89637430D02*
X82182486Y-89077990D01*
%TO.N,/R6*%
X57759600Y-93449000D02*
X57736600Y-93472000D01*
X58151874Y-90168527D02*
X57759600Y-90560801D01*
X57759600Y-90560801D02*
X57759600Y-93449000D01*
X82039600Y-93980000D02*
X82016600Y-93957000D01*
X82039600Y-93957000D02*
X82039600Y-93980000D01*
X83208000Y-93472000D02*
X82524600Y-93472000D01*
X82524600Y-93472000D02*
X82039600Y-93957000D01*
X70586600Y-104330500D02*
X68935600Y-104330500D01*
X70944600Y-103454200D02*
X70944600Y-103972500D01*
X70944600Y-103972500D02*
X70586600Y-104330500D01*
X58151874Y-89549384D02*
X57819990Y-89217500D01*
X58151874Y-90168527D02*
X58151874Y-89549384D01*
X75858022Y-101840100D02*
X75858022Y-102584062D01*
X75858022Y-102584062D02*
X76085203Y-102811243D01*
X82767326Y-95064424D02*
X82767326Y-96775473D01*
X83208000Y-93472000D02*
X83208000Y-94623750D01*
X83208000Y-94623750D02*
X82767326Y-95064424D01*
X76213900Y-101840100D02*
X75858022Y-101840100D01*
X77520800Y-100533200D02*
X76213900Y-101840100D01*
X82767326Y-97655774D02*
X80896487Y-99526613D01*
X79365587Y-99526613D02*
X78359000Y-100533200D01*
X82767326Y-96775473D02*
X82767326Y-97655774D01*
X80896487Y-99526613D02*
X79365587Y-99526613D01*
X78359000Y-100533200D02*
X77520800Y-100533200D01*
%TO.N,Net-(Q2-Pad1)*%
X67243200Y-97450400D02*
X67777400Y-97450400D01*
X64467600Y-98780600D02*
X65913000Y-98780600D01*
X65913000Y-98780600D02*
X67243200Y-97450400D01*
D23*
%TO.N,Net-(Q2-Pad2)*%
X65639400Y-97688400D02*
X65877400Y-97450400D01*
X64470000Y-97688400D02*
X65639400Y-97688400D01*
D21*
%TO.N,Net-(Q3-Pad1)*%
X71412100Y-97452900D02*
X71409600Y-97450400D01*
X70990600Y-100309402D02*
X70990600Y-100711000D01*
X71409600Y-99890402D02*
X70990600Y-100309402D01*
X71409600Y-97450400D02*
X71409600Y-99890402D01*
D23*
%TO.N,Net-(Q3-Pad2)*%
X69509600Y-99951500D02*
X69509600Y-97450400D01*
X69674600Y-100711000D02*
X69674600Y-100116500D01*
X69674600Y-100116500D02*
X69509600Y-99951500D01*
D21*
%TO.N,Net-(Q4-Pad1)*%
X73116400Y-99450400D02*
X73116400Y-99222600D01*
X76125401Y-98700399D02*
X73866401Y-98700399D01*
X76400800Y-98425000D02*
X76125401Y-98700399D01*
X73866401Y-98700399D02*
X73116400Y-99450400D01*
D23*
%TO.N,Net-(Q4-Pad2)*%
X75083200Y-99517200D02*
X75016400Y-99450400D01*
X76400800Y-99517200D02*
X75083200Y-99517200D01*
%TO.N,Net-(Q5-Pad2)*%
X76426200Y-87170400D02*
X76403200Y-87147400D01*
X76403200Y-87861000D02*
X76426200Y-87884000D01*
X76403200Y-87020400D02*
X76403200Y-87861000D01*
X73141800Y-87544400D02*
X73141800Y-86751208D01*
X73141800Y-86751208D02*
X73342508Y-86550500D01*
D21*
%TO.N,Net-(Q5-Pad1)*%
X75105300Y-87703700D02*
X75041800Y-87703700D01*
X75041800Y-87703700D02*
X75041800Y-87544400D01*
X76426200Y-89027000D02*
X76426200Y-89024600D01*
X76352400Y-88900000D02*
X76426200Y-88900000D01*
X75041800Y-87544400D02*
X75041800Y-87589400D01*
X75041800Y-87589400D02*
X76352400Y-88900000D01*
D23*
%TO.N,Net-(Q6-Pad2)*%
X68389208Y-88957992D02*
X68389208Y-88572672D01*
X67802800Y-89544400D02*
X68389208Y-88957992D01*
X64518400Y-88163400D02*
X65567519Y-88163400D01*
X65567519Y-88163400D02*
X65605343Y-88125576D01*
D21*
%TO.N,Net-(Q6-Pad1)*%
X64804800Y-89544400D02*
X65902800Y-89544400D01*
X64516000Y-89255600D02*
X64804800Y-89544400D01*
%TO.N,Net-(Q7-Pad1)*%
X69646800Y-89391200D02*
X69646800Y-86362400D01*
X69646800Y-86362400D02*
X69801600Y-86207600D01*
X69509600Y-89528400D02*
X69646800Y-89391200D01*
D23*
%TO.N,Net-(Q7-Pad2)*%
X71137601Y-86352201D02*
X70993000Y-86207600D01*
X71137601Y-89256401D02*
X71137601Y-86352201D01*
X71409600Y-89528400D02*
X71137601Y-89256401D01*
%TO.N,/+3V0_MON_LED*%
X72318360Y-87231740D02*
X72318360Y-87057797D01*
X71729600Y-87820500D02*
X72318360Y-87231740D01*
X71729600Y-88584720D02*
X71729600Y-87820500D01*
X72210967Y-89066087D02*
X71729600Y-88584720D01*
X72617900Y-92747400D02*
X72211377Y-92340877D01*
X72211377Y-92340877D02*
X72211377Y-90524804D01*
X72210967Y-90524394D02*
X72210967Y-89066087D01*
X73406900Y-92747400D02*
X72617900Y-92747400D01*
X72211377Y-90524804D02*
X72210967Y-90524394D01*
%TO.N,/DBG_RX*%
X60248800Y-90322400D02*
X60680600Y-89890600D01*
X60248800Y-90777200D02*
X60248800Y-90322400D01*
X60680600Y-89890600D02*
X60845755Y-89890600D01*
D21*
%TO.N,/R2_R*%
X70942200Y-82270600D02*
X71009601Y-82338001D01*
X71009601Y-82338001D02*
X72315229Y-82338001D01*
X72315229Y-82338001D02*
X72361227Y-82292003D01*
X75191804Y-89437431D02*
X75554607Y-89074628D01*
X75094400Y-91059900D02*
X75094400Y-90497502D01*
X75191804Y-90400098D02*
X75191804Y-89437431D01*
X75094400Y-90497502D02*
X75191804Y-90400098D01*
X59563000Y-91440000D02*
X59563000Y-90190770D01*
X60248800Y-91747200D02*
X59870200Y-91747200D01*
X59870200Y-91747200D02*
X59563000Y-91440000D01*
X59563000Y-90190770D02*
X60059662Y-89694108D01*
%TO.N,/R3_R*%
X63350000Y-85011400D02*
X63601600Y-84759800D01*
X63350000Y-85623400D02*
X63350000Y-85011400D01*
X74594400Y-90431802D02*
X74791801Y-90234401D01*
X74791801Y-90234401D02*
X74791801Y-88706159D01*
X74594400Y-91059900D02*
X74594400Y-90431802D01*
X74791801Y-88706159D02*
X74980995Y-88516965D01*
X59528010Y-94404610D02*
X59528010Y-96837050D01*
X59055000Y-93982400D02*
X59080400Y-93957000D01*
X59080400Y-93957000D02*
X59528010Y-94404610D01*
D23*
%TO.N,/DBG_TX*%
X62380000Y-85623400D02*
X62380000Y-86296721D01*
X62380000Y-86296721D02*
X62088121Y-86588600D01*
%TO.N,/RTC_SCL*%
X66886999Y-94197401D02*
X66954400Y-94130000D01*
X66954400Y-94130000D02*
X67363200Y-94130000D01*
X67363200Y-94130000D02*
X67958111Y-93535089D01*
X67958111Y-93535089D02*
X67958111Y-91161011D01*
X67958111Y-91161011D02*
X67031011Y-90233911D01*
X67031011Y-90233911D02*
X67031011Y-88971263D01*
X67031011Y-88971263D02*
X67373862Y-88628412D01*
X67373862Y-88628412D02*
X67555148Y-88628412D01*
X67555148Y-88628412D02*
X68436626Y-87746934D01*
X68436626Y-87746934D02*
X68806533Y-87746934D01*
X68806533Y-87746934D02*
X69056532Y-87496935D01*
X76377800Y-90173337D02*
X76377800Y-89738200D01*
X76094400Y-90456737D02*
X76377800Y-90173337D01*
X76094400Y-91059900D02*
X76094400Y-90456737D01*
X66571000Y-94130000D02*
X66954400Y-94130000D01*
X64481000Y-93022000D02*
X65463000Y-93022000D01*
X65463000Y-93022000D02*
X66571000Y-94130000D01*
%TO.N,/RTC_SDA*%
X67226398Y-88272401D02*
X67407685Y-88272401D01*
X67602100Y-91308475D02*
X66675000Y-90381375D01*
X68478400Y-87201686D02*
X68478400Y-87045800D01*
X67407685Y-88272401D02*
X68478400Y-87201686D01*
X67602100Y-92964000D02*
X67602100Y-91308475D01*
X67434600Y-93131500D02*
X67602100Y-92964000D01*
X66954400Y-93131500D02*
X67434600Y-93131500D01*
X66675000Y-88823799D02*
X67226398Y-88272401D01*
X66675000Y-90381375D02*
X66675000Y-88823799D01*
X77078023Y-89976589D02*
X77078023Y-89754833D01*
X76594400Y-90460212D02*
X77078023Y-89976589D01*
X76594400Y-91059900D02*
X76594400Y-90460212D01*
X66382125Y-93131500D02*
X66954400Y-93131500D01*
X64481000Y-92122000D02*
X65372625Y-92122000D01*
X65372625Y-92122000D02*
X66382125Y-93131500D01*
%TO.N,/C6*%
X63318045Y-97506445D02*
X62637727Y-97506445D01*
X63500000Y-97688400D02*
X63318045Y-97506445D01*
X78415756Y-90576400D02*
X79159841Y-90576400D01*
X79159841Y-90576400D02*
X79200415Y-90616974D01*
X77932256Y-91059900D02*
X78415756Y-90576400D01*
X77594400Y-91059900D02*
X77932256Y-91059900D01*
%TO.N,/+3V0_VOL_MON*%
X70993000Y-96164400D02*
X70434200Y-96164400D01*
X69954000Y-96164400D02*
X70307200Y-96164400D01*
X70307200Y-96164400D02*
X70993000Y-96164400D01*
X70459584Y-96735916D02*
X70459584Y-98425008D01*
X70993000Y-96164400D02*
X70993000Y-96202500D01*
X70993000Y-96202500D02*
X70459584Y-96735916D01*
X78281900Y-94247400D02*
X79146615Y-94247400D01*
X79146615Y-94247400D02*
X79155190Y-94255975D01*
%TO.N,/C5*%
X68704600Y-100711000D02*
X68009980Y-100711000D01*
X68009980Y-100711000D02*
X67721790Y-100999190D01*
X78281900Y-91519884D02*
X78663800Y-91137984D01*
X78281900Y-91747400D02*
X78281900Y-91519884D01*
%TO.N,/C4*%
X77370800Y-99517200D02*
X77370800Y-99900833D01*
X77370800Y-99900833D02*
X77000084Y-100271549D01*
X78948600Y-92247400D02*
X79341531Y-91854469D01*
X78281900Y-92247400D02*
X78948600Y-92247400D01*
X79341531Y-91854469D02*
X79341531Y-91313191D01*
%TO.N,/C3*%
X77444600Y-87924500D02*
X77396200Y-87972900D01*
X77396200Y-87175200D02*
X77393800Y-87172800D01*
X79223969Y-97104200D02*
X79248191Y-97079978D01*
X77291285Y-97104200D02*
X79223969Y-97104200D01*
X76594400Y-96407315D02*
X77291285Y-97104200D01*
X76594400Y-95934900D02*
X76594400Y-96407315D01*
X77393800Y-87881600D02*
X77396200Y-87884000D01*
X77393800Y-87045800D02*
X77393800Y-87881600D01*
%TO.N,/C2*%
X63548400Y-88163400D02*
X63548400Y-87322800D01*
X76094400Y-95934900D02*
X76094400Y-96410789D01*
X76881554Y-97197943D02*
X76881554Y-97585739D01*
X76094400Y-96410789D02*
X76881554Y-97197943D01*
%TO.N,/C1*%
X75594400Y-95934900D02*
X75628500Y-95969000D01*
X75594400Y-96414265D02*
X76123800Y-96943665D01*
X76123800Y-96943665D02*
X76123800Y-97536000D01*
X75594400Y-95934900D02*
X75594400Y-96414265D01*
X72062200Y-86207600D02*
X71640611Y-86629189D01*
X71640611Y-86629189D02*
X71640611Y-87147491D01*
D21*
%TO.N,/R6_R*%
X82016600Y-92987000D02*
X81912600Y-92987000D01*
X82016600Y-92987000D02*
X81976100Y-92987000D01*
X81333200Y-92303600D02*
X82016600Y-92987000D01*
X79426988Y-92303600D02*
X81333200Y-92303600D01*
X78281900Y-92747400D02*
X78983188Y-92747400D01*
X78983188Y-92747400D02*
X79426988Y-92303600D01*
%TO.N,/R1_R*%
X78079600Y-88544714D02*
X78079600Y-86707800D01*
X78578002Y-89043116D02*
X78079600Y-88544714D01*
X78578002Y-89879566D02*
X78578002Y-89043116D01*
X77094400Y-90494800D02*
X77365411Y-90223789D01*
X77365411Y-90223789D02*
X78233779Y-90223789D01*
X77094400Y-91059900D02*
X77094400Y-90494800D01*
X78079600Y-86707800D02*
X78793200Y-85994200D01*
X78233779Y-90223789D02*
X78578002Y-89879566D01*
X78793200Y-85994200D02*
X78793200Y-85674200D01*
%TO.N,/R4_R*%
X74594400Y-95934900D02*
X74594400Y-96588398D01*
X74594400Y-96588398D02*
X74766401Y-96760399D01*
X74766401Y-96760399D02*
X74766401Y-97423199D01*
X74766401Y-97423199D02*
X75405073Y-98061871D01*
X77572005Y-102166636D02*
X76974933Y-102166636D01*
X77823200Y-101915441D02*
X77572005Y-102166636D01*
X77823200Y-101346000D02*
X77823200Y-101915441D01*
%TO.N,/R5_R*%
X75094400Y-96458725D02*
X75377283Y-96741608D01*
X75377283Y-96741608D02*
X75377283Y-97045856D01*
X75094400Y-95934900D02*
X75094400Y-96458725D01*
X61723109Y-101346000D02*
X61214554Y-100837445D01*
X62151400Y-101346000D02*
X61723109Y-101346000D01*
D23*
%TO.N,/PE1*%
X68745100Y-92214700D02*
X68745100Y-92202000D01*
X69697600Y-93167200D02*
X68745100Y-92214700D01*
X73406900Y-94247400D02*
X72620600Y-94247400D01*
X72620600Y-94247400D02*
X72278400Y-94589600D01*
X69697600Y-94284800D02*
X69697600Y-93167200D01*
X70002400Y-94589600D02*
X69697600Y-94284800D01*
X72278400Y-94589600D02*
X70002400Y-94589600D01*
%TO.N,/ICSP_MOSI*%
X77094400Y-96372400D02*
X77470189Y-96748189D01*
X77470189Y-96748189D02*
X78777455Y-96748189D01*
X78777455Y-96748189D02*
X79136750Y-96388894D01*
X77094400Y-95934900D02*
X77094400Y-96372400D01*
%TO.N,/ICSP_MISO*%
X78178142Y-95934900D02*
X78453052Y-96209810D01*
X77594400Y-95934900D02*
X78178142Y-95934900D01*
%TO.N,/ICSP_SCK*%
X78281900Y-95247400D02*
X78736310Y-95701810D01*
X78736310Y-95701810D02*
X78948264Y-95701810D01*
%TO.N,/PB6*%
X68884800Y-93726000D02*
X68745100Y-93726000D01*
X69710300Y-95059500D02*
X68884800Y-94234000D01*
X68884800Y-94234000D02*
X68884800Y-93726000D01*
X73406900Y-94747400D02*
X72624075Y-94747400D01*
X72311975Y-95059500D02*
X69710300Y-95059500D01*
X72624075Y-94747400D02*
X72311975Y-95059500D01*
%TO.N,/PB7*%
X68935600Y-94996000D02*
X68110100Y-94996000D01*
X69435599Y-95495999D02*
X68935600Y-94996000D01*
X72378951Y-95495999D02*
X69435599Y-95495999D01*
X73406900Y-95247400D02*
X72627550Y-95247400D01*
X72627550Y-95247400D02*
X72378951Y-95495999D01*
%TO.N,/DWN_BTN*%
X72923400Y-96431100D02*
X72923400Y-96951800D01*
X74094400Y-95934900D02*
X73419600Y-95934900D01*
X73419600Y-95934900D02*
X72923400Y-96431100D01*
X85901030Y-104198559D02*
X84850470Y-106557941D01*
X85703999Y-107542563D02*
X85703999Y-107411470D01*
X85703999Y-107411470D02*
X84850470Y-106557941D01*
%TO.N,/RTC_INTO*%
X62109500Y-94822000D02*
X61912500Y-95019000D01*
X63281000Y-94822000D02*
X62109500Y-94822000D01*
X63055500Y-90424000D02*
X63817500Y-91186000D01*
X61912500Y-94742000D02*
X61277500Y-94107000D01*
X63817500Y-91186000D02*
X65468500Y-91186000D01*
X61277500Y-90741500D02*
X61595000Y-90424000D01*
X61595000Y-90424000D02*
X63055500Y-90424000D01*
X61912500Y-95019000D02*
X61912500Y-94742000D01*
X61277500Y-94107000D02*
X61277500Y-90741500D01*
X73063100Y-88719223D02*
X73063100Y-88459704D01*
X73057788Y-88724535D02*
X73063100Y-88719223D01*
X73063100Y-88459704D02*
X73047808Y-88444412D01*
X73057788Y-91398288D02*
X73057788Y-88724535D01*
X73406900Y-91747400D02*
X73057788Y-91398288D01*
%TO.N,/RTC_CLKO*%
X64481000Y-93922000D02*
X65474000Y-93922000D01*
%TO.N,/RTC_CLKO_EN*%
X63281000Y-93922000D02*
X62299002Y-93922000D01*
X61849000Y-93471998D02*
X62299002Y-93922000D01*
X61912500Y-92052000D02*
X61849000Y-92115500D01*
X61849000Y-92115500D02*
X61849000Y-93471998D01*
%TD*%
D21*
%TO.N,+3V0*%
G36*
X65233840Y-94728690D02*
G01*
X65228048Y-94787500D01*
X65229500Y-94857500D01*
X65304500Y-94932500D01*
X65699500Y-94932500D01*
X65699500Y-94912500D01*
X65999500Y-94912500D01*
X65999500Y-94932500D01*
X66391900Y-94932500D01*
X66409400Y-94950000D01*
X66804400Y-94950000D01*
X66804400Y-94930000D01*
X67104400Y-94930000D01*
X67104400Y-94950000D01*
X67124400Y-94950000D01*
X67124400Y-95250000D01*
X67104400Y-95250000D01*
X67104400Y-95270000D01*
X66804400Y-95270000D01*
X66804400Y-95250000D01*
X66412000Y-95250000D01*
X66394500Y-95232500D01*
X65999500Y-95232500D01*
X65999500Y-95252500D01*
X65699500Y-95252500D01*
X65699500Y-95232500D01*
X65304500Y-95232500D01*
X65229500Y-95307500D01*
X65228048Y-95377500D01*
X65233840Y-95436310D01*
X65250995Y-95492861D01*
X65262846Y-95515032D01*
X65131089Y-95646789D01*
X65118653Y-95661943D01*
X65109412Y-95679232D01*
X65103721Y-95697991D01*
X65103056Y-95704748D01*
X65077697Y-95718303D01*
X65077695Y-95718304D01*
X65077696Y-95718304D01*
X65032049Y-95755765D01*
X65032047Y-95755767D01*
X65016789Y-95768289D01*
X65004267Y-95783547D01*
X64994813Y-95793001D01*
X64901404Y-95793001D01*
X64785485Y-95816059D01*
X64676292Y-95861288D01*
X64578021Y-95926951D01*
X64524838Y-95980134D01*
X64327249Y-95977782D01*
X64235000Y-95884428D01*
X64235000Y-95372174D01*
X64256000Y-95372000D01*
X64331000Y-95297000D01*
X64331000Y-94972000D01*
X64631000Y-94972000D01*
X64631000Y-95297000D01*
X64706000Y-95372000D01*
X64881000Y-95373452D01*
X64939810Y-95367660D01*
X64996361Y-95350505D01*
X65048478Y-95322648D01*
X65094159Y-95285159D01*
X65131648Y-95239478D01*
X65159505Y-95187361D01*
X65176660Y-95130810D01*
X65182452Y-95072000D01*
X65181000Y-95047000D01*
X65106000Y-94972000D01*
X64631000Y-94972000D01*
X64331000Y-94972000D01*
X64311000Y-94972000D01*
X64311000Y-94730422D01*
X64326422Y-94715000D01*
X65237993Y-94715000D01*
X65233840Y-94728690D01*
G37*
X65233840Y-94728690D02*
X65228048Y-94787500D01*
X65229500Y-94857500D01*
X65304500Y-94932500D01*
X65699500Y-94932500D01*
X65699500Y-94912500D01*
X65999500Y-94912500D01*
X65999500Y-94932500D01*
X66391900Y-94932500D01*
X66409400Y-94950000D01*
X66804400Y-94950000D01*
X66804400Y-94930000D01*
X67104400Y-94930000D01*
X67104400Y-94950000D01*
X67124400Y-94950000D01*
X67124400Y-95250000D01*
X67104400Y-95250000D01*
X67104400Y-95270000D01*
X66804400Y-95270000D01*
X66804400Y-95250000D01*
X66412000Y-95250000D01*
X66394500Y-95232500D01*
X65999500Y-95232500D01*
X65999500Y-95252500D01*
X65699500Y-95252500D01*
X65699500Y-95232500D01*
X65304500Y-95232500D01*
X65229500Y-95307500D01*
X65228048Y-95377500D01*
X65233840Y-95436310D01*
X65250995Y-95492861D01*
X65262846Y-95515032D01*
X65131089Y-95646789D01*
X65118653Y-95661943D01*
X65109412Y-95679232D01*
X65103721Y-95697991D01*
X65103056Y-95704748D01*
X65077697Y-95718303D01*
X65077695Y-95718304D01*
X65077696Y-95718304D01*
X65032049Y-95755765D01*
X65032047Y-95755767D01*
X65016789Y-95768289D01*
X65004267Y-95783547D01*
X64994813Y-95793001D01*
X64901404Y-95793001D01*
X64785485Y-95816059D01*
X64676292Y-95861288D01*
X64578021Y-95926951D01*
X64524838Y-95980134D01*
X64327249Y-95977782D01*
X64235000Y-95884428D01*
X64235000Y-95372174D01*
X64256000Y-95372000D01*
X64331000Y-95297000D01*
X64331000Y-94972000D01*
X64631000Y-94972000D01*
X64631000Y-95297000D01*
X64706000Y-95372000D01*
X64881000Y-95373452D01*
X64939810Y-95367660D01*
X64996361Y-95350505D01*
X65048478Y-95322648D01*
X65094159Y-95285159D01*
X65131648Y-95239478D01*
X65159505Y-95187361D01*
X65176660Y-95130810D01*
X65182452Y-95072000D01*
X65181000Y-95047000D01*
X65106000Y-94972000D01*
X64631000Y-94972000D01*
X64331000Y-94972000D01*
X64311000Y-94972000D01*
X64311000Y-94730422D01*
X64326422Y-94715000D01*
X65237993Y-94715000D01*
X65233840Y-94728690D01*
G36*
X62951000Y-89030600D02*
G01*
X63026000Y-89105600D01*
X63396000Y-89105600D01*
X63396000Y-89085600D01*
X63696000Y-89085600D01*
X63696000Y-89105600D01*
X63716000Y-89105600D01*
X63716000Y-89405600D01*
X63696000Y-89405600D01*
X63696000Y-89800600D01*
X63771000Y-89875600D01*
X63819100Y-89876598D01*
X63819100Y-89915078D01*
X63727678Y-90006500D01*
X62230922Y-90006500D01*
X62139500Y-89915078D01*
X62139500Y-89575600D01*
X62949548Y-89575600D01*
X62955340Y-89634410D01*
X62972495Y-89690961D01*
X63000352Y-89743078D01*
X63037841Y-89788759D01*
X63083522Y-89826248D01*
X63135639Y-89854105D01*
X63192190Y-89871260D01*
X63251000Y-89877052D01*
X63321000Y-89875600D01*
X63396000Y-89800600D01*
X63396000Y-89405600D01*
X63026000Y-89405600D01*
X62951000Y-89480600D01*
X62949548Y-89575600D01*
X62139500Y-89575600D01*
X62139500Y-89518028D01*
X62228666Y-89339022D01*
X62311032Y-89339022D01*
X62330678Y-89340957D01*
X62350324Y-89339022D01*
X62350325Y-89339022D01*
X62409092Y-89333234D01*
X62484492Y-89310362D01*
X62553981Y-89273219D01*
X62614889Y-89223233D01*
X62627415Y-89207970D01*
X62898885Y-88936500D01*
X62949562Y-88936500D01*
X62951000Y-89030600D01*
G37*
X62951000Y-89030600D02*
X63026000Y-89105600D01*
X63396000Y-89105600D01*
X63396000Y-89085600D01*
X63696000Y-89085600D01*
X63696000Y-89105600D01*
X63716000Y-89105600D01*
X63716000Y-89405600D01*
X63696000Y-89405600D01*
X63696000Y-89800600D01*
X63771000Y-89875600D01*
X63819100Y-89876598D01*
X63819100Y-89915078D01*
X63727678Y-90006500D01*
X62230922Y-90006500D01*
X62139500Y-89915078D01*
X62139500Y-89575600D01*
X62949548Y-89575600D01*
X62955340Y-89634410D01*
X62972495Y-89690961D01*
X63000352Y-89743078D01*
X63037841Y-89788759D01*
X63083522Y-89826248D01*
X63135639Y-89854105D01*
X63192190Y-89871260D01*
X63251000Y-89877052D01*
X63321000Y-89875600D01*
X63396000Y-89800600D01*
X63396000Y-89405600D01*
X63026000Y-89405600D01*
X62951000Y-89480600D01*
X62949548Y-89575600D01*
X62139500Y-89575600D01*
X62139500Y-89518028D01*
X62228666Y-89339022D01*
X62311032Y-89339022D01*
X62330678Y-89340957D01*
X62350324Y-89339022D01*
X62350325Y-89339022D01*
X62409092Y-89333234D01*
X62484492Y-89310362D01*
X62553981Y-89273219D01*
X62614889Y-89223233D01*
X62627415Y-89207970D01*
X62898885Y-88936500D01*
X62949562Y-88936500D01*
X62951000Y-89030600D01*
%TO.N,GND*%
G36*
X81178400Y-94947600D02*
G01*
X81198400Y-94947600D01*
X81198400Y-95247600D01*
X81178400Y-95247600D01*
X81178400Y-95642600D01*
X81179500Y-95643700D01*
X81178400Y-95644800D01*
X81178400Y-96039800D01*
X81198400Y-96039800D01*
X81198400Y-96339800D01*
X81178400Y-96339800D01*
X81178400Y-96734800D01*
X81253400Y-96809800D01*
X81323400Y-96811252D01*
X81382210Y-96805460D01*
X81438761Y-96788305D01*
X81490878Y-96760448D01*
X81515001Y-96740651D01*
X81515001Y-97771577D01*
X81469578Y-97817000D01*
X80709422Y-97817000D01*
X80618000Y-97725578D01*
X80618000Y-97453970D01*
X80635400Y-97366495D01*
X80635400Y-97248305D01*
X80618000Y-97160830D01*
X80618000Y-96788284D01*
X80618039Y-96788305D01*
X80674590Y-96805460D01*
X80733400Y-96811252D01*
X80803400Y-96809800D01*
X80878400Y-96734800D01*
X80878400Y-96339800D01*
X80858400Y-96339800D01*
X80858400Y-96039800D01*
X80878400Y-96039800D01*
X80878400Y-95644800D01*
X80877300Y-95643700D01*
X80878400Y-95642600D01*
X80878400Y-95247600D01*
X80858400Y-95247600D01*
X80858400Y-94947600D01*
X80878400Y-94947600D01*
X80878400Y-94927600D01*
X81178400Y-94927600D01*
X81178400Y-94947600D01*
G37*
X81178400Y-94947600D02*
X81198400Y-94947600D01*
X81198400Y-95247600D01*
X81178400Y-95247600D01*
X81178400Y-95642600D01*
X81179500Y-95643700D01*
X81178400Y-95644800D01*
X81178400Y-96039800D01*
X81198400Y-96039800D01*
X81198400Y-96339800D01*
X81178400Y-96339800D01*
X81178400Y-96734800D01*
X81253400Y-96809800D01*
X81323400Y-96811252D01*
X81382210Y-96805460D01*
X81438761Y-96788305D01*
X81490878Y-96760448D01*
X81515001Y-96740651D01*
X81515001Y-97771577D01*
X81469578Y-97817000D01*
X80709422Y-97817000D01*
X80618000Y-97725578D01*
X80618000Y-97453970D01*
X80635400Y-97366495D01*
X80635400Y-97248305D01*
X80618000Y-97160830D01*
X80618000Y-96788284D01*
X80618039Y-96788305D01*
X80674590Y-96805460D01*
X80733400Y-96811252D01*
X80803400Y-96809800D01*
X80878400Y-96734800D01*
X80878400Y-96339800D01*
X80858400Y-96339800D01*
X80858400Y-96039800D01*
X80878400Y-96039800D01*
X80878400Y-95644800D01*
X80877300Y-95643700D01*
X80878400Y-95642600D01*
X80878400Y-95247600D01*
X80858400Y-95247600D01*
X80858400Y-94947600D01*
X80878400Y-94947600D01*
X80878400Y-94927600D01*
X81178400Y-94927600D01*
X81178400Y-94947600D01*
%TD*%
M02*
