%TF.GenerationSoftware,KiCad,Pcbnew,(5.1.6)-1*%
%TF.CreationDate,2024-07-23T23:35:14+05:30*%
%TF.ProjectId,Project_OAK_MAIN_BRD_V0.1,50726f6a-6563-4745-9f4f-414b5f4d4149,A*%
%TF.SameCoordinates,Original*%
%TF.FileFunction,Legend,Top*%
%TF.FilePolarity,Positive*%
%FSLAX46Y46*%
G04 Gerber Fmt 4.6, Leading zero omitted, Abs format (unit mm)*
G04 Created by KiCad (PCBNEW (5.1.6)-1) date 2024-07-23 23:35:14*
%MOMM*%
%LPD*%
G01*
G04 APERTURE LIST*
%ADD10C,0.160000*%
%ADD11C,0.010000*%
%ADD12C,0.200000*%
%ADD13C,0.100000*%
%ADD14C,0.120000*%
G04 APERTURE END LIST*
D10*
X82746393Y-108323237D02*
X83042226Y-107688821D01*
X83193277Y-107759258D01*
X83269821Y-107831730D01*
X83302067Y-107920325D01*
X83304103Y-107994833D01*
X83277964Y-108129761D01*
X83235702Y-108220392D01*
X83149142Y-108327146D01*
X83090758Y-108373479D01*
X83002163Y-108405725D01*
X82897445Y-108393673D01*
X82746393Y-108323237D01*
X83616221Y-107956480D02*
X83471439Y-108661331D01*
X83803590Y-108264527D01*
X83713122Y-108774030D01*
X84160006Y-108210051D01*
X84105855Y-108957164D02*
X84401688Y-108322749D01*
X84468378Y-109126211D01*
X84764211Y-108491796D01*
X84591255Y-109257068D02*
X85074619Y-109482465D01*
X85620277Y-109258779D02*
X85696820Y-109331251D01*
X85712943Y-109375548D01*
X85714979Y-109450056D01*
X85672717Y-109540687D01*
X85614332Y-109587020D01*
X85570035Y-109603143D01*
X85495527Y-109605179D01*
X85253845Y-109492481D01*
X85549678Y-108858065D01*
X85761149Y-108956676D01*
X85807483Y-109015061D01*
X85823606Y-109059358D01*
X85825641Y-109133866D01*
X85797467Y-109194287D01*
X85739082Y-109240620D01*
X85694784Y-109256743D01*
X85620277Y-109258779D01*
X85408805Y-109160168D01*
X86093462Y-109111636D02*
X86455985Y-109280683D01*
X85978891Y-109830575D02*
X86274724Y-109196160D01*
X86371624Y-110013710D02*
X86667457Y-109379294D01*
X86734148Y-110182757D01*
X87029980Y-109548342D01*
X86319242Y-84360294D02*
X86558725Y-84873869D01*
X86617110Y-84920202D01*
X86661408Y-84936325D01*
X86735916Y-84938361D01*
X86856757Y-84882012D01*
X86903090Y-84823627D01*
X86919213Y-84779329D01*
X86921249Y-84704821D01*
X86681765Y-84191247D01*
X87279700Y-84684790D02*
X86983868Y-84050374D01*
X87225550Y-83937676D01*
X87300057Y-83939712D01*
X87344355Y-83955835D01*
X87402740Y-84002168D01*
X87445002Y-84092799D01*
X87442966Y-84167307D01*
X87426843Y-84211604D01*
X87380510Y-84269989D01*
X87138828Y-84382687D01*
X87791239Y-84519814D02*
X88274603Y-84294417D01*
X88453992Y-83732637D02*
X88558710Y-83720585D01*
X88603007Y-83736708D01*
X88661392Y-83783041D01*
X88703654Y-83873672D01*
X88701618Y-83948180D01*
X88685495Y-83992478D01*
X88639162Y-84050862D01*
X88397480Y-84163561D01*
X88101647Y-83529145D01*
X88313119Y-83430534D01*
X88387627Y-83432570D01*
X88431924Y-83448693D01*
X88490309Y-83495026D01*
X88518484Y-83555447D01*
X88516448Y-83629954D01*
X88500325Y-83674252D01*
X88453992Y-83732637D01*
X88242520Y-83831248D01*
X88645432Y-83275574D02*
X89007955Y-83106527D01*
X89122526Y-83825466D02*
X88826693Y-83191051D01*
X89515260Y-83642331D02*
X89219427Y-83007916D01*
X89877783Y-83473284D01*
X89581950Y-82838869D01*
X88173100Y-97344666D02*
X87839766Y-97344666D01*
X87839766Y-96644666D01*
X88773100Y-96678000D02*
X88706433Y-96644666D01*
X88606433Y-96644666D01*
X88506433Y-96678000D01*
X88439766Y-96744666D01*
X88406433Y-96811333D01*
X88373100Y-96944666D01*
X88373100Y-97044666D01*
X88406433Y-97178000D01*
X88439766Y-97244666D01*
X88506433Y-97311333D01*
X88606433Y-97344666D01*
X88673100Y-97344666D01*
X88773100Y-97311333D01*
X88806433Y-97278000D01*
X88806433Y-97044666D01*
X88673100Y-97044666D01*
X89006433Y-96644666D02*
X89406433Y-96644666D01*
X89206433Y-97344666D02*
X89206433Y-96644666D01*
X89473100Y-97411333D02*
X90006433Y-97411333D01*
X90306433Y-96644666D02*
X90439766Y-96644666D01*
X90506433Y-96678000D01*
X90573100Y-96744666D01*
X90606433Y-96878000D01*
X90606433Y-97111333D01*
X90573100Y-97244666D01*
X90506433Y-97311333D01*
X90439766Y-97344666D01*
X90306433Y-97344666D01*
X90239766Y-97311333D01*
X90173100Y-97244666D01*
X90139766Y-97111333D01*
X90139766Y-96878000D01*
X90173100Y-96744666D01*
X90239766Y-96678000D01*
X90306433Y-96644666D01*
X90906433Y-97344666D02*
X90906433Y-96644666D01*
X91306433Y-97344666D01*
X91306433Y-96644666D01*
D11*
%TO.C,G\u002A\u002A\u002A*%
G36*
X56056447Y-72221868D02*
G01*
X56091724Y-72227738D01*
X56102221Y-72241671D01*
X56097895Y-72263383D01*
X56093098Y-72275854D01*
X56082838Y-72299891D01*
X56066584Y-72336643D01*
X56043799Y-72387258D01*
X56013951Y-72452884D01*
X55976506Y-72534670D01*
X55930930Y-72633765D01*
X55876689Y-72751315D01*
X55813250Y-72888471D01*
X55740078Y-73046380D01*
X55656640Y-73226191D01*
X55562403Y-73429052D01*
X55456831Y-73656111D01*
X55339392Y-73908518D01*
X55209552Y-74187419D01*
X55066776Y-74493964D01*
X54910532Y-74829301D01*
X54740285Y-75194578D01*
X54555501Y-75590944D01*
X54355647Y-76019548D01*
X54140189Y-76481536D01*
X53908593Y-76978059D01*
X53660326Y-77510263D01*
X53394853Y-78079299D01*
X53303859Y-78274333D01*
X53056263Y-78805018D01*
X52825946Y-79298678D01*
X52612286Y-79756652D01*
X52414663Y-80180279D01*
X52232453Y-80570898D01*
X52065037Y-80929847D01*
X51911794Y-81258465D01*
X51772101Y-81558091D01*
X51645337Y-81830062D01*
X51530882Y-82075718D01*
X51428114Y-82296398D01*
X51336412Y-82493439D01*
X51255155Y-82668181D01*
X51183721Y-82821962D01*
X51121488Y-82956121D01*
X51067837Y-83071996D01*
X51022145Y-83170926D01*
X50983791Y-83254250D01*
X50952155Y-83323306D01*
X50926614Y-83379433D01*
X50906547Y-83423969D01*
X50891334Y-83458254D01*
X50880353Y-83483625D01*
X50872982Y-83501422D01*
X50868601Y-83512982D01*
X50866588Y-83519645D01*
X50866321Y-83522750D01*
X50867181Y-83523634D01*
X50867613Y-83523667D01*
X50882712Y-83508203D01*
X50916935Y-83467156D01*
X50963650Y-83408539D01*
X50977052Y-83391375D01*
X51796551Y-82360725D01*
X52622829Y-81368447D01*
X53459442Y-80410701D01*
X54309946Y-79483647D01*
X55177899Y-78583447D01*
X56066857Y-77706260D01*
X56980377Y-76848248D01*
X57346850Y-76515496D01*
X57529142Y-76352620D01*
X57720191Y-76183923D01*
X57917409Y-76011559D01*
X58118206Y-75837678D01*
X58319991Y-75664432D01*
X58520175Y-75493974D01*
X58716168Y-75328454D01*
X58905380Y-75170025D01*
X59085221Y-75020839D01*
X59253103Y-74883047D01*
X59406434Y-74758801D01*
X59542625Y-74650252D01*
X59659087Y-74559553D01*
X59753229Y-74488856D01*
X59822461Y-74440312D01*
X59864195Y-74416072D01*
X59875505Y-74414525D01*
X59893267Y-74438142D01*
X59931554Y-74491683D01*
X59987257Y-74570658D01*
X60057265Y-74670573D01*
X60138468Y-74786939D01*
X60227755Y-74915262D01*
X60322017Y-75051053D01*
X60418144Y-75189819D01*
X60513025Y-75327069D01*
X60603550Y-75458310D01*
X60686609Y-75579053D01*
X60759092Y-75684805D01*
X60817889Y-75771074D01*
X60859889Y-75833370D01*
X60881983Y-75867200D01*
X60884534Y-75871712D01*
X60872129Y-75892859D01*
X60831417Y-75936165D01*
X60767052Y-75997223D01*
X60683686Y-76071627D01*
X60585975Y-76154970D01*
X60581173Y-76158978D01*
X60324355Y-76374018D01*
X60062293Y-76595065D01*
X59800007Y-76817805D01*
X59542514Y-77037925D01*
X59294833Y-77251111D01*
X59061984Y-77453051D01*
X58848983Y-77639432D01*
X58660850Y-77805938D01*
X58563933Y-77892762D01*
X57521016Y-78859848D01*
X56507797Y-79855410D01*
X55523054Y-80880766D01*
X54565561Y-81937235D01*
X53634095Y-83026136D01*
X52727433Y-84148788D01*
X52568736Y-84352025D01*
X52400818Y-84568609D01*
X52257100Y-84755073D01*
X52135412Y-84914419D01*
X52033588Y-85049646D01*
X51949459Y-85163754D01*
X51880857Y-85259743D01*
X51825615Y-85340615D01*
X51781564Y-85409368D01*
X51746537Y-85469003D01*
X51718365Y-85522521D01*
X51709119Y-85541639D01*
X51679149Y-85607199D01*
X51652350Y-85671767D01*
X51628044Y-85738971D01*
X51605552Y-85812438D01*
X51584197Y-85895795D01*
X51563300Y-85992669D01*
X51542183Y-86106688D01*
X51520168Y-86241478D01*
X51496578Y-86400668D01*
X51470733Y-86587883D01*
X51441956Y-86806753D01*
X51409568Y-87060903D01*
X51378056Y-87312500D01*
X51220532Y-88735932D01*
X51103933Y-90151147D01*
X51028242Y-91560694D01*
X50993443Y-92967126D01*
X50999519Y-94372991D01*
X51046455Y-95780842D01*
X51134233Y-97193228D01*
X51262838Y-98612699D01*
X51303261Y-98985917D01*
X51343049Y-99338586D01*
X51379324Y-99652197D01*
X51412801Y-99929813D01*
X51444197Y-100174496D01*
X51474228Y-100389309D01*
X51503610Y-100577316D01*
X51533058Y-100741579D01*
X51563289Y-100885161D01*
X51595020Y-101011126D01*
X51628965Y-101122536D01*
X51665841Y-101222454D01*
X51706364Y-101313943D01*
X51751250Y-101400067D01*
X51801215Y-101483887D01*
X51856975Y-101568468D01*
X51919247Y-101656872D01*
X51931677Y-101674083D01*
X52260780Y-102119119D01*
X52618911Y-102586110D01*
X53002156Y-103070423D01*
X53406602Y-103567423D01*
X53828337Y-104072477D01*
X54263447Y-104580949D01*
X54708019Y-105088207D01*
X55158141Y-105589615D01*
X55609898Y-106080539D01*
X56015684Y-106510667D01*
X56496863Y-107005517D01*
X57003713Y-107509998D01*
X57530476Y-108018888D01*
X58071396Y-108526969D01*
X58620716Y-109029018D01*
X59172679Y-109519816D01*
X59721530Y-109994142D01*
X60261511Y-110446775D01*
X60786866Y-110872495D01*
X61077160Y-111100796D01*
X61170602Y-111173867D01*
X61251840Y-111238246D01*
X61315162Y-111289339D01*
X61354859Y-111322551D01*
X61365651Y-111332886D01*
X61351532Y-111348487D01*
X61308622Y-111387526D01*
X61240929Y-111446672D01*
X61152455Y-111522593D01*
X61047207Y-111611959D01*
X60929190Y-111711437D01*
X60802409Y-111817697D01*
X60670869Y-111927408D01*
X60538576Y-112037239D01*
X60409534Y-112143857D01*
X60287749Y-112243932D01*
X60177226Y-112334133D01*
X60081970Y-112411129D01*
X60005986Y-112471587D01*
X59953280Y-112512178D01*
X59927857Y-112529570D01*
X59926376Y-112529966D01*
X59903832Y-112515377D01*
X59852458Y-112476587D01*
X59775889Y-112416566D01*
X59677758Y-112338284D01*
X59561699Y-112244711D01*
X59431345Y-112138817D01*
X59290330Y-112023573D01*
X59142288Y-111901949D01*
X58990851Y-111776914D01*
X58839655Y-111651438D01*
X58692332Y-111528493D01*
X58552517Y-111411047D01*
X58423842Y-111302071D01*
X58416215Y-111295578D01*
X57417437Y-110421588D01*
X56434224Y-109514798D01*
X55471410Y-108580075D01*
X54533830Y-107622288D01*
X53626317Y-106646306D01*
X52753705Y-105656995D01*
X52382704Y-105219500D01*
X52215729Y-105018412D01*
X52028131Y-104789371D01*
X51824666Y-104538305D01*
X51610089Y-104271143D01*
X51389159Y-103993813D01*
X51166630Y-103712244D01*
X50947260Y-103432364D01*
X50892513Y-103362125D01*
X50843564Y-103300257D01*
X50805365Y-103253863D01*
X50784558Y-103230954D01*
X50782813Y-103229833D01*
X50781857Y-103231042D01*
X50782628Y-103235692D01*
X50785836Y-103245316D01*
X50792194Y-103261448D01*
X50802411Y-103285624D01*
X50817199Y-103319377D01*
X50837267Y-103364241D01*
X50863327Y-103421750D01*
X50896090Y-103493438D01*
X50936266Y-103580840D01*
X50984566Y-103685489D01*
X51041701Y-103808920D01*
X51108381Y-103952667D01*
X51185318Y-104118264D01*
X51273222Y-104307245D01*
X51372803Y-104521144D01*
X51484773Y-104761495D01*
X51609843Y-105029832D01*
X51748722Y-105327690D01*
X51902123Y-105656602D01*
X52070754Y-106018103D01*
X52255329Y-106413727D01*
X52456556Y-106845008D01*
X52621535Y-107198583D01*
X52810633Y-107603851D01*
X53002101Y-108014211D01*
X53194546Y-108426679D01*
X53386576Y-108838271D01*
X53576800Y-109246002D01*
X53763825Y-109646889D01*
X53946259Y-110037947D01*
X54122709Y-110416193D01*
X54291785Y-110778642D01*
X54452094Y-111122310D01*
X54602243Y-111444213D01*
X54740841Y-111741367D01*
X54866496Y-112010788D01*
X54977815Y-112249491D01*
X55073407Y-112454492D01*
X55119685Y-112553750D01*
X55235477Y-112802068D01*
X55348349Y-113044032D01*
X55456698Y-113276207D01*
X55558918Y-113495161D01*
X55653405Y-113697458D01*
X55738554Y-113879664D01*
X55812761Y-114038345D01*
X55874421Y-114170067D01*
X55921930Y-114271396D01*
X55953683Y-114338897D01*
X55960313Y-114352917D01*
X56006417Y-114450647D01*
X56048564Y-114540864D01*
X56081871Y-114613056D01*
X56100515Y-114654542D01*
X56130335Y-114723333D01*
X55876376Y-114723333D01*
X55815095Y-114601625D01*
X55800430Y-114571095D01*
X55768717Y-114503986D01*
X55720795Y-114402090D01*
X55657499Y-114267197D01*
X55579668Y-114101099D01*
X55488138Y-113905587D01*
X55383747Y-113682452D01*
X55267332Y-113433485D01*
X55139729Y-113160477D01*
X55001777Y-112865221D01*
X54854311Y-112549506D01*
X54698170Y-112215124D01*
X54534190Y-111863867D01*
X54363209Y-111497525D01*
X54186064Y-111117889D01*
X54003592Y-110726752D01*
X53816630Y-110325903D01*
X53769768Y-110225417D01*
X53515941Y-109681142D01*
X53264984Y-109143060D01*
X53017592Y-108612661D01*
X52774462Y-108091438D01*
X52536291Y-107580883D01*
X52303775Y-107082488D01*
X52077609Y-106597744D01*
X51858492Y-106128144D01*
X51647118Y-105675179D01*
X51444185Y-105240342D01*
X51250389Y-104825124D01*
X51066426Y-104431017D01*
X50892992Y-104059514D01*
X50730785Y-103712106D01*
X50580500Y-103390285D01*
X50442834Y-103095544D01*
X50318483Y-102829373D01*
X50208144Y-102593266D01*
X50112512Y-102388713D01*
X50032286Y-102217208D01*
X50006388Y-102161892D01*
X50312289Y-102161892D01*
X50320361Y-102182205D01*
X50352690Y-102232765D01*
X50407100Y-102310750D01*
X50481413Y-102413342D01*
X50573453Y-102537719D01*
X50681043Y-102681062D01*
X50802005Y-102840552D01*
X50934164Y-103013368D01*
X51075341Y-103196690D01*
X51223360Y-103387699D01*
X51376044Y-103583575D01*
X51531217Y-103781497D01*
X51686701Y-103978645D01*
X51840319Y-104172201D01*
X51989894Y-104359344D01*
X52133250Y-104537253D01*
X52268210Y-104703110D01*
X52363579Y-104819068D01*
X52779839Y-105316296D01*
X53193026Y-105797023D01*
X53609192Y-106267889D01*
X54034392Y-106735534D01*
X54474681Y-107206599D01*
X54936112Y-107687724D01*
X55424739Y-108185549D01*
X55523484Y-108284914D01*
X55867296Y-108628479D01*
X56188503Y-108945575D01*
X56492645Y-109241352D01*
X56785261Y-109520963D01*
X57071891Y-109789560D01*
X57358075Y-110052295D01*
X57649354Y-110314320D01*
X57951266Y-110580787D01*
X58269353Y-110856848D01*
X58520450Y-111072083D01*
X58649422Y-111181277D01*
X58788516Y-111297542D01*
X58933941Y-111417841D01*
X59081911Y-111539139D01*
X59228635Y-111658400D01*
X59370326Y-111772588D01*
X59503195Y-111878668D01*
X59623454Y-111973603D01*
X59727313Y-112054359D01*
X59810985Y-112117899D01*
X59870680Y-112161188D01*
X59902611Y-112181189D01*
X59905862Y-112182199D01*
X59926686Y-112169756D01*
X59976075Y-112134050D01*
X60049668Y-112078426D01*
X60143102Y-112006225D01*
X60252015Y-111920794D01*
X60372046Y-111825476D01*
X60392695Y-111808967D01*
X60517391Y-111709055D01*
X60634319Y-111615129D01*
X60738498Y-111531208D01*
X60824946Y-111461313D01*
X60888682Y-111409463D01*
X60924726Y-111379679D01*
X60926296Y-111378342D01*
X60992076Y-111322082D01*
X60481796Y-110922266D01*
X60039188Y-110568189D01*
X59575027Y-110182876D01*
X59092700Y-109769297D01*
X58595590Y-109330425D01*
X58087083Y-108869232D01*
X57570564Y-108388690D01*
X57251600Y-108085991D01*
X56644370Y-107493323D01*
X56031934Y-106872091D01*
X55419469Y-106228146D01*
X54812152Y-105567339D01*
X54215161Y-104895518D01*
X53633672Y-104218536D01*
X53072864Y-103542242D01*
X52537912Y-102872486D01*
X52033996Y-102215120D01*
X51915618Y-102056295D01*
X51830170Y-101941757D01*
X51752694Y-101839382D01*
X51686819Y-101753844D01*
X51636170Y-101689815D01*
X51604376Y-101651969D01*
X51595267Y-101643556D01*
X51573400Y-101650943D01*
X51518050Y-101672085D01*
X51434904Y-101704682D01*
X51329651Y-101746438D01*
X51207978Y-101795055D01*
X51075573Y-101848233D01*
X50938125Y-101903676D01*
X50801322Y-101959084D01*
X50670852Y-102012161D01*
X50552402Y-102060608D01*
X50451662Y-102102127D01*
X50374319Y-102134420D01*
X50326060Y-102155188D01*
X50312289Y-102161892D01*
X50006388Y-102161892D01*
X49968160Y-102080241D01*
X49920831Y-101979305D01*
X49901731Y-101938667D01*
X49805781Y-101734803D01*
X50097267Y-101734803D01*
X50105584Y-101774438D01*
X50126110Y-101828741D01*
X50152205Y-101883582D01*
X50177231Y-101924831D01*
X50193057Y-101938667D01*
X50219535Y-101930963D01*
X50279735Y-101909249D01*
X50368227Y-101875617D01*
X50479583Y-101832161D01*
X50608374Y-101780975D01*
X50746692Y-101725161D01*
X50934771Y-101648665D01*
X51087313Y-101586422D01*
X51208025Y-101536807D01*
X51300614Y-101498195D01*
X51368785Y-101468961D01*
X51416244Y-101447479D01*
X51446699Y-101432125D01*
X51463856Y-101421273D01*
X51471421Y-101413299D01*
X51473100Y-101406663D01*
X51464712Y-101377921D01*
X51443349Y-101325691D01*
X51428155Y-101292255D01*
X51397980Y-101235042D01*
X51372943Y-101209828D01*
X51344277Y-101208629D01*
X51338196Y-101210304D01*
X51298095Y-101224697D01*
X51228028Y-101252174D01*
X51133654Y-101290343D01*
X51020634Y-101336812D01*
X50894627Y-101389190D01*
X50761291Y-101445083D01*
X50626286Y-101502101D01*
X50495271Y-101557851D01*
X50373906Y-101609941D01*
X50267851Y-101655979D01*
X50182763Y-101693574D01*
X50124304Y-101720332D01*
X50098131Y-101733863D01*
X50097267Y-101734803D01*
X49805781Y-101734803D01*
X49797127Y-101716417D01*
X49682791Y-100922667D01*
X49572759Y-100124270D01*
X49477015Y-99353356D01*
X49394903Y-98601353D01*
X49325769Y-97859689D01*
X49268955Y-97119794D01*
X49223805Y-96373094D01*
X49189665Y-95611018D01*
X49165877Y-94824996D01*
X49151786Y-94006454D01*
X49151492Y-93980000D01*
X49152601Y-93468482D01*
X49408975Y-93468482D01*
X49409300Y-93781050D01*
X49410307Y-94088746D01*
X49411996Y-94386898D01*
X49414368Y-94670833D01*
X49417422Y-94935879D01*
X49421158Y-95177363D01*
X49425577Y-95390612D01*
X49430679Y-95570953D01*
X49436464Y-95713714D01*
X49436562Y-95715667D01*
X49496539Y-96745407D01*
X49571124Y-97741442D01*
X49660908Y-98710010D01*
X49766485Y-99657351D01*
X49888444Y-100589706D01*
X49919392Y-100806250D01*
X49947210Y-100995179D01*
X49970434Y-101146061D01*
X49989889Y-101262837D01*
X50006397Y-101349445D01*
X50020780Y-101409825D01*
X50033863Y-101447915D01*
X50046469Y-101467655D01*
X50058708Y-101473000D01*
X50083314Y-101465062D01*
X50141989Y-101442570D01*
X50229836Y-101407512D01*
X50341956Y-101361872D01*
X50473450Y-101307636D01*
X50619418Y-101246790D01*
X50692893Y-101215943D01*
X50864084Y-101143691D01*
X51000134Y-101085576D01*
X51105033Y-101039583D01*
X51182772Y-101003698D01*
X51237342Y-100975907D01*
X51272732Y-100954195D01*
X51292934Y-100936548D01*
X51301937Y-100920952D01*
X51303767Y-100907597D01*
X51300900Y-100871869D01*
X51292889Y-100801261D01*
X51280617Y-100702797D01*
X51264968Y-100583500D01*
X51246825Y-100450393D01*
X51240906Y-100407946D01*
X51107243Y-99383095D01*
X50995928Y-98371782D01*
X50906542Y-97366666D01*
X50838666Y-96360406D01*
X50791881Y-95345661D01*
X50765767Y-94315091D01*
X50759907Y-93261354D01*
X50773125Y-92212583D01*
X50803730Y-91263373D01*
X50855723Y-90289268D01*
X50928181Y-89301353D01*
X51020179Y-88310708D01*
X51130795Y-87328416D01*
X51259104Y-86365559D01*
X51262379Y-86342879D01*
X51281152Y-86212680D01*
X51297671Y-86097273D01*
X51311039Y-86003011D01*
X51320355Y-85936245D01*
X51324720Y-85903328D01*
X51324933Y-85901079D01*
X51306187Y-85888726D01*
X51253702Y-85863139D01*
X51173110Y-85826648D01*
X51070043Y-85781579D01*
X50950130Y-85730261D01*
X50819005Y-85675022D01*
X50682297Y-85618190D01*
X50545639Y-85562092D01*
X50414661Y-85509057D01*
X50294994Y-85461412D01*
X50192271Y-85421485D01*
X50112122Y-85391604D01*
X50060179Y-85374098D01*
X50042224Y-85370820D01*
X50035663Y-85394671D01*
X50024034Y-85455250D01*
X50008153Y-85547361D01*
X49988834Y-85665809D01*
X49966892Y-85805397D01*
X49943141Y-85960932D01*
X49918396Y-86127216D01*
X49893473Y-86299056D01*
X49869184Y-86471256D01*
X49865537Y-86497583D01*
X49734102Y-87531732D01*
X49622855Y-88586574D01*
X49531331Y-89667240D01*
X49459062Y-90778862D01*
X49436712Y-91207167D01*
X49430906Y-91353303D01*
X49425781Y-91536623D01*
X49421337Y-91752453D01*
X49417574Y-91996121D01*
X49414491Y-92262954D01*
X49412090Y-92548280D01*
X49410370Y-92847424D01*
X49409332Y-93155716D01*
X49408975Y-93468482D01*
X49152601Y-93468482D01*
X49154500Y-92593395D01*
X49194294Y-91218435D01*
X49271276Y-89849260D01*
X49385846Y-88480011D01*
X49538406Y-87104830D01*
X49707734Y-85862583D01*
X49738404Y-85659519D01*
X49765988Y-85490661D01*
X49792796Y-85348230D01*
X49821137Y-85224443D01*
X49853321Y-85111520D01*
X49854048Y-85109436D01*
X50131932Y-85109436D01*
X50132332Y-85126953D01*
X50155603Y-85136572D01*
X50212912Y-85160673D01*
X50299341Y-85197175D01*
X50409969Y-85243998D01*
X50539877Y-85299060D01*
X50684145Y-85360279D01*
X50742850Y-85385209D01*
X50892551Y-85448119D01*
X51031082Y-85505046D01*
X51153285Y-85553973D01*
X51254003Y-85592881D01*
X51328082Y-85619753D01*
X51370363Y-85632570D01*
X51376893Y-85633348D01*
X51408961Y-85616127D01*
X51436520Y-85566357D01*
X51449855Y-85527744D01*
X51467251Y-85465499D01*
X51469921Y-85430846D01*
X51457959Y-85411719D01*
X51450813Y-85406756D01*
X51421110Y-85392266D01*
X51359670Y-85365143D01*
X51272201Y-85327726D01*
X51164411Y-85282355D01*
X51042009Y-85231369D01*
X50910703Y-85177108D01*
X50776201Y-85121911D01*
X50644212Y-85068117D01*
X50520445Y-85018067D01*
X50410607Y-84974099D01*
X50320408Y-84938553D01*
X50255555Y-84913769D01*
X50221757Y-84902086D01*
X50218214Y-84901602D01*
X50192729Y-84948818D01*
X50166635Y-85007641D01*
X50144760Y-85065403D01*
X50131932Y-85109436D01*
X49854048Y-85109436D01*
X49891658Y-85001679D01*
X49938459Y-84887140D01*
X49996031Y-84760121D01*
X50047010Y-84653857D01*
X50351267Y-84653857D01*
X50370438Y-84674044D01*
X50425047Y-84706374D01*
X50510741Y-84748548D01*
X50623163Y-84798269D01*
X50631725Y-84801889D01*
X50878852Y-84905830D01*
X51090360Y-84994177D01*
X51265705Y-85066709D01*
X51404344Y-85123204D01*
X51505734Y-85163442D01*
X51569331Y-85187200D01*
X51593617Y-85194299D01*
X51612179Y-85178403D01*
X51652764Y-85132646D01*
X51712082Y-85061099D01*
X51786844Y-84967835D01*
X51873761Y-84856925D01*
X51969545Y-84732442D01*
X52015514Y-84671958D01*
X52442607Y-84114283D01*
X52856550Y-83587227D01*
X53263223Y-83083595D01*
X53668507Y-82596191D01*
X54078281Y-82117821D01*
X54424219Y-81724500D01*
X54895459Y-81203754D01*
X55393294Y-80670418D01*
X55912015Y-80130094D01*
X56445914Y-79588386D01*
X56989281Y-79050895D01*
X57536407Y-78523224D01*
X58081584Y-78010976D01*
X58619103Y-77519753D01*
X59143255Y-77055157D01*
X59463517Y-76779100D01*
X59558270Y-76698861D01*
X59668347Y-76606442D01*
X59788866Y-76505865D01*
X59914942Y-76401154D01*
X60041694Y-76296331D01*
X60164239Y-76195419D01*
X60277693Y-76102440D01*
X60377174Y-76021418D01*
X60457799Y-75956376D01*
X60514686Y-75911335D01*
X60539532Y-75892610D01*
X60570102Y-75863949D01*
X60567025Y-75833948D01*
X60558323Y-75818697D01*
X60533152Y-75781046D01*
X60488811Y-75717460D01*
X60429002Y-75633042D01*
X60357426Y-75532897D01*
X60277786Y-75422130D01*
X60193782Y-75305843D01*
X60109118Y-75189143D01*
X60027494Y-75077133D01*
X59952612Y-74974917D01*
X59888175Y-74887600D01*
X59837883Y-74820286D01*
X59805438Y-74778079D01*
X59794720Y-74765773D01*
X59772041Y-74777072D01*
X59717809Y-74815721D01*
X59632478Y-74881358D01*
X59516499Y-74973623D01*
X59370322Y-75092153D01*
X59194399Y-75236588D01*
X58989182Y-75406565D01*
X58849683Y-75522743D01*
X58069249Y-76189886D01*
X57284078Y-76892370D01*
X56499853Y-77624502D01*
X55722259Y-78380592D01*
X54956979Y-79154949D01*
X54209697Y-79941881D01*
X53486096Y-80735698D01*
X52791860Y-81530708D01*
X52476278Y-81904417D01*
X52346596Y-82060955D01*
X52206532Y-82232270D01*
X52058289Y-82415511D01*
X51904072Y-82607824D01*
X51746085Y-82806359D01*
X51586532Y-83008264D01*
X51427618Y-83210686D01*
X51271546Y-83410773D01*
X51120522Y-83605673D01*
X50976749Y-83792535D01*
X50842431Y-83968507D01*
X50719773Y-84130736D01*
X50610979Y-84276370D01*
X50518253Y-84402559D01*
X50443800Y-84506448D01*
X50389823Y-84585188D01*
X50358528Y-84635925D01*
X50351267Y-84653857D01*
X50047010Y-84653857D01*
X50066687Y-84612842D01*
X50097297Y-84550250D01*
X50127759Y-84487841D01*
X50162633Y-84415805D01*
X50202461Y-84332981D01*
X50247786Y-84238210D01*
X50299152Y-84130332D01*
X50357102Y-84008187D01*
X50422179Y-83870615D01*
X50494926Y-83716458D01*
X50575886Y-83544554D01*
X50665604Y-83353746D01*
X50764621Y-83142871D01*
X50873482Y-82910772D01*
X50992730Y-82656289D01*
X51122907Y-82378261D01*
X51264557Y-82075529D01*
X51418224Y-81746934D01*
X51584450Y-81391315D01*
X51763778Y-81007513D01*
X51956753Y-80594368D01*
X52163917Y-80150720D01*
X52385813Y-79675411D01*
X52622985Y-79167280D01*
X52875976Y-78625167D01*
X53145329Y-78047913D01*
X53431588Y-77434357D01*
X53669231Y-76924958D01*
X55863790Y-72220667D01*
X55987621Y-72220667D01*
X56056447Y-72221868D01*
G37*
X56056447Y-72221868D02*
X56091724Y-72227738D01*
X56102221Y-72241671D01*
X56097895Y-72263383D01*
X56093098Y-72275854D01*
X56082838Y-72299891D01*
X56066584Y-72336643D01*
X56043799Y-72387258D01*
X56013951Y-72452884D01*
X55976506Y-72534670D01*
X55930930Y-72633765D01*
X55876689Y-72751315D01*
X55813250Y-72888471D01*
X55740078Y-73046380D01*
X55656640Y-73226191D01*
X55562403Y-73429052D01*
X55456831Y-73656111D01*
X55339392Y-73908518D01*
X55209552Y-74187419D01*
X55066776Y-74493964D01*
X54910532Y-74829301D01*
X54740285Y-75194578D01*
X54555501Y-75590944D01*
X54355647Y-76019548D01*
X54140189Y-76481536D01*
X53908593Y-76978059D01*
X53660326Y-77510263D01*
X53394853Y-78079299D01*
X53303859Y-78274333D01*
X53056263Y-78805018D01*
X52825946Y-79298678D01*
X52612286Y-79756652D01*
X52414663Y-80180279D01*
X52232453Y-80570898D01*
X52065037Y-80929847D01*
X51911794Y-81258465D01*
X51772101Y-81558091D01*
X51645337Y-81830062D01*
X51530882Y-82075718D01*
X51428114Y-82296398D01*
X51336412Y-82493439D01*
X51255155Y-82668181D01*
X51183721Y-82821962D01*
X51121488Y-82956121D01*
X51067837Y-83071996D01*
X51022145Y-83170926D01*
X50983791Y-83254250D01*
X50952155Y-83323306D01*
X50926614Y-83379433D01*
X50906547Y-83423969D01*
X50891334Y-83458254D01*
X50880353Y-83483625D01*
X50872982Y-83501422D01*
X50868601Y-83512982D01*
X50866588Y-83519645D01*
X50866321Y-83522750D01*
X50867181Y-83523634D01*
X50867613Y-83523667D01*
X50882712Y-83508203D01*
X50916935Y-83467156D01*
X50963650Y-83408539D01*
X50977052Y-83391375D01*
X51796551Y-82360725D01*
X52622829Y-81368447D01*
X53459442Y-80410701D01*
X54309946Y-79483647D01*
X55177899Y-78583447D01*
X56066857Y-77706260D01*
X56980377Y-76848248D01*
X57346850Y-76515496D01*
X57529142Y-76352620D01*
X57720191Y-76183923D01*
X57917409Y-76011559D01*
X58118206Y-75837678D01*
X58319991Y-75664432D01*
X58520175Y-75493974D01*
X58716168Y-75328454D01*
X58905380Y-75170025D01*
X59085221Y-75020839D01*
X59253103Y-74883047D01*
X59406434Y-74758801D01*
X59542625Y-74650252D01*
X59659087Y-74559553D01*
X59753229Y-74488856D01*
X59822461Y-74440312D01*
X59864195Y-74416072D01*
X59875505Y-74414525D01*
X59893267Y-74438142D01*
X59931554Y-74491683D01*
X59987257Y-74570658D01*
X60057265Y-74670573D01*
X60138468Y-74786939D01*
X60227755Y-74915262D01*
X60322017Y-75051053D01*
X60418144Y-75189819D01*
X60513025Y-75327069D01*
X60603550Y-75458310D01*
X60686609Y-75579053D01*
X60759092Y-75684805D01*
X60817889Y-75771074D01*
X60859889Y-75833370D01*
X60881983Y-75867200D01*
X60884534Y-75871712D01*
X60872129Y-75892859D01*
X60831417Y-75936165D01*
X60767052Y-75997223D01*
X60683686Y-76071627D01*
X60585975Y-76154970D01*
X60581173Y-76158978D01*
X60324355Y-76374018D01*
X60062293Y-76595065D01*
X59800007Y-76817805D01*
X59542514Y-77037925D01*
X59294833Y-77251111D01*
X59061984Y-77453051D01*
X58848983Y-77639432D01*
X58660850Y-77805938D01*
X58563933Y-77892762D01*
X57521016Y-78859848D01*
X56507797Y-79855410D01*
X55523054Y-80880766D01*
X54565561Y-81937235D01*
X53634095Y-83026136D01*
X52727433Y-84148788D01*
X52568736Y-84352025D01*
X52400818Y-84568609D01*
X52257100Y-84755073D01*
X52135412Y-84914419D01*
X52033588Y-85049646D01*
X51949459Y-85163754D01*
X51880857Y-85259743D01*
X51825615Y-85340615D01*
X51781564Y-85409368D01*
X51746537Y-85469003D01*
X51718365Y-85522521D01*
X51709119Y-85541639D01*
X51679149Y-85607199D01*
X51652350Y-85671767D01*
X51628044Y-85738971D01*
X51605552Y-85812438D01*
X51584197Y-85895795D01*
X51563300Y-85992669D01*
X51542183Y-86106688D01*
X51520168Y-86241478D01*
X51496578Y-86400668D01*
X51470733Y-86587883D01*
X51441956Y-86806753D01*
X51409568Y-87060903D01*
X51378056Y-87312500D01*
X51220532Y-88735932D01*
X51103933Y-90151147D01*
X51028242Y-91560694D01*
X50993443Y-92967126D01*
X50999519Y-94372991D01*
X51046455Y-95780842D01*
X51134233Y-97193228D01*
X51262838Y-98612699D01*
X51303261Y-98985917D01*
X51343049Y-99338586D01*
X51379324Y-99652197D01*
X51412801Y-99929813D01*
X51444197Y-100174496D01*
X51474228Y-100389309D01*
X51503610Y-100577316D01*
X51533058Y-100741579D01*
X51563289Y-100885161D01*
X51595020Y-101011126D01*
X51628965Y-101122536D01*
X51665841Y-101222454D01*
X51706364Y-101313943D01*
X51751250Y-101400067D01*
X51801215Y-101483887D01*
X51856975Y-101568468D01*
X51919247Y-101656872D01*
X51931677Y-101674083D01*
X52260780Y-102119119D01*
X52618911Y-102586110D01*
X53002156Y-103070423D01*
X53406602Y-103567423D01*
X53828337Y-104072477D01*
X54263447Y-104580949D01*
X54708019Y-105088207D01*
X55158141Y-105589615D01*
X55609898Y-106080539D01*
X56015684Y-106510667D01*
X56496863Y-107005517D01*
X57003713Y-107509998D01*
X57530476Y-108018888D01*
X58071396Y-108526969D01*
X58620716Y-109029018D01*
X59172679Y-109519816D01*
X59721530Y-109994142D01*
X60261511Y-110446775D01*
X60786866Y-110872495D01*
X61077160Y-111100796D01*
X61170602Y-111173867D01*
X61251840Y-111238246D01*
X61315162Y-111289339D01*
X61354859Y-111322551D01*
X61365651Y-111332886D01*
X61351532Y-111348487D01*
X61308622Y-111387526D01*
X61240929Y-111446672D01*
X61152455Y-111522593D01*
X61047207Y-111611959D01*
X60929190Y-111711437D01*
X60802409Y-111817697D01*
X60670869Y-111927408D01*
X60538576Y-112037239D01*
X60409534Y-112143857D01*
X60287749Y-112243932D01*
X60177226Y-112334133D01*
X60081970Y-112411129D01*
X60005986Y-112471587D01*
X59953280Y-112512178D01*
X59927857Y-112529570D01*
X59926376Y-112529966D01*
X59903832Y-112515377D01*
X59852458Y-112476587D01*
X59775889Y-112416566D01*
X59677758Y-112338284D01*
X59561699Y-112244711D01*
X59431345Y-112138817D01*
X59290330Y-112023573D01*
X59142288Y-111901949D01*
X58990851Y-111776914D01*
X58839655Y-111651438D01*
X58692332Y-111528493D01*
X58552517Y-111411047D01*
X58423842Y-111302071D01*
X58416215Y-111295578D01*
X57417437Y-110421588D01*
X56434224Y-109514798D01*
X55471410Y-108580075D01*
X54533830Y-107622288D01*
X53626317Y-106646306D01*
X52753705Y-105656995D01*
X52382704Y-105219500D01*
X52215729Y-105018412D01*
X52028131Y-104789371D01*
X51824666Y-104538305D01*
X51610089Y-104271143D01*
X51389159Y-103993813D01*
X51166630Y-103712244D01*
X50947260Y-103432364D01*
X50892513Y-103362125D01*
X50843564Y-103300257D01*
X50805365Y-103253863D01*
X50784558Y-103230954D01*
X50782813Y-103229833D01*
X50781857Y-103231042D01*
X50782628Y-103235692D01*
X50785836Y-103245316D01*
X50792194Y-103261448D01*
X50802411Y-103285624D01*
X50817199Y-103319377D01*
X50837267Y-103364241D01*
X50863327Y-103421750D01*
X50896090Y-103493438D01*
X50936266Y-103580840D01*
X50984566Y-103685489D01*
X51041701Y-103808920D01*
X51108381Y-103952667D01*
X51185318Y-104118264D01*
X51273222Y-104307245D01*
X51372803Y-104521144D01*
X51484773Y-104761495D01*
X51609843Y-105029832D01*
X51748722Y-105327690D01*
X51902123Y-105656602D01*
X52070754Y-106018103D01*
X52255329Y-106413727D01*
X52456556Y-106845008D01*
X52621535Y-107198583D01*
X52810633Y-107603851D01*
X53002101Y-108014211D01*
X53194546Y-108426679D01*
X53386576Y-108838271D01*
X53576800Y-109246002D01*
X53763825Y-109646889D01*
X53946259Y-110037947D01*
X54122709Y-110416193D01*
X54291785Y-110778642D01*
X54452094Y-111122310D01*
X54602243Y-111444213D01*
X54740841Y-111741367D01*
X54866496Y-112010788D01*
X54977815Y-112249491D01*
X55073407Y-112454492D01*
X55119685Y-112553750D01*
X55235477Y-112802068D01*
X55348349Y-113044032D01*
X55456698Y-113276207D01*
X55558918Y-113495161D01*
X55653405Y-113697458D01*
X55738554Y-113879664D01*
X55812761Y-114038345D01*
X55874421Y-114170067D01*
X55921930Y-114271396D01*
X55953683Y-114338897D01*
X55960313Y-114352917D01*
X56006417Y-114450647D01*
X56048564Y-114540864D01*
X56081871Y-114613056D01*
X56100515Y-114654542D01*
X56130335Y-114723333D01*
X55876376Y-114723333D01*
X55815095Y-114601625D01*
X55800430Y-114571095D01*
X55768717Y-114503986D01*
X55720795Y-114402090D01*
X55657499Y-114267197D01*
X55579668Y-114101099D01*
X55488138Y-113905587D01*
X55383747Y-113682452D01*
X55267332Y-113433485D01*
X55139729Y-113160477D01*
X55001777Y-112865221D01*
X54854311Y-112549506D01*
X54698170Y-112215124D01*
X54534190Y-111863867D01*
X54363209Y-111497525D01*
X54186064Y-111117889D01*
X54003592Y-110726752D01*
X53816630Y-110325903D01*
X53769768Y-110225417D01*
X53515941Y-109681142D01*
X53264984Y-109143060D01*
X53017592Y-108612661D01*
X52774462Y-108091438D01*
X52536291Y-107580883D01*
X52303775Y-107082488D01*
X52077609Y-106597744D01*
X51858492Y-106128144D01*
X51647118Y-105675179D01*
X51444185Y-105240342D01*
X51250389Y-104825124D01*
X51066426Y-104431017D01*
X50892992Y-104059514D01*
X50730785Y-103712106D01*
X50580500Y-103390285D01*
X50442834Y-103095544D01*
X50318483Y-102829373D01*
X50208144Y-102593266D01*
X50112512Y-102388713D01*
X50032286Y-102217208D01*
X50006388Y-102161892D01*
X50312289Y-102161892D01*
X50320361Y-102182205D01*
X50352690Y-102232765D01*
X50407100Y-102310750D01*
X50481413Y-102413342D01*
X50573453Y-102537719D01*
X50681043Y-102681062D01*
X50802005Y-102840552D01*
X50934164Y-103013368D01*
X51075341Y-103196690D01*
X51223360Y-103387699D01*
X51376044Y-103583575D01*
X51531217Y-103781497D01*
X51686701Y-103978645D01*
X51840319Y-104172201D01*
X51989894Y-104359344D01*
X52133250Y-104537253D01*
X52268210Y-104703110D01*
X52363579Y-104819068D01*
X52779839Y-105316296D01*
X53193026Y-105797023D01*
X53609192Y-106267889D01*
X54034392Y-106735534D01*
X54474681Y-107206599D01*
X54936112Y-107687724D01*
X55424739Y-108185549D01*
X55523484Y-108284914D01*
X55867296Y-108628479D01*
X56188503Y-108945575D01*
X56492645Y-109241352D01*
X56785261Y-109520963D01*
X57071891Y-109789560D01*
X57358075Y-110052295D01*
X57649354Y-110314320D01*
X57951266Y-110580787D01*
X58269353Y-110856848D01*
X58520450Y-111072083D01*
X58649422Y-111181277D01*
X58788516Y-111297542D01*
X58933941Y-111417841D01*
X59081911Y-111539139D01*
X59228635Y-111658400D01*
X59370326Y-111772588D01*
X59503195Y-111878668D01*
X59623454Y-111973603D01*
X59727313Y-112054359D01*
X59810985Y-112117899D01*
X59870680Y-112161188D01*
X59902611Y-112181189D01*
X59905862Y-112182199D01*
X59926686Y-112169756D01*
X59976075Y-112134050D01*
X60049668Y-112078426D01*
X60143102Y-112006225D01*
X60252015Y-111920794D01*
X60372046Y-111825476D01*
X60392695Y-111808967D01*
X60517391Y-111709055D01*
X60634319Y-111615129D01*
X60738498Y-111531208D01*
X60824946Y-111461313D01*
X60888682Y-111409463D01*
X60924726Y-111379679D01*
X60926296Y-111378342D01*
X60992076Y-111322082D01*
X60481796Y-110922266D01*
X60039188Y-110568189D01*
X59575027Y-110182876D01*
X59092700Y-109769297D01*
X58595590Y-109330425D01*
X58087083Y-108869232D01*
X57570564Y-108388690D01*
X57251600Y-108085991D01*
X56644370Y-107493323D01*
X56031934Y-106872091D01*
X55419469Y-106228146D01*
X54812152Y-105567339D01*
X54215161Y-104895518D01*
X53633672Y-104218536D01*
X53072864Y-103542242D01*
X52537912Y-102872486D01*
X52033996Y-102215120D01*
X51915618Y-102056295D01*
X51830170Y-101941757D01*
X51752694Y-101839382D01*
X51686819Y-101753844D01*
X51636170Y-101689815D01*
X51604376Y-101651969D01*
X51595267Y-101643556D01*
X51573400Y-101650943D01*
X51518050Y-101672085D01*
X51434904Y-101704682D01*
X51329651Y-101746438D01*
X51207978Y-101795055D01*
X51075573Y-101848233D01*
X50938125Y-101903676D01*
X50801322Y-101959084D01*
X50670852Y-102012161D01*
X50552402Y-102060608D01*
X50451662Y-102102127D01*
X50374319Y-102134420D01*
X50326060Y-102155188D01*
X50312289Y-102161892D01*
X50006388Y-102161892D01*
X49968160Y-102080241D01*
X49920831Y-101979305D01*
X49901731Y-101938667D01*
X49805781Y-101734803D01*
X50097267Y-101734803D01*
X50105584Y-101774438D01*
X50126110Y-101828741D01*
X50152205Y-101883582D01*
X50177231Y-101924831D01*
X50193057Y-101938667D01*
X50219535Y-101930963D01*
X50279735Y-101909249D01*
X50368227Y-101875617D01*
X50479583Y-101832161D01*
X50608374Y-101780975D01*
X50746692Y-101725161D01*
X50934771Y-101648665D01*
X51087313Y-101586422D01*
X51208025Y-101536807D01*
X51300614Y-101498195D01*
X51368785Y-101468961D01*
X51416244Y-101447479D01*
X51446699Y-101432125D01*
X51463856Y-101421273D01*
X51471421Y-101413299D01*
X51473100Y-101406663D01*
X51464712Y-101377921D01*
X51443349Y-101325691D01*
X51428155Y-101292255D01*
X51397980Y-101235042D01*
X51372943Y-101209828D01*
X51344277Y-101208629D01*
X51338196Y-101210304D01*
X51298095Y-101224697D01*
X51228028Y-101252174D01*
X51133654Y-101290343D01*
X51020634Y-101336812D01*
X50894627Y-101389190D01*
X50761291Y-101445083D01*
X50626286Y-101502101D01*
X50495271Y-101557851D01*
X50373906Y-101609941D01*
X50267851Y-101655979D01*
X50182763Y-101693574D01*
X50124304Y-101720332D01*
X50098131Y-101733863D01*
X50097267Y-101734803D01*
X49805781Y-101734803D01*
X49797127Y-101716417D01*
X49682791Y-100922667D01*
X49572759Y-100124270D01*
X49477015Y-99353356D01*
X49394903Y-98601353D01*
X49325769Y-97859689D01*
X49268955Y-97119794D01*
X49223805Y-96373094D01*
X49189665Y-95611018D01*
X49165877Y-94824996D01*
X49151786Y-94006454D01*
X49151492Y-93980000D01*
X49152601Y-93468482D01*
X49408975Y-93468482D01*
X49409300Y-93781050D01*
X49410307Y-94088746D01*
X49411996Y-94386898D01*
X49414368Y-94670833D01*
X49417422Y-94935879D01*
X49421158Y-95177363D01*
X49425577Y-95390612D01*
X49430679Y-95570953D01*
X49436464Y-95713714D01*
X49436562Y-95715667D01*
X49496539Y-96745407D01*
X49571124Y-97741442D01*
X49660908Y-98710010D01*
X49766485Y-99657351D01*
X49888444Y-100589706D01*
X49919392Y-100806250D01*
X49947210Y-100995179D01*
X49970434Y-101146061D01*
X49989889Y-101262837D01*
X50006397Y-101349445D01*
X50020780Y-101409825D01*
X50033863Y-101447915D01*
X50046469Y-101467655D01*
X50058708Y-101473000D01*
X50083314Y-101465062D01*
X50141989Y-101442570D01*
X50229836Y-101407512D01*
X50341956Y-101361872D01*
X50473450Y-101307636D01*
X50619418Y-101246790D01*
X50692893Y-101215943D01*
X50864084Y-101143691D01*
X51000134Y-101085576D01*
X51105033Y-101039583D01*
X51182772Y-101003698D01*
X51237342Y-100975907D01*
X51272732Y-100954195D01*
X51292934Y-100936548D01*
X51301937Y-100920952D01*
X51303767Y-100907597D01*
X51300900Y-100871869D01*
X51292889Y-100801261D01*
X51280617Y-100702797D01*
X51264968Y-100583500D01*
X51246825Y-100450393D01*
X51240906Y-100407946D01*
X51107243Y-99383095D01*
X50995928Y-98371782D01*
X50906542Y-97366666D01*
X50838666Y-96360406D01*
X50791881Y-95345661D01*
X50765767Y-94315091D01*
X50759907Y-93261354D01*
X50773125Y-92212583D01*
X50803730Y-91263373D01*
X50855723Y-90289268D01*
X50928181Y-89301353D01*
X51020179Y-88310708D01*
X51130795Y-87328416D01*
X51259104Y-86365559D01*
X51262379Y-86342879D01*
X51281152Y-86212680D01*
X51297671Y-86097273D01*
X51311039Y-86003011D01*
X51320355Y-85936245D01*
X51324720Y-85903328D01*
X51324933Y-85901079D01*
X51306187Y-85888726D01*
X51253702Y-85863139D01*
X51173110Y-85826648D01*
X51070043Y-85781579D01*
X50950130Y-85730261D01*
X50819005Y-85675022D01*
X50682297Y-85618190D01*
X50545639Y-85562092D01*
X50414661Y-85509057D01*
X50294994Y-85461412D01*
X50192271Y-85421485D01*
X50112122Y-85391604D01*
X50060179Y-85374098D01*
X50042224Y-85370820D01*
X50035663Y-85394671D01*
X50024034Y-85455250D01*
X50008153Y-85547361D01*
X49988834Y-85665809D01*
X49966892Y-85805397D01*
X49943141Y-85960932D01*
X49918396Y-86127216D01*
X49893473Y-86299056D01*
X49869184Y-86471256D01*
X49865537Y-86497583D01*
X49734102Y-87531732D01*
X49622855Y-88586574D01*
X49531331Y-89667240D01*
X49459062Y-90778862D01*
X49436712Y-91207167D01*
X49430906Y-91353303D01*
X49425781Y-91536623D01*
X49421337Y-91752453D01*
X49417574Y-91996121D01*
X49414491Y-92262954D01*
X49412090Y-92548280D01*
X49410370Y-92847424D01*
X49409332Y-93155716D01*
X49408975Y-93468482D01*
X49152601Y-93468482D01*
X49154500Y-92593395D01*
X49194294Y-91218435D01*
X49271276Y-89849260D01*
X49385846Y-88480011D01*
X49538406Y-87104830D01*
X49707734Y-85862583D01*
X49738404Y-85659519D01*
X49765988Y-85490661D01*
X49792796Y-85348230D01*
X49821137Y-85224443D01*
X49853321Y-85111520D01*
X49854048Y-85109436D01*
X50131932Y-85109436D01*
X50132332Y-85126953D01*
X50155603Y-85136572D01*
X50212912Y-85160673D01*
X50299341Y-85197175D01*
X50409969Y-85243998D01*
X50539877Y-85299060D01*
X50684145Y-85360279D01*
X50742850Y-85385209D01*
X50892551Y-85448119D01*
X51031082Y-85505046D01*
X51153285Y-85553973D01*
X51254003Y-85592881D01*
X51328082Y-85619753D01*
X51370363Y-85632570D01*
X51376893Y-85633348D01*
X51408961Y-85616127D01*
X51436520Y-85566357D01*
X51449855Y-85527744D01*
X51467251Y-85465499D01*
X51469921Y-85430846D01*
X51457959Y-85411719D01*
X51450813Y-85406756D01*
X51421110Y-85392266D01*
X51359670Y-85365143D01*
X51272201Y-85327726D01*
X51164411Y-85282355D01*
X51042009Y-85231369D01*
X50910703Y-85177108D01*
X50776201Y-85121911D01*
X50644212Y-85068117D01*
X50520445Y-85018067D01*
X50410607Y-84974099D01*
X50320408Y-84938553D01*
X50255555Y-84913769D01*
X50221757Y-84902086D01*
X50218214Y-84901602D01*
X50192729Y-84948818D01*
X50166635Y-85007641D01*
X50144760Y-85065403D01*
X50131932Y-85109436D01*
X49854048Y-85109436D01*
X49891658Y-85001679D01*
X49938459Y-84887140D01*
X49996031Y-84760121D01*
X50047010Y-84653857D01*
X50351267Y-84653857D01*
X50370438Y-84674044D01*
X50425047Y-84706374D01*
X50510741Y-84748548D01*
X50623163Y-84798269D01*
X50631725Y-84801889D01*
X50878852Y-84905830D01*
X51090360Y-84994177D01*
X51265705Y-85066709D01*
X51404344Y-85123204D01*
X51505734Y-85163442D01*
X51569331Y-85187200D01*
X51593617Y-85194299D01*
X51612179Y-85178403D01*
X51652764Y-85132646D01*
X51712082Y-85061099D01*
X51786844Y-84967835D01*
X51873761Y-84856925D01*
X51969545Y-84732442D01*
X52015514Y-84671958D01*
X52442607Y-84114283D01*
X52856550Y-83587227D01*
X53263223Y-83083595D01*
X53668507Y-82596191D01*
X54078281Y-82117821D01*
X54424219Y-81724500D01*
X54895459Y-81203754D01*
X55393294Y-80670418D01*
X55912015Y-80130094D01*
X56445914Y-79588386D01*
X56989281Y-79050895D01*
X57536407Y-78523224D01*
X58081584Y-78010976D01*
X58619103Y-77519753D01*
X59143255Y-77055157D01*
X59463517Y-76779100D01*
X59558270Y-76698861D01*
X59668347Y-76606442D01*
X59788866Y-76505865D01*
X59914942Y-76401154D01*
X60041694Y-76296331D01*
X60164239Y-76195419D01*
X60277693Y-76102440D01*
X60377174Y-76021418D01*
X60457799Y-75956376D01*
X60514686Y-75911335D01*
X60539532Y-75892610D01*
X60570102Y-75863949D01*
X60567025Y-75833948D01*
X60558323Y-75818697D01*
X60533152Y-75781046D01*
X60488811Y-75717460D01*
X60429002Y-75633042D01*
X60357426Y-75532897D01*
X60277786Y-75422130D01*
X60193782Y-75305843D01*
X60109118Y-75189143D01*
X60027494Y-75077133D01*
X59952612Y-74974917D01*
X59888175Y-74887600D01*
X59837883Y-74820286D01*
X59805438Y-74778079D01*
X59794720Y-74765773D01*
X59772041Y-74777072D01*
X59717809Y-74815721D01*
X59632478Y-74881358D01*
X59516499Y-74973623D01*
X59370322Y-75092153D01*
X59194399Y-75236588D01*
X58989182Y-75406565D01*
X58849683Y-75522743D01*
X58069249Y-76189886D01*
X57284078Y-76892370D01*
X56499853Y-77624502D01*
X55722259Y-78380592D01*
X54956979Y-79154949D01*
X54209697Y-79941881D01*
X53486096Y-80735698D01*
X52791860Y-81530708D01*
X52476278Y-81904417D01*
X52346596Y-82060955D01*
X52206532Y-82232270D01*
X52058289Y-82415511D01*
X51904072Y-82607824D01*
X51746085Y-82806359D01*
X51586532Y-83008264D01*
X51427618Y-83210686D01*
X51271546Y-83410773D01*
X51120522Y-83605673D01*
X50976749Y-83792535D01*
X50842431Y-83968507D01*
X50719773Y-84130736D01*
X50610979Y-84276370D01*
X50518253Y-84402559D01*
X50443800Y-84506448D01*
X50389823Y-84585188D01*
X50358528Y-84635925D01*
X50351267Y-84653857D01*
X50047010Y-84653857D01*
X50066687Y-84612842D01*
X50097297Y-84550250D01*
X50127759Y-84487841D01*
X50162633Y-84415805D01*
X50202461Y-84332981D01*
X50247786Y-84238210D01*
X50299152Y-84130332D01*
X50357102Y-84008187D01*
X50422179Y-83870615D01*
X50494926Y-83716458D01*
X50575886Y-83544554D01*
X50665604Y-83353746D01*
X50764621Y-83142871D01*
X50873482Y-82910772D01*
X50992730Y-82656289D01*
X51122907Y-82378261D01*
X51264557Y-82075529D01*
X51418224Y-81746934D01*
X51584450Y-81391315D01*
X51763778Y-81007513D01*
X51956753Y-80594368D01*
X52163917Y-80150720D01*
X52385813Y-79675411D01*
X52622985Y-79167280D01*
X52875976Y-78625167D01*
X53145329Y-78047913D01*
X53431588Y-77434357D01*
X53669231Y-76924958D01*
X55863790Y-72220667D01*
X55987621Y-72220667D01*
X56056447Y-72221868D01*
G36*
X63913926Y-109402973D02*
G01*
X63951288Y-109427514D01*
X63971301Y-109452909D01*
X64013563Y-109507476D01*
X64074634Y-109586740D01*
X64151074Y-109686226D01*
X64239441Y-109801459D01*
X64336294Y-109927964D01*
X64372332Y-109975083D01*
X64763551Y-110486750D01*
X64502730Y-111113665D01*
X64439022Y-111266365D01*
X64380314Y-111406255D01*
X64328618Y-111528608D01*
X64285943Y-111628700D01*
X64254300Y-111701804D01*
X64235698Y-111743196D01*
X64231710Y-111750779D01*
X64209437Y-111755603D01*
X64151321Y-111764929D01*
X64063515Y-111777931D01*
X63952172Y-111793787D01*
X63823446Y-111811671D01*
X63683491Y-111830760D01*
X63538460Y-111850230D01*
X63394507Y-111869257D01*
X63257785Y-111887017D01*
X63134447Y-111902687D01*
X63030648Y-111915441D01*
X62952541Y-111924456D01*
X62906279Y-111928909D01*
X62898960Y-111929237D01*
X62875905Y-111912520D01*
X62829881Y-111863838D01*
X62762795Y-111785480D01*
X62676552Y-111679738D01*
X62573056Y-111548901D01*
X62454213Y-111395259D01*
X62447726Y-111386790D01*
X62032381Y-110844247D01*
X62039079Y-110828070D01*
X62145954Y-110828070D01*
X62526764Y-111325785D01*
X62626675Y-111454935D01*
X62718455Y-111570827D01*
X62798811Y-111669504D01*
X62864449Y-111747008D01*
X62912077Y-111799383D01*
X62938400Y-111822672D01*
X62941022Y-111823500D01*
X62970113Y-111820836D01*
X63035428Y-111813318D01*
X63131225Y-111801657D01*
X63251761Y-111786564D01*
X63391294Y-111768751D01*
X63544081Y-111748927D01*
X63557909Y-111747118D01*
X63710613Y-111726656D01*
X63849613Y-111707129D01*
X63969365Y-111689390D01*
X64064324Y-111674289D01*
X64128946Y-111662677D01*
X64157688Y-111655405D01*
X64158394Y-111654932D01*
X64170631Y-111632012D01*
X64196307Y-111575958D01*
X64232878Y-111492838D01*
X64277803Y-111388720D01*
X64328540Y-111269670D01*
X64382547Y-111141756D01*
X64437281Y-111011046D01*
X64490200Y-110883608D01*
X64538762Y-110765508D01*
X64580425Y-110662814D01*
X64612647Y-110581594D01*
X64632885Y-110527915D01*
X64638767Y-110508418D01*
X64626456Y-110487845D01*
X64592133Y-110438968D01*
X64539711Y-110366947D01*
X64473105Y-110276944D01*
X64396229Y-110174120D01*
X64312995Y-110063636D01*
X64227319Y-109950654D01*
X64143113Y-109840334D01*
X64064293Y-109737838D01*
X63994771Y-109648327D01*
X63938461Y-109576962D01*
X63899278Y-109528904D01*
X63881135Y-109509315D01*
X63881104Y-109509297D01*
X63857203Y-109509855D01*
X63797808Y-109515468D01*
X63709330Y-109525301D01*
X63598176Y-109538518D01*
X63470759Y-109554280D01*
X63333486Y-109571753D01*
X63192767Y-109590099D01*
X63055013Y-109608482D01*
X62926633Y-109626065D01*
X62814036Y-109642012D01*
X62723632Y-109655485D01*
X62661830Y-109665650D01*
X62635041Y-109671668D01*
X62634551Y-109671993D01*
X62624291Y-109693201D01*
X62599892Y-109748560D01*
X62563462Y-109833133D01*
X62517112Y-109941980D01*
X62462952Y-110070164D01*
X62403093Y-110212747D01*
X62385521Y-110254763D01*
X62145954Y-110828070D01*
X62039079Y-110828070D01*
X62291956Y-110217332D01*
X62355259Y-110064664D01*
X62413401Y-109924863D01*
X62464406Y-109802645D01*
X62506299Y-109702729D01*
X62537104Y-109629834D01*
X62554844Y-109588675D01*
X62558348Y-109581232D01*
X62580262Y-109576263D01*
X62638871Y-109566719D01*
X62728871Y-109553359D01*
X62844962Y-109536947D01*
X62981840Y-109518243D01*
X63134204Y-109498008D01*
X63173340Y-109492898D01*
X63332570Y-109472109D01*
X63481130Y-109452587D01*
X63612967Y-109435138D01*
X63722029Y-109420566D01*
X63802264Y-109409676D01*
X63847618Y-109403275D01*
X63851490Y-109402680D01*
X63913926Y-109402973D01*
G37*
X63913926Y-109402973D02*
X63951288Y-109427514D01*
X63971301Y-109452909D01*
X64013563Y-109507476D01*
X64074634Y-109586740D01*
X64151074Y-109686226D01*
X64239441Y-109801459D01*
X64336294Y-109927964D01*
X64372332Y-109975083D01*
X64763551Y-110486750D01*
X64502730Y-111113665D01*
X64439022Y-111266365D01*
X64380314Y-111406255D01*
X64328618Y-111528608D01*
X64285943Y-111628700D01*
X64254300Y-111701804D01*
X64235698Y-111743196D01*
X64231710Y-111750779D01*
X64209437Y-111755603D01*
X64151321Y-111764929D01*
X64063515Y-111777931D01*
X63952172Y-111793787D01*
X63823446Y-111811671D01*
X63683491Y-111830760D01*
X63538460Y-111850230D01*
X63394507Y-111869257D01*
X63257785Y-111887017D01*
X63134447Y-111902687D01*
X63030648Y-111915441D01*
X62952541Y-111924456D01*
X62906279Y-111928909D01*
X62898960Y-111929237D01*
X62875905Y-111912520D01*
X62829881Y-111863838D01*
X62762795Y-111785480D01*
X62676552Y-111679738D01*
X62573056Y-111548901D01*
X62454213Y-111395259D01*
X62447726Y-111386790D01*
X62032381Y-110844247D01*
X62039079Y-110828070D01*
X62145954Y-110828070D01*
X62526764Y-111325785D01*
X62626675Y-111454935D01*
X62718455Y-111570827D01*
X62798811Y-111669504D01*
X62864449Y-111747008D01*
X62912077Y-111799383D01*
X62938400Y-111822672D01*
X62941022Y-111823500D01*
X62970113Y-111820836D01*
X63035428Y-111813318D01*
X63131225Y-111801657D01*
X63251761Y-111786564D01*
X63391294Y-111768751D01*
X63544081Y-111748927D01*
X63557909Y-111747118D01*
X63710613Y-111726656D01*
X63849613Y-111707129D01*
X63969365Y-111689390D01*
X64064324Y-111674289D01*
X64128946Y-111662677D01*
X64157688Y-111655405D01*
X64158394Y-111654932D01*
X64170631Y-111632012D01*
X64196307Y-111575958D01*
X64232878Y-111492838D01*
X64277803Y-111388720D01*
X64328540Y-111269670D01*
X64382547Y-111141756D01*
X64437281Y-111011046D01*
X64490200Y-110883608D01*
X64538762Y-110765508D01*
X64580425Y-110662814D01*
X64612647Y-110581594D01*
X64632885Y-110527915D01*
X64638767Y-110508418D01*
X64626456Y-110487845D01*
X64592133Y-110438968D01*
X64539711Y-110366947D01*
X64473105Y-110276944D01*
X64396229Y-110174120D01*
X64312995Y-110063636D01*
X64227319Y-109950654D01*
X64143113Y-109840334D01*
X64064293Y-109737838D01*
X63994771Y-109648327D01*
X63938461Y-109576962D01*
X63899278Y-109528904D01*
X63881135Y-109509315D01*
X63881104Y-109509297D01*
X63857203Y-109509855D01*
X63797808Y-109515468D01*
X63709330Y-109525301D01*
X63598176Y-109538518D01*
X63470759Y-109554280D01*
X63333486Y-109571753D01*
X63192767Y-109590099D01*
X63055013Y-109608482D01*
X62926633Y-109626065D01*
X62814036Y-109642012D01*
X62723632Y-109655485D01*
X62661830Y-109665650D01*
X62635041Y-109671668D01*
X62634551Y-109671993D01*
X62624291Y-109693201D01*
X62599892Y-109748560D01*
X62563462Y-109833133D01*
X62517112Y-109941980D01*
X62462952Y-110070164D01*
X62403093Y-110212747D01*
X62385521Y-110254763D01*
X62145954Y-110828070D01*
X62039079Y-110828070D01*
X62291956Y-110217332D01*
X62355259Y-110064664D01*
X62413401Y-109924863D01*
X62464406Y-109802645D01*
X62506299Y-109702729D01*
X62537104Y-109629834D01*
X62554844Y-109588675D01*
X62558348Y-109581232D01*
X62580262Y-109576263D01*
X62638871Y-109566719D01*
X62728871Y-109553359D01*
X62844962Y-109536947D01*
X62981840Y-109518243D01*
X63134204Y-109498008D01*
X63173340Y-109492898D01*
X63332570Y-109472109D01*
X63481130Y-109452587D01*
X63612967Y-109435138D01*
X63722029Y-109420566D01*
X63802264Y-109409676D01*
X63847618Y-109403275D01*
X63851490Y-109402680D01*
X63913926Y-109402973D01*
G36*
X77168564Y-109402246D02*
G01*
X77236281Y-109411822D01*
X77334613Y-109425096D01*
X77457865Y-109441311D01*
X77600337Y-109459711D01*
X77756332Y-109479540D01*
X77793850Y-109484265D01*
X77951263Y-109504416D01*
X78095637Y-109523595D01*
X78221449Y-109541013D01*
X78323176Y-109555881D01*
X78395297Y-109567410D01*
X78432289Y-109574812D01*
X78435390Y-109575919D01*
X78450033Y-109598366D01*
X78478548Y-109655204D01*
X78518776Y-109741642D01*
X78568555Y-109852888D01*
X78625728Y-109984153D01*
X78688134Y-110130646D01*
X78723431Y-110214833D01*
X78797892Y-110394455D01*
X78856734Y-110539012D01*
X78901296Y-110652228D01*
X78932913Y-110737828D01*
X78952923Y-110799537D01*
X78962662Y-110841079D01*
X78963467Y-110866178D01*
X78960307Y-110874763D01*
X78941863Y-110900008D01*
X78900979Y-110954328D01*
X78841053Y-111033262D01*
X78765480Y-111132349D01*
X78677660Y-111247131D01*
X78580988Y-111373147D01*
X78545267Y-111419632D01*
X78434368Y-111563699D01*
X78345980Y-111677655D01*
X78276884Y-111765006D01*
X78223858Y-111829257D01*
X78183683Y-111873915D01*
X78153138Y-111902483D01*
X78129003Y-111918469D01*
X78108058Y-111925375D01*
X78087082Y-111926709D01*
X78079600Y-111926524D01*
X78039538Y-111923062D01*
X77963770Y-111914533D01*
X77858516Y-111901714D01*
X77729998Y-111885382D01*
X77584437Y-111866314D01*
X77428054Y-111845287D01*
X77416694Y-111843739D01*
X77262726Y-111822506D01*
X77121868Y-111802643D01*
X76999748Y-111784978D01*
X76901999Y-111770339D01*
X76834249Y-111759557D01*
X76802130Y-111753460D01*
X76800907Y-111753071D01*
X76784432Y-111730765D01*
X76755392Y-111674873D01*
X76716116Y-111591087D01*
X76668928Y-111485103D01*
X76616157Y-111362614D01*
X76560127Y-111229314D01*
X76503165Y-111090898D01*
X76447599Y-110953060D01*
X76395753Y-110821494D01*
X76349955Y-110701894D01*
X76312532Y-110599954D01*
X76285808Y-110521368D01*
X76274343Y-110479899D01*
X76384414Y-110479899D01*
X76388049Y-110504204D01*
X76406336Y-110562472D01*
X76437408Y-110649686D01*
X76479403Y-110760829D01*
X76530456Y-110890886D01*
X76588702Y-111034840D01*
X76608608Y-111083149D01*
X76849318Y-111664750D01*
X77416834Y-111741978D01*
X77570288Y-111762607D01*
X77712769Y-111781283D01*
X77838047Y-111797227D01*
X77939892Y-111809660D01*
X78012075Y-111817803D01*
X78047850Y-111820866D01*
X78076261Y-111818261D01*
X78104213Y-111805340D01*
X78137216Y-111776838D01*
X78180777Y-111727486D01*
X78240404Y-111652018D01*
X78283559Y-111595471D01*
X78362379Y-111491729D01*
X78456205Y-111368519D01*
X78554270Y-111239961D01*
X78645813Y-111120176D01*
X78662003Y-111099022D01*
X78868238Y-110829627D01*
X78629524Y-110252355D01*
X78569071Y-110106288D01*
X78514002Y-109973468D01*
X78466347Y-109858775D01*
X78428137Y-109767086D01*
X78401404Y-109703280D01*
X78388176Y-109672235D01*
X78387140Y-109670032D01*
X78364806Y-109664463D01*
X78306838Y-109654909D01*
X78219562Y-109642159D01*
X78109305Y-109627000D01*
X77982394Y-109610222D01*
X77845157Y-109592611D01*
X77703919Y-109574956D01*
X77565009Y-109558046D01*
X77434751Y-109542669D01*
X77319475Y-109529612D01*
X77225505Y-109519664D01*
X77159170Y-109513613D01*
X77126795Y-109512248D01*
X77124715Y-109512765D01*
X77110295Y-109530869D01*
X77074440Y-109577187D01*
X77016546Y-109652509D01*
X76936010Y-109757621D01*
X76832228Y-109893312D01*
X76704599Y-110060370D01*
X76552518Y-110259583D01*
X76384414Y-110479899D01*
X76274343Y-110479899D01*
X76272112Y-110471831D01*
X76271558Y-110457434D01*
X76288915Y-110434349D01*
X76328815Y-110382050D01*
X76387948Y-110304850D01*
X76463008Y-110207059D01*
X76550686Y-110092990D01*
X76647675Y-109966953D01*
X76692661Y-109908540D01*
X76808776Y-109758461D01*
X76902328Y-109639250D01*
X76976015Y-109547804D01*
X77032534Y-109481019D01*
X77074584Y-109435792D01*
X77104860Y-109409020D01*
X77126062Y-109397598D01*
X77137161Y-109397124D01*
X77168564Y-109402246D01*
G37*
X77168564Y-109402246D02*
X77236281Y-109411822D01*
X77334613Y-109425096D01*
X77457865Y-109441311D01*
X77600337Y-109459711D01*
X77756332Y-109479540D01*
X77793850Y-109484265D01*
X77951263Y-109504416D01*
X78095637Y-109523595D01*
X78221449Y-109541013D01*
X78323176Y-109555881D01*
X78395297Y-109567410D01*
X78432289Y-109574812D01*
X78435390Y-109575919D01*
X78450033Y-109598366D01*
X78478548Y-109655204D01*
X78518776Y-109741642D01*
X78568555Y-109852888D01*
X78625728Y-109984153D01*
X78688134Y-110130646D01*
X78723431Y-110214833D01*
X78797892Y-110394455D01*
X78856734Y-110539012D01*
X78901296Y-110652228D01*
X78932913Y-110737828D01*
X78952923Y-110799537D01*
X78962662Y-110841079D01*
X78963467Y-110866178D01*
X78960307Y-110874763D01*
X78941863Y-110900008D01*
X78900979Y-110954328D01*
X78841053Y-111033262D01*
X78765480Y-111132349D01*
X78677660Y-111247131D01*
X78580988Y-111373147D01*
X78545267Y-111419632D01*
X78434368Y-111563699D01*
X78345980Y-111677655D01*
X78276884Y-111765006D01*
X78223858Y-111829257D01*
X78183683Y-111873915D01*
X78153138Y-111902483D01*
X78129003Y-111918469D01*
X78108058Y-111925375D01*
X78087082Y-111926709D01*
X78079600Y-111926524D01*
X78039538Y-111923062D01*
X77963770Y-111914533D01*
X77858516Y-111901714D01*
X77729998Y-111885382D01*
X77584437Y-111866314D01*
X77428054Y-111845287D01*
X77416694Y-111843739D01*
X77262726Y-111822506D01*
X77121868Y-111802643D01*
X76999748Y-111784978D01*
X76901999Y-111770339D01*
X76834249Y-111759557D01*
X76802130Y-111753460D01*
X76800907Y-111753071D01*
X76784432Y-111730765D01*
X76755392Y-111674873D01*
X76716116Y-111591087D01*
X76668928Y-111485103D01*
X76616157Y-111362614D01*
X76560127Y-111229314D01*
X76503165Y-111090898D01*
X76447599Y-110953060D01*
X76395753Y-110821494D01*
X76349955Y-110701894D01*
X76312532Y-110599954D01*
X76285808Y-110521368D01*
X76274343Y-110479899D01*
X76384414Y-110479899D01*
X76388049Y-110504204D01*
X76406336Y-110562472D01*
X76437408Y-110649686D01*
X76479403Y-110760829D01*
X76530456Y-110890886D01*
X76588702Y-111034840D01*
X76608608Y-111083149D01*
X76849318Y-111664750D01*
X77416834Y-111741978D01*
X77570288Y-111762607D01*
X77712769Y-111781283D01*
X77838047Y-111797227D01*
X77939892Y-111809660D01*
X78012075Y-111817803D01*
X78047850Y-111820866D01*
X78076261Y-111818261D01*
X78104213Y-111805340D01*
X78137216Y-111776838D01*
X78180777Y-111727486D01*
X78240404Y-111652018D01*
X78283559Y-111595471D01*
X78362379Y-111491729D01*
X78456205Y-111368519D01*
X78554270Y-111239961D01*
X78645813Y-111120176D01*
X78662003Y-111099022D01*
X78868238Y-110829627D01*
X78629524Y-110252355D01*
X78569071Y-110106288D01*
X78514002Y-109973468D01*
X78466347Y-109858775D01*
X78428137Y-109767086D01*
X78401404Y-109703280D01*
X78388176Y-109672235D01*
X78387140Y-109670032D01*
X78364806Y-109664463D01*
X78306838Y-109654909D01*
X78219562Y-109642159D01*
X78109305Y-109627000D01*
X77982394Y-109610222D01*
X77845157Y-109592611D01*
X77703919Y-109574956D01*
X77565009Y-109558046D01*
X77434751Y-109542669D01*
X77319475Y-109529612D01*
X77225505Y-109519664D01*
X77159170Y-109513613D01*
X77126795Y-109512248D01*
X77124715Y-109512765D01*
X77110295Y-109530869D01*
X77074440Y-109577187D01*
X77016546Y-109652509D01*
X76936010Y-109757621D01*
X76832228Y-109893312D01*
X76704599Y-110060370D01*
X76552518Y-110259583D01*
X76384414Y-110479899D01*
X76274343Y-110479899D01*
X76272112Y-110471831D01*
X76271558Y-110457434D01*
X76288915Y-110434349D01*
X76328815Y-110382050D01*
X76387948Y-110304850D01*
X76463008Y-110207059D01*
X76550686Y-110092990D01*
X76647675Y-109966953D01*
X76692661Y-109908540D01*
X76808776Y-109758461D01*
X76902328Y-109639250D01*
X76976015Y-109547804D01*
X77032534Y-109481019D01*
X77074584Y-109435792D01*
X77104860Y-109409020D01*
X77126062Y-109397598D01*
X77137161Y-109397124D01*
X77168564Y-109402246D01*
G36*
X54059277Y-99653996D02*
G01*
X54190297Y-99753858D01*
X54310318Y-99845350D01*
X54415249Y-99925353D01*
X54500999Y-99990748D01*
X54563477Y-100038414D01*
X54598592Y-100065233D01*
X54604744Y-100069954D01*
X54604192Y-100091593D01*
X54598777Y-100149056D01*
X54589269Y-100236209D01*
X54576438Y-100346920D01*
X54561057Y-100475056D01*
X54543894Y-100614483D01*
X54525721Y-100759068D01*
X54507308Y-100902679D01*
X54489426Y-101039183D01*
X54472847Y-101162446D01*
X54458340Y-101266335D01*
X54446676Y-101344718D01*
X54438770Y-101390758D01*
X54433600Y-101409254D01*
X54423446Y-101426417D01*
X54404152Y-101444351D01*
X54371561Y-101465160D01*
X54321520Y-101490948D01*
X54249871Y-101523820D01*
X54152459Y-101565879D01*
X54025129Y-101619231D01*
X53863724Y-101685979D01*
X53820824Y-101703662D01*
X53670086Y-101765922D01*
X53531597Y-101823403D01*
X53410312Y-101874027D01*
X53311189Y-101915713D01*
X53239183Y-101946383D01*
X53199249Y-101963959D01*
X53193168Y-101966975D01*
X53171332Y-101958091D01*
X53120349Y-101926228D01*
X53044485Y-101874399D01*
X52948011Y-101805616D01*
X52835192Y-101722891D01*
X52710299Y-101629235D01*
X52655147Y-101587272D01*
X52525211Y-101487722D01*
X52405021Y-101395135D01*
X52299031Y-101312983D01*
X52211694Y-101244735D01*
X52147464Y-101193862D01*
X52110796Y-101163835D01*
X52105040Y-101158637D01*
X52095722Y-101146485D01*
X52089406Y-101128497D01*
X52086440Y-101100190D01*
X52087173Y-101057083D01*
X52088820Y-101035571D01*
X52187615Y-101035571D01*
X52188270Y-101054687D01*
X52196095Y-101075394D01*
X52214610Y-101100890D01*
X52247335Y-101134373D01*
X52297792Y-101179042D01*
X52369501Y-101238094D01*
X52465984Y-101314729D01*
X52590760Y-101412143D01*
X52669017Y-101472865D01*
X52793802Y-101569123D01*
X52908132Y-101656451D01*
X53007644Y-101731583D01*
X53087973Y-101791256D01*
X53144755Y-101832205D01*
X53173626Y-101851165D01*
X53175963Y-101852086D01*
X53199951Y-101844748D01*
X53257913Y-101823068D01*
X53344778Y-101789061D01*
X53455474Y-101744743D01*
X53584931Y-101692130D01*
X53728078Y-101633239D01*
X53765286Y-101617822D01*
X53910614Y-101556867D01*
X54042794Y-101500171D01*
X54156864Y-101449963D01*
X54247861Y-101408472D01*
X54310822Y-101377927D01*
X54340783Y-101360559D01*
X54342538Y-101358530D01*
X54347428Y-101331725D01*
X54356707Y-101269570D01*
X54369503Y-101178718D01*
X54384946Y-101065824D01*
X54402164Y-100937542D01*
X54420286Y-100800528D01*
X54438440Y-100661435D01*
X54455756Y-100526919D01*
X54471361Y-100403633D01*
X54484385Y-100298231D01*
X54493956Y-100217369D01*
X54499203Y-100167701D01*
X54499933Y-100156461D01*
X54483445Y-100134014D01*
X54436123Y-100089104D01*
X54361176Y-100024432D01*
X54261815Y-99942693D01*
X54141252Y-99846586D01*
X54005134Y-99740686D01*
X53510335Y-99359820D01*
X52937635Y-99596548D01*
X52791673Y-99657119D01*
X52658597Y-99712800D01*
X52543393Y-99761465D01*
X52451050Y-99800993D01*
X52386554Y-99829259D01*
X52354893Y-99844142D01*
X52352625Y-99845586D01*
X52347433Y-99868122D01*
X52337696Y-99926189D01*
X52324306Y-100013337D01*
X52308160Y-100123113D01*
X52290150Y-100249069D01*
X52271172Y-100384751D01*
X52252121Y-100523711D01*
X52233890Y-100659495D01*
X52217374Y-100785655D01*
X52203469Y-100895738D01*
X52193068Y-100983294D01*
X52187615Y-101035571D01*
X52088820Y-101035571D01*
X52091952Y-100994696D01*
X52101126Y-100908547D01*
X52115044Y-100794154D01*
X52134053Y-100647037D01*
X52158503Y-100462714D01*
X52160011Y-100451418D01*
X52182085Y-100287815D01*
X52202716Y-100138146D01*
X52221175Y-100007447D01*
X52236734Y-99900752D01*
X52248664Y-99823098D01*
X52256236Y-99779521D01*
X52258321Y-99771862D01*
X52279249Y-99762318D01*
X52334613Y-99738627D01*
X52419703Y-99702762D01*
X52529810Y-99656696D01*
X52660226Y-99602402D01*
X52806240Y-99541852D01*
X52895110Y-99505102D01*
X53523370Y-99245566D01*
X54059277Y-99653996D01*
G37*
X54059277Y-99653996D02*
X54190297Y-99753858D01*
X54310318Y-99845350D01*
X54415249Y-99925353D01*
X54500999Y-99990748D01*
X54563477Y-100038414D01*
X54598592Y-100065233D01*
X54604744Y-100069954D01*
X54604192Y-100091593D01*
X54598777Y-100149056D01*
X54589269Y-100236209D01*
X54576438Y-100346920D01*
X54561057Y-100475056D01*
X54543894Y-100614483D01*
X54525721Y-100759068D01*
X54507308Y-100902679D01*
X54489426Y-101039183D01*
X54472847Y-101162446D01*
X54458340Y-101266335D01*
X54446676Y-101344718D01*
X54438770Y-101390758D01*
X54433600Y-101409254D01*
X54423446Y-101426417D01*
X54404152Y-101444351D01*
X54371561Y-101465160D01*
X54321520Y-101490948D01*
X54249871Y-101523820D01*
X54152459Y-101565879D01*
X54025129Y-101619231D01*
X53863724Y-101685979D01*
X53820824Y-101703662D01*
X53670086Y-101765922D01*
X53531597Y-101823403D01*
X53410312Y-101874027D01*
X53311189Y-101915713D01*
X53239183Y-101946383D01*
X53199249Y-101963959D01*
X53193168Y-101966975D01*
X53171332Y-101958091D01*
X53120349Y-101926228D01*
X53044485Y-101874399D01*
X52948011Y-101805616D01*
X52835192Y-101722891D01*
X52710299Y-101629235D01*
X52655147Y-101587272D01*
X52525211Y-101487722D01*
X52405021Y-101395135D01*
X52299031Y-101312983D01*
X52211694Y-101244735D01*
X52147464Y-101193862D01*
X52110796Y-101163835D01*
X52105040Y-101158637D01*
X52095722Y-101146485D01*
X52089406Y-101128497D01*
X52086440Y-101100190D01*
X52087173Y-101057083D01*
X52088820Y-101035571D01*
X52187615Y-101035571D01*
X52188270Y-101054687D01*
X52196095Y-101075394D01*
X52214610Y-101100890D01*
X52247335Y-101134373D01*
X52297792Y-101179042D01*
X52369501Y-101238094D01*
X52465984Y-101314729D01*
X52590760Y-101412143D01*
X52669017Y-101472865D01*
X52793802Y-101569123D01*
X52908132Y-101656451D01*
X53007644Y-101731583D01*
X53087973Y-101791256D01*
X53144755Y-101832205D01*
X53173626Y-101851165D01*
X53175963Y-101852086D01*
X53199951Y-101844748D01*
X53257913Y-101823068D01*
X53344778Y-101789061D01*
X53455474Y-101744743D01*
X53584931Y-101692130D01*
X53728078Y-101633239D01*
X53765286Y-101617822D01*
X53910614Y-101556867D01*
X54042794Y-101500171D01*
X54156864Y-101449963D01*
X54247861Y-101408472D01*
X54310822Y-101377927D01*
X54340783Y-101360559D01*
X54342538Y-101358530D01*
X54347428Y-101331725D01*
X54356707Y-101269570D01*
X54369503Y-101178718D01*
X54384946Y-101065824D01*
X54402164Y-100937542D01*
X54420286Y-100800528D01*
X54438440Y-100661435D01*
X54455756Y-100526919D01*
X54471361Y-100403633D01*
X54484385Y-100298231D01*
X54493956Y-100217369D01*
X54499203Y-100167701D01*
X54499933Y-100156461D01*
X54483445Y-100134014D01*
X54436123Y-100089104D01*
X54361176Y-100024432D01*
X54261815Y-99942693D01*
X54141252Y-99846586D01*
X54005134Y-99740686D01*
X53510335Y-99359820D01*
X52937635Y-99596548D01*
X52791673Y-99657119D01*
X52658597Y-99712800D01*
X52543393Y-99761465D01*
X52451050Y-99800993D01*
X52386554Y-99829259D01*
X52354893Y-99844142D01*
X52352625Y-99845586D01*
X52347433Y-99868122D01*
X52337696Y-99926189D01*
X52324306Y-100013337D01*
X52308160Y-100123113D01*
X52290150Y-100249069D01*
X52271172Y-100384751D01*
X52252121Y-100523711D01*
X52233890Y-100659495D01*
X52217374Y-100785655D01*
X52203469Y-100895738D01*
X52193068Y-100983294D01*
X52187615Y-101035571D01*
X52088820Y-101035571D01*
X52091952Y-100994696D01*
X52101126Y-100908547D01*
X52115044Y-100794154D01*
X52134053Y-100647037D01*
X52158503Y-100462714D01*
X52160011Y-100451418D01*
X52182085Y-100287815D01*
X52202716Y-100138146D01*
X52221175Y-100007447D01*
X52236734Y-99900752D01*
X52248664Y-99823098D01*
X52256236Y-99779521D01*
X52258321Y-99771862D01*
X52279249Y-99762318D01*
X52334613Y-99738627D01*
X52419703Y-99702762D01*
X52529810Y-99656696D01*
X52660226Y-99602402D01*
X52806240Y-99541852D01*
X52895110Y-99505102D01*
X53523370Y-99245566D01*
X54059277Y-99653996D01*
G36*
X87494634Y-99265158D02*
G01*
X87561488Y-99285001D01*
X87666600Y-99322644D01*
X87810007Y-99378101D01*
X87991744Y-99451384D01*
X88121038Y-99504679D01*
X88273918Y-99568440D01*
X88413915Y-99627449D01*
X88536314Y-99679669D01*
X88636401Y-99723066D01*
X88709460Y-99755602D01*
X88750778Y-99775242D01*
X88758324Y-99779894D01*
X88763879Y-99804937D01*
X88773738Y-99865778D01*
X88787088Y-99956194D01*
X88803118Y-100069960D01*
X88821015Y-100200851D01*
X88839967Y-100342643D01*
X88859162Y-100489111D01*
X88877788Y-100634031D01*
X88895032Y-100771179D01*
X88910083Y-100894330D01*
X88922129Y-100997260D01*
X88930356Y-101073744D01*
X88933954Y-101117557D01*
X88933831Y-101125025D01*
X88916766Y-101142078D01*
X88871020Y-101181099D01*
X88801472Y-101238251D01*
X88712998Y-101309697D01*
X88610476Y-101391600D01*
X88498785Y-101480121D01*
X88382802Y-101571424D01*
X88267405Y-101661672D01*
X88157472Y-101747027D01*
X88057880Y-101823653D01*
X87973507Y-101887710D01*
X87909232Y-101935363D01*
X87869931Y-101962774D01*
X87865399Y-101965547D01*
X87842328Y-101960145D01*
X87785055Y-101940109D01*
X87698364Y-101907305D01*
X87587039Y-101863599D01*
X87455862Y-101810857D01*
X87309617Y-101750945D01*
X87223600Y-101715240D01*
X87070837Y-101650876D01*
X86930692Y-101590559D01*
X86807957Y-101536453D01*
X86707425Y-101490719D01*
X86633889Y-101455519D01*
X86592140Y-101433016D01*
X86584490Y-101426887D01*
X86578145Y-101399355D01*
X86567471Y-101335380D01*
X86553274Y-101240543D01*
X86536355Y-101120421D01*
X86517518Y-100980594D01*
X86497565Y-100826641D01*
X86493640Y-100795667D01*
X86473622Y-100638070D01*
X86454850Y-100492089D01*
X86438097Y-100363608D01*
X86424139Y-100258510D01*
X86413749Y-100182679D01*
X86408869Y-100149836D01*
X86522971Y-100149836D01*
X86524003Y-100198197D01*
X86529675Y-100270249D01*
X86540342Y-100370098D01*
X86556359Y-100501853D01*
X86578081Y-100669622D01*
X86589177Y-100753205D01*
X86610685Y-100910613D01*
X86631216Y-101053850D01*
X86649945Y-101177694D01*
X86666048Y-101276927D01*
X86678700Y-101346326D01*
X86687075Y-101380673D01*
X86688756Y-101383423D01*
X86711784Y-101392848D01*
X86768732Y-101416516D01*
X86854482Y-101452288D01*
X86963918Y-101498029D01*
X87091923Y-101551601D01*
X87233380Y-101610866D01*
X87255350Y-101620076D01*
X87398616Y-101679882D01*
X87529485Y-101734022D01*
X87642787Y-101780396D01*
X87733354Y-101816906D01*
X87796016Y-101841452D01*
X87825605Y-101851935D01*
X87826850Y-101852163D01*
X87848725Y-101840144D01*
X87899373Y-101805592D01*
X87974111Y-101751915D01*
X88068256Y-101682521D01*
X88177127Y-101600817D01*
X88282767Y-101520389D01*
X88403748Y-101427628D01*
X88516554Y-101341029D01*
X88615905Y-101264654D01*
X88696519Y-101202567D01*
X88753116Y-101158828D01*
X88777857Y-101139538D01*
X88838196Y-101091826D01*
X88756304Y-100468242D01*
X88674412Y-99844657D01*
X88113047Y-99611713D01*
X87967967Y-99551656D01*
X87835090Y-99496930D01*
X87719586Y-99449640D01*
X87626625Y-99411895D01*
X87561379Y-99385802D01*
X87529018Y-99373469D01*
X87526964Y-99372843D01*
X87507704Y-99380926D01*
X87463479Y-99409158D01*
X87393160Y-99458374D01*
X87295624Y-99529406D01*
X87169743Y-99623086D01*
X87014391Y-99740248D01*
X86828443Y-99881725D01*
X86610773Y-100048348D01*
X86533409Y-100107750D01*
X86526225Y-100121056D01*
X86522971Y-100149836D01*
X86408869Y-100149836D01*
X86407704Y-100141999D01*
X86407177Y-100139067D01*
X86406777Y-100122106D01*
X86414270Y-100102618D01*
X86433018Y-100077608D01*
X86466381Y-100044082D01*
X86517722Y-99999046D01*
X86590403Y-99939506D01*
X86687786Y-99862466D01*
X86813231Y-99764932D01*
X86918085Y-99683984D01*
X87047958Y-99583927D01*
X87167730Y-99491737D01*
X87273099Y-99410720D01*
X87359762Y-99344180D01*
X87423416Y-99295424D01*
X87459757Y-99267756D01*
X87466003Y-99263102D01*
X87494634Y-99265158D01*
G37*
X87494634Y-99265158D02*
X87561488Y-99285001D01*
X87666600Y-99322644D01*
X87810007Y-99378101D01*
X87991744Y-99451384D01*
X88121038Y-99504679D01*
X88273918Y-99568440D01*
X88413915Y-99627449D01*
X88536314Y-99679669D01*
X88636401Y-99723066D01*
X88709460Y-99755602D01*
X88750778Y-99775242D01*
X88758324Y-99779894D01*
X88763879Y-99804937D01*
X88773738Y-99865778D01*
X88787088Y-99956194D01*
X88803118Y-100069960D01*
X88821015Y-100200851D01*
X88839967Y-100342643D01*
X88859162Y-100489111D01*
X88877788Y-100634031D01*
X88895032Y-100771179D01*
X88910083Y-100894330D01*
X88922129Y-100997260D01*
X88930356Y-101073744D01*
X88933954Y-101117557D01*
X88933831Y-101125025D01*
X88916766Y-101142078D01*
X88871020Y-101181099D01*
X88801472Y-101238251D01*
X88712998Y-101309697D01*
X88610476Y-101391600D01*
X88498785Y-101480121D01*
X88382802Y-101571424D01*
X88267405Y-101661672D01*
X88157472Y-101747027D01*
X88057880Y-101823653D01*
X87973507Y-101887710D01*
X87909232Y-101935363D01*
X87869931Y-101962774D01*
X87865399Y-101965547D01*
X87842328Y-101960145D01*
X87785055Y-101940109D01*
X87698364Y-101907305D01*
X87587039Y-101863599D01*
X87455862Y-101810857D01*
X87309617Y-101750945D01*
X87223600Y-101715240D01*
X87070837Y-101650876D01*
X86930692Y-101590559D01*
X86807957Y-101536453D01*
X86707425Y-101490719D01*
X86633889Y-101455519D01*
X86592140Y-101433016D01*
X86584490Y-101426887D01*
X86578145Y-101399355D01*
X86567471Y-101335380D01*
X86553274Y-101240543D01*
X86536355Y-101120421D01*
X86517518Y-100980594D01*
X86497565Y-100826641D01*
X86493640Y-100795667D01*
X86473622Y-100638070D01*
X86454850Y-100492089D01*
X86438097Y-100363608D01*
X86424139Y-100258510D01*
X86413749Y-100182679D01*
X86408869Y-100149836D01*
X86522971Y-100149836D01*
X86524003Y-100198197D01*
X86529675Y-100270249D01*
X86540342Y-100370098D01*
X86556359Y-100501853D01*
X86578081Y-100669622D01*
X86589177Y-100753205D01*
X86610685Y-100910613D01*
X86631216Y-101053850D01*
X86649945Y-101177694D01*
X86666048Y-101276927D01*
X86678700Y-101346326D01*
X86687075Y-101380673D01*
X86688756Y-101383423D01*
X86711784Y-101392848D01*
X86768732Y-101416516D01*
X86854482Y-101452288D01*
X86963918Y-101498029D01*
X87091923Y-101551601D01*
X87233380Y-101610866D01*
X87255350Y-101620076D01*
X87398616Y-101679882D01*
X87529485Y-101734022D01*
X87642787Y-101780396D01*
X87733354Y-101816906D01*
X87796016Y-101841452D01*
X87825605Y-101851935D01*
X87826850Y-101852163D01*
X87848725Y-101840144D01*
X87899373Y-101805592D01*
X87974111Y-101751915D01*
X88068256Y-101682521D01*
X88177127Y-101600817D01*
X88282767Y-101520389D01*
X88403748Y-101427628D01*
X88516554Y-101341029D01*
X88615905Y-101264654D01*
X88696519Y-101202567D01*
X88753116Y-101158828D01*
X88777857Y-101139538D01*
X88838196Y-101091826D01*
X88756304Y-100468242D01*
X88674412Y-99844657D01*
X88113047Y-99611713D01*
X87967967Y-99551656D01*
X87835090Y-99496930D01*
X87719586Y-99449640D01*
X87626625Y-99411895D01*
X87561379Y-99385802D01*
X87529018Y-99373469D01*
X87526964Y-99372843D01*
X87507704Y-99380926D01*
X87463479Y-99409158D01*
X87393160Y-99458374D01*
X87295624Y-99529406D01*
X87169743Y-99623086D01*
X87014391Y-99740248D01*
X86828443Y-99881725D01*
X86610773Y-100048348D01*
X86533409Y-100107750D01*
X86526225Y-100121056D01*
X86522971Y-100149836D01*
X86408869Y-100149836D01*
X86407704Y-100141999D01*
X86407177Y-100139067D01*
X86406777Y-100122106D01*
X86414270Y-100102618D01*
X86433018Y-100077608D01*
X86466381Y-100044082D01*
X86517722Y-99999046D01*
X86590403Y-99939506D01*
X86687786Y-99862466D01*
X86813231Y-99764932D01*
X86918085Y-99683984D01*
X87047958Y-99583927D01*
X87167730Y-99491737D01*
X87273099Y-99410720D01*
X87359762Y-99344180D01*
X87423416Y-99295424D01*
X87459757Y-99267756D01*
X87466003Y-99263102D01*
X87494634Y-99265158D01*
G36*
X53212065Y-85048919D02*
G01*
X53272311Y-85071658D01*
X53359495Y-85106021D01*
X53467731Y-85149564D01*
X53591134Y-85199846D01*
X53723817Y-85254422D01*
X53859896Y-85310850D01*
X53993484Y-85366687D01*
X54118696Y-85419490D01*
X54229648Y-85466816D01*
X54320452Y-85506222D01*
X54385224Y-85535266D01*
X54418078Y-85551504D01*
X54420595Y-85553258D01*
X54426486Y-85576405D01*
X54436915Y-85635365D01*
X54451024Y-85723962D01*
X54467955Y-85836021D01*
X54486849Y-85965368D01*
X54506849Y-86105827D01*
X54527095Y-86251223D01*
X54546730Y-86395380D01*
X54564894Y-86532123D01*
X54580731Y-86655278D01*
X54593380Y-86758669D01*
X54601985Y-86836120D01*
X54605687Y-86881458D01*
X54605767Y-86885428D01*
X54590892Y-86909657D01*
X54545684Y-86954663D01*
X54469260Y-87021190D01*
X54360740Y-87109978D01*
X54219246Y-87221772D01*
X54071678Y-87335986D01*
X53940550Y-87436401D01*
X53819755Y-87528228D01*
X53713476Y-87608339D01*
X53625900Y-87673606D01*
X53561211Y-87720899D01*
X53523596Y-87747090D01*
X53516053Y-87751349D01*
X53481415Y-87745706D01*
X53458399Y-87734939D01*
X53427813Y-87720264D01*
X53365281Y-87692795D01*
X53276777Y-87654989D01*
X53168271Y-87609304D01*
X53045737Y-87558198D01*
X52915148Y-87504129D01*
X52782475Y-87449553D01*
X52653692Y-87396930D01*
X52534770Y-87348716D01*
X52431682Y-87307370D01*
X52350401Y-87275349D01*
X52296899Y-87255111D01*
X52277524Y-87249000D01*
X52269553Y-87247796D01*
X52262489Y-87241361D01*
X52255617Y-87225463D01*
X52248223Y-87195868D01*
X52239593Y-87148343D01*
X52229012Y-87078654D01*
X52215768Y-86982568D01*
X52199145Y-86855852D01*
X52178430Y-86694272D01*
X52161484Y-86561083D01*
X52141512Y-86404893D01*
X52122796Y-86260341D01*
X52106124Y-86133369D01*
X52092283Y-86029917D01*
X52082061Y-85955926D01*
X52077665Y-85926749D01*
X52195255Y-85926749D01*
X52199297Y-85986793D01*
X52207490Y-86075948D01*
X52219059Y-86187795D01*
X52233230Y-86315914D01*
X52249227Y-86453889D01*
X52266276Y-86595299D01*
X52283602Y-86733726D01*
X52300430Y-86862752D01*
X52315985Y-86975958D01*
X52329493Y-87066926D01*
X52340178Y-87129235D01*
X52347266Y-87156469D01*
X52347596Y-87156885D01*
X52369595Y-87167750D01*
X52424824Y-87191949D01*
X52507242Y-87227004D01*
X52610812Y-87270436D01*
X52729494Y-87319764D01*
X52857250Y-87372511D01*
X52988039Y-87426196D01*
X53115823Y-87478341D01*
X53234563Y-87526466D01*
X53338219Y-87568092D01*
X53420752Y-87600741D01*
X53476124Y-87621932D01*
X53498104Y-87629194D01*
X53520730Y-87616986D01*
X53572297Y-87582112D01*
X53648294Y-87527849D01*
X53744209Y-87457476D01*
X53855529Y-87374268D01*
X53977744Y-87281503D01*
X53995520Y-87267899D01*
X54118901Y-87173262D01*
X54231665Y-87086545D01*
X54329328Y-87011217D01*
X54407404Y-86950742D01*
X54461408Y-86908589D01*
X54486856Y-86888223D01*
X54487841Y-86887349D01*
X54490882Y-86861162D01*
X54487866Y-86796316D01*
X54479104Y-86696003D01*
X54464904Y-86563414D01*
X54445576Y-86401744D01*
X54425530Y-86245230D01*
X54343561Y-85621559D01*
X53774529Y-85386292D01*
X53628267Y-85326441D01*
X53493915Y-85272647D01*
X53376648Y-85226888D01*
X53281639Y-85191143D01*
X53214064Y-85167390D01*
X53179098Y-85157606D01*
X53176141Y-85157554D01*
X53152964Y-85171525D01*
X53101676Y-85207483D01*
X53027570Y-85261406D01*
X52935938Y-85329275D01*
X52832071Y-85407067D01*
X52721262Y-85490761D01*
X52608802Y-85576337D01*
X52499984Y-85659773D01*
X52400098Y-85737048D01*
X52314437Y-85804141D01*
X52248293Y-85857030D01*
X52206958Y-85891695D01*
X52196140Y-85902234D01*
X52195255Y-85926749D01*
X52077665Y-85926749D01*
X52076246Y-85917339D01*
X52075907Y-85915500D01*
X52075589Y-85898896D01*
X52083158Y-85879696D01*
X52101933Y-85854995D01*
X52135234Y-85821887D01*
X52186379Y-85777465D01*
X52258689Y-85718823D01*
X52355482Y-85643055D01*
X52480078Y-85547255D01*
X52607791Y-85449833D01*
X52740655Y-85349570D01*
X52863864Y-85258292D01*
X52973135Y-85179039D01*
X53064186Y-85114852D01*
X53132737Y-85068771D01*
X53174505Y-85043837D01*
X53184641Y-85040247D01*
X53212065Y-85048919D01*
G37*
X53212065Y-85048919D02*
X53272311Y-85071658D01*
X53359495Y-85106021D01*
X53467731Y-85149564D01*
X53591134Y-85199846D01*
X53723817Y-85254422D01*
X53859896Y-85310850D01*
X53993484Y-85366687D01*
X54118696Y-85419490D01*
X54229648Y-85466816D01*
X54320452Y-85506222D01*
X54385224Y-85535266D01*
X54418078Y-85551504D01*
X54420595Y-85553258D01*
X54426486Y-85576405D01*
X54436915Y-85635365D01*
X54451024Y-85723962D01*
X54467955Y-85836021D01*
X54486849Y-85965368D01*
X54506849Y-86105827D01*
X54527095Y-86251223D01*
X54546730Y-86395380D01*
X54564894Y-86532123D01*
X54580731Y-86655278D01*
X54593380Y-86758669D01*
X54601985Y-86836120D01*
X54605687Y-86881458D01*
X54605767Y-86885428D01*
X54590892Y-86909657D01*
X54545684Y-86954663D01*
X54469260Y-87021190D01*
X54360740Y-87109978D01*
X54219246Y-87221772D01*
X54071678Y-87335986D01*
X53940550Y-87436401D01*
X53819755Y-87528228D01*
X53713476Y-87608339D01*
X53625900Y-87673606D01*
X53561211Y-87720899D01*
X53523596Y-87747090D01*
X53516053Y-87751349D01*
X53481415Y-87745706D01*
X53458399Y-87734939D01*
X53427813Y-87720264D01*
X53365281Y-87692795D01*
X53276777Y-87654989D01*
X53168271Y-87609304D01*
X53045737Y-87558198D01*
X52915148Y-87504129D01*
X52782475Y-87449553D01*
X52653692Y-87396930D01*
X52534770Y-87348716D01*
X52431682Y-87307370D01*
X52350401Y-87275349D01*
X52296899Y-87255111D01*
X52277524Y-87249000D01*
X52269553Y-87247796D01*
X52262489Y-87241361D01*
X52255617Y-87225463D01*
X52248223Y-87195868D01*
X52239593Y-87148343D01*
X52229012Y-87078654D01*
X52215768Y-86982568D01*
X52199145Y-86855852D01*
X52178430Y-86694272D01*
X52161484Y-86561083D01*
X52141512Y-86404893D01*
X52122796Y-86260341D01*
X52106124Y-86133369D01*
X52092283Y-86029917D01*
X52082061Y-85955926D01*
X52077665Y-85926749D01*
X52195255Y-85926749D01*
X52199297Y-85986793D01*
X52207490Y-86075948D01*
X52219059Y-86187795D01*
X52233230Y-86315914D01*
X52249227Y-86453889D01*
X52266276Y-86595299D01*
X52283602Y-86733726D01*
X52300430Y-86862752D01*
X52315985Y-86975958D01*
X52329493Y-87066926D01*
X52340178Y-87129235D01*
X52347266Y-87156469D01*
X52347596Y-87156885D01*
X52369595Y-87167750D01*
X52424824Y-87191949D01*
X52507242Y-87227004D01*
X52610812Y-87270436D01*
X52729494Y-87319764D01*
X52857250Y-87372511D01*
X52988039Y-87426196D01*
X53115823Y-87478341D01*
X53234563Y-87526466D01*
X53338219Y-87568092D01*
X53420752Y-87600741D01*
X53476124Y-87621932D01*
X53498104Y-87629194D01*
X53520730Y-87616986D01*
X53572297Y-87582112D01*
X53648294Y-87527849D01*
X53744209Y-87457476D01*
X53855529Y-87374268D01*
X53977744Y-87281503D01*
X53995520Y-87267899D01*
X54118901Y-87173262D01*
X54231665Y-87086545D01*
X54329328Y-87011217D01*
X54407404Y-86950742D01*
X54461408Y-86908589D01*
X54486856Y-86888223D01*
X54487841Y-86887349D01*
X54490882Y-86861162D01*
X54487866Y-86796316D01*
X54479104Y-86696003D01*
X54464904Y-86563414D01*
X54445576Y-86401744D01*
X54425530Y-86245230D01*
X54343561Y-85621559D01*
X53774529Y-85386292D01*
X53628267Y-85326441D01*
X53493915Y-85272647D01*
X53376648Y-85226888D01*
X53281639Y-85191143D01*
X53214064Y-85167390D01*
X53179098Y-85157606D01*
X53176141Y-85157554D01*
X53152964Y-85171525D01*
X53101676Y-85207483D01*
X53027570Y-85261406D01*
X52935938Y-85329275D01*
X52832071Y-85407067D01*
X52721262Y-85490761D01*
X52608802Y-85576337D01*
X52499984Y-85659773D01*
X52400098Y-85737048D01*
X52314437Y-85804141D01*
X52248293Y-85857030D01*
X52206958Y-85891695D01*
X52196140Y-85902234D01*
X52195255Y-85926749D01*
X52077665Y-85926749D01*
X52076246Y-85917339D01*
X52075907Y-85915500D01*
X52075589Y-85898896D01*
X52083158Y-85879696D01*
X52101933Y-85854995D01*
X52135234Y-85821887D01*
X52186379Y-85777465D01*
X52258689Y-85718823D01*
X52355482Y-85643055D01*
X52480078Y-85547255D01*
X52607791Y-85449833D01*
X52740655Y-85349570D01*
X52863864Y-85258292D01*
X52973135Y-85179039D01*
X53064186Y-85114852D01*
X53132737Y-85068771D01*
X53174505Y-85043837D01*
X53184641Y-85040247D01*
X53212065Y-85048919D01*
G36*
X88396728Y-85440677D02*
G01*
X88528106Y-85542567D01*
X88647983Y-85637372D01*
X88752363Y-85721788D01*
X88837254Y-85792512D01*
X88898660Y-85846239D01*
X88932587Y-85879667D01*
X88938100Y-85888435D01*
X88935298Y-85925489D01*
X88927461Y-85996049D01*
X88915441Y-86093978D01*
X88900090Y-86213138D01*
X88882262Y-86347390D01*
X88862808Y-86490598D01*
X88842582Y-86636623D01*
X88822436Y-86779328D01*
X88803222Y-86912574D01*
X88785794Y-87030224D01*
X88771002Y-87126140D01*
X88759701Y-87194185D01*
X88752743Y-87228220D01*
X88751633Y-87230878D01*
X88730388Y-87240968D01*
X88675733Y-87264751D01*
X88593416Y-87299836D01*
X88489186Y-87343832D01*
X88368792Y-87394347D01*
X88237982Y-87448989D01*
X88102504Y-87505368D01*
X87968107Y-87561091D01*
X87840539Y-87613768D01*
X87725550Y-87661007D01*
X87628887Y-87700416D01*
X87556299Y-87729605D01*
X87513534Y-87746181D01*
X87509350Y-87747674D01*
X87487906Y-87737057D01*
X87437371Y-87703489D01*
X87362020Y-87650075D01*
X87266130Y-87579917D01*
X87153975Y-87496118D01*
X87029831Y-87401782D01*
X86980183Y-87363647D01*
X86851378Y-87264509D01*
X86732145Y-87172908D01*
X86626965Y-87092272D01*
X86540316Y-87026029D01*
X86476678Y-86977607D01*
X86440530Y-86950435D01*
X86435247Y-86946610D01*
X86424964Y-86937184D01*
X86417852Y-86922195D01*
X86414241Y-86897030D01*
X86414458Y-86857080D01*
X86417625Y-86814085D01*
X86523995Y-86814085D01*
X86524991Y-86852083D01*
X86529830Y-86875534D01*
X86537796Y-86888645D01*
X86567042Y-86914475D01*
X86623070Y-86960041D01*
X86700647Y-87021363D01*
X86794536Y-87094461D01*
X86899503Y-87175356D01*
X87010314Y-87260067D01*
X87121732Y-87344615D01*
X87228524Y-87425020D01*
X87325455Y-87497302D01*
X87407289Y-87557482D01*
X87468793Y-87601579D01*
X87504730Y-87625615D01*
X87511452Y-87628864D01*
X87536402Y-87621401D01*
X87595228Y-87599766D01*
X87682703Y-87566005D01*
X87793601Y-87522167D01*
X87922695Y-87470298D01*
X88064758Y-87412447D01*
X88082952Y-87404986D01*
X88226538Y-87345572D01*
X88357783Y-87290348D01*
X88471425Y-87241600D01*
X88562203Y-87201617D01*
X88624853Y-87172685D01*
X88654114Y-87157093D01*
X88655081Y-87156277D01*
X88663831Y-87129913D01*
X88676836Y-87067022D01*
X88693201Y-86973098D01*
X88712029Y-86853632D01*
X88732425Y-86714118D01*
X88753494Y-86560047D01*
X88758445Y-86522329D01*
X88781576Y-86342514D01*
X88799105Y-86200158D01*
X88811384Y-86090808D01*
X88818764Y-86010010D01*
X88821595Y-85953311D01*
X88820228Y-85916257D01*
X88815014Y-85894395D01*
X88808631Y-85885141D01*
X88770223Y-85852625D01*
X88706517Y-85801861D01*
X88622761Y-85736775D01*
X88524201Y-85661291D01*
X88416085Y-85579335D01*
X88303661Y-85494831D01*
X88192176Y-85411705D01*
X88086878Y-85333881D01*
X87993013Y-85265285D01*
X87915829Y-85209841D01*
X87860574Y-85171475D01*
X87832495Y-85154111D01*
X87830491Y-85153500D01*
X87805855Y-85161294D01*
X87748294Y-85183013D01*
X87663884Y-85216158D01*
X87558702Y-85258231D01*
X87438827Y-85306736D01*
X87310336Y-85359173D01*
X87179305Y-85413046D01*
X87051814Y-85465857D01*
X86933938Y-85515109D01*
X86831756Y-85558302D01*
X86751344Y-85592941D01*
X86698781Y-85616527D01*
X86680375Y-85626169D01*
X86675355Y-85648672D01*
X86665616Y-85707840D01*
X86651936Y-85798359D01*
X86635095Y-85914920D01*
X86615871Y-86052210D01*
X86595041Y-86204919D01*
X86589478Y-86246348D01*
X86565763Y-86425459D01*
X86547724Y-86567229D01*
X86534994Y-86676217D01*
X86527207Y-86756983D01*
X86523995Y-86814085D01*
X86417625Y-86814085D01*
X86418830Y-86797733D01*
X86427685Y-86714377D01*
X86441350Y-86602403D01*
X86460154Y-86457198D01*
X86481448Y-86296500D01*
X86502791Y-86135902D01*
X86522562Y-85986568D01*
X86539995Y-85854323D01*
X86554325Y-85744988D01*
X86564788Y-85664388D01*
X86570618Y-85618346D01*
X86571301Y-85612576D01*
X86574748Y-85595602D01*
X86583670Y-85579494D01*
X86602060Y-85562249D01*
X86633911Y-85541866D01*
X86683216Y-85516342D01*
X86753966Y-85483675D01*
X86850155Y-85441863D01*
X86975774Y-85388902D01*
X87134817Y-85322792D01*
X87216686Y-85288908D01*
X87855356Y-85024748D01*
X88396728Y-85440677D01*
G37*
X88396728Y-85440677D02*
X88528106Y-85542567D01*
X88647983Y-85637372D01*
X88752363Y-85721788D01*
X88837254Y-85792512D01*
X88898660Y-85846239D01*
X88932587Y-85879667D01*
X88938100Y-85888435D01*
X88935298Y-85925489D01*
X88927461Y-85996049D01*
X88915441Y-86093978D01*
X88900090Y-86213138D01*
X88882262Y-86347390D01*
X88862808Y-86490598D01*
X88842582Y-86636623D01*
X88822436Y-86779328D01*
X88803222Y-86912574D01*
X88785794Y-87030224D01*
X88771002Y-87126140D01*
X88759701Y-87194185D01*
X88752743Y-87228220D01*
X88751633Y-87230878D01*
X88730388Y-87240968D01*
X88675733Y-87264751D01*
X88593416Y-87299836D01*
X88489186Y-87343832D01*
X88368792Y-87394347D01*
X88237982Y-87448989D01*
X88102504Y-87505368D01*
X87968107Y-87561091D01*
X87840539Y-87613768D01*
X87725550Y-87661007D01*
X87628887Y-87700416D01*
X87556299Y-87729605D01*
X87513534Y-87746181D01*
X87509350Y-87747674D01*
X87487906Y-87737057D01*
X87437371Y-87703489D01*
X87362020Y-87650075D01*
X87266130Y-87579917D01*
X87153975Y-87496118D01*
X87029831Y-87401782D01*
X86980183Y-87363647D01*
X86851378Y-87264509D01*
X86732145Y-87172908D01*
X86626965Y-87092272D01*
X86540316Y-87026029D01*
X86476678Y-86977607D01*
X86440530Y-86950435D01*
X86435247Y-86946610D01*
X86424964Y-86937184D01*
X86417852Y-86922195D01*
X86414241Y-86897030D01*
X86414458Y-86857080D01*
X86417625Y-86814085D01*
X86523995Y-86814085D01*
X86524991Y-86852083D01*
X86529830Y-86875534D01*
X86537796Y-86888645D01*
X86567042Y-86914475D01*
X86623070Y-86960041D01*
X86700647Y-87021363D01*
X86794536Y-87094461D01*
X86899503Y-87175356D01*
X87010314Y-87260067D01*
X87121732Y-87344615D01*
X87228524Y-87425020D01*
X87325455Y-87497302D01*
X87407289Y-87557482D01*
X87468793Y-87601579D01*
X87504730Y-87625615D01*
X87511452Y-87628864D01*
X87536402Y-87621401D01*
X87595228Y-87599766D01*
X87682703Y-87566005D01*
X87793601Y-87522167D01*
X87922695Y-87470298D01*
X88064758Y-87412447D01*
X88082952Y-87404986D01*
X88226538Y-87345572D01*
X88357783Y-87290348D01*
X88471425Y-87241600D01*
X88562203Y-87201617D01*
X88624853Y-87172685D01*
X88654114Y-87157093D01*
X88655081Y-87156277D01*
X88663831Y-87129913D01*
X88676836Y-87067022D01*
X88693201Y-86973098D01*
X88712029Y-86853632D01*
X88732425Y-86714118D01*
X88753494Y-86560047D01*
X88758445Y-86522329D01*
X88781576Y-86342514D01*
X88799105Y-86200158D01*
X88811384Y-86090808D01*
X88818764Y-86010010D01*
X88821595Y-85953311D01*
X88820228Y-85916257D01*
X88815014Y-85894395D01*
X88808631Y-85885141D01*
X88770223Y-85852625D01*
X88706517Y-85801861D01*
X88622761Y-85736775D01*
X88524201Y-85661291D01*
X88416085Y-85579335D01*
X88303661Y-85494831D01*
X88192176Y-85411705D01*
X88086878Y-85333881D01*
X87993013Y-85265285D01*
X87915829Y-85209841D01*
X87860574Y-85171475D01*
X87832495Y-85154111D01*
X87830491Y-85153500D01*
X87805855Y-85161294D01*
X87748294Y-85183013D01*
X87663884Y-85216158D01*
X87558702Y-85258231D01*
X87438827Y-85306736D01*
X87310336Y-85359173D01*
X87179305Y-85413046D01*
X87051814Y-85465857D01*
X86933938Y-85515109D01*
X86831756Y-85558302D01*
X86751344Y-85592941D01*
X86698781Y-85616527D01*
X86680375Y-85626169D01*
X86675355Y-85648672D01*
X86665616Y-85707840D01*
X86651936Y-85798359D01*
X86635095Y-85914920D01*
X86615871Y-86052210D01*
X86595041Y-86204919D01*
X86589478Y-86246348D01*
X86565763Y-86425459D01*
X86547724Y-86567229D01*
X86534994Y-86676217D01*
X86527207Y-86756983D01*
X86523995Y-86814085D01*
X86417625Y-86814085D01*
X86418830Y-86797733D01*
X86427685Y-86714377D01*
X86441350Y-86602403D01*
X86460154Y-86457198D01*
X86481448Y-86296500D01*
X86502791Y-86135902D01*
X86522562Y-85986568D01*
X86539995Y-85854323D01*
X86554325Y-85744988D01*
X86564788Y-85664388D01*
X86570618Y-85618346D01*
X86571301Y-85612576D01*
X86574748Y-85595602D01*
X86583670Y-85579494D01*
X86602060Y-85562249D01*
X86633911Y-85541866D01*
X86683216Y-85516342D01*
X86753966Y-85483675D01*
X86850155Y-85441863D01*
X86975774Y-85388902D01*
X87134817Y-85322792D01*
X87216686Y-85288908D01*
X87855356Y-85024748D01*
X88396728Y-85440677D01*
G36*
X62942944Y-75072965D02*
G01*
X63018327Y-75081444D01*
X63120256Y-75093794D01*
X63242427Y-75109174D01*
X63378539Y-75126740D01*
X63522287Y-75145649D01*
X63667370Y-75165061D01*
X63807482Y-75184132D01*
X63936323Y-75202019D01*
X64047588Y-75217880D01*
X64134974Y-75230874D01*
X64192179Y-75240157D01*
X64212521Y-75244573D01*
X64223042Y-75255059D01*
X64238493Y-75279966D01*
X64260161Y-75322228D01*
X64289332Y-75384778D01*
X64327294Y-75470549D01*
X64375332Y-75582474D01*
X64434735Y-75723485D01*
X64506788Y-75896516D01*
X64592779Y-76104500D01*
X64638331Y-76215052D01*
X64762170Y-76515855D01*
X64360322Y-77040552D01*
X64241015Y-77196235D01*
X64144793Y-77321448D01*
X64069065Y-77419376D01*
X64011236Y-77493207D01*
X63968715Y-77546126D01*
X63938908Y-77581321D01*
X63919224Y-77601976D01*
X63907070Y-77611278D01*
X63899853Y-77612414D01*
X63896673Y-77610369D01*
X63874108Y-77605621D01*
X63814785Y-77596452D01*
X63723969Y-77583584D01*
X63606921Y-77567740D01*
X63468904Y-77549640D01*
X63315182Y-77530008D01*
X63262933Y-77523444D01*
X63103287Y-77503360D01*
X62955862Y-77484603D01*
X62826294Y-77467906D01*
X62720217Y-77454003D01*
X62643267Y-77443627D01*
X62601077Y-77437512D01*
X62596183Y-77436647D01*
X62580875Y-77426460D01*
X62560738Y-77399110D01*
X62534154Y-77351154D01*
X62499501Y-77279148D01*
X62455159Y-77179648D01*
X62399508Y-77049210D01*
X62330927Y-76884391D01*
X62293289Y-76792904D01*
X62037659Y-76169857D01*
X62165822Y-76169857D01*
X62171887Y-76196966D01*
X62192478Y-76257850D01*
X62225610Y-76347307D01*
X62269297Y-76460132D01*
X62321552Y-76591122D01*
X62380389Y-76735072D01*
X62394826Y-76769903D01*
X62630857Y-77337894D01*
X62899270Y-77373151D01*
X63032818Y-77390832D01*
X63187350Y-77411505D01*
X63341914Y-77432360D01*
X63453433Y-77447546D01*
X63573567Y-77465131D01*
X63668671Y-77479073D01*
X63744224Y-77486416D01*
X63805704Y-77484201D01*
X63858587Y-77469468D01*
X63908352Y-77439259D01*
X63960477Y-77390616D01*
X64020439Y-77320580D01*
X64093716Y-77226192D01*
X64185785Y-77104493D01*
X64253752Y-77015275D01*
X64348585Y-76891101D01*
X64435030Y-76776964D01*
X64509693Y-76677421D01*
X64569178Y-76597030D01*
X64610093Y-76540348D01*
X64629042Y-76511932D01*
X64629780Y-76510387D01*
X64623973Y-76486996D01*
X64604444Y-76430460D01*
X64573573Y-76346785D01*
X64533742Y-76241975D01*
X64487333Y-76122037D01*
X64436726Y-75992975D01*
X64384304Y-75860795D01*
X64332447Y-75731503D01*
X64283538Y-75611104D01*
X64239956Y-75505603D01*
X64204085Y-75421006D01*
X64178305Y-75363319D01*
X64165177Y-75338736D01*
X64144114Y-75335009D01*
X64086325Y-75326427D01*
X63997045Y-75313724D01*
X63881513Y-75297634D01*
X63744963Y-75278891D01*
X63592633Y-75258229D01*
X63548198Y-75252244D01*
X63347045Y-75226021D01*
X63182148Y-75206295D01*
X63054736Y-75193186D01*
X62966042Y-75186815D01*
X62917297Y-75187301D01*
X62908642Y-75189850D01*
X62886482Y-75213732D01*
X62843728Y-75265710D01*
X62784414Y-75340463D01*
X62712572Y-75432670D01*
X62632235Y-75537012D01*
X62547435Y-75648167D01*
X62462205Y-75760816D01*
X62380578Y-75869638D01*
X62306587Y-75969313D01*
X62244264Y-76054521D01*
X62197642Y-76119940D01*
X62170753Y-76160251D01*
X62165822Y-76169857D01*
X62037659Y-76169857D01*
X62032727Y-76157838D01*
X62449350Y-75612711D01*
X62568012Y-75458878D01*
X62671836Y-75327183D01*
X62758850Y-75220002D01*
X62827081Y-75139712D01*
X62874559Y-75088689D01*
X62899310Y-75069309D01*
X62900411Y-75069200D01*
X62942944Y-75072965D01*
G37*
X62942944Y-75072965D02*
X63018327Y-75081444D01*
X63120256Y-75093794D01*
X63242427Y-75109174D01*
X63378539Y-75126740D01*
X63522287Y-75145649D01*
X63667370Y-75165061D01*
X63807482Y-75184132D01*
X63936323Y-75202019D01*
X64047588Y-75217880D01*
X64134974Y-75230874D01*
X64192179Y-75240157D01*
X64212521Y-75244573D01*
X64223042Y-75255059D01*
X64238493Y-75279966D01*
X64260161Y-75322228D01*
X64289332Y-75384778D01*
X64327294Y-75470549D01*
X64375332Y-75582474D01*
X64434735Y-75723485D01*
X64506788Y-75896516D01*
X64592779Y-76104500D01*
X64638331Y-76215052D01*
X64762170Y-76515855D01*
X64360322Y-77040552D01*
X64241015Y-77196235D01*
X64144793Y-77321448D01*
X64069065Y-77419376D01*
X64011236Y-77493207D01*
X63968715Y-77546126D01*
X63938908Y-77581321D01*
X63919224Y-77601976D01*
X63907070Y-77611278D01*
X63899853Y-77612414D01*
X63896673Y-77610369D01*
X63874108Y-77605621D01*
X63814785Y-77596452D01*
X63723969Y-77583584D01*
X63606921Y-77567740D01*
X63468904Y-77549640D01*
X63315182Y-77530008D01*
X63262933Y-77523444D01*
X63103287Y-77503360D01*
X62955862Y-77484603D01*
X62826294Y-77467906D01*
X62720217Y-77454003D01*
X62643267Y-77443627D01*
X62601077Y-77437512D01*
X62596183Y-77436647D01*
X62580875Y-77426460D01*
X62560738Y-77399110D01*
X62534154Y-77351154D01*
X62499501Y-77279148D01*
X62455159Y-77179648D01*
X62399508Y-77049210D01*
X62330927Y-76884391D01*
X62293289Y-76792904D01*
X62037659Y-76169857D01*
X62165822Y-76169857D01*
X62171887Y-76196966D01*
X62192478Y-76257850D01*
X62225610Y-76347307D01*
X62269297Y-76460132D01*
X62321552Y-76591122D01*
X62380389Y-76735072D01*
X62394826Y-76769903D01*
X62630857Y-77337894D01*
X62899270Y-77373151D01*
X63032818Y-77390832D01*
X63187350Y-77411505D01*
X63341914Y-77432360D01*
X63453433Y-77447546D01*
X63573567Y-77465131D01*
X63668671Y-77479073D01*
X63744224Y-77486416D01*
X63805704Y-77484201D01*
X63858587Y-77469468D01*
X63908352Y-77439259D01*
X63960477Y-77390616D01*
X64020439Y-77320580D01*
X64093716Y-77226192D01*
X64185785Y-77104493D01*
X64253752Y-77015275D01*
X64348585Y-76891101D01*
X64435030Y-76776964D01*
X64509693Y-76677421D01*
X64569178Y-76597030D01*
X64610093Y-76540348D01*
X64629042Y-76511932D01*
X64629780Y-76510387D01*
X64623973Y-76486996D01*
X64604444Y-76430460D01*
X64573573Y-76346785D01*
X64533742Y-76241975D01*
X64487333Y-76122037D01*
X64436726Y-75992975D01*
X64384304Y-75860795D01*
X64332447Y-75731503D01*
X64283538Y-75611104D01*
X64239956Y-75505603D01*
X64204085Y-75421006D01*
X64178305Y-75363319D01*
X64165177Y-75338736D01*
X64144114Y-75335009D01*
X64086325Y-75326427D01*
X63997045Y-75313724D01*
X63881513Y-75297634D01*
X63744963Y-75278891D01*
X63592633Y-75258229D01*
X63548198Y-75252244D01*
X63347045Y-75226021D01*
X63182148Y-75206295D01*
X63054736Y-75193186D01*
X62966042Y-75186815D01*
X62917297Y-75187301D01*
X62908642Y-75189850D01*
X62886482Y-75213732D01*
X62843728Y-75265710D01*
X62784414Y-75340463D01*
X62712572Y-75432670D01*
X62632235Y-75537012D01*
X62547435Y-75648167D01*
X62462205Y-75760816D01*
X62380578Y-75869638D01*
X62306587Y-75969313D01*
X62244264Y-76054521D01*
X62197642Y-76119940D01*
X62170753Y-76160251D01*
X62165822Y-76169857D01*
X62037659Y-76169857D01*
X62032727Y-76157838D01*
X62449350Y-75612711D01*
X62568012Y-75458878D01*
X62671836Y-75327183D01*
X62758850Y-75220002D01*
X62827081Y-75139712D01*
X62874559Y-75088689D01*
X62899310Y-75069309D01*
X62900411Y-75069200D01*
X62942944Y-75072965D01*
G36*
X78122279Y-75072119D02*
G01*
X78154517Y-75100875D01*
X78202808Y-75153620D01*
X78268993Y-75232529D01*
X78354912Y-75339781D01*
X78462408Y-75477554D01*
X78557505Y-75601188D01*
X78658504Y-75733769D01*
X78750627Y-75856020D01*
X78830840Y-75963809D01*
X78896107Y-76053002D01*
X78943391Y-76119467D01*
X78969658Y-76159072D01*
X78974065Y-76168250D01*
X78965864Y-76192350D01*
X78943314Y-76250630D01*
X78908385Y-76338210D01*
X78863047Y-76450209D01*
X78809269Y-76581746D01*
X78749021Y-76727939D01*
X78717816Y-76803250D01*
X78644313Y-76979366D01*
X78584576Y-77119976D01*
X78536752Y-77228919D01*
X78498987Y-77310035D01*
X78469428Y-77367164D01*
X78446221Y-77404145D01*
X78427514Y-77424820D01*
X78414186Y-77432311D01*
X78381191Y-77438777D01*
X78311945Y-77449565D01*
X78212218Y-77463874D01*
X78087781Y-77480900D01*
X77944406Y-77499842D01*
X77787862Y-77519896D01*
X77751517Y-77524466D01*
X77595094Y-77544252D01*
X77452586Y-77562627D01*
X77329327Y-77578876D01*
X77230652Y-77592283D01*
X77161895Y-77602132D01*
X77128391Y-77607708D01*
X77126089Y-77608383D01*
X77100638Y-77605101D01*
X77093392Y-77600895D01*
X77076358Y-77581532D01*
X77037574Y-77533471D01*
X76980898Y-77461721D01*
X76910188Y-77371292D01*
X76829304Y-77267195D01*
X76742102Y-77154441D01*
X76652443Y-77038039D01*
X76564184Y-76923000D01*
X76481183Y-76814334D01*
X76407300Y-76717051D01*
X76346392Y-76636162D01*
X76302317Y-76576676D01*
X76278935Y-76543605D01*
X76277836Y-76541866D01*
X76279118Y-76511982D01*
X76281967Y-76501260D01*
X76366496Y-76501260D01*
X76644818Y-76863922D01*
X76768895Y-77025507D01*
X76869924Y-77156657D01*
X76950596Y-77260546D01*
X77013601Y-77340347D01*
X77061631Y-77399236D01*
X77097376Y-77440385D01*
X77123527Y-77466970D01*
X77142775Y-77482163D01*
X77157811Y-77489141D01*
X77171326Y-77491076D01*
X77176547Y-77491149D01*
X77209213Y-77488443D01*
X77277795Y-77480827D01*
X77376255Y-77469039D01*
X77498554Y-77453817D01*
X77638656Y-77435899D01*
X77783267Y-77416983D01*
X77933254Y-77396960D01*
X78069815Y-77378356D01*
X78187214Y-77361982D01*
X78279717Y-77348650D01*
X78341589Y-77339172D01*
X78366975Y-77334404D01*
X78382420Y-77312614D01*
X78410425Y-77257403D01*
X78448551Y-77174748D01*
X78494358Y-77070625D01*
X78545407Y-76951009D01*
X78599257Y-76821877D01*
X78653469Y-76689205D01*
X78705602Y-76558969D01*
X78753218Y-76437145D01*
X78793876Y-76329709D01*
X78825136Y-76242637D01*
X78844559Y-76181905D01*
X78849704Y-76153489D01*
X78849404Y-76152752D01*
X78832720Y-76129531D01*
X78793697Y-76077255D01*
X78735766Y-76000458D01*
X78662357Y-75903670D01*
X78576900Y-75791425D01*
X78482827Y-75668253D01*
X78466819Y-75647330D01*
X78357496Y-75505115D01*
X78270390Y-75393537D01*
X78202525Y-75309211D01*
X78150926Y-75248753D01*
X78112619Y-75208778D01*
X78084627Y-75185900D01*
X78063977Y-75176734D01*
X78053039Y-75176534D01*
X78019993Y-75181276D01*
X77950969Y-75190688D01*
X77851965Y-75203969D01*
X77728982Y-75220318D01*
X77588019Y-75238935D01*
X77435076Y-75259018D01*
X77434186Y-75259134D01*
X77283365Y-75279352D01*
X77146514Y-75298595D01*
X77029189Y-75316009D01*
X76936947Y-75330741D01*
X76875346Y-75341936D01*
X76849941Y-75348742D01*
X76849739Y-75348930D01*
X76838589Y-75371632D01*
X76813500Y-75428457D01*
X76776614Y-75514369D01*
X76730073Y-75624332D01*
X76676017Y-75753308D01*
X76616589Y-75896263D01*
X76601559Y-75932588D01*
X76366496Y-76501260D01*
X76281967Y-76501260D01*
X76295731Y-76449470D01*
X76325292Y-76360058D01*
X76365421Y-76249472D01*
X76413737Y-76123442D01*
X76467857Y-75987694D01*
X76525401Y-75847958D01*
X76583987Y-75709959D01*
X76641234Y-75579427D01*
X76694761Y-75462088D01*
X76742186Y-75363671D01*
X76781128Y-75289903D01*
X76809206Y-75246513D01*
X76820183Y-75237364D01*
X76851530Y-75232595D01*
X76919127Y-75223274D01*
X77017229Y-75210162D01*
X77140088Y-75194019D01*
X77281955Y-75175604D01*
X77437084Y-75155677D01*
X77465767Y-75152014D01*
X77622228Y-75131872D01*
X77766055Y-75113009D01*
X77891586Y-75096196D01*
X77993158Y-75082203D01*
X78065108Y-75071800D01*
X78101774Y-75065757D01*
X78104253Y-75065174D01*
X78122279Y-75072119D01*
G37*
X78122279Y-75072119D02*
X78154517Y-75100875D01*
X78202808Y-75153620D01*
X78268993Y-75232529D01*
X78354912Y-75339781D01*
X78462408Y-75477554D01*
X78557505Y-75601188D01*
X78658504Y-75733769D01*
X78750627Y-75856020D01*
X78830840Y-75963809D01*
X78896107Y-76053002D01*
X78943391Y-76119467D01*
X78969658Y-76159072D01*
X78974065Y-76168250D01*
X78965864Y-76192350D01*
X78943314Y-76250630D01*
X78908385Y-76338210D01*
X78863047Y-76450209D01*
X78809269Y-76581746D01*
X78749021Y-76727939D01*
X78717816Y-76803250D01*
X78644313Y-76979366D01*
X78584576Y-77119976D01*
X78536752Y-77228919D01*
X78498987Y-77310035D01*
X78469428Y-77367164D01*
X78446221Y-77404145D01*
X78427514Y-77424820D01*
X78414186Y-77432311D01*
X78381191Y-77438777D01*
X78311945Y-77449565D01*
X78212218Y-77463874D01*
X78087781Y-77480900D01*
X77944406Y-77499842D01*
X77787862Y-77519896D01*
X77751517Y-77524466D01*
X77595094Y-77544252D01*
X77452586Y-77562627D01*
X77329327Y-77578876D01*
X77230652Y-77592283D01*
X77161895Y-77602132D01*
X77128391Y-77607708D01*
X77126089Y-77608383D01*
X77100638Y-77605101D01*
X77093392Y-77600895D01*
X77076358Y-77581532D01*
X77037574Y-77533471D01*
X76980898Y-77461721D01*
X76910188Y-77371292D01*
X76829304Y-77267195D01*
X76742102Y-77154441D01*
X76652443Y-77038039D01*
X76564184Y-76923000D01*
X76481183Y-76814334D01*
X76407300Y-76717051D01*
X76346392Y-76636162D01*
X76302317Y-76576676D01*
X76278935Y-76543605D01*
X76277836Y-76541866D01*
X76279118Y-76511982D01*
X76281967Y-76501260D01*
X76366496Y-76501260D01*
X76644818Y-76863922D01*
X76768895Y-77025507D01*
X76869924Y-77156657D01*
X76950596Y-77260546D01*
X77013601Y-77340347D01*
X77061631Y-77399236D01*
X77097376Y-77440385D01*
X77123527Y-77466970D01*
X77142775Y-77482163D01*
X77157811Y-77489141D01*
X77171326Y-77491076D01*
X77176547Y-77491149D01*
X77209213Y-77488443D01*
X77277795Y-77480827D01*
X77376255Y-77469039D01*
X77498554Y-77453817D01*
X77638656Y-77435899D01*
X77783267Y-77416983D01*
X77933254Y-77396960D01*
X78069815Y-77378356D01*
X78187214Y-77361982D01*
X78279717Y-77348650D01*
X78341589Y-77339172D01*
X78366975Y-77334404D01*
X78382420Y-77312614D01*
X78410425Y-77257403D01*
X78448551Y-77174748D01*
X78494358Y-77070625D01*
X78545407Y-76951009D01*
X78599257Y-76821877D01*
X78653469Y-76689205D01*
X78705602Y-76558969D01*
X78753218Y-76437145D01*
X78793876Y-76329709D01*
X78825136Y-76242637D01*
X78844559Y-76181905D01*
X78849704Y-76153489D01*
X78849404Y-76152752D01*
X78832720Y-76129531D01*
X78793697Y-76077255D01*
X78735766Y-76000458D01*
X78662357Y-75903670D01*
X78576900Y-75791425D01*
X78482827Y-75668253D01*
X78466819Y-75647330D01*
X78357496Y-75505115D01*
X78270390Y-75393537D01*
X78202525Y-75309211D01*
X78150926Y-75248753D01*
X78112619Y-75208778D01*
X78084627Y-75185900D01*
X78063977Y-75176734D01*
X78053039Y-75176534D01*
X78019993Y-75181276D01*
X77950969Y-75190688D01*
X77851965Y-75203969D01*
X77728982Y-75220318D01*
X77588019Y-75238935D01*
X77435076Y-75259018D01*
X77434186Y-75259134D01*
X77283365Y-75279352D01*
X77146514Y-75298595D01*
X77029189Y-75316009D01*
X76936947Y-75330741D01*
X76875346Y-75341936D01*
X76849941Y-75348742D01*
X76849739Y-75348930D01*
X76838589Y-75371632D01*
X76813500Y-75428457D01*
X76776614Y-75514369D01*
X76730073Y-75624332D01*
X76676017Y-75753308D01*
X76616589Y-75896263D01*
X76601559Y-75932588D01*
X76366496Y-76501260D01*
X76281967Y-76501260D01*
X76295731Y-76449470D01*
X76325292Y-76360058D01*
X76365421Y-76249472D01*
X76413737Y-76123442D01*
X76467857Y-75987694D01*
X76525401Y-75847958D01*
X76583987Y-75709959D01*
X76641234Y-75579427D01*
X76694761Y-75462088D01*
X76742186Y-75363671D01*
X76781128Y-75289903D01*
X76809206Y-75246513D01*
X76820183Y-75237364D01*
X76851530Y-75232595D01*
X76919127Y-75223274D01*
X77017229Y-75210162D01*
X77140088Y-75194019D01*
X77281955Y-75175604D01*
X77437084Y-75155677D01*
X77465767Y-75152014D01*
X77622228Y-75131872D01*
X77766055Y-75113009D01*
X77891586Y-75096196D01*
X77993158Y-75082203D01*
X78065108Y-75071800D01*
X78101774Y-75065757D01*
X78104253Y-75065174D01*
X78122279Y-75072119D01*
D12*
%TO.C,U2*%
X63346000Y-91313000D02*
G75*
G03*
X63346000Y-91313000I-100000J0D01*
G01*
D13*
%TO.C,D1*%
X70509600Y-94562000D02*
G75*
G03*
X70509600Y-94562000I-50000J0D01*
G01*
%TO.C,D2*%
X69419600Y-83566000D02*
G75*
G03*
X69419600Y-83566000I-50000J0D01*
G01*
%TO.C,D3*%
X66475169Y-84291000D02*
G75*
G03*
X66475169Y-84291000I-50001J0D01*
G01*
%TO.C,D4*%
X73656487Y-81774059D02*
G75*
G03*
X73656487Y-81774059I-50000J0D01*
G01*
%TO.C,D5*%
X70509600Y-105615400D02*
G75*
G03*
X70509600Y-105615400I-50000J0D01*
G01*
%TO.C,D6*%
X67362713Y-105195341D02*
G75*
G03*
X67362713Y-105195341I-50000J0D01*
G01*
%TO.C,D7*%
X70509600Y-81356400D02*
G75*
G03*
X70509600Y-81356400I-50000J0D01*
G01*
%TO.C,D8*%
X74544033Y-84316400D02*
G75*
G03*
X74544033Y-84316400I-50001J0D01*
G01*
%TO.C,D9*%
X62444001Y-87575032D02*
G75*
G03*
X62444001Y-87575032I-50001J0D01*
G01*
%TO.C,D10*%
X76568601Y-82985968D02*
G75*
G03*
X76568601Y-82985968I-50001J0D01*
G01*
%TO.C,D11*%
X73656487Y-105195341D02*
G75*
G03*
X73656487Y-105195341I-50000J0D01*
G01*
%TO.C,D12*%
X64450601Y-103983432D02*
G75*
G03*
X64450601Y-103983432I-50001J0D01*
G01*
%TO.C,D13*%
X67362713Y-81748659D02*
G75*
G03*
X67362713Y-81748659I-50000J0D01*
G01*
%TO.C,D14*%
X79639801Y-89462968D02*
G75*
G03*
X79639801Y-89462968I-50001J0D01*
G01*
%TO.C,D15*%
X60552800Y-94587400D02*
G75*
G03*
X60552800Y-94587400I-50000J0D01*
G01*
%TO.C,D16*%
X79086054Y-84920946D02*
G75*
G03*
X79086054Y-84920946I-50000J0D01*
G01*
%TO.C,D17*%
X76568601Y-103983432D02*
G75*
G03*
X76568601Y-103983432I-50001J0D01*
G01*
%TO.C,D18*%
X61933146Y-102073854D02*
G75*
G03*
X61933146Y-102073854I-50000J0D01*
G01*
%TO.C,D19*%
X64450601Y-82960568D02*
G75*
G03*
X64450601Y-82960568I-50001J0D01*
G01*
%TO.C,D20*%
X80441000Y-92382000D02*
G75*
G03*
X80441000Y-92382000I-50000J0D01*
G01*
%TO.C,D21*%
X62444001Y-99394368D02*
G75*
G03*
X62444001Y-99394368I-50001J0D01*
G01*
%TO.C,D22*%
X81021033Y-87413000D02*
G75*
G03*
X81021033Y-87413000I-50001J0D01*
G01*
%TO.C,D23*%
X79086054Y-102073854D02*
G75*
G03*
X79086054Y-102073854I-50000J0D01*
G01*
%TO.C,D24*%
X59998169Y-99556400D02*
G75*
G03*
X59998169Y-99556400I-50001J0D01*
G01*
%TO.C,D25*%
X61933146Y-84895546D02*
G75*
G03*
X61933146Y-84895546I-50000J0D01*
G01*
%TO.C,D26*%
X79690601Y-97506432D02*
G75*
G03*
X79690601Y-97506432I-50001J0D01*
G01*
%TO.C,D27*%
X66500569Y-102627600D02*
G75*
G03*
X66500569Y-102627600I-50001J0D01*
G01*
%TO.C,D28*%
X82207541Y-90325113D02*
G75*
G03*
X82207541Y-90325113I-50000J0D01*
G01*
%TO.C,D29*%
X81021033Y-99556400D02*
G75*
G03*
X81021033Y-99556400I-50001J0D01*
G01*
%TO.C,D30*%
X58786259Y-96593487D02*
G75*
G03*
X58786259Y-96593487I-50000J0D01*
G01*
%TO.C,D31*%
X59998169Y-87413000D02*
G75*
G03*
X59998169Y-87413000I-50001J0D01*
G01*
%TO.C,D32*%
X76431969Y-101537600D02*
G75*
G03*
X76431969Y-101537600I-50001J0D01*
G01*
%TO.C,D33*%
X71599600Y-103454200D02*
G75*
G03*
X71599600Y-103454200I-50000J0D01*
G01*
%TO.C,D34*%
X82653000Y-93472000D02*
G75*
G03*
X82653000Y-93472000I-50000J0D01*
G01*
%TO.C,D35*%
X82232941Y-96618887D02*
G75*
G03*
X82232941Y-96618887I-50000J0D01*
G01*
%TO.C,D36*%
X58391600Y-93472000D02*
G75*
G03*
X58391600Y-93472000I-50000J0D01*
G01*
%TO.C,D37*%
X58786259Y-90325113D02*
G75*
G03*
X58786259Y-90325113I-50000J0D01*
G01*
D12*
%TO.C,S1*%
X89468400Y-95943400D02*
X89468400Y-95943400D01*
X89268400Y-95943400D02*
X89268400Y-95943400D01*
D13*
X91518400Y-94693400D02*
X91518400Y-91193400D01*
X88618400Y-94693400D02*
X88618400Y-91143400D01*
D12*
X89468400Y-95943400D02*
G75*
G03*
X89268400Y-95943400I-100000J0D01*
G01*
X89268400Y-95943400D02*
G75*
G03*
X89468400Y-95943400I100000J0D01*
G01*
D13*
%TO.C,S2*%
X86293650Y-82317943D02*
X84793355Y-79100550D01*
X88921943Y-81092350D02*
X87442779Y-77920273D01*
D12*
X87411023Y-83176126D02*
X87411023Y-83176126D01*
X87592285Y-83091602D02*
X87592285Y-83091602D01*
X87411023Y-83176126D02*
G75*
G03*
X87592285Y-83091602I90631J42262D01*
G01*
X87592285Y-83091602D02*
G75*
G03*
X87411023Y-83176126I-90631J-42262D01*
G01*
D13*
%TO.C,S3*%
X85068057Y-107190850D02*
X86568352Y-103973457D01*
X87696350Y-108416443D02*
X89175514Y-105244366D01*
D12*
X85128884Y-108598436D02*
X85128884Y-108598436D01*
X85310146Y-108682960D02*
X85310146Y-108682960D01*
X85128884Y-108598436D02*
G75*
G03*
X85310146Y-108682960I90631J-42262D01*
G01*
X85310146Y-108682960D02*
G75*
G03*
X85128884Y-108598436I-90631J42262D01*
G01*
D14*
%TO.C,U1*%
X77979400Y-90887400D02*
X78454400Y-90887400D01*
X78454400Y-90887400D02*
X78454400Y-91362400D01*
X73709400Y-96107400D02*
X73234400Y-96107400D01*
X73234400Y-96107400D02*
X73234400Y-95632400D01*
X77979400Y-96107400D02*
X78454400Y-96107400D01*
X78454400Y-96107400D02*
X78454400Y-95632400D01*
X73709400Y-90887400D02*
X73234400Y-90887400D01*
%TD*%
M02*
