%TF.GenerationSoftware,KiCad,Pcbnew,(5.1.6)-1*%
%TF.CreationDate,2024-07-23T23:35:14+05:30*%
%TF.ProjectId,Project_OAK_MAIN_BRD_V0.1,50726f6a-6563-4745-9f4f-414b5f4d4149,A*%
%TF.SameCoordinates,Original*%
%TF.FileFunction,Profile,NP*%
%FSLAX46Y46*%
G04 Gerber Fmt 4.6, Leading zero omitted, Abs format (unit mm)*
G04 Created by KiCad (PCBNEW (5.1.6)-1) date 2024-07-23 23:35:14*
%MOMM*%
%LPD*%
G01*
G04 APERTURE LIST*
%TA.AperFunction,Profile*%
%ADD10C,0.150000*%
%TD*%
%TA.AperFunction,Profile*%
%ADD11C,0.100000*%
%TD*%
G04 APERTURE END LIST*
D10*
X80492600Y-112395000D02*
X80492600Y-114236500D01*
X70459600Y-72707500D02*
X60426600Y-72707500D01*
X70459600Y-72707500D02*
X80492600Y-72707500D01*
X70459600Y-74549000D02*
X80492600Y-74549000D01*
X60426600Y-72707500D02*
X60426600Y-74549000D01*
X60426600Y-74549000D02*
X70459600Y-74549000D01*
X80492600Y-72707500D02*
X80492600Y-74549000D01*
X70459600Y-114236500D02*
X80492600Y-114236500D01*
X60426600Y-114236500D02*
X70459600Y-114236500D01*
X70459600Y-112395000D02*
X60426600Y-112395000D01*
X60426600Y-112395000D02*
X60426600Y-114236500D01*
X70459600Y-112395000D02*
X80492600Y-112395000D01*
D11*
X55910521Y-72166892D02*
X49852409Y-85157992D01*
X49852409Y-85157992D02*
X49850409Y-85159992D01*
X49850409Y-85159992D02*
X49823240Y-85212792D01*
X49823240Y-85212792D02*
X49666240Y-86239592D01*
X49666240Y-86239592D02*
X49530139Y-87268692D01*
X49530139Y-87268692D02*
X49415140Y-88299592D01*
X49415140Y-88299592D02*
X49321039Y-89332192D01*
X49321039Y-89332192D02*
X49247839Y-90365992D01*
X49247839Y-90365992D02*
X49195740Y-91400792D01*
X49195740Y-91400792D02*
X49164539Y-92436192D01*
X49164539Y-92436192D02*
X49154440Y-93471892D01*
X49154440Y-93471892D02*
X49165240Y-94507592D01*
X49165240Y-94507592D02*
X49197040Y-95542992D01*
X49197040Y-95542992D02*
X49249839Y-96577692D01*
X49249839Y-96577692D02*
X49323740Y-97611392D01*
X49323740Y-97611392D02*
X49418539Y-98643892D01*
X49418539Y-98643892D02*
X49534439Y-99674792D01*
X49534439Y-99674792D02*
X49671240Y-100703692D01*
X49671240Y-100703692D02*
X49829139Y-101730392D01*
X49829139Y-101730392D02*
X49831140Y-101734292D01*
X49831140Y-101734292D02*
X49842939Y-101765492D01*
X49842939Y-101765492D02*
X55911001Y-114778592D01*
X55911001Y-114778592D02*
X85005501Y-114778792D01*
X85005501Y-114778792D02*
X91058201Y-101794792D01*
X91058201Y-101794792D02*
X91097201Y-101730392D01*
X91097201Y-101730392D02*
X91254101Y-100703492D01*
X91254101Y-100703492D02*
X91390102Y-99674492D01*
X91390102Y-99674492D02*
X91505002Y-98643492D01*
X91505002Y-98643492D02*
X91598901Y-97610892D01*
X91598901Y-97610892D02*
X91671901Y-96577092D01*
X91671901Y-96577092D02*
X91723802Y-95542292D01*
X91723802Y-95542292D02*
X91754802Y-94506892D01*
X91754802Y-94506892D02*
X91764701Y-93471192D01*
X91764701Y-93471192D02*
X91753702Y-92435492D01*
X91753702Y-92435492D02*
X91721701Y-91400092D01*
X91721701Y-91400092D02*
X91668701Y-90365392D01*
X91668701Y-90365392D02*
X91594702Y-89331592D01*
X91594702Y-89331592D02*
X91499702Y-88299192D01*
X91499702Y-88299192D02*
X91383801Y-87268292D01*
X91383801Y-87268292D02*
X91246902Y-86239292D01*
X91246902Y-86239292D02*
X91089001Y-85212692D01*
X91089001Y-85212692D02*
X91063601Y-85161892D01*
X91063601Y-85161892D02*
X85004701Y-72165302D01*
X85004701Y-72165302D02*
X55910521Y-72166892D01*
M02*
