%TF.GenerationSoftware,KiCad,Pcbnew,(5.1.6)-1*%
%TF.CreationDate,2024-07-23T23:35:14+05:30*%
%TF.ProjectId,Project_OAK_MAIN_BRD_V0.1,50726f6a-6563-4745-9f4f-414b5f4d4149,A*%
%TF.SameCoordinates,Original*%
%TF.FileFunction,Paste,Top*%
%TF.FilePolarity,Positive*%
%FSLAX46Y46*%
G04 Gerber Fmt 4.6, Leading zero omitted, Abs format (unit mm)*
G04 Created by KiCad (PCBNEW (5.1.6)-1) date 2024-07-23 23:35:14*
%MOMM*%
%LPD*%
G01*
G04 APERTURE LIST*
%ADD10R,0.800000X0.500000*%
%ADD11R,0.800000X0.900000*%
%ADD12R,1.050000X1.400000*%
%ADD13C,0.100000*%
G04 APERTURE END LIST*
D10*
%TO.C,U2*%
X64481000Y-92122000D03*
X64481000Y-93022000D03*
X64481000Y-93922000D03*
X64481000Y-94822000D03*
X63281000Y-94822000D03*
X63281000Y-93922000D03*
X63281000Y-93022000D03*
X63281000Y-92122000D03*
%TD*%
D11*
%TO.C,Q6*%
X66852800Y-87544400D03*
X67802800Y-89544400D03*
X65902800Y-89544400D03*
%TD*%
%TO.C,Q7*%
X69509600Y-89528400D03*
X71409600Y-89528400D03*
X70459600Y-87528400D03*
%TD*%
%TO.C,Q5*%
X74091800Y-89544400D03*
X73141800Y-87544400D03*
X75041800Y-87544400D03*
%TD*%
%TO.C,Q2*%
X67777400Y-97450400D03*
X65877400Y-97450400D03*
X66827400Y-99450400D03*
%TD*%
%TO.C,Q4*%
X73116400Y-99450400D03*
X75016400Y-99450400D03*
X74066400Y-97450400D03*
%TD*%
%TO.C,Q3*%
X71409600Y-97450400D03*
X69509600Y-97450400D03*
X70459600Y-99450400D03*
%TD*%
%TO.C,R17*%
G36*
G01*
X81374200Y-91356400D02*
X81374200Y-91701400D01*
G75*
G02*
X81226700Y-91848900I-147500J0D01*
G01*
X80931700Y-91848900D01*
G75*
G02*
X80784200Y-91701400I0J147500D01*
G01*
X80784200Y-91356400D01*
G75*
G02*
X80931700Y-91208900I147500J0D01*
G01*
X81226700Y-91208900D01*
G75*
G02*
X81374200Y-91356400I0J-147500D01*
G01*
G37*
G36*
G01*
X80404200Y-91356400D02*
X80404200Y-91701400D01*
G75*
G02*
X80256700Y-91848900I-147500J0D01*
G01*
X79961700Y-91848900D01*
G75*
G02*
X79814200Y-91701400I0J147500D01*
G01*
X79814200Y-91356400D01*
G75*
G02*
X79961700Y-91208900I147500J0D01*
G01*
X80256700Y-91208900D01*
G75*
G02*
X80404200Y-91356400I0J-147500D01*
G01*
G37*
%TD*%
%TO.C,C1*%
G36*
G01*
X88183500Y-92029500D02*
X87838500Y-92029500D01*
G75*
G02*
X87691000Y-91882000I0J147500D01*
G01*
X87691000Y-91587000D01*
G75*
G02*
X87838500Y-91439500I147500J0D01*
G01*
X88183500Y-91439500D01*
G75*
G02*
X88331000Y-91587000I0J-147500D01*
G01*
X88331000Y-91882000D01*
G75*
G02*
X88183500Y-92029500I-147500J0D01*
G01*
G37*
G36*
G01*
X88183500Y-91059500D02*
X87838500Y-91059500D01*
G75*
G02*
X87691000Y-90912000I0J147500D01*
G01*
X87691000Y-90617000D01*
G75*
G02*
X87838500Y-90469500I147500J0D01*
G01*
X88183500Y-90469500D01*
G75*
G02*
X88331000Y-90617000I0J-147500D01*
G01*
X88331000Y-90912000D01*
G75*
G02*
X88183500Y-91059500I-147500J0D01*
G01*
G37*
%TD*%
%TO.C,C2*%
G36*
G01*
X84326070Y-79198341D02*
X84013394Y-79344144D01*
G75*
G02*
X83817378Y-79272800I-62336J133680D01*
G01*
X83692706Y-79005439D01*
G75*
G02*
X83764050Y-78809423I133680J62336D01*
G01*
X84076726Y-78663620D01*
G75*
G02*
X84272742Y-78734964I62336J-133680D01*
G01*
X84397414Y-79002325D01*
G75*
G02*
X84326070Y-79198341I-133680J-62336D01*
G01*
G37*
G36*
G01*
X84736010Y-80077459D02*
X84423334Y-80223262D01*
G75*
G02*
X84227318Y-80151918I-62336J133680D01*
G01*
X84102646Y-79884557D01*
G75*
G02*
X84173990Y-79688541I133680J62336D01*
G01*
X84486666Y-79542738D01*
G75*
G02*
X84682682Y-79614082I62336J-133680D01*
G01*
X84807354Y-79881443D01*
G75*
G02*
X84736010Y-80077459I-133680J-62336D01*
G01*
G37*
%TD*%
%TO.C,C3*%
G36*
G01*
X85932696Y-104538821D02*
X85620020Y-104393018D01*
G75*
G02*
X85548676Y-104197002I62336J133680D01*
G01*
X85673348Y-103929641D01*
G75*
G02*
X85869364Y-103858297I133680J-62336D01*
G01*
X86182040Y-104004100D01*
G75*
G02*
X86253384Y-104200116I-62336J-133680D01*
G01*
X86128712Y-104467477D01*
G75*
G02*
X85932696Y-104538821I-133680J62336D01*
G01*
G37*
G36*
G01*
X86342636Y-103659703D02*
X86029960Y-103513900D01*
G75*
G02*
X85958616Y-103317884I62336J133680D01*
G01*
X86083288Y-103050523D01*
G75*
G02*
X86279304Y-102979179I133680J-62336D01*
G01*
X86591980Y-103124982D01*
G75*
G02*
X86663324Y-103320998I-62336J-133680D01*
G01*
X86538652Y-103588359D01*
G75*
G02*
X86342636Y-103659703I-133680J62336D01*
G01*
G37*
%TD*%
%TO.C,C6*%
G36*
G01*
X71836500Y-91775500D02*
X71836500Y-92120500D01*
G75*
G02*
X71689000Y-92268000I-147500J0D01*
G01*
X71394000Y-92268000D01*
G75*
G02*
X71246500Y-92120500I0J147500D01*
G01*
X71246500Y-91775500D01*
G75*
G02*
X71394000Y-91628000I147500J0D01*
G01*
X71689000Y-91628000D01*
G75*
G02*
X71836500Y-91775500I0J-147500D01*
G01*
G37*
G36*
G01*
X70866500Y-91775500D02*
X70866500Y-92120500D01*
G75*
G02*
X70719000Y-92268000I-147500J0D01*
G01*
X70424000Y-92268000D01*
G75*
G02*
X70276500Y-92120500I0J147500D01*
G01*
X70276500Y-91775500D01*
G75*
G02*
X70424000Y-91628000I147500J0D01*
G01*
X70719000Y-91628000D01*
G75*
G02*
X70866500Y-91775500I0J-147500D01*
G01*
G37*
%TD*%
%TO.C,C7*%
G36*
G01*
X79763400Y-96362300D02*
X79763400Y-96017300D01*
G75*
G02*
X79910900Y-95869800I147500J0D01*
G01*
X80205900Y-95869800D01*
G75*
G02*
X80353400Y-96017300I0J-147500D01*
G01*
X80353400Y-96362300D01*
G75*
G02*
X80205900Y-96509800I-147500J0D01*
G01*
X79910900Y-96509800D01*
G75*
G02*
X79763400Y-96362300I0J147500D01*
G01*
G37*
G36*
G01*
X80733400Y-96362300D02*
X80733400Y-96017300D01*
G75*
G02*
X80880900Y-95869800I147500J0D01*
G01*
X81175900Y-95869800D01*
G75*
G02*
X81323400Y-96017300I0J-147500D01*
G01*
X81323400Y-96362300D01*
G75*
G02*
X81175900Y-96509800I-147500J0D01*
G01*
X80880900Y-96509800D01*
G75*
G02*
X80733400Y-96362300I0J147500D01*
G01*
G37*
%TD*%
%TO.C,C8*%
G36*
G01*
X71557100Y-93662000D02*
X71902100Y-93662000D01*
G75*
G02*
X72049600Y-93809500I0J-147500D01*
G01*
X72049600Y-94104500D01*
G75*
G02*
X71902100Y-94252000I-147500J0D01*
G01*
X71557100Y-94252000D01*
G75*
G02*
X71409600Y-94104500I0J147500D01*
G01*
X71409600Y-93809500D01*
G75*
G02*
X71557100Y-93662000I147500J0D01*
G01*
G37*
G36*
G01*
X71557100Y-92692000D02*
X71902100Y-92692000D01*
G75*
G02*
X72049600Y-92839500I0J-147500D01*
G01*
X72049600Y-93134500D01*
G75*
G02*
X71902100Y-93282000I-147500J0D01*
G01*
X71557100Y-93282000D01*
G75*
G02*
X71409600Y-93134500I0J147500D01*
G01*
X71409600Y-92839500D01*
G75*
G02*
X71557100Y-92692000I147500J0D01*
G01*
G37*
%TD*%
%TO.C,C9*%
G36*
G01*
X80733400Y-95270100D02*
X80733400Y-94925100D01*
G75*
G02*
X80880900Y-94777600I147500J0D01*
G01*
X81175900Y-94777600D01*
G75*
G02*
X81323400Y-94925100I0J-147500D01*
G01*
X81323400Y-95270100D01*
G75*
G02*
X81175900Y-95417600I-147500J0D01*
G01*
X80880900Y-95417600D01*
G75*
G02*
X80733400Y-95270100I0J147500D01*
G01*
G37*
G36*
G01*
X79763400Y-95270100D02*
X79763400Y-94925100D01*
G75*
G02*
X79910900Y-94777600I147500J0D01*
G01*
X80205900Y-94777600D01*
G75*
G02*
X80353400Y-94925100I0J-147500D01*
G01*
X80353400Y-95270100D01*
G75*
G02*
X80205900Y-95417600I-147500J0D01*
G01*
X79910900Y-95417600D01*
G75*
G02*
X79763400Y-95270100I0J147500D01*
G01*
G37*
%TD*%
%TO.C,C12*%
G36*
G01*
X65677000Y-95757500D02*
X66022000Y-95757500D01*
G75*
G02*
X66169500Y-95905000I0J-147500D01*
G01*
X66169500Y-96200000D01*
G75*
G02*
X66022000Y-96347500I-147500J0D01*
G01*
X65677000Y-96347500D01*
G75*
G02*
X65529500Y-96200000I0J147500D01*
G01*
X65529500Y-95905000D01*
G75*
G02*
X65677000Y-95757500I147500J0D01*
G01*
G37*
G36*
G01*
X65677000Y-94787500D02*
X66022000Y-94787500D01*
G75*
G02*
X66169500Y-94935000I0J-147500D01*
G01*
X66169500Y-95230000D01*
G75*
G02*
X66022000Y-95377500I-147500J0D01*
G01*
X65677000Y-95377500D01*
G75*
G02*
X65529500Y-95230000I0J147500D01*
G01*
X65529500Y-94935000D01*
G75*
G02*
X65677000Y-94787500I147500J0D01*
G01*
G37*
%TD*%
%TO.C,C13*%
G36*
G01*
X80784200Y-90634600D02*
X80784200Y-90289600D01*
G75*
G02*
X80931700Y-90142100I147500J0D01*
G01*
X81226700Y-90142100D01*
G75*
G02*
X81374200Y-90289600I0J-147500D01*
G01*
X81374200Y-90634600D01*
G75*
G02*
X81226700Y-90782100I-147500J0D01*
G01*
X80931700Y-90782100D01*
G75*
G02*
X80784200Y-90634600I0J147500D01*
G01*
G37*
G36*
G01*
X79814200Y-90634600D02*
X79814200Y-90289600D01*
G75*
G02*
X79961700Y-90142100I147500J0D01*
G01*
X80256700Y-90142100D01*
G75*
G02*
X80404200Y-90289600I0J-147500D01*
G01*
X80404200Y-90634600D01*
G75*
G02*
X80256700Y-90782100I-147500J0D01*
G01*
X79961700Y-90782100D01*
G75*
G02*
X79814200Y-90634600I0J147500D01*
G01*
G37*
%TD*%
%TO.C,C14*%
G36*
G01*
X70269600Y-84587300D02*
X70269600Y-84932300D01*
G75*
G02*
X70122100Y-85079800I-147500J0D01*
G01*
X69827100Y-85079800D01*
G75*
G02*
X69679600Y-84932300I0J147500D01*
G01*
X69679600Y-84587300D01*
G75*
G02*
X69827100Y-84439800I147500J0D01*
G01*
X70122100Y-84439800D01*
G75*
G02*
X70269600Y-84587300I0J-147500D01*
G01*
G37*
G36*
G01*
X71239600Y-84587300D02*
X71239600Y-84932300D01*
G75*
G02*
X71092100Y-85079800I-147500J0D01*
G01*
X70797100Y-85079800D01*
G75*
G02*
X70649600Y-84932300I0J147500D01*
G01*
X70649600Y-84587300D01*
G75*
G02*
X70797100Y-84439800I147500J0D01*
G01*
X71092100Y-84439800D01*
G75*
G02*
X71239600Y-84587300I0J-147500D01*
G01*
G37*
%TD*%
%TO.C,C15*%
G36*
G01*
X66654649Y-85338011D02*
X66827150Y-85636789D01*
G75*
G02*
X66773161Y-85838278I-127739J-73750D01*
G01*
X66517683Y-85985778D01*
G75*
G02*
X66316194Y-85931789I-73750J127739D01*
G01*
X66143694Y-85633011D01*
G75*
G02*
X66197683Y-85431522I127739J73750D01*
G01*
X66453161Y-85284022D01*
G75*
G02*
X66654650Y-85338011I73750J-127739D01*
G01*
G37*
G36*
G01*
X65814605Y-85823011D02*
X65987106Y-86121789D01*
G75*
G02*
X65933117Y-86323278I-127739J-73750D01*
G01*
X65677639Y-86470778D01*
G75*
G02*
X65476150Y-86416789I-73750J127739D01*
G01*
X65303650Y-86118011D01*
G75*
G02*
X65357639Y-85916522I127739J73750D01*
G01*
X65613117Y-85769022D01*
G75*
G02*
X65814606Y-85823011I73750J-127739D01*
G01*
G37*
%TD*%
%TO.C,C16*%
G36*
G01*
X73794400Y-86380100D02*
X73794400Y-86035100D01*
G75*
G02*
X73941900Y-85887600I147500J0D01*
G01*
X74236900Y-85887600D01*
G75*
G02*
X74384400Y-86035100I0J-147500D01*
G01*
X74384400Y-86380100D01*
G75*
G02*
X74236900Y-86527600I-147500J0D01*
G01*
X73941900Y-86527600D01*
G75*
G02*
X73794400Y-86380100I0J147500D01*
G01*
G37*
G36*
G01*
X74764400Y-86380100D02*
X74764400Y-86035100D01*
G75*
G02*
X74911900Y-85887600I147500J0D01*
G01*
X75206900Y-85887600D01*
G75*
G02*
X75354400Y-86035100I0J-147500D01*
G01*
X75354400Y-86380100D01*
G75*
G02*
X75206900Y-86527600I-147500J0D01*
G01*
X74911900Y-86527600D01*
G75*
G02*
X74764400Y-86380100I0J147500D01*
G01*
G37*
%TD*%
%TO.C,C17*%
G36*
G01*
X75104595Y-101146389D02*
X74932094Y-100847611D01*
G75*
G02*
X74986083Y-100646122I127739J73750D01*
G01*
X75241561Y-100498622D01*
G75*
G02*
X75443050Y-100552611I73750J-127739D01*
G01*
X75615550Y-100851389D01*
G75*
G02*
X75561561Y-101052878I-127739J-73750D01*
G01*
X75306083Y-101200378D01*
G75*
G02*
X75104594Y-101146389I-73750J127739D01*
G01*
G37*
G36*
G01*
X74264551Y-101631389D02*
X74092050Y-101332611D01*
G75*
G02*
X74146039Y-101131122I127739J73750D01*
G01*
X74401517Y-100983622D01*
G75*
G02*
X74603006Y-101037611I73750J-127739D01*
G01*
X74775506Y-101336389D01*
G75*
G02*
X74721517Y-101537878I-127739J-73750D01*
G01*
X74466039Y-101685378D01*
G75*
G02*
X74264550Y-101631389I-73750J127739D01*
G01*
G37*
%TD*%
%TO.C,C18*%
G36*
G01*
X69679600Y-102344000D02*
X69679600Y-101999000D01*
G75*
G02*
X69827100Y-101851500I147500J0D01*
G01*
X70122100Y-101851500D01*
G75*
G02*
X70269600Y-101999000I0J-147500D01*
G01*
X70269600Y-102344000D01*
G75*
G02*
X70122100Y-102491500I-147500J0D01*
G01*
X69827100Y-102491500D01*
G75*
G02*
X69679600Y-102344000I0J147500D01*
G01*
G37*
G36*
G01*
X70649600Y-102344000D02*
X70649600Y-101999000D01*
G75*
G02*
X70797100Y-101851500I147500J0D01*
G01*
X71092100Y-101851500D01*
G75*
G02*
X71239600Y-101999000I0J-147500D01*
G01*
X71239600Y-102344000D01*
G75*
G02*
X71092100Y-102491500I-147500J0D01*
G01*
X70797100Y-102491500D01*
G75*
G02*
X70649600Y-102344000I0J147500D01*
G01*
G37*
%TD*%
%TO.C,D1*%
G36*
G01*
X70632100Y-93282000D02*
X70287100Y-93282000D01*
G75*
G02*
X70139600Y-93134500I0J147500D01*
G01*
X70139600Y-92839500D01*
G75*
G02*
X70287100Y-92692000I147500J0D01*
G01*
X70632100Y-92692000D01*
G75*
G02*
X70779600Y-92839500I0J-147500D01*
G01*
X70779600Y-93134500D01*
G75*
G02*
X70632100Y-93282000I-147500J0D01*
G01*
G37*
G36*
G01*
X70632100Y-94252000D02*
X70287100Y-94252000D01*
G75*
G02*
X70139600Y-94104500I0J147500D01*
G01*
X70139600Y-93809500D01*
G75*
G02*
X70287100Y-93662000I147500J0D01*
G01*
X70632100Y-93662000D01*
G75*
G02*
X70779600Y-93809500I0J-147500D01*
G01*
X70779600Y-94104500D01*
G75*
G02*
X70632100Y-94252000I-147500J0D01*
G01*
G37*
%TD*%
%TO.C,D2*%
G36*
G01*
X70649600Y-83738500D02*
X70649600Y-83393500D01*
G75*
G02*
X70797100Y-83246000I147500J0D01*
G01*
X71092100Y-83246000D01*
G75*
G02*
X71239600Y-83393500I0J-147500D01*
G01*
X71239600Y-83738500D01*
G75*
G02*
X71092100Y-83886000I-147500J0D01*
G01*
X70797100Y-83886000D01*
G75*
G02*
X70649600Y-83738500I0J147500D01*
G01*
G37*
G36*
G01*
X69679600Y-83738500D02*
X69679600Y-83393500D01*
G75*
G02*
X69827100Y-83246000I147500J0D01*
G01*
X70122100Y-83246000D01*
G75*
G02*
X70269600Y-83393500I0J-147500D01*
G01*
X70269600Y-83738500D01*
G75*
G02*
X70122100Y-83886000I-147500J0D01*
G01*
X69827100Y-83886000D01*
G75*
G02*
X69679600Y-83738500I0J147500D01*
G01*
G37*
%TD*%
%TO.C,D3*%
G36*
G01*
X66070449Y-84296611D02*
X66242950Y-84595389D01*
G75*
G02*
X66188961Y-84796878I-127739J-73750D01*
G01*
X65933483Y-84944378D01*
G75*
G02*
X65731994Y-84890389I-73750J127739D01*
G01*
X65559494Y-84591611D01*
G75*
G02*
X65613483Y-84390122I127739J73750D01*
G01*
X65868961Y-84242622D01*
G75*
G02*
X66070450Y-84296611I73750J-127739D01*
G01*
G37*
G36*
G01*
X65230405Y-84781611D02*
X65402906Y-85080389D01*
G75*
G02*
X65348917Y-85281878I-127739J-73750D01*
G01*
X65093439Y-85429378D01*
G75*
G02*
X64891950Y-85375389I-73750J127739D01*
G01*
X64719450Y-85076611D01*
G75*
G02*
X64773439Y-84875122I127739J73750D01*
G01*
X65028917Y-84727622D01*
G75*
G02*
X65230406Y-84781611I73750J-127739D01*
G01*
G37*
%TD*%
%TO.C,D4*%
G36*
G01*
X74104398Y-80582320D02*
X73771153Y-80493028D01*
G75*
G02*
X73666855Y-80312378I38176J142474D01*
G01*
X73743207Y-80027430D01*
G75*
G02*
X73923857Y-79923132I142474J-38176D01*
G01*
X74257101Y-80012424D01*
G75*
G02*
X74361399Y-80193074I-38176J-142474D01*
G01*
X74285047Y-80478022D01*
G75*
G02*
X74104397Y-80582320I-142474J38176D01*
G01*
G37*
G36*
G01*
X73853344Y-81519268D02*
X73520099Y-81429976D01*
G75*
G02*
X73415801Y-81249326I38176J142474D01*
G01*
X73492153Y-80964378D01*
G75*
G02*
X73672803Y-80860080I142474J-38176D01*
G01*
X74006047Y-80949372D01*
G75*
G02*
X74110345Y-81130022I-38176J-142474D01*
G01*
X74033993Y-81414970D01*
G75*
G02*
X73853343Y-81519268I-142474J38176D01*
G01*
G37*
%TD*%
%TO.C,D5*%
G36*
G01*
X70287100Y-105925400D02*
X70632100Y-105925400D01*
G75*
G02*
X70779600Y-106072900I0J-147500D01*
G01*
X70779600Y-106367900D01*
G75*
G02*
X70632100Y-106515400I-147500J0D01*
G01*
X70287100Y-106515400D01*
G75*
G02*
X70139600Y-106367900I0J147500D01*
G01*
X70139600Y-106072900D01*
G75*
G02*
X70287100Y-105925400I147500J0D01*
G01*
G37*
G36*
G01*
X70287100Y-106895400D02*
X70632100Y-106895400D01*
G75*
G02*
X70779600Y-107042900I0J-147500D01*
G01*
X70779600Y-107337900D01*
G75*
G02*
X70632100Y-107485400I-147500J0D01*
G01*
X70287100Y-107485400D01*
G75*
G02*
X70139600Y-107337900I0J147500D01*
G01*
X70139600Y-107042900D01*
G75*
G02*
X70287100Y-106895400I147500J0D01*
G01*
G37*
%TD*%
%TO.C,D6*%
G36*
G01*
X66814802Y-106387080D02*
X67148047Y-106476372D01*
G75*
G02*
X67252345Y-106657022I-38176J-142474D01*
G01*
X67175993Y-106941970D01*
G75*
G02*
X66995343Y-107046268I-142474J38176D01*
G01*
X66662099Y-106956976D01*
G75*
G02*
X66557801Y-106776326I38176J142474D01*
G01*
X66634153Y-106491378D01*
G75*
G02*
X66814803Y-106387080I142474J-38176D01*
G01*
G37*
G36*
G01*
X67065856Y-105450132D02*
X67399101Y-105539424D01*
G75*
G02*
X67503399Y-105720074I-38176J-142474D01*
G01*
X67427047Y-106005022D01*
G75*
G02*
X67246397Y-106109320I-142474J38176D01*
G01*
X66913153Y-106020028D01*
G75*
G02*
X66808855Y-105839378I38176J142474D01*
G01*
X66885207Y-105554430D01*
G75*
G02*
X67065857Y-105450132I142474J-38176D01*
G01*
G37*
%TD*%
%TO.C,D7*%
G36*
G01*
X70632100Y-81046400D02*
X70287100Y-81046400D01*
G75*
G02*
X70139600Y-80898900I0J147500D01*
G01*
X70139600Y-80603900D01*
G75*
G02*
X70287100Y-80456400I147500J0D01*
G01*
X70632100Y-80456400D01*
G75*
G02*
X70779600Y-80603900I0J-147500D01*
G01*
X70779600Y-80898900D01*
G75*
G02*
X70632100Y-81046400I-147500J0D01*
G01*
G37*
G36*
G01*
X70632100Y-80076400D02*
X70287100Y-80076400D01*
G75*
G02*
X70139600Y-79928900I0J147500D01*
G01*
X70139600Y-79633900D01*
G75*
G02*
X70287100Y-79486400I147500J0D01*
G01*
X70632100Y-79486400D01*
G75*
G02*
X70779600Y-79633900I0J-147500D01*
G01*
X70779600Y-79928900D01*
G75*
G02*
X70632100Y-80076400I-147500J0D01*
G01*
G37*
%TD*%
%TO.C,D8*%
G36*
G01*
X75516295Y-85105789D02*
X75688794Y-84807011D01*
G75*
G02*
X75890283Y-84753022I127739J-73750D01*
G01*
X76145761Y-84900522D01*
G75*
G02*
X76199750Y-85102011I-73750J-127739D01*
G01*
X76027250Y-85400789D01*
G75*
G02*
X75825761Y-85454778I-127739J73750D01*
G01*
X75570283Y-85307278D01*
G75*
G02*
X75516294Y-85105789I73750J127739D01*
G01*
G37*
G36*
G01*
X74676251Y-84620789D02*
X74848750Y-84322011D01*
G75*
G02*
X75050239Y-84268022I127739J-73750D01*
G01*
X75305717Y-84415522D01*
G75*
G02*
X75359706Y-84617011I-73750J-127739D01*
G01*
X75187206Y-84915789D01*
G75*
G02*
X74985717Y-84969778I-127739J73750D01*
G01*
X74730239Y-84822278D01*
G75*
G02*
X74676250Y-84620789I73750J127739D01*
G01*
G37*
%TD*%
%TO.C,D9*%
G36*
G01*
X62089611Y-87757251D02*
X62388389Y-87929750D01*
G75*
G02*
X62442378Y-88131239I-73750J-127739D01*
G01*
X62294878Y-88386717D01*
G75*
G02*
X62093389Y-88440706I-127739J73750D01*
G01*
X61794611Y-88268206D01*
G75*
G02*
X61740622Y-88066717I73750J127739D01*
G01*
X61888122Y-87811239D01*
G75*
G02*
X62089611Y-87757250I127739J-73750D01*
G01*
G37*
G36*
G01*
X61604611Y-88597295D02*
X61903389Y-88769794D01*
G75*
G02*
X61957378Y-88971283I-73750J-127739D01*
G01*
X61809878Y-89226761D01*
G75*
G02*
X61608389Y-89280750I-127739J73750D01*
G01*
X61309611Y-89108250D01*
G75*
G02*
X61255622Y-88906761I73750J127739D01*
G01*
X61403122Y-88651283D01*
G75*
G02*
X61604611Y-88597294I127739J-73750D01*
G01*
G37*
%TD*%
%TO.C,D10*%
G36*
G01*
X77307989Y-81963705D02*
X77009211Y-81791206D01*
G75*
G02*
X76955222Y-81589717I73750J127739D01*
G01*
X77102722Y-81334239D01*
G75*
G02*
X77304211Y-81280250I127739J-73750D01*
G01*
X77602989Y-81452750D01*
G75*
G02*
X77656978Y-81654239I-73750J-127739D01*
G01*
X77509478Y-81909717D01*
G75*
G02*
X77307989Y-81963706I-127739J73750D01*
G01*
G37*
G36*
G01*
X76822989Y-82803749D02*
X76524211Y-82631250D01*
G75*
G02*
X76470222Y-82429761I73750J127739D01*
G01*
X76617722Y-82174283D01*
G75*
G02*
X76819211Y-82120294I127739J-73750D01*
G01*
X77117989Y-82292794D01*
G75*
G02*
X77171978Y-82494283I-73750J-127739D01*
G01*
X77024478Y-82749761D01*
G75*
G02*
X76822989Y-82803750I-127739J73750D01*
G01*
G37*
%TD*%
%TO.C,D11*%
G36*
G01*
X73520099Y-105539424D02*
X73853343Y-105450132D01*
G75*
G02*
X74033993Y-105554430I38176J-142474D01*
G01*
X74110345Y-105839378D01*
G75*
G02*
X74006047Y-106020028I-142474J-38176D01*
G01*
X73672803Y-106109320D01*
G75*
G02*
X73492153Y-106005022I-38176J142474D01*
G01*
X73415801Y-105720074D01*
G75*
G02*
X73520099Y-105539424I142474J38176D01*
G01*
G37*
G36*
G01*
X73771153Y-106476372D02*
X74104397Y-106387080D01*
G75*
G02*
X74285047Y-106491378I38176J-142474D01*
G01*
X74361399Y-106776326D01*
G75*
G02*
X74257101Y-106956976I-142474J-38176D01*
G01*
X73923857Y-107046268D01*
G75*
G02*
X73743207Y-106941970I-38176J142474D01*
G01*
X73666855Y-106657022D01*
G75*
G02*
X73771153Y-106476372I142474J38176D01*
G01*
G37*
%TD*%
%TO.C,D12*%
G36*
G01*
X63611211Y-105005695D02*
X63909989Y-105178194D01*
G75*
G02*
X63963978Y-105379683I-73750J-127739D01*
G01*
X63816478Y-105635161D01*
G75*
G02*
X63614989Y-105689150I-127739J73750D01*
G01*
X63316211Y-105516650D01*
G75*
G02*
X63262222Y-105315161I73750J127739D01*
G01*
X63409722Y-105059683D01*
G75*
G02*
X63611211Y-105005694I127739J-73750D01*
G01*
G37*
G36*
G01*
X64096211Y-104165651D02*
X64394989Y-104338150D01*
G75*
G02*
X64448978Y-104539639I-73750J-127739D01*
G01*
X64301478Y-104795117D01*
G75*
G02*
X64099989Y-104849106I-127739J73750D01*
G01*
X63801211Y-104676606D01*
G75*
G02*
X63747222Y-104475117I73750J127739D01*
G01*
X63894722Y-104219639D01*
G75*
G02*
X64096211Y-104165650I127739J-73750D01*
G01*
G37*
%TD*%
%TO.C,D13*%
G36*
G01*
X67148047Y-80467628D02*
X66814803Y-80556920D01*
G75*
G02*
X66634153Y-80452622I-38176J142474D01*
G01*
X66557801Y-80167674D01*
G75*
G02*
X66662099Y-79987024I142474J38176D01*
G01*
X66995343Y-79897732D01*
G75*
G02*
X67175993Y-80002030I38176J-142474D01*
G01*
X67252345Y-80286978D01*
G75*
G02*
X67148047Y-80467628I-142474J-38176D01*
G01*
G37*
G36*
G01*
X67399101Y-81404576D02*
X67065857Y-81493868D01*
G75*
G02*
X66885207Y-81389570I-38176J142474D01*
G01*
X66808855Y-81104622D01*
G75*
G02*
X66913153Y-80923972I142474J38176D01*
G01*
X67246397Y-80834680D01*
G75*
G02*
X67427047Y-80938978I38176J-142474D01*
G01*
X67503399Y-81223926D01*
G75*
G02*
X67399101Y-81404576I-142474J-38176D01*
G01*
G37*
%TD*%
%TO.C,D14*%
G36*
G01*
X79584189Y-89108249D02*
X79285411Y-89280750D01*
G75*
G02*
X79083922Y-89226761I-73750J127739D01*
G01*
X78936422Y-88971283D01*
G75*
G02*
X78990411Y-88769794I127739J73750D01*
G01*
X79289189Y-88597294D01*
G75*
G02*
X79490678Y-88651283I73750J-127739D01*
G01*
X79638178Y-88906761D01*
G75*
G02*
X79584189Y-89108250I-127739J-73750D01*
G01*
G37*
G36*
G01*
X79099189Y-88268205D02*
X78800411Y-88440706D01*
G75*
G02*
X78598922Y-88386717I-73750J127739D01*
G01*
X78451422Y-88131239D01*
G75*
G02*
X78505411Y-87929750I127739J73750D01*
G01*
X78804189Y-87757250D01*
G75*
G02*
X79005678Y-87811239I73750J-127739D01*
G01*
X79153178Y-88066717D01*
G75*
G02*
X79099189Y-88268206I-127739J-73750D01*
G01*
G37*
%TD*%
%TO.C,D15*%
G36*
G01*
X60675300Y-93307400D02*
X60330300Y-93307400D01*
G75*
G02*
X60182800Y-93159900I0J147500D01*
G01*
X60182800Y-92864900D01*
G75*
G02*
X60330300Y-92717400I147500J0D01*
G01*
X60675300Y-92717400D01*
G75*
G02*
X60822800Y-92864900I0J-147500D01*
G01*
X60822800Y-93159900D01*
G75*
G02*
X60675300Y-93307400I-147500J0D01*
G01*
G37*
G36*
G01*
X60675300Y-94277400D02*
X60330300Y-94277400D01*
G75*
G02*
X60182800Y-94129900I0J147500D01*
G01*
X60182800Y-93834900D01*
G75*
G02*
X60330300Y-93687400I147500J0D01*
G01*
X60675300Y-93687400D01*
G75*
G02*
X60822800Y-93834900I0J-147500D01*
G01*
X60822800Y-94129900D01*
G75*
G02*
X60675300Y-94277400I-147500J0D01*
G01*
G37*
%TD*%
%TO.C,D16*%
G36*
G01*
X79377232Y-84823719D02*
X79133281Y-84579767D01*
G75*
G02*
X79133281Y-84371171I104298J104298D01*
G01*
X79341877Y-84162575D01*
G75*
G02*
X79550473Y-84162575I104298J-104298D01*
G01*
X79794425Y-84406527D01*
G75*
G02*
X79794425Y-84615123I-104298J-104298D01*
G01*
X79585829Y-84823719D01*
G75*
G02*
X79377233Y-84823719I-104298J104298D01*
G01*
G37*
G36*
G01*
X80063126Y-84137825D02*
X79819175Y-83893873D01*
G75*
G02*
X79819175Y-83685277I104298J104298D01*
G01*
X80027771Y-83476681D01*
G75*
G02*
X80236367Y-83476681I104298J-104298D01*
G01*
X80480319Y-83720633D01*
G75*
G02*
X80480319Y-83929229I-104298J-104298D01*
G01*
X80271723Y-84137825D01*
G75*
G02*
X80063127Y-84137825I-104298J104298D01*
G01*
G37*
%TD*%
%TO.C,D17*%
G36*
G01*
X77009211Y-105178195D02*
X77307989Y-105005694D01*
G75*
G02*
X77509478Y-105059683I73750J-127739D01*
G01*
X77656978Y-105315161D01*
G75*
G02*
X77602989Y-105516650I-127739J-73750D01*
G01*
X77304211Y-105689150D01*
G75*
G02*
X77102722Y-105635161I-73750J127739D01*
G01*
X76955222Y-105379683D01*
G75*
G02*
X77009211Y-105178194I127739J73750D01*
G01*
G37*
G36*
G01*
X76524211Y-104338151D02*
X76822989Y-104165650D01*
G75*
G02*
X77024478Y-104219639I73750J-127739D01*
G01*
X77171978Y-104475117D01*
G75*
G02*
X77117989Y-104676606I-127739J-73750D01*
G01*
X76819211Y-104849106D01*
G75*
G02*
X76617722Y-104795117I-73750J127739D01*
G01*
X76470222Y-104539639D01*
G75*
G02*
X76524211Y-104338150I127739J73750D01*
G01*
G37*
%TD*%
%TO.C,D18*%
G36*
G01*
X61541968Y-102171081D02*
X61785919Y-102415033D01*
G75*
G02*
X61785919Y-102623629I-104298J-104298D01*
G01*
X61577323Y-102832225D01*
G75*
G02*
X61368727Y-102832225I-104298J104298D01*
G01*
X61124775Y-102588273D01*
G75*
G02*
X61124775Y-102379677I104298J104298D01*
G01*
X61333371Y-102171081D01*
G75*
G02*
X61541967Y-102171081I104298J-104298D01*
G01*
G37*
G36*
G01*
X60856074Y-102856975D02*
X61100025Y-103100927D01*
G75*
G02*
X61100025Y-103309523I-104298J-104298D01*
G01*
X60891429Y-103518119D01*
G75*
G02*
X60682833Y-103518119I-104298J104298D01*
G01*
X60438881Y-103274167D01*
G75*
G02*
X60438881Y-103065571I104298J104298D01*
G01*
X60647477Y-102856975D01*
G75*
G02*
X60856073Y-102856975I104298J-104298D01*
G01*
G37*
%TD*%
%TO.C,D19*%
G36*
G01*
X63909989Y-81765805D02*
X63611211Y-81938306D01*
G75*
G02*
X63409722Y-81884317I-73750J127739D01*
G01*
X63262222Y-81628839D01*
G75*
G02*
X63316211Y-81427350I127739J73750D01*
G01*
X63614989Y-81254850D01*
G75*
G02*
X63816478Y-81308839I73750J-127739D01*
G01*
X63963978Y-81564317D01*
G75*
G02*
X63909989Y-81765806I-127739J-73750D01*
G01*
G37*
G36*
G01*
X64394989Y-82605849D02*
X64096211Y-82778350D01*
G75*
G02*
X63894722Y-82724361I-73750J127739D01*
G01*
X63747222Y-82468883D01*
G75*
G02*
X63801211Y-82267394I127739J73750D01*
G01*
X64099989Y-82094894D01*
G75*
G02*
X64301478Y-82148883I73750J-127739D01*
G01*
X64448978Y-82404361D01*
G75*
G02*
X64394989Y-82605850I-127739J-73750D01*
G01*
G37*
%TD*%
%TO.C,D20*%
G36*
G01*
X80218500Y-92692000D02*
X80563500Y-92692000D01*
G75*
G02*
X80711000Y-92839500I0J-147500D01*
G01*
X80711000Y-93134500D01*
G75*
G02*
X80563500Y-93282000I-147500J0D01*
G01*
X80218500Y-93282000D01*
G75*
G02*
X80071000Y-93134500I0J147500D01*
G01*
X80071000Y-92839500D01*
G75*
G02*
X80218500Y-92692000I147500J0D01*
G01*
G37*
G36*
G01*
X80218500Y-93662000D02*
X80563500Y-93662000D01*
G75*
G02*
X80711000Y-93809500I0J-147500D01*
G01*
X80711000Y-94104500D01*
G75*
G02*
X80563500Y-94252000I-147500J0D01*
G01*
X80218500Y-94252000D01*
G75*
G02*
X80071000Y-94104500I0J147500D01*
G01*
X80071000Y-93809500D01*
G75*
G02*
X80218500Y-93662000I147500J0D01*
G01*
G37*
%TD*%
%TO.C,D21*%
G36*
G01*
X61903389Y-98199605D02*
X61604611Y-98372106D01*
G75*
G02*
X61403122Y-98318117I-73750J127739D01*
G01*
X61255622Y-98062639D01*
G75*
G02*
X61309611Y-97861150I127739J73750D01*
G01*
X61608389Y-97688650D01*
G75*
G02*
X61809878Y-97742639I73750J-127739D01*
G01*
X61957378Y-97998117D01*
G75*
G02*
X61903389Y-98199606I-127739J-73750D01*
G01*
G37*
G36*
G01*
X62388389Y-99039649D02*
X62089611Y-99212150D01*
G75*
G02*
X61888122Y-99158161I-73750J127739D01*
G01*
X61740622Y-98902683D01*
G75*
G02*
X61794611Y-98701194I127739J73750D01*
G01*
X62093389Y-98528694D01*
G75*
G02*
X62294878Y-98582683I73750J-127739D01*
G01*
X62442378Y-98838161D01*
G75*
G02*
X62388389Y-99039650I-127739J-73750D01*
G01*
G37*
%TD*%
%TO.C,D22*%
G36*
G01*
X81325751Y-87407389D02*
X81153250Y-87108611D01*
G75*
G02*
X81207239Y-86907122I127739J73750D01*
G01*
X81462717Y-86759622D01*
G75*
G02*
X81664206Y-86813611I73750J-127739D01*
G01*
X81836706Y-87112389D01*
G75*
G02*
X81782717Y-87313878I-127739J-73750D01*
G01*
X81527239Y-87461378D01*
G75*
G02*
X81325750Y-87407389I-73750J127739D01*
G01*
G37*
G36*
G01*
X82165795Y-86922389D02*
X81993294Y-86623611D01*
G75*
G02*
X82047283Y-86422122I127739J73750D01*
G01*
X82302761Y-86274622D01*
G75*
G02*
X82504250Y-86328611I73750J-127739D01*
G01*
X82676750Y-86627389D01*
G75*
G02*
X82622761Y-86828878I-127739J-73750D01*
G01*
X82367283Y-86976378D01*
G75*
G02*
X82165794Y-86922389I-73750J127739D01*
G01*
G37*
%TD*%
%TO.C,D23*%
G36*
G01*
X79819175Y-103100926D02*
X80063127Y-102856975D01*
G75*
G02*
X80271723Y-102856975I104298J-104298D01*
G01*
X80480319Y-103065571D01*
G75*
G02*
X80480319Y-103274167I-104298J-104298D01*
G01*
X80236367Y-103518119D01*
G75*
G02*
X80027771Y-103518119I-104298J104298D01*
G01*
X79819175Y-103309523D01*
G75*
G02*
X79819175Y-103100927I104298J104298D01*
G01*
G37*
G36*
G01*
X79133281Y-102415032D02*
X79377233Y-102171081D01*
G75*
G02*
X79585829Y-102171081I104298J-104298D01*
G01*
X79794425Y-102379677D01*
G75*
G02*
X79794425Y-102588273I-104298J-104298D01*
G01*
X79550473Y-102832225D01*
G75*
G02*
X79341877Y-102832225I-104298J104298D01*
G01*
X79133281Y-102623629D01*
G75*
G02*
X79133281Y-102415033I104298J104298D01*
G01*
G37*
%TD*%
%TO.C,D24*%
G36*
G01*
X59593449Y-99562011D02*
X59765950Y-99860789D01*
G75*
G02*
X59711961Y-100062278I-127739J-73750D01*
G01*
X59456483Y-100209778D01*
G75*
G02*
X59254994Y-100155789I-73750J127739D01*
G01*
X59082494Y-99857011D01*
G75*
G02*
X59136483Y-99655522I127739J73750D01*
G01*
X59391961Y-99508022D01*
G75*
G02*
X59593450Y-99562011I73750J-127739D01*
G01*
G37*
G36*
G01*
X58753405Y-100047011D02*
X58925906Y-100345789D01*
G75*
G02*
X58871917Y-100547278I-127739J-73750D01*
G01*
X58616439Y-100694778D01*
G75*
G02*
X58414950Y-100640789I-73750J127739D01*
G01*
X58242450Y-100342011D01*
G75*
G02*
X58296439Y-100140522I127739J73750D01*
G01*
X58551917Y-99993022D01*
G75*
G02*
X58753406Y-100047011I73750J-127739D01*
G01*
G37*
%TD*%
%TO.C,D25*%
G36*
G01*
X61785919Y-84554368D02*
X61541967Y-84798319D01*
G75*
G02*
X61333371Y-84798319I-104298J104298D01*
G01*
X61124775Y-84589723D01*
G75*
G02*
X61124775Y-84381127I104298J104298D01*
G01*
X61368727Y-84137175D01*
G75*
G02*
X61577323Y-84137175I104298J-104298D01*
G01*
X61785919Y-84345771D01*
G75*
G02*
X61785919Y-84554367I-104298J-104298D01*
G01*
G37*
G36*
G01*
X61100025Y-83868474D02*
X60856073Y-84112425D01*
G75*
G02*
X60647477Y-84112425I-104298J104298D01*
G01*
X60438881Y-83903829D01*
G75*
G02*
X60438881Y-83695233I104298J104298D01*
G01*
X60682833Y-83451281D01*
G75*
G02*
X60891429Y-83451281I104298J-104298D01*
G01*
X61100025Y-83659877D01*
G75*
G02*
X61100025Y-83868473I-104298J-104298D01*
G01*
G37*
%TD*%
%TO.C,D26*%
G36*
G01*
X79336211Y-97688651D02*
X79634989Y-97861150D01*
G75*
G02*
X79688978Y-98062639I-73750J-127739D01*
G01*
X79541478Y-98318117D01*
G75*
G02*
X79339989Y-98372106I-127739J73750D01*
G01*
X79041211Y-98199606D01*
G75*
G02*
X78987222Y-97998117I73750J127739D01*
G01*
X79134722Y-97742639D01*
G75*
G02*
X79336211Y-97688650I127739J-73750D01*
G01*
G37*
G36*
G01*
X78851211Y-98528695D02*
X79149989Y-98701194D01*
G75*
G02*
X79203978Y-98902683I-73750J-127739D01*
G01*
X79056478Y-99158161D01*
G75*
G02*
X78854989Y-99212150I-127739J73750D01*
G01*
X78556211Y-99039650D01*
G75*
G02*
X78502222Y-98838161I73750J127739D01*
G01*
X78649722Y-98582683D01*
G75*
G02*
X78851211Y-98528694I127739J-73750D01*
G01*
G37*
%TD*%
%TO.C,D27*%
G36*
G01*
X66268349Y-102323211D02*
X66095850Y-102621989D01*
G75*
G02*
X65894361Y-102675978I-127739J73750D01*
G01*
X65638883Y-102528478D01*
G75*
G02*
X65584894Y-102326989I73750J127739D01*
G01*
X65757394Y-102028211D01*
G75*
G02*
X65958883Y-101974222I127739J-73750D01*
G01*
X66214361Y-102121722D01*
G75*
G02*
X66268350Y-102323211I-73750J-127739D01*
G01*
G37*
G36*
G01*
X65428305Y-101838211D02*
X65255806Y-102136989D01*
G75*
G02*
X65054317Y-102190978I-127739J73750D01*
G01*
X64798839Y-102043478D01*
G75*
G02*
X64744850Y-101841989I73750J127739D01*
G01*
X64917350Y-101543211D01*
G75*
G02*
X65118839Y-101489222I127739J-73750D01*
G01*
X65374317Y-101636722D01*
G75*
G02*
X65428306Y-101838211I-73750J-127739D01*
G01*
G37*
%TD*%
%TO.C,D28*%
G36*
G01*
X83438572Y-90160447D02*
X83349280Y-89827203D01*
G75*
G02*
X83453578Y-89646553I142474J38176D01*
G01*
X83738526Y-89570201D01*
G75*
G02*
X83919176Y-89674499I38176J-142474D01*
G01*
X84008468Y-90007743D01*
G75*
G02*
X83904170Y-90188393I-142474J-38176D01*
G01*
X83619222Y-90264745D01*
G75*
G02*
X83438572Y-90160447I-38176J142474D01*
G01*
G37*
G36*
G01*
X82501624Y-90411501D02*
X82412332Y-90078257D01*
G75*
G02*
X82516630Y-89897607I142474J38176D01*
G01*
X82801578Y-89821255D01*
G75*
G02*
X82982228Y-89925553I38176J-142474D01*
G01*
X83071520Y-90258797D01*
G75*
G02*
X82967222Y-90439447I-142474J-38176D01*
G01*
X82682274Y-90515799D01*
G75*
G02*
X82501624Y-90411501I-38176J142474D01*
G01*
G37*
%TD*%
%TO.C,D29*%
G36*
G01*
X81153251Y-99860789D02*
X81325750Y-99562011D01*
G75*
G02*
X81527239Y-99508022I127739J-73750D01*
G01*
X81782717Y-99655522D01*
G75*
G02*
X81836706Y-99857011I-73750J-127739D01*
G01*
X81664206Y-100155789D01*
G75*
G02*
X81462717Y-100209778I-127739J73750D01*
G01*
X81207239Y-100062278D01*
G75*
G02*
X81153250Y-99860789I73750J127739D01*
G01*
G37*
G36*
G01*
X81993295Y-100345789D02*
X82165794Y-100047011D01*
G75*
G02*
X82367283Y-99993022I127739J-73750D01*
G01*
X82622761Y-100140522D01*
G75*
G02*
X82676750Y-100342011I-73750J-127739D01*
G01*
X82504250Y-100640789D01*
G75*
G02*
X82302761Y-100694778I-127739J73750D01*
G01*
X82047283Y-100547278D01*
G75*
G02*
X81993294Y-100345789I73750J127739D01*
G01*
G37*
%TD*%
%TO.C,D30*%
G36*
G01*
X57455228Y-96758153D02*
X57544520Y-97091397D01*
G75*
G02*
X57440222Y-97272047I-142474J-38176D01*
G01*
X57155274Y-97348399D01*
G75*
G02*
X56974624Y-97244101I-38176J142474D01*
G01*
X56885332Y-96910857D01*
G75*
G02*
X56989630Y-96730207I142474J38176D01*
G01*
X57274578Y-96653855D01*
G75*
G02*
X57455228Y-96758153I38176J-142474D01*
G01*
G37*
G36*
G01*
X58392176Y-96507099D02*
X58481468Y-96840343D01*
G75*
G02*
X58377170Y-97020993I-142474J-38176D01*
G01*
X58092222Y-97097345D01*
G75*
G02*
X57911572Y-96993047I-38176J142474D01*
G01*
X57822280Y-96659803D01*
G75*
G02*
X57926578Y-96479153I142474J38176D01*
G01*
X58211526Y-96402801D01*
G75*
G02*
X58392176Y-96507099I38176J-142474D01*
G01*
G37*
%TD*%
%TO.C,D31*%
G36*
G01*
X59765949Y-87108611D02*
X59593450Y-87407389D01*
G75*
G02*
X59391961Y-87461378I-127739J73750D01*
G01*
X59136483Y-87313878D01*
G75*
G02*
X59082494Y-87112389I73750J127739D01*
G01*
X59254994Y-86813611D01*
G75*
G02*
X59456483Y-86759622I127739J-73750D01*
G01*
X59711961Y-86907122D01*
G75*
G02*
X59765950Y-87108611I-73750J-127739D01*
G01*
G37*
G36*
G01*
X58925905Y-86623611D02*
X58753406Y-86922389D01*
G75*
G02*
X58551917Y-86976378I-127739J73750D01*
G01*
X58296439Y-86828878D01*
G75*
G02*
X58242450Y-86627389I73750J127739D01*
G01*
X58414950Y-86328611D01*
G75*
G02*
X58616439Y-86274622I127739J-73750D01*
G01*
X58871917Y-86422122D01*
G75*
G02*
X58925906Y-86623611I-73750J-127739D01*
G01*
G37*
%TD*%
%TO.C,D32*%
G36*
G01*
X75187205Y-102028211D02*
X75359706Y-102326989D01*
G75*
G02*
X75305717Y-102528478I-127739J-73750D01*
G01*
X75050239Y-102675978D01*
G75*
G02*
X74848750Y-102621989I-73750J127739D01*
G01*
X74676250Y-102323211D01*
G75*
G02*
X74730239Y-102121722I127739J73750D01*
G01*
X74985717Y-101974222D01*
G75*
G02*
X75187206Y-102028211I73750J-127739D01*
G01*
G37*
G36*
G01*
X76027249Y-101543211D02*
X76199750Y-101841989D01*
G75*
G02*
X76145761Y-102043478I-127739J-73750D01*
G01*
X75890283Y-102190978D01*
G75*
G02*
X75688794Y-102136989I-73750J127739D01*
G01*
X75516294Y-101838211D01*
G75*
G02*
X75570283Y-101636722I127739J73750D01*
G01*
X75825761Y-101489222D01*
G75*
G02*
X76027250Y-101543211I73750J-127739D01*
G01*
G37*
%TD*%
%TO.C,D33*%
G36*
G01*
X71239600Y-103281700D02*
X71239600Y-103626700D01*
G75*
G02*
X71092100Y-103774200I-147500J0D01*
G01*
X70797100Y-103774200D01*
G75*
G02*
X70649600Y-103626700I0J147500D01*
G01*
X70649600Y-103281700D01*
G75*
G02*
X70797100Y-103134200I147500J0D01*
G01*
X71092100Y-103134200D01*
G75*
G02*
X71239600Y-103281700I0J-147500D01*
G01*
G37*
G36*
G01*
X70269600Y-103281700D02*
X70269600Y-103626700D01*
G75*
G02*
X70122100Y-103774200I-147500J0D01*
G01*
X69827100Y-103774200D01*
G75*
G02*
X69679600Y-103626700I0J147500D01*
G01*
X69679600Y-103281700D01*
G75*
G02*
X69827100Y-103134200I147500J0D01*
G01*
X70122100Y-103134200D01*
G75*
G02*
X70269600Y-103281700I0J-147500D01*
G01*
G37*
%TD*%
%TO.C,D34*%
G36*
G01*
X83883000Y-93644500D02*
X83883000Y-93299500D01*
G75*
G02*
X84030500Y-93152000I147500J0D01*
G01*
X84325500Y-93152000D01*
G75*
G02*
X84473000Y-93299500I0J-147500D01*
G01*
X84473000Y-93644500D01*
G75*
G02*
X84325500Y-93792000I-147500J0D01*
G01*
X84030500Y-93792000D01*
G75*
G02*
X83883000Y-93644500I0J147500D01*
G01*
G37*
G36*
G01*
X82913000Y-93644500D02*
X82913000Y-93299500D01*
G75*
G02*
X83060500Y-93152000I147500J0D01*
G01*
X83355500Y-93152000D01*
G75*
G02*
X83503000Y-93299500I0J-147500D01*
G01*
X83503000Y-93644500D01*
G75*
G02*
X83355500Y-93792000I-147500J0D01*
G01*
X83060500Y-93792000D01*
G75*
G02*
X82913000Y-93644500I0J147500D01*
G01*
G37*
%TD*%
%TO.C,D35*%
G36*
G01*
X82437732Y-96865744D02*
X82527024Y-96532499D01*
G75*
G02*
X82707674Y-96428201I142474J-38176D01*
G01*
X82992622Y-96504553D01*
G75*
G02*
X83096920Y-96685203I-38176J-142474D01*
G01*
X83007628Y-97018447D01*
G75*
G02*
X82826978Y-97122745I-142474J38176D01*
G01*
X82542030Y-97046393D01*
G75*
G02*
X82437732Y-96865743I38176J142474D01*
G01*
G37*
G36*
G01*
X83374680Y-97116798D02*
X83463972Y-96783553D01*
G75*
G02*
X83644622Y-96679255I142474J-38176D01*
G01*
X83929570Y-96755607D01*
G75*
G02*
X84033868Y-96936257I-38176J-142474D01*
G01*
X83944576Y-97269501D01*
G75*
G02*
X83763926Y-97373799I-142474J38176D01*
G01*
X83478978Y-97297447D01*
G75*
G02*
X83374680Y-97116797I38176J142474D01*
G01*
G37*
%TD*%
%TO.C,D36*%
G36*
G01*
X57061600Y-93299500D02*
X57061600Y-93644500D01*
G75*
G02*
X56914100Y-93792000I-147500J0D01*
G01*
X56619100Y-93792000D01*
G75*
G02*
X56471600Y-93644500I0J147500D01*
G01*
X56471600Y-93299500D01*
G75*
G02*
X56619100Y-93152000I147500J0D01*
G01*
X56914100Y-93152000D01*
G75*
G02*
X57061600Y-93299500I0J-147500D01*
G01*
G37*
G36*
G01*
X58031600Y-93299500D02*
X58031600Y-93644500D01*
G75*
G02*
X57884100Y-93792000I-147500J0D01*
G01*
X57589100Y-93792000D01*
G75*
G02*
X57441600Y-93644500I0J147500D01*
G01*
X57441600Y-93299500D01*
G75*
G02*
X57589100Y-93152000I147500J0D01*
G01*
X57884100Y-93152000D01*
G75*
G02*
X58031600Y-93299500I0J-147500D01*
G01*
G37*
%TD*%
%TO.C,D37*%
G36*
G01*
X58481468Y-90078256D02*
X58392176Y-90411501D01*
G75*
G02*
X58211526Y-90515799I-142474J38176D01*
G01*
X57926578Y-90439447D01*
G75*
G02*
X57822280Y-90258797I38176J142474D01*
G01*
X57911572Y-89925553D01*
G75*
G02*
X58092222Y-89821255I142474J-38176D01*
G01*
X58377170Y-89897607D01*
G75*
G02*
X58481468Y-90078257I-38176J-142474D01*
G01*
G37*
G36*
G01*
X57544520Y-89827202D02*
X57455228Y-90160447D01*
G75*
G02*
X57274578Y-90264745I-142474J38176D01*
G01*
X56989630Y-90188393D01*
G75*
G02*
X56885332Y-90007743I38176J142474D01*
G01*
X56974624Y-89674499D01*
G75*
G02*
X57155274Y-89570201I142474J-38176D01*
G01*
X57440222Y-89646553D01*
G75*
G02*
X57544520Y-89827203I-38176J-142474D01*
G01*
G37*
%TD*%
%TO.C,R2*%
G36*
G01*
X88183500Y-94552000D02*
X87838500Y-94552000D01*
G75*
G02*
X87691000Y-94404500I0J147500D01*
G01*
X87691000Y-94109500D01*
G75*
G02*
X87838500Y-93962000I147500J0D01*
G01*
X88183500Y-93962000D01*
G75*
G02*
X88331000Y-94109500I0J-147500D01*
G01*
X88331000Y-94404500D01*
G75*
G02*
X88183500Y-94552000I-147500J0D01*
G01*
G37*
G36*
G01*
X88183500Y-95522000D02*
X87838500Y-95522000D01*
G75*
G02*
X87691000Y-95374500I0J147500D01*
G01*
X87691000Y-95079500D01*
G75*
G02*
X87838500Y-94932000I147500J0D01*
G01*
X88183500Y-94932000D01*
G75*
G02*
X88331000Y-95079500I0J-147500D01*
G01*
X88331000Y-95374500D01*
G75*
G02*
X88183500Y-95522000I-147500J0D01*
G01*
G37*
%TD*%
%TO.C,R3*%
G36*
G01*
X85801040Y-82431900D02*
X85488364Y-82577703D01*
G75*
G02*
X85292348Y-82506359I-62336J133680D01*
G01*
X85167676Y-82238998D01*
G75*
G02*
X85239020Y-82042982I133680J62336D01*
G01*
X85551696Y-81897179D01*
G75*
G02*
X85747712Y-81968523I62336J-133680D01*
G01*
X85872384Y-82235884D01*
G75*
G02*
X85801040Y-82431900I-133680J-62336D01*
G01*
G37*
G36*
G01*
X86210980Y-83311018D02*
X85898304Y-83456821D01*
G75*
G02*
X85702288Y-83385477I-62336J133680D01*
G01*
X85577616Y-83118116D01*
G75*
G02*
X85648960Y-82922100I133680J62336D01*
G01*
X85961636Y-82776297D01*
G75*
G02*
X86157652Y-82847641I62336J-133680D01*
G01*
X86282324Y-83115002D01*
G75*
G02*
X86210980Y-83311018I-133680J-62336D01*
G01*
G37*
%TD*%
%TO.C,R4*%
G36*
G01*
X84472196Y-107777321D02*
X84159520Y-107631518D01*
G75*
G02*
X84088176Y-107435502I62336J133680D01*
G01*
X84212848Y-107168141D01*
G75*
G02*
X84408864Y-107096797I133680J-62336D01*
G01*
X84721540Y-107242600D01*
G75*
G02*
X84792884Y-107438616I-62336J-133680D01*
G01*
X84668212Y-107705977D01*
G75*
G02*
X84472196Y-107777321I-133680J62336D01*
G01*
G37*
G36*
G01*
X84882136Y-106898203D02*
X84569460Y-106752400D01*
G75*
G02*
X84498116Y-106556384I62336J133680D01*
G01*
X84622788Y-106289023D01*
G75*
G02*
X84818804Y-106217679I133680J-62336D01*
G01*
X85131480Y-106363482D01*
G75*
G02*
X85202824Y-106559498I-62336J-133680D01*
G01*
X85078152Y-106826859D01*
G75*
G02*
X84882136Y-106898203I-133680J62336D01*
G01*
G37*
%TD*%
%TO.C,R8*%
G36*
G01*
X60421300Y-91072200D02*
X60076300Y-91072200D01*
G75*
G02*
X59928800Y-90924700I0J147500D01*
G01*
X59928800Y-90629700D01*
G75*
G02*
X60076300Y-90482200I147500J0D01*
G01*
X60421300Y-90482200D01*
G75*
G02*
X60568800Y-90629700I0J-147500D01*
G01*
X60568800Y-90924700D01*
G75*
G02*
X60421300Y-91072200I-147500J0D01*
G01*
G37*
G36*
G01*
X60421300Y-92042200D02*
X60076300Y-92042200D01*
G75*
G02*
X59928800Y-91894700I0J147500D01*
G01*
X59928800Y-91599700D01*
G75*
G02*
X60076300Y-91452200I147500J0D01*
G01*
X60421300Y-91452200D01*
G75*
G02*
X60568800Y-91599700I0J-147500D01*
G01*
X60568800Y-91894700D01*
G75*
G02*
X60421300Y-92042200I-147500J0D01*
G01*
G37*
%TD*%
%TO.C,R9*%
G36*
G01*
X63645000Y-85450900D02*
X63645000Y-85795900D01*
G75*
G02*
X63497500Y-85943400I-147500J0D01*
G01*
X63202500Y-85943400D01*
G75*
G02*
X63055000Y-85795900I0J147500D01*
G01*
X63055000Y-85450900D01*
G75*
G02*
X63202500Y-85303400I147500J0D01*
G01*
X63497500Y-85303400D01*
G75*
G02*
X63645000Y-85450900I0J-147500D01*
G01*
G37*
G36*
G01*
X62675000Y-85450900D02*
X62675000Y-85795900D01*
G75*
G02*
X62527500Y-85943400I-147500J0D01*
G01*
X62232500Y-85943400D01*
G75*
G02*
X62085000Y-85795900I0J147500D01*
G01*
X62085000Y-85450900D01*
G75*
G02*
X62232500Y-85303400I147500J0D01*
G01*
X62527500Y-85303400D01*
G75*
G02*
X62675000Y-85450900I0J-147500D01*
G01*
G37*
%TD*%
%TO.C,R10*%
G36*
G01*
X67126900Y-94425000D02*
X66781900Y-94425000D01*
G75*
G02*
X66634400Y-94277500I0J147500D01*
G01*
X66634400Y-93982500D01*
G75*
G02*
X66781900Y-93835000I147500J0D01*
G01*
X67126900Y-93835000D01*
G75*
G02*
X67274400Y-93982500I0J-147500D01*
G01*
X67274400Y-94277500D01*
G75*
G02*
X67126900Y-94425000I-147500J0D01*
G01*
G37*
G36*
G01*
X67126900Y-95395000D02*
X66781900Y-95395000D01*
G75*
G02*
X66634400Y-95247500I0J147500D01*
G01*
X66634400Y-94952500D01*
G75*
G02*
X66781900Y-94805000I147500J0D01*
G01*
X67126900Y-94805000D01*
G75*
G02*
X67274400Y-94952500I0J-147500D01*
G01*
X67274400Y-95247500D01*
G75*
G02*
X67126900Y-95395000I-147500J0D01*
G01*
G37*
%TD*%
%TO.C,R11*%
G36*
G01*
X66781900Y-91866500D02*
X67126900Y-91866500D01*
G75*
G02*
X67274400Y-92014000I0J-147500D01*
G01*
X67274400Y-92309000D01*
G75*
G02*
X67126900Y-92456500I-147500J0D01*
G01*
X66781900Y-92456500D01*
G75*
G02*
X66634400Y-92309000I0J147500D01*
G01*
X66634400Y-92014000D01*
G75*
G02*
X66781900Y-91866500I147500J0D01*
G01*
G37*
G36*
G01*
X66781900Y-92836500D02*
X67126900Y-92836500D01*
G75*
G02*
X67274400Y-92984000I0J-147500D01*
G01*
X67274400Y-93279000D01*
G75*
G02*
X67126900Y-93426500I-147500J0D01*
G01*
X66781900Y-93426500D01*
G75*
G02*
X66634400Y-93279000I0J147500D01*
G01*
X66634400Y-92984000D01*
G75*
G02*
X66781900Y-92836500I147500J0D01*
G01*
G37*
%TD*%
%TO.C,R12*%
G36*
G01*
X62085000Y-95314000D02*
X61740000Y-95314000D01*
G75*
G02*
X61592500Y-95166500I0J147500D01*
G01*
X61592500Y-94871500D01*
G75*
G02*
X61740000Y-94724000I147500J0D01*
G01*
X62085000Y-94724000D01*
G75*
G02*
X62232500Y-94871500I0J-147500D01*
G01*
X62232500Y-95166500D01*
G75*
G02*
X62085000Y-95314000I-147500J0D01*
G01*
G37*
G36*
G01*
X62085000Y-96284000D02*
X61740000Y-96284000D01*
G75*
G02*
X61592500Y-96136500I0J147500D01*
G01*
X61592500Y-95841500D01*
G75*
G02*
X61740000Y-95694000I147500J0D01*
G01*
X62085000Y-95694000D01*
G75*
G02*
X62232500Y-95841500I0J-147500D01*
G01*
X62232500Y-96136500D01*
G75*
G02*
X62085000Y-96284000I-147500J0D01*
G01*
G37*
%TD*%
%TO.C,R13*%
G36*
G01*
X64175000Y-97860900D02*
X64175000Y-97515900D01*
G75*
G02*
X64322500Y-97368400I147500J0D01*
G01*
X64617500Y-97368400D01*
G75*
G02*
X64765000Y-97515900I0J-147500D01*
G01*
X64765000Y-97860900D01*
G75*
G02*
X64617500Y-98008400I-147500J0D01*
G01*
X64322500Y-98008400D01*
G75*
G02*
X64175000Y-97860900I0J147500D01*
G01*
G37*
G36*
G01*
X63205000Y-97860900D02*
X63205000Y-97515900D01*
G75*
G02*
X63352500Y-97368400I147500J0D01*
G01*
X63647500Y-97368400D01*
G75*
G02*
X63795000Y-97515900I0J-147500D01*
G01*
X63795000Y-97860900D01*
G75*
G02*
X63647500Y-98008400I-147500J0D01*
G01*
X63352500Y-98008400D01*
G75*
G02*
X63205000Y-97860900I0J147500D01*
G01*
G37*
%TD*%
%TO.C,R14*%
G36*
G01*
X72258000Y-95991900D02*
X72258000Y-96336900D01*
G75*
G02*
X72110500Y-96484400I-147500J0D01*
G01*
X71815500Y-96484400D01*
G75*
G02*
X71668000Y-96336900I0J147500D01*
G01*
X71668000Y-95991900D01*
G75*
G02*
X71815500Y-95844400I147500J0D01*
G01*
X72110500Y-95844400D01*
G75*
G02*
X72258000Y-95991900I0J-147500D01*
G01*
G37*
G36*
G01*
X71288000Y-95991900D02*
X71288000Y-96336900D01*
G75*
G02*
X71140500Y-96484400I-147500J0D01*
G01*
X70845500Y-96484400D01*
G75*
G02*
X70698000Y-96336900I0J147500D01*
G01*
X70698000Y-95991900D01*
G75*
G02*
X70845500Y-95844400I147500J0D01*
G01*
X71140500Y-95844400D01*
G75*
G02*
X71288000Y-95991900I0J-147500D01*
G01*
G37*
%TD*%
%TO.C,R15*%
G36*
G01*
X69279000Y-95991900D02*
X69279000Y-96336900D01*
G75*
G02*
X69131500Y-96484400I-147500J0D01*
G01*
X68836500Y-96484400D01*
G75*
G02*
X68689000Y-96336900I0J147500D01*
G01*
X68689000Y-95991900D01*
G75*
G02*
X68836500Y-95844400I147500J0D01*
G01*
X69131500Y-95844400D01*
G75*
G02*
X69279000Y-95991900I0J-147500D01*
G01*
G37*
G36*
G01*
X70249000Y-95991900D02*
X70249000Y-96336900D01*
G75*
G02*
X70101500Y-96484400I-147500J0D01*
G01*
X69806500Y-96484400D01*
G75*
G02*
X69659000Y-96336900I0J147500D01*
G01*
X69659000Y-95991900D01*
G75*
G02*
X69806500Y-95844400I147500J0D01*
G01*
X70101500Y-95844400D01*
G75*
G02*
X70249000Y-95991900I0J-147500D01*
G01*
G37*
%TD*%
%TO.C,R16*%
G36*
G01*
X64762600Y-98608100D02*
X64762600Y-98953100D01*
G75*
G02*
X64615100Y-99100600I-147500J0D01*
G01*
X64320100Y-99100600D01*
G75*
G02*
X64172600Y-98953100I0J147500D01*
G01*
X64172600Y-98608100D01*
G75*
G02*
X64320100Y-98460600I147500J0D01*
G01*
X64615100Y-98460600D01*
G75*
G02*
X64762600Y-98608100I0J-147500D01*
G01*
G37*
G36*
G01*
X63792600Y-98608100D02*
X63792600Y-98953100D01*
G75*
G02*
X63645100Y-99100600I-147500J0D01*
G01*
X63350100Y-99100600D01*
G75*
G02*
X63202600Y-98953100I0J147500D01*
G01*
X63202600Y-98608100D01*
G75*
G02*
X63350100Y-98460600I147500J0D01*
G01*
X63645100Y-98460600D01*
G75*
G02*
X63792600Y-98608100I0J-147500D01*
G01*
G37*
%TD*%
%TO.C,R18*%
G36*
G01*
X69379600Y-100883500D02*
X69379600Y-100538500D01*
G75*
G02*
X69527100Y-100391000I147500J0D01*
G01*
X69822100Y-100391000D01*
G75*
G02*
X69969600Y-100538500I0J-147500D01*
G01*
X69969600Y-100883500D01*
G75*
G02*
X69822100Y-101031000I-147500J0D01*
G01*
X69527100Y-101031000D01*
G75*
G02*
X69379600Y-100883500I0J147500D01*
G01*
G37*
G36*
G01*
X68409600Y-100883500D02*
X68409600Y-100538500D01*
G75*
G02*
X68557100Y-100391000I147500J0D01*
G01*
X68852100Y-100391000D01*
G75*
G02*
X68999600Y-100538500I0J-147500D01*
G01*
X68999600Y-100883500D01*
G75*
G02*
X68852100Y-101031000I-147500J0D01*
G01*
X68557100Y-101031000D01*
G75*
G02*
X68409600Y-100883500I0J147500D01*
G01*
G37*
%TD*%
%TO.C,R19*%
G36*
G01*
X77665800Y-99344700D02*
X77665800Y-99689700D01*
G75*
G02*
X77518300Y-99837200I-147500J0D01*
G01*
X77223300Y-99837200D01*
G75*
G02*
X77075800Y-99689700I0J147500D01*
G01*
X77075800Y-99344700D01*
G75*
G02*
X77223300Y-99197200I147500J0D01*
G01*
X77518300Y-99197200D01*
G75*
G02*
X77665800Y-99344700I0J-147500D01*
G01*
G37*
G36*
G01*
X76695800Y-99344700D02*
X76695800Y-99689700D01*
G75*
G02*
X76548300Y-99837200I-147500J0D01*
G01*
X76253300Y-99837200D01*
G75*
G02*
X76105800Y-99689700I0J147500D01*
G01*
X76105800Y-99344700D01*
G75*
G02*
X76253300Y-99197200I147500J0D01*
G01*
X76548300Y-99197200D01*
G75*
G02*
X76695800Y-99344700I0J-147500D01*
G01*
G37*
%TD*%
%TO.C,R20*%
G36*
G01*
X71665600Y-100883500D02*
X71665600Y-100538500D01*
G75*
G02*
X71813100Y-100391000I147500J0D01*
G01*
X72108100Y-100391000D01*
G75*
G02*
X72255600Y-100538500I0J-147500D01*
G01*
X72255600Y-100883500D01*
G75*
G02*
X72108100Y-101031000I-147500J0D01*
G01*
X71813100Y-101031000D01*
G75*
G02*
X71665600Y-100883500I0J147500D01*
G01*
G37*
G36*
G01*
X70695600Y-100883500D02*
X70695600Y-100538500D01*
G75*
G02*
X70843100Y-100391000I147500J0D01*
G01*
X71138100Y-100391000D01*
G75*
G02*
X71285600Y-100538500I0J-147500D01*
G01*
X71285600Y-100883500D01*
G75*
G02*
X71138100Y-101031000I-147500J0D01*
G01*
X70843100Y-101031000D01*
G75*
G02*
X70695600Y-100883500I0J147500D01*
G01*
G37*
%TD*%
%TO.C,R21*%
G36*
G01*
X76105800Y-98597500D02*
X76105800Y-98252500D01*
G75*
G02*
X76253300Y-98105000I147500J0D01*
G01*
X76548300Y-98105000D01*
G75*
G02*
X76695800Y-98252500I0J-147500D01*
G01*
X76695800Y-98597500D01*
G75*
G02*
X76548300Y-98745000I-147500J0D01*
G01*
X76253300Y-98745000D01*
G75*
G02*
X76105800Y-98597500I0J147500D01*
G01*
G37*
G36*
G01*
X77075800Y-98597500D02*
X77075800Y-98252500D01*
G75*
G02*
X77223300Y-98105000I147500J0D01*
G01*
X77518300Y-98105000D01*
G75*
G02*
X77665800Y-98252500I0J-147500D01*
G01*
X77665800Y-98597500D01*
G75*
G02*
X77518300Y-98745000I-147500J0D01*
G01*
X77223300Y-98745000D01*
G75*
G02*
X77075800Y-98597500I0J147500D01*
G01*
G37*
%TD*%
%TO.C,R22*%
G36*
G01*
X76721200Y-87711500D02*
X76721200Y-88056500D01*
G75*
G02*
X76573700Y-88204000I-147500J0D01*
G01*
X76278700Y-88204000D01*
G75*
G02*
X76131200Y-88056500I0J147500D01*
G01*
X76131200Y-87711500D01*
G75*
G02*
X76278700Y-87564000I147500J0D01*
G01*
X76573700Y-87564000D01*
G75*
G02*
X76721200Y-87711500I0J-147500D01*
G01*
G37*
G36*
G01*
X77691200Y-87711500D02*
X77691200Y-88056500D01*
G75*
G02*
X77543700Y-88204000I-147500J0D01*
G01*
X77248700Y-88204000D01*
G75*
G02*
X77101200Y-88056500I0J147500D01*
G01*
X77101200Y-87711500D01*
G75*
G02*
X77248700Y-87564000I147500J0D01*
G01*
X77543700Y-87564000D01*
G75*
G02*
X77691200Y-87711500I0J-147500D01*
G01*
G37*
%TD*%
%TO.C,R23*%
G36*
G01*
X63253400Y-88335900D02*
X63253400Y-87990900D01*
G75*
G02*
X63400900Y-87843400I147500J0D01*
G01*
X63695900Y-87843400D01*
G75*
G02*
X63843400Y-87990900I0J-147500D01*
G01*
X63843400Y-88335900D01*
G75*
G02*
X63695900Y-88483400I-147500J0D01*
G01*
X63400900Y-88483400D01*
G75*
G02*
X63253400Y-88335900I0J147500D01*
G01*
G37*
G36*
G01*
X64223400Y-88335900D02*
X64223400Y-87990900D01*
G75*
G02*
X64370900Y-87843400I147500J0D01*
G01*
X64665900Y-87843400D01*
G75*
G02*
X64813400Y-87990900I0J-147500D01*
G01*
X64813400Y-88335900D01*
G75*
G02*
X64665900Y-88483400I-147500J0D01*
G01*
X64370900Y-88483400D01*
G75*
G02*
X64223400Y-88335900I0J147500D01*
G01*
G37*
%TD*%
%TO.C,R24*%
G36*
G01*
X77101200Y-89072500D02*
X77101200Y-88727500D01*
G75*
G02*
X77248700Y-88580000I147500J0D01*
G01*
X77543700Y-88580000D01*
G75*
G02*
X77691200Y-88727500I0J-147500D01*
G01*
X77691200Y-89072500D01*
G75*
G02*
X77543700Y-89220000I-147500J0D01*
G01*
X77248700Y-89220000D01*
G75*
G02*
X77101200Y-89072500I0J147500D01*
G01*
G37*
G36*
G01*
X76131200Y-89072500D02*
X76131200Y-88727500D01*
G75*
G02*
X76278700Y-88580000I147500J0D01*
G01*
X76573700Y-88580000D01*
G75*
G02*
X76721200Y-88727500I0J-147500D01*
G01*
X76721200Y-89072500D01*
G75*
G02*
X76573700Y-89220000I-147500J0D01*
G01*
X76278700Y-89220000D01*
G75*
G02*
X76131200Y-89072500I0J147500D01*
G01*
G37*
%TD*%
%TO.C,R25*%
G36*
G01*
X64811000Y-89083100D02*
X64811000Y-89428100D01*
G75*
G02*
X64663500Y-89575600I-147500J0D01*
G01*
X64368500Y-89575600D01*
G75*
G02*
X64221000Y-89428100I0J147500D01*
G01*
X64221000Y-89083100D01*
G75*
G02*
X64368500Y-88935600I147500J0D01*
G01*
X64663500Y-88935600D01*
G75*
G02*
X64811000Y-89083100I0J-147500D01*
G01*
G37*
G36*
G01*
X63841000Y-89083100D02*
X63841000Y-89428100D01*
G75*
G02*
X63693500Y-89575600I-147500J0D01*
G01*
X63398500Y-89575600D01*
G75*
G02*
X63251000Y-89428100I0J147500D01*
G01*
X63251000Y-89083100D01*
G75*
G02*
X63398500Y-88935600I147500J0D01*
G01*
X63693500Y-88935600D01*
G75*
G02*
X63841000Y-89083100I0J-147500D01*
G01*
G37*
%TD*%
%TO.C,R26*%
G36*
G01*
X72357200Y-86035100D02*
X72357200Y-86380100D01*
G75*
G02*
X72209700Y-86527600I-147500J0D01*
G01*
X71914700Y-86527600D01*
G75*
G02*
X71767200Y-86380100I0J147500D01*
G01*
X71767200Y-86035100D01*
G75*
G02*
X71914700Y-85887600I147500J0D01*
G01*
X72209700Y-85887600D01*
G75*
G02*
X72357200Y-86035100I0J-147500D01*
G01*
G37*
G36*
G01*
X71387200Y-86035100D02*
X71387200Y-86380100D01*
G75*
G02*
X71239700Y-86527600I-147500J0D01*
G01*
X70944700Y-86527600D01*
G75*
G02*
X70797200Y-86380100I0J147500D01*
G01*
X70797200Y-86035100D01*
G75*
G02*
X70944700Y-85887600I147500J0D01*
G01*
X71239700Y-85887600D01*
G75*
G02*
X71387200Y-86035100I0J-147500D01*
G01*
G37*
%TD*%
%TO.C,R27*%
G36*
G01*
X69126600Y-86035100D02*
X69126600Y-86380100D01*
G75*
G02*
X68979100Y-86527600I-147500J0D01*
G01*
X68684100Y-86527600D01*
G75*
G02*
X68536600Y-86380100I0J147500D01*
G01*
X68536600Y-86035100D01*
G75*
G02*
X68684100Y-85887600I147500J0D01*
G01*
X68979100Y-85887600D01*
G75*
G02*
X69126600Y-86035100I0J-147500D01*
G01*
G37*
G36*
G01*
X70096600Y-86035100D02*
X70096600Y-86380100D01*
G75*
G02*
X69949100Y-86527600I-147500J0D01*
G01*
X69654100Y-86527600D01*
G75*
G02*
X69506600Y-86380100I0J147500D01*
G01*
X69506600Y-86035100D01*
G75*
G02*
X69654100Y-85887600I147500J0D01*
G01*
X69949100Y-85887600D01*
G75*
G02*
X70096600Y-86035100I0J-147500D01*
G01*
G37*
%TD*%
%TO.C,R28*%
G36*
G01*
X82189100Y-93282000D02*
X81844100Y-93282000D01*
G75*
G02*
X81696600Y-93134500I0J147500D01*
G01*
X81696600Y-92839500D01*
G75*
G02*
X81844100Y-92692000I147500J0D01*
G01*
X82189100Y-92692000D01*
G75*
G02*
X82336600Y-92839500I0J-147500D01*
G01*
X82336600Y-93134500D01*
G75*
G02*
X82189100Y-93282000I-147500J0D01*
G01*
G37*
G36*
G01*
X82189100Y-94252000D02*
X81844100Y-94252000D01*
G75*
G02*
X81696600Y-94104500I0J147500D01*
G01*
X81696600Y-93809500D01*
G75*
G02*
X81844100Y-93662000I147500J0D01*
G01*
X82189100Y-93662000D01*
G75*
G02*
X82336600Y-93809500I0J-147500D01*
G01*
X82336600Y-94104500D01*
G75*
G02*
X82189100Y-94252000I-147500J0D01*
G01*
G37*
%TD*%
%TO.C,R29*%
G36*
G01*
X79088200Y-85501700D02*
X79088200Y-85846700D01*
G75*
G02*
X78940700Y-85994200I-147500J0D01*
G01*
X78645700Y-85994200D01*
G75*
G02*
X78498200Y-85846700I0J147500D01*
G01*
X78498200Y-85501700D01*
G75*
G02*
X78645700Y-85354200I147500J0D01*
G01*
X78940700Y-85354200D01*
G75*
G02*
X79088200Y-85501700I0J-147500D01*
G01*
G37*
G36*
G01*
X78118200Y-85501700D02*
X78118200Y-85846700D01*
G75*
G02*
X77970700Y-85994200I-147500J0D01*
G01*
X77675700Y-85994200D01*
G75*
G02*
X77528200Y-85846700I0J147500D01*
G01*
X77528200Y-85501700D01*
G75*
G02*
X77675700Y-85354200I147500J0D01*
G01*
X77970700Y-85354200D01*
G75*
G02*
X78118200Y-85501700I0J-147500D01*
G01*
G37*
%TD*%
%TO.C,R30*%
G36*
G01*
X77528200Y-101518500D02*
X77528200Y-101173500D01*
G75*
G02*
X77675700Y-101026000I147500J0D01*
G01*
X77970700Y-101026000D01*
G75*
G02*
X78118200Y-101173500I0J-147500D01*
G01*
X78118200Y-101518500D01*
G75*
G02*
X77970700Y-101666000I-147500J0D01*
G01*
X77675700Y-101666000D01*
G75*
G02*
X77528200Y-101518500I0J147500D01*
G01*
G37*
G36*
G01*
X78498200Y-101518500D02*
X78498200Y-101173500D01*
G75*
G02*
X78645700Y-101026000I147500J0D01*
G01*
X78940700Y-101026000D01*
G75*
G02*
X79088200Y-101173500I0J-147500D01*
G01*
X79088200Y-101518500D01*
G75*
G02*
X78940700Y-101666000I-147500J0D01*
G01*
X78645700Y-101666000D01*
G75*
G02*
X78498200Y-101518500I0J147500D01*
G01*
G37*
%TD*%
%TO.C,R31*%
G36*
G01*
X61856400Y-101518500D02*
X61856400Y-101173500D01*
G75*
G02*
X62003900Y-101026000I147500J0D01*
G01*
X62298900Y-101026000D01*
G75*
G02*
X62446400Y-101173500I0J-147500D01*
G01*
X62446400Y-101518500D01*
G75*
G02*
X62298900Y-101666000I-147500J0D01*
G01*
X62003900Y-101666000D01*
G75*
G02*
X61856400Y-101518500I0J147500D01*
G01*
G37*
G36*
G01*
X62826400Y-101518500D02*
X62826400Y-101173500D01*
G75*
G02*
X62973900Y-101026000I147500J0D01*
G01*
X63268900Y-101026000D01*
G75*
G02*
X63416400Y-101173500I0J-147500D01*
G01*
X63416400Y-101518500D01*
G75*
G02*
X63268900Y-101666000I-147500J0D01*
G01*
X62973900Y-101666000D01*
G75*
G02*
X62826400Y-101518500I0J147500D01*
G01*
G37*
%TD*%
%TO.C,R32*%
G36*
G01*
X71237200Y-82098100D02*
X71237200Y-82443100D01*
G75*
G02*
X71089700Y-82590600I-147500J0D01*
G01*
X70794700Y-82590600D01*
G75*
G02*
X70647200Y-82443100I0J147500D01*
G01*
X70647200Y-82098100D01*
G75*
G02*
X70794700Y-81950600I147500J0D01*
G01*
X71089700Y-81950600D01*
G75*
G02*
X71237200Y-82098100I0J-147500D01*
G01*
G37*
G36*
G01*
X70267200Y-82098100D02*
X70267200Y-82443100D01*
G75*
G02*
X70119700Y-82590600I-147500J0D01*
G01*
X69824700Y-82590600D01*
G75*
G02*
X69677200Y-82443100I0J147500D01*
G01*
X69677200Y-82098100D01*
G75*
G02*
X69824700Y-81950600I147500J0D01*
G01*
X70119700Y-81950600D01*
G75*
G02*
X70267200Y-82098100I0J-147500D01*
G01*
G37*
%TD*%
%TO.C,R33*%
G36*
G01*
X59252900Y-94252000D02*
X58907900Y-94252000D01*
G75*
G02*
X58760400Y-94104500I0J147500D01*
G01*
X58760400Y-93809500D01*
G75*
G02*
X58907900Y-93662000I147500J0D01*
G01*
X59252900Y-93662000D01*
G75*
G02*
X59400400Y-93809500I0J-147500D01*
G01*
X59400400Y-94104500D01*
G75*
G02*
X59252900Y-94252000I-147500J0D01*
G01*
G37*
G36*
G01*
X59252900Y-93282000D02*
X58907900Y-93282000D01*
G75*
G02*
X58760400Y-93134500I0J147500D01*
G01*
X58760400Y-92839500D01*
G75*
G02*
X58907900Y-92692000I147500J0D01*
G01*
X59252900Y-92692000D01*
G75*
G02*
X59400400Y-92839500I0J-147500D01*
G01*
X59400400Y-93134500D01*
G75*
G02*
X59252900Y-93282000I-147500J0D01*
G01*
G37*
%TD*%
D12*
%TO.C,S1*%
X89343400Y-94743400D03*
X89343400Y-91143400D03*
X90793400Y-94743400D03*
X90793400Y-91143400D03*
%TD*%
D13*
%TO.C,S2*%
G36*
X86944554Y-77325065D02*
G01*
X87536219Y-78593896D01*
X86584596Y-79037645D01*
X85992931Y-77768814D01*
X86944554Y-77325065D01*
G37*
G36*
X88465980Y-80587773D02*
G01*
X89057645Y-81856604D01*
X88106022Y-82300353D01*
X87514357Y-81031522D01*
X88465980Y-80587773D01*
G37*
G36*
X85630408Y-77937862D02*
G01*
X86222073Y-79206693D01*
X85270450Y-79650442D01*
X84678785Y-78381611D01*
X85630408Y-77937862D01*
G37*
G36*
X87151833Y-81200570D02*
G01*
X87743498Y-82469401D01*
X86791875Y-82913150D01*
X86200210Y-81644319D01*
X87151833Y-81200570D01*
G37*
%TD*%
%TO.C,S3*%
G36*
X89311215Y-104480111D02*
G01*
X88719550Y-105748942D01*
X87767927Y-105305193D01*
X88359592Y-104036362D01*
X89311215Y-104480111D01*
G37*
G36*
X87789790Y-107742819D02*
G01*
X87198125Y-109011650D01*
X86246502Y-108567901D01*
X86838167Y-107299070D01*
X87789790Y-107742819D01*
G37*
G36*
X87997069Y-103867314D02*
G01*
X87405404Y-105136145D01*
X86453781Y-104692396D01*
X87045446Y-103423565D01*
X87997069Y-103867314D01*
G37*
G36*
X86475643Y-107130022D02*
G01*
X85883978Y-108398853D01*
X84932355Y-107955104D01*
X85524020Y-106686273D01*
X86475643Y-107130022D01*
G37*
%TD*%
%TO.C,U1*%
G36*
G01*
X72969400Y-91809900D02*
X72969400Y-91684900D01*
G75*
G02*
X73031900Y-91622400I62500J0D01*
G01*
X73781900Y-91622400D01*
G75*
G02*
X73844400Y-91684900I0J-62500D01*
G01*
X73844400Y-91809900D01*
G75*
G02*
X73781900Y-91872400I-62500J0D01*
G01*
X73031900Y-91872400D01*
G75*
G02*
X72969400Y-91809900I0J62500D01*
G01*
G37*
G36*
G01*
X72969400Y-92309900D02*
X72969400Y-92184900D01*
G75*
G02*
X73031900Y-92122400I62500J0D01*
G01*
X73781900Y-92122400D01*
G75*
G02*
X73844400Y-92184900I0J-62500D01*
G01*
X73844400Y-92309900D01*
G75*
G02*
X73781900Y-92372400I-62500J0D01*
G01*
X73031900Y-92372400D01*
G75*
G02*
X72969400Y-92309900I0J62500D01*
G01*
G37*
G36*
G01*
X72969400Y-92809900D02*
X72969400Y-92684900D01*
G75*
G02*
X73031900Y-92622400I62500J0D01*
G01*
X73781900Y-92622400D01*
G75*
G02*
X73844400Y-92684900I0J-62500D01*
G01*
X73844400Y-92809900D01*
G75*
G02*
X73781900Y-92872400I-62500J0D01*
G01*
X73031900Y-92872400D01*
G75*
G02*
X72969400Y-92809900I0J62500D01*
G01*
G37*
G36*
G01*
X72969400Y-93309900D02*
X72969400Y-93184900D01*
G75*
G02*
X73031900Y-93122400I62500J0D01*
G01*
X73781900Y-93122400D01*
G75*
G02*
X73844400Y-93184900I0J-62500D01*
G01*
X73844400Y-93309900D01*
G75*
G02*
X73781900Y-93372400I-62500J0D01*
G01*
X73031900Y-93372400D01*
G75*
G02*
X72969400Y-93309900I0J62500D01*
G01*
G37*
G36*
G01*
X72969400Y-93809900D02*
X72969400Y-93684900D01*
G75*
G02*
X73031900Y-93622400I62500J0D01*
G01*
X73781900Y-93622400D01*
G75*
G02*
X73844400Y-93684900I0J-62500D01*
G01*
X73844400Y-93809900D01*
G75*
G02*
X73781900Y-93872400I-62500J0D01*
G01*
X73031900Y-93872400D01*
G75*
G02*
X72969400Y-93809900I0J62500D01*
G01*
G37*
G36*
G01*
X72969400Y-94309900D02*
X72969400Y-94184900D01*
G75*
G02*
X73031900Y-94122400I62500J0D01*
G01*
X73781900Y-94122400D01*
G75*
G02*
X73844400Y-94184900I0J-62500D01*
G01*
X73844400Y-94309900D01*
G75*
G02*
X73781900Y-94372400I-62500J0D01*
G01*
X73031900Y-94372400D01*
G75*
G02*
X72969400Y-94309900I0J62500D01*
G01*
G37*
G36*
G01*
X72969400Y-94809900D02*
X72969400Y-94684900D01*
G75*
G02*
X73031900Y-94622400I62500J0D01*
G01*
X73781900Y-94622400D01*
G75*
G02*
X73844400Y-94684900I0J-62500D01*
G01*
X73844400Y-94809900D01*
G75*
G02*
X73781900Y-94872400I-62500J0D01*
G01*
X73031900Y-94872400D01*
G75*
G02*
X72969400Y-94809900I0J62500D01*
G01*
G37*
G36*
G01*
X72969400Y-95309900D02*
X72969400Y-95184900D01*
G75*
G02*
X73031900Y-95122400I62500J0D01*
G01*
X73781900Y-95122400D01*
G75*
G02*
X73844400Y-95184900I0J-62500D01*
G01*
X73844400Y-95309900D01*
G75*
G02*
X73781900Y-95372400I-62500J0D01*
G01*
X73031900Y-95372400D01*
G75*
G02*
X72969400Y-95309900I0J62500D01*
G01*
G37*
G36*
G01*
X73969400Y-96309900D02*
X73969400Y-95559900D01*
G75*
G02*
X74031900Y-95497400I62500J0D01*
G01*
X74156900Y-95497400D01*
G75*
G02*
X74219400Y-95559900I0J-62500D01*
G01*
X74219400Y-96309900D01*
G75*
G02*
X74156900Y-96372400I-62500J0D01*
G01*
X74031900Y-96372400D01*
G75*
G02*
X73969400Y-96309900I0J62500D01*
G01*
G37*
G36*
G01*
X74469400Y-96309900D02*
X74469400Y-95559900D01*
G75*
G02*
X74531900Y-95497400I62500J0D01*
G01*
X74656900Y-95497400D01*
G75*
G02*
X74719400Y-95559900I0J-62500D01*
G01*
X74719400Y-96309900D01*
G75*
G02*
X74656900Y-96372400I-62500J0D01*
G01*
X74531900Y-96372400D01*
G75*
G02*
X74469400Y-96309900I0J62500D01*
G01*
G37*
G36*
G01*
X74969400Y-96309900D02*
X74969400Y-95559900D01*
G75*
G02*
X75031900Y-95497400I62500J0D01*
G01*
X75156900Y-95497400D01*
G75*
G02*
X75219400Y-95559900I0J-62500D01*
G01*
X75219400Y-96309900D01*
G75*
G02*
X75156900Y-96372400I-62500J0D01*
G01*
X75031900Y-96372400D01*
G75*
G02*
X74969400Y-96309900I0J62500D01*
G01*
G37*
G36*
G01*
X75469400Y-96309900D02*
X75469400Y-95559900D01*
G75*
G02*
X75531900Y-95497400I62500J0D01*
G01*
X75656900Y-95497400D01*
G75*
G02*
X75719400Y-95559900I0J-62500D01*
G01*
X75719400Y-96309900D01*
G75*
G02*
X75656900Y-96372400I-62500J0D01*
G01*
X75531900Y-96372400D01*
G75*
G02*
X75469400Y-96309900I0J62500D01*
G01*
G37*
G36*
G01*
X75969400Y-96309900D02*
X75969400Y-95559900D01*
G75*
G02*
X76031900Y-95497400I62500J0D01*
G01*
X76156900Y-95497400D01*
G75*
G02*
X76219400Y-95559900I0J-62500D01*
G01*
X76219400Y-96309900D01*
G75*
G02*
X76156900Y-96372400I-62500J0D01*
G01*
X76031900Y-96372400D01*
G75*
G02*
X75969400Y-96309900I0J62500D01*
G01*
G37*
G36*
G01*
X76469400Y-96309900D02*
X76469400Y-95559900D01*
G75*
G02*
X76531900Y-95497400I62500J0D01*
G01*
X76656900Y-95497400D01*
G75*
G02*
X76719400Y-95559900I0J-62500D01*
G01*
X76719400Y-96309900D01*
G75*
G02*
X76656900Y-96372400I-62500J0D01*
G01*
X76531900Y-96372400D01*
G75*
G02*
X76469400Y-96309900I0J62500D01*
G01*
G37*
G36*
G01*
X76969400Y-96309900D02*
X76969400Y-95559900D01*
G75*
G02*
X77031900Y-95497400I62500J0D01*
G01*
X77156900Y-95497400D01*
G75*
G02*
X77219400Y-95559900I0J-62500D01*
G01*
X77219400Y-96309900D01*
G75*
G02*
X77156900Y-96372400I-62500J0D01*
G01*
X77031900Y-96372400D01*
G75*
G02*
X76969400Y-96309900I0J62500D01*
G01*
G37*
G36*
G01*
X77469400Y-96309900D02*
X77469400Y-95559900D01*
G75*
G02*
X77531900Y-95497400I62500J0D01*
G01*
X77656900Y-95497400D01*
G75*
G02*
X77719400Y-95559900I0J-62500D01*
G01*
X77719400Y-96309900D01*
G75*
G02*
X77656900Y-96372400I-62500J0D01*
G01*
X77531900Y-96372400D01*
G75*
G02*
X77469400Y-96309900I0J62500D01*
G01*
G37*
G36*
G01*
X77844400Y-95309900D02*
X77844400Y-95184900D01*
G75*
G02*
X77906900Y-95122400I62500J0D01*
G01*
X78656900Y-95122400D01*
G75*
G02*
X78719400Y-95184900I0J-62500D01*
G01*
X78719400Y-95309900D01*
G75*
G02*
X78656900Y-95372400I-62500J0D01*
G01*
X77906900Y-95372400D01*
G75*
G02*
X77844400Y-95309900I0J62500D01*
G01*
G37*
G36*
G01*
X77844400Y-94809900D02*
X77844400Y-94684900D01*
G75*
G02*
X77906900Y-94622400I62500J0D01*
G01*
X78656900Y-94622400D01*
G75*
G02*
X78719400Y-94684900I0J-62500D01*
G01*
X78719400Y-94809900D01*
G75*
G02*
X78656900Y-94872400I-62500J0D01*
G01*
X77906900Y-94872400D01*
G75*
G02*
X77844400Y-94809900I0J62500D01*
G01*
G37*
G36*
G01*
X77844400Y-94309900D02*
X77844400Y-94184900D01*
G75*
G02*
X77906900Y-94122400I62500J0D01*
G01*
X78656900Y-94122400D01*
G75*
G02*
X78719400Y-94184900I0J-62500D01*
G01*
X78719400Y-94309900D01*
G75*
G02*
X78656900Y-94372400I-62500J0D01*
G01*
X77906900Y-94372400D01*
G75*
G02*
X77844400Y-94309900I0J62500D01*
G01*
G37*
G36*
G01*
X77844400Y-93809900D02*
X77844400Y-93684900D01*
G75*
G02*
X77906900Y-93622400I62500J0D01*
G01*
X78656900Y-93622400D01*
G75*
G02*
X78719400Y-93684900I0J-62500D01*
G01*
X78719400Y-93809900D01*
G75*
G02*
X78656900Y-93872400I-62500J0D01*
G01*
X77906900Y-93872400D01*
G75*
G02*
X77844400Y-93809900I0J62500D01*
G01*
G37*
G36*
G01*
X77844400Y-93309900D02*
X77844400Y-93184900D01*
G75*
G02*
X77906900Y-93122400I62500J0D01*
G01*
X78656900Y-93122400D01*
G75*
G02*
X78719400Y-93184900I0J-62500D01*
G01*
X78719400Y-93309900D01*
G75*
G02*
X78656900Y-93372400I-62500J0D01*
G01*
X77906900Y-93372400D01*
G75*
G02*
X77844400Y-93309900I0J62500D01*
G01*
G37*
G36*
G01*
X77844400Y-92809900D02*
X77844400Y-92684900D01*
G75*
G02*
X77906900Y-92622400I62500J0D01*
G01*
X78656900Y-92622400D01*
G75*
G02*
X78719400Y-92684900I0J-62500D01*
G01*
X78719400Y-92809900D01*
G75*
G02*
X78656900Y-92872400I-62500J0D01*
G01*
X77906900Y-92872400D01*
G75*
G02*
X77844400Y-92809900I0J62500D01*
G01*
G37*
G36*
G01*
X77844400Y-92309900D02*
X77844400Y-92184900D01*
G75*
G02*
X77906900Y-92122400I62500J0D01*
G01*
X78656900Y-92122400D01*
G75*
G02*
X78719400Y-92184900I0J-62500D01*
G01*
X78719400Y-92309900D01*
G75*
G02*
X78656900Y-92372400I-62500J0D01*
G01*
X77906900Y-92372400D01*
G75*
G02*
X77844400Y-92309900I0J62500D01*
G01*
G37*
G36*
G01*
X77844400Y-91809900D02*
X77844400Y-91684900D01*
G75*
G02*
X77906900Y-91622400I62500J0D01*
G01*
X78656900Y-91622400D01*
G75*
G02*
X78719400Y-91684900I0J-62500D01*
G01*
X78719400Y-91809900D01*
G75*
G02*
X78656900Y-91872400I-62500J0D01*
G01*
X77906900Y-91872400D01*
G75*
G02*
X77844400Y-91809900I0J62500D01*
G01*
G37*
G36*
G01*
X77469400Y-91434900D02*
X77469400Y-90684900D01*
G75*
G02*
X77531900Y-90622400I62500J0D01*
G01*
X77656900Y-90622400D01*
G75*
G02*
X77719400Y-90684900I0J-62500D01*
G01*
X77719400Y-91434900D01*
G75*
G02*
X77656900Y-91497400I-62500J0D01*
G01*
X77531900Y-91497400D01*
G75*
G02*
X77469400Y-91434900I0J62500D01*
G01*
G37*
G36*
G01*
X76969400Y-91434900D02*
X76969400Y-90684900D01*
G75*
G02*
X77031900Y-90622400I62500J0D01*
G01*
X77156900Y-90622400D01*
G75*
G02*
X77219400Y-90684900I0J-62500D01*
G01*
X77219400Y-91434900D01*
G75*
G02*
X77156900Y-91497400I-62500J0D01*
G01*
X77031900Y-91497400D01*
G75*
G02*
X76969400Y-91434900I0J62500D01*
G01*
G37*
G36*
G01*
X76469400Y-91434900D02*
X76469400Y-90684900D01*
G75*
G02*
X76531900Y-90622400I62500J0D01*
G01*
X76656900Y-90622400D01*
G75*
G02*
X76719400Y-90684900I0J-62500D01*
G01*
X76719400Y-91434900D01*
G75*
G02*
X76656900Y-91497400I-62500J0D01*
G01*
X76531900Y-91497400D01*
G75*
G02*
X76469400Y-91434900I0J62500D01*
G01*
G37*
G36*
G01*
X75969400Y-91434900D02*
X75969400Y-90684900D01*
G75*
G02*
X76031900Y-90622400I62500J0D01*
G01*
X76156900Y-90622400D01*
G75*
G02*
X76219400Y-90684900I0J-62500D01*
G01*
X76219400Y-91434900D01*
G75*
G02*
X76156900Y-91497400I-62500J0D01*
G01*
X76031900Y-91497400D01*
G75*
G02*
X75969400Y-91434900I0J62500D01*
G01*
G37*
G36*
G01*
X75469400Y-91434900D02*
X75469400Y-90684900D01*
G75*
G02*
X75531900Y-90622400I62500J0D01*
G01*
X75656900Y-90622400D01*
G75*
G02*
X75719400Y-90684900I0J-62500D01*
G01*
X75719400Y-91434900D01*
G75*
G02*
X75656900Y-91497400I-62500J0D01*
G01*
X75531900Y-91497400D01*
G75*
G02*
X75469400Y-91434900I0J62500D01*
G01*
G37*
G36*
G01*
X74969400Y-91434900D02*
X74969400Y-90684900D01*
G75*
G02*
X75031900Y-90622400I62500J0D01*
G01*
X75156900Y-90622400D01*
G75*
G02*
X75219400Y-90684900I0J-62500D01*
G01*
X75219400Y-91434900D01*
G75*
G02*
X75156900Y-91497400I-62500J0D01*
G01*
X75031900Y-91497400D01*
G75*
G02*
X74969400Y-91434900I0J62500D01*
G01*
G37*
G36*
G01*
X74469400Y-91434900D02*
X74469400Y-90684900D01*
G75*
G02*
X74531900Y-90622400I62500J0D01*
G01*
X74656900Y-90622400D01*
G75*
G02*
X74719400Y-90684900I0J-62500D01*
G01*
X74719400Y-91434900D01*
G75*
G02*
X74656900Y-91497400I-62500J0D01*
G01*
X74531900Y-91497400D01*
G75*
G02*
X74469400Y-91434900I0J62500D01*
G01*
G37*
G36*
G01*
X73969400Y-91434900D02*
X73969400Y-90684900D01*
G75*
G02*
X74031900Y-90622400I62500J0D01*
G01*
X74156900Y-90622400D01*
G75*
G02*
X74219400Y-90684900I0J-62500D01*
G01*
X74219400Y-91434900D01*
G75*
G02*
X74156900Y-91497400I-62500J0D01*
G01*
X74031900Y-91497400D01*
G75*
G02*
X73969400Y-91434900I0J62500D01*
G01*
G37*
G36*
G01*
X74399400Y-92674900D02*
X74399400Y-92259900D01*
G75*
G02*
X74606900Y-92052400I207500J0D01*
G01*
X75021900Y-92052400D01*
G75*
G02*
X75229400Y-92259900I0J-207500D01*
G01*
X75229400Y-92674900D01*
G75*
G02*
X75021900Y-92882400I-207500J0D01*
G01*
X74606900Y-92882400D01*
G75*
G02*
X74399400Y-92674900I0J207500D01*
G01*
G37*
G36*
G01*
X74399400Y-93704900D02*
X74399400Y-93289900D01*
G75*
G02*
X74606900Y-93082400I207500J0D01*
G01*
X75021900Y-93082400D01*
G75*
G02*
X75229400Y-93289900I0J-207500D01*
G01*
X75229400Y-93704900D01*
G75*
G02*
X75021900Y-93912400I-207500J0D01*
G01*
X74606900Y-93912400D01*
G75*
G02*
X74399400Y-93704900I0J207500D01*
G01*
G37*
G36*
G01*
X74399400Y-94734900D02*
X74399400Y-94319900D01*
G75*
G02*
X74606900Y-94112400I207500J0D01*
G01*
X75021900Y-94112400D01*
G75*
G02*
X75229400Y-94319900I0J-207500D01*
G01*
X75229400Y-94734900D01*
G75*
G02*
X75021900Y-94942400I-207500J0D01*
G01*
X74606900Y-94942400D01*
G75*
G02*
X74399400Y-94734900I0J207500D01*
G01*
G37*
G36*
G01*
X75429400Y-92674900D02*
X75429400Y-92259900D01*
G75*
G02*
X75636900Y-92052400I207500J0D01*
G01*
X76051900Y-92052400D01*
G75*
G02*
X76259400Y-92259900I0J-207500D01*
G01*
X76259400Y-92674900D01*
G75*
G02*
X76051900Y-92882400I-207500J0D01*
G01*
X75636900Y-92882400D01*
G75*
G02*
X75429400Y-92674900I0J207500D01*
G01*
G37*
G36*
G01*
X75429400Y-93704900D02*
X75429400Y-93289900D01*
G75*
G02*
X75636900Y-93082400I207500J0D01*
G01*
X76051900Y-93082400D01*
G75*
G02*
X76259400Y-93289900I0J-207500D01*
G01*
X76259400Y-93704900D01*
G75*
G02*
X76051900Y-93912400I-207500J0D01*
G01*
X75636900Y-93912400D01*
G75*
G02*
X75429400Y-93704900I0J207500D01*
G01*
G37*
G36*
G01*
X75429400Y-94734900D02*
X75429400Y-94319900D01*
G75*
G02*
X75636900Y-94112400I207500J0D01*
G01*
X76051900Y-94112400D01*
G75*
G02*
X76259400Y-94319900I0J-207500D01*
G01*
X76259400Y-94734900D01*
G75*
G02*
X76051900Y-94942400I-207500J0D01*
G01*
X75636900Y-94942400D01*
G75*
G02*
X75429400Y-94734900I0J207500D01*
G01*
G37*
G36*
G01*
X76459400Y-92674900D02*
X76459400Y-92259900D01*
G75*
G02*
X76666900Y-92052400I207500J0D01*
G01*
X77081900Y-92052400D01*
G75*
G02*
X77289400Y-92259900I0J-207500D01*
G01*
X77289400Y-92674900D01*
G75*
G02*
X77081900Y-92882400I-207500J0D01*
G01*
X76666900Y-92882400D01*
G75*
G02*
X76459400Y-92674900I0J207500D01*
G01*
G37*
G36*
G01*
X76459400Y-93704900D02*
X76459400Y-93289900D01*
G75*
G02*
X76666900Y-93082400I207500J0D01*
G01*
X77081900Y-93082400D01*
G75*
G02*
X77289400Y-93289900I0J-207500D01*
G01*
X77289400Y-93704900D01*
G75*
G02*
X77081900Y-93912400I-207500J0D01*
G01*
X76666900Y-93912400D01*
G75*
G02*
X76459400Y-93704900I0J207500D01*
G01*
G37*
G36*
G01*
X76459400Y-94734900D02*
X76459400Y-94319900D01*
G75*
G02*
X76666900Y-94112400I207500J0D01*
G01*
X77081900Y-94112400D01*
G75*
G02*
X77289400Y-94319900I0J-207500D01*
G01*
X77289400Y-94734900D01*
G75*
G02*
X77081900Y-94942400I-207500J0D01*
G01*
X76666900Y-94942400D01*
G75*
G02*
X76459400Y-94734900I0J207500D01*
G01*
G37*
%TD*%
%TO.C,C19*%
G36*
G01*
X65303651Y-100851389D02*
X65476150Y-100552611D01*
G75*
G02*
X65677639Y-100498622I127739J-73750D01*
G01*
X65933117Y-100646122D01*
G75*
G02*
X65987106Y-100847611I-73750J-127739D01*
G01*
X65814606Y-101146389D01*
G75*
G02*
X65613117Y-101200378I-127739J73750D01*
G01*
X65357639Y-101052878D01*
G75*
G02*
X65303650Y-100851389I73750J127739D01*
G01*
G37*
G36*
G01*
X66143695Y-101336389D02*
X66316194Y-101037611D01*
G75*
G02*
X66517683Y-100983622I127739J-73750D01*
G01*
X66773161Y-101131122D01*
G75*
G02*
X66827150Y-101332611I-73750J-127739D01*
G01*
X66654650Y-101631389D01*
G75*
G02*
X66453161Y-101685378I-127739J73750D01*
G01*
X66197683Y-101537878D01*
G75*
G02*
X66143694Y-101336389I73750J127739D01*
G01*
G37*
%TD*%
%TO.C,R7*%
G36*
G01*
X62085000Y-92347000D02*
X61740000Y-92347000D01*
G75*
G02*
X61592500Y-92199500I0J147500D01*
G01*
X61592500Y-91904500D01*
G75*
G02*
X61740000Y-91757000I147500J0D01*
G01*
X62085000Y-91757000D01*
G75*
G02*
X62232500Y-91904500I0J-147500D01*
G01*
X62232500Y-92199500D01*
G75*
G02*
X62085000Y-92347000I-147500J0D01*
G01*
G37*
G36*
G01*
X62085000Y-91377000D02*
X61740000Y-91377000D01*
G75*
G02*
X61592500Y-91229500I0J147500D01*
G01*
X61592500Y-90934500D01*
G75*
G02*
X61740000Y-90787000I147500J0D01*
G01*
X62085000Y-90787000D01*
G75*
G02*
X62232500Y-90934500I0J-147500D01*
G01*
X62232500Y-91229500D01*
G75*
G02*
X62085000Y-91377000I-147500J0D01*
G01*
G37*
%TD*%
M02*
