%TF.GenerationSoftware,KiCad,Pcbnew,(5.1.6)-1*%
%TF.CreationDate,2025-07-06T20:59:51+05:30*%
%TF.ProjectId,Project_OAK_BOT_CAVITY_V0,50726f6a-6563-4745-9f4f-414b5f424f54,A*%
%TF.SameCoordinates,Original*%
%TF.FileFunction,Legend,Bot*%
%TF.FilePolarity,Positive*%
%FSLAX46Y46*%
G04 Gerber Fmt 4.6, Leading zero omitted, Abs format (unit mm)*
G04 Created by KiCad (PCBNEW (5.1.6)-1) date 2025-07-06 20:59:51*
%MOMM*%
%LPD*%
G01*
G04 APERTURE LIST*
%ADD10C,0.150000*%
%ADD11C,0.160000*%
G04 APERTURE END LIST*
D10*
X75142147Y-110132880D02*
X75142147Y-110847166D01*
X75189766Y-110990023D01*
X75285004Y-111085261D01*
X75427861Y-111132880D01*
X75523100Y-111132880D01*
X74189766Y-111132880D02*
X74665957Y-111132880D01*
X74665957Y-110132880D01*
X73285004Y-111037642D02*
X73332623Y-111085261D01*
X73475480Y-111132880D01*
X73570719Y-111132880D01*
X73713576Y-111085261D01*
X73808814Y-110990023D01*
X73856433Y-110894785D01*
X73904052Y-110704309D01*
X73904052Y-110561452D01*
X73856433Y-110370976D01*
X73808814Y-110275738D01*
X73713576Y-110180500D01*
X73570719Y-110132880D01*
X73475480Y-110132880D01*
X73332623Y-110180500D01*
X73285004Y-110228119D01*
X72570719Y-110132880D02*
X72570719Y-110847166D01*
X72618338Y-110990023D01*
X72713576Y-111085261D01*
X72856433Y-111132880D01*
X72951671Y-111132880D01*
X71618338Y-111132880D02*
X72094528Y-111132880D01*
X72094528Y-110132880D01*
X70713576Y-111037642D02*
X70761195Y-111085261D01*
X70904052Y-111132880D01*
X70999290Y-111132880D01*
X71142147Y-111085261D01*
X71237385Y-110990023D01*
X71285004Y-110894785D01*
X71332623Y-110704309D01*
X71332623Y-110561452D01*
X71285004Y-110370976D01*
X71237385Y-110275738D01*
X71142147Y-110180500D01*
X70999290Y-110132880D01*
X70904052Y-110132880D01*
X70761195Y-110180500D01*
X70713576Y-110228119D01*
X69999290Y-110132880D02*
X69999290Y-110847166D01*
X70046909Y-110990023D01*
X70142147Y-111085261D01*
X70285004Y-111132880D01*
X70380242Y-111132880D01*
X69046909Y-111132880D02*
X69523100Y-111132880D01*
X69523100Y-110132880D01*
X68142147Y-111037642D02*
X68189766Y-111085261D01*
X68332623Y-111132880D01*
X68427861Y-111132880D01*
X68570719Y-111085261D01*
X68665957Y-110990023D01*
X68713576Y-110894785D01*
X68761195Y-110704309D01*
X68761195Y-110561452D01*
X68713576Y-110370976D01*
X68665957Y-110275738D01*
X68570719Y-110180500D01*
X68427861Y-110132880D01*
X68332623Y-110132880D01*
X68189766Y-110180500D01*
X68142147Y-110228119D01*
X67427861Y-110132880D02*
X67427861Y-110847166D01*
X67475480Y-110990023D01*
X67570719Y-111085261D01*
X67713576Y-111132880D01*
X67808814Y-111132880D01*
X66475480Y-111132880D02*
X66951671Y-111132880D01*
X66951671Y-110132880D01*
X65570719Y-111037642D02*
X65618338Y-111085261D01*
X65761195Y-111132880D01*
X65856433Y-111132880D01*
X65999290Y-111085261D01*
X66094528Y-110990023D01*
X66142147Y-110894785D01*
X66189766Y-110704309D01*
X66189766Y-110561452D01*
X66142147Y-110370976D01*
X66094528Y-110275738D01*
X65999290Y-110180500D01*
X65856433Y-110132880D01*
X65761195Y-110132880D01*
X65618338Y-110180500D01*
X65570719Y-110228119D01*
D11*
X80173838Y-78557380D02*
X80173838Y-77557380D01*
X79792885Y-77557380D01*
X79697647Y-77605000D01*
X79650028Y-77652619D01*
X79602409Y-77747857D01*
X79602409Y-77890714D01*
X79650028Y-77985952D01*
X79697647Y-78033571D01*
X79792885Y-78081190D01*
X80173838Y-78081190D01*
X79173838Y-78557380D02*
X79173838Y-77890714D01*
X79173838Y-78081190D02*
X79126219Y-77985952D01*
X79078600Y-77938333D01*
X78983361Y-77890714D01*
X78888123Y-77890714D01*
X78411933Y-78557380D02*
X78507171Y-78509761D01*
X78554790Y-78462142D01*
X78602409Y-78366904D01*
X78602409Y-78081190D01*
X78554790Y-77985952D01*
X78507171Y-77938333D01*
X78411933Y-77890714D01*
X78269076Y-77890714D01*
X78173838Y-77938333D01*
X78126219Y-77985952D01*
X78078600Y-78081190D01*
X78078600Y-78366904D01*
X78126219Y-78462142D01*
X78173838Y-78509761D01*
X78269076Y-78557380D01*
X78411933Y-78557380D01*
X77650028Y-77890714D02*
X77650028Y-78747857D01*
X77697647Y-78843095D01*
X77792885Y-78890714D01*
X77840504Y-78890714D01*
X77650028Y-77557380D02*
X77697647Y-77605000D01*
X77650028Y-77652619D01*
X77602409Y-77605000D01*
X77650028Y-77557380D01*
X77650028Y-77652619D01*
X76792885Y-78509761D02*
X76888123Y-78557380D01*
X77078600Y-78557380D01*
X77173838Y-78509761D01*
X77221457Y-78414523D01*
X77221457Y-78033571D01*
X77173838Y-77938333D01*
X77078600Y-77890714D01*
X76888123Y-77890714D01*
X76792885Y-77938333D01*
X76745266Y-78033571D01*
X76745266Y-78128809D01*
X77221457Y-78224047D01*
X75888123Y-78509761D02*
X75983361Y-78557380D01*
X76173838Y-78557380D01*
X76269076Y-78509761D01*
X76316695Y-78462142D01*
X76364314Y-78366904D01*
X76364314Y-78081190D01*
X76316695Y-77985952D01*
X76269076Y-77938333D01*
X76173838Y-77890714D01*
X75983361Y-77890714D01*
X75888123Y-77938333D01*
X75602409Y-77890714D02*
X75221457Y-77890714D01*
X75459552Y-77557380D02*
X75459552Y-78414523D01*
X75411933Y-78509761D01*
X75316695Y-78557380D01*
X75221457Y-78557380D01*
X73935742Y-77557380D02*
X73745266Y-77557380D01*
X73650028Y-77605000D01*
X73554790Y-77700238D01*
X73507171Y-77890714D01*
X73507171Y-78224047D01*
X73554790Y-78414523D01*
X73650028Y-78509761D01*
X73745266Y-78557380D01*
X73935742Y-78557380D01*
X74030980Y-78509761D01*
X74126219Y-78414523D01*
X74173838Y-78224047D01*
X74173838Y-77890714D01*
X74126219Y-77700238D01*
X74030980Y-77605000D01*
X73935742Y-77557380D01*
X73126219Y-78271666D02*
X72650028Y-78271666D01*
X73221457Y-78557380D02*
X72888123Y-77557380D01*
X72554790Y-78557380D01*
X72221457Y-78557380D02*
X72221457Y-77557380D01*
X71650028Y-78557380D02*
X72078600Y-77985952D01*
X71650028Y-77557380D02*
X72221457Y-78128809D01*
X70126219Y-78033571D02*
X69983361Y-78081190D01*
X69935742Y-78128809D01*
X69888123Y-78224047D01*
X69888123Y-78366904D01*
X69935742Y-78462142D01*
X69983361Y-78509761D01*
X70078600Y-78557380D01*
X70459552Y-78557380D01*
X70459552Y-77557380D01*
X70126219Y-77557380D01*
X70030980Y-77605000D01*
X69983361Y-77652619D01*
X69935742Y-77747857D01*
X69935742Y-77843095D01*
X69983361Y-77938333D01*
X70030980Y-77985952D01*
X70126219Y-78033571D01*
X70459552Y-78033571D01*
X69269076Y-77557380D02*
X69078600Y-77557380D01*
X68983361Y-77605000D01*
X68888123Y-77700238D01*
X68840504Y-77890714D01*
X68840504Y-78224047D01*
X68888123Y-78414523D01*
X68983361Y-78509761D01*
X69078600Y-78557380D01*
X69269076Y-78557380D01*
X69364314Y-78509761D01*
X69459552Y-78414523D01*
X69507171Y-78224047D01*
X69507171Y-77890714D01*
X69459552Y-77700238D01*
X69364314Y-77605000D01*
X69269076Y-77557380D01*
X68554790Y-77557380D02*
X67983361Y-77557380D01*
X68269076Y-78557380D02*
X68269076Y-77557380D01*
X66316695Y-78462142D02*
X66364314Y-78509761D01*
X66507171Y-78557380D01*
X66602409Y-78557380D01*
X66745266Y-78509761D01*
X66840504Y-78414523D01*
X66888123Y-78319285D01*
X66935742Y-78128809D01*
X66935742Y-77985952D01*
X66888123Y-77795476D01*
X66840504Y-77700238D01*
X66745266Y-77605000D01*
X66602409Y-77557380D01*
X66507171Y-77557380D01*
X66364314Y-77605000D01*
X66316695Y-77652619D01*
X65935742Y-78271666D02*
X65459552Y-78271666D01*
X66030980Y-78557380D02*
X65697647Y-77557380D01*
X65364314Y-78557380D01*
X65173838Y-77557380D02*
X64840504Y-78557380D01*
X64507171Y-77557380D01*
X64173838Y-78557380D02*
X64173838Y-77557380D01*
X63840504Y-77557380D02*
X63269076Y-77557380D01*
X63554790Y-78557380D02*
X63554790Y-77557380D01*
X62745266Y-78081190D02*
X62745266Y-78557380D01*
X63078600Y-77557380D02*
X62745266Y-78081190D01*
X62411933Y-77557380D01*
X61459552Y-77557380D02*
X61126219Y-78557380D01*
X60792885Y-77557380D01*
X60269076Y-77557380D02*
X60173838Y-77557380D01*
X60078600Y-77605000D01*
X60030980Y-77652619D01*
X59983361Y-77747857D01*
X59935742Y-77938333D01*
X59935742Y-78176428D01*
X59983361Y-78366904D01*
X60030980Y-78462142D01*
X60078600Y-78509761D01*
X60173838Y-78557380D01*
X60269076Y-78557380D01*
X60364314Y-78509761D01*
X60411933Y-78462142D01*
X60459552Y-78366904D01*
X60507171Y-78176428D01*
X60507171Y-77938333D01*
X60459552Y-77747857D01*
X60411933Y-77652619D01*
X60364314Y-77605000D01*
X60269076Y-77557380D01*
M02*
