0
SECTION
2
HEADER
9
$INSUNITS
70
4
9
$ACADVER
1
AC1014
9
$HANDSEED
5
FFFF
0
ENDSEC
0
SECTION
2
TABLES
0
TABLE
2
VPORT
5
8
100
AcDbSymbolTable
0
ENDTAB
0
TABLE
2
LTYPE
5
5
100
AcDbSymbolTable
0
LTYPE
5
14
100
AcDbSymbolTableRecord
100
AcDbLinetypeTableRecord
2
BYBLOCK
70
0
0
LTYPE
5
15
100
AcDbSymbolTableRecord
100
AcDbLinetypeTableRecord
2
BYLAYER
70
0
0
LTYPE
5
16
100
AcDbSymbolTableRecord
100
AcDbLinetypeTableRecord
2
DASHED
70
0
3
Dashed __ __ __ __ __ __ __ __ __ __ __ __ __ _
72
65
73
2
40
0.75
49
0.5
74
0
49
-0.25
74
0
0
ENDTAB
0
TABLE
2
LAYER
5
2
100
AcDbSymbolTable
70
2
0
LAYER
5
50
100
AcDbSymbolTableRecord
100
AcDbLayerTableRecord
2
0
70
0
62
7
6
CONTINUOUS
0
ENDTAB
0
TABLE
2
STYLE
5
3
100
AcDbSymbolTable
70
1
0
STYLE
5
11
100
AcDbSymbolTableRecord
100
AcDbTextStyleTableRecord
2
STANDARD
70
0
0
ENDTAB
0
TABLE
2
VIEW
5
6
100
AcDbSymbolTable
70
0
0
ENDTAB
0
TABLE
2
UCS
5
7
100
AcDbSymbolTable
70
0
0
ENDTAB
0
TABLE
2
APPID
5
9
100
AcDbSymbolTable
70
2
0
APPID
5
12
100
AcDbSymbolTableRecord
100
AcDbRegAppTableRecord
2
ACAD
70
0
0
ENDTAB
0
TABLE
2
DIMSTYLE
5
A
100
AcDbSymbolTable
70
1
0
ENDTAB
0
TABLE
2
BLOCK_RECORD
5
1
100
AcDbSymbolTable
70
1
0
BLOCK_RECORD
5
1F
100
AcDbSymbolTableRecord
100
AcDbBlockTableRecord
2
*MODEL_SPACE
0
BLOCK_RECORD
5
1B
100
AcDbSymbolTableRecord
100
AcDbBlockTableRecord
2
*PAPER_SPACE
0
ENDTAB
0
ENDSEC
0
SECTION
2
BLOCKS
0
BLOCK
5
20
100
AcDbEntity
100
AcDbBlockBegin
2
*MODEL_SPACE
0
ENDBLK
5
21
100
AcDbEntity
100
AcDbBlockEnd
0
BLOCK
5
1C
100
AcDbEntity
100
AcDbBlockBegin
2
*PAPER_SPACE
0
ENDBLK
5
1D
100
AcDbEntity
100
AcDbBlockEnd
0
ENDSEC
0
SECTION
2
ENTITIES
0
LWPOLYLINE
5
100
100
AcDbEntity
8
0
100
AcDbPolyline
90
32
70
1
43
0.0
10
-20.018160234587128
20
9.1302383568451351
42
0.069914486023819986
10
-20.389028596363431
20
7.7890836727461039
42
0.065184832973983212
10
-20.389028130547718
20
-7.7890834377949751
42
0.069914445754070187
10
-20.018159973901533
20
-9.1302372397341323
10
-14.26118923458678
20
-22.398047643155145
42
0.29879596195862779
10
-13.343826073254782
20
-22.999999102554803
10
-10.749999234586788
20
-22.99999964315516
42
0.41421356237309764
10
-10.249999234586785
20
-22.499999643155164
10
-10.249999234586774
20
-19.399999643155144
42
-0.41421356237309892
10
-9.7499992345867703
20
-18.899999643155137
10
9.7499997654131949
20
-18.899999643155148
42
-0.41421356237308854
10
10.249999765413184
20
-19.399999643155148
10
10.249999765413182
20
-22.499999643155153
42
0.41421356237310025
10
10.749999765413181
20
-22.999999643155164
10
13.343824765413178
20
-22.99999964315516
42
0.29879596195842684
10
14.261188927509469
20
-22.398048627705268
10
20.018159765413177
20
-9.1302376431551018
42
0.069914486020330818
10
20.389028127180815
20
-7.7890829591250865
42
0.065184832974107723
10
20.389027661379245
20
7.7890841514454854
42
0.069914445752377125
10
20.018159504757147
20
9.1302379533566764
10
14.261188765413182
20
22.398048356845017
42
0.29879596195857594
10
13.343824686717188
20
22.999999214293009
10
10.749999765413186
20
22.999999356845002
42
0.41421356237309764
10
10.249999765413181
20
22.499999356844995
10
10.249999765413179
20
19.399999356844997
42
-0.41421356237308854
10
9.7499997654131754
20
18.899999356845004
10
-9.749999234586781
20
18.899999356845008
42
-0.41421356237308854
10
-10.24999923458677
20
19.399999356845008
10
-10.249999234586777
20
22.499999356845002
42
0.41421356237308982
10
-10.749999234586785
20
22.999999356844999
10
-13.343825234586784
20
23.000000356844996
42
0.29879596198323921
10
-14.261190314083505
20
22.398048739360519
0
CIRCLE
5
101
100
AcDbEntity
8
0
100
AcDbCircle
10
17.322740765413176
20
-7.1753136431551034
30
0
40
0.8500000000000032
210
-3.6977854932234928e-32
220
3.0021849133094014e-34
230
1
0
CIRCLE
5
102
100
AcDbEntity
8
0
100
AcDbCircle
10
17.322740765413176
20
7.1753143568449396
30
0
40
0.8500000000000032
210
-3.6977854932234928e-32
220
3.0021849133094014e-34
230
1
0
CIRCLE
5
103
100
AcDbEntity
8
0
100
AcDbCircle
10
-7.1753142345867804
20
17.322741356844986
30
0
40
0.8500000000000032
210
-3.6977854932234928e-32
220
3.0021849133094014e-34
230
1
0
CIRCLE
5
104
100
AcDbEntity
8
0
100
AcDbCircle
10
7.1753137654131915
20
17.322741356844986
30
0
40
0.8500000000000032
210
-3.6977854932234928e-32
220
3.0021849133094014e-34
230
1
0
CIRCLE
5
105
100
AcDbEntity
8
0
100
AcDbCircle
10
-7.1753142345867804
20
-17.322740643155143
30
0
40
0.8500000000000032
210
-3.6977854932234928e-32
220
3.0021849133094014e-34
230
1
0
CIRCLE
5
106
100
AcDbEntity
8
0
100
AcDbCircle
10
7.1753137654131915
20
-17.322740643155143
30
0
40
0.8500000000000032
210
-3.6977854932234928e-32
220
3.0021849133094014e-34
230
1
0
CIRCLE
5
107
100
AcDbEntity
8
0
100
AcDbCircle
10
-17.322741234586783
20
7.1753143568449396
30
-9.8607613152626476e-31
40
0.8500000000000032
210
-3.6977854932234928e-32
220
3.0021849133094014e-34
230
1
0
CIRCLE
5
108
100
AcDbEntity
8
0
100
AcDbCircle
10
-17.322741234586783
20
-7.1753136431551034
30
-9.8607613152626476e-31
40
0.8500000000000032
210
-3.6977854932234928e-32
220
3.0021849133094014e-34
230
1
0
LWPOLYLINE
5
109
100
AcDbEntity
8
0
100
AcDbPolyline
90
32
70
1
43
0.0
10
-9.7499992345868769
20
-18.899999643155407
42
0.41421356237309892
10
-10.249999234586877
20
-19.399999643155404
10
-10.249999234586893
20
-22.499999643155412
42
-0.41421356237309503
10
-10.749999234586891
20
-22.999999643155409
10
-13.343826073254892
20
-22.999999102555059
42
-0.29879596195862557
10
-14.261189234587031
20
-22.398047643155468
10
-20.018159973901692
20
-9.130237239734452
42
-0.069914445754063803
10
-20.389028526890243
20
-7.7890834896869272
42
-0.065184832973983309
10
-20.389028596363534
20
7.7890836727457247
42
-0.06991448602381975
10
-20.018160234587249
20
9.1302383568447567
10
-14.261190314083612
20
22.398048739360107
42
-0.29879596198323888
10
-13.343825234586895
20
23.000000356844595
10
-10.749999234586891
20
22.999999356844594
42
-0.41421356237309503
10
-10.249999234586884
20
22.499999356844587
10
-10.249999234586877
20
19.399999356844599
42
0.41421356237309892
10
-9.7499992345868769
20
18.899999356844592
10
9.7499997654131043
20
18.899999356844603
42
0.41421356237309892
10
10.249999765413104
20
19.399999356844599
10
10.249999765413111
20
22.499999356844587
42
-0.41421356237309503
10
10.74999976541311
20
22.999999356844583
10
13.343824686717118
20
22.999999214292593
42
-0.29879596195857749
10
14.26118876541266
20
22.398048356844402
10
20.018159504757087
20
9.1302379533563123
42
-0.069914445752370574
10
20.389027661379174
20
7.7890841514452438
42
-0.065184832974107737
10
20.389028127180758
20
-7.789082959125377
42
-0.069914486020330666
10
20.018159765413486
20
-9.1302376431555565
10
14.261188927509401
20
-22.398048627705521
42
-0.29879596195842673
10
13.34382476541311
20
-22.999999643155412
10
10.74999976541311
20
-22.999999643155409
42
-0.41421356237309503
10
10.249999765413111
20
-22.499999643155412
10
10.249999765413113
20
-19.399999643155414
42
0.41421356237309892
10
9.7499997654131132
20
-18.899999643155407
0
CIRCLE
5
110
100
AcDbEntity
8
0
100
AcDbCircle
10
7.1753137654131116
20
-17.322740643155406
30
5.6457204332714832e-17
40
0.85000000000000009
210
-3.6977854932234928e-32
220
3.3669486169581053e-34
230
1
0
CIRCLE
5
111
100
AcDbEntity
8
0
100
AcDbCircle
10
-7.1753142345868781
20
-17.322740643155406
30
-5.6457244321488151e-17
40
0.85000000000000009
210
-3.6977854932234928e-32
220
3.3669486169581053e-34
230
1
0
CIRCLE
5
112
100
AcDbEntity
8
0
100
AcDbCircle
10
-7.1753142345868781
20
17.322741356844595
30
-5.6457244321488151e-17
40
0.85000000000000009
210
-3.6977854932234928e-32
220
3.3669486169581053e-34
230
1
0
CIRCLE
5
113
100
AcDbEntity
8
0
100
AcDbCircle
10
7.1753137654131116
20
17.322741356844595
30
5.6457204332714832e-17
40
0.85000000000000009
210
-3.6977854932234928e-32
220
3.3669486169581053e-34
230
1
0
CIRCLE
5
114
100
AcDbEntity
8
0
100
AcDbCircle
10
17.322740765413116
20
-7.1753136431554054
30
-5.0099087101700907e-17
40
0.85000000000000009
210
-3.6977854932234928e-32
220
3.3669486169581053e-34
230
1
0
CIRCLE
5
115
100
AcDbEntity
8
0
100
AcDbCircle
10
17.322740765413116
20
7.1753143568445843
30
-5.0099087101700907e-17
40
0.85000000000000009
210
-3.6977854932234928e-32
220
3.3669486169581053e-34
230
1
0
CIRCLE
5
116
100
AcDbEntity
8
0
100
AcDbCircle
10
-17.322741234586889
20
7.1753143568445843
30
5.0099047112926602e-17
40
0.85000000000000009
210
-3.6977854932234928e-32
220
3.3669486169581053e-34
230
1
0
CIRCLE
5
117
100
AcDbEntity
8
0
100
AcDbCircle
10
-17.322741234586889
20
-7.1753136431554054
30
5.0099047112926602e-17
40
0.85000000000000009
210
-3.6977854932234928e-32
220
3.3669486169581053e-34
230
1
0
ENDSEC
0
SECTION
2
OBJECTS
0
DICTIONARY
5
C
100
AcDbDictionary
3
ACAD_GROUP
350
D
3
ACAD_MLINESTYLE
350
17
0
DICTIONARY
5
D
100
AcDbDictionary
0
DICTIONARY
5
1A
330
C
100
AcDbDictionary
0
DICTIONARY
5
17
100
AcDbDictionary
0
ENDSEC
0
EOF
