0
SECTION
2
HEADER
9
$INSUNITS
70
4
9
$ACADVER
1
AC1014
9
$HANDSEED
5
FFFF
0
ENDSEC
0
SECTION
2
TABLES
0
TABLE
2
VPORT
5
8
100
AcDbSymbolTable
0
ENDTAB
0
TABLE
2
LTYPE
5
5
100
AcDbSymbolTable
0
LTYPE
5
14
100
AcDbSymbolTableRecord
100
AcDbLinetypeTableRecord
2
BYBLOCK
70
0
0
LTYPE
5
15
100
AcDbSymbolTableRecord
100
AcDbLinetypeTableRecord
2
BYLAYER
70
0
0
LTYPE
5
16
100
AcDbSymbolTableRecord
100
AcDbLinetypeTableRecord
2
DASHED
70
0
3
Dashed __ __ __ __ __ __ __ __ __ __ __ __ __ _
72
65
73
2
40
0.75
49
0.5
74
0
49
-0.25
74
0
0
ENDTAB
0
TABLE
2
LAYER
5
2
100
AcDbSymbolTable
70
2
0
LAYER
5
50
100
AcDbSymbolTableRecord
100
AcDbLayerTableRecord
2
0
70
0
62
7
6
CONTINUOUS
0
ENDTAB
0
TABLE
2
STYLE
5
3
100
AcDbSymbolTable
70
1
0
STYLE
5
11
100
AcDbSymbolTableRecord
100
AcDbTextStyleTableRecord
2
STANDARD
70
0
0
ENDTAB
0
TABLE
2
VIEW
5
6
100
AcDbSymbolTable
70
0
0
ENDTAB
0
TABLE
2
UCS
5
7
100
AcDbSymbolTable
70
0
0
ENDTAB
0
TABLE
2
APPID
5
9
100
AcDbSymbolTable
70
2
0
APPID
5
12
100
AcDbSymbolTableRecord
100
AcDbRegAppTableRecord
2
ACAD
70
0
0
ENDTAB
0
TABLE
2
DIMSTYLE
5
A
100
AcDbSymbolTable
70
1
0
ENDTAB
0
TABLE
2
BLOCK_RECORD
5
1
100
AcDbSymbolTable
70
1
0
BLOCK_RECORD
5
1F
100
AcDbSymbolTableRecord
100
AcDbBlockTableRecord
2
*MODEL_SPACE
0
BLOCK_RECORD
5
1B
100
AcDbSymbolTableRecord
100
AcDbBlockTableRecord
2
*PAPER_SPACE
0
ENDTAB
0
ENDSEC
0
SECTION
2
BLOCKS
0
BLOCK
5
20
100
AcDbEntity
100
AcDbBlockBegin
2
*MODEL_SPACE
0
ENDBLK
5
21
100
AcDbEntity
100
AcDbBlockEnd
0
BLOCK
5
1C
100
AcDbEntity
100
AcDbBlockBegin
2
*PAPER_SPACE
0
ENDBLK
5
1D
100
AcDbEntity
100
AcDbBlockEnd
0
ENDSEC
0
SECTION
2
ENTITIES
0
LWPOLYLINE
5
100
100
AcDbEntity
8
0
100
AcDbPolyline
90
28
70
1
43
0.0
10
-20.226648303732894
20
-7.4975704761992805
42
0.059934793837508923
10
-19.938036349222671
20
-8.6565818219729174
42
0.019022967726370854
10
-19.717932623196649
20
-8.966741395969855
42
0.065184831865407938
10
-8.7025050669942861
20
-19.982168952172227
42
0.01902296920306798
10
-8.3923455421554713
20
-20.202272807316177
42
0.023571940402932947
10
-7.9570347510684281
20
-20.382584440831714
42
0.019022969203082593
10
-7.5820819192677105
20
-20.446263415557247
42
0.065184831865413892
10
7.9960851260520416
20
-20.446263415557262
42
0.019022969203103778
10
8.371037957852673
20
-20.382584440831742
42
0.02357194040294357
10
8.8063487489396923
20
-20.202272807316106
42
0.019022969203088439
10
9.1165082737785141
20
-19.982168952172135
42
0.065184831865411394
10
20.131935829980971
20
-8.9667413959696631
42
0.019022969203062866
10
20.352039685124829
20
-8.6565818711309994
42
0.059934793837474271
10
20.640651510516946
20
-7.4975704761998605
42
0.062243008673468631
10
20.640651510517024
20
7.3831010250324951
42
0.059934793837505281
10
20.352039556006837
20
8.5421123708060325
42
0.019022967726368665
10
20.131935829980797
20
8.8522719448029576
42
0.06518483186540848
10
9.1165082737784395
20
19.867699501005333
42
0.0190229692030804
10
8.8063487489396284
20
20.087803356149276
42
0.023571940402945045
10
8.3710379578525913
20
20.268114989664838
42
0.019022969203082957
10
7.9960851260518684
20
20.331793964390378
42
0.065184831865415516
10
-7.5820819192678623
20
20.331793964390368
42
0.019022969203088068
10
-7.9570347510685071
20
20.268114989664863
42
0.023571940402942981
10
-8.3923455421555175
20
20.08780335614922
42
0.019022969203093185
10
-8.7025050669943482
20
19.867699501005262
42
0.065184831865409118
10
-19.717932623196784
20
8.8522719448028493
42
0.019022969203071269
10
-19.938036478340663
20
8.5421124199641039
42
0.05993479383748062
10
-20.226648303732805
20
7.3831010250329134
42
0.062243008673468062
0
CIRCLE
5
101
100
AcDbEntity
8
0
100
AcDbCircle
10
-17.115739631194717
20
-7.2325490824292782
30
0
40
0.6354999999999994
210
-3.4666738998970245e-33
220
3.2740809054583016e-33
230
1
0
CIRCLE
5
102
100
AcDbEntity
8
0
100
AcDbCircle
10
-6.9683127534535405
20
17.265506509002741
30
0
40
0.6354999999999994
210
-3.4666738998970245e-33
220
3.2740809054583016e-33
230
1
0
CIRCLE
5
103
100
AcDbEntity
8
0
100
AcDbCircle
10
-6.9683127534535316
20
-17.379975960170455
30
0
40
0.6354999999999994
210
-3.4666738998970245e-33
220
3.2740809054583016e-33
230
1
0
CIRCLE
5
104
100
AcDbEntity
8
0
100
AcDbCircle
10
17.529742837978493
20
7.11807963126157
30
0
40
0.6354999999999994
210
-3.4666738998970245e-33
220
3.2740809054583016e-33
230
1
0
CIRCLE
5
105
100
AcDbEntity
8
0
100
AcDbCircle
10
-17.115739631194728
20
7.1180796312615637
30
0
40
0.6354999999999994
210
-3.4666738998970245e-33
220
3.2740809054583016e-33
230
1
0
CIRCLE
5
106
100
AcDbEntity
8
0
100
AcDbCircle
10
7.3823159602373067
20
17.265506509002748
30
0
40
0.6354999999999994
210
-3.4666738998970245e-33
220
3.2740809054583016e-33
230
1
0
CIRCLE
5
107
100
AcDbEntity
8
0
100
AcDbCircle
10
17.529742837978503
20
-7.2325490824292729
30
0
40
0.6354999999999994
210
-3.4666738998970245e-33
220
3.2740809054583016e-33
230
1
0
CIRCLE
5
108
100
AcDbEntity
8
0
100
AcDbCircle
10
7.3823159602373156
20
-17.379975960170452
30
0
40
0.6354999999999994
210
-3.4666738998970245e-33
220
3.2740809054583016e-33
230
1
0
LWPOLYLINE
5
109
100
AcDbEntity
8
0
100
AcDbPolyline
90
28
70
1
43
0.0
10
20.352039685124701
20
8.5421124199641625
42
0.019022969203072729
10
20.131935829980748
20
8.8522719448029861
42
0.065184831865408688
10
9.1165082737783329
20
19.867699501005397
42
0.01902296920307419
10
8.8063487489395911
20
20.08780335614933
42
0.023571940402921442
10
8.3710379578525487
20
20.268114989664866
42
0.019022969203072729
10
7.9960851260518311
20
20.331793964390407
42
0.065184831865408688
10
-7.5820819192679378
20
20.331793964390403
42
0.01902296920307419
10
-7.9570347510685888
20
20.268114989664912
42
0.023571940402921442
10
-8.3923455421555904
20
20.087803356149244
42
0.019022969203072729
10
-8.7025050669944051
20
19.867699501005287
42
0.06518483186540848
10
-19.717932623196816
20
8.8522719448028706
42
0.01902296772637195
10
-19.938036349222848
20
8.5421123708060147
42
0.059934793837478739
10
-20.226648303732887
20
7.3831010250329214
42
0.062243008673468742
10
-20.226648303732972
20
-7.497570476199293
42
0.059934793837508452
10
-19.938036349222742
20
-8.6565818219729387
42
0.019022967726369761
10
-19.71793262319672
20
-8.9667413959698816
42
0.06518483186540848
10
-8.7025050669942914
20
-19.982168952172287
42
0.01902296920307419
10
-8.3923455421555531
20
-20.202272807316216
42
0.023571940402921737
10
-7.9570347510684947
20
-20.382584440831749
42
0.019022969203071997
10
-7.5820819192677824
20
-20.44626341555729
42
0.065184831865408688
10
7.9960851260519892
20
-20.446263415557286
42
0.01902296920307419
10
8.3710379578526357
20
-20.382584440831792
42
0.023571940402921737
10
8.8063487489396444
20
-20.202272807316128
42
0.019022969203071997
10
9.1165082737784608
20
-19.982168952172181
42
0.06518483186540848
10
20.131935829980875
20
-8.9667413959697519
42
0.019022967726372686
10
20.352039556006908
20
-8.6565818219728978
42
0.059934793837475214
10
20.640651510516903
20
-7.4975704761998729
42
0.062243008673469193
10
20.640651510516996
20
7.3831010250325129
42
0.059934793837502345
0
CIRCLE
5
110
100
AcDbEntity
8
0
100
AcDbCircle
10
7.3823159602372623
20
17.265506509002776
30
0
40
0.63549999999999995
210
-3.5629703971163863e-33
220
2.6963019221421302e-33
230
1
0
CIRCLE
5
111
100
AcDbEntity
8
0
100
AcDbCircle
10
7.3823159602372712
20
-17.379975960170484
30
0
40
0.63549999999999995
210
-3.5629703971163863e-33
220
2.6963019221421302e-33
230
1
0
CIRCLE
5
112
100
AcDbEntity
8
0
100
AcDbCircle
10
17.529742837978468
20
-7.2325490824292853
30
0
40
0.63549999999999995
210
-3.5629703971163863e-33
220
2.6963019221421302e-33
230
1
0
CIRCLE
5
113
100
AcDbEntity
8
0
100
AcDbCircle
10
-6.9683127534536027
20
17.265506509002773
30
0
40
0.63549999999999995
210
-3.5629703971163863e-33
220
2.6963019221421302e-33
230
1
0
CIRCLE
5
114
100
AcDbEntity
8
0
100
AcDbCircle
10
-17.115739631194788
20
-7.2325490824292906
30
0
40
0.63549999999999995
210
-3.5629703971163863e-33
220
2.6963019221421302e-33
230
1
0
CIRCLE
5
115
100
AcDbEntity
8
0
100
AcDbCircle
10
17.529742837978457
20
7.1180796312615824
30
0
40
0.63549999999999995
210
-3.5629703971163863e-33
220
2.6963019221421302e-33
230
1
0
CIRCLE
5
116
100
AcDbEntity
8
0
100
AcDbCircle
10
-6.9683127534535938
20
-17.379975960170487
30
0
40
0.63549999999999995
210
-3.5629703971163863e-33
220
2.6963019221421302e-33
230
1
0
CIRCLE
5
117
100
AcDbEntity
8
0
100
AcDbCircle
10
-17.115739631194799
20
7.1180796312615762
30
0
40
0.63549999999999995
210
-3.5629703971163863e-33
220
2.6963019221421302e-33
230
1
0
ENDSEC
0
SECTION
2
OBJECTS
0
DICTIONARY
5
C
100
AcDbDictionary
3
ACAD_GROUP
350
D
3
ACAD_MLINESTYLE
350
17
0
DICTIONARY
5
D
100
AcDbDictionary
0
DICTIONARY
5
1A
330
C
100
AcDbDictionary
0
DICTIONARY
5
17
100
AcDbDictionary
0
ENDSEC
0
EOF
