0
SECTION
2
HEADER
9
$INSUNITS
70
4
9
$ACADVER
1
AC1014
9
$HANDSEED
5
FFFF
0
ENDSEC
0
SECTION
2
TABLES
0
TABLE
2
VPORT
5
8
100
AcDbSymbolTable
0
ENDTAB
0
TABLE
2
LTYPE
5
5
100
AcDbSymbolTable
0
LTYPE
5
14
100
AcDbSymbolTableRecord
100
AcDbLinetypeTableRecord
2
BYBLOCK
70
0
0
LTYPE
5
15
100
AcDbSymbolTableRecord
100
AcDbLinetypeTableRecord
2
BYLAYER
70
0
0
LTYPE
5
16
100
AcDbSymbolTableRecord
100
AcDbLinetypeTableRecord
2
DASHED
70
0
3
Dashed __ __ __ __ __ __ __ __ __ __ __ __ __ _
72
65
73
2
40
0.75
49
0.5
74
0
49
-0.25
74
0
0
ENDTAB
0
TABLE
2
LAYER
5
2
100
AcDbSymbolTable
70
2
0
LAYER
5
50
100
AcDbSymbolTableRecord
100
AcDbLayerTableRecord
2
0
70
0
62
7
6
CONTINUOUS
0
ENDTAB
0
TABLE
2
STYLE
5
3
100
AcDbSymbolTable
70
1
0
STYLE
5
11
100
AcDbSymbolTableRecord
100
AcDbTextStyleTableRecord
2
STANDARD
70
0
0
ENDTAB
0
TABLE
2
VIEW
5
6
100
AcDbSymbolTable
70
0
0
ENDTAB
0
TABLE
2
UCS
5
7
100
AcDbSymbolTable
70
0
0
ENDTAB
0
TABLE
2
APPID
5
9
100
AcDbSymbolTable
70
2
0
APPID
5
12
100
AcDbSymbolTableRecord
100
AcDbRegAppTableRecord
2
ACAD
70
0
0
ENDTAB
0
TABLE
2
DIMSTYLE
5
A
100
AcDbSymbolTable
70
1
0
ENDTAB
0
TABLE
2
BLOCK_RECORD
5
1
100
AcDbSymbolTable
70
1
0
BLOCK_RECORD
5
1F
100
AcDbSymbolTableRecord
100
AcDbBlockTableRecord
2
*MODEL_SPACE
0
BLOCK_RECORD
5
1B
100
AcDbSymbolTableRecord
100
AcDbBlockTableRecord
2
*PAPER_SPACE
0
ENDTAB
0
ENDSEC
0
SECTION
2
BLOCKS
0
BLOCK
5
20
100
AcDbEntity
100
AcDbBlockBegin
2
*MODEL_SPACE
0
ENDBLK
5
21
100
AcDbEntity
100
AcDbBlockEnd
0
BLOCK
5
1C
100
AcDbEntity
100
AcDbBlockBegin
2
*PAPER_SPACE
0
ENDBLK
5
1D
100
AcDbEntity
100
AcDbBlockEnd
0
ENDSEC
0
SECTION
2
ENTITIES
0
LWPOLYLINE
5
100
100
AcDbEntity
8
0
100
AcDbPolyline
90
4
70
1
43
0.0
10
5.4228107537497241
20
12.907095859604388
42
0.38118890914558762
10
6.6820173356389656
20
13.33928135740088
42
-1.2697448287190525
10
12.808488643661169
20
7.6503857073278141
42
0.38118890914559206
10
12.470627359257424
20
6.3626608637063597
42
-5.6454257481014158
0
CIRCLE
5
101
100
AcDbEntity
8
0
100
AcDbCircle
10
-17.322741234586818
20
7.1753143568449982
30
0
40
1.0500000000000043
210
-3.0814879110195774e-32
220
-1.0304841586801378e-32
230
1
0
CIRCLE
5
102
100
AcDbEntity
8
0
100
AcDbCircle
10
-7.1753143568456057
20
17.322741234586196
30
0
40
1.0500000000000043
210
-3.0814879110195774e-32
220
-1.0304841586801378e-32
230
1
0
CIRCLE
5
103
100
AcDbEntity
8
0
100
AcDbCircle
10
17.322741234586427
20
-7.1753143568458624
30
0
40
1.0500000000000043
210
-3.0814879110195774e-32
220
-1.0304841586801378e-32
230
1
0
CIRCLE
5
104
100
AcDbEntity
8
0
100
AcDbCircle
10
17.322741234586438
20
7.1753143568450053
30
0
40
1.0500000000000043
210
-3.0814879110195774e-32
220
-1.0304841586801378e-32
230
1
0
CIRCLE
5
105
100
AcDbEntity
8
0
100
AcDbCircle
10
-17.322741234586829
20
-7.1753143568458677
30
0
40
1.0500000000000043
210
-3.0814879110195774e-32
220
-1.0304841586801378e-32
230
1
0
CIRCLE
5
106
100
AcDbEntity
8
0
100
AcDbCircle
10
7.1753143568452149
20
-17.322741234587056
30
0
40
1.0500000000000043
210
-3.0814879110195774e-32
220
-1.0304841586801378e-32
230
1
0
CIRCLE
5
107
100
AcDbEntity
8
0
100
AcDbCircle
10
7.1753143568452593
20
17.3227412345862
30
0
40
1.0500000000000043
210
-3.0814879110195774e-32
220
-1.0304841586801378e-32
230
1
0
CIRCLE
5
108
100
AcDbEntity
8
0
100
AcDbCircle
10
-7.1753143568456501
20
-17.322741234587063
30
0
40
1.0500000000000043
210
-3.0814879110195774e-32
220
-1.0304841586801378e-32
230
1
0
LWPOLYLINE
5
109
100
AcDbEntity
8
0
100
AcDbPolyline
90
72
70
1
43
0.0
10
-17.021560546871871
20
-15.031600208354623
42
0.35636065080312379
10
-17.193454409744579
20
-15.640200722773898
10
-14.261189612967966
20
-22.3980489845496
42
0.29879596195857477
10
-13.343825450871464
20
-23.000000000000007
10
-10.750000000000037
20
-23.000000000000007
42
0.41421356237309503
10
-10.250000000000039
20
-22.500000000000007
10
-10.250000000000037
20
-21.449999999999978
10
-11.350000000000042
20
-21.449999999999978
10
-11.350000000000041
20
-20.449999999999978
10
-10.25000000000003
20
-20.449999999999978
10
-10.250000000000032
20
-19.400000000000006
42
-0.41421356237309631
10
-9.7500000000000302
20
-18.900000000000002
10
9.7499999999999609
20
-18.900000000000002
42
-0.41421356237309503
10
10.249999999999961
20
-19.400000000000006
10
10.249999999999966
20
-20.449999999999978
10
11.349999999999962
20
-20.449999999999978
10
11.349999999999961
20
-21.449999999999978
10
10.249999999999968
20
-21.449999999999978
10
10.249999999999966
20
-22.500000000000007
42
0.41421356237309503
10
10.749999999999957
20
-23.000000000000007
10
13.343825450871369
20
-23.000000000000007
42
0.29879596195858865
10
14.261189612967893
20
-22.398048984549597
10
20.018160342107144
20
-9.1302381518529714
42
0.069914486039769574
10
20.389028689973756
20
-7.7890835226599897
42
0.065184831865409451
10
20.389028689973738
20
7.7890835226598742
42
0.069914486039758944
10
20.018160342107187
20
9.1302381518527493
10
14.261189612967943
20
22.398048984549558
42
0.29879596195858171
10
13.343825450871428
20
22.999999999999968
10
10.750000000000037
20
22.999999999999968
42
0.41421356237309503
10
10.250000000000039
20
22.499999999999968
10
10.250000000000028
20
21.449999999999967
10
11.350000000000016
20
21.449999999999967
10
11.350000000000014
20
20.449999999999967
10
10.250000000000021
20
20.449999999999967
10
10.250000000000023
20
19.39999999999997
42
-0.41421356237309631
10
9.7500000000000213
20
18.899999999999967
10
-9.7499999999999787
20
18.899999999999967
42
-0.41421356237309503
10
-10.249999999999979
20
19.39999999999997
10
-10.249999999999984
20
20.449999999999967
10
-11.349999999999989
20
20.449999999999967
10
-11.349999999999987
20
21.449999999999967
10
-10.249999999999986
20
21.449999999999967
10
-10.249999999999984
20
22.499999999999972
42
0.41421356237309503
10
-10.749999999999975
20
22.999999999999972
10
-13.343825450871378
20
22.999999999999993
42
0.29879596195858332
10
-14.261189612967911
20
22.39804898454959
10
-17.193454450407273
20
15.640200629060356
42
0.35636065211799328
10
-17.021560585623156
20
15.031600113302696
10
-14.10126902742854
20
12.986789970794707
42
-0.41421357396962755
10
-13.855693395420117
20
11.594061492684505
10
-15.633780351767451
20
9.0546900849523251
42
-0.41421357015448723
10
-17.026508809477228
20
8.8091144927366152
10
-18.926211926664418
20
10.139300968258818
42
0.47453407677867609
10
-19.671682225898969
20
9.9287494383966699
10
-20.018160342107258
20
9.1302381518527547
42
0.069914486039753074
10
-20.389028689973845
20
7.7890835226597961
42
0.019938623328545055
10
-20.820444454404168
20
3.0252101361394148
42
0.42906591903903379
10
-20.321080407453593
20
2.5000000516717327
10
-17.50000002456094
20
2.5000000502353465
42
-0.41421356222396399
10
-16.500000000000014
20
1.5000000251652521
10
-16.500000000000007
20
-1.4999999472188397
42
-0.41421356237309387
10
-17.500000000000007
20
-2.4999999472188406
10
-20.321080412472242
20
-2.4999999472188406
42
0.4290659186695186
10
-20.820444459721728
20
-3.0252100308089167
42
0.019938623768157096
10
-20.389028689973866
20
-7.7890835226600297
42
0.069914486039775139
10
-20.018160342107269
20
-9.130238151852998
10
-19.671682195546751
20
-9.9287495083482167
42
0.47453407677061321
10
-18.926211896322968
20
-10.139301038217907
10
-17.026508748864661
20
-8.8091145740068697
42
-0.41421357135964515
10
-15.63378033170466
20
-9.0546901487214271
10
-13.855693315945919
20
-11.59406151952745
42
-0.41421356237309698
10
-14.101268923883854
20
-12.986790000167483
0
LWPOLYLINE
5
110
100
AcDbEntity
8
0
100
AcDbPolyline
90
4
70
1
43
0.0
10
5.4228107537497046
20
12.907095859604388
42
0.38118890914558806
10
6.6820173356389461
20
13.339281357400882
42
-1.2697448287190511
10
12.808488643661153
20
7.6503857073278114
42
0.38118890914559173
10
12.470627359257417
20
6.3626608637063606
42
-5.6454257481014087
0
LWPOLYLINE
5
111
100
AcDbEntity
8
0
100
AcDbPolyline
90
72
70
1
43
0.0
10
-17.021560546871854
20
-15.031600208354623
42
0.3563606508031239
10
-17.193454409744557
20
-15.640200722773901
10
-14.261189612967941
20
-22.398048984549604
42
0.29879596195857838
10
-13.343825450871432
20
-23.000000000000007
10
-10.750000000000002
20
-23.000000000000007
42
0.41421356237309503
10
-10.250000000000004
20
-22.500000000000007
10
-10.250000000000004
20
-21.449999999999978
10
-11.350000000000016
20
-21.449999999999978
10
-11.350000000000016
20
-20.449999999999978
10
-10.250000000000004
20
-20.449999999999978
10
-10.250000000000004
20
-19.400000000000006
42
-0.41421356237309437
10
-9.7500000000000053
20
-18.900000000000002
10
9.7499999999999876
20
-18.899999999999999
42
-0.41421356237309892
10
10.249999999999995
20
-19.400000000000006
10
10.249999999999995
20
-20.449999999999978
10
11.349999999999989
20
-20.449999999999978
10
11.349999999999989
20
-21.449999999999978
10
10.249999999999995
20
-21.449999999999978
10
10.249999999999995
20
-22.500000000000007
42
0.41421356237309503
10
10.749999999999993
20
-23.000000000000007
10
13.343825450871403
20
-23.000000000000007
42
0.29879596195858149
10
14.261189612967918
20
-22.398048984549597
10
20.018160342107173
20
-9.1302381518529803
42
0.069914486039768145
10
20.389028689973753
20
-7.7890835226599648
42
0.065184831865407508
10
20.389028689973738
20
7.7890835226597961
42
0.069914486039767035
10
20.018160342107166
20
9.1302381518527493
10
14.261189612967911
20
22.398048984549558
42
0.2987959619585811
10
13.343825450871396
20
22.999999999999964
10
10.750000000000002
20
22.999999999999968
42
0.41421356237309503
10
10.249999999999995
20
22.499999999999968
10
10.249999999999995
20
21.449999999999967
10
11.349999999999989
20
21.449999999999967
10
11.349999999999989
20
20.449999999999967
10
10.249999999999995
20
20.449999999999967
10
10.25
20
19.39999999999997
42
-0.41421356237309892
10
9.7499999999999964
20
18.899999999999967
10
-9.7500000000000036
20
18.899999999999963
42
-0.4142135623730957
10
-10.250000000000012
20
19.39999999999997
10
-10.250000000000012
20
20.449999999999967
10
-11.350000000000016
20
20.449999999999967
10
-11.350000000000016
20
21.449999999999967
10
-10.250000000000012
20
21.449999999999967
10
-10.250000000000012
20
22.499999999999972
42
0.41421356237309503
10
-10.750000000000011
20
22.999999999999972
10
-13.343825450871414
20
22.999999999999993
42
0.29879596195858216
10
-14.261189612967936
20
22.39804898454959
10
-17.193454450407295
20
15.640200629060359
42
0.35636065211798784
10
-17.021560585623174
20
15.031600113302696
10
-14.101269027428554
20
12.986789970794707
42
-0.41421357396962716
10
-13.855693395420133
20
11.594061492684503
10
-15.633780373530147
20
9.054690100190717
42
-0.41421357015448612
10
-17.026508794238854
20
8.8091145144992957
10
-18.926211926664429
20
10.139300968258819
42
0.4745340767786787
10
-19.671682225898984
20
9.9287494383966681
10
-20.018160342107272
20
9.1302381518527547
42
0.069914486039754475
10
-20.389028689973859
20
7.7890835226597988
42
0.019938623328530067
10
-20.820444454404171
20
3.0252101361395631
42
0.429065919039127
10
-20.321080407453593
20
2.5000000516717353
10
-17.50000002456094
20
2.500000050235347
42
-0.41421356222396388
10
-16.500000000000014
20
1.5000000251652534
10
-16.500000000000007
20
-1.4999999472188397
42
-0.41421356237309503
10
-17.500000000000007
20
-2.4999999472188406
10
-20.321080412472242
20
-2.4999999472188419
42
0.4290659186695191
10
-20.820444459721749
20
-3.0252100308089185
42
0.019938623768142802
10
-20.389028689973856
20
-7.7890835226600021
42
0.069914486039774015
10
-20.018160342107258
20
-9.1302381518529891
10
-19.671682195546733
20
-9.9287495083482185
42
0.47453407677061626
10
-18.92621189632295
20
-10.139301038217909
10
-17.026508767473569
20
-8.8091145474305783
42
-0.41421357135964376
10
-15.633780305128351
20
-9.0546901301125047
10
-13.855693315945901
20
-11.594061519527445
42
-0.41421356237309592
10
-14.101268923883836
20
-12.986790000167483
0
CIRCLE
5
112
100
AcDbEntity
8
0
100
AcDbCircle
10
-7.1753143568456235
20
-17.322741234587063
30
-2.7755575615628914e-16
40
1.0500000000000043
210
-2.4651903288156619e-32
220
-1.2325951644078309e-32
230
1
0
CIRCLE
5
113
100
AcDbEntity
8
0
100
AcDbCircle
10
7.1753143568452327
20
17.3227412345862
30
0
40
1.0500000000000043
210
-2.4651903288156619e-32
220
-1.2325951644078309e-32
230
1
0
CIRCLE
5
114
100
AcDbEntity
8
0
100
AcDbCircle
10
7.1753143568452415
20
-17.322741234587056
30
0
40
1.0500000000000043
210
-2.4651903288156619e-32
220
-1.2325951644078309e-32
230
1
0
CIRCLE
5
115
100
AcDbEntity
8
0
100
AcDbCircle
10
-17.322741234586818
20
-7.1753143568458677
30
-1.3877787807814457e-16
40
1.0500000000000043
210
-2.4651903288156619e-32
220
-1.2325951644078309e-32
230
1
0
CIRCLE
5
116
100
AcDbEntity
8
0
100
AcDbCircle
10
17.322741234586427
20
7.1753143568450053
30
-1.3877787807814457e-16
40
1.0500000000000043
210
-2.4651903288156619e-32
220
-1.2325951644078309e-32
230
1
0
CIRCLE
5
117
100
AcDbEntity
8
0
100
AcDbCircle
10
17.322741234586438
20
-7.1753143568458624
30
-1.3877787807814457e-16
40
1.0500000000000043
210
-2.4651903288156619e-32
220
-1.2325951644078309e-32
230
1
0
CIRCLE
5
118
100
AcDbEntity
8
0
100
AcDbCircle
10
-7.1753143568456323
20
17.322741234586196
30
-2.7755575615628914e-16
40
1.0500000000000043
210
-2.4651903288156619e-32
220
-1.2325951644078309e-32
230
1
0
CIRCLE
5
119
100
AcDbEntity
8
0
100
AcDbCircle
10
-17.322741234586829
20
7.1753143568449982
30
-1.3877787807814457e-16
40
1.0500000000000043
210
-2.4651903288156619e-32
220
-1.2325951644078309e-32
230
1
0
ENDSEC
0
SECTION
2
OBJECTS
0
DICTIONARY
5
C
100
AcDbDictionary
3
ACAD_GROUP
350
D
3
ACAD_MLINESTYLE
350
17
0
DICTIONARY
5
D
100
AcDbDictionary
0
DICTIONARY
5
1A
330
C
100
AcDbDictionary
0
DICTIONARY
5
17
100
AcDbDictionary
0
ENDSEC
0
EOF
