%TF.GenerationSoftware,KiCad,Pcbnew,(5.1.6)-1*%
%TF.CreationDate,2025-07-06T20:35:27+05:30*%
%TF.ProjectId,Project_OAK_TOP_LED_CAVITY_V0,50726f6a-6563-4745-9f4f-414b5f544f50,A*%
%TF.SameCoordinates,Original*%
%TF.FileFunction,Legend,Bot*%
%TF.FilePolarity,Positive*%
%FSLAX46Y46*%
G04 Gerber Fmt 4.6, Leading zero omitted, Abs format (unit mm)*
G04 Created by KiCad (PCBNEW (5.1.6)-1) date 2025-07-06 20:35:27*
%MOMM*%
%LPD*%
G01*
G04 APERTURE LIST*
%ADD10C,0.150000*%
%ADD11C,0.160000*%
G04 APERTURE END LIST*
D10*
X75142147Y-110132880D02*
X75142147Y-110847166D01*
X75189766Y-110990023D01*
X75285004Y-111085261D01*
X75427861Y-111132880D01*
X75523100Y-111132880D01*
X74189766Y-111132880D02*
X74665957Y-111132880D01*
X74665957Y-110132880D01*
X73285004Y-111037642D02*
X73332623Y-111085261D01*
X73475480Y-111132880D01*
X73570719Y-111132880D01*
X73713576Y-111085261D01*
X73808814Y-110990023D01*
X73856433Y-110894785D01*
X73904052Y-110704309D01*
X73904052Y-110561452D01*
X73856433Y-110370976D01*
X73808814Y-110275738D01*
X73713576Y-110180500D01*
X73570719Y-110132880D01*
X73475480Y-110132880D01*
X73332623Y-110180500D01*
X73285004Y-110228119D01*
X72570719Y-110132880D02*
X72570719Y-110847166D01*
X72618338Y-110990023D01*
X72713576Y-111085261D01*
X72856433Y-111132880D01*
X72951671Y-111132880D01*
X71618338Y-111132880D02*
X72094528Y-111132880D01*
X72094528Y-110132880D01*
X70713576Y-111037642D02*
X70761195Y-111085261D01*
X70904052Y-111132880D01*
X70999290Y-111132880D01*
X71142147Y-111085261D01*
X71237385Y-110990023D01*
X71285004Y-110894785D01*
X71332623Y-110704309D01*
X71332623Y-110561452D01*
X71285004Y-110370976D01*
X71237385Y-110275738D01*
X71142147Y-110180500D01*
X70999290Y-110132880D01*
X70904052Y-110132880D01*
X70761195Y-110180500D01*
X70713576Y-110228119D01*
X69999290Y-110132880D02*
X69999290Y-110847166D01*
X70046909Y-110990023D01*
X70142147Y-111085261D01*
X70285004Y-111132880D01*
X70380242Y-111132880D01*
X69046909Y-111132880D02*
X69523100Y-111132880D01*
X69523100Y-110132880D01*
X68142147Y-111037642D02*
X68189766Y-111085261D01*
X68332623Y-111132880D01*
X68427861Y-111132880D01*
X68570719Y-111085261D01*
X68665957Y-110990023D01*
X68713576Y-110894785D01*
X68761195Y-110704309D01*
X68761195Y-110561452D01*
X68713576Y-110370976D01*
X68665957Y-110275738D01*
X68570719Y-110180500D01*
X68427861Y-110132880D01*
X68332623Y-110132880D01*
X68189766Y-110180500D01*
X68142147Y-110228119D01*
X67427861Y-110132880D02*
X67427861Y-110847166D01*
X67475480Y-110990023D01*
X67570719Y-111085261D01*
X67713576Y-111132880D01*
X67808814Y-111132880D01*
X66475480Y-111132880D02*
X66951671Y-111132880D01*
X66951671Y-110132880D01*
X65570719Y-111037642D02*
X65618338Y-111085261D01*
X65761195Y-111132880D01*
X65856433Y-111132880D01*
X65999290Y-111085261D01*
X66094528Y-110990023D01*
X66142147Y-110894785D01*
X66189766Y-110704309D01*
X66189766Y-110561452D01*
X66142147Y-110370976D01*
X66094528Y-110275738D01*
X65999290Y-110180500D01*
X65856433Y-110132880D01*
X65761195Y-110132880D01*
X65618338Y-110180500D01*
X65570719Y-110228119D01*
D11*
X81911933Y-78557380D02*
X81911933Y-77557380D01*
X81530980Y-77557380D01*
X81435742Y-77605000D01*
X81388123Y-77652619D01*
X81340504Y-77747857D01*
X81340504Y-77890714D01*
X81388123Y-77985952D01*
X81435742Y-78033571D01*
X81530980Y-78081190D01*
X81911933Y-78081190D01*
X80911933Y-78557380D02*
X80911933Y-77890714D01*
X80911933Y-78081190D02*
X80864314Y-77985952D01*
X80816695Y-77938333D01*
X80721457Y-77890714D01*
X80626219Y-77890714D01*
X80150028Y-78557380D02*
X80245266Y-78509761D01*
X80292885Y-78462142D01*
X80340504Y-78366904D01*
X80340504Y-78081190D01*
X80292885Y-77985952D01*
X80245266Y-77938333D01*
X80150028Y-77890714D01*
X80007171Y-77890714D01*
X79911933Y-77938333D01*
X79864314Y-77985952D01*
X79816695Y-78081190D01*
X79816695Y-78366904D01*
X79864314Y-78462142D01*
X79911933Y-78509761D01*
X80007171Y-78557380D01*
X80150028Y-78557380D01*
X79388123Y-77890714D02*
X79388123Y-78747857D01*
X79435742Y-78843095D01*
X79530980Y-78890714D01*
X79578600Y-78890714D01*
X79388123Y-77557380D02*
X79435742Y-77605000D01*
X79388123Y-77652619D01*
X79340504Y-77605000D01*
X79388123Y-77557380D01*
X79388123Y-77652619D01*
X78530980Y-78509761D02*
X78626219Y-78557380D01*
X78816695Y-78557380D01*
X78911933Y-78509761D01*
X78959552Y-78414523D01*
X78959552Y-78033571D01*
X78911933Y-77938333D01*
X78816695Y-77890714D01*
X78626219Y-77890714D01*
X78530980Y-77938333D01*
X78483361Y-78033571D01*
X78483361Y-78128809D01*
X78959552Y-78224047D01*
X77626219Y-78509761D02*
X77721457Y-78557380D01*
X77911933Y-78557380D01*
X78007171Y-78509761D01*
X78054790Y-78462142D01*
X78102409Y-78366904D01*
X78102409Y-78081190D01*
X78054790Y-77985952D01*
X78007171Y-77938333D01*
X77911933Y-77890714D01*
X77721457Y-77890714D01*
X77626219Y-77938333D01*
X77340504Y-77890714D02*
X76959552Y-77890714D01*
X77197647Y-77557380D02*
X77197647Y-78414523D01*
X77150028Y-78509761D01*
X77054790Y-78557380D01*
X76959552Y-78557380D01*
X75673838Y-77557380D02*
X75483361Y-77557380D01*
X75388123Y-77605000D01*
X75292885Y-77700238D01*
X75245266Y-77890714D01*
X75245266Y-78224047D01*
X75292885Y-78414523D01*
X75388123Y-78509761D01*
X75483361Y-78557380D01*
X75673838Y-78557380D01*
X75769076Y-78509761D01*
X75864314Y-78414523D01*
X75911933Y-78224047D01*
X75911933Y-77890714D01*
X75864314Y-77700238D01*
X75769076Y-77605000D01*
X75673838Y-77557380D01*
X74864314Y-78271666D02*
X74388123Y-78271666D01*
X74959552Y-78557380D02*
X74626219Y-77557380D01*
X74292885Y-78557380D01*
X73959552Y-78557380D02*
X73959552Y-77557380D01*
X73388123Y-78557380D02*
X73816695Y-77985952D01*
X73388123Y-77557380D02*
X73959552Y-78128809D01*
X72340504Y-77557380D02*
X71769076Y-77557380D01*
X72054790Y-78557380D02*
X72054790Y-77557380D01*
X71245266Y-77557380D02*
X71054790Y-77557380D01*
X70959552Y-77605000D01*
X70864314Y-77700238D01*
X70816695Y-77890714D01*
X70816695Y-78224047D01*
X70864314Y-78414523D01*
X70959552Y-78509761D01*
X71054790Y-78557380D01*
X71245266Y-78557380D01*
X71340504Y-78509761D01*
X71435742Y-78414523D01*
X71483361Y-78224047D01*
X71483361Y-77890714D01*
X71435742Y-77700238D01*
X71340504Y-77605000D01*
X71245266Y-77557380D01*
X70388123Y-78557380D02*
X70388123Y-77557380D01*
X70007171Y-77557380D01*
X69911933Y-77605000D01*
X69864314Y-77652619D01*
X69816695Y-77747857D01*
X69816695Y-77890714D01*
X69864314Y-77985952D01*
X69911933Y-78033571D01*
X70007171Y-78081190D01*
X70388123Y-78081190D01*
X68150028Y-78557380D02*
X68626219Y-78557380D01*
X68626219Y-77557380D01*
X67816695Y-78033571D02*
X67483361Y-78033571D01*
X67340504Y-78557380D02*
X67816695Y-78557380D01*
X67816695Y-77557380D01*
X67340504Y-77557380D01*
X66911933Y-78557380D02*
X66911933Y-77557380D01*
X66673838Y-77557380D01*
X66530980Y-77605000D01*
X66435742Y-77700238D01*
X66388123Y-77795476D01*
X66340504Y-77985952D01*
X66340504Y-78128809D01*
X66388123Y-78319285D01*
X66435742Y-78414523D01*
X66530980Y-78509761D01*
X66673838Y-78557380D01*
X66911933Y-78557380D01*
X64578600Y-78462142D02*
X64626219Y-78509761D01*
X64769076Y-78557380D01*
X64864314Y-78557380D01*
X65007171Y-78509761D01*
X65102409Y-78414523D01*
X65150028Y-78319285D01*
X65197647Y-78128809D01*
X65197647Y-77985952D01*
X65150028Y-77795476D01*
X65102409Y-77700238D01*
X65007171Y-77605000D01*
X64864314Y-77557380D01*
X64769076Y-77557380D01*
X64626219Y-77605000D01*
X64578600Y-77652619D01*
X64197647Y-78271666D02*
X63721457Y-78271666D01*
X64292885Y-78557380D02*
X63959552Y-77557380D01*
X63626219Y-78557380D01*
X63435742Y-77557380D02*
X63102409Y-78557380D01*
X62769076Y-77557380D01*
X62435742Y-78557380D02*
X62435742Y-77557380D01*
X62102409Y-77557380D02*
X61530980Y-77557380D01*
X61816695Y-78557380D02*
X61816695Y-77557380D01*
X61007171Y-78081190D02*
X61007171Y-78557380D01*
X61340504Y-77557380D02*
X61007171Y-78081190D01*
X60673838Y-77557380D01*
X59721457Y-77557380D02*
X59388123Y-78557380D01*
X59054790Y-77557380D01*
X58530980Y-77557380D02*
X58435742Y-77557380D01*
X58340504Y-77605000D01*
X58292885Y-77652619D01*
X58245266Y-77747857D01*
X58197647Y-77938333D01*
X58197647Y-78176428D01*
X58245266Y-78366904D01*
X58292885Y-78462142D01*
X58340504Y-78509761D01*
X58435742Y-78557380D01*
X58530980Y-78557380D01*
X58626219Y-78509761D01*
X58673838Y-78462142D01*
X58721457Y-78366904D01*
X58769076Y-78176428D01*
X58769076Y-77938333D01*
X58721457Y-77747857D01*
X58673838Y-77652619D01*
X58626219Y-77605000D01*
X58530980Y-77557380D01*
M02*
