%TF.GenerationSoftware,KiCad,Pcbnew,(5.1.6)-1*%
%TF.CreationDate,2025-07-06T20:35:27+05:30*%
%TF.ProjectId,Project_OAK_TOP_LED_CAVITY_V0,50726f6a-6563-4745-9f4f-414b5f544f50,A*%
%TF.SameCoordinates,Original*%
%TF.FileFunction,Profile,NP*%
%FSLAX46Y46*%
G04 Gerber Fmt 4.6, Leading zero omitted, Abs format (unit mm)*
G04 Created by KiCad (PCBNEW (5.1.6)-1) date 2025-07-06 20:35:27*
%MOMM*%
%LPD*%
G01*
G04 APERTURE LIST*
%TA.AperFunction,Profile*%
%ADD10C,0.100000*%
%TD*%
G04 APERTURE END LIST*
D10*
X87735132Y-95482799D02*
X87735132Y-90418800D01*
X91084533Y-85199493D02*
X91059133Y-85148692D01*
X87735132Y-90418800D02*
X91667207Y-90418800D01*
X87313238Y-77130328D02*
X84249260Y-70535800D01*
X83706121Y-78759349D02*
X87313238Y-77130328D01*
X85887143Y-83405873D02*
X83706121Y-78759349D01*
X91495234Y-88285992D02*
X91379333Y-87255092D01*
X91242434Y-86226092D02*
X91084533Y-85199493D01*
X91590234Y-89318392D02*
X91495234Y-88285992D01*
X91667207Y-90418800D02*
X91664233Y-90352192D01*
X91379333Y-87255092D02*
X91242434Y-86226092D01*
X91059133Y-85148692D02*
X89462237Y-81720056D01*
X64393133Y-110629200D02*
G75*
G03*
X64393133Y-110629200I-1050000J0D01*
G01*
X91664233Y-90352192D02*
X91590234Y-89318392D01*
X78617132Y-110629200D02*
G75*
G03*
X78617132Y-110629200I-1050000J0D01*
G01*
X64393133Y-76288400D02*
G75*
G03*
X64393133Y-76288400I-1050000J0D01*
G01*
X89462237Y-81720056D02*
X85887143Y-83405873D01*
X78617132Y-76288400D02*
G75*
G03*
X78617132Y-76288400I-1050000J0D01*
G01*
X84955131Y-93458800D02*
G75*
G03*
X84955131Y-93458800I-14499999J0D01*
G01*
X88675532Y-100570800D02*
G75*
G03*
X88675532Y-100570800I-1050000J0D01*
G01*
X88675532Y-86346800D02*
G75*
G03*
X88675532Y-86346800I-1050000J0D01*
G01*
X91721113Y-95482800D02*
X87735132Y-95482799D01*
X91719334Y-95529092D02*
X91721113Y-95482800D01*
X91594433Y-97597692D02*
X91667433Y-96563892D01*
X56660272Y-116381800D02*
X84251851Y-116381800D01*
X49666773Y-100690492D02*
X49824672Y-101717192D01*
X49525672Y-87255492D02*
X49410673Y-88286392D01*
X49160773Y-94494391D02*
X49192573Y-95529792D01*
X91092733Y-101717192D02*
X91249633Y-100690292D01*
X89715669Y-104663886D02*
X91053733Y-101781592D01*
X49824672Y-101717192D02*
X49826673Y-101721092D01*
X83936045Y-107514526D02*
X86091289Y-102982174D01*
X84251851Y-116381800D02*
X87567648Y-109228643D01*
X49845942Y-85146792D02*
X49818773Y-85199592D01*
X49192573Y-95529792D02*
X49245372Y-96564492D01*
X87567648Y-109228643D02*
X83936045Y-107514526D01*
X49838472Y-101752292D02*
X56660272Y-116381800D01*
X49149973Y-93458692D02*
X49160773Y-94494391D01*
X49414072Y-98630692D02*
X49529972Y-99661592D01*
X49319273Y-97598191D02*
X49414072Y-98630692D01*
X49191273Y-91387593D02*
X49160072Y-92422992D01*
X91385634Y-99661292D02*
X91500534Y-98630292D01*
X49410673Y-88286392D02*
X49316572Y-89318992D01*
X91249633Y-100690292D02*
X91385634Y-99661292D01*
X49661773Y-86226392D02*
X49525672Y-87255492D01*
X49245372Y-96564492D02*
X49319273Y-97598191D01*
X49243372Y-90352792D02*
X49191273Y-91387593D01*
X49316572Y-89318992D02*
X49243372Y-90352792D01*
X91053733Y-101781592D02*
X91092733Y-101717192D01*
X86091289Y-102982174D02*
X89715669Y-104663886D01*
X49160072Y-92422992D02*
X49149973Y-93458692D01*
X49818773Y-85199592D02*
X49661773Y-86226392D01*
X91667433Y-96563892D02*
X91719334Y-95529092D01*
X91500534Y-98630292D02*
X91594433Y-97597692D01*
X49826673Y-101721092D02*
X49838472Y-101752292D01*
X49529972Y-99661592D02*
X49666773Y-100690492D01*
X54334733Y-100570800D02*
G75*
G03*
X54334733Y-100570800I-1050000J0D01*
G01*
X54334733Y-86346800D02*
G75*
G03*
X54334733Y-86346800I-1050000J0D01*
G01*
X56660522Y-70535800D02*
X49847942Y-85144792D01*
X49847942Y-85144792D02*
X49845942Y-85146792D01*
X84249260Y-70535800D02*
X56660522Y-70535800D01*
M02*
