%TF.GenerationSoftware,KiCad,Pcbnew,(5.1.6)-1*%
%TF.CreationDate,2025-07-06T20:41:09+05:30*%
%TF.ProjectId,Project_OAK_HEX_COVER_OUTER_V0,50726f6a-6563-4745-9f4f-414b5f484558,A*%
%TF.SameCoordinates,Original*%
%TF.FileFunction,Copper,L2,Bot*%
%TF.FilePolarity,Positive*%
%FSLAX46Y46*%
G04 Gerber Fmt 4.6, Leading zero omitted, Abs format (unit mm)*
G04 Created by KiCad (PCBNEW (5.1.6)-1) date 2025-07-06 20:41:09*
%MOMM*%
%LPD*%
G01*
G04 APERTURE LIST*
%TA.AperFunction,EtchedComponent*%
%ADD10C,0.010000*%
%TD*%
G04 APERTURE END LIST*
D10*
%TO.C,G\u002A\u002A\u002A*%
G36*
X67178767Y-75878266D02*
G01*
X67930183Y-75876616D01*
X68052180Y-75766316D01*
X68109913Y-75712182D01*
X68152811Y-75668267D01*
X68173189Y-75642538D01*
X68173888Y-75640141D01*
X68153613Y-75635672D01*
X68096855Y-75631689D01*
X68009465Y-75628380D01*
X67897293Y-75625931D01*
X67766188Y-75624528D01*
X67676183Y-75624266D01*
X67178767Y-75624266D01*
X67178767Y-75878266D01*
G37*
X67178767Y-75878266D02*
X67930183Y-75876616D01*
X68052180Y-75766316D01*
X68109913Y-75712182D01*
X68152811Y-75668267D01*
X68173189Y-75642538D01*
X68173888Y-75640141D01*
X68153613Y-75635672D01*
X68096855Y-75631689D01*
X68009465Y-75628380D01*
X67897293Y-75625931D01*
X67766188Y-75624528D01*
X67676183Y-75624266D01*
X67178767Y-75624266D01*
X67178767Y-75878266D01*
G36*
X67178767Y-76428600D02*
G01*
X68173600Y-76428600D01*
X68173600Y-76195766D01*
X67178767Y-76195766D01*
X67178767Y-76428600D01*
G37*
X67178767Y-76428600D02*
X68173600Y-76428600D01*
X68173600Y-76195766D01*
X67178767Y-76195766D01*
X67178767Y-76428600D01*
G36*
X69560373Y-76851229D02*
G01*
X69531103Y-76910861D01*
X69511753Y-76953864D01*
X69507100Y-76967646D01*
X69526388Y-76973457D01*
X69576751Y-76977532D01*
X69641320Y-76978933D01*
X69775539Y-76978933D01*
X69831820Y-76875527D01*
X69862792Y-76816459D01*
X69883233Y-76773329D01*
X69888100Y-76759110D01*
X69868793Y-76752476D01*
X69818287Y-76747789D01*
X69750873Y-76746100D01*
X69613647Y-76746100D01*
X69560373Y-76851229D01*
G37*
X69560373Y-76851229D02*
X69531103Y-76910861D01*
X69511753Y-76953864D01*
X69507100Y-76967646D01*
X69526388Y-76973457D01*
X69576751Y-76977532D01*
X69641320Y-76978933D01*
X69775539Y-76978933D01*
X69831820Y-76875527D01*
X69862792Y-76816459D01*
X69883233Y-76773329D01*
X69888100Y-76759110D01*
X69868793Y-76752476D01*
X69818287Y-76747789D01*
X69750873Y-76746100D01*
X69613647Y-76746100D01*
X69560373Y-76851229D01*
G36*
X70177739Y-75668527D02*
G01*
X70147288Y-75717672D01*
X70103617Y-75794370D01*
X70049608Y-75893479D01*
X69988141Y-76009856D01*
X69946487Y-76090499D01*
X69719125Y-76534433D01*
X70005666Y-76534433D01*
X70188036Y-76166713D01*
X70393392Y-76567531D01*
X70598748Y-76968350D01*
X70887438Y-76980970D01*
X70548883Y-76319281D01*
X70469604Y-76165162D01*
X70395892Y-76023455D01*
X70330059Y-75898477D01*
X70274412Y-75794546D01*
X70231262Y-75715981D01*
X70202916Y-75667100D01*
X70192089Y-75652079D01*
X70177739Y-75668527D01*
G37*
X70177739Y-75668527D02*
X70147288Y-75717672D01*
X70103617Y-75794370D01*
X70049608Y-75893479D01*
X69988141Y-76009856D01*
X69946487Y-76090499D01*
X69719125Y-76534433D01*
X70005666Y-76534433D01*
X70188036Y-76166713D01*
X70393392Y-76567531D01*
X70598748Y-76968350D01*
X70887438Y-76980970D01*
X70548883Y-76319281D01*
X70469604Y-76165162D01*
X70395892Y-76023455D01*
X70330059Y-75898477D01*
X70274412Y-75794546D01*
X70231262Y-75715981D01*
X70202916Y-75667100D01*
X70192089Y-75652079D01*
X70177739Y-75668527D01*
G36*
X67178767Y-77000100D02*
G01*
X67676183Y-77000100D01*
X67841704Y-76999592D01*
X67968866Y-76997927D01*
X68061633Y-76994895D01*
X68123968Y-76990285D01*
X68159835Y-76983886D01*
X68173199Y-76975487D01*
X68173521Y-76973641D01*
X68158020Y-76948408D01*
X68117136Y-76906011D01*
X68059174Y-76854922D01*
X68049036Y-76846641D01*
X67924629Y-76746100D01*
X67178767Y-76746100D01*
X67178767Y-77000100D01*
G37*
X67178767Y-77000100D02*
X67676183Y-77000100D01*
X67841704Y-76999592D01*
X67968866Y-76997927D01*
X68061633Y-76994895D01*
X68123968Y-76990285D01*
X68159835Y-76983886D01*
X68173199Y-76975487D01*
X68173521Y-76973641D01*
X68158020Y-76948408D01*
X68117136Y-76906011D01*
X68059174Y-76854922D01*
X68049036Y-76846641D01*
X67924629Y-76746100D01*
X67178767Y-76746100D01*
X67178767Y-77000100D01*
G36*
X68714029Y-75636593D02*
G01*
X68646565Y-75643957D01*
X68591052Y-75660138D01*
X68532334Y-75688336D01*
X68518024Y-75696168D01*
X68451094Y-75736579D01*
X68395357Y-75776027D01*
X68371061Y-75797602D01*
X68352696Y-75821910D01*
X68352301Y-75844364D01*
X68374054Y-75875310D01*
X68422136Y-75925096D01*
X68510936Y-76013896D01*
X68559226Y-75968658D01*
X68650952Y-75909886D01*
X68761516Y-75880764D01*
X68878434Y-75882463D01*
X68989219Y-75916157D01*
X69008803Y-75926419D01*
X69111921Y-76007012D01*
X69183440Y-76109394D01*
X69222081Y-76225810D01*
X69226563Y-76348504D01*
X69195606Y-76469720D01*
X69127930Y-76581704D01*
X69118749Y-76592488D01*
X69053276Y-76651738D01*
X68973479Y-76702561D01*
X68894601Y-76736445D01*
X68844480Y-76745635D01*
X68808544Y-76756703D01*
X68755077Y-76784757D01*
X68694080Y-76822940D01*
X68635557Y-76864398D01*
X68589508Y-76902275D01*
X68565937Y-76929713D01*
X68565389Y-76936933D01*
X68579681Y-76948328D01*
X68612346Y-76959033D01*
X68670970Y-76970866D01*
X68763136Y-76985651D01*
X68776850Y-76987716D01*
X68823141Y-76988233D01*
X68889694Y-76982050D01*
X68917428Y-76977997D01*
X69058317Y-76939179D01*
X69183063Y-76868715D01*
X69276526Y-76787793D01*
X69372395Y-76668548D01*
X69432907Y-76534512D01*
X69460111Y-76379939D01*
X69461087Y-76269850D01*
X69443177Y-76118731D01*
X69400674Y-75993377D01*
X69328599Y-75882037D01*
X69269265Y-75817247D01*
X69167265Y-75729624D01*
X69064832Y-75673435D01*
X68949012Y-75643554D01*
X68808600Y-75634850D01*
X68714029Y-75636593D01*
G37*
X68714029Y-75636593D02*
X68646565Y-75643957D01*
X68591052Y-75660138D01*
X68532334Y-75688336D01*
X68518024Y-75696168D01*
X68451094Y-75736579D01*
X68395357Y-75776027D01*
X68371061Y-75797602D01*
X68352696Y-75821910D01*
X68352301Y-75844364D01*
X68374054Y-75875310D01*
X68422136Y-75925096D01*
X68510936Y-76013896D01*
X68559226Y-75968658D01*
X68650952Y-75909886D01*
X68761516Y-75880764D01*
X68878434Y-75882463D01*
X68989219Y-75916157D01*
X69008803Y-75926419D01*
X69111921Y-76007012D01*
X69183440Y-76109394D01*
X69222081Y-76225810D01*
X69226563Y-76348504D01*
X69195606Y-76469720D01*
X69127930Y-76581704D01*
X69118749Y-76592488D01*
X69053276Y-76651738D01*
X68973479Y-76702561D01*
X68894601Y-76736445D01*
X68844480Y-76745635D01*
X68808544Y-76756703D01*
X68755077Y-76784757D01*
X68694080Y-76822940D01*
X68635557Y-76864398D01*
X68589508Y-76902275D01*
X68565937Y-76929713D01*
X68565389Y-76936933D01*
X68579681Y-76948328D01*
X68612346Y-76959033D01*
X68670970Y-76970866D01*
X68763136Y-76985651D01*
X68776850Y-76987716D01*
X68823141Y-76988233D01*
X68889694Y-76982050D01*
X68917428Y-76977997D01*
X69058317Y-76939179D01*
X69183063Y-76868715D01*
X69276526Y-76787793D01*
X69372395Y-76668548D01*
X69432907Y-76534512D01*
X69460111Y-76379939D01*
X69461087Y-76269850D01*
X69443177Y-76118731D01*
X69400674Y-75993377D01*
X69328599Y-75882037D01*
X69269265Y-75817247D01*
X69167265Y-75729624D01*
X69064832Y-75673435D01*
X68949012Y-75643554D01*
X68808600Y-75634850D01*
X68714029Y-75636593D01*
G36*
X71376045Y-75646643D02*
G01*
X71254504Y-75650039D01*
X71155756Y-75655272D01*
X71086885Y-75661993D01*
X71058936Y-75667860D01*
X70970358Y-75720331D01*
X70889740Y-75802405D01*
X70828033Y-75901456D01*
X70805835Y-75959587D01*
X70783734Y-76096480D01*
X70801747Y-76223421D01*
X70860841Y-76346557D01*
X70868268Y-76357753D01*
X70920150Y-76425742D01*
X70975134Y-76475581D01*
X71040999Y-76510190D01*
X71125526Y-76532491D01*
X71236497Y-76545404D01*
X71381691Y-76551849D01*
X71385642Y-76551948D01*
X71666100Y-76558879D01*
X71666100Y-77000100D01*
X71898933Y-77000100D01*
X71898933Y-76301600D01*
X71154844Y-76301600D01*
X71092972Y-76239728D01*
X71047720Y-76180821D01*
X71032148Y-76115846D01*
X71031773Y-76096853D01*
X71041334Y-76022343D01*
X71074371Y-75965842D01*
X71136352Y-75914336D01*
X71168950Y-75897854D01*
X71215268Y-75887059D01*
X71283687Y-75880934D01*
X71382592Y-75878461D01*
X71433408Y-75878266D01*
X71678130Y-75878266D01*
X71793100Y-75761850D01*
X71908071Y-75645433D01*
X71513297Y-75645433D01*
X71376045Y-75646643D01*
G37*
X71376045Y-75646643D02*
X71254504Y-75650039D01*
X71155756Y-75655272D01*
X71086885Y-75661993D01*
X71058936Y-75667860D01*
X70970358Y-75720331D01*
X70889740Y-75802405D01*
X70828033Y-75901456D01*
X70805835Y-75959587D01*
X70783734Y-76096480D01*
X70801747Y-76223421D01*
X70860841Y-76346557D01*
X70868268Y-76357753D01*
X70920150Y-76425742D01*
X70975134Y-76475581D01*
X71040999Y-76510190D01*
X71125526Y-76532491D01*
X71236497Y-76545404D01*
X71381691Y-76551849D01*
X71385642Y-76551948D01*
X71666100Y-76558879D01*
X71666100Y-77000100D01*
X71898933Y-77000100D01*
X71898933Y-76301600D01*
X71154844Y-76301600D01*
X71092972Y-76239728D01*
X71047720Y-76180821D01*
X71032148Y-76115846D01*
X71031773Y-76096853D01*
X71041334Y-76022343D01*
X71074371Y-75965842D01*
X71136352Y-75914336D01*
X71168950Y-75897854D01*
X71215268Y-75887059D01*
X71283687Y-75880934D01*
X71382592Y-75878461D01*
X71433408Y-75878266D01*
X71678130Y-75878266D01*
X71793100Y-75761850D01*
X71908071Y-75645433D01*
X71513297Y-75645433D01*
X71376045Y-75646643D01*
G36*
X72921562Y-75647284D02*
G01*
X72902255Y-75659784D01*
X72894926Y-75693356D01*
X72893767Y-75758419D01*
X72893767Y-75761850D01*
X72896469Y-75831526D01*
X72906149Y-75867523D01*
X72925167Y-75878243D01*
X72926479Y-75878266D01*
X72971604Y-75895915D01*
X73017675Y-75939173D01*
X73052189Y-75993514D01*
X73063100Y-76037016D01*
X73048425Y-76089793D01*
X73012934Y-76141991D01*
X73011146Y-76143812D01*
X72985899Y-76166435D01*
X72958200Y-76181352D01*
X72919062Y-76190182D01*
X72859495Y-76194542D01*
X72770514Y-76196053D01*
X72720104Y-76196231D01*
X72575405Y-76200709D01*
X72464361Y-76215295D01*
X72378949Y-76242675D01*
X72311145Y-76285535D01*
X72252926Y-76346561D01*
X72246568Y-76354753D01*
X72196639Y-76451938D01*
X72174593Y-76567118D01*
X72181529Y-76685506D01*
X72214612Y-76784862D01*
X72283328Y-76876741D01*
X72379697Y-76948079D01*
X72490461Y-76989220D01*
X72496892Y-76990449D01*
X72576267Y-77004811D01*
X72575809Y-76880747D01*
X72574081Y-76810418D01*
X72565777Y-76769554D01*
X72545221Y-76745295D01*
X72507061Y-76724933D01*
X72442043Y-76677493D01*
X72413408Y-76616700D01*
X72423471Y-76549856D01*
X72441782Y-76519019D01*
X72472082Y-76484608D01*
X72508173Y-76460609D01*
X72558017Y-76445098D01*
X72629572Y-76436152D01*
X72730798Y-76431847D01*
X72807241Y-76430709D01*
X72911768Y-76428521D01*
X72985230Y-76423032D01*
X73038875Y-76412306D01*
X73083949Y-76394402D01*
X73114385Y-76377758D01*
X73208451Y-76299739D01*
X73269038Y-76196546D01*
X73294987Y-76070345D01*
X73295933Y-76038375D01*
X73285336Y-75925019D01*
X73249667Y-75835294D01*
X73183108Y-75755130D01*
X73176115Y-75748561D01*
X73093602Y-75683866D01*
X73017061Y-75651691D01*
X72958658Y-75645433D01*
X72921562Y-75647284D01*
G37*
X72921562Y-75647284D02*
X72902255Y-75659784D01*
X72894926Y-75693356D01*
X72893767Y-75758419D01*
X72893767Y-75761850D01*
X72896469Y-75831526D01*
X72906149Y-75867523D01*
X72925167Y-75878243D01*
X72926479Y-75878266D01*
X72971604Y-75895915D01*
X73017675Y-75939173D01*
X73052189Y-75993514D01*
X73063100Y-76037016D01*
X73048425Y-76089793D01*
X73012934Y-76141991D01*
X73011146Y-76143812D01*
X72985899Y-76166435D01*
X72958200Y-76181352D01*
X72919062Y-76190182D01*
X72859495Y-76194542D01*
X72770514Y-76196053D01*
X72720104Y-76196231D01*
X72575405Y-76200709D01*
X72464361Y-76215295D01*
X72378949Y-76242675D01*
X72311145Y-76285535D01*
X72252926Y-76346561D01*
X72246568Y-76354753D01*
X72196639Y-76451938D01*
X72174593Y-76567118D01*
X72181529Y-76685506D01*
X72214612Y-76784862D01*
X72283328Y-76876741D01*
X72379697Y-76948079D01*
X72490461Y-76989220D01*
X72496892Y-76990449D01*
X72576267Y-77004811D01*
X72575809Y-76880747D01*
X72574081Y-76810418D01*
X72565777Y-76769554D01*
X72545221Y-76745295D01*
X72507061Y-76724933D01*
X72442043Y-76677493D01*
X72413408Y-76616700D01*
X72423471Y-76549856D01*
X72441782Y-76519019D01*
X72472082Y-76484608D01*
X72508173Y-76460609D01*
X72558017Y-76445098D01*
X72629572Y-76436152D01*
X72730798Y-76431847D01*
X72807241Y-76430709D01*
X72911768Y-76428521D01*
X72985230Y-76423032D01*
X73038875Y-76412306D01*
X73083949Y-76394402D01*
X73114385Y-76377758D01*
X73208451Y-76299739D01*
X73269038Y-76196546D01*
X73294987Y-76070345D01*
X73295933Y-76038375D01*
X73285336Y-75925019D01*
X73249667Y-75835294D01*
X73183108Y-75755130D01*
X73176115Y-75748561D01*
X73093602Y-75683866D01*
X73017061Y-75651691D01*
X72958658Y-75645433D01*
X72921562Y-75647284D01*
G36*
X73634600Y-75730100D02*
G01*
X73530114Y-75846516D01*
X73530600Y-76777850D01*
X73635283Y-76894266D01*
X73739966Y-77010683D01*
X73739086Y-75613683D01*
X73634600Y-75730100D01*
G37*
X73634600Y-75730100D02*
X73530114Y-75846516D01*
X73530600Y-76777850D01*
X73635283Y-76894266D01*
X73739966Y-77010683D01*
X73739086Y-75613683D01*
X73634600Y-75730100D01*
%TD*%
M02*
