%TF.GenerationSoftware,KiCad,Pcbnew,(5.1.6)-1*%
%TF.CreationDate,2025-07-06T20:41:09+05:30*%
%TF.ProjectId,Project_OAK_HEX_COVER_OUTER_V0,50726f6a-6563-4745-9f4f-414b5f484558,A*%
%TF.SameCoordinates,Original*%
%TF.FileFunction,Soldermask,Bot*%
%TF.FilePolarity,Negative*%
%FSLAX46Y46*%
G04 Gerber Fmt 4.6, Leading zero omitted, Abs format (unit mm)*
G04 Created by KiCad (PCBNEW (5.1.6)-1) date 2025-07-06 20:41:09*
%MOMM*%
%LPD*%
G01*
G04 APERTURE LIST*
%ADD10C,0.010000*%
%ADD11C,2.500000*%
G04 APERTURE END LIST*
D10*
%TO.C,G\u002A\u002A\u002A*%
G36*
X67178767Y-75899433D02*
G01*
X67945778Y-75899433D01*
X68096731Y-75751621D01*
X68247683Y-75603810D01*
X67178767Y-75603100D01*
X67178767Y-75899433D01*
G37*
X67178767Y-75899433D02*
X67945778Y-75899433D01*
X68096731Y-75751621D01*
X68247683Y-75603810D01*
X67178767Y-75603100D01*
X67178767Y-75899433D01*
G36*
X67178767Y-76470933D02*
G01*
X68194767Y-76470933D01*
X68194767Y-76153433D01*
X67178767Y-76153433D01*
X67178767Y-76470933D01*
G37*
X67178767Y-76470933D02*
X68194767Y-76470933D01*
X68194767Y-76153433D01*
X67178767Y-76153433D01*
X67178767Y-76470933D01*
G36*
X67178767Y-77021266D02*
G01*
X67686767Y-77021266D01*
X67846334Y-77021102D01*
X67968530Y-77020355D01*
X68058317Y-77018641D01*
X68120656Y-77015580D01*
X68160508Y-77010788D01*
X68182837Y-77003882D01*
X68192602Y-76994481D01*
X68194767Y-76982202D01*
X68194767Y-76982107D01*
X68179580Y-76950271D01*
X68139376Y-76901480D01*
X68082189Y-76845233D01*
X68069438Y-76833940D01*
X67944109Y-76724933D01*
X67178767Y-76724933D01*
X67178767Y-77021266D01*
G37*
X67178767Y-77021266D02*
X67686767Y-77021266D01*
X67846334Y-77021102D01*
X67968530Y-77020355D01*
X68058317Y-77018641D01*
X68120656Y-77015580D01*
X68160508Y-77010788D01*
X68182837Y-77003882D01*
X68192602Y-76994481D01*
X68194767Y-76982202D01*
X68194767Y-76982107D01*
X68179580Y-76950271D01*
X68139376Y-76901480D01*
X68082189Y-76845233D01*
X68069438Y-76833940D01*
X67944109Y-76724933D01*
X67178767Y-76724933D01*
X67178767Y-77021266D01*
G36*
X68647557Y-75621435D02*
G01*
X68506958Y-75677196D01*
X68401921Y-75751581D01*
X68311183Y-75833114D01*
X68410816Y-75933877D01*
X68464657Y-75986808D01*
X68498624Y-76013311D01*
X68521897Y-76017746D01*
X68543657Y-76004476D01*
X68549174Y-75999594D01*
X68624262Y-75951067D01*
X68719867Y-75915087D01*
X68814431Y-75899557D01*
X68822404Y-75899433D01*
X68932864Y-75919297D01*
X69037148Y-75973830D01*
X69126564Y-76055441D01*
X69192419Y-76156541D01*
X69222816Y-76249050D01*
X69223030Y-76358345D01*
X69187220Y-76465722D01*
X69121248Y-76563104D01*
X69030972Y-76642420D01*
X68922253Y-76695596D01*
X68892656Y-76703913D01*
X68833386Y-76724715D01*
X68760241Y-76759662D01*
X68682654Y-76802963D01*
X68610057Y-76848829D01*
X68551882Y-76891469D01*
X68517561Y-76925093D01*
X68512267Y-76937416D01*
X68531285Y-76955193D01*
X68580498Y-76975429D01*
X68648143Y-76994948D01*
X68722458Y-77010577D01*
X68791681Y-77019142D01*
X68817734Y-77019850D01*
X68898042Y-77011855D01*
X68980126Y-76994196D01*
X68988517Y-76991658D01*
X69103097Y-76947569D01*
X69194928Y-76890950D01*
X69282185Y-76810026D01*
X69301772Y-76788683D01*
X69387787Y-76672868D01*
X69442688Y-76547295D01*
X69469927Y-76402009D01*
X69474431Y-76291016D01*
X69455453Y-76114267D01*
X69400467Y-75958679D01*
X69310523Y-75826003D01*
X69186675Y-75717992D01*
X69100230Y-75667591D01*
X68952673Y-75615613D01*
X68798955Y-75600569D01*
X68647557Y-75621435D01*
G37*
X68647557Y-75621435D02*
X68506958Y-75677196D01*
X68401921Y-75751581D01*
X68311183Y-75833114D01*
X68410816Y-75933877D01*
X68464657Y-75986808D01*
X68498624Y-76013311D01*
X68521897Y-76017746D01*
X68543657Y-76004476D01*
X68549174Y-75999594D01*
X68624262Y-75951067D01*
X68719867Y-75915087D01*
X68814431Y-75899557D01*
X68822404Y-75899433D01*
X68932864Y-75919297D01*
X69037148Y-75973830D01*
X69126564Y-76055441D01*
X69192419Y-76156541D01*
X69222816Y-76249050D01*
X69223030Y-76358345D01*
X69187220Y-76465722D01*
X69121248Y-76563104D01*
X69030972Y-76642420D01*
X68922253Y-76695596D01*
X68892656Y-76703913D01*
X68833386Y-76724715D01*
X68760241Y-76759662D01*
X68682654Y-76802963D01*
X68610057Y-76848829D01*
X68551882Y-76891469D01*
X68517561Y-76925093D01*
X68512267Y-76937416D01*
X68531285Y-76955193D01*
X68580498Y-76975429D01*
X68648143Y-76994948D01*
X68722458Y-77010577D01*
X68791681Y-77019142D01*
X68817734Y-77019850D01*
X68898042Y-77011855D01*
X68980126Y-76994196D01*
X68988517Y-76991658D01*
X69103097Y-76947569D01*
X69194928Y-76890950D01*
X69282185Y-76810026D01*
X69301772Y-76788683D01*
X69387787Y-76672868D01*
X69442688Y-76547295D01*
X69469927Y-76402009D01*
X69474431Y-76291016D01*
X69455453Y-76114267D01*
X69400467Y-75958679D01*
X69310523Y-75826003D01*
X69186675Y-75717992D01*
X69100230Y-75667591D01*
X68952673Y-75615613D01*
X68798955Y-75600569D01*
X68647557Y-75621435D01*
G36*
X69532810Y-76862917D02*
G01*
X69499629Y-76931506D01*
X69475406Y-76984057D01*
X69464884Y-77010246D01*
X69464767Y-77011084D01*
X69484182Y-77016015D01*
X69535428Y-77019631D01*
X69608009Y-77021241D01*
X69618974Y-77021266D01*
X69773181Y-77021266D01*
X69841224Y-76883282D01*
X69874405Y-76814693D01*
X69898627Y-76762142D01*
X69909149Y-76735953D01*
X69909267Y-76735115D01*
X69889852Y-76730184D01*
X69838606Y-76726568D01*
X69766025Y-76724958D01*
X69755060Y-76724933D01*
X69600853Y-76724933D01*
X69532810Y-76862917D01*
G37*
X69532810Y-76862917D02*
X69499629Y-76931506D01*
X69475406Y-76984057D01*
X69464884Y-77010246D01*
X69464767Y-77011084D01*
X69484182Y-77016015D01*
X69535428Y-77019631D01*
X69608009Y-77021241D01*
X69618974Y-77021266D01*
X69773181Y-77021266D01*
X69841224Y-76883282D01*
X69874405Y-76814693D01*
X69898627Y-76762142D01*
X69909149Y-76735953D01*
X69909267Y-76735115D01*
X69889852Y-76730184D01*
X69838606Y-76726568D01*
X69766025Y-76724958D01*
X69755060Y-76724933D01*
X69600853Y-76724933D01*
X69532810Y-76862917D01*
G36*
X70172980Y-75632927D02*
G01*
X70168825Y-75637590D01*
X70152192Y-75665737D01*
X70120670Y-75724057D01*
X70077498Y-75806173D01*
X70025913Y-75905713D01*
X69969154Y-76016302D01*
X69910460Y-76131565D01*
X69853068Y-76245128D01*
X69800218Y-76350617D01*
X69755146Y-76441658D01*
X69721093Y-76511876D01*
X69701295Y-76554896D01*
X69697600Y-76565147D01*
X69717013Y-76570776D01*
X69768251Y-76574904D01*
X69840811Y-76576738D01*
X69851633Y-76576766D01*
X70005666Y-76576766D01*
X70187774Y-76209576D01*
X70283442Y-76387879D01*
X70334502Y-76484368D01*
X70395361Y-76601364D01*
X70456999Y-76721453D01*
X70493616Y-76793725D01*
X70608120Y-77021266D01*
X70756110Y-77021266D01*
X70831898Y-77018472D01*
X70884386Y-77010993D01*
X70904100Y-77000181D01*
X70904100Y-77000133D01*
X70894772Y-76977063D01*
X70868220Y-76920684D01*
X70826592Y-76835326D01*
X70772036Y-76725322D01*
X70706701Y-76595002D01*
X70632735Y-76448698D01*
X70552286Y-76290740D01*
X70551140Y-76288499D01*
X70458963Y-76108552D01*
X70383864Y-75963110D01*
X70323900Y-75848861D01*
X70277124Y-75762492D01*
X70241592Y-75700692D01*
X70215356Y-75660148D01*
X70196473Y-75637547D01*
X70182996Y-75629577D01*
X70172980Y-75632927D01*
G37*
X70172980Y-75632927D02*
X70168825Y-75637590D01*
X70152192Y-75665737D01*
X70120670Y-75724057D01*
X70077498Y-75806173D01*
X70025913Y-75905713D01*
X69969154Y-76016302D01*
X69910460Y-76131565D01*
X69853068Y-76245128D01*
X69800218Y-76350617D01*
X69755146Y-76441658D01*
X69721093Y-76511876D01*
X69701295Y-76554896D01*
X69697600Y-76565147D01*
X69717013Y-76570776D01*
X69768251Y-76574904D01*
X69840811Y-76576738D01*
X69851633Y-76576766D01*
X70005666Y-76576766D01*
X70187774Y-76209576D01*
X70283442Y-76387879D01*
X70334502Y-76484368D01*
X70395361Y-76601364D01*
X70456999Y-76721453D01*
X70493616Y-76793725D01*
X70608120Y-77021266D01*
X70756110Y-77021266D01*
X70831898Y-77018472D01*
X70884386Y-77010993D01*
X70904100Y-77000181D01*
X70904100Y-77000133D01*
X70894772Y-76977063D01*
X70868220Y-76920684D01*
X70826592Y-76835326D01*
X70772036Y-76725322D01*
X70706701Y-76595002D01*
X70632735Y-76448698D01*
X70552286Y-76290740D01*
X70551140Y-76288499D01*
X70458963Y-76108552D01*
X70383864Y-75963110D01*
X70323900Y-75848861D01*
X70277124Y-75762492D01*
X70241592Y-75700692D01*
X70215356Y-75660148D01*
X70196473Y-75637547D01*
X70182996Y-75629577D01*
X70172980Y-75632927D01*
G36*
X71536827Y-75606796D02*
G01*
X71390414Y-75609349D01*
X71279662Y-75612201D01*
X71197899Y-75616111D01*
X71138455Y-75621837D01*
X71094659Y-75630138D01*
X71059841Y-75641772D01*
X71027330Y-75657497D01*
X71010801Y-75666600D01*
X70911847Y-75744874D01*
X70839017Y-75848823D01*
X70793713Y-75969752D01*
X70777339Y-76098971D01*
X70791297Y-76227788D01*
X70836991Y-76347509D01*
X70888934Y-76421617D01*
X70948869Y-76481529D01*
X71012475Y-76524212D01*
X71088288Y-76552324D01*
X71184845Y-76568524D01*
X71310682Y-76575470D01*
X71385642Y-76576301D01*
X71644933Y-76576766D01*
X71644933Y-77021266D01*
X71898933Y-77021266D01*
X71898933Y-76280433D01*
X71547658Y-76280433D01*
X71396988Y-76279146D01*
X71282625Y-76274213D01*
X71198591Y-76264028D01*
X71138910Y-76246985D01*
X71097604Y-76221475D01*
X71068696Y-76185894D01*
X71049393Y-76146494D01*
X71034513Y-76091885D01*
X71046164Y-76044320D01*
X71054216Y-76028820D01*
X71094318Y-75976216D01*
X71151295Y-75938985D01*
X71231538Y-75915126D01*
X71341434Y-75902638D01*
X71467227Y-75899466D01*
X71702270Y-75899433D01*
X71835370Y-75749671D01*
X71968470Y-75599911D01*
X71536827Y-75606796D01*
G37*
X71536827Y-75606796D02*
X71390414Y-75609349D01*
X71279662Y-75612201D01*
X71197899Y-75616111D01*
X71138455Y-75621837D01*
X71094659Y-75630138D01*
X71059841Y-75641772D01*
X71027330Y-75657497D01*
X71010801Y-75666600D01*
X70911847Y-75744874D01*
X70839017Y-75848823D01*
X70793713Y-75969752D01*
X70777339Y-76098971D01*
X70791297Y-76227788D01*
X70836991Y-76347509D01*
X70888934Y-76421617D01*
X70948869Y-76481529D01*
X71012475Y-76524212D01*
X71088288Y-76552324D01*
X71184845Y-76568524D01*
X71310682Y-76575470D01*
X71385642Y-76576301D01*
X71644933Y-76576766D01*
X71644933Y-77021266D01*
X71898933Y-77021266D01*
X71898933Y-76280433D01*
X71547658Y-76280433D01*
X71396988Y-76279146D01*
X71282625Y-76274213D01*
X71198591Y-76264028D01*
X71138910Y-76246985D01*
X71097604Y-76221475D01*
X71068696Y-76185894D01*
X71049393Y-76146494D01*
X71034513Y-76091885D01*
X71046164Y-76044320D01*
X71054216Y-76028820D01*
X71094318Y-75976216D01*
X71151295Y-75938985D01*
X71231538Y-75915126D01*
X71341434Y-75902638D01*
X71467227Y-75899466D01*
X71702270Y-75899433D01*
X71835370Y-75749671D01*
X71968470Y-75599911D01*
X71536827Y-75606796D01*
G36*
X72893767Y-75749575D02*
G01*
X72895531Y-75831310D01*
X72902224Y-75880123D01*
X72915946Y-75905329D01*
X72930808Y-75913898D01*
X73000174Y-75953845D01*
X73035379Y-76007462D01*
X73034356Y-76066649D01*
X72995037Y-76123306D01*
X72986162Y-76130730D01*
X72955963Y-76150529D01*
X72919501Y-76163374D01*
X72867375Y-76170704D01*
X72790188Y-76173960D01*
X72699732Y-76174600D01*
X72567974Y-76177443D01*
X72469165Y-76187849D01*
X72394187Y-76208627D01*
X72333925Y-76242588D01*
X72279261Y-76292544D01*
X72264618Y-76308752D01*
X72194390Y-76419780D01*
X72161342Y-76547538D01*
X72163498Y-76661294D01*
X72198908Y-76784539D01*
X72265027Y-76887962D01*
X72355750Y-76965169D01*
X72464970Y-77009768D01*
X72502319Y-77016051D01*
X72597433Y-77026772D01*
X72597433Y-76875852D01*
X72596331Y-76797118D01*
X72591346Y-76751717D01*
X72579960Y-76730674D01*
X72559654Y-76725012D01*
X72555100Y-76724933D01*
X72509022Y-76710567D01*
X72470433Y-76682600D01*
X72438721Y-76636521D01*
X72428100Y-76597933D01*
X72442466Y-76551854D01*
X72470433Y-76513266D01*
X72495129Y-76493720D01*
X72528217Y-76481214D01*
X72578898Y-76474239D01*
X72656376Y-76471290D01*
X72729725Y-76470815D01*
X72831953Y-76468448D01*
X72927874Y-76462190D01*
X73003396Y-76453138D01*
X73031350Y-76447307D01*
X73130218Y-76399326D01*
X73214184Y-76318778D01*
X73275128Y-76214882D01*
X73297175Y-76145569D01*
X73309645Y-76007834D01*
X73286010Y-75881563D01*
X73229748Y-75772470D01*
X73144336Y-75686268D01*
X73033251Y-75628672D01*
X72973142Y-75613104D01*
X72893767Y-75598389D01*
X72893767Y-75749575D01*
G37*
X72893767Y-75749575D02*
X72895531Y-75831310D01*
X72902224Y-75880123D01*
X72915946Y-75905329D01*
X72930808Y-75913898D01*
X73000174Y-75953845D01*
X73035379Y-76007462D01*
X73034356Y-76066649D01*
X72995037Y-76123306D01*
X72986162Y-76130730D01*
X72955963Y-76150529D01*
X72919501Y-76163374D01*
X72867375Y-76170704D01*
X72790188Y-76173960D01*
X72699732Y-76174600D01*
X72567974Y-76177443D01*
X72469165Y-76187849D01*
X72394187Y-76208627D01*
X72333925Y-76242588D01*
X72279261Y-76292544D01*
X72264618Y-76308752D01*
X72194390Y-76419780D01*
X72161342Y-76547538D01*
X72163498Y-76661294D01*
X72198908Y-76784539D01*
X72265027Y-76887962D01*
X72355750Y-76965169D01*
X72464970Y-77009768D01*
X72502319Y-77016051D01*
X72597433Y-77026772D01*
X72597433Y-76875852D01*
X72596331Y-76797118D01*
X72591346Y-76751717D01*
X72579960Y-76730674D01*
X72559654Y-76725012D01*
X72555100Y-76724933D01*
X72509022Y-76710567D01*
X72470433Y-76682600D01*
X72438721Y-76636521D01*
X72428100Y-76597933D01*
X72442466Y-76551854D01*
X72470433Y-76513266D01*
X72495129Y-76493720D01*
X72528217Y-76481214D01*
X72578898Y-76474239D01*
X72656376Y-76471290D01*
X72729725Y-76470815D01*
X72831953Y-76468448D01*
X72927874Y-76462190D01*
X73003396Y-76453138D01*
X73031350Y-76447307D01*
X73130218Y-76399326D01*
X73214184Y-76318778D01*
X73275128Y-76214882D01*
X73297175Y-76145569D01*
X73309645Y-76007834D01*
X73286010Y-75881563D01*
X73229748Y-75772470D01*
X73144336Y-75686268D01*
X73033251Y-75628672D01*
X72973142Y-75613104D01*
X72893767Y-75598389D01*
X72893767Y-75749575D01*
G36*
X73633639Y-75707672D02*
G01*
X73528767Y-75822828D01*
X73528767Y-76801537D01*
X73633639Y-76916693D01*
X73738512Y-77031850D01*
X73738512Y-75592517D01*
X73633639Y-75707672D01*
G37*
X73633639Y-75707672D02*
X73528767Y-75822828D01*
X73528767Y-76801537D01*
X73633639Y-76916693D01*
X73738512Y-77031850D01*
X73738512Y-75592517D01*
X73633639Y-75707672D01*
%TD*%
D11*
%TO.C,REF\u002A\u002A*%
X87630000Y-86360000D03*
%TD*%
%TO.C,REF\u002A\u002A*%
X87630000Y-100584000D03*
%TD*%
%TO.C,REF\u002A\u002A*%
X77571600Y-110642400D03*
%TD*%
%TO.C,REF\u002A\u002A*%
X63347600Y-110642400D03*
%TD*%
%TO.C,REF\u002A\u002A*%
X53289200Y-100584000D03*
%TD*%
%TO.C,REF\u002A\u002A*%
X53289200Y-86360000D03*
%TD*%
%TO.C,REF\u002A\u002A*%
X63347600Y-76301600D03*
%TD*%
%TO.C,REF\u002A\u002A*%
X77571600Y-76301600D03*
%TD*%
M02*
