0
SECTION
2
HEADER
9
$INSUNITS
70
4
9
$ACADVER
1
AC1014
9
$HANDSEED
5
FFFF
0
ENDSEC
0
SECTION
2
TABLES
0
TABLE
2
VPORT
5
8
100
AcDbSymbolTable
0
ENDTAB
0
TABLE
2
LTYPE
5
5
100
AcDbSymbolTable
0
LTYPE
5
14
100
AcDbSymbolTableRecord
100
AcDbLinetypeTableRecord
2
BYBLOCK
70
0
0
LTYPE
5
15
100
AcDbSymbolTableRecord
100
AcDbLinetypeTableRecord
2
BYLAYER
70
0
0
LTYPE
5
16
100
AcDbSymbolTableRecord
100
AcDbLinetypeTableRecord
2
DASHED
70
0
3
Dashed __ __ __ __ __ __ __ __ __ __ __ __ __ _
72
65
73
2
40
0.75
49
0.5
74
0
49
-0.25
74
0
0
ENDTAB
0
TABLE
2
LAYER
5
2
100
AcDbSymbolTable
70
2
0
LAYER
5
50
100
AcDbSymbolTableRecord
100
AcDbLayerTableRecord
2
0
70
0
62
7
6
CONTINUOUS
0
ENDTAB
0
TABLE
2
STYLE
5
3
100
AcDbSymbolTable
70
1
0
STYLE
5
11
100
AcDbSymbolTableRecord
100
AcDbTextStyleTableRecord
2
STANDARD
70
0
0
ENDTAB
0
TABLE
2
VIEW
5
6
100
AcDbSymbolTable
70
0
0
ENDTAB
0
TABLE
2
UCS
5
7
100
AcDbSymbolTable
70
0
0
ENDTAB
0
TABLE
2
APPID
5
9
100
AcDbSymbolTable
70
2
0
APPID
5
12
100
AcDbSymbolTableRecord
100
AcDbRegAppTableRecord
2
ACAD
70
0
0
ENDTAB
0
TABLE
2
DIMSTYLE
5
A
100
AcDbSymbolTable
70
1
0
ENDTAB
0
TABLE
2
BLOCK_RECORD
5
1
100
AcDbSymbolTable
70
1
0
BLOCK_RECORD
5
1F
100
AcDbSymbolTableRecord
100
AcDbBlockTableRecord
2
*MODEL_SPACE
0
BLOCK_RECORD
5
1B
100
AcDbSymbolTableRecord
100
AcDbBlockTableRecord
2
*PAPER_SPACE
0
ENDTAB
0
ENDSEC
0
SECTION
2
BLOCKS
0
BLOCK
5
20
100
AcDbEntity
100
AcDbBlockBegin
2
*MODEL_SPACE
0
ENDBLK
5
21
100
AcDbEntity
100
AcDbBlockEnd
0
BLOCK
5
1C
100
AcDbEntity
100
AcDbBlockBegin
2
*PAPER_SPACE
0
ENDBLK
5
1D
100
AcDbEntity
100
AcDbBlockEnd
0
ENDSEC
0
SECTION
2
ENTITIES
0
LWPOLYLINE
5
100
100
AcDbEntity
8
0
100
AcDbPolyline
90
52
70
1
43
0.0
10
-13.794157279269017
20
-22.923047000000004
10
13.794581368748293
20
-22.923047000000011
10
20.607161500000007
20
-8.3140549999999998
10
20.609161500000003
20
-8.3120550000000009
10
20.636330500000003
20
-8.2592549999999996
10
20.793330500000003
20
-7.2324549999999999
10
20.929431500000003
20
-6.2033550000000002
10
21.044430500000001
20
-5.1724550000000002
10
21.138531500000003
20
-4.1398549999999998
10
21.211731500000003
20
-3.1060550000000005
10
21.263830500000005
20
-2.0712549999999998
10
21.295031500000007
20
-1.035855
10
21.305130500000004
20
-0.00015500000000695513
10
21.294330500000001
20
1.0355449999999999
10
21.262530500000004
20
2.070945
10
21.209731500000007
20
3.105645
10
21.135830500000004
20
4.1393449999999996
10
21.041031500000003
20
5.1718450000000002
10
20.925131500000003
20
6.2027450000000002
10
20.788330500000001
20
7.2316450000000012
10
20.630431500000004
20
8.2583450000000003
10
20.628430500000007
20
8.2622450000000001
10
20.616631500000004
20
8.2934450000000002
10
13.794831807882366
20
22.92295300000001
10
-13.796748052089674
20
22.922953
10
-17.11254587112515
20
15.76979694774916
10
-13.480942007984197
20
14.055679924346631
10
-15.636186504255267
20
9.5233275277731995
10
-19.260566479087139
20
11.205039836095507
10
-20.598630500000002
20
8.3227450000000012
10
-20.6376305
20
8.2583450000000003
10
-20.794530499999997
20
7.2314450000000008
10
-20.930531499999997
20
6.2024450000000009
10
-21.045431499999999
20
5.1714450000000003
10
-21.139330499999996
20
4.1388449999999999
10
-21.2123305
20
3.1050450000000001
10
-21.264231500000001
20
2.0702449999999999
10
-21.266010840382062
20
2.0239530000000001
10
-17.280029499999998
20
2.0239529999999997
10
-17.280029499999998
20
-3.0400470000000004
10
-21.212104541651389
20
-3.0400470000000004
10
-21.209130500000001
20
-3.1066550000000004
10
-21.135131499999996
20
-4.1404550000000011
10
-21.040131499999998
20
-5.1728550000000002
10
-20.9242305
20
-6.203755000000001
10
-20.787331499999997
20
-7.2327550000000009
10
-20.629430499999998
20
-8.2593549999999993
10
-20.604030499999997
20
-8.310155
10
-19.007134315100036
20
-11.738791668335935
10
-15.432040134472864
20
-10.0529749002341
10
-13.251018780576441
20
-14.699498654185792
10
-16.858135358877
20
-16.328519044387452
0
CIRCLE
5
101
100
AcDbEntity
8
0
100
AcDbCircle
10
-17.170429499999997
20
-7.1120470000000005
30
0
40
1.05
210
1.1270725851789228e-131
220
-1.6305148680499777e-197
230
1
0
CIRCLE
5
102
100
AcDbEntity
8
0
100
AcDbCircle
10
-17.170429499999997
20
7.1119529999999997
30
0
40
1.05
210
1.1270725851789228e-131
220
-1.6305148680499777e-197
230
1
0
CIRCLE
5
103
100
AcDbEntity
8
0
100
AcDbCircle
10
-2.9499999996806386e-05
20
-4.7000000009230007e-05
30
0
40
14.500000000000002
210
5.6353629258946141e-132
220
-8.1525743402498886e-198
230
1
0
CIRCLE
5
104
100
AcDbEntity
8
0
100
AcDbCircle
10
-7.1120294999999976
20
-17.170446999999999
30
0
40
1.05
210
1.1270725851789228e-131
220
-1.6305148680499777e-197
230
1
0
CIRCLE
5
105
100
AcDbEntity
8
0
100
AcDbCircle
10
7.1119705000000035
20
-17.170446999999999
30
0
40
1.05
210
1.1270725851789228e-131
220
-1.6305148680499777e-197
230
1
0
CIRCLE
5
106
100
AcDbEntity
8
0
100
AcDbCircle
10
-7.1120294999999976
20
17.170352999999999
30
0
40
1.05
210
1.1270725851789228e-131
220
-1.6305148680499777e-197
230
1
0
CIRCLE
5
107
100
AcDbEntity
8
0
100
AcDbCircle
10
7.1119705000000035
20
17.170352999999999
30
0
40
1.05
210
1.1270725851789228e-131
220
-1.6305148680499777e-197
230
1
0
CIRCLE
5
108
100
AcDbEntity
8
0
100
AcDbCircle
10
17.170370500000001
20
-7.1120470000000005
30
0
40
1.05
210
1.1270725851789228e-131
220
-1.6305148680499777e-197
230
1
0
CIRCLE
5
109
100
AcDbEntity
8
0
100
AcDbCircle
10
17.170370500000001
20
7.1119529999999997
30
0
40
1.05
210
1.1270725851789228e-131
220
-1.6305148680499777e-197
230
1
0
ENDSEC
0
SECTION
2
OBJECTS
0
DICTIONARY
5
C
100
AcDbDictionary
3
ACAD_GROUP
350
D
3
ACAD_MLINESTYLE
350
17
0
DICTIONARY
5
D
100
AcDbDictionary
0
DICTIONARY
5
1A
330
C
100
AcDbDictionary
0
DICTIONARY
5
17
100
AcDbDictionary
0
ENDSEC
0
EOF
