0
SECTION
2
HEADER
9
$INSUNITS
70
4
9
$ACADVER
1
AC1014
9
$HANDSEED
5
FFFF
0
ENDSEC
0
SECTION
2
TABLES
0
TABLE
2
VPORT
5
8
100
AcDbSymbolTable
0
ENDTAB
0
TABLE
2
LTYPE
5
5
100
AcDbSymbolTable
0
LTYPE
5
14
100
AcDbSymbolTableRecord
100
AcDbLinetypeTableRecord
2
BYBLOCK
70
0
0
LTYPE
5
15
100
AcDbSymbolTableRecord
100
AcDbLinetypeTableRecord
2
BYLAYER
70
0
0
LTYPE
5
16
100
AcDbSymbolTableRecord
100
AcDbLinetypeTableRecord
2
DASHED
70
0
3
Dashed __ __ __ __ __ __ __ __ __ __ __ __ __ _
72
65
73
2
40
0.75
49
0.5
74
0
49
-0.25
74
0
0
ENDTAB
0
TABLE
2
LAYER
5
2
100
AcDbSymbolTable
70
2
0
LAYER
5
50
100
AcDbSymbolTableRecord
100
AcDbLayerTableRecord
2
0
70
0
62
7
6
CONTINUOUS
0
ENDTAB
0
TABLE
2
STYLE
5
3
100
AcDbSymbolTable
70
1
0
STYLE
5
11
100
AcDbSymbolTableRecord
100
AcDbTextStyleTableRecord
2
STANDARD
70
0
0
ENDTAB
0
TABLE
2
VIEW
5
6
100
AcDbSymbolTable
70
0
0
ENDTAB
0
TABLE
2
UCS
5
7
100
AcDbSymbolTable
70
0
0
ENDTAB
0
TABLE
2
APPID
5
9
100
AcDbSymbolTable
70
2
0
APPID
5
12
100
AcDbSymbolTableRecord
100
AcDbRegAppTableRecord
2
ACAD
70
0
0
ENDTAB
0
TABLE
2
DIMSTYLE
5
A
100
AcDbSymbolTable
70
1
0
ENDTAB
0
TABLE
2
BLOCK_RECORD
5
1
100
AcDbSymbolTable
70
1
0
BLOCK_RECORD
5
1F
100
AcDbSymbolTableRecord
100
AcDbBlockTableRecord
2
*MODEL_SPACE
0
BLOCK_RECORD
5
1B
100
AcDbSymbolTableRecord
100
AcDbBlockTableRecord
2
*PAPER_SPACE
0
ENDTAB
0
ENDSEC
0
SECTION
2
BLOCKS
0
BLOCK
5
20
100
AcDbEntity
100
AcDbBlockBegin
2
*MODEL_SPACE
0
ENDBLK
5
21
100
AcDbEntity
100
AcDbBlockEnd
0
BLOCK
5
1C
100
AcDbEntity
100
AcDbBlockBegin
2
*PAPER_SPACE
0
ENDBLK
5
1D
100
AcDbEntity
100
AcDbBlockEnd
0
ENDSEC
0
SECTION
2
ENTITIES
0
CIRCLE
5
100
100
AcDbEntity
8
0
100
AcDbCircle
10
-7.1120294999999949
20
17.170352999999999
30
0
40
1.05
210
2.2541451703578456e-131
220
-2.6646978495359866e-295
230
1
0
CIRCLE
5
101
100
AcDbEntity
8
0
100
AcDbCircle
10
7.1119705000000071
20
17.170352999999999
30
0
40
1.05
210
2.2541451703578456e-131
220
-2.6646978495359866e-295
230
1
0
CIRCLE
5
102
100
AcDbEntity
8
0
100
AcDbCircle
10
-7.1120294999999949
20
-17.170446999999999
30
0
40
1.05
210
2.2541451703578456e-131
220
-2.6646978495359866e-295
230
1
0
CIRCLE
5
103
100
AcDbEntity
8
0
100
AcDbCircle
10
7.1119705000000071
20
-17.170446999999999
30
0
40
1.05
210
2.2541451703578456e-131
220
-2.6646978495359866e-295
230
1
0
CIRCLE
5
104
100
AcDbEntity
8
0
100
AcDbCircle
10
17.170370500000004
20
-7.1120470000000005
30
0
40
1.05
210
2.2541451703578456e-131
220
-2.6646978495359866e-295
230
1
0
CIRCLE
5
105
100
AcDbEntity
8
0
100
AcDbCircle
10
17.170370500000004
20
7.1119529999999997
30
0
40
1.05
210
2.2541451703578456e-131
220
-2.6646978495359866e-295
230
1
0
CIRCLE
5
106
100
AcDbEntity
8
0
100
AcDbCircle
10
-2.9499999989466951e-05
20
-4.7000000009230007e-05
30
0
40
14.500000000000002
210
2.2541451703578456e-131
220
-2.6646978495359866e-295
230
1
0
CIRCLE
5
107
100
AcDbEntity
8
0
100
AcDbCircle
10
-17.170429499999994
20
7.1119529999999997
30
0
40
1.05
210
2.2541451703578456e-131
220
-2.6646978495359866e-295
230
1
0
CIRCLE
5
108
100
AcDbEntity
8
0
100
AcDbCircle
10
-17.170429499999994
20
-7.1120470000000005
30
0
40
1.05
210
2.2541451703578456e-131
220
-2.6646978495359866e-295
230
1
0
LWPOLYLINE
5
109
100
AcDbEntity
8
0
100
AcDbPolyline
90
70
70
1
43
0.0
10
10.032970500000006
20
-20.423046999999997
10
11.232970500000006
20
-20.423046999999997
10
11.232970500000006
20
-21.423047000000004
10
10.032970500000006
20
-21.423047000000004
10
10.032970500000006
20
-22.923047000000004
10
13.7945813687483
20
-22.923047000000004
10
20.607161500000007
20
-8.3140549999999998
10
20.60916150000001
20
-8.3120550000000009
10
20.636330500000007
20
-8.2592549999999996
10
20.793330500000007
20
-7.2324549999999999
10
20.929431500000007
20
-6.2033550000000002
10
21.044430500000004
20
-5.1724550000000002
10
21.138531500000006
20
-4.1398549999999998
10
21.211731500000006
20
-3.1060550000000005
10
21.263830500000008
20
-2.0712549999999998
10
21.295031500000015
20
-1.035855
10
21.305130500000011
20
-0.00015500000000695513
10
21.294330500000012
20
1.0355449999999999
10
21.262530500000011
20
2.070945
10
21.209731500000007
20
3.105645
10
21.135830500000008
20
4.1393449999999996
10
21.04103150000001
20
5.1718450000000002
10
20.925131500000013
20
6.2027450000000002
10
20.788330500000008
20
7.2316450000000012
10
20.630431500000014
20
8.2583450000000003
10
20.628430500000015
20
8.2622450000000001
10
20.616631500000011
20
8.2934450000000002
10
13.794831807882382
20
22.922953
10
10.032970500000006
20
22.922953
10
10.032970500000005
20
21.422953
10
11.232970500000006
20
21.422953
10
11.232970500000006
20
20.422953
10
10.032970500000005
20
20.422953
10
10.032970500000006
20
18.922953
10
-2.9499999989468506e-05
20
18.922953
10
-10.033029499999994
20
18.922953
10
-10.033029499999994
20
20.422953
10
-11.233029499999979
20
20.422953
10
-11.233029499999983
20
21.422953
10
-10.033029499999994
20
21.422953
10
-10.033029499999994
20
22.922953
10
-13.79250919981515
20
22.922953
10
-20.598630499999999
20
8.3227450000000012
10
-20.637630499999993
20
8.2583450000000003
10
-20.794530499999993
20
7.2314450000000008
10
-20.93053149999999
20
6.2024450000000009
10
-21.045431499999996
20
5.1714450000000003
10
-21.139330499999996
20
4.1388449999999999
10
-21.21233049999999
20
3.1050450000000001
10
-21.26423149999999
20
2.0702449999999999
10
-21.295231499999989
20
1.034845
10
-21.30513049999999
20
-0.00085500000000099385
10
-21.294131499999995
20
-1.0365549999999999
10
-21.262130499999998
20
-2.071955
10
-21.209130499999993
20
-3.1066550000000004
10
-21.135131499999993
20
-4.1404550000000011
10
-21.040131499999998
20
-5.1728550000000002
10
-20.92423049999999
20
-6.203755000000001
10
-20.787331499999986
20
-7.2327550000000009
10
-20.629430499999991
20
-8.2593549999999993
10
-20.604030499999993
20
-8.310155
10
-13.791624222460374
20
-22.923046994026727
10
-10.032810899579204
20
-22.923046994026734
10
-10.032892874736959
20
-21.423046997013373
10
-11.2329201997896
20
-21.423046997013373
10
-11.2329201997896
20
-20.423046997013365
10
-10.032947524842239
20
-20.423046997013365
10
-10.033029499999994
20
-18.923047
10
-2.9499999989468506e-05
20
-18.923047
10
10.032970500000006
20
-18.923047
0
ENDSEC
0
SECTION
2
OBJECTS
0
DICTIONARY
5
C
100
AcDbDictionary
3
ACAD_GROUP
350
D
3
ACAD_MLINESTYLE
350
17
0
DICTIONARY
5
D
100
AcDbDictionary
0
DICTIONARY
5
1A
330
C
100
AcDbDictionary
0
DICTIONARY
5
17
100
AcDbDictionary
0
ENDSEC
0
EOF
